<svg width="480" height="480" fill="none" xmlns="http://www.w3.org/2000/svg"><g clip-path="url(#a)"><path opacity=".3" d="M448.584 317.642c-46.707 109.174-170 156.066-266.602 148.071-26.378-2.182-79.447-6.575-120.89-45.761C-18.485 344.698-6.22 187.396 69.95 94.784c9.815-11.925 77.726-91.83 183.536-90.76 77.474.784 131.846 44.546 138.464 49.998 8.354 6.888 26.776 23.254 43.381 49.219 39.012 61.01 42.441 146.178 13.253 214.401z" fill="url(#b)"/><path d="M372.625 429.412s-35.717-109.899-25.873-165.573c8.791-49.685 25.854-118.78 29.424-133.069a1.113 1.113 0 0 1 .933-.846 1.118 1.118 0 0 1 1.128.563c8.125 14.35 48.135 92.416 18.117 191.277-33.285 109.602-23.729 107.648-23.729 107.648z" fill="url(#c)"/><path opacity=".43" d="M382.069 166.351c.328 16.385-.13 32.755-1.03 49.111a671.427 671.427 0 0 1-4.497 48.912 588.406 588.406 0 0 1-3.713 24.289 490.145 490.145 0 0 1-4.912 24.087c-1.889 7.972-4.003 15.901-6.395 23.746-2.452 7.829-5.183 15.573-8.275 23.182a.89.89 0 0 1-1.164.491.892.892 0 0 1-.492-1.164v-.009c3.103-7.536 5.851-15.219 8.322-22.994 2.414-7.794 4.545-15.676 6.47-23.611a507.218 507.218 0 0 0 4.999-23.982 606.447 606.447 0 0 0 3.808-24.212 668.603 668.603 0 0 0 4.702-48.801c.972-16.313 1.501-32.677 1.247-49.011v-.01a.465.465 0 0 1 .929-.017l.001-.007z" fill="#fff"/><path d="M364.413 453.225s6.85-115.358 36.336-163.597c26.314-43.049 67.417-101.153 75.955-113.153a1.122 1.122 0 0 1 1.173-.44 1.119 1.119 0 0 1 .843.926c2.334 16.329 11.109 103.616-52.925 184.702-70.987 89.896-61.382 91.562-61.382 91.562z" fill="url(#d)"/><path opacity=".43" d="M469.207 211.753c-5.667 15.374-12.075 30.447-18.889 45.333a677.058 677.058 0 0 1-22.038 43.898 589.93 589.93 0 0 1-12.321 21.26 496.234 496.234 0 0 1-13.363 20.632c-4.675 6.731-9.53 13.342-14.621 19.775-5.138 6.394-10.508 12.607-16.164 18.562a.89.89 0 0 1-1.527-.595.892.892 0 0 1 .232-.634c5.638-5.885 11-12.034 16.142-18.374 5.091-6.376 9.959-12.935 14.64-19.62a501.423 501.423 0 0 0 13.406-20.505 603.11 603.11 0 0 0 12.381-21.15 670.118 670.118 0 0 0 22.186-43.719c6.868-14.835 13.325-29.879 19.047-45.176v-.01a.466.466 0 0 1 .859-.031c.051.112.056.24.013.356l.017-.002z" fill="#fff"/><path d="M.204 160.01C10.849 190.584 78.2 365.713 211.383 324.201c0 0-22.339-128.123-209.069-167.926-1.628-.346-2.806 1.736-2.11 3.735z" fill="url(#e)"/><path d="M.204 160.01C10.849 190.584 78.2 365.713 211.383 324.201c0 0-22.339-128.123-209.069-167.926-1.628-.346-2.806 1.736-2.11 3.735z" fill="url(#f)"/><path opacity=".43" d="M22.962 177.081c5.702 7.774 11.709 15.343 17.834 22.799a643.137 643.137 0 0 0 18.889 21.939c12.916 14.338 26.463 28.123 40.807 41.023 14.343 12.899 29.497 24.924 45.81 35.184 4.084 2.55 8.224 5.009 12.458 7.295a191.367 191.367 0 0 0 12.932 6.378c8.782 3.892 17.916 7.016 27.303 8.929a.893.893 0 1 1-.359 1.75c-9.538-1.992-18.772-5.202-27.624-9.172a196.515 196.515 0 0 1-13.019-6.492c-4.262-2.319-8.414-4.808-12.51-7.4-16.361-10.395-31.51-22.556-45.848-35.533-14.339-12.977-27.836-26.872-40.71-41.291a660.891 660.891 0 0 1-18.823-22.055c-6.1-7.496-12.075-15.091-17.764-22.918a.371.371 0 0 1-.068-.281.374.374 0 0 1 .152-.247.388.388 0 0 1 .133-.062.384.384 0 0 1 .395.146l.012.008z" fill="#fff"/><path d="M100.888 1.9c.412-2.72 2.952-2.187 5.111-.482 118.161 93.378 164.676 268.686 134.11 319.036.006 0-184.13-22.213-139.221-318.553z" fill="url(#g)"/><path d="M100.888 1.9c.412-2.72 2.952-2.187 5.111-.482 118.161 93.378 164.676 268.686 134.11 319.036.006 0-184.13-22.213-139.221-318.553z" fill="url(#h)"/><path opacity=".43" d="M108.944 38.018c.116.658.297 1.396.453 2.104l.515 2.14 1.078 4.273a640.926 640.926 0 0 0 2.272 8.509c1.561 5.66 3.187 11.3 4.879 16.918a920.827 920.827 0 0 0 10.701 33.555c7.602 22.213 15.906 44.193 25.315 65.699 4.744 10.73 9.595 21.418 14.865 31.903a133.573 133.573 0 0 0 1.983 3.927l2.02 3.908 2.017 3.91c.687 1.297 1.398 2.576 2.095 3.867 1.412 2.576 2.784 5.164 4.226 7.717l4.377 7.631c.366.636.722 1.278 1.096 1.908l1.14 1.889 2.277 3.764 2.279 3.762c.774 1.245 1.581 2.47 2.371 3.704l2.382 3.699c.804 1.226 1.563 2.481 2.404 3.678l4.98 7.247a334.058 334.058 0 0 0 21.741 27.656.289.289 0 0 1 .066.207.287.287 0 0 1-.299.269.29.29 0 0 1-.198-.087c-7.976-8.653-15.341-17.859-22.291-27.35l-5.076-7.222c-.858-1.192-1.638-2.444-2.457-3.665l-2.414-3.69c-.804-1.231-1.628-2.452-2.418-3.692L189 242.404l-2.324-3.754-1.162-1.876c-.383-.627-.745-1.268-1.118-1.901-11.967-20.273-22.474-41.384-31.85-62.957l-3.474-8.11-3.352-8.162c-1.135-2.713-2.174-5.464-3.262-8.196l-1.618-4.102-1.563-4.121a789.607 789.607 0 0 1-11.817-33.239c-3.682-11.162-7.188-22.396-10.401-33.705a807.271 807.271 0 0 1-4.621-17.02 665.39 665.39 0 0 1-2.143-8.554l-1.013-4.293-.483-2.153c-.147-.728-.316-1.419-.432-2.21a.287.287 0 0 1 .448-.268.287.287 0 0 1 .12.175l.009.06z" fill="#fff"/><path d="M76.498 464.725h337.499v-67.544h-337.5c7.225 0 7.225 67.544 0 67.544z" fill="url(#i)"/><path d="M413.997 447.822v-30.909c0-10.899-6.67-19.732-14.897-19.732H77.921a11.717 11.717 0 0 1-11.716-11.716 3.555 3.555 0 0 1 2.196-3.295 3.566 3.566 0 0 1 1.364-.272H420.79c8.05 0 20.831 12.658 20.831 28.27v43.175c0 14.721-12.409 26.654-19.998 26.654H71.605a5.408 5.408 0 0 1-5.405-5.406 9.867 9.867 0 0 1 9.87-9.865h325.165c7.049 0 12.762-7.568 12.762-16.904z" fill="url(#j)"/><path d="M404.636 411.617H88.185a.58.58 0 1 1 0-1.161h316.451a.581.581 0 1 1 0 1.161zM404.636 421.643H88.185a.58.58 0 1 1 0-1.161h316.451a.581.581 0 0 1 0 1.161zM404.636 431.671H88.185a.584.584 0 0 1-.58-.581.58.58 0 0 1 .58-.58h316.451a.581.581 0 1 1 0 1.161zM404.636 441.697H88.185a.58.58 0 1 1 0-1.161h316.451a.581.581 0 1 1 0 1.161zM404.636 451.723H88.185a.58.58 0 1 1 0-1.161h316.451a.581.581 0 0 1 0 1.161z" fill="#fff"/><path d="M113.284 381.596h296.785a3.45 3.45 0 0 0 3.45-3.45v-66.405a3.449 3.449 0 0 0-3.45-3.449H113.284a3.449 3.449 0 0 0-3.449 3.449v66.405a3.45 3.45 0 0 0 3.449 3.45z" fill="url(#k)"/><path d="M344.766 373.171h33.189c.687 0 1.243-.557 1.243-1.243v-53.969c0-.687-.556-1.243-1.243-1.243h-33.189c-.687 0-1.244.556-1.244 1.243v53.969c0 .686.557 1.243 1.244 1.243zM325.52 373.171h12.125a.63.63 0 0 0 .63-.63v-55.195a.63.63 0 0 0-.63-.63H325.52a.63.63 0 0 0-.631.63v55.195c0 .348.283.63.631.63z" fill="#53D8FF"/><path d="M91.636 308.678h344.61a3.45 3.45 0 0 0 3.45-3.45v-56.94a3.45 3.45 0 0 0-3.45-3.449H91.636a3.45 3.45 0 0 0-3.45 3.449v56.94a3.45 3.45 0 0 0 3.45 3.45z" fill="url(#l)"/><path d="M359.918 299.601h38.808c.687 0 1.243-.557 1.243-1.244v-40.506c0-.687-.556-1.243-1.243-1.243h-38.808c-.687 0-1.243.556-1.243 1.243v40.506c0 .687.556 1.244 1.243 1.244z" fill="url(#m)"/><path d="M339.525 299.601h14.233a.631.631 0 0 0 .631-.631v-41.732a.63.63 0 0 0-.631-.63h-14.233a.63.63 0 0 0-.63.63v41.732a.63.63 0 0 0 .63.631z" fill="url(#n)"/><path d="M404.753 297.843h10.358a.63.63 0 0 0 .63-.63V255.48a.63.63 0 0 0-.63-.63h-10.358a.63.63 0 0 0-.63.63v41.733c0 .348.282.63.63.63z" fill="url(#o)"/><path d="M96.058 328.848c.125-.05 67.967-118.857 77.135-130.037a7.107 7.107 0 0 1 6.345-2.552l18.935 2.258 22.246 48.125-37.06-21.585c3.666 25.363-43.942 63.055-60.272 76.809a3.742 3.742 0 0 0-1.331 2.667 3.763 3.763 0 0 0 1.034 2.796l6.525 6.822c-10.702 10.849-23.052 17.814-36.988 21.035l3.43-6.338z" fill="url(#p)"/><path d="M96.058 328.848c.125-.05 67.967-118.857 77.135-130.037a7.107 7.107 0 0 1 6.345-2.552l18.935 2.258 22.246 48.125-37.06-21.585c3.666 25.363-43.942 63.055-60.272 76.809a3.742 3.742 0 0 0-1.331 2.667 3.763 3.763 0 0 0 1.034 2.796l6.525 6.822c-10.702 10.849-23.052 17.814-36.988 21.035l3.43-6.338z" fill="url(#q)"/><path d="M125.84 310.464s4.159 1.343 5.569 5.048c.673 1.774-.053 3.778-1.595 4.886-6.85 4.907-29.448 20.753-39.874 23.856a1.174 1.174 0 0 1-1.134-.274 1.188 1.188 0 0 1-.343-1.115c.536-2.423 2.267-7.26 7.842-14.342l-.5 1.012c-.633 1.281.763 2.615 2.006 1.913 6.975-3.933 21.188-12.549 28.029-20.984z" fill="url(#r)"/><path d="M122.482 358.007c.115-.074 10.292-24.597 10.406-24.671 9.333-56.819 32.111-105.482 38.818-118.287a7.099 7.099 0 0 1 5.698-3.778l19-1.623 31.524 42.627-40.661-13.636c8.723 24.096-30.272 70.643-43.48 87.416a3.738 3.738 0 0 0-.763 2.881 3.75 3.75 0 0 0 1.578 2.528l7.765 5.363c-8.285 12.79-18.969 22.11-31.966 28.086l2.081-6.906z" fill="url(#s)"/><path d="M122.482 358.007c.115-.074 10.292-24.597 10.406-24.671 9.333-56.819 32.111-105.482 38.818-118.287a7.099 7.099 0 0 1 5.698-3.778l19-1.623 31.524 42.627-40.661-13.636c8.723 24.096-30.272 70.643-43.48 87.416a3.738 3.738 0 0 0-.763 2.881 3.75 3.75 0 0 0 1.578 2.528l7.765 5.363c-8.285 12.79-18.969 22.11-31.966 28.086l2.081-6.906z" fill="url(#t)"/><path d="M147.928 333.989s4.347.474 6.478 3.819c1.018 1.599.712 3.713-.574 5.107-5.715 6.185-24.638 26.276-34.221 31.428a1.183 1.183 0 0 1-1.583-.478 1.183 1.183 0 0 1-.145-.585c.034-2.48.75-7.568 4.779-15.626l-.285 1.092c-.361 1.382 1.274 2.404 2.351 1.466 6.032-5.273 18.202-16.589 23.2-26.223z" fill="url(#u)"/><path d="M285.345 200.668s17.189 25.566 18.598 37.229c1.41 11.663-4.753 15.695-22.743 17.182-53.538 4.425-79.93-11.62-79.93-11.62-3.662-23.354-6.269-29.292-36.855-41.989 0 0 38.688 3.072 46.473.05 7.786-3.022 74.457-.852 74.457-.852z" fill="url(#v)"/><path d="M216.801 57.43s11.972-14.164 24.699 3.215c2.306 3.147 11.162.551 14.406 7.138 1.676 3.402 5.295 5.335 9.023 4.647 9.288-1.717 24.47-1.856 31.964 12.697 5.721 11.11 1.305 17.611-4.415 21.317-4.2 2.723-5.699 8.242-3.16 12.562 2.437 4.137 2.895 9.74-3.395 16.485-14.098 15.111-42.003-9.588-42.003-9.588l-22.152-52.357-4.967-16.116z" fill="#010648"/><path d="M238.858 197.283s-20.017-19.06-29.879-31.683a26.788 26.788 0 0 1-4.525-24.106c4.499-15.154 12.493-30.85 13.222-33.294 1.118-3.745 23.562-3.589 23.562-3.589s44.163 28.663 61.515 77.216l-19.488 6.069s-11.531-19.348-22.924-31.648c0 0 19.715 26.045 20.409 36.708l-41.892 4.327z" fill="url(#w)"/><path d="m200.721 204.804 15.041-16.364 17.369 4.677s20.25 3.138 31.841 0l11.591-3.137 26.19-8.155 4.122 11.625a7.004 7.004 0 0 1-2.557 8.044c-2.267 1.609-4.923 3.379-6.617 4.121-3.448 1.509-79.455.477-79.455.477l-17.525-1.288z" fill="url(#x)"/><path d="m200.721 204.804 15.041-16.364 17.369 4.677s20.25 3.138 31.841 0l11.591-3.137 26.19-8.155 4.122 11.625a7.004 7.004 0 0 1-2.557 8.044c-2.267 1.609-4.923 3.379-6.617 4.121-3.448 1.509-79.455.477-79.455.477l-17.525-1.288z" fill="url(#y)"/><path d="m225.807 77.624 15.084 28.05c-.996 6.124-16.418 6.297-18.8 2.64a3.602 3.602 0 0 1-.472-1.237l-9.024-18.743c-.388-1.827 4.623-7.984 6.271-8.862l5.997-3.192c2.318-1.228-7.321-1.326.944 1.344z" fill="url(#z)"/><path d="m225.807 77.624 15.084 28.05c-.996 6.124-16.418 6.297-18.8 2.64a3.602 3.602 0 0 1-.472-1.237l-9.024-18.743c-.388-1.827 4.623-7.984 6.271-8.862l5.997-3.192c2.318-1.228-7.321-1.326.944 1.344z" fill="url(#A)"/><path d="M195.284 71.043s-1.703 9.475 5.746 21.525c7.449 12.049 14.866 11.505 18.635 7.212 3.769-4.293 8.282-11.454 6.228-23.472-2.054-12.019-28.036-17.35-30.609-5.265z" fill="url(#B)"/><path d="M195.284 71.043s-1.703 9.475 5.746 21.525c7.449 12.049 14.866 11.505 18.635 7.212 3.769-4.293 8.282-11.454 6.228-23.472-2.054-12.019-28.036-17.35-30.609-5.265z" fill="url(#C)"/><path d="M216.878 77.616s-12.06-15.842-21.32-2.033l.156 4.772s-12.041-.563-10.736-11.661c1.305-11.098 11.138-18.681 24.765-14.89 13.627 3.792 21.592 8.11 23.132 17.574 1.54 9.463-6.182 7.916-6.182 7.916s-2.952-6.525-6.516-6.975c-3.565-.45-2.276 4.718-2.276 4.718l-1.023.58z" fill="#010648"/><path d="M219.642 77.188s-6.247-8.109-.559-9.788c5.687-1.68 5.474 7.944 5.103 11.524l-4.544-1.736z" fill="url(#D)"/><path d="M219.642 77.188s-6.247-8.109-.559-9.788c5.687-1.68 5.474 7.944 5.103 11.524l-4.544-1.736z" fill="url(#E)"/><path d="M250.507 211.28h-.16l-69.178-.075a3.098 3.098 0 0 1 0-6.194l69.178.075a3.096 3.096 0 0 1 2.903 1.838 3.082 3.082 0 0 1 .058 2.365 3.09 3.09 0 0 1-2.808 1.979l.007.012z" fill="url(#F)"/><path d="M118.98 148.472h57.613a10.973 10.973 0 0 1 9.931 6.297l26.634 56.475h-71.597a6.668 6.668 0 0 1-6.206-4.22l-20.649-52.261a4.61 4.61 0 0 1 .473-4.276 4.602 4.602 0 0 1 3.801-2.015z" fill="url(#G)"/><path d="M159.569 177.428c1.248 3.879.326 7.647-2.061 8.414-2.386.768-5.323-1.753-6.58-5.632-1.257-3.879-.326-7.647 2.061-8.414 2.387-.768 5.333 1.753 6.58 5.632z" fill="url(#H)"/></g><defs><linearGradient id="s" x1="90.142" y1="244.546" x2="-275.815" y2="15.45" gradientUnits="userSpaceOnUse"><stop stop-color="#F9B776"/><stop offset="1" stop-color="#F47960"/></linearGradient><linearGradient id="b" x1="495.955" y1="526.724" x2="156.033" y2="159.824" gradientUnits="userSpaceOnUse"><stop stop-color="#B37CFF"/><stop offset="1" stop-color="#DFEFFE"/></linearGradient><linearGradient id="d" x1="421.117" y1="468.71" x2="423.174" y2="207.955" gradientUnits="userSpaceOnUse"><stop stop-color="#6165D7"/><stop offset="1" stop-color="#FC9D8A"/></linearGradient><linearGradient id="e" x1="123.395" y1="383.192" x2="97.853" y2="188.681" gradientUnits="userSpaceOnUse"><stop stop-color="#A737D5"/><stop offset="1" stop-color="#EF497A"/></linearGradient><linearGradient id="f" x1="291.646" y1="326.829" x2="281.012" y2="165.026" gradientUnits="userSpaceOnUse"><stop stop-color="#CB236D"/><stop offset="1" stop-color="#6165D7"/></linearGradient><linearGradient id="g" x1="203.808" y1="158.738" x2="57.258" y2="166.065" gradientUnits="userSpaceOnUse"><stop stop-color="#A737D5"/><stop offset="1" stop-color="#EF497A"/></linearGradient><linearGradient id="h" x1="170.068" y1="338.355" x2="172.128" y2="36.93" gradientUnits="userSpaceOnUse"><stop stop-color="#6165D7"/><stop offset="1" stop-color="#FC9D8A"/></linearGradient><linearGradient id="i" x1="197.998" y1="400.321" x2="510.093" y2="602.636" gradientUnits="userSpaceOnUse"><stop stop-color="#53D8FF"/><stop offset="1" stop-color="#3840F7"/></linearGradient><linearGradient id="j" x1="232.2" y1="449.112" x2="485.915" y2="156.091" gradientUnits="userSpaceOnUse"><stop stop-color="#010648"/><stop offset="1" stop-color="#6165D7"/></linearGradient><linearGradient id="k" x1="445" y1="285.5" x2="419.326" y2="436.94" gradientUnits="userSpaceOnUse"><stop stop-color="#30ABBA"/><stop offset="1" stop-color="#6165D7"/></linearGradient><linearGradient id="l" x1="273.838" y1="142.588" x2="241.236" y2="584.536" gradientUnits="userSpaceOnUse"><stop stop-color="#53D8FF"/><stop offset="1" stop-color="#3840F7"/></linearGradient><linearGradient id="m" x1="503.217" y1="55.68" x2="267.108" y2="479.558" gradientUnits="userSpaceOnUse"><stop stop-color="#53D8FF"/><stop offset="1" stop-color="#3840F7"/></linearGradient><linearGradient id="n" x1="476.713" y1="44.591" x2="243.959" y2="462.446" gradientUnits="userSpaceOnUse"><stop stop-color="#53D8FF"/><stop offset="1" stop-color="#3840F7"/></linearGradient><linearGradient id="o" x1="523.995" y1="71.575" x2="290.978" y2="489.905" gradientUnits="userSpaceOnUse"><stop stop-color="#53D8FF"/><stop offset="1" stop-color="#3840F7"/></linearGradient><linearGradient id="p" x1="79.795" y1="229.321" x2="186.754" y2="290.372" gradientUnits="userSpaceOnUse"><stop stop-color="#F9B776"/><stop offset="1" stop-color="#F47960"/></linearGradient><linearGradient id="q" x1="106.978" y1="243.517" x2="243.455" y2="304.045" gradientUnits="userSpaceOnUse"><stop stop-color="#FEBBBA"/><stop offset="1" stop-color="#FF928E"/></linearGradient><linearGradient id="r" x1="93.766" y1="290.342" x2="141.942" y2="406.947" gradientUnits="userSpaceOnUse"><stop stop-color="#2B3582"/><stop offset="1" stop-color="#150E42"/></linearGradient><linearGradient id="c" x1="431.028" y1="423.055" x2="337.756" y2="179.54" gradientUnits="userSpaceOnUse"><stop stop-color="#CB236D"/><stop offset="1" stop-color="#6165D7"/></linearGradient><linearGradient id="t" x1="132.448" y1="262.501" x2="255.844" y2="303.623" gradientUnits="userSpaceOnUse"><stop stop-color="#FEBBBA"/><stop offset="1" stop-color="#FF928E"/></linearGradient><linearGradient id="u" x1="116.274" y1="315.435" x2="186.581" y2="419.896" gradientUnits="userSpaceOnUse"><stop stop-color="#2B3582"/><stop offset="1" stop-color="#150E42"/></linearGradient><linearGradient id="v" x1="179.981" y1="152.667" x2="267.952" y2="249.07" gradientUnits="userSpaceOnUse"><stop stop-color="#30ABBA"/><stop offset="1" stop-color="#4C246D"/></linearGradient><linearGradient id="w" x1="202.007" y1="112.733" x2="454.148" y2="355.951" gradientUnits="userSpaceOnUse"><stop stop-color="#6165D7"/><stop offset="1" stop-color="#D93C65"/></linearGradient><linearGradient id="x" x1="267.129" y1="194.13" x2="373.676" y2="194.13" gradientUnits="userSpaceOnUse"><stop stop-color="#F9B776"/><stop offset="1" stop-color="#F47960"/></linearGradient><linearGradient id="y" x1="212.659" y1="190.203" x2="238.1" y2="243.204" gradientUnits="userSpaceOnUse"><stop stop-color="#FEBBBA"/><stop offset="1" stop-color="#FF928E"/></linearGradient><linearGradient id="z" x1="223.705" y1="143.148" x2="226.169" y2="104.77" gradientUnits="userSpaceOnUse"><stop stop-color="#F9B776"/><stop offset="1" stop-color="#F47960"/></linearGradient><linearGradient id="A" x1="215.746" y1="87.464" x2="247.166" y2="99.597" gradientUnits="userSpaceOnUse"><stop stop-color="#FEBBBA"/><stop offset="1" stop-color="#FF928E"/></linearGradient><linearGradient id="B" x1="227.367" y1="110.744" x2="181.006" y2="22.017" gradientUnits="userSpaceOnUse"><stop stop-color="#F9B776"/><stop offset="1" stop-color="#F47960"/></linearGradient><linearGradient id="C" x1="198.622" y1="77.269" x2="233.191" y2="90.84" gradientUnits="userSpaceOnUse"><stop stop-color="#FEBBBA"/><stop offset="1" stop-color="#FF928E"/></linearGradient><linearGradient id="D" x1="237.979" y1="105.197" x2="191.617" y2="16.47" gradientUnits="userSpaceOnUse"><stop stop-color="#F9B776"/><stop offset="1" stop-color="#F47960"/></linearGradient><linearGradient id="E" x1="217.55" y1="71.194" x2="226.432" y2="73.986" gradientUnits="userSpaceOnUse"><stop stop-color="#FEBBBA"/><stop offset="1" stop-color="#FF928E"/></linearGradient><linearGradient id="F" x1="262.274" y1="192.852" x2="207.358" y2="210.861" gradientUnits="userSpaceOnUse"><stop stop-color="#2B3582"/><stop offset="1" stop-color="#150E42"/></linearGradient><linearGradient id="G" x1="117.581" y1="183.929" x2="618.884" y2="141.752" gradientUnits="userSpaceOnUse"><stop stop-color="#2B3582"/><stop offset="1" stop-color="#150E42"/></linearGradient><linearGradient id="H" x1="162.897" y1="167.302" x2="144.953" y2="194.323" gradientUnits="userSpaceOnUse"><stop stop-color="#53D8FF"/><stop offset="1" stop-color="#3840F7"/></linearGradient><clipPath id="a"><path fill="#fff" d="M0 0h480v480H0z"/></clipPath></defs></svg>