<svg width="352" height="292" viewBox="0 0 352 292" fill="none" xmlns="http://www.w3.org/2000/svg">
<g clip-path="url(#clip0_2_542)">
<path d="M95.0602 23.9749L1.31958 145.381L253.395 82.9012L113.001 19.4686C109.94 18.0883 106.5 17.7823 103.242 18.6007C99.9841 19.419 97.1002 21.3133 95.0602 23.9749Z" fill="#91B3FA"/>
<path d="M0 146.285L94.6465 23.6608C96.7525 20.8927 99.7413 18.9225 103.121 18.0748C106.5 17.2271 110.068 17.5525 113.237 18.9974L255.03 83.0387L0 146.285ZM106.837 18.6537C104.642 18.6613 102.478 19.1737 100.514 20.1511C98.5499 21.1285 96.8385 22.5446 95.513 24.2891L2.63892 144.518L251.829 82.7539L112.784 19.9202C110.916 19.0783 108.887 18.6464 106.837 18.6537Z" fill="#E0E0E0"/>
<path d="M1.29785 145.388L254.29 82.6826L288.37 219.378C289.032 222.086 288.589 224.945 287.137 227.327C285.686 229.708 283.345 231.418 280.63 232.081L48.1643 289.699C45.4562 290.375 42.5895 289.954 40.1928 288.526C37.796 287.099 36.0648 284.782 35.3786 282.083L1.29785 145.388Z" fill="#6165D7"/>
<path d="M238.704 90.1663L151.068 179.439L18.5807 149.721L3.41676 79.6613C2.5777 76.0519 3.1943 72.2583 5.13373 69.0979C7.07316 65.9374 10.1802 63.6631 13.7853 62.7649L205.402 15.2666C207.209 14.8186 209.086 14.7299 210.927 15.0056C212.768 15.2813 214.536 15.9159 216.131 16.8732C217.726 17.8306 219.115 19.0918 220.221 20.5849C221.327 22.0781 222.127 23.7738 222.575 25.5752L238.704 90.1663Z" fill="white"/>
<path d="M139.036 172.419L34.9756 280.857C35.7178 283.833 37.615 286.393 40.2499 287.974C42.8849 289.556 46.0419 290.029 49.0268 289.29L279.745 232.072C281.223 231.706 282.613 231.053 283.838 230.15C285.062 229.248 286.096 228.114 286.881 226.813C287.665 225.512 288.185 224.069 288.41 222.568C288.636 221.066 288.562 219.535 288.193 218.062L287.977 217.198L151.905 169.356C149.692 168.577 147.3 168.452 145.017 168.996C142.734 169.539 140.657 170.728 139.036 172.419Z" fill="#91B3FA"/>
<path d="M105.79 73.1141L30.8276 91.7079L32.7317 99.3393L107.694 80.7455L105.79 73.1141Z" fill="#E0E0E0"/>
<path d="M201.973 69.7919L35.6509 111.047L37.8022 119.669L204.125 78.4142L201.973 69.7919Z" fill="#E0E0E0"/>
<path d="M207.234 90.8571L40.9119 132.112L43.0632 140.734L209.386 99.4794L207.234 90.8571Z" fill="#E0E0E0"/>
<path d="M210.739 118.765L205.53 123.959L65.904 160.363L47.658 156.102L46.9688 154.129L212.758 113.022L213.467 115.879L210.739 118.765Z" fill="#E0E0E0"/>
<path d="M175.025 155.042L112.115 170.643L92.8938 166.254L186.9 142.947L175.025 155.042Z" fill="#E0E0E0"/>
<path d="M135.245 176.376C135.175 176.481 135.092 176.577 134.998 176.661C134.821 176.867 134.575 177.142 134.26 177.476L131.365 180.578L120.632 191.888C111.553 201.431 98.9693 214.597 85.046 229.039C71.1228 243.481 58.3024 256.45 48.9677 265.738C44.3004 270.381 40.5094 274.122 37.8705 276.684L34.818 279.63L34.0204 280.386L33.7349 280.631C33.8043 280.526 33.887 280.43 33.981 280.346C34.1681 280.14 34.4241 279.885 34.7392 279.551L37.6932 276.527L48.6723 265.453C57.9282 256.096 70.66 243.108 84.6226 228.656L120.327 191.613L131.158 180.421L134.112 177.397L134.89 176.622C134.998 176.526 135.117 176.443 135.245 176.376Z" fill="#FAFAFA"/>
<path d="M287.977 217.198C287.977 217.336 258.909 207.292 223.176 194.775C187.442 182.257 158.532 171.978 158.532 171.811C158.532 171.644 187.59 181.717 223.343 194.244C259.096 206.772 288.026 217.061 287.977 217.198Z" fill="#FAFAFA"/>
<path d="M242.879 85.8662C242.879 85.8662 242.82 85.9546 242.692 86.1117L242.091 86.7989L239.757 89.3417L231.063 98.7569C223.698 106.67 213.427 117.538 201.926 129.379C190.425 141.219 179.87 151.812 172.16 159.401L162.993 168.355L160.501 170.829L159.832 171.438L159.595 171.644C159.595 171.644 159.655 171.556 159.792 171.399L160.423 170.751L162.865 168.267L171.914 159.195C179.545 151.527 190.061 140.914 201.562 129.064C213.063 117.214 223.363 106.405 230.807 98.5508L239.669 89.2533L242.081 86.74L242.711 86.092L242.879 85.8662Z" fill="#FAFAFA"/>
<path d="M135.244 176.376L134.89 176.317L133.905 176.082L129.967 175.1C126.589 174.256 121.695 173.077 115.649 171.654C103.538 168.797 86.7593 165.115 68.2081 161.11C49.6569 157.104 32.8781 153.363 20.7864 150.408C14.77 148.975 9.84666 147.738 6.52832 146.825L2.65857 145.784L1.6739 145.489C1.55813 145.468 1.44562 145.432 1.33911 145.381C1.45907 145.388 1.57793 145.408 1.69359 145.44L2.67826 145.676L6.61694 146.658C9.99436 147.502 14.8783 148.68 20.9341 150.094C33.0357 152.951 49.8243 156.633 68.3853 160.648C86.9464 164.664 103.705 168.394 115.797 171.34C121.843 172.812 126.717 174.049 130.075 174.953L133.945 176.003L134.929 176.288C135.037 176.307 135.143 176.336 135.244 176.376Z" fill="#FAFAFA"/>
<path d="M238.704 90.1663C238.704 90.1663 238.605 89.8521 238.448 89.1845C238.29 88.5169 238.034 87.6137 237.719 86.3963C237.099 83.9418 236.183 80.3289 235.001 75.6949C232.658 66.368 229.271 52.9079 225.086 36.2766C224.567 34.1952 224.032 32.0648 223.481 29.8852C223.205 28.7954 222.929 27.6959 222.654 26.5766C222.516 26.0268 222.378 25.4672 222.201 24.9272C222.045 24.372 221.844 23.8303 221.6 23.3073C220.35 20.5354 218.225 18.2468 215.55 16.7899C212.875 15.3331 209.796 14.7878 206.781 15.2371C205.54 15.4531 204.28 15.7967 203.019 16.1109L195.29 18.0254L179.161 22.0408L107.329 39.8601L35.4481 57.6499L19.3291 61.6359L15.3904 62.6176C14.1146 62.8845 12.8656 63.2657 11.6585 63.7565C10.4814 64.2482 9.38324 64.9098 8.39923 65.7201C7.44862 66.5056 6.61042 67.4173 5.90801 68.4298C5.18373 69.4316 4.58829 70.5201 4.1356 71.6696C3.7213 72.8095 3.45331 73.9971 3.33802 75.204C3.05247 77.6094 3.7122 79.9165 4.18484 82.2139C5.16951 86.789 6.15418 91.1874 7.02069 95.3795C10.6147 112.148 13.5195 125.726 15.5282 135.122C16.5129 139.805 17.2908 143.447 17.8127 145.921C18.0687 147.149 18.2656 148.091 18.3936 148.729C18.5216 149.367 18.5807 149.711 18.5807 149.711C18.5807 149.711 18.4921 149.387 18.3444 148.729C18.1967 148.071 17.9899 147.149 17.7142 145.921C17.1628 143.447 16.3554 139.815 15.3215 135.122C13.2733 125.736 10.3095 112.178 6.64651 95.4188C5.73405 91.2299 4.77892 86.8446 3.78112 82.263C3.30848 80.0442 2.61921 77.6585 2.954 75.1746C3.0748 73.9315 3.34931 72.7081 3.77128 71.5322C4.21501 70.3398 4.81424 69.2109 5.55353 68.1745C6.29604 67.1163 7.18441 66.1678 8.19244 65.3568C9.20738 64.5136 10.3423 63.8254 11.56 63.3147C12.7914 62.8088 14.067 62.4177 15.3707 62.1464L19.3094 61.1646L35.4383 57.1492L107.319 39.3201L179.2 21.5401L195.162 17.5737L202.891 15.7084C204.162 15.404 205.412 15.0604 206.702 14.8346C207.989 14.6629 209.294 14.6629 210.582 14.8346C213.054 15.1295 215.406 16.0626 217.406 17.5417C219.406 19.0207 220.984 20.9946 221.984 23.268C222.23 23.8049 222.434 24.3595 222.595 24.9272C222.782 25.4967 222.92 26.0563 223.048 26.6061C223.323 27.7253 223.599 28.8249 223.875 29.9147C224.406 32.0942 224.938 34.2247 225.45 36.306C229.566 52.9962 232.894 66.4368 235.208 75.7636C236.341 80.4173 237.178 84.0302 237.827 86.5043C238.123 87.7217 238.339 88.6544 238.497 89.3023C238.655 89.9503 238.704 90.1663 238.704 90.1663Z" fill="#E0E0E0"/>
<path d="M84.3568 0L76.3219 21.9525L91.7319 44.2389L70.0298 42.0495L66.4456 53.8995L12.3872 36.041L84.3568 0Z" fill="#F95E69"/>
<path d="M73.5351 30.5823C74.0078 31.2597 91.7318 44.2388 91.7318 44.2388L70.0691 42.0494L73.5351 30.5823Z" fill="#F95E69"/>
<g opacity="0.3">
<path d="M73.5351 30.5823C74.0078 31.2597 91.7318 44.2388 91.7318 44.2388L70.0691 42.0494L73.5351 30.5823Z" fill="#010648"/>
</g>
<path d="M12.3872 36.041L73.5352 30.5823L91.7319 44.2388L76.3219 21.9525L12.3872 36.041Z" fill="#F95E69"/>
<path opacity="0.1" d="M12.3872 36.041L73.5352 30.5823L91.7319 44.2388L76.3219 21.9525L12.3872 36.041Z" fill="#010648"/>
<path d="M336.964 262.134C337.053 262.409 334.995 263.352 332.425 264.235C329.855 265.119 327.639 265.63 327.502 265.355C327.364 265.08 329.471 264.147 332.041 263.254C334.611 262.36 336.876 261.84 336.964 262.134Z" fill="#010648"/>
<path d="M352 256.97C352.089 257.245 350.907 257.893 349.361 258.423C347.815 258.953 346.476 259.159 346.407 258.894C346.338 258.629 347.5 257.972 349.046 257.441C350.592 256.911 351.901 256.705 352 256.97Z" fill="#010648"/>
<path d="M123.753 19.5668C123.832 19.8515 121.784 20.6664 119.194 21.5794C116.605 22.4925 114.497 23.1601 114.379 22.895C114.261 22.6299 116.24 21.5303 118.85 20.6075C121.459 19.6846 123.684 19.3017 123.753 19.5668Z" fill="#010648"/>
<path d="M143.348 16.327C143.348 16.6117 141.162 16.9259 138.425 17.2106C135.688 17.4953 133.502 17.6524 133.443 17.3677C133.384 17.0829 135.56 16.4742 138.366 16.1895C141.172 15.9048 143.348 16.0423 143.348 16.327Z" fill="#010648"/>
<path d="M163.16 17.888C163.091 18.1629 160.885 17.888 158.177 17.5345C155.47 17.1811 153.254 16.7687 153.303 16.4742C153.353 16.1797 155.578 16.1208 158.325 16.4742C161.072 16.8276 163.219 17.6131 163.16 17.888Z" fill="#010648"/>
<path d="M181.819 24.6132C181.682 24.8684 179.634 24.0045 177.142 22.9049C174.651 21.8053 172.633 20.8628 172.731 20.5879C172.829 20.313 175.025 20.8333 177.556 21.9624C180.086 23.0914 181.957 24.3677 181.819 24.6132Z" fill="#010648"/>
<path d="M197.633 36.5516C197.426 36.7479 195.733 35.3047 193.695 33.5081C191.656 31.7114 190.012 30.2093 190.189 29.9737C190.366 29.738 192.306 30.8965 194.384 32.7325C196.461 34.5684 197.84 36.3258 197.633 36.5516Z" fill="#010648"/>
<path d="M209.174 52.633C208.918 52.7606 207.736 50.8854 206.318 48.5684C204.9 46.2515 203.827 44.3272 204.014 44.1799C204.201 44.0326 205.757 45.682 207.204 48.0481C208.652 50.4142 209.43 52.5152 209.174 52.633Z" fill="#010648"/>
<path d="M215.16 71.4831C214.875 71.4831 214.373 69.3527 213.762 66.7117C213.152 64.0707 212.679 61.901 212.955 61.8028C213.23 61.7046 214.156 63.7664 214.776 66.4761C215.397 69.1858 215.446 71.4438 215.16 71.4831Z" fill="#010648"/>
<path d="M214.156 91.1874C213.87 91.1089 214.225 88.9293 214.619 86.2785C215.013 83.6277 215.328 81.3696 215.604 81.3696C215.879 81.3696 216.047 83.6375 215.604 86.3865C215.16 89.1355 214.432 91.3052 214.156 91.1874Z" fill="#010648"/>
<path d="M205.924 109.154C205.688 108.977 206.791 107.053 208.14 104.697C209.489 102.34 210.591 100.426 210.857 100.544C211.123 100.662 210.414 102.802 209.036 105.207C207.657 107.613 206.16 109.311 205.924 109.154Z" fill="#010648"/>
<path d="M191.873 123.056C191.715 122.81 193.438 121.416 195.526 119.688C197.613 117.961 199.337 116.547 199.543 116.743C199.75 116.939 198.342 118.707 196.186 120.474C194.029 122.241 192.011 123.292 191.873 123.056Z" fill="#010648"/>
<path d="M173.538 130.429C173.538 130.144 175.646 129.594 178.255 128.848C180.864 128.102 182.991 127.464 183.109 127.729C183.227 127.994 181.229 129.094 178.54 129.85C175.852 130.606 173.578 130.704 173.538 130.429Z" fill="#010648"/>
<path d="M154.593 126.374C154.78 126.148 156.563 127.356 159.083 128.338C161.604 129.32 163.711 129.918 163.652 130.223C163.593 130.527 161.309 130.37 158.729 129.241C156.149 128.112 154.377 126.571 154.593 126.374Z" fill="#010648"/>
<path d="M153.284 108.899C153.51 109.105 152.063 110.803 151.098 113.248C150.133 115.693 150.162 117.902 149.857 117.921C149.552 117.941 149.03 115.585 150.133 112.865C151.235 110.146 153.116 108.702 153.284 108.899Z" fill="#010648"/>
<path d="M171.461 105.659C171.323 105.924 169.304 105.011 166.685 104.549C164.066 104.088 161.88 104.412 161.821 104.108C161.762 103.803 163.997 103.018 166.872 103.538C169.747 104.058 171.618 105.433 171.461 105.659Z" fill="#010648"/>
<path d="M182.4 121.485C182.105 121.534 181.563 119.394 180.549 116.91C179.535 114.426 178.462 112.502 178.708 112.325C178.954 112.148 180.46 113.906 181.514 116.527C182.568 119.148 182.666 121.456 182.4 121.485Z" fill="#010648"/>
<path d="M179.515 140.865C179.239 140.757 179.919 138.646 180.697 136.055C181.475 133.463 182.036 131.332 182.331 131.372C182.627 131.411 182.499 133.689 181.691 136.349C180.884 139.01 179.771 140.983 179.515 140.865Z" fill="#010648"/>
<path d="M169.6 158.066C169.363 157.909 170.368 155.916 171.855 153.619C173.341 151.321 174.73 149.574 174.976 149.691C175.222 149.809 174.218 151.822 172.731 154.139C171.244 156.456 169.836 158.213 169.6 158.066Z" fill="#010648"/>
<path d="M159.517 175.159C159.261 175.051 160.048 172.95 161.279 170.476C162.51 168.001 163.957 166.254 164.174 166.382C164.391 166.509 163.445 168.541 162.205 170.957C160.964 173.372 159.802 175.276 159.517 175.159Z" fill="#010648"/>
<path d="M153.884 194.137C153.609 194.137 153.717 191.849 154.337 189.159C154.958 186.469 155.824 184.387 156.1 184.466C156.375 184.545 155.952 186.734 155.342 189.375C154.731 192.016 154.17 194.186 153.884 194.137Z" fill="#010648"/>
<path d="M153.077 213.929C152.791 213.929 152.358 211.74 152.309 209.02C152.26 206.301 152.604 204.033 152.88 204.052C153.156 204.072 153.294 206.281 153.353 208.961C153.412 211.642 153.363 213.9 153.077 213.929Z" fill="#010648"/>
<path d="M156.947 233.359C156.671 233.447 155.735 231.395 155.036 228.725C154.337 226.054 154.15 223.816 154.426 223.757C154.702 223.698 155.351 225.828 156.041 228.46C156.73 231.091 157.212 233.26 156.947 233.359Z" fill="#010648"/>
<path d="M165.425 251.276C165.188 251.433 163.77 249.676 162.471 247.251C161.171 244.826 160.423 242.705 160.679 242.587C160.935 242.469 162.067 244.374 163.386 246.76C164.706 249.145 165.622 251.119 165.425 251.276Z" fill="#010648"/>
<path d="M178.225 266.395C178.038 266.611 176.256 265.198 174.287 263.244C172.317 261.29 171.037 259.444 171.254 259.268C171.47 259.091 173.056 260.642 175.035 262.527C177.014 264.412 178.373 266.179 178.225 266.395Z" fill="#010648"/>
<path d="M194.541 277.637C194.413 277.882 192.296 277.087 189.923 275.673C187.55 274.259 185.837 272.777 185.984 272.551C186.132 272.325 188.092 273.395 190.435 274.789C192.779 276.184 194.669 277.371 194.541 277.637Z" fill="#010648"/>
<path d="M213.152 284.558C213.083 284.833 210.847 284.558 208.228 283.743C205.609 282.928 203.561 281.917 203.669 281.652C203.777 281.387 205.924 281.956 208.533 282.752C211.143 283.547 213.22 284.283 213.152 284.558Z" fill="#010648"/>
<path d="M232.875 286.934C232.875 287.219 230.629 287.474 227.863 287.297C225.096 287.121 222.939 286.61 222.939 286.316C222.939 286.021 225.204 286.09 227.931 286.247C230.659 286.404 232.865 286.679 232.875 286.934Z" fill="#010648"/>
<path d="M252.578 284.489C252.657 284.764 250.54 285.569 247.812 286.08C245.085 286.59 242.83 286.62 242.8 286.335C242.771 286.05 244.947 285.569 247.625 285.069C250.303 284.568 252.499 284.214 252.578 284.489Z" fill="#010648"/>
<path d="M262.356 281.24C262.464 281.505 262.474 281.75 262.356 281.79C262.237 281.829 262.1 281.642 261.991 281.377C261.883 281.112 261.873 280.867 261.991 280.827C262.109 280.788 262.247 280.975 262.356 281.24Z" fill="#010648"/>
<path d="M223.522 247.596L202.498 253.005L205.874 266.048L226.897 260.638L223.522 247.596Z" fill="#F95E69"/>
<g opacity="0.3">
<path d="M223.522 247.596L202.498 253.005L205.874 266.048L226.897 260.638L223.522 247.596Z" fill="#010648" fill-opacity="0.64"/>
</g>
<path d="M223.52 247.584C223.747 247.751 220.458 252.434 216.106 258.148L215.879 258.453L215.515 258.315L214.983 258.119C207.992 255.557 202.399 253.21 202.497 252.994C202.596 252.778 208.346 254.585 215.298 257.157L215.83 257.343L215.239 257.52C219.65 251.826 223.303 247.408 223.52 247.584Z" fill="#F95E69"/>
<g opacity="0.1">
<path d="M223.52 247.584C223.747 247.751 220.458 252.434 216.106 258.148L215.879 258.453L215.515 258.315L214.983 258.119C207.992 255.557 202.399 253.21 202.497 252.994C202.596 252.778 208.346 254.585 215.298 257.157L215.83 257.343L215.239 257.52C219.65 251.826 223.303 247.408 223.52 247.584Z" fill="#010648" fill-opacity="0.64"/>
</g>
<path d="M211.763 256.391C212.009 256.538 210.887 258.816 209.262 261.477C207.637 264.137 206.121 266.179 205.875 266.032C205.629 265.885 206.751 263.607 208.376 260.946C210.001 258.286 211.517 256.244 211.763 256.391Z" fill="#F95E69"/>
<g opacity="0.1">
<path d="M211.763 256.391C212.009 256.538 210.887 258.816 209.262 261.477C207.637 264.137 206.121 266.179 205.875 266.032C205.629 265.885 206.751 263.607 208.376 260.946C210.001 258.286 211.517 256.244 211.763 256.391Z" fill="#010648" fill-opacity="0.64"/>
</g>
<path d="M227.282 260.524C227.124 260.76 224.987 259.542 222.476 257.932C219.966 256.322 217.908 254.673 218.252 254.486C218.597 254.3 220.556 255.409 223.057 257.078C225.558 258.747 227.459 260.289 227.282 260.524Z" fill="#F95E69"/>
<g opacity="0.1">
<path d="M227.282 260.524C227.124 260.76 224.987 259.542 222.476 257.932C219.966 256.322 217.908 254.673 218.252 254.486C218.597 254.3 220.556 255.409 223.057 257.078C225.558 258.747 227.459 260.289 227.282 260.524Z" fill="#010648" fill-opacity="0.64"/>
</g>
<path d="M321.48 244.554L267.401 258.469L276.082 292.007L330.16 278.093L321.48 244.554Z" fill="#F95E69"/>
<path d="M321.485 244.541C321.084 245.308 320.609 246.035 320.067 246.711C318.974 248.223 317.576 250.137 315.902 252.434C312.347 257.245 307.355 263.872 301.752 271.216L301.526 271.52L301.161 271.383L299.793 270.882C290.803 267.583 282.679 264.54 276.82 262.292L269.928 259.582C269.062 259.288 268.228 258.91 267.437 258.453C268.335 258.617 269.215 258.867 270.066 259.199L277.096 261.604C283.004 263.686 291.187 266.611 300.177 269.91L301.555 270.421L300.965 270.588C306.567 263.254 311.658 256.695 315.36 252.003L319.782 246.475C320.283 245.775 320.853 245.127 321.485 244.541Z" fill="#F95E69"/>
<g opacity="0.2">
<path d="M321.485 244.541C321.084 245.308 320.609 246.035 320.067 246.711C318.974 248.223 317.576 250.137 315.902 252.434C312.347 257.245 307.355 263.872 301.752 271.216L301.526 271.52L301.161 271.383L299.793 270.882C290.803 267.583 282.679 264.54 276.82 262.292L269.928 259.582C269.062 259.288 268.228 258.91 267.437 258.453C268.335 258.617 269.215 258.867 270.066 259.199L277.096 261.604C283.004 263.686 291.187 266.611 300.177 269.91L301.555 270.421L300.965 270.588C306.567 263.254 311.658 256.695 315.36 252.003L319.782 246.475C320.283 245.775 320.853 245.127 321.485 244.541Z" fill="#010648"/>
</g>
<path d="M291.226 267.19C291.472 267.338 288.272 273.012 284.097 279.865C279.922 286.718 276.328 292.147 276.092 292C275.855 291.853 279.046 286.178 283.211 279.325C287.376 272.472 290.98 267.043 291.226 267.19Z" fill="#F95E69"/>
<g opacity="0.2">
<path d="M291.226 267.19C291.472 267.338 288.272 273.012 284.097 279.865C279.922 286.718 276.328 292.147 276.092 292C275.855 291.853 279.046 286.178 283.211 279.325C287.376 272.472 290.98 267.043 291.226 267.19Z" fill="#010648"/>
</g>
<path d="M331.154 277.843C330.987 278.088 325.66 274.799 319.24 270.509C312.82 266.218 307.759 262.556 307.916 262.321C308.074 262.085 313.401 265.364 319.821 269.655C326.241 273.945 331.312 277.587 331.154 277.843Z" fill="#F95E69"/>
<g opacity="0.2">
<path d="M331.154 277.843C330.987 278.088 325.66 274.799 319.24 270.509C312.82 266.218 307.759 262.556 307.916 262.321C308.074 262.085 313.401 265.364 319.821 269.655C326.241 273.945 331.312 277.587 331.154 277.843Z" fill="#010648"/>
</g>
<path d="M274.24 263.686C273.653 265.213 272.624 266.532 271.285 267.476C269.945 268.42 268.355 268.947 266.715 268.99C265.075 269.032 263.459 268.588 262.072 267.715C260.685 266.841 259.589 265.577 258.923 264.083C258.256 262.588 258.05 260.929 258.329 259.318C258.609 257.706 259.362 256.213 260.492 255.028C261.623 253.843 263.081 253.019 264.682 252.66C266.283 252.302 267.954 252.425 269.484 253.014C271.533 253.802 273.184 255.368 274.076 257.369C274.967 259.37 275.027 261.641 274.24 263.686Z" fill="#010648"/>
<path d="M270.095 256.636C269.318 258.674 268.373 260.645 267.269 262.527L266.54 263.862L266.412 264.098L266.176 263.97C264.655 263.264 263.204 262.416 261.844 261.437C263.435 261.974 264.972 262.661 266.432 263.489L266.058 263.607C266.294 263.175 266.531 262.723 266.767 262.262C267.715 260.296 268.828 258.414 270.095 256.636Z" fill="white"/>
<path d="M268.769 225.519L240.443 232.808L244.992 250.385L273.319 243.096L268.769 225.519Z" fill="#F95E69"/>
<g opacity="0.2">
<path d="M268.769 225.519L240.443 232.807L244.992 250.385L273.319 243.096L268.769 225.519Z" fill="#010648" fill-opacity="0.64"/>
</g>
<path d="M268.815 225.514C268.606 225.917 268.359 226.298 268.077 226.653L265.891 229.598C264.03 232.122 261.42 235.597 258.486 239.416L258.358 239.583L258.171 239.514L257.452 239.249C252.745 237.521 248.491 235.931 245.419 234.753L241.786 233.329C241.338 233.168 240.903 232.971 240.486 232.74C240.959 232.818 241.422 232.95 241.865 233.133L245.547 234.389C248.649 235.479 252.932 237.011 257.639 238.739L258.358 239.004L258.053 239.092C261.007 235.253 263.655 231.817 265.595 229.353L267.909 226.408C268.186 226.085 268.489 225.786 268.815 225.514Z" fill="#F95E69"/>
<g opacity="0.2">
<path d="M268.815 225.514C268.606 225.917 268.359 226.298 268.077 226.653L265.891 229.598C264.03 232.122 261.42 235.597 258.486 239.416L258.358 239.583L258.171 239.514L257.452 239.249C252.745 237.521 248.491 235.931 245.419 234.753L241.786 233.329C241.338 233.168 240.903 232.971 240.486 232.74C240.959 232.818 241.422 232.95 241.865 233.133L245.547 234.389C248.649 235.479 252.932 237.011 257.639 238.739L258.358 239.004L258.053 239.092C261.007 235.253 263.655 231.817 265.595 229.353L267.909 226.408C268.186 226.085 268.489 225.786 268.815 225.514Z" fill="#F95E69"/>
</g>
<path d="M252.922 237.384C251.839 239.682 250.592 241.9 249.191 244.021C247.948 246.236 246.547 248.359 244.996 250.373C246.086 248.078 247.333 245.86 248.728 243.736C249.977 241.524 251.378 239.402 252.922 237.384Z" fill="#F95E69"/>
<g opacity="0.2">
<path d="M252.922 237.384C251.839 239.682 250.592 241.9 249.191 244.021C247.948 246.236 246.547 248.359 244.996 250.373C246.086 248.078 247.333 245.86 248.728 243.736C249.977 241.524 251.378 239.402 252.922 237.384Z" fill="#F95E69"/>
</g>
<path d="M273.847 242.95C271.67 241.832 269.583 240.549 267.604 239.112C265.536 237.822 263.562 236.388 261.696 234.821C263.871 235.942 265.958 237.225 267.939 238.66C270.006 239.95 271.981 241.384 273.847 242.95Z" fill="#F95E69"/>
<g opacity="0.2">
<path d="M273.847 242.95C271.67 241.832 269.583 240.549 267.604 239.112C265.536 237.822 263.562 236.388 261.696 234.821C263.871 235.942 265.958 237.225 267.939 238.66C270.006 239.95 271.981 241.384 273.847 242.95Z" fill="#F95E69"/>
</g>
</g>
<defs>
<clipPath id="clip0_2_542">
<rect width="352" height="292" fill="white"/>
</clipPath>
</defs>
</svg>
