<?xml version="1.0" encoding="UTF-8" standalone="no"?>
<svg
   width="400"
   height="400"
   viewBox="0 0 400 400"
   fill="none"
   version="1.1"
   id="svg302"
   sodipodi:docname="Group.svg"
   inkscape:version="1.1.2 (b8e25be833, 2022-02-05)"
   xmlns:inkscape="http://www.inkscape.org/namespaces/inkscape"
   xmlns:sodipodi="http://sodipodi.sourceforge.net/DTD/sodipodi-0.dtd"
   xmlns="http://www.w3.org/2000/svg"
   xmlns:svg="http://www.w3.org/2000/svg">
  <sodipodi:namedview
     id="namedview304"
     pagecolor="#505050"
     bordercolor="#ffffff"
     borderopacity="1"
     inkscape:pageshadow="0"
     inkscape:pageopacity="0"
     inkscape:pagecheckerboard="1"
     showgrid="false"
     inkscape:zoom="0.94282511"
     inkscape:cx="127.27705"
     inkscape:cy="135.76219"
     inkscape:window-width="1920"
     inkscape:window-height="1027"
     inkscape:window-x="-8"
     inkscape:window-y="-8"
     inkscape:window-maximized="1"
     inkscape:current-layer="svg302" />
  <path
     d="M 206.21996,10.087059 C 103.82498,7.1323524 15.127497,79.734865 1.7259819,174.99935 -12.924999,279.15864 67.716322,372.87589 166.94331,387.88669 290.36495,406.55676 410.07576,298.54709 399.3266,181.37259 391.22911,93.09144 310.31412,13.092367 206.21996,10.087059 Z"
     fill="#f4f7fa"
     id="path2"
     style="stroke-width:0.843196" />
  <path
     d="m 86.291649,254.15542 0.411667,0.13993 c 8.03833,2.81207 17.309164,4.43054 27.974164,4.00908 l 6.22084,-0.70302 c 1.37333,-5.18646 1.7625,-10.37207 -4.70917,-11.84551 -10.05833,-2.27543 -11.53833,-19.98653 -9.28167,-26.45276 2.79416,-8.00366 8.92417,-26.77612 -6.55834,-30.56592 -12.890824,-3.15591 -21.839819,-2.49385 -23.889736,-19.04378 -2.049835,-16.55078 -11.633165,-26.25823 -26.28133,-24.18758 -15.41433,2.17902 -29.597078,-17.99265 -41.7904102,-10.00009 -21.2453288,13.93581 1.3605838,49.06879 28.9888292,57.69868 27.628246,8.62903 12.905915,19.67938 13.133831,33.33363 0.313084,18.63595 24.545913,12.86762 31.532995,19.67938 2.36583,2.31211 3.629997,5.10968 4.24833,7.93796 z"
     fill="url(#paint0_linear_14_543)"
     id="path4"
     style="fill:url(#paint0_linear_14_543);stroke-width:0.843196" />
  <mask
     id="mask0_14_543"
     maskUnits="userSpaceOnUse"
     x="0"
     y="144"
     width="146"
     height="155">
    <path
       d="m 103.554,298.224 40.474,-3.228 c 1.9,-5.918 4.068,-16.728 -4.613,-18.657 -12.058,-2.679 -13.834,-23.438 -11.126,-31.017 3.353,-9.381 10.709,-31.384 -7.87,-35.826 -15.469,-3.699 -26.2078,-2.923 -28.6677,-22.321 -2.4598,-19.399 -13.9598,-30.777 -31.5376,-28.35 -18.4972,2.554 -35.5165,-21.089 -50.1485,-11.721 -25.4944,16.334 1.6327,57.513 34.7866,67.628 33.1539,10.114 15.4871,23.066 15.7606,39.07 0.3757,21.843 29.4551,15.08 37.8396,23.066 6.572,6.267 6.106,15.594 5.102,21.356 z"
       fill="#ffffff"
       id="path6" />
  </mask>
  <g
     mask="url(#mask0_14_543)"
     id="g21"
     transform="matrix(0.8333332,0,0,0.8531772,0,10)">
    <g
       style="mix-blend-mode:soft-light"
       opacity="0.5"
       id="g19">
      <path
         d="m 122.103,290.337 0.848,-0.238 C 105.546,228.174 58.1741,174.999 -0.680131,151.325 l -0.329509,0.816 C 57.5991,175.716 104.772,228.67 122.103,290.337 Z"
         fill="#fcfdfe"
         id="path9" />
      <path
         d="m 109.728,257.389 0.878,-0.066 c -1.9,-25.208 18.199,-46.483 18.403,-46.696 l -0.636,-0.607 c -0.211,0.209 -20.579,21.764 -18.645,47.369 z"
         fill="#fcfdfe"
         id="path11" />
      <path
         d="m 118.592,279.033 0.74,-0.475 C 105.504,256.975 58.8282,257.304 58.3586,257.304 l 0.0099,0.88 c 0.4646,-0.011 46.6575,-0.318 60.2235,20.849 z"
         fill="#fcfdfe"
         id="path13" />
      <path
         d="m 74.4487,205.132 0.7793,-0.409 c -9.4686,-17.991 0.514,-47.526 0.6162,-47.822 l -0.8238,-0.287 c -0.1121,0.3 -10.2149,30.195 -0.5717,48.518 z"
         fill="#fcfdfe"
         id="path15" />
      <path
         d="m 44.234,177.638 0.4036,-0.782 C 24.0431,166.242 -5.93427,175.221 -6.23413,175.314 l 0.25702,0.841 c 0.29656,-0.092 29.93951,-8.966 50.21111,1.483 z"
         fill="#fcfdfe"
         id="path17" />
    </g>
  </g>
  <mask
     id="mask1_14_543"
     maskUnits="userSpaceOnUse"
     x="21"
     y="54"
     width="132"
     height="262">
    <path
       d="m 128.904,315.712 -43.6292,-0.148 c 0,0 -8.1373,-22.407 2.6081,-38.167 C 109.807,245.244 80.1163,228.288 68.7432,219.325 51.592,205.815 42.3822,186.417 67.6871,178.073 92.992,169.73 67.725,130.459 36.8777,112.621 6.69433,95.1647 20.3048,31.437 89.1054,63.2185 c 41.0866,18.9799 34.4936,62.5875 36.3996,85.3995 1.906,22.812 35.818,24.816 24.115,52.637 -9.997,23.764 -28.896,41.052 -14.574,57.462 14.322,16.409 15.747,34.76 -6.142,56.995 z"
       fill="#ffffff"
       id="path23" />
  </mask>
  <g
     mask="url(#mask1_14_543)"
     id="g44"
     transform="matrix(0.8333332,0,0,0.8531772,0,10)">
    <path
       d="m 128.904,315.712 -43.6293,-0.148 c 0,0 -8.1373,-22.407 2.6081,-38.167 C 109.807,245.244 80.1162,228.288 68.7431,219.325 51.592,205.815 44.0741,188.394 64.7889,177.184 88.2305,164.497 67.7216,130.459 36.876,112.621 6.69262,95.1647 20.3031,31.437 89.1037,63.2185 c 41.0873,18.9799 34.4933,62.5875 36.3993,85.3995 1.906,22.812 35.818,24.816 24.116,52.637 -9.998,23.764 -28.897,41.052 -14.575,57.462 14.323,16.409 15.749,34.76 -6.14,56.995 z"
       fill="url(#paint1_linear_14_543)"
       id="path26"
       style="fill:url(#paint1_linear_14_543)" />
    <g
       style="mix-blend-mode:soft-light"
       opacity="0.5"
       id="g42">
      <path
         d="m 110.006,319.698 -0.904,-0.165 c 0.104,-0.56 10.391,-56.742 3.789,-115.512 C 106.818,149.872 84.7507,82.3899 14.1362,68.3741 l 0.178,-0.9029 c 31.4355,6.2393 56.0368,23.4069 73.0974,51.0278 13.6334,22.065 22.5174,50.808 26.4024,85.433 6.606,58.904 -3.702,115.201 -3.808,115.766 z"
         fill="#beb8f2"
         id="path28" />
      <path
         d="m 94.0447,130.349 -0.9144,-0.117 C 97.0218,99.8244 85.5795,56.5726 85.4625,56.1393 l 0.8897,-0.2389 c 0.117,0.4349 11.6054,43.863 7.6925,74.4486 z"
         fill="#beb8f2"
         id="path30" />
      <path
         d="M 82.1674,112.257 C 51.2278,92.8336 22.2274,102.004 21.9391,102.099 l -0.2883,-0.874 c 0.2949,-0.098 29.6874,-9.4096 61.0075,10.252 z"
         fill="#beb8f2"
         id="path32" />
      <path
         d="m 115.115,242.673 c -10.15,-43.461 -69.1759,-54.31 -69.7608,-54.37 l 0.0314,-0.921 c 0.5782,0 60.3844,11.233 70.6264,55.08 z"
         fill="#beb8f2"
         id="path34" />
      <path
         d="m 115.461,224.273 -0.901,-0.191 c 5.893,-27.857 36.204,-46.944 36.51,-47.134 l 0.484,0.783 c -0.308,0.188 -30.282,19.069 -36.093,46.542 z"
         fill="#beb8f2"
         id="path36" />
      <path
         d="M 110.525,310.653 C 109.255,293.745 85.1693,280.28 84.9254,280.146 l 0.4448,-0.805 c 1.01,0.555 24.7648,13.839 26.0728,31.243 z"
         fill="#beb8f2"
         id="path38" />
      <path
         d="m 113.14,297.385 -0.908,-0.165 c 2.307,-13.205 22.325,-27.858 28.905,-32.673 0.931,-0.68 1.733,-1.268 1.855,-1.4 l 0.686,0.615 c -0.165,0.189 -0.702,0.581 -1.997,1.528 -6.505,4.764 -26.304,19.244 -28.541,32.095 z"
         fill="#beb8f2"
         id="path40" />
    </g>
  </g>
  <path
     d="m 279.05163,224.76091 c 4.00249,8.84745 0.18832,17.69917 -3.4725,23.65519 -0.87168,0 -1.3725,0.25254 -2.26083,0.47351 -7.96335,1.98194 -11.69335,0.97262 -19.78585,1.57241 -1.74082,0.12969 -6.91582,-1.20042 -8.99415,-1.8932 l -3.85585,-1.36082 c 0,0 -6.84,-21.52054 3.90918,-27.46633 10.74916,-5.94579 6.63416,-27.3631 5.73332,-39.04395 -2.445,-31.69468 31.00833,-28.81606 31.04583,-69.79927 0.009,-10.901056 -3.53165,-31.692128 5.445,-40.374912 10.2275,-9.891652 17.69334,-0.188382 24.27,-8.460703 10.27834,-12.932118 26.95583,-17.570757 36.89749,-4.260596 9.8125,13.131762 -2.11082,39.271323 -31.74915,60.281661 -19.595,17.53876 -19.90084,22.78325 -18.35917,35.57493 1.08083,8.95666 9.42583,32.28764 -2.44917,41.60774 -11.875,9.31926 -20.94915,19.37907 -16.37415,29.49434 z"
     fill="url(#paint2_linear_14_543)"
     id="path46"
     style="fill:url(#paint2_linear_14_543);stroke-width:0.843196" />
  <mask
     id="mask2_14_543"
     maskUnits="userSpaceOnUse"
     x="286"
     y="46"
     width="136"
     height="242">
    <path
       d="m 324.496,287.934 -34.897,-8.987 c 0,0 -8.988,-26.142 3.911,-33.116 12.899,-6.974 7.961,-32.071 6.88,-45.763 -2.934,-37.149 37.21,-33.775 37.255,-81.811 0.011,-12.777 -4.238,-37.1459 6.534,-47.3229 12.273,-11.5939 21.232,-0.2208 29.124,-9.9167 12.334,-15.1576 32.347,-20.5945 44.277,-4.9937 11.775,15.3915 -2.533,46.0293 -38.099,70.6553 -23.514,20.562 -23.881,26.709 -22.031,41.702 1.297,10.498 11.311,37.844 -2.939,48.768 -14.25,10.923 -25.139,22.718 -19.649,34.574 8.353,18.036 -10.366,36.211 -10.366,36.211 z"
       fill="#ffffff"
       id="path48" />
  </mask>
  <g
     mask="url(#mask2_14_543)"
     id="g69"
     transform="matrix(0.8333332,0,0,0.8531772,0,10)">
    <g
       style="mix-blend-mode:soft-light"
       opacity="0.5"
       id="g67">
      <path
         d="m 309.295,282.227 -0.708,-0.087 c 0.527,-4.225 1.11,-8.479 1.733,-12.644 4.613,-30.835 11.95,-60.124 21.789,-87.053 8.338,-22.818 18.588,-44.262 30.467,-63.741 9.556,-15.665 20.205,-30.1507 31.663,-43.0478 8.055,-9.0616 16.419,-17.2648 24.865,-24.3642 1.471,-1.2373 3.044,-2.4202 4.567,-3.5653 2.029,-1.524 4.127,-3.1007 5.997,-4.8175 l 0.483,0.5256 c -1.897,1.7415 -4.007,3.3281 -6.05,4.8636 -1.514,1.1385 -3.081,2.3148 -4.538,3.5406 -8.419,7.0763 -16.759,15.2498 -24.791,24.2917 -11.429,12.8674 -22.056,27.3163 -31.587,42.9453 -11.862,19.441 -22.077,40.841 -30.404,63.614 -9.823,26.883 -17.134,56.126 -21.748,86.914 -0.632,4.167 -1.212,8.414 -1.738,12.625 z"
         fill="#fcfdfe"
         id="path51" />
      <path
         d="m 349.715,143.373 -0.647,-0.304 c 13.025,-27.759 1.588,-79.0479 1.471,-79.562 l 0.697,-0.1647 c 0.117,0.5239 11.608,52.0477 -1.521,80.0307 z"
         fill="#fcfdfe"
         id="path53" />
      <path
         d="m 320.087,224.233 -0.677,-0.226 c 6.643,-19.902 43.901,-35.258 44.276,-35.423 l 0.27,0.659 c -0.372,0.152 -37.328,15.384 -43.869,34.99 z"
         fill="#fcfdfe"
         id="path55" />
      <path
         d="m 317.293,235.842 -0.707,-0.102 c 1.977,-13.555 -2.582,-33.092 -12.822,-55.011 -0.514,-1.104 -0.514,-1.104 -0.494,-1.237 l 0.709,0.094 -0.355,-0.048 0.345,-0.087 c 0.024,0.077 0.219,0.494 0.445,0.975 10.295,22.046 14.87,41.726 12.879,55.416 z"
         fill="#fcfdfe"
         id="path57" />
      <path
         d="m 310.366,274.54 -0.647,-0.302 c 6.351,-13.674 28.064,-19.082 28.283,-19.134 l 0.165,0.693 c -0.212,0.053 -21.594,5.373 -27.801,18.743 z"
         fill="#fcfdfe"
         id="path59" />
      <path
         d="m 308.216,282.29 c -2.692,-11.863 -8.879,-23.341 -18.914,-35.093 l 0.544,-0.465 c 10.111,11.839 16.349,23.418 19.067,35.396 z"
         fill="#fcfdfe"
         id="path61" />
      <path
         d="m 388.149,83.8445 -0.629,-0.3394 c 8.103,-15.0307 13.129,-32.7008 14.782,-38.5068 0.4,-1.4054 0.542,-1.8996 0.621,-2.0628 l 0.642,0.3131 c -0.057,0.1252 -0.286,0.9276 -0.576,1.9458 -1.658,5.8241 -6.701,23.5502 -14.84,38.6501 z"
         fill="#fcfdfe"
         id="path63" />
      <path
         d="m 371.361,106.333 -0.495,-0.509 c 11.413,-11.2328 43.433,-10.8736 44.791,-10.8522 l -0.012,0.7151 c -0.334,-0.005 -33.081,-0.3757 -44.284,10.6461 z"
         fill="#fcfdfe"
         id="path65" />
    </g>
  </g>
  <mask
     id="mask3_14_543"
     maskUnits="userSpaceOnUse"
     x="270"
     y="111"
     width="182"
     height="244">
    <path
       d="m 278.199,341.561 41.633,13.05 c 0,0 14.531,-18.9 9.061,-37.17 -11.179,-37.276 22.242,-44.465 35.8,-49.569 20.43,-7.699 35.085,-23.395 13.479,-39.001 -21.606,-15.606 14.36,-45.398 49.153,-53.076 34.049,-7.513 40.342,-72.374 -34.846,-62.879 -44.901,5.669 -51.801,49.229 -60.515,70.398 -8.714,21.17 -41.644,12.825 -38.899,42.883 2.345,25.674 15.131,47.867 -3.481,59.179 -18.613,11.312 -25.527,28.371 -11.385,56.185 z"
       fill="#ffffff"
       id="path71" />
  </mask>
  <g
     mask="url(#mask3_14_543)"
     id="g94"
     transform="matrix(0.8333332,0,0,0.8531772,0,10)">
    <path
       d="m 278.199,341.561 41.632,13.05 c 0,0 14.532,-18.9 9.062,-37.17 -11.179,-37.276 22.242,-44.465 35.8,-49.569 20.43,-7.699 32.867,-22.026 16.507,-38.975 -18.51,-19.177 11.332,-45.424 46.132,-53.102 34.048,-7.513 40.342,-72.374 -34.846,-62.879 -44.901,5.669 -51.801,49.229 -60.515,70.398 -8.714,21.17 -41.644,12.825 -38.899,42.883 2.344,25.674 15.131,47.867 -3.482,59.179 -18.612,11.312 -25.533,28.371 -11.391,56.185 z"
       fill="url(#paint3_linear_14_543)"
       id="path74"
       style="fill:url(#paint3_linear_14_543)" />
    <path
       d="m 278.199,341.561 41.632,13.05 c 0,0 14.532,-18.9 9.062,-37.17 -11.179,-37.276 22.242,-44.465 35.8,-49.569 20.43,-7.699 32.867,-22.026 16.507,-38.975 -18.51,-19.177 11.332,-45.424 46.132,-53.102 34.048,-7.513 40.342,-72.374 -34.846,-62.879 -44.901,5.669 -51.801,49.229 -60.515,70.398 -8.714,21.17 -41.644,12.825 -38.899,42.883 2.344,25.674 15.131,47.867 -3.482,59.179 -18.612,11.312 -25.533,28.371 -11.391,56.185 z"
       fill="url(#paint4_linear_14_543)"
       id="path76"
       style="fill:url(#paint4_linear_14_543)" />
    <g
       style="mix-blend-mode:soft-light"
       opacity="0.5"
       id="g92">
      <path
         d="m 295.006,351.073 0.914,0.113 c 0.071,-0.566 7.25,-57.229 31.304,-111.255 22.161,-49.772 63.596,-107.421 135.146,-99.435 l 0.102,-0.916 c -31.849,-3.557 -60.482,5.373 -85.101,26.541 -19.666,16.91 -36.82,41.622 -50.989,73.453 -24.112,54.15 -31.304,110.932 -31.376,111.499 z"
         fill="#beb8f2"
         id="path78" />
      <path
         d="m 367.467,175.411 0.907,0.165 c 5.484,-30.162 29.468,-67.931 29.71,-68.308 l -0.776,-0.495 c -0.245,0.378 -24.323,38.3 -29.841,68.638 z"
         fill="#beb8f2"
         id="path80" />
      <path
         d="m 384.258,161.756 c 35.365,-9.16 60.235,8.35 60.482,8.528 l 0.538,-0.748 c -0.25,-0.181 -25.453,-17.944 -61.251,-8.671 z"
         fill="#beb8f2"
         id="path82" />
      <path
         d="m 313.424,276.108 c 22.816,-38.358 82.36,-30.855 82.933,-30.733 l 0.249,-0.887 c -0.552,-0.165 -60.96,-7.549 -83.973,31.149 z"
         fill="#beb8f2"
         id="path84" />
      <path
         d="m 318.657,258.465 0.917,0.09 c 2.801,-28.338 -20.317,-55.687 -20.551,-55.966 l -0.699,0.598 c 0.231,0.271 23.101,27.333 20.333,55.278 z"
         fill="#beb8f2"
         id="path86" />
      <path
         d="m 297.247,342.294 c 6.323,-15.731 33.353,-21.285 33.625,-21.339 l -0.18,-0.903 c -1.132,0.226 -27.791,5.704 -34.299,21.9 z"
         fill="#beb8f2"
         id="path88" />
      <path
         d="m 298.767,328.854 0.913,0.123 c 1.799,-13.284 -12.851,-33.305 -17.673,-39.884 -0.681,-0.929 -1.269,-1.732 -1.345,-1.895 l -0.84,0.378 c 0.104,0.232 0.494,0.767 1.442,2.061 4.761,6.506 19.251,26.3 17.503,39.217 z"
         fill="#beb8f2"
         id="path90" />
    </g>
  </g>
  <path
     d="m 264.67163,310.40967 -0.39,0.18513 c -7.71668,3.63711 -16.77668,6.21711 -27.42918,6.91158 l -6.25666,-0.0435 c -1.88,-5.01668 -2.78833,-10.13147 3.50251,-12.27551 9.77083,-3.32825 9.47333,-21.08457 6.59,-27.28802 -3.57,-7.66921 -11.54917,-25.70367 3.47665,-31.09148 12.50918,-4.48686 21.47584,-4.76415 21.8625,-21.44206 0.3875,-16.67876 8.955,-27.34346 23.73333,-26.8145 15.55167,0.56225 27.64751,-20.99414 40.57583,-14.31717 22.52334,11.63649 3.54584,48.95531 -23.08249,60.42798 -26.62917,11.47352 -10.87584,20.931 -9.74834,34.53321 1.54834,18.57196 -23.13415,15.36572 -29.40333,22.87538 -2.12,2.54503 -3.10332,5.46033 -3.43082,8.33896 z"
     fill="url(#paint5_linear_14_543)"
     id="path96"
     style="fill:url(#paint5_linear_14_543);stroke-width:0.843196" />
  <mask
     id="mask4_14_543"
     maskUnits="userSpaceOnUse"
     x="275"
     y="202"
     width="134"
     height="164">
    <path
       d="m 318.831,364.096 -40.591,0.922 c -2.496,-5.693 -5.754,-16.226 2.678,-19.031 11.725,-3.902 11.368,-24.714 7.908,-31.985 -4.284,-8.989 -13.859,-30.127 4.172,-36.442 15.011,-5.259 25.771,-5.584 26.235,-25.132 0.465,-19.548 10.746,-32.048 28.48,-31.429 18.662,0.659 33.177,-24.606 48.691,-16.779 27.028,13.637 4.255,57.378 -27.699,70.826 -31.955,13.447 -13.051,24.532 -11.698,40.475 1.859,21.768 -27.76,18.01 -35.284,26.813 -5.895,6.902 -4.478,16.133 -2.892,21.762 z"
       fill="#ffffff"
       id="path98" />
  </mask>
  <g
     mask="url(#mask4_14_543)"
     id="g113"
     transform="matrix(0.8333332,0,0,0.8531772,0,10)">
    <g
       style="mix-blend-mode:soft-light"
       opacity="0.5"
       id="g111">
      <path
         d="m 299.575,358.144 -0.868,-0.15 c 10.99,-63.378 52.685,-121.112 108.814,-150.673 l 0.411,0.78 c -55.894,29.435 -97.414,86.928 -108.357,150.043 z"
         fill="#fcfdfe"
         id="path101" />
      <path
         d="m 308.526,324.104 -0.88,0.024 c -0.685,-25.27 -22.851,-44.382 -23.076,-44.571 l 0.571,-0.672 c 0.225,0.193 22.69,19.55 23.385,45.219 z"
         fill="#fcfdfe"
         id="path103" />
      <path
         d="m 301.914,346.54 -0.786,-0.395 c 11.553,-22.878 58.016,-27.33 58.489,-27.373 l 0.079,0.876 c -0.466,0.042 -46.448,4.451 -57.782,26.892 z"
         fill="#fcfdfe"
         id="path105" />
      <path
         d="m 338.279,268.518 -0.823,-0.329 c 7.578,-18.865 -5.365,-47.224 -5.495,-47.509 l 0.797,-0.371 c 0.14,0.29 13.243,28.997 5.521,48.209 z"
         fill="#fcfdfe"
         id="path107" />
      <path
         d="m 365.53,238.083 -0.481,-0.737 c 19.4,-12.66 50.139,-6.789 50.448,-6.728 l -0.164,0.863 c -0.312,-0.061 -30.704,-5.862 -49.803,6.602 z"
         fill="#fcfdfe"
         id="path109" />
    </g>
  </g>
  <path
     d="M 291.55828,99.072552 80.659319,86.581783 c -4.857582,-0.243156 -9.230499,5.184075 -9.230499,9.74098 V 374.36297 c 0,6.32545 6.304667,7.59072 11.162249,7.08308 L 291.55662,359.59618 c 3.81666,-0.39757 6.89916,-3.97495 6.89916,-7.9883 V 106.68545 c 0.002,-4.01419 -3.08083,-7.42605 -6.8975,-7.612898 z"
     fill="url(#paint6_linear_14_543)"
     id="path115"
     style="fill:url(#paint6_linear_14_543);stroke-width:0.843196" />
  <path
     d="M 295.02745,96.869649 83.711649,86.221827 c -4.85783,-0.244606 -8.814745,3.277992 -8.814745,7.871669 V 374.30411 c 0,4.5918 3.956915,7.89785 8.814745,7.3868 L 295.02745,359.42213 c 3.81667,-0.40184 6.89833,-4.00652 6.89833,-8.05143 V 104.5363 c 0,-4.04577 -3.08166,-7.479803 -6.89833,-7.666651 z"
     fill="#d8dee8"
     id="path117"
     style="stroke-width:0.843196" />
  <path
     style="mix-blend-mode:multiply;fill:url(#paint7_linear_14_543);stroke-width:0.843196"
     opacity="0.3"
     d="m 83.711649,377.89085 c -2.621246,0.27047 -4.75758,-1.52206 -4.75758,-3.99628 V 94.279062 c 0,-2.473958 2.136334,-4.384307 4.75758,-4.25778 L 295.02745,100.24312 c 2.06,0.0998 3.73917,1.96828 3.73917,4.1507 v 247.29852 c 0,2.1884 -1.67667,4.14218 -3.73917,4.35719 z"
     fill="url(#paint7_linear_14_543)"
     id="path119" />
  <path
     d="m 281.40745,349.41351 -180.73831,17.8297 V 109.27485 l 180.73831,6.9696 z"
     fill="#ffffff"
     id="path121"
     style="stroke-width:0.843196" />
  <g
     style="mix-blend-mode:multiply"
     opacity="0.3"
     id="g125"
     transform="matrix(0.8333332,0,0,0.8531772,0,10)">
    <path
       d="m 250.94,126.007 -86.678,1.084 1.944,-19.548 c 0.147,-2.54 1.977,-4.625 4.401,-4.997 l 14.68,-2.255 c 0.863,-0.139 1.677,-0.4907 2.371,-1.0228 0.693,-0.532 1.243,-1.2281 1.601,-2.0256 l 1.592,-3.4599 38.396,2.3709 z"
       fill="#97a6b7"
       id="path123" />
  </g>
  <path
     d="m 247.69079,106.68545 c -0.14916,-0.89925 -0.59584,-1.71829 -1.26666,-2.31894 -0.67,-0.60063 -1.5225,-0.94616 -2.41334,-0.97774 l -11.54249,-0.52982 c -5.23916,-0.24059 -9.07916,-4.597767 -8.8875,-10.12064 l 0.445,-12.791515 c 0.0842,-2.364326 -1.56666,-4.260512 -3.83416,-4.3983 l -3.7925,-0.231893 c -2.89168,-0.17712 -4.81668,-2.7875 -4.41168,-5.805445 0.70918,-5.274 -2.82,-9.824164 -7.935,-10.181218 -5.15582,-0.359785 -9.96666,3.673013 -10.73416,9.013133 -0.11166,0.808044 -0.385,1.583754 -0.80334,2.278581 -1.19,1.956677 -3.27832,3.033386 -5.32166,2.908311 l -3.9125,-0.238976 c -2.37,-0.140518 -4.62166,1.558926 -5.2175,3.954135 l -3.25249,12.982712 c -1.40584,5.61459 -6.7125,9.672297 -12.3475,9.418051 l -12.6725,-0.581012 c -2.07334,-0.09385 -4.1075,1.143256 -5.06334,3.083376 l -7.62416,15.49968 c -0.62416,1.26526 0.14584,2.63973 1.51,2.68665 l 109.80082,3.73435 c 1.20166,0.041 2.22166,-1.1859 2,-2.4051 z M 202.49664,70.403751 c -1.51,-0.09555 -2.56334,-1.440759 -2.3425,-3.005316 0.22082,-1.564472 1.62582,-2.750814 3.1375,-2.651078 1.51166,0.09982 2.5525,1.446477 2.33416,3.006767 -0.21834,1.560291 -1.62,2.746634 -3.12916,2.649627 z"
     fill="url(#paint8_linear_14_543)"
     id="path127"
     style="fill:url(#paint8_linear_14_543);stroke-width:0.843196" />
  <path
     d="m 248.34163,107.0327 c -0.14918,-0.89926 -0.59584,-1.71831 -1.26584,-2.31894 -0.67084,-0.60064 -1.52249,-0.94532 -2.41249,-0.97689 l -11.54167,-0.52982 c -5.23917,-0.24059 -9.07917,-4.598624 -8.88667,-10.12107 l 0.44418,-12.791601 c 0.0825,-2.36569 -1.56584,-4.260512 -3.83418,-4.399664 l -3.7925,-0.231978 c -2.89166,-0.175671 -4.81582,-2.785966 -4.41082,-5.803995 0.70832,-5.274 -2.82,-9.82553 -7.93584,-10.182585 -5.15584,-0.35987 -9.96834,3.673013 -10.73584,9.0145 -0.11082,0.807958 -0.38416,1.583668 -0.80166,2.27858 -1.19,1.956677 -3.27834,3.033386 -5.3225,2.908311 l -3.91166,-0.238975 c -2.37,-0.140518 -4.62334,1.557475 -5.2175,3.954135 l -3.25249,12.982712 c -1.4075,5.614248 -6.7125,9.67111 -12.3475,9.417708 l -12.66084,-0.580156 c -2.07334,-0.09555 -4.10834,1.142398 -5.06416,3.082528 l -7.62918,15.49882 c -0.625,1.26526 0.1375,2.64144 1.51,2.6875 l 109.78416,3.73948 c 1.20167,0.0401 2.22167,-1.18506 1.99916,-2.40511 z M 203.1458,70.751335 c -1.51,-0.09555 -2.56166,-1.44221 -2.3425,-3.006681 0.22,-1.564471 1.62584,-2.750899 3.1375,-2.649627 1.51166,0.101187 2.55334,1.446391 2.33416,3.005232 -0.22,1.558924 -1.61916,2.746719 -3.12916,2.651076 z"
     fill="#67878e"
     id="path129"
     style="stroke-width:0.843196" />
  <g
     style="mix-blend-mode:soft-light"
     opacity="0.5"
     id="g133"
     transform="matrix(0.8333332,0,0,0.8531772,0,10)">
    <path
       d="m 275.459,122.084 c -11.752,-7.249 -20.77,-2.11 -28.096,-10.294 -7.842,-8.76 -2.552,-20.2928 -10.666,-25.7347 -5.195,-3.4846 -9.828,-0.4119 -15.869,-1.3543 -2.211,-0.346 -4.572,-1.2258 -7.025,-2.9393 l -3.256,12.6862 c -1.689,6.5801 -8.055,11.3351 -14.816,11.0391 l -15.194,-0.681 c -2.488,-0.112 -4.93,1.34 -6.077,3.613 l -9.155,18.168 c -0.75,1.483 0.165,3.094 1.812,3.148 l 119.743,3.978 c -3.021,-4.796 -6.774,-8.774 -11.401,-11.629 z"
       fill="#ffffff"
       id="path131" />
  </g>
  <path
     d="m 263.78163,149.55846 -139.97831,-0.87365 v -8.5096 l 139.97831,1.18507 z"
     fill="#d8dee8"
     id="path135"
     style="stroke-width:0.843196" />
  <path
     d="m 263.78163,163.90805 -139.97831,-0.32421 v -8.50959 l 139.97831,0.63818 z"
     fill="#d8dee8"
     id="path137"
     style="stroke-width:0.843196" />
  <path
     d="m 263.78163,178.26019 -139.97831,0.22184 v -8.50959 l 139.97831,0.0913 z"
     fill="#d8dee8"
     id="path139"
     style="stroke-width:0.843196" />
  <path
     d="m 263.78163,192.61234 -139.97831,0.76872 v -8.50959 l 139.97831,-0.4556 z"
     fill="#d8dee8"
     id="path141"
     style="stroke-width:0.843196" />
  <path
     d="m 240.11163,216.25046 -118.40331,2.91958 v -8.86195 l 118.40331,-2.36672 z"
     fill="#d8dee8"
     id="path143"
     style="stroke-width:0.843196" />
  <path
     d="m 240.11163,230.79543 -118.40331,3.88964 v -8.86281 l 118.40331,-3.33507 z"
     fill="#d8dee8"
     id="path145"
     style="stroke-width:0.843196" />
  <path
     d="m 240.11163,245.34039 -118.40331,4.85885 v -8.8611 l 118.40331,-4.30513 z"
     fill="#d8dee8"
     id="path147"
     style="stroke-width:0.843196" />
  <path
     d="m 240.11163,259.88537 -118.40331,5.82976 v -8.86111 l 118.40331,-5.27604 z"
     fill="#d8dee8"
     id="path149"
     style="stroke-width:0.843196" />
  <path
     d="m 263.78163,215.6669 -15.575,0.38393 v -8.27156 l 15.575,-0.31055 z"
     fill="#d8dee8"
     id="path151"
     style="stroke-width:0.843196" />
  <path
     d="m 263.78163,230.01649 -15.575,0.5136 v -8.27155 l 15.575,-0.43853 z"
     fill="#d8dee8"
     id="path153"
     style="stroke-width:0.843196" />
  <path
     d="m 263.78163,244.36863 -15.575,0.63988 v -8.26984 l 15.575,-0.56652 z"
     fill="#d8dee8"
     id="path155"
     style="stroke-width:0.843196" />
  <path
     d="m 263.78163,258.72077 -15.575,0.76787 v -8.27156 l 15.575,-0.69277 z"
     fill="#d8dee8"
     id="path157"
     style="stroke-width:0.843196" />
  <path
     d="m 240.11163,283.48936 -118.40331,7.40388 v -8.8628 l 118.40331,-6.84846 z"
     fill="#d8dee8"
     id="path159"
     style="stroke-width:0.843196" />
  <path
     d="m 240.11163,298.03518 -118.40331,8.37223 v -8.8611 l 118.40331,-7.81851 z"
     fill="#d8dee8"
     id="path161"
     style="stroke-width:0.843196" />
  <path
     d="m 240.11163,312.581 -118.40331,9.3423 v -8.86111 l 118.40331,-8.78943 z"
     fill="#d8dee8"
     id="path163"
     style="stroke-width:0.843196" />
  <path
     d="m 240.11163,327.12683 -118.40331,10.31234 v -8.86281 l 118.40331,-9.75863 z"
     fill="#d8dee8"
     id="path165"
     style="stroke-width:0.843196" />
  <path
     d="m 263.78163,282.0108 -15.575,0.97263 v -8.26984 l 15.575,-0.90096 z"
     fill="#d8dee8"
     id="path167"
     style="stroke-width:0.843196" />
  <path
     d="m 263.78163,296.36125 -15.575,1.10231 v -8.2707 l 15.575,-1.02808 z"
     fill="#d8dee8"
     id="path169"
     style="stroke-width:0.843196" />
  <path
     d="m 263.78163,310.7134 -15.575,1.22857 v -8.26985 l 15.575,-1.1552 z"
     fill="#d8dee8"
     id="path171"
     style="stroke-width:0.843196" />
  <path
     d="m 263.78163,325.06469 -15.575,1.35655 v -8.26899 l 15.575,-1.28488 z"
     fill="#d8dee8"
     id="path173"
     style="stroke-width:0.843196" />
  <path
     d="M 341.16911,216.21036 44.590075,208.58382 C 28.14466,208.16149 14.522079,220.8508 14.522079,236.93745 v 60.97403 c 0,16.08665 13.626749,28.30755 30.067996,27.31787 L 341.16911,307.36808 c 9.83,-0.5921 17.6675,-10.86776 17.6675,-22.96155 V 238.5602 c 0,-12.08867 -7.8375,-22.09388 -17.6675,-22.34984 z"
     fill="url(#paint9_linear_14_543)"
     id="path175"
     style="fill:url(#paint9_linear_14_543);stroke-width:0.843196" />
  <path
     d="M 344.41077,216.21036 47.831575,208.58382 C 31.387494,208.16149 17.763579,220.8508 17.763579,236.93745 v 60.97403 c 0,16.08665 13.626665,28.30755 30.067996,27.31787 L 344.41077,307.36808 c 9.83,-0.5921 17.6675,-10.86776 17.6675,-22.96155 V 238.5602 c 0,-12.08867 -7.8375,-22.09388 -17.6675,-22.34984 z"
     fill="#97a6b7"
     id="path177"
     style="stroke-width:0.843196" />
  <path
     d="M 47.831575,321.43016 C 33.625493,322.24494 21.846828,311.6297 21.846828,297.75192 v -60.79484 c 0,-13.87863 11.778665,-24.89997 25.984747,-24.57407 l 296.579195,6.80068 c 8.5125,0.19538 15.34584,8.88328 15.34584,19.3714 v 45.94273 c 0,10.48726 -6.82834,19.41234 -15.34584,19.90121 z"
     fill="url(#paint10_linear_14_543)"
     id="path179"
     style="fill:url(#paint10_linear_14_543);stroke-width:0.843196" />
  <path
     d="m 87.304149,236.05954 8.452497,17.13265 c 0.155836,0.31226 0.383336,0.58101 0.663336,0.78322 0.279164,0.2022 0.603336,0.33103 0.9425,0.37625 l 18.464998,2.54416 c 0.38334,0.0512 0.74417,0.21245 1.04167,0.46499 0.29667,0.25254 0.51833,0.58529 0.63833,0.96153 0.12,0.37541 0.13417,0.7781 0.04,1.16118 -0.0933,0.38392 -0.29166,0.73202 -0.57083,1.00504 l -13.28583,13.39317 c -0.24418,0.24316 -0.42668,0.54348 -0.5325,0.87451 -0.105,0.33188 -0.13084,0.68425 -0.0742,1.02808 l 3.1575,18.55404 c 0.295,1.72684 -1.51,3.1252 -3.05583,2.36757 l -16.819169,-8.24169 c -0.318334,-0.15186 -0.666668,-0.22524 -1.0175,-0.2133 -0.351668,0.0119 -0.695,0.10836 -1.0025,0.28241 l -17.311329,9.64944 c -1.639333,0.91374 -3.558748,-0.37626 -3.244333,-2.18243 l 3.356917,-19.31935 c 0.0615,-0.35066 0.03492,-0.7107 -0.07726,-1.0477 -0.112166,-0.33616 -0.30625,-0.63818 -0.563916,-0.87707 L 52.157824,261.33235 c -1.355084,-1.26526 -0.606834,-3.51424 1.263165,-3.79493 l 19.718499,-2.99124 c 0.350666,-0.0521 0.684331,-0.1877 0.973249,-0.39758 0.288916,-0.20988 0.524832,-0.48716 0.688082,-0.80882 l 8.612497,-17.3084 c 0.7975,-1.59629 3.0975,-1.58093 3.890833,0.0281 z"
     fill="#d8dee8"
     id="path181"
     style="stroke-width:0.843196" />
  <path
     d="m 154.89831,236.44261 7.60916,16.25474 c 0.13334,0.29178 0.33584,0.54432 0.5875,0.73714 0.2525,0.19197 0.5475,0.31738 0.85834,0.36516 l 16.64583,2.42302 c 1.52916,0.22183 2.14,2.23361 1.03332,3.4076 l -11.97915,12.7038 c -0.22166,0.23719 -0.38666,0.523 -0.48166,0.83696 -0.0958,0.31312 -0.11834,0.64416 -0.0676,0.96837 l 2.85166,17.61299 c 0.265,1.63895 -1.36,2.96479 -2.755,2.24215 l -15.14582,-7.85265 c -0.28418,-0.14418 -0.59918,-0.21415 -0.91668,-0.20306 -0.31666,0.011 -0.62666,0.10239 -0.90083,0.26705 l -15.56833,9.11791 c -0.32167,0.19879 -0.69167,0.2969 -1.06667,0.28411 -0.37583,-0.0128 -0.73917,-0.13566 -1.04749,-0.35578 -0.30751,-0.21927 -0.54751,-0.5247 -0.68918,-0.88048 -0.1425,-0.35577 -0.18082,-0.74654 -0.11082,-1.12363 l 3.02,-18.30749 c 0.0574,-0.32932 0.035,-0.66888 -0.0658,-0.98711 -0.10085,-0.31824 -0.27585,-0.60747 -0.51085,-0.84038 l -12.88915,-12.71662 c -1.21667,-1.20042 -0.54917,-3.32483 1.13249,-3.59273 l 17.71166,-2.82742 c 0.32085,-0.0521 0.62417,-0.18343 0.88417,-0.38223 0.26083,-0.19879 0.47,-0.45986 0.60917,-0.76018 l 7.74666,-16.41427 c 0.15667,-0.34128 0.40585,-0.6288 0.7175,-0.83015 0.3125,-0.20134 0.67335,-0.30714 1.04167,-0.30458 0.36917,0.003 0.72917,0.11263 1.03833,0.31823 0.30917,0.20477 0.555,0.4957 0.7075,0.83953 z"
     fill="url(#paint11_linear_14_543)"
     id="path183"
     style="fill:url(#paint11_linear_14_543);stroke-width:0.843196" />
  <path
     d="m 154.89831,236.44261 7.60916,16.25474 c 0.13334,0.29178 0.33584,0.54432 0.5875,0.73714 0.2525,0.19197 0.5475,0.31738 0.85834,0.36516 l 16.64583,2.42302 c 1.52916,0.22183 2.14,2.23361 1.03332,3.4076 l -11.97915,12.7038 c -0.22166,0.23719 -0.38666,0.523 -0.48166,0.83696 -0.0958,0.31312 -0.11834,0.64416 -0.0676,0.96837 l 2.85166,17.61299 c 0.265,1.63895 -1.36,2.96479 -2.755,2.24215 l -15.14582,-7.85265 c -0.28418,-0.14418 -0.59918,-0.21415 -0.91668,-0.20306 -0.31666,0.011 -0.62666,0.10239 -0.90083,0.26705 l -15.56833,9.11791 c -0.32167,0.19879 -0.69167,0.2969 -1.06667,0.28411 -0.37583,-0.0128 -0.73917,-0.13566 -1.04749,-0.35578 -0.30751,-0.21927 -0.54751,-0.5247 -0.68918,-0.88048 -0.1425,-0.35577 -0.18082,-0.74654 -0.11082,-1.12363 l 3.02,-18.30749 c 0.0574,-0.32932 0.035,-0.66888 -0.0658,-0.98711 -0.10085,-0.31824 -0.27585,-0.60747 -0.51085,-0.84038 l -12.88915,-12.71662 c -1.21667,-1.20042 -0.54917,-3.32483 1.13249,-3.59273 l 17.71166,-2.82742 c 0.32085,-0.0521 0.62417,-0.18343 0.88417,-0.38223 0.26083,-0.19879 0.47,-0.45986 0.60917,-0.76018 l 7.74666,-16.41427 c 0.15667,-0.34128 0.40585,-0.6288 0.7175,-0.83015 0.3125,-0.20134 0.67335,-0.30714 1.04167,-0.30458 0.36917,0.003 0.72917,0.11263 1.03833,0.31823 0.30917,0.20477 0.555,0.4957 0.7075,0.83953 z"
     fill="url(#paint12_linear_14_543)"
     id="path185"
     style="fill:url(#paint12_linear_14_543);stroke-width:0.843196" />
  <path
     d="m 215.89496,236.78644 6.8875,15.46299 c 0.115,0.27217 0.295,0.5119 0.52418,0.69448 0.22832,0.18344 0.49832,0.30544 0.785,0.35406 l 15.07915,2.31639 c 1.38751,0.21244 1.94,2.12782 0.93834,3.24377 l -10.85668,12.08867 c -0.2025,0.23036 -0.35166,0.50424 -0.4375,0.80113 -0.0858,0.29692 -0.10582,0.61003 -0.0575,0.91547 l 2.5875,16.76578 c 0.24084,1.55961 -1.235,2.81975 -2.49583,2.12783 l -13.70999,-7.49688 c -0.25583,-0.1382 -0.5425,-0.20561 -0.83167,-0.19622 -0.28916,0.0103 -0.57,0.0973 -0.81667,0.25254 l -14.07249,8.64354 c -1.33084,0.81648 -2.88334,-0.35151 -2.63334,-1.97938 l 2.725,-17.39457 c 0.0516,-0.31141 0.0308,-0.62964 -0.0592,-0.93167 -0.0908,-0.30118 -0.24917,-0.57675 -0.46249,-0.80454 l -11.64,-12.0955 c -1.09835,-1.13985 -0.49168,-3.15846 1.02332,-3.41271 l 16,-2.6713 c 0.295,-0.0537 0.57251,-0.18087 0.80833,-0.37028 0.235,-0.18855 0.42167,-0.43426 0.54335,-0.71496 l 7.00165,-15.6029 c 0.65084,-1.45467 2.52335,-1.44785 3.17,0.005 z"
     fill="url(#paint13_linear_14_543)"
     id="path187"
     style="fill:url(#paint13_linear_14_543);stroke-width:0.843196" />
  <path
     d="m 215.89496,236.78644 6.8875,15.46299 c 0.115,0.27217 0.295,0.5119 0.52418,0.69448 0.22832,0.18344 0.49832,0.30544 0.785,0.35406 l 15.07915,2.31639 c 1.38751,0.21244 1.94,2.12782 0.93834,3.24377 l -10.85668,12.08867 c -0.2025,0.23036 -0.35166,0.50424 -0.4375,0.80113 -0.0858,0.29692 -0.10582,0.61003 -0.0575,0.91547 l 2.5875,16.76578 c 0.24084,1.55961 -1.235,2.81975 -2.49583,2.12783 l -13.70999,-7.49688 c -0.25583,-0.1382 -0.5425,-0.20561 -0.83167,-0.19622 -0.28916,0.0103 -0.57,0.0973 -0.81667,0.25254 l -14.07249,8.64354 c -1.33084,0.81648 -2.88334,-0.35151 -2.63334,-1.97938 l 2.725,-17.39457 c 0.0516,-0.31141 0.0308,-0.62964 -0.0592,-0.93167 -0.0908,-0.30118 -0.24917,-0.57675 -0.46249,-0.80454 l -11.64,-12.0955 c -1.09835,-1.13985 -0.49168,-3.15846 1.02332,-3.41271 l 16,-2.6713 c 0.295,-0.0537 0.57251,-0.18087 0.80833,-0.37028 0.235,-0.18855 0.42167,-0.43426 0.54335,-0.71496 l 7.00165,-15.6029 c 0.65084,-1.45467 2.52335,-1.44785 3.17,0.005 z"
     fill="url(#paint14_linear_14_543)"
     id="path189"
     style="fill:url(#paint14_linear_14_543);stroke-width:0.843196" />
  <path
     d="m 271.21663,237.09871 6.26,14.74802 c 0.10084,0.25595 0.2625,0.48204 0.47082,0.65695 0.20834,0.17489 0.45668,0.29264 0.72168,0.34297 l 13.72915,2.21485 c 1.26334,0.20391 1.7675,2.03142 0.85417,3.09277 l -9.88583,11.52643 c -0.185,0.22352 -0.32167,0.48545 -0.39917,0.76785 -0.0784,0.28325 -0.0958,0.5793 -0.0524,0.86939 l 2.3525,16.00048 c 0.21833,1.4888 -1.12167,2.68752 -2.2725,2.02544 l -12.47085,-7.16838 c -0.23,-0.13225 -0.49,-0.1971 -0.75333,-0.18771 -0.26334,0.009 -0.51917,0.0913 -0.74,0.23804 l -12.78667,8.21525 c -1.20667,0.77553 -2.62083,-0.34043 -2.39083,-1.89065 l 2.47166,-16.5704 c 0.0476,-0.29435 0.03,-0.59553 -0.0516,-0.88219 -0.0816,-0.28667 -0.22583,-0.55031 -0.42083,-0.77213 l -10.5634,-11.52642 c -0.995,-1.08695 -0.44584,-3.00916 0.92833,-3.24976 l 14.52417,-2.54587 c 0.2725,-0.0546 0.52666,-0.17832 0.74083,-0.35834 0.21417,-0.18087 0.38083,-0.41294 0.48583,-0.67657 l 6.365,-14.87855 c 0.5925,-1.38727 2.29417,-1.37618 2.88335,0.009 z"
     fill="url(#paint15_linear_14_543)"
     id="path191"
     style="fill:url(#paint15_linear_14_543);stroke-width:0.843196" />
  <path
     d="m 271.21663,237.09871 6.26,14.74802 c 0.10084,0.25595 0.2625,0.48204 0.47082,0.65695 0.20834,0.17489 0.45668,0.29264 0.72168,0.34297 l 13.72915,2.21485 c 1.26334,0.20391 1.7675,2.03142 0.85417,3.09277 l -9.88583,11.52643 c -0.185,0.22352 -0.32167,0.48545 -0.39917,0.76785 -0.0784,0.28325 -0.0958,0.5793 -0.0524,0.86939 l 2.3525,16.00048 c 0.21833,1.4888 -1.12167,2.68752 -2.2725,2.02544 l -12.47085,-7.16838 c -0.23,-0.13225 -0.49,-0.1971 -0.75333,-0.18771 -0.26334,0.009 -0.51917,0.0913 -0.74,0.23804 l -12.78667,8.21525 c -1.20667,0.77553 -2.62083,-0.34043 -2.39083,-1.89065 l 2.47166,-16.5704 c 0.0476,-0.29435 0.03,-0.59553 -0.0516,-0.88219 -0.0816,-0.28667 -0.22583,-0.55031 -0.42083,-0.77213 l -10.5634,-11.52642 c -0.995,-1.08695 -0.44584,-3.00916 0.92833,-3.24976 l 14.52417,-2.54587 c 0.2725,-0.0546 0.52666,-0.17832 0.74083,-0.35834 0.21417,-0.18087 0.38083,-0.41294 0.48583,-0.67657 l 6.365,-14.87855 c 0.5925,-1.38727 2.29417,-1.37618 2.88335,0.009 z"
     fill="url(#paint16_linear_14_543)"
     id="path193"
     style="fill:url(#paint16_linear_14_543);stroke-width:0.843196" />
  <path
     d="m 321.61745,237.38281 5.72,14.09449 c 0.0866,0.24145 0.2325,0.4556 0.4225,0.62282 0.19083,0.16722 0.41917,0.28241 0.665,0.33445 l 12.5475,2.12099 c 1.15582,0.19709 1.6175,1.94524 0.7825,2.96308 l -9.03668,11.01111 c -0.17082,0.21672 -0.29582,0.4684 -0.36666,0.73801 -0.0708,0.26874 -0.0858,0.5503 -0.0451,0.82587 l 2.14834,15.29917 c 0.20082,1.42566 -1.02418,2.56892 -2.07585,1.93416 l -11.39582,-6.87491 c -0.20833,-0.12627 -0.44666,-0.18854 -0.68833,-0.18001 -0.2425,0.008 -0.47667,0.087 -0.67584,0.22693 l -11.66249,7.82193 c -1.09834,0.73801 -2.39167,-0.33017 -2.18,-1.80873 l 2.25583,-15.82046 c 0.0434,-0.27985 0.0276,-0.56565 -0.0474,-0.83868 -0.0742,-0.27216 -0.205,-0.52555 -0.38417,-0.74141 l -9.62921,-11.01196 c -0.90667,-1.03916 -0.4125,-2.8735 0.845,-3.10215 l 13.24416,-2.42558 c 0.25168,-0.0545 0.48584,-0.17405 0.68168,-0.34554 0.19582,-0.17235 0.34582,-0.39161 0.43749,-0.63818 l 5.80833,-14.21393 c 0.53834,-1.32413 2.0925,-1.31303 2.62918,0.009 z"
     fill="#d8dee8"
     id="path195"
     style="stroke-width:0.843196" />
  <path
     d="m 321.61745,237.38281 5.72,14.09449 c 0.0866,0.24145 0.2325,0.4556 0.4225,0.62282 0.19083,0.16722 0.41917,0.28241 0.665,0.33445 l 12.5475,2.12099 c 1.15582,0.19709 1.6175,1.94524 0.7825,2.96308 l -9.03668,11.01111 c -0.17082,0.21672 -0.29582,0.4684 -0.36666,0.73801 -0.0708,0.26874 -0.0858,0.5503 -0.0451,0.82587 l 2.14834,15.29917 c 0.20082,1.42566 -1.02418,2.56892 -2.07585,1.93416 l -11.39582,-6.87491 c -0.20833,-0.12627 -0.44666,-0.18854 -0.68833,-0.18001 -0.2425,0.008 -0.47667,0.087 -0.67584,0.22693 l -11.66249,7.82193 c -1.09834,0.73801 -2.39167,-0.33017 -2.18,-1.80873 l 2.25583,-15.82046 c 0.0434,-0.27985 0.0276,-0.56565 -0.0474,-0.83868 -0.0742,-0.27216 -0.205,-0.52555 -0.38417,-0.74141 l -9.62921,-11.01196 c -0.90667,-1.03916 -0.4125,-2.8735 0.845,-3.10215 l 13.24416,-2.42558 c 0.25168,-0.0545 0.48584,-0.17405 0.68168,-0.34554 0.19582,-0.17235 0.34582,-0.39161 0.43749,-0.63818 l 5.80833,-14.21393 c 0.53834,-1.32413 2.0925,-1.31303 2.62918,0.009 z"
     fill="url(#paint17_linear_14_543)"
     id="path197"
     style="fill:url(#paint17_linear_14_543);stroke-width:0.843196" />
  <g
     style="mix-blend-mode:multiply"
     opacity="0.1"
     id="g201"
     transform="matrix(0.8333332,0,0,0.8531772,0,10)">
    <path
       d="m 363.793,301.009 c -44.166,-11.28 -74.278,48.8 -127.203,36.716 -46.751,-10.672 -48.069,-60.864 -104.74,-96.515 -3.926,-2.472 -7.929,-4.766 -12.01,-6.884 L 57.3979,232.758 C 37.665,232.263 21.3163,247.136 21.3163,265.991 v 71.467 c 0,18.855 16.352,33.179 36.0816,32.019 L 411.031,348.675 c -15.957,-32.519 -32.95,-44.015 -47.238,-47.666 z"
       fill="#97a6b7"
       id="path199" />
  </g>
  <path
     d="m 87.304149,236.05954 8.452497,17.13265 c 0.155836,0.31226 0.383336,0.58101 0.663336,0.78322 0.279164,0.2022 0.603336,0.33103 0.9425,0.37625 l 18.464998,2.54416 c 0.38334,0.0512 0.74417,0.21245 1.04167,0.46499 0.29667,0.25254 0.51833,0.58529 0.63833,0.96153 0.12,0.37541 0.13417,0.7781 0.04,1.16118 -0.0933,0.38392 -0.29166,0.73202 -0.57083,1.00504 l -13.28583,13.39317 c -0.24418,0.24316 -0.42668,0.54348 -0.5325,0.87451 -0.105,0.33188 -0.13084,0.68425 -0.0742,1.02808 l 3.1575,18.55404 c 0.295,1.72684 -1.51,3.1252 -3.05583,2.36757 l -16.819169,-8.24169 c -0.318334,-0.15186 -0.666668,-0.22524 -1.0175,-0.2133 -0.351668,0.0119 -0.695,0.10836 -1.0025,0.28241 l -17.311329,9.64944 c -1.639333,0.91374 -3.558748,-0.37626 -3.244333,-2.18243 l 3.356917,-19.31935 c 0.0615,-0.35066 0.03492,-0.7107 -0.07726,-1.0477 -0.112166,-0.33616 -0.30625,-0.63818 -0.563916,-0.87707 L 52.157824,261.33235 c -1.355084,-1.26526 -0.606834,-3.51424 1.263165,-3.79493 l 19.718499,-2.99124 c 0.350666,-0.0521 0.684331,-0.1877 0.973249,-0.39758 0.288916,-0.20988 0.524832,-0.48716 0.688082,-0.80882 l 8.612497,-17.3084 c 0.7975,-1.59629 3.0975,-1.58093 3.890833,0.0281 z"
     fill="url(#paint18_linear_14_543)"
     id="path203"
     style="fill:url(#paint18_linear_14_543);stroke-width:0.843196" />
  <defs
     id="defs300">
    <linearGradient
       id="paint0_linear_14_543"
       x1="34.555698"
       y1="153.802"
       x2="138.205"
       y2="297.323"
       gradientUnits="userSpaceOnUse"
       gradientTransform="matrix(0.83333322,0,0,0.85317719,0,10)">
      <stop
         stop-color="#30ABBA"
         id="stop205" />
      <stop
         offset="1"
         stop-color="#6165D7"
         id="stop207" />
    </linearGradient>
    <linearGradient
       id="paint1_linear_14_543"
       x1="52.7799"
       y1="63.144402"
       x2="139.636"
       y2="309.99899"
       gradientUnits="userSpaceOnUse">
      <stop
         stop-color="#FC9D8A"
         id="stop210" />
      <stop
         offset="1"
         stop-color="#F36F56"
         id="stop212" />
    </linearGradient>
    <linearGradient
       id="paint2_linear_14_543"
       x1="398.59299"
       y1="42.921101"
       x2="270.46799"
       y2="319.70499"
       gradientUnits="userSpaceOnUse"
       gradientTransform="matrix(0.83333322,0,0,0.85317719,0,10)">
      <stop
         stop-color="#6165D7"
         id="stop215" />
      <stop
         offset="1"
         stop-color="#30ABBA"
         id="stop217" />
    </linearGradient>
    <linearGradient
       id="paint3_linear_14_543"
       x1="424.00101"
       y1="123.133"
       x2="267.42599"
       y2="331.59201"
       gradientUnits="userSpaceOnUse">
      <stop
         stop-color="#E38DDD"
         id="stop220" />
      <stop
         offset="1"
         stop-color="#9571F6"
         id="stop222" />
    </linearGradient>
    <linearGradient
       id="paint4_linear_14_543"
       x1="313.793"
       y1="120.025"
       x2="371.28"
       y2="364.15201"
       gradientUnits="userSpaceOnUse">
      <stop
         stop-color="#FC9D8A"
         id="stop225" />
      <stop
         offset="1"
         stop-color="#F36F56"
         id="stop227" />
    </linearGradient>
    <linearGradient
       id="paint5_linear_14_543"
       x1="372.16101"
       y1="212.814"
       x2="283.276"
       y2="365.961"
       gradientUnits="userSpaceOnUse"
       gradientTransform="matrix(0.83333322,0,0,0.85317719,0,10)">
      <stop
         stop-color="#FFC444"
         id="stop230" />
      <stop
         offset="1"
         stop-color="#F36F56"
         id="stop232" />
    </linearGradient>
    <linearGradient
       id="paint6_linear_14_543"
       x1="85.7146"
       y1="262.61801"
       x2="358.14899"
       y2="262.61801"
       gradientUnits="userSpaceOnUse"
       gradientTransform="matrix(0.83333322,0,0,0.85317719,0,10)">
      <stop
         stop-color="#444B8C"
         id="stop235" />
      <stop
         offset="1"
         stop-color="#26264F"
         id="stop237" />
    </linearGradient>
    <linearGradient
       id="paint7_linear_14_543"
       x1="94.744904"
       y1="262.509"
       x2="358.51999"
       y2="262.509"
       gradientUnits="userSpaceOnUse"
       gradientTransform="matrix(0.83333322,0,0,0.85317719,0,10)">
      <stop
         stop-color="#30ABBA"
         id="stop240" />
      <stop
         offset="1"
         stop-color="#6165D7"
         id="stop242" />
    </linearGradient>
    <linearGradient
       id="paint8_linear_14_543"
       x1="164.261"
       y1="95.749298"
       x2="300.52899"
       y2="95.749298"
       gradientUnits="userSpaceOnUse"
       gradientTransform="matrix(0.83333322,0,0,0.85317719,0,10)">
      <stop
         stop-color="#444B8C"
         id="stop245" />
      <stop
         offset="1"
         stop-color="#26264F"
         id="stop247" />
    </linearGradient>
    <linearGradient
       id="paint9_linear_14_543"
       x1="17.4216"
       y1="301.14499"
       x2="430.604"
       y2="301.14499"
       gradientUnits="userSpaceOnUse"
       gradientTransform="matrix(0.83333322,0,0,0.85317719,0,10)">
      <stop
         stop-color="#444B8C"
         id="stop250" />
      <stop
         offset="1"
         stop-color="#26264F"
         id="stop252" />
    </linearGradient>
    <linearGradient
       id="paint10_linear_14_543"
       x1="118.002"
       y1="462.14099"
       x2="296.94"
       y2="190.61"
       gradientUnits="userSpaceOnUse"
       gradientTransform="matrix(0.83333322,0,0,0.85317719,0,10)">
      <stop
         stop-color="#EBEFF2"
         id="stop255" />
      <stop
         offset="1"
         stop-color="white"
         id="stop257" />
    </linearGradient>
    <linearGradient
       id="paint11_linear_14_543"
       x1="239.198"
       y1="247.533"
       x2="137.02499"
       y2="351.77399"
       gradientUnits="userSpaceOnUse"
       gradientTransform="matrix(0.83333322,0,0,0.85317719,0,10)">
      <stop
         stop-color="#FFC444"
         id="stop260" />
      <stop
         offset="1"
         stop-color="#F36F56"
         id="stop262" />
    </linearGradient>
    <linearGradient
       id="paint12_linear_14_543"
       x1="193.36"
       y1="259.51199"
       x2="158.03799"
       y2="333.24799"
       gradientUnits="userSpaceOnUse"
       gradientTransform="matrix(0.83333322,0,0,0.85317719,0,10)">
      <stop
         stop-color="#FCCE8A"
         id="stop265" />
      <stop
         offset="1"
         stop-color="#FC9D8A"
         id="stop267" />
    </linearGradient>
    <linearGradient
       id="paint13_linear_14_543"
       x1="276.13199"
       y1="283.616"
       x2="176.161"
       y2="385.60999"
       gradientUnits="userSpaceOnUse"
       gradientTransform="matrix(0.83333322,0,0,0.85317719,0,10)">
      <stop
         stop-color="#FFC444"
         id="stop270" />
      <stop
         offset="1"
         stop-color="#F36F56"
         id="stop272" />
    </linearGradient>
    <linearGradient
       id="paint14_linear_14_543"
       x1="265.879"
       y1="260.21701"
       x2="231.27901"
       y2="328.96399"
       gradientUnits="userSpaceOnUse"
       gradientTransform="matrix(0.83333322,0,0,0.85317719,0,10)">
      <stop
         stop-color="#FCCE8A"
         id="stop275" />
      <stop
         offset="1"
         stop-color="#FC9D8A"
         id="stop277" />
    </linearGradient>
    <linearGradient
       id="paint15_linear_14_543"
       x1="327.853"
       y1="291.32999"
       x2="224.312"
       y2="464.29401"
       gradientUnits="userSpaceOnUse"
       gradientTransform="matrix(0.83333322,0,0,0.85317719,0,10)">
      <stop
         stop-color="#FFC444"
         id="stop280" />
      <stop
         offset="1"
         stop-color="#F36F56"
         id="stop282" />
    </linearGradient>
    <linearGradient
       id="paint16_linear_14_543"
       x1="331.67499"
       y1="260.84201"
       x2="297.78601"
       y2="325.07401"
       gradientUnits="userSpaceOnUse"
       gradientTransform="matrix(0.83333322,0,0,0.85317719,0,10)">
      <stop
         stop-color="#FCCE8A"
         id="stop285" />
      <stop
         offset="1"
         stop-color="#FC9D8A"
         id="stop287" />
    </linearGradient>
    <linearGradient
       id="paint17_linear_14_543"
       x1="391.642"
       y1="261.41699"
       x2="358.47198"
       y2="321.51801"
       gradientUnits="userSpaceOnUse"
       gradientTransform="matrix(0.83333322,0,0,0.85317719,0,10)">
      <stop
         stop-color="#FCCE8A"
         id="stop290" />
      <stop
         offset="1"
         stop-color="#FC9D8A"
         id="stop292" />
    </linearGradient>
    <linearGradient
       id="paint18_linear_14_543"
       x1="113.036"
       y1="258.745"
       x2="77"
       y2="338"
       gradientUnits="userSpaceOnUse"
       gradientTransform="matrix(0.83333322,0,0,0.85317719,0,10)">
      <stop
         stop-color="#FCCE8A"
         id="stop295" />
      <stop
         offset="1"
         stop-color="#FC9D8A"
         id="stop297" />
    </linearGradient>
  </defs>
</svg>
