<svg width="169" height="102" fill="none" xmlns="http://www.w3.org/2000/svg"><g clip-path="url(#a)"><path d="m64.321 21.596 93.48-3.816c1.637-.068 3.268.24 4.768.903s2.829 1.661 3.886 2.919a10.82 10.82 0 0 1 2.297 9.212l-2.61 12.3a10.816 10.816 0 0 1-3.751 6.152 10.725 10.725 0 0 1-6.77 2.41H75.403a11.182 11.182 0 0 0-5.194 1.218 11.238 11.238 0 0 0-4.047 3.489 9.197 9.197 0 0 0-1.436 3.081.5.5 0 0 1-.412.378.495.495 0 0 1-.502-.247 40.126 40.126 0 0 1-2.74-5.612 3.682 3.682 0 0 0-1.338-1.697 3.657 3.657 0 0 0-2.056-.65 4.158 4.158 0 0 1-2.983-1.27 4.198 4.198 0 0 1-1.18-3.03l.508-15.303c.09-2.724 1.201-5.313 3.11-7.248a10.732 10.732 0 0 1 7.188-3.19z" fill="#91B3FA"/><path d="M64.126 55.215c-.3-.642-.6-1.31-.875-2.045a5.974 5.974 0 0 0-2.191-2.793 5.933 5.933 0 0 0-3.382-1.049 1.854 1.854 0 0 1-1.827-1.875l.522-15.302a8.489 8.489 0 0 1 2.44-5.659 8.414 8.414 0 0 1 5.613-2.497l93.506-3.868h.352a8.386 8.386 0 0 1 3.612.827 8.425 8.425 0 0 1 2.91 2.304 8.489 8.489 0 0 1 1.701 7.057l-2.61 12.313a8.503 8.503 0 0 1-2.939 4.802 8.433 8.433 0 0 1-5.284 1.898H75.403a13.525 13.525 0 0 0-6.287 1.497 13.593 13.593 0 0 0-4.886 4.246.993.993 0 0 1-.105.145z" fill="url(#b)"/><path d="M141.264 21.793s-10.011 18.173-24.342 19.497l-.757 2.164s19.761 3.934 29.876-12.47l-4.777-9.192z" fill="url(#c)"/><path d="M117.209 42.55c.105-.21.157-.441.15-.675a1.395 1.395 0 0 0-.678-1.152c-.2-.119-.427-.186-.66-.193h-.157a8.372 8.372 0 0 1-4.033-.63.45.45 0 0 0-.509-.018.457.457 0 0 0-.13.123c-.17.289 0 .774 1.566 1.469a9.096 9.096 0 0 1-6.382 0c-2.781-1.311 1.226 5.69 9.671 2.32.425-.17.774-.493.979-.904l.183-.34z" fill="url(#d)"/><path d="M142.269 44.752s-6.931-18.869.366-24.664c0 0 10.95-1.783 18.899 1.311l-.992 23.353a26.382 26.382 0 0 1-18.273 0z" fill="url(#e)"/><path d="M144.749 14.686a31.021 31.021 0 0 1 1.788 6.202c.052.389.227.751.5 1.032.272.281.628.466 1.014.528 1.697.288 4.516.446 6.226-1.128a1.315 1.315 0 0 0 .339-1.39c-.704-1.98-4.372-10.24-6.369-11.512l-3.498 6.268z" fill="url(#f)"/><path d="M159.237 40.202c0 4.314-5.782 4.734-5.782 4.734s-1.658-2.78-3.785-2.872c-2.128-.092-5.091 3.396-5.091 3.396l4.725.76s9.019 5.442 15.206-1.022c-1.096-3.973-3.707-4.852-5.273-4.996z" fill="url(#g)"/><path d="M161.482 21.347c-5.861 2.084-5.012 6.713-5.012 6.713s2.715 7.868 2.754 12.142c1.579.144 4.19 1.023 5.221 5.035.158-.148.306-.305.444-.472 7.4-8.602-3.407-23.418-3.407-23.418z" fill="url(#h)"/><path d="M159.237 40.425a.236.236 0 0 1-.222-.223c0-3.37-1.71-8.89-2.428-11.106a.229.229 0 0 1 .144-.288.225.225 0 0 1 .287.144c.731 2.242 2.415 7.867 2.454 11.237a.237.237 0 0 1-.235.236z" fill="url(#i)"/><path d="M138.353 5.94c0 .17 3.838 10.922 3.838 10.922l6.069-2.334-2.154-10.726s-7.753-.747-7.753 2.138z" fill="url(#j)"/><path d="m145.049 6.412 1.566 5.56c.007.074.007.148 0 .222 0 .446-.104 2.006-1.696 1.797a7.138 7.138 0 0 0-3.577 0 .787.787 0 0 0-.417.996 35.495 35.495 0 0 0 2.179 4.957.813.813 0 0 0 1.032.327 25.416 25.416 0 0 0 5.22-3.068.799.799 0 0 0 .288-.773c-.261-1.43-1.058-5.757-1.084-6.99-.026-1.232 1.305-2.058 1.828-2.386a.769.769 0 0 0 .378-.498 2.11 2.11 0 0 0-.898-2.533 2.08 2.08 0 0 0-.916-.286.79.79 0 0 1-.531-.338.804.804 0 0 1-.122-.62 2.122 2.122 0 0 0-.216-1.669 2.111 2.111 0 0 0-1.363-.979 2.925 2.925 0 0 0-1.901.079 2.946 2.946 0 0 0-1.454 1.232.796.796 0 0 1-.991.276.64.64 0 0 0-.718.118.79.79 0 0 1-.612.17.783.783 0 0 1-.537-.34 2.405 2.405 0 0 0-2.963-.983c-2.741.89-2.61 4.064-1.605 5.781 1.005 1.718 3.915.59 5.299-.55a3.461 3.461 0 0 1 3.354 0 .825.825 0 0 1 .457.498z" fill="url(#k)"/><path d="M148.795 11.565s-1.305-3.12-.235-4.091c1.071-.97 2.611-.63 2.519 1.77-.065 3.003-2.284 2.32-2.284 2.32z" fill="url(#l)"/><path d="m66.919 28.742 54.532-3.71a.754.754 0 0 1 .747.456c.041.096.062.2.062.304v1.875a.758.758 0 0 1-.731.76l-54.532 1.836a.755.755 0 0 1-.783-.76.763.763 0 0 1 .705-.761zM66.214 34.328v.682a1.542 1.542 0 0 0 .492 1.134 1.525 1.525 0 0 0 1.165.4l42.159-1.757c.395-.02.767-.192 1.039-.48a1.554 1.554 0 0 0 .303-1.664 1.53 1.53 0 0 0-1.446-.938l-42.211 1.076c-.402.01-.784.177-1.064.466-.28.29-.437.677-.437 1.08zM66.214 42.3a1.46 1.46 0 0 0 .957 1.372c.187.068.385.096.583.084l25.765-1.613a1.43 1.43 0 0 0 1.178-.65 1.445 1.445 0 0 0 .127-1.343l-.143-.367a1.453 1.453 0 0 0-1.41-.905l-24.903 1.22a2.188 2.188 0 0 0-1.526.658 2.208 2.208 0 0 0-.628 1.544zM104.679 64.25l-93.48-3.842a10.712 10.712 0 0 0-4.765.903 10.76 10.76 0 0 0-3.886 2.914 10.853 10.853 0 0 0-2.313 9.203l2.61 12.3a10.812 10.812 0 0 0 3.751 6.153 10.724 10.724 0 0 0 6.77 2.409h80.231c1.807-.013 3.59.411 5.199 1.237a11.249 11.249 0 0 1 4.042 3.51 9.572 9.572 0 0 1 1.227 2.386.84.84 0 0 0 1.174.472.839.839 0 0 0 .34-.328 39.157 39.157 0 0 0 2.35-4.93 3.658 3.658 0 0 1 1.329-1.698 3.63 3.63 0 0 1 2.051-.65 4.164 4.164 0 0 0 3.014-1.274 4.201 4.201 0 0 0 1.176-3.065l-.509-15.29a10.84 10.84 0 0 0-3.127-7.232 10.748 10.748 0 0 0-7.184-3.178z" fill="#91B3FA"/><path d="M104.757 97.7a13.555 13.555 0 0 0-4.878-4.249 13.484 13.484 0 0 0-6.282-1.495H13.352a8.408 8.408 0 0 1-5.295-1.902 8.477 8.477 0 0 1-2.927-4.825L2.52 72.917a8.482 8.482 0 0 1 1.69-7.057 8.41 8.41 0 0 1 2.908-2.305 8.372 8.372 0 0 1 3.61-.826h.366l93.48 3.829a8.412 8.412 0 0 1 5.63 2.502 8.491 8.491 0 0 1 2.437 5.68l.509 15.302a1.854 1.854 0 0 1-.512 1.353 1.818 1.818 0 0 1-1.329.56 5.946 5.946 0 0 0-3.388 1.049 5.986 5.986 0 0 0-2.198 2.794 32.617 32.617 0 0 1-.875 2.045.582.582 0 0 0-.091-.144z" fill="url(#m)"/><path d="M47.458 56.12a.353.353 0 0 0-.523-.16.354.354 0 0 0-.13.16 5.84 5.84 0 0 1-3.132 3.462l-.248.078a.829.829 0 0 1 .196-.72c.587-.696-.17-1.85-.17-1.85a2.36 2.36 0 0 1-.94 1.39 2.242 2.242 0 0 0-.783 2.44c.444 3.46 1.175 8.05-4.242 10.66-5.417 2.609-11.303-7.632-11.303-7.632l2.101 11.591s4.908 4.695 11.904-.144c6.996-4.838 3.915-13.571 3.915-13.571s4.973-1.35 3.355-5.704z" fill="url(#n)"/><path d="M27.41 47.44s2.27-6.36-5.404-5.573c0 0-3.55-1.049-4.164 2.36a3.227 3.227 0 0 0-1.516 1.974 3.255 3.255 0 0 0 .329 2.472s-6.592-3.567-10.442 2.15c-3.85 5.717-1.423 9.493 1.383 10.673a2.93 2.93 0 0 0-1.617 1.51 2.95 2.95 0 0 0-.106 2.214c.77 2.832 6.187 5.442 9.946 2.623 0 0 9.346 2.452 9.998-4.314 0 0 4.777-2.308.836-8.47-3.942-6.163.757-7.619.757-7.619z" fill="url(#o)"/><path d="M25.87 62.65a10.282 10.282 0 0 0-10.338 1.311 2.62 2.62 0 0 0-1.057 2.478c.6 4.262 2.01 16.81-1.227 21.754 0 0 3.916 5.612 9.385 2.176 0 0 3.445-9.454 6.891-13.361 2.376-2.701-1.814-11.486-2.898-13.624a1.556 1.556 0 0 0-.757-.734z" fill="url(#p)"/><path d="M22.763 53.944s-3.015 6.005-3.524 8.772a4.76 4.76 0 0 0 4.855-.17 72.324 72.324 0 0 1 1.514-7.344l-2.845-1.258z" fill="url(#q)"/><path d="M26.914 45.736s4.777 8.89 1.018 10.817c-3.76 1.928-7.166-4.38-7.166-4.38s-.783-4.641.81-5.965c1.592-1.325 5.338-.472 5.338-.472z" fill="url(#r)"/><path d="M24.473 43.454s2.61.97 2.806 2.229c.196 1.259-4.072 1.849-5.22 1.757l-1.567 4.773s-2.193-4.943-.77-7.46c1.423-2.519 4.75-1.3 4.75-1.3z" fill="url(#s)"/><path d="M21.967 51.715s-1.932-2.911-3.041-1.312c-1.11 1.6 1.657 3.252 2.767 2.531l.274-1.22z" fill="url(#t)"/><path d="M14.84 64.696S7.01 69.718 4.255 77.572c-2.754 7.854 9.228 10.28 9.228 10.28a3.766 3.766 0 0 1 3.746-.734c1.866.904.548-3.2-1.736-3.475-2.284-.275-1.449 1.586-4.503-.25-3.054-1.835-4.346-6.555 4.516-12.194a3.836 3.836 0 0 0 1.24-1.31c2.05-3.751 1.136-6.491-1.906-5.193z" fill="url(#u)"/><path d="m55.263 69.088 47.092 1.718a1.226 1.226 0 0 1 1.188 1.232v.617a1.226 1.226 0 0 1-.387.896 1.214 1.214 0 0 1-.918.323l-47.105-1.311a1.303 1.303 0 0 1-.823-.394 1.314 1.314 0 0 1-.365-.839v-.957a1.224 1.224 0 0 1 .805-1.22c.165-.058.34-.08.513-.065zM46.466 77.887v1.18c0 .327.13.64.36.871.23.231.541.361.867.361h54.623c.326 0 .638-.13.868-.36.23-.232.359-.545.359-.872v-.289a1.233 1.233 0 0 0-1.201-1.232l-54.636-.879a1.207 1.207 0 0 0-.875.348 1.22 1.22 0 0 0-.365.872zM48.62 83.695a1.21 1.21 0 0 0-1.163.874c-.05.168-.063.344-.038.516l.209 1.666a1.303 1.303 0 0 0 1.214 1.062h53.083a1.226 1.226 0 0 0 1.202-1.01c.034-.188.025-.38-.028-.564l-.483-1.652a1.202 1.202 0 0 0-1.174-.892H48.62z" fill="#91B3FA"/></g><defs><linearGradient id="l" x1="159.472" y1="19.55" x2="149.283" y2="9.147" gradientUnits="userSpaceOnUse"><stop stop-color="#FF928E"/><stop offset="1" stop-color="#FEB3B1"/></linearGradient><linearGradient id="b" x1="55.837" y1="37.671" x2="166.651" y2="37.671" gradientUnits="userSpaceOnUse"><stop stop-color="#DAE3FE"/><stop offset="1" stop-color="#E9EFFD"/></linearGradient><linearGradient id="d" x1="135.712" y1="42.519" x2="123.873" y2="41.458" gradientUnits="userSpaceOnUse"><stop stop-color="#FF928E"/><stop offset="1" stop-color="#FEB3B1"/></linearGradient><linearGradient id="e" x1="145.402" y1="39.166" x2="119.56" y2="67.41" gradientUnits="userSpaceOnUse"><stop stop-color="#FE7062"/><stop offset="1" stop-color="#FF928E"/></linearGradient><linearGradient id="f" x1="150.583" y1="12.076" x2="147.107" y2="34.218" gradientUnits="userSpaceOnUse"><stop stop-color="#FF928E"/><stop offset="1" stop-color="#FEB3B1"/></linearGradient><linearGradient id="g" x1="167.238" y1="20.324" x2="160.993" y2="32.521" gradientUnits="userSpaceOnUse"><stop stop-color="#FF928E"/><stop offset="1" stop-color="#FEB3B1"/></linearGradient><linearGradient id="h" x1="151.693" y1="44.922" x2="125.851" y2="73.166" gradientUnits="userSpaceOnUse"><stop stop-color="#FE7062"/><stop offset="1" stop-color="#FF928E"/></linearGradient><linearGradient id="i" x1="184.154" y1="-17.924" x2="167.508" y2="15.228" gradientUnits="userSpaceOnUse"><stop stop-color="#E1473D"/><stop offset="1" stop-color="#E9605A"/></linearGradient><linearGradient id="j" x1="140.899" y1="6.018" x2="154.014" y2="23.295" gradientUnits="userSpaceOnUse"><stop stop-color="#FF928E"/><stop offset="1" stop-color="#FEB3B1"/></linearGradient><linearGradient id="k" x1="145.141" y1="-3.042" x2="137.833" y2="32.649" gradientUnits="userSpaceOnUse"><stop stop-color="#09005D"/><stop offset="1" stop-color="#1A0F91"/></linearGradient><linearGradient id="c" x1="136.461" y1="30.984" x2="110.619" y2="59.228" gradientUnits="userSpaceOnUse"><stop stop-color="#FE7062"/><stop offset="1" stop-color="#FF928E"/></linearGradient><linearGradient id="m" x1="2.349" y1="80.299" x2="113.15" y2="80.299" gradientUnits="userSpaceOnUse"><stop stop-color="#DAE3FE"/><stop offset="1" stop-color="#E9EFFD"/></linearGradient><linearGradient id="n" x1="50.577" y1="48.528" x2="27.82" y2="76.368" gradientUnits="userSpaceOnUse"><stop stop-color="#FF928E"/><stop offset="1" stop-color="#FEB3B1"/></linearGradient><linearGradient id="o" x1="10.22" y1="29.324" x2="27.801" y2="44.396" gradientUnits="userSpaceOnUse"><stop stop-color="#09005D"/><stop offset="1" stop-color="#1A0F91"/></linearGradient><linearGradient id="p" x1="7.544" y1="93.306" x2="-21.713" y2="134.168" gradientUnits="userSpaceOnUse"><stop stop-color="#FE7062"/><stop offset="1" stop-color="#FF928E"/></linearGradient><linearGradient id="q" x1="24.812" y1="52.882" x2="15.955" y2="79.672" gradientUnits="userSpaceOnUse"><stop stop-color="#FF928E"/><stop offset="1" stop-color="#FEB3B1"/></linearGradient><linearGradient id="r" x1="-166.072" y1="403.192" x2="-158.552" y2="389.887" gradientUnits="userSpaceOnUse"><stop stop-color="#FF928E"/><stop offset="1" stop-color="#FEB3B1"/></linearGradient><linearGradient id="s" x1="16.305" y1="22.235" x2="33.874" y2="37.31" gradientUnits="userSpaceOnUse"><stop stop-color="#09005D"/><stop offset="1" stop-color="#1A0F91"/></linearGradient><linearGradient id="t" x1="-169.456" y1="401.277" x2="-161.923" y2="387.971" gradientUnits="userSpaceOnUse"><stop stop-color="#FF928E"/><stop offset="1" stop-color="#FEB3B1"/></linearGradient><linearGradient id="u" x1="4.399" y1="88.901" x2="49.374" y2="37.705" gradientUnits="userSpaceOnUse"><stop stop-color="#FF928E"/><stop offset="1" stop-color="#FEB3B1"/></linearGradient><clipPath id="a"><path fill="#fff" d="M0 0h169v102H0z"/></clipPath></defs></svg>