<svg width="174.951" height="64.036" fill="none" xmlns="http://www.w3.org/2000/svg"><path d="m74.646 47.548-.977.172-.383-2.115.977-.172 3.87-.727.395 2.115zm-5.85 1.031-4.872.807-.344-2.115 4.86-.82zm14.526-2.643-.423-2.102c1.611-.317 3.222-.648 4.82-.992l.449 2.102c-1.558.278-3.17.608-4.793.926zm-24.324 4.296-4.886.727-.316-2.115 4.872-.74zm34.003-6.345-.45-2.155c1.603-.361 3.2-.731 4.794-1.11l.502 2.088zm-43.722 7.72-4.899.674-.29-2.128 4.886-.675zm53.401-10.06-.528-2.088 4.767-1.217.542 2.076c-1.585.45-3.183.833-4.781 1.23zM39.495 52.93l-4.9.62-.277-2.127 4.9-.622zm-9.798 1.229-4.9.595-.25-2.089 4.885-.595zm82.544-15.136-.581-2.075c1.57-.436 3.143-.899 4.714-1.322l.62 2.062zM19.925 55.308l-4.912.568-.238-2.128 4.899-.568zM121.722 36.14l-.673-1.982a172.89 172.89 0 0 0 4.634-1.6l.727 2.023c-1.558.502-3.117 1.044-4.688 1.56zM10.087 56.446 5.188 57l-.237-2.128 4.899-.555zm120.97-23.61-.778-1.995a192.425 192.425 0 0 0 4.542-1.85l.832 1.969c-1.518.555-3.05 1.23-4.595 1.877zm9.139-3.965-.911-1.943c1.465-.7 2.93-1.428 4.37-2.168l.99 1.89a127.349 127.349 0 0 1-4.45 2.221zm8.82-4.613-1.07-1.85a95.047 95.047 0 0 0 4.16-2.552l1.163 1.81a98.981 98.981 0 0 1-4.252 2.592zm8.372-5.407-1.254-1.745a90.5 90.5 0 0 0 3.869-2.96l1.32 1.652a72.11 72.11 0 0 1-3.935 3.053zm7.739-6.332-1.466-1.573a65.208 65.208 0 0 0 3.446-3.423l1.572 1.467a125.403 125.403 0 0 1-3.5 3.53zm6.84-7.31-1.677-1.322A214.272 214.272 0 0 0 173.195 0l1.756 1.216a74.517 74.517 0 0 1-2.984 3.992z" fill="url(#a)" style="fill:url(#a)"/><defs><linearGradient id="a" x1="0" y1="28.487" x2="170" y2="28.487" gradientUnits="userSpaceOnUse" gradientTransform="translate(4.95)"><stop stop-color="#E1473D"/><stop offset="1" stop-color="#E9605A"/></linearGradient><linearGradient id="b" x1="0" y1="8.5" x2="12" y2="8.5" gradientUnits="userSpaceOnUse" gradientTransform="translate(0 47.036)"><stop stop-color="#E1473D"/><stop offset="1" stop-color="#E9605A"/></linearGradient></defs><path d="M10.713 64.036 12 62.333l-8.79-6.036 6.962-7.92-1.693-1.341L0 56.684z" fill="url(#b)" style="fill:url(#b)"/></svg>