<svg width="213" height="24" fill="none" xmlns="http://www.w3.org/2000/svg"><g clip-path="url(#a)"><path d="M0 1.9A13.16 13.16 0 0 1 2.2.83l.5 1.37a11.57 11.57 0 0 0-1.94.94L0 1.9zm5.78-.38L5.65.06a16.4 16.4 0 0 1 3.49.07L9 1.57a14.87 14.87 0 0 0-3.22-.05zm6.35.71.41-1.39c1.104.332 2.183.74 3.23 1.22l-.61 1.32a23.998 23.998 0 0 0-3.03-1.15zM18 4.94l.8-1.24.17.11c.85.55 1.71 1.15 2.63 1.84l-.88 1.16C19.83 6.14 19 5.56 18.18 5L18 4.94zm5.29 3.94.93-1.12c.82.68 1.63 1.38 2.43 2.08l.13.11-.95 1.1-.13-.11c-.78-.69-1.58-1.38-2.39-2.06h-.02zm5.1 4.35.93-1.12c.85.71 1.71 1.4 2.6 2.06l-.88 1.16c-.88-.67-1.76-1.33-2.63-2.1h-.02zm5.47 4 .78-1.23a25.583 25.583 0 0 0 2.88 1.52l-.6 1.33a26.862 26.862 0 0 1-3.04-1.58l-.02-.04zm6.28 2.81.4-1.41c1.033.302 2.09.513 3.16.63l-.15 1.45a20.142 20.142 0 0 1-3.39-.63l-.02-.04zm6.91.68-.16-1.44c.42-.053.84-.123 1.26-.21.613-.13 1.215-.307 1.8-.53l.53 1.35c-.648.259-1.317.463-2 .61-.465.112-.936.199-1.41.26l-.02-.04zM52.7 17a16.196 16.196 0 0 0 2.3-2.17l1.1.95a17.123 17.123 0 0 1-2.53 2.41L52.7 17zm4.3-4.77c.52-.75 1-1.52 1.52-2.29l.32-.49 1.22.8-.32.49c-.5.78-1 1.56-1.54 2.32l-1.2-.83zm3.76-5.58A23.445 23.445 0 0 1 63 4l1 1a21.651 21.651 0 0 0-2.09 2.48l-1.15-.83zm5-4.82c.508-.3 1.04-.558 1.59-.77a10.47 10.47 0 0 1 1.71-.53L69.37 2a9.72 9.72 0 0 0-1.51.45c-.475.19-.936.415-1.38.67l-.72-1.29zm6.74 0 .12-1.49c1.169.12 2.32.374 3.43.76l-.47 1.38a14 14 0 0 0-3.1-.69l.02.04zm6 2 .71-1.27a23.917 23.917 0 0 1 2.89 1.89l-.89 1.15a22.136 22.136 0 0 0-2.7-1.79l-.01.02zm5.15 3.94 1-1c.72.72 1.46 1.5 2.33 2.47l-1.08 1c-.82-1.03-1.54-1.8-2.24-2.49l-.01.02zm4.47 4.92 1.1-1c.73.84 1.46 1.67 2.21 2.49l-1.07 1c-.75-.82-1.49-1.66-2.23-2.51l-.01.02zm4.63 4.94 1-1.07c.789.75 1.627 1.444 2.51 2.08l-.86 1.18a29.169 29.169 0 0 1-2.64-2.21l-.01.02zm5.62 4 .63-1.34c.968.473 1.971.87 3 1.19l-.42 1.39c-1.1-.335-2.17-.76-3.2-1.27l-.01.03zm6.6 2 .2-1.45c1.07.15 2.15.22 3.23.21v1.46a23.425 23.425 0 0 1-3.4-.23l-.03.01zm6.89-.07-.23-1.44 1.09-.2c.7-.15 1.39-.34 2.06-.55l.45 1.39c-.72.22-1.46.42-2.21.58l-1.16.22zm5.91-3.42a19.073 19.073 0 0 0 2.75-1.69l.86 1.17a19.663 19.663 0 0 1-3 1.82l-.61-1.3z" fill="url(#b)"/><path d="M121 17.19a26.754 26.754 0 0 1 2.37-2.27l1 1.16a25.077 25.077 0 0 0-2.23 2.14L121 17.19zm5.24-4.41a31.476 31.476 0 0 1 3.1-1.78l.67 1.36a28.347 28.347 0 0 0-3 1.68l-.77-1.26zm6.39-3.17c1.09-.41 2.23-.77 3.39-1.09l.4 1.46c-1.12.31-2.22.66-3.26 1l-.53-1.37zm6.86-1.88 1.12-.19c.79-.13 1.59-.24 2.38-.33l.17 1.51c-.77.09-1.54.19-2.31.32l-1.09.19-.27-1.5zm7.1.72-.07-1.52c1.16 0 2.35-.07 3.54 0v1.51c-1.2-.06-2.36-.04-3.49.01h.02zm6.9.08.07-1.53c1.17.08 2.34.17 3.51.28l-.15 1.51a98.923 98.923 0 0 0-3.45-.26h.02zm6.9.66.19-1.51c1.16.14 2.32.3 3.47.46l-.21 1.5c-1.17-.16-2.31-.31-3.47-.45h.02zm6.9 1 .22-1.51 3.46.5-.22 1.5-3.46-.49zm6.93 1 .19-1.5c1.15.14 2.3.28 3.46.4l-.16 1.51c-1.18-.21-2.35-.35-3.51-.5l.02.09zm7 .71.11-1.51 1.19.08c.75 0 1.5.07 2.26.08v1.52c-.78 0-1.55-.05-2.32-.09l-1.24-.08zm7.06.15-.05-1.51c1.16 0 2.31-.12 3.44-.22l.14 1.51c-1.18.02-2.37.09-3.56.17l.03.05zM195 9.79c1.15-.2 2.28-.43 3.36-.7l.37 1.48c-1.12.27-2.29.52-3.48.71L195 9.79zm6.64-1.67c1.078-.372 2.136-.8 3.17-1.28l.64 1.37c-1.08.502-2.185.95-3.31 1.34l-.5-1.43zm6.16-2.89a26.592 26.592 0 0 0 2.78-2l.95 1.19a29.552 29.552 0 0 1-2.93 2.06l-.8-1.25z" fill="url(#c)"/><path d="m203.29 1.67-.19 1.51 7.43.92-1.47 7.34 1.49.3 1.79-8.94-9.05-1.13z" fill="url(#d)"/></g><defs><linearGradient id="b" x1="0" y1="11.92" x2="121.39" y2="11.92" gradientUnits="userSpaceOnUse"><stop stop-color="#E1473D"/><stop offset="1" stop-color="#E9605A"/></linearGradient><linearGradient id="c" x1="120.98" y1="10.74" x2="211.57" y2="10.74" gradientUnits="userSpaceOnUse"><stop stop-color="#E1473D"/><stop offset="1" stop-color="#E9605A"/></linearGradient><linearGradient id="d" x1="203.1" y1="6.7" x2="212.34" y2="6.7" gradientUnits="userSpaceOnUse"><stop stop-color="#E1473D"/><stop offset="1" stop-color="#E9605A"/></linearGradient><clipPath id="a"><path fill="#fff" d="M0 0h212.34v23.84H0z"/></clipPath></defs></svg>