<svg width="174" height="43" fill="none" xmlns="http://www.w3.org/2000/svg"><g clip-path="url(#a)"><path d="M172.34 35.41a17.781 17.781 0 0 1-3.16 2l-.71-1.4a15.623 15.623 0 0 0 2.88-1.86l.99 1.26zm-7.08 1.86.41 1.51a20.52 20.52 0 0 1-3.68.63l-.12-1.56a18.328 18.328 0 0 0 3.39-.58zm-6.84.52-.17 1.55a18.747 18.747 0 0 1-3.66-.76l.46-1.49a18.18 18.18 0 0 0 3.37.7zm-6.52-2-.76 1.36a16.41 16.41 0 0 1-3.06-2.2l1-1.15a15.852 15.852 0 0 0 2.82 1.94v.05zm-13.72-24.13-1.41.67a30.4 30.4 0 0 0-1.66-3.09l1.33-.82a30.365 30.365 0 0 1 1.74 3.24zm1.44 3.34c.44 1.13.85 2.27 1.25 3.4l-1.48.52c-.39-1.12-.8-2.24-1.23-3.35l1.46-.57zm7.2 16.17-1.25.94a26.472 26.472 0 0 1-2-3.11l1.37-.76a23.446 23.446 0 0 0 1.88 2.95v-.02zm-4.75-9.4c.42 1.12.85 2.22 1.32 3.31l-1.43.62c-.49-1.11-.93-2.24-1.35-3.38l1.46-.55zm-7.82-16.36-1.18 1a18.993 18.993 0 0 0-1.73-1.75c-.24-.207-.49-.407-.75-.6l.93-1.26c.3.22.58.45.85.69.672.594 1.3 1.236 1.88 1.92zm-6-4.44-.59 1.45a13.186 13.186 0 0 0-3.27-.87l.2-1.55c1.247.178 2.467.514 3.63 1l.03-.03zm-7.48-.9.23 1.54a8.559 8.559 0 0 0-2.1.65 6.726 6.726 0 0 0-1 .52l-.84-1.32a9.058 9.058 0 0 1 1.14-.62 10.088 10.088 0 0 1 2.54-.77h.03zm-5.1 5a13.003 13.003 0 0 0-1.5 3l-1.47-.53a14.46 14.46 0 0 1 1.68-3.39l1.29.92zm-2.56 6.43c-.35 1.18-.7 2.34-1.16 3.48l-1.45-.58c.43-1.08.77-2.2 1.11-3.35l1.5.45zm-3 6.8a11.818 11.818 0 0 1-2.8 2.61l-.87-1.29a10.581 10.581 0 0 0 2.44-2.27l1.23.95zm-6.7 2.79.48 1.49c-1.21.392-2.469.618-3.74.67l-.06-1.56a12.604 12.604 0 0 0 3.28-.61l.04.01zm-6.66.25-.39 1.52a11.67 11.67 0 0 1-3.22-1.37l.83-1.33c.852.521 1.775.915 2.74 1.17l.04.01z" fill="url(#b)"/><path d="m163.8 32.34-.22 1.56 7.64 1.07-1.63 7.54 1.53.33 1.98-9.18-9.3-1.32z" fill="url(#c)"/><path d="m92.16 19.28-.51 1.25c-1-.38-1.92-.75-2.89-1.11l.46-1.27c.99.36 1.97.73 2.94 1.13zm-5.91-2.15-.42 1.29c-.98-.32-1.98-.62-3-.9l.37-1.31c1.04.29 2.05.59 3.05.92zm-6.06-1.72-.32 1.32c-1-.25-2-.48-3-.69l.28-1.33c1 .22 2.03.45 3.04.7zM74 14.12l-.23 1.34c-1-.18-2-.34-3.07-.48l.19-1.34c1.11.14 2.11.3 3.11.48zm-6.23-.86-.14 1.35-3.09-.27.1-1.35c1.08.07 2.13.16 3.17.27h-.04zm-6.27-.44v1.36c-1 0-2.07-.06-3.1-.06v-1.36l3.1.06zm-6.29 0v1.36c-1.033 0-2.063.05-3.09.15L52.11 13c1.05-.12 2.1-.16 3.14-.2l-.04.02zM49 13.2l.13 1.35c-1 .1-2.06.21-3.08.35l-.18-1.35c1.02-.13 2.07-.25 3.13-.35zm-6.24.8.24 1.34c-1 .17-2 .35-3.05.55l-.26-1.33c.99-.21 2.02-.39 3.05-.56h.02zm-6.17 1.21.31 1.32c-1 .23-2 .48-3 .75L33.52 16c1.01-.3 2.03-.55 3.05-.79h.02zm-6.08 1.61.4 1.3c-1 .3-2 .61-3 .94l-.43-1.28c1.01-.34 2.01-.66 3.01-.96h.02zm-5.95 2L25 20.1c-1 .36-1.93.74-2.88 1.14L21.61 20c.97-.42 1.95-.8 2.93-1.17l.02-.01zm-5.81 2.41.56 1.23c-.94.43-1.88.87-2.8 1.33l-.6-1.21c.91-.46 1.86-.91 2.82-1.34l.02-.01zM13.09 24l.65 1.2c-.91.49-1.81 1-2.7 1.52l-.69-1.17c.91-.5 1.82-1.02 2.74-1.55zm-5.42 3.22.73 1.14c-.867.56-1.727 1.13-2.58 1.71L5.05 29c.86-.64 1.74-1.22 2.62-1.78zm-5.18 3.56.81 1.09c-.83.62-1.65 1.25-2.45 1.89l-.85-1c.82-.71 1.65-1.35 2.49-1.98z" fill="url(#d)"/></g><defs><linearGradient id="b" x1="93.1" y1="19.7" x2="172.34" y2="19.7" gradientUnits="userSpaceOnUse"><stop stop-color="#E1473D"/><stop offset="1" stop-color="#E9605A"/></linearGradient><linearGradient id="c" x1="163.58" y1="37.59" x2="173.1" y2="37.59" gradientUnits="userSpaceOnUse"><stop stop-color="#E1473D"/><stop offset="1" stop-color="#E9605A"/></linearGradient><linearGradient id="d" x1="0" y1="23.26" x2="92.16" y2="23.26" gradientUnits="userSpaceOnUse"><stop stop-color="#E1473D"/><stop offset="1" stop-color="#E9605A"/></linearGradient><clipPath id="a"><path fill="#fff" d="M0 0h173.1v42.84H0z"/></clipPath></defs></svg>