<svg width="171" height="144" fill="none" xmlns="http://www.w3.org/2000/svg"><path d="m4 83.837 2.136 1.042a39.828 39.828 0 0 0-1.948 4.922l-2.257-.718A40.79 40.79 0 0 1 4 83.837zM.58 94.552l2.359.41a38.666 38.666 0 0 0-.564 5.28H0c.084-1.907.284-3.808.598-5.69H.581zm-.427 11.21 2.359-.205c.169 1.763.443 3.515.82 5.246l-2.325.512a45.8 45.8 0 0 1-.837-5.553H.154zm2.427 10.971 2.239-.821a39.839 39.839 0 0 0 2.154 4.853l-2.103 1.111a42.056 42.056 0 0 1-2.273-5.143h-.017zm5.247 9.928 1.932-1.401c.376.53.786 1.059 1.196 1.555.701.854 1.453 1.709 2.222 2.478l-1.709 1.709a34.204 34.204 0 0 1-2.359-2.632 29.709 29.709 0 0 0-1.282-1.709zm9.333 6.135a39.593 39.593 0 0 0 4.427 2.922l-1.18 2.068a42.279 42.279 0 0 1-4.7-3.11l1.453-1.88zM66.164 90.57a9.4 9.4 0 0 1 4.12-2.307l.615 2.307a6.341 6.341 0 0 0-3.71 2.495l-2.016-1.248c.286-.45.618-.867.991-1.247zm79.599-76.113a68.777 68.777 0 0 1 4.12-3.725l1.538 1.811a77.38 77.38 0 0 0-4 3.623l-1.658-1.709zm-3.828 4.016 1.709 1.59a68.811 68.811 0 0 0-3.419 4.135l-1.863-1.487a89.77 89.77 0 0 1 3.573-4.238zM154.309 7.33a58.561 58.561 0 0 1 4.735-2.956l1.162 2.067a53.944 53.944 0 0 0-4.529 2.854l-1.368-1.965zm-19.28 19.806 1.932 1.384a114.835 114.835 0 0 0-3.043 4.477l-1.999-1.299c1.008-1.538 2.034-3.076 3.11-4.562zM64.592 98.02l2.341-.478a7.316 7.316 0 0 0 2.103 3.76l.256.239-1.606 1.709-.325-.325a9.705 9.705 0 0 1-2.77-4.904zm-38.184 40.005a41.477 41.477 0 0 0 5.042 1.709l-.615 2.29a44.467 44.467 0 0 1-5.333-1.709l.906-2.29zM76.47 88.861c.162.077.316.169.462.273.62.415 1.193.897 1.709 1.436a11.414 11.414 0 0 1 1.983 2.649l-2.086 1.162a9.486 9.486 0 0 0-1.487-2.102 7.739 7.739 0 0 0-1.384-1.111l-.308-.188 1.111-2.119zm52.525-52.462 2.034 1.213a259.968 259.968 0 0 0-2.718 4.717l-2.068-1.162a120.176 120.176 0 0 1 2.752-4.785v.017zm35.073-34.502A49.968 49.968 0 0 1 169.351 0l.666 2.273a50.135 50.135 0 0 0-4.939 1.811l-1.009-2.187zm-40.44 44.089 2.102 1.11a183.391 183.391 0 0 0-2.512 4.836l-2.12-1.076c.838-1.64 1.675-3.264 2.53-4.87zm-5.025 9.74 2.119 1.094c-.82 1.709-1.709 3.247-2.495 4.87l-2.103-1.094c.838-1.606 1.658-3.23 2.479-4.87zm-81.941 85.016c1.757.227 3.527.335 5.299.325v2.478a44.609 44.609 0 0 1-5.624-.359l.325-2.444zm36.902-36.826a9.532 9.532 0 0 0 2.906.41 11.273 11.273 0 0 0 1.983-.188l.393 2.358c-.774.127-1.557.196-2.342.206a11.993 11.993 0 0 1-3.606-.496l.666-2.29zm40.031-38.484 2.102 1.128c-.872 1.607-1.709 3.23-2.632 4.82l-2.086-1.163a214.394 214.394 0 0 0 2.616-4.785zM80.18 99.114l2.359-.376a25.9 25.9 0 0 1 .256 5.332v.393l-2.376-.154v-.342a23.574 23.574 0 0 0-.239-4.853zM108.263 74.9l2.051 1.213c-.94 1.59-1.915 3.144-2.923 4.682l-1.983-1.299c.975-1.47 1.932-3.007 2.855-4.562V74.9zm-24.99 27.632a29.026 29.026 0 0 0 4.41-2.82l1.453 1.88a30.248 30.248 0 0 1-4.802 3.059l-1.06-2.119zm19.076-18.524 1.931 1.384a69.495 69.495 0 0 1-3.418 4.409l-1.846-1.504c1.111-1.401 2.273-2.854 3.333-4.29zM47.26 140.69a34.811 34.811 0 0 0 5.128-1.111l.667 2.29c-1.81.524-3.655.918-5.521 1.179l-.274-2.358zm48.286-48.31 1.71 1.607a65.572 65.572 0 0 1-3.915 3.947l-1.624-1.709a67.713 67.713 0 0 0 3.83-3.845zM79.701 109.59l2.325.495a41.258 41.258 0 0 1-1.521 5.417l-2.24-.803a38.49 38.49 0 0 0 1.436-5.109zm-22.305 28.127a37.015 37.015 0 0 0 4.632-2.546l1.299 2a41.23 41.23 0 0 1-4.94 2.717l-.991-2.171zm18.802-18.096 2.119 1.093a46.07 46.07 0 0 1-2.889 4.819l-1.965-1.367a41.022 41.022 0 0 0 2.735-4.545zm-9.846 12.423a39.076 39.076 0 0 0 3.812-3.708l1.71 1.606a43.308 43.308 0 0 1-4.017 3.913l-1.505-1.811z" fill="url(#a)"/><defs><linearGradient id="a" x1=".017" y1="71.721" x2="170.017" y2="71.721" gradientUnits="userSpaceOnUse"><stop stop-color="#E1473D"/><stop offset="1" stop-color="#E9605A"/></linearGradient></defs></svg>