<svg width="494" height="480" fill="none" xmlns="http://www.w3.org/2000/svg"><g clip-path="url(#a)"><mask id="b" style="mask-type:luminance" maskUnits="userSpaceOnUse" x="0" y="0" width="494" height="480"><path d="M.722 0h492.372v480H.722V0z" fill="#fff"/></mask><g mask="url(#b)"><path d="M434.583 412.81c-12.656 12.962-23.985 20.58-32.657 26.333-84.572 56.096-181.247 39.929-211.136 34.399-48.223-8.917-88.929-15.204-123.902-46.592-79.47-71.322-75.607-220.112-14.882-312.287 7.202-10.929 67.833-100.216 164.716-112.795 2.371-.307 4.137-.485 5.686-.646 14.989-1.579 107.867-9.894 183.593 53.134 10.839 9.024 28.288 25.299 44.462 50.118 59.163 90.755 59.351 231.308-15.88 308.336z" fill="#F4F7FA"/><path d="M409.613 434.288c29.29.255 59.733.52 60.681 6.849.851 5.668-22.32 13.774-35.859 17.127-13.277 3.283-36.025 6.635-62.749-.686-9.806-2.684-33.942-10.585-33.1-16.441 1.081-7.462 42.084-7.101 71.027-6.849z" fill="#C9CBDF"/><path d="M343.178 37.7v399.545c0 5.973-5.139 7.262-10.966 7.45L132.5 454.955l-3.024.102c-6.208.2-11.297-4.689-11.297-10.874V30.762c0-6.181 5.089-11.078 11.297-10.875l4.107.136 200.445 15.49c5.827.19 9.15-3.786 9.15 2.186z" fill="url(#c)"/><path d="M349.403 37.7v399.545c0 5.973-4.761 11.018-10.583 11.206l-203.116 6.598c-6.208.203-11.298-4.688-11.298-10.874V30.762c0-6.181 5.09-11.078 11.298-10.875l203.109 6.607c5.829.19 10.59 5.233 10.59 11.205z" fill="url(#d)"/><path d="M342.826 59.66v370.133c0 5.577-4.446 10.285-9.894 10.451l-190.991 5.96c-5.779.179-10.513-4.381-10.513-10.146V53.871c0-5.76 4.739-10.337 10.513-10.171l190.991 5.534c5.448.154 9.894 4.85 9.894 10.427z" fill="url(#e)"/><path d="M242.593 35.629c0 2.105-1.69 3.76-3.773 3.696-2.084-.064-3.773-1.82-3.773-3.931 0-2.11 1.689-3.761 3.773-3.697a3.933 3.933 0 0 1 3.773 3.932z" fill="url(#f)"/><path d="m325.163 229.509-175.012-.213c-5.174-.005-9.37-4.193-9.37-9.355V62.405c0-5.164 4.196-9.224 9.37-9.083l175.012 4.825c4.901.136 8.858 4.305 8.858 9.32v152.989c.007 4.998-3.957 9.061-8.858 9.053z" fill="#F4F7FA"/><path d="m271.141 211.356-64.956-.26a1.56 1.56 0 0 1-1.542-1.556v-18.965a1.541 1.541 0 0 1 .95-1.429c.188-.077.389-.116.592-.115l64.956.472c.833.005 1.514.698 1.514 1.549v18.77c0 .846-.681 1.534-1.514 1.534z" fill="url(#g)"/><path d="m318.562 138.381-156.339-2.378V74.486l156.339 3.82v60.075zm0 32.815-156.339-1.59v-21.714l156.339 2.1v21.204z" fill="#D8DEE8"/><path d="m325.163 424.862-175.012 5.04c-5.174.148-9.37-3.915-9.37-9.073V263.295c0-5.164 4.196-9.355 9.37-9.368l175.012-.433c4.901-.01 8.858 4.041 8.858 9.056v152.986c.007 5.011-3.957 9.185-8.858 9.326z" fill="#F4F7FA"/><path d="m300.854 367.442-125.256 2.497a2.983 2.983 0 0 1-3.053-2.994V276.51a3.07 3.07 0 0 1 3.053-3.068l125.256-.676c1.618-.005 2.934 1.326 2.934 2.982v88.644c0 1.65-1.311 3.016-2.934 3.05z" fill="#D8DEE8"/><path d="m271.141 407.079-64.956 1.68a1.5 1.5 0 0 1-1.542-1.514V388.28a1.584 1.584 0 0 1 1.542-1.584l64.956-1.459a1.485 1.485 0 0 1 1.514 1.502v18.769c0 .844-.681 1.549-1.514 1.571z" fill="url(#h)"/><path d="M238.825 327.746a2.84 2.84 0 0 1-1.757-.599l-68.553-51.927c-1.559-1.182-2.019-3.659-1.03-5.534.99-1.876 3.054-2.438 4.615-1.255l66.784 50.685 70.374-51.388c1.525-1.111 3.489-.502 4.387 1.361.898 1.863.399 4.268-1.125 5.382l-72.03 52.693a2.884 2.884 0 0 1-1.665.582z" fill="#F4F7FA"/><path opacity=".5" d="M349.403 62.294a150.803 150.803 0 0 0-24.453 5.079c-14.514 4.3-50.902 15.085-70.416 45.474-22.711 35.369-9.984 77.691-6.911 87.904 10.162 33.803 35.787 63.833 50.462 81.034 17.203 20.16 24.663 24.061 26.269 36.913 2.578 20.602-14.071 30.685-15.049 63.421-.195 6.56-.386 15.63 3.143 26.465 6.913 21.204 22.973 33.481 30.853 38.679l6.102-384.97z" fill="#D8DEE8"/><path d="M373.084 210.735c16.8-8.148 49.576 21.372 65.522 49.647 6.359 11.273 13.819 24.5 11.99 40.231-3.243 27.887-34.384 52.348-77.243 60.512l-3.619-12.843a395.834 395.834 0 0 1 20.649-19.868c13.757-12.319 16.585-13.141 17.246-17.033 2.16-12.737-30.819-23.406-42.552-45.805-10.09-19.255-4.899-48.579 8.007-54.841z" fill="#010648"/><path d="M395.159 434.863s-2.757 6.759-1.388 9.407c1.44 2.781 5.601 1.952 17.322 2.39 12.002.45 14.721 1.408 15.199.208.958-2.396-8.37-9.996-19.277-12.005-4.802-.889-8.971-.51-11.856 0z" fill="url(#i)"/><path d="m397.628 424.755 6.525 10.108s-3.007 2.949-8.121 1.85l-7.178-9.575 8.774-2.383z" fill="url(#j)"/><path opacity=".3" d="M365.072 265.581c-10.085-19.259-4.894-48.584 8.012-54.846 3.387-1.643 7.422-1.732 11.834-.634-2.321 6.666-1.863 11.483-.713 14.895 5.112 15.227 27.222 13.495 34.127 30.822 4.37 10.951-2.578 16.391 3.62 25.172 6.423 9.101 16.924 7.577 20.168 16.439 2.417 6.606-2.351 10.362-.518 15.927.51 1.549 1.517 3.102 3.207 4.587-11.357 20.296-37.789 36.772-71.468 43.188l-3.62-12.844a397.951 397.951 0 0 1 20.65-19.871c13.757-12.316 16.585-13.14 17.245-17.03 2.168-12.744-30.811-23.403-42.544-45.805z" fill="url(#k)"/><path d="M384.549 216.779a1070.309 1070.309 0 0 0 1.809 94.345 1070.447 1070.447 0 0 0 14.031 117.716l-8.291 2.618c-28.426-27.516-36.933-51.719-39.266-69.127-1.648-12.307.846-13.366-1.376-28.771-4.231-29.329-15.268-39.377-23.017-66.841-2.913-10.305-6.151-25.875-5.941-46.171l62.051-3.769z" fill="#010648"/><path d="M404.915 164.496c-.52.119-2.757.859-3.645 10.16-2.135 22.424 9.615 31.502 6.723 43.665-2.782 11.673-16.949 17.339-31.527 23.164-9.746 3.896-39.885 15.943-57.415 2.395-7.375-5.701-8.187-12.584-13.447-37.888-13.371-64.293-18.549-69.816-12.93-83.736 9.654-23.903 35.515-33.802 39.817-35.445 45.873-17.557 100.051 14.714 121.458 51.79 2.82 4.884 19.65 34.038 7.826 47.869-7.156 8.368-23.597 9.716-34.449 4.008-14.501-7.623-17.584-27.08-22.411-25.982z" fill="url(#l)"/><path d="M455.05 181.504c.141 0 .292-.03.428-.094.517-.238.75-.846.512-1.361-.393-.859-9.865-21.046-31.747-29.013a1.038 1.038 0 0 0-1.328.609 1.028 1.028 0 0 0 .613 1.319c21.051 7.665 30.48 27.733 30.574 27.936.178.379.554.604.948.604z" fill="#fff"/><path d="M369.145 158.439c.119-.928 1.064-7.333 6.452-9.385 2.678-1.021 7.386-1.318 9.215 1.604 1.148 1.833 1.046 4.748-.458 6.18-1.913 1.809-4.399-.344-7.834 1.148-4.127 1.787-4.8 6.743-6.222 6.411-1.124-.26-1.475-3.503-1.153-5.958z" fill="url(#m)"/><path d="M369.145 158.439c.119-.928 1.064-7.333 6.452-9.385 2.678-1.021 7.386-1.318 9.215 1.604 1.148 1.833 1.046 4.748-.458 6.18-1.913 1.809-4.399-.344-7.834 1.148-4.127 1.787-4.8 6.743-6.222 6.411-1.124-.26-1.475-3.503-1.153-5.958z" fill="url(#n)"/><g opacity=".3"><path d="M322.669 114.037c2.895 7.828-5.792 14.613-2.066 23.117 5.342 12.183 26.551 5.93 34.129 17.977 8.989 14.282-11.591 37.705-3.102 45.719 3.869 3.655 8.34-1.022 19.65 1.544 16.11 3.655 20.949 16.303 28.444 14.383 2.358-.604 5.213-2.727 7.613-9.274 1.046 3.63 1.549 7.079.656 10.81-2.782 11.674-16.949 17.34-31.527 23.164-9.746 3.897-39.885 15.944-57.415 2.395-7.375-5.701-8.187-12.584-13.447-37.888-13.371-64.28-18.549-69.803-12.93-83.723 3.065-7.586 7.769-13.761 12.893-18.71 11.05 2.425 15.585 6.394 17.102 10.491v-.005z" fill="url(#o)"/><path d="M322.669 114.037c2.895 7.828-5.792 14.613-2.066 23.117 5.342 12.183 26.551 5.93 34.129 17.977 8.989 14.282-11.591 37.705-3.102 45.719 3.869 3.655 8.34-1.022 19.65 1.544 16.11 3.655 20.949 16.303 28.444 14.383 2.358-.604 5.213-2.727 7.613-9.274 1.046 3.63 1.549 7.079.656 10.81-2.782 11.674-16.949 17.34-31.527 23.164-9.746 3.897-39.885 15.944-57.415 2.395-7.375-5.701-8.187-12.584-13.447-37.888-13.371-64.28-18.549-69.803-12.93-83.723 3.065-7.586 7.769-13.761 12.893-18.71 11.05 2.425 15.585 6.394 17.102 10.491v-.005z" fill="url(#p)"/></g><path d="M368.803 152.41c-1.237 1.118-15.112 15.924-30.21 12.175-13.148-3.263-21.222-15.966-22.632-26.647-3.362-25.41 29.965-46.74 25.853-51.884-2.417-3.022-15.288 2.59-24.306 8.219-7.398 4.62-38.388 23.968-37.562 56.402.084 3.294.619 24.151 14.519 34.565 18.77 14.061 47.777 13.685 78.767-20.306l-4.429-12.524z" fill="#6165D7"/><path d="m436.565 121.274-14.942 47.414a3.86 3.86 0 0 1-3.553 2.692l-19.536 2.82c-2.519.089-4.449-2.207-3.917-4.654l13.173-48.532a3.855 3.855 0 0 1 3.654-3.021l21.306-1.702c2.659-.084 4.607 2.464 3.815 4.983z" fill="url(#q)"/><path d="m435.845 122.835-14.502 46.018a3.753 3.753 0 0 1-3.446 2.613l-17.169 2.739a3.741 3.741 0 0 1-3.005-1.329 3.75 3.75 0 0 1-.766-1.503 3.75 3.75 0 0 1-.027-1.686l12.871-47.131a3.738 3.738 0 0 1 3.548-2.932l18.804-1.626c2.574-.084 4.466 2.39 3.692 4.837z" fill="url(#r)"/><path opacity=".3" d="m396.925 169.69 12.292-45.031c.911.45 2.234 1.14 3.472 2.194 4.844 4.127 7.613 11.597 6.017 17.57-2.034 7.615-9.862 7.853-10.946 14.192-.846 4.961 3.202 10.214 6.547 13.423l-13.584 2.165c-2.447.089-4.315-2.136-3.798-4.513z" fill="url(#s)"/><path d="M379.781 82.24c-.858 2.982.953 6.08 3.981 6.807 3.675.881 8.151 2.099 10.08 3.2 3.548 2.016-10.805-.315-24.007-.621-8.239-.191-14.4-1.111-17.866-1.775-.928-.178-1-1.467-.102-1.756 3.298-1.064 8.662-2.638 13.193-3.2 5.614-.702 11.626-13.004 11.626-13.004l4.81 4.34-1.715 6.01z" fill="url(#t)"/><path d="M379.781 82.24c-.858 2.982.953 6.08 3.981 6.807 3.675.881 8.151 2.099 10.08 3.2 3.548 2.016-10.805-.315-24.007-.621-8.239-.191-14.4-1.111-17.866-1.775-.928-.178-1-1.467-.102-1.756 3.298-1.064 8.662-2.638 13.193-3.2 5.614-.702 11.626-13.004 11.626-13.004l4.81 4.34-1.715 6.01z" fill="url(#u)"/><path d="m427.546 155.057-.91-1.484c-.809-3.081-3.786-5.085-6.965-4.701l-4.793.586a2.565 2.565 0 0 0-2.207 3.071c.446 2.127 1.596 4.671 4.54 4.47 5.008-.336 8.205 6.906 8.205 6.906l1.922-2.685a5.561 5.561 0 0 0 .208-6.163z" fill="url(#v)"/><path d="m427.546 155.057-.91-1.484c-.809-3.081-3.786-5.085-6.965-4.701l-4.793.586a2.565 2.565 0 0 0-2.207 3.071c.446 2.127 1.596 4.671 4.54 4.47 5.008-.336 8.205 6.906 8.205 6.906l1.922-2.685a5.561 5.561 0 0 0 .208-6.163z" fill="url(#w)"/><path d="M390.497 75.936c4.15-.608 8.791-4.075 8.702-6.935-.124-3.931-9.172-6.084-13.744-7.173-4.585-1.088-6.532-.697-7.841.297-1.339 1.012-2.219 2.826-2.511 4.394-.156.852-.166 2.03-.018 4.365l.149 2.596c.131 1.472.534 4.062 1.982 7.652a18.788 18.788 0 0 1 2.405-2.212 16.497 16.497 0 0 1 3.661-2.14c2.987-1.195 4.697-.468 7.215-.839v-.005z" fill="url(#x)"/><path d="M375.006 77.129s.27 5.743 5.716 8.261c4.874 2.26 11.346-7.853 9.565-11.715-.594-1.29-2.435-2.69-4.315-3.123-1.113-.254-1.66-.034-3.471-.49-1.666-.42-1.995-.804-2.635-.675-.805.16-1.834 1.071-2.603 4.637-.399-1.39-1.284-2.323-2.249-2.383a1.797 1.797 0 0 0-.96.267c-1.322.846-1.064 2.97.952 5.22z" fill="url(#y)"/><path d="M375.006 77.129s.27 5.743 5.716 8.261c4.874 2.26 11.346-7.853 9.565-11.715-.594-1.29-2.435-2.69-4.315-3.123-1.113-.254-1.66-.034-3.471-.49-1.666-.42-1.995-.804-2.635-.675-.805.16-1.834 1.071-2.603 4.637-.399-1.39-1.284-2.323-2.249-2.383a1.797 1.797 0 0 0-.96.267c-1.322.846-1.064 2.97.952 5.22z" fill="url(#z)"/></g></g><defs><linearGradient id="o" x1="15417.5" y1="4419.32" x2="19372.2" y2="15833.2" gradientUnits="userSpaceOnUse"><stop stop-color="#FFC444"/><stop offset=".996" stop-color="#F36F56"/></linearGradient><linearGradient id="c" x1="35528.7" y1="66399.4" x2="10269.4" y2="55184.8" gradientUnits="userSpaceOnUse"><stop stop-color="#444B8C"/><stop offset=".996" stop-color="#26264F"/></linearGradient><linearGradient id="e" x1="14336.9" y1="68188.5" x2="44004.6" y2="58057.4" gradientUnits="userSpaceOnUse"><stop stop-color="#30ABBA"/><stop offset="1" stop-color="#6F6CFF"/></linearGradient><linearGradient id="f" x1="953.598" y1="151.398" x2="970.722" y2="130.668" gradientUnits="userSpaceOnUse"><stop stop-color="#30ABBA"/><stop offset="1" stop-color="#6F6CFF"/></linearGradient><linearGradient id="g" x1="6124.44" y1="2082.41" x2="6150.21" y2="1786.24" gradientUnits="userSpaceOnUse"><stop stop-color="#30ABBA"/><stop offset="1" stop-color="#6F6CFF"/></linearGradient><linearGradient id="h" x1="6124.45" y1="4256.3" x2="6156.17" y2="3928.01" gradientUnits="userSpaceOnUse"><stop stop-color="#30ABBA"/><stop offset="1" stop-color="#6F6CFF"/></linearGradient><linearGradient id="i" x1="5672.99" y1="2388.95" x2="5702.44" y2="2829.18" gradientUnits="userSpaceOnUse"><stop stop-color="#444B8C"/><stop offset=".996" stop-color="#26264F"/></linearGradient><linearGradient id="j" x1="2787.74" y1="2311.1" x2="2834.35" y2="2679.36" gradientUnits="userSpaceOnUse"><stop stop-color="#311944"/><stop offset="1" stop-color="#A03976"/></linearGradient><linearGradient id="k" x1="15832" y1="17705.5" x2="12700.5" y2="17705.5" gradientUnits="userSpaceOnUse"><stop stop-color="#444B8C"/><stop offset=".996" stop-color="#3E4177"/></linearGradient><linearGradient id="l" x1="28557.4" y1="21194.4" x2="27164.7" y2="27675.8" gradientUnits="userSpaceOnUse"><stop stop-color="#6165D7"/><stop offset=".996" stop-color="#30ABBA"/></linearGradient><linearGradient id="m" x1="2814.32" y1="1049.01" x2="2901.99" y2="1202.52" gradientUnits="userSpaceOnUse"><stop stop-color="#311944"/><stop offset="1" stop-color="#A03976"/></linearGradient><linearGradient id="n" x1="370.886" y1="153.808" x2="387.835" y2="162.207" gradientUnits="userSpaceOnUse"><stop stop-color="#FEBBBA"/><stop offset="1" stop-color="#FF928E"/></linearGradient><linearGradient id="d" x1="20919.2" y1="76424.7" x2="29743.3" y2="-47034" gradientUnits="userSpaceOnUse"><stop stop-color="#444B8C"/><stop offset=".996" stop-color="#26264F"/></linearGradient><linearGradient id="p" x1="19299" y1="18497.1" x2="17772.8" y2="23979.6" gradientUnits="userSpaceOnUse"><stop stop-color="#E38C7A"/><stop offset=".996" stop-color="#F36F56"/></linearGradient><linearGradient id="q" x1="7989.78" y1="4045.97" x2="6974.84" y2="3484.8" gradientUnits="userSpaceOnUse"><stop stop-color="#444B8C"/><stop offset=".996" stop-color="#26264F"/></linearGradient><linearGradient id="r" x1="7090.18" y1="3104.42" x2="6480.3" y2="3875.78" gradientUnits="userSpaceOnUse"><stop stop-color="#444B8C"/><stop offset=".996" stop-color="#26264F"/></linearGradient><linearGradient id="s" x1="3938.13" y1="2505.71" x2="4967.52" y2="3636.05" gradientUnits="userSpaceOnUse"><stop stop-color="#444B8C"/><stop offset=".996" stop-color="#26264F"/></linearGradient><linearGradient id="t" x1="6748.52" y1="462.263" x2="6775.93" y2="941.912" gradientUnits="userSpaceOnUse"><stop stop-color="#311944"/><stop offset="1" stop-color="#A03976"/></linearGradient><linearGradient id="u" x1="356.067" y1="79.097" x2="384.107" y2="106.606" gradientUnits="userSpaceOnUse"><stop stop-color="#FEBBBA"/><stop offset="1" stop-color="#FF928E"/></linearGradient><linearGradient id="v" x1="3136.69" y1="1101.93" x2="3036.29" y2="1101.93" gradientUnits="userSpaceOnUse"><stop stop-color="#311944"/><stop offset="1" stop-color="#A03976"/></linearGradient><linearGradient id="w" x1="414.382" y1="153.958" x2="430.42" y2="162.024" gradientUnits="userSpaceOnUse"><stop stop-color="#FEBBBA"/><stop offset="1" stop-color="#FF928E"/></linearGradient><linearGradient id="x" x1="4238.22" y1="413.405" x2="4178.79" y2="629.298" gradientUnits="userSpaceOnUse"><stop stop-color="#444B8C"/><stop offset=".996" stop-color="#010648"/></linearGradient><linearGradient id="y" x1="2986.85" y1="420.511" x2="3025.65" y2="524.137" gradientUnits="userSpaceOnUse"><stop stop-color="#311944"/><stop offset="1" stop-color="#A03976"/></linearGradient><linearGradient id="z" x1="375.181" y1="74.929" x2="392.731" y2="83.889" gradientUnits="userSpaceOnUse"><stop stop-color="#FEBBBA"/><stop offset="1" stop-color="#FF928E"/></linearGradient><clipPath id="a"><path fill="#fff" transform="translate(.722)" d="M0 0h492.371v480H0z"/></clipPath></defs></svg>