<svg width="481" height="480" fill="none" xmlns="http://www.w3.org/2000/svg"><g clip-path="url(#a)"><path d="M412.183 392.039c-11.943 12.309-22.625 19.545-30.813 25.008-79.782 53.271-170.987 37.917-199.184 32.669-45.494-8.466-83.896-14.44-116.887-44.246-74.974-67.741-71.327-209.043-14.033-296.574 6.794-10.378 63.99-95.17 155.384-107.117 2.235-.293 3.902-.459 5.364-.614 14.146-1.498 101.768-9.398 173.21 50.459 10.227 8.567 26.685 24.021 41.947 47.592 55.804 86.186 55.981 219.67-14.988 292.823z" fill="url(#b)"/><path d="m368.919 166.321 40.694-9.475s27.21-2.439 30.891 21.74c3.68 24.179 2.613 167.465 1.461 197.018-.38 9.739-.333 18.738.495 26.586 1.726 16.345-11.027 30.622-27.461 30.906l-75.762 1.311 29.682-268.086z" fill="url(#c)"/><path d="M347.268 446.047s8.13-113.993 65.953-183.48c.754-.906 2.061-.678 2.459.435 6.299 17.603 41.716 130.802-68.412 183.045z" fill="#010648"/><path d="M410.725 295.647c-.486 6.65-1.45 13.212-2.565 19.764a294.726 294.726 0 0 1-4.106 19.5 295.966 295.966 0 0 1-12.057 38.013c-2.469 6.181-5.087 12.309-8.014 18.291-1.419 3.012-3.004 5.945-4.529 8.908-1.615 2.915-3.189 5.85-4.936 8.689-6.77 11.471-14.698 22.282-23.747 32.011a.718.718 0 0 1-1.094-.925v-.009a251.046 251.046 0 0 0 21.6-32.923c1.622-2.852 3.065-5.801 4.61-8.693 1.435-2.95 2.933-5.867 4.271-8.863.671-1.498 1.394-2.961 2.049-4.473l1.98-4.505c.65-1.507 1.26-3.029 1.89-4.543.631-1.514 1.237-3.04 1.826-4.571 1.219-3.047 2.359-6.126 3.505-9.203 1.094-3.095 2.188-6.191 3.212-9.312 2.109-6.223 3.984-12.523 5.792-18.845a425.598 425.598 0 0 0 4.898-19.12 346.443 346.443 0 0 0 3.983-19.336v-.021a.716.716 0 0 1 1.419.174l.013-.008z" fill="url(#d)"/><path d="M354.434 433.578s59.609-100.265 124.461-101.836a1.783 1.783 0 0 1 1.415.645 1.784 1.784 0 0 1 .372 1.51c-2.761 13.105-22.069 81.706-126.248 99.681z" fill="#6165D7"/><path d="M465.16 347.641c-3.929 4.127-7.975 8.095-12.078 12.02-2.073 1.94-4.144 3.879-6.238 5.797a401.429 401.429 0 0 1-6.332 5.693 493.63 493.63 0 0 1-26.291 21.647c-4.468 3.504-9.099 6.794-13.666 10.165l-6.991 4.874c-1.167.81-2.325 1.629-3.506 2.418l-3.566 2.329c-9.424 6.342-19.272 12.028-29.189 17.55a.717.717 0 0 1-1.046-.81.72.72 0 0 1 .336-.434l.017-.012 7.316-4.292 3.658-2.144c1.209-.734 2.397-1.504 3.596-2.253l7.189-4.501c2.369-1.542 4.703-3.136 7.066-4.693l3.529-2.352 3.473-2.438 6.944-4.878c4.539-3.374 9.138-6.665 13.578-10.169 4.502-3.427 8.902-6.981 13.306-10.529l6.522-5.425 6.445-5.522c2.146-1.843 4.245-3.738 6.372-5.604 2.127-1.865 4.191-3.797 6.271-5.708 4.151-3.832 8.278-7.722 12.241-11.729l.011-.01a.719.719 0 0 1 1.23.488.718.718 0 0 1-.203.51l.006.012z" fill="#BDD0FB"/><path d="M286.185 168.287s74.101 4.073 123.428-11.441c0 0-32.791-2.247-32.791 73.464 0 57.884 8.585 168.369 1.089 189.341-7.496 20.972-35.523 49.167-75.699 24.936-40.177-24.23-16.027-276.3-16.027-276.3z" fill="#30ABBA"/><path d="M266.485 54.78s81.758 8.912 92.29-4.946c0 0-8.379-24.94-33.259-23.281-24.881 1.658-59.031 28.227-59.031 28.227z" fill="url(#e)"/><path d="M.574 82.84c7.142 80.122 22.11 249.594 28.625 332.148a37.116 37.116 0 0 0 34.626 34.123c65.628 4.212 213.321 12.386 270.007 4.782a37.72 37.72 0 0 1-21.041-34.143l3.008-370.442c.106-13.09 13.145-22.496 25.402-17.902 7.722 2.894 13.569 9.058 17.581 18.428-5.351-15.594-13.761-27-33.259-23.281 0 0-190.637 1.906-283.145 7.642C17.235 35.754-1.654 57.753.574 82.84z" fill="#30ABBA"/><path opacity=".53" d="m47.738 44.798 256.16-9.861c-10.565 78.215-6.097 237.501-2.075 394.478a24.65 24.65 0 0 0 14.11 21.659s-170.856 1.969-244.269-3.238a37 37 0 0 1-33.956-31.443c-10.074-67.256-34.186-241-29.168-332.986C9.688 62.344 26.66 45.61 47.738 44.798z" fill="url(#f)"/><path d="m44.349 166.122 2.989 28.692a10.628 10.628 0 0 0 10.162 9.52l16.706.641a10.633 10.633 0 0 0 7.78-2.964 10.62 10.62 0 0 0 3.255-7.662v-30.952a10.63 10.63 0 0 0-7.17-10.049 10.627 10.627 0 0 0-4.327-.542l-19.691 1.622a10.631 10.631 0 0 0-7.313 3.805 10.619 10.619 0 0 0-2.392 7.889z" fill="url(#g)"/><path d="M103.093 157.278c27.804-.871 134.538-4.334 161.49-5.212a6.003 6.003 0 0 1 4.38 1.693 5.995 5.995 0 0 1 1.354 1.976 6.02 6.02 0 0 1-5.321 8.359l-161.385 5.996a6.022 6.022 0 0 1-6.195-5.241l-.101-.781a6.015 6.015 0 0 1 5.778-6.79z" fill="url(#h)"/><path d="M103.093 157.278c27.804-.871 134.538-4.334 161.49-5.212a6.003 6.003 0 0 1 4.38 1.693 5.995 5.995 0 0 1 1.354 1.976 6.02 6.02 0 0 1-5.321 8.359l-161.385 5.996a6.022 6.022 0 0 1-6.195-5.241l-.101-.781a6.015 6.015 0 0 1 5.778-6.79z" fill="url(#i)"/><path d="M101.346 195.102a2.554 2.554 0 0 0 2.265 1.249l110.815-2.408a2.557 2.557 0 0 0 2.505-2.559v-7.306a2.557 2.557 0 0 0-2.656-2.559l-107.726 4.028c-4.808.181-7.661 5.433-5.203 9.555z" fill="url(#j)"/><path d="M101.346 195.102a2.554 2.554 0 0 0 2.265 1.249l110.815-2.408a2.557 2.557 0 0 0 2.505-2.559v-7.306a2.557 2.557 0 0 0-2.656-2.559l-107.726 4.028c-4.808.181-7.661 5.433-5.203 9.555z" fill="url(#k)"/><path d="m44.349 245.755 2.989 28.694a10.624 10.624 0 0 0 10.162 9.518l16.706.641a10.625 10.625 0 0 0 11.035-10.626v-30.947a10.621 10.621 0 0 0-3.425-7.817 10.636 10.636 0 0 0-8.072-2.776l-19.691 1.619a10.631 10.631 0 0 0-7.313 3.805 10.619 10.619 0 0 0-2.392 7.889z" fill="url(#l)"/><path d="m44.349 245.755 2.989 28.694a10.624 10.624 0 0 0 10.162 9.518l16.706.641a10.625 10.625 0 0 0 11.035-10.626v-30.947a10.621 10.621 0 0 0-3.425-7.817 10.636 10.636 0 0 0-8.072-2.776l-19.691 1.619a10.631 10.631 0 0 0-7.313 3.805 10.619 10.619 0 0 0-2.392 7.889z" fill="url(#m)"/><path d="M103.093 236.909c27.804-.871 134.538-4.334 161.49-5.211a6.028 6.028 0 0 1 4.381 1.692 6.024 6.024 0 0 1 1.829 4.325 6.02 6.02 0 0 1-5.797 6.015l-161.385 5.993a6.023 6.023 0 0 1-6.195-5.242l-.101-.78a6.018 6.018 0 0 1 5.778-6.792z" fill="url(#n)"/><path d="M103.093 236.909c27.804-.871 134.538-4.334 161.49-5.211a6.028 6.028 0 0 1 4.381 1.692 6.024 6.024 0 0 1 1.829 4.325 6.02 6.02 0 0 1-5.797 6.015l-161.385 5.993a6.023 6.023 0 0 1-6.195-5.242l-.101-.78a6.018 6.018 0 0 1 5.778-6.792z" fill="url(#o)"/><g opacity=".78"><path d="M101.346 274.738a2.559 2.559 0 0 0 2.265 1.247l110.815-2.408a2.56 2.56 0 0 0 2.505-2.559v-7.305a2.55 2.55 0 0 0-.784-1.845 2.558 2.558 0 0 0-1.872-.714l-107.734 4.027c-4.8.18-7.653 5.432-5.195 9.557z" fill="#fff"/><path d="M101.346 274.738a2.559 2.559 0 0 0 2.265 1.247l110.815-2.408a2.56 2.56 0 0 0 2.505-2.559v-7.305a2.55 2.55 0 0 0-.784-1.845 2.558 2.558 0 0 0-1.872-.714l-107.734 4.027c-4.8.18-7.653 5.432-5.195 9.557z" fill="url(#p)"/></g><path d="m44.349 325.389 2.989 28.692a10.629 10.629 0 0 0 10.162 9.518l16.706.641a10.633 10.633 0 0 0 7.773-2.964 10.623 10.623 0 0 0 3.255-7.655v-30.953a10.623 10.623 0 0 0-11.497-10.591l-19.684 1.618a10.631 10.631 0 0 0-7.313 3.805 10.619 10.619 0 0 0-2.392 7.889z" fill="url(#q)"/><path d="m44.349 325.389 2.989 28.692a10.629 10.629 0 0 0 10.162 9.518l16.706.641a10.633 10.633 0 0 0 7.773-2.964 10.623 10.623 0 0 0 3.255-7.655v-30.953a10.623 10.623 0 0 0-11.497-10.591l-19.684 1.618a10.631 10.631 0 0 0-7.313 3.805 10.619 10.619 0 0 0-2.392 7.889z" fill="url(#r)"/><path d="M103.093 316.545c27.804-.871 134.538-4.336 161.49-5.212a6.003 6.003 0 0 1 4.38 1.693 5.995 5.995 0 0 1 1.354 1.976 6.02 6.02 0 0 1-5.321 8.365l-161.385 5.99a6.022 6.022 0 0 1-6.195-5.241l-.101-.781a6.015 6.015 0 0 1 5.778-6.79z" fill="url(#s)"/><path d="M103.093 316.545c27.804-.871 134.538-4.336 161.49-5.212a6.003 6.003 0 0 1 4.38 1.693 5.995 5.995 0 0 1 1.354 1.976 6.02 6.02 0 0 1-5.321 8.365l-161.385 5.99a6.022 6.022 0 0 1-6.195-5.241l-.101-.781a6.015 6.015 0 0 1 5.778-6.79z" fill="url(#t)"/><path d="M101.346 354.37a2.564 2.564 0 0 0 2.265 1.249l110.815-2.407a2.56 2.56 0 0 0 2.502-2.552v-7.316a2.572 2.572 0 0 0-.784-1.844 2.562 2.562 0 0 0-1.873-.713l-107.725 4.027c-4.805.181-7.658 5.433-5.2 9.556z" fill="url(#u)"/><path d="M101.346 354.37a2.564 2.564 0 0 0 2.265 1.249l110.815-2.407a2.56 2.56 0 0 0 2.502-2.552v-7.316a2.572 2.572 0 0 0-.784-1.844 2.562 2.562 0 0 0-1.873-.713l-107.725 4.027c-4.805.181-7.658 5.433-5.2 9.556z" fill="url(#v)"/><path d="M367.196 333.789a1.245 1.245 0 0 1-1.246-1.219c0-.038-.076-3.967-.454-17.432a1.245 1.245 0 0 1 1.212-1.251 1.25 1.25 0 0 1 1.281 1.181c.379 13.481.454 17.42.456 17.455a1.246 1.246 0 0 1-1.219 1.271l-.03-.005zM366.29 300.923a1.247 1.247 0 0 1-1.245-1.209c-.269-8.765-.687-18.454-1.129-28.713-.596-13.859-1.22-28.19-1.542-41.997-.86-36.437 5.149-50.423 10.344-55.743 2.822-2.89 5.188-2.974 5.447-2.974a1.248 1.248 0 0 1 .026 2.493c-.284.021-14.613 1.596-13.322 56.163.325 13.782.942 28.102 1.54 41.95.442 10.266.86 19.963 1.128 28.743a1.234 1.234 0 0 1-.337.892 1.246 1.246 0 0 1-.87.392l-.04.003z" fill="#fff" style="mix-blend-mode:soft-light"/><path d="M185.572 435.306c-1.263 0-2.529-.597-3.865-1.825-4.913-4.512-6.181-11.447-6.526-18.042-2.264 2.536-4.585 5.006-6.877 7.449l-1.268-1.19c2.691-2.869 5.419-5.776 8.053-8.78a195.658 195.658 0 0 1 1.239-27.143c.639-5.507 1.557-11.333 3.945-16.648.76-1.693 2.023-4.123 4.195-5.642 2.264-1.586 5.236-1.756 7.226-.42 2.235 1.501 2.837 4.355 3.095 6.358 1.519 11.814-3.09 22.646-7.224 29.647-3.069 5.199-6.783 9.957-10.718 14.481.204 6.752 1.139 14.148 6.037 18.639 1.032.949 1.931 1.393 2.772 1.366 1.38-.049 2.496-1.394 3.407-2.694a73.808 73.808 0 0 0 9.614-19.182 20.227 20.227 0 0 1 1.711-5.946l1.634.574a77.459 77.459 0 0 1-1.639 5.757 18.443 18.443 0 0 0 .223 5.808c.203 1.015 1.06 4.367 3.534 4.839 1.846.348 3.771-1.045 5.897-4.277l8.709-13.239-1.1 4.74c-.389 1.674-1.046 5.67 1.296 6.63 1.33.547 2.734-.244 4.355-1.162 1.62-.918 3.288-1.855 5.189-1.599l.897.118-.153.892c-.089.509-.793 4.991 1.533 5.505 1.064.237 1.954-.502 3.295-1.742 1.056-.975 2.147-1.984 3.58-2.331l.41 1.692c-.995.24-1.877 1.054-2.808 1.916-1.323 1.219-2.821 2.613-4.854 2.163-2.647-.585-3.297-3.569-3.01-6.48-1.045.152-2.111.753-3.226 1.382-1.766.994-3.77 2.121-5.877 1.254-1.742-.716-2.683-2.439-2.754-4.918l-4.037 6.136c-1.628 2.475-4.192 5.696-7.675 5.029-2.388-.455-4.227-2.775-4.914-6.205-.095-.479-.173-.96-.235-1.444a75.658 75.658 0 0 1-8.175 15.085c-1.089 1.559-2.613 3.359-4.771 3.437l-.14.012zm3.028-71.407a5.672 5.672 0 0 0-3.136 1.016c-1.818 1.271-2.928 3.423-3.604 4.929-2.291 5.099-3.181 10.768-3.803 16.135a193.764 193.764 0 0 0-1.266 24.969c3.409-4.019 6.6-8.227 9.276-12.76 3.994-6.766 8.452-17.217 6.996-28.54-.349-2.66-1.087-4.293-2.341-5.136a3.759 3.759 0 0 0-2.122-.613z" fill="url(#w)"/><path opacity=".78" d="m261.918 121.426-204.064 6.056a13.466 13.466 0 0 1-13.847-12.799l-.754-15.265a13.463 13.463 0 0 1 13.089-14.11l205.079-5.422a13.459 13.459 0 0 1 12.83 8.393 13.464 13.464 0 0 1 .986 5.309l-.265 14.633a13.46 13.46 0 0 1-13.054 13.205z" fill="#fff"/><path d="M197.639 282.2s-6.806-4.465-7.748-3.435c-.337.366-1.119 1.611-1.849 2.961a2.498 2.498 0 0 0 .399 2.922l1.756 1.813a3.962 3.962 0 0 0 3.056 1.214 3.971 3.971 0 0 0 2.921-1.508 7.194 7.194 0 0 0 1.465-3.967z" fill="url(#x)"/><path d="M204.579 273.722s-2.336-6.154-5.071-5.585c-2.735.57-5.714 2.659-5.714 2.659l-4.382 5.922s12.303 4.848 16.63 2.07c0 0 12.569 2.172 28.438-.432-2.298-4.852-3.658-9.706-4.47-13.476-8.03 4.555-16.69 7.954-25.431 8.842z" fill="url(#y)"/><path d="M271.149 229.124s-17.988 22.663-41.132 35.761c.803 3.77 2.172 8.625 4.47 13.476 12.004-1.97 25.896-6.672 37.674-17.117l-1.012-32.12z" fill="url(#z)"/><path d="M293.589 329.571c-3.519-16.723-7.038-26.391-18.814-58.072-3.706-9.969-7.074-20.057-5.447-30.57l1.828-11.805s22.898-7.748 48.279-.326c0 0 34.628 15.042 11.108 89.337-10.609 11.861-23.017 15.243-36.954 11.436z" fill="url(#A)"/><path d="m275.047 214.056 5.937 14.265a2.843 2.843 0 0 0 2.148 1.707c3.423.587 11.702 1.505 17.139-2.071.154-.102.285-.233.388-.386a1.397 1.397 0 0 0 .201-1.054 1.381 1.381 0 0 0-.218-.502l-10.974-15.749-14.621 3.79z" fill="url(#B)"/><path d="M281.188 192.232c-.249.235-10.524 20.411-10.524 20.411l11.645 5.621 12.579-17.675s-9.527-12.281-13.7-8.357z" fill="url(#C)"/><path d="m289.596 202.711-5.808 9.681a1.838 1.838 0 0 1-.318.396c-.697.644-3.058 2.515-4.878-.033-1.568-2.172-3.02-4.146-4.588-4.961a1.855 1.855 0 0 0-2.505.825c-.958 1.897-2.812 5.763-3.975 9.428a1.85 1.85 0 0 0 1.074 2.264c2.359.955 7.021 2.683 11.149 3.254a1.861 1.861 0 0 0 1.756-.747c1.778-2.439 6.794-9.248 8.504-10.953 1.591-1.584 4.529-.988 5.848-.607a1.873 1.873 0 0 0 1.484-.195c1.342-.808 3.683-2.82 1.542-6.227a1.855 1.855 0 0 1 .575-2.526c1.498-.986 3.123-2.834 1.568-5.831-1.568-3.031-4.368-3.309-6.272-3.071a1.926 1.926 0 0 1-2.024-1.125 1.212 1.212 0 0 0-.378-.505 1.207 1.207 0 0 0-.58-.249 1.814 1.814 0 0 1-1.173-.754 1.8 1.8 0 0 1-.287-1.364c.337-1.716.084-3.944-2.656-5.451-5.024-2.763-9.426 1.742-10.544 5.538-1.119 3.795 4.497 6.485 8.032 6.934 2.595.33 4.019 3.162 4.592 4.643.103.265.144.55.121.834a1.877 1.877 0 0 1-.259.802z" fill="url(#D)"/><path d="m289.596 202.711-5.808 9.681a1.838 1.838 0 0 1-.318.396c-.697.644-3.058 2.515-4.878-.033-1.568-2.172-3.02-4.146-4.588-4.961a1.855 1.855 0 0 0-2.505.825c-.958 1.897-2.812 5.763-3.975 9.428a1.85 1.85 0 0 0 1.074 2.264c2.359.955 7.021 2.683 11.149 3.254a1.861 1.861 0 0 0 1.756-.747c1.778-2.439 6.794-9.248 8.504-10.953 1.591-1.584 4.529-.988 5.848-.607a1.873 1.873 0 0 0 1.484-.195c1.342-.808 3.683-2.82 1.542-6.227a1.855 1.855 0 0 1 .575-2.526c1.498-.986 3.123-2.834 1.568-5.831-1.568-3.031-4.368-3.309-6.272-3.071a1.926 1.926 0 0 1-2.024-1.125 1.212 1.212 0 0 0-.378-.505 1.207 1.207 0 0 0-.58-.249 1.814 1.814 0 0 1-1.173-.754 1.8 1.8 0 0 1-.287-1.364c.337-1.716.084-3.944-2.656-5.451-5.024-2.763-9.426 1.742-10.544 5.538-1.119 3.795 4.497 6.485 8.032 6.934 2.595.33 4.019 3.162 4.592 4.643.103.265.144.55.121.834a1.877 1.877 0 0 1-.259.802z" fill="url(#E)"/><path d="M287.56 214.767s2.5-5.881 5.36-5.641c2.86.241 5.111 3.089 1.568 6.292-4.411 3.984-6.928-.651-6.928-.651z" fill="url(#F)"/><path d="M291.335 476.876c5.53.48 15.129 1.255 22.694 1.589 4.548.2 7.168-.245 8.675-.85 0 .174 0 .331-.014.481a1.565 1.565 0 0 1-1.486 1.477c-9.897.564-19.818.574-29.716.03a1.111 1.111 0 0 1-.925-.582 1.105 1.105 0 0 1 .017-1.092c.227-.369.479-.72.755-1.053z" fill="url(#G)"/><path d="M314.029 478.465c-7.565-.334-17.164-1.109-22.694-1.588 5.436-6.67 22.694-11.167 22.694-11.167h4.878c3.353 4.833 3.832 9.433 3.801 11.905-1.511.605-4.131 1.051-8.679.85z" fill="url(#H)"/><path d="m319.725 457.753-.456 9.026a2.062 2.062 0 0 1-1.761 1.938 7.999 7.999 0 0 1-3.658-.303 2.437 2.437 0 0 1-1.641-1.874l-1.568-8.787h9.084z" fill="url(#I)"/><path d="M383.032 478.397c2.399-.334 3.484-1.58 3.939-2.912a.216.216 0 0 1 0 .036c.348 1.404-.465 2.861-2.09 3.552-1.978.838-4.139.981-5.817.911-1.799-.073-3.453-.818-4.355-2.01l-.014-.019c1.798.895 4.338 1 8.337.442z" fill="url(#J)"/><path d="M371.725 457.696h4.021c6.123-.126 9.967 12.788 11.225 17.789-.455 1.332-1.54 2.578-3.939 2.912-4.006.558-6.536.453-8.342-.442-3.31-4.355-4.947-10.727-5.736-14.448-.896-4.231 2.771-5.811 2.771-5.811z" fill="url(#K)"/><path d="m375.228 449.317 2.233 8.884a2.407 2.407 0 0 1-1.254 2.73c-1.249.641-3.006 1.315-4.623 1.12a2.018 2.018 0 0 1-1.641-1.343l-3.277-9.341 8.562-2.05z" fill="url(#L)"/><path d="M377.887 451.883c-2.788 2.465-11.811 2.787-11.811 2.787-32.537-78.091-46.101-99.589-46.101-99.589 4.703 29.476 1.012 105.134 1.012 105.134-5.369 2.369-12.292 0-12.292 0-.435-48.253-7.229-100.106-15.991-133.284 21.991-.495 33.942-5.289 37.761-8.307 18.331 29.554 47.422 133.259 47.422 133.259z" fill="url(#M)"/><path d="m287.17 348.754 4.046 25.168a8.288 8.288 0 0 0 9.203 6.893l60.57-7.387a5.982 5.982 0 0 0 5.27-5.806c.129-6.503-.126-18.077-2.855-28.621l-76.234 9.753z" fill="url(#N)"/><path d="M302.459 379.127a.198.198 0 0 1-.193-.251.2.2 0 0 1 .094-.121.212.212 0 0 1 .075-.023l1.592-.2a.188.188 0 0 1 .078.005.21.21 0 0 1 .07.035.2.2 0 0 1 .075.134.202.202 0 0 1-.175.223l-1.581.193-.035.005zm-3.691-.069a.2.2 0 0 1-.049 0 8.185 8.185 0 0 1-1.535-.549.198.198 0 0 1-.097-.115.196.196 0 0 1 .01-.15.2.2 0 0 1 .261-.096c.468.223.957.399 1.46.523a.2.2 0 0 1-.047.394l-.003-.007zm8.964-.575a.199.199 0 0 1-.024-.397l1.583-.192a.206.206 0 0 1 .147.041.193.193 0 0 1 .074.133.197.197 0 0 1-.041.148.194.194 0 0 1-.133.075l-1.582.192h-.024zm5.273-.643a.198.198 0 0 1-.161-.33.196.196 0 0 1 .136-.067l1.584-.193a.186.186 0 0 1 .148.039.196.196 0 0 1 .051.06c.012.023.02.049.022.075a.188.188 0 0 1-.04.147.209.209 0 0 1-.06.051.213.213 0 0 1-.074.023l-1.583.193-.023.002zm5.275-.643a.202.202 0 0 1-.133-.049.202.202 0 0 1-.061-.203.183.183 0 0 1 .036-.069.193.193 0 0 1 .133-.074l1.582-.193a.2.2 0 0 1 .147.04.2.2 0 0 1 .034.28.198.198 0 0 1-.132.075l-1.582.193h-.024zm5.273-.642a.2.2 0 0 1-.193-.252.196.196 0 0 1 .094-.12.195.195 0 0 1 .074-.024l1.582-.193a.186.186 0 0 1 .148.039.196.196 0 0 1 .051.06c.012.023.02.049.022.075a.202.202 0 0 1-.174.223l-1.582.193-.022-.001zm-29.151-.349a.198.198 0 0 1-.158-.078 7.893 7.893 0 0 1-.859-1.394.202.202 0 0 1 .029-.218.198.198 0 0 1 .213-.056c.05.017.091.053.115.1.227.466.5.908.817 1.319a.196.196 0 0 1-.037.278.189.189 0 0 1-.116.053l-.004-.004zm34.423-.299a.198.198 0 0 1-.155-.322.2.2 0 0 1 .133-.076l1.582-.193a.192.192 0 0 1 .199.099.2.2 0 0 1-.018.222.193.193 0 0 1-.133.074l-1.581.194-.027.002zm5.273-.643a.2.2 0 0 1-.024-.397l1.584-.194a.204.204 0 0 1 .221.174.205.205 0 0 1-.041.148.204.204 0 0 1-.133.074l-1.582.193-.025.002zm5.273-.643a.198.198 0 0 1-.209-.187.199.199 0 0 1 .187-.21l1.581-.194a.203.203 0 0 1 .148.04.209.209 0 0 1 .051.06.212.212 0 0 1 .017.152.196.196 0 0 1-.094.12.195.195 0 0 1-.074.024l-1.584.193-.023.002zm5.275-.645a.196.196 0 0 1-.196-.186.197.197 0 0 1 .045-.138.197.197 0 0 1 .127-.071l1.581-.193a.19.19 0 0 1 .149.038.209.209 0 0 1 .051.06c.012.024.02.049.022.076a.204.204 0 0 1-.041.147.204.204 0 0 1-.134.076l-1.581.191h-.023zm5.273-.642a.2.2 0 0 1-.211-.187.202.202 0 0 1 .05-.144.204.204 0 0 1 .137-.067l1.581-.191a.192.192 0 0 1 .149.04.193.193 0 0 1 .074.134.198.198 0 0 1-.174.223l-1.582.192h-.024zm5.273-.643a.2.2 0 0 1-.211-.187.2.2 0 0 1 .187-.21l1.581-.194a.21.21 0 0 1 .079.005.196.196 0 0 1 .144.17.196.196 0 0 1-.1.197.195.195 0 0 1-.074.024l-1.582.193-.024.002zm5.25-.767a.197.197 0 0 1-.202-.166.197.197 0 0 1 .138-.222 5.574 5.574 0 0 0 1.366-.697.198.198 0 0 1 .143-.022c.049.011.092.04.121.081a.197.197 0 0 1 .034.141.205.205 0 0 1-.07.128 6.02 6.02 0 0 1-1.465.745.22.22 0 0 1-.061.016l-.004-.004zm-67.794-.656a.204.204 0 0 1-.131-.051.205.205 0 0 1-.066-.124l-.252-1.567a.204.204 0 0 1 .035-.149.22.22 0 0 1 .057-.053.205.205 0 0 1 .151-.024.241.241 0 0 1 .071.033.189.189 0 0 1 .052.057.19.19 0 0 1 .027.073l.253 1.568a.205.205 0 0 1-.035.148.2.2 0 0 1-.131.08l-.031.009zm71.372-3.007a.194.194 0 0 1-.059 0 .202.202 0 0 1-.117-.098.203.203 0 0 1-.013-.153c.155-.489.24-.997.252-1.51a.198.198 0 0 1 .199-.195c.026 0 .051.006.075.017a.193.193 0 0 1 .118.187 5.763 5.763 0 0 1-.27 1.621.197.197 0 0 1-.069.096.199.199 0 0 1-.112.038l-.004-.003zm-72.215-2.238a.202.202 0 0 1-.195-.175l-.254-1.567a.197.197 0 0 1 .035-.149.2.2 0 0 1 .358.086l.253 1.568a.2.2 0 0 1-.164.228l-.033.009zm72.494-3.044a.197.197 0 0 1-.198-.196c0-.523-.013-1.046-.025-1.593a.198.198 0 0 1 .056-.142.196.196 0 0 1 .139-.061.177.177 0 0 1 .147.05.177.177 0 0 1 .057.145c.012.548.019 1.081.024 1.597 0 .053-.02.104-.058.141a.194.194 0 0 1-.14.059h-.002zm-73.337-2.198a.198.198 0 0 1-.197-.174l-.253-1.568a.2.2 0 0 1 .394-.063l.253 1.568a.196.196 0 0 1-.039.151.18.18 0 0 1-.06.053.2.2 0 0 1-.075.024l-.023.009zm73.186-3.113a.195.195 0 0 1-.138-.054.197.197 0 0 1-.063-.134c-.026-.523-.057-1.052-.09-1.589a.201.201 0 0 1 .009-.077.2.2 0 0 1 .177-.135c.132 0 .204.076.211.186.035.538.064 1.071.092 1.594a.185.185 0 0 1-.011.077.19.19 0 0 1-.103.113.182.182 0 0 1-.076.019h-.008zm-74.034-2.132a.201.201 0 0 1-.197-.174l-.253-1.568a.205.205 0 0 1 .003-.078.188.188 0 0 1 .033-.07.17.17 0 0 1 .057-.053.2.2 0 0 1 .301.138l.252 1.568a.196.196 0 0 1-.174.228l-.022.009zm73.64-3.167a.2.2 0 0 1-.199-.174 46.015 46.015 0 0 0-.174-1.582.197.197 0 0 1 .042-.146.2.2 0 0 1 .354.101c.061.533.119 1.062.174 1.588a.2.2 0 0 1-.174.218l-.023-.005zm-74.484-2.078a.199.199 0 0 1-.196-.174l-.286-1.777 1.46-.187a.206.206 0 0 1 .078.005.196.196 0 0 1 .145.17.205.205 0 0 1-.041.147.204.204 0 0 1-.134.076l-1.045.134.22 1.371a.192.192 0 0 1-.004.079.193.193 0 0 1-.095.124.202.202 0 0 1-.075.025l-.027.007zm4.692-2.207a.2.2 0 0 1-.163-.33.196.196 0 0 1 .136-.067l1.582-.203a.21.21 0 0 1 .079.003.18.18 0 0 1 .072.035.19.19 0 0 1 .072.137.202.202 0 0 1-.174.223l-1.582.202h-.022zm5.269-.674a.202.202 0 0 1-.19-.187.2.2 0 0 1 .164-.211l1.582-.202a.192.192 0 0 1 .223.175.206.206 0 0 1-.041.147.194.194 0 0 1-.134.075l-1.58.203h-.024zm63.873-.314a.202.202 0 0 1-.197-.174 77.41 77.41 0 0 0-.252-1.568.2.2 0 0 1 .035-.148.2.2 0 0 1 .206-.08c.026.006.05.017.072.032a.206.206 0 0 1 .053.057.19.19 0 0 1 .027.073c.089.522.175 1.045.253 1.568a.192.192 0 0 1-.004.079.191.191 0 0 1-.094.124.213.213 0 0 1-.076.025l-.023.012zm-58.603-.361a.203.203 0 0 1-.191-.187.202.202 0 0 1 .164-.21l1.582-.202a.21.21 0 0 1 .079.003.19.19 0 0 1 .144.171.192.192 0 0 1-.1.199.195.195 0 0 1-.074.024l-1.58.202h-.024zm5.269-.674a.199.199 0 0 1-.19-.187.202.202 0 0 1 .164-.21l1.582-.202a.186.186 0 0 1 .078.004c.026.006.05.018.071.035a.198.198 0 0 1 .074.135.205.205 0 0 1-.041.148.193.193 0 0 1-.134.075l-1.58.202h-.024zm5.269-.674a.2.2 0 0 1-.162-.33.2.2 0 0 1 .136-.067l1.582-.202a.192.192 0 0 1 .2.099.182.182 0 0 1 .023.075.202.202 0 0 1-.041.148.204.204 0 0 1-.133.075l-1.58.202h-.025zm5.27-.674a.2.2 0 0 1-.211-.186.199.199 0 0 1 .187-.211l1.58-.202a.171.171 0 0 1 .078.003c.026.006.05.018.071.035a.184.184 0 0 1 .051.06c.013.024.02.049.023.076a.202.202 0 0 1-.175.223l-1.58.202h-.024zm5.269-.674a.2.2 0 0 1-.024-.397l1.58-.202a.192.192 0 0 1 .2.099c.013.023.02.048.023.075a.202.202 0 0 1-.174.224l-1.58.203-.025-.002zm5.27-.674a.202.202 0 0 1-.19-.187.202.202 0 0 1 .164-.211l1.582-.202a.204.204 0 0 1 .078.004.196.196 0 0 1 .145.171.201.201 0 0 1-.042.147.2.2 0 0 1-.133.076l-1.58.202h-.024zm5.269-.674a.202.202 0 0 1-.19-.187.2.2 0 0 1 .164-.211l1.582-.202a.192.192 0 0 1 .223.174.199.199 0 0 1-.174.223l-1.58.203h-.025zm5.27-.676a.2.2 0 0 1-.152-.325.202.202 0 0 1 .127-.071l1.58-.204a.21.21 0 0 1 .079.004.196.196 0 0 1 .122.095c.012.023.02.049.022.076a.188.188 0 0 1-.005.078.19.19 0 0 1-.094.12.202.202 0 0 1-.075.025l-1.58.203-.024-.001zm20.756-.143a.2.2 0 0 1-.196-.157 57.343 57.343 0 0 0-.357-1.549.202.202 0 0 1 .024-.15.204.204 0 0 1 .201-.094.173.173 0 0 1 .073.026.206.206 0 0 1 .057.053.19.19 0 0 1 .032.071c.125.518.246 1.037.361 1.558a.198.198 0 0 1-.028.15.2.2 0 0 1-.126.088l-.041.004zm-15.487-.523a.201.201 0 0 1-.144-.049.201.201 0 0 1-.017-.281.196.196 0 0 1 .137-.067l1.58-.202a.191.191 0 0 1 .151.037.19.19 0 0 1 .072.137.2.2 0 0 1-.1.199.195.195 0 0 1-.074.024l-1.58.204-.025-.002zm5.27-.676a.194.194 0 0 1-.144-.049.199.199 0 0 1 .119-.348l1.58-.202a.209.209 0 0 1 .079.003c.026.007.05.019.071.035a.184.184 0 0 1 .073.136.2.2 0 0 1-.099.199.2.2 0 0 1-.075.024l-1.58.202h-.024zm5.269-.674a.197.197 0 0 1-.197-.174.206.206 0 0 1 .041-.148.205.205 0 0 1 .134-.077l1.58-.202a.21.21 0 0 1 .079.003.184.184 0 0 1 .121.096.205.205 0 0 1-.018.223.193.193 0 0 1-.134.075l-1.58.202-.026.002z" fill="#fff"/><path d="m302.558 328.14-.068-1.972a1.512 1.512 0 0 1 1.025-1.021c1.846-.541 6.455-1.667 8.922-.273l.625 2.223-10.504 1.043z" fill="url(#O)"/><path d="M308.207 325.511c-.415.16-.862.217-1.304.166a1.19 1.19 0 0 1-1.045-1.028l-.783-6.097 3.106-.397.781 6.097a1.194 1.194 0 0 1-.755 1.259z" fill="url(#P)"/><path d="m332.64 324.29-.068-1.972a1.52 1.52 0 0 1 1.025-1.021c1.846-.542 6.456-1.667 8.922-.273l.626 2.222-10.505 1.044z" fill="url(#Q)"/><path d="M338.29 321.661a2.718 2.718 0 0 1-1.305.174 1.187 1.187 0 0 1-1.045-1.026l-.871-6.746 3.106-.397.871 6.741a1.2 1.2 0 0 1-.756 1.254z" fill="url(#R)"/><path d="m304.952 320.083 33.259-5.379a1.627 1.627 0 0 0 1.369-1.519c.078-1.43-.07-2.863-.437-4.247a3.887 3.887 0 0 0-1.567-2.151 3.888 3.888 0 0 0-2.584-.636c-6.25.649-22.113 2.684-30.413 7.26a3.078 3.078 0 0 0-1.568 2.355 7.457 7.457 0 0 0 .349 3.402 1.452 1.452 0 0 0 1.592.915z" fill="url(#S)"/><path d="M304.133 318.804a.537.537 0 0 1-.334-.113.536.536 0 0 1-.189-.298 8.383 8.383 0 0 1-.129-2.681 3.193 3.193 0 0 1 1.877-2.468c1.808-.793 5.281-2.19 8.217-2.65a.535.535 0 0 1 .514.842.527.527 0 0 1-.351.209c-2.923.458-6.536 1.951-7.954 2.571a2.123 2.123 0 0 0-1.25 1.641 7.42 7.42 0 0 0 .111 2.298.515.515 0 0 1-.207.552.513.513 0 0 1-.19.083.447.447 0 0 1-.115.014z" fill="url(#T)"/><path d="M286.964 329.362c10.772-1.517 57.391-7.981 71.16-8.081a2.785 2.785 0 0 1 2.646 1.835c1.265 3.52 3.954 11.728 4.83 20.093a2.434 2.434 0 0 1-1.684 2.559l-30.203 9.816-10.995 1.406-33.819-2.334a2.595 2.595 0 0 1-2.386-2.129c-.751-4.168-2.347-13.972-2.023-20.454a2.88 2.88 0 0 1 2.474-2.711z" fill="url(#U)"/><path d="m322.666 354.492-1.629-.108a.201.201 0 0 1-.185-.212.21.21 0 0 1 .213-.185l1.59.11.852-.113a.21.21 0 0 1 .079.003c.026.007.05.019.071.035a.209.209 0 0 1 .051.06c.012.024.02.049.022.076a.194.194 0 0 1-.041.147.2.2 0 0 1-.133.076l-.89.111zm-5.325-.364h-.014l-1.589-.109a.202.202 0 0 1-.186-.213.207.207 0 0 1 .07-.133.206.206 0 0 1 .142-.052l1.591.11a.199.199 0 0 1-.014.397zm9.88-.219a.2.2 0 0 1-.163-.33.196.196 0 0 1 .137-.067l1.582-.202a.189.189 0 0 1 .201.098.18.18 0 0 1 .022.076.205.205 0 0 1-.041.147.204.204 0 0 1-.134.076l-1.581.202h-.023zm-15.179-.147h-.014l-1.591-.109a.202.202 0 0 1-.136-.069.197.197 0 0 1-.048-.144.204.204 0 0 1 .212-.184l1.59.109a.199.199 0 0 1-.013.397zm-5.3-.365h-.013l-1.591-.11a.214.214 0 0 1-.075-.02.203.203 0 0 1-.11-.193.206.206 0 0 1 .069-.135.2.2 0 0 1 .144-.049l1.589.109a.202.202 0 0 1 .138.063.196.196 0 0 1 .054.142.197.197 0 0 1-.205.193zm25.749-.162a.206.206 0 0 1-.145-.049.2.2 0 0 1 .118-.349l.633-.08.871-.287a.184.184 0 0 1 .08-.015c.028 0 .055.006.08.018a.178.178 0 0 1 .066.049c.019.02.033.045.041.071.009.026.012.054.009.081a.214.214 0 0 1-.024.079.214.214 0 0 1-.054.062.224.224 0 0 1-.075.035l-.907.294-.671.089-.022.002zm-31.049-.204h-.014l-1.582-.106a.201.201 0 0 1-.186-.213.211.211 0 0 1 .212-.185l1.591.11a.199.199 0 0 1-.014.397l-.007-.003zm-5.299-.366h-.014l-1.591-.11a.2.2 0 0 1-.075-.02.203.203 0 0 1-.11-.192.206.206 0 0 1 .071-.134.205.205 0 0 1 .142-.051l1.589.11a.197.197 0 0 1 .192.205.197.197 0 0 1-.204.192zm-5.301-.366h-.014l-1.591-.11a.199.199 0 0 1-.184-.212.22.22 0 0 1 .212-.186l1.591.111a.199.199 0 0 1-.014.397zm46.726-.59a.202.202 0 0 1-.189-.138.2.2 0 0 1 .127-.251l1.517-.493a.203.203 0 0 1 .251.129.2.2 0 0 1-.129.251l-1.516.491a.162.162 0 0 1-.062.007l.001.004zm5.052-1.643a.197.197 0 0 1-.199-.168.197.197 0 0 1 .138-.22l1.516-.493a.202.202 0 0 1 .251.128.201.201 0 0 1-.06.213.198.198 0 0 1-.068.038l-1.515.493c-.021.004-.043.005-.065.004l.002.005zm-54.074-1.451a.2.2 0 0 1-.195-.174c-.08-.504-.162-1.032-.242-1.579a.197.197 0 0 1 .167-.226.2.2 0 0 1 .226.167c.082.547.162 1.073.241 1.568a.196.196 0 0 1-.039.151.191.191 0 0 1-.136.077l-.022.016zm59.128-.19a.199.199 0 0 1-.197-.169.207.207 0 0 1 .026-.135.204.204 0 0 1 .108-.086l1.515-.491a.205.205 0 0 1 .081-.016.2.2 0 0 1 .08.019.197.197 0 0 1 .107.119c.009.027.012.055.009.082a.193.193 0 0 1-.025.078.18.18 0 0 1-.054.062.187.187 0 0 1-.074.035l-1.515.492c-.021.005-.042.006-.063.005l.002.005zm5.051-1.643a.199.199 0 0 1-.171-.304.204.204 0 0 1 .11-.084l1.516-.493a.203.203 0 0 1 .26.206.2.2 0 0 1-.136.174l-1.516.493c-.021.003-.043.005-.064.003l.001.005zm5.052-1.642a.199.199 0 0 1-.063-.389l1.516-.491a.201.201 0 0 1 .251.127.201.201 0 0 1-.127.251l-1.516.493a.207.207 0 0 1-.061.003v.006zm5.052-1.641a.201.201 0 0 1-.194-.248.196.196 0 0 1 .055-.094 47.21 47.21 0 0 0-.175-1.36.212.212 0 0 1 .041-.149.196.196 0 0 1 .134-.076.188.188 0 0 1 .078.005.21.21 0 0 1 .07.035.185.185 0 0 1 .051.06.178.178 0 0 1 .023.074c.068.504.131 1.007.185 1.511l.018.162-.229.073a.182.182 0 0 1-.057.001v.006zm-75.025-.148a.205.205 0 0 1-.199-.175 56.93 56.93 0 0 1-.174-1.585.195.195 0 0 1 .042-.145.193.193 0 0 1 .132-.074.199.199 0 0 1 .221.174c.056.523.119 1.059.175 1.582a.2.2 0 0 1-.175.221l-.022.002zm74.314-5.052a.198.198 0 0 1-.195-.162 97.582 97.582 0 0 0-.314-1.559.227.227 0 0 1-.001-.078.214.214 0 0 1 .029-.072.177.177 0 0 1 .054-.055.181.181 0 0 1 .071-.031.182.182 0 0 1 .077-.001.18.18 0 0 1 .072.028.206.206 0 0 1 .087.125c.11.523.216 1.045.315 1.568a.205.205 0 0 1 0 .078.192.192 0 0 1-.086.125.214.214 0 0 1-.072.029l-.037.005zm-74.832-.237a.203.203 0 0 1-.136-.054.202.202 0 0 1-.062-.132 59.579 59.579 0 0 1-.093-1.598.216.216 0 0 1 .011-.076.217.217 0 0 1 .04-.067.213.213 0 0 1 .062-.046.201.201 0 0 1 .076-.018.178.178 0 0 1 .079.007.182.182 0 0 1 .115.104.18.18 0 0 1 .015.079c.022.522.054 1.045.092 1.587a.202.202 0 0 1-.049.145.18.18 0 0 1-.062.047.183.183 0 0 1-.076.02l-.012.002zm73.67-4.949a.2.2 0 0 1-.193-.15 90.332 90.332 0 0 0-.406-1.538.2.2 0 0 1 .019-.151.204.204 0 0 1 .12-.095.206.206 0 0 1 .152.018.181.181 0 0 1 .058.052.183.183 0 0 1 .034.07c.137.502.274 1.017.41 1.545a.2.2 0 0 1-.143.242.29.29 0 0 1-.051.002v.005zm-73.795-.362a.201.201 0 0 1-.18-.129.204.204 0 0 1-.012-.077l.014-.348a.392.392 0 0 1 .335-.37l.98-.139a.215.215 0 0 1 .08.003c.026.007.05.019.071.035a.191.191 0 0 1 .074.136.191.191 0 0 1-.005.079.196.196 0 0 1-.095.121.197.197 0 0 1-.074.025l-.981.138v.331a.196.196 0 0 1-.13.178.204.204 0 0 1-.077.012v.005zm4.844-1.173a.2.2 0 0 1-.028-.397l1.58-.218a.196.196 0 0 1 .225.175.202.202 0 0 1-.174.223l-1.58.219-.023-.002zm5.265-.723a.196.196 0 0 1-.131-.05.195.195 0 0 1-.066-.124.186.186 0 0 1 .005-.078.187.187 0 0 1 .094-.122.2.2 0 0 1 .075-.024l1.58-.216a.188.188 0 0 1 .078.005.205.205 0 0 1 .121.092.216.216 0 0 1 .025.074.228.228 0 0 1-.005.078.21.21 0 0 1-.093.121.197.197 0 0 1-.074.025l-1.578.214-.031.005zm5.267-.71a.201.201 0 0 1-.144-.049.196.196 0 0 1-.067-.137.197.197 0 0 1 .049-.144.194.194 0 0 1 .136-.067l1.58-.211a.206.206 0 0 1 .148.041c.042.033.069.08.077.133a.202.202 0 0 1-.174.225l-1.58.21-.025-.001zm5.268-.697a.201.201 0 0 1-.212-.186.206.206 0 0 1 .049-.144.196.196 0 0 1 .137-.067l1.58-.208a.211.211 0 0 1 .079.005.178.178 0 0 1 .07.035.196.196 0 0 1 .076.135.205.205 0 0 1-.041.147.204.204 0 0 1-.134.076l-1.58.207h-.024zm5.27-.685a.194.194 0 0 1-.144-.049.198.198 0 0 1 .119-.348l1.582-.204a.186.186 0 0 1 .078.005.171.171 0 0 1 .07.035.185.185 0 0 1 .073.135.2.2 0 0 1-.174.223l-1.58.203h-.024zm5.306-.676-.051-.395 1.568-.197a.2.2 0 0 1 .199.1.206.206 0 0 1-.017.222.199.199 0 0 1-.133.075l-1.566.195zm41.122-.083a.201.201 0 0 1-.191-.14c-.174-.54-.331-1.045-.486-1.515a.201.201 0 0 1 .127-.251.201.201 0 0 1 .251.127c.155.469.319.978.489 1.521a.201.201 0 0 1-.013.152.202.202 0 0 1-.117.097.151.151 0 0 1-.06 0v.009zm-35.884-.566a.199.199 0 0 1-.211-.187.206.206 0 0 1 .049-.144.201.201 0 0 1 .137-.066l1.582-.192a.202.202 0 0 1 .216.252.196.196 0 0 1-.169.143l-1.58.194h-.024zm5.273-.634a.2.2 0 0 1-.023-.398l1.583-.184a.186.186 0 0 1 .078.005.21.21 0 0 1 .07.035c.02.016.037.036.05.059.012.024.02.049.022.075a.206.206 0 0 1-.005.078.183.183 0 0 1-.036.069.193.193 0 0 1-.133.074l-1.584.185-.022.002zm5.278-.608a.206.206 0 0 1-.144-.051.2.2 0 0 1 .123-.347l1.583-.174a.205.205 0 0 1 .22.174.2.2 0 0 1-.174.222l-1.584.174-.024.002zm5.282-.577a.202.202 0 0 1-.196-.19.201.201 0 0 1 .175-.209l1.585-.164a.222.222 0 0 1 .077.007.21.21 0 0 1 .069.037c.02.016.037.036.049.059a.178.178 0 0 1 .023.074.182.182 0 0 1-.007.077.204.204 0 0 1-.095.119.213.213 0 0 1-.074.023l-1.586.174-.02-.007zm5.286-.533a.216.216 0 0 1-.076-.011.217.217 0 0 1-.067-.04.205.205 0 0 1-.065-.138.204.204 0 0 1 .052-.143.176.176 0 0 1 .062-.046.181.181 0 0 1 .075-.019l1.587-.15a.2.2 0 0 1 .146.041.202.202 0 0 1 .072.133.202.202 0 0 1-.043.144.2.2 0 0 1-.131.072l-1.587.148-.025.009zm5.293-.47a.199.199 0 0 1-.016-.397c.549-.046 1.079-.086 1.59-.122a.197.197 0 0 1 .142.043.2.2 0 0 1 .071.131.203.203 0 0 1-.044.142.203.203 0 0 1-.13.072c-.513.037-1.046.078-1.589.122l-.024.009zm5.3-.349a.195.195 0 0 1-.137-.055.195.195 0 0 1-.061-.135.194.194 0 0 1 .188-.207c.57-.028 1.103-.049 1.596-.064a.198.198 0 0 1 .181.199c0 .05-.018.098-.052.135a.204.204 0 0 1-.129.065 76.35 76.35 0 0 0-1.589.062h.003z" fill="#fff"/><path d="m333.268 360.333-9.632 1.232a2.514 2.514 0 0 1-1.733-.411 2.517 2.517 0 0 1-1.023-1.458l-2.297-9.126a2.517 2.517 0 0 1-.036-1.051c.063-.349.199-.68.399-.973a2.496 2.496 0 0 1 1.757-1.068l11.57-1.481a2.51 2.51 0 0 1 2.829 2.381l.36 9.376a2.505 2.505 0 0 1-2.194 2.579z" fill="url(#V)"/><path d="m331.865 358.779-7.33.939a1.919 1.919 0 0 1-2.09-1.423l-1.742-6.947a1.905 1.905 0 0 1 .281-1.537 1.914 1.914 0 0 1 1.333-.816l8.808-1.127a1.903 1.903 0 0 1 2.151 1.813l.274 7.142a1.92 1.92 0 0 1-1.685 1.956z" fill="url(#W)"/><path d="M326.136 284.916c2.264 9.389 2.332 18.573 1.987 21.918a2.608 2.608 0 0 1-.781 1.603 2.605 2.605 0 0 1-1.628.729c-1.435.101-3.39.233-5.137.333-1.916.111-4.052-1.103-5.477-2.117a.854.854 0 0 0-1.055.048.853.853 0 0 0-.208 1.036c.697 1.371 1.917 2.449 3.124 3.365.726.552 3.135 1.533 2.961 2.613a1.922 1.922 0 0 1-.481.908c-1.341 1.609-3.37 2.47-5.372 3.083a1.5 1.5 0 0 0-.697.349c-.048 1.296 3.936 2.734 4.963 3.076 1.54.524 3.174.714 4.792.557 4.007-.423 7.71-3.189 9.869-6.525 5.773-8.919 8.757-19.685 9.847-27.924-5.358-5.357-13.465-3.996-16.707-3.052z" fill="url(#X)"/><path d="M342.854 288.82c4.281-32.345-20.646-57.217-20.646-57.217l-14.83 17.291c11.26 14.033 16.612 26.894 19.057 36.994 3.242-.937 11.05-2.428 16.419 2.932z" fill="url(#Y)"/><path d="M326.082 285.737a.917.917 0 0 1-.894-.697c-3.012-12.452-9.365-24.778-18.879-36.637a.914.914 0 0 1-.089-1.017.92.92 0 0 1 1.521-.133c9.685 12.072 16.156 24.64 19.234 37.355a.91.91 0 0 1-.491 1.044.916.916 0 0 1-.402.09v-.005z" fill="url(#Z)"/><path d="M125.227 477.488a1.884 1.884 0 0 0-.049-.479c-2.385-9.456-14.223-15.347-14.223-15.347l-4.691.369c-2.697 8.334-2.35 13.445-1.917 15.722.013.064.032.125.049.186 3.867.347 11.833.572 20.831-.451z" fill="url(#aa)"/><path d="M104.396 477.939c.086.364.271.696.533.962.263.265.594.452.957.542 5.504 1.158 14.252.226 17.926-.255.81-.104 1.394-.855 1.416-1.7-8.999 1.023-16.965.798-20.832.451z" fill="url(#ab)"/><path d="m104.377 455.043 1.988 9.565a1.56 1.56 0 0 0 1.336 1.287c1.024.103 2.057.087 3.078-.048 1.024-.152 1.742-1.194 1.557-2.31l-1.381-8.494h-6.578z" fill="url(#ac)"/><path d="m104.377 455.043 1.988 9.565a1.56 1.56 0 0 0 1.336 1.287c1.024.103 2.057.087 3.078-.048 1.024-.152 1.742-1.194 1.557-2.31l-1.381-8.494h-6.578z" fill="url(#ad)"/><path d="M145.543 477.824c-5.18-.144-7.861-.756-9.246-1.322 0 .523 0 1.045.016 1.583a1.02 1.02 0 0 0 .977 1.046l28.446-.183c.908 0 1.439-1.059 1.046-1.892-3.73.298-13.231.988-21.239.768z" fill="url(#ae)"/><path d="M166.782 477.045a1.374 1.374 0 0 0-.114-.214c-2.512-3.51-8.91-10.5-21.553-13.531l-6.066-.192s-2.702 4.695-2.752 13.389c1.394.566 4.066 1.177 9.246 1.322 8.008.225 17.509-.465 21.239-.774z" fill="url(#af)"/><path d="M137.654 454.198c.096.446 1.357 7.252 1.846 9.891a1.322 1.322 0 0 0 1.187 1.12c1.045.058 2.714.065 4.154-.327.777-.211 1.298-1.004 1.244-1.882l-.679-10.765-7.752 1.963z" fill="url(#ag)"/><path d="M137.654 454.198c.096.446 1.357 7.252 1.846 9.891a1.322 1.322 0 0 0 1.187 1.12c1.045.058 2.714.065 4.154-.327.777-.211 1.298-1.004 1.244-1.882l-.679-10.765-7.752 1.963z" fill="url(#ah)"/><path d="M133.059 328.537s8.342 57.336 14.364 125.562c.111 1.271-.901 2.378-2.148 2.641-1.839.386-4.545.846-6.783.784a2.512 2.512 0 0 1-2.394-2.091c-2.052-12.03-16.69-76.591-20.531-90.8 0 0-4.412 60.357-3.001 91.671a1.485 1.485 0 0 1-1.31 1.544c-1.81.193-3.636.188-5.445-.016a1.987 1.987 0 0 1-1.768-1.686c-1.462-10.18-9.872-70.78-9.515-114.434.02-2.463 2.888-22.69 2.888-22.69l35.643 9.515z" fill="url(#ai)"/><path d="M96.164 331.847a2.362 2.362 0 0 1-1.55-1.99c-1.11-10.763-6.483-77.509 27.434-104.966 0 0 1.945-5.088 17.933 7.421s7.428 25.621 3.601 43.706c-4.632 21.885-12.76 39.773-9.163 53.24a1.867 1.867 0 0 1-1.144 2.239c-12.419 4.572-24.79 4.724-37.111.35z" fill="url(#aj)"/><path d="M135.278 204.89c-.011.949-13.554 20.186-13.554 20.186s2.438 4.788 14.036 8.675l10.019-20.597-10.501-8.264z" fill="url(#ak)"/><path d="M135.278 204.89c-.011.949-13.554 20.186-13.554 20.186s2.438 4.788 14.036 8.675l10.019-20.597-10.501-8.264z" fill="url(#al)"/><path d="M145.941 193.866s4.82 11.07 5.144 16.88c.324 5.809 1.567 9.581-5.144 10.751-6.712 1.171-12.368-2.177-15.443-7.964 0 0-4.804-8.919-3.726-12.57 1.078-3.651 19.169-7.097 19.169-7.097z" fill="url(#am)"/><path d="M145.941 193.866s4.82 11.07 5.144 16.88c.324 5.809 1.567 9.581-5.144 10.751-6.712 1.171-12.368-2.177-15.443-7.964 0 0-4.804-8.919-3.726-12.57 1.078-3.651 19.169-7.097 19.169-7.097z" fill="url(#an)"/><path d="m132.79 209.372.382-.175a.927.927 0 0 0 .551-.906.91.91 0 0 0-.1-.36c-.948-1.831-2.787-6.025-.408-7.003 3.075-1.261 15.253-3.745 17.882-8.067 2.526-4.153.287-9.514-3.075-11.04a.463.463 0 0 0-.606.198l-.28.523a.459.459 0 0 1-.698.139.465.465 0 0 1-.146-.225.455.455 0 0 0-.822-.118c-.806 1.292-2.987 3.39-8.819 4.465-8.289 1.529-13.762 4.877-13.905 10.612a.461.461 0 0 1-.241.396.454.454 0 0 1-.464-.02c-.614-.373-1.593-.549-2.901.552-2.277 1.916-1.345 6.879 3.644 10.962a.454.454 0 0 1-.02.732c-.905.589-2.253 1.989 1.242 3.859 3.612 1.931 6.311 1.773 7.351 1.6a.46.46 0 0 0 .303-.194.466.466 0 0 0 .066-.354l-1.11-5.035a.46.46 0 0 1 .446-.554l1.728.013z" fill="url(#ao)"/><path d="M133.001 210.431s-1.838-7.072-5.008-5.088 1.646 7.922 4.195 8.187l.813-3.099z" fill="url(#ap)"/><path d="M133.001 210.431s-1.838-7.072-5.008-5.088 1.646 7.922 4.195 8.187l.813-3.099z" fill="url(#aq)"/><path d="m145.124 238.113.933 25.084a69.067 69.067 0 0 0 7.583 2.153c1.503-4.842 4.815-10.786 7.527-15.204-9.964-3.527-16.043-12.033-16.043-12.033z" fill="url(#ar)"/><path d="M194.867 237.688c-13.667 14.756-24.736 15.623-33.7 12.453-2.712 4.418-6.024 10.361-7.527 15.204 36.498 8.046 45.093-25.508 45.093-25.508l-3.866-2.149z" fill="url(#as)"/><path d="M194.867 237.688c-13.667 14.756-24.736 15.623-33.7 12.453-2.712 4.418-6.024 10.361-7.527 15.204 36.498 8.046 45.093-25.508 45.093-25.508l-3.866-2.149z" fill="url(#at)"/><path d="M197.639 236.12s1.568-1.692 4.489-1.16c2.921.531 5.506 1.543 7.316 0 1.81-1.544 2.455.522 2.455.522l-5.423 4.139-8.837-3.501z" fill="url(#au)"/><path d="M197.639 236.12s1.568-1.692 4.489-1.16c2.921.531 5.506 1.543 7.316 0 1.81-1.544 2.455.522 2.455.522l-5.423 4.139-8.837-3.501z" fill="url(#av)"/><path d="M194.388 239.01s1.079-4.51 4.329-3.893c3.251.616 10.626 4.631 12.542 3.893 1.917-.739 4.335-2.509 5.575-1.883l-2.199 2.731s5.651-3.259 6.62-1.256l-9.407 5.291s-13.747-1.378-17.46-4.883z" fill="url(#aw)"/><path d="M194.388 239.01s1.079-4.51 4.329-3.893c3.251.616 10.626 4.631 12.542 3.893 1.917-.739 4.335-2.509 5.575-1.883l-2.199 2.731s5.651-3.259 6.62-1.256l-9.407 5.291s-13.747-1.378-17.46-4.883z" fill="url(#ax)"/><path d="M129.953 270.935s25.694 21.52 53.44 12.131a6.602 6.602 0 0 1 5.21.392l7.977 4.212a7.125 7.125 0 0 0 9.438-2.641c1.108-1.855 2.054-3.972 2.242-6.001l-15.61-6.318 1.151-1.916s-7.621-.645-9.615 4.816c0 0-14.514 6.038-38.994-20.888 0 .002-11.109 9.447-15.239 16.213z" fill="url(#ay)"/><path d="M129.953 270.935s25.694 21.52 53.44 12.131a6.602 6.602 0 0 1 5.21.392l7.977 4.212a7.125 7.125 0 0 0 9.438-2.641c1.108-1.855 2.054-3.972 2.242-6.001l-15.61-6.318 1.151-1.916s-7.621-.645-9.615 4.816c0 0-14.514 6.038-38.994-20.888 0 .002-11.109 9.447-15.239 16.213z" fill="url(#az)"/><path d="M128.57 270.714a.432.432 0 0 1-.246-.077c-10.819-7.316-15.91-19.108-15.96-19.226a.44.44 0 1 1 .81-.348c.049.116 5.052 11.681 15.641 18.843a.443.443 0 0 1 .173.492.44.44 0 0 1-.418.312v.004z" fill="url(#aA)"/><path d="M144.685 254.36a.437.437 0 0 1-.371-.202c-.032-.05-3.338-5.196-9.634-16.469-1.935-3.466-4.48-5.661-7.562-6.523-5.103-1.427-10.021 1.31-10.07 1.338a.446.446 0 0 1-.325.027.444.444 0 0 1-.299-.527.44.44 0 0 1 .189-.265c.212-.12 5.271-2.951 10.735-1.422 3.31.925 6.045 3.261 8.101 6.942 6.271 11.245 9.581 16.375 9.605 16.424a.444.444 0 0 1-.369.677z" fill="url(#aB)"/></g><defs><linearGradient id="P" x1="306.034" y1="316.389" x2="312.213" y2="346.999" gradientUnits="userSpaceOnUse"><stop stop-color="#E1473D"/><stop offset="1" stop-color="#E9605A"/></linearGradient><linearGradient id="b" x1="509.306" y1="530.19" x2="185.827" y2="185.841" gradientUnits="userSpaceOnUse"><stop stop-color="#DAE3FE"/><stop offset="1" stop-color="#E9EFFD"/></linearGradient><linearGradient id="d" x1="349.529" y1="367.965" x2="410.726" y2="367.965" gradientUnits="userSpaceOnUse"><stop stop-color="#DAE3FE"/><stop offset="1" stop-color="#E9EFFD"/></linearGradient><linearGradient id="e" x1="353.582" y1="137.25" x2="205.581" y2="-170.393" gradientUnits="userSpaceOnUse"><stop stop-color="#4042E2"/><stop offset="1" stop-color="#4F52FF"/></linearGradient><linearGradient id="f" x1="277.718" y1="113.493" x2="-116.729" y2="618.262" gradientUnits="userSpaceOnUse"><stop stop-color="#fff"/><stop offset="1" stop-color="#fff"/></linearGradient><linearGradient id="g" x1="44.289" y1="178.877" x2="85.241" y2="178.877" gradientUnits="userSpaceOnUse"><stop stop-color="#67878E"/><stop offset="1" stop-color="#95CEDB"/></linearGradient><linearGradient id="h" x1="97.264" y1="161.079" x2="270.793" y2="161.079" gradientUnits="userSpaceOnUse"><stop stop-color="#DAE3FE"/><stop offset="1" stop-color="#E9EFFD"/></linearGradient><linearGradient id="i" x1="97.257" y1="161.079" x2="270.793" y2="161.079" gradientUnits="userSpaceOnUse"><stop stop-color="#67878E"/><stop offset="1" stop-color="#95CEDB"/></linearGradient><linearGradient id="j" x1="100.445" y1="188.937" x2="216.923" y2="188.937" gradientUnits="userSpaceOnUse"><stop stop-color="#DAE3FE"/><stop offset="1" stop-color="#E9EFFD"/></linearGradient><linearGradient id="k" x1="100.441" y1="188.934" x2="216.931" y2="188.934" gradientUnits="userSpaceOnUse"><stop stop-color="#67878E"/><stop offset="1" stop-color="#95CEDB"/></linearGradient><linearGradient id="l" x1="44.289" y1="258.511" x2="85.241" y2="258.511" gradientUnits="userSpaceOnUse"><stop stop-color="#DAE3FE"/><stop offset="1" stop-color="#E9EFFD"/></linearGradient><linearGradient id="m" x1="44.289" y1="258.511" x2="85.241" y2="258.511" gradientUnits="userSpaceOnUse"><stop stop-color="#67878E"/><stop offset="1" stop-color="#95CEDB"/></linearGradient><linearGradient id="n" x1="97.264" y1="240.711" x2="270.793" y2="240.711" gradientUnits="userSpaceOnUse"><stop stop-color="#DAE3FE"/><stop offset="1" stop-color="#E9EFFD"/></linearGradient><linearGradient id="o" x1="97.257" y1="240.711" x2="270.793" y2="240.711" gradientUnits="userSpaceOnUse"><stop stop-color="#67878E"/><stop offset="1" stop-color="#95CEDB"/></linearGradient><linearGradient id="p" x1="100.441" y1="268.569" x2="216.931" y2="268.569" gradientUnits="userSpaceOnUse"><stop stop-color="#67878E"/><stop offset="1" stop-color="#95CEDB"/></linearGradient><linearGradient id="q" x1="44.289" y1="338.144" x2="85.241" y2="338.144" gradientUnits="userSpaceOnUse"><stop stop-color="#DAE3FE"/><stop offset="1" stop-color="#E9EFFD"/></linearGradient><linearGradient id="r" x1="44.289" y1="338.144" x2="85.234" y2="338.144" gradientUnits="userSpaceOnUse"><stop stop-color="#67878E"/><stop offset="1" stop-color="#95CEDB"/></linearGradient><linearGradient id="s" x1="97.264" y1="320.346" x2="270.793" y2="320.346" gradientUnits="userSpaceOnUse"><stop stop-color="#DAE3FE"/><stop offset="1" stop-color="#E9EFFD"/></linearGradient><linearGradient id="t" x1="97.257" y1="320.346" x2="270.793" y2="320.346" gradientUnits="userSpaceOnUse"><stop stop-color="#67878E"/><stop offset="1" stop-color="#95CEDB"/></linearGradient><linearGradient id="u" x1="100.445" y1="348.202" x2="216.923" y2="348.202" gradientUnits="userSpaceOnUse"><stop stop-color="#DAE3FE"/><stop offset="1" stop-color="#E9EFFD"/></linearGradient><linearGradient id="v" x1="100.441" y1="348.202" x2="216.928" y2="348.202" gradientUnits="userSpaceOnUse"><stop stop-color="#67878E"/><stop offset="1" stop-color="#95CEDB"/></linearGradient><linearGradient id="w" x1="237.48" y1="320.977" x2="182.959" y2="460.567" gradientUnits="userSpaceOnUse"><stop stop-color="#09005D"/><stop offset="1" stop-color="#1A0F91"/></linearGradient><linearGradient id="x" x1="197.452" y1="282.044" x2="187.739" y2="283.95" gradientUnits="userSpaceOnUse"><stop stop-color="#FEBBBA"/><stop offset="1" stop-color="#FF928E"/></linearGradient><linearGradient id="y" x1="189.419" y1="272.269" x2="234.487" y2="272.269" gradientUnits="userSpaceOnUse"><stop stop-color="#FEBBBA"/><stop offset="1" stop-color="#FF928E"/></linearGradient><linearGradient id="z" x1="323.138" y1="120.996" x2="295.684" y2="175.131" gradientUnits="userSpaceOnUse"><stop stop-color="#09005D"/><stop offset="1" stop-color="#1A0F91"/></linearGradient><linearGradient id="A" x1="366.975" y1="143.229" x2="339.521" y2="197.362" gradientUnits="userSpaceOnUse"><stop stop-color="#09005D"/><stop offset="1" stop-color="#1A0F91"/></linearGradient><linearGradient id="B" x1="290.258" y1="227.191" x2="283.032" y2="205.51" gradientUnits="userSpaceOnUse"><stop stop-color="#FEBBBA"/><stop offset="1" stop-color="#FF928E"/></linearGradient><linearGradient id="C" x1="273.378" y1="200.583" x2="299.353" y2="211.878" gradientUnits="userSpaceOnUse"><stop stop-color="#FEBBBA"/><stop offset="1" stop-color="#FF928E"/></linearGradient><linearGradient id="D" x1="286.793" y1="218.962" x2="265.384" y2="196.312" gradientUnits="userSpaceOnUse"><stop stop-color="#09005D"/><stop offset="1" stop-color="#1A0F91"/></linearGradient><linearGradient id="E" x1="267.371" y1="176.924" x2="295.515" y2="204.461" gradientUnits="userSpaceOnUse"><stop stop-color="#010648"/><stop offset="1" stop-color="#251F6A"/></linearGradient><linearGradient id="F" x1="271.76" y1="204.306" x2="297.735" y2="215.601" gradientUnits="userSpaceOnUse"><stop stop-color="#FEBBBA"/><stop offset="1" stop-color="#FF928E"/></linearGradient><linearGradient id="G" x1="322.706" y1="478.439" x2="290.424" y2="478.439" gradientUnits="userSpaceOnUse"><stop stop-color="#4042E2"/><stop offset="1" stop-color="#4F52FF"/></linearGradient><linearGradient id="H" x1="400.623" y1="448.235" x2="283.734" y2="481.552" gradientUnits="userSpaceOnUse"><stop stop-color="#09005D"/><stop offset="1" stop-color="#1A0F91"/></linearGradient><linearGradient id="I" x1="319.725" y1="463.279" x2="310.632" y2="463.279" gradientUnits="userSpaceOnUse"><stop stop-color="#FEBBBA"/><stop offset="1" stop-color="#FF928E"/></linearGradient><linearGradient id="J" x1="387.061" y1="477.742" x2="374.692" y2="477.742" gradientUnits="userSpaceOnUse"><stop stop-color="#4042E2"/><stop offset="1" stop-color="#4F52FF"/></linearGradient><linearGradient id="K" x1="335.459" y1="441.464" x2="408.303" y2="488.898" gradientUnits="userSpaceOnUse"><stop stop-color="#09005D"/><stop offset="1" stop-color="#1A0F91"/></linearGradient><linearGradient id="L" x1="377.535" y1="455.698" x2="366.666" y2="455.698" gradientUnits="userSpaceOnUse"><stop stop-color="#FEBBBA"/><stop offset="1" stop-color="#FF928E"/></linearGradient><linearGradient id="M" x1="379.066" y1="471.654" x2="213.244" y2="242.396" gradientUnits="userSpaceOnUse"><stop stop-color="#09005D"/><stop offset="1" stop-color="#1A0F91"/></linearGradient><linearGradient id="N" x1="339.192" y1="441.808" x2="326.36" y2="349.577" gradientUnits="userSpaceOnUse"><stop stop-color="#FF928E"/><stop offset="1" stop-color="#FE7062"/></linearGradient><linearGradient id="O" x1="308.669" y1="332.502" x2="306.843" y2="321.779" gradientUnits="userSpaceOnUse"><stop stop-color="#E1473D"/><stop offset="1" stop-color="#E9605A"/></linearGradient><linearGradient id="c" x1="339.237" y1="295.591" x2="443.049" y2="295.591" gradientUnits="userSpaceOnUse"><stop stop-color="#6165D7"/><stop offset="1" stop-color="#30ABBA"/></linearGradient><linearGradient id="Q" x1="338.542" y1="327.42" x2="336.715" y2="316.695" gradientUnits="userSpaceOnUse"><stop stop-color="#E1473D"/><stop offset="1" stop-color="#E9605A"/></linearGradient><linearGradient id="R" x1="335.709" y1="310.401" x2="341.888" y2="341.009" gradientUnits="userSpaceOnUse"><stop stop-color="#E1473D"/><stop offset="1" stop-color="#E9605A"/></linearGradient><linearGradient id="S" x1="321.445" y1="296.939" x2="321.263" y2="319.322" gradientUnits="userSpaceOnUse"><stop stop-color="#E1473D"/><stop offset="1" stop-color="#E9605A"/></linearGradient><linearGradient id="T" x1="308.509" y1="312.507" x2="298.263" y2="254.313" gradientUnits="userSpaceOnUse"><stop stop-color="#FEBBBA"/><stop offset="1" stop-color="#FF928E"/></linearGradient><linearGradient id="U" x1="324.544" y1="313.958" x2="326.695" y2="418.04" gradientUnits="userSpaceOnUse"><stop stop-color="#FF928E"/><stop offset="1" stop-color="#FE7062"/></linearGradient><linearGradient id="V" x1="326.963" y1="326.527" x2="327.028" y2="361.418" gradientUnits="userSpaceOnUse"><stop stop-color="#E1473D"/><stop offset="1" stop-color="#E9605A"/></linearGradient><linearGradient id="W" x1="321.127" y1="354.657" x2="333.728" y2="353.043" gradientUnits="userSpaceOnUse"><stop stop-color="#FF928E"/><stop offset="1" stop-color="#FE7062"/></linearGradient><linearGradient id="X" x1="334.804" y1="290.165" x2="310.197" y2="337.489" gradientUnits="userSpaceOnUse"><stop stop-color="#FEBBBA"/><stop offset="1" stop-color="#FF928E"/></linearGradient><linearGradient id="Y" x1="384.36" y1="152.045" x2="356.906" y2="206.179" gradientUnits="userSpaceOnUse"><stop stop-color="#09005D"/><stop offset="1" stop-color="#1A0F91"/></linearGradient><linearGradient id="Z" x1="393.155" y1="179.683" x2="237.286" y2="355.973" gradientUnits="userSpaceOnUse"><stop stop-color="#4042E2"/><stop offset="1" stop-color="#4F52FF"/></linearGradient><linearGradient id="aa" x1="104.049" y1="469.947" x2="125.227" y2="469.947" gradientUnits="userSpaceOnUse"><stop stop-color="#09005D"/><stop offset="1" stop-color="#1A0F91"/></linearGradient><linearGradient id="ab" x1="157.065" y1="444.964" x2="80.022" y2="505.459" gradientUnits="userSpaceOnUse"><stop stop-color="#4042E2"/><stop offset="1" stop-color="#4F52FF"/></linearGradient><linearGradient id="ac" x1="109.939" y1="445.838" x2="105.892" y2="481.141" gradientUnits="userSpaceOnUse"><stop stop-color="#A22B25"/><stop offset="1" stop-color="#C0423C"/></linearGradient><linearGradient id="ad" x1="105.272" y1="458.76" x2="114.334" y2="461.95" gradientUnits="userSpaceOnUse"><stop stop-color="#FEBBBA"/><stop offset="1" stop-color="#FF928E"/></linearGradient><linearGradient id="ae" x1="170.752" y1="462.369" x2="93.709" y2="522.863" gradientUnits="userSpaceOnUse"><stop stop-color="#4042E2"/><stop offset="1" stop-color="#4F52FF"/></linearGradient><linearGradient id="af" x1="136.297" y1="470.485" x2="166.782" y2="470.485" gradientUnits="userSpaceOnUse"><stop stop-color="#09005D"/><stop offset="1" stop-color="#1A0F91"/></linearGradient><linearGradient id="ag" x1="142.367" y1="449.578" x2="140.551" y2="485.065" gradientUnits="userSpaceOnUse"><stop stop-color="#A22B25"/><stop offset="1" stop-color="#C0423C"/></linearGradient><linearGradient id="ah" x1="138.599" y1="456.661" x2="148.399" y2="459.72" gradientUnits="userSpaceOnUse"><stop stop-color="#FEBBBA"/><stop offset="1" stop-color="#FF928E"/></linearGradient><linearGradient id="ai" x1="108.822" y1="486.209" x2="138.771" y2="267.038" gradientUnits="userSpaceOnUse"><stop stop-color="#4F52FF"/><stop offset="1" stop-color="#4042E2"/></linearGradient><linearGradient id="aj" x1="537.129" y1="-268.712" x2="427.677" y2="-122.832" gradientUnits="userSpaceOnUse"><stop stop-color="#FF928E"/><stop offset="1" stop-color="#FE7062"/></linearGradient><linearGradient id="ak" x1="122.208" y1="245.086" x2="143.99" y2="196.079" gradientUnits="userSpaceOnUse"><stop stop-color="#A22B25"/><stop offset="1" stop-color="#C0423C"/></linearGradient><linearGradient id="al" x1="124.419" y1="214.714" x2="150.84" y2="225.311" gradientUnits="userSpaceOnUse"><stop stop-color="#FEBBBA"/><stop offset="1" stop-color="#FF928E"/></linearGradient><linearGradient id="am" x1="114.998" y1="168.36" x2="145.932" y2="215.535" gradientUnits="userSpaceOnUse"><stop stop-color="#A22B25"/><stop offset="1" stop-color="#C0423C"/></linearGradient><linearGradient id="an" x1="129.39" y1="203.351" x2="156.089" y2="214.774" gradientUnits="userSpaceOnUse"><stop stop-color="#FEBBBA"/><stop offset="1" stop-color="#FF928E"/></linearGradient><linearGradient id="ao" x1="117.895" y1="176.61" x2="141.122" y2="203.816" gradientUnits="userSpaceOnUse"><stop stop-color="#010648"/><stop offset="1" stop-color="#251F6A"/></linearGradient><linearGradient id="ap" x1="106.91" y1="173.665" x2="137.844" y2="220.839" gradientUnits="userSpaceOnUse"><stop stop-color="#A22B25"/><stop offset="1" stop-color="#C0423C"/></linearGradient><linearGradient id="aq" x1="127.626" y1="207.898" x2="134.54" y2="210.257" gradientUnits="userSpaceOnUse"><stop stop-color="#FEBBBA"/><stop offset="1" stop-color="#FF928E"/></linearGradient><linearGradient id="ar" x1="290.117" y1="108.869" x2="162.127" y2="238.79" gradientUnits="userSpaceOnUse"><stop stop-color="#FF928E"/><stop offset="1" stop-color="#FE7062"/></linearGradient><linearGradient id="as" x1="212.911" y1="235.58" x2="153.811" y2="264.979" gradientUnits="userSpaceOnUse"><stop stop-color="#A22B25"/><stop offset="1" stop-color="#C0423C"/></linearGradient><linearGradient id="at" x1="158.692" y1="247.526" x2="195.463" y2="275.131" gradientUnits="userSpaceOnUse"><stop stop-color="#FEBBBA"/><stop offset="1" stop-color="#FF928E"/></linearGradient><linearGradient id="au" x1="212.045" y1="228.206" x2="191.83" y2="249.321" gradientUnits="userSpaceOnUse"><stop stop-color="#A22B25"/><stop offset="1" stop-color="#C0423C"/></linearGradient><linearGradient id="av" x1="199.237" y1="236.169" x2="205.924" y2="244.936" gradientUnits="userSpaceOnUse"><stop stop-color="#FEBBBA"/><stop offset="1" stop-color="#FF928E"/></linearGradient><linearGradient id="aw" x1="213.191" y1="235.231" x2="154.091" y2="264.631" gradientUnits="userSpaceOnUse"><stop stop-color="#A22B25"/><stop offset="1" stop-color="#C0423C"/></linearGradient><linearGradient id="ax" x1="197.398" y1="238.066" x2="208.302" y2="254.023" gradientUnits="userSpaceOnUse"><stop stop-color="#FEBBBA"/><stop offset="1" stop-color="#FF928E"/></linearGradient><linearGradient id="ay" x1="237.889" y1="285.114" x2="66.374" y2="254.099" gradientUnits="userSpaceOnUse"><stop stop-color="#A22B25"/><stop offset="1" stop-color="#C0423C"/></linearGradient><linearGradient id="az" x1="138.726" y1="266.218" x2="183.202" y2="315.842" gradientUnits="userSpaceOnUse"><stop stop-color="#FEBBBA"/><stop offset="1" stop-color="#FF928E"/></linearGradient><linearGradient id="aA" x1="176.998" y1="154.426" x2="22.143" y2="446.739" gradientUnits="userSpaceOnUse"><stop stop-color="#E1473D"/><stop offset="1" stop-color="#E9605A"/></linearGradient><linearGradient id="aB" x1="177.538" y1="154.714" x2="22.683" y2="447.026" gradientUnits="userSpaceOnUse"><stop stop-color="#E1473D"/><stop offset="1" stop-color="#E9605A"/></linearGradient><clipPath id="a"><path fill="#fff" transform="translate(.4)" d="M0 0h480.322v480H0z"/></clipPath></defs></svg>