<svg width="476" height="480" fill="none" xmlns="http://www.w3.org/2000/svg"><g clip-path="url(#a)"><path d="M113.899 28.646c-15.907 23.01 2.743 60.324-20.854 77.63C70.07 123.12 41.848 95.511 20.2 110.009c-32.12 21.516-26.253 119.958 20.705 181.123 14.119 18.391 25.92 25.552 31.15 46.355 11.219 44.668-28.216 71.24-20.71 93.336 16.897 49.741 276.794 91.485 381.08-58.012 48.701-69.826 55.994-170.649 12.475-247.221-78.638-138.375-295.31-148.576-331.002-96.944z" fill="#F4F7FA"/><path d="m141.777 60.785 19.934-1.34 1.041 21.183h-32.859l7.149-16.224a6.168 6.168 0 0 1 4.732-3.617l.003-.002z" fill="url(#b)"/><path d="M158.759 62.023a4.6 4.6 0 0 1 4.394-2.75l164.542 6.604a6.168 6.168 0 0 1 5.199 3.271l8.884 16.749-190.376-7.035 7.357-16.84z" fill="url(#c)"/><path d="M99.327 91.796v317.961a15.19 15.19 0 0 0 11.681 14.78l34.443 8.178 37.722-259.61-36.64-100.737-33.955 4.36a15.19 15.19 0 0 0-13.25 15.069z" fill="url(#d)"/><path d="M135.83 85.603v333.686a13.245 13.245 0 0 0 4.221 9.688 13.237 13.237 0 0 0 9.967 3.51l204.776-14.855a13.234 13.234 0 0 0 12.273-13.2V94.602c0-7.08-5.578-12.907-12.653-13.221L149.639 72.38a13.233 13.233 0 0 0-13.809 13.223z" fill="url(#e)"/><path d="M120.3 416.083V88.436c0-5.676 4.278-11.438 9.6-13.934l-6.084.783c-5.417 1.983-9.196 7.172-9.196 13.154v327.646c0 4.083 1.766 7.816 4.634 10.409l8.638 2.053a14.02 14.02 0 0 1-7.592-12.462v-.002z" fill="url(#f)"/><path opacity=".3" d="m354.422 81.381-171.225-7.528.438 6.228c4.602 38.302 40.334 44.416 54.084 87.078 12.601 39.085-12.744 48.373 2.162 82.749 13.971 32.211 40.059 32.891 55.708 73.559 6.867 17.843 3.397 21.76 9.194 40.562 4.959 16.084 14.235 35.07 32.272 54.89l17.742-1.289a13.234 13.234 0 0 0 12.272-13.2V94.602c.007-7.086-5.573-12.911-12.645-13.223l-.002.002z" fill="url(#g)"/><path d="M167.352 119.946v90.236c0 6.408 5.194 11.594 11.595 11.594h151.227c6.406 0 11.593-5.193 11.593-11.594v-83.201a11.604 11.604 0 0 0-11.059-11.583l-151.228-7.034c-6.603-.31-12.128 4.97-12.128 11.582z" fill="url(#h)"/><path d="M336.533 210.184v-83.201a11.604 11.604 0 0 0-11.058-11.583l-148.365-6.901a11.6 11.6 0 0 0-9.76 11.45v90.235c0 6.408 5.193 11.595 11.594 11.595h145.988c6.408.004 11.599-5.187 11.599-11.595h.002z" fill="url(#i)"/><path opacity=".7" d="M282.825 127.752v5.441a4.378 4.378 0 0 0 4.215 4.371l35.599 1.301a4.371 4.371 0 0 0 4.532-4.372v-5.44a4.381 4.381 0 0 0-4.215-4.372l-35.599-1.3a4.372 4.372 0 0 0-4.532 4.371z" fill="#F4F7FA"/><path d="M353.674 97.927c0 3.06-2.119 5.543-4.735 5.543-2.617 0-4.733-2.483-4.733-5.543s2.116-5.543 4.733-5.543c2.616 0 4.735 2.484 4.735 5.543z" fill="url(#j)"/><path d="m283.323 305.504-.177-13.452c-.063-4.688-3.917-8.442-8.605-8.379l-36.68.489c-4.686.063-8.442 3.915-8.379 8.603l.184 14.011c.063 4.737 3.996 8.512 8.731 8.372l36.668-1.046c4.647-.133 8.323-3.961 8.258-8.598z" fill="url(#k)"/><path d="m228.946 251.886.23 17.403c.063 4.686 3.917 8.442 8.606 8.379l36.68-.489c4.688-.063 8.442-3.917 8.379-8.603l-.224-16.921c-.063-4.646-3.847-8.379-8.488-8.379h-36.688a8.493 8.493 0 0 0-6.045 2.531 8.51 8.51 0 0 0-2.45 6.079z" fill="url(#l)"/><path d="M289.813 305.061c.062 4.74 3.996 8.512 8.728 8.375l37.424-1.065a5.92 5.92 0 0 0 5.746-5.884l.063-15.101c0-4.735-3.871-8.554-8.603-8.489l-35.159.464a8.506 8.506 0 0 0-8.379 8.605l.18 13.095z" fill="url(#m)"/><path d="m229.987 330.247.184 13.985a8.517 8.517 0 0 0 5.529 7.845 8.501 8.501 0 0 0 3.335.53l36.664-1.606a8.493 8.493 0 0 0 8.121-8.598l-.18-13.433c-.063-4.739-3.996-8.512-8.731-8.374l-36.668 1.046c-4.647.138-8.317 3.968-8.254 8.605z" fill="url(#n)"/><path d="M167.352 308.438c0 4.783 3.952 8.626 8.735 8.488l38.855-1.104c4.634-.133 8.311-3.964 8.246-8.603l-.189-14.368c-.063-4.688-3.917-8.441-8.602-8.379l-40.593.541a6.5 6.5 0 0 0-6.424 6.492l-.028 16.933z" fill="url(#o)"/><path d="m284.353 382.8-.224-16.91c-.062-4.79-4.077-8.579-8.861-8.372l-36.664 1.603c-4.586.203-8.186 4.011-8.123 8.599l.236 17.603c.063 4.856 4.175 8.668 9.022 8.363l36.652-2.3a8.492 8.492 0 0 0 7.962-8.586z" fill="url(#p)"/><path d="M224.001 368.521a8.496 8.496 0 0 0-5.527-7.844 8.5 8.5 0 0 0-3.334-.53l-41.455 1.812a6.508 6.508 0 0 0-6.228 6.469l-.103 20.763a8.516 8.516 0 0 0 2.682 6.187 8.505 8.505 0 0 0 6.343 2.29l39.907-2.507a8.49 8.49 0 0 0 7.96-8.589l-.245-18.051z" fill="url(#q)"/><path d="m222.685 269.375-.236-17.72a8.492 8.492 0 0 0-8.488-8.379h-38.114a8.502 8.502 0 0 0-8.495 8.495v18.226a8.49 8.49 0 0 0 8.603 8.489l38.348-.513a8.47 8.47 0 0 0 5.973-2.561 8.49 8.49 0 0 0 2.409-6.037z" fill="url(#r)"/><path d="m290.605 365.094.219 16.459c.063 4.854 4.175 8.668 9.024 8.363l33.966-2.134a8.494 8.494 0 0 0 7.96-8.477v-15.822c0-4.837-4.031-8.695-8.862-8.483l-34.187 1.495c-4.583.201-8.176 4.008-8.12 8.599z" fill="url(#s)"/><path d="M341.774 327.435c0-4.786-3.952-8.629-8.736-8.489l-34.669.988a8.494 8.494 0 0 0-8.247 8.605l.173 13.077a8.503 8.503 0 0 0 8.864 8.374l36.864-1.61a5.91 5.91 0 0 0 5.653-5.86l.098-15.085z" fill="url(#t)"/><path d="M289.328 268.497c.063 4.686 3.917 8.442 8.605 8.379l37.985-.505a5.906 5.906 0 0 0 5.832-5.896l.031-18.699a8.504 8.504 0 0 0-8.496-8.493H297.6c-4.735 0-8.554 3.87-8.489 8.603l.217 16.611z" fill="url(#u)"/><path d="M223.5 330.69c-.063-4.74-3.996-8.512-8.731-8.375l-41.023 1.168a6.505 6.505 0 0 0-6.326 6.482l-.063 16.902c0 4.838 4.031 8.696 8.861 8.484l39.355-1.719c4.584-.203 8.184-4.01 8.121-8.598l-.194-14.344z" fill="url(#v)"/><path d="m286.182 305.711-.177-13.452c-.063-4.688-3.917-8.444-8.605-8.379l-36.68.487c-4.688.065-8.442 3.917-8.379 8.605l.184 14.009c.063 4.739 3.996 8.512 8.728 8.374l36.671-1.046a8.497 8.497 0 0 0 8.258-8.598z" fill="url(#w)"/><path d="m231.8 252.093.231 17.404c.063 4.685 3.917 8.442 8.605 8.379l36.68-.49c4.688-.063 8.442-3.917 8.379-8.602l-.223-16.922a8.493 8.493 0 0 0-8.489-8.379h-36.69c-4.739.005-8.556 3.875-8.493 8.61z" fill="url(#x)"/><path d="M292.665 305.268c.062 4.74 3.996 8.512 8.73 8.375l37.422-1.063a5.92 5.92 0 0 0 5.746-5.884l.063-15.103a8.49 8.49 0 0 0-8.603-8.489l-35.157.466c-4.688.063-8.444 3.917-8.381 8.603l.18 13.095z" fill="url(#y)"/><path d="m232.842 330.454.184 13.993c.065 4.79 4.077 8.579 8.863 8.372l36.665-1.603c4.583-.203 8.183-4.01 8.12-8.598l-.18-13.436c-.062-4.739-3.996-8.512-8.728-8.374l-36.671 1.048a8.484 8.484 0 0 0-8.253 8.598z" fill="url(#z)"/><path d="M170.204 308.645c0 4.783 3.952 8.626 8.736 8.488l38.854-1.104a8.492 8.492 0 0 0 8.246-8.605l-.189-14.365a8.496 8.496 0 0 0-8.605-8.38l-40.592.541a6.5 6.5 0 0 0-6.424 6.492l-.026 16.933z" fill="url(#A)"/><path d="m287.208 383.007-.227-16.907a8.506 8.506 0 0 0-5.527-7.844 8.496 8.496 0 0 0-3.334-.53l-36.664 1.605a8.493 8.493 0 0 0-8.12 8.598l.235 17.604c.063 4.854 4.18 8.666 9.024 8.363l36.653-2.302c4.52-.282 8.015-4.059 7.96-8.587z" fill="url(#B)"/><path d="M226.853 368.729a8.5 8.5 0 0 0-8.861-8.375l-41.455 1.811a6.51 6.51 0 0 0-6.228 6.47l-.103 20.762a8.519 8.519 0 0 0 2.681 6.188 8.514 8.514 0 0 0 6.344 2.291l39.907-2.51a8.489 8.489 0 0 0 7.96-8.586l-.245-18.051z" fill="url(#C)"/><path d="m225.544 269.583-.236-17.721a8.492 8.492 0 0 0-8.488-8.379h-38.113a8.494 8.494 0 0 0-8.494 8.494v18.226c0 4.734 3.871 8.553 8.603 8.488l38.349-.51c4.688-.058 8.437-3.905 8.379-8.598z" fill="url(#D)"/><path d="m293.464 365.301.219 16.46c.063 4.853 4.175 8.665 9.022 8.36l33.968-2.132a8.494 8.494 0 0 0 7.96-8.479v-15.822c0-4.835-4.034-8.696-8.864-8.481l-34.185 1.496a8.487 8.487 0 0 0-8.12 8.598z" fill="url(#E)"/><path d="M344.626 327.642c0-4.786-3.95-8.628-8.736-8.488l-34.667.988a8.493 8.493 0 0 0-8.249 8.605l.173 13.076a8.493 8.493 0 0 0 5.529 7.845 8.5 8.5 0 0 0 3.335.529l36.864-1.61a5.909 5.909 0 0 0 5.653-5.86l.098-15.085z" fill="url(#F)"/><path d="M292.182 268.697c.063 4.686 3.915 8.442 8.603 8.379l37.988-.505a5.905 5.905 0 0 0 5.829-5.895l.031-18.699a8.503 8.503 0 0 0-8.496-8.494h-35.685a8.49 8.49 0 0 0-8.489 8.603l.219 16.611z" fill="url(#G)"/><path d="M226.352 330.897c-.063-4.739-3.996-8.512-8.731-8.374l-41.023 1.167a6.507 6.507 0 0 0-6.326 6.482l-.063 16.903c0 4.835 4.031 8.696 8.863 8.481l39.356-1.719a8.493 8.493 0 0 0 8.12-8.598l-.196-14.342z" fill="url(#H)"/><path opacity=".09" d="M336.137 243.49h-35.685a8.489 8.489 0 0 0-8.489 8.603l.219 16.609c.063 4.688 3.915 8.444 8.603 8.379l37.988-.506a5.9 5.9 0 0 0 5.829-5.895l.031-18.696a8.503 8.503 0 0 0-8.496-8.494zm-.114 39.607-35.156.466c-4.689.063-8.445 3.917-8.382 8.603l.173 13.098c.065 4.737 3.998 8.511 8.73 8.372l37.424-1.063a5.918 5.918 0 0 0 5.746-5.883l.063-15.104c.005-4.728-3.866-8.547-8.598-8.489zm8.603 96.415v-15.824c0-4.835-4.031-8.695-8.862-8.481l-32.989 1.442 2.006 7.38c2.412 7.822 5.851 16.327 10.814 25.288l21.071-1.323a8.507 8.507 0 0 0 7.96-8.482zm-43.112-29.326.497.007 36.864-1.613a5.909 5.909 0 0 0 5.653-5.86l.098-15.073c0-4.784-3.952-8.627-8.736-8.489l-34.669.99a8.48 8.48 0 0 0-5.905 2.633l.271.69c4.779 12.401 4.56 18.082 5.927 26.715zm-24.119-66.306-9.749.126c6.338 5.769 12.734 12.009 18.52 20.836l-.168-12.59a8.477 8.477 0 0 0-5.345-7.772 8.487 8.487 0 0 0-3.258-.6zm8.293-15.096-.223-16.922c-.063-4.646-3.85-8.379-8.489-8.379h-36.687a8.49 8.49 0 0 0-2.687.443l2.279 5.981c5.485 12.658 12.848 20.445 20.714 27.703l16.714-.224a8.47 8.47 0 0 0 5.974-2.563 8.474 8.474 0 0 0 2.405-6.039z" fill="#F4F7FA"/><path opacity=".7" d="M309.975 205.561H200.749a5.73 5.73 0 0 1-5.727-5.727v-42.296a5.728 5.728 0 0 1 3.672-5.348 5.747 5.747 0 0 1 2.251-.38l109.226 3.67a5.733 5.733 0 0 1 5.538 5.728v38.619a5.74 5.74 0 0 1-5.734 5.734z" fill="#F4F7FA"/><path opacity=".3" d="M330.179 221.786c6.408 0 11.595-5.194 11.595-11.595v-83.208a11.606 11.606 0 0 0-11.059-11.583l-134.913-6.275c12.981 16.868 32.54 28.975 41.91 58.036 8.386 26.013-.035 38.831-2.209 54.625h94.676z" fill="#F4F7FA"/><path d="M392.735 307.624c-.333 2.824-2.628 5.014-5.107 4.87l-174.622-9.919c-3.307-.196-6.688-3.412-6.299-6.695l14.356-121.328c.392-3.283 4.516-5.597 7.783-5.073l172.72 24.599c2.449.392 4.169 3.025 3.836 5.849l-12.664 107.697h-.003z" fill="#97A6B7"/><path d="M395.92 308.202c-.333 2.84-2.64 5.042-5.128 4.893l-176.454-10.341c-3.325-.196-5.734-3.052-5.343-6.354l14.424-121.913a5.774 5.774 0 0 1 6.694-5.038l174.674 24.674c2.462.396 4.194 3.036 3.853 5.878l-12.722 108.203.002-.002z" fill="#fff"/><path d="m269.844 266.794-30.797-2.761c-1.175-.103-1.997-1.058-1.818-2.116l1.144-6.897c.177-1.058 1.282-1.827 2.456-1.713l30.758 2.985c1.12.11 1.896 1.042 1.731 2.076l-1.121 6.734c-.168 1.03-1.226 1.79-2.353 1.692zm38.376 3.439-29.147-2.612c-1.109-.098-1.88-1.023-1.712-2.053l1.116-6.711c.172-1.029 1.218-1.784 2.327-1.675l29.113 2.824c1.064.105 1.794 1.007 1.628 2.013l-1.088 6.55c-.165 1.014-1.172 1.755-2.237 1.664zm36.366 3.255-27.628-2.472c-1.053-.093-1.778-.99-1.617-1.992l1.088-6.527c.166-1 1.161-1.736 2.214-1.633l27.593 2.679a1.686 1.686 0 0 1 1.201.637 1.674 1.674 0 0 1 .334 1.318l-1.057 6.385c-.161.971-1.117 1.696-2.128 1.605zm34.514 3.092-26.221-2.351c-1-.093-1.685-.96-1.524-1.934l1.058-6.359c.161-.971 1.111-1.691 2.111-1.594l26.19 2.543c.96.09 1.61.948 1.457 1.903l-1.037 6.217a1.937 1.937 0 0 1-2.034 1.575z" fill="#D8DEE8"/><path d="m258.915 236.955-14.681-1.638c-2.699-.301-4.654-2.79-4.325-5.534l1.766-14.948c.322-2.743 2.801-4.693 5.492-4.343l14.654 1.92c2.621.345 4.497 2.824 4.18 5.515l-1.736 14.67c-.317 2.685-2.721 4.647-5.35 4.353v.005z" fill="url(#I)"/><path d="m258.06 235.426-12.613-1.421c-2.495-.282-4.285-2.57-3.986-5.108l1.519-12.825c.298-2.537 2.577-4.331 5.061-4.007l12.589 1.633c2.433.317 4.164 2.6 3.871 5.089l-1.489 12.617c-.298 2.491-2.514 4.297-4.952 4.022zm-10.089-22.73c-2.144-.275-4.099 1.272-4.357 3.451l-1.52 12.82c-.258 2.181 1.282 4.152 3.428 4.395l12.613 1.43c2.099.238 4.008-1.316 4.262-3.462l1.493-12.625c.254-2.146-1.235-4.112-3.329-4.382l-12.59-1.627z" fill="#fff"/><path d="m263.972 220.627-20.899-2.612.075-.638 20.898 2.621-.074.629zM263.415 225.372l-20.917-2.538.079-.631 20.912 2.542-.074.627zM262.851 230.116l-20.924-2.456.074-.639 20.925 2.468-.075.627z" fill="#fff"/><path d="m255.01 232.441-5.848-.673a2.75 2.75 0 0 1-2.386-3.078l1.323-11.157c.177-1.519 1.547-2.605 3.036-2.416l5.837.748a2.778 2.778 0 0 1 2.354 3.083l-1.312 11.065c-.173 1.501-1.524 2.601-3.004 2.428z" fill="#FEC045"/><path d="m254.978 232.758-5.851-.673c-1.666-.189-2.864-1.732-2.661-3.428l1.321-11.163c.203-1.697 1.726-2.911 3.388-2.692l5.837.748c1.645.212 2.824 1.755 2.623 3.433l-1.311 11.065c-.201 1.68-1.701 2.901-3.346 2.71zm-3.882-17.322a2.425 2.425 0 0 0-2.694 2.139l-1.316 11.157c-.161 1.347.787 2.57 2.118 2.719l5.848.673c1.31.149 2.5-.818 2.656-2.15l1.312-11.066a2.447 2.447 0 0 0-2.083-2.726l-5.841-.746z" fill="#fff"/><path opacity=".3" d="M280.501 276.885c-15.443.616-25.3-.051-36.083-4.685-15.057-6.471-24.518-17.455-29.642-24.646l-5.781 48.846c-.391 3.302 2.025 6.161 5.343 6.354l176.454 10.341c2.488.145 4.795-2.057 5.129-4.893l2.031-17.173c-21.97-18.307-40.977-22.085-54.701-21.924-16.884.196-27.146 6.366-62.75 7.78z" fill="#D8DEE8"/><path d="m276.475 290.756-42.035-2.977a1.43 1.43 0 0 1-1.319-1.61l.806-6.804a1.588 1.588 0 0 1 1.669-1.387l41.995 3.295c.764.058 1.317.767 1.223 1.559l-.775 6.573c-.091.799-.8 1.41-1.564 1.351zm75.19 5.523-51.369-3.64c-.753-.053-1.301-.748-1.203-1.542l.772-6.527c.093-.794.787-1.393 1.542-1.335l51.323 4.026c.697.052 1.183.718 1.097 1.478l-.741 6.251c-.086.76-.724 1.34-1.421 1.289zm31.752-63.293c6.455-4.031 8.419-12.533 4.388-18.988-4.031-6.454-12.534-8.418-18.988-4.385-6.455 4.034-8.419 12.534-4.388 18.988 4.031 6.455 12.534 8.419 18.988 4.385zm-109.272-5.37a2.543 2.543 0 0 1-3.467-.392 2.294 2.294 0 0 1 .391-3.334 2.54 2.54 0 0 1 3.463.426 2.289 2.289 0 0 1 .228 2.612 2.287 2.287 0 0 1-.615.688zm6.534 10.047a.87.87 0 0 1-.604-.31.872.872 0 0 1 .145-1.242 13.284 13.284 0 0 0 2.19-18.652c-.31-.396-.243-.956.144-1.242a.911.911 0 0 1 1.254.188 15.054 15.054 0 0 1-2.472 21.058.93.93 0 0 1-.657.2zm-2.254-2.715a.89.89 0 0 1-.61-.317.876.876 0 0 1 .149-1.253c4.301-3.381 5.021-9.495 1.617-13.785a.874.874 0 0 1 .149-1.254.935.935 0 0 1 1.277.184c3.973 5.057 3.134 12.233-1.904 16.225a.967.967 0 0 1-.678.2z" fill="#D8DEE8"/><path d="M276.135 232.187a.915.915 0 0 1-.62-.329c-.324-.384-.254-.948.149-1.265 2.789-2.157 3.248-6.095 1.035-8.84a.879.879 0 0 1 .149-1.265.955.955 0 0 1 1.3.172 7.972 7.972 0 0 1 1.731 5.942c-.247 2.122-1.335 4.031-3.059 5.378a.896.896 0 0 1-.685.207z" fill="#D8DEE8"/><path d="m398.435 453.386 7.062 3.451 1.203-3.193-4.756-3.991-3.509 3.733z" fill="url(#J)"/><path d="M405.607 454.068a1.05 1.05 0 0 1 1.116-.822c.517.051 1.081.219 1.482.645.771.811.547 2.058.121 4.301-.403 2.135-.62 3.216-1.552 3.854-.932.639-2.048.511-2.847.42-.737-.082-1.904-.215-2.256-1.018-.137-.322-.184-.818.065-1.196.494-.755 1.678-.289 2.386-1.072.115-.125.196-.263.432-1.269l1.053-3.843z" fill="#26264F"/><path d="M385.838 374.75c-2.328 1.633-17.361 12.554-19.156 32.206-1.374 15.069 5.884 25.99 8.018 29.101 8.689 12.664 20.957 16.984 24.769 18.163l3.836-3.67c-11.409-7.067-17.765-20.099-16.276-33.379 1.461-13.032 10.238-24.172 22.597-28.704.65-1.461 2.997-7.149.494-11.56-3.225-5.694-13.82-8.045-24.282-2.157z" fill="url(#K)"/><path d="m457.4 473.951.674 1.077c0 1.84.03 3.392-1.685 2.726-1.673-.65-6.056-1.554-7.028-1.95-2.064-.839-4.049-2.279-4.222-3.239-.172-.96 5.711 0 7.547.042 1.836.042 4.714 1.344 4.714 1.344z" fill="#26264F"/><path d="m454.83 465.6 2.358 8.908s-1.512.892-4.141-1.454l-3.877-7.459h5.66v.005z" fill="url(#L)"/><path opacity=".3" d="M409.626 388.46c.65-1.461 2.997-7.149.494-11.56-3.052-5.389-12.739-7.771-22.641-2.989 2.26 6.457 1.547 10.005.016 12.07-2.347 3.169-6.727 3.043-7.596 6.442-.984 3.847 4.008 6.383 2.973 10.076-.932 3.313-5.28 2.439-8.092 6.275-3.377 4.606-2.496 13.204 1.652 17.839 3.208 3.584 6.75 2.985 8.751 7.104 1.578 3.232-.235 4.381 1.156 7.268 2.468 5.108 9.232 3.784 13.051 9.083.662.92 1.121 1.885 1.449 2.845l2.473-2.363c-11.411-7.067-17.765-20.099-16.276-33.381 1.454-13.037 10.231-24.177 22.59-28.709z" fill="url(#M)"/><path d="M385.838 376.665c4.947 12.186 17.036 35.277 27.388 50.672a231.867 231.867 0 0 0 37.025 42.709c.76.207 1.911.433 3.302.328a9.817 9.817 0 0 0 3.964-1.155 96.739 96.739 0 0 0-4.791-15.363c-6.874-16.902-14.447-21.588-21.47-33.034-14.884-24.258-6.228-44.56-16.271-48.424-4.035-1.542-16.038-8.922-29.147 4.267z" fill="url(#N)"/><path d="m398.721 274.001.455-3.698c1.512.752 19.421 10.07 22.115 30.452 2.006 15.171-5.229 30.408-18.497 38.975-25.801-18.696-29.911-24.608-28.849-26.535 1.622-2.938 14.822 4.187 24.443-2.754 4.993-3.602 6.529-9.192 7.098-11.28 3.541-12.904-5.712-23.946-6.765-25.16z" fill="#FC9D8A"/><path d="m286.499 307.708 5.136-3.71c4.515 3.272 11.755 7.643 21.532 10.19 11.32 2.952 17.991.715 33.938-.401 23.678-1.664 35.513-2.496 44.682 2.64 15.281 8.551 21.705 27.169 23.562 32.563 2.006 5.813 3.066 11.865 4.187 18.277 1.454 8.321 2.155 12.52.909 14.526-4.423 7.144-26.225 5.981-40.53-5.094-11.627-9.008-8.603-17.042-20.57-26.248-10.732-8.26-18.916-6.224-32.402-10.791-10.963-3.714-25.704-11.893-40.444-31.952z" fill="#FC9D8A"/><path d="M400.275 261.024s2.829 4.223 2.209 8.184c-.619 3.961-3.763 4.793-3.763 4.793l1.554-12.977z" fill="url(#O)"/><path d="m290.311 304.952-2.91-3.645-4.129-3.849s-1.265 1.088 1.456 3.842c.518.525.627 1.14.552 1.72-.144 1.151-1.225 1.955-2.388 1.915l-6.836.052s3.921 3.716 10.436 2.709l3.819-2.744z" fill="url(#P)"/><path d="M363.588 312.515c-.732.03-.846 1.065-.137 1.249 4.376 1.151 11.168 2.731 13.475 2.185a92.514 92.514 0 0 0 4.716-1.414c1.016-.438-1.601-1.139-2.549-1.72l-1.042-.207a1.826 1.826 0 0 1-.816-1.978l.655-2.659-4.203-1.114-1.03 3.072a3.426 3.426 0 0 1-3.111 2.339l-5.958.247z" fill="url(#Q)"/><path d="M374.199 309.581c-.328-.177-2.991-.505-3.36-1.938-.501-1.944 1.249-4.313 1.468-4.693.914-1.592 1.137-1.811 1.564-2.081l.587-.345.068-.023c.375-.126 1.645-.133 1.903-.075.818.196 1.617 3.561 1.261 8.288l.086.546c.075.482-3.6.494-3.577.321z" fill="url(#R)"/><path d="M371.692 300.224c.305.892 1.524 1.812 2.069 2.227.082.056.313.263.518.592a.794.794 0 0 1 .081.172c.298.932-1.195 1.983-.92 2.405.2.303 1.207-.077 1.316.189.105.247-.736.729-.615 1.03.093.223.604.035.92.38.157.172.11.305.266.822.091.294.217.615.315.792.489.874 1.915 1.221 2.197.881.082-.093.019-.179.105-.494 0 0 .079-.301.293-.638.31-.49 1.035-.823 1.764-1.329 1.363-.932 1.743-1.749 1.857-2.024l.035-.087.054-.139c.303-.995-.478-2.07-.904-2.571a13.771 13.771 0 0 0-3.129-2.695c-.408-.254-4.372-2.703-5.826-1.496-.512.435-.603 1.379-.396 1.983z" fill="#26264F"/><path d="M373.976 305.292c.368-.483.988-.005.983.633-.005.639-.646 1.289-1.242 1.149-.597-.14-.242-1.125.259-1.782z" fill="url(#S)"/><path opacity=".3" d="M402.356 377.613c-3.777-4.583 1.794-13.631-3.525-18.939-3.859-3.854-8.223-.524-13.652-4.406-7.212-5.159-3.113-14.861-9.691-17.616-6.953-2.91-13.161 3.859-22.022.443-5.844-2.253-4.802-5.837-10.572-9.248-10.005-5.916-18.908 1.433-32.591-.443a33.998 33.998 0 0 1-7.701-1.994c8.983 7.775 17.42 11.909 24.345 14.251 13.48 4.567 21.67 2.537 32.403 10.788 11.962 9.208 8.943 17.25 20.572 26.248 14.298 11.078 36.1 12.233 40.527 5.096.518-.834.697-2.045.627-3.765-11.392 3.283-16.557 2.207-18.72-.415z" fill="url(#T)"/></g><defs><linearGradient id="y" x1="8053" y1="3780.54" x2="6186.26" y2="7385.66" gradientUnits="userSpaceOnUse"><stop stop-color="#AA80F9"/><stop offset=".996" stop-color="#6165D7"/></linearGradient><linearGradient id="b" x1="1845.23" y1="501.554" x2="2075.97" y2="819.286" gradientUnits="userSpaceOnUse"><stop stop-color="#AA80F9"/><stop offset=".996" stop-color="#6165D7"/></linearGradient><linearGradient id="d" x1="-2629.62" y1="18145.9" x2="5363.63" y2="19347.1" gradientUnits="userSpaceOnUse"><stop stop-color="#010648"/><stop offset=".996" stop-color="#3C3B6B"/></linearGradient><linearGradient id="e" x1="13609.5" y1="39091.4" x2="36557.7" y2="39091.4" gradientUnits="userSpaceOnUse"><stop stop-color="#40447E"/><stop offset=".996" stop-color="#010648"/></linearGradient><linearGradient id="f" x1="882.753" y1="61536.9" x2="1066.55" y2="61536.5" gradientUnits="userSpaceOnUse"><stop stop-color="#30ABBA"/><stop offset="1" stop-color="#6F6CFF"/></linearGradient><linearGradient id="g" x1="14634.8" y1="36561.2" x2="29144.8" y2="36561.2" gradientUnits="userSpaceOnUse"><stop stop-color="#40447E"/><stop offset=".996" stop-color="#3C3B6B"/></linearGradient><linearGradient id="h" x1="24355.5" y1="7711.51" x2="17465.8" y2="9081.59" gradientUnits="userSpaceOnUse"><stop stop-color="#FF9085"/><stop offset="1" stop-color="#FB6FBB"/></linearGradient><linearGradient id="i" x1="14380.1" y1="10516.6" x2="16992.2" y2="3303.58" gradientUnits="userSpaceOnUse"><stop stop-color="#30ABBA"/><stop offset="1" stop-color="#6F6CFF"/></linearGradient><linearGradient id="j" x1="1748.94" y1="581.114" x2="1787.82" y2="546.028" gradientUnits="userSpaceOnUse"><stop stop-color="#30ABBA"/><stop offset="1" stop-color="#6F6CFF"/></linearGradient><linearGradient id="k" x1="6892.36" y1="5791.49" x2="6950.98" y2="6130.92" gradientUnits="userSpaceOnUse"><stop stop-color="#AA80F9"/><stop offset=".996" stop-color="#6165D7"/></linearGradient><linearGradient id="l" x1="7132.18" y1="6216.79" x2="7201.7" y2="6585.6" gradientUnits="userSpaceOnUse"><stop stop-color="#AA80F9"/><stop offset=".996" stop-color="#6165D7"/></linearGradient><linearGradient id="m" x1="7971.59" y1="5413.98" x2="8028.59" y2="5743.29" gradientUnits="userSpaceOnUse"><stop stop-color="#AA80F9"/><stop offset=".996" stop-color="#6165D7"/></linearGradient><linearGradient id="n" x1="6668.67" y1="5962.54" x2="6729.31" y2="6307.48" gradientUnits="userSpaceOnUse"><stop stop-color="#AA80F9"/><stop offset=".996" stop-color="#6165D7"/></linearGradient><linearGradient id="o" x1="5719" y1="6196.69" x2="5779.12" y2="6546.79" gradientUnits="userSpaceOnUse"><stop stop-color="#AA80F9"/><stop offset=".996" stop-color="#6165D7"/></linearGradient><linearGradient id="p" x1="6439.79" y1="6780.76" x2="6516.56" y2="7167.44" gradientUnits="userSpaceOnUse"><stop stop-color="#AA80F9"/><stop offset=".996" stop-color="#6165D7"/></linearGradient><linearGradient id="q" x1="5316.28" y1="7297.96" x2="5394.58" y2="7699.6" gradientUnits="userSpaceOnUse"><stop stop-color="#AA80F9"/><stop offset=".996" stop-color="#6165D7"/></linearGradient><linearGradient id="r" x1="5919.81" y1="6609.79" x2="5990.8" y2="6987.43" gradientUnits="userSpaceOnUse"><stop stop-color="#AA80F9"/><stop offset=".996" stop-color="#6165D7"/></linearGradient><linearGradient id="s" x1="7396.32" y1="6312.53" x2="7471.55" y2="6685.37" gradientUnits="userSpaceOnUse"><stop stop-color="#AA80F9"/><stop offset=".996" stop-color="#6165D7"/></linearGradient><linearGradient id="t" x1="7686.33" y1="5574.1" x2="7745.71" y2="5908.4" gradientUnits="userSpaceOnUse"><stop stop-color="#AA80F9"/><stop offset=".996" stop-color="#6165D7"/></linearGradient><linearGradient id="u" x1="8277.94" y1="5843.8" x2="8345.84" y2="6204.06" gradientUnits="userSpaceOnUse"><stop stop-color="#AA80F9"/><stop offset=".996" stop-color="#6165D7"/></linearGradient><linearGradient id="v" x1="5523.85" y1="6384.53" x2="5585.59" y2="6740.8" gradientUnits="userSpaceOnUse"><stop stop-color="#AA80F9"/><stop offset=".996" stop-color="#6165D7"/></linearGradient><linearGradient id="w" x1="5809.02" y1="4515.47" x2="5970.68" y2="3930.03" gradientUnits="userSpaceOnUse"><stop stop-color="#30ABBA"/><stop offset="1" stop-color="#6F6CFF"/></linearGradient><linearGradient id="x" x1="7036.15" y1="3495.1" x2="4833.17" y2="7400.48" gradientUnits="userSpaceOnUse"><stop stop-color="#AA80F9"/><stop offset=".996" stop-color="#6165D7"/></linearGradient><linearGradient id="c" x1="15132.8" y1="1020.19" x2="15140" y2="569.528" gradientUnits="userSpaceOnUse"><stop stop-color="#30ABBA"/><stop offset="1" stop-color="#6F6CFF"/></linearGradient><linearGradient id="z" x1="5820.01" y1="5139.86" x2="5992.29" y2="4537.12" gradientUnits="userSpaceOnUse"><stop stop-color="#30ABBA"/><stop offset="1" stop-color="#6F6CFF"/></linearGradient><linearGradient id="A" x1="4472.68" y1="4671.66" x2="4642.81" y2="4048.25" gradientUnits="userSpaceOnUse"><stop stop-color="#30ABBA"/><stop offset="1" stop-color="#6F6CFF"/></linearGradient><linearGradient id="B" x1="5836.27" y1="6438.35" x2="6104.31" y2="5703.17" gradientUnits="userSpaceOnUse"><stop stop-color="#30ABBA"/><stop offset="1" stop-color="#6F6CFF"/></linearGradient><linearGradient id="C" x1="4558.14" y1="6730.53" x2="4838.7" y2="5932.99" gradientUnits="userSpaceOnUse"><stop stop-color="#30ABBA"/><stop offset="1" stop-color="#6F6CFF"/></linearGradient><linearGradient id="D" x1="4431.71" y1="4418.52" x2="4664.56" y2="3706.51" gradientUnits="userSpaceOnUse"><stop stop-color="#30ABBA"/><stop offset="1" stop-color="#6F6CFF"/></linearGradient><linearGradient id="E" x1="6925.68" y1="6169.78" x2="7181.69" y2="5489.98" gradientUnits="userSpaceOnUse"><stop stop-color="#30ABBA"/><stop offset="1" stop-color="#6F6CFF"/></linearGradient><linearGradient id="F" x1="6978.66" y1="4958.55" x2="7143.66" y2="4393.49" gradientUnits="userSpaceOnUse"><stop stop-color="#30ABBA"/><stop offset="1" stop-color="#6F6CFF"/></linearGradient><linearGradient id="G" x1="7701.35" y1="3847.96" x2="5550.12" y2="7663.49" gradientUnits="userSpaceOnUse"><stop stop-color="#AA80F9"/><stop offset=".996" stop-color="#6165D7"/></linearGradient><linearGradient id="H" x1="4513.42" y1="5333.41" x2="4692.54" y2="4688.86" gradientUnits="userSpaceOnUse"><stop stop-color="#30ABBA"/><stop offset="1" stop-color="#6F6CFF"/></linearGradient><linearGradient id="I" x1="2556.77" y1="2375.76" x2="3715.1" y2="3212.69" gradientUnits="userSpaceOnUse"><stop stop-color="#F57E53"/><stop offset=".005" stop-color="#F58152"/><stop offset=".042" stop-color="#F99A4D"/><stop offset=".084" stop-color="#FCAD49"/><stop offset=".133" stop-color="#FEBA46"/><stop offset=".196" stop-color="#FFC244"/><stop offset=".318" stop-color="#FFC444"/><stop offset=".455" stop-color="#FDB946"/><stop offset=".694" stop-color="#F99C4C"/><stop offset=".996" stop-color="#F36F56"/></linearGradient><linearGradient id="J" x1="1811.47" y1="1847.01" x2="1840.8" y2="1847.01" gradientUnits="userSpaceOnUse"><stop stop-color="#FFC444"/><stop offset=".996" stop-color="#F36F56"/></linearGradient><linearGradient id="K" x1="7962.16" y1="16972.7" x2="7763.48" y2="15869.6" gradientUnits="userSpaceOnUse"><stop stop-color="#40447E"/><stop offset=".996" stop-color="#3C3B6B"/></linearGradient><linearGradient id="L" x1="1994.57" y1="2297.48" x2="2022.16" y2="2297.48" gradientUnits="userSpaceOnUse"><stop stop-color="#FFC444"/><stop offset=".996" stop-color="#F36F56"/></linearGradient><linearGradient id="M" x1="6964.15" y1="16699.1" x2="6742.93" y2="15623.9" gradientUnits="userSpaceOnUse"><stop stop-color="#40447E"/><stop offset=".996" stop-color="#3C3B6B"/></linearGradient><linearGradient id="N" x1="12253.2" y1="18641.6" x2="14458.2" y2="18641.6" gradientUnits="userSpaceOnUse"><stop stop-color="#40447E"/><stop offset=".996" stop-color="#3C3B6B"/></linearGradient><linearGradient id="O" x1="1059.12" y1="1714.38" x2="1111.26" y2="1852.05" gradientUnits="userSpaceOnUse"><stop stop-color="#FFC444"/><stop offset=".996" stop-color="#F36F56"/></linearGradient><linearGradient id="P" x1="1998.44" y1="1633.07" x2="2026.79" y2="1779.98" gradientUnits="userSpaceOnUse"><stop stop-color="#FFC444"/><stop offset=".996" stop-color="#F36F56"/></linearGradient><linearGradient id="Q" x1="3306.17" y1="1537.01" x2="3459.43" y2="1537.01" gradientUnits="userSpaceOnUse"><stop stop-color="#FFC444"/><stop offset=".996" stop-color="#F36F56"/></linearGradient><linearGradient id="R" x1="1493.03" y1="1511.8" x2="1526.39" y2="1522.29" gradientUnits="userSpaceOnUse"><stop stop-color="#FFC444"/><stop offset=".996" stop-color="#F36F56"/></linearGradient><linearGradient id="S" x1="621.281" y1="566.777" x2="628.621" y2="569.149" gradientUnits="userSpaceOnUse"><stop stop-color="#FFC444"/><stop offset=".996" stop-color="#F36F56"/></linearGradient><linearGradient id="T" x1="19386.3" y1="7962.92" x2="19107.6" y2="10383.7" gradientUnits="userSpaceOnUse"><stop stop-color="#E38C7A"/><stop offset=".996" stop-color="#F36F56"/></linearGradient><clipPath id="a"><path fill="#fff" transform="translate(.06)" d="M0 0h475.34v480H0z"/></clipPath></defs></svg>