<svg width="493" height="480" fill="none" xmlns="http://www.w3.org/2000/svg"><g clip-path="url(#a)"><path d="M334.106 10.213C297.308 2.139 259.043-1.73 221.635.736c-33.161 2.185-70.744 8.15-97.426 29.516-12.714 10.181-27.881 28.48-32.04 44.62 0 0-21.891 84.958-65.682 103.162-43.791 18.204-74.19 328.904 257.859 298.565 0 0 195.027-7.95 206.766-236.968 2.837-55.323 1.252-116.146-32.734-162.4-26.036-35.445-62.523-51.207-104.452-62.235a486.383 486.383 0 0 0-19.82-4.783z" fill="#F4F7FA"/><path d="M389.292 83.665 84.542 75.35l-.383-.118c-4.933-.135-9.414 2.048-12.125 5.606-1.802 2.291-2.977 5.08-2.977 8.232v237.993c0 8.081 6.788 14.386 15.01 14.082l304.88-11.228c7.026-.261 12.774-6.494 12.774-13.925V97.107c-.007-7.432-5.403-13.247-12.429-13.442z" fill="url(#b)"/><path d="M406.57 315.992c0 7.432-5.657 13.664-12.681 13.925l-304.67 11.228c-8.227.304-14.773-6.001-14.773-14.082V89.34c0-8.08 6.556-14.446 14.783-14.216l304.726 8.423c7.023.195 12.615 6.375 12.615 13.806v218.639z" fill="url(#c)"/><path d="M397.404 308.469c0 7.019-5.321 12.902-11.976 13.129L98.19 331.531c-7.716.265-14.04-5.676-14.04-13.274V95.725c0-7.598 6.346-13.594 14.067-13.394l287.175 7.453c6.652.174 12.012 6.001 12.012 13.025v205.66z" fill="url(#d)"/><path d="M406.57 97.117v10.381l-332.124-7.127V89.085c0-8.08 6.944-14.164 15.167-13.935l304.643 8.423c7.024.19 12.314 6.112 12.314 13.544z" fill="url(#e)"/><path d="M97.375 88.458c0 3.118-2.571 5.588-5.753 5.514-3.181-.075-5.77-2.67-5.77-5.796 0-3.127 2.584-5.594 5.77-5.514 3.186.08 5.753 2.674 5.753 5.796zm17.458.422c0 3.104-2.549 5.562-5.704 5.492-3.155-.07-5.722-2.653-5.722-5.767 0-3.114 2.562-5.574 5.722-5.492 3.16.082 5.704 2.665 5.704 5.767zm17.319.427c0 3.092-2.528 5.54-5.656 5.47-3.129-.07-5.674-2.643-5.674-5.745 0-3.102 2.54-5.545 5.674-5.47a5.815 5.815 0 0 1 5.656 5.745z" fill="#fff"/><path opacity=".81" d="m391.473 179.291-296.54-.764v-62.063l296.54 5.222v57.605zm0 8.667-296.54 1.592v129.894l296.54-10.924V187.958z" fill="#fff"/><path d="M360.485 412.86s-13.3 6.115-13.515 7.085c-.215.969 8.56-.348 12.147-.217 3.587.13 6.534-.943 6.206-2.466-.328-1.522-1.592-5.354-1.592-5.354l-3.246.952z" fill="url(#f)"/><path d="m359.986 407.925.825 6.023s2.108.748 3.526-.147l.589-6.607-4.94.731z" fill="url(#g)"/><path d="m422.709 407.92 1.551 2.497a3 3 0 0 1 .362 2.335l-2.075 7.185c-.637 1.443-9.257 2.313-9.257 2.313s-.772-1.083 1.013-2.4 2.938-1.526 3.562-3.466c.625-1.939 1.038-7.414 1.038-7.414l3.806-1.05z" fill="url(#h)"/><path d="M416.24 401.584c.566.449 3.352 8.881 3.352 8.881s.903 1.148 2.601-.552l.769-.762-.34-8.298-6.382.731z" fill="url(#i)"/><path d="M352.368 286.931a661.119 661.119 0 0 0 .437 58.341 659.707 659.707 0 0 0 6.578 64.848c1.144.034 2.29.034 3.434 0l2.35-.121a149.386 149.386 0 0 0 4.896-15.864c1.677-6.741 2.685-12.786 3.401-18.57 2.518-20.36-.494-22.126 1.554-37.213 1.811-13.363 4.431-13.889 7.462-32.86 3.288-20.587.796-23.669-.414-24.779-5.162-4.74-17.239-1.474-29.698 6.218z" fill="url(#j)"/><path opacity=".3" d="M382.07 280.713c-4.918-4.518-16.136-1.749-27.972 5.193 13.674 14.769 15.184 24.367 13.56 30.602-1.833 7.046-7.446 9.089-7.402 16.783.048 9.463 8.555 11.949 8.401 21.957-.104 6.619-3.84 6.558-4.701 14.743-1.021 9.679 3.864 12.998 2.301 20.164-.673 3.083-2.605 7.111-8.119 11.272l1.254 8.703a55.38 55.38 0 0 0 3.435 0c.81-.022 1.592-.065 2.352-.119a149.793 149.793 0 0 0 4.896-15.864c1.677-6.744 2.685-12.788 3.401-18.573 2.518-20.357-.497-22.123 1.554-37.213 1.811-13.36 4.43-13.891 7.46-32.859 3.285-20.597.789-23.679-.42-24.789z" fill="url(#k)"/><path d="M360.815 286.606a404.41 404.41 0 0 1 55.34 118.249 7.1 7.1 0 0 0 3.929.6c2.536-.34 4.05-1.97 4.451-2.424 1.826-11.662 1.599-21.53.952-28.653-.414-4.559-1.148-12.152-4.059-21.523-3.268-10.497-5.5-11.081-9.754-22.183-4.414-11.528-3.358-14.408-7.596-28.832a191.388 191.388 0 0 0-9.446-25.285l-33.817 10.051z" fill="url(#l)"/><path d="M440.558 223.622c-.128 3.683-2.231 5.762-5.256 9.728l-.755 1.008c-3.488 4.706-6.983 10.312-10.135 16.404-4.73 9.145-8.703 19.401-10.768 29.423a78.757 78.757 0 0 0-.969 5.69c-1.064 8.109-.746 16.136-6.773 22.796-1.161 1.279-4.81 5.326-8.416 4.566-4.294-.897-3.905-7.632-9.61-10.442-1.869-.926-2.516-.497-10.712-.374-5.123.07-10.304.131-15.857-.504-5.263-.595-12.841-1.461-13.635-4.792-.314-1.327.589-2.502 1.315-3.623 3.215-4.967 2.766-8.455 4.486-15.908 3.22-13.925 10.444-26.245 10.353-27.693a.33.33 0 0 0-.022-.079c-.022-.039-.031-.044-.044-.051-.371-.193-1.924 2.287-3.321 4.339l-.34.483c-5.364 7.436-12.437 7.123-21.065 5.393l-8.808-1.884c-5.529-1.138-11.916-9.749-12.025-13.941-.118-4.393 8.131-2.053 15.836-7.089 22.422-14.656 11.77-22.011 32.49-31.533 5.138-2.362 10.179-3.245 17.42-4.518a101.28 101.28 0 0 1 8.372-1.139c6.535-.622 13.496-.735 17.384-.361 2.554.248 5.208.839 7.83 1.7 11.942 3.927 23.339 13.541 23.025 22.401z" fill="url(#m)"/><path opacity=".3" d="m367.195 244.588-3.374 5.318-.022-.082c-.022-.036-.031-.043-.043-.048-.372-.195-1.925 2.287-3.322 4.34l-.34.475c-5.364 7.436-12.437 7.123-21.064 5.395 4.086-.861 6.729-1.678 9.759-4.134 7.704-6.237 8.864-15.734 13.343-15.613 2.125.048 3.84 2.219 5.063 4.349z" fill="url(#n)"/><path d="M335.178 255.408s-4.89-2.074-7.5-4.301c-2.609-2.226-5.12-.974-5.246.396-.125 1.37 4.277 4.696 6.233 5.379 1.956.682 6.513-1.474 6.513-1.474z" fill="url(#o)"/><path opacity=".3" d="M434.914 282.105c-4.728 2.438-10.288 4.484-15.626 5.801 9.297-7.024 14.478-17.338 12.396-26.166-1.061-4.533-3.932-8.155-7.284-10.978-4.728 9.142-8.703 19.401-10.768 29.42a9.066 9.066 0 0 0-.075.357 59.433 59.433 0 0 0-.894 5.075c-1.062 8.102-.746 16.13-6.774 22.792-1.157 1.278-4.809 5.323-8.415 4.566-4.291-.9-3.903-7.632-9.607-10.442-1.872-.926-2.519-.499-10.715-.374-5.121.07-10.302.13-15.857-.504-4.679-.531-11.182-1.278-13.121-3.78 8.442-.234 14.081-2.583 17.839-4.973 6.421-4.072 7.372-8.204 14.564-10.999 9.342-3.623 13.833.979 18.467-2.74 5.514-4.431.63-12.138 4.754-25.527.357-1.153 1.894-6.141 4.918-11.076 2.933-4.81 7.278-9.564 13.305-10.654 4.019-.722 8.939.151 12.514 2.443 1.488.953 2.74 2.149 3.587 3.57 2.265 3.792-2.183 9.011.572 13.199 2.754 4.187 4.582 4.088 8.092 7.576 8.013 7.967-5.377 20.068-11.872 23.414z" fill="url(#p)"/><path d="m430.519 307.685 1.1-1.857c1.746-2.962.685-6.742-2.374-8.438l-119.956-66.331-6.691 12.472 119.257 66.436c3.041 1.688 6.922.67 8.664-2.282z" fill="#26264F"/><path d="M217.1 268.05c34.782 20.049 79.241 7.258 99.162-29.664 20.404-37.816 6.858-85.367-30.073-105.055-36.271-19.335-80.305-3.765-98.55 33.668-17.835 36.581-4.718 81.347 29.461 101.051zm5.321-10.372c-28.877-16.552-39.924-54.329-24.784-85.129 15.437-31.402 52.445-44.288 82.801-28.001 30.819 16.541 42.163 56.278 25.216 87.951-16.612 31.045-53.924 41.969-83.233 25.179z" fill="url(#q)"/><path opacity=".3" d="m309.289 231.059 15.295 8.459c.021 5.475 1.575 8.934 3.386 11.225 6.814 8.624 19.41 3.457 33.099 14.772 6.869 5.675 4.862 7.938 11.505 12.294 10.985 7.198 17.808 1.889 27.505 8.372 9.8 6.559 8.91 16.065 15.051 17.017 2.627.408 6.368-.783 11.604-7.192l2.507 1.387c3.058 1.69 4.124 5.47 2.373 8.437l-1.1 1.86c-1.741 2.957-5.625 3.968-8.664 2.274l-119.252-66.44 6.691-12.465z" fill="url(#r)"/><path opacity=".1" d="M218.209 262.432c30.313 17.387 68.927 6.117 86.142-26.006 17.577-32.795 5.828-73.957-26.101-91.073-31.433-16.85-69.73-3.478-85.683 29.03-15.635 31.863-4.212 70.924 25.642 88.049z" fill="#fff"/><path d="m279.442 180.666-33.106 33.296a4.917 4.917 0 0 1-5.386 1.077 4.917 4.917 0 0 1-1.601-1.077l-16.385-16.482a4.931 4.931 0 0 0-3.494-1.456 4.92 4.92 0 0 0-3.494 1.456l-2.173 2.185a4.993 4.993 0 0 0 0 7.029l19.882 19.996 5.666 5.697a4.919 4.919 0 0 0 6.988 0l5.666-5.697 36.6-36.813a4.991 4.991 0 0 0 0-7.028l-2.173-2.186a4.927 4.927 0 0 0-3.494-1.455 4.915 4.915 0 0 0-3.494 1.455l-.002.003z" fill="url(#s)"/><path d="M213.865 270.911c34.78 20.049 79.241 7.258 99.163-29.664 20.401-37.816 6.857-85.37-30.074-105.057-36.27-19.335-80.305-3.765-98.55 33.667-17.834 36.582-4.715 81.35 29.461 101.054zm5.321-10.379c-28.877-16.552-39.924-54.327-24.786-85.129 15.437-31.403 52.445-44.288 82.799-28.002 30.819 16.54 42.163 56.278 25.218 87.951-16.612 31.053-53.922 41.977-83.231 25.18z" fill="url(#t)"/><path d="M215.747 267.249c32.852 18.896 74.776 6.759 93.525-28.088 19.171-35.639 6.409-80.418-28.356-98.996-34.172-18.257-75.724-3.645-92.983 31.651-16.882 34.538-4.503 76.843 27.814 95.433zm3.439-6.717c-28.877-16.552-39.924-54.327-24.786-85.129 15.437-31.403 52.443-44.288 82.799-28.002 30.819 16.542 42.163 56.278 25.216 87.951-16.61 31.05-53.922 41.975-83.229 25.18z" fill="url(#u)"/><path d="M448.612 286.167c-9.038 8.394-21.805 8.162-27.476 7.651l-2.243-5.61c.137-.099.271-.202.403-.309 9.296-7.024 14.477-17.336 12.395-26.164-1.061-4.534-3.929-8.157-7.282-10.979-6.1-5.136-13.835-7.611-15.328-8.086l-.357-.108c-6.841-2.118-9.231-.717-11.651-3.31-7.506-8.058 1.961-36.217 15.64-38.173 1.549-.222 3.15-.178 4.822.13 4.052.748 8.517 3.066 13.614 6.976 5.801 4.462 13.801 12.852 19.803 25.966 5.234 11.45 12.692 38.043-2.34 52.016z" fill="url(#v)"/><path d="m420.506 292.515-1.143-3.239s-1.418.06-3.109-1.16c-.924-.666-2.562-.862-3.037-.731-.475.13-2.27.055-.227 1.034 2.044.98 2.034 1.713 1.175 2.514-.859.801-4.103 2.54-5.265 2.622-1.163.082.943 1.9 2.122 2.134 1.18.234 3.112.524 5.507-.89l3.977-2.284z" fill="url(#w)"/><path d="m420.506 292.515-1.143-3.239s-1.418.06-3.109-1.16c-.924-.666-2.562-.862-3.037-.731-.475.13-2.27.055-.227 1.034 2.044.98 2.034 1.713 1.175 2.514-.859.801-4.103 2.54-5.265 2.622-1.163.082.943 1.9 2.122 2.134 1.18.234 3.112.524 5.507-.89l3.977-2.284z" fill="url(#x)"/><path d="M399.099 187.378c-.033 3.64.372 6.532.755 8.51.437 2.265.755 2.849 1.158 3.326.61.714 1.527 1.317 6.72 2.61 2.825.705 3.191.683 3.249.965.304 1.375-7.402 6.062-15.365 4.928-4.874-.692-9.305-3.483-9.038-4.95.268-1.466 5.145-.682 6.595-3.352 1.008-1.858-.123-4.496-1.462-6.679 1.305-2.444 6.093-2.919 7.388-5.358z" fill="url(#y)"/><path d="M399.099 187.378c-.033 3.64.372 6.532.755 8.51.437 2.265.755 2.849 1.158 3.326.61.714 1.527 1.317 6.72 2.61 2.825.705 3.191.683 3.249.965.304 1.375-7.402 6.062-15.365 4.928-4.874-.692-9.305-3.483-9.038-4.95.268-1.466 5.145-.682 6.595-3.352 1.008-1.858-.123-4.496-1.462-6.679 1.305-2.444 6.093-2.919 7.388-5.358z" fill="url(#z)"/><path d="M390.062 188.818a5.184 5.184 0 0 1 .101-5.909c1.143-1.457 2.933-1.662 4.011-1.792 3.112-.362 7.041.943 8.411 3.823.808 1.705-.943 5.248-1.218 5.888-.314.721-.873.969-1.397 1.51l-3.697 3.965a13.587 13.587 0 0 0-.707-2.123 11.39 11.39 0 0 0-1.479-2.491c-1.623-1.983-2.938-1.419-4.025-2.871z" fill="#010648"/><path d="M398.899 194.617s-2.048 3.374-6.119 3.109c-3.65-.239-4.183-8.459-1.855-10.203.777-.579 2.335-.822 3.604-.465.747.212 1.001.525 2.231.844 1.131.299 1.454.169 1.794.46.427.362.741 1.252.027 3.65.697-.709 1.532-.979 2.125-.7.092.044.345.217.485.478.506.931-.345 2.127-2.292 2.827z" fill="url(#A)"/><path d="M398.899 194.617s-2.048 3.374-6.119 3.109c-3.65-.239-4.183-8.459-1.855-10.203.777-.579 2.335-.822 3.604-.465.747.212 1.001.525 2.231.844 1.131.299 1.454.169 1.794.46.427.362.741 1.252.027 3.65.697-.709 1.532-.979 2.125-.7.092.044.345.217.485.478.506.931-.345 2.127-2.292 2.827z" fill="url(#B)"/><path d="M398.716 187.866c-.178.13.362.791.405 1.722.075 1.814-1.749 3.987-3.613 4.17-1.1.109-1.401-.557-3.225-.752a8.433 8.433 0 0 0-2.651.152c-.571 1.987-.034 3.97 1.288 4.884 1.423.991 3.24.391 3.999.14.507-.169 2.142-.704 2.994-2.205.89-1.565.017-2.508 1.035-3.565.511-.535 1.186-.764 1.845-1.797a5.63 5.63 0 0 0 .371-.699c-.943-.996-2.19-2.241-2.448-2.05z" fill="#010648"/><path d="M390.959 193.898s.786.413 2.151.335c.066-.004.14.017.145.049.034.13-.839.709-1.65.482-.571-.162-1.013-.704-.938-.844.034-.048.162-.044.292-.022z" fill="url(#C)"/><path d="M323.983 256.318s-6.787-1.341-6.307-3.688c.48-2.347.55-4.11 2.265-2.745 1.715 1.365 8.502 5.437 4.042 6.433z" fill="url(#D)"/><path d="M323.983 256.318s-6.787-1.341-6.307-3.688c.48-2.347.55-4.11 2.265-2.745 1.715 1.365 8.502 5.437 4.042 6.433z" fill="url(#E)"/><path d="M109.208 416.018s-.361 2.909-.118 3.883c.244.974 8.66 1.679 11.518 1.336 2.858-.342-1.703-3.27-3.522-3.818-1.818-.548-7.878-1.401-7.878-1.401z" fill="url(#F)"/><path d="m113.446 411.165-.89 5.832s-2.26 1.023-3.348.01l-.118-6.103 4.356.261z" fill="url(#G)"/><path d="M66.013 410.904s1.785 1.331 1.31 2.923c-.475 1.592-4.643 7.979-7.612 9.793-2.97 1.814-2.039-1.966-1.175-4.317.863-2.352 3.073-7.533 3.936-8.399.864-.866 3.541 0 3.541 0z" fill="url(#H)"/><path d="m69.226 404.498-2.34 5.871c-1.435 3.244-2.221 4.457-3.111 5.513-.777.919-2.61 2.881-3.107 2.55-.497-.33.842-2.714 3.43-9.694l1.563-4.24h3.565z" fill="url(#I)"/><path d="M131.064 303.515a151.661 151.661 0 0 1 .323 26.945c-1.153 14.909-4.119 24.34-7.839 40.235-2.274 9.716-5.338 24.01-8.114 41.893-.642.369-2.535 1.343-4.976.982a7.52 7.52 0 0 1-2.986-1.144c-7.28-22.335-5.128-36.173-1.619-44.801 1.498-3.679 3.312-6.576 4.282-12.225 1.283-7.475-.302-11.655-2.567-28.971-1.611-12.342-1.331-14.25-.258-16.103 4.298-7.393 17.413-7.25 23.754-6.811zM106.024 306.115c-4.459 23.127-8.83 35.269-12.142 42.136-.815 1.696-3.543 7.159-6.114 14.998-2.282 6.937-3.23 12.039-3.715 14.282-1.541 7.089-5.338 17.439-15.56 31.012-.13.075-1.872 1.066-3.536.183a3.45 3.45 0 0 1-1.428-1.488 600.318 600.318 0 0 1 4.2-32.302c.279-1.766 1.51-9.489 3.439-19.692l3.186-15.852c1.65-7.488 4.178-17.669 8.076-29.867l23.594-3.41z" fill="#010648"/><path d="M109.819 214.647c2.528-2.345 7.364-5.053 9.79-11.342.729-1.896 3.317-8.601-.501-13.734-2.265-3.044-6.47-5.114-10.179-4.38-3.17.627-3.667 2.844-9.048 7.306-2.099 1.739-5.468 4.527-9.214 6.083-6.42 2.661-10.283.157-16.73.444-7.921.352-17.123 4.793-21.561 11.25-7.873 11.464 3.53 23.095-5.09 36.521-2.825 4.397-4.216 3.41-10.907 11.93-6.691 8.519-10.044 12.784-9.45 18.008.824 7.253 8.606 14.181 15.926 14.651 7.154.461 11.701-5.193 15.338-2.718 2.593 1.761 1.11 5.183 3.86 9.293 3.548 5.302 10.523 6.359 11.652 6.532 10.454 1.587 24.553-10.729 30.539-25.319 10.799-26.311-8.167-51.765 5.575-64.525z" fill="url(#J)"/><path d="M152.72 221.953c.07-7.345-16.537-13.216-24.133-15.104-11.819-2.941-21.287-1.095-23.583-.608-14.74 3.135-23.923 12.024-27.38 15.76 2.83 1.853 10.638 7.497 14.505 18.214 1.2 3.331 4.754 14.73-.324 25.401-2.928 6.153-8.109 10.768-12.045 14.277-5.905 5.258-8.961 6.066-10.94 10.782-2.155 5.135.018 7.637-2.657 11.146-2.873 3.775-6.243 2.021-11.113 5.835-4.992 3.91-3.212 7.12-7.76 11.443-6.599 6.278-15.345 4.235-15.752 7.062-.35 2.427 5.866 5.726 11.15 7.063 10.46 2.648 19.589-1.797 22.3-3.162 7.511-3.792 6.216-6.245 11.942-9.137 9.593-4.837 16.144.547 37.99 1.1 11.829.296 17.808.366 21.086-3.652 2.994-3.671 1.419-7.702-.378-25.059-.857-8.259-1.165-16.573-1.795-24.854-1.78-23.431-1.838-25.488-.253-28.728 5.661-11.611 19.077-11.187 19.14-17.779z" fill="url(#K)"/><path opacity=".09" d="M47.286 319.096c4.54-4.317 2.767-7.535 7.76-11.445 4.874-3.818 8.24-2.062 11.112-5.832 2.675-3.515.507-6.018 2.658-11.147 1.978-4.713 5.037-5.518 10.939-10.784 3.936-3.509 9.117-8.124 12.046-14.277 5.084-10.676 1.531-22.07.323-25.401-3.867-10.712-11.68-16.361-14.504-18.214l.938-.986c18.646 2.573 29.514 13.394 30.856 16.6 3.106 7.409-1.812 10.128-1.942 31.489-.061 10.21 1.035 14.246-2.265 18.508-3.775 4.875-8.12 3.362-13.57 9.737-4.19 4.897-3.522 8.001-7.434 10.063-4.207 2.215-6.892-.369-11.636.652-7.931 1.7-9.624 10.88-14.866 15.905-3.963 3.804-11.29 6.457-25.744 3.608-.335-.487-.497-.965-.431-1.413.415-2.822 9.16-.787 15.76-7.063z" fill="url(#L)"/><path d="M103.767 243.379c1.985 4.231-7.123 14.077-17.249 18.752-2.06.953-16.87 7.793-23.47 1.213-5.455-5.439-1.934-16.677-.68-20.691 6.168-19.704 25.12-29.723 33.063-33.341 5.926 14.889 2.436 21.522 1.061 23.592-1.435 2.161-5.44 6.71-9.694 10.714-2.993 2.815-4.858 4.188-4.605 4.624.314.548 3.819-.487 17.442-7.149 1.58.26 3.454.839 4.132 2.286z" fill="url(#M)"/><path d="M103.767 243.379c1.985 4.231-7.123 14.077-17.249 18.752-2.06.953-16.87 7.793-23.47 1.213-5.455-5.439-1.934-16.677-.68-20.691 6.168-19.704 25.12-29.723 33.063-33.341 5.926 14.889 2.436 21.522 1.061 23.592-1.435 2.161-5.44 6.71-9.694 10.714-2.993 2.815-4.858 4.188-4.605 4.624.314.548 3.819-.487 17.442-7.149 1.58.26 3.454.839 4.132 2.286z" fill="url(#N)"/><path d="m160.769 219.088-6.687 33.445a2.745 2.745 0 0 1-2.103 2.145l-49.845 10.745c-1.785.384-3.44-1.068-3.295-2.899l2.632-34.012a2.74 2.74 0 0 1 2.069-2.454c7.904-1.961 38.34-9.298 54.392-10.258a2.75 2.75 0 0 1 2.837 3.288z" fill="#010648"/><path d="M111.051 194.668s-.938 7.55-3.714 9.277l-7.753 4.604c-.496.613 17.184 2.523 25.949-1.917-2.889-.608-3.671-.83-3.671-.83-.781-.222-2.243-.634-3.71-1.474-.998-.569-2.605-1.683-4.081-3.792l.032-4.182-3.052-1.686z" fill="url(#O)"/><path d="M111.051 194.668s-.938 7.55-3.714 9.277l-7.753 4.604c-.496.613 17.184 2.523 25.949-1.917-2.889-.608-3.671-.83-3.671-.83-.781-.222-2.243-.634-3.71-1.474-.998-.569-2.605-1.683-4.081-3.792l.032-4.182-3.052-1.686z" fill="url(#P)"/><path d="M110.627 197.336s1.806 2.491 4.648 1.457c2.54-.932 1.025-7.519-.992-8.271-.673-.249-1.908-.14-2.728.378-.583.362-2.129 2.297-1.239 4.463-.642-.184-1.209-.017-1.349.304-.178.405.362.957.485 1.083.427.426.938.549 1.175.586z" fill="url(#Q)"/><path opacity=".3" d="M115.878 248.003c5.355-1.515 9.79 2.248 14.055-.731 4.368-3.053 1.515-8.264 6.061-13.387 4.858-5.48 11.016-2.795 15.512-7.793 1.667-1.853 3.17-4.875 3.191-10.032l3.225-.256c1.79-.108 3.192 1.518 2.842 3.283l-6.686 33.446a2.756 2.756 0 0 1-.733 1.385c-.374.38-.85.644-1.371.759l-47.898 10.324c3.379-11.923 7.892-15.893 11.802-16.998z" fill="url(#R)"/><path d="M157.597 236.879s3.181-2.953 3.526-6.38c.345-3.428-2.055-6.175-4.378-6.872-2.323-.697-3.565.33-2.007 3.71 1.559 3.379 4.038 5.567 2.859 9.542z" fill="url(#S)"/></g><defs><linearGradient id="x" x1="409.899" y1="290.253" x2="420.379" y2="297.309" gradientUnits="userSpaceOnUse"><stop stop-color="#FEBBBA"/><stop offset="1" stop-color="#FF928E"/></linearGradient><linearGradient id="b" x1="9592.56" y1="23028.4" x2="55472.3" y2="23028.4" gradientUnits="userSpaceOnUse"><stop stop-color="#0B5582"/><stop offset="1" stop-color="#2D4279"/></linearGradient><linearGradient id="d" x1="17855.4" y1="32588.7" x2="33316" y2="2346.77" gradientUnits="userSpaceOnUse"><stop stop-color="#30ABBA"/><stop offset="1" stop-color="#6F6CFF"/></linearGradient><linearGradient id="e" x1="18017.1" y1="1487.61" x2="18022" y2="844.69" gradientUnits="userSpaceOnUse"><stop stop-color="#30ABBA"/><stop offset="1" stop-color="#6F6CFF"/></linearGradient><linearGradient id="f" x1="3044.66" y1="1775.6" x2="3050.16" y2="1923.57" gradientUnits="userSpaceOnUse"><stop stop-color="#444B8C"/><stop offset=".996" stop-color="#3E4177"/></linearGradient><linearGradient id="g" x1="1102.54" y1="1620.44" x2="1099.58" y2="1492.51" gradientUnits="userSpaceOnUse"><stop stop-color="#FFC444"/><stop offset=".996" stop-color="#F36F56"/></linearGradient><linearGradient id="h" x1="2414.84" y1="2705.25" x2="2440.01" y2="2955.62" gradientUnits="userSpaceOnUse"><stop stop-color="#444B8C"/><stop offset=".996" stop-color="#3E4177"/></linearGradient><linearGradient id="i" x1="1586.43" y1="2117.24" x2="1582.05" y2="1935.84" gradientUnits="userSpaceOnUse"><stop stop-color="#FFC444"/><stop offset=".996" stop-color="#F36F56"/></linearGradient><linearGradient id="j" x1="5049.49" y1="19072.6" x2="5479.81" y2="19072.3" gradientUnits="userSpaceOnUse"><stop stop-color="#444B8C"/><stop offset=".996" stop-color="#3E4177"/></linearGradient><linearGradient id="k" x1="4735.46" y1="19073.6" x2="5136.8" y2="19073.4" gradientUnits="userSpaceOnUse"><stop stop-color="#444B8C"/><stop offset=".996" stop-color="#3E4177"/></linearGradient><linearGradient id="l" x1="10109.1" y1="18516.7" x2="11862.2" y2="18514.6" gradientUnits="userSpaceOnUse"><stop stop-color="#444B8C"/><stop offset=".996" stop-color="#3E4177"/></linearGradient><linearGradient id="m" x1="21266.3" y1="9297" x2="17902.6" y2="15196.7" gradientUnits="userSpaceOnUse"><stop stop-color="#AA80F9"/><stop offset=".996" stop-color="#6165D7"/></linearGradient><linearGradient id="n" x1="4297.91" y1="2398.41" x2="4626.77" y2="2398.41" gradientUnits="userSpaceOnUse"><stop stop-color="#AA80F9"/><stop offset=".996" stop-color="#6165D7"/></linearGradient><linearGradient id="o" x1="2038.15" y1="985.529" x2="2056.75" y2="1022.86" gradientUnits="userSpaceOnUse"><stop stop-color="#AB316D"/><stop offset="1" stop-color="#792D3D"/></linearGradient><linearGradient id="p" x1="14941.2" y1="9424.53" x2="19178" y2="9424.53" gradientUnits="userSpaceOnUse"><stop stop-color="#AA80F9"/><stop offset=".996" stop-color="#6165D7"/></linearGradient><linearGradient id="q" x1="19756" y1="11553.5" x2="11157.9" y2="13924.7" gradientUnits="userSpaceOnUse"><stop offset=".004" stop-color="#26264F"/><stop offset="1" stop-color="#444B8C"/></linearGradient><linearGradient id="r" x1="22872.4" y1="8690.47" x2="17882.9" y2="11030.1" gradientUnits="userSpaceOnUse"><stop offset=".004" stop-color="#26264F"/><stop offset="1" stop-color="#444B8C"/></linearGradient><linearGradient id="s" x1="7473.54" y1="5392" x2="8105.04" y2="3810.94" gradientUnits="userSpaceOnUse"><stop stop-color="#30ABBA"/><stop offset="1" stop-color="#6F6CFF"/></linearGradient><linearGradient id="t" x1="11703.5" y1="16400.2" x2="16825.4" y2="12021.6" gradientUnits="userSpaceOnUse"><stop offset=".004" stop-color="#26264F"/><stop offset="1" stop-color="#444B8C"/></linearGradient><linearGradient id="u" x1="18221.9" y1="11158.5" x2="10571.4" y2="13268.2" gradientUnits="userSpaceOnUse"><stop offset=".004" stop-color="#26264F"/><stop offset="1" stop-color="#444B8C"/></linearGradient><linearGradient id="v" x1="12076.4" y1="8411.42" x2="8848.9" y2="11985.6" gradientUnits="userSpaceOnUse"><stop stop-color="#AA80F9"/><stop offset=".996" stop-color="#6165D7"/></linearGradient><linearGradient id="w" x1="2446.19" y1="1353.4" x2="2460.53" y2="1301.92" gradientUnits="userSpaceOnUse"><stop stop-color="#FFC444"/><stop offset=".996" stop-color="#F36F56"/></linearGradient><linearGradient id="c" x1="18017.1" y1="35710.6" x2="35776.1" y2="1444.46" gradientUnits="userSpaceOnUse"><stop stop-color="#30ABBA"/><stop offset="1" stop-color="#6F6CFF"/></linearGradient><linearGradient id="y" x1="4387.33" y1="1713.86" x2="4459.95" y2="2261.32" gradientUnits="userSpaceOnUse"><stop stop-color="#FFC444"/><stop offset=".996" stop-color="#F36F56"/></linearGradient><linearGradient id="z" x1="389.303" y1="194.361" x2="412.748" y2="207.793" gradientUnits="userSpaceOnUse"><stop stop-color="#FEBBBA"/><stop offset="1" stop-color="#FF928E"/></linearGradient><linearGradient id="A" x1="2326.33" y1="1033.16" x2="2325.45" y2="1111.06" gradientUnits="userSpaceOnUse"><stop stop-color="#FFC444"/><stop offset=".996" stop-color="#F36F56"/></linearGradient><linearGradient id="B" x1="390.845" y1="190.584" x2="402.663" y2="196.775" gradientUnits="userSpaceOnUse"><stop stop-color="#FEBBBA"/><stop offset="1" stop-color="#FF928E"/></linearGradient><linearGradient id="C" x1="814.125" y1="269.124" x2="811.327" y2="269.124" gradientUnits="userSpaceOnUse"><stop stop-color="#FFC444"/><stop offset=".996" stop-color="#F36F56"/></linearGradient><linearGradient id="D" x1="1357.98" y1="991.475" x2="1362.22" y2="964.37" gradientUnits="userSpaceOnUse"><stop stop-color="#FFC444"/><stop offset=".996" stop-color="#F36F56"/></linearGradient><linearGradient id="E" x1="318.528" y1="251.76" x2="326.221" y2="255.951" gradientUnits="userSpaceOnUse"><stop stop-color="#FEBBBA"/><stop offset="1" stop-color="#FF928E"/></linearGradient><linearGradient id="F" x1="713.713" y1="1290.27" x2="710.968" y2="1406.29" gradientUnits="userSpaceOnUse"><stop stop-color="#444B8C"/><stop offset=".996" stop-color="#26264F"/></linearGradient><linearGradient id="G" x1="310.542" y1="1548.92" x2="303.419" y2="1442.3" gradientUnits="userSpaceOnUse"><stop stop-color="#FFC444"/><stop offset=".996" stop-color="#F36F56"/></linearGradient><linearGradient id="H" x1="314.985" y1="2630.57" x2="291.967" y2="2925.73" gradientUnits="userSpaceOnUse"><stop stop-color="#444B8C"/><stop offset=".996" stop-color="#26264F"/></linearGradient><linearGradient id="I" x1="295.106" y1="2843.77" x2="278.794" y2="2616.5" gradientUnits="userSpaceOnUse"><stop stop-color="#FFC444"/><stop offset=".996" stop-color="#F36F56"/></linearGradient><linearGradient id="J" x1="2512.99" y1="13406.4" x2="3583.09" y2="12216.8" gradientUnits="userSpaceOnUse"><stop stop-color="#444B8C"/><stop offset=".996" stop-color="#26264F"/></linearGradient><linearGradient id="K" x1="4165.16" y1="17909.3" x2="5706.53" y2="10984.1" gradientUnits="userSpaceOnUse"><stop stop-color="#FFC444"/><stop offset=".996" stop-color="#FC9D8A"/></linearGradient><linearGradient id="L" x1="2145.4" y1="14864.2" x2="3752.04" y2="9243.93" gradientUnits="userSpaceOnUse"><stop stop-color="#FFC444"/><stop offset=".996" stop-color="#F36F56"/></linearGradient><linearGradient id="M" x1="1254.98" y1="7940.72" x2="2064.61" y2="4952.1" gradientUnits="userSpaceOnUse"><stop stop-color="#FFC444"/><stop offset=".996" stop-color="#F36F56"/></linearGradient><linearGradient id="N" x1="1559.12" y1="8023.1" x2="2368.68" y2="5034.53" gradientUnits="userSpaceOnUse"><stop stop-color="#FFC444"/><stop offset=".996" stop-color="#FC9D8A"/></linearGradient><linearGradient id="O" x1="1365.19" y1="1505.61" x2="1185.47" y2="1149.83" gradientUnits="userSpaceOnUse"><stop stop-color="#FFC444"/><stop offset=".996" stop-color="#F36F56"/></linearGradient><linearGradient id="P" x1="984.965" y1="2231.27" x2="1083.5" y2="1406.94" gradientUnits="userSpaceOnUse"><stop stop-color="#FFC444"/><stop offset=".996" stop-color="#FC9D8A"/></linearGradient><linearGradient id="Q" x1="-139.476" y1="2778.98" x2="-205.266" y2="2938.33" gradientUnits="userSpaceOnUse"><stop stop-color="#FFC444"/><stop offset=".996" stop-color="#F36F56"/></linearGradient><linearGradient id="R" x1="3887.3" y1="5119.52" x2="2552.38" y2="5119.52" gradientUnits="userSpaceOnUse"><stop stop-color="#AA80F9"/><stop offset=".996" stop-color="#6165D7"/></linearGradient><linearGradient id="S" x1="571.655" y1="1575.25" x2="415.154" y2="1643.47" gradientUnits="userSpaceOnUse"><stop stop-color="#FFC444"/><stop offset=".996" stop-color="#F36F56"/></linearGradient><clipPath id="a"><path fill="#fff" d="M0 0h492.06v480H0z"/></clipPath></defs></svg>