<svg width="480" height="480" fill="none" xmlns="http://www.w3.org/2000/svg"><g clip-path="url(#a)"><path d="M451.227 240.137c7.617 39.466 23.058 119.454-13.89 172.964-67.059 97.115-295.113 90.272-391.442-32.17C37.566 370.345-4.21 315.135.347 239.516 8.254 108.365 150.968-7.879 265.344 14.952c66.939 13.361 111.43 71.817 129.746 95.883 7.548 9.918 42.117 56.674 56.137 129.302z" fill="#F4F7FA"/><path d="M305.329 258.278c11.895-11.104 27.597-29.15 34.748-54.703 9.376-33.512-4.204-50.495-2.519-107.268 1.06-35.89 2.163-60.939 20.295-74.289 14.21-10.46 37.182-12.49 51.085-2.725 11.565 8.12 18.226 25.343 20.24 37.631 1.642 10.014.284 17.279 6.041 22.566 5.885 5.405 12.257 2.369 17.762 6.375 11.155 8.122 4.619 34.919 3.556 39.25-11.762 48.175-56.258 80.573-75.84 94.471-16.18 11.49-41.22 26.794-75.368 38.692z" fill="url(#b)"/><mask id="c" style="mask-type:luminance" maskUnits="userSpaceOnUse" x="305" y="12" width="155" height="247"><path d="M305.329 258.278c11.895-11.104 27.597-29.15 34.748-54.703 9.376-33.512-4.204-50.495-2.519-107.268 1.06-35.89 2.163-60.939 20.295-74.289 14.21-10.46 37.182-12.49 51.085-2.725 11.565 8.12 18.226 25.343 20.24 37.631 1.642 10.014.284 17.279 6.041 22.566 5.885 5.405 12.257 2.369 17.762 6.375 11.155 8.122 4.619 34.919 3.556 39.25-11.762 48.175-56.258 80.573-75.84 94.471-16.18 11.49-41.22 26.794-75.368 38.692z" fill="#fff"/></mask><g style="mix-blend-mode:soft-light" opacity=".5" fill="#fff" mask="url(#c)"><path d="m291.772 267.218-.401-1.064c20.62-7.775 38.367-17.065 52.747-27.606 21.199-15.539 34.416-33.392 39.284-53.061 3.813-15.406 2.514-31.388.717-53.51-1.435-17.661-4.041-30.049-6.348-40.98-3.012-14.292-5.391-25.58-3.673-41.95 1.743-16.61 7.262-33.112 16.404-49.047l.986.566c-9.063 15.797-14.533 32.15-16.258 48.602-1.701 16.192.662 27.403 3.653 41.597 2.31 10.962 4.928 23.387 6.368 41.118 1.74 21.395 3.112 38.29-.745 53.877-4.934 19.935-18.297 38.004-39.716 53.704-14.463 10.604-32.298 19.946-53.018 27.754z"/><path d="m383.668 119.608-.587-.258c-.118-.052-11.872-5.295-23.602-17.424-10.822-11.194-23.852-30.716-24.474-60.156l1.132-.024c.614 29.071 13.474 48.337 24.155 59.391 10.092 10.439 20.167 15.691 22.655 16.898 9.739-31.905 26.935-51.893 39.686-63.047 13.923-12.191 25.73-16.813 25.847-16.855l.409 1.06c-.117.046-11.771 4.61-25.543 16.685-12.709 11.139-29.878 31.131-39.495 63.119l-.183.611z"/><path d="m386.124 167.425-.238-.34c-.115-.162-11.688-17.12-26.616-31.847-14.834-14.627-49.668-19.786-50.011-19.836l.161-1.132c.353.05 35.558 5.266 50.66 20.16 13.83 13.637 24.794 29.176 26.521 31.667 36.572-11.154 75.795-96.596 76.188-97.46l1.034.47c-.098.218-10.078 22.057-24.496 44.942-19.4 30.796-37.171 48.715-52.801 53.261l-.402.115z"/><path d="m350.336 235.17.567-.979c9.376-16.195 8.062-33.23-3.907-50.634-8.961-13.038-20.884-21.39-21.003-21.467l.646-.935c.122.084 12.186 8.536 21.273 21.737 11.839 17.198 13.397 34.758 4.538 50.874 4.203-.597 19.802-3.108 39.324-9.862 21.045-7.275 51.095-21.127 74.735-45.735l45.929-47.815.82.789-45.928 47.808c-23.805 24.78-54.039 38.71-75.21 46.033-22.933 7.931-40.485 10.036-40.659 10.055l-1.125.131z"/></g><path d="M246.219 398.945c33.787 6.085 77.708 9.017 122.25-2.516 11.368-2.942 81.592-21.124 79.035-52.116-.901-10.917-10.07-14.204-11.53-28.776-1.728-17.27 10.041-23.711 20.767-43.002 6.399-11.512 25.129-45.204 7.083-68.779-10.785-14.087-34.213-23.926-53.536-22.804-28.343 1.645-42.301 26.539-65.187 69.07-20.287 37.704-18.555 48.12-33.638 75.011-11.194 19.959-30.409 46.782-65.244 73.912z" fill="url(#d)"/><mask id="e" style="mask-type:luminance" maskUnits="userSpaceOnUse" x="246" y="180" width="226" height="225"><path d="M246.219 398.945c33.787 6.085 77.708 9.017 122.25-2.516 11.368-2.942 81.592-21.124 79.035-52.116-.901-10.917-10.07-14.204-11.53-28.776-1.728-17.27 10.041-23.711 20.767-43.002 6.399-11.512 25.129-45.204 7.083-68.779-10.785-14.087-34.213-23.926-53.536-22.804-28.343 1.645-42.301 26.539-65.187 69.07-20.287 37.704-18.555 48.12-33.638 75.011-11.194 19.959-30.409 46.782-65.244 73.912z" fill="#fff"/></mask><g style="mix-blend-mode:soft-light" opacity=".5" fill="#fff" mask="url(#e)"><path d="M193.61 405.552c-31.345 0-62.922-7.238-94.056-21.579l.485-1.031c30.98 14.27 62.401 21.472 93.581 21.472 4.4 0 8.793-.144 13.178-.43 47.276-3.091 91.339-23.461 130.981-60.539 41.276-38.612 67.413-85.668 82.058-118.336 10.151-22.633 13.523-49.06 10.023-78.537l1.132-.134c3.524 29.684.119 56.31-10.115 79.136-14.697 32.772-40.901 79.969-82.318 118.71-39.834 37.263-84.139 57.734-131.685 60.843-4.417.277-8.839.418-13.264.425z"/><path d="m385.025 288.994-.249-.446c-.074-.135-7.512-13.591-12.052-32.961-4.192-17.895-6.707-44.65 5.125-70.501l1.034.474c-11.693 25.542-9.205 52.022-5.06 69.734 4.042 17.252 10.39 29.768 11.703 32.25 80.022-34.272 88.55-87.871 89.26-103.507.003-.253.02-.506.05-.757l1.119.204-.56-.102.56.099c-.013.084-.02.289-.034.608-.718 15.833-9.364 70.178-90.426 104.704l-.47.201z"/><path d="M391.647 352.895c-14.873 0-32.531-2.434-52.977-9.151l-.287-.094-.083-.293c-.124-.446-12.257-45.265 1.744-100.931l14.13-56.163 1.101.278-14.128 56.163c-13.339 53.025-2.85 96.107-1.828 100.057 23.641 7.726 58.532 14.388 91.076 2.586 19.534-7.085 29.075-17.632 29.169-17.737l.85.755c-.097.108-9.784 10.831-29.561 18.025-9.593 3.492-22.668 6.505-39.206 6.505z"/></g><path d="M462.385 434.924 9.308 430.978v11.675c0 3.169 1.975 5.863 4.652 6.344l128.117 22.997c1.516.274 3.061.346 4.596.217l310.787-26.215c2.774-.233 4.925-2.936 4.925-6.192v-4.88z" fill="url(#f)"/><path d="m316.534 415.997-302.24 21.36c-5.402.382-9.805-3.676-9.805-9.072V212.219a9.79 9.79 0 0 1 9.805-9.766h302.24c4.457 0 8.059 3.953 8.059 8.829v195.319c-.002 4.874-3.604 9.082-8.059 9.396z" fill="url(#g)"/><path d="m321.353 415.997-302.24 21.36c-5.408.382-9.805-3.679-9.805-9.072V212.219a9.789 9.789 0 0 1 9.804-9.766h302.241c4.455 0 8.057 3.953 8.057 8.829v195.319c0 4.874-3.602 9.082-8.057 9.396z" fill="url(#h)"/><path d="M311.936 402.226 30.432 420.78c-4.4.29-7.978-3.044-7.978-7.446V224.168a8.02 8.02 0 0 1 7.978-8.006l281.504-1.165c3.676-.015 6.649 3.223 6.649 7.234v172.297c0 4.009-2.973 7.457-6.649 7.698z" fill="#E5ECFE"/><path d="M180.9 208.364c0 2.008-1.555 3.64-3.476 3.645-1.92.005-3.485-1.616-3.485-3.632s1.562-3.644 3.485-3.646c1.924-.001 3.476 1.625 3.476 3.633z" fill="#fff"/><path d="M313.811 415.028 9.308 437.511l132.769 23.825a17.61 17.61 0 0 0 4.596.217l315.712-26.629-143.73-19.742a23.012 23.012 0 0 0-4.844-.154z" fill="url(#i)"/><path style="mix-blend-mode:multiply" opacity=".3" d="m53.739 438.076 253.509-18.995 78.458 10.689-251.324 20.307-80.643-12.001z" fill="url(#j)"/><path d="M248.532 356.738c-23.3-12.537-41.621 3.348-59.302-12.325-10.718-9.502-5.456-16.588-18.646-30.787-14.608-15.728-24.12-10.441-38.799-24.597-18.563-17.897-9.279-31.821-25.269-44.671-19.4-15.589-40.32-1.161-58.785-16.112-7.965-6.448-12.334-15.823-14.617-25.793H15.045a5.738 5.738 0 0 0-5.737 5.733v223.97c0 3.166 2.57 5.549 5.737 5.324l308.031-21.865c1.512-.107 2.852-.989 3.718-2.263-22.548-.823-36.401-8.382-45.265-16.195-17.32-15.293-14.317-30.368-32.997-40.419z" fill="#fff" style="mix-blend-mode:soft-light" opacity=".48"/><path d="M213.717 55.316 38.153 48.203c-4.069-.162-7.377 2.686-7.377 6.37v295.725c0 3.684 3.308 6.451 7.377 6.185l175.564-11.53c3.583-.236 6.48-3.217 6.48-6.66V61.813c.003-3.444-2.894-6.353-6.48-6.497z" fill="url(#k)"/><path d="M211.467 60.064 38.153 48.203c-4.069-.162-7.377 2.686-7.377 6.37v295.725c0 3.684 3.308 6.451 7.377 6.185l175.564-11.53c3.583-.236 6.48-3.217 6.48-6.66V61.813c.003-3.444-5.148-1.604-8.73-1.75z" fill="url(#l)"/><path d="M217.29 55.316 41.726 48.203c-4.07-.162-7.377 2.686-7.377 6.37v295.725c0 3.684 3.308 6.451 7.377 6.185l175.564-11.53c3.582-.236 6.479-3.217 6.479-6.66V61.813c0-3.444-2.897-6.353-6.479-6.497z" fill="#D8DEE8"/><path d="M145.819 271.198c-2.979-33.515 19.338-47.441 10.832-77.759-10.524-37.534-51.158-39.209-65.054-76.205-5.335-14.196-7.437-35.635 7.816-66.69l-57.687-2.341c-4.07-.162-7.377 2.686-7.377 6.37v295.725c0 3.684 3.308 6.451 7.377 6.185l156.769-10.295c-39.534-27.812-50.844-54.397-52.676-74.99z" fill="#D8DEE8" style="mix-blend-mode:multiply" opacity=".3"/><path d="M217.29 58.997 41.725 52.123c-1.668-.066-3.026 1.109-3.026 2.617v295.281c0 1.51 1.358 2.65 3.026 2.541L217.29 341.27c1.471-.093 2.666-1.322 2.666-2.737V61.667c0-1.414-1.195-2.612-2.666-2.67z" fill="url(#m)"/><path d="M132.24 188.492c-32.906.272-60.256-24.744-60.256-55.755 0-31.012 27.35-55.392 60.256-54.368 32.159 1 57.784 25.99 57.784 55.728 0 29.737-25.613 54.137-57.784 54.395z" fill="#D8DEE8"/><path d="M186.12 134.051c0 27.77-23.863 50.439-53.875 50.645-30.667.206-56.022-23.033-56.022-51.911 0-28.877 25.355-51.526 56.017-50.619 30.017.892 53.88 24.115 53.88 51.885z" fill="#fff"/><path opacity=".74" d="m197.813 208.031-134.344 2.072c-3.778.058-6.848 2.899-6.848 6.345 0 3.445 3.072 6.179 6.848 6.105l134.341-2.645c3.425-.068 6.196-2.774 6.196-6.043.011-3.277-2.768-5.886-6.193-5.834z" fill="url(#n)"/><path d="m197.813 231.397-109.93 2.624c-3.718.089-6.733 2.931-6.733 6.347 0 3.416 3.018 6.101 6.733 5.996l109.93-3.099c3.425-.096 6.196-2.826 6.196-6.095.008-3.27-2.771-5.855-6.196-5.773z" fill="#D8DEE8"/><path d="M63.533 247.051h-.126c-3.742.105-6.79-2.48-6.79-5.775v-.546c0-3.295 3.043-6.038 6.79-6.127h.127c3.732-.089 6.752 2.496 6.752 5.776v.545c-.002 3.278-3.021 6.022-6.753 6.127z" fill="#6165D7"/><path d="M63.469 248.22c-4.48.127-8.136-3.093-8.136-7.18 0-4.086 3.656-7.498 8.136-7.598 4.48-.1 8.083 3.117 8.083 7.181s-3.616 7.471-8.083 7.597zm0-12.448c-3.072.076-5.561 2.409-5.561 5.202 0 2.794 2.498 4.999 5.56 4.913 3.064-.086 5.541-2.425 5.541-5.201 0-2.775-2.481-4.989-5.54-4.916v.002zM197.813 252.538l-109.93 3.469c-3.718.118-6.733 2.983-6.733 6.4 0 3.416 3.018 6.077 6.733 5.944l109.93-3.946c3.425-.123 6.196-2.872 6.196-6.143.008-3.269-2.771-5.833-6.196-5.724z" fill="#D8DEE8"/><path d="M63.533 269.224h-.126c-3.742.135-6.79-2.425-6.79-5.722v-.536c0-3.294 3.043-6.062 6.79-6.18h.127c3.732-.118 6.752 2.444 6.752 5.725v.544c-.002 3.269-3.021 6.035-6.753 6.169z" fill="#6165D7"/><path d="M63.469 270.393c-4.48.162-8.136-3.029-8.136-7.113 0-4.084 3.656-7.525 8.136-7.666 4.48-.141 8.083 3.055 8.083 7.113s-3.616 7.504-8.083 7.666zm0-12.448c-3.072.099-5.561 2.451-5.561 5.245 0 2.793 2.498 4.979 5.56 4.87 3.064-.108 5.541-2.462 5.541-5.244 0-2.782-2.481-4.968-5.54-4.871zM197.813 273.678l-109.93 4.317c-3.718.145-6.733 3.032-6.733 6.45 0 3.416 3.018 6.054 6.733 5.892l109.93-4.791c3.425-.149 6.196-2.92 6.196-6.19.008-3.271-2.771-5.812-6.196-5.678zM63.469 292.568c-4.48.197-8.136-2.966-8.136-7.055 0-4.088 3.656-7.554 8.136-7.727 4.48-.173 8.083 2.992 8.083 7.056 0 4.065-3.616 7.529-8.083 7.726zm0-12.448c-3.072.122-5.561 2.493-5.561 5.287 0 2.793 2.498 4.959 5.56 4.827 3.064-.133 5.541-2.504 5.541-5.286 0-2.783-2.481-4.951-5.54-4.828zM197.813 294.814l-109.93 5.162c-3.718.174-6.733 3.086-6.733 6.502 0 3.417 3.018 6.031 6.733 5.84l109.93-5.637c3.425-.174 6.196-2.968 6.196-6.238.008-3.264-2.771-5.791-6.196-5.629z" fill="#D8DEE8"/><path d="M63.533 313.567h-.126c-3.742.19-6.79-2.324-6.79-5.618v-.548c0-3.295 3.043-6.108 6.79-6.284h.127c3.732-.175 6.752 2.341 6.752 5.621v.545c-.002 3.285-3.021 6.098-6.753 6.284z" fill="#6165D7"/><path d="M63.469 314.743c-4.48.232-8.136-2.91-8.136-6.992 0-4.081 3.656-7.583 8.136-7.792 4.48-.208 8.083 2.931 8.083 6.995 0 4.065-3.616 7.558-8.083 7.789zm0-12.448c-3.072.146-5.561 2.537-5.561 5.335 0 2.799 2.498 4.941 5.56 4.785 3.064-.155 5.541-2.546 5.541-5.334 0-2.789-2.481-4.933-5.54-4.787v.001z" fill="#D8DEE8"/><mask id="o" style="mask-type:luminance" maskUnits="userSpaceOnUse" x="80" y="85" width="103" height="96"><path d="M182.193 134.006c0 25.749-22.148 46.743-49.953 46.893-28.372.152-51.797-21.367-51.797-48.063 0-26.697 23.43-47.678 51.797-46.873 27.815.793 49.953 22.294 49.953 48.043z" fill="#fff"/></mask><g mask="url(#o)"><path d="M125.639 97.807c-9.736-.28-18.976 4.741-23.079 11.723-4.947 8.407 1.657 12.61-1.568 26.29-2.97 12.595-9.908 14.747-8.76 23.016 1.255 9.053 10.732 14.798 14.476 17.068 16.834 10.201 43.11 9.774 56.441-3.395 1.114-1.099 10.311-10.185 7.828-18.538-2.222-7.478-11.747-7.53-13.721-15.301-1.699-6.694 4.81-8.858 4.191-18.56-.122-1.898-.695-10.885-7.94-15.035-4.827-2.768-10.131-1.974-12.074-1.587-2.334-1.735-8.02-5.458-15.794-5.681z" fill="url(#p)"/><path d="M76.222 168.071s49.228-26.685 109.898-.087c0 0-7.717 22.794-53.876 24.346-47.725 1.607-56.022-24.259-56.022-24.259z" fill="url(#q)"/><path d="m123.534 133.33-1.843 12.741c-.629 4.347-3.852 7.981-8.338 9.389l-15 4.706s28.697 12.839 64.88 0l-16.489-5.349c-4.688-1.641-7.875-5.765-8.083-10.45l-.474-10.873-14.653-.164z" fill="url(#r)"/><path d="M145.872 122.35c0 10.747-6.963 22.243-15.6 22.177-8.689-.065-15.773-11.801-15.773-22.665 0-10.864 7.084-16.661 15.773-16.475 8.637.186 15.6 6.214 15.6 16.963z" fill="url(#s)"/><path d="M137.182 112.489c-4.689.137-11.802 1.057-16.723 5.784-8.265 7.938-4.342 20.749-8.023 21.47-3.278.647-8.358-8.503-8.275-18.484.068-8.361 3.147-18.155 11.154-20.455 4.706-1.35 6.09 1.044 21.252 2.763 8.829 1 5.366 4.614 7.351 6.025 8.819 6.263 7.705 26.297 2.962 26.503-2.251.097-5.359-5.178-9.698-23.606z" fill="url(#t)"/></g><path d="M145.819 271.198c-2.979-33.515 19.338-47.441 10.832-77.759-10.525-37.534-51.158-39.209-65.055-76.205-5.111-13.609-7.26-33.88 6.027-62.919l-55.898-2.192c-1.668-.066-3.026 1.109-3.026 2.617v295.281c0 1.51 1.358 2.65 3.026 2.541l152.062-9.78c-35.743-26.59-46.212-51.848-47.968-71.584z" fill="#fff" style="mix-blend-mode:soft-light" opacity=".35"/><path d="M145.819 271.198c-2.979-33.515 19.338-47.441 10.832-77.759-10.524-37.534-51.158-39.209-65.054-76.205-5.335-14.196-7.437-35.635 7.816-66.69l-57.687-2.341c-4.07-.162-7.377 2.686-7.377 6.37v295.725c0 3.684 3.308 6.451 7.377 6.185l156.769-10.295c-39.534-27.812-50.844-54.397-52.676-74.99z" fill="#D8DEE8" style="mix-blend-mode:multiply" opacity=".3"/><path d="M217.29 58.997 41.725 52.123c-1.668-.066-3.026 1.109-3.026 2.617v295.281c0 1.51 1.358 2.65 3.026 2.541L217.29 341.27c1.471-.093 2.666-1.322 2.666-2.737V61.667c0-1.414-1.195-2.612-2.666-2.67z" fill="url(#u)"/><path d="M132.24 188.492c-32.906.272-60.256-24.744-60.256-55.755 0-31.012 27.35-55.392 60.256-54.368 32.159 1 57.784 25.99 57.784 55.728 0 29.737-25.613 54.137-57.784 54.395z" fill="#D8DEE8"/><path d="M186.12 134.051c0 27.77-23.863 50.439-53.875 50.645-30.667.206-56.022-23.033-56.022-51.911 0-28.877 25.355-51.526 56.017-50.619 30.017.892 53.88 24.115 53.88 51.885z" fill="#fff"/><path opacity=".74" d="m197.813 208.031-134.344 2.072c-3.778.058-6.848 2.899-6.848 6.345 0 3.445 3.072 6.179 6.848 6.105l134.341-2.645c3.425-.068 6.196-2.774 6.196-6.043.011-3.277-2.768-5.886-6.193-5.834z" fill="url(#v)"/><path d="m197.813 231.397-109.93 2.624c-3.718.089-6.733 2.931-6.733 6.347 0 3.416 3.018 6.101 6.733 5.996l109.93-3.099c3.425-.096 6.196-2.826 6.196-6.095.008-3.27-2.771-5.855-6.196-5.773z" fill="#D8DEE8"/><path d="M63.533 247.051h-.126c-3.742.105-6.79-2.48-6.79-5.775v-.546c0-3.295 3.043-6.038 6.79-6.127h.127c3.732-.089 6.752 2.496 6.752 5.776v.545c-.002 3.278-3.021 6.022-6.753 6.127z" fill="#6165D7"/><path d="M63.469 248.22c-4.48.127-8.136-3.093-8.136-7.18 0-4.086 3.656-7.498 8.136-7.598 4.48-.1 8.083 3.117 8.083 7.181s-3.616 7.471-8.083 7.597zm0-12.448c-3.072.076-5.561 2.409-5.561 5.202 0 2.794 2.498 4.999 5.56 4.913 3.064-.086 5.541-2.425 5.541-5.201 0-2.775-2.481-4.989-5.54-4.916v.002zM197.813 252.538l-109.93 3.469c-3.718.118-6.733 2.983-6.733 6.4 0 3.416 3.018 6.077 6.733 5.944l109.93-3.946c3.425-.123 6.196-2.872 6.196-6.143.008-3.269-2.771-5.833-6.196-5.724z" fill="#D8DEE8"/><path d="M63.533 269.224h-.126c-3.742.135-6.79-2.425-6.79-5.722v-.536c0-3.294 3.043-6.062 6.79-6.18h.127c3.732-.118 6.752 2.444 6.752 5.725v.544c-.002 3.269-3.021 6.035-6.753 6.169z" fill="#6165D7"/><path d="M63.469 270.393c-4.48.162-8.136-3.029-8.136-7.113 0-4.084 3.656-7.525 8.136-7.666 4.48-.141 8.083 3.055 8.083 7.113s-3.616 7.504-8.083 7.666zm0-12.448c-3.072.099-5.561 2.451-5.561 5.245 0 2.793 2.498 4.979 5.56 4.87 3.064-.108 5.541-2.462 5.541-5.244 0-2.782-2.481-4.968-5.54-4.871zM197.813 273.678l-109.93 4.317c-3.718.145-6.733 3.032-6.733 6.45 0 3.416 3.018 6.054 6.733 5.892l109.93-4.791c3.425-.149 6.196-2.92 6.196-6.19.008-3.271-2.771-5.812-6.196-5.678zM63.469 292.568c-4.48.197-8.136-2.966-8.136-7.055 0-4.088 3.656-7.554 8.136-7.727 4.48-.173 8.083 2.992 8.083 7.056 0 4.065-3.616 7.529-8.083 7.726zm0-12.448c-3.072.122-5.561 2.493-5.561 5.287 0 2.793 2.498 4.959 5.56 4.827 3.064-.133 5.541-2.504 5.541-5.286 0-2.783-2.481-4.951-5.54-4.828zM197.813 294.814l-109.93 5.162c-3.718.174-6.733 3.086-6.733 6.502 0 3.417 3.018 6.031 6.733 5.84l109.93-5.637c3.425-.174 6.196-2.968 6.196-6.238.008-3.264-2.771-5.791-6.196-5.629z" fill="#D8DEE8"/><path d="M63.533 313.567h-.126c-3.742.19-6.79-2.324-6.79-5.618v-.548c0-3.295 3.043-6.108 6.79-6.284h.127c3.732-.175 6.752 2.341 6.752 5.621v.545c-.002 3.285-3.021 6.098-6.753 6.284z" fill="#6165D7"/><path d="M63.469 314.743c-4.48.232-8.136-2.91-8.136-6.992 0-4.081 3.656-7.583 8.136-7.792 4.48-.208 8.083 2.931 8.083 6.995 0 4.065-3.616 7.558-8.083 7.789zm0-12.448c-3.072.146-5.561 2.537-5.561 5.335 0 2.799 2.498 4.941 5.56 4.785 3.064-.155 5.541-2.546 5.541-5.334 0-2.789-2.481-4.933-5.54-4.787v.001z" fill="#D8DEE8"/><mask id="w" style="mask-type:luminance" maskUnits="userSpaceOnUse" x="80" y="85" width="103" height="96"><path d="M182.193 134.006c0 25.749-22.148 46.743-49.953 46.893-28.372.152-51.797-21.367-51.797-48.063 0-26.697 23.43-47.678 51.797-46.873 27.815.793 49.953 22.294 49.953 48.043z" fill="#fff"/></mask><g mask="url(#w)"><path d="M125.639 97.807c-9.736-.28-18.976 4.741-23.079 11.723-4.947 8.407 1.657 12.61-1.568 26.29-2.97 12.595-9.908 14.747-8.76 23.016 1.255 9.053 10.732 14.798 14.476 17.068 16.834 10.201 43.11 9.774 56.441-3.395 1.114-1.099 10.311-10.185 7.828-18.538-2.222-7.478-11.747-7.53-13.721-15.301-1.699-6.694 4.81-8.858 4.191-18.56-.122-1.898-.695-10.885-7.94-15.035-4.827-2.768-10.131-1.974-12.074-1.587-2.334-1.735-8.02-5.458-15.794-5.681z" fill="url(#x)"/><path d="M76.222 168.071s49.228-26.685 109.898-.087c0 0-7.717 22.794-53.876 24.346-47.725 1.607-56.022-24.259-56.022-24.259z" fill="url(#y)"/><path d="m123.534 133.33-1.843 12.741c-.629 4.347-3.852 7.981-8.338 9.389l-15 4.706s28.697 12.839 64.88 0l-16.489-5.349c-4.688-1.641-7.875-5.765-8.083-10.45l-.474-10.873-14.653-.164z" fill="url(#z)"/><path d="M145.872 122.35c0 10.747-6.963 22.243-15.6 22.177-8.689-.065-15.773-11.801-15.773-22.665 0-10.864 7.084-16.661 15.773-16.475 8.637.186 15.6 6.214 15.6 16.963z" fill="url(#A)"/><path d="M137.182 112.489c-4.689.137-11.802 1.057-16.723 5.784-8.265 7.938-4.342 20.749-8.023 21.47-3.278.647-8.358-8.503-8.275-18.484.068-8.361 3.147-18.155 11.154-20.455 4.706-1.35 6.09 1.044 21.252 2.763 8.829 1 5.366 4.614 7.351 6.025 8.819 6.263 7.705 26.297 2.962 26.503-2.251.097-5.359-5.178-9.698-23.606z" fill="url(#B)"/></g><path d="M145.819 271.198c-2.979-33.515 19.338-47.441 10.832-77.759-10.525-37.534-51.158-39.209-65.055-76.205-5.111-13.609-7.26-33.88 6.027-62.919l-55.898-2.192c-1.668-.066-3.026 1.109-3.026 2.617v295.281c0 1.51 1.358 2.65 3.026 2.541l152.062-9.78c-35.743-26.59-46.212-51.848-47.968-71.584z" fill="#fff" style="mix-blend-mode:soft-light" opacity=".35"/><path d="m393.548 62.6-152.533-6.178c-3.519-.144-6.379 2.517-6.379 5.942v275.014c0 3.425 2.86 6.013 6.379 5.782l152.533-10.023c3.126-.205 5.658-2.979 5.658-6.196V68.65c-.003-3.213-2.532-5.924-5.658-6.05z" fill="url(#C)"/><path d="M391.918 72.13 241.015 56.422c-3.519-.144-6.379 2.517-6.379 5.942v275.014c0 3.425 2.86 6.013 6.379 5.782l152.533-10.023c3.126-.205 5.658-2.979 5.658-6.196V68.65c-.003-3.213-4.161 3.606-7.288 3.48z" fill="url(#D)"/><path d="m397.117 62.6-152.532-6.178c-3.52-.144-6.379 2.517-6.379 5.942v275.014c0 3.425 2.859 6.013 6.379 5.782l152.532-10.023c3.127-.205 5.658-2.979 5.658-6.196V68.65c-.003-3.213-2.531-5.924-5.658-6.05z" fill="#D8DEE8"/><path d="M334.868 264.082c-2.587-31.257 16.824-44.213 9.426-72.505-9.153-35.006-44.457-36.557-56.505-71.005-4.624-13.213-6.451-33.173 6.78-62.127l-49.984-2.023c-3.52-.144-6.379 2.517-6.379 5.942v275.014c0 3.425 2.859 6.013 6.379 5.782l136.141-8.94c-34.429-26.103-44.266-50.931-45.858-70.138z" fill="#D8DEE8" style="mix-blend-mode:multiply" opacity=".3"/><path d="m397.117 66.04-152.532-5.973a2.464 2.464 0 0 0-2.618 2.441v274.63c0 1.404 1.176 2.469 2.618 2.377l152.532-9.812c1.283-.082 2.326-1.225 2.326-2.546V68.527a2.48 2.48 0 0 0-2.326-2.486z" fill="url(#E)"/><path d="M334.868 264.082c-2.587-31.257 16.824-44.213 9.426-72.505-9.153-35.006-44.457-36.557-56.505-71.005-4.433-12.668-6.296-31.539 5.226-58.609l-48.43-1.896a2.464 2.464 0 0 0-2.618 2.441v274.63c0 1.404 1.176 2.469 2.618 2.377l132.038-8.489c-31.123-24.949-40.229-48.532-41.755-66.944z" fill="#fff" style="mix-blend-mode:soft-light" opacity=".35"/><path d="M323.068 186.955c-28.575.229-52.285-23.063-52.285-51.929a50.62 50.62 0 0 1 32.378-47.352A50.614 50.614 0 0 1 323.07 84.3c27.967.87 50.276 24.148 50.276 51.905s-22.312 50.523-50.278 50.749z" fill="#D8DEE8"/><path d="M369.942 136.167c0 25.921-20.777 47.073-46.874 47.248-26.627.179-48.613-21.466-48.613-48.347a47.075 47.075 0 0 1 48.613-47.226c26.097.776 46.874 22.406 46.874 48.325z" fill="#fff"/><path opacity=".74" d="m380.133 205.229-116.719 1.795c-3.272.05-5.93 2.69-5.93 5.895 0 3.206 2.658 5.754 5.93 5.689l116.719-2.299c2.986-.058 5.401-2.586 5.401-5.633 0-3.054-2.415-5.492-5.401-5.447z" fill="url(#F)"/><path d="m380.133 227.045-95.572 2.281c-3.221.076-5.836 2.718-5.836 5.899 0 3.18 2.615 5.686 5.836 5.594l95.572-2.693c2.986-.085 5.401-2.629 5.401-5.681 0-3.054-2.415-5.472-5.401-5.4z" fill="#D8DEE8"/><path d="M263.46 241.414h-.108c-3.233.092-5.875-2.318-5.875-5.385v-.509c0-3.072 2.634-5.613 5.875-5.691h.108c3.233-.076 5.851 2.335 5.851 5.387v.507c0 3.052-2.616 5.6-5.851 5.691z" fill="#6165D7"/><path d="M263.407 242.502c-3.88.111-7.045-2.892-7.045-6.695 0-3.802 3.165-6.97 7.045-7.063 3.88-.092 7.008 2.91 7.008 6.696 0 3.786-3.139 6.952-7.008 7.062zm0-11.585c-2.654.065-4.816 2.233-4.816 4.832 0 2.6 2.162 4.654 4.816 4.582 2.654-.073 4.798-2.243 4.798-4.832 0-2.59-2.15-4.647-4.798-4.582zM380.133 246.783l-95.572 3.016c-3.221.102-5.836 2.763-5.836 5.944 0 3.18 2.615 5.659 5.836 5.55l95.572-3.43c2.986-.107 5.401-2.669 5.401-5.723s-2.415-5.453-5.401-5.357z" fill="#D8DEE8"/><path d="M263.46 262.05h-.108c-3.233.116-5.875-2.273-5.875-5.335v-.509c0-3.072 2.634-5.634 5.875-5.736h.108c3.233-.102 5.851 2.289 5.851 5.335v.507c0 3.054-2.616 5.621-5.851 5.738z" fill="#6165D7"/><path d="M263.407 263.138c-3.88.14-7.045-2.839-7.045-6.641 0-3.803 3.165-6.995 7.045-7.113 3.88-.118 7.008 2.859 7.008 6.642 0 3.783-3.139 6.971-7.008 7.112zm0-11.585c-2.654.084-4.816 2.263-4.816 4.869s2.162 4.638 4.816 4.543c2.654-.095 4.798-2.278 4.798-4.868 0-2.589-2.15-4.63-4.798-4.544zM380.133 266.523l-95.572 3.752c-3.221.126-5.836 2.808-5.836 5.982 0 3.181 2.615 5.645 5.836 5.506l95.572-4.166c2.986-.129 5.401-2.711 5.401-5.763 0-3.048-2.415-5.432-5.401-5.311z" fill="#D8DEE8"/><path d="M263.46 282.689h-.108c-3.233.142-5.875-2.228-5.875-5.294v-.509c0-3.072 2.634-5.659 5.875-5.781h.108c3.233-.127 5.851 2.245 5.851 5.297v.506c0 3.047-2.616 5.636-5.851 5.781z" fill="#6165D7"/><path d="M263.407 283.774c-3.88.162-7.045-2.784-7.045-6.588 0-3.804 3.165-7.019 7.045-7.17 3.88-.15 7.008 2.805 7.008 6.588s-3.139 7-7.008 7.17zm0-11.585c-2.654.105-4.816 2.306-4.816 4.905 0 2.6 2.162 4.622 4.816 4.507 2.654-.115 4.798-2.315 4.798-4.905 0-2.589-2.15-4.612-4.798-4.507zM380.133 286.257l-95.572 4.488c-3.221.152-5.836 2.853-5.836 6.033 0 3.181 2.615 5.626 5.836 5.461l95.572-4.902c2.986-.152 5.401-2.748 5.401-5.805 0-3.054-2.415-5.416-5.401-5.275z" fill="#D8DEE8"/><path d="M263.46 303.32h-.108c-3.233.162-5.875-2.182-5.875-5.249v-.509c0-3.072 2.634-5.674 5.875-5.82h.108c3.233-.152 5.851 2.2 5.851 5.251v.508c0 3.045-2.616 5.653-5.851 5.819z" fill="#6165D7"/><path d="M263.407 304.41c-3.88.2-7.045-2.73-7.045-6.533 0-3.802 3.165-7.045 7.045-7.224 3.88-.18 7.008 2.748 7.008 6.534 0 3.786-3.139 7.023-7.008 7.223zm0-11.586c-2.654.126-4.816 2.344-4.816 4.943 0 2.6 2.162 4.604 4.816 4.47 2.654-.134 4.798-2.352 4.798-4.942 0-2.59-2.15-4.596-4.798-4.471z" fill="#D8DEE8"/><mask id="G" style="mask-type:luminance" maskUnits="userSpaceOnUse" x="278" y="91" width="89" height="89"><path d="M366.528 136.129c0 24.031-19.279 43.616-43.46 43.747-24.635.131-44.95-19.909-44.95-44.766a43.584 43.584 0 0 1 44.95-43.73c24.181.688 43.46 20.716 43.46 44.749z" fill="#fff"/></mask><g mask="url(#G)"><path d="M274.455 168.036s42.711-24.87 95.487-.08c0 0-6.72 21.267-46.874 22.693-41.422 1.471-48.613-22.613-48.613-22.613z" fill="url(#H)"/><path d="m315.501 135.542-1.6 11.872c-.464 7.563-7.965 10.382-7.965 10.382 8.805 10.442 25.634 10.057 31.524.188-4.066-1.523-8.625-7.791-8.801-12.159l-.413-10.138-12.745-.145z" fill="url(#I)"/><path d="M334.913 125.284c0 10.023-6.053 20.746-13.559 20.693-7.548-.057-13.699-10.983-13.699-21.11 0-10.126 6.151-15.535 13.699-15.372 7.506.155 13.559 5.768 13.559 15.789z" fill="url(#J)"/><path d="m307.248 127.412 2.264-.323c-.346-.835-1.779-4.527 0-7.71 1.703-3.052 5.717-4.48 8.781-4.218 3.479.296 5.568 1.94 7.314.729.979-.677 1.293-1.94 1.409-2.918.109.898.346 1.776.705 2.606 1.293 2.983 3.494 3.639 4.688 5.616.809 1.331 1.329 3.544 0 7.406l1.989-.089a53.221 53.221 0 0 0 2.058-9.022c.774-5.605 1.307-9.462-.891-11.394-.438-.385-2.375-1.916-7.013-.618a16.386 16.386 0 0 0-6.9-4.394c-1.219-.389-7.274-2.316-12.634 1.418-3.65 2.542-6.511 7.374-5.591 11.441.485 2.15 1.817 3.138 2.987 7.299.384 1.367.663 2.761.834 4.171z" fill="url(#K)"/><path d="M333.023 128.957s.87-4.379 3.513-3.902c2.643.477-1.141 7.614-3.513 8.448v-4.546z" fill="url(#L)"/><path d="M309.353 128.626s-.886-4.446-3.586-4.042c-2.7.405 1.167 7.733 3.586 8.636v-4.594z" fill="url(#M)"/></g><path d="M334.868 264.082c-2.587-31.257 16.824-44.213 9.426-72.505-9.153-35.006-44.457-36.557-56.505-71.005-4.624-13.213-6.451-33.173 6.78-62.127l-49.984-2.023c-3.52-.144-6.379 2.517-6.379 5.942v275.014c0 3.425 2.859 6.013 6.379 5.782l136.141-8.94c-34.429-26.103-44.266-50.931-45.858-70.138z" fill="#D8DEE8" style="mix-blend-mode:multiply" opacity=".3"/><path d="m397.117 66.04-152.532-5.973a2.464 2.464 0 0 0-2.618 2.441v274.63c0 1.404 1.176 2.469 2.618 2.377l152.532-9.812c1.283-.082 2.326-1.225 2.326-2.546V68.527a2.48 2.48 0 0 0-2.326-2.486z" fill="url(#N)"/><path d="M334.868 264.082c-2.587-31.257 16.824-44.213 9.426-72.505-9.153-35.006-44.457-36.557-56.505-71.005-4.433-12.668-6.296-31.539 5.226-58.609l-48.43-1.896a2.464 2.464 0 0 0-2.618 2.441v274.63c0 1.404 1.176 2.469 2.618 2.377l132.038-8.489c-31.123-24.949-40.229-48.532-41.755-66.944z" fill="#fff" style="mix-blend-mode:soft-light" opacity=".35"/><path d="M323.068 186.955c-28.575.229-52.285-23.063-52.285-51.929a50.62 50.62 0 0 1 32.378-47.352A50.614 50.614 0 0 1 323.07 84.3c27.967.87 50.276 24.148 50.276 51.905s-22.312 50.523-50.278 50.749z" fill="#D8DEE8"/><path d="M369.942 136.167c0 25.921-20.777 47.073-46.874 47.248-26.627.179-48.613-21.466-48.613-48.347a47.075 47.075 0 0 1 48.613-47.226c26.097.776 46.874 22.406 46.874 48.325z" fill="#fff"/><path opacity=".74" d="m380.133 205.229-116.719 1.795c-3.272.05-5.93 2.69-5.93 5.895 0 3.206 2.658 5.754 5.93 5.689l116.719-2.299c2.986-.058 5.401-2.586 5.401-5.633 0-3.054-2.415-5.492-5.401-5.447z" fill="url(#O)"/><path d="m380.133 227.045-95.572 2.281c-3.221.076-5.836 2.718-5.836 5.899 0 3.18 2.615 5.686 5.836 5.594l95.572-2.693c2.986-.085 5.401-2.629 5.401-5.681 0-3.054-2.415-5.472-5.401-5.4z" fill="#D8DEE8"/><path d="M263.46 241.414h-.108c-3.233.092-5.875-2.318-5.875-5.385v-.509c0-3.072 2.634-5.613 5.875-5.691h.108c3.233-.076 5.851 2.335 5.851 5.387v.507c0 3.052-2.616 5.6-5.851 5.691z" fill="#6165D7"/><path d="M263.407 242.502c-3.88.111-7.045-2.892-7.045-6.695 0-3.802 3.165-6.97 7.045-7.063 3.88-.092 7.008 2.91 7.008 6.696 0 3.786-3.139 6.952-7.008 7.062zm0-11.585c-2.654.065-4.816 2.233-4.816 4.832 0 2.6 2.162 4.654 4.816 4.582 2.654-.073 4.798-2.243 4.798-4.832 0-2.59-2.15-4.647-4.798-4.582zM380.133 246.783l-95.572 3.016c-3.221.102-5.836 2.763-5.836 5.944 0 3.18 2.615 5.659 5.836 5.55l95.572-3.43c2.986-.107 5.401-2.669 5.401-5.723s-2.415-5.453-5.401-5.357z" fill="#D8DEE8"/><path d="M263.46 262.05h-.108c-3.233.116-5.875-2.273-5.875-5.335v-.509c0-3.072 2.634-5.634 5.875-5.736h.108c3.233-.102 5.851 2.289 5.851 5.335v.507c0 3.054-2.616 5.621-5.851 5.738z" fill="#6165D7"/><path d="M263.407 263.138c-3.88.14-7.045-2.839-7.045-6.641 0-3.803 3.165-6.995 7.045-7.113 3.88-.118 7.008 2.859 7.008 6.642 0 3.783-3.139 6.971-7.008 7.112zm0-11.585c-2.654.084-4.816 2.263-4.816 4.869s2.162 4.638 4.816 4.543c2.654-.095 4.798-2.278 4.798-4.868 0-2.589-2.15-4.63-4.798-4.544zM380.133 266.523l-95.572 3.752c-3.221.126-5.836 2.808-5.836 5.982 0 3.181 2.615 5.645 5.836 5.506l95.572-4.166c2.986-.129 5.401-2.711 5.401-5.763 0-3.048-2.415-5.432-5.401-5.311z" fill="#D8DEE8"/><path d="M263.46 282.689h-.108c-3.233.142-5.875-2.228-5.875-5.294v-.509c0-3.072 2.634-5.659 5.875-5.781h.108c3.233-.127 5.851 2.245 5.851 5.297v.506c0 3.047-2.616 5.636-5.851 5.781z" fill="#6165D7"/><path d="M263.407 283.774c-3.88.162-7.045-2.784-7.045-6.588 0-3.804 3.165-7.019 7.045-7.17 3.88-.15 7.008 2.805 7.008 6.588s-3.139 7-7.008 7.17zm0-11.585c-2.654.105-4.816 2.306-4.816 4.905 0 2.6 2.162 4.622 4.816 4.507 2.654-.115 4.798-2.315 4.798-4.905 0-2.589-2.15-4.612-4.798-4.507zM380.133 286.257l-95.572 4.488c-3.221.152-5.836 2.853-5.836 6.033 0 3.181 2.615 5.626 5.836 5.461l95.572-4.902c2.986-.152 5.401-2.748 5.401-5.805 0-3.054-2.415-5.416-5.401-5.275z" fill="#D8DEE8"/><path d="M263.46 303.32h-.108c-3.233.162-5.875-2.182-5.875-5.249v-.509c0-3.072 2.634-5.674 5.875-5.82h.108c3.233-.152 5.851 2.2 5.851 5.251v.508c0 3.045-2.616 5.653-5.851 5.819z" fill="#6165D7"/><path d="M263.407 304.41c-3.88.2-7.045-2.73-7.045-6.533 0-3.802 3.165-7.045 7.045-7.224 3.88-.18 7.008 2.748 7.008 6.534 0 3.786-3.139 7.023-7.008 7.223zm0-11.586c-2.654.126-4.816 2.344-4.816 4.943 0 2.6 2.162 4.604 4.816 4.47 2.654-.134 4.798-2.352 4.798-4.942 0-2.59-2.15-4.596-4.798-4.471z" fill="#D8DEE8"/><mask id="P" style="mask-type:luminance" maskUnits="userSpaceOnUse" x="278" y="91" width="89" height="89"><path d="M366.528 136.129c0 24.031-19.279 43.616-43.46 43.747-24.635.131-44.95-19.909-44.95-44.766a43.584 43.584 0 0 1 44.95-43.73c24.181.688 43.46 20.716 43.46 44.749z" fill="#fff"/></mask><g mask="url(#P)"><path d="M274.455 168.036s42.711-24.87 95.487-.08c0 0-6.72 21.267-46.874 22.693-41.422 1.471-48.613-22.613-48.613-22.613z" fill="url(#Q)"/><path d="m315.501 135.542-1.6 11.872c-.464 7.563-7.965 10.382-7.965 10.382 8.805 10.442 25.634 10.057 31.524.188-4.066-1.523-8.625-7.791-8.801-12.159l-.413-10.138-12.745-.145z" fill="url(#R)"/><path d="M334.913 125.284c0 10.023-6.053 20.746-13.559 20.693-7.548-.057-13.699-10.983-13.699-21.11 0-10.126 6.151-15.535 13.699-15.372 7.506.155 13.559 5.768 13.559 15.789z" fill="url(#S)"/><path d="m307.248 127.412 2.264-.323c-.346-.835-1.779-4.527 0-7.71 1.703-3.052 5.717-4.48 8.781-4.218 3.479.296 5.568 1.94 7.314.729.979-.677 1.293-1.94 1.409-2.918.109.898.346 1.776.705 2.606 1.293 2.983 3.494 3.639 4.688 5.616.809 1.331 1.329 3.544 0 7.406l1.989-.089a53.221 53.221 0 0 0 2.058-9.022c.774-5.605 1.307-9.462-.891-11.394-.438-.385-2.375-1.916-7.013-.618a16.386 16.386 0 0 0-6.9-4.394c-1.219-.389-7.274-2.316-12.634 1.418-3.65 2.542-6.511 7.374-5.591 11.441.485 2.15 1.817 3.138 2.987 7.299.384 1.367.663 2.761.834 4.171z" fill="url(#T)"/><path d="M333.023 128.957s.87-4.379 3.513-3.902c2.643.477-1.141 7.614-3.513 8.448v-4.546z" fill="url(#U)"/><path d="M309.353 128.626s-.886-4.446-3.586-4.042c-2.7.405 1.167 7.733 3.586 8.636v-4.594z" fill="url(#V)"/></g><path d="M308.578 37.796 138.485 23.223c-3.951-.162-7.16 3.044-7.16 7.156V360.61c0 4.113 3.209 7.236 7.16 6.977l171.846-11.285c3.535-.233 6.395-3.565 6.395-7.437V37.468c.005-3.878-4.614.466-8.148.328z" fill="url(#W)"/><path d="M269.426 29.474c0-2.296 1.778-4.143 3.933-4.101l1.474-.078 7.067 2.82v2.576l-12.474-1.217z" fill="url(#X)"/><path d="m314.917 30.187-171.846-6.964c-3.951-.162-7.16 3.044-7.16 7.156V360.61c0 4.113 3.209 7.236 7.16 6.977l171.846-11.285c3.536-.233 6.395-3.565 6.395-7.437V37.468c.005-3.878-2.854-7.132-6.395-7.281z" fill="#D8DEE8"/><path d="M244.635 272.868c-2.92-37.623 18.974-53.186 10.629-87.255-10.322-42.14-50.083-43.994-63.646-85.404-5.201-15.875-7.255-39.864 7.627-74.709l-56.174-2.277c-3.951-.162-7.16 3.044-7.16 7.156V360.61c0 4.113 3.209 7.236 7.16 6.977l153.323-10.068c-38.867-31.603-49.965-61.528-51.759-84.651z" fill="#D8DEE8" style="mix-blend-mode:multiply" opacity=".3"/><path d="m314.917 34.334-171.846-6.73c-1.616-.063-2.937 1.256-2.937 2.94v329.789c0 1.685 1.317 2.97 2.937 2.867l171.846-11.055c1.455-.093 2.63-1.464 2.63-3.057V37.324c.005-1.592-1.175-2.934-2.63-2.99z" fill="url(#Y)"/><path d="M231.338 180.034c-32.17.259-58.844-27.746-58.844-62.435 0-34.69 26.674-62.078 58.844-61.074 31.524.981 56.724 28.97 56.724 62.401 0 33.432-25.2 60.856-56.724 61.108z" fill="#D8DEE8"/><path d="M284.213 118.887c0 31.224-23.454 56.692-52.878 56.889-29.983.202-54.711-25.822-54.711-58.127 0-32.305 24.734-57.76 54.711-56.868 29.426.875 52.878 26.883 52.878 58.106z" fill="#fff"/><path opacity=".74" d="m295.723 202.09-131.515 2.02c-3.676.057-6.662 3.234-6.662 7.076 0 3.853 2.986 6.916 6.662 6.843l131.515-2.586c3.374-.066 6.105-3.102 6.105-6.79-.005-3.674-2.731-6.615-6.105-6.563z" fill="url(#Z)"/><path d="m295.723 228.371-107.736 2.572c-3.621.086-6.563 3.256-6.563 7.079s2.942 6.838 6.563 6.737l107.736-3.036c3.374-.096 6.105-3.156 6.105-6.836-.005-3.676-2.731-6.594-6.105-6.516z" fill="#D8DEE8"/><path d="M164.268 245.431h-.121a6.425 6.425 0 0 1-4.681-1.836 6.422 6.422 0 0 1-1.92-4.647v-.611c0-3.682 2.959-6.738 6.601-6.825h.121a6.418 6.418 0 0 1 6.573 6.484v.61c0 3.668-2.939 6.723-6.573 6.825z" fill="#6165D7"/><path d="M164.209 246.737c-4.365.125-7.922-3.49-7.922-8.059 0-4.568 3.557-8.367 7.922-8.469 4.364-.102 7.874 3.513 7.874 8.059 0 4.546-3.527 8.345-7.874 8.469zm0-13.919c-2.982.073-5.411 2.672-5.411 5.796 0 3.123 2.425 5.596 5.411 5.514 2.985-.082 5.391-2.682 5.391-5.796 0-3.113-2.417-5.585-5.391-5.514zM295.723 252.156l-107.736 3.395c-3.621.115-6.563 3.308-6.563 7.129 0 3.824 2.942 6.818 6.563 6.688l107.736-3.867c3.374-.121 6.105-3.202 6.105-6.882-.005-3.674-2.731-6.57-6.105-6.463z" fill="#D8DEE8"/><path d="M164.268 270.223h-.121c-3.642.131-6.601-2.748-6.601-6.43v-.613c0-3.683 2.959-6.761 6.601-6.876h.121c3.634-.114 6.573 2.766 6.573 6.435v.609c0 3.66-2.939 6.746-6.573 6.875z" fill="#6165D7"/><path d="M164.209 271.535c-4.365.161-7.922-3.431-7.922-7.998s3.557-8.397 7.922-8.532c4.364-.136 7.874 3.453 7.874 7.999 0 4.546-3.527 8.369-7.874 8.531zm0-13.92c-2.982.096-5.411 2.715-5.411 5.836 0 3.122 2.425 5.579 5.411 5.473 2.985-.107 5.391-2.723 5.391-5.836 0-3.114-2.417-5.571-5.391-5.476v.003zM295.723 275.937l-107.736 4.23c-3.621.142-6.563 3.356-6.563 7.18 0 3.823 2.942 6.789 6.563 6.628l107.736-4.688c3.374-.148 6.105-3.25 6.105-6.929-.005-3.678-2.731-6.554-6.105-6.421zM164.209 296.324c-4.365.192-7.922-3.368-7.922-7.936 0-4.569 3.557-8.423 7.922-8.593 4.364-.169 7.874 3.395 7.874 7.938 0 4.543-3.527 8.4-7.874 8.591zm0-13.919c-2.982.119-5.411 2.748-5.411 5.879 0 3.132 2.425 5.56 5.411 5.43 2.985-.129 5.391-2.766 5.391-5.878s-2.417-5.549-5.391-5.431zM295.723 299.719l-107.736 5.058c-3.621.162-6.563 3.408-6.563 7.231s2.942 6.77 6.563 6.586l107.736-5.525c3.374-.173 6.105-3.295 6.105-6.976-.005-3.681-2.731-6.533-6.105-6.374z" fill="#D8DEE8"/><path d="M164.268 319.81h-.121c-3.642.186-6.601-2.648-6.601-6.331v-.611c0-3.683 2.959-6.807 6.601-6.977h.121c3.634-.172 6.573 2.664 6.573 6.332v.61c0 3.666-2.939 6.791-6.573 6.977z" fill="#6165D7"/><path d="M164.209 321.118c-4.365.224-7.922-3.308-7.922-7.876 0-4.569 3.557-8.45 7.922-8.653 4.364-.202 7.874 3.332 7.874 7.878s-3.527 8.426-7.874 8.651zm0-13.919c-2.982.14-5.411 2.796-5.411 5.92 0 3.123 2.425 5.54 5.411 5.389 2.985-.15 5.391-2.808 5.391-5.92s-2.417-5.53-5.391-5.389z" fill="#D8DEE8"/><mask id="aa" style="mask-type:luminance" maskUnits="userSpaceOnUse" x="180" y="65" width="101" height="107"><path d="M280.355 118.844c0 28.937-21.756 52.527-49.02 52.674-27.743.149-50.6-23.947-50.6-53.822 0-29.875 22.849-53.444 50.6-52.656 27.264.774 49.02 24.857 49.02 53.804z" fill="#fff"/></mask><g mask="url(#aa)"><path d="M242.629 82.278c.444-3.09 6.549-5.335 11.722-4.91 14.15 1.169 29.121 22.987 25.437 37.319-3.233 12.56-19.516 14.569-19.04 24.613.362 7.636 10.034 11.532 8.868 14.033-1.223 2.628-13.497 1.763-20.083-6.43-6.217-7.737-4.777-18.79-4.292-22.551 2.047-15.777 11.761-20.646 9.115-28.98-2.432-7.647-12.316-9.01-11.727-13.094z" fill="url(#ab)"/><path d="M176.624 157.123s48.062-29.907 107.589-.084c0 0-7.598 25.614-52.878 27.3-46.626 1.736-54.711-27.216-54.711-27.216z" fill="url(#ac)"/><path d="m222.811 118.181-1.803 14.284c-.614 4.874-3.768 8.95-8.152 10.531l-14.658 5.278s28.05 14.388 63.515-.011l-16.174-5.999c-4.59-1.838-7.716-6.467-7.922-11.721l-.459-12.197-14.347-.165z" fill="url(#ad)"/><path d="M224.71 127.85c-7.37-2.102-11.316-8.525-13.66-12.332-3.925-6.38-9.341-19.588-4.242-27.093 2.263-3.331 4.113-1.87 17.702-8.168 7.986-3.702 9.008-4.981 11.963-4.61 8.338 1.053 13.185 12.934 13.836 14.53.857 2.1 5.764 14.127-.392 25.396-4.951 9.034-15.591 15.025-25.207 12.277z" fill="url(#ae)"/><path d="M244.687 105.82c0 12.062-6.824 24.97-15.282 24.906-8.504-.063-15.431-13.203-15.431-25.381s6.927-18.695 15.431-18.512c8.458.18 15.282 6.924 15.282 18.987z" fill="url(#af)"/><path d="M213.463 113.192c1.465-.066-.646-12.742 5.028-16.185 3.77-2.286 10.314-.09 13.993 4.086 5.802 6.583 2.556 15.916 6.952 17.961 2.79 1.293 6.515-1.35 8.299-3.296 5.576-6.081 4.816-19.094-1.778-26.513-5.251-5.917-12.378-6.235-14.064-6.255-9.7-.114-18.603 7.437-20.643 16.462-1.575 6.929 1.128 13.789 2.213 13.74z" fill="url(#ag)"/></g><path d="M244.635 272.868c-2.92-37.623 18.974-53.186 10.629-87.255-10.322-42.14-50.083-43.994-63.646-85.404-4.986-15.22-7.081-37.9 5.88-70.475l-54.427-2.13c-1.616-.063-2.937 1.256-2.937 2.94v329.789c0 1.685 1.317 2.97 2.937 2.867l148.687-9.564c-35.133-30.179-45.401-58.602-47.123-80.768z" fill="#fff" style="mix-blend-mode:soft-light" opacity=".35"/><path d="m314.917 30.187-171.846-6.964c-3.951-.162-7.16 3.044-7.16 7.156V360.61c0 4.113 3.209 7.236 7.16 6.977l171.846-11.285c3.536-.233 6.395-3.565 6.395-7.437V37.468c.005-3.878-2.854-7.132-6.395-7.281z" fill="#D8DEE8"/><path d="M244.635 272.868c-2.92-37.623 18.974-53.186 10.629-87.255-10.322-42.14-50.083-43.994-63.646-85.404-5.201-15.875-7.255-39.864 7.627-74.709l-56.174-2.277c-3.951-.162-7.16 3.044-7.16 7.156V360.61c0 4.113 3.209 7.236 7.16 6.977l153.323-10.068c-38.867-31.603-49.965-61.528-51.759-84.651z" fill="#D8DEE8" style="mix-blend-mode:multiply" opacity=".3"/><path d="m314.917 34.334-171.846-6.73c-1.616-.063-2.937 1.256-2.937 2.94v329.789c0 1.685 1.317 2.97 2.937 2.867l171.846-11.055c1.455-.093 2.63-1.464 2.63-3.057V37.324c.005-1.592-1.175-2.934-2.63-2.99z" fill="url(#ah)"/><path d="M231.338 180.034c-32.17.259-58.844-27.746-58.844-62.435 0-34.69 26.674-62.078 58.844-61.074 31.524.981 56.724 28.97 56.724 62.401 0 33.432-25.2 60.856-56.724 61.108z" fill="#D8DEE8"/><path d="M284.213 118.887c0 31.224-23.454 56.692-52.878 56.889-29.983.202-54.711-25.822-54.711-58.127 0-32.305 24.734-57.76 54.711-56.868 29.426.875 52.878 26.883 52.878 58.106z" fill="#fff"/><path opacity=".74" d="m295.723 202.09-131.515 2.02c-3.676.057-6.662 3.234-6.662 7.076 0 3.853 2.986 6.916 6.662 6.843l131.515-2.586c3.374-.066 6.105-3.102 6.105-6.79-.005-3.674-2.731-6.615-6.105-6.563z" fill="url(#ai)"/><path d="m295.723 228.371-107.736 2.572c-3.621.086-6.563 3.256-6.563 7.079s2.942 6.838 6.563 6.737l107.736-3.036c3.374-.096 6.105-3.156 6.105-6.836-.005-3.676-2.731-6.594-6.105-6.516z" fill="#D8DEE8"/><path d="M164.268 245.431h-.121a6.425 6.425 0 0 1-4.681-1.836 6.422 6.422 0 0 1-1.92-4.647v-.611c0-3.682 2.959-6.738 6.601-6.825h.121a6.418 6.418 0 0 1 6.573 6.484v.61c0 3.668-2.939 6.723-6.573 6.825z" fill="#6165D7"/><path d="M164.209 246.737c-4.365.125-7.922-3.49-7.922-8.059 0-4.568 3.557-8.367 7.922-8.469 4.364-.102 7.874 3.513 7.874 8.059 0 4.546-3.527 8.345-7.874 8.469zm0-13.919c-2.982.073-5.411 2.672-5.411 5.796 0 3.123 2.425 5.596 5.411 5.514 2.985-.082 5.391-2.682 5.391-5.796 0-3.113-2.417-5.585-5.391-5.514zM295.723 252.156l-107.736 3.395c-3.621.115-6.563 3.308-6.563 7.129 0 3.824 2.942 6.818 6.563 6.688l107.736-3.867c3.374-.121 6.105-3.202 6.105-6.882-.005-3.674-2.731-6.57-6.105-6.463z" fill="#D8DEE8"/><path d="M164.268 270.223h-.121c-3.642.131-6.601-2.748-6.601-6.43v-.613c0-3.683 2.959-6.761 6.601-6.876h.121c3.634-.114 6.573 2.766 6.573 6.435v.609c0 3.66-2.939 6.746-6.573 6.875z" fill="#6165D7"/><path d="M164.209 271.535c-4.365.161-7.922-3.431-7.922-7.998s3.557-8.397 7.922-8.532c4.364-.136 7.874 3.453 7.874 7.999 0 4.546-3.527 8.369-7.874 8.531zm0-13.92c-2.982.096-5.411 2.715-5.411 5.836 0 3.122 2.425 5.579 5.411 5.473 2.985-.107 5.391-2.723 5.391-5.836 0-3.114-2.417-5.571-5.391-5.476v.003zM295.723 275.937l-107.736 4.23c-3.621.142-6.563 3.356-6.563 7.18 0 3.823 2.942 6.789 6.563 6.628l107.736-4.688c3.374-.148 6.105-3.25 6.105-6.929-.005-3.678-2.731-6.554-6.105-6.421zM164.209 296.324c-4.365.192-7.922-3.368-7.922-7.936 0-4.569 3.557-8.423 7.922-8.593 4.364-.169 7.874 3.395 7.874 7.938 0 4.543-3.527 8.4-7.874 8.591zm0-13.919c-2.982.119-5.411 2.748-5.411 5.879 0 3.132 2.425 5.56 5.411 5.43 2.985-.129 5.391-2.766 5.391-5.878s-2.417-5.549-5.391-5.431zM295.723 299.719l-107.736 5.058c-3.621.162-6.563 3.408-6.563 7.231s2.942 6.77 6.563 6.586l107.736-5.525c3.374-.173 6.105-3.295 6.105-6.976-.005-3.681-2.731-6.533-6.105-6.374z" fill="#D8DEE8"/><path d="M164.268 319.81h-.121c-3.642.186-6.601-2.648-6.601-6.331v-.611c0-3.683 2.959-6.807 6.601-6.977h.121c3.634-.172 6.573 2.664 6.573 6.332v.61c0 3.666-2.939 6.791-6.573 6.977z" fill="#6165D7"/><path d="M164.209 321.118c-4.365.224-7.922-3.308-7.922-7.876 0-4.569 3.557-8.45 7.922-8.653 4.364-.202 7.874 3.332 7.874 7.878s-3.527 8.426-7.874 8.651zm0-13.919c-2.982.14-5.411 2.796-5.411 5.92 0 3.123 2.425 5.54 5.411 5.389 2.985-.15 5.391-2.808 5.391-5.92s-2.417-5.53-5.391-5.389z" fill="#D8DEE8"/><mask id="aj" style="mask-type:luminance" maskUnits="userSpaceOnUse" x="180" y="65" width="101" height="107"><path d="M280.355 118.844c0 28.937-21.756 52.527-49.02 52.674-27.743.149-50.6-23.947-50.6-53.822 0-29.875 22.849-53.444 50.6-52.656 27.264.774 49.02 24.857 49.02 53.804z" fill="#fff"/></mask><g mask="url(#aj)"><path d="M206.801 88.425c8.704-7.366 31.363 7.34 33.56 8.79 1.22.808 29.873 20.069 25.437 37.32-3.233 12.557-19.514 14.567-19.039 24.612.362 7.636 10.034 11.53 8.869 14.033-.889 1.909-10.262-2.918-20.083-6.431-26.227-9.377-40.566-4.325-43.649-11.748-2.567-6.189 7.243-10.067 12.23-25.48 6.802-21.011-4.585-34.95 2.675-41.095z" fill="url(#ak)"/><path d="M176.624 157.123s48.062-29.907 107.589-.084c0 0-7.598 25.614-52.878 27.3-46.626 1.736-54.711-27.216-54.711-27.216z" fill="url(#al)"/><path d="m222.811 118.181-1.803 14.284c-.614 4.874-3.768 8.95-8.152 10.531l-14.658 5.278s28.05 14.388 63.515-.011l-16.174-5.999c-4.59-1.838-7.716-6.467-7.922-11.721l-.459-12.197-14.347-.165z" fill="url(#am)"/><path d="M224.71 127.85c-7.37-2.102-11.316-8.525-13.66-12.332-3.925-6.38-9.341-19.588-4.242-27.093 2.263-3.331 4.113-1.87 17.702-8.168 7.986-3.702 9.008-4.981 11.963-4.61 8.338 1.053 13.185 12.934 13.836 14.53.857 2.1 5.764 14.127-.392 25.396-4.951 9.034-15.591 15.025-25.207 12.277z" fill="url(#an)"/><path d="M244.687 105.82c0 12.062-6.824 24.97-15.282 24.906-8.504-.063-15.431-13.203-15.431-25.381s6.927-18.695 15.431-18.512c8.458.18 15.282 6.924 15.282 18.987z" fill="url(#ao)"/><path d="M213.463 113.192c1.465-.066-.646-12.742 5.028-16.185 3.77-2.286 10.314-.09 13.993 4.086 5.802 6.583 2.556 15.916 6.952 17.961 2.79 1.293 6.515-1.35 8.299-3.296 5.576-6.08 4.816-19.094-1.778-26.513-5.251-5.917-12.378-6.235-14.064-6.255-9.7-.114-18.603 7.437-20.643 16.463-1.575 6.928 1.128 13.788 2.213 13.739z" fill="url(#ap)"/></g><path d="M244.635 272.868c-2.92-37.623 18.974-53.186 10.629-87.255-10.322-42.14-50.083-43.994-63.646-85.404-4.986-15.22-7.081-37.9 5.88-70.475l-54.427-2.13c-1.616-.063-2.937 1.256-2.937 2.94v329.789c0 1.685 1.317 2.97 2.937 2.867l148.687-9.564c-35.133-30.179-45.401-58.602-47.123-80.768z" fill="#fff" style="mix-blend-mode:soft-light" opacity=".35"/><path d="m307.448 76.324-15.731-12.471-15.893 11.71v-39.35a10.466 10.466 0 0 0-3.747-7.997l-.123-.101 29.995 1.177c3.039.12 5.496 2.762 5.496 5.905l.003 41.127z" fill="#D8DEE8" style="mix-blend-mode:multiply"/><path d="m310.328 76.324-15.732-13.2-15.891 12.395V33.866a11.344 11.344 0 0 0-3.747-8.462l-.123-.109 29.993 1.247c3.041.126 5.496 2.924 5.496 6.25l.004 43.532z" fill="url(#aq)"/><path d="M363.516 434.295s.401 3.193.132 4.262c-.268 1.068-9.552 1.842-12.703 1.471-3.151-.372 1.877-3.591 3.88-4.204 2.003-.612 8.691-1.529 8.691-1.529z" fill="url(#ar)"/><path d="m358.844 428.968.978 6.405s2.494 1.122 3.694.013l.132-6.704-4.804.286z" fill="url(#as)"/><path d="M411.173 428.682s-1.97 1.455-1.445 3.212c.526 1.758 5.122 8.764 8.397 10.756 3.275 1.991 2.249-2.158 1.293-4.74-.955-2.582-3.395-8.274-4.339-9.228-.944-.954-3.906 0-3.906 0z" fill="url(#at)"/><path d="M407.63 421.645a92.052 92.052 0 0 0 2.586 6.446c1.586 3.556 2.453 4.896 3.433 6.054.856 1.009 2.88 3.162 3.425 2.803.545-.359-.928-2.981-3.784-10.645-.416-1.113-1.725-4.658-1.725-4.658h-3.935z" fill="url(#au)"/><path d="M339.403 310.749a165.82 165.82 0 0 0-.356 29.584c1.271 16.371 4.544 26.732 8.649 44.188 2.509 10.67 5.889 26.369 8.949 46.006.71.406 2.799 1.474 5.487 1.075a8.326 8.326 0 0 0 3.296-1.251c8.027-24.529 5.659-39.729 1.779-49.199-1.652-4.041-3.654-7.221-4.724-13.426-1.416-8.211.335-12.798 2.831-31.816 1.778-13.554 1.472-15.649.287-17.681-4.727-8.12-19.203-7.962-26.198-7.48z" fill="url(#av)"/><path d="M367.032 313.6c4.917 25.396 9.745 38.734 13.397 46.278a126.82 126.82 0 0 1 6.751 16.468c2.515 7.618 3.556 13.221 4.099 15.681 1.696 7.786 5.886 19.151 17.161 34.059.14.082 2.062 1.169 3.901.2a3.777 3.777 0 0 0 1.577-1.637 657.433 657.433 0 0 0-4.634-35.474 754.78 754.78 0 0 0-3.795-21.627c-.832-4.385-2.053-10.81-3.514-17.411-1.82-8.218-4.611-19.399-8.913-32.797l-26.03-3.74z" fill="url(#aw)"/><path d="M362.843 213.154c-2.788-2.577-8.123-5.548-10.799-12.458-.808-2.079-3.66-9.446.55-15.083 2.498-3.345 7.139-5.616 11.231-4.813 3.495.688 4.041 3.122 9.981 8.022 2.313 1.908 6.028 4.973 10.165 6.678 7.085 2.92 11.344.172 18.458.485 8.74.385 18.892 5.262 23.784 12.356 8.683 12.589-3.894 25.36 5.614 40.108 3.117 4.831 4.653 3.748 12.033 13.095 7.38 9.347 11.085 14.048 10.429 19.786-.914 7.965-9.491 15.572-17.57 16.088-7.89.506-12.907-5.702-16.922-2.986-2.86 1.94-1.226 5.691-4.262 10.208-3.915 5.819-11.609 6.985-12.852 7.171-11.533 1.741-27.085-11.784-33.69-27.806-11.91-28.889 9.013-56.837-6.15-70.851z" fill="url(#ax)"/><path d="M315.517 221.175c-.078-8.065 18.243-14.51 26.625-16.586 13.04-3.233 23.483-1.203 26.018-.666 16.263 3.447 26.391 13.204 30.203 17.298-3.12 2.032-11.735 8.235-16.004 20-1.327 3.66-5.249 16.176.359 27.898 3.233 6.755 8.948 11.826 13.29 15.681 6.512 5.778 9.884 6.666 12.066 11.841 2.378 5.635-.017 8.383 2.935 12.242 3.17 4.144 6.885 2.218 12.26 6.408 5.496 4.291 3.545 7.823 8.555 12.566 7.275 6.892 16.931 4.655 17.38 7.76.387 2.668-6.466 6.285-12.299 7.76-11.541 2.91-21.606-1.972-24.6-3.476-8.287-4.163-6.854-6.858-13.174-10.033-10.579-5.313-17.808.6-41.906 1.21-13.049.323-19.648.404-23.263-4.011-3.301-4.042-1.564-8.457.416-27.52.942-9.072 1.283-18.2 1.979-27.295 1.965-25.728 2.025-27.991.279-31.55-6.248-12.75-21.05-12.287-21.119-19.527z" fill="url(#ay)"/><path d="M431.827 327.861c-5.011-4.744-3.05-8.276-8.555-12.566-5.375-4.191-9.09-2.264-12.26-6.409-2.952-3.859-.556-6.607-2.934-12.242-2.183-5.173-5.555-6.063-12.067-11.84-4.342-3.851-10.058-8.922-13.29-15.682-5.608-11.722-1.686-24.237-.359-27.897 4.266-11.766 12.881-17.969 16.005-20.001a44.643 44.643 0 0 0-1.033-1.082c-20.567 2.828-32.559 14.712-34.041 18.229-3.429 8.135 1.998 11.124 2.138 34.583.067 11.213-1.142 15.641 2.496 20.321 4.162 5.352 8.957 3.697 14.974 10.695 4.623 5.377 3.879 8.787 8.199 11.051 4.641 2.437 7.598-.402 12.834.715 8.748 1.864 10.617 11.95 16.399 17.459 4.373 4.173 12.458 7.091 28.403 3.959.368-.536.546-1.062.475-1.552-.453-3.087-10.104-.85-17.384-7.741z" fill="url(#az)" style="mix-blend-mode:multiply" opacity=".3"/><path d="M369.528 244.699c-2.186 4.643 7.86 15.456 19.026 20.591 2.274 1.046 18.612 8.558 25.895 1.335 6.015-5.97 2.132-18.313.747-22.718-6.808-21.639-27.714-32.645-36.474-36.615-6.54 16.349-2.689 23.635-1.172 25.909 1.582 2.377 6.002 7.367 10.695 11.764 3.301 3.093 5.356 4.598 5.079 5.082-.342.599-4.212-.534-19.237-7.849-1.748.288-3.812.921-4.559 2.501z" fill="url(#aA)"/><path d="m306.64 218.033 7.375 36.724a3.013 3.013 0 0 0 2.322 2.354l54.987 11.801a3 3 0 0 0 1.388-.029 3.003 3.003 0 0 0 2.035-1.777c.177-.435.251-.904.214-1.372l-2.909-37.344a3.009 3.009 0 0 0-2.281-2.691c-8.722-2.154-42.296-10.216-60.003-11.263a3.012 3.012 0 0 0-3.084 2.235c-.118.445-.133.91-.044 1.362z" fill="url(#aB)"/><path d="M361.485 191.21s1.038 8.291 4.099 10.185c3.06 1.893 8.007 4.379 8.553 5.053.547.674-18.96 2.769-28.625-2.102 3.186-.664 4.051-.908 4.051-.908.865-.244 2.478-.698 4.095-1.617a13.933 13.933 0 0 0 4.5-4.162l-.035-4.592 3.362-1.857z" fill="url(#aC)"/><path d="M361.951 194.147s-1.995 2.739-5.125 1.597c-2.801-1.021-1.131-8.259 1.093-9.083.742-.277 2.102-.162 3.014.414.646.399 2.349 2.521 1.369 4.901.708-.205 1.33-.019 1.487.331.197.445-.402 1.051-.538 1.187a2.367 2.367 0 0 1-1.3.653z" fill="url(#aD)"/><path style="mix-blend-mode:multiply" opacity=".3" d="M356.159 249.786c-5.906-1.665-10.802 2.469-15.508-.808-4.82-3.351-1.674-9.076-6.685-14.711-5.358-6.021-12.154-3.072-17.112-8.557-1.841-2.037-3.497-5.356-3.523-11.012a89.87 89.87 0 0 0-3.556-.283 3.022 3.022 0 0 0-2.455 1.03 3.021 3.021 0 0 0-.68 2.575l7.375 36.726a3.01 3.01 0 0 0 2.322 2.352l52.845 11.342c-3.731-13.072-8.71-17.436-13.023-18.654z" fill="url(#aE)"/><path d="M310.505 237.569s-3.506-3.241-3.88-7.008c-.373-3.766 2.264-6.78 4.829-7.548 2.566-.767 3.933.364 2.212 4.073-1.722 3.708-4.461 6.115-3.161 10.483z" fill="url(#aF)"/></g><defs><linearGradient id="T" x1="322.073" y1="102.943" x2="317.832" y2="129.125" gradientUnits="userSpaceOnUse"><stop stop-color="#444B8C"/><stop offset="1" stop-color="#26264F"/></linearGradient><linearGradient id="b" x1="305.329" y1="135.619" x2="459.412" y2="135.619" gradientUnits="userSpaceOnUse"><stop stop-color="#6165D7"/><stop offset="1" stop-color="#30ABBA"/></linearGradient><linearGradient id="f" x1="200.686" y1="452.34" x2="168.858" y2="465.707" gradientUnits="userSpaceOnUse"><stop stop-color="#40447E"/><stop offset="1" stop-color="#3C3B6B"/></linearGradient><linearGradient id="g" x1="158.185" y1="312.065" x2="123.644" y2="326.572" gradientUnits="userSpaceOnUse"><stop stop-color="#40447E"/><stop offset="1" stop-color="#3C3B6B"/></linearGradient><linearGradient id="h" x1="9.308" y1="319.918" x2="329.41" y2="319.918" gradientUnits="userSpaceOnUse"><stop stop-color="#40447E"/><stop offset="1" stop-color="#3C3B6B"/></linearGradient><linearGradient id="i" x1="9.308" y1="438.29" x2="462.385" y2="438.29" gradientUnits="userSpaceOnUse"><stop stop-color="#40447E"/><stop offset="1" stop-color="#3C3B6B"/></linearGradient><linearGradient id="j" x1="53.739" y1="434.578" x2="385.706" y2="434.578" gradientUnits="userSpaceOnUse"><stop stop-color="#40447E"/><stop offset="1" stop-color="#3C3B6B"/></linearGradient><linearGradient id="k" x1="30.78" y1="202.348" x2="220.2" y2="202.348" gradientUnits="userSpaceOnUse"><stop stop-color="#444B8C"/><stop offset="1" stop-color="#26264F"/></linearGradient><linearGradient id="l" x1="30.78" y1="202.348" x2="220.2" y2="202.348" gradientUnits="userSpaceOnUse"><stop stop-color="#444B8C"/><stop offset="1" stop-color="#26264F"/></linearGradient><linearGradient id="m" x1="210.138" y1="64.417" x2="88.08" y2="264.147" gradientUnits="userSpaceOnUse"><stop stop-color="#fff"/><stop offset="1" stop-color="#EBEFF2"/></linearGradient><linearGradient id="n" x1="56.621" y1="215.288" x2="204.009" y2="215.288" gradientUnits="userSpaceOnUse"><stop stop-color="#AA80F9"/><stop offset="1" stop-color="#6165D7"/></linearGradient><linearGradient id="p" x1="148.879" y1="96.746" x2="133.946" y2="143.04" gradientUnits="userSpaceOnUse"><stop stop-color="#AB316D"/><stop offset="1" stop-color="#792D3D"/></linearGradient><linearGradient id="q" x1="76.222" y1="174.294" x2="186.12" y2="174.294" gradientUnits="userSpaceOnUse"><stop stop-color="#FC9D8A"/><stop offset="1" stop-color="#FC9D8A"/></linearGradient><linearGradient id="r" x1="130.676" y1="137.666" x2="130.87" y2="175.362" gradientUnits="userSpaceOnUse"><stop stop-color="#F36F56"/><stop offset="1" stop-color="#FFC444"/></linearGradient><linearGradient id="s" x1="136.016" y1="82.911" x2="127.281" y2="141.775" gradientUnits="userSpaceOnUse"><stop stop-color="#F36F56"/><stop offset="1" stop-color="#FFC444"/></linearGradient><linearGradient id="t" x1="137.235" y1="92.47" x2="121.945" y2="139.866" gradientUnits="userSpaceOnUse"><stop stop-color="#AB316D"/><stop offset="1" stop-color="#792D3D"/></linearGradient><linearGradient id="u" x1="210.138" y1="64.417" x2="88.08" y2="264.147" gradientUnits="userSpaceOnUse"><stop stop-color="#fff"/><stop offset="1" stop-color="#EBEFF2"/></linearGradient><linearGradient id="v" x1="56.621" y1="215.288" x2="204.009" y2="215.288" gradientUnits="userSpaceOnUse"><stop stop-color="#AA80F9"/><stop offset="1" stop-color="#6165D7"/></linearGradient><linearGradient id="x" x1="148.879" y1="96.746" x2="133.946" y2="143.04" gradientUnits="userSpaceOnUse"><stop stop-color="#AB316D"/><stop offset="1" stop-color="#792D3D"/></linearGradient><linearGradient id="y" x1="76.222" y1="174.294" x2="186.12" y2="174.294" gradientUnits="userSpaceOnUse"><stop stop-color="#FC9D8A"/><stop offset="1" stop-color="#FC9D8A"/></linearGradient><linearGradient id="z" x1="130.676" y1="137.666" x2="130.87" y2="175.362" gradientUnits="userSpaceOnUse"><stop stop-color="#F36F56"/><stop offset="1" stop-color="#FFC444"/></linearGradient><linearGradient id="A" x1="136.016" y1="82.911" x2="127.281" y2="141.775" gradientUnits="userSpaceOnUse"><stop stop-color="#F36F56"/><stop offset="1" stop-color="#FFC444"/></linearGradient><linearGradient id="B" x1="137.235" y1="92.47" x2="121.945" y2="139.866" gradientUnits="userSpaceOnUse"><stop stop-color="#AB316D"/><stop offset="1" stop-color="#792D3D"/></linearGradient><linearGradient id="C" x1="234.636" y1="199.796" x2="399.203" y2="199.796" gradientUnits="userSpaceOnUse"><stop stop-color="#444B8C"/><stop offset="1" stop-color="#26264F"/></linearGradient><linearGradient id="D" x1="234.636" y1="199.796" x2="399.203" y2="199.796" gradientUnits="userSpaceOnUse"><stop stop-color="#444B8C"/><stop offset="1" stop-color="#26264F"/></linearGradient><linearGradient id="E" x1="394.795" y1="73.611" x2="283.173" y2="256.266" gradientUnits="userSpaceOnUse"><stop stop-color="#fff"/><stop offset="1" stop-color="#EBEFF2"/></linearGradient><linearGradient id="F" x1="257.477" y1="211.919" x2="385.534" y2="211.919" gradientUnits="userSpaceOnUse"><stop stop-color="#AA80F9"/><stop offset="1" stop-color="#6165D7"/></linearGradient><linearGradient id="H" x1="274.455" y1="173.836" x2="369.942" y2="173.836" gradientUnits="userSpaceOnUse"><stop stop-color="#AB316D"/><stop offset="1" stop-color="#792D3D"/></linearGradient><linearGradient id="I" x1="321.601" y1="139.536" x2="321.778" y2="174.25" gradientUnits="userSpaceOnUse"><stop stop-color="#F36F56"/><stop offset="1" stop-color="#FFC444"/></linearGradient><linearGradient id="J" x1="326.678" y1="91.883" x2="317.955" y2="145.757" gradientUnits="userSpaceOnUse"><stop stop-color="#F36F56"/><stop offset="1" stop-color="#FFC444"/></linearGradient><linearGradient id="K" x1="322.073" y1="102.943" x2="317.832" y2="129.125" gradientUnits="userSpaceOnUse"><stop stop-color="#444B8C"/><stop offset="1" stop-color="#26264F"/></linearGradient><linearGradient id="L" x1="340.604" y1="94.656" x2="331.961" y2="148.028" gradientUnits="userSpaceOnUse"><stop stop-color="#F36F56"/><stop offset="1" stop-color="#FFC444"/></linearGradient><linearGradient id="M" x1="313.63" y1="89.116" x2="304.807" y2="143.607" gradientUnits="userSpaceOnUse"><stop stop-color="#F36F56"/><stop offset="1" stop-color="#FFC444"/></linearGradient><linearGradient id="N" x1="394.795" y1="73.611" x2="283.173" y2="256.266" gradientUnits="userSpaceOnUse"><stop stop-color="#fff"/><stop offset="1" stop-color="#EBEFF2"/></linearGradient><linearGradient id="O" x1="257.477" y1="211.919" x2="385.534" y2="211.919" gradientUnits="userSpaceOnUse"><stop stop-color="#AA80F9"/><stop offset="1" stop-color="#6165D7"/></linearGradient><linearGradient id="Q" x1="274.455" y1="173.836" x2="369.942" y2="173.836" gradientUnits="userSpaceOnUse"><stop stop-color="#AB316D"/><stop offset="1" stop-color="#792D3D"/></linearGradient><linearGradient id="R" x1="321.601" y1="139.536" x2="321.778" y2="174.25" gradientUnits="userSpaceOnUse"><stop stop-color="#F36F56"/><stop offset="1" stop-color="#FFC444"/></linearGradient><linearGradient id="S" x1="326.678" y1="91.883" x2="317.955" y2="145.757" gradientUnits="userSpaceOnUse"><stop stop-color="#F36F56"/><stop offset="1" stop-color="#FFC444"/></linearGradient><linearGradient id="d" x1="534.521" y1="228.319" x2="350.707" y2="305.146" gradientUnits="userSpaceOnUse"><stop stop-color="#30ABBA"/><stop offset="1" stop-color="#6165D7"/></linearGradient><linearGradient id="U" x1="340.604" y1="94.656" x2="331.961" y2="148.028" gradientUnits="userSpaceOnUse"><stop stop-color="#F36F56"/><stop offset="1" stop-color="#FFC444"/></linearGradient><linearGradient id="V" x1="313.63" y1="89.116" x2="304.807" y2="143.607" gradientUnits="userSpaceOnUse"><stop stop-color="#F36F56"/><stop offset="1" stop-color="#FFC444"/></linearGradient><linearGradient id="W" x1="131.325" y1="195.407" x2="316.731" y2="195.407" gradientUnits="userSpaceOnUse"><stop stop-color="#444B8C"/><stop offset="1" stop-color="#26264F"/></linearGradient><linearGradient id="X" x1="269.426" y1="27.993" x2="281.9" y2="27.993" gradientUnits="userSpaceOnUse"><stop stop-color="#AB316D"/><stop offset="1" stop-color="#792D3D"/></linearGradient><linearGradient id="Y" x1="316.689" y1="46.088" x2="184.644" y2="262.161" gradientUnits="userSpaceOnUse"><stop stop-color="#fff"/><stop offset="1" stop-color="#EBEFF2"/></linearGradient><linearGradient id="Z" x1="157.546" y1="210.06" x2="301.828" y2="210.06" gradientUnits="userSpaceOnUse"><stop stop-color="#AA80F9"/><stop offset="1" stop-color="#6165D7"/></linearGradient><linearGradient id="ab" x1="272.77" y1="73.441" x2="256.362" y2="117.085" gradientUnits="userSpaceOnUse"><stop stop-color="#AB316D"/><stop offset="1" stop-color="#792D3D"/></linearGradient><linearGradient id="ac" x1="238.275" y1="120.85" x2="226.91" y2="173.262" gradientUnits="userSpaceOnUse"><stop stop-color="#AA80F9"/><stop offset="1" stop-color="#6165D7"/></linearGradient><linearGradient id="ad" x1="229.83" y1="123.045" x2="230.048" y2="165.3" gradientUnits="userSpaceOnUse"><stop stop-color="#F36F56"/><stop offset="1" stop-color="#FFC444"/></linearGradient><linearGradient id="ae" x1="266.414" y1="29.849" x2="189.669" y2="175.192" gradientUnits="userSpaceOnUse"><stop stop-color="#AB316D"/><stop offset="1" stop-color="#792D3D"/></linearGradient><linearGradient id="af" x1="235.863" y1="61.705" x2="226.081" y2="127.624" gradientUnits="userSpaceOnUse"><stop stop-color="#F36F56"/><stop offset="1" stop-color="#FFC444"/></linearGradient><linearGradient id="ag" x1="259.003" y1="51.415" x2="204.286" y2="155.038" gradientUnits="userSpaceOnUse"><stop stop-color="#AB316D"/><stop offset="1" stop-color="#792D3D"/></linearGradient><linearGradient id="ah" x1="316.689" y1="46.088" x2="184.644" y2="262.161" gradientUnits="userSpaceOnUse"><stop stop-color="#fff"/><stop offset="1" stop-color="#EBEFF2"/></linearGradient><linearGradient id="ai" x1="157.546" y1="210.06" x2="301.828" y2="210.06" gradientUnits="userSpaceOnUse"><stop stop-color="#AA80F9"/><stop offset="1" stop-color="#6165D7"/></linearGradient><linearGradient id="ak" x1="284.092" y1="75.834" x2="206.971" y2="155.998" gradientUnits="userSpaceOnUse"><stop stop-color="#AB316D"/><stop offset="1" stop-color="#792D3D"/></linearGradient><linearGradient id="al" x1="238.275" y1="120.85" x2="226.91" y2="173.262" gradientUnits="userSpaceOnUse"><stop stop-color="#AA80F9"/><stop offset="1" stop-color="#6165D7"/></linearGradient><linearGradient id="am" x1="229.83" y1="123.045" x2="230.048" y2="165.3" gradientUnits="userSpaceOnUse"><stop stop-color="#F36F56"/><stop offset="1" stop-color="#FFC444"/></linearGradient><linearGradient id="an" x1="249.197" y1="87.751" x2="204.355" y2="121.042" gradientUnits="userSpaceOnUse"><stop stop-color="#AB316D"/><stop offset="1" stop-color="#792D3D"/></linearGradient><linearGradient id="ao" x1="235.863" y1="61.705" x2="226.081" y2="127.624" gradientUnits="userSpaceOnUse"><stop stop-color="#F36F56"/><stop offset="1" stop-color="#FFC444"/></linearGradient><linearGradient id="ap" x1="250.293" y1="89.227" x2="205.451" y2="122.52" gradientUnits="userSpaceOnUse"><stop stop-color="#AB316D"/><stop offset="1" stop-color="#792D3D"/></linearGradient><linearGradient id="aq" x1="313.98" y1="12.883" x2="266.277" y2="97.427" gradientUnits="userSpaceOnUse"><stop stop-color="#FF9085"/><stop offset="1" stop-color="#FB6FBB"/></linearGradient><linearGradient id="ar" x1="349.931" y1="437.208" x2="363.741" y2="437.208" gradientUnits="userSpaceOnUse"><stop stop-color="#AA80F9"/><stop offset="1" stop-color="#6165D7"/></linearGradient><linearGradient id="as" x1="358.844" y1="432.279" x2="363.648" y2="432.279" gradientUnits="userSpaceOnUse"><stop stop-color="#F36F56"/><stop offset="1" stop-color="#FFC444"/></linearGradient><linearGradient id="at" x1="409.639" y1="435.716" x2="420.359" y2="435.716" gradientUnits="userSpaceOnUse"><stop stop-color="#AA80F9"/><stop offset="1" stop-color="#6165D7"/></linearGradient><linearGradient id="au" x1="407.63" y1="429.316" x2="417.186" y2="429.316" gradientUnits="userSpaceOnUse"><stop stop-color="#F36F56"/><stop offset="1" stop-color="#FFC444"/></linearGradient><linearGradient id="av" x1="444.545" y1="316.147" x2="392.251" y2="347.032" gradientUnits="userSpaceOnUse"><stop stop-color="#311944"/><stop offset="1" stop-color="#893976"/></linearGradient><linearGradient id="aw" x1="453.917" y1="332.014" x2="401.621" y2="362.899" gradientUnits="userSpaceOnUse"><stop stop-color="#311944"/><stop offset="1" stop-color="#893976"/></linearGradient><linearGradient id="ax" x1="413.83" y1="270.291" x2="391.369" y2="238.473" gradientUnits="userSpaceOnUse"><stop stop-color="#010648"/><stop offset="1" stop-color="#010863"/></linearGradient><linearGradient id="ay" x1="370.496" y1="206.015" x2="389.036" y2="319.385" gradientUnits="userSpaceOnUse"><stop stop-color="#FC9D8A"/><stop offset="1" stop-color="#FC9D8A"/></linearGradient><linearGradient id="az" x1="389.59" y1="202.891" x2="408.129" y2="316.261" gradientUnits="userSpaceOnUse"><stop stop-color="#FF9085"/><stop offset="1" stop-color="#FB6FBB"/></linearGradient><linearGradient id="aA" x1="385.755" y1="203.519" x2="404.295" y2="316.889" gradientUnits="userSpaceOnUse"><stop stop-color="#FF9085"/><stop offset="1" stop-color="#FB6FBB"/></linearGradient><linearGradient id="aB" x1="349.419" y1="223.254" x2="290.92" y2="348.097" gradientUnits="userSpaceOnUse"><stop stop-color="#444B8C"/><stop offset="1" stop-color="#26264F"/></linearGradient><linearGradient id="aC" x1="370.026" y1="195.02" x2="361.817" y2="201.733" gradientUnits="userSpaceOnUse"><stop stop-color="#F36F56"/><stop offset="1" stop-color="#FFC444"/></linearGradient><linearGradient id="aD" x1="375.248" y1="183.517" x2="356.52" y2="190.679" gradientUnits="userSpaceOnUse"><stop stop-color="#F36F56"/><stop offset="1" stop-color="#FFC444"/></linearGradient><linearGradient id="aE" x1="306.581" y1="241.436" x2="369.182" y2="241.436" gradientUnits="userSpaceOnUse"><stop stop-color="#444B8C"/><stop offset="1" stop-color="#26264F"/></linearGradient><linearGradient id="aF" x1="315.725" y1="253.217" x2="312.783" y2="238.636" gradientUnits="userSpaceOnUse"><stop stop-color="#F36F56"/><stop offset="1" stop-color="#FFC444"/></linearGradient><clipPath id="a"><path fill="#fff" transform="translate(.001)" d="M0 0h480v480H0z"/></clipPath></defs></svg>