<svg width="480" height="480" fill="none" xmlns="http://www.w3.org/2000/svg"><g clip-path="url(#a)"><path d="M459.617 324.223C413.589 432.835 290.983 493.68 184.659 477.267c-17.301-2.67-64.733-10.628-106.725-48.157-80.842-72.251-98.13-215.316-32.919-316.139C92.478 39.6 177.557-2.006 258.405.074c17.414.449 84.151 3.21 142.803 51.679 8.615 7.117 27.614 24.034 44.738 50.871 40.211 63.019 43.668 150.816 13.671 221.599z" fill="url(#b)"/><path d="M22.408 13.932c-.443-1.886 2.214-3.15 3.842-1.83 16.514 13.429 56.222 53.64 46.328 123.915-12.414 88.169 8.809 120.342 35.227 139.964 0 0-36.281-9.228-59.107-41.873-56.043-80.151-18.402-186.514-26.29-220.176z" fill="#9FCED9"/><path d="M34.981 41.47c2.066 9.816 3.909 19.661 5.332 29.551a425.929 425.929 0 0 1 3.399 29.729c.734 9.935 1.252 19.886 1.281 29.829.082 9.943-.332 19.886-.785 29.866-.39 9.976-.855 20.023-.12 30.141.736 10.117 2.836 20.283 7.046 29.828 1.052 2.38 2.157 4.752 3.421 7.044 1.208 2.315 2.535 4.581 3.909 6.828 2.8 4.534 5.934 8.853 9.374 12.921 6.982 8.206 15.395 15.485 24.68 21.646.977.648 2.374.49 3.125-.355.75-.845.571-2.012-.36-2.669-2.208-1.553-4.392-3.127-6.487-4.779-1.063-.813-2.082-1.663-3.12-2.496-1-.868-2.038-1.703-3.006-2.594a107.058 107.058 0 0 1-10.9-11.227c-6.659-7.886-11.99-16.683-16.03-25.8a87.322 87.322 0 0 1-4.673-14.057 96.102 96.102 0 0 1-2.252-14.561c-.796-9.821-.437-19.768-.129-29.745s.513-20.009.243-30.032a357.217 357.217 0 0 0-.659-15.021c-.145-2.501-.342-5-.542-7.5-.23-2.502-.476-4.999-.739-7.491a424.89 424.89 0 0 0-4.276-29.801c-1.839-9.882-3.98-19.715-6.557-29.462a.607.607 0 0 0-.716-.39.523.523 0 0 0-.459.597z" fill="#fff" style="mix-blend-mode:soft-light"/><path d="M65.21 224.971a4.155 4.155 0 0 1-6.808-1.161c-6.726-14.88-21.943-58.671 3.19-109.124 21.225-42.602 28.693-67.725 31.292-79.372.55-2.461 3.915-2.787 4.931-.48 11.213 25.47 40.809 112.08-32.605 190.137z" fill="#30ABBA"/><path d="M61.53 223.401a1.15 1.15 0 0 1-1.356-1.156c.009-.723 1.415-73.046 28.256-133.618a1.156 1.156 0 0 1 1.083-.693 1.15 1.15 0 0 1 1.05.743 1.156 1.156 0 0 1-.026.887C63.89 149.697 62.484 221.565 62.484 222.281a1.153 1.153 0 0 1-.955 1.12z" fill="#fff" style="mix-blend-mode:soft-light"/><path d="M352.447 113.256c-6.425-11.314-11.37-26.522-1.271-37.906 18.238-20.572 54.716-25.133 63.836 6.857 3.764 13.232 1.107 23.518-3.315 31.028-4.095 6.957.955 15.726 9.015 15.726h58.135v77.737c0 7.019-7.868 11.037-13.623 7.029-39.001-27.129-59.337 4.87-59.38 19.27-.048 15.994 6.888 53.695 31.967 52.552 11.461-.515 21.016-4.384 28.015-8.424 5.796-3.347 13.021.728 13.021 7.431v72.461h-60.164c-7.143 0-11.404 7.906-7.526 13.913 4.464 6.902 8.21 16.908 8.405 31.151.514 36.25-54.717 29.701-68.395 18.277-9.772-8.16-10.174-34.325-2.566-50.506 2.811-5.978-1.813-12.835-8.407-12.835H281.64V277.73c0-5.781-6.265-9.335-11.223-6.383-10.079 6-25.647 13.53-41.215 14.207-26.218 1.143-29.637-28.56-30.778-51.408-1.008-20.181 37.383-52.847 67.685-32.932 4.961 3.257 15.156 8.039 15.156 2.088v-74.343h62.148c8.048 0 13.014-8.693 9.034-15.703z" fill="#30ABBA"/><path d="M384.667 430.541a75.606 75.606 0 0 1-9.475-.612c-10.434-1.318-19.921-4.646-24.755-8.683-10.544-8.806-10.392-35.89-2.871-51.886 1.131-2.4.946-5.097-.513-7.389a8.08 8.08 0 0 0-6.859-3.797H281.64a1.152 1.152 0 0 1-1.153-1.157V277.73a6.275 6.275 0 0 0-3.175-5.463 6.25 6.25 0 0 0-6.307.075c-10.371 6.171-26.033 13.681-41.752 14.367-12.088.538-20.812-5.331-25.906-17.414-4.321-10.248-5.496-23.485-6.074-35.093-.551-11.028 9.664-25.124 24.29-33.521 15.55-8.926 32.018-9.086 45.181-.434 4.571 3.006 10.746 5.574 12.752 4.49.171-.091.618-.343.618-1.435v-74.343a1.155 1.155 0 0 1 1.153-1.156h62.146a9.143 9.143 0 0 0 4.623-1.218 9.181 9.181 0 0 0 3.383-3.386 9.315 9.315 0 0 0 .025-9.37c-9.18-16.16-9.579-29.731-1.132-39.247 11.149-12.57 28.867-19.079 43.074-15.833 11.132 2.543 19.206 10.76 22.735 23.142 3.327 11.673 2.172 22.416-3.43 31.936a9.302 9.302 0 0 0 3.367 12.738 9.263 9.263 0 0 0 4.654 1.244h58.135a1.155 1.155 0 0 1 1.153 1.155v77.738a9.616 9.616 0 0 1-1.379 5.062 9.584 9.584 0 0 1-3.83 3.579 9.848 9.848 0 0 1-10.225-.656c-19.352-13.462-32.871-11.347-40.804-7.2-11.403 5.957-16.745 18.754-16.764 25.527-.036 12.379 3.935 34.661 15.019 45.311 4.485 4.308 9.766 6.342 15.737 6.082 9.484-.43 18.733-3.213 27.493-8.27a9.787 9.787 0 0 1 9.9-.017 9.643 9.643 0 0 1 3.567 3.567 9.673 9.673 0 0 1 1.283 4.883v72.447a1.163 1.163 0 0 1-.712 1.069c-.14.058-.29.088-.441.088h-60.161a7.811 7.811 0 0 0-6.885 4.107 7.851 7.851 0 0 0 .335 8.022c5.52 8.535 8.411 19.22 8.591 31.76.161 11.191-4.932 19.581-14.725 24.264-5.812 2.779-13.181 4.214-21.332 4.214zm-101.875-74.679h57.41a10.374 10.374 0 0 1 8.808 4.872 9.963 9.963 0 0 1 .643 9.612c-7.75 16.483-6.589 41.734 2.26 49.126 9.066 7.574 36.462 12.722 53.094 4.769 9.047-4.327 13.56-11.777 13.411-22.145-.171-12.098-2.939-22.371-8.221-30.537a10.163 10.163 0 0 1 3.3-14.27 10.1 10.1 0 0 1 5.186-1.427h59.015v-71.301a7.383 7.383 0 0 0-3.699-6.447 7.503 7.503 0 0 0-7.594.017c-9.082 5.244-18.683 8.129-28.54 8.571-6.607.305-12.487-1.961-17.447-6.723-11.61-11.153-15.767-34.209-15.738-46.985.023-7.555 5.625-21.103 18.006-27.571 8.496-4.44 22.886-6.768 43.185 7.352a7.448 7.448 0 0 0 7.839.515 7.324 7.324 0 0 0 3.974-6.593v-76.583h-56.972a11.555 11.555 0 0 1-5.812-1.556 11.613 11.613 0 0 1-5.783-10.098 11.611 11.611 0 0 1 1.59-5.814c5.268-8.951 6.344-19.087 3.199-30.124-4.215-14.777-13.762-19.858-21.03-21.52-13.431-3.071-30.224 3.146-40.842 15.112-5.383 6.07-9.509 17.342 1.413 36.568a11.616 11.616 0 0 1-.036 11.676 11.461 11.461 0 0 1-4.223 4.232 11.427 11.427 0 0 1-5.775 1.524h-60.999v73.188c0 2.057-.993 3.017-1.826 3.468-4.405 2.385-14.679-4.303-15.115-4.589-12.41-8.158-27.999-7.973-42.764.514-13.685 7.857-23.633 21.357-23.132 31.399.569 11.4 1.71 24.393 5.896 34.31 4.745 11.254 12.487 16.488 23.681 16.001 15.24-.663 30.53-8.002 40.676-14.045a8.55 8.55 0 0 1 8.623-.097 8.596 8.596 0 0 1 4.341 7.468l-.002 78.131z" fill="#FCFCFC"/><path d="M59.906 273.866c-6.842 4.601-15.866 9.073-26.04 10.093-22.53 2.258-31.54-22.577-32.668-44.026-1.13-21.449 18.024-41.762 34.92-39.511 7.958 1.063 16.667 6.134 23.653 11.2 5.645 4.093 13.513.068 13.513-6.912v-77.039h77.776c6.482 0 10.777-6.706 8.069-12.608-6.102-13.291-12.956-33.487-3.397-42.206 14.854-13.543 54.984-13.543 61.743 6.773 3.783 11.378-1.357 25.067-6.615 34.91-3.17 5.935 1.108 13.099 7.826 13.099h66.37v71.345c0 7.611-8.589 12.343-14.783 7.937-28.712-20.422-60.068 1.12-62.949 25.109-3.378 28.221 14.644 51.928 33.794 49.67 9.723-1.147 20.9-6.658 29.545-11.808 6.351-3.782 14.386.759 14.386 8.163v78.804H208.61c-8.747 0-14.599-9.144-10.807-17.045 4.519-9.415 23.036-20.972 21.924-29.892-2.252-18.061-42.381-22.531-63.995-19.167-16.497 2.571-8.296 28.428 1.079 49.154 3.592 7.944-2.13 16.95-10.833 16.95H73.291v-75.977c0-6.896-7.67-10.858-13.385-7.016z" fill="#6165D7"/><path d="M285.061 358.017H208.61a13.053 13.053 0 0 1-6.358-1.641 13.082 13.082 0 0 1-4.76-4.531 12.944 12.944 0 0 1-.724-12.536c1.943-4.046 6.329-8.435 10.556-12.686 5.816-5.839 11.849-11.877 11.264-16.569-.433-3.475-2.461-6.605-6.031-9.301-8.132-6.148-32.34-12.648-56.644-8.868-3.283.514-5.546 1.998-6.921 4.546-3.763 6.975-.693 21.84 8.874 42.987a13.136 13.136 0 0 1-.876 12.545 13.09 13.09 0 0 1-11.007 6.04H73.291a1.151 1.151 0 0 1-1.153-1.156v-75.965a7.234 7.234 0 0 0-3.86-6.475 7.402 7.402 0 0 0-7.729.419c-8.835 5.943-17.774 9.403-26.569 10.285-7.268.729-13.62-1.2-18.898-5.742C11 275.854 1.37 264.987.048 240c-.604-11.486 4.618-23.81 13.626-32.143 6.959-6.437 15.199-9.56 22.597-8.571 6.868.917 15.002 4.755 24.175 11.408a7.339 7.339 0 0 0 7.678.613 7.382 7.382 0 0 0 4.014-6.589v-77.047a1.154 1.154 0 0 1 1.153-1.155h77.769a7.712 7.712 0 0 0 6.505-3.561 7.74 7.74 0 0 0 .508-7.41c-6.842-14.915-12.949-34.581-3.125-43.543 9.408-8.587 28.936-12.137 44.436-8.08 9.941 2.6 16.753 8.057 19.178 15.341 3.945 11.865-1.462 26.03-6.691 35.829a7.74 7.74 0 0 0 .176 7.635 7.72 7.72 0 0 0 6.632 3.762h66.37a1.16 1.16 0 0 1 1.153 1.157v71.345a10.798 10.798 0 0 1-1.581 5.621 10.751 10.751 0 0 1-4.276 3.967c-3.534 1.829-7.551 1.563-10.746-.71-12.167-8.654-25.843-10.322-38.512-4.695-12.283 5.455-21.161 16.837-22.617 29-1.844 15.393 2.881 30.857 12.332 40.344 5.987 6.014 13.149 8.872 20.184 8.042 9.814-1.157 21.237-6.977 29.092-11.657a10.63 10.63 0 0 1 10.725-.128 10.67 10.67 0 0 1 3.952 3.912 10.696 10.696 0 0 1 1.45 5.374v78.804a1.156 1.156 0 0 1-1.144 1.152zm-114.54-69.429c15.125 0 33.38 2.743 43.42 10.332 4.086 3.086 6.418 6.742 6.931 10.86.725 5.815-5.705 12.259-11.923 18.492-4.105 4.106-8.336 8.354-10.106 12.045a10.632 10.632 0 0 0 .597 10.304 10.787 10.787 0 0 0 3.927 3.735 10.76 10.76 0 0 0 5.243 1.35h75.298v-77.649a8.373 8.373 0 0 0-4.238-7.275 8.328 8.328 0 0 0-8.405.106c-8.04 4.8-19.784 10.757-30 11.962-7.739.914-15.588-2.179-22.085-8.705-9.937-9.982-14.914-26.172-12.988-42.252 1.551-12.955 10.961-25.059 23.973-30.838 13.442-5.968 27.925-4.219 40.78 4.925 2.48 1.762 5.602 1.965 8.355.54a8.459 8.459 0 0 0 3.364-3.121 8.483 8.483 0 0 0 1.244-4.422v-70.181h-65.222a10.03 10.03 0 0 1-8.608-4.885 10.065 10.065 0 0 1-.234-9.911c5.017-9.393 10.222-22.917 6.536-34-2.169-6.526-8.411-11.439-17.571-13.835-14.826-3.882-33.397-.564-42.292 7.55-3.974 3.622-8.781 13.748 3.667 40.864a10.07 10.07 0 0 1-.665 9.625 10.025 10.025 0 0 1-8.45 4.623H74.444v75.883a9.708 9.708 0 0 1-1.421 5.065 9.677 9.677 0 0 1-3.853 3.573 9.652 9.652 0 0 1-10.075-.79c-8.738-6.343-16.734-10.135-23.129-10.991-6.717-.898-14.274 2.013-20.727 7.982-8.518 7.886-13.457 19.498-12.889 30.322.88 16.723 6.203 30.83 14.243 37.74 4.779 4.115 10.554 5.865 17.165 5.198 8.413-.842 16.994-4.174 25.511-9.903a9.8 9.8 0 0 1 10.093-.537 9.49 9.49 0 0 1 3.738 3.539 9.512 9.512 0 0 1 1.344 4.974v74.832h71.534a10.689 10.689 0 0 0 9.035-4.928 10.855 10.855 0 0 0 .748-10.391c-10.021-22.152-12.98-37.309-8.803-45.049 1.711-3.184 4.608-5.111 8.597-5.731 4.171-.65 9.354-1.027 14.966-1.027z" fill="#FCFCFC"/><g opacity=".3" fill="#91B3FA"><path d="M363.889 78.943a1.437 1.437 0 0 1-1.644-1.008 56.411 56.411 0 0 1-1.197-4.776 1.449 1.449 0 0 1 1.118-1.714h.028a1.44 1.44 0 0 1 1.676 1.128 55.958 55.958 0 0 0 1.137 4.536 1.439 1.439 0 0 1-.969 1.797 1.106 1.106 0 0 1-.149.037zm-2.224-12.384a1.442 1.442 0 0 1-1.711-1.322 58.642 58.642 0 0 1-.121-4.922 1.442 1.442 0 0 1 2.882.051 55.832 55.832 0 0 0 .115 4.677 1.446 1.446 0 0 1-1.156 1.516h-.009zm.559-12.564a1.442 1.442 0 0 1-1.631-.966 1.458 1.458 0 0 1-.057-.682c.255-1.614.585-3.238.978-4.825a1.443 1.443 0 0 1 2.824.133c.028.187.019.379-.027.563a55.83 55.83 0 0 0-.929 4.582 1.438 1.438 0 0 1-1.149 1.2l-.009-.005zm3.351-12.127a1.438 1.438 0 0 1-1.378-.505 1.443 1.443 0 0 1-.223-1.455 57.874 57.874 0 0 1 2.031-4.486 1.44 1.44 0 0 1 1.903-.572 1.447 1.447 0 0 1 .663 1.877 54.728 54.728 0 0 0-1.928 4.262 1.449 1.449 0 0 1-1.059.879h-.009zm5.963-11.073a1.435 1.435 0 0 1-1.475-.634 1.442 1.442 0 0 1 .027-1.608 57.411 57.411 0 0 1 2.969-3.922 1.45 1.45 0 0 1 .975-.518 1.44 1.44 0 0 1 1.573 1.301 1.459 1.459 0 0 1-.324 1.058 55.116 55.116 0 0 0-2.821 3.727 1.43 1.43 0 0 1-.915.596h-.009zm8.261-9.475a1.438 1.438 0 0 1-1.557-.772 1.44 1.44 0 0 1 .317-1.712 55.838 55.838 0 0 1 3.763-3.166 1.437 1.437 0 0 1 2.021.263 1.448 1.448 0 0 1-.263 2.026 55.086 55.086 0 0 0-3.573 3.008c-.196.18-.438.303-.7.354h-.008zm51.274-13.103c-.202.037-.41.03-.609-.02a53.116 53.116 0 0 0-4.576-.922 1.443 1.443 0 0 1-1.241-1.657 1.443 1.443 0 0 1 1.688-1.197 57.23 57.23 0 0 1 4.818.972 1.446 1.446 0 0 1-.08 2.823zm-41.124 5.705a1.438 1.438 0 0 1-1.615-.925 1.448 1.448 0 0 1 .638-1.751A57.304 57.304 0 0 1 393.343 9a1.437 1.437 0 0 1 1.963.686 1.442 1.442 0 0 1-.286 1.616c-.137.138-.3.247-.48.32a56.953 56.953 0 0 0-4.151 2.135 1.466 1.466 0 0 1-.44.165zm28.683-7.32a1.46 1.46 0 0 1-.289.024 55.222 55.222 0 0 0-4.668.125 1.439 1.439 0 0 1-1.537-1.342 1.44 1.44 0 0 1 1.338-1.54 58.038 58.038 0 0 1 4.913-.132 1.442 1.442 0 0 1 1.41 1.323 1.441 1.441 0 0 1-1.167 1.542zm-17.145 2.376a1.445 1.445 0 0 1-.684-2.803 58.039 58.039 0 0 1 4.762-1.21h.031a1.436 1.436 0 0 1 1.478.616 1.432 1.432 0 0 1 .213 1.084 1.431 1.431 0 0 1-.614.918 1.434 1.434 0 0 1-.52.215 54.392 54.392 0 0 0-4.522 1.15 1.25 1.25 0 0 1-.144.03zM440.642 11.523c-.289.056-.588.02-.855-.103a58.564 58.564 0 0 0-2.067-.88 1.443 1.443 0 0 1-.903-1.326 1.457 1.457 0 0 1 .412-1.025 1.436 1.436 0 0 1 1.567-.33 56.28 56.28 0 0 1 2.174.928 1.441 1.441 0 0 1 .851 1.494 1.442 1.442 0 0 1-1.179 1.25v-.008z"/></g><g opacity=".3" fill="#91B3FA"><path d="M470.491 43.836a1.438 1.438 0 0 1-1.62-.934c-.251-.7-.513-1.408-.8-2.102a1.447 1.447 0 0 1 .809-1.846 1.437 1.437 0 0 1 1.085.001c.348.142.627.415.778.76.294.73.578 1.476.841 2.215a1.448 1.448 0 0 1-.87 1.846 1.548 1.548 0 0 1-.223.06zM428.033 118.114a65.7 65.7 0 0 1-1.969.335 1.444 1.444 0 0 1-1.657-1.778 1.45 1.45 0 0 1 1.223-1.078 56.09 56.09 0 0 0 4.511-.88 1.437 1.437 0 0 1 1.735 1.071 1.442 1.442 0 0 1-1.068 1.739c-.912.211-1.844.41-2.775.591zm-9.55.965a1.43 1.43 0 0 1-.244.024 57.259 57.259 0 0 1-4.834-.128 1.428 1.428 0 0 1-.996-.488 1.432 1.432 0 0 1-.356-1.052 1.442 1.442 0 0 1 1.548-1.34c1.519.103 3.066.144 4.593.12a1.44 1.44 0 0 1 1.454 1.299 1.448 1.448 0 0 1-1.165 1.565zm19.562-3.826a1.433 1.433 0 0 1-1.024-.191 1.447 1.447 0 0 1-.531-1.872c.16-.322.435-.572.77-.702a54.13 54.13 0 0 0 4.205-1.848 1.439 1.439 0 0 1 1.928.662 1.448 1.448 0 0 1-.661 1.932 54.26 54.26 0 0 1-4.427 1.945 1.227 1.227 0 0 1-.26.067v.007zm-31.864 2.654a1.465 1.465 0 0 1-.56 0 53.715 53.715 0 0 1-4.686-1.2 1.441 1.441 0 0 1-.706-2.295 1.454 1.454 0 0 1 .97-.525 1.45 1.45 0 0 1 .56.053 55.36 55.36 0 0 0 4.447 1.131 1.449 1.449 0 0 1 1.144 1.43 1.449 1.449 0 0 1-1.174 1.404l.005.002zm42.805-8.388c-.326.06-.662.006-.953-.152a1.447 1.447 0 0 1-.118-2.466 56.05 56.05 0 0 0 3.697-2.729 1.44 1.44 0 0 1 2.369 1.277 1.442 1.442 0 0 1-.565.976 59.395 59.395 0 0 1-3.889 2.873c-.164.107-.348.18-.541.214v.007zm9.42-8.001a1.44 1.44 0 0 1-1.695-1.605c.039-.303.173-.585.383-.807a55.114 55.114 0 0 0 3.014-3.473 1.442 1.442 0 1 1 2.258 1.797 58.737 58.737 0 0 1-3.171 3.655 1.439 1.439 0 0 1-.789.426v.007zm7.456-9.869a1.438 1.438 0 0 1-1.705-1.368c-.01-.279.061-.553.204-.792a54.795 54.795 0 0 0 2.187-4.049 1.442 1.442 0 0 1 2.59 1.269 58.746 58.746 0 0 1-2.302 4.26 1.45 1.45 0 0 1-.974.673v.007zm5.132-11.264a1.431 1.431 0 0 1-1.551-.769 1.447 1.447 0 0 1-.082-1.102 54.71 54.71 0 0 0 1.25-4.43 1.444 1.444 0 0 1 1.735-1.07 1.446 1.446 0 0 1 1.069 1.738 57.662 57.662 0 0 1-1.316 4.664 1.434 1.434 0 0 1-1.107.962l.002.007zm2.539-12.122a1.434 1.434 0 0 1-1.612-.9c-.08-.209-.11-.434-.089-.657.146-1.519.228-3.065.245-4.594a1.453 1.453 0 0 1 .894-1.368 1.44 1.44 0 0 1 1.988 1.4 57.785 57.785 0 0 1-.258 4.837 1.444 1.444 0 0 1-1.17 1.275l.002.007zm-.183-12.377-.088.013a1.437 1.437 0 0 1-1.608-1.254 61.834 61.834 0 0 0-.513-3.348 77.371 77.371 0 0 0-.236-1.2 1.442 1.442 0 0 1 2.199-1.506c.32.21.543.538.622.912a58.58 58.58 0 0 1 .794 4.778 1.445 1.445 0 0 1-1.17 1.605zM394.409 114.026a1.44 1.44 0 0 1-.856-.105c-.71-.325-1.426-.67-2.129-1.028a1.443 1.443 0 0 1-.688-1.968 1.451 1.451 0 0 1 1.442-.781c.193.021.38.082.549.177.667.343 1.348.667 2.022.976a1.442 1.442 0 0 1-.342 2.732l.002-.003z"/></g><path d="M393.249 97.2a.668.668 0 0 0 .778.065l7.042-4.203a35.648 35.648 0 0 0 11.022 3.526l3.31 7.51a.667.667 0 0 0 .672.4l9.798-.825a.674.674 0 0 0 .595-.514l2.014-7.958a35.68 35.68 0 0 0 10.277-5.314l7.644 2.967a.671.671 0 0 0 .758-.193l6.346-7.528a.674.674 0 0 0 .063-.78l-4.194-7.06a35.897 35.897 0 0 0 3.521-11.043l7.492-3.317a.67.67 0 0 0 .4-.673l-.816-9.82a.673.673 0 0 0-.504-.598l-7.943-2.016a35.81 35.81 0 0 0-5.302-10.301l2.959-7.662a.676.676 0 0 0-.193-.757l-7.512-6.36a.667.667 0 0 0-.778-.065l-7.042 4.205a35.609 35.609 0 0 0-11.021-3.528l-3.31-7.51a.675.675 0 0 0-.673-.4l-9.798.825a.672.672 0 0 0-.595.514l-2.029 7.956a35.732 35.732 0 0 0-10.277 5.314l-7.644-2.967a.685.685 0 0 0-.758.194l-6.346 7.527a.684.684 0 0 0-.064.782l4.195 7.057a35.898 35.898 0 0 0-3.521 11.044l-7.494 3.317a.685.685 0 0 0-.398.675l.824 9.818a.676.676 0 0 0 .505.598l7.942 2.016a35.789 35.789 0 0 0 5.303 10.302l-2.959 7.66a.671.671 0 0 0 .193.76l7.518 6.36z" fill="#91B3FA"/><path d="M419.166 70.713a9.877 9.877 0 0 1-7.259-1.462 9.911 9.911 0 0 1-4.213-6.1 9.934 9.934 0 0 1 1.19-7.322 9.896 9.896 0 0 1 5.928-4.444 9.874 9.874 0 0 1 7.346.923 9.911 9.911 0 0 1 4.649 5.774 9.933 9.933 0 0 1-.652 7.39 9.897 9.897 0 0 1-6.989 5.24zm-3.189-17.208a7.55 7.55 0 0 0-5.342 4.003 7.578 7.578 0 0 0-.493 5.633 7.558 7.558 0 0 0 3.546 4.4 7.528 7.528 0 0 0 5.599.704 7.541 7.541 0 0 0 4.52-3.386 7.575 7.575 0 0 0 .911-5.582 7.562 7.562 0 0 0-3.209-4.653 7.531 7.531 0 0 0-5.532-1.12z" fill="#BDD0FB"/><path d="M421.986 84.737c-.812.153-1.638.264-2.473.343a24.57 24.57 0 0 1-4.682-.055h-.051l-.151-.019-.289-.034a.576.576 0 0 1-.492-.466.504.504 0 0 1 0-.182.575.575 0 0 1 .644-.499 23.131 23.131 0 0 0 13.668-2.432 23.2 23.2 0 0 0 9.827-9.825 23.11 23.11 0 0 0 2.566-12.696 23.214 23.214 0 0 0-9.057-16.524 23.12 23.12 0 0 0-15.95-4.65c-12.725 1.072-22.198 12.315-21.129 25.06a23.166 23.166 0 0 0 4.265 11.594.58.58 0 0 1-.623.895.575.575 0 0 1-.313-.22 24.293 24.293 0 0 1-4.146-9.721 24.77 24.77 0 0 1-.332-2.452c-1.122-13.383 8.831-25.184 22.181-26.31a24.276 24.276 0 0 1 16.743 4.883 24.371 24.371 0 0 1 9.175 14.861c.153.822.264 1.651.334 2.485a24.395 24.395 0 0 1-4.871 16.783 24.297 24.297 0 0 1-14.835 9.191l-.009-.01z" fill="#BDD0FB"/><g opacity=".3" fill="#91B3FA"><path d="M322.529 125.409a.886.886 0 0 1-.956-.472 41.277 41.277 0 0 1-.97-2.057.89.89 0 0 1 1.632-.711c.287.661.598 1.325.925 1.968a.893.893 0 0 1-.39 1.2.93.93 0 0 1-.241.072zM320.001 119.033a.891.891 0 0 1-1.027-.624 38.99 38.99 0 0 1-1.057-4.63.928.928 0 0 1 .734-1.029.9.9 0 0 1 .904.408c.062.099.103.21.122.326a37.442 37.442 0 0 0 1.008 4.416.897.897 0 0 1-.6 1.109l-.084.024zm-1.507-9.137c-.041 0-.084.012-.127.015a.897.897 0 0 1-.927-.857 38.566 38.566 0 0 1 .092-4.747.891.891 0 0 1 1.735-.2.901.901 0 0 1 .039.346 37.182 37.182 0 0 0-.087 4.528.896.896 0 0 1-.725.915zm.751-9.231a.936.936 0 0 1-.342 0 .89.89 0 0 1-.685-1.056 38.792 38.792 0 0 1 1.254-4.581.895.895 0 0 1 1.119-.52.89.89 0 0 1 .566 1.098 36.458 36.458 0 0 0-1.197 4.368.886.886 0 0 1-.253.454.882.882 0 0 1-.462.237zm2.991-8.764a.888.888 0 0 1-1.048-.788.897.897 0 0 1 .085-.479 38.658 38.658 0 0 1 2.334-4.133.885.885 0 0 1 1.231-.262.889.889 0 0 1 .391.91.901.901 0 0 1-.129.324 36.95 36.95 0 0 0-2.224 3.943.88.88 0 0 1-.64.485zm5.036-7.766a.888.888 0 0 1-1.051-.952.897.897 0 0 1 .206-.498 39.16 39.16 0 0 1 3.264-3.439.897.897 0 0 1 .638-.238.892.892 0 0 1 .575 1.543 37.26 37.26 0 0 0-3.113 3.283.883.883 0 0 1-.519.301zm6.766-6.306a.888.888 0 0 1-.982-.525.893.893 0 0 1 .297-1.075 38.165 38.165 0 0 1 4.001-2.537.891.891 0 0 1 1.208.353.883.883 0 0 1 .074.678.899.899 0 0 1-.426.532 36.598 36.598 0 0 0-3.815 2.42.889.889 0 0 1-.357.154zm8.094-4.458a.892.892 0 0 1-.493-1.714 39.04 39.04 0 0 1 4.504-1.476.895.895 0 0 1 .958.313.89.89 0 0 1 .055 1.008.891.891 0 0 1-.564.407c-1.46.38-2.894.85-4.296 1.408a.993.993 0 0 1-.164.054zm13.561-2.657a.769.769 0 0 1-.155.016 36.86 36.86 0 0 0-4.508.32.889.889 0 0 1-1-.766.89.89 0 0 1 .17-.663.888.888 0 0 1 .593-.34 38.87 38.87 0 0 1 4.726-.334.889.889 0 0 1 .892.805.893.893 0 0 1-.721.962h.003z"/></g><g opacity=".3" fill="#91B3FA"><path d="M363.429 145.246a.889.889 0 0 1-1.016-.71.894.894 0 0 1 .673-1.042 36.818 36.818 0 0 0 4.297-1.136.893.893 0 0 1 .68.05.897.897 0 0 1 .394 1.198.895.895 0 0 1-.516.446 38.71 38.71 0 0 1-4.504 1.2l-.008-.006zm-4.511.626a1.057 1.057 0 0 1-.096.014c-1.55.121-3.106.148-4.66.082a.897.897 0 0 1-.618-.288.887.887 0 0 1-.233-.641.88.88 0 0 1 .287-.619.879.879 0 0 1 .64-.235c1.482.063 2.968.037 4.447-.079a.888.888 0 0 1 .962.771.894.894 0 0 1-.727.995h-.002zm13.139-3.483a.89.89 0 0 1-.544-1.682 37.339 37.339 0 0 0 3.896-2.146.892.892 0 0 1 1.228.278.906.906 0 0 1 .115.673.897.897 0 0 1-.393.557 38.325 38.325 0 0 1-4.085 2.249.92.92 0 0 1-.217.071zm-22.224 3.085a.897.897 0 0 1-.31 0 38.303 38.303 0 0 1-4.545-1.047.893.893 0 0 1-.598-1.114.89.89 0 0 1 1.112-.6c1.422.42 2.869.754 4.332.997a.893.893 0 0 1 .018 1.758l-.009.006zm29.913-7.947a.892.892 0 0 1-.729-1.569 36.592 36.592 0 0 0 3.267-3.02.888.888 0 0 1 1.234.001.898.898 0 0 1 .051 1.235 38.944 38.944 0 0 1-3.421 3.166.906.906 0 0 1-.402.187zm6.295-6.569a.89.89 0 0 1-1.055-.916.895.895 0 0 1 .179-.497 37.52 37.52 0 0 0 2.449-3.716.889.889 0 0 1 1.611.226.899.899 0 0 1-.071.665 38.856 38.856 0 0 1-2.566 3.897.891.891 0 0 1-.553.341h.006zm4.543-7.886a.89.89 0 0 1-1.045-.756.893.893 0 0 1 .063-.471 36.263 36.263 0 0 0 1.49-4.197.892.892 0 0 1 1.101-.61.892.892 0 0 1 .609 1.104 38.385 38.385 0 0 1-1.561 4.404.888.888 0 0 1-.662.521l.005.005zM341.075 142.886a.884.884 0 0 1-.513-.058 36.6 36.6 0 0 1-2.053-.971.893.893 0 0 1 .804-1.592c.638.324 1.298.636 1.966.925a.892.892 0 0 1-.192 1.696h-.012z"/></g><path d="M339.688 131.422a.45.45 0 0 0 .513.045l4.712-2.813a23.872 23.872 0 0 0 7.375 2.36l2.215 5.025a.45.45 0 0 0 .45.267l6.556-.552a.448.448 0 0 0 .399-.343l1.348-5.324a23.868 23.868 0 0 0 6.876-3.562l5.115 1.985a.455.455 0 0 0 .513-.131l4.246-5.036a.45.45 0 0 0 .042-.514l-2.807-4.723a23.976 23.976 0 0 0 2.356-7.391l5.015-2.228a.45.45 0 0 0 .267-.451l-.551-6.571a.455.455 0 0 0-.342-.401l-5.315-1.35a23.942 23.942 0 0 0-3.544-6.885l1.981-5.128a.457.457 0 0 0-.13-.514l-5.026-4.255a.45.45 0 0 0-.513-.044l-4.723 2.826a23.782 23.782 0 0 0-7.374-2.36l-2.215-5.026a.455.455 0 0 0-.45-.268l-6.555.552a.457.457 0 0 0-.4.343l-1.346 5.325a23.903 23.903 0 0 0-6.879 3.562l-5.114-1.985a.448.448 0 0 0-.513.13l-4.248 5.037a.458.458 0 0 0-.042.522l2.807 4.721a24.047 24.047 0 0 0-2.356 7.392l-5.013 2.219a.45.45 0 0 0-.267.451l.55 6.57a.455.455 0 0 0 .343.402l5.313 1.349a23.927 23.927 0 0 0 3.554 6.891l-1.981 5.128a.456.456 0 0 0 .129.514l5.029 4.239z" fill="#91B3FA"/><path d="M357.043 113.817a6.745 6.745 0 0 1-4.951-1.002 6.777 6.777 0 0 1-2.056-9.159 6.74 6.74 0 0 1 9.057-2.398 6.765 6.765 0 0 1 3.171 3.94 6.779 6.779 0 0 1-.445 5.042 6.754 6.754 0 0 1-4.776 3.577zm-2.131-11.515a4.847 4.847 0 0 0-.703.185 4.968 4.968 0 0 0-2.642 2.548 4.985 4.985 0 0 0-.173 3.671 4.967 4.967 0 0 0 2.389 2.787 4.949 4.949 0 0 0 3.647.381 4.96 4.96 0 0 0 2.691-2.368 4.979 4.979 0 0 0-1.702-6.474 4.95 4.95 0 0 0-3.507-.73z" fill="#BDD0FB"/><path d="M358.995 123.581a17.003 17.003 0 0 1-5.111.17l-.151-.019a.894.894 0 0 1-.43-1.591.892.892 0 0 1 .658-.178c1.058.136 2.127.159 3.19.068l.171-.015a14.812 14.812 0 0 0 6.914-2.467 15.037 15.037 0 0 0 3.023-2.686l.022-.026.065-.077a14.945 14.945 0 0 0 3.486-10.953 15.44 15.44 0 0 0-.205-1.53 15.026 15.026 0 0 0-5.969-9.389 14.963 14.963 0 0 0-20.446 2.79 15.044 15.044 0 0 0-3.043 12.158 15 15 0 0 0 2.566 6 .896.896 0 0 1-.371 1.344.89.89 0 0 1-1.075-.302 16.825 16.825 0 0 1 .416-20.16 16.764 16.764 0 0 1 8.844-5.866 16.73 16.73 0 0 1 10.587.628 16.771 16.771 0 0 1 8.092 6.87 16.823 16.823 0 0 1 2.359 10.362 16.814 16.814 0 0 1-4.318 9.707 16.757 16.757 0 0 1-9.267 5.167l-.007-.005z" fill="#BDD0FB"/><path d="M211.465 242.871s-2.68-7.068-5.816-6.42c-3.135.648-6.553 3.057-6.553 3.057l-5.027 6.814s14.112 5.572 19.076 2.378c0 0 14.415 2.496 32.621-.497-2.636-5.575-4.207-11.159-5.132-15.491-9.21 5.231-19.141 9.138-29.169 10.159z" fill="url(#c)"/><path d="M287.825 191.602s-20.64 26.057-47.181 41.111c.922 4.332 2.492 9.915 5.132 15.49 13.768-2.265 29.704-7.668 43.214-19.675l-1.165-36.926z" fill="url(#d)"/><path d="M313.566 307.073c-4.037-19.213-8.073-30.343-21.588-66.757-4.254-11.46-8.116-23.058-6.249-35.143l2.096-13.572s26.266-8.915 55.379-.374c0 0 39.722 17.292 12.743 102.699-12.161 13.638-26.395 17.522-42.381 13.147z" fill="url(#e)"/><path d="m292.296 174.281 6.812 16.397c.211.51.548.957.979 1.3.431.344.941.573 1.484.665 3.934.674 13.423 1.728 19.66-2.381a1.6 1.6 0 0 0 .679-1.025 1.58 1.58 0 0 0-.255-1.204l-12.583-18.104-16.776 4.352z" fill="url(#f)"/><path d="M299.349 149.194c-.286.27-12.071 23.464-12.071 23.464l13.357 6.463 14.429-20.321s-10.936-14.114-15.715-9.606z" fill="url(#g)"/><path d="m308.985 161.239-6.663 11.129a2.11 2.11 0 0 1-.364.456c-.794.739-3.507 2.89-5.604-.038-1.789-2.497-3.466-4.767-5.264-5.703a2.116 2.116 0 0 0-2.361.286 2.109 2.109 0 0 0-.512.662c-1.099 2.18-3.225 6.624-4.561 10.839a2.129 2.129 0 0 0 1.235 2.606c2.705 1.099 8.05 3.086 12.794 3.741a2.13 2.13 0 0 0 2.015-.858c2.04-2.801 7.793-10.628 9.75-12.591 1.823-1.821 5.19-1.135 6.705-.698a2.13 2.13 0 0 0 1.711-.224c1.539-.929 4.223-3.242 1.767-7.159a2.142 2.142 0 0 1 .658-2.902c1.711-1.134 3.593-3.258 1.809-6.703-1.8-3.485-5.011-3.799-7.199-3.53a2.209 2.209 0 0 1-2.321-1.294 1.404 1.404 0 0 0-1.1-.868 2.072 2.072 0 0 1-1.673-2.434c.385-1.973.096-4.534-3.046-6.266-5.765-3.176-10.813 1.999-12.097 6.367-1.285 4.368 5.161 7.454 9.215 7.97 2.976.379 4.618 3.636 5.266 5.338a2.154 2.154 0 0 1-.16 1.874z" fill="url(#h)"/><path d="M306.65 175.097s2.867-6.759 6.148-6.483c3.28.276 5.862 3.552 1.796 7.232-5.057 4.581-7.944-.749-7.944-.749z" fill="url(#i)"/><path d="M310.981 476.41c6.344.549 17.354 1.442 26.033 1.824 5.217.232 8.221-.281 9.95-.975 0 .195 0 .38-.015.552a1.796 1.796 0 0 1-1.71 1.699c-16.401.917-29.444.317-34.087.034a1.282 1.282 0 0 1-1.042-1.925c.262-.423.553-.827.871-1.209z" fill="url(#j)"/><path d="M337.012 478.234c-8.679-.382-19.688-1.275-26.033-1.824 6.237-7.668 26.033-12.836 26.033-12.836h5.592c3.846 5.554 4.401 10.843 4.359 13.685-1.73.694-4.733 1.207-9.951.975z" fill="url(#k)"/><path d="m343.545 454.426-.523 10.375a2.372 2.372 0 0 1-2.019 2.229 9.154 9.154 0 0 1-4.199-.343 2.802 2.802 0 0 1-1.882-2.155l-1.808-10.101 10.431-.005z" fill="url(#l)"/><path d="M416.164 478.157c2.75-.384 3.996-1.817 4.517-3.348l.011.041c.405 1.615-.534 3.29-2.411 4.085-2.266.962-4.745 1.127-6.671 1.048-2.065-.086-3.96-.943-5.002-2.313l-.015-.02c2.073 1.028 4.983 1.15 9.571.507z" fill="url(#m)"/><path d="M403.194 454.359h4.619c7.023-.144 11.433 14.702 12.877 20.45-.513 1.531-1.767 2.964-4.518 3.348-4.588.641-7.497.514-9.569-.514-3.794-5.004-5.675-12.333-6.58-16.61-1.037-4.862 3.171-6.674 3.171-6.674z" fill="url(#n)"/><path d="m407.212 444.729 2.566 10.205a2.772 2.772 0 0 1-1.437 3.139c-1.433.737-3.448 1.51-5.303 1.287a2.308 2.308 0 0 1-1.881-1.543l-3.763-10.736 9.818-2.352z" fill="url(#o)"/><path d="M410.266 447.679c-3.185 2.832-13.546 3.206-13.546 3.206-37.323-89.772-52.882-114.484-52.882-114.484 5.39 33.883 1.161 120.857 1.161 120.857-6.158 2.723-14.098 0-14.098 0-.5-55.472-8.293-115.078-18.345-153.217 25.226-.57 38.935-6.081 43.314-9.552 21.028 33.968 54.396 153.19 54.396 153.19z" fill="url(#p)"/><path d="m306.202 329.126 4.64 28.932a9.54 9.54 0 0 0 3.686 6.093 9.5 9.5 0 0 0 6.872 1.83l69.464-8.492a6.856 6.856 0 0 0 4.265-2.207 6.885 6.885 0 0 0 1.779-4.467c.149-7.476-.146-20.781-3.276-32.902l-87.43 11.213z" fill="url(#q)"/><path d="M323.345 364.058a.201.201 0 0 1-.135-.055.201.201 0 0 1-.016-.271.194.194 0 0 1 .127-.07l1.572-.192a.182.182 0 0 1 .077.004.19.19 0 0 1 .12.093.195.195 0 0 1 .018.151.201.201 0 0 1-.092.12.196.196 0 0 1-.073.024l-1.572.192-.026.004zm-3.674-.091h-.045a9.205 9.205 0 0 1-1.539-.496.216.216 0 0 1-.065-.043.213.213 0 0 1-.057-.141c0-.026.005-.052.016-.076a.2.2 0 0 1 .043-.065.202.202 0 0 1 .217-.041c.476.201.968.36 1.472.474a.197.197 0 0 1 .153.217.201.201 0 0 1-.197.176l.002-.005zm8.917-.551a.197.197 0 0 1-.209-.185.203.203 0 0 1 .049-.143.199.199 0 0 1 .136-.066l1.572-.192a.198.198 0 0 1 .123.367.195.195 0 0 1-.074.024l-1.572.192-.025.003zm5.243-.639a.197.197 0 0 1-.026-.393l1.572-.191a.182.182 0 0 1 .077.004.19.19 0 0 1 .12.093.195.195 0 0 1 .018.151.201.201 0 0 1-.092.12.196.196 0 0 1-.073.024l-1.572.194-.024-.002zm5.243-.641a.196.196 0 0 1-.136-.054.196.196 0 0 1-.062-.132.2.2 0 0 1 .172-.21l1.574-.192a.194.194 0 0 1 .22.171.196.196 0 0 1-.04.146.197.197 0 0 1-.131.076l-1.572.191-.025.004zm5.242-.641a.198.198 0 0 1-.197-.186.198.198 0 0 1 .172-.21l1.574-.192a.196.196 0 0 1 .21.174.197.197 0 0 1-.163.22l-1.572.192-.024.002zm-29.177-.098a.203.203 0 0 1-.077-.015.205.205 0 0 1-.065-.045 9.334 9.334 0 0 1-1.014-1.263.203.203 0 0 1-.03-.15.202.202 0 0 1 .085-.126c.043-.03.097-.04.149-.03a.2.2 0 0 1 .126.084c.287.432.611.836.97 1.209a.2.2 0 0 1-.144.343v-.007zm34.42-.543a.198.198 0 0 1-.197-.186.197.197 0 0 1 .172-.21l1.573-.192a.205.205 0 0 1 .078.004.205.205 0 0 1 .119.093.202.202 0 0 1-.016.22.2.2 0 0 1-.131.075l-1.572.192-.026.004zm5.243-.642a.2.2 0 0 1-.135-.054.201.201 0 0 1-.016-.271.2.2 0 0 1 .127-.071l1.572-.191a.196.196 0 0 1 .211.174.199.199 0 0 1-.163.22l-1.574.192-.022.001zm5.243-.641a.194.194 0 0 1-.189-.11.195.195 0 0 1-.009-.151.182.182 0 0 1 .039-.067.185.185 0 0 1 .061-.046.19.19 0 0 1 .074-.02l1.572-.194a.215.215 0 0 1 .08.003.203.203 0 0 1 .126.093.206.206 0 0 1 .019.156.212.212 0 0 1-.038.071.207.207 0 0 1-.139.072l-1.572.192-.024.001zm5.243-.641a.195.195 0 0 1-.13-.049.196.196 0 0 1-.067-.122.2.2 0 0 1 .098-.196.196.196 0 0 1 .073-.024l1.572-.192a.206.206 0 0 1 .078.005.193.193 0 0 1 .143.167.2.2 0 0 1-.005.077.205.205 0 0 1-.093.12.203.203 0 0 1-.073.024l-1.572.192-.024-.002zm5.243-.639a.201.201 0 0 1-.135-.055.201.201 0 0 1-.016-.271.198.198 0 0 1 .127-.07l1.572-.192a.198.198 0 0 1 .147.038.195.195 0 0 1 .068.21.201.201 0 0 1-.092.12.196.196 0 0 1-.073.024l-1.572.194-.026.002zm5.243-.641a.2.2 0 0 1-.151-.326.194.194 0 0 1 .127-.07l1.572-.192a.198.198 0 0 1 .179.318.195.195 0 0 1-.131.074l-1.572.194-.024.002zm5.243-.641a.202.202 0 0 1-.135-.055.201.201 0 0 1-.016-.271.197.197 0 0 1 .127-.071l1.572-.191a.202.202 0 0 1 .146.039.204.204 0 0 1 .074.132.197.197 0 0 1-.171.221l-1.573.192-.024.004zm-68.24-.266a.198.198 0 0 1-.129-.05.197.197 0 0 1-.066-.122l-.255-1.57a.2.2 0 0 1 .165-.225.2.2 0 0 1 .227.162l.253 1.565a.199.199 0 0 1-.161.229l-.034.011zm73.483-.382a.198.198 0 0 1-.198-.186.206.206 0 0 1 .044-.14.201.201 0 0 1 .128-.071l1.574-.191a.182.182 0 0 1 .146.039.195.195 0 0 1 .074.132.197.197 0 0 1-.171.221l-1.572.192-.025.004zm5.112-1.142a.196.196 0 0 1-.193-.147.194.194 0 0 1 .009-.128.203.203 0 0 1 .087-.096 6.277 6.277 0 0 0 1.228-.917.193.193 0 0 1 .142-.054c.026 0 .051.006.075.017a.188.188 0 0 1 .105.11.196.196 0 0 1-.004.152.184.184 0 0 1-.044.063 6.795 6.795 0 0 1-1.307.974.204.204 0 0 1-.092.033l-.006-.007zm-79.435-3.701a.206.206 0 0 1-.13-.05.206.206 0 0 1-.067-.122l-.251-1.567a.21.21 0 0 1 .003-.079.196.196 0 0 1 .093-.123.21.21 0 0 1 .154-.023.191.191 0 0 1 .124.093.2.2 0 0 1 .025.076l.251 1.567a.192.192 0 0 1-.004.079.192.192 0 0 1-.092.123.203.203 0 0 1-.075.026h-.031zm82.537-.403a.384.384 0 0 1-.048 0 .205.205 0 0 1-.122-.09.2.2 0 0 1-.022-.15c.11-.454.171-.918.18-1.385v-.143a.202.202 0 0 1 .059-.139.206.206 0 0 1 .139-.058.205.205 0 0 1 .14.061.207.207 0 0 1 .057.142v.145a6.83 6.83 0 0 1-.193 1.473.2.2 0 0 1-.069.108.205.205 0 0 1-.121.043v-.007zm-83.377-4.824a.197.197 0 0 1-.195-.172l-.251-1.568a.195.195 0 0 1 .036-.146.2.2 0 0 1 .356.082l.251 1.569a.21.21 0 0 1-.004.079.196.196 0 0 1-.093.123.199.199 0 0 1-.074.026l-.026.007zm83.589-.455a.197.197 0 0 1-.139-.058.195.195 0 0 1-.06-.139c0-.514 0-1.042-.018-1.585a.201.201 0 0 1 .338-.149c.019.018.034.04.044.065.01.024.015.05.014.077.011.543.016 1.075.019 1.589a.198.198 0 0 1-.197.2h-.001zm-84.427-4.772a.195.195 0 0 1-.195-.171l-.251-1.569a.21.21 0 0 1 .003-.079.212.212 0 0 1 .034-.071.194.194 0 0 1 .134-.076.191.191 0 0 1 .203.096.194.194 0 0 1 .024.075l.25 1.567a.199.199 0 0 1-.171.228h-.031zm84.3-.514a.201.201 0 0 1-.197-.191c-.022-.514-.046-1.049-.075-1.584a.195.195 0 0 1 .011-.076.192.192 0 0 1 .176-.133.19.19 0 0 1 .192.11.187.187 0 0 1 .016.077c.029.537.053 1.068.076 1.589a.204.204 0 0 1-.052.143.198.198 0 0 1-.138.065h-.009zm-85.138-4.704a.196.196 0 0 1-.129-.05.195.195 0 0 1-.066-.122l-.252-1.568a.232.232 0 0 1 .004-.079.222.222 0 0 1 .034-.071.196.196 0 0 1 .134-.078.205.205 0 0 1 .078.003.203.203 0 0 1 .123.093.2.2 0 0 1 .024.075l.253 1.569a.186.186 0 0 1-.003.078.203.203 0 0 1-.093.123.196.196 0 0 1-.075.025l-.032.002zm84.817-.582a.19.19 0 0 1-.134-.052.194.194 0 0 1-.063-.129 135.46 135.46 0 0 0-.137-1.581.2.2 0 0 1 .323-.175.188.188 0 0 1 .07.131c.05.531.096 1.059.139 1.584a.201.201 0 0 1-.047.145.203.203 0 0 1-.136.069l-.015.008zm-85.652-4.645a.2.2 0 0 1-.13-.049.201.201 0 0 1-.065-.123l-.284-1.77.814-.105a.186.186 0 0 1 .078.004c.026.006.05.018.07.034a.195.195 0 0 1 .075.133.199.199 0 0 1-.171.223l-.411.053.219 1.372a.199.199 0 0 1-.162.228h-.033zm85.118-.621a.195.195 0 0 1-.195-.171c-.067-.515-.135-1.046-.207-1.574a.199.199 0 0 1 .09-.214.202.202 0 0 1 .158-.021.221.221 0 0 1 .073.038.21.21 0 0 1 .071.144c.073.528.142 1.052.207 1.577a.2.2 0 0 1-.171.221h-.026zm-81.081-1.495a.2.2 0 0 1-.135-.054.201.201 0 0 1-.016-.271.2.2 0 0 1 .127-.071l1.57-.202a.21.21 0 0 1 .079.003.207.207 0 0 1 .07.034.196.196 0 0 1 .074.135.196.196 0 0 1-.04.146.193.193 0 0 1-.131.076l-1.572.203-.026.001zm5.24-.672a.196.196 0 0 1-.136-.054.194.194 0 0 1-.062-.132.2.2 0 0 1 .172-.21l1.572-.2a.172.172 0 0 1 .078.003.183.183 0 0 1 .07.034.18.18 0 0 1 .051.059.182.182 0 0 1 .023.075.196.196 0 0 1-.04.146.196.196 0 0 1-.131.075l-1.572.203-.025.001zm5.239-.672a.2.2 0 0 1-.153-.325.2.2 0 0 1 .127-.071l1.572-.202a.205.205 0 0 1 .078.004.201.201 0 0 1 .12.093.213.213 0 0 1 .018.152.205.205 0 0 1-.093.119.204.204 0 0 1-.073.025l-1.572.202-.024.003zm5.238-.672a.198.198 0 0 1-.153-.325.2.2 0 0 1 .127-.071l1.572-.2a.186.186 0 0 1 .149.036.196.196 0 0 1 .051.06.18.18 0 0 1 .022.075.196.196 0 0 1-.04.146.196.196 0 0 1-.131.075l-1.572.203-.025.001zm5.239-.672a.194.194 0 0 1-.135-.054.194.194 0 0 1-.062-.132.195.195 0 0 1 .044-.139.201.201 0 0 1 .128-.071l1.572-.2a.2.2 0 0 1 .077.003.19.19 0 0 1 .121.094.2.2 0 0 1-.016.22.196.196 0 0 1-.131.075l-1.572.203-.026.001zm5.24-.672a.198.198 0 0 1-.153-.325.2.2 0 0 1 .127-.071l1.572-.2a.187.187 0 0 1 .078.004.19.19 0 0 1 .12.093.2.2 0 0 1-.147.297l-1.572.201-.025.001zm54.112-.38a.195.195 0 0 1-.195-.172c-.093-.517-.189-1.036-.289-1.556a.19.19 0 0 1 .022-.158.176.176 0 0 1 .056-.059.2.2 0 0 1 .23.003.201.201 0 0 1 .08.138c.101.515.198 1.043.289 1.564a.182.182 0 0 1-.001.077.192.192 0 0 1-.158.153.129.129 0 0 1-.048.01h.014zm-48.873-.292a.2.2 0 0 1-.153-.325.202.202 0 0 1 .127-.071l1.573-.2a.187.187 0 0 1 .148.036.191.191 0 0 1 .072.135.201.201 0 0 1-.171.223l-1.572.201-.024.001zm5.238-.672a.196.196 0 0 1-.161-.327.196.196 0 0 1 .135-.067l1.572-.202a.191.191 0 0 1 .079.002.207.207 0 0 1 .07.034.196.196 0 0 1 .074.135.204.204 0 0 1-.04.147.197.197 0 0 1-.131.076l-1.572.201-.026.001zm5.239-.672a.196.196 0 0 1-.135-.054.194.194 0 0 1-.062-.132.195.195 0 0 1 .044-.139.201.201 0 0 1 .128-.071l1.572-.2a.19.19 0 0 1 .199.096.182.182 0 0 1 .023.075.201.201 0 0 1-.171.223l-1.572.201-.026.001zm5.24-.672a.196.196 0 0 1-.161-.327.196.196 0 0 1 .135-.067l1.572-.202a.187.187 0 0 1 .078.004.207.207 0 0 1 .07.034c.02.016.038.036.051.059a.204.204 0 0 1-.016.221.197.197 0 0 1-.131.076l-1.573.201-.025.001zm5.239-.672a.198.198 0 0 1-.143-.048.199.199 0 0 1 .118-.346l1.572-.202a.182.182 0 0 1 .077.004.207.207 0 0 1 .07.034c.02.016.037.036.05.059a.178.178 0 0 1 .023.074.2.2 0 0 1-.171.223l-1.572.201-.024.001zm5.238-.67a.201.201 0 0 1-.198-.186.2.2 0 0 1 .172-.21l1.572-.202a.191.191 0 0 1 .15.036.185.185 0 0 1 .073.135.199.199 0 0 1-.171.223l-1.572.202-.026.002zm5.239-.672a.196.196 0 0 1-.135-.054.196.196 0 0 1-.062-.132.205.205 0 0 1 .044-.139.201.201 0 0 1 .128-.071l1.572-.202a.186.186 0 0 1 .149.036.196.196 0 0 1 .051.06c.012.023.02.049.022.075a.2.2 0 0 1-.171.223l-1.57.202-.028.002zm5.238-.672a.193.193 0 0 1-.134-.055.198.198 0 0 1 .11-.341l1.571-.202a.19.19 0 0 1 .199.096.182.182 0 0 1 .023.075.2.2 0 0 1-.04.146.196.196 0 0 1-.131.075l-1.572.203-.026.003zm11.119-.189a.196.196 0 0 1-.193-.15 64.327 64.327 0 0 0-.255-1.029l-.171.022a.186.186 0 0 1-.078-.004.19.19 0 0 1-.121-.093.204.204 0 0 1 .016-.221.197.197 0 0 1 .131-.076l.514-.067.044.172c.103.399.203.799.301 1.2a.202.202 0 0 1-.024.15.204.204 0 0 1-.123.09l-.041.006zm-5.886-.483a.197.197 0 0 1-.196-.187.198.198 0 0 1 .172-.209l1.57-.202a.204.204 0 0 1 .078.003.2.2 0 0 1 .145.168.203.203 0 0 1-.04.147.197.197 0 0 1-.131.076l-1.572.202-.026.002z" fill="#fff"/><path d="m323.853 305.427-.077-2.268a1.738 1.738 0 0 1 1.175-1.172c2.118-.623 7.405-1.917 10.234-.314l.719 2.554-12.051 1.2z" fill="url(#r)"/><path d="M330.333 302.4c-.477.184-.99.25-1.497.19a1.364 1.364 0 0 1-1.198-1.179l-.896-7.017 3.563-.457.895 7.011a1.371 1.371 0 0 1-.867 1.452z" fill="url(#s)"/><path d="m358.364 301.003-.077-2.268a1.734 1.734 0 0 1 1.175-1.173c2.119-.622 7.405-1.916 10.234-.313l.719 2.554-12.051 1.2z" fill="url(#t)"/><path d="M364.84 297.981c-.476.184-.99.249-1.497.19a1.372 1.372 0 0 1-1.197-1.181l-.991-7.756 3.563-.456.991 7.751a1.378 1.378 0 0 1-.869 1.452z" fill="url(#u)"/><path d="m326.6 296.165 38.146-6.183a1.867 1.867 0 0 0 1.57-1.747 15.814 15.814 0 0 0-.501-4.882 4.456 4.456 0 0 0-1.798-2.471 4.436 4.436 0 0 0-2.965-.728c-7.17.747-25.364 3.085-34.885 8.347a3.537 3.537 0 0 0-1.804 2.706c-.122 1.089-.113 2.519.405 3.911a1.67 1.67 0 0 0 1.832 1.047z" fill="url(#v)"/><path opacity=".58" d="M325.659 294.616a.536.536 0 0 1-.328-.115.535.535 0 0 1-.185-.295 9.487 9.487 0 0 1-.145-3.053 3.588 3.588 0 0 1 2.102-2.774c2.07-.909 6.043-2.511 9.408-3.039a.516.516 0 0 1 .207.007.539.539 0 0 1 .401.431.53.53 0 0 1-.437.609c-3.365.526-7.516 2.246-9.144 2.961a2.522 2.522 0 0 0-1.482 1.949 8.526 8.526 0 0 0 .128 2.671.529.529 0 0 1-.525.648z" fill="#fff"/><path d="M305.966 306.833c12.357-1.745 65.831-9.175 81.624-9.29a3.19 3.19 0 0 1 3.037 2.109c1.45 4.046 4.534 13.483 5.54 23.1a2.792 2.792 0 0 1-1.933 2.94l-34.644 11.285-12.612 1.617-38.792-2.685a2.98 2.98 0 0 1-2.737-2.446c-.855-4.8-2.691-16.061-2.32-23.515a3.312 3.312 0 0 1 .859-2.069 3.295 3.295 0 0 1 1.978-1.046z" fill="url(#w)"/><path d="M346.887 335.688h-.013l-1.581-.11a.201.201 0 0 1-.185-.212.22.22 0 0 1 .072-.132.219.219 0 0 1 .141-.052l1.58.11a.198.198 0 0 1 .175.204.199.199 0 0 1-.189.192zm1.444-.185a.201.201 0 0 1-.198-.186.2.2 0 0 1 .172-.21l1.573-.201a.187.187 0 0 1 .2.096c.012.024.02.049.022.076a.2.2 0 0 1-.171.223l-1.572.2-.026.002zm-6.712-.171h-.019l-1.58-.11a.194.194 0 0 1-.075-.02.194.194 0 0 1-.1-.114.184.184 0 0 1-.01-.077.214.214 0 0 1 .21-.185l1.582.11c.05.006.095.03.127.068a.197.197 0 0 1-.009.268.2.2 0 0 1-.131.06h.005zm-5.27-.366h-.014l-1.581-.108a.197.197 0 0 1-.135-.068.205.205 0 0 1-.048-.144.217.217 0 0 1 .211-.185l1.58.109a.202.202 0 0 1 .175.205.199.199 0 0 1-.188.191zm17.222-.126a.198.198 0 0 1-.198-.186.202.202 0 0 1 .045-.14.191.191 0 0 1 .127-.07l1.572-.201a.186.186 0 0 1 .149.036.209.209 0 0 1 .051.06c.012.023.02.049.022.075a.199.199 0 0 1-.171.223l-1.572.201-.025.002zm-22.491-.237h-.014l-1.58-.108a.199.199 0 0 1-.183-.213.218.218 0 0 1 .21-.185l1.581.11a.198.198 0 0 1 .191.206.2.2 0 0 1-.205.192v-.002zm-5.268-.365h-.014l-1.581-.11a.201.201 0 0 1-.136-.068.201.201 0 0 1-.048-.145.214.214 0 0 1 .212-.183l1.58.11c.05.006.095.03.127.068a.204.204 0 0 1 .048.136.201.201 0 0 1-.057.133.204.204 0 0 1-.131.059zm32.998-.07a.203.203 0 0 1-.135-.054.204.204 0 0 1-.063-.132.202.202 0 0 1 .045-.14.196.196 0 0 1 .127-.07l.103-.012 1.369-.451a.196.196 0 0 1 .15.012.2.2 0 0 1 .109.191.196.196 0 0 1-.069.136.204.204 0 0 1-.067.038l-1.548.48-.021.002zm-38.269-.295h-.013l-1.581-.11a.2.2 0 0 1-.136-.067.194.194 0 0 1-.047-.144.21.21 0 0 1 .21-.185l1.581.11a.2.2 0 0 1 .185.211.199.199 0 0 1-.199.176v.009zm-5.268-.366h-.016l-1.58-.108a.2.2 0 0 1-.185-.212.213.213 0 0 1 .212-.185l1.581.11a.197.197 0 0 1 .174.204.197.197 0 0 1-.057.132.192.192 0 0 1-.131.059h.002zm-5.27-.363h-.012l-1.689-.116-.027-.151a.219.219 0 0 1 .154-.254.184.184 0 0 1 .081-.003.209.209 0 0 1 .076.03l1.43.098a.201.201 0 0 1 .138.063.198.198 0 0 1 .036.218.198.198 0 0 1-.187.117v-.002zm53.834-.595a.191.191 0 0 1-.127-.048.2.2 0 0 1-.041-.254.197.197 0 0 1 .107-.085l1.507-.49a.198.198 0 0 1 .151.013.198.198 0 0 1-.028.365l-1.507.491a.321.321 0 0 1-.062 0v.008zm5.023-1.635a.204.204 0 0 1-.128-.048.196.196 0 0 1-.067-.12.203.203 0 0 1 .026-.134.206.206 0 0 1 .107-.086l1.507-.49a.203.203 0 0 1 .252.127.2.2 0 0 1-.061.213.214.214 0 0 1-.068.037l-1.507.491a.208.208 0 0 1-.061.001v.009zm-61.018-1.579a.197.197 0 0 1-.195-.171c-.081-.502-.162-1.026-.245-1.573a.215.215 0 0 1 0-.08.21.21 0 0 1 .032-.074.19.19 0 0 1 .058-.055.194.194 0 0 1 .226.012.18.18 0 0 1 .052.061c.013.024.022.05.024.076.082.544.171 1.069.243 1.571a.194.194 0 0 1-.171.226l-.024.007zm66.042-.057a.192.192 0 0 1-.116-.038.206.206 0 0 1-.073-.099.201.201 0 0 1 .059-.212.198.198 0 0 1 .068-.038l1.507-.492a.198.198 0 0 1 .151.013.203.203 0 0 1 .108.192.203.203 0 0 1-.069.135.199.199 0 0 1-.067.037l-1.507.492a.179.179 0 0 1-.061.002v.008zm5.022-1.637a.199.199 0 0 1-.062-.387l1.507-.49a.198.198 0 0 1 .25.126.196.196 0 0 1-.059.213.198.198 0 0 1-.068.038l-1.507.49a.208.208 0 0 1-.061.002v.008zm5.024-1.635a.204.204 0 0 1-.128-.048.201.201 0 0 1-.041-.254.206.206 0 0 1 .107-.086l1.507-.49a.184.184 0 0 1 .08-.015.193.193 0 0 1 .145.066.22.22 0 0 1 .041.071.207.207 0 0 1-.017.16.205.205 0 0 1-.053.061.208.208 0 0 1-.074.034l-1.506.491a.208.208 0 0 1-.061.001v.009zm5.022-1.636a.199.199 0 0 1-.062-.387l1.507-.492a.198.198 0 0 1 .238.131.2.2 0 0 1-.114.246l-1.507.492a.185.185 0 0 1-.062.002v.008zm-81.871-.277a.204.204 0 0 1-.131-.049.202.202 0 0 1-.066-.123c-.067-.514-.133-1.046-.197-1.577a.203.203 0 0 1 .096-.206.2.2 0 0 1 .276.081.19.19 0 0 1 .022.077c.063.53.13 1.056.197 1.574a.2.2 0 0 1-.171.223h-.026zm85.882-2.011a.197.197 0 0 1-.196-.172 68.062 68.062 0 0 0-.213-1.57.205.205 0 0 1 .039-.148.205.205 0 0 1 .058-.052.216.216 0 0 1 .153-.022.187.187 0 0 1 .122.094.194.194 0 0 1 .024.075c.077.526.148 1.051.212 1.579a.2.2 0 0 1-.171.221l-.028-.005zm-86.465-3.257a.195.195 0 0 1-.134-.053.194.194 0 0 1-.063-.129 96.82 96.82 0 0 1-.132-1.586.197.197 0 0 1 .184-.201.198.198 0 0 1 .211.172c.04.525.084 1.052.13 1.581a.197.197 0 0 1-.171.214l-.025.002zm85.632-1.973a.202.202 0 0 1-.125-.046.193.193 0 0 1-.068-.116c-.103-.522-.208-1.04-.315-1.553a.197.197 0 0 1 .036-.139.205.205 0 0 1 .12-.079.202.202 0 0 1 .142.023.205.205 0 0 1 .089.113c.109.514.214 1.029.316 1.56a.205.205 0 0 1 0 .078.203.203 0 0 1-.085.126.214.214 0 0 1-.072.029l-.038.004zm-85.951-3.309a.2.2 0 0 1-.139-.057.2.2 0 0 1-.059-.138c-.01-.429-.015-.858-.015-1.267v-.328a.201.201 0 0 1 .198-.197.2.2 0 0 1 .197.201v.324c0 .411.005.831.017 1.258a.2.2 0 0 1-.053.139.2.2 0 0 1-.134.065h-.012zm84.805-1.857a.2.2 0 0 1-.193-.15c-.13-.522-.261-1.036-.394-1.543a.205.205 0 0 1 .02-.151.196.196 0 0 1 .121-.091.2.2 0 0 1 .241.14c.133.503.267 1.017.397 1.543a.228.228 0 0 1 .004.078.208.208 0 0 1-.078.13.202.202 0 0 1-.07.032.156.156 0 0 1-.048.004v.008zm-82.851-1.829a.2.2 0 0 1-.2-.185.2.2 0 0 1 .172-.211l1.571-.219a.199.199 0 0 1 .156.03.189.189 0 0 1 .056.06.189.189 0 0 1 .022.158.197.197 0 0 1-.179.144l-1.569.222-.029.001zm5.234-.728a.195.195 0 0 1-.195-.172.206.206 0 0 1 .039-.148.201.201 0 0 1 .132-.076l1.571-.216a.205.205 0 0 1 .078.003.207.207 0 0 1 .07.034.209.209 0 0 1 .052.059.204.204 0 0 1-.016.222.197.197 0 0 1-.131.076l-1.571.218h-.029zm5.236-.719a.194.194 0 0 1-.135-.054.194.194 0 0 1-.062-.132.195.195 0 0 1 .044-.139.201.201 0 0 1 .128-.071l1.57-.212a.206.206 0 0 1 .082-.002.227.227 0 0 1 .075.032.189.189 0 0 1 .056.06c.014.023.024.05.027.077a.19.19 0 0 1-.006.082.185.185 0 0 1-.038.072.188.188 0 0 1-.064.051.2.2 0 0 1-.079.02l-1.57.215-.028.001zm5.236-.708a.193.193 0 0 1-.136-.053.195.195 0 0 1-.063-.132.198.198 0 0 1 .172-.211l1.572-.21a.182.182 0 0 1 .077.004.2.2 0 0 1 .106.314.2.2 0 0 1-.132.076l-1.572.211-.024.001zm5.238-.697a.199.199 0 0 1-.153-.325.195.195 0 0 1 .127-.071l1.572-.208a.21.21 0 0 1 .079.004.2.2 0 0 1 .143.246.195.195 0 0 1-.036.07.185.185 0 0 1-.06.051.195.195 0 0 1-.074.024l-1.572.207-.026.002zm60.506-.425a.201.201 0 0 1-.19-.141c-.157-.528-.313-1.029-.465-1.517a.194.194 0 0 1 .014-.151.198.198 0 0 1 .193-.107.19.19 0 0 1 .134.07c.017.02.029.043.037.068.153.484.309.992.467 1.522a.198.198 0 0 1-.133.247.182.182 0 0 1-.057 0v.009zm-55.267-.263a.196.196 0 0 1-.209-.184.196.196 0 0 1 .184-.21l1.572-.204a.198.198 0 0 1 .218.172.198.198 0 0 1-.167.222l-1.572.202-.026.002zm5.24-.672a.198.198 0 0 1-.153-.325.2.2 0 0 1 .127-.071l1.572-.199a.186.186 0 0 1 .078.004.193.193 0 0 1 .145.168.2.2 0 0 1-.171.221l-1.572.201-.026.001zm5.239-.66a.193.193 0 0 1-.134-.055.198.198 0 0 1 .11-.341l1.572-.195a.204.204 0 0 1 .078.003.19.19 0 0 1 .143.168.2.2 0 0 1-.039.146.193.193 0 0 1-.132.075l-1.572.196-.026.003zm5.243-.644a.197.197 0 0 1-.134-.055.198.198 0 0 1 .11-.341l1.574-.189a.182.182 0 0 1 .077.004.183.183 0 0 1 .07.034.192.192 0 0 1 .072.134.198.198 0 0 1-.171.221l-1.572.188-.026.004zm5.247-.626a.197.197 0 0 1-.157-.317.165.165 0 0 1 .058-.05.185.185 0 0 1 .073-.024l1.574-.183a.19.19 0 0 1 .22.171.195.195 0 0 1-.171.219l-1.573.184h-.024zm5.246-.602a.202.202 0 0 1-.134-.055.201.201 0 0 1-.061-.132.205.205 0 0 1 .046-.139.202.202 0 0 1 .127-.07l1.575-.171a.195.195 0 0 1 .178.316.2.2 0 0 1-.13.075l-1.574.171-.027.005zm5.251-.574a.196.196 0 0 1-.133-.056.2.2 0 0 1 .113-.34l1.575-.171a.194.194 0 0 1 .136.049.2.2 0 0 1-.095.345l-1.575.171-.021.002zm5.255-.538a.201.201 0 0 1-.133-.057.206.206 0 0 1-.059-.133.196.196 0 0 1 .047-.137.197.197 0 0 1 .126-.069l1.578-.153a.19.19 0 0 1 .143.041c.02.016.037.035.049.058a.196.196 0 0 1-.148.289l-1.577.152-.026.009zm16.919-.458a.2.2 0 0 1-.188-.134l-.202-.567-.718.01a.197.197 0 0 1-.198-.199c0-.053.02-.103.058-.14a.194.194 0 0 1 .14-.059l.778-.01a.31.31 0 0 1 .298.196l.227.637a.205.205 0 0 1-.008.152.206.206 0 0 1-.187.114zm-11.654-.031a.198.198 0 0 1-.19-.19.2.2 0 0 1 .046-.137.201.201 0 0 1 .127-.069l1.581-.132a.193.193 0 0 1 .15.043.204.204 0 0 1 .051.062c.012.024.02.05.022.077a.198.198 0 0 1-.192.214l-1.578.132h-.017zm5.265-.408a.199.199 0 0 1-.187-.192.198.198 0 0 1 .049-.136.195.195 0 0 1 .126-.068c.55-.036 1.078-.068 1.583-.098a.194.194 0 0 1 .147.046.18.18 0 0 1 .046.064.188.188 0 0 1 .017.077.197.197 0 0 1-.051.143.195.195 0 0 1-.135.066c-.513.03-1.027.062-1.581.098h-.014z" fill="#fff"/><path d="m359.08 342.436-11.048 1.416a2.875 2.875 0 0 1-3.161-2.15l-2.636-10.49a2.878 2.878 0 0 1 2.43-3.555l13.274-1.703a2.865 2.865 0 0 1 2.229.654 2.877 2.877 0 0 1 1.021 2.089l.413 10.776a2.884 2.884 0 0 1-2.522 2.963z" fill="url(#x)"/><path d="m357.471 340.649-8.41 1.079a2.195 2.195 0 0 1-2.405-1.636l-2.006-7.985a2.191 2.191 0 0 1 1.851-2.705l10.102-1.296c.301-.039.607-.015.899.07a2.187 2.187 0 0 1 1.348 1.139c.134.273.209.571.222.875l.318 8.21a2.19 2.19 0 0 1-1.919 2.249z" fill="url(#y)"/><path d="M350.899 255.739c2.607 10.8 2.675 21.351 2.278 25.2a2.99 2.99 0 0 1-2.761 2.683c-1.649.115-3.89.267-5.894.382-2.202.129-4.648-1.267-6.281-2.433a.986.986 0 0 0-1.449 1.245c.804 1.575 2.198 2.815 3.583 3.869.832.634 3.601 1.762 3.408 3.01a2.22 2.22 0 0 1-.553 1.044c-1.539 1.85-3.866 2.838-6.158 3.544a1.693 1.693 0 0 0-.795.408c-.058 1.488 4.512 3.142 5.691 3.535 1.766.603 3.64.821 5.498.639 4.598-.485 8.843-3.665 11.32-7.5 6.62-10.251 10.043-22.628 11.29-32.1-6.16-6.175-15.459-4.611-19.177-3.526z" fill="url(#z)"/><path d="M370.074 260.229c4.913-37.183-23.679-65.774-23.679-65.774l-17.012 19.875c12.915 16.133 19.054 30.917 21.86 42.528 3.718-1.078 12.673-2.801 18.831 3.371z" fill="url(#A)"/><path d="M350.837 256.684a1.052 1.052 0 0 1-1.026-.808c-3.457-14.314-10.744-28.484-21.656-42.116a1.068 1.068 0 0 1-.251-.786 1.058 1.058 0 0 1 .763-.92 1.057 1.057 0 0 1 1.13.384c11.108 13.886 18.532 28.325 22.066 42.941a1.064 1.064 0 0 1-.199.9 1.048 1.048 0 0 1-.827.405z" fill="url(#B)"/><path d="M120.443 477.111a2.038 2.038 0 0 0-.057-.55c-2.737-10.87-16.313-17.64-16.313-17.64l-5.373.422c-3.095 9.581-2.696 15.458-2.2 18.075.014.074.036.143.055.215 4.43.396 13.566.653 23.888-.522z" fill="url(#C)"/><path d="M96.546 477.632c.241.873.884 1.554 1.71 1.728 6.314 1.331 16.35.259 20.563-.293.931-.121 1.61-.982 1.625-1.956-10.323 1.175-19.459.917-23.898.521z" fill="url(#D)"/><path d="m96.527 451.311 2.279 10.996c.17.805.785 1.407 1.539 1.477 1.176.12 2.361.101 3.533-.054 1.175-.172 1.992-1.372 1.785-2.656l-1.584-9.763h-7.552z" fill="url(#E)"/><path d="M143.747 477.492c-5.944-.171-9.016-.867-10.605-1.519 0 .593 0 1.2.019 1.821.02.667.513 1.2 1.118 1.2l32.631-.211c1.042 0 1.649-1.217 1.198-2.174-4.278.348-15.175 1.142-24.361.883z" fill="url(#F)"/><path d="M168.109 476.604a1.455 1.455 0 0 0-.13-.247c-2.882-4.035-10.22-12.07-24.724-15.555l-6.957-.221s-3.098 5.396-3.156 15.392c1.589.652 4.661 1.353 10.605 1.519 9.186.259 20.083-.535 24.362-.888z" fill="url(#G)"/><path d="M134.698 450.343c.11.514 1.557 8.338 2.118 11.371.05.336.211.646.458.88.246.233.564.377.902.407 1.197.067 3.113.076 4.766-.375.891-.242 1.49-1.152 1.426-2.164l-.778-12.375-8.892 2.256z" fill="url(#H)"/><path d="M129.425 305.885s9.579 65.909 16.478 144.343c.13 1.461-1.027 2.731-2.464 3.033-2.11.445-5.212.975-7.779.903a2.889 2.889 0 0 1-2.749-2.414c-2.354-13.829-19.143-88.045-23.549-104.379 0 0-5.062 69.384-3.444 105.381a1.712 1.712 0 0 1-1.502 1.774c-2.076.222-4.17.217-6.245-.017a2.28 2.28 0 0 1-2.029-1.937c-1.676-11.704-11.322-81.367-10.913-131.55.024-2.83 3.313-26.082 3.313-26.082l40.883 10.945z" fill="url(#I)"/><path d="M87.104 309.684a2.712 2.712 0 0 1-1.776-2.285c-1.274-12.375-7.436-89.103 31.475-120.665 0 0 2.223-5.851 20.569 8.53s8.52 29.453 4.129 50.242c-5.313 25.158-14.633 45.722-10.509 61.2a2.145 2.145 0 0 1-1.312 2.572c-14.251 5.266-28.442 5.439-42.576.406z" fill="url(#J)"/><path d="M131.972 163.743c-.012 1.092-15.547 23.207-15.547 23.207s2.789 5.503 16.101 9.972l11.49-23.678-12.044-9.501z" fill="url(#K)"/><path d="M144.201 151.073s5.527 12.725 5.898 19.404c.371 6.679 1.808 11.013-5.898 12.358-7.706 1.346-14.198-2.503-17.715-9.156 0 0-5.511-10.251-4.276-14.449 1.235-4.199 21.991-8.157 21.991-8.157z" fill="url(#L)"/><path d="m129.122 168.897.44-.194a1.07 1.07 0 0 0 .57-.618 1.058 1.058 0 0 0-.057-.839c-1.088-2.104-3.206-6.926-.469-8.057 3.527-1.451 17.498-4.305 20.512-9.273 2.897-4.774.33-10.939-3.528-12.686a.527.527 0 0 0-.694.227l-.322.61a.523.523 0 0 1-.966-.1.513.513 0 0 0-.943-.135c-.927 1.486-3.421 3.897-10.118 5.133-9.507 1.758-15.792 5.614-15.949 12.198a.52.52 0 0 1-.277.456.527.527 0 0 1-.532-.024c-.703-.428-1.825-.629-3.327.636-2.61 2.2-1.54 7.907 4.18 12.602a.522.522 0 0 1 .206.426.52.52 0 0 1-.229.414c-1.039.686-2.585 2.289 1.423 4.435 4.146 2.229 7.241 2.038 8.433 1.841a.507.507 0 0 0 .35-.222.506.506 0 0 0 .072-.409l-1.267-5.775a.524.524 0 0 1 .513-.638l1.979-.008z" fill="url(#M)"/><path d="M129.362 170.117s-2.11-8.129-5.746-5.849c-3.637 2.28 1.881 9.108 4.812 9.411l.934-3.562z" fill="url(#N)"/><path d="m143.267 201.943 1.071 28.829a79.26 79.26 0 0 0 8.696 2.476c1.726-5.567 5.524-12.398 8.635-17.486-11.428-4.048-18.402-13.819-18.402-13.819z" fill="url(#O)"/><path d="M200.326 201.446c-15.677 16.971-28.368 17.962-38.659 14.317-3.111 5.08-6.909 11.911-8.635 17.486 41.867 9.257 51.725-29.314 51.725-29.314l-4.431-2.489z" fill="url(#P)"/><path d="M203.504 199.644s1.807-1.942 5.149-1.332c3.343.61 6.317 1.774 8.399 0 2.082-1.774 2.816.607 2.816.607l-6.237 4.75-10.127-4.025z" fill="url(#Q)"/><path d="M199.775 202.972s1.237-5.184 4.961-4.475c3.724.71 12.195 5.325 14.369 4.475 2.174-.851 4.971-2.884 6.402-2.166l-2.521 3.143s6.481-3.748 7.597-1.445l-10.777 6.082s-15.771-1.589-20.031-5.614z" fill="url(#R)"/><path d="M125.864 239.668s29.473 24.738 61.301 13.944a7.577 7.577 0 0 1 5.975.45l9.15 4.845a8.155 8.155 0 0 0 6.016.643 8.167 8.167 0 0 0 4.808-3.681c1.271-2.132 2.358-4.565 2.566-6.898l-17.897-7.257 1.32-2.199s-8.743-.742-11.03 5.535c0 0-16.65 6.942-44.729-24.01.002-.007-12.742 10.85-17.48 18.628z" fill="url(#S)"/><path d="M124.276 239.412a.49.49 0 0 1-.28-.087c-12.412-8.4-18.249-21.966-18.304-22.103a.507.507 0 0 1 .459-.717.491.491 0 0 1 .362.154.493.493 0 0 1 .108.169c.057.132 5.787 13.428 17.942 21.66a.506.506 0 0 1-.284.924h-.003z" fill="url(#T)"/><path d="M142.762 220.613a.5.5 0 0 1-.424-.233c-.038-.058-3.83-5.973-11.05-18.931-2.224-3.986-5.132-6.514-8.675-7.5-5.853-1.639-11.496 1.507-11.551 1.543a.514.514 0 0 1-.616-.231c-.059-.105-.08-.227-.059-.345a.507.507 0 0 1 .176-.303c.242-.138 6.046-3.391 12.316-1.634 3.807 1.064 6.934 3.749 9.293 7.982 7.203 12.925 10.98 18.819 11.018 18.877a.508.508 0 0 1-.424.78l-.004-.005z" fill="url(#U)"/></g><defs><linearGradient id="y" x1="345.149" y1="335.909" x2="359.604" y2="334.062" gradientUnits="userSpaceOnUse"><stop stop-color="#FF928E"/><stop offset="1" stop-color="#FE7062"/></linearGradient><linearGradient id="b" x1="520.14" y1="486.413" x2="163.333" y2="174.885" gradientUnits="userSpaceOnUse"><stop stop-color="#DAE3FE"/><stop offset="1" stop-color="#E9EFFD"/></linearGradient><linearGradient id="d" x1="234.95" y1="263.246" x2="316.258" y2="174.809" gradientUnits="userSpaceOnUse"><stop stop-color="#09005D"/><stop offset="1" stop-color="#1A0F91"/></linearGradient><linearGradient id="e" x1="271.978" y1="297.288" x2="353.286" y2="208.853" gradientUnits="userSpaceOnUse"><stop stop-color="#010648"/><stop offset="1" stop-color="#1A0F91"/></linearGradient><linearGradient id="f" x1="313.743" y1="201.401" x2="305.422" y2="176.488" gradientUnits="userSpaceOnUse"><stop stop-color="#FEBBBA"/><stop offset="1" stop-color="#FF928E"/></linearGradient><linearGradient id="g" x1="290.382" y1="158.794" x2="320.197" y2="171.729" gradientUnits="userSpaceOnUse"><stop stop-color="#FEBBBA"/><stop offset="1" stop-color="#FF928E"/></linearGradient><linearGradient id="h" x1="306.66" y1="179.241" x2="282.045" y2="153.256" gradientUnits="userSpaceOnUse"><stop stop-color="#09005D"/><stop offset="1" stop-color="#1A0F91"/></linearGradient><linearGradient id="i" x1="288.526" y1="163.075" x2="318.342" y2="176.01" gradientUnits="userSpaceOnUse"><stop stop-color="#FEBBBA"/><stop offset="1" stop-color="#FF928E"/></linearGradient><linearGradient id="j" x1="346.963" y1="478.205" x2="309.934" y2="478.205" gradientUnits="userSpaceOnUse"><stop stop-color="#4F52FF"/><stop offset="1" stop-color="#4042E2"/></linearGradient><linearGradient id="k" x1="436.341" y1="443.486" x2="302.219" y2="481.631" gradientUnits="userSpaceOnUse"><stop stop-color="#09005D"/><stop offset="1" stop-color="#1A0F91"/></linearGradient><linearGradient id="l" x1="343.545" y1="460.778" x2="333.114" y2="460.778" gradientUnits="userSpaceOnUse"><stop stop-color="#FEBBBA"/><stop offset="1" stop-color="#FF928E"/></linearGradient><linearGradient id="m" x1="420.784" y1="477.405" x2="406.593" y2="477.405" gradientUnits="userSpaceOnUse"><stop stop-color="#30ABBA"/><stop offset="1" stop-color="#6165D7"/></linearGradient><linearGradient id="n" x1="361.593" y1="435.701" x2="445.259" y2="490.063" gradientUnits="userSpaceOnUse"><stop stop-color="#010648"/><stop offset="1" stop-color="#1A0F91"/></linearGradient><linearGradient id="o" x1="409.855" y1="452.064" x2="397.388" y2="452.064" gradientUnits="userSpaceOnUse"><stop stop-color="#FEBBBA"/><stop offset="1" stop-color="#FF928E"/></linearGradient><linearGradient id="p" x1="411.612" y1="470.407" x2="220.859" y2="207.253" gradientUnits="userSpaceOnUse"><stop stop-color="#09005D"/><stop offset="1" stop-color="#1A0F91"/></linearGradient><linearGradient id="q" x1="346.46" y1="296.205" x2="351.093" y2="329.721" gradientUnits="userSpaceOnUse"><stop stop-color="#E1473D"/><stop offset="1" stop-color="#E9605A"/></linearGradient><linearGradient id="r" x1="330.858" y1="310.44" x2="328.756" y2="298.115" gradientUnits="userSpaceOnUse"><stop stop-color="#E1473D"/><stop offset="1" stop-color="#E9605A"/></linearGradient><linearGradient id="s" x1="327.835" y1="291.919" x2="334.954" y2="327.098" gradientUnits="userSpaceOnUse"><stop stop-color="#E1473D"/><stop offset="1" stop-color="#E9605A"/></linearGradient><linearGradient id="t" x1="365.124" y1="304.596" x2="363.02" y2="292.271" gradientUnits="userSpaceOnUse"><stop stop-color="#E1473D"/><stop offset="1" stop-color="#E9605A"/></linearGradient><linearGradient id="u" x1="361.873" y1="285.033" x2="368.991" y2="320.214" gradientUnits="userSpaceOnUse"><stop stop-color="#E1473D"/><stop offset="1" stop-color="#E9605A"/></linearGradient><linearGradient id="v" x1="345.512" y1="269.558" x2="345.303" y2="295.29" gradientUnits="userSpaceOnUse"><stop stop-color="#FF928E"/><stop offset="1" stop-color="#FE7062"/></linearGradient><linearGradient id="w" x1="350.021" y1="362.621" x2="349.635" y2="318.315" gradientUnits="userSpaceOnUse"><stop stop-color="#FF928E"/><stop offset="1" stop-color="#FE7062"/></linearGradient><linearGradient id="x" x1="349.26" y1="347.189" x2="353.506" y2="327.546" gradientUnits="userSpaceOnUse"><stop stop-color="#E1473D"/><stop offset="1" stop-color="#E9605A"/></linearGradient><linearGradient id="c" x1="195.3" y1="252.845" x2="200.874" y2="250.917" gradientUnits="userSpaceOnUse"><stop stop-color="#FEBBBA"/><stop offset="1" stop-color="#FF928E"/></linearGradient><linearGradient id="z" x1="360.842" y1="261.773" x2="332.52" y2="316.124" gradientUnits="userSpaceOnUse"><stop stop-color="#FEBBBA"/><stop offset="1" stop-color="#FF928E"/></linearGradient><linearGradient id="A" x1="284.051" y1="308.388" x2="365.358" y2="219.951" gradientUnits="userSpaceOnUse"><stop stop-color="#09005D"/><stop offset="1" stop-color="#1A0F91"/></linearGradient><linearGradient id="B" x1="343.001" y1="222.156" x2="361.915" y2="147.817" gradientUnits="userSpaceOnUse"><stop stop-color="#09005D"/><stop offset="1" stop-color="#1A0F91"/></linearGradient><linearGradient id="C" x1="96.151" y1="468.444" x2="120.443" y2="468.444" gradientUnits="userSpaceOnUse"><stop stop-color="#09005D"/><stop offset="1" stop-color="#1A0F91"/></linearGradient><linearGradient id="D" x1="156.963" y1="439.724" x2="68.444" y2="509.079" gradientUnits="userSpaceOnUse"><stop stop-color="#4F52FF"/><stop offset="1" stop-color="#6165D7"/></linearGradient><linearGradient id="E" x1="102.906" y1="440.729" x2="98.247" y2="481.309" gradientUnits="userSpaceOnUse"><stop stop-color="#FEBBBA"/><stop offset="1" stop-color="#FF928E"/></linearGradient><linearGradient id="F" x1="172.663" y1="459.732" x2="84.144" y2="529.087" gradientUnits="userSpaceOnUse"><stop stop-color="#4F52FF"/><stop offset="1" stop-color="#4042E2"/></linearGradient><linearGradient id="G" x1="133.14" y1="469.063" x2="168.108" y2="469.063" gradientUnits="userSpaceOnUse"><stop stop-color="#09005D"/><stop offset="1" stop-color="#1A0F91"/></linearGradient><linearGradient id="H" x1="140.097" y1="445.026" x2="138.006" y2="485.823" gradientUnits="userSpaceOnUse"><stop stop-color="#FEBBBA"/><stop offset="1" stop-color="#FF928E"/></linearGradient><linearGradient id="I" x1="142.588" y1="292.45" x2="64.803" y2="538.103" gradientUnits="userSpaceOnUse"><stop stop-color="#09005D"/><stop offset="1" stop-color="#1A0F91"/></linearGradient><linearGradient id="J" x1="70.881" y1="311.584" x2="159.147" y2="203.509" gradientUnits="userSpaceOnUse"><stop stop-color="#FF928E"/><stop offset="1" stop-color="#FE7062"/></linearGradient><linearGradient id="K" x1="111.731" y1="192.573" x2="144.059" y2="173.371" gradientUnits="userSpaceOnUse"><stop stop-color="#FEBBBA"/><stop offset="1" stop-color="#FF928E"/></linearGradient><linearGradient id="L" x1="146.957" y1="179.588" x2="128.054" y2="151.872" gradientUnits="userSpaceOnUse"><stop stop-color="#FEBBBA"/><stop offset="1" stop-color="#FF928E"/></linearGradient><linearGradient id="M" x1="112.032" y1="131.234" x2="138.744" y2="162.452" gradientUnits="userSpaceOnUse"><stop stop-color="#09005D"/><stop offset="1" stop-color="#1A0F91"/></linearGradient><linearGradient id="N" x1="137.814" y1="185.825" x2="118.919" y2="158.123" gradientUnits="userSpaceOnUse"><stop stop-color="#FEBBBA"/><stop offset="1" stop-color="#FF928E"/></linearGradient><linearGradient id="O" x1="113.987" y1="264.422" x2="154.853" y2="208.643" gradientUnits="userSpaceOnUse"><stop stop-color="#FF928E"/><stop offset="1" stop-color="#FE7062"/></linearGradient><linearGradient id="P" x1="221.022" y1="199.023" x2="153.173" y2="232.703" gradientUnits="userSpaceOnUse"><stop stop-color="#FEBBBA"/><stop offset="1" stop-color="#FF928E"/></linearGradient><linearGradient id="Q" x1="220.03" y1="190.548" x2="196.789" y2="214.768" gradientUnits="userSpaceOnUse"><stop stop-color="#FEBBBA"/><stop offset="1" stop-color="#FF928E"/></linearGradient><linearGradient id="R" x1="221.346" y1="198.624" x2="153.494" y2="232.302" gradientUnits="userSpaceOnUse"><stop stop-color="#FEBBBA"/><stop offset="1" stop-color="#FF928E"/></linearGradient><linearGradient id="S" x1="249.674" y1="255.967" x2="52.908" y2="220.463" gradientUnits="userSpaceOnUse"><stop stop-color="#FEBBBA"/><stop offset="1" stop-color="#FF928E"/></linearGradient><linearGradient id="T" x1="153.28" y1="169.495" x2="66.983" y2="301.479" gradientUnits="userSpaceOnUse"><stop stop-color="#E1473D"/><stop offset="1" stop-color="#E9605A"/></linearGradient><linearGradient id="U" x1="152.086" y1="168.715" x2="65.79" y2="300.699" gradientUnits="userSpaceOnUse"><stop stop-color="#E1473D"/><stop offset="1" stop-color="#E9605A"/></linearGradient><clipPath id="a"><path fill="#fff" d="M0 0h480v480H0z"/></clipPath></defs></svg>