<svg width="480" height="480" fill="none" xmlns="http://www.w3.org/2000/svg"><g clip-path="url(#a)"><path d="M422.312 405.394c-9.643 10.15-18.766 16.697-25.973 21.868-84.729 60.793-184.985 43.073-206.294 38.742-31.464-6.387-92.283-18.747-136.255-70.45-66.524-78.231-56.167-201.485-4.565-282.845 9.439-14.883 59.297-97.483 160.629-110.73 61.327-8.017 132.816 8.152 184.585 51.525 108.676 91.044 100.939 274.968 27.873 351.89z" fill="url(#b)"/><path d="M346.704 280.176s-1.324-55.583 24.277-70.457c25.601-14.875 74.279-24.172 76.103-103.989 1.068-46.726 2.228-67.155 2.998-76.063a5.256 5.256 0 0 0-3.81-5.526 5.26 5.26 0 0 0-2.403-.107c-24.247 4.567-103.011 23.367-119.525 77.127-19.577 63.734 22.36 179.015 22.36 179.015z" fill="#B4D7E3"/><path opacity=".5" d="M425.118 46.237c-26.616 23.738-57.391 65.747-73.795 107.757-2.105 6.922-8.264 21.646-10.938 47.806-2.388 21.816-1.2 44.872 1.695 60.132a1.78 1.78 0 0 0 2.079 1.416c1.658-.315 1.439-2.1 1.423-2.043-3.308-26.074-1.935-58.526 5.645-87.809 9.684-35.954 31.284-70.811 53.628-100.38l2.299-2.915c17.315-22.229 20.954-22.393 19.336-23.943a1.016 1.016 0 0 0-1.372-.02z" fill="#fff"/><path d="M304.186 397.872c-3.816 1.87 36.113-48.343 48.62-127.2 5.894-37.161 5.971-83.719 27.141-101.657 17.618-14.932 77.568-5.505 97.183-1.922a2.943 2.943 0 0 1 1.371 5.143c-9.408 7.901-29.53 26.535-34.774 45.315-6.91 24.754-30.444 40.498-51.513 44.76-21.068 4.262-32.789 8.4-43.054 42.089s-34.133 88.157-44.974 93.472z" fill="#FC9D8A"/><path opacity=".5" d="M449.542 177.547c-25.029 1.049-51.892 12.464-65.524 33.879l-1.287 2.043c-2.971 4.8-19.814 38.855-29.169 67.089a.67.67 0 0 0 .926.821.688.688 0 0 0 .341-.365c6.514-15.943 15.878-36.171 23.333-51.298 7.996-16.502 13.589-27.677 31.826-38.383 20.297-11.529 39.689-12.715 39.631-12.703a.54.54 0 0 0 .499-.576.54.54 0 0 0-.576-.499v-.008z" fill="#fff"/><path d="M321.303 404.477c-2.265 1.2 12.751-24.65 13.903-47.419 1.152-22.769 6.288-61.63 25.923-84.878 19.636-23.247 41.143-25.371 68.229-4.234 22.579 17.611 36.662 26.499 44.914 28.152 2.045.408 3.086 2.717 2.095 4.55-5.299 9.756-20.277 32.165-45.429 30.588-32.077-2.013-70.954-22.865-82.8-5.471-11.845 17.395-10.328 27.129-10.692 35.373-.363 8.244-1.162 35.439-16.143 43.339z" fill="#30ABBA"/><path opacity=".5" d="M420.258 295.86c-9.828-9.429-25.832-18.686-39.819-16.953-18.199 2.932-30.321 15.086-36.934 33.175-2.586 7.68-3.648 11.781-5.178 21.197-.121.751.988.976 1.173.242 1.111-4.423 2.213-9.053 3.861-13.843 9.6-30.9 30.068-35.062 30.857-35.695 1.543.154 10.932-6.872 33.2 5.11a98.776 98.776 0 0 1 12 7.698l.023.015a.62.62 0 0 0 .844-.097.622.622 0 0 0-.04-.849h.013z" fill="#fff"/><path d="m40.2 378.101 11.867 19.714a18.067 18.067 0 0 0 19.241 8.356l17.87-3.804a15.103 15.103 0 0 1 13.444 3.788 161.173 161.173 0 0 0 29.604 21.854 15.12 15.12 0 0 1 7.585 11.75l1.617 18.216a18.067 18.067 0 0 0 13.639 15.942l22.332 5.551a18.066 18.066 0 0 0 19.514-7.697l9.954-15.341a15.106 15.106 0 0 1 5.266-4.912 15.105 15.105 0 0 1 6.94-1.919 161.358 161.358 0 0 0 36.389-5.452 15.108 15.108 0 0 1 13.655 2.947l14.009 11.727a18.061 18.061 0 0 0 20.914 1.626l19.714-11.867a18.07 18.07 0 0 0 8.356-19.243l-3.804-17.868a15.103 15.103 0 0 1 3.788-13.445 161.291 161.291 0 0 0 21.847-29.605 15.118 15.118 0 0 1 11.75-7.588l18.216-1.615a18.065 18.065 0 0 0 15.943-13.639l5.551-22.332a18.066 18.066 0 0 0-7.698-19.513l-15.341-9.957a15.112 15.112 0 0 1-6.829-12.206 161.434 161.434 0 0 0-5.454-36.389 15.104 15.104 0 0 1 2.947-13.652l11.728-14.009a18.073 18.073 0 0 0 1.625-20.915l-11.868-19.714a18.07 18.07 0 0 0-19.24-8.354l-17.869 3.804a15.107 15.107 0 0 1-13.445-3.788 161.234 161.234 0 0 0-29.603-21.854 15.124 15.124 0 0 1-7.587-11.75l-1.615-18.216a18.067 18.067 0 0 0-13.639-15.943l-22.332-5.55a18.068 18.068 0 0 0-19.514 7.698l-9.954 15.348a15.112 15.112 0 0 1-12.204 6.832 161.309 161.309 0 0 0-36.39 5.451 15.108 15.108 0 0 1-13.654-2.947l-14.009-11.736a18.067 18.067 0 0 0-20.914-1.625l-19.715 11.867a18.063 18.063 0 0 0-8.355 19.244l3.804 17.87a15.113 15.113 0 0 1-3.789 13.445 161.344 161.344 0 0 0-21.86 29.601 15.12 15.12 0 0 1-11.75 7.587l-18.21 1.611a18.073 18.073 0 0 0-15.944 13.639l-5.55 22.334a18.066 18.066 0 0 0 7.698 19.512l15.34 9.957a15.11 15.11 0 0 1 6.831 12.205 161.314 161.314 0 0 0 5.452 36.388 15.107 15.107 0 0 1-2.946 13.654l-11.727 14.009a18.073 18.073 0 0 0-1.622 20.918zm51.98-33.6c-31.553-66.895-2.925-146.702 63.97-178.26 66.895-31.558 146.693-2.914 178.252 63.97 31.558 66.885 2.914 146.695-63.971 178.253-66.884 31.559-146.694 2.918-178.251-63.97v.007z" fill="url(#c)"/><path d="M288.918 252.253c-14.278-3.068-62.977-12.07-113.97-4.769-17.078 2.447-32.198 12.369-41.416 26.952-16.608 26.279-40.099 73.123-35.133 121.98l26.068 6.441s18.015-57.967 38.29-81.559c0 0 24.014 54.735 22.8 84.792a38.959 38.959 0 0 1-.171 2.487c-2.755 29.407 115.268 5.486 115.268 5.486l-7.352-156.634a5.556 5.556 0 0 0-4.384-5.176z" fill="url(#d)"/><path d="m248.312 197.247 3.429 40.694c.319 3.785-1.634 7.327-4.884 8.842-7.49 3.492-21.873 8.501-37.252 4.824-2.815-.672-4.649-3.612-4.184-6.614l9.973-64.501 32.918 16.755z" fill="url(#e)"/><path d="M202.517 147.927s-7.747 30.069-6.213 44.956c1.534 14.886-.113 24.97 17.422 25.215 17.536.245 30.552-10.55 35.987-26.493 0 0 8.581-24.596 4.363-33.428-4.219-8.832-51.559-10.25-51.559-10.25z" fill="url(#f)"/><path d="m242.197 181.969-2.156.343s5.974-19.649-2.346-21.6c-8.319-1.95-40.26-3.32-48.685-13.23-8.124-9.552-4.571-24.136 3.403-29.332a1.161 1.161 0 0 1 1.542.305l.926 1.233a1.174 1.174 0 0 0 2.102-.562c.123-.993 1.371-1.404 2.028-.648 2.571 2.955 8.95 7.407 24.224 7.776 21.672.514 36.95 6.819 39.618 21.312a1.17 1.17 0 0 0 .777.905 1.176 1.176 0 0 0 1.168-.242c1.403-1.2 3.82-2.037 7.589.228 6.558 3.943 6.206 16.922-4.8 29.314a1.165 1.165 0 0 0-.076 1.507c.111.146.254.263.419.343 2.536 1.128 6.528 4.14-1.587 10.299-8.301 6.304-13.757 6.633-15.868 6.438a1.173 1.173 0 0 1-1.069-1.058l-1.264-13.029a1.172 1.172 0 0 0-1.352-1.045l-4.593.743z" fill="url(#g)"/><path d="M242.098 184.752s1.8-18.705 10.656-14.956c8.856 3.749-.964 20.789-7.329 22.495l-3.327-7.539z" fill="url(#h)"/><path d="M292.753 367.333c2.544-17.97-16.066-44.389-23.765-54.413a16.652 16.652 0 0 1-3.464-9.989c-.225-25.452 8.4-38.743 25.515-49.724 0 0 64.219 69.354 48.394 125.046a46.852 46.852 0 0 1-7.714 15.611c-2.489-20.985-26.743-25.562-38.966-26.531z" fill="url(#i)"/><path d="m291.594 360.382 2.368-.269c-2.008-17.625-17.472-39.382-24.029-47.92l-1.886 1.452c6.43 8.38 21.608 29.706 23.547 46.737z" fill="url(#j)"/><path d="M292.265 369.823c.213-.819.376-1.651.488-2.49 12.223.969 36.477 5.546 38.971 26.531-27.734 36.685-104.181 23.448-104.181 23.448v-14.273s58.711-10.908 64.722-33.216z" fill="url(#k)"/><path d="M234.893 413.371s-11.287-26.633-31.176-17.186c-19.89 9.447-18.326 15.629-18.326 15.629l49.502 1.557z" fill="url(#l)"/><path d="M237.428 418.897a3.771 3.771 0 0 1-3.895 3.477l-103.063-3.6a3.774 3.774 0 0 1-3.471-2.647l-2.992-9.572a3.78 3.78 0 0 1 .501-3.284 3.778 3.778 0 0 1 2.902-1.614l37.584-1.996c.341-.019.684.01 1.017.084l68.47 15.163c.891.197 1.68.709 2.222 1.442.541.734.799 1.639.725 2.547z" fill="#6165D7"/><path d="m168.344 415.136-2.835-13.213-38.606 1.841 2.54 10.964 38.901.408z" fill="#6165D7"/><path d="M188.136 272.581c2.184 17.853 12.013 90.388 14.826 111.114a4.763 4.763 0 0 1-1.18 3.822 4.76 4.76 0 0 1-3.68 1.571l-166.734-4.771a4.768 4.768 0 0 1-4.512-3.73L.912 263.779a4.768 4.768 0 0 1 4.932-5.791l177.84 10.417a4.762 4.762 0 0 1 4.451 4.176z" fill="url(#m)"/><path d="m121.114 346.153 24.643 69.943-57.3 1.216-4.773-70.739a5.495 5.495 0 0 1 3.55-5.514 5.495 5.495 0 0 1 2.3-.34l26.759 1.776a5.498 5.498 0 0 1 4.821 3.658z" fill="#6165D7"/><path d="M168.987 417.086a2.979 2.979 0 0 1-2.829 3.905H76.424a2.977 2.977 0 0 1-2.976-2.976v-3.844a2.976 2.976 0 0 1 3.103-2.974l89.736 3.849a2.984 2.984 0 0 1 2.7 2.04z" fill="#6165D7"/><path d="M213.75 203.352c20.092 5.266 35.788-13.634 35.944-13.826l-1.228-.999c-.149.183-15.216 18.3-34.315 13.294l-.401 1.531z" fill="url(#n)"/><path d="m208.9 200.001-.236.644a2.217 2.217 0 0 0 1.32 2.843l3.849 1.409a2.217 2.217 0 0 0 2.844-1.32l.235-.644a2.216 2.216 0 0 0-1.319-2.843l-3.85-1.409a2.218 2.218 0 0 0-2.843 1.32z" fill="url(#o)"/><mask id="p" style="mask-type:luminance" maskUnits="userSpaceOnUse" x="208" y="198" width="10" height="8"><path d="m208.9 200.001-.236.644a2.217 2.217 0 0 0 1.32 2.843l3.849 1.409a2.217 2.217 0 0 0 2.844-1.32l.235-.644a2.216 2.216 0 0 0-1.319-2.843l-3.85-1.409a2.218 2.218 0 0 0-2.843 1.32z" fill="#fff"/></mask><g mask="url(#p)"><path d="m216.209 203.854-1.05 2.489.122.045.928-2.534z" fill="url(#q)"/><path d="m217.242 200.712-2.42 6.382.056.019 1.67-3.134 1.136-3.106-.442-.161z" fill="url(#r)"/><path d="m217.187 200.691-2.42 6.382.055.021 2.42-6.382-.055-.021z" fill="url(#s)"/><path d="m217.131 200.671-2.419 6.382.055.02 2.42-6.382-.056-.02z" fill="url(#t)"/><path d="m217.076 200.65-2.421 6.382.057.021 2.419-6.382-.055-.021z" fill="url(#u)"/><path d="m217.021 200.629-2.42 6.383.054.02 2.421-6.382-.055-.021z" fill="url(#v)"/><path d="m216.965 200.609-2.419 6.382.055.021 2.42-6.383-.056-.02z" fill="url(#w)"/><path d="m216.91 200.59-2.421 6.382.057.019 2.418-6.382-.054-.019z" fill="url(#x)"/><path d="m216.855 200.569-2.421 6.383.055.02 2.421-6.382-.055-.021z" fill="url(#y)"/><path d="m216.798 200.549-2.42 6.382.056.021 2.421-6.383-.057-.02z" fill="url(#z)"/><path d="m216.743 200.528-2.42 6.383.055.02 2.42-6.382-.055-.021z" fill="url(#A)"/><path d="m216.688 200.508-2.42 6.382.055.021 2.42-6.383-.055-.02z" fill="url(#B)"/><path d="m216.632 200.487-2.421 6.382.057.021 2.421-6.382-.057-.021z" fill="url(#C)"/><path d="m216.577 200.468-2.421 6.381.055.02 2.421-6.382-.055-.019z" fill="url(#D)"/><path d="m216.522 200.448-2.42 6.382.054.019 2.421-6.381-.055-.02z" fill="url(#E)"/><path d="m216.466 200.427-2.421 6.382.057.021 2.42-6.382-.056-.021z" fill="url(#F)"/><path d="m216.411 200.407-2.421 6.382.055.02 2.421-6.382-.055-.02z" fill="url(#G)"/><path d="m216.354 200.386-2.419 6.382.055.021 2.421-6.382-.057-.021z" fill="url(#H)"/><path d="m216.299 200.365-2.42 6.383.056.02 2.419-6.382-.055-.021z" fill="url(#I)"/><path d="m216.245 200.345-2.421 6.382.055.021 2.42-6.383-.054-.02z" fill="url(#J)"/><path d="m216.188 200.326-2.419 6.382.055.019 2.42-6.382-.056-.019z" fill="url(#K)"/><path d="m216.133 200.305-2.421 6.383.057.02 2.419-6.382-.055-.021z" fill="url(#L)"/><path d="m216.078 200.285-2.42 6.382.055.021 2.42-6.383-.055-.02z" fill="url(#M)"/><path d="m216.022 200.264-2.419 6.383.055.02 2.42-6.382-.056-.021z" fill="url(#N)"/><path d="m215.967 200.244-2.421 6.382.057.021 2.419-6.383-.055-.02z" fill="url(#O)"/><path d="m215.912 200.223-2.421 6.382.055.021 2.421-6.382-.055-.021z" fill="url(#P)"/><path d="m215.855 200.204-2.42 6.381.056.02 2.421-6.382-.057-.019z" fill="url(#Q)"/><path d="m215.8 200.184-2.42 6.382.055.019 2.42-6.381-.055-.02z" fill="url(#R)"/><path d="m215.746 200.163-2.421 6.382.055.021 2.42-6.382-.054-.021z" fill="url(#S)"/><path d="m215.689 200.143-2.42 6.382.056.02 2.421-6.382-.057-.02z" fill="url(#T)"/><path d="m215.634 200.122-2.42 6.382.054.021 2.421-6.382-.055-.021z" fill="url(#U)"/><path d="m215.578 200.101-2.419 6.383.055.02 2.42-6.382-.056-.021z" fill="url(#V)"/><path d="m215.523 200.083-2.421 6.38.057.021 2.419-6.383-.055-.018z" fill="url(#W)"/><path d="m215.468 200.062-2.421 6.382.055.019 2.421-6.38-.055-.021z" fill="url(#X)"/><path d="m215.411 200.041-2.419 6.383.055.02 2.421-6.382-.057-.021z" fill="url(#Y)"/><path d="m215.357 200.021-2.421 6.382.057.021 2.418-6.383-.054-.02z" fill="url(#Z)"/><path d="m215.302 200-2.421 6.383.055.02 2.421-6.382-.055-.021z" fill="url(#aa)"/><path d="m215.245 199.98-2.419 6.382.055.021 2.421-6.383-.057-.02z" fill="url(#ab)"/><path d="m215.19 199.959-2.42 6.382.056.021 2.419-6.382-.055-.021z" fill="url(#ac)"/><path d="m215.135 199.94-2.42 6.381.055.02 2.42-6.382-.055-.019z" fill="url(#ad)"/><path d="m215.079 199.92-2.421 6.382.057.019 2.42-6.381-.056-.02z" fill="url(#ae)"/><path d="m215.024 199.899-2.421 6.382.055.021 2.421-6.382-.055-.021z" fill="url(#af)"/><path d="m214.969 199.879-2.42 6.382.054.02 2.421-6.382-.055-.02z" fill="url(#ag)"/><path d="m214.913 199.858-2.421 6.382.057.021 2.42-6.382-.056-.021z" fill="url(#ah)"/><path d="m214.858 199.837-2.421 6.383.055.02 2.42-6.382-.054-.021z" fill="url(#ai)"/><path d="m214.803 199.819-2.421 6.38.055.021 2.421-6.383-.055-.018z" fill="url(#aj)"/><path d="m214.746 199.798-2.42 6.382.056.019 2.421-6.38-.057-.021z" fill="url(#ak)"/><path d="m214.691 199.777-2.42 6.383.055.02 2.42-6.382-.055-.021z" fill="url(#al)"/><path d="m214.635 199.757-2.419 6.382.055.021 2.42-6.383-.056-.02z" fill="url(#am)"/><path d="m214.58 199.736-2.421 6.383.057.02 2.419-6.382-.055-.021z" fill="url(#an)"/><path d="m214.525 199.716-2.421 6.382.055.021 2.421-6.383-.055-.02z" fill="url(#ao)"/><path d="m214.468 199.695-2.418 6.382.054.021 2.421-6.382-.057-.021z" fill="url(#ap)"/><path d="m214.414 199.676-2.421 6.383.057.018 2.419-6.382-.055-.019z" fill="url(#aq)"/><path d="m214.359 199.656-2.421 6.382.055.021 2.421-6.383-.055-.02z" fill="url(#ar)"/><path d="m214.302 199.635-2.419 6.382.055.021 2.421-6.382-.057-.021z" fill="url(#as)"/><path d="m214.247 199.615-2.42 6.382.056.02 2.419-6.382-.055-.02z" fill="url(#at)"/><path d="m214.193 199.594-2.421 6.382.055.021 2.42-6.382-.054-.021z" fill="url(#au)"/><path d="m214.136 199.573-2.421 6.383.057.02 2.42-6.382-.056-.021z" fill="url(#av)"/><path d="m214.081 199.555-2.421 6.382.055.019 2.421-6.383-.055-.018z" fill="url(#aw)"/><path d="m214.026 199.534-2.42 6.382.055.021 2.42-6.382-.055-.021z" fill="url(#ax)"/><path d="m213.97 199.513-2.421 6.383.057.02 2.42-6.382-.056-.021z" fill="url(#ay)"/><path d="m213.915 199.493-2.421 6.382.055.021 2.421-6.383-.055-.02z" fill="url(#az)"/><path d="m213.86 199.472-2.421 6.383.055.02 2.421-6.382-.055-.021z" fill="url(#aA)"/><path d="m213.803 199.452-2.42 6.382.056.021 2.421-6.383-.057-.02z" fill="url(#aB)"/><path d="m213.748 199.433-2.42 6.38.055.021 2.42-6.382-.055-.019z" fill="url(#aC)"/><path d="m213.692 199.412-2.419 6.381.055.02 2.42-6.38-.056-.021z" fill="url(#aD)"/><path d="m213.637 199.392-2.42 6.382.056.019 2.419-6.381-.055-.02z" fill="url(#aE)"/><path d="m213.582 199.371-2.42 6.382.054.021 2.421-6.382-.055-.021z" fill="url(#aF)"/><path d="m213.526 199.351-2.419 6.382.055.02 2.42-6.382-.056-.02z" fill="url(#aG)"/><path d="m213.471 199.33-2.421 6.382.057.021 2.419-6.382-.055-.021z" fill="url(#aH)"/><path d="m213.416 199.309-2.421 6.383.055.02 2.421-6.382-.055-.021z" fill="url(#aI)"/><path d="m213.359 199.291-2.42 6.382.056.019 2.421-6.383-.057-.018z" fill="url(#aJ)"/><path d="m213.305 199.27-2.421 6.382.055.021 2.42-6.382-.054-.021z" fill="url(#aK)"/><path d="m213.25 199.249-2.421 6.383.055.02 2.421-6.382-.055-.021z" fill="url(#aL)"/><path d="m213.193 199.229-2.421 6.382.057.021 2.421-6.383-.057-.02z" fill="url(#aM)"/><path d="m213.138 199.208-2.42 6.383.054.02 2.421-6.382-.055-.021z" fill="url(#aN)"/><path d="m213.083 199.188-2.42 6.382.055.021 2.42-6.383-.055-.02z" fill="url(#aO)"/><path d="m213.027 199.169-2.421 6.38.057.021 2.42-6.382-.056-.019z" fill="url(#aP)"/><path d="m212.972 199.148-2.421 6.381.055.02 2.421-6.38-.055-.021z" fill="url(#aQ)"/><path d="m212.915 199.128-2.42 6.382.056.019 2.421-6.381-.057-.02z" fill="url(#aR)"/><path d="m212.861 199.107-2.421 6.382.055.021 2.42-6.382-.054-.021z" fill="url(#aS)"/><path d="m212.806 199.087-2.421 6.382.055.02 2.42-6.382-.054-.02z" fill="url(#aT)"/><path d="m212.749 199.066-2.419 6.382.055.021 2.421-6.382-.057-.021z" fill="url(#aU)"/><path d="m212.694 199.047-2.42 6.381.056.02 2.419-6.382-.055-.019z" fill="url(#aV)"/><path d="m212.639 199.027-2.42 6.38.055.021 2.42-6.381-.055-.02z" fill="url(#aW)"/><path d="m212.583 199.006-2.421 6.382.057.019 2.42-6.38-.056-.021z" fill="url(#aX)"/><path d="m212.528 198.985-2.421 6.383.055.02 2.421-6.382-.055-.021z" fill="url(#aY)"/><path d="m212.473 198.965-2.421 6.382.055.021 2.421-6.383-.055-.02z" fill="url(#aZ)"/><path d="m212.416 198.944-2.42 6.383.056.02 2.421-6.382-.057-.021z" fill="url(#ba)"/><path d="m212.362 198.924-2.421 6.382.055.021 2.421-6.383-.055-.02z" fill="url(#bb)"/><path d="m212.307 198.905-2.421 6.382.055.019 2.421-6.382-.055-.019z" fill="url(#bc)"/><path d="m212.25 198.884-2.42 6.383.056.02 2.421-6.382-.057-.021z" fill="url(#bd)"/><path d="m212.195 198.864-2.42 6.382.055.021 2.42-6.383-.055-.02z" fill="url(#be)"/><path d="m212.139 198.843-2.419 6.382.055.021 2.42-6.382-.056-.021z" fill="url(#bf)"/><path d="m212.084 198.823-2.421 6.382.057.02 2.419-6.382-.055-.02z" fill="url(#bg)"/><path d="m212.029 198.802-2.421 6.382.055.021 2.421-6.382-.055-.021z" fill="url(#bh)"/><path d="m211.973 198.783-2.421 6.381.057.02 2.42-6.382-.056-.019z" fill="url(#bi)"/><path d="m211.918 198.763-2.421 6.38.055.021 2.42-6.381-.054-.02z" fill="url(#bj)"/><path d="m211.863 198.742-2.421 6.382.055.019 2.421-6.38-.055-.021z" fill="url(#bk)"/><path d="m211.806 198.721-2.419 6.383.055.02 2.421-6.382-.057-.021z" fill="url(#bl)"/><path d="m211.751 198.701-2.42 6.382.056.021 2.419-6.383-.055-.02z" fill="url(#bm)"/><path d="m211.696 198.68-2.42 6.383.055.02 2.42-6.382-.055-.021z" fill="url(#bn)"/><path d="m211.64 198.661-2.421 6.381.057.021 2.42-6.383-.056-.019z" fill="url(#bo)"/><path d="m211.585 198.641-2.42 6.38.054.021 2.421-6.381-.055-.02z" fill="url(#bp)"/><path d="m211.53 198.62-2.42 6.383.054.018 2.421-6.38-.055-.021z" fill="url(#bq)"/><path d="m211.474 198.6-2.421 6.382.057.021 2.42-6.383-.056-.02z" fill="url(#br)"/><path d="m211.419 198.579-2.421 6.382.055.021 2.421-6.382-.055-.021z" fill="url(#bs)"/><path d="m211.362 198.559-2.419 6.382.055.02 2.421-6.382-.057-.02z" fill="url(#bt)"/><path d="m211.307 198.538-2.42 6.382.056.021 2.419-6.382-.055-.021z" fill="url(#bu)"/><path d="m211.253 198.519-2.421 6.381.055.02 2.42-6.382-.054-.019z" fill="url(#bv)"/><path d="m211.196 198.499-2.421 6.38.057.021 2.421-6.381-.057-.02z" fill="url(#bw)"/><path d="m211.141 198.478-2.421 6.382.055.019 2.421-6.38-.055-.021z" fill="url(#bx)"/><path d="m211.086 198.457-2.42 6.383.054.02 2.421-6.382-.055-.021z" fill="url(#by)"/><path d="m211.03 198.437-2.421 6.382.057.021 2.42-6.383-.056-.02z" fill="url(#bz)"/><path d="m210.975 198.416-2.421 6.383.055.02 2.421-6.382-.055-.021z" fill="url(#bA)"/><path d="m210.92 198.397-2.421 6.381.055.021 2.421-6.383-.055-.019z" fill="url(#bB)"/><path d="m210.863 198.377-2.42 6.38.056.021 2.421-6.381-.057-.02z" fill="url(#bC)"/><path d="m210.809 198.356-2.421 6.383.055.018 2.42-6.38-.054-.021z" fill="url(#bD)"/><path d="m210.752 198.336-2.419 6.382.055.021 2.42-6.383-.056-.02z" fill="url(#bE)"/><path d="m210.697 198.315-2.42 6.382.056.021 2.419-6.382-.055-.021z" fill="url(#bF)"/><path d="m210.642 198.295-2.42 6.382.055.02 2.42-6.382-.055-.02z" fill="url(#bG)"/><path d="m210.587 198.274-2.42 6.382.055.021 2.42-6.382-.055-.021z" fill="url(#bH)"/><path d="m210.531 198.255-2.421 6.381.057.02 2.42-6.382-.056-.019z" fill="url(#bI)"/><path d="m210.476 198.235-2.421 6.382.055.019 2.421-6.381-.055-.02z" fill="url(#bJ)"/><path d="m210.419 198.214-2.42 6.382.056.021 2.421-6.382-.057-.021z" fill="url(#bK)"/><path d="m210.364 198.193-2.42 6.383.055.02 2.42-6.382-.055-.021z" fill="url(#bL)"/><path d="m210.31 198.173-2.421 6.382.055.021 2.421-6.383-.055-.02z" fill="url(#bM)"/><path d="m210.253 198.152-2.42 6.383.056.02 2.421-6.382-.057-.021z" fill="url(#bN)"/><path d="m210.198 198.133-2.42 6.381.054.021 2.421-6.383-.055-.019z" fill="url(#bO)"/><path d="m210.143 198.113-2.42 6.382.055.019 2.42-6.381-.055-.02z" fill="url(#bP)"/><path d="m210.087 198.092-2.421 6.383.057.02 2.42-6.382-.056-.021z" fill="url(#bQ)"/><path d="m210.032 198.072-2.421 6.382.055.021 2.421-6.383-.055-.02z" fill="url(#bR)"/><path d="m209.977 198.051-2.421 6.382.055.021 2.421-6.382-.055-.021z" fill="url(#bS)"/><path d="m209.921 198.031-2.421 6.382.057.02 2.42-6.382-.056-.02z" fill="url(#bT)"/><path d="m209.866 198.012-2.421 6.38.055.021 2.421-6.382-.055-.019z" fill="url(#bU)"/><path d="m209.809 197.991-2.419 6.381.055.02 2.421-6.38-.057-.021z" fill="url(#bV)"/><path d="m209.754 197.971-2.42 6.382.056.019 2.419-6.381-.055-.02z" fill="url(#bW)"/><path d="m209.699 197.95-2.42 6.382.055.021 2.42-6.382-.055-.021z" fill="url(#bX)"/><path d="m209.643 197.929-2.421 6.383.057.02 2.42-6.382-.056-.021z" fill="url(#bY)"/><path d="m209.588 197.909-2.421 6.382.055.021 2.421-6.383-.055-.02z" fill="url(#bZ)"/><path d="m209.533 197.888-2.42 6.383.054.02 2.421-6.382-.055-.021z" fill="url(#ca)"/><path d="m209.476 197.869-2.42 6.381.056.021 2.421-6.383-.057-.019z" fill="url(#cb)"/><path d="m209.422 197.849-2.421 6.382.055.019 2.42-6.381-.054-.02z" fill="url(#cc)"/><path d="m209.367 197.828-2.421 6.383.055.02 2.421-6.382-.055-.021z" fill="url(#cd)"/><path d="m209.31 197.808-2.42 6.382.056.021 2.421-6.383-.057-.02z" fill="url(#ce)"/><path d="m209.255 197.787-2.42 6.382.055.021 2.42-6.382-.055-.021z" fill="url(#cf)"/><path d="m209.199 197.767-2.419 6.382.055.02 2.42-6.382-.056-.02z" fill="url(#cg)"/><path d="m209.144 197.748-2.421 6.38.057.021 2.419-6.382-.055-.019z" fill="url(#ch)"/><path d="m209.089 197.727-2.421 6.381.055.02 2.421-6.38-.055-.021z" fill="url(#ci)"/><path d="m209.032 197.707-2.418 6.382.054.019 2.421-6.381-.057-.02z" fill="url(#cj)"/><path d="m208.978 197.686-2.421 6.382.057.021 2.419-6.382-.055-.021z" fill="url(#ck)"/><path d="m208.923 197.665-2.421 6.383.055.02 2.421-6.382-.055-.021z" fill="url(#cl)"/><path d="m208.866 197.645-.226 3.118-1.313 3.586-.825-.301 2.421-6.383-.057-.02z" fill="url(#cm)"/><path d="m207.99 200.525.641-2.234.155.057-.796 2.177z" fill="url(#cn)"/></g><path d="M252.821 166.147s-1.408-33.89-21.086-40.944c0 0 6.163-1.543 11.638 2.53 5.476 4.073 17.889 22.877 14.354 40.212-4.32.557-4.906-1.798-4.906-1.798z" fill="url(#co)"/><path d="M256.631 164.811c10.785 4.322 6.816 18.233 6.816 18.233-1.073 10.427-5.004 14.973-9.293 16.698a9 9 0 0 1-11.607-4.784 8.99 8.99 0 0 1-.686-4.529c.305-2.835.556-5.538.514-6.514-.078-2.386 3.474-23.426 14.256-19.104z" fill="url(#cp)"/><path d="M254.948 168.204a5.171 5.171 0 0 1 5.004 4.013c3.857 16.731-6.206 25.315-10.286 24.787-4.285-.556-.464-20.999 1.398-26.078.788-2.129 2.341-2.736 3.884-2.722z" fill="url(#cq)"/><path d="m190.582 346.704 1.327-.172-8.196-64.603a8.49 8.49 0 0 0-7.903-7.398l-153.683-9.283-.08 1.335 153.682 9.281a7.155 7.155 0 0 1 6.657 6.232l8.196 64.608zM194.246 364.938l-1.327.167 1.762 13.988 1.327-.167-1.762-13.988z" fill="#91B3FA"/><path d="M137.638 197.897S-12.117 123.905 36.858 69.428c48.976-54.476 140.28-32.703 144.905 24.635 4.626 57.337-106.505 43.885-44.125 103.834z" fill="#B4D7E3"/><path d="M48.017 83.498a1.51 1.51 0 0 0 1.51 1.508h66.091a1.508 1.508 0 0 0 1.561-1.51 1.513 1.513 0 0 0-1.561-1.509H49.527a1.51 1.51 0 0 0-1.51 1.51zM135.241 85.006h19.612a1.508 1.508 0 0 0 1.561-1.51 1.513 1.513 0 0 0-1.561-1.509h-19.612a1.513 1.513 0 0 0-1.459 1.51 1.511 1.511 0 0 0 1.459 1.509zM45.79 96.876a1.51 1.51 0 0 0 1.51 1.51h24.813a1.508 1.508 0 0 0 1.44-2.1 1.51 1.51 0 0 0-1.44-.919H47.3a1.51 1.51 0 0 0-1.51 1.509zM107.021 96.876a1.509 1.509 0 0 0 1.51 1.51h44.095a1.508 1.508 0 0 0 1.561-1.51 1.513 1.513 0 0 0-1.561-1.509h-44.095a1.51 1.51 0 0 0-1.51 1.509zM45.073 111.771h65.969a1.51 1.51 0 1 0 0-3.02H45.073a1.511 1.511 0 1 0 0 3.02zM127.561 111.771h22.84a1.512 1.512 0 0 0 0-3.02h-22.84a1.51 1.51 0 1 0 0 3.02z" fill="#fff"/><path d="M358.563 148.453c31.979 0 57.903-25.924 57.903-57.903 0-31.98-25.924-57.903-57.903-57.903S300.659 58.57 300.659 90.55s25.925 57.903 57.904 57.903z" fill="url(#cr)"/><path d="M358.884 142.436c28.258 0 51.166-22.908 51.166-51.166 0-28.258-22.908-51.166-51.166-51.166-28.259 0-51.167 22.908-51.167 51.166 0 28.258 22.908 51.166 51.167 51.166z" fill="#fff"/><path d="M336.636 106.366h-17.779v-4.603l5.895-8.345c1.618-2.297 2.73-4.002 3.334-5.114a15.57 15.57 0 0 0 1.338-3.197c.289-1.03.434-2.095.432-3.164 0-1.27-.286-2.223-.858-2.858a2.83 2.83 0 0 0-2.211-.951 4.244 4.244 0 0 0-2.246.634c-.696.423-1.542 1.186-2.539 2.29l-3.447-3.63c1.587-1.798 3.062-3.03 4.423-3.695a9.925 9.925 0 0 1 4.421-.998c2.675 0 4.766.787 6.271 2.36 1.505 1.572 2.262 3.757 2.271 6.555a15.417 15.417 0 0 1-.408 3.6 16.978 16.978 0 0 1-1.236 3.413 28.91 28.91 0 0 1-2.084 3.565c-.831 1.234-2.977 4.056-6.439 8.469v.182h10.862v5.487z" fill="url(#cs)"/><path d="M359.494 99.404h-3.357v6.962h-5.796v-6.962h-10.817v-5.01l10.024-21.18h6.598v21.085h3.356l-.008 5.105zm-9.153-5.101v-6.984l.113-3.086.158-2.949h-.182a37.766 37.766 0 0 1-1.714 4.468l-3.991 8.549 5.616.002z" fill="url(#ct)"/><path d="m378.701 73.213-12.36 33.153h-5.805l12.358-33.153h5.807z" fill="url(#cu)"/><path d="m383.055 106.366 9.296-27.643h-11.564v-5.465h17.779v4.173l-9.139 28.935h-6.372z" fill="url(#cv)"/></g><defs><linearGradient id="aM" x1="210.772" y1="202.429" x2="213.25" y2="202.429" gradientUnits="userSpaceOnUse"><stop stop-color="#4F52FF"/><stop offset="1" stop-color="#4042E2"/></linearGradient><linearGradient id="b" x1="537.793" y1="610.987" x2="118.023" y2="89.659" gradientUnits="userSpaceOnUse"><stop stop-color="#DAE3FE"/><stop offset="1" stop-color="#E9EFFD"/></linearGradient><linearGradient id="d" x1="-2935.81" y1="3597.14" x2="-2791.52" y2="3448.24" gradientUnits="userSpaceOnUse"><stop stop-color="#FC9D8A"/><stop offset="1" stop-color="#EF816B"/></linearGradient><linearGradient id="e" x1="246.309" y1="304.403" x2="222.231" y2="202.338" gradientUnits="userSpaceOnUse"><stop stop-color="#FEBBBA"/><stop offset="1" stop-color="#FF928E"/></linearGradient><linearGradient id="f" x1="244.155" y1="189.312" x2="200.26" y2="177.903" gradientUnits="userSpaceOnUse"><stop stop-color="#FEBBBA"/><stop offset="1" stop-color="#FF928E"/></linearGradient><linearGradient id="g" x1="283.811" y1="210.236" x2="201.377" y2="113.095" gradientUnits="userSpaceOnUse"><stop stop-color="#010648"/><stop offset="1" stop-color="#010648"/></linearGradient><linearGradient id="h" x1="246.65" y1="179.715" x2="202.753" y2="168.307" gradientUnits="userSpaceOnUse"><stop stop-color="#FEBBBA"/><stop offset="1" stop-color="#FF928E"/></linearGradient><linearGradient id="i" x1="-2778.27" y1="3510.66" x2="-2639.38" y2="3367.33" gradientUnits="userSpaceOnUse"><stop stop-color="#FC9D8A"/><stop offset="1" stop-color="#F8937F"/></linearGradient><linearGradient id="j" x1="496.11" y1="113.96" x2="80.456" y2="544.707" gradientUnits="userSpaceOnUse"><stop stop-color="#E1473D"/><stop offset="1" stop-color="#E9605A"/></linearGradient><linearGradient id="k" x1="299.286" y1="346.731" x2="253.985" y2="465.946" gradientUnits="userSpaceOnUse"><stop stop-color="#FEBBBA"/><stop offset="1" stop-color="#FF928E"/></linearGradient><linearGradient id="l" x1="243.08" y1="325.371" x2="197.777" y2="444.588" gradientUnits="userSpaceOnUse"><stop stop-color="#FEBBBA"/><stop offset="1" stop-color="#FF928E"/></linearGradient><linearGradient id="m" x1="47.391" y1="328.222" x2="56.764" y2="282.063" gradientUnits="userSpaceOnUse"><stop stop-color="#30ABBA"/><stop offset="1" stop-color="#6165D7"/></linearGradient><linearGradient id="n" x1="246.645" y1="213.192" x2="224.547" y2="182.754" gradientUnits="userSpaceOnUse"><stop stop-color="#4F52FF"/><stop offset="1" stop-color="#4042E2"/></linearGradient><linearGradient id="o" x1="208.513" y1="201.807" x2="217.033" y2="201.807" gradientUnits="userSpaceOnUse"><stop stop-color="#4F52FF"/><stop offset="1" stop-color="#4042E2"/></linearGradient><linearGradient id="q" x1="215.159" y1="205.121" x2="216.209" y2="205.121" gradientUnits="userSpaceOnUse"><stop stop-color="#4F52FF"/><stop offset="1" stop-color="#4042E2"/></linearGradient><linearGradient id="r" x1="214.822" y1="203.912" x2="217.684" y2="203.912" gradientUnits="userSpaceOnUse"><stop stop-color="#4F52FF"/><stop offset="1" stop-color="#4042E2"/></linearGradient><linearGradient id="s" x1="214.767" y1="203.892" x2="217.242" y2="203.892" gradientUnits="userSpaceOnUse"><stop stop-color="#4F52FF"/><stop offset="1" stop-color="#4042E2"/></linearGradient><linearGradient id="t" x1="214.712" y1="203.871" x2="217.187" y2="203.871" gradientUnits="userSpaceOnUse"><stop stop-color="#4F52FF"/><stop offset="1" stop-color="#4042E2"/></linearGradient><linearGradient id="u" x1="214.655" y1="203.851" x2="217.132" y2="203.851" gradientUnits="userSpaceOnUse"><stop stop-color="#4F52FF"/><stop offset="1" stop-color="#4042E2"/></linearGradient><linearGradient id="v" x1="214.601" y1="203.832" x2="217.076" y2="203.832" gradientUnits="userSpaceOnUse"><stop stop-color="#4F52FF"/><stop offset="1" stop-color="#4042E2"/></linearGradient><linearGradient id="w" x1="214.546" y1="203.811" x2="217.021" y2="203.811" gradientUnits="userSpaceOnUse"><stop stop-color="#4F52FF"/><stop offset="1" stop-color="#4042E2"/></linearGradient><linearGradient id="x" x1="214.489" y1="203.791" x2="216.964" y2="203.791" gradientUnits="userSpaceOnUse"><stop stop-color="#4F52FF"/><stop offset="1" stop-color="#4042E2"/></linearGradient><linearGradient id="y" x1="214.434" y1="203.77" x2="216.91" y2="203.77" gradientUnits="userSpaceOnUse"><stop stop-color="#4F52FF"/><stop offset="1" stop-color="#4042E2"/></linearGradient><linearGradient id="z" x1="214.379" y1="203.749" x2="216.855" y2="203.749" gradientUnits="userSpaceOnUse"><stop stop-color="#4F52FF"/><stop offset="1" stop-color="#4042E2"/></linearGradient><linearGradient id="A" x1="214.323" y1="203.729" x2="216.798" y2="203.729" gradientUnits="userSpaceOnUse"><stop stop-color="#4F52FF"/><stop offset="1" stop-color="#4042E2"/></linearGradient><linearGradient id="B" x1="214.268" y1="203.71" x2="216.743" y2="203.71" gradientUnits="userSpaceOnUse"><stop stop-color="#4F52FF"/><stop offset="1" stop-color="#4042E2"/></linearGradient><linearGradient id="C" x1="214.211" y1="203.689" x2="216.689" y2="203.689" gradientUnits="userSpaceOnUse"><stop stop-color="#4F52FF"/><stop offset="1" stop-color="#4042E2"/></linearGradient><linearGradient id="D" x1="214.156" y1="203.669" x2="216.632" y2="203.669" gradientUnits="userSpaceOnUse"><stop stop-color="#4F52FF"/><stop offset="1" stop-color="#4042E2"/></linearGradient><linearGradient id="E" x1="214.102" y1="203.648" x2="216.577" y2="203.648" gradientUnits="userSpaceOnUse"><stop stop-color="#4F52FF"/><stop offset="1" stop-color="#4042E2"/></linearGradient><linearGradient id="F" x1="214.045" y1="203.628" x2="216.522" y2="203.628" gradientUnits="userSpaceOnUse"><stop stop-color="#4F52FF"/><stop offset="1" stop-color="#4042E2"/></linearGradient><linearGradient id="G" x1="213.99" y1="203.607" x2="216.466" y2="203.607" gradientUnits="userSpaceOnUse"><stop stop-color="#4F52FF"/><stop offset="1" stop-color="#4042E2"/></linearGradient><linearGradient id="H" x1="213.935" y1="203.588" x2="216.411" y2="203.588" gradientUnits="userSpaceOnUse"><stop stop-color="#4F52FF"/><stop offset="1" stop-color="#4042E2"/></linearGradient><linearGradient id="I" x1="213.879" y1="203.568" x2="216.356" y2="203.568" gradientUnits="userSpaceOnUse"><stop stop-color="#4F52FF"/><stop offset="1" stop-color="#4042E2"/></linearGradient><linearGradient id="J" x1="213.824" y1="203.547" x2="216.299" y2="203.547" gradientUnits="userSpaceOnUse"><stop stop-color="#4F52FF"/><stop offset="1" stop-color="#4042E2"/></linearGradient><linearGradient id="K" x1="213.769" y1="203.527" x2="216.244" y2="203.527" gradientUnits="userSpaceOnUse"><stop stop-color="#4F52FF"/><stop offset="1" stop-color="#4042E2"/></linearGradient><linearGradient id="L" x1="213.712" y1="203.506" x2="216.188" y2="203.506" gradientUnits="userSpaceOnUse"><stop stop-color="#4F52FF"/><stop offset="1" stop-color="#4042E2"/></linearGradient><linearGradient id="M" x1="213.658" y1="203.485" x2="216.133" y2="203.485" gradientUnits="userSpaceOnUse"><stop stop-color="#4F52FF"/><stop offset="1" stop-color="#4042E2"/></linearGradient><linearGradient id="N" x1="213.603" y1="203.465" x2="216.078" y2="203.465" gradientUnits="userSpaceOnUse"><stop stop-color="#4F52FF"/><stop offset="1" stop-color="#4042E2"/></linearGradient><linearGradient id="O" x1="213.546" y1="203.446" x2="216.022" y2="203.446" gradientUnits="userSpaceOnUse"><stop stop-color="#4F52FF"/><stop offset="1" stop-color="#4042E2"/></linearGradient><linearGradient id="P" x1="213.491" y1="203.425" x2="215.967" y2="203.425" gradientUnits="userSpaceOnUse"><stop stop-color="#4F52FF"/><stop offset="1" stop-color="#4042E2"/></linearGradient><linearGradient id="Q" x1="213.435" y1="203.405" x2="215.912" y2="203.405" gradientUnits="userSpaceOnUse"><stop stop-color="#4F52FF"/><stop offset="1" stop-color="#4042E2"/></linearGradient><linearGradient id="R" x1="213.38" y1="203.384" x2="215.855" y2="203.384" gradientUnits="userSpaceOnUse"><stop stop-color="#4F52FF"/><stop offset="1" stop-color="#4042E2"/></linearGradient><linearGradient id="S" x1="213.325" y1="203.364" x2="215.8" y2="203.364" gradientUnits="userSpaceOnUse"><stop stop-color="#4F52FF"/><stop offset="1" stop-color="#4042E2"/></linearGradient><linearGradient id="T" x1="213.269" y1="203.343" x2="215.746" y2="203.343" gradientUnits="userSpaceOnUse"><stop stop-color="#4F52FF"/><stop offset="1" stop-color="#4042E2"/></linearGradient><linearGradient id="U" x1="213.214" y1="203.324" x2="215.689" y2="203.324" gradientUnits="userSpaceOnUse"><stop stop-color="#4F52FF"/><stop offset="1" stop-color="#4042E2"/></linearGradient><linearGradient id="V" x1="213.159" y1="203.304" x2="215.634" y2="203.304" gradientUnits="userSpaceOnUse"><stop stop-color="#4F52FF"/><stop offset="1" stop-color="#4042E2"/></linearGradient><linearGradient id="W" x1="213.102" y1="203.283" x2="215.579" y2="203.283" gradientUnits="userSpaceOnUse"><stop stop-color="#4F52FF"/><stop offset="1" stop-color="#4042E2"/></linearGradient><linearGradient id="X" x1="213.047" y1="203.263" x2="215.523" y2="203.263" gradientUnits="userSpaceOnUse"><stop stop-color="#4F52FF"/><stop offset="1" stop-color="#4042E2"/></linearGradient><linearGradient id="Y" x1="212.992" y1="203.242" x2="215.468" y2="203.242" gradientUnits="userSpaceOnUse"><stop stop-color="#4F52FF"/><stop offset="1" stop-color="#4042E2"/></linearGradient><linearGradient id="Z" x1="212.936" y1="203.221" x2="215.411" y2="203.221" gradientUnits="userSpaceOnUse"><stop stop-color="#4F52FF"/><stop offset="1" stop-color="#4042E2"/></linearGradient><linearGradient id="aa" x1="212.881" y1="203.201" x2="215.357" y2="203.201" gradientUnits="userSpaceOnUse"><stop stop-color="#4F52FF"/><stop offset="1" stop-color="#4042E2"/></linearGradient><linearGradient id="ab" x1="212.826" y1="203.182" x2="215.302" y2="203.182" gradientUnits="userSpaceOnUse"><stop stop-color="#4F52FF"/><stop offset="1" stop-color="#4042E2"/></linearGradient><linearGradient id="ac" x1="212.77" y1="203.161" x2="215.245" y2="203.161" gradientUnits="userSpaceOnUse"><stop stop-color="#4F52FF"/><stop offset="1" stop-color="#4042E2"/></linearGradient><linearGradient id="ad" x1="212.715" y1="203.141" x2="215.19" y2="203.141" gradientUnits="userSpaceOnUse"><stop stop-color="#4F52FF"/><stop offset="1" stop-color="#4042E2"/></linearGradient><linearGradient id="ae" x1="212.658" y1="203.12" x2="215.135" y2="203.12" gradientUnits="userSpaceOnUse"><stop stop-color="#4F52FF"/><stop offset="1" stop-color="#4042E2"/></linearGradient><linearGradient id="af" x1="212.603" y1="203.1" x2="215.079" y2="203.1" gradientUnits="userSpaceOnUse"><stop stop-color="#4F52FF"/><stop offset="1" stop-color="#4042E2"/></linearGradient><linearGradient id="ag" x1="212.549" y1="203.079" x2="215.024" y2="203.079" gradientUnits="userSpaceOnUse"><stop stop-color="#4F52FF"/><stop offset="1" stop-color="#4042E2"/></linearGradient><linearGradient id="ah" x1="212.492" y1="203.06" x2="214.969" y2="203.06" gradientUnits="userSpaceOnUse"><stop stop-color="#4F52FF"/><stop offset="1" stop-color="#4042E2"/></linearGradient><linearGradient id="ai" x1="212.437" y1="203.04" x2="214.912" y2="203.04" gradientUnits="userSpaceOnUse"><stop stop-color="#4F52FF"/><stop offset="1" stop-color="#4042E2"/></linearGradient><linearGradient id="aj" x1="212.382" y1="203.019" x2="214.858" y2="203.019" gradientUnits="userSpaceOnUse"><stop stop-color="#4F52FF"/><stop offset="1" stop-color="#4042E2"/></linearGradient><linearGradient id="ak" x1="212.326" y1="202.999" x2="214.803" y2="202.999" gradientUnits="userSpaceOnUse"><stop stop-color="#4F52FF"/><stop offset="1" stop-color="#4042E2"/></linearGradient><linearGradient id="al" x1="212.271" y1="202.978" x2="214.746" y2="202.978" gradientUnits="userSpaceOnUse"><stop stop-color="#4F52FF"/><stop offset="1" stop-color="#4042E2"/></linearGradient><linearGradient id="am" x1="212.216" y1="202.957" x2="214.691" y2="202.957" gradientUnits="userSpaceOnUse"><stop stop-color="#4F52FF"/><stop offset="1" stop-color="#4042E2"/></linearGradient><linearGradient id="an" x1="212.159" y1="202.937" x2="214.635" y2="202.937" gradientUnits="userSpaceOnUse"><stop stop-color="#4F52FF"/><stop offset="1" stop-color="#4042E2"/></linearGradient><linearGradient id="ao" x1="212.104" y1="202.918" x2="214.58" y2="202.918" gradientUnits="userSpaceOnUse"><stop stop-color="#4F52FF"/><stop offset="1" stop-color="#4042E2"/></linearGradient><linearGradient id="ap" x1="212.05" y1="202.897" x2="214.525" y2="202.897" gradientUnits="userSpaceOnUse"><stop stop-color="#4F52FF"/><stop offset="1" stop-color="#4042E2"/></linearGradient><linearGradient id="aq" x1="211.993" y1="202.877" x2="214.469" y2="202.877" gradientUnits="userSpaceOnUse"><stop stop-color="#4F52FF"/><stop offset="1" stop-color="#4042E2"/></linearGradient><linearGradient id="ar" x1="211.938" y1="202.856" x2="214.414" y2="202.856" gradientUnits="userSpaceOnUse"><stop stop-color="#4F52FF"/><stop offset="1" stop-color="#4042E2"/></linearGradient><linearGradient id="as" x1="211.882" y1="202.836" x2="214.359" y2="202.836" gradientUnits="userSpaceOnUse"><stop stop-color="#4F52FF"/><stop offset="1" stop-color="#4042E2"/></linearGradient><linearGradient id="at" x1="211.827" y1="202.815" x2="214.302" y2="202.815" gradientUnits="userSpaceOnUse"><stop stop-color="#4F52FF"/><stop offset="1" stop-color="#4042E2"/></linearGradient><linearGradient id="au" x1="211.772" y1="202.796" x2="214.247" y2="202.796" gradientUnits="userSpaceOnUse"><stop stop-color="#4F52FF"/><stop offset="1" stop-color="#4042E2"/></linearGradient><linearGradient id="av" x1="211.715" y1="202.776" x2="214.192" y2="202.776" gradientUnits="userSpaceOnUse"><stop stop-color="#4F52FF"/><stop offset="1" stop-color="#4042E2"/></linearGradient><linearGradient id="aw" x1="211.66" y1="202.755" x2="214.136" y2="202.755" gradientUnits="userSpaceOnUse"><stop stop-color="#4F52FF"/><stop offset="1" stop-color="#4042E2"/></linearGradient><linearGradient id="ax" x1="211.606" y1="202.735" x2="214.081" y2="202.735" gradientUnits="userSpaceOnUse"><stop stop-color="#4F52FF"/><stop offset="1" stop-color="#4042E2"/></linearGradient><linearGradient id="ay" x1="211.549" y1="202.714" x2="214.026" y2="202.714" gradientUnits="userSpaceOnUse"><stop stop-color="#4F52FF"/><stop offset="1" stop-color="#4042E2"/></linearGradient><linearGradient id="az" x1="211.494" y1="202.693" x2="213.97" y2="202.693" gradientUnits="userSpaceOnUse"><stop stop-color="#4F52FF"/><stop offset="1" stop-color="#4042E2"/></linearGradient><linearGradient id="aA" x1="211.439" y1="202.675" x2="213.915" y2="202.675" gradientUnits="userSpaceOnUse"><stop stop-color="#4F52FF"/><stop offset="1" stop-color="#4042E2"/></linearGradient><linearGradient id="aB" x1="211.383" y1="202.654" x2="213.858" y2="202.654" gradientUnits="userSpaceOnUse"><stop stop-color="#4F52FF"/><stop offset="1" stop-color="#4042E2"/></linearGradient><linearGradient id="aC" x1="211.328" y1="202.633" x2="213.803" y2="202.633" gradientUnits="userSpaceOnUse"><stop stop-color="#4F52FF"/><stop offset="1" stop-color="#4042E2"/></linearGradient><linearGradient id="aD" x1="211.273" y1="202.613" x2="213.748" y2="202.613" gradientUnits="userSpaceOnUse"><stop stop-color="#4F52FF"/><stop offset="1" stop-color="#4042E2"/></linearGradient><linearGradient id="aE" x1="211.217" y1="202.592" x2="213.692" y2="202.592" gradientUnits="userSpaceOnUse"><stop stop-color="#4F52FF"/><stop offset="1" stop-color="#4042E2"/></linearGradient><linearGradient id="aF" x1="211.162" y1="202.572" x2="213.637" y2="202.572" gradientUnits="userSpaceOnUse"><stop stop-color="#4F52FF"/><stop offset="1" stop-color="#4042E2"/></linearGradient><linearGradient id="aG" x1="211.105" y1="202.551" x2="213.582" y2="202.551" gradientUnits="userSpaceOnUse"><stop stop-color="#4F52FF"/><stop offset="1" stop-color="#4042E2"/></linearGradient><linearGradient id="aH" x1="211.05" y1="202.532" x2="213.526" y2="202.532" gradientUnits="userSpaceOnUse"><stop stop-color="#4F52FF"/><stop offset="1" stop-color="#4042E2"/></linearGradient><linearGradient id="aI" x1="210.995" y1="202.512" x2="213.471" y2="202.512" gradientUnits="userSpaceOnUse"><stop stop-color="#4F52FF"/><stop offset="1" stop-color="#4042E2"/></linearGradient><linearGradient id="aJ" x1="210.939" y1="202.491" x2="213.416" y2="202.491" gradientUnits="userSpaceOnUse"><stop stop-color="#4F52FF"/><stop offset="1" stop-color="#4042E2"/></linearGradient><linearGradient id="aK" x1="210.884" y1="202.471" x2="213.359" y2="202.471" gradientUnits="userSpaceOnUse"><stop stop-color="#4F52FF"/><stop offset="1" stop-color="#4042E2"/></linearGradient><linearGradient id="aL" x1="210.829" y1="202.45" x2="213.305" y2="202.45" gradientUnits="userSpaceOnUse"><stop stop-color="#4F52FF"/><stop offset="1" stop-color="#4042E2"/></linearGradient><linearGradient id="c" x1="505.8" y1="33" x2="-93.686" y2="570.886" gradientUnits="userSpaceOnUse"><stop stop-color="#010648"/><stop offset="1" stop-color="#6165D7"/></linearGradient><linearGradient id="aN" x1="210.718" y1="202.411" x2="213.193" y2="202.411" gradientUnits="userSpaceOnUse"><stop stop-color="#4F52FF"/><stop offset="1" stop-color="#4042E2"/></linearGradient><linearGradient id="aO" x1="210.663" y1="202.39" x2="213.138" y2="202.39" gradientUnits="userSpaceOnUse"><stop stop-color="#4F52FF"/><stop offset="1" stop-color="#4042E2"/></linearGradient><linearGradient id="aP" x1="210.606" y1="202.369" x2="213.082" y2="202.369" gradientUnits="userSpaceOnUse"><stop stop-color="#4F52FF"/><stop offset="1" stop-color="#4042E2"/></linearGradient><linearGradient id="aQ" x1="210.551" y1="202.349" x2="213.027" y2="202.349" gradientUnits="userSpaceOnUse"><stop stop-color="#4F52FF"/><stop offset="1" stop-color="#4042E2"/></linearGradient><linearGradient id="aR" x1="210.497" y1="202.328" x2="212.972" y2="202.328" gradientUnits="userSpaceOnUse"><stop stop-color="#4F52FF"/><stop offset="1" stop-color="#4042E2"/></linearGradient><linearGradient id="aS" x1="210.44" y1="202.308" x2="212.915" y2="202.308" gradientUnits="userSpaceOnUse"><stop stop-color="#4F52FF"/><stop offset="1" stop-color="#4042E2"/></linearGradient><linearGradient id="aT" x1="210.385" y1="202.289" x2="212.86" y2="202.289" gradientUnits="userSpaceOnUse"><stop stop-color="#4F52FF"/><stop offset="1" stop-color="#4042E2"/></linearGradient><linearGradient id="aU" x1="210.33" y1="202.268" x2="212.806" y2="202.268" gradientUnits="userSpaceOnUse"><stop stop-color="#4F52FF"/><stop offset="1" stop-color="#4042E2"/></linearGradient><linearGradient id="aV" x1="210.274" y1="202.248" x2="212.749" y2="202.248" gradientUnits="userSpaceOnUse"><stop stop-color="#4F52FF"/><stop offset="1" stop-color="#4042E2"/></linearGradient><linearGradient id="aW" x1="210.219" y1="202.227" x2="212.694" y2="202.227" gradientUnits="userSpaceOnUse"><stop stop-color="#4F52FF"/><stop offset="1" stop-color="#4042E2"/></linearGradient><linearGradient id="aX" x1="210.162" y1="202.207" x2="212.639" y2="202.207" gradientUnits="userSpaceOnUse"><stop stop-color="#4F52FF"/><stop offset="1" stop-color="#4042E2"/></linearGradient><linearGradient id="aY" x1="210.107" y1="202.186" x2="212.583" y2="202.186" gradientUnits="userSpaceOnUse"><stop stop-color="#4F52FF"/><stop offset="1" stop-color="#4042E2"/></linearGradient><linearGradient id="aZ" x1="210.052" y1="202.165" x2="212.528" y2="202.165" gradientUnits="userSpaceOnUse"><stop stop-color="#4F52FF"/><stop offset="1" stop-color="#4042E2"/></linearGradient><linearGradient id="ba" x1="209.996" y1="202.147" x2="212.473" y2="202.147" gradientUnits="userSpaceOnUse"><stop stop-color="#4F52FF"/><stop offset="1" stop-color="#4042E2"/></linearGradient><linearGradient id="bb" x1="209.941" y1="202.126" x2="212.417" y2="202.126" gradientUnits="userSpaceOnUse"><stop stop-color="#4F52FF"/><stop offset="1" stop-color="#4042E2"/></linearGradient><linearGradient id="bc" x1="209.886" y1="202.105" x2="212.362" y2="202.105" gradientUnits="userSpaceOnUse"><stop stop-color="#4F52FF"/><stop offset="1" stop-color="#4042E2"/></linearGradient><linearGradient id="bd" x1="209.83" y1="202.085" x2="212.305" y2="202.085" gradientUnits="userSpaceOnUse"><stop stop-color="#4F52FF"/><stop offset="1" stop-color="#4042E2"/></linearGradient><linearGradient id="be" x1="209.775" y1="202.064" x2="212.25" y2="202.064" gradientUnits="userSpaceOnUse"><stop stop-color="#4F52FF"/><stop offset="1" stop-color="#4042E2"/></linearGradient><linearGradient id="bf" x1="209.72" y1="202.044" x2="212.195" y2="202.044" gradientUnits="userSpaceOnUse"><stop stop-color="#4F52FF"/><stop offset="1" stop-color="#4042E2"/></linearGradient><linearGradient id="bg" x1="209.663" y1="202.025" x2="212.139" y2="202.025" gradientUnits="userSpaceOnUse"><stop stop-color="#4F52FF"/><stop offset="1" stop-color="#4042E2"/></linearGradient><linearGradient id="bh" x1="209.608" y1="202.004" x2="212.084" y2="202.004" gradientUnits="userSpaceOnUse"><stop stop-color="#4F52FF"/><stop offset="1" stop-color="#4042E2"/></linearGradient><linearGradient id="bi" x1="209.552" y1="201.984" x2="212.029" y2="201.984" gradientUnits="userSpaceOnUse"><stop stop-color="#4F52FF"/><stop offset="1" stop-color="#4042E2"/></linearGradient><linearGradient id="bj" x1="209.497" y1="201.963" x2="211.972" y2="201.963" gradientUnits="userSpaceOnUse"><stop stop-color="#4F52FF"/><stop offset="1" stop-color="#4042E2"/></linearGradient><linearGradient id="bk" x1="209.442" y1="201.943" x2="211.918" y2="201.943" gradientUnits="userSpaceOnUse"><stop stop-color="#4F52FF"/><stop offset="1" stop-color="#4042E2"/></linearGradient><linearGradient id="bl" x1="209.386" y1="201.922" x2="211.863" y2="201.922" gradientUnits="userSpaceOnUse"><stop stop-color="#4F52FF"/><stop offset="1" stop-color="#4042E2"/></linearGradient><linearGradient id="bm" x1="209.331" y1="201.901" x2="211.806" y2="201.901" gradientUnits="userSpaceOnUse"><stop stop-color="#4F52FF"/><stop offset="1" stop-color="#4042E2"/></linearGradient><linearGradient id="bn" x1="209.276" y1="201.883" x2="211.751" y2="201.883" gradientUnits="userSpaceOnUse"><stop stop-color="#4F52FF"/><stop offset="1" stop-color="#4042E2"/></linearGradient><linearGradient id="bo" x1="209.219" y1="201.862" x2="211.696" y2="201.862" gradientUnits="userSpaceOnUse"><stop stop-color="#4F52FF"/><stop offset="1" stop-color="#4042E2"/></linearGradient><linearGradient id="bp" x1="209.165" y1="201.841" x2="211.64" y2="201.841" gradientUnits="userSpaceOnUse"><stop stop-color="#4F52FF"/><stop offset="1" stop-color="#4042E2"/></linearGradient><linearGradient id="bq" x1="209.11" y1="201.821" x2="211.585" y2="201.821" gradientUnits="userSpaceOnUse"><stop stop-color="#4F52FF"/><stop offset="1" stop-color="#4042E2"/></linearGradient><linearGradient id="br" x1="209.053" y1="201.8" x2="211.53" y2="201.8" gradientUnits="userSpaceOnUse"><stop stop-color="#4F52FF"/><stop offset="1" stop-color="#4042E2"/></linearGradient><linearGradient id="bs" x1="208.998" y1="201.78" x2="211.474" y2="201.78" gradientUnits="userSpaceOnUse"><stop stop-color="#4F52FF"/><stop offset="1" stop-color="#4042E2"/></linearGradient><linearGradient id="bt" x1="208.943" y1="201.761" x2="211.419" y2="201.761" gradientUnits="userSpaceOnUse"><stop stop-color="#4F52FF"/><stop offset="1" stop-color="#4042E2"/></linearGradient><linearGradient id="bu" x1="208.887" y1="201.74" x2="211.362" y2="201.74" gradientUnits="userSpaceOnUse"><stop stop-color="#4F52FF"/><stop offset="1" stop-color="#4042E2"/></linearGradient><linearGradient id="bv" x1="208.832" y1="201.72" x2="211.307" y2="201.72" gradientUnits="userSpaceOnUse"><stop stop-color="#4F52FF"/><stop offset="1" stop-color="#4042E2"/></linearGradient><linearGradient id="bw" x1="208.775" y1="201.699" x2="211.253" y2="201.699" gradientUnits="userSpaceOnUse"><stop stop-color="#4F52FF"/><stop offset="1" stop-color="#4042E2"/></linearGradient><linearGradient id="bx" x1="208.72" y1="201.679" x2="211.196" y2="201.679" gradientUnits="userSpaceOnUse"><stop stop-color="#4F52FF"/><stop offset="1" stop-color="#4042E2"/></linearGradient><linearGradient id="by" x1="208.666" y1="201.658" x2="211.141" y2="201.658" gradientUnits="userSpaceOnUse"><stop stop-color="#4F52FF"/><stop offset="1" stop-color="#4042E2"/></linearGradient><linearGradient id="bz" x1="208.609" y1="201.639" x2="211.086" y2="201.639" gradientUnits="userSpaceOnUse"><stop stop-color="#4F52FF"/><stop offset="1" stop-color="#4042E2"/></linearGradient><linearGradient id="bA" x1="208.554" y1="201.619" x2="211.03" y2="201.619" gradientUnits="userSpaceOnUse"><stop stop-color="#4F52FF"/><stop offset="1" stop-color="#4042E2"/></linearGradient><linearGradient id="bB" x1="208.499" y1="201.598" x2="210.975" y2="201.598" gradientUnits="userSpaceOnUse"><stop stop-color="#4F52FF"/><stop offset="1" stop-color="#4042E2"/></linearGradient><linearGradient id="bC" x1="208.443" y1="201.577" x2="210.92" y2="201.577" gradientUnits="userSpaceOnUse"><stop stop-color="#4F52FF"/><stop offset="1" stop-color="#4042E2"/></linearGradient><linearGradient id="bD" x1="208.388" y1="201.557" x2="210.863" y2="201.557" gradientUnits="userSpaceOnUse"><stop stop-color="#4F52FF"/><stop offset="1" stop-color="#4042E2"/></linearGradient><linearGradient id="bE" x1="208.333" y1="201.536" x2="210.808" y2="201.536" gradientUnits="userSpaceOnUse"><stop stop-color="#4F52FF"/><stop offset="1" stop-color="#4042E2"/></linearGradient><linearGradient id="bF" x1="208.277" y1="201.516" x2="210.752" y2="201.516" gradientUnits="userSpaceOnUse"><stop stop-color="#4F52FF"/><stop offset="1" stop-color="#4042E2"/></linearGradient><linearGradient id="bG" x1="208.222" y1="201.497" x2="210.697" y2="201.497" gradientUnits="userSpaceOnUse"><stop stop-color="#4F52FF"/><stop offset="1" stop-color="#4042E2"/></linearGradient><linearGradient id="bH" x1="208.167" y1="201.476" x2="210.642" y2="201.476" gradientUnits="userSpaceOnUse"><stop stop-color="#4F52FF"/><stop offset="1" stop-color="#4042E2"/></linearGradient><linearGradient id="bI" x1="208.11" y1="201.456" x2="210.586" y2="201.456" gradientUnits="userSpaceOnUse"><stop stop-color="#4F52FF"/><stop offset="1" stop-color="#4042E2"/></linearGradient><linearGradient id="bJ" x1="208.055" y1="201.435" x2="210.531" y2="201.435" gradientUnits="userSpaceOnUse"><stop stop-color="#4F52FF"/><stop offset="1" stop-color="#4042E2"/></linearGradient><linearGradient id="bK" x1="208" y1="201.415" x2="210.476" y2="201.415" gradientUnits="userSpaceOnUse"><stop stop-color="#4F52FF"/><stop offset="1" stop-color="#4042E2"/></linearGradient><linearGradient id="bL" x1="207.944" y1="201.394" x2="210.419" y2="201.394" gradientUnits="userSpaceOnUse"><stop stop-color="#4F52FF"/><stop offset="1" stop-color="#4042E2"/></linearGradient><linearGradient id="bM" x1="207.889" y1="201.375" x2="210.365" y2="201.375" gradientUnits="userSpaceOnUse"><stop stop-color="#4F52FF"/><stop offset="1" stop-color="#4042E2"/></linearGradient><linearGradient id="bN" x1="207.833" y1="201.355" x2="210.31" y2="201.355" gradientUnits="userSpaceOnUse"><stop stop-color="#4F52FF"/><stop offset="1" stop-color="#4042E2"/></linearGradient><linearGradient id="bO" x1="207.778" y1="201.334" x2="210.253" y2="201.334" gradientUnits="userSpaceOnUse"><stop stop-color="#4F52FF"/><stop offset="1" stop-color="#4042E2"/></linearGradient><linearGradient id="bP" x1="207.723" y1="201.313" x2="210.198" y2="201.313" gradientUnits="userSpaceOnUse"><stop stop-color="#4F52FF"/><stop offset="1" stop-color="#4042E2"/></linearGradient><linearGradient id="bQ" x1="207.666" y1="201.293" x2="210.143" y2="201.293" gradientUnits="userSpaceOnUse"><stop stop-color="#4F52FF"/><stop offset="1" stop-color="#4042E2"/></linearGradient><linearGradient id="bR" x1="207.611" y1="201.272" x2="210.087" y2="201.272" gradientUnits="userSpaceOnUse"><stop stop-color="#4F52FF"/><stop offset="1" stop-color="#4042E2"/></linearGradient><linearGradient id="bS" x1="207.556" y1="201.253" x2="210.032" y2="201.253" gradientUnits="userSpaceOnUse"><stop stop-color="#4F52FF"/><stop offset="1" stop-color="#4042E2"/></linearGradient><linearGradient id="bT" x1="207.5" y1="201.233" x2="209.977" y2="201.233" gradientUnits="userSpaceOnUse"><stop stop-color="#4F52FF"/><stop offset="1" stop-color="#4042E2"/></linearGradient><linearGradient id="bU" x1="207.445" y1="201.212" x2="209.921" y2="201.212" gradientUnits="userSpaceOnUse"><stop stop-color="#4F52FF"/><stop offset="1" stop-color="#4042E2"/></linearGradient><linearGradient id="bV" x1="207.39" y1="201.192" x2="209.866" y2="201.192" gradientUnits="userSpaceOnUse"><stop stop-color="#4F52FF"/><stop offset="1" stop-color="#4042E2"/></linearGradient><linearGradient id="bW" x1="207.334" y1="201.171" x2="209.809" y2="201.171" gradientUnits="userSpaceOnUse"><stop stop-color="#4F52FF"/><stop offset="1" stop-color="#4042E2"/></linearGradient><linearGradient id="bX" x1="207.279" y1="201.151" x2="209.754" y2="201.151" gradientUnits="userSpaceOnUse"><stop stop-color="#4F52FF"/><stop offset="1" stop-color="#4042E2"/></linearGradient><linearGradient id="bY" x1="207.222" y1="201.13" x2="209.699" y2="201.13" gradientUnits="userSpaceOnUse"><stop stop-color="#4F52FF"/><stop offset="1" stop-color="#4042E2"/></linearGradient><linearGradient id="bZ" x1="207.167" y1="201.111" x2="209.643" y2="201.111" gradientUnits="userSpaceOnUse"><stop stop-color="#4F52FF"/><stop offset="1" stop-color="#4042E2"/></linearGradient><linearGradient id="ca" x1="207.113" y1="201.091" x2="209.588" y2="201.091" gradientUnits="userSpaceOnUse"><stop stop-color="#4F52FF"/><stop offset="1" stop-color="#4042E2"/></linearGradient><linearGradient id="cb" x1="207.056" y1="201.07" x2="209.533" y2="201.07" gradientUnits="userSpaceOnUse"><stop stop-color="#4F52FF"/><stop offset="1" stop-color="#4042E2"/></linearGradient><linearGradient id="cc" x1="207.001" y1="201.049" x2="209.476" y2="201.049" gradientUnits="userSpaceOnUse"><stop stop-color="#4F52FF"/><stop offset="1" stop-color="#4042E2"/></linearGradient><linearGradient id="cd" x1="206.946" y1="201.029" x2="209.422" y2="201.029" gradientUnits="userSpaceOnUse"><stop stop-color="#4F52FF"/><stop offset="1" stop-color="#4042E2"/></linearGradient><linearGradient id="ce" x1="206.89" y1="201.008" x2="209.367" y2="201.008" gradientUnits="userSpaceOnUse"><stop stop-color="#4F52FF"/><stop offset="1" stop-color="#4042E2"/></linearGradient><linearGradient id="cf" x1="206.835" y1="200.989" x2="209.31" y2="200.989" gradientUnits="userSpaceOnUse"><stop stop-color="#4F52FF"/><stop offset="1" stop-color="#4042E2"/></linearGradient><linearGradient id="cg" x1="206.78" y1="200.969" x2="209.255" y2="200.969" gradientUnits="userSpaceOnUse"><stop stop-color="#4F52FF"/><stop offset="1" stop-color="#4042E2"/></linearGradient><linearGradient id="ch" x1="206.723" y1="200.948" x2="209.201" y2="200.948" gradientUnits="userSpaceOnUse"><stop stop-color="#4F52FF"/><stop offset="1" stop-color="#4042E2"/></linearGradient><linearGradient id="ci" x1="206.668" y1="200.928" x2="209.144" y2="200.928" gradientUnits="userSpaceOnUse"><stop stop-color="#4F52FF"/><stop offset="1" stop-color="#4042E2"/></linearGradient><linearGradient id="cj" x1="206.614" y1="200.907" x2="209.089" y2="200.907" gradientUnits="userSpaceOnUse"><stop stop-color="#4F52FF"/><stop offset="1" stop-color="#4042E2"/></linearGradient><linearGradient id="ck" x1="206.557" y1="200.887" x2="209.034" y2="200.887" gradientUnits="userSpaceOnUse"><stop stop-color="#4F52FF"/><stop offset="1" stop-color="#4042E2"/></linearGradient><linearGradient id="cl" x1="206.502" y1="200.866" x2="208.978" y2="200.866" gradientUnits="userSpaceOnUse"><stop stop-color="#4F52FF"/><stop offset="1" stop-color="#4042E2"/></linearGradient><linearGradient id="cm" x1="206.502" y1="200.998" x2="208.923" y2="200.998" gradientUnits="userSpaceOnUse"><stop stop-color="#4F52FF"/><stop offset="1" stop-color="#4042E2"/></linearGradient><linearGradient id="cn" x1="207.99" y1="199.407" x2="208.786" y2="199.407" gradientUnits="userSpaceOnUse"><stop stop-color="#4F52FF"/><stop offset="1" stop-color="#4042E2"/></linearGradient><linearGradient id="co" x1="179.886" y1="105.976" x2="374.674" y2="215.137" gradientUnits="userSpaceOnUse"><stop stop-color="#4F52FF"/><stop offset="1" stop-color="#4042E2"/></linearGradient><linearGradient id="cp" x1="286.119" y1="124.375" x2="270.445" y2="151.949" gradientUnits="userSpaceOnUse"><stop stop-color="#4F52FF"/><stop offset="1" stop-color="#4042E2"/></linearGradient><linearGradient id="cq" x1="252.66" y1="182.657" x2="302.874" y2="139.697" gradientUnits="userSpaceOnUse"><stop stop-color="#4F52FF"/><stop offset="1" stop-color="#4042E2"/></linearGradient><linearGradient id="cr" x1="300.659" y1="90.55" x2="416.468" y2="90.55" gradientUnits="userSpaceOnUse"><stop stop-color="#FF928E"/><stop offset="1" stop-color="#FE7062"/></linearGradient><linearGradient id="cs" x1="534.612" y1="-143.865" x2="451.016" y2="-48.66" gradientUnits="userSpaceOnUse"><stop stop-color="#E1473D"/><stop offset="1" stop-color="#E9605A"/></linearGradient><linearGradient id="ct" x1="547.817" y1="-132.269" x2="464.223" y2="-37.065" gradientUnits="userSpaceOnUse"><stop stop-color="#E1473D"/><stop offset="1" stop-color="#E9605A"/></linearGradient><linearGradient id="cu" x1="557.293" y1="-123.95" x2="473.698" y2="-28.745" gradientUnits="userSpaceOnUse"><stop stop-color="#E1473D"/><stop offset="1" stop-color="#E9605A"/></linearGradient><linearGradient id="cv" x1="566.05" y1="-116.261" x2="482.454" y2="-21.057" gradientUnits="userSpaceOnUse"><stop stop-color="#E1473D"/><stop offset="1" stop-color="#E9605A"/></linearGradient><clipPath id="a"><path fill="#fff" transform="translate(.001)" d="M0 0h480v480H0z"/></clipPath></defs></svg>