<svg width="480" height="480" fill="none" xmlns="http://www.w3.org/2000/svg"><g clip-path="url(#a)"><path d="M79.91 111.895c-34.857 28.811 11.741 65.791-12.4 81.932-24.142 16.141-124.118 47.629-23.433 110.088 100.687 62.458 103.443 103.85 175.316 64.299 71.874-39.551 66.71-46.656 125.863-19.919 59.154 26.737 120.96-14.861 99.95-64.228-21.011-49.368-34.41-48.752-10.409-80.271 24.001-31.52-13.532-118.778-96.151-51.357-82.619 67.422-134.33 17.088-143.401-8.127-9.072-25.215-60.247-77.944-115.334-32.417z" fill="url(#b)"/><path d="M375.133 382.905s16.905-72.621 60.03-124.136c7.92-9.464 23.283-3.95 23.343 8.391.165 35.884-11.27 94.585-83.373 115.745z" fill="#30ABBA"/><path d="M447.64 266.417c-1.281 5.458-2.945 10.778-4.735 16.067a224.238 224.238 0 0 1-5.976 15.648 248.785 248.785 0 0 1-15.024 29.964c-2.865 4.805-5.844 9.547-9.067 14.129-1.575 2.312-3.278 4.539-4.929 6.797-1.725 2.207-3.419 4.437-5.245 6.563a155.47 155.47 0 0 1-23.931 23.432.603.603 0 0 1-.788-.91 210.734 210.734 0 0 0 22.271-24.488c1.721-2.153 3.31-4.412 4.972-6.607 1.58-2.261 3.209-4.484 4.716-6.796.752-1.153 1.562-2.278 2.289-3.443l2.232-3.477c.736-1.165 1.444-2.35 2.167-3.524a147.934 147.934 0 0 0 2.118-3.555c1.417-2.365 2.767-4.773 4.124-7.174 1.316-2.426 2.633-4.852 3.894-7.309 2.571-4.887 4.956-9.87 7.293-14.88 2.336-5.01 4.512-10.096 6.585-15.227 2.074-5.13 4.062-10.31 5.856-15.532v-.015a.605.605 0 0 1 .735-.378.605.605 0 0 1 .421.71l.022.005z" fill="#DCE5FE"/><path d="M390.549 377.587s35.396-50.861 74.951-63.824c9.808-3.214 18.235 7.574 12.78 16.335-11.071 17.797-35.571 42.3-87.731 47.489z" fill="#B6E3E9"/><path d="M474.525 321.562c-3.035 2.763-6.146 5.405-9.295 8.016-1.589 1.288-3.178 2.576-4.78 3.843a352.71 352.71 0 0 1-24.847 17.96c-3.39 2.288-6.884 4.412-10.341 6.599l-5.274 3.144c-.879.523-1.754 1.051-2.642 1.562l-2.678 1.489c-7.096 4.07-14.463 7.648-21.87 11.104a.52.52 0 0 1-.567-.081.502.502 0 0 1-.171-.356.52.52 0 0 1 .131-.372.502.502 0 0 1 .161-.121h.014l5.478-2.707 2.729-1.368c.906-.464 1.786-.957 2.698-1.433l5.396-2.863c1.786-.986 3.544-2.008 5.318-3.008l2.656-1.509 2.622-1.562 5.238-3.14c3.434-2.191 6.918-4.318 10.281-6.608 3.407-2.231 6.753-4.554 10.1-6.877l4.965-3.571 4.91-3.635c1.636-1.214 3.243-2.455 4.865-3.698 1.622-1.243 3.207-2.513 4.805-3.778 3.18-2.54 6.342-5.133 9.397-7.795a.515.515 0 1 1 .687.77l.014-.005z" fill="#DCE5FE"/><path d="M125.596 353.187c-16.143 3.229-36.757-14.372-43.398-33.597-6.833-19.786 5.697-28.074 5.6-55.53-.11-31.189-16.334-35.889-27.066-77.93-2.421-9.484-16.431-64.373.935-74.661 16.068-9.513 61.158 17.788 69.062 52.729 5.637 24.916-11.787 35.378-5.133 64.397 5.845 25.463 21.185 25.831 27.065 50.406 7.157 29.904-5.871 69.948-27.065 74.186z" fill="#BDD0FB"/><path d="M124.422 360.743c4.352-33.604-4.139-85.444-12.024-123.027-8.54-40.678-18.232-73.866-18.328-74.19l-1.339.395c.096.33 9.775 33.474 18.299 74.09 7.865 37.462 16.331 89.133 12.004 122.54l1.388.192z" fill="#DCE5FE"/><path d="M109.95 365.422c21.174-11.033 28.422-48.919 16.385-61.231-8.132-8.319-19.795.431-31.046-8.194-14.365-11.011-3.794-31.747-15.093-58.643-9.611-22.889-32.664-44.547-46.138-40.102-14.104 4.651-21.531 39.165-9.487 59.937 7.833 13.508 19.821 14.171 22.423 26.735 3.017 14.579-11.564 21.227-11.642 35.36-.143 25.387 46.585 60.733 74.598 46.138z" fill="#91B3FA"/><path d="M98.525 375.125a.86.86 0 0 0 .73-.406.865.865 0 0 0 .044-.834c-28.072-57.844-36.304-124.948-36.376-125.62a.863.863 0 1 0-1.713.205c.08.67 8.346 68.064 36.545 126.169a.86.86 0 0 0 .77.486zM40.931 265.642a.403.403 0 0 0 .252-.084.418.418 0 0 0 .074-.581c-8.862-11.381-18.683-28.459-15.146-45.275 2.104-10.015 8.034-15.237 8.09-15.288a.425.425 0 0 0 .159-.286.417.417 0 0 0-.232-.414.415.415 0 0 0-.468.077c-.25.223-6.195 5.459-8.357 15.742-1.986 9.451-.944 25.101 15.311 45.951a.41.41 0 0 0 .317.158z" fill="#DCE5FE"/><path d="M111.858 360.37a.417.417 0 0 0 .342-.179c13.613-19.861 18.261-35.228 13.8-45.64-3.963-9.257-13.974-10.98-14.075-11.002a.417.417 0 0 0-.316.065.404.404 0 0 0-.172.274.412.412 0 0 0 .357.475c.096.016 9.674 1.676 13.454 10.516 4.332 10.136-.286 25.217-13.729 44.839a.414.414 0 0 0 .107.574.414.414 0 0 0 .232.078z" fill="#F0F0F0"/><path d="M402.428 371.305a5.41 5.41 0 0 1-5.394 5.387H105.425a5.408 5.408 0 0 1-5.392-5.387l-2.426-167.581c0-2.964 3.491-8.748 9.889-8.313l284.992-7.364a13.578 13.578 0 0 1 9.952 3.96 13.589 13.589 0 0 1 3.991 9.938l-4.003 169.36z" fill="url(#c)"/><path d="M397.103 366.136a5.12 5.12 0 0 1-5.101 5.102H112.459a5.118 5.118 0 0 1-5.104-5.102l-2.29-152.131c.27-9.149 8.297-12.446 13.167-12.251l273.149-7.327a9.546 9.546 0 0 1 6.996 2.784 9.547 9.547 0 0 1 2.803 6.988l-4.077 161.937z" fill="#6165D7"/><path d="M110.377 293.527a.41.41 0 0 1-.411-.407l-.172-12.334a.417.417 0 0 1 .406-.419.434.434 0 0 1 .42.406l.181 12.338a.414.414 0 0 1-.407.418l-.017-.002zM109.932 263.295a.41.41 0 0 1-.41-.406l-.694-47.255c.013-3.155.986-5.675 2.89-7.5 3.461-3.316 8.879-3.151 9.109-3.142l87.225-2.339a.419.419 0 0 1 .297.11.41.41 0 0 1 .013.584.412.412 0 0 1-.288.129l-87.256 2.341c-.243 0-5.324-.167-8.538 2.913-1.736 1.662-2.622 3.985-2.635 6.902l.694 47.243a.414.414 0 0 1-.407.42z" fill="#BDD0FB"/><path d="M424.407 370.52H83.963c-.925 0-1.676.75-1.676 1.675v11.373c0 .925.75 1.676 1.676 1.676h340.444c.926 0 1.676-.751 1.676-1.676v-11.373c0-.925-.75-1.675-1.676-1.675z" fill="url(#d)"/><path d="m317.158 133.475-160.741-.984a9.199 9.199 0 0 0-9.246 9.656l11.06 228.372h178.873l9.933-204.038-29.879-33.006z" fill="url(#e)"/><path d="M323.842 165.503a9.19 9.19 0 0 1-6.538-3.068 9.198 9.198 0 0 1-2.311-6.842l1.723-21.808 30.35 32.582-23.224-.864z" fill="url(#f)"/><path opacity=".84" d="M307.841 162.511H221.29a4.538 4.538 0 0 0-3.271 1.291 4.535 4.535 0 0 0 3.271 7.776h86.551a4.539 4.539 0 0 0 4.28-2.775 4.524 4.524 0 0 0 0-3.517 4.535 4.535 0 0 0-4.28-2.775zM310.59 183.126h-89.164c-2.58 0-4.671 2.029-4.671 4.533 0 2.504 2.091 4.532 4.671 4.532h89.164c2.58 0 4.671-2.031 4.671-4.534 0-2.504-2.091-4.531-4.671-4.531zM310.59 200.848h-89.164c-2.58 0-4.671 2.03-4.671 4.534s2.091 4.533 4.671 4.533h89.164c2.58 0 4.671-2.029 4.671-4.533 0-2.504-2.091-4.534-4.671-4.534zM310.59 218.571h-89.164c-2.58 0-4.671 2.029-4.671 4.532 0 2.504 2.091 4.535 4.671 4.535h89.164c2.58 0 4.671-2.031 4.671-4.535 0-2.503-2.091-4.532-4.671-4.532zM308.459 246.196H178.633c-3.756 0-6.8 2.009-6.8 4.521 0 2.513 3.046 4.535 6.802 4.535h129.826c3.756 0 6.802-2.031 6.802-4.535 0-2.503-3.048-4.521-6.804-4.521zM308.459 263.906H178.633c-3.756 0-6.802 2.031-6.802 4.535s3.046 4.535 6.802 4.535h129.826c3.756 0 6.802-2.031 6.802-4.535s-3.046-4.535-6.802-4.535zM308.459 281.63H178.633c-3.756 0-6.802 2.031-6.802 4.534 0 2.504 3.046 4.533 6.802 4.533h129.826c3.756 0 6.802-2.029 6.802-4.533 0-2.503-3.046-4.534-6.802-4.534zM308.459 309.244H178.633c-3.756 0-6.802 2.031-6.802 4.534 0 2.504 3.046 4.533 6.802 4.533h129.826c3.756 0 6.802-2.029 6.802-4.533 0-2.503-3.046-4.534-6.802-4.534zM308.459 326.967H178.633c-3.756 0-6.802 2.029-6.802 4.533 0 2.503 3.046 4.534 6.802 4.534h129.826c3.756 0 6.802-2.031 6.802-4.534 0-2.504-3.046-4.533-6.802-4.533zM308.459 344.688H178.633c-3.756 0-6.802 2.031-6.802 4.535s3.046 4.537 6.802 4.537h129.826c3.756 0 6.802-2.029 6.802-4.532 0-2.504-3.046-4.54-6.802-4.54z" fill="#fff"/><path d="M199.037 154h-66.004c-4.973 0-9.004 4.047-9.004 9.04v60.178c0 4.993 4.031 9.04 9.004 9.04h66.004c4.973 0 9.004-4.047 9.004-9.04V163.04c0-4.993-4.031-9.04-9.004-9.04z" fill="url(#g)"/><path d="M130.219 205.788h-.436v-36.341a8.537 8.537 0 0 1 2.516-6.038 8.604 8.604 0 0 1 6.064-2.504h15.588v.446h-15.588a8.17 8.17 0 0 0-5.756 2.377 8.105 8.105 0 0 0-2.388 5.731v36.329z" fill="#BDD0FB"/><path opacity=".76" d="m154.469 207.823-.794-.091a.972.972 0 0 1-.605-.312.946.946 0 0 1-.242-.631l-.028-14.975a.939.939 0 0 1 .596-.879.95.95 0 0 1 .368-.071 6.828 6.828 0 0 0 2.718-.643c.425-.214 1.015-1.352 1.536-2.354.806-1.55 1.806-3.479 3.404-4.917 2.592-2.331 2.658-6.266 2.656-6.707 0-.968.907-2.288 2.126-2.604.743-.193 2.185-.175 3.493 2.131 1.635 2.879.374 6.362-.459 8.673a13.011 13.011 0 0 0-.576 1.818.308.308 0 0 0 0 .043c.459.356 2.693.27 4.042.216.714-.028 1.451-.057 2.167-.06 2.498 0 5.383.43 5.539 3.847a3.647 3.647 0 0 1-1.333 2.977c.982 1.045 1.427 2.117 1.331 3.194a3.666 3.666 0 0 1-1.127 2.243c.417.465.703 1.032.828 1.642a3.49 3.49 0 0 1-.117 1.832 4.179 4.179 0 0 1-1.57 2.108c.317.44.452.983.377 1.518-.23 1.634-2.42 3.042-5.195 3.354-3.372.379-15.818-.977-19.135-1.352zm.25-15.132.026 13.25c3.333.375 15.533 1.698 18.639 1.35 2.208-.245 3.443-1.243 3.512-1.734.027-.188-.305-.454-.824-.681a.959.959 0 0 1-.465-.437.94.94 0 0 1 .251-1.169.966.966 0 0 1 .604-.212c.661.016 1.439-.643 1.699-1.44.188-.575.183-1.416-.905-2.152a.95.95 0 0 1-.418-.828.945.945 0 0 1 .494-.785s1.086-.639 1.161-1.548c.076-.908-.808-1.79-1.563-2.399a.95.95 0 0 1-.341-.867.952.952 0 0 1 .571-.739c.05-.023 1.389-.634 1.331-1.902-.043-.957-.089-2.045-3.62-2.045-.688 0-1.398.03-2.091.057-2.589.102-4.634.184-5.585-.879a1.835 1.835 0 0 1-.422-1.591c.16-.734.381-1.453.661-2.151.76-2.102 1.8-4.981.594-7.105-.459-.825-.968-1.3-1.31-1.232-.342.068-.689.598-.719.793 0 .505-.082 5.212-3.285 8.093-1.34 1.207-2.215 2.893-2.984 4.381-.769 1.488-1.395 2.686-2.371 3.181a8.395 8.395 0 0 1-2.64.791z" fill="#fff"/><path d="M122.619 482.049a1.92 1.92 0 0 1-1.942-1.471L89.951 317.935c-.178-.961.545-1.869 1.621-2.03 1.076-.161 2.096.482 2.275 1.443l30.722 162.633c.182.96-.542 1.872-1.618 2.033a2.16 2.16 0 0 1-.332.035z" fill="url(#h)"/><path d="M18.975 482.049a2.092 2.092 0 0 1-.395-.035c-1.07-.192-1.747-1.121-1.544-2.079L53.25 319.42a1.978 1.978 0 0 1 2.327-1.398c1.069.193 1.746 1.122 1.547 2.097L20.907 480.634a1.933 1.933 0 0 1-1.932 1.415z" fill="url(#i)"/><path d="M98.225 358.14H47.629a1.776 1.776 0 0 1-1.734-1.063 1.764 1.764 0 0 1 .413-1.991 1.758 1.758 0 0 1 1.32-.475h50.597a1.759 1.759 0 0 1 1.734 1.062 1.773 1.773 0 0 1 0 1.404 1.762 1.762 0 0 1-1.025.962 1.785 1.785 0 0 1-.71.101z" fill="url(#j)"/><path d="M103.944 387.545H40.295c-1.09 0-1.974-.79-1.974-1.747 0-.958.884-1.747 1.974-1.747h63.649c1.09 0 1.978.789 1.978 1.747 0 .957-.888 1.747-1.978 1.747z" fill="url(#k)"/><path d="M110.024 416.95h-76.19c-1.09 0-1.973-.79-1.973-1.765 0-.975.884-1.747 1.974-1.747h76.189c1.093 0 1.977.79 1.977 1.747 0 .958-.884 1.765-1.977 1.765z" fill="url(#l)"/><path d="M114.943 446.355H27.71c-1.09 0-1.974-.79-1.974-1.747 0-.957.884-1.747 1.974-1.747h87.233c1.09 0 1.974.79 1.974 1.747 0 .957-.884 1.747-1.974 1.747z" fill="url(#m)"/><path d="M51.944 347.633s-1.279 2.02-1.604 7.687a.925.925 0 0 0 .915.975h10.021a.6.6 0 0 0 .48-.244.589.589 0 0 0 .083-.532c-.587-1.747-2.362-5.974-6.324-8.385l-3.571.499z" fill="#010648"/><path d="m51.51 343.79.567 4.752a.889.889 0 0 0 .779.786 7.928 7.928 0 0 0 2.12-.021 1.462 1.462 0 0 0 1.209-1.454v-4.577l-4.674.514z" fill="url(#n)"/><path d="M76.737 347.113a14.021 14.021 0 0 0-1.89 7.072 1.77 1.77 0 0 0 1.782 1.747H92.19a.749.749 0 0 0 .715-.52.744.744 0 0 0-.286-.836c-2.945-2.068-8.735-5.94-12.927-7.449l-2.956-.014z" fill="url(#o)"/><path d="m75.137 341.98 1.209 5.87a1.213 1.213 0 0 0 .517.775 1.197 1.197 0 0 0 .915.175 4.329 4.329 0 0 0 1.366-.573 1.397 1.397 0 0 0 .622-1.415l-1.25-7.114-3.38 2.282z" fill="url(#p)"/><path d="M53.73 260.376s-4.194 3.703-4.994 8.161c-.8 4.459 2.24 76.927 2.24 76.927s4.193.698 6.373-.612c0 0 2.568-47.032 4.521-57.898 0 0 10.244 48.716 13.085 57.517 0 0 4.05.493 5.353-.276 0 0-2.684-63.153-6.055-74.379l-20.524-9.44z" fill="url(#q)"/><path d="M61.748 285.441a.482.482 0 0 1-.468-.349l-1.747-6.667-3.7-2.372a.487.487 0 0 1-.04-.833.477.477 0 0 1 .185-.073.476.476 0 0 1 .379.092l3.843 2.477a.476.476 0 0 1 .206.283l1.785 6.848a.487.487 0 0 1-.349.591.496.496 0 0 1-.094.003z" fill="url(#r)"/><path d="M95.213 218.501c-17.697-1.468-22.323 2.194-22.323 2.194l8.504 13.424s17.39-.35 29.846-9.948a30.496 30.496 0 0 1-4.99-7.445 23.418 23.418 0 0 1-11.037 1.775z" fill="url(#s)"/><path d="M122.923 192.527a.54.54 0 0 0-1.048-.207l-2.257 4.819a5.007 5.007 0 0 0-.402 2.983l.793 2.796a4.846 4.846 0 0 1-.988 3.843c-2.076 2.592-6.492 7.337-12.785 9.944a30.496 30.496 0 0 0 4.99 7.445c4.573-3.522 8.479-8.291 10.621-14.748a2.368 2.368 0 0 0 1.674-2.355l-.598-14.52z" fill="url(#t)"/><path d="M101.051 226.285c-6.23-6.715-18.095-9.744-24.964-10.992a6.292 6.292 0 0 0-7.044 3.997c-3.092 8.309-11.502 29.929-13.13 33.647a288.129 288.129 0 0 1-3.62 7.886 2.236 2.236 0 0 0 1.048 2.98c5.783 2.795 16.18 5.94 20.398 7.166a1.44 1.44 0 0 0 1.275-.236 1.448 1.448 0 0 0 .577-1.161c0-.82.223-1.624.643-2.327l15.97-26.61c9.951 11.034 18.669 12.043 25.363 9.629a50.423 50.423 0 0 1-2.215-10.457c-9.912-1.688-14.301-13.522-14.301-13.522z" fill="url(#u)"/><path d="m131.679 237.962-1.782-2.383c-5.782 3.969-10.611 4.912-14.566 4.235a50.436 50.436 0 0 0 2.215 10.457c8.822-3.183 14.133-12.309 14.133-12.309z" fill="url(#v)"/><path d="m130.421 238.004 10.059.391 9.259-5.171c-1.331-.832-8.857.856-8.857.856s-7.858-1.188-9.982-1.191c-1.768 0-1.516 2.536-1.398 3.399.028.175.053.28.053.28l.866 1.436z" fill="url(#w)"/><path d="m85.52 202.984-5.307 12.928s6.097 4.22 11.003 3.818l2.648-11.645-8.343-5.101z" fill="url(#x)"/><path d="M94.483 194.137c.122.172 3.843 13.602 3.843 13.602l-7.711 1.96-5.416-12.204s7.25-6.24 9.284-3.358z" fill="url(#y)"/><path d="m88.1 199.347 2.347 6.638c.03.085.07.165.122.238.318.454 1.53 1.928 2.963.601 1.303-1.209 2.509-2.289 3.624-2.488a.99.99 0 0 1 1.121.699 42.515 42.515 0 0 1 1.296 6.478.978.978 0 0 1-.8 1.048c-1.506.286-4.7.8-7.365.611a.993.993 0 0 1-.832-.569c-.733-1.607-2.983-6.478-3.822-7.739-.786-1.185-2.711-1.15-3.522-1.08a.97.97 0 0 1-.723-.234c-.699-.622-2.055-2.205-.16-4.098a.988.988 0 0 0-.025-1.419c-.81-.765-1.68-2.121-.325-3.801 1.355-1.681 3.193-1.436 4.304-1.049a.98.98 0 0 0 1.188-.436.78.78 0 0 1 .804-.378.959.959 0 0 0 .746-.261.97.97 0 0 0 .302-.731c-.021-1.097.37-2.477 2.271-3.068 3.368-1.048 5.468 2.205 5.678 4.633.21 2.429-3.494 3.358-5.695 3.194-1.663-.123-2.897 1.523-3.393 2.32a.98.98 0 0 0-.105.891z" fill="url(#z)"/><path d="M87.635 207.306s-.56-4.214-2.306-4.423c-1.747-.21-3.463 1.237-1.72 3.602 2.177 2.945 4.026.821 4.026.821z" fill="url(#A)"/><path d="M358.842 166.186a.143.143 0 0 1-.058-.012.14.14 0 0 1-.05-.033.156.156 0 0 1-.044-.109c0-3.544-1.356-8.257-1.37-8.295a.156.156 0 0 1 .013-.116.15.15 0 0 1 .09-.073.157.157 0 0 1 .116.011.17.17 0 0 1 .046.038.16.16 0 0 1 .028.053c.013.049 1.394 4.796 1.381 8.384a.15.15 0 0 1-.093.141.15.15 0 0 1-.059.011z" fill="url(#B)"/><path d="M351.116 167.929a.149.149 0 0 1-.066-.015.163.163 0 0 1-.054-.043c-.036-.047-3.751-4.769-5.028-8.007a.146.146 0 0 1-.011-.058.15.15 0 0 1 .096-.138.153.153 0 0 1 .117.001.153.153 0 0 1 .081.083c1.261 3.196 4.948 7.882 4.984 7.929a.15.15 0 0 1 .031.055c.007.02.009.041.007.062a.152.152 0 0 1-.063.106.143.143 0 0 1-.094.025z" fill="url(#C)"/><path d="M413.892 180s-4.357.225-4.892 9.01c0 0 10.105 8.876 23.752 10.987 1.025.158-1.435-6.855-1.805-7.804-1.756-4.519-7.291-7.43-17.055-12.193z" fill="url(#D)"/><path d="M366.804 169.978h8.857S402.85 140.025 420.682 137c0 0 12.393 15.809-.659 45.341-1.053 2.376-3.997 3.43-6.197 2.032a3.519 3.519 0 0 1-1.413-1.681l1.049-25.216s-23.191 20.232-27.223 24.138c-4.032 3.906-24.513 1.526-19.435-11.636z" fill="url(#E)"/><path d="M452.892 232.831c-3.858-3.206-10.008-6.801-18.888-7.831L431 226.74a31.84 31.84 0 0 0 5.413 5.503c3.221 1.771 8.179 4.164 12.294 4.687 3.991.503 4.591-1.786 4.185-4.099z" fill="url(#F)"/><path d="M430.22 192.391c-2.293.73-3.304 3.929-9.125 1.812A51.868 51.868 0 0 1 409.117 188c-.047.413-.086.845-.117 1.303 0 0 10.299 9.631 23.493 11.683a1.32 1.32 0 0 0 1.219-.471 1.271 1.271 0 0 0 .2-1.272 32.278 32.278 0 0 0-3.692-6.852zM455.505 235.569a31.9 31.9 0 0 0-2.776-2.938c.385 2.483-.173 4.942-3.993 4.401-3.929-.561-8.665-3.131-11.736-5.032 3.844 3.495 9.698 7.208 17.083 6.991a1.84 1.84 0 0 0 1.045-.333c.311-.216.557-.524.707-.886.151-.362.2-.763.141-1.154a2.112 2.112 0 0 0-.471-1.049z" fill="#7D97F4"/><path d="m366.952 176 41.802.45s23.873 19.785 28.201 49.954c0 0 .718 2.217-3.594 2.596 0 0-14.44-9.441-23.846-26.134-11.536-20.47-30.101-13.163-30.101-13.163-22.519 7.689-30.227-3.73-30.414-6.431L366.952 176z" fill="url(#G)"/><path d="M368.28 143s4.437 22.497 26.163 31.396l7.733-.923 1.824 2.943-18.137.584s-15.505-6.229-23.715-23.139c-.262-.561-4.783-10.008 6.132-10.861z" fill="url(#H)"/><path d="M370.312 175.999s-5.049-13.924-6.135-27.452c0 0 3.698-3.223 6.004-4.61.361-.216.628-.562.748-.969a1.713 1.713 0 0 0-.097-1.227c-1.694-3.57-11.962-17.58-12.732-17.771-4.178-1.059-21.32-9.325-33.397 7.422-5.18 7.189 1.028 29.32 24.54 52.24l.77.153a11.77 11.77 0 0 0 7.745-1.153l12.554-6.633z" fill="url(#I)"/><path d="M350.505 152s14.109 16.278 32.144 18.66c0 0 4.648-4.152 8.133-2.665C394.268 169.482 399 176 399 176h-23.159s-21.897-.755-32.841-13.693c.875-4.529 3.513-7.231 7.505-10.307z" fill="url(#J)"/><path d="m342.148 112-3.098 10.709c-.071.239-.066.495.012.731.079.237.228.441.426.583 1.487 1.055 5.371 3.163 10.7 1.116.298-.118.557-.322.748-.587.192-.265.307-.581.332-.912l.732-9.331-9.852-2.309z" fill="url(#K)"/><path d="M361 103.916s-1.563 10.488-5.78 13.704c-4.218 3.217-12.446.796-15.22-7.111L345.533 97 361 103.916z" fill="url(#L)"/><path d="M344.743 106.121a.521.521 0 0 0 .6-.214.554.554 0 0 0 .082-.214c.147-1.002.517-2.978 1.26-4.321 0 0-.385-1.418 3.518.727 3.903 2.144 9.783 5.295 13.243 3.417 3.367-1.827 6.785-11.038-2.123-9.329a.523.523 0 0 1-.448-.126.532.532 0 0 1-.139-.197.53.53 0 0 1-.041-.239c.111-1.512-.039-4.996-3.495-6.112-3.236-1.049-5.009.444-5.741 1.344a.515.515 0 0 1-.817 0c-.971-1.289-3.602-4.038-7.478-2.294-3.19 1.433-3.687 3.437-3.637 4.686a.535.535 0 0 1-.231.469.518.518 0 0 1-.513.042c-.979-.46-2.551-.7-4.057 1.225-2.085 2.663.894 4.969 1.784 5.574a.541.541 0 0 1 .239.444c0 1.382.219 7.416 3.186 10.821a.525.525 0 0 0 .882-.157l2.285-5.546a.532.532 0 0 1 .265-.283.516.516 0 0 1 .382-.024l.994.307z" fill="url(#M)"/><path d="M345 107.192s-1.302-5.651-3.281-3.831c-1.978 1.82.515 5.873 2.781 6.639l.5-2.808z" fill="url(#N)"/><path d="m398 177.883 10.497-35.335a3.613 3.613 0 0 1 1.196-1.784 3.557 3.557 0 0 1 1.99-.781l14.171-.978a2 2 0 0 1 1.735.795 2.046 2.046 0 0 1 .298 1.9l-11.728 33.748a2.973 2.973 0 0 1-.957 1.352c-.44.349-.969.565-1.526.621L399.72 179l-1.72-1.117z" fill="url(#O)"/><path d="M399.651 178.996h-.066l-29.359-1.441a1.332 1.332 0 0 1-.895-.427 1.255 1.255 0 0 1 .095-1.791c.254-.227.59-.348.935-.336l29.355 1.44c.349.009.681.152.921.397.241.246.371.575.363.914-.009.34-.156.662-.409.895a1.34 1.34 0 0 1-.94.353v-.004z" fill="url(#P)"/><path d="m341.714 164-.202-.078c-9.536-3.814-15.432-14.443-15.479-14.551a.243.243 0 0 1-.032-.095.238.238 0 0 1 .062-.186.255.255 0 0 1 .083-.062.262.262 0 0 1 .103-.027.271.271 0 0 1 .262.141c.056.104 5.778 10.427 15.013 14.233l.966-1.275a.255.255 0 0 1 .079-.074.28.28 0 0 1 .216-.032.271.271 0 0 1 .1.047.243.243 0 0 1 .068.351L341.714 164z" fill="url(#Q)"/><path d="M296.64 304.778s-.473-56.951 42.002-61.222c42.474-4.271 68.856 14.164 55.665 30.707-13.191 16.543-33.028 31.243-50.722 19.355-17.695-11.888-36.213-11.959-46.945 11.16z" fill="#91B3FA"/><path d="M377.233 268.358a.417.417 0 0 1-.223-.062 78.734 78.734 0 0 0-5.912-3.381.41.41 0 0 1 .377-.732 81.647 81.647 0 0 1 5.974 3.414.413.413 0 0 1-.223.761h.007z" fill="url(#R)"/><path d="M367.2 263.007a.39.39 0 0 1-.165-.036 71.727 71.727 0 0 0-19.545-5.521.415.415 0 0 1-.355-.462.418.418 0 0 1 .464-.354 72.552 72.552 0 0 1 19.768 5.579.413.413 0 0 1-.167.79v.004z" fill="url(#S)"/><path d="M325.156 258.356a.413.413 0 0 1-.1-.812 69.196 69.196 0 0 1 17.067-1.497.414.414 0 0 1 .364.584.4.4 0 0 1-.393.239 68.576 68.576 0 0 0-16.84 1.475.46.46 0 0 1-.098.011z" fill="url(#T)"/><path d="M368.661 272.987a.411.411 0 0 1-.223-.065 39.423 39.423 0 0 0-8.748-4.095.41.41 0 0 1-.309-.364.413.413 0 0 1 .57-.417 40.224 40.224 0 0 1 8.927 4.182.416.416 0 0 1 .17.462.411.411 0 0 1-.393.297h.006z" fill="url(#U)"/><path d="M353.448 267.147a.393.393 0 0 1-.084 0c-13.662-2.821-27.405-.835-27.543-.813a.415.415 0 0 1-.392-.654.414.414 0 0 1 .272-.162c.138-.021 14.025-2.029 27.83.823a.41.41 0 0 1-.083.815v-.009z" fill="url(#V)"/><path d="M371.632 283.623a.409.409 0 0 1-.248-.083 33.575 33.575 0 0 0-6.592-3.805.41.41 0 0 1-.258-.39.4.4 0 0 1 .13-.294.414.414 0 0 1 .462-.07 34.391 34.391 0 0 1 6.753 3.901.409.409 0 0 1-.005.664.414.414 0 0 1-.242.077z" fill="url(#W)"/><path d="M360.358 278.024a.517.517 0 0 1-.125-.018c-5.562-1.786-12.127-2.89-19.514-3.256a.413.413 0 0 1 .04-.824c7.461.371 14.098 1.48 19.726 3.294a.411.411 0 0 1-.127.804z" fill="url(#X)"/><path d="M326.354 275a.414.414 0 0 1-.044-.824 97.508 97.508 0 0 1 9.819-.381.41.41 0 0 1 .382.411.41.41 0 0 1-.382.412 97.052 97.052 0 0 0-9.721.379l-.054.003z" fill="url(#Y)"/><path d="M413.001 350.81c-.029-.373-.41-.699-1.058-.957.703-.387 1.092-.804 1.058-1.21-.098-1.234-4.003-1.924-8.721-1.544-4.717.379-8.46 1.687-8.359 2.921.029.375.41.698 1.057.957-.703.389-1.091.804-1.057 1.21.033.406.41.698 1.057.957-.703.388-1.091.804-1.057 1.212.029.373.41.696 1.057.957-.703.386-1.091.804-1.057 1.21.042.544.832.984 2.106 1.272-.018.446-.007.894.031 1.339.186 2.272 2.741 4.052 6.122 4.052s6.304-2.428 6.338-4.706a11.4 11.4 0 0 0-.067-1.489c1.617-.54 2.604-1.198 2.55-1.838-.029-.375-.41-.699-1.058-.958.703-.388 1.092-.803 1.058-1.209-.033-.406-.41-.699-1.058-.958.703-.395 1.092-.81 1.058-1.218z" fill="#010648"/><path d="M402.098 358.286a20.414 20.414 0 0 1-3.743-.306.116.116 0 0 1-.068-.049c-.015-.025-.021-.054-.015-.082a.109.109 0 0 1 .045-.071.111.111 0 0 1 .081-.021c1.658.317 3.871.388 6.235.196a26.684 26.684 0 0 0 5.226-.892.099.099 0 0 1 .045-.004c.015.002.03.007.043.014a.116.116 0 0 1 .015.192.11.11 0 0 1-.04.021 27.162 27.162 0 0 1-5.271.91c-.877.056-1.737.092-2.553.092z" fill="url(#Z)"/><path d="M402.122 356.117c-1.821 0-3.448-.172-4.595-.498a.11.11 0 0 1-.04-.021.105.105 0 0 1-.029-.034.11.11 0 0 1-.015-.043.138.138 0 0 1 .004-.045.116.116 0 0 1 .098-.084c.015-.002.03 0 .045.004 1.633.464 4.267.609 7.043.386 2.776-.223 5.304-.779 6.846-1.491a.112.112 0 0 1 .088-.003.114.114 0 0 1 .008.211c-1.562.72-4.155 1.285-6.918 1.508a30.09 30.09 0 0 1-2.535.11z" fill="url(#aa)"/><path d="M402.098 353.95c-1.964 0-3.685-.201-4.843-.583a.112.112 0 0 1-.068-.058.115.115 0 0 1 .05-.157.115.115 0 0 1 .089-.008c1.612.531 4.343.708 7.307.469 2.742-.223 5.304-.779 6.846-1.491a.108.108 0 0 1 .043-.01.11.11 0 0 1 .044.006.13.13 0 0 1 .037.024c.011.01.02.022.026.036.006.013.01.028.011.042a.13.13 0 0 1-.007.044.107.107 0 0 1-.058.063c-1.562.723-4.155 1.288-6.918 1.511-.886.076-1.743.112-2.559.112z" fill="url(#ab)"/><path d="M402.113 351.781a19.526 19.526 0 0 1-4.079-.371.117.117 0 0 1-.071-.05.118.118 0 0 1-.014-.086.103.103 0 0 1 .018-.04.11.11 0 0 1 .116-.045c1.658.368 4.046.464 6.55.261 2.718-.223 5.266-.77 6.811-1.473a.115.115 0 0 1 .135.011.124.124 0 0 1 .029.039.12.12 0 0 1 .01.047.128.128 0 0 1-.01.047.12.12 0 0 1-.071.062c-1.562.714-4.142 1.272-6.886 1.493-.868.076-1.723.105-2.538.105z" fill="url(#ac)"/><path d="M392.763 339.868a15.992 15.992 0 0 0-2.857-5.579c-2.809-3.539-7.391-10.736-7.953-20.56-.821-14.282 11.852-21.443 23.416-20.473 11.564.971 22.986 9.583 21.725 22.877-.768 8.179-5.356 14.382-8.755 17.946a18.906 18.906 0 0 0-4.543 8.05c-1.025 3.693-3.459 8.297-9.244 8.578-7.496.362-10.606-6.617-11.789-10.839z" fill="url(#ad)"/><path d="m406.456 347.857 4.046-26.317c.082-.544.35-.908.598-.817.248.092.377.612.294 1.154v.047l-4.608 26.074c-.036.194-.134.319-.223.275-.089-.045-.136-.226-.107-.416z" fill="url(#ae)"/><path d="m402.256 348.065-4.048-26.317c-.083-.543-.35-.909-.596-.815-.245.094-.379.609-.297 1.154v.047l4.609 26.072c.035.196.133.319.223.276.089-.042.138-.225.109-.417z" fill="url(#af)"/><path opacity=".77" d="M410.473 319.279a.429.429 0 0 0-.531-.138l-2.254 1.053-.781-2.231a.49.49 0 0 0-.275-.277.555.555 0 0 0-.692.223l-1.852 3.379-1.729-4.796a.549.549 0 0 0-.261-.292.672.672 0 0 0-.851.167l-2.591 3.571a.302.302 0 0 0-.051.243.309.309 0 0 0 .143.203.45.45 0 0 0 .551-.058l2.281-2.544 2.053 4.575a.36.36 0 0 0 .181.178.428.428 0 0 0 .538-.14l1.981-3.18.746 1.609v.015a.36.36 0 0 0 .017.034.431.431 0 0 0 .532.138l2.677-1.25a.316.316 0 0 0 .22-.345.336.336 0 0 0-.052-.137z" fill="#fff"/><path opacity=".84" d="M418.426 330.79a.614.614 0 0 1-.616-.671.611.611 0 0 1 .121-.315 29.986 29.986 0 0 0 1.87-2.841.617.617 0 0 1 1.133.149.62.62 0 0 1-.062.469 30.712 30.712 0 0 1-1.948 2.961.617.617 0 0 1-.498.248zM421.747 325.077a.618.618 0 0 1-.567-.864c4.258-9.803.589-18.027.551-18.109a.624.624 0 0 1 .018-.442.616.616 0 0 1 1.098-.074c.163.357 3.934 8.813-.542 19.119a.612.612 0 0 1-.558.37z" fill="#fff"/></g><defs><linearGradient id="E" x1="394.833" y1="172.566" x2="410.604" y2="113.012" gradientUnits="userSpaceOnUse"><stop stop-color="#4042E2"/><stop offset="1" stop-color="#4F52FF"/></linearGradient><linearGradient id="b" x1="-.001" y1="238.863" x2="449.392" y2="238.863" gradientUnits="userSpaceOnUse"><stop stop-color="#DAE3FE"/><stop offset="1" stop-color="#E9EFFD"/></linearGradient><linearGradient id="d" x1="384.742" y1="346.126" x2="78.306" y2="420.664" gradientUnits="userSpaceOnUse"><stop stop-color="#09005D"/><stop offset="1" stop-color="#1A0F91"/></linearGradient><linearGradient id="e" x1="257.647" y1="154.537" x2="215.14" y2="431.822" gradientUnits="userSpaceOnUse"><stop stop-color="#FC9D8A"/><stop offset="1" stop-color="#FF765B"/></linearGradient><linearGradient id="f" x1="341.802" y1="136.988" x2="320.824" y2="164.66" gradientUnits="userSpaceOnUse"><stop stop-color="#FE7062"/><stop offset="1" stop-color="#FF928E"/></linearGradient><linearGradient id="g" x1="143.386" y1="195.927" x2="151.099" y2="169.489" gradientUnits="userSpaceOnUse"><stop stop-color="#30ABBA"/><stop offset="1" stop-color="#6165D7"/></linearGradient><linearGradient id="h" x1="89.923" y1="398.97" x2="124.597" y2="398.97" gradientUnits="userSpaceOnUse"><stop stop-color="#FE7062"/><stop offset="1" stop-color="#FF928E"/></linearGradient><linearGradient id="i" x1="16.994" y1="400.029" x2="57.164" y2="400.029" gradientUnits="userSpaceOnUse"><stop stop-color="#FE7062"/><stop offset="1" stop-color="#FF928E"/></linearGradient><linearGradient id="j" x1="45.725" y1="356.375" x2="100.129" y2="356.375" gradientUnits="userSpaceOnUse"><stop stop-color="#FE7062"/><stop offset="1" stop-color="#FF928E"/></linearGradient><linearGradient id="k" x1="38.317" y1="385.78" x2="105.918" y2="385.78" gradientUnits="userSpaceOnUse"><stop stop-color="#FE7062"/><stop offset="1" stop-color="#FF928E"/></linearGradient><linearGradient id="l" x1="31.857" y1="415.185" x2="111.998" y2="415.185" gradientUnits="userSpaceOnUse"><stop stop-color="#FE7062"/><stop offset="1" stop-color="#FF928E"/></linearGradient><linearGradient id="m" x1="25.732" y1="444.59" x2="116.917" y2="444.59" gradientUnits="userSpaceOnUse"><stop stop-color="#FE7062"/><stop offset="1" stop-color="#FF928E"/></linearGradient><linearGradient id="n" x1="51.507" y1="346.341" x2="56.185" y2="346.341" gradientUnits="userSpaceOnUse"><stop stop-color="#FF928E"/><stop offset="1" stop-color="#FEB3B1"/></linearGradient><linearGradient id="o" x1="74.861" y1="351.515" x2="92.952" y2="351.515" gradientUnits="userSpaceOnUse"><stop stop-color="#09005D"/><stop offset="1" stop-color="#1A0F91"/></linearGradient><linearGradient id="p" x1="75.133" y1="344.265" x2="79.784" y2="344.265" gradientUnits="userSpaceOnUse"><stop stop-color="#FF928E"/><stop offset="1" stop-color="#FEB3B1"/></linearGradient><linearGradient id="q" x1="63.296" y1="407.233" x2="64.693" y2="287.74" gradientUnits="userSpaceOnUse"><stop stop-color="#09005D"/><stop offset="1" stop-color="#1A0F91"/></linearGradient><linearGradient id="r" x1="55.623" y1="280.305" x2="62.233" y2="280.305" gradientUnits="userSpaceOnUse"><stop stop-color="#4042E2"/><stop offset="1" stop-color="#4F52FF"/></linearGradient><linearGradient id="s" x1="95.15" y1="209.287" x2="103.067" y2="175.511" gradientUnits="userSpaceOnUse"><stop stop-color="#FE7062"/><stop offset="1" stop-color="#FF928E"/></linearGradient><linearGradient id="t" x1="136.567" y1="164.68" x2="108.724" y2="225.726" gradientUnits="userSpaceOnUse"><stop stop-color="#FF928E"/><stop offset="1" stop-color="#FEB3B1"/></linearGradient><linearGradient id="u" x1="181.594" y1="149.719" x2="64.543" y2="261.892" gradientUnits="userSpaceOnUse"><stop stop-color="#FC9D8A"/><stop offset="1" stop-color="#E9605A"/></linearGradient><linearGradient id="v" x1="150.491" y1="211.9" x2="101.575" y2="261.864" gradientUnits="userSpaceOnUse"><stop stop-color="#FF928E"/><stop offset="1" stop-color="#FEB3B1"/></linearGradient><linearGradient id="w" x1="155.728" y1="217.03" x2="106.813" y2="266.993" gradientUnits="userSpaceOnUse"><stop stop-color="#FF928E"/><stop offset="1" stop-color="#FEB3B1"/></linearGradient><linearGradient id="x" x1="103.371" y1="183.778" x2="67.202" y2="250.236" gradientUnits="userSpaceOnUse"><stop stop-color="#FF928E"/><stop offset="1" stop-color="#FEB3B1"/></linearGradient><linearGradient id="y" x1="91.992" y1="195.958" x2="91.128" y2="222.451" gradientUnits="userSpaceOnUse"><stop stop-color="#FF928E"/><stop offset="1" stop-color="#FEB3B1"/></linearGradient><linearGradient id="z" x1="91.163" y1="176.849" x2="89.378" y2="242.874" gradientUnits="userSpaceOnUse"><stop stop-color="#E1473D"/><stop offset="1" stop-color="#E9605A"/></linearGradient><linearGradient id="A" x1="82.523" y1="223.141" x2="85.412" y2="205" gradientUnits="userSpaceOnUse"><stop stop-color="#FF928E"/><stop offset="1" stop-color="#FEB3B1"/></linearGradient><linearGradient id="B" x1="369.536" y1="142.486" x2="349.146" y2="177.179" gradientUnits="userSpaceOnUse"><stop stop-color="#4042E2"/><stop offset="1" stop-color="#4F52FF"/></linearGradient><linearGradient id="C" x1="363.292" y1="138.818" x2="342.902" y2="173.51" gradientUnits="userSpaceOnUse"><stop stop-color="#4042E2"/><stop offset="1" stop-color="#4F52FF"/></linearGradient><linearGradient id="D" x1="418.293" y1="188.348" x2="433.759" y2="204.827" gradientUnits="userSpaceOnUse"><stop stop-color="#09005D"/><stop offset="1" stop-color="#1A0F91"/></linearGradient><linearGradient id="c" x1="224.595" y1="363.809" x2="293.467" y2="157.193" gradientUnits="userSpaceOnUse"><stop stop-color="#09005D"/><stop offset="1" stop-color="#1A0F91"/></linearGradient><linearGradient id="F" x1="438.402" y1="228.118" x2="467.187" y2="250.409" gradientUnits="userSpaceOnUse"><stop stop-color="#09005D"/><stop offset="1" stop-color="#1A0F91"/></linearGradient><linearGradient id="G" x1="392.207" y1="214.484" x2="383.533" y2="317.546" gradientUnits="userSpaceOnUse"><stop stop-color="#4042E2"/><stop offset="1" stop-color="#4F52FF"/></linearGradient><linearGradient id="H" x1="380.727" y1="169.6" x2="371.141" y2="207.775" gradientUnits="userSpaceOnUse"><stop stop-color="#FF928E"/><stop offset="1" stop-color="#FEB3B1"/></linearGradient><linearGradient id="I" x1="369.427" y1="124.618" x2="269.085" y2="253.969" gradientUnits="userSpaceOnUse"><stop stop-color="#09005D"/><stop offset="1" stop-color="#1A0F91"/></linearGradient><linearGradient id="J" x1="368.789" y1="170.973" x2="406.543" y2="117.973" gradientUnits="userSpaceOnUse"><stop stop-color="#FF928E"/><stop offset="1" stop-color="#FEB3B1"/></linearGradient><linearGradient id="K" x1="348.306" y1="114.107" x2="330.587" y2="153.459" gradientUnits="userSpaceOnUse"><stop stop-color="#FF928E"/><stop offset="1" stop-color="#FEB3B1"/></linearGradient><linearGradient id="L" x1="350.5" y1="87.777" x2="350.5" y2="121.784" gradientUnits="userSpaceOnUse"><stop stop-color="#FF928E"/><stop offset="1" stop-color="#FEB3B1"/></linearGradient><linearGradient id="M" x1="346.859" y1="76.775" x2="352.946" y2="110.842" gradientUnits="userSpaceOnUse"><stop stop-color="#09005D"/><stop offset="1" stop-color="#1A0F91"/></linearGradient><linearGradient id="N" x1="343" y1="88.007" x2="343" y2="122.232" gradientUnits="userSpaceOnUse"><stop stop-color="#FF928E"/><stop offset="1" stop-color="#FEB3B1"/></linearGradient><linearGradient id="O" x1="398" y1="158.989" x2="428.004" y2="158.989" gradientUnits="userSpaceOnUse"><stop stop-color="#09005D"/><stop offset="1" stop-color="#1A0F91"/></linearGradient><linearGradient id="P" x1="401.542" y1="172.574" x2="377.953" y2="179.225" gradientUnits="userSpaceOnUse"><stop stop-color="#09005D"/><stop offset="1" stop-color="#1A0F91"/></linearGradient><linearGradient id="Q" x1="368.546" y1="101.627" x2="335.936" y2="161.034" gradientUnits="userSpaceOnUse"><stop stop-color="#4042E2"/><stop offset="1" stop-color="#4F52FF"/></linearGradient><linearGradient id="R" x1="370.88" y1="266.247" x2="377.646" y2="266.247" gradientUnits="userSpaceOnUse"><stop stop-color="#DAE3FE"/><stop offset="1" stop-color="#E9EFFD"/></linearGradient><linearGradient id="S" x1="347.133" y1="259.818" x2="367.612" y2="259.818" gradientUnits="userSpaceOnUse"><stop stop-color="#DAE3FE"/><stop offset="1" stop-color="#E9EFFD"/></linearGradient><linearGradient id="T" x1="324.743" y1="257.18" x2="342.52" y2="257.18" gradientUnits="userSpaceOnUse"><stop stop-color="#DAE3FE"/><stop offset="1" stop-color="#E9EFFD"/></linearGradient><linearGradient id="U" x1="359.409" y1="270.505" x2="369.072" y2="270.505" gradientUnits="userSpaceOnUse"><stop stop-color="#DAE3FE"/><stop offset="1" stop-color="#E9EFFD"/></linearGradient><linearGradient id="V" x1="325.348" y1="265.975" x2="353.859" y2="265.975" gradientUnits="userSpaceOnUse"><stop stop-color="#DAE3FE"/><stop offset="1" stop-color="#E9EFFD"/></linearGradient><linearGradient id="W" x1="364.546" y1="281.284" x2="372.044" y2="281.284" gradientUnits="userSpaceOnUse"><stop stop-color="#DAE3FE"/><stop offset="1" stop-color="#E9EFFD"/></linearGradient><linearGradient id="X" x1="340.329" y1="275.975" x2="360.77" y2="275.975" gradientUnits="userSpaceOnUse"><stop stop-color="#DAE3FE"/><stop offset="1" stop-color="#E9EFFD"/></linearGradient><linearGradient id="Y" x1="325.942" y1="274.395" x2="336.533" y2="274.395" gradientUnits="userSpaceOnUse"><stop stop-color="#DAE3FE"/><stop offset="1" stop-color="#E9EFFD"/></linearGradient><linearGradient id="Z" x1="403.624" y1="359.368" x2="396.224" y2="386.333" gradientUnits="userSpaceOnUse"><stop stop-color="#4042E2"/><stop offset="1" stop-color="#4F52FF"/></linearGradient><linearGradient id="aa" x1="403.352" y1="359.294" x2="395.949" y2="386.259" gradientUnits="userSpaceOnUse"><stop stop-color="#4042E2"/><stop offset="1" stop-color="#4F52FF"/></linearGradient><linearGradient id="ab" x1="402.662" y1="359.105" x2="395.262" y2="386.069" gradientUnits="userSpaceOnUse"><stop stop-color="#4042E2"/><stop offset="1" stop-color="#4F52FF"/></linearGradient><linearGradient id="ac" x1="402.479" y1="359.053" x2="395.077" y2="386.018" gradientUnits="userSpaceOnUse"><stop stop-color="#4042E2"/><stop offset="1" stop-color="#4F52FF"/></linearGradient><linearGradient id="ad" x1="394.332" y1="296.385" x2="444.735" y2="389.234" gradientUnits="userSpaceOnUse"><stop stop-color="#FE7062"/><stop offset="1" stop-color="#FF928E"/></linearGradient><linearGradient id="ae" x1="408.754" y1="329.085" x2="410.415" y2="381.881" gradientUnits="userSpaceOnUse"><stop stop-color="#E1473D"/><stop offset="1" stop-color="#E9605A"/></linearGradient><linearGradient id="af" x1="399.6" y1="329.373" x2="401.263" y2="382.168" gradientUnits="userSpaceOnUse"><stop stop-color="#E1473D"/><stop offset="1" stop-color="#E9605A"/></linearGradient><clipPath id="a"><path fill="#fff" d="M0 0h480v480H0z"/></clipPath></defs></svg>