<svg width="480" height="480" fill="none" xmlns="http://www.w3.org/2000/svg"><path d="m119.122 77.752-.461.347c-10.879 7.919-16.578 18.816-23.789 30.842-6.734 11.223-9.143 18.416-15.393 20.227-4.582 1.326-9.745-1.078-16.837-6.421-15.147-11.433-32.942-3.753-45.82 26.694-12.879 30.448-8.03 59.272 15.75 93.432 17.396 24.995-5.998 25.27-19.522 68.591-13.523 43.321 5.559 91.906 68.312 91.328 62.843-.58 157.842.518 157.844.518 49.616.58 103.148 11.221 149.271-18.732a101.797 101.797 0 0 0 39.584-49.004c10.804-28.379 7.196-64.033-7.079-89.57-7.745-13.852-19.041-32.934-14.205-50.33 3.886-13.951 13.412-24.058 18.554-37.27 5.18-13.325 7.188-28.703 4.608-43.231-3.393-19.09-15.155-36.05-30.42-41.384-12.583-4.403-27.596-2.725-40.578-2.655-11.622.06-19.061-7.801-29.873-12.386-8.806-3.73-17.331-5.364-26.666-4.538-18.085 1.614-36.447 10.25-51.221 23.13-6.895 6.02-16.974 18.766-26.146 18.45-9.861-.336-21.141-13.07-29.575-18.468-16.668-10.703-36.348-14.098-54.759-9.457a63.996 63.996 0 0 0-21.579 9.887z" fill="url(#a)"/><g opacity=".79"><path d="M467.139 288.111c-9.498 22.794-70.769 152.822-216.663 111.247 0 0 15.855-97.079 214.151-114.275 1.733-.15 3.134 1.528 2.512 3.028z" fill="#9FCED9"/><path d="M445.563 307.866c-3.044 3.085-6.217 6.012-9.426 8.9-1.601 1.448-3.238 2.849-4.867 4.274a167.2 167.2 0 0 1-4.96 4.162 354.38 354.38 0 0 1-20.584 15.723c-14.112 9.954-28.925 18.958-44.464 26.539-3.859 1.946-7.82 3.681-11.752 5.471-3.996 1.65-7.959 3.383-12.026 4.854-4.023 1.59-8.144 2.903-12.236 4.305-2.072.637-4.145 1.24-6.217 1.862-1.036.301-2.072.637-3.108.909l-3.144.803-3.142.806c-1.036.259-2.093.549-3.158.756l-6.348 1.347c-.518.109-1.057.233-1.591.329l-1.601.259-3.206.536c-2.137.35-4.266.749-6.421.966l-6.447.777c-2.155.208-4.321.327-6.476.493l-3.24.233c-1.083.044-2.166.054-3.248.083l-6.497.139a.88.88 0 0 1-.895-.856.876.876 0 0 1 .857-.895h.049l6.436-.108c1.073-.024 2.148-.026 3.22-.065l3.212-.215c2.142-.155 4.287-.259 6.424-.456l6.4-.738c2.137-.205 4.253-.591 6.372-.93l3.181-.518 1.59-.259c.518-.096 1.052-.215 1.58-.321l6.31-1.295c1.057-.202 2.095-.477 3.137-.739l3.126-.777 3.129-.777c1.036-.259 2.072-.593 3.108-.886 2.072-.608 4.129-1.196 6.186-1.813 4.074-1.373 8.18-2.66 12.189-4.224 4.051-1.443 8.004-3.147 11.988-4.769 3.924-1.764 7.874-3.468 11.728-5.39 15.508-7.473 30.306-16.375 44.435-26.231a350.208 350.208 0 0 0 20.605-15.58c1.681-1.347 3.313-2.751 4.968-4.129a185.186 185.186 0 0 0 4.878-4.238c3.214-2.849 6.397-5.773 9.425-8.806a.368.368 0 0 1 .482.036.368.368 0 0 1 .036.482l.003-.029z" fill="#DCE5FE"/></g><g opacity=".72"><path d="M479.681 63.294c1.075 30.305-.725 206.18-186.575 219.463 0 0-32.323-118.738 182.177-221.903 1.878-.904 4.328.46 4.398 2.44z" fill="#9FCED9"/><path opacity=".42" d="M449.218 94.5c-3.396 8.937-7.105 17.733-10.959 26.47a682.432 682.432 0 0 1-12.12 25.957c-8.444 17.129-17.572 33.931-27.596 50.203-10.024 16.272-20.955 32.007-33.232 46.686a255.972 255.972 0 0 1-19.564 20.996 178.102 178.102 0 0 1-22.24 18.194.856.856 0 0 1-.969-1.412 176.547 176.547 0 0 0 22.108-17.927 253.806 253.806 0 0 0 19.535-20.789c12.283-14.557 23.237-30.212 33.318-46.385s19.256-32.924 27.762-49.991a693.351 693.351 0 0 0 12.215-25.869c3.886-8.705 7.631-17.486 11.053-26.378a.36.36 0 0 1 .329-.234.37.37 0 0 1 .26.1.365.365 0 0 1 .089.394l.011-.014z" fill="#fff"/></g><g opacity=".8"><path d="M20.165 60.768c-.316-2.129 1.72-2.46 3.74-1.813 110.603 35.281 186.079 151.61 174.658 197.566 0-.006-143.912 36.174-178.398-195.753z" fill="#9FCED9"/><path d="m31.726 72.04.342.638c.24.404.575.995 1.056 1.785.938 1.582 2.37 3.867 4.194 6.776a491.88 491.88 0 0 0 6.716 10.389c2.64 3.98 5.66 8.434 8.965 13.288 3.305 4.854 6.975 10.039 10.928 15.468a1149.447 1149.447 0 0 0 12.599 16.94c4.458 5.8 9.092 11.77 13.943 17.709l3.647 4.476 3.727 4.445c2.471 2.989 5.041 5.906 7.579 8.853 2.539 2.948 5.181 5.8 7.729 8.706 2.606 2.856 5.212 5.687 7.818 8.491 2.649 2.745 5.232 5.522 7.869 8.172l3.934 3.945 1.945 1.953 1.972 1.893 3.885 3.733 1.924 1.839 1.943 1.772c2.59 2.331 5.048 4.714 7.579 6.858l3.707 3.241 1.813 1.577 1.813 1.5c2.417 1.971 4.717 3.924 6.993 5.698l6.572 5.062c2.108 1.574 4.144 3.012 6.045 4.403l2.764 1.989 2.634 1.754 4.639 3.09c1.399.935 2.71 1.665 3.813 2.362l2.831 1.733 2.357 1.44a.312.312 0 0 1 .096.42.297.297 0 0 1-.399.119l-2.398-1.381c-1.554-.914-3.886-2.183-6.761-3.942-1.423-.908-2.994-1.91-4.714-3.005l-2.676-1.706a895.63 895.63 0 0 1-2.812-1.938c-1.915-1.355-3.987-2.746-6.139-4.297l-6.655-4.999c-2.305-1.762-4.633-3.694-7.086-5.639l-1.845-1.487-1.833-1.554-3.741-3.196c-5.058-4.336-10.244-9.095-15.494-14.143l-1.982-1.893-1.961-1.951-3.965-3.942c-2.655-2.647-5.256-5.421-7.926-8.167a1140.803 1140.803 0 0 1-7.874-8.483c-1.29-1.45-2.585-2.902-3.886-4.354-1.295-1.456-2.59-2.906-3.854-4.403-2.538-2.961-5.103-5.898-7.571-8.903l-3.722-4.471-3.642-4.499c-4.844-5.97-9.47-11.972-13.915-17.802a735.262 735.262 0 0 1-12.469-17.096 1018.995 1018.995 0 0 1-10.796-15.616 661.002 661.002 0 0 1-15.344-23.977 303.519 303.519 0 0 1-4.064-6.885c-.461-.793-.808-1.446-1.037-1.865l-.331-.645a.321.321 0 0 1 .124-.42.282.282 0 0 1 .394.109l.003.034z" fill="#DCE5FE"/></g><path d="M1.05 283.298c18.716 21.918 131.227 145.419 228.29 67.908 0 0-59.966-99.063-227.744-71.69-1.468.239-1.771 2.35-.546 3.782z" fill="#9FCED9"/><path d="M25.607 289.849s2.702 1.738 7.535 4.639a531.866 531.866 0 0 0 8.773 5.134 586.998 586.998 0 0 0 11.516 6.418 601.066 601.066 0 0 0 13.806 7.253 493.313 493.313 0 0 0 15.64 7.643c5.44 2.591 11.156 5.114 16.976 7.616 2.917 1.238 5.875 2.44 8.838 3.657 2.989 1.153 5.957 2.373 8.988 3.479 3.03 1.106 6.025 2.253 9.066 3.261l4.533 1.554c1.51.518 3.03.963 4.538 1.448 1.507.484 3.007.961 4.509 1.409l4.494 1.295c2.968.891 5.958 1.609 8.859 2.357a236.888 236.888 0 0 0 16.963 3.582c1.352.259 2.696.448 4.022.635l3.909.557c1.28.204 2.546.321 3.787.438l3.647.36 1.772.171c.582.046 1.163.059 1.735.09l3.367.161c1.091.041 2.153.122 3.186.132l3.008-.026 2.82-.021h1.337l1.295-.088 4.603-.321a36.9 36.9 0 0 0 3.691-.412l2.714-.386 2.262-.313.108-.016a1.503 1.503 0 0 1 1.106.288 1.488 1.488 0 0 1 .291 2.089 1.478 1.478 0 0 1-.435.387 1.48 1.48 0 0 1-.55.192l-2.331.308-2.8.365c-1.103.145-2.367.337-3.797.389l-4.733.29-1.315.078h-7.336c-1.054-.019-2.134-.109-3.245-.161l-3.417-.192c-.583-.036-1.173-.054-1.769-.109l-1.798-.189-3.711-.391c-1.262-.129-2.546-.259-3.842-.476l-3.96-.599c-1.339-.202-2.702-.391-4.067-.678a240.608 240.608 0 0 1-17.113-3.761c-2.935-.777-5.932-1.531-8.916-2.453l-4.525-1.339c-1.507-.464-3.012-.972-4.527-1.459-1.516-.487-3.041-.971-4.557-1.494l-4.548-1.604c-3.051-1.036-6.058-2.224-9.089-3.354-3.031-1.129-6.009-2.388-9.004-3.569-2.968-1.249-5.929-2.482-8.845-3.751-5.823-2.559-11.527-5.144-16.976-7.783a717.35 717.35 0 0 1-15.622-7.799 499.133 499.133 0 0 1-13.782-7.395c-16.95-9.377-27.77-16.474-27.77-16.474a.637.637 0 0 1-.279-.645.624.624 0 0 1 .263-.406.621.621 0 0 1 .702-.011z" fill="#DCE5FE"/><path d="M424.328 243.164c4.032-91.968-73.175-170.05-172.446-174.402-99.271-4.351-183.014 66.676-187.045 158.644-4.032 91.967 73.175 170.05 172.446 174.401 99.271 4.352 183.014-66.675 187.045-158.643z" fill="url(#b)"/><g opacity=".68"><path d="M290.873 236.102c-.015 14.712-.557 29.425-1.702 44.098-1.145 14.674-2.978 29.293-5.589 43.775-2.663 14.474-6.056 28.867-11.187 42.738-2.591 6.903-5.621 13.707-9.716 19.945-2.073 3.092-4.404 6.056-7.305 8.498a20.857 20.857 0 0 1-4.797 3.085 14.424 14.424 0 0 1-5.615 1.316 14.252 14.252 0 0 1-5.676-1.036 19.586 19.586 0 0 1-4.921-2.917c-2.968-2.367-5.362-5.299-7.465-8.366-4.168-6.183-7.227-12.975-9.843-19.867a203.926 203.926 0 0 1-6.584-21.115c-1.839-7.136-3.383-14.342-4.714-21.582-2.658-14.492-4.471-29.119-5.706-43.782-1.236-14.663-1.845-29.381-1.935-44.099-.042-7.358.184-14.712.45-22.063.267-7.351.705-14.697 1.257-22.032 1.111-14.671 2.758-29.306 5.198-43.821 1.225-7.253 2.65-14.482 4.362-21.644a207.281 207.281 0 0 1 6.178-21.211c2.494-6.93 5.4-13.773 9.446-20 2.036-3.09 4.375-6.04 7.294-8.405a18.664 18.664 0 0 1 4.828-2.885 13.664 13.664 0 0 1 5.556-.98c1.893.074 3.755.509 5.484 1.283a21.383 21.383 0 0 1 4.766 2.963c2.909 2.357 5.312 5.235 7.447 8.258 4.24 6.084 7.439 12.79 10.208 19.615 5.473 13.705 9.182 28.021 12.104 42.441a416.956 416.956 0 0 1 6.216 43.697c1.288 14.66 1.917 29.378 1.961 44.093zm-2.8 0c.036-14.64-.518-29.285-1.72-43.873-1.202-14.588-2.979-29.14-5.665-43.516-2.686-14.375-6.193-28.65-11.422-42.303-2.65-6.796-5.725-13.469-9.804-19.504-2.049-2.994-4.362-5.836-7.136-8.146-2.775-2.31-6.082-4.051-9.664-4.163a12.637 12.637 0 0 0-5.194.985 17.757 17.757 0 0 0-4.548 2.805c-2.767 2.305-5.01 5.209-6.96 8.263-3.885 6.154-6.665 12.963-9.037 19.859a206.796 206.796 0 0 0-5.834 21.131c-1.6 7.138-2.916 14.341-4.032 21.576-4.404 28.958-5.836 58.313-5.727 87.585a584.43 584.43 0 0 0 1.489 43.886c1.08 14.598 2.746 29.161 5.243 43.578 1.251 7.208 2.714 14.378 4.468 21.475a202.605 202.605 0 0 0 6.309 20.981c2.528 6.83 5.484 13.547 9.473 19.59 2.007 2.996 4.292 5.835 7.05 8.078 2.759 2.243 6.074 3.824 9.561 3.704 3.486-.119 6.734-1.813 9.42-4.144 2.686-2.331 4.922-5.199 6.908-8.221 3.919-6.09 6.831-12.824 9.325-19.665 4.922-13.728 8.157-28.07 10.654-42.48 2.497-14.409 4.126-28.984 5.222-43.58a581.89 581.89 0 0 0 1.621-43.901z" fill="#fff" style="mix-blend-mode:soft-light"/><path d="M365.08 236.102c-.109 18.963-2.557 37.931-7.641 56.207-5.181 18.241-12.995 35.781-23.571 51.525-10.576 15.743-24.04 29.647-40.13 39.754a106.626 106.626 0 0 1-25.811 11.788 96.893 96.893 0 0 1-56.12.031 106.588 106.588 0 0 1-25.837-11.762c-16.114-10.102-29.609-24.021-40.213-39.731-10.605-15.71-18.453-33.297-23.664-51.545a203.546 203.546 0 0 1-5.735-27.879 223.496 223.496 0 0 1-1.943-28.388c.047-9.496.699-18.979 1.953-28.391a203.591 203.591 0 0 1 5.758-27.869c5.23-18.242 13.081-35.778 23.706-51.503 10.625-15.725 24.115-29.601 40.208-39.661a107.195 107.195 0 0 1 25.811-11.706 96.027 96.027 0 0 1 56.008.029 107.143 107.143 0 0 1 25.783 11.733c16.083 10.077 29.544 23.994 40.125 39.685 10.581 15.692 18.427 33.248 23.625 51.475 5.1 18.279 7.561 37.245 7.688 56.208zm-3.199 0c-.015-18.686-2.331-37.395-7.252-55.431-4.922-18.035-12.371-35.418-22.629-51.073a146.402 146.402 0 0 0-17.471-21.893c-6.527-6.693-13.728-12.751-21.628-17.784a104.53 104.53 0 0 0-25.384-11.762 92.954 92.954 0 0 0-55.293.03 104.34 104.34 0 0 0-25.361 11.786c-7.882 5.04-15.077 11.107-21.592 17.803a146.401 146.401 0 0 0-17.427 21.9c-10.228 15.653-17.641 33.043-22.534 51.048a204.958 204.958 0 0 0-5.414 27.456 214.39 214.39 0 0 0 .021 55.847 205.833 205.833 0 0 0 5.439 27.457c4.922 17.994 12.35 35.371 22.587 51.001a146.39 146.39 0 0 0 17.429 21.869c6.515 6.683 13.703 12.741 21.582 17.761a104.946 104.946 0 0 0 25.319 11.728 92.144 92.144 0 0 0 55.172.031 104.962 104.962 0 0 0 25.363-11.705c7.89-5.012 15.093-11.065 21.621-17.745a146.302 146.302 0 0 0 17.473-21.862c10.265-15.634 17.714-33.019 22.667-51.027 4.952-18.007 7.273-36.749 7.312-55.435z" fill="#fff" style="mix-blend-mode:soft-light"/><path d="M94.15 171.44c12.5-.179 25-.259 37.498-.389l37.501-.222c12.498-.096 24.998-.086 37.498-.114l37.499-.065 74.997.197 37.498.241c12.5.142 25.001.225 37.498.419a.17.17 0 0 1 .055.012.142.142 0 0 1 .045.032.122.122 0 0 1 .03.047.126.126 0 0 1 .01.054.132.132 0 0 1-.042.097.139.139 0 0 1-.098.041c-12.497.194-24.998.279-37.498.422l-37.498.241-74.997.189-37.499-.068c-12.5-.028-25-.018-37.498-.111l-37.501-.22c-12.498-.132-24.998-.21-37.499-.391a.204.204 0 0 1-.08-.017.207.207 0 0 1-.127-.196.212.212 0 0 1 .207-.199zM137.652 108.632c8.877-.178 17.751-.259 26.625-.388l26.622-.22c8.874-.093 17.748-.086 26.622-.114l26.625-.065 26.622.075c8.874.044 17.748.021 26.622.122l26.625.241c8.874.142 17.748.225 26.622.419a.142.142 0 0 1 .142.143.146.146 0 0 1-.041.101.146.146 0 0 1-.101.041c-8.874.192-17.748.277-26.622.42l-26.63.241c-8.874.101-17.748.078-26.622.122l-26.623.075-26.624-.065c-8.874-.031-17.748-.021-26.622-.114l-26.617-.225c-8.874-.133-17.748-.21-26.625-.392a.211.211 0 0 1-.135-.352.215.215 0 0 1 .135-.07v.005zM81.118 234.247l40.757-.388 40.757-.22c13.586-.096 27.171-.086 40.757-.114l40.757-.065 81.511.197 40.757.241c13.586.142 27.171.225 40.757.419.019 0 .037.004.054.012a.14.14 0 0 1 .044.23.14.14 0 0 1-.098.04c-13.586.195-27.171.28-40.757.423l-40.757.241-81.511.196-40.757-.067c-13.586-.028-27.171-.018-40.757-.111l-40.757-.215-40.757-.391a.203.203 0 0 1-.08-.017.207.207 0 0 1-.127-.196.212.212 0 0 1 .207-.215zM94.15 297.054c12.5-.181 25-.259 37.498-.388l37.501-.212c12.498-.096 24.998-.086 37.498-.114l37.499-.065 74.997.179 37.498.24c12.5.143 25.001.226 37.499.42.018 0 .037.004.054.012a.14.14 0 0 1 .076.078c.006.018.01.036.009.055a.135.135 0 0 1-.041.097.141.141 0 0 1-.098.04c-12.498.195-24.999.28-37.499.423l-37.498.24-74.997.208-37.499-.068c-12.5-.028-25-.018-37.498-.111l-37.501-.22c-12.498-.132-24.998-.21-37.498-.391a.21.21 0 0 1-.192-.132.212.212 0 0 1 .046-.227.213.213 0 0 1 .145-.064zM356.004 360.812H143.009a.739.739 0 0 1-.496-1.247.744.744 0 0 1 .496-.232h212.985a.744.744 0 0 1 .697.74.742.742 0 0 1-.697.739h.01z" fill="#fff" style="mix-blend-mode:soft-light"/></g><path d="M300.206 93.454c-14.669-.116-29.464 2.21-42.552 7.641-30.471 12.643-56.329 46.106-46.21 80.263 3.287 11.102 1.555 23.348 12.617 28.171 5.984 2.611 22.276 4.162 28.472 2.106 16.466-5.465 27.288-20.429 18.333-37.019-2.867-5.316-6.579-10.17-9.065-15.676-2.487-5.507-3.606-12.042-1.08-17.528 4.955-10.765 21.418-14.189 32.095-13.866 12.601.381 24.019 6.613 30.8 17.306 8.452 13.326 10.594 29.528 9.356 45.002-1.324 16.551-8.289 29.191-18.761 41.889-9.004 10.93-18.909 21.426-24.905 34.26-5.494 11.786-7.291 24.843-7.537 37.734-.05 2.5-12.475 26.048-12.433 33.241 0 1.015 14.093 4.382 15.111 4.403l25.853.287a2.069 2.069 0 0 0 2.087-2.033c.394-34.999 11.159-68.381 38.413-91.875 9.915-8.547 20.595-15.517 28.306-26.313 11.008-15.391 16.432-30.539 14.868-49.53-1.43-17.355-7.141-34.696-18.445-48.155-12.153-14.464-29.938-23.496-48.421-27.394a136.512 136.512 0 0 0-26.902-2.914z" fill="url(#c)"/><path d="M327.253 380.895c0 16.095-8.921 30.334-25.016 30.334-3.477 0-15.301.033-18.391-1.086-11.221-4.053-11.26-12.671-11.26-25.29 0-16.093 5.44-31.925 21.53-31.925 16.091 0 33.137 11.874 33.137 27.967z" fill="url(#d)"/><path d="M286.268 89.786c-14.669-.116-29.461 2.21-42.552 7.641-30.469 12.643-56.329 46.106-46.209 80.263 3.287 11.102 10.878 25.073 21.946 29.896 5.984 2.611 12.951 2.438 19.145.381 16.463-5.465 27.287-20.429 18.331-37.019-2.868-5.315-6.58-10.169-9.066-15.676-2.487-5.507-3.603-12.042-1.08-17.528 4.957-10.765 21.421-14.189 32.095-13.865 12.601.38 24.022 6.612 30.803 17.305 8.449 13.326 10.591 29.528 9.353 45.002-1.324 16.551-8.289 29.192-18.761 41.889-9.004 10.931-18.908 21.426-24.905 34.261-5.494 11.785-7.289 24.842-7.537 37.734-.05 2.499.792 28.593.847 35.786a1.867 1.867 0 0 0 1.841 1.849l25.856.288a2.07 2.07 0 0 0 2.072-2.033c.394-34.999 11.161-68.369 38.413-91.875 9.915-8.548 20.594-15.518 28.306-26.314 10.99-15.388 16.411-30.531 14.847-49.522-1.428-17.354-7.139-34.709-18.445-48.155-12.12-14.463-29.912-23.495-48.383-27.394a136.556 136.556 0 0 0-26.917-2.914z" fill="url(#e)"/><path d="M287.788 410.33c16.095 0 29.143-13.048 29.143-29.143s-13.048-29.142-29.143-29.142-29.142 13.047-29.142 29.142 13.047 29.143 29.142 29.143z" fill="url(#f)"/><path opacity=".54" d="M207.152 174.222a.258.258 0 0 1-.246-.197c-2.036-9.2-2.331-23.607 7.812-39.998 9.911-16.007 23.81-26.718 41.312-31.834 18.719-5.473 40.948-4.3 66.071 3.484a.27.27 0 0 1 .111.033.265.265 0 0 1 .128.186.253.253 0 0 1-.066.216.26.26 0 0 1-.321.047c-48.367-14.987-86.298-4.994-106.805 28.132-10.06 16.249-9.765 30.518-7.749 39.63a.26.26 0 0 1-.192.301.253.253 0 0 1-.055 0zM213.283 189.059a.254.254 0 0 1-.204-.104c-.021-.029-2.179-3.01-4.126-8.105a.255.255 0 0 1 .007-.192.255.255 0 0 1 .138-.134.26.26 0 0 1 .326.148c1.922 5.025 4.041 7.957 4.061 7.985a.255.255 0 0 1 .043.187.257.257 0 0 1-.097.165.238.238 0 0 1-.148.05zM297.54 362.178a.26.26 0 0 1-.113-.026 21.12 21.12 0 0 0-9.639-2.298.259.259 0 0 1 0-.518 21.6 21.6 0 0 1 9.866 2.352.262.262 0 0 1 .102.121c.02.05.024.106.012.158a.263.263 0 0 1-.228.198v.013zM275.72 399.339a.234.234 0 0 1-.142-.044 21.843 21.843 0 0 1 1.886-37.356.254.254 0 0 1 .191-.016.253.253 0 0 1 .15.12.26.26 0 0 1-.103.342 21.335 21.335 0 0 0-11.22 17.727 21.343 21.343 0 0 0 9.378 18.766.263.263 0 0 1 .105.161.261.261 0 0 1-.035.189.253.253 0 0 1-.21.111z" fill="#fff"/><path d="M123.181 219.724c6.441 80.61 28.841 150.258 26.187 190.056a6.134 6.134 0 0 0 3.758 6.082c23.985 9.954 50.377 14.246 79.98 5.181a8.711 8.711 0 0 0 6.124-8.429c-.643-63.921 34.649-128.93 14.95-203.8-7.441-2.875-27.484-4.403-44.691-3.422l-32.709 2.269c-13.985.467-40.06 3.194-53.599 12.063z" fill="url(#g)"/><path d="m179.295 173.536-5.776 41.896a3.667 3.667 0 0 1-.068.347l-.147.591c-.324 2.051 20.504 16.02 36.768-3.02l-4.404-41.861c-.479-2.302-4.229-2.921-6.579-2.81l-15.282.733a4.784 4.784 0 0 0-4.512 4.124z" fill="url(#h)"/><path d="M174.301 157.018s6.266-15.458.66-19.551c-5.605-4.093-14.215-2.443-12.808 9.009 1.748 14.251 12.148 10.542 12.148 10.542z" fill="url(#i)"/><path d="M207.505 164.353s2.445-16.502 9.343-17.183c6.897-.681 13.489 5.1 6.475 14.246-8.732 11.407-15.818 2.937-15.818 2.937z" fill="url(#j)"/><path d="M171.807 125.485c22.977-11.423 43.038-8.32 54.394 14.709-10.187 33.248-25.723 59.402-43.044 53.928-17.722-4.455-16.865-35.32-11.35-68.637z" fill="url(#k)"/><path d="M222.603 100.463a16.117 16.117 0 0 1 6.072 4.453c2.491 3.033 3.613 7.302 2.388 11.031-.539 1.635-1.575 3.598-.692 5.287.746 1.425 2.862 2.59 3.81 4.051 1.834 2.849 1.513 6.652.125 9.742-1.202 2.681-3.267 5.895-5.554 7.739-2.442 1.974-3.481 4.075-4.478 7.077-1.135 3.419-2.489 6.734-3.759 10.102-.847 2.245-.935 5.478-3.165 6.965-.484.321-1.238.308-1.554-.174-.259-.386-.171-.896-.067-1.349 1.989-8.869 5.408-17.58 6.071-26.679a3.02 3.02 0 0 0-.282-1.772 3.153 3.153 0 0 0-.961-.925c-2.186-1.525-4.46-2.121-6.408-4.056-1.329-1.324-1.352-2.606-3.5-2.072a14.338 14.338 0 0 1-8.483-.542c-1.65-.634-3.367-1.598-5.076-1.103-1.316.381-2.223 1.554-3.259 2.437-4.618 3.974-11.254 2.876-16.746 2.244a.869.869 0 0 0-1.119.699 88.17 88.17 0 0 0-1.38 3.626l-3.839 10.527c-.497 1.362-.666 2.696-1.036 4.02-.135.487-.388 1.015-.865 1.253-.171.083-1.585.218-1.554-.051l2.365-15.92c.878-5.895-2.743-11.547-2.671-17.453.049-4.064 2.013-8.464 5.828-9.861 1.813-.66 3.922-.621 5.44-1.813 1.168-.909 1.738-2.359 2.458-3.652 3.056-5.491 9.811-8.651 15.986-7.478 3.839.728 5.44 3.886 9.737 2.873 4.077-.966 7.957-1.363 12.192-.477 1.364.282 2.696.701 3.976 1.251z" fill="url(#l)"/><path d="M149 350.589c16.116-.862 44.062-2.406 65.33-19.447 3.414 6.993 5.082 10.293 22.954 23.079-21.812 10.806-55.674 20.188-94.863 11.109L149 350.589z" fill="url(#m)"/><path d="M151.326 365.835a5.253 5.253 0 0 0 2.817-2.969 5.268 5.268 0 0 0-.165-4.089c-2.137-4.518-5.789-11.573-8.703-13.842-2.766-2.155-6.097-3.287-9.174-4.896-1.127-.588-3.448-2.834-4.663-2.795-1.852.057-2.054 2.443-2.295 3.831a43.04 43.04 0 0 0 2.518 23.312c.259.645.552 1.295 1.059 1.78a5.108 5.108 0 0 0 1.596.891 104.53 104.53 0 0 0 10.806 3.693 1.37 1.37 0 0 0 1.062-.127 1.37 1.37 0 0 0 .653-.847c.285-1.072.749-2.406.94-2.618.951-1.047 2.306-.77 3.549-1.324z" fill="url(#n)"/><path d="M211.281 335.478a2.71 2.71 0 0 1-.578-2.188 2.72 2.72 0 0 1 1.278-1.868 27.106 27.106 0 0 0 9.109-8.877c11.501-18.839 14.037-57.407 14.037-57.407s-11.089-61.258 15.238-58.238c0 0 48.626 16.202 9.726 118.909-2.849 7.511-15.199 23.153-22.882 29.119a2.255 2.255 0 0 1-2.554.137c-9.143-5.59-16.878-11.716-23.374-19.587z" fill="url(#o)"/><path d="M159.011 297.718a.926.926 0 0 1-.889-.648c-3.183-9.773-7.615-19.82-13.173-29.862a.294.294 0 0 1 .342-.424.298.298 0 0 1 .176.141c5.576 10.076 10.024 20.157 13.21 29.964a.346.346 0 0 0 .344.259.353.353 0 0 0 .339-.259c3.207-11.563 9.001-23.074 14.247-32.805a.276.276 0 0 1 .171-.141.282.282 0 0 1 .22.024.287.287 0 0 1 .087.072.287.287 0 0 1 .032.32c-5.23 9.705-11.006 21.177-14.197 32.685a.93.93 0 0 1-.886.692l-.023-.018z" fill="url(#p)"/><path d="M175.337 347.561a.287.287 0 0 1-.217-.482c14.101-15.836 24.607-43.818 28.803-76.771a.271.271 0 0 1 .034-.11.272.272 0 0 1 .074-.088.28.28 0 0 1 .218-.061.28.28 0 0 1 .195.115.284.284 0 0 1 .054.219c-4.22 33.064-14.764 61.16-28.946 77.082a.28.28 0 0 1-.215.096z" fill="url(#q)"/><path d="M145.202 267.358a.29.29 0 0 1-.29-.29c0-21.115-11.254-44.87-19.978-47.872a.29.29 0 0 1-.166-.148.288.288 0 0 1 .133-.388.286.286 0 0 1 .222-.013c4.331 1.489 9.369 7.91 13.469 17.178 4.391 9.861 6.901 21.258 6.901 31.243a.29.29 0 0 1-.291.29z" fill="url(#r)"/><path d="M210.662 333.356a.29.29 0 0 1-.173-.518c8.244-6.084 14.72-17.478 18.727-32.955 3.466-13.394 4.968-29.37 4.219-44.994a.292.292 0 0 1 .485-.23.284.284 0 0 1 .095.201c.746 15.692-.758 31.72-4.234 45.166-4.041 15.603-10.592 27.109-18.945 33.273a.28.28 0 0 1-.174.057z" fill="url(#s)"/><path d="m190.886 195.498-2.437 17.914c-3.658 22.242-11.568 38.863-14.099 53.513.738-4.286 8.333 3.184 12.718 5.082a237.31 237.31 0 0 1 15.111 7.175c4.145-21.921 1.35-61.439 1.35-61.439-4.541-14.943-8.097-7.315-12.643-22.245z" fill="url(#t)"/><path d="M123.18 219.724c-35.462 31.422-9.021 117.469 31.29 137.367a3.266 3.266 0 0 0 1.624.321c33.598-1.927 7.59-48.424-10.62-89.083a3.263 3.263 0 0 1-.282-1.261c-.409-18.994-5.514-34.022-17.455-47.108a3.258 3.258 0 0 0-4.557-.236z" fill="url(#u)"/><path d="M156.33 357.44c28.327-1 44.318-59.033 47.88-87.095a1.19 1.19 0 0 0-.448-1.085 1.19 1.19 0 0 0-1.161-.169c-7.69 2.948-17.165-.29-27.096-5.489a1.193 1.193 0 0 0-1.647.601c-8.175 19.831-22.017 46.497-22.066 56.348a.926.926 0 0 0 0 .129l3.313 35.678a1.186 1.186 0 0 0 1.225 1.082z" fill="url(#v)"/><path d="M186.234 222.786c-2.297-8.364-5.369-17.645-3.261-20.823 5.882-7.221 14.466-11.708 19.126-14.119 7.623-2.018 6.963 9.69 10.084 20.981 2.116 3.072-3.129 10.596-8.157 17.989l-17.792-4.028z" fill="url(#w)"/><path d="M182.973 208.247c-2.772-4.069-1.647-17.228-5.611-19.779-.318-.207-.062-.743.311-.811 2.422-.432 4.896-.606 6.17.749 1.357 1.36 1.645 6.325 3.966 8.625l-4.836 11.216z" fill="url(#x)"/><path d="m195.175 75.245-5.05 11.498 24.695 35.592 29.142-7.595 9.25-10.117-58.037-29.378z" fill="url(#y)"/><path d="M210.271 110.529c-.203-.025-.4-.09-.578-.191a1.553 1.553 0 0 1-.458-.4l-18.787-24.037-5.698 15.261c-.795 2.135-.41 4.43.984 5.844 12.765 12.951 26.555 21.499 42.257 21.885a5.49 5.49 0 0 0 3.996-1.767l12.236-12.658-33.952-3.937z" fill="url(#z)"/><path d="m186.172 70.088 47.051 4.09c.41.038.788.237 1.051.554l30.246 35.486c1.124 1.318-.119 3.668-1.839 3.468l-50.98-5.918a1.567 1.567 0 0 1-1.049-.588l-26.317-33.673c-1.036-1.326.163-3.564 1.837-3.42z" fill="url(#A)"/><path d="M260.006 110.853h-.031l-47.29-5.435a.24.24 0 0 1-.1-.032.273.273 0 0 1-.079-.069L188.402 74.09a.257.257 0 0 1-.055-.195.252.252 0 0 1 .102-.175.253.253 0 0 1 .195-.055.257.257 0 0 1 .175.104l24.042 31.139 47.173 5.419a.257.257 0 0 1 .179.086.257.257 0 0 1-.02.366.258.258 0 0 1-.187.066v.008z" fill="#7D97F4"/><path d="M220.873 86.647s28.694 21.17 29.849 25.309c.58 2.072-1.891 15.08-1.891 15.08 4.728 14.433 5.976 30.259-.694 38.833 0 0-9.4-18.852-5.867-27.097 3.533-8.244 4.886-11.622 4.886-11.622s2.248-12.881 1.074-15.469c0 0-29.551-23.894-27.357-25.034z" fill="url(#B)"/><path d="m247.259 135.983-.049.054-.054.073-.114.145-.215.316c-.143.212-.259.443-.399.665l-.347.697c-.107.238-.2.487-.301.731a7.507 7.507 0 0 0-.259.748c-.078.259-.166.505-.236.762l-.183.777c-.07.255-.125.515-.166.777l-.127.792c-.039.259-.093.518-.106.798-.042.534-.091 1.07-.127 1.606l-.013 1.616v.404l.026.405.051.808c.034 1.082.226 2.152.355 3.227.029.259.083.534.138.8l.158.798c.108.531.207 1.067.323 1.596.28 1.049.542 2.106.842 3.152l1.01 3.108a.177.177 0 0 1-.009.139.184.184 0 0 1-.105.092.184.184 0 0 1-.138-.009.18.18 0 0 1-.092-.105l-1.098-3.108c-.329-1.036-.619-2.106-.933-3.158-.132-.533-.243-1.072-.368-1.606l-.181-.805a8.367 8.367 0 0 1-.161-.808c-.16-1.088-.383-2.171-.448-3.274l-.072-.827-.036-.412v-.414l-.032-1.66c.024-.555.06-1.109.089-1.663 0-.277.054-.552.088-.829l.108-.829c.029-.277.099-.549.153-.824l.174-.821c.067-.259.153-.539.228-.808.072-.272.158-.54.259-.803.101-.259.194-.531.303-.793l.357-.777c.143-.259.259-.505.422-.751l.239-.368.134-.181.068-.091.085-.101a.534.534 0 0 1 .354-.186.519.519 0 0 1 .51.278.512.512 0 0 1 .037.398.54.54 0 0 1-.098.179l-.044.07z" fill="#7D97F4"/><path d="m248.334 142.746.039 1.036.057 1.145.122 2.331.259 4.642.557 9.283a.283.283 0 0 1-.26.3.29.29 0 0 1-.303-.259l-.795-9.267-.386-4.637-.181-2.331-.085-1.163-.039-.586-.018-.295v-.414a.514.514 0 0 1 .509-.422.518.518 0 0 1 .508.422l.016.215z" fill="#7D97F4"/><path d="M320.008 115.227a.568.568 0 0 1 .448-.518c.3-.067.606-.127.909-.184a.568.568 0 0 1 .663.679.573.573 0 0 1-.453.443c-.293.054-.586.114-.878.176a.558.558 0 0 1-.43-.077.572.572 0 0 1-.249-.358.58.58 0 0 1-.01-.161zM323.898 114.634a.572.572 0 0 1 .518-.518c.63-.054 1.267-.093 1.896-.111a.567.567 0 0 1 .587.553.571.571 0 0 1-.553.587 29.67 29.67 0 0 0-1.813.108.556.556 0 0 1-.418-.129.575.575 0 0 1-.201-.389.494.494 0 0 1-.016-.101zm4.888-.057a.569.569 0 0 1 .606-.518l.205.013c.557.042 1.124.096 1.683.166a.562.562 0 0 1 .495.635.564.564 0 0 1-.413.48.572.572 0 0 1-.222.017 29.134 29.134 0 0 0-1.624-.158l-.199-.016a.57.57 0 0 1-.518-.606l-.013-.013zm4.836.687v-.083a.573.573 0 0 1 .678-.433c.617.135 1.236.29 1.84.461a.574.574 0 0 1 .393.705.572.572 0 0 1-.704.394 29.804 29.804 0 0 0-1.772-.446.57.57 0 0 1-.435-.598zm4.662 1.414a.56.56 0 0 1 .159-.353.56.56 0 0 1 .399-.175.562.562 0 0 1 .219.038c.586.228 1.174.477 1.746.739a.575.575 0 0 1 .236.736.57.57 0 0 1-.713.3 26.95 26.95 0 0 0-1.683-.715.58.58 0 0 1-.337-.57h-.026zm4.404 2.119a.561.561 0 0 1 .302-.462.573.573 0 0 1 .552.011c.544.316 1.088.653 1.614 1.002a.58.58 0 0 1 .244.363.577.577 0 0 1-.242.587.569.569 0 0 1-.634.001 42.393 42.393 0 0 0-1.554-.966.57.57 0 0 1-.257-.536h-.025zm4.022 2.776a.571.571 0 0 1 .93-.401c.49.396.974.813 1.438 1.236a.57.57 0 0 1 .033.81.572.572 0 0 1-.81.034 31.06 31.06 0 0 0-1.389-1.194.565.565 0 0 1-.189-.485h-.013zm3.551 3.368a.58.58 0 0 1 .598-.529.565.565 0 0 1 .394.187c.423.466.837.95 1.231 1.443a.559.559 0 0 1 .124.418.572.572 0 0 1-1.013.296c-.38-.474-.777-.94-1.189-1.39a.59.59 0 0 1-.132-.433l-.013.008zm2.995 3.862a.567.567 0 0 1 .764-.485.57.57 0 0 1 .272.21c.347.518.684 1.067.997 1.611a.569.569 0 0 1-.418.852.573.573 0 0 1-.569-.279 42.21 42.21 0 0 0-.961-1.554.568.568 0 0 1-.072-.363l-.013.008zm2.37 4.271a.57.57 0 0 1 1.088-.197c.259.573.518 1.158.738 1.743a.572.572 0 0 1-.76.73.569.569 0 0 1-.302-.315 30.677 30.677 0 0 0-.715-1.684.534.534 0 0 1-.036-.285l-.013.008zm-1.865 29.907a.568.568 0 0 1 .085-.259c.319-.519.627-1.05.915-1.583a.567.567 0 0 1 .773-.232.575.575 0 0 1 .232.773c-.298.555-.62 1.106-.951 1.642a.573.573 0 0 1-.662.245.568.568 0 0 1-.392-.586zm3.551-25.325a.566.566 0 0 1 .511-.532.574.574 0 0 1 .608.418c.171.606.326 1.223.461 1.837a.568.568 0 0 1-.434.679.566.566 0 0 1-.68-.433 32.085 32.085 0 0 0-.445-1.772.565.565 0 0 1-.008-.205l-.013.008zm-1.308 20.981a.542.542 0 0 1 .041-.182 30.39 30.39 0 0 0 .661-1.707.573.573 0 0 1 1.077.381c-.21.593-.44 1.189-.686 1.769a.572.572 0 0 1-.656.332.57.57 0 0 1-.437-.591v-.002zm2.269-16.197a.57.57 0 0 1 1.134-.026c.078.625.135 1.259.174 1.889a.59.59 0 0 1-.142.413.573.573 0 0 1-.998-.344 29.058 29.058 0 0 0-.166-1.813.52.52 0 0 1 .011-.124l-.013.005zm-.725 11.56a.54.54 0 0 1 .015-.098c.148-.588.277-1.189.391-1.787a.574.574 0 0 1 .443-.454.573.573 0 0 1 .679.666 38.235 38.235 0 0 1-.407 1.852.57.57 0 0 1-1.121-.179zm.935-6.68a.58.58 0 0 1 .189-.394.559.559 0 0 1 .412-.145.557.557 0 0 1 .215.056.554.554 0 0 1 .292.325.568.568 0 0 1 .031.22c-.02.627-.062 1.262-.119 1.891a.575.575 0 0 1-.203.387.566.566 0 0 1-.417.13.575.575 0 0 1-.387-.203.566.566 0 0 1-.13-.417c.057-.609.096-1.223.117-1.827v-.023zM351.484 166.203a.569.569 0 0 1 .124-.316c.189-.234.373-.467.555-.705a.567.567 0 0 1 .812-.128.575.575 0 0 1 .222.388.576.576 0 0 1-.128.429c-.186.259-.378.492-.572.733a.575.575 0 0 1-.655.174.57.57 0 0 1-.358-.575zM329.939 177.879a.572.572 0 0 1 .518-.518c.298-.031.595-.065.891-.103a.569.569 0 0 1 .524.914.57.57 0 0 1-.379.217c-.306.042-.614.076-.922.107a.58.58 0 0 1-.421-.129.566.566 0 0 1-.204-.389.66.66 0 0 1-.007-.099zM295.116 143.445c.049-.549.114-1.106.192-1.652l.028-.2a.57.57 0 0 1 .857-.407.578.578 0 0 1 .261.351.553.553 0 0 1 .011.222l-.028.194a29.364 29.364 0 0 0-.184 1.596.569.569 0 0 1-1.003.322.57.57 0 0 1-.134-.415v-.011zm-.13 2.976a.574.574 0 0 1 .987-.369.57.57 0 0 1 .153.408c0 .599.021 1.205.057 1.8a.57.57 0 1 1-1.137.07 31.394 31.394 0 0 1-.062-1.865l.002-.044zm.917-7.718a.601.601 0 0 1 .016-.096c.148-.604.313-1.21.495-1.813a.568.568 0 0 1 .712-.379.572.572 0 0 1 .378.713c-.173.57-.334 1.155-.476 1.738a.575.575 0 0 1-.646.443.571.571 0 0 1-.479-.619v.013zm-.536 12.51a.576.576 0 0 1 .547-.522.576.576 0 0 1 .588.476c.09.59.202 1.186.329 1.769a.582.582 0 0 1-.074.434.557.557 0 0 1-.361.252.563.563 0 0 1-.433-.08.58.58 0 0 1-.246-.365 24.679 24.679 0 0 1-.345-1.834.808.808 0 0 1-.005-.13zm2.028-17.095a.62.62 0 0 1 .042-.176c.236-.573.492-1.148.761-1.705a.58.58 0 0 1 .55-.325.567.567 0 0 1 .396.191.557.557 0 0 1 .146.415.567.567 0 0 1-.056.217 24.05 24.05 0 0 0-.735 1.642.57.57 0 0 1-1.096-.259h-.008zm-.922 21.758a.57.57 0 0 1 .503-.521.575.575 0 0 1 .611.388c.181.568.381 1.138.596 1.697a.573.573 0 0 1-1.057.438 34.513 34.513 0 0 1-.616-1.759.541.541 0 0 1-.037-.225v-.018zm3.09-26.058a.594.594 0 0 1 .083-.259c.321-.531.661-1.057 1.013-1.57a.59.59 0 0 1 .16-.155.555.555 0 0 1 .207-.082.585.585 0 0 1 .427.091.576.576 0 0 1 .234.589.55.55 0 0 1-.088.205 32.006 32.006 0 0 0-.979 1.513.571.571 0 0 1-1.057-.337v.005zm-1.295 30.513a.572.572 0 0 1 .822-.472.573.573 0 0 1 .258.259c.259.537.55 1.07.845 1.588a.574.574 0 0 1-.995.575 33.535 33.535 0 0 1-.875-1.647.548.548 0 0 1-.047-.285l-.008-.018zm2.453 4.144a.57.57 0 0 1 1.036-.287c.342.489.705.976 1.075 1.445a.555.555 0 0 1 .101.198.556.556 0 0 1-.051.434.56.56 0 0 1-.343.271.572.572 0 0 1-.603-.196 33.169 33.169 0 0 1-1.114-1.497.56.56 0 0 1-.093-.36l-.008-.008zm3.046 3.72a.576.576 0 0 1 .583-.529.573.573 0 0 1 .399.176c.412.433.842.86 1.28 1.267a.574.574 0 0 1-.369.987.574.574 0 0 1-.409-.153 32.191 32.191 0 0 1-1.326-1.313.574.574 0 0 1-.15-.428l-.008-.007zm3.572 3.219a.571.571 0 0 1 .917-.409c.474.365.964.723 1.458 1.059a.57.57 0 0 1 .119.773.572.572 0 0 1-.764.17c-.518-.349-1.02-.72-1.51-1.098a.579.579 0 0 1-.212-.487l-.008-.008zm4.033 2.653a.572.572 0 0 1 .847-.459c.518.29 1.065.57 1.603.829a.57.57 0 0 1 .271.765.567.567 0 0 1-.327.294.57.57 0 0 1-.438-.023 26.61 26.61 0 0 1-1.661-.857.582.582 0 0 1-.295-.549zm4.375 2.004a.568.568 0 0 1 .767-.494 32.75 32.75 0 0 0 1.704.572.58.58 0 0 1 .337.277.566.566 0 0 1 .043.434.58.58 0 0 1-.277.337.592.592 0 0 1-.213.065.587.587 0 0 1-.221-.022 31.688 31.688 0 0 1-1.77-.594.566.566 0 0 1-.378-.575h.008zm4.624 1.316a.47.47 0 0 1 0-.075.572.572 0 0 1 .244-.362c.127-.083.281-.113.429-.083a31.25 31.25 0 0 0 1.772.31.57.57 0 0 1 .471.424.586.586 0 0 1-.062.433.587.587 0 0 1-.35.261.559.559 0 0 1-.223.012 34.355 34.355 0 0 1-1.836-.321.574.574 0 0 1-.453-.599h.008zm4.768.606a.578.578 0 0 1 .601-.518c.596.031 1.202.047 1.813.042a.574.574 0 0 1 .38.962.574.574 0 0 1-.38.18 37.38 37.38 0 0 1-1.865-.044.574.574 0 0 1-.541-.601l-.008-.021zM302.371 125.909a.595.595 0 0 1 .132-.326c.2-.238.402-.471.606-.702a.573.573 0 0 1 .806-.049.569.569 0 0 1 .049.805c-.199.223-.393.449-.585.679a.57.57 0 0 1-1.008-.407zM311.235 127.966a.378.378 0 0 0-.145.417l1.295 4.458a20.292 20.292 0 0 0-3.51 5.53l-4.577.736a.373.373 0 0 0-.313.31l-.956 5.484a.38.38 0 0 0 .192.399l4.058 2.24c.126 2.194.61 4.353 1.433 6.39l-2.72 3.761a.38.38 0 0 0 0 .441l3.202 4.553a.383.383 0 0 0 .417.148l4.457-1.295a20.265 20.265 0 0 0 5.53 3.509l.736 4.577a.384.384 0 0 0 .311.316l5.483.954a.38.38 0 0 0 .399-.19l2.241-4.058a20.233 20.233 0 0 0 6.39-1.435l3.761 2.719a.382.382 0 0 0 .443 0l4.551-3.201a.383.383 0 0 0 .147-.417l-1.295-4.458a20.191 20.191 0 0 0 3.51-5.53l4.577-.736a.374.374 0 0 0 .207-.105.378.378 0 0 0 .109-.205l.953-5.484a.38.38 0 0 0-.189-.399l-4.059-2.24a20.284 20.284 0 0 0-1.432-6.39l2.717-3.759a.38.38 0 0 0 0-.443l-3.202-4.553a.383.383 0 0 0-.417-.148l-4.457 1.295a20.345 20.345 0 0 0-5.531-3.51l-.735-4.576a.377.377 0 0 0-.311-.314l-5.483-.956a.382.382 0 0 0-.399.192l-2.241 4.059c-2.194.126-4.352.61-6.39 1.432l-3.758-2.719a.382.382 0 0 0-.443 0l-4.556 3.201z" fill="#91B3FA"/><path d="M322.184 145.963a5.392 5.392 0 0 1 5.58-4.992 5.395 5.395 0 1 1-5.58 4.992zm9.858.72a4.492 4.492 0 0 0-.939-3.085 4.487 4.487 0 0 0-6.928-.165 4.483 4.483 0 0 0 3.723 7.399 4.491 4.491 0 0 0 4.144-4.157v.008z" fill="url(#C)"/><path d="M314.019 145.478c.034-.458.091-.917.171-1.378a14.11 14.11 0 0 1 .518-2.012v-.018l.031-.086v-.07l.044-.127.016-.041c.033-.091.067-.179.103-.259l.06-.153a.226.226 0 0 1 .228-.14.17.17 0 0 1 .07.016.229.229 0 0 1 .075.048.248.248 0 0 1 .05.074.223.223 0 0 1-.001.176 13.211 13.211 0 1 0 25.128 2.094 13.207 13.207 0 0 0-10.623-10.132 13.165 13.165 0 0 0-6.998.679.222.222 0 0 1-.175-.003.233.233 0 0 1-.136-.214c0-.03.007-.06.019-.087a.219.219 0 0 1 .051-.073.219.219 0 0 1 .075-.048 13.593 13.593 0 0 1 7.242-.702 13.655 13.655 0 0 1-3.308 27.075 13.924 13.924 0 0 1-1.38-.168 13.677 13.677 0 0 1-11.26-14.451z" fill="url(#D)"/><path d="M282.362 172.031a.188.188 0 0 0-.055.204l.777 2.072a9.583 9.583 0 0 0-1.458 2.756l-2.145.518a.188.188 0 0 0-.094.057.19.19 0 0 0-.043.101l-.259 2.64a.181.181 0 0 0 .106.181l2.01.909a9.615 9.615 0 0 0 .922 2.979l-1.147 1.888a.178.178 0 0 0 0 .21l1.691 2.039c.025.029.057.05.094.06.037.01.076.008.111-.006l2.072-.777a9.615 9.615 0 0 0 2.756 1.456l.518 2.144c.009.037.029.07.057.095a.187.187 0 0 0 .101.043l2.64.246a.181.181 0 0 0 .181-.106l.909-2.01a9.59 9.59 0 0 0 2.979-.923l1.888 1.15a.183.183 0 0 0 .21-.015l2.038-1.691a.184.184 0 0 0 .061-.094.19.19 0 0 0-.006-.111l-.777-2.072a9.625 9.625 0 0 0 1.455-2.756l2.145-.518a.183.183 0 0 0 .137-.161l.259-2.637a.18.18 0 0 0-.106-.184l-2.01-.909a9.556 9.556 0 0 0-.922-2.978l1.15-1.889a.185.185 0 0 0-.015-.21l-1.692-2.038a.183.183 0 0 0-.204-.054l-2.073.777a9.543 9.543 0 0 0-2.755-1.459l-.519-2.144a.184.184 0 0 0-.16-.138l-2.637-.246a.186.186 0 0 0-.184.106l-.909 2.01a9.59 9.59 0 0 0-2.979.923l-1.888-1.148a.175.175 0 0 0-.107-.027.176.176 0 0 0-.103.04l-2.02 1.697z" fill="#91B3FA"/><path d="M288.254 179.954a2.56 2.56 0 0 1 2.581-2.381 2.556 2.556 0 1 1-2.581 2.381zm4.694.342a2.173 2.173 0 0 0-2.367-2.324 2.173 2.173 0 0 0-1.318 3.709 2.17 2.17 0 0 0 3.685-1.385z" fill="url(#E)"/><g opacity=".64" fill="#91B3FA"><path d="M283.398 167.697a.477.477 0 0 1 .259-.388c.233-.13.471-.259.71-.371a.485.485 0 0 1 .427.87 14.49 14.49 0 0 0-.666.348.484.484 0 0 1-.657-.187.46.46 0 0 1-.073-.272zM286.32 166.475a.485.485 0 0 1 .347-.43c.489-.143.985-.261 1.487-.353a.49.49 0 0 1 .462.747.487.487 0 0 1-.289.209c-.468.084-.932.193-1.388.326a.478.478 0 0 1-.369-.04.47.47 0 0 1-.232-.288c-.018-.056-.024-.114-.018-.171zm3.813-.568a.485.485 0 0 1 .476-.45c.412 0 .829 0 1.238.036l.29.026a.476.476 0 0 1 .269.842.487.487 0 0 1-.349.114l-.259-.021a13.227 13.227 0 0 0-1.158-.034.479.479 0 0 1-.489-.479.221.221 0 0 1-.018-.034zm3.836.479a.49.49 0 0 1 .241-.385.474.474 0 0 1 .367-.047c.493.131.978.289 1.454.471a.488.488 0 0 1 .291.631.494.494 0 0 1-.45.311.49.49 0 0 1-.189-.038c-.444-.17-.897-.317-1.357-.44a.478.478 0 0 1-.264-.192.479.479 0 0 1-.083-.316l-.01.005zm3.564 1.5a.483.483 0 0 1 .73-.383c.438.26.863.543 1.272.847a.476.476 0 0 1 .202.319.5.5 0 0 1-.007.193.476.476 0 0 1-.226.303.476.476 0 0 1-.375.049.49.49 0 0 1-.172-.087 14.068 14.068 0 0 0-1.188-.79.486.486 0 0 1-.226-.456l-.01.005zm3.028 2.401a.488.488 0 0 1 .834-.3c.352.368.684.753.997 1.155a.49.49 0 0 1 .099.358.482.482 0 0 1-.863.238 13.5 13.5 0 0 0-.933-1.08.495.495 0 0 1-.124-.376l-.01.005zm2.271 3.129a.486.486 0 0 1 .912-.194c.239.45.455.912.648 1.383a.473.473 0 0 1 .035.186.495.495 0 0 1-.302.446.493.493 0 0 1-.371-.002.495.495 0 0 1-.261-.265c-.179-.441-.38-.874-.604-1.295a.462.462 0 0 1-.046-.256l-.011-.003zm1.337 3.627a.483.483 0 0 1 .449-.442.488.488 0 0 1 .509.372 15.992 15.992 0 0 1 .252 1.507.49.49 0 0 1-.428.536.478.478 0 0 1-.356-.102.482.482 0 0 1-.18-.325 13.651 13.651 0 0 0-.236-1.407.524.524 0 0 1 0-.137l-.01-.002zm.161 5.322a.14.14 0 0 1 0-.041c.072-.469.124-.943.15-1.419a.48.48 0 0 1 .518-.456.477.477 0 0 1 .338.162.494.494 0 0 1 .12.356 14.884 14.884 0 0 1-.163 1.518.485.485 0 0 1-.961-.112l-.002-.008zM303.485 185.422a.506.506 0 0 1 .034-.148c.093-.23.181-.466.259-.702a.478.478 0 0 1 .246-.278.477.477 0 0 1 .534.073.498.498 0 0 1 .162.334.495.495 0 0 1-.025.187c-.086.259-.179.503-.28.752a.486.486 0 0 1-.933-.218h.003z"/></g><g opacity=".64" fill="#91B3FA"><path d="M295.442 193.364a.487.487 0 0 1 .309-.417c.233-.091.466-.187.691-.29a.482.482 0 0 1 .641.244.482.482 0 0 1-.245.641c-.24.109-.489.213-.738.309a.47.47 0 0 1-.186.032.474.474 0 0 1-.339-.15.48.48 0 0 1-.133-.369zM276.145 179.084c.041-.56.114-1.117.218-1.668a.475.475 0 0 1 .196-.329.488.488 0 0 1 .374-.084.485.485 0 0 1 .38.592 13.724 13.724 0 0 0-.199 1.554v.02a.487.487 0 0 1-.518.443.482.482 0 0 1-.448-.513v-.012l-.003-.003zm.065 2.683a.481.481 0 0 1 .471-.447.486.486 0 0 1 .493.424 14.81 14.81 0 0 0 .277 1.565.486.486 0 0 1-.943.222 15.349 15.349 0 0 1-.223-1.134c-.028-.182-.052-.36-.072-.539a.346.346 0 0 1-.006-.091h.003zm1.14 4.145a.484.484 0 0 1 .924-.163c.213.479.454.946.72 1.398a.478.478 0 0 1-.011.553.49.49 0 0 1-.328.196.493.493 0 0 1-.368-.104.486.486 0 0 1-.124-.15c-.289-.487-.548-.99-.777-1.508a.497.497 0 0 1-.039-.222h.003zm2.331 3.61a.478.478 0 0 1 .324-.422.474.474 0 0 1 .52.138c.353.395.728.77 1.122 1.124a.479.479 0 0 1 .161.334.499.499 0 0 1-.124.351.479.479 0 0 1-.334.16.48.48 0 0 1-.351-.123 15.478 15.478 0 0 1-1.199-1.204.487.487 0 0 1-.122-.358h.003zm3.305 2.749a.48.48 0 0 1 .733-.378c.453.273.922.519 1.404.738a.484.484 0 1 1-.402.883 14.252 14.252 0 0 1-1.502-.793.478.478 0 0 1-.236-.45h.003zm3.973 1.642v-.083a.487.487 0 0 1 .586-.355c.512.124 1.031.22 1.554.285a.485.485 0 0 1 .325.18.486.486 0 0 1-.442.781 13.977 13.977 0 0 1-1.673-.306.48.48 0 0 1-.352-.502h.002zm4.285.432v-.067a.484.484 0 0 1 .453-.448 13.665 13.665 0 0 0 1.575-.197.488.488 0 0 1 .173.956l-.391.065c-.43.067-.865.116-1.295.145a.492.492 0 0 1-.518-.454h.003zM277.096 174.898a.409.409 0 0 1 .033-.142c.096-.259.203-.495.314-.739a.485.485 0 0 1 .881.407c-.104.225-.202.456-.293.686a.485.485 0 0 1-.935-.212z"/></g><path d="M284.227 179.674v-.145c.043-.467.136-.928.277-1.375a.191.191 0 0 1 .199-.135.162.162 0 0 1 .044 0 .196.196 0 0 1 .127.244 6.21 6.21 0 0 0 .752 5.288 6.21 6.21 0 0 0 4.584 2.741h.132a6.194 6.194 0 0 0 6.688-5.667 6.2 6.2 0 0 0-5.667-6.688h-.135a6.172 6.172 0 0 0-3.108.591.199.199 0 0 1-.099.018.202.202 0 0 1-.114-.049.202.202 0 0 1-.061-.109.206.206 0 0 1 .017-.122.197.197 0 0 1 .088-.088 6.554 6.554 0 0 1 3.311-.627h.145a6.586 6.586 0 0 1 6.023 7.106 6.589 6.589 0 0 1-7.106 6.024l-.142-.013a6.586 6.586 0 0 1-5.958-7.025l.003.031z" fill="url(#F)"/><path d="M272.734 113.984a.232.232 0 0 1 .055-.133.233.233 0 0 1 .124-.074c.189-.039.378-.078.569-.112a.23.23 0 0 1 .226.358.229.229 0 0 1-.148.093 10.05 10.05 0 0 0-.549.109.242.242 0 0 1-.089.002.254.254 0 0 1-.084-.033.229.229 0 0 1-.104-.21zM274.412 113.728a.231.231 0 0 1 .208-.21c.38-.036.777-.055 1.147-.057a.232.232 0 0 1 .231.228.232.232 0 0 1-.066.162.232.232 0 0 1-.162.066c-.368 0-.741.02-1.109.054a.22.22 0 0 1-.092-.007.217.217 0 0 1-.081-.042.226.226 0 0 1-.086-.158l.01-.036zm2.257-.016a.225.225 0 0 1 .259-.21c.31.024.624.057.929.101l.21.031a.228.228 0 0 1 .099.408.222.222 0 0 1-.169.04l-.204-.031a12.79 12.79 0 0 0-.899-.095.232.232 0 0 1-.231-.244h.006zm2.23.35a.127.127 0 0 1 0-.039.226.226 0 0 1 .274-.168c.373.09.746.196 1.104.316a.222.222 0 0 1 .156.199.229.229 0 0 1-.299.233 13.458 13.458 0 0 0-1.067-.303.234.234 0 0 1-.127-.089.233.233 0 0 1-.041-.149zm2.142.704a.178.178 0 0 1 .018-.072.206.206 0 0 1 .05-.074.215.215 0 0 1 .074-.048.22.22 0 0 1 .174.003c.352.147.699.313 1.036.489a.233.233 0 0 1 .112.134.226.226 0 0 1-.151.286c-.028.009-.058.012-.088.009a.219.219 0 0 1-.086-.025 12.744 12.744 0 0 0-1.002-.474.224.224 0 0 1-.105-.092.224.224 0 0 1-.032-.136zm1.997 1.052a.226.226 0 0 1 .177-.206.234.234 0 0 1 .173.03c.321.204.639.425.942.655a.23.23 0 0 1 .043.32.23.23 0 0 1-.32.043 13.097 13.097 0 0 0-.912-.635.237.237 0 0 1-.08-.089.23.23 0 0 1-.023-.118zm1.797 1.362a.228.228 0 0 1 .381-.152c.283.259.56.518.821.8a.222.222 0 0 1 0 .321.236.236 0 0 1-.162.068.236.236 0 0 1-.161-.068c-.26-.259-.519-.518-.796-.777a.219.219 0 0 1-.064-.086.225.225 0 0 1-.019-.106zm1.555 1.637a.22.22 0 0 1 .049-.125.23.23 0 0 1 .246-.076.229.229 0 0 1 .111.077c.239.298.466.609.681.922a.234.234 0 0 1-.062.319.228.228 0 0 1-.316-.062c-.207-.306-.43-.607-.66-.894a.228.228 0 0 1-.052-.161h.003zm1.264 1.87a.23.23 0 0 1 .054-.134.23.23 0 0 1 .123-.074.223.223 0 0 1 .144.015c.045.02.082.054.106.098.186.331.363.676.518 1.02.013.027.02.057.021.087a.228.228 0 0 1-.132.216.23.23 0 0 1-.303-.111 9.941 9.941 0 0 0-.518-.99.213.213 0 0 1-.016-.127h.003zm-.285 13.988a.224.224 0 0 1 .033-.104c.195-.313.379-.64.547-.966a.235.235 0 0 1 .054-.071.257.257 0 0 1 .077-.044.245.245 0 0 1 .089-.011c.03.003.059.011.086.025a.233.233 0 0 1 .112.134.234.234 0 0 1-.014.174c-.171.339-.363.676-.562 1a.228.228 0 0 1-.422-.137zm1.227-11.941a.239.239 0 0 1 .151-.2.228.228 0 0 1 .292.138c.13.357.259.725.347 1.093a.217.217 0 0 1-.02.173.22.22 0 0 1-.138.106.23.23 0 0 1-.282-.16 12.84 12.84 0 0 0-.337-1.057.235.235 0 0 1-.015-.091l.002-.002zm-.202 9.931a.324.324 0 0 1 .016-.07c.14-.342.259-.692.378-1.036a.23.23 0 0 1 .366-.106.25.25 0 0 1 .055.07.226.226 0 0 1 .025.085.24.24 0 0 1-.011.088c-.114.365-.259.728-.391 1.08a.228.228 0 0 1-.438-.104v-.007zm.798-7.758a.229.229 0 0 1 .372-.169.226.226 0 0 1 .081.143c.07.376.125.756.164 1.137a.217.217 0 0 1-.007.091.223.223 0 0 1-.11.139.229.229 0 0 1-.337-.183 13.754 13.754 0 0 0-.16-1.098.366.366 0 0 1-.005-.057l.002-.003zm-.116 5.608a.115.115 0 0 1 0-.037c.08-.357.15-.725.202-1.09a.221.221 0 0 1 .089-.151.238.238 0 0 1 .08-.039.228.228 0 0 1 .239.086.237.237 0 0 1 .045.169c-.057.378-.127.756-.21 1.126a.227.227 0 0 1-.256.183.23.23 0 0 1-.195-.247h.006zm.347-3.368c0-.06.024-.118.066-.161a.232.232 0 0 1 .323 0 .228.228 0 0 1 .067.161c0 .381 0 .778-.026 1.148a.229.229 0 0 1-.456-.031c.023-.368.031-.741.023-1.109l.003-.008zM286.374 136.076a.228.228 0 0 1 .052-.127c.117-.145.231-.293.342-.443a.223.223 0 0 1 .15-.09.223.223 0 0 1 .17.042c.024.018.044.04.06.066a.248.248 0 0 1 .03.084c.004.03.003.06-.004.089a.262.262 0 0 1-.038.081c-.117.155-.234.308-.355.458a.233.233 0 0 1-.321.034.232.232 0 0 1-.086-.194zM276.865 141.153a.231.231 0 0 1 .207-.213c.187-.015.373-.036.557-.059a.223.223 0 0 1 .089.006.223.223 0 0 1 .168.191.224.224 0 0 1-.046.169.234.234 0 0 1-.151.087c-.192.023-.383.044-.578.062a.205.205 0 0 1-.092-.006.226.226 0 0 1-.167-.201.092.092 0 0 1 .013-.036zM261.925 126.479c.018-.225.036-.437.062-.658a.23.23 0 0 1 .345-.174.234.234 0 0 1 .109.141c.007.029.009.06.005.09-.024.213-.052.433-.06.638 0 .152-.018.303-.023.453a.234.234 0 0 1-.239.22.236.236 0 0 1-.086-.021.236.236 0 0 1-.118-.129.22.22 0 0 1-.013-.088 3.37 3.37 0 0 1 .018-.472zm-.021 1.57a.228.228 0 1 1 .456 0c.016.36.047.728.091 1.088.004.03.001.06-.007.089a.209.209 0 0 1-.039.079.232.232 0 0 1-.241.081.24.24 0 0 1-.08-.04.236.236 0 0 1-.086-.152 13.695 13.695 0 0 1-.094-1.127v-.018zm.259-3.316a.131.131 0 0 1 0-.028c.073-.368.161-.736.259-1.098a.225.225 0 0 1 .109-.138.225.225 0 0 1 .174-.02.211.211 0 0 1 .079.04.236.236 0 0 1 .058.068.227.227 0 0 1 .018.174c-.098.35-.184.707-.259 1.062a.228.228 0 0 1-.443-.07l.005.01zm.018 5.518a.236.236 0 0 1 .182-.208.227.227 0 0 1 .259.179c.075.352.166.71.259 1.057a.23.23 0 0 1-.154.284.23.23 0 0 1-.284-.155c-.106-.36-.197-.727-.275-1.093a.277.277 0 0 1 .011-.064h.002zm.591-7.654a.167.167 0 0 1 0-.063c.132-.352.28-.702.44-1.036a.23.23 0 0 1 .299-.099.227.227 0 0 1 .113.294c-.153.326-.298.665-.425 1.007a.226.226 0 0 1-.396.055.228.228 0 0 1-.044-.153l.013-.005zm.039 9.783a.222.222 0 0 1 .145-.197.24.24 0 0 1 .088-.016.234.234 0 0 1 .159.07.24.24 0 0 1 .048.075c.13.34.275.676.433 1.003a.234.234 0 0 1 .023.086.24.24 0 0 1-.058.166.232.232 0 0 1-.322.019.218.218 0 0 1-.052-.072 14.294 14.294 0 0 1-.451-1.036.252.252 0 0 1-.016-.098h.003zm.901-11.801a.231.231 0 0 1 .029-.099c.186-.323.388-.645.603-.955a.227.227 0 0 1 .316-.06c.05.035.084.087.096.147a.233.233 0 0 1-.036.172 13.04 13.04 0 0 0-.583.924.252.252 0 0 1-.058.068.238.238 0 0 1-.08.039.234.234 0 0 1-.261-.113.221.221 0 0 1-.026-.123zm.055 13.79a.224.224 0 0 1 .114-.181.222.222 0 0 1 .31.083c.184.31.381.621.591.919a.231.231 0 0 1 .038.171.223.223 0 0 1-.033.083.214.214 0 0 1-.062.065.235.235 0 0 1-.171.037.234.234 0 0 1-.148-.094c-.215-.308-.419-.63-.608-.951a.244.244 0 0 1-.029-.122l-.002-.01zm1.271 1.813a.243.243 0 0 1 .083-.158.231.231 0 0 1 .253-.025.246.246 0 0 1 .069.056c.23.28.474.552.727.814a.206.206 0 0 1 .05.074.219.219 0 0 1 0 .175.206.206 0 0 1-.05.074.219.219 0 0 1-.247.05.206.206 0 0 1-.074-.05 11.88 11.88 0 0 1-.754-.841.231.231 0 0 1-.054-.153l-.003-.016zm1.555 1.596a.218.218 0 0 1 .054-.135.232.232 0 0 1 .324-.021c.259.239.557.472.849.687a.225.225 0 0 1 .13.247.234.234 0 0 1-.038.092.227.227 0 0 1-.169.095.223.223 0 0 1-.182-.069 12.758 12.758 0 0 1-.88-.71.227.227 0 0 1-.094-.171l.006-.015zm1.782 1.323a.223.223 0 0 1 .175-.204.226.226 0 0 1 .172.028c.308.192.629.376.95.542a.222.222 0 0 1 .122.222.22.22 0 0 1-.026.086.215.215 0 0 1-.133.111.217.217 0 0 1-.172-.015 12.68 12.68 0 0 1-.982-.56.217.217 0 0 1-.079-.083.215.215 0 0 1-.027-.111v-.016zm1.971 1.021a.237.237 0 0 1 .067-.147.228.228 0 0 1 .249-.047c.334.139.678.259 1.036.38a.22.22 0 0 1 .145.111.227.227 0 0 1-.285.322c-.357-.117-.715-.259-1.059-.391a.226.226 0 0 1-.158-.213l.005-.015zm2.111.686a.216.216 0 0 1 0-.036.227.227 0 0 1 .274-.168c.353.083.715.155 1.073.209a.23.23 0 0 1 .159.343.221.221 0 0 1-.141.102.237.237 0 0 1-.088.004c-.371-.057-.744-.13-1.109-.218a.224.224 0 0 1-.124-.08.223.223 0 0 1-.049-.14l.005-.016zm2.194.342a.234.234 0 0 1 .077-.157.237.237 0 0 1 .166-.055h.042c.347.026.702.036 1.051.036a.228.228 0 1 1 0 .456c-.362 0-.728 0-1.088-.036h-.049a.23.23 0 0 1-.146-.075.223.223 0 0 1-.058-.153l.005-.016zM264.982 118.748a.209.209 0 0 1 .049-.127c.124-.151.259-.298.375-.443a.231.231 0 0 1 .324-.018c.045.04.072.096.076.156a.23.23 0 0 1-.058.165c-.124.14-.246.282-.362.427a.228.228 0 0 1-.404-.16zM268.913 119.504a.166.166 0 0 0-.059.081.163.163 0 0 0-.003.1l.56 1.93a8.7 8.7 0 0 0-1.521 2.396l-1.984.318a.173.173 0 0 0-.09.046.161.161 0 0 0-.047.089l-.414 2.375a.164.164 0 0 0 .014.1.174.174 0 0 0 .068.074l1.759.971a8.84 8.84 0 0 0 .622 2.769l-1.179 1.629a.175.175 0 0 0-.03.096c0 .034.011.068.03.096l1.389 1.974a.16.16 0 0 0 .178.062l1.933-.557a8.8 8.8 0 0 0 2.396 1.521l.318 1.984a.17.17 0 0 0 .135.137l2.378.412a.164.164 0 0 0 .173-.083l.972-1.759a8.715 8.715 0 0 0 2.766-.619l1.632 1.176c.028.02.061.03.096.03.034 0 .067-.01.095-.03l1.972-1.388a.166.166 0 0 0 .064-.182l-.557-1.929a8.776 8.776 0 0 0 1.521-2.396l1.984-.321a.166.166 0 0 0 .135-.135l.414-2.375a.168.168 0 0 0-.013-.101.16.16 0 0 0-.07-.073l-1.759-.971a8.702 8.702 0 0 0-.621-2.769l1.178-1.629a.16.16 0 0 0 .031-.096.157.157 0 0 0-.031-.096l-1.385-1.971a.16.16 0 0 0-.081-.062.159.159 0 0 0-.101-.003l-1.932.557a8.714 8.714 0 0 0-2.396-1.521l-.319-1.984a.158.158 0 0 0-.134-.134l-2.376-.415a.165.165 0 0 0-.1.013.165.165 0 0 0-.073.07l-.971 1.759a8.696 8.696 0 0 0-2.769.621l-1.63-1.178a.162.162 0 0 0-.095-.03.163.163 0 0 0-.096.03l-1.977 1.391z" fill="#91B3FA"/><path d="M273.627 127.313a2.375 2.375 0 0 1 2.187-2.191 2.363 2.363 0 0 1 1.767.536 2.377 2.377 0 0 1 .846 1.643 2.363 2.363 0 0 1-2.259 2.545 2.373 2.373 0 0 1-2.541-2.533zm4.274.308a1.883 1.883 0 0 0-.198-.999 1.914 1.914 0 1 0-3.011 2.266 1.915 1.915 0 0 0 3.212-1.261l-.003-.006z" fill="url(#G)"/><path d="M269.991 127.09c.016-.207.041-.411.075-.616.016-.083.031-.166.049-.246a6.26 6.26 0 0 1 .259-.839.14.14 0 0 1 0-.029l.026-.07.024-.054a.226.226 0 0 1 .09-.11.23.23 0 0 1 .316.074.224.224 0 0 1 .016.207 5.638 5.638 0 0 0-.174 3.725c.173.569.436 1.108.777 1.595a5.54 5.54 0 0 0 3.614 2.292 5.589 5.589 0 0 0 6.493-4.834 5.59 5.59 0 0 0-5.139-6.252 5.572 5.572 0 0 0-2.398.358.257.257 0 0 1-.099.015.227.227 0 0 1-.207-.195.23.23 0 0 1 .14-.248 6.037 6.037 0 0 1 3.199-.31 6.047 6.047 0 1 1-2.075 11.915 6.05 6.05 0 0 1-4.996-6.378h.01z" fill="url(#H)"/><path d="M350.505 178.18a.582.582 0 0 1 .451-.518c.3-.065.611-.125.917-.179a.576.576 0 0 1 .66.466.577.577 0 0 1-.096.426.554.554 0 0 1-.37.232c-.29.052-.583.109-.87.171a.58.58 0 0 1-.494-.128.569.569 0 0 1-.198-.47zM354.331 177.708a.57.57 0 0 1 .551-.518c.617-.02 1.241 0 1.86.021a.58.58 0 0 1 .394.189.566.566 0 0 1-.236.919.566.566 0 0 1-.22.032 21.182 21.182 0 0 0-1.764-.021.573.573 0 0 1-.585-.622zm4.732.381a.749.749 0 0 1 0-.067.576.576 0 0 1 .445-.452.558.558 0 0 1 .223-.001 21.79 21.79 0 0 1 1.813.43.56.56 0 0 1 .343.27.575.575 0 0 1-.05.632.578.578 0 0 1-.381.213.572.572 0 0 1-.222-.017 21.558 21.558 0 0 0-1.718-.407.57.57 0 0 1-.453-.609v.008zm4.533 1.412a.574.574 0 0 1 .583-.529.56.56 0 0 1 .217.05c.565.259 1.127.518 1.668.821a.574.574 0 0 1 .283.339.57.57 0 0 1-.829.661 19.503 19.503 0 0 0-1.583-.777.573.573 0 0 1-.339-.565zm4.105 2.391a.565.565 0 0 1 .487-.523.568.568 0 0 1 .422.106c.495.37.982.764 1.443 1.173a.583.583 0 0 1 .192.393.59.59 0 0 1-.03.22.587.587 0 0 1-.29.327.572.572 0 0 1-.628-.085 20.472 20.472 0 0 0-1.368-1.111.58.58 0 0 1-.228-.5zm3.469 3.243a.556.556 0 0 1 .199-.392.572.572 0 0 1 .629-.075.568.568 0 0 1 .174.138c.401.468.777.961 1.15 1.463a.574.574 0 0 1-.131.797.57.57 0 0 1-.796-.131c-.342-.477-.71-.943-1.088-1.389a.55.55 0 0 1-.137-.411zm2.667 3.929a.568.568 0 0 1 1.073-.225c.29.546.557 1.111.798 1.681a.562.562 0 0 1 .002.436.567.567 0 0 1-.743.313.561.561 0 0 1-.311-.306 21.246 21.246 0 0 0-.754-1.593.562.562 0 0 1-.065-.306zm-.116 20.02a.582.582 0 0 1 .067-.231c.28-.518.539-1.036.777-1.585a.56.56 0 0 1 .306-.355.575.575 0 0 1 .664.135.562.562 0 0 1 .143.446.557.557 0 0 1-.077.227 26.373 26.373 0 0 1-.813 1.673.568.568 0 0 1-.66.273.57.57 0 0 1-.412-.583h.005zm1.847-15.601a.571.571 0 0 1 1.119-.106c.16.598.295 1.209.404 1.813a.574.574 0 0 1-.463.662.57.57 0 0 1-.661-.463 20.699 20.699 0 0 0-.381-1.72.506.506 0 0 1-.018-.186zm-.07 11.197a.57.57 0 0 1 .021-.114c.155-.564.29-1.142.398-1.717a.572.572 0 0 1 1.032-.217.56.56 0 0 1 .09.427 22.906 22.906 0 0 1-.422 1.813.571.571 0 0 1-1.001.204.566.566 0 0 1-.118-.396zm.777-6.504a.566.566 0 0 1 .578-.522.567.567 0 0 1 .559.543c.023.616.018 1.243 0 1.862a.568.568 0 0 1-.605.535.573.573 0 0 1-.535-.605 15.97 15.97 0 0 0 0-1.764l-.002-.049h.005zM371.576 212.301a.563.563 0 0 1 .125-.316c.186-.228.367-.467.544-.702a.56.56 0 0 1 .374-.225.57.57 0 0 1 .542.903c-.183.259-.378.5-.572.741a.575.575 0 0 1-.655.174.572.572 0 0 1-.358-.575zM356.854 220.144a.57.57 0 0 1 .518-.518c.295-.026.593-.057.883-.096a.57.57 0 1 1 .147 1.132c-.308.039-.621.075-.932.101a.576.576 0 0 1-.616-.518.427.427 0 0 1 0-.101zM333.811 197.469c.018-.241.039-.492.067-.741a.568.568 0 0 1 .997-.303.574.574 0 0 1 .138.404v.018c-.026.234-.047.467-.062.697-.026.339-.042.687-.049 1.036a.573.573 0 0 1-.583.557.568.568 0 0 1-.557-.583c.008-.36.023-.725.049-1.085zm.56-3.574a.506.506 0 0 1 .015-.096c.145-.591.316-1.184.518-1.759a.572.572 0 0 1 1.083.363 20.27 20.27 0 0 0-.482 1.668.574.574 0 0 1-.641.415.569.569 0 0 1-.354-.204.569.569 0 0 1-.129-.387h-.01zm-.464 7.524a.568.568 0 0 1 .558-.518.573.573 0 0 1 .579.495c.065.57.158 1.147.272 1.712a.57.57 0 1 1-1.119.225 21.786 21.786 0 0 1-.287-1.813.566.566 0 0 1-.003-.101zm2.072-11.915a.602.602 0 0 1 .057-.215c.259-.544.567-1.083.883-1.603a.57.57 0 0 1 .977.59 20.65 20.65 0 0 0-.837 1.521.566.566 0 0 1-.661.299.57.57 0 0 1-.419-.592zm-1.036 16.466a.568.568 0 0 1 .866-.444.565.565 0 0 1 .24.296c.189.544.407 1.086.642 1.612a.567.567 0 0 1-.493.843.56.56 0 0 1-.421-.178.575.575 0 0 1-.122-.199 18.436 18.436 0 0 1-.678-1.702.537.537 0 0 1-.034-.228zm2.018 4.212a.569.569 0 0 1 1.051-.259c.306.489.635.971.98 1.432a.575.575 0 0 1-.546.879.571.571 0 0 1-.371-.198c-.363-.487-.71-.994-1.037-1.512a.592.592 0 0 1-.075-.342h-.002zm2.885 3.675a.577.577 0 0 1 .373-.493.567.567 0 0 1 .604.133c.404.412.831.811 1.266 1.189a.573.573 0 0 1 .059.804.573.573 0 0 1-.805.059 23.185 23.185 0 0 1-1.334-1.251.585.585 0 0 1-.16-.441h-.003zm3.627 2.956a.582.582 0 0 1 .09-.259.57.57 0 0 1 .777-.169c.482.314.985.612 1.495.884a.57.57 0 0 1 .276.337c.022.072.029.147.022.222a.587.587 0 0 1-.206.384.568.568 0 0 1-.631.062 22.245 22.245 0 0 1-1.577-.93.577.577 0 0 1-.252-.531h.006zm4.18 2.093a.572.572 0 0 1 .767-.495c.539.199 1.096.378 1.652.518a.579.579 0 0 1 .345.268.565.565 0 0 1 .054.434.574.574 0 0 1-.702.399 22.684 22.684 0 0 1-1.743-.562.573.573 0 0 1-.378-.562h.005zm4.536 1.124v-.037a.57.57 0 0 1 .642-.489c.433.06.87.106 1.295.135l.427.028a.57.57 0 0 1 .542.596.575.575 0 0 1-.599.518c-.15 0-.3-.016-.45-.026-.456-.034-.917-.08-1.373-.142a.571.571 0 0 1-.49-.57l.006-.013zM338.51 185.562a.55.55 0 0 1 .127-.319c.197-.243.401-.481.606-.715a.58.58 0 0 1 .393-.19.565.565 0 0 1 .412.144c.056.05.102.11.135.177a.58.58 0 0 1-.088.628c-.194.218-.386.446-.572.676a.572.572 0 0 1-1.013-.401zM344.822 186.72a.255.255 0 0 0-.093.124.257.257 0 0 0-.006.155l.863 2.984a13.51 13.51 0 0 0-2.349 3.702l-3.065.492a.25.25 0 0 0-.137.072.25.25 0 0 0-.072.138l-.64 3.667a.255.255 0 0 0 .127.259l2.717 1.503a13.55 13.55 0 0 0 .958 4.276l-1.813 2.518a.258.258 0 0 0 0 .295l2.142 3.046a.257.257 0 0 0 .125.093c.05.018.104.02.155.006l2.984-.86a13.591 13.591 0 0 0 3.701 2.349l.492 3.064a.257.257 0 0 0 .21.21l3.671.64a.264.264 0 0 0 .149-.025.265.265 0 0 0 .11-.105l1.499-2.714a13.554 13.554 0 0 0 4.277-.961l2.517 1.813a.262.262 0 0 0 .296 0l3.048-2.142a.26.26 0 0 0 .099-.28l-.863-2.984a13.498 13.498 0 0 0 2.35-3.699l3.064-.494a.259.259 0 0 0 .21-.208l.639-3.67a.258.258 0 0 0-.126-.259l-2.718-1.5a13.495 13.495 0 0 0-.958-4.276l1.813-2.518a.258.258 0 0 0 0-.298l-2.145-3.046a.256.256 0 0 0-.279-.098l-2.984.86a13.503 13.503 0 0 0-3.699-2.347l-.495-3.064a.26.26 0 0 0-.207-.213l-3.67-.639a.26.26 0 0 0-.259.129l-1.5 2.717a13.518 13.518 0 0 0-4.276.959l-2.518-1.813a.253.253 0 0 0-.295 0l-3.049 2.142z" fill="#91B3FA"/><path d="M351.779 198.733a4.025 4.025 0 0 1 4.16-3.723 4.02 4.02 0 0 1 2.748 6.811 4.022 4.022 0 0 1-6.908-3.088zm6.6.487c.01-.129.01-.259 0-.389a2.606 2.606 0 0 0-.261-1.002 2.611 2.611 0 0 0-1.526-1.34 2.62 2.62 0 0 0-2.026.151 2.622 2.622 0 0 0-1.419 2.583 2.623 2.623 0 0 0 5.232 0v-.003z" fill="url(#I)"/><path d="M346.612 198.435a9.372 9.372 0 0 1 .653-2.815.228.228 0 0 1 .227-.143l.07.016a.217.217 0 0 1 .124.123.215.215 0 0 1 .018.087c0 .03-.006.06-.017.088a8.82 8.82 0 0 0-.518 1.795 8.753 8.753 0 0 0 .62 5.047 8.752 8.752 0 0 0 3.32 3.853 8.751 8.751 0 0 0 9.73-.234 8.752 8.752 0 0 0 3.508-9.079 8.758 8.758 0 0 0-11.69-6.265.22.22 0 0 1-.237-.045.222.222 0 0 1-.07-.134.23.23 0 0 1 .144-.246 9.216 9.216 0 0 1 4.885-.474 9.219 9.219 0 0 1 7.584 10.2 9.213 9.213 0 0 1-9.816 8.074 9.233 9.233 0 0 1-8.535-9.848z" fill="url(#J)"/><defs><linearGradient id="s" x1="212.234" y1="213.362" x2="219.497" y2="272.142" gradientUnits="userSpaceOnUse"><stop stop-color="#4042E2"/><stop offset="1" stop-color="#4F52FF"/></linearGradient><linearGradient id="a" x1="8.947" y1="229.818" x2="434.355" y2="229.818" gradientUnits="userSpaceOnUse"><stop stop-color="#DAE3FE"/><stop offset="1" stop-color="#E9EFFD"/></linearGradient><linearGradient id="c" x1="331.99" y1="188.033" x2="220.86" y2="263.416" gradientUnits="userSpaceOnUse"><stop stop-color="#E1473D"/><stop offset="1" stop-color="#E9605A"/></linearGradient><linearGradient id="d" x1="314.708" y1="364.229" x2="244.765" y2="444.274" gradientUnits="userSpaceOnUse"><stop stop-color="#E1473D"/><stop offset="1" stop-color="#E9605A"/></linearGradient><linearGradient id="e" x1="231.555" y1="255.466" x2="153.849" y2="343.533" gradientUnits="userSpaceOnUse"><stop stop-color="#FC9D8A"/><stop offset="1" stop-color="#FC9D8A"/></linearGradient><linearGradient id="f" x1="227.359" y1="451.687" x2="278.65" y2="391.848" gradientUnits="userSpaceOnUse"><stop stop-color="#FE7062"/><stop offset="1" stop-color="#FF928E"/></linearGradient><linearGradient id="g" x1="92.652" y1="473.642" x2="269.965" y2="160.737" gradientUnits="userSpaceOnUse"><stop stop-color="#09005D"/><stop offset="1" stop-color="#1A0F91"/></linearGradient><linearGradient id="h" x1="250.179" y1="109.767" x2="196.302" y2="190.582" gradientUnits="userSpaceOnUse"><stop stop-color="#FF928E"/><stop offset="1" stop-color="#FEB3B1"/></linearGradient><linearGradient id="i" x1="199.125" y1="88.357" x2="173.223" y2="139.125" gradientUnits="userSpaceOnUse"><stop stop-color="#FF928E"/><stop offset="1" stop-color="#FEB3B1"/></linearGradient><linearGradient id="j" x1="241.379" y1="109.912" x2="215.477" y2="160.68" gradientUnits="userSpaceOnUse"><stop stop-color="#FF928E"/><stop offset="1" stop-color="#FEB3B1"/></linearGradient><linearGradient id="k" x1="218.407" y1="98.194" x2="192.505" y2="148.962" gradientUnits="userSpaceOnUse"><stop stop-color="#FF928E"/><stop offset="1" stop-color="#FEB3B1"/></linearGradient><linearGradient id="l" x1="246.94" y1="78.421" x2="160.624" y2="177.156" gradientUnits="userSpaceOnUse"><stop stop-color="#A22B25"/><stop offset="1" stop-color="#C0423C"/></linearGradient><linearGradient id="m" x1="220.513" y1="328.414" x2="138.914" y2="399.912" gradientUnits="userSpaceOnUse"><stop stop-color="#FF928E"/><stop offset="1" stop-color="#FEB3B1"/></linearGradient><linearGradient id="n" x1="197.561" y1="302.219" x2="115.962" y2="373.717" gradientUnits="userSpaceOnUse"><stop stop-color="#FF928E"/><stop offset="1" stop-color="#FEB3B1"/></linearGradient><linearGradient id="o" x1="326.165" y1="186.015" x2="276.428" y2="241.192" gradientUnits="userSpaceOnUse"><stop stop-color="#09005D"/><stop offset="1" stop-color="#1A0F91"/></linearGradient><linearGradient id="p" x1="198.612" y1="184.805" x2="154.198" y2="278.278" gradientUnits="userSpaceOnUse"><stop stop-color="#4042E2"/><stop offset="1" stop-color="#4F52FF"/></linearGradient><linearGradient id="q" x1="217.767" y1="176.587" x2="191.933" y2="300.248" gradientUnits="userSpaceOnUse"><stop stop-color="#4042E2"/><stop offset="1" stop-color="#4F52FF"/></linearGradient><linearGradient id="r" x1="173.428" y1="211.663" x2="127.757" y2="249.012" gradientUnits="userSpaceOnUse"><stop stop-color="#4042E2"/><stop offset="1" stop-color="#4F52FF"/></linearGradient><linearGradient id="b" x1="64.675" y1="235.3" x2="424.468" y2="235.3" gradientUnits="userSpaceOnUse"><stop stop-color="#30ABBA"/><stop offset="1" stop-color="#6165D7"/></linearGradient><linearGradient id="t" x1="188.179" y1="274.243" x2="182.999" y2="313.614" gradientUnits="userSpaceOnUse"><stop stop-color="#FF928E"/><stop offset="1" stop-color="#FEB3B1"/></linearGradient><linearGradient id="u" x1="220.653" y1="163.356" x2="179.463" y2="230.189" gradientUnits="userSpaceOnUse"><stop stop-color="#09005D"/><stop offset="1" stop-color="#1A0F91"/></linearGradient><linearGradient id="v" x1="251.308" y1="182.246" x2="210.118" y2="249.082" gradientUnits="userSpaceOnUse"><stop stop-color="#09005D"/><stop offset="1" stop-color="#1A0F91"/></linearGradient><linearGradient id="w" x1="188.697" y1="274.31" x2="183.517" y2="313.681" gradientUnits="userSpaceOnUse"><stop stop-color="#FF928E"/><stop offset="1" stop-color="#FEB3B1"/></linearGradient><linearGradient id="x" x1="172.05" y1="272.122" x2="166.87" y2="311.493" gradientUnits="userSpaceOnUse"><stop stop-color="#FF928E"/><stop offset="1" stop-color="#FEB3B1"/></linearGradient><linearGradient id="y" x1="264.167" y1="42.452" x2="215.742" y2="99.982" gradientUnits="userSpaceOnUse"><stop stop-color="#010648"/><stop offset="1" stop-color="#010648"/></linearGradient><linearGradient id="z" x1="261.542" y1="30.36" x2="200.222" y2="127.212" gradientUnits="userSpaceOnUse"><stop stop-color="#09005D"/><stop offset="1" stop-color="#1A0F91"/></linearGradient><linearGradient id="A" x1="244.195" y1="25.127" x2="208.788" y2="121" gradientUnits="userSpaceOnUse"><stop stop-color="#6165D7"/><stop offset="1" stop-color="#010648"/></linearGradient><linearGradient id="B" x1="231.682" y1="95.912" x2="259.138" y2="162.74" gradientUnits="userSpaceOnUse"><stop stop-color="#09005D"/><stop offset="1" stop-color="#1A0F91"/></linearGradient><linearGradient id="C" x1="322.171" y1="146.354" x2="332.967" y2="146.354" gradientUnits="userSpaceOnUse"><stop stop-color="#DAE3FE"/><stop offset="1" stop-color="#E9EFFD"/></linearGradient><linearGradient id="D" x1="313.985" y1="146.444" x2="341.304" y2="146.444" gradientUnits="userSpaceOnUse"><stop stop-color="#DAE3FE"/><stop offset="1" stop-color="#E9EFFD"/></linearGradient><linearGradient id="E" x1="288.249" y1="180.141" x2="293.342" y2="180.141" gradientUnits="userSpaceOnUse"><stop stop-color="#DAE3FE"/><stop offset="1" stop-color="#E9EFFD"/></linearGradient><linearGradient id="F" x1="284.209" y1="180.141" x2="297.382" y2="180.141" gradientUnits="userSpaceOnUse"><stop stop-color="#DAE3FE"/><stop offset="1" stop-color="#E9EFFD"/></linearGradient><linearGradient id="G" x1="273.622" y1="127.471" x2="278.362" y2="127.471" gradientUnits="userSpaceOnUse"><stop stop-color="#DAE3FE"/><stop offset="1" stop-color="#E9EFFD"/></linearGradient><linearGradient id="H" x1="269.975" y1="127.51" x2="282.074" y2="127.51" gradientUnits="userSpaceOnUse"><stop stop-color="#DAE3FE"/><stop offset="1" stop-color="#E9EFFD"/></linearGradient><linearGradient id="I" x1="351.764" y1="199.028" x2="359.747" y2="199.028" gradientUnits="userSpaceOnUse"><stop stop-color="#DAE3FE"/><stop offset="1" stop-color="#E9EFFD"/></linearGradient><linearGradient id="J" x1="346.589" y1="199.088" x2="365.023" y2="199.088" gradientUnits="userSpaceOnUse"><stop stop-color="#DAE3FE"/><stop offset="1" stop-color="#E9EFFD"/></linearGradient></defs></svg>