<svg width="55mm" height="60mm" viewBox="0 0 55 60" xmlns="http://www.w3.org/2000/svg"><defs><linearGradient id="b" x1="181" y1="36.5" x2="322.03" y2="37.41" gradientUnits="userSpaceOnUse" gradientTransform="matrix(.26428 0 0 .26372 -41.712 0)"><stop stop-color="#30ABBA"/><stop offset="1" stop-color="#6165D7"/></linearGradient><linearGradient id="a" x1="211.538" y1="98.032" x2="218.455" y2="63.752" gradientUnits="userSpaceOnUse" gradientTransform="matrix(.26428 0 0 .26372 -41.712 0)"><stop stop-color="#30ABBA"/><stop offset="1" stop-color="#6165D7"/></linearGradient></defs><path d="M7.989 12.103 4.995 19.94S7.85 32.495 21.811 36.507c13.962 4.012 19.564-2.83 19.564-2.83l3.54-11.49z" fill="url(#a)" style="fill:url(#a);stroke-width:.263997"/><path d="M30.758.175a1.862 1.862 0 0 0-1.261-.114L1.4 7.347c-1.447.375-1.89 2.208-.772 3.2C6.08 15.378 18.462 26.63 23.11 33.115a1.868 1.868 0 0 0 2.2.648l28.501-11.148c1.289-.506 1.601-2.183.578-3.115C48.994 14.591 35.26 2.293 30.758.175z" fill="url(#b)" style="fill:url(#b);stroke-width:.263997"/><path d="M28.62 14.458s14.724 9.66 15.819 11.824c1.095 2.164-1.377 11.862-1.377 11.862 2.19 8.288 2.366 17.247-1.683 21.856 0 0-4.68-10.933-2.41-15.462 2.272-4.528 3.146-6.385 3.146-6.385s2.106-10.348 1.53-11.844c0 0-16.3-11.281-15.024-11.851z" fill="#6165d7" style="stroke-width:.263997"/><path d="m5.13 9.987 14.034 14.354 3.507 3.59.877.896.438.446a2.656 2.656 0 0 0 2.696.65l9.587-3.002a.155.155 0 0 1 .095.295L26.8 30.295a3.069 3.069 0 0 1-3.111-.727l-.445-.446-.884-.89-3.538-3.56-14.15-14.236a.32.32 0 0 1 .456-.45zM41.896 43.15c-.033.032-.085.097-.13.144l-.13.169c-.085.114-.164.24-.247.36l-.22.384c-.068.13-.126.267-.194.4a4.136 4.136 0 0 0-.173.412c-.053.14-.11.278-.16.42l-.13.43a4.263 4.263 0 0 0-.12.435l-.097.442a4.447 4.447 0 0 0-.084.444c-.043.3-.089.599-.127.9l-.062.909c-.005.076-.013.151-.014.228v.685c-.018.61.054 1.218.09 1.828.008.152.03.304.051.456l.062.454c.043.304.08.608.127.91.124.6.234 1.204.368 1.803l.465 1.784v.006a.113.113 0 0 1-.011.084.114.114 0 0 1-.067.051.11.11 0 0 1-.084-.01.11.11 0 0 1-.053-.066l-.514-1.782c-.152-.6-.282-1.206-.423-1.81-.057-.304-.103-.611-.156-.917l-.076-.46a5.015 5.015 0 0 1-.064-.461c-.056-.62-.145-1.237-.146-1.861l-.015-.468-.007-.234c0-.078.006-.156.008-.234l.037-.937c.03-.312.07-.624.104-.936.014-.157.05-.31.078-.464l.089-.464c.03-.155.067-.308.112-.46l.125-.457c.047-.151.105-.3.156-.45.05-.151.108-.3.173-.445.066-.145.127-.295.198-.437l.227-.427c.089-.136.17-.276.265-.41.097-.143.205-.279.323-.405a.322.322 0 0 1 .54.216.32.32 0 0 1-.075.225l-.013.012z" fill="#91b3fa" style="stroke-width:.263997"/><path d="M42.285 46.985a.41.41 0 0 1 0 .088l-.004.161-.007.325-.008.654-.01 1.31-.006 2.625v5.249a.175.175 0 0 1-.35.005l-.148-5.248-.066-2.625-.027-1.314-.01-.658-.003-.332v-.169c0-.073.008-.16.018-.24a.301.301 0 0 1 .303-.268.304.304 0 0 1 .3.273z" fill="#91b3fa" style="stroke-width:.263997"/></svg>