<svg width="480" height="480" fill="none" xmlns="http://www.w3.org/2000/svg"><g clip-path="url(#a)"><path d="M222.952 32.821C112.248 29.463 16.351 112.065 1.866 220.456c-15.84 118.51 71.343 225.14 178.618 242.218 133.434 21.244 262.857-101.649 251.237-234.965-8.755-100.448-96.233-191.47-208.769-194.888z" fill="#F4F7FA"/><path d="M257.181 305.981c-6.494-18.76-13.258-47.451-6.397-79.536 7.876-36.845 26.515-44.49 42.725-83.999 25.997-63.37 5.019-109.442 19.886-114.05 15.474-4.797 54.471 40.074 54.209 88.721-.24 45.052-34.061 76.748-37.396 79.786-25.755 23.441-46.278 18.869-62.545 41.007-15.633 21.277-13.933 48.985-10.482 68.071z" fill="#FAC0B5"/><mask id="b" style="mask-type:luminance" maskUnits="userSpaceOnUse" x="247" y="28" width="121" height="278"><path d="M257.181 305.981c-6.494-18.76-13.258-47.451-6.397-79.536 7.876-36.845 26.515-44.49 42.725-83.999 25.997-63.37 5.019-109.442 19.886-114.05 15.474-4.797 54.471 40.074 54.209 88.721-.24 45.052-34.061 76.748-37.396 79.786-25.755 23.441-46.278 18.869-62.545 41.007-15.633 21.277-13.933 48.985-10.482 68.071z" fill="#fff"/></mask><g mask="url(#b)" fill="#fff"><path opacity=".5" d="M257.814 348.12c-12.754-51.149-10.385-95.217 7.036-130.976 10.53-21.605 24.335-35.762 36.516-48.252 14.752-15.127 27.493-28.193 32.491-50.433 7.072-31.478-4.99-67.463-35.849-106.954l.502-.393c30.984 39.657 43.086 75.813 35.97 107.486-5.037 22.417-17.836 35.542-32.656 50.74-12.153 12.455-25.915 26.574-36.4 48.086-17.361 35.621-19.715 79.542-6.998 130.541l-.612.155z"/><path opacity=".5" d="m331.928 126.318-.091-.64a73.174 73.174 0 0 0-10.647-28.86c-8.748-13.717-20.249-21.54-28.356-25.688l.291-.567c8.177 4.183 19.779 12.073 28.604 25.905a73.834 73.834 0 0 1 10.647 28.478 79.276 79.276 0 0 0 17.855-28.404c6.513-18.139 4.906-34.54 2.412-45.11l.622-.146c2.513 10.651 4.133 27.184-2.433 45.471-3.876 10.794-10.258 20.859-18.451 29.104l-.453.457z"/><path opacity=".5" d="m294.19 177.289.409-.571c3.985-5.558 10.538-17.24 9.647-33.024-.817-14.466-7.565-24.786-11.513-29.643l.496-.403c3.997 4.922 10.83 15.366 11.657 30.01.872 15.457-5.306 27.025-9.363 32.86 15.879-1.621 31.146-6.902 44.194-15.292 29.903-19.224 40.475-49.384 43.633-61.46l.617.16c-3.177 12.154-13.816 42.49-43.904 61.836-13.324 8.566-28.944 13.912-45.173 15.458l-.7.069z"/><path opacity=".5" d="m262.098 224.574-.016-.32a227.383 227.383 0 0 1 0-22.339 228.152 228.152 0 0 1 7.45-47.493l.617.16a227.522 227.522 0 0 0-7.429 47.363 226.472 226.472 0 0 0-.016 21.957c17.607-.841 34.481-4.939 50.158-12.185 35.455-16.389 54.831-44.675 63.225-60.079l.559.307c-8.43 15.471-27.894 43.885-63.517 60.351-15.845 7.325-32.909 11.449-50.715 12.259l-.316.019z"/></g><path d="M257.995 297.647c-3.726-13.356-7.326-34.455 1.68-54.654 15.714-35.237 52.111-28.068 81.95-67.233 24.066-31.588 13.084-52.914 41.13-75.214 20.128-16.007 46.591-21.567 50.371-15.751 4.07 6.254-22.446 18.934-34.508 50.276-15.697 40.787 11.934 64.186-4.783 89.757-12.714 19.45-33.44 13.164-78.627 35.077a263.284 263.284 0 0 0-57.213 37.742z" fill="#30ABBA"/><mask id="c" style="mask-type:luminance" maskUnits="userSpaceOnUse" x="254" y="82" width="180" height="216"><path d="M257.995 297.647c-3.726-13.356-7.326-34.455 1.68-54.654 15.714-35.237 52.111-28.068 81.95-67.233 24.066-31.588 13.084-52.914 41.13-75.214 20.128-16.007 46.591-21.567 50.371-15.751 4.07 6.254-22.446 18.934-34.508 50.276-15.697 40.787 11.934 64.186-4.783 89.757-12.714 19.45-33.44 13.164-78.627 35.077a263.284 263.284 0 0 0-57.213 37.742z" fill="#fff"/></mask><g mask="url(#c)" fill="#fff"><path opacity=".5" d="M251.814 344.139h-.64c.052-48.772 12.066-83.792 35.706-104.077 11.245-9.644 22.141-13.592 32.679-17.41 12.953-4.692 25.184-9.125 36.445-23.729 10.065-13.054 11.942-24.656 13.93-36.939 1.83-11.318 3.724-23.027 11.957-37.112 12.347-21.133 33.142-37.418 61.81-48.41l.229.596c-28.53 10.936-49.217 27.132-61.488 48.133-8.173 13.988-10.055 25.631-11.878 36.892-2.001 12.364-3.889 24.046-14.055 37.227-11.374 14.751-23.692 19.214-36.732 23.94-10.484 3.797-21.324 7.725-32.481 17.295-23.492 20.155-35.431 55.009-35.482 103.594z"/><path opacity=".5" d="m372.121 152.741-.301-.838a63.552 63.552 0 0 1-3.773-23.778c.639-18.949 9.844-32.89 15.268-39.513l.494.406c-5.373 6.556-14.483 20.367-15.124 39.129a62.855 62.855 0 0 0 3.441 22.707c4.346-11.673 10.834-20.111 19.293-25.084 8.886-5.225 16.979-4.996 25.55-4.755 5.298.148 10.776.304 16.515-.933 17.573-3.787 33.028-19.89 45.936-47.86l.58.268c-12.997 28.161-28.601 44.384-46.373 48.217-5.816 1.252-11.335 1.095-16.669.946-8.475-.239-16.482-.465-25.21 4.668-8.526 5.013-15.031 13.623-19.32 25.586l-.307.834z"/><path opacity=".5" d="m352.278 203.93-.05-.335a184.543 184.543 0 0 1 2.468-68.76l.624.14a183.855 183.855 0 0 0-2.511 68.19 78.958 78.958 0 0 0 29.17-12.679c13.359-9.383 21.076-21.023 25.199-29.137l.569.29c-4.158 8.179-11.935 19.911-25.4 29.37a79.678 79.678 0 0 1-29.743 12.852l-.326.069z"/><path opacity=".5" d="M359.388 236.044c-2.641 0-5.331-.092-8.071-.277a119.174 119.174 0 0 1-38.712-9.364l-.451-.19.356-.336a56.96 56.96 0 0 0 14.371-21.621 56.249 56.249 0 0 0 3.483-20.868l.64-.015a56.899 56.899 0 0 1-3.518 21.108 57.612 57.612 0 0 1-14.178 21.53 118.58 118.58 0 0 0 38.059 9.125c29.018 1.99 52.55-7.196 67.182-15.257l.307.558c-13.328 7.335-34.001 15.607-59.468 15.607zM331.907 264.328c-3.505-4.261-11.166-11.822-23.094-14.551-20.9-4.797-37.244 9.302-39.04 10.925l-.578.526.046-.782a87.29 87.29 0 0 1 4.193-22.005c3.946-11.993 10.394-22.889 19.155-32.367l.47.433c-8.702 9.411-15.1 20.221-19.018 32.142a86.563 86.563 0 0 0-4.116 21.061c3.542-3.014 19.271-15.1 39.028-10.563 12.111 2.779 19.887 10.451 23.444 14.775l-.49.406z"/></g><path d="M256.266 286.146a174.406 174.406 0 0 1 34.51-23.186c36.085-18.379 54.369-11.482 74.084-28.542 24.237-20.972 19.526-51.233 27.483-51.04 11.696.285 35.207 66.02 6.545 93.497-18.354 17.59-51.546 13.208-58.322 12.132-16.04-2.549-20.393-8.221-36.647-10.34-19.762-2.574-36.712 2.772-47.653 7.479z" fill="#9FCED9"/><mask id="d" style="mask-type:luminance" maskUnits="userSpaceOnUse" x="256" y="183" width="157" height="108"><path d="M256.266 286.146a174.406 174.406 0 0 1 34.51-23.186c36.085-18.379 54.369-11.482 74.084-28.542 24.237-20.972 19.526-51.233 27.483-51.04 11.696.285 35.207 66.02 6.545 93.497-18.354 17.59-51.546 13.208-58.322 12.132-16.04-2.549-20.393-8.221-36.647-10.34-19.762-2.574-36.712 2.772-47.653 7.479z" fill="#fff"/></mask><g mask="url(#d)" fill="#fff"><path opacity=".5" d="m247.378 291.804-.392-.505c21.401-16.552 42.777-24.786 63.545-24.438 11.193.181 19.896 2.749 27.571 5.015 10.102 2.981 18.826 5.554 29.375 1.214 13.473-5.544 23.763-19.878 28.976-40.364 8.353-32.821-10.14-60.222-16.006-67.838l.506-.389c5.916 7.676 24.543 35.283 16.119 68.385-5.265 20.686-15.689 35.18-29.35 40.796-10.76 4.428-19.584 1.823-29.801-1.191-7.637-2.255-16.293-4.809-27.4-4.99-20.607-.343-41.854 7.842-63.143 24.305z"/><path opacity=".5" d="m389.477 251.777.12-.639a75.553 75.553 0 0 0 0-28.304 76.56 76.56 0 0 0-12.181-29.025l.526-.365a77.217 77.217 0 0 1 12.282 29.296 76.22 76.22 0 0 1 .119 27.899c5.049-2.597 11.874-7.314 16.854-15.351 10.619-17.133 4.463-35.989 3.121-39.595l.6-.223c1.359 3.654 7.597 22.768-3.177 40.153-5.252 8.475-12.518 13.31-17.688 15.876l-.576.278z"/><path opacity=".5" d="M375.981 287.571a68.132 68.132 0 0 1-21.066-3.286c-8.923-2.889-17.147-7.58-24.442-13.936l-.731-.64.96.079c14.014 1.119 27.141-5.117 34.252-16.3 7.592-11.938 5.083-24.766 4.135-28.412l.617-.16c.96 3.71 3.518 16.76-4.213 28.918-7.075 11.121-19.989 17.452-33.88 16.657 7.047 5.983 14.947 10.417 23.494 13.185 24.33 7.88 46.309-.523 54.631-4.503l.275.577c-5.877 2.808-18.532 7.821-34.032 7.821z"/><path opacity=".5" d="M340.445 303.212c-3.425-7.327-11.571-20.75-27.664-28.328a55.681 55.681 0 0 0-21.777-5.234l-.017-.639c12.85-1.254 22.206-4.89 27.805-10.807.503-.533 1.154-1.27 2.141-2.386a606.621 606.621 0 0 1 6.407-7.156 747.869 747.869 0 0 1 9.238-9.975l.466.438a742.795 742.795 0 0 0-9.232 9.967 545.817 545.817 0 0 0-6.396 7.148c-.99 1.12-1.644 1.862-2.156 2.399-5.189 5.485-13.506 9.043-24.75 10.599a55.924 55.924 0 0 1 18.549 5.064c16.277 7.663 24.514 21.229 27.974 28.633l-.588.277z"/></g><path d="m38.06 294.452 168.853 10.289 187.475-10.804-184.903 58.623L38.06 294.452z" fill="url(#e)"/><path d="M174.746 471.483 37.348 417.901c-13.506-3.634-24-17.011-24-29.994v-.144c0-12.976 10.494-21.683 24-19.301l147.129 41.027-9.731 61.994z" fill="url(#f)"/><path d="m394.617 426.89-213.409 41.688c-13.573 1.516-24.731-7.949-24.731-21.162v-8.955c0-13.214 11.158-24.812 24.731-25.893l213.409-34.737c-9.588 17.845-11.797 34.544 0 49.059z" fill="url(#g)"/><path d="m396.504 429.293-213.478 42.066c-17.703 2.008-32.373-10.394-32.373-27.677v-.191c0-17.286 14.67-32.491 32.373-33.873l213.478-34.395c1.303-.1 2.359.985 2.359 2.426 0 1.441-1.056 2.696-2.359 2.802l-213.478 35.136c-14.243 1.16-26.001 13.412-26.001 27.295v.189c0 13.883 11.758 23.885 26.001 22.32l213.478-41.325c1.303-.144 2.359.908 2.359 2.35 0 1.443-1.056 2.728-2.359 2.877z" fill="#FC9D8A"/><path d="M180.377 409.634 37.348 368.462c-13.506-2.382-24-20.087-24-39.572v-.214c0-19.487 10.494-34.95 24-34.448l151.529 22.995-8.5 92.411z" fill="url(#h)"/><path d="m394.617 371.441-201.264 32.918c-20.174 1.52-36.876-13.302-36.876-33.141V357.76c0-19.839 16.702-36.376 36.876-36.926l201.264-23.066c-9.62 26.75-11.769 51.792 0 73.673z" fill="url(#i)"/><path d="m396.504 375.223-213.478 34.395c-17.703 1.382-32.373-18.591-32.373-44.544v-.286c0-25.955 14.67-47.434 32.373-47.874l213.478-22.876c1.303-.032 2.359 1.696 2.359 3.86 0 2.164-1.056 3.95-2.359 3.998l-213.478 23.986c-14.243.427-26.001 17.74-26.001 38.586v.283c0 20.846 11.758 36.948 26.001 35.911l213.478-33.281c1.303-.094 2.359 1.583 2.359 3.747 0 2.164-1.056 3.995-2.359 4.095z" fill="url(#j)"/><path d="m137.041 390.106-33.158-8.976c-6.975-19.038-6.45-36.528 0-57.431l33.158 5.872c-6.118 22.003-5.19 41.926 0 60.535z" fill="#fff" style="mix-blend-mode:soft-light" opacity=".5"/><path d="m400.514 283.099-364.695-3.518v10.408c0 2.824 1.592 5.226 3.746 5.654l103.12 20.496c1.217.242 2.464.307 3.7.192l250.167-23.368c2.239-.209 3.962-2.617 3.962-5.52v-4.344z" fill="url(#k)"/><path d="m283.113 266.227-243.286 19.04c-4.355.34-7.893-3.28-7.893-8.088V84.576c0-4.809 3.538-8.706 7.893-8.706h243.286c3.587 0 6.486 3.518 6.486 7.87V257.85c-.005 4.344-2.899 8.094-6.486 8.376z" fill="url(#l)"/><path d="m286.992 266.227-243.286 19.04c-4.354.34-7.893-3.28-7.893-8.088V84.576c0-4.809 3.539-8.706 7.893-8.706h243.286c3.585 0 6.486 3.518 6.486 7.87V257.85c0 4.344-2.901 8.094-6.486 8.376z" fill="url(#m)"/><path d="M279.413 253.952 52.823 270.49c-3.544.259-6.422-2.719-6.422-6.638V95.227c0-3.924 2.878-7.12 6.421-7.135l226.591-1.04c2.958-.012 5.352 2.879 5.352 6.45v153.587c0 3.574-2.394 6.647-5.352 6.863z" fill="#DDF4F7"/><g clip-path="url(#n)"><path d="m170.509 217.479 23.181-30.146-50.798 4.004 27.617 26.142z" fill="#FC9D8A"/><path d="m170.509 217.479 23.181-30.146-25.399 2.002 2.218 28.144z" fill="#EF9482"/><path d="m170.509 217.479 11.591-15.073-25.4 2.002 13.809 13.071z" fill="#010648"/><path d="m192.274 180.365-48.489 3.822.554 7.036 48.49-3.822-.555-7.036z" fill="#FAB680"/><path d="m192.274 180.365-23.09 1.82.555 7.036 23.09-1.82-.555-7.036z" fill="#D09668"/><path d="m187.499 138.264-9.236.728c-2.551.201-4.453 2.464-4.249 5.055l3.328 42.215c.204 2.59 2.437 4.527 4.988 4.326l9.236-.728c2.55-.201 4.452-2.464 4.248-5.054l-3.328-42.215c-.204-2.591-2.437-4.528-4.987-4.327z" fill="#6165D7"/><path d="m169.951 151.447-9.236.728c-2.551.201-4.453 2.464-4.248 5.054l2.403 30.489c.204 2.59 2.437 4.528 4.988 4.326l9.236-.728c2.55-.201 4.452-2.464 4.248-5.054l-2.403-30.489c-.204-2.59-2.438-4.527-4.988-4.326z" fill="#010961"/><path d="M138.919 170.412c-.205-2.591 1.697-4.854 4.248-5.055l9.236-.728c2.551-.201 4.784 1.736 4.988 4.327l1.479 18.762c.204 2.591-1.698 4.853-4.248 5.055l-9.237.728c-2.55.201-4.783-1.736-4.987-4.327l-1.479-18.762z" fill="url(#o)"/><path fill-rule="evenodd" clip-rule="evenodd" d="m135.654 139.991 57.139-4.504c-4.754-10.58-16.693-17.563-30.048-16.51-13.356 1.053-24.054 9.82-27.091 21.014z" fill="url(#p)"/><path d="m135.654 139.991-.67-.189-.263.971.988-.078-.055-.704zm57.139-4.504.056.704.988-.078-.412-.918-.632.292zm-57.084 5.208 57.14-4.504-.111-1.408-57.14 4.505.111 1.407zm27.091-21.014c13.098-1.033 24.742 5.818 29.361 16.098l1.264-.584c-4.889-10.88-17.123-17.995-30.736-16.922l.111 1.408zm-26.476 20.499c2.951-10.876 13.378-19.467 26.476-20.499l-.111-1.408c-13.613 1.073-24.581 10.017-27.705 21.529l1.34.378z" fill="url(#q)"/><path d="m112.847 242.71 5.066-.399-1.07 8.128c-1.544.687-3.064 1.09-4.558 1.208-1.942.153-3.497-.268-4.664-1.262-1.16-1.002-1.816-2.474-1.969-4.415-.159-2.016.068-3.878.681-5.586.62-1.716 1.556-3.083 2.809-4.102a7.559 7.559 0 0 1 4.295-1.73c.86-.068 1.672-.057 2.435.034.769.09 1.55.27 2.341.54l-.594 1.766a13.641 13.641 0 0 0-1.884-.519 7.708 7.708 0 0 0-2.164-.112c-1.243.098-2.346.569-3.309 1.415-.956.837-1.663 1.96-2.122 3.369-.459 1.409-.622 2.956-.489 4.643.112 1.424.576 2.515 1.391 3.273.822.757 1.91 1.083 3.264.976 1.133-.089 2.078-.311 2.835-.665l.666-5.076-3.19.252.23-1.738zm14.961 7.487 1.021-7.91c.076-.715.103-1.226.079-1.533-.088-1.109-.673-1.622-1.754-1.536-.655.051-1.278.323-1.868.815-.584.49-1.081 1.178-1.492 2.063-.405.877-.682 1.921-.831 3.131l-.696 5.407-1.854.146 2.263-17.782 1.855-.147-.246 1.819c-.072.586-.151 1.184-.236 1.794a76.888 76.888 0 0 1-.272 1.9 69.957 69.957 0 0 1-.351 2.166l.121-.01c.619-.976 1.248-1.689 1.886-2.14.646-.45 1.336-.705 2.072-.763.964-.076 1.729.136 2.294.634.572.498.897 1.242.975 2.231.037.465.001 1.094-.107 1.887-.173 1.469-.508 4.03-1.005 7.682l-1.854.146zm11.113-13.434c1.399-.11 2.536.226 3.412 1.009.876.776 1.372 1.902 1.488 3.379a10.17 10.17 0 0 1-.48 4.054c-.431 1.294-1.072 2.317-1.924 3.071a4.986 4.986 0 0 1-2.988 1.265c-1.412.111-2.553-.225-3.422-1.009-.869-.784-1.361-1.91-1.477-3.379a10.115 10.115 0 0 1 .489-4.078c.438-1.302 1.087-2.322 1.947-3.061a4.994 4.994 0 0 1 2.955-1.251zm2.959 4.281c-.068-.862-.355-1.541-.86-2.037-.499-.504-1.142-.724-1.929-.662-.802.063-1.502.397-2.098 1.002-.589.605-1.021 1.416-1.297 2.433-.268 1.009-.355 2.117-.26 3.324.078.982.37 1.725.876 2.228.513.495 1.207.708 2.083.639.765-.061 1.431-.388 1.999-.984.567-.595.981-1.408 1.24-2.439.266-1.04.348-2.208.246-3.504zm11.458 3.622c.092 1.169-.244 2.116-1.009 2.84-.758.716-1.876 1.132-3.355 1.249-1.244.098-2.386-.072-3.428-.511l-.14-1.776c.54.274 1.115.474 1.724.599.61.126 1.169.168 1.676.128.928-.073 1.612-.315 2.053-.727.442-.412.639-.91.593-1.495-.034-.427-.191-.777-.471-1.049-.281-.272-.868-.629-1.762-1.072-1-.471-1.719-.954-2.157-1.447-.439-.494-.687-1.1-.744-1.82-.081-1.034.225-1.896.918-2.584.694-.696 1.647-1.091 2.861-1.187a8.43 8.43 0 0 1 3.708.545l-.475 1.587-.64-.232a6.05 6.05 0 0 0-2.466-.292c-.685.054-1.209.261-1.573.622a1.561 1.561 0 0 0-.485 1.305c.033.42.19.769.471 1.049.288.279.86.622 1.714 1.03.823.388 1.416.729 1.78 1.025.371.295.656.623.855.985.198.354.315.763.352 1.228zm6.11 1.713c.405-.032.927-.171 1.567-.418l.114 1.451a5.014 5.014 0 0 1-.906.343 4.736 4.736 0 0 1-.874.182c-.92.072-1.644-.093-2.172-.496-.521-.412-.816-1.06-.886-1.944a8.311 8.311 0 0 1 .066-1.703l.868-6.879-1.898.15.09-.833 1.972-1.038 1.178-2.672 1.082-.086-.384 2.882 3.024-.239-.174 1.451-3.014.237-.888 6.904c-.081.662-.108 1.162-.082 1.5.033.419.166.733.397.941.23.208.537.297.92.267z" fill="#010648"/><path d="m185.595 245.642-3.886.306-2.86-8.463a46.831 46.831 0 0 1-.568-1.868c-.267-.952-.428-1.591-.484-1.919-.012.408-.07 1.069-.176 1.983a42.435 42.435 0 0 1-.257 1.943l-1.489 8.784-3.875.305-5.402-16.114 3.357-.265 2.767 8.81c.489 1.628.863 3.043 1.12 4.245.011-.431.058-1.098.141-2.002.091-.913.187-1.622.287-2.127l1.619-9.394 3.226-.254 3.071 9.024c.135.404.313 1.023.534 1.858.221.835.396 1.553.524 2.154.027-.591.087-1.327.181-2.209.092-.89.182-1.61.272-2.16l1.34-9.134 3.358-.265-2.8 16.762zm11.718-13.81a5.285 5.285 0 0 1 1.141.012l.001 3.235a3.794 3.794 0 0 0-1-.034c-1.071.084-1.885.431-2.443 1.041-.55.609-.786 1.42-.706 2.432l.505 6.397-3.358.265-.991-12.571 2.543-.2.662 2.075.165-.013a4.68 4.68 0 0 1 1.407-1.82 3.774 3.774 0 0 1 2.074-.819zm2.988-3.268c-.088-1.117.477-1.723 1.695-1.819 1.218-.096 1.872.414 1.96 1.531.042.532-.079.961-.364 1.285-.278.316-.721.498-1.331.546-1.218.096-1.871-.418-1.96-1.543zm4.748 15.544-3.358.265-.99-12.571 3.357-.264.991 12.57zm8.521-3.194c.588-.047 1.282-.234 2.083-.561l.201 2.553c-.806.448-1.818.72-3.037.816-1.343.106-2.35-.162-3.021-.803-.664-.649-1.051-1.667-1.16-3.053l-.478-6.061-1.608.127-.114-1.45 1.759-1.293.76-2.73 2.146-.169.211 2.676 3.447-.272.203 2.575-3.447.272.478 6.06c.039.487.199.837.482 1.048.29.211.655.299 1.095.265zm9.09-8.625c-.711.056-1.251.332-1.618.829-.367.489-.547 1.159-.539 2.011l4.712-.372c-.082-.845-.35-1.481-.804-1.905-.455-.432-1.039-.619-1.751-.563zm1.309 10.554c-1.982.156-3.574-.28-4.778-1.309-1.204-1.029-1.886-2.567-2.047-4.613-.166-2.106.219-3.774 1.157-5.001.943-1.236 2.325-1.926 4.145-2.069 1.74-.138 3.134.262 4.182 1.197 1.049.936 1.644 2.296 1.784 4.08l.132 1.664-7.938.625c.114.972.456 1.71 1.028 2.216.571.506 1.334.721 2.288.645a9.079 9.079 0 0 0 2.084-.401c.648-.21 1.318-.515 2.01-.917l.209 2.654a7.615 7.615 0 0 1-1.83.811c-.656.203-1.465.342-2.426.418zm13.592-14.184a5.305 5.305 0 0 1 1.143.012v3.236a3.792 3.792 0 0 0-1-.035c-1.071.085-1.886.432-2.443 1.041-.551.609-.786 1.42-.706 2.432l.504 6.397-3.358.265-.99-12.57 2.542-.201.663 2.075.165-.013a4.662 4.662 0 0 1 1.408-1.819 3.762 3.762 0 0 1 2.072-.82z" fill="url(#r)"/></g><path d="M173.94 81.14c0 1.788-1.252 3.244-2.798 3.248-1.546.005-2.805-1.439-2.805-3.238s1.257-3.249 2.805-3.25c1.548-.002 2.798 1.448 2.798 3.24z" fill="#fff"/><path d="M228.376 213.402c-18.755-11.175-33.502 2.984-47.734-10.987-8.635-8.475-4.393-14.787-15.011-27.445-11.758-14.019-19.414-9.307-31.231-21.925-14.944-15.954-7.47-28.366-20.341-39.817-15.615-13.896-32.46-1.035-47.318-14.361-6.412-5.748-9.929-14.104-11.766-22.992H40.423c-2.549 0-4.618 2.288-4.618 5.117v199.647c0 2.821 2.07 4.946 4.618 4.746l247.956-19.499c1.217-.094 2.296-.881 2.988-2.023-18.151-.732-29.301-7.471-36.428-14.436-13.944-13.628-11.527-27.065-26.563-36.025z" fill="#fff" style="mix-blend-mode:soft-light" opacity=".48"/><path d="M280.921 265.363 35.82 285.404l106.871 21.239c1.218.243 2.464.308 3.7.192l254.13-23.736-115.694-17.6a16.85 16.85 0 0 0-3.906-.136z" fill="url(#s)"/><path style="mix-blend-mode:multiply" opacity=".3" d="m71.578 285.908 204.059-16.933 63.156 9.529-202.303 18.102-64.912-10.698z" fill="url(#t)"/><path d="M360.218 369.476c-5.437 4.767-13.628 4.38-18.678-.799-6.297-6.445-18.109-10.818-39.276 2.579-37.809 23.929 3.98 91.611 27.859 93.588 23.879 1.976 31.839-3.967 43.778 0s28.854-22.584 35.819-46.62c6.966-24.036-10.944-52.568-28.853-55.713-8.816-1.54-15.46 2.413-20.649 6.965z" fill="url(#u)"/><path style="mix-blend-mode:multiply" opacity=".3" d="m391.427 441.971-9.086 5.622c-9.094 5.622-12.906-16.234-29.626-29.964-16.72-13.729-49.572-3.847-47.813-27.448.878-11.768 6.785-20.438 12.489-26.174-4.415 1.337-9.435 3.653-15.124 7.257-37.809 23.929 3.98 91.611 27.859 93.588 23.879 1.976 31.839-3.967 43.778 0 10.252 3.406 24.169-15.682 32.302-36.362l-14.779 13.481z" fill="url(#v)"/><path d="M354.074 373.517s17.091-27.838-11.76-35.797c-28.851-7.959-41.122-18.637-41.122-18.637s7.295 23.201 12.603 40.65c5.307 17.449 30.807 21.392 40.279 13.784z" fill="url(#w)"/><path d="M361.946 341.068c-4.973.575-2.984-7.207-7.754-2.014-4.157 4.52-4.883 29.413-5.003 35.792a1.53 1.53 0 0 0 1.463 1.557 1.519 1.519 0 0 0 1.128-.423 1.531 1.531 0 0 0 .471-1.11c-.063-13.715 14.732-29.195 16.328-32.34 1.658-3.27-1.658-2.036-6.633-1.462z" fill="#010648"/><path style="mix-blend-mode:multiply" opacity=".3" d="M341.724 357.326c-2.258-12.504-11.939-10.2-31.502-27.112a87.263 87.263 0 0 1-7.968-7.773c2.211 7.055 7.468 23.874 11.549 37.292 4.73 15.559 25.524 20.38 36.684 15.847-3.695-3.262-7.069-8.837-8.763-18.254z" fill="url(#x)"/><path d="M188.063 45.894 176.734 75.61s10.802 47.605 63.631 62.818c52.829 15.214 74.029-10.728 74.029-10.728l13.392-43.573-139.723-38.234z" fill="url(#y)"/><path d="M274.22.664a7.033 7.033 0 0 0-4.774-.434L163.134 27.858c-5.476 1.423-7.15 8.374-2.922 12.132 20.628 18.325 67.481 60.986 85.071 85.581a7.061 7.061 0 0 0 8.325 2.458l107.846-42.273c4.877-1.92 6.059-8.279 2.187-11.81C343.221 55.328 291.249 8.693 274.22.664z" fill="url(#z)"/><path d="M266.132 54.821s55.711 36.629 59.854 44.835c4.143 8.207-5.21 44.98-5.21 44.98 8.287 31.43 8.955 65.402-6.369 82.877 0 0-17.708-41.458-9.115-58.629 8.594-17.171 11.901-24.213 11.901-24.213s7.968-39.24 5.79-44.912c-.002 0-61.678-42.777-56.851-44.938z" fill="#6165D7"/><path d="m177.247 37.87 53.101 54.43 13.272 13.607 3.318 3.402 1.657 1.691a10.045 10.045 0 0 0 10.199 2.463l36.277-11.382a.592.592 0 0 1 .69.396.587.587 0 0 1-.332.723l-36.182 11.673a11.588 11.588 0 0 1-11.773-2.756l-1.682-1.691-3.347-3.374-13.387-13.498-53.543-53.982a1.216 1.216 0 0 1 1.726-1.71l.006.008zM316.364 163.621c-.126.119-.32.365-.489.544l-.497.64c-.32.433-.619.911-.933 1.365l-.828 1.456c-.261.497-.48 1.013-.736 1.519-.246.508-.465 1.03-.655 1.562-.2.529-.421 1.052-.605 1.589l-.492 1.635c-.18.541-.331 1.091-.453 1.648l-.369 1.675a16.902 16.902 0 0 0-.32 1.685c-.16 1.137-.334 2.271-.48 3.411l-.235 3.448c-.017.287-.046.574-.052.863v2.599c-.066 2.312.204 4.618.343 6.932.028.578.109 1.153.192 1.728l.235 1.724c.16 1.15.304 2.303.48 3.451.467 2.275.886 4.565 1.393 6.836l1.759 6.764v.022a.428.428 0 0 1-.044.317.422.422 0 0 1-.77-.093l-1.946-6.756c-.576-2.275-1.065-4.575-1.599-6.865-.218-1.154-.392-2.318-.59-3.478l-.29-1.743c-.099-.58-.198-1.161-.243-1.749-.209-2.348-.548-4.689-.55-7.057l-.056-1.773-.027-.888c0-.296.021-.591.029-.887l.142-3.555c.114-1.183.262-2.363.393-3.547.05-.595.186-1.177.293-1.759l.336-1.759c.113-.588.255-1.169.427-1.743l.47-1.736c.179-.574.397-1.137.593-1.707.188-.573.407-1.136.654-1.687.25-.551.48-1.119.747-1.658l.862-1.617c.334-.518.64-1.049 1.001-1.559.369-.54.777-1.053 1.222-1.533a1.218 1.218 0 0 1 1.666.007 1.22 1.22 0 0 1 .093 1.664c-.016.016-.032.033-.05.049l-.021.016z" fill="#91B3FA"/><path d="M317.837 178.16c.012.112.012.224 0 .336l-.016.611-.026 1.23-.03 2.48-.035 4.97-.027 9.951v19.904a.66.66 0 0 1-1.321.02l-.563-19.902-.249-9.952-.104-4.983-.039-2.496-.009-1.259v-.639c0-.277.032-.608.067-.907a1.144 1.144 0 0 1 1.914-.721c.21.191.341.453.369.735l.069.622z" fill="#91B3FA"/></g><defs><linearGradient id="q" x1="149.947" y1="131.912" x2="150.185" y2="123.346" gradientUnits="userSpaceOnUse"><stop stop-color="#30ABBA"/><stop offset="1" stop-color="#6165D7"/></linearGradient><linearGradient id="e" x1="38.06" y1="323.248" x2="394.388" y2="323.248" gradientUnits="userSpaceOnUse"><stop stop-color="#AA80F9"/><stop offset="1" stop-color="#6165D7"/></linearGradient><linearGradient id="g" x1="156.477" y1="423.281" x2="394.617" y2="423.281" gradientUnits="userSpaceOnUse"><stop offset=".49" stop-color="#EAEDF3"/><stop offset="1" stop-color="#fff"/></linearGradient><linearGradient id="h" x1="118.839" y1="291.412" x2="75.367" y2="437.847" gradientUnits="userSpaceOnUse"><stop stop-color="#6165D7"/><stop offset="1" stop-color="#6165D7"/></linearGradient><linearGradient id="i" x1="156.477" y1="351.117" x2="394.617" y2="351.117" gradientUnits="userSpaceOnUse"><stop offset=".49" stop-color="#EAEDF3"/><stop offset="1" stop-color="#fff"/></linearGradient><linearGradient id="j" x1="150.651" y1="351.862" x2="398.863" y2="351.862" gradientUnits="userSpaceOnUse"><stop stop-color="#30ABBA"/><stop offset="1" stop-color="#6165D7"/></linearGradient><linearGradient id="k" x1="189.773" y1="297.449" x2="164.125" y2="308.22" gradientUnits="userSpaceOnUse"><stop stop-color="#40447E"/><stop offset="1" stop-color="#3C3B6B"/></linearGradient><linearGradient id="l" x1="155.277" y1="173.497" x2="126.79" y2="185.462" gradientUnits="userSpaceOnUse"><stop stop-color="#40447E"/><stop offset="1" stop-color="#3C3B6B"/></linearGradient><linearGradient id="m" x1="35.813" y1="180.58" x2="293.478" y2="180.58" gradientUnits="userSpaceOnUse"><stop stop-color="#40447E"/><stop offset="1" stop-color="#3C3B6B"/></linearGradient><linearGradient id="o" x1="143.809" y1="193.576" x2="163.765" y2="179.307" gradientUnits="userSpaceOnUse"><stop stop-color="#30ABBA"/><stop offset="1" stop-color="#6165D7"/></linearGradient><linearGradient id="p" x1="149.341" y1="138.861" x2="155.742" y2="110.542" gradientUnits="userSpaceOnUse"><stop stop-color="#30ABBA"/><stop offset="1" stop-color="#6165D7"/></linearGradient><linearGradient id="f" x1="83.204" y1="451.976" x2="107.044" y2="397.75" gradientUnits="userSpaceOnUse"><stop stop-color="#FC9D8A"/><stop offset="1" stop-color="#F36F56"/></linearGradient><linearGradient id="r" x1="179.749" y1="246.298" x2="185.041" y2="217.872" gradientUnits="userSpaceOnUse"><stop stop-color="#30ABBA"/><stop offset="1" stop-color="#6165D7"/></linearGradient><linearGradient id="s" x1="35.813" y1="286.1" x2="400.514" y2="286.1" gradientUnits="userSpaceOnUse"><stop stop-color="#40447E"/><stop offset="1" stop-color="#3C3B6B"/></linearGradient><linearGradient id="t" x1="71.578" y1="282.79" x2="338.793" y2="282.79" gradientUnits="userSpaceOnUse"><stop stop-color="#40447E"/><stop offset="1" stop-color="#3C3B6B"/></linearGradient><linearGradient id="u" x1="368.381" y1="381.976" x2="301.718" y2="472.52" gradientUnits="userSpaceOnUse"><stop stop-color="#FC9D8A"/><stop offset="1" stop-color="#FB6FBB"/></linearGradient><linearGradient id="v" x1="368.381" y1="381.976" x2="301.718" y2="472.52" gradientUnits="userSpaceOnUse"><stop stop-color="#FF9085"/><stop offset="1" stop-color="#FB6FBB"/></linearGradient><linearGradient id="w" x1="324.891" y1="311.717" x2="342.797" y2="396.945" gradientUnits="userSpaceOnUse"><stop stop-color="#A1F094"/><stop offset="1" stop-color="#4FC3BA"/></linearGradient><linearGradient id="x" x1="318.796" y1="312.998" x2="336.703" y2="398.225" gradientUnits="userSpaceOnUse"><stop stop-color="#38E8C7"/><stop offset="1" stop-color="#425F63"/></linearGradient><linearGradient id="y" x1="211.538" y1="98.032" x2="218.455" y2="63.752" gradientUnits="userSpaceOnUse"><stop stop-color="#30ABBA"/><stop offset="1" stop-color="#6165D7"/></linearGradient><linearGradient id="z" x1="181" y1="36.5" x2="322.03" y2="37.41" gradientUnits="userSpaceOnUse"><stop stop-color="#30ABBA"/><stop offset="1" stop-color="#6165D7"/></linearGradient><clipPath id="a"><path fill="#fff" d="M0 0h480v480H0z"/></clipPath><clipPath id="n"><path fill="#fff" transform="rotate(-4.507 1617.503 -1157.958)" d="M0 0h134v129H0z"/></clipPath></defs></svg>