<svg width="480" height="480" fill="none" xmlns="http://www.w3.org/2000/svg"><g clip-path="url(#a)"><path d="M267.785 1.211C144.453-12.47 20.32 93.035 28.521 152.076c4.705 33.877 52.79 51.108 46.012 78.221-6.844 27.379-58.524 20.422-71.32 46.013-22.305 44.61 74.161 186.895 207.056 202.281C321.773 491.5 458.726 415.049 480.593 278.61 503.596 135.092 384.996 14.212 267.785 1.211z" fill="#E6F1FC"/><path d="m297.206 45.193 4.384-1.462c2.192-.73 4.384 1.462 5.846 3.654 1.461 2.192-.73 2.922-2.192 2.192-1.462-.73-2.922-2.924-4.384-1.462-1.462 1.462-5.115.007-3.654-2.922z" fill="url(#b)"/><path d="M136.668 245.975s-2.922 1.462-2.922 2.922c0 1.46 3.653 5.109 5.108 6.575 1.456 1.467 2.924.732 3.654 0 .73-.731 0-.73-1.462-2.192-1.462-1.461-4.378-7.305-4.378-7.305z" fill="url(#c)"/><path d="M136.667 238.668s-.73 6.577-1.46 8.769c0 0 .73.73 2.192.73 0 0 2.192-4.384 2.922-6.576l-3.654-2.923z" fill="url(#d)"/><path d="M173.206 261.318s-2.192 1.462 0 3.653c2.191 2.192 5.108 3.654 7.305 3.654a7.119 7.119 0 0 0 2.433-.494 1.272 1.272 0 0 0 .818-1.052 1.273 1.273 0 0 0-.563-1.208 38.78 38.78 0 0 0-4.15-2.363c-4.388-2.19-5.843-2.19-5.843-2.19z" fill="url(#e)"/><path d="M168.817 253.28s3.354 7.385 3.855 8.77c.529 1.46 2.078.733 2.765 0 0 0-1.506-7.308-2.236-9.5l-4.384.73z" fill="url(#f)"/><path d="M173.931 138.571c12.457 8.207 4.197 38.265 1.461 48.222-3.497 12.726-11.964 35.02-35.071 57.72l-4.383-1.462a56.643 56.643 0 0 1-.731-18.995c.213-1.615.971-6.819 3.652-13.882 4.406-11.597 8.446-13.583 10.961-19.727 6.945-16.975-12.215-30.366-5.845-43.109 4.772-9.55 21.65-14.245 29.956-8.767z" fill="url(#g)"/><path d="M128.63 126.15c.882 18.293 4.656 32.189 8.037 41.647 6.592 18.424 12.421 22.039 15.345 39.455 1.632 9.723.875 14.921 4.384 27.027 2.16 7.464 6.211 20.93 13.881 21.918 1.76.228 3.306-.253 4.384-.731a956.77 956.77 0 0 1-4.384-39.454 928.115 928.115 0 0 1-3.654-90.599l-37.993.737z" fill="url(#h)"/><path d="M208.27 31.897c5.262-.78 12.752-.685 21.189 1.462 10.916 2.779 16.219 11.927 26.303 16.81 8.005 3.872 21.118 5 43.107-6.576.244 1.948.488 3.896.73 5.846-13.184 17.528-24.431 21.461-32.147 21.918-12.944.768-18.942-8.065-36.532-6.576-12.076 1.024-16.582 5.81-21.188 2.922-4.115-2.582-7.264-10.626-1.462-35.806z" fill="#30ABBA"/><path d="M100.136 14.362c-7.442 4.406-7.134 6.988-12.42 8.768-9.752 3.284-15.022-4.077-23.381-1.46-7.789 2.437-13.611 12.083-13.883 20.456-.456 14.109 14.878 23.664 28.496 32.15 9.187 5.723 15.3 9.412 22.65 8.035 9.987-1.867 10.458-10.877 20.457-13.15 11.56-2.638 16.498 8.14 28.495 6.575 9.165-1.195 9.656-7.92 24.111-19.727 20.133-16.457 32.823-14.527 35.801-25.572 2.238-8.278-2.367-18.665-9.498-22.65-6.362-3.555-13.54-1.345-22.65 1.462-17.983 5.537-18.36 12.485-27.764 12.42-13.36-.092-15.753-14.14-30.687-13.882-8.88.155-17.551 5.288-19.727 6.575z" fill="url(#i)"/><path d="M163.701 45.78c6.648-5.516 12.98-8.02 16.81-9.498 4.285-1.334 25.404-7.719 36.531-3.653 3.033 1.107 4.12 2.551 4.384 2.922 2.757 3.868-.236 8.644-.73 17.536-.32 5.752.78 6.5.73 10.96-.1 9.146-4.824 14.68-9.497 22.648-5.528 9.422-16.662 28.985-15.343 49.684.417 6.563 1.813 10.102-.732 13.151-4.174 5.007-12.126.495-24.84 4.384-9.793 2.999-8.384 6.689-16.81 8.767-9.812 2.423-23.665.361-31.418-8.035-4.982-5.396-4.675-10.406-9.499-11.691-5.819-1.551-10.486 4.614-14.613 2.192-2.276-1.339-1.295-3.474-4.383-8.768-3.565-6.111-6.592-6.205-6.576-8.767.026-4.969 11.394-4.758 19.727-14.613 4.856-5.743 3.139-8.351 8.037-13.883 6.164-6.96 11.711-6.023 18.997-10.23 16.557-9.556 9.982-27.137 29.225-43.106z" fill="url(#j)"/><path d="M181.968 36.282s13.881-5.845 25.572-4.385c0 0 1.462 10.23-.73 16.075 0 0-14.613-10.233-24.842-11.69z" fill="url(#k)"/><path d="M197.311 23.861s-.73 4.384-2.922 6.576c-2.192 2.192-5.109 3.654-6.577 4.384-1.469.73 2.193 2.192 5.845 2.192 3.652 0 11.685-2.192 11.685-4.382 0-2.19-2.924-.732-4.384-1.462-3.268-1.633 0-7.306 0-7.306l-3.647-.002z" fill="url(#l)"/><path d="M298.869 43.588a102.47 102.47 0 0 1-12.03 5.439c-5.371 11.072-10.775 14.316-14.997 15.016-6.284 1.042-8.09-3.827-23.38-5.845-7.281-.961-10.463-.33-16.073-2.922-5.353-2.472-7.336-5.297-9.499-4.384-2.967 1.25-.923 7.28-3.654 16.073-.766 2.472-3.558 11.462-10.959 16.075-6.142 3.828-9.461.9-17.535 3.652-10.383 3.543-8.99 9.789-18.267 14.613-11.349 5.904-17.193-1.502-39.453 2.923-8.189 1.627-12.752 2.599-16.81 6.576-6.984 6.852-4.355 14.685-9.499 21.918-1.977 2.777-5.171 5.562-10.583 7.525.95 2.592.933 3.955 2.546 4.896 4.12 2.424 8.794-3.742 14.613-2.192 4.824 1.286 4.517 6.296 9.499 11.691 7.746 8.405 21.605 10.459 31.418 8.036 8.421-2.078 7.012-5.768 16.809-8.767 12.715-3.893 20.666.623 24.841-4.384 2.543-3.049 1.153-6.592.731-13.151-1.318-20.699 9.816-40.263 15.343-49.684 4.224-7.2 8.478-12.425 9.333-20.106a49.673 49.673 0 0 1 9.664-1.813c17.589-1.483 23.588 7.344 36.531 6.576 7.71-.453 18.966-4.387 32.15-21.909-.248-1.952-.494-3.903-.739-5.852z" fill="#6165D7" style="mix-blend-mode:multiply" opacity=".3"/><path d="M197.63 26.182s1.675 2.775 4.752 1.946c2.755-.741 1.761-7.777-.289-8.747-.684-.33-1.99-.32-2.905.145-.643.33-2.447 2.21-1.711 4.558-.659-.254-1.267-.129-1.445.193-.226.407.295 1.033.414 1.175.309.36.723.616 1.184.73z" fill="url(#m)"/><path d="m277.885 59.564 2.784 14.267a112.926 112.926 0 0 0-17.707 8.846l-9.512-10.923a7.14 7.14 0 0 0-4.926-2.418 7.136 7.136 0 0 0-5.186 1.795l-18.715 16.492c-2.997 2.637-3.327 7.207-.736 10.198l9.594 11.074a116.565 116.565 0 0 0-11 16.541l-13.896-4.724c-3.748-1.274-7.845.771-9.153 4.568l-8.201 23.797c-1.318 3.812.66 7.945 4.419 9.229l13.943 4.764a116.04 116.04 0 0 0-1.397 19.913l-14.588 2.966c-3.916.8-6.492 4.661-5.752 8.626l4.631 24.865a7.158 7.158 0 0 0 5.625 5.767c.934.189 1.898.19 2.833.001l14.631-2.983a114.85 114.85 0 0 0 8.569 18.053l-11.249 10c-3.034 2.696-3.372 7.368-.753 10.437l16.409 19.225a7.162 7.162 0 0 0 10.262.674l11.25-10.028a113.983 113.983 0 0 0 16.48 11.284l-4.841 14.387c-1.318 3.896.714 8.125 4.523 9.445l23.848 8.265c3.818 1.318 7.97-.77 9.273-4.676l4.763-14.276a111.843 111.843 0 0 0 20.007 1.329l2.884 14.778c.791 4.046 4.642 6.673 8.604 5.865l24.776-5.052c3.955-.808 6.523-4.743 5.722-8.786l-2.905-14.652a112.983 112.983 0 0 0 18.081-9.021l9.651 11.138a7.21 7.21 0 0 0 5.02 2.518 7.204 7.204 0 0 0 5.307-1.839l18.882-16.974c3.016-2.711 3.283-7.416.6-10.49l-9.619-11.041a116.577 116.577 0 0 0 11.127-17.046l13.695 4.681a7.218 7.218 0 0 0 5.585-.387 7.234 7.234 0 0 0 3.631-4.261l7.871-24.176a7.448 7.448 0 0 0-4.644-9.338l-13.565-4.614c.97-6.739 1.344-13.55 1.119-20.354l13.991-2.853c3.928-.801 6.446-4.669 5.625-8.637l-5.127-24.758a7.296 7.296 0 0 0-8.569-5.706l-13.951 2.846a114.722 114.722 0 0 0-8.99-18.118l10.597-9.446a7.279 7.279 0 0 0 .587-10.248l-16.581-18.754a7.203 7.203 0 0 0-4.957-2.428 7.19 7.19 0 0 0-5.218 1.8l-10.664 9.485a114.046 114.046 0 0 0-16.645-11.03l4.529-13.57a7.215 7.215 0 0 0-4.537-9.124l-23.52-7.892a7.197 7.197 0 0 0-9.097 4.535l-4.582 13.61a111.788 111.788 0 0 0-19.776-1.128l-2.802-14.13a7.124 7.124 0 0 0-5.631-5.617 7.132 7.132 0 0 0-2.795.014l-24.285 4.944a7.253 7.253 0 0 0-5.656 8.476zM250.176 194.76c-7.644-39.984 18.128-78.733 57.515-86.767 39.387-8.034 77.835 17.62 85.911 57.515 8.123 40.137-17.542 79.434-57.366 87.561-39.824 8.126-78.372-18.082-86.06-58.309z" fill="url(#n)"/><path d="m66.744 284.462 5.554 10.459a85.158 85.158 0 0 0-11.338 10.613l-9.872-6.441c-2.693-1.756-6.205-1.011-7.844 1.665l-10.26 16.757c-1.649 2.681-.79 6.285 1.903 8.05l9.972 6.531a90.798 90.798 0 0 0-4.374 15.139l-11.7-.7c-3.157-.19-5.779 2.261-5.856 5.476l-.495 20.132c-.077 3.225 2.423 5.995 5.587 6.188l11.745.71a95.407 95.407 0 0 0 3.741 15.657l-10.362 5.393c-2.782 1.449-3.807 4.974-2.288 7.876l9.51 18.175c1.524 2.912 5.02 4.095 7.806 2.636l10.382-5.405a96.798 96.798 0 0 0 10.841 12.083l-6.13 10.086c-1.649 2.717-.787 6.384 1.936 8.189l17.053 11.302c2.731 1.813 6.286 1.066 7.939-1.66l6.122-10.099a93.416 93.416 0 0 0 15.19 5.201l-.228 12.084c-.061 3.269 2.484 6.089 5.684 6.295l20.029 1.287c3.207.206 5.85-2.282 5.904-5.557l.203-11.976a86.44 86.44 0 0 0 15.465-3.222l5.702 10.74c1.561 2.939 5.109 4.138 7.911 2.678l17.546-9.133c2.801-1.46 3.81-5.025 2.243-7.96l-5.679-10.643A85.14 85.14 0 0 0 197.83 432.3l9.949 6.516c2.76 1.813 6.332 1.063 7.975-1.666l10.265-17.055c1.648-2.726.73-6.396-2.03-8.197l-9.903-6.46a91.117 91.117 0 0 0 4.384-15.482l11.481.701c3.209.196 5.841-2.281 5.877-5.531l.234-20.297c.036-3.242-2.53-6.023-5.732-6.216l-11.371-.682a95.52 95.52 0 0 0-3.986-15.943l9.93-5.168c2.789-1.452 3.781-4.971 2.215-7.861l-9.767-18.041c-1.559-2.881-5.079-4.041-7.861-2.592l-9.916 5.15a96.856 96.856 0 0 0-11.138-12.103l5.793-9.559c1.63-2.688.737-6.294-1.996-8.057l-17.058-11c-2.724-1.757-6.253-1.007-7.881 1.672l-5.839 9.603a93.364 93.364 0 0 0-15.29-5.008l.194-11.478c.055-3.194-2.472-5.933-5.634-6.11l-19.776-1.122a5.505 5.505 0 0 0-4.088 1.472 5.485 5.485 0 0 0-1.741 3.981l-.216 11.517a86.367 86.367 0 0 0-15.313 3.325l-5.533-10.366c-1.522-2.852-4.996-3.998-7.762-2.559l-17.287 8.998c-2.76 1.442-3.78 4.923-2.265 7.78zm11.472 110.417c-15.419-29.236-5.16-64.658 22.851-79.238 28.012-14.58 63.35-2.887 78.994 26.23 15.716 29.249 5.615 64.969-22.624 79.666-28.238 14.697-63.731 2.706-79.218-26.661l-.003.003z" fill="#010648"/><path d="m71.977 279.632 5.553 10.46a85.144 85.144 0 0 0-11.338 10.612l-9.87-6.441c-2.694-1.757-6.206-1.012-7.846 1.666l-10.26 16.756c-1.648 2.681-.79 6.285 1.903 8.05l9.97 6.531a90.812 90.812 0 0 0-4.375 15.132l-11.7-.702c-3.157-.19-5.779 2.263-5.856 5.478l-.486 20.132c-.078 3.224 2.422 5.994 5.586 6.187l11.744.717a95.403 95.403 0 0 0 3.74 15.665l-10.363 5.393c-2.782 1.448-3.807 4.973-2.288 7.876l9.51 18.174c1.524 2.912 5.02 4.097 7.806 2.637l10.382-5.406a96.798 96.798 0 0 0 10.841 12.083l-6.13 10.086c-1.649 2.719-.787 6.386 1.936 8.191l17.053 11.3c2.731 1.813 6.286 1.066 7.939-1.659l6.122-10.098a93.569 93.569 0 0 0 15.188 5.178l-.224 12.097c-.061 3.271 2.484 6.097 5.684 6.295l20.025 1.285c3.207.206 5.85-2.282 5.905-5.557l.202-11.976a86.497 86.497 0 0 0 15.462-3.231l5.702 10.74c1.561 2.938 5.109 4.138 7.911 2.678l17.546-9.132c2.802-1.46 3.81-5.026 2.243-7.961l-5.679-10.643a85.129 85.129 0 0 0 11.536-10.767l9.949 6.517c2.762 1.812 6.331 1.061 7.975-1.668l10.265-17.056c1.648-2.725.73-6.394-2.03-8.197l-9.903-6.46a91.012 91.012 0 0 0 4.383-15.481l11.482.702c3.209.196 5.841-2.281 5.877-5.533l.234-20.296c.036-3.242-2.53-6.024-5.732-6.217l-11.371-.682a95.403 95.403 0 0 0-3.987-15.941l9.931-5.17c2.789-1.45 3.781-4.97 2.215-7.861l-9.768-18.041c-1.559-2.88-5.079-4.041-7.861-2.592l-9.909 5.158a96.696 96.696 0 0 0-11.137-12.103l5.793-9.558c1.629-2.688.736-6.294-1.996-8.056l-17.059-11c-2.724-1.758-6.252-1.009-7.88 1.673l-5.839 9.603a93.066 93.066 0 0 0-15.291-5.01l.195-11.477c.054-3.195-2.472-5.933-5.635-6.111l-19.776-1.122a5.503 5.503 0 0 0-4.088 1.472 5.508 5.508 0 0 0-1.741 3.981l-.207 11.525a86.528 86.528 0 0 0-15.327 3.325l-5.532-10.364c-1.523-2.854-4.997-4-7.762-2.561l-17.288 8.998c-2.759 1.439-3.772 4.919-2.254 7.777zm11.471 110.417c-15.418-29.238-5.16-64.662 22.848-79.235 28.008-14.573 63.351-2.889 78.996 26.23 15.715 29.247 5.615 64.967-22.624 79.664-28.238 14.697-63.733 2.71-79.22-26.661v.002z" fill="url(#o)"/><path d="m283.208 54.646 2.785 14.26a113.032 113.032 0 0 0-17.708 8.847l-9.51-10.923a7.133 7.133 0 0 0-10.112-.623l-18.722 16.498c-2.997 2.637-3.327 7.207-.735 10.198l9.595 11.075a116.398 116.398 0 0 0-11.005 16.541l-13.896-4.725c-3.746-1.274-7.845.771-9.153 4.57l-8.201 23.795c-1.318 3.814.659 7.945 4.418 9.229l13.944 4.765a115.926 115.926 0 0 0-1.396 19.912l-14.588 2.967c-3.917.799-6.491 4.66-5.753 8.627l4.636 24.859a7.163 7.163 0 0 0 3.013 4.666 7.167 7.167 0 0 0 5.444 1.102l14.631-2.983a114.714 114.714 0 0 0 8.57 18.052l-11.251 10c-3.034 2.696-3.372 7.37-.753 10.439l16.409 19.224a7.162 7.162 0 0 0 10.262.675l11.25-10.028a114.105 114.105 0 0 0 16.48 11.282l-4.842 14.389c-1.319 3.894.713 8.125 4.524 9.445l23.846 8.265c3.819 1.318 7.972-.772 9.274-4.676l4.764-14.276a111.82 111.82 0 0 0 20.005 1.328l2.886 14.779c.789 4.044 4.641 6.671 8.604 5.864l24.77-5.051c3.955-.808 6.522-4.743 5.721-8.786l-2.903-14.652a112.841 112.841 0 0 0 18.085-9.018l9.651 11.139a7.221 7.221 0 0 0 10.326.677l18.881-16.974c3.016-2.713 3.285-7.416.602-10.492l-9.62-11.041a116.47 116.47 0 0 0 11.126-17.044l13.697 4.679a7.229 7.229 0 0 0 5.583-.387 7.218 7.218 0 0 0 3.631-4.259l7.87-24.176a7.443 7.443 0 0 0-4.642-9.338l-13.566-4.614a115.89 115.89 0 0 0 1.119-20.356l13.991-2.853a7.285 7.285 0 0 0 4.607-3.149 7.289 7.289 0 0 0 1.018-5.487l-5.125-24.758a7.299 7.299 0 0 0-8.57-5.705l-13.95 2.844a114.573 114.573 0 0 0-8.99-18.116l10.596-9.446a7.283 7.283 0 0 0 .587-10.25l-16.572-18.75a7.196 7.196 0 0 0-10.177-.628l-10.662 9.477a114.019 114.019 0 0 0-16.645-11.028l4.528-13.571a7.21 7.21 0 0 0-4.541-9.123l-23.517-7.885a7.196 7.196 0 0 0-9.097 4.54l-4.577 13.603a111.807 111.807 0 0 0-19.776-1.127L321.58 46.82a7.125 7.125 0 0 0-3.048-4.555 7.13 7.13 0 0 0-5.38-1.048l-24.285 4.944a7.254 7.254 0 0 0-5.659 8.484zM255.499 189.85c-7.644-39.984 18.128-78.733 57.515-86.767 39.387-8.034 77.837 17.62 85.911 57.515 8.123 40.139-17.54 79.434-57.366 87.56-39.826 8.127-78.372-18.088-86.06-58.308z" fill="url(#p)"/><path d="M269.434 472.691c-1.603.887-.779 3.283 1.075 3.308 6.191.084 18.517.178 18.705-.396.252-.768-2.105-4.761-2.105-4.761h-6.521s-7.953 1.66-10.486 1.66c-.235.005-.465.07-.668.189z" fill="#26264F"/><path d="m285.588 464.665 1.521 6.177s-2.307 2.032-5.109 0l-2.249-5.786 5.837-.391z" fill="url(#q)"/><path d="m392.443 449.148 5.166 5.862s-.919 3.401-3.347 2.58l-5.881-5.126 4.062-3.316z" fill="url(#r)"/><path d="m392.664 458.564-.951 1.859a4.005 4.005 0 0 1-2.896 2.088c-1.509.266-3.345.867-3.296 2.228.07 1.648 5.225 1.472 8.147 1.24a3.816 3.816 0 0 0 2.948-1.762l3.131-5.005c.719-1.154.719-2.617-.117-3.69a6.656 6.656 0 0 0-1.02-1.035c-1.996-1.644-5.946 4.077-5.946 4.077z" fill="#26264F"/><path d="M369.763 352.634c-12.137 25.265-8.538 39.305-3.882 48.049 5.319 9.994 15.433 15.78 24.268 34.196a95.19 95.19 0 0 1 5.85 15.552l-7.434 6.326c-8.929-4.969-22.704-14.155-34.608-29.696-11.63-15.19-16.02-29.334-17.352-34.039a97.132 97.132 0 0 1-2.056-43.829c12.144.954 23.077 2.492 35.214 3.441z" fill="url(#s)"/><path style="mix-blend-mode:multiply" opacity=".3" d="M379.613 438.945c-4.397-6.002-1.648-10.023-6.41-16.419-6.97-9.349-17.585-7.095-19.857-14.541-1.299-4.251 2.083-5.244 2.501-12.978.556-10.311-5.156-14.135-3.284-20.015.915-2.874 3.698-6.349 11.854-9.009a99.747 99.747 0 0 1 5.346-13.349c-12.137-.956-23.072-2.487-35.208-3.441a97.146 97.146 0 0 0 2.057 43.829c1.332 4.7 5.722 18.849 17.352 34.039 11.897 15.541 25.672 24.72 34.608 29.696l7.434-6.326c-.224-.8-.494-1.71-.796-2.687-6.383-1.312-12.048-3.949-15.597-8.799z" fill="url(#t)"/><path d="M325.331 341.216c-11.328 7.53-29.652 22.13-41.764 46.13-8.091 16.032-10.066 29.628-10.534 33.225-2.732 21.001 2.036 37.969 5.424 47.188l7.642-1.019a333.596 333.596 0 0 0 7.91-27.192c4.956-20.167 3.542-22.484 7.553-31.032 1.483-3.172 9.367-19.961 27.378-30.193 10.218-5.808 16.373-5.333 23.791-12.864 5.933-6.019 8.522-12.942 9.784-17.835l-37.184-6.408z" fill="url(#u)"/><path d="m277.551 276.348-11.638-13.514s-1.512 5.387.626 7.416c2.137 2.029 5.75 3.401 6.689 4.839.939 1.437 2.658 4.153 2.658 4.153l1.665-2.894z" fill="url(#v)"/><path d="m276.512 271.318-4.944 5.089c1.362 5.969 4.697 15.836 13.57 23.924 15.058 13.728 39.733 16.566 62.834 7.472-4.145 7.535-8.834 12.126-12.304 14.908-5.559 4.45-9.681 5.628-13.232 11.093-1.592 2.447-4.765 7.327-3.211 11.727 2.219 6.279 12.794 7.996 24.632 9.916a124.613 124.613 0 0 0 24.027 1.533 427.565 427.565 0 0 1 10.266-10.914c17.624-18.093 22.802-20.224 30.048-29.678 5.094-6.647 18.128-23.646 12.141-33.648-4.596-7.684-18.427-7.91-36.268-8.209-8.087-.133-17.605-.291-29.142 3.285-12.36 3.83-12.569 7.46-25.629 11.726-9.305 3.038-19.242 6.283-29.892 3.116-14.171-4.214-20.953-17.204-22.896-21.34z" fill="url(#w)"/><path d="M398.676 265.37s-.538 4.901 0 6.894c.537 1.992 6.427 3.733 6.427 3.733s-12.663 6.013-23.365-1.5l5.853-.574c2.868-.28 5.16-2.391 5.547-5.108l.282-1.986 5.256-1.459z" fill="url(#x)"/><path d="M394.177 270.229c-.447-.233-4.077-.66-4.577-2.507-.68-2.52 1.703-5.587 1.999-6.08 1.243-2.066 1.554-2.345 2.133-2.694l.801-.448.095-.032c.511-.164 2.242-.164 2.591-.094 1.114.251 2.203 4.615 1.717 10.736.041.234.081.469.117.708.094.62-4.909.63-4.876.411z" fill="url(#y)"/><path d="M392.338 257.058c-.431 1.648.769 3.596 1.242 3.935.276.215.514.474.706.766a.972.972 0 0 1 .108.228c.409 1.206-1.626 2.571-1.252 3.116.272.394 1.648-.097 1.798.242.15.34-1.002.95-.837 1.332.123.288.824.041 1.254.494.212.223.145.394.361 1.065.11.356.255.7.431 1.028.66 1.131 2.611 1.579 2.997 1.141.108-.122.021-.228.138-.643.094-.292.229-.57.402-.824.419-.629 1.406-1.066 2.408-1.719 1.854-1.211 2.375-2.264 2.533-2.62l.046-.112a1.98 1.98 0 0 0 .069-.181c.42-1.289-.659-2.678-1.231-3.326a18.028 18.028 0 0 0-.776-.809c-1.719-1.685-2.566-1.668-3.486-2.685-1.267-1.401-.613-2.368-1.575-2.943-1.48-.887-4.771.351-5.336 2.515z" fill="#26264F"/><path d="M393.874 264.67c.505-.63 1.351-.01 1.336.824-.015.834-.878 1.669-1.692 1.483-.815-.186-.327-1.458.356-2.307z" fill="url(#z)"/><path d="M390.047 264.34s1.57 2.09 3.367.071l.46.259s-1.648 4.573-2.566 4.665c-.918.093-1.767.43-2.426.02-.659-.41-.195-3.443 1.165-5.015z" fill="#26264F"/><path style="mix-blend-mode:multiply" opacity=".3" d="M420.331 282.74c-.096-.165-.216-.293-.318-.445-.165 3.041-.955 6.006-2.873 8.42-6.064 7.632-16.856 1.636-27.207 9.38-11.041 8.26-8.368 22.26-17.355 24.391-6.238 1.483-9.702-4.743-15.48-2.347-6.12 2.54-4.614 10.508-11.259 13.604-5.451 2.54-9.143-1.572-14.072.468-2.897 1.2-6.236 4.559-8.029 14.121 4.654 2.599 12.088 3.811 20.105 5.108a124.544 124.544 0 0 0 24.028 1.533 426.147 426.147 0 0 1 10.266-10.913c17.624-18.093 22.802-20.224 30.048-29.679 5.099-6.64 18.126-23.639 12.146-33.641z" fill="url(#A)"/><path d="m205.342 122.496 4.383-1.46c2.192-.732 4.384 1.46 5.846 3.652 1.461 2.192-.732 2.924-2.192 2.192-1.46-.732-2.924-2.922-4.384-1.46-1.46 1.462-5.109-.007-3.653-2.924z" fill="url(#B)"/><path d="M178.809 36.945c-3.179 1.289-30.174 12.517-36.296 39.523-.845 3.727-3.955 17.427 2.922 29.955 9.425 17.176 34.086 25.739 60.647 19.727l1.461-3.654c-5.056-2.757-19.985-11.773-25.572-29.224-1.453-4.54-5.481-17.124-.731-29.957 2.564-6.922 6.821-11.59 5.108-17.535-1.264-4.415-4.639-7.241-7.539-8.835z" fill="#30ABBA"/><path style="mix-blend-mode:multiply" opacity=".3" d="M154.934 102.04c.305-7.355 5.038-10.75 5.109-21.189.069-9.383-3.708-12.918-4.384-18.996-.369-3.323.205-7.337 2.789-12.108-6.765 6.242-13.275 14.983-15.935 26.72-.845 3.728-3.955 17.428 2.922 29.956 4.37 7.964 12.019 14.073 21.612 17.738-10.188-9.32-12.335-16.752-12.113-22.121z" fill="#6165D7"/><path d="m300.226 148.164-5.051 11.498 24.695 35.592 29.142-7.595 9.25-10.117-58.036-29.378z" fill="url(#C)"/><path d="M315.322 183.448a1.553 1.553 0 0 1-1.037-.591l-18.786-24.037-5.699 15.261c-.795 2.135-.409 4.43.985 5.844 12.764 12.951 26.554 21.499 42.256 21.885a5.483 5.483 0 0 0 3.997-1.767l12.236-12.658-33.952-3.937z" fill="url(#D)"/><path d="m291.222 143.007 47.051 4.09c.411.038.789.237 1.052.554l30.246 35.486c1.124 1.318-.119 3.668-1.839 3.468l-50.981-5.919a1.542 1.542 0 0 1-1.049-.588l-26.316-33.672c-1.036-1.326.163-3.564 1.836-3.419z" fill="url(#E)"/><path d="M365.056 183.771h-.031l-47.289-5.434a.255.255 0 0 1-.179-.101l-24.104-31.227a.254.254 0 0 1-.056-.195.27.27 0 0 1 .033-.099.267.267 0 0 1 .069-.077.251.251 0 0 1 .196-.054.266.266 0 0 1 .175.103l24.042 31.14 47.173 5.419a.26.26 0 0 1 .159.452.265.265 0 0 1-.188.066v.007z" fill="#7D97F4"/><path d="M325.923 159.566s28.695 21.17 29.85 25.309c.58 2.072-1.891 15.08-1.891 15.08 4.727 14.433 5.976 30.259-.694 38.832 0 0-9.4-18.851-5.867-27.096 3.533-8.244 4.885-11.622 4.885-11.622s2.248-12.881 1.075-15.469c0 0-29.552-23.894-27.358-25.034z" fill="url(#F)"/><path d="m352.31 208.902-.05.054-.054.072-.114.146-.215.316c-.142.212-.259.442-.399.665l-.347.697c-.106.238-.199.487-.3.73-.1.245-.186.495-.259.749-.078.259-.166.505-.236.762l-.184.777a7.3 7.3 0 0 0-.166.777l-.127.792c-.038.259-.093.518-.106.798-.041.534-.09 1.07-.127 1.606l-.013 1.616v.404l.026.404.052.809c.034 1.082.225 2.152.355 3.227.028.259.083.534.137.8l.158.798c.109.531.207 1.067.324 1.596.28 1.049.541 2.105.842 3.152l1.01 3.108a.186.186 0 0 1-.009.139.181.181 0 0 1-.244.082.185.185 0 0 1-.092-.104l-1.098-3.108c-.329-1.037-.619-2.106-.932-3.158-.132-.534-.244-1.072-.368-1.606l-.181-.805a7.82 7.82 0 0 1-.161-.809c-.161-1.087-.383-2.17-.448-3.274l-.073-.826-.036-.412v-.414l-.031-1.66c.023-.555.06-1.109.088-1.663 0-.278.054-.552.088-.829l.109-.829c.028-.277.098-.549.153-.824l.173-.821c.068-.259.153-.539.228-.808.072-.272.159-.54.259-.803.101-.259.195-.531.303-.793l.358-.777c.142-.259.259-.505.422-.751l.238-.368.135-.181.067-.091.086-.101a.53.53 0 0 1 .354-.186.512.512 0 0 1 .381.119.52.52 0 0 1 .165.557.52.52 0 0 1-.097.179l-.044.07z" fill="#7D97F4"/><path d="m353.385 215.665.038 1.036.057 1.145.122 2.331.259 4.641.557 9.284a.282.282 0 0 1-.259.3.287.287 0 0 1-.303-.259l-.795-9.268-.386-4.636-.181-2.331-.086-1.163-.039-.586-.018-.295v-.414a.521.521 0 0 1 .509-.422.514.514 0 0 1 .509.422l.016.215z" fill="#7D97F4"/></g><defs><linearGradient id="r" x1="387.423" y1="432.537" x2="406.655" y2="505.714" gradientUnits="userSpaceOnUse"><stop stop-color="#FFC444"/><stop offset="1" stop-color="#F36F56"/></linearGradient><linearGradient id="b" x1="307.439" y1="38.465" x2="286.25" y2="75.91" gradientUnits="userSpaceOnUse"><stop stop-color="#FFC444"/><stop offset="1" stop-color="#F36F56"/></linearGradient><linearGradient id="d" x1="139.893" y1="261.964" x2="136.239" y2="232.006" gradientUnits="userSpaceOnUse"><stop stop-color="#FFC444"/><stop offset="1" stop-color="#F36F56"/></linearGradient><linearGradient id="e" x1="172.225" y1="264.971" x2="183.766" y2="264.971" gradientUnits="userSpaceOnUse"><stop stop-color="#444B8C"/><stop offset="1" stop-color="#26264F"/></linearGradient><linearGradient id="f" x1="174.425" y1="264.614" x2="164.196" y2="229.544" gradientUnits="userSpaceOnUse"><stop stop-color="#FFC444"/><stop offset="1" stop-color="#F36F56"/></linearGradient><linearGradient id="g" x1="132.821" y1="190.055" x2="155.288" y2="190.419" gradientUnits="userSpaceOnUse"><stop stop-color="#AA80F9"/><stop offset="1" stop-color="#6165D7"/></linearGradient><linearGradient id="h" x1="165.012" y1="180.472" x2="130.306" y2="207.323" gradientUnits="userSpaceOnUse"><stop stop-color="#AA80F9"/><stop offset="1" stop-color="#6165D7"/></linearGradient><linearGradient id="i" x1="160.127" y1="53.587" x2="26.419" y2="-29.707" gradientUnits="userSpaceOnUse"><stop stop-color="#010648"/><stop offset="1" stop-color="#6165D7"/></linearGradient><linearGradient id="j" x1="235.541" y1="29.639" x2="91.751" y2="195.859" gradientUnits="userSpaceOnUse"><stop stop-color="#389FBF"/><stop offset="1" stop-color="#30ABBA"/></linearGradient><linearGradient id="k" x1="181.968" y1="39.818" x2="208.016" y2="39.818" gradientUnits="userSpaceOnUse"><stop stop-color="#FF9085"/><stop offset="1" stop-color="#FB6FBB"/></linearGradient><linearGradient id="l" x1="192.792" y1="55.683" x2="201.193" y2="5.269" gradientUnits="userSpaceOnUse"><stop stop-color="#FFC444"/><stop offset="1" stop-color="#F36F56"/></linearGradient><linearGradient id="m" x1="201.117" y1="21.577" x2="208.329" y2="49.88" gradientUnits="userSpaceOnUse"><stop stop-color="#FFC444"/><stop offset="1" stop-color="#F36F56"/></linearGradient><linearGradient id="n" x1="492.808" y1="32.904" x2="333.842" y2="171.164" gradientUnits="userSpaceOnUse"><stop stop-color="#311944"/><stop offset="1" stop-color="#893976"/></linearGradient><linearGradient id="o" x1="76.889" y1="372.182" x2="100.035" y2="299.715" gradientUnits="userSpaceOnUse"><stop stop-color="#30ABBA"/><stop offset="1" stop-color="#6165D7"/></linearGradient><linearGradient id="p" x1="386.013" y1="12.186" x2="196.708" y2="541.502" gradientUnits="userSpaceOnUse"><stop stop-color="#FC9D8A"/><stop offset="1" stop-color="#F7C479"/></linearGradient><linearGradient id="q" x1="281.493" y1="460.379" x2="300.725" y2="533.555" gradientUnits="userSpaceOnUse"><stop stop-color="#FFC444"/><stop offset="1" stop-color="#F36F56"/></linearGradient><linearGradient id="c" x1="133.746" y1="251.146" x2="142.8" y2="251.146" gradientUnits="userSpaceOnUse"><stop stop-color="#444B8C"/><stop offset="1" stop-color="#26264F"/></linearGradient><linearGradient id="s" x1="332.971" y1="402.974" x2="395.999" y2="402.974" gradientUnits="userSpaceOnUse"><stop stop-color="#010648"/><stop offset="1" stop-color="#010648"/></linearGradient><linearGradient id="t" x1="395.85" y1="380.114" x2="303.911" y2="441.409" gradientUnits="userSpaceOnUse"><stop stop-color="#311944"/><stop offset="1" stop-color="#893976"/></linearGradient><linearGradient id="u" x1="357.408" y1="468.204" x2="289.86" y2="357.5" gradientUnits="userSpaceOnUse"><stop stop-color="#010648"/><stop offset="1" stop-color="#010648"/></linearGradient><linearGradient id="v" x1="265.393" y1="271.048" x2="277.551" y2="271.048" gradientUnits="userSpaceOnUse"><stop stop-color="#FFC444"/><stop offset="1" stop-color="#F36F56"/></linearGradient><linearGradient id="w" x1="346.955" y1="282.809" x2="363.217" y2="352.235" gradientUnits="userSpaceOnUse"><stop stop-color="#6165D7"/><stop offset="1" stop-color="#30ABBA"/></linearGradient><linearGradient id="x" x1="387.486" y1="267.834" x2="404.686" y2="281.124" gradientUnits="userSpaceOnUse"><stop stop-color="#FFC444"/><stop offset="1" stop-color="#F36F56"/></linearGradient><linearGradient id="y" x1="391.917" y1="262.099" x2="409.118" y2="275.39" gradientUnits="userSpaceOnUse"><stop stop-color="#FFC444"/><stop offset="1" stop-color="#F36F56"/></linearGradient><linearGradient id="z" x1="390.955" y1="263.343" x2="408.155" y2="276.634" gradientUnits="userSpaceOnUse"><stop stop-color="#FFC444"/><stop offset="1" stop-color="#F36F56"/></linearGradient><linearGradient id="A" x1="363.479" y1="278.94" x2="379.74" y2="348.364" gradientUnits="userSpaceOnUse"><stop stop-color="#E38DDD"/><stop offset="1" stop-color="#9571F6"/></linearGradient><linearGradient id="B" x1="215.581" y1="115.769" x2="194.392" y2="153.214" gradientUnits="userSpaceOnUse"><stop stop-color="#FFC444"/><stop offset="1" stop-color="#F36F56"/></linearGradient><linearGradient id="C" x1="369.217" y1="115.37" x2="320.792" y2="172.901" gradientUnits="userSpaceOnUse"><stop stop-color="#010648"/><stop offset="1" stop-color="#010648"/></linearGradient><linearGradient id="D" x1="366.593" y1="103.279" x2="305.272" y2="200.131" gradientUnits="userSpaceOnUse"><stop stop-color="#09005D"/><stop offset="1" stop-color="#1A0F91"/></linearGradient><linearGradient id="E" x1="349.245" y1="98.046" x2="313.838" y2="193.919" gradientUnits="userSpaceOnUse"><stop stop-color="#6165D7"/><stop offset="1" stop-color="#010648"/></linearGradient><linearGradient id="F" x1="336.732" y1="168.831" x2="364.188" y2="235.658" gradientUnits="userSpaceOnUse"><stop stop-color="#09005D"/><stop offset="1" stop-color="#1A0F91"/></linearGradient><clipPath id="a"><path fill="#fff" d="M0 0h480v480H0z"/></clipPath></defs></svg>