<svg width="262.921" height="240" fill="none" xmlns="http://www.w3.org/2000/svg"><g clip-path="url(#a)" transform="translate(-.19 -1.274) scale(1.00233)"><path d="M238.124 103.55c-6.546-42.723-33.381-95.206-86.402-100.698 0 0-40.253-4.883-79.931 2.516C48.24 9.76 27.59 22.833 14.523 41.621S-2.91 83.32 2.388 105.16c3.44 14.186 5.765 28.869 5.127 43.443-1.11 25.371-.47 49.052 24.221 64.183 22.048 13.511 49.796 25.425 76.267 27.511 17.99 1.419 38.165-.876 55.503-5.546 88.363-23.792 81.163-88.485 74.618-131.201z" fill="#f4f7fa"/><path d="m199.174 63.784-6.844.012a48.577 48.577 0 0 0-3.173-12.9l5.786-3.347c1.581-.915 2.123-2.978 1.211-4.612l-2.431-4.361c-.918-1.645-2.955-2.249-4.553-1.345l-5.715 3.233a50.247 50.247 0 0 0-9.434-9.946l3.287-5.63c.944-1.616.384-3.742-1.252-4.753l-4.374-2.707c-1.653-1.026-3.773-.54-4.736 1.085l-3.295 5.572a51.318 51.318 0 0 0-13.632-4.145v-6.61c0-1.95-1.609-3.604-3.602-3.694l-5.324-.24c-2.016-.093-3.655 1.43-3.655 3.401v6.682a51.934 51.934 0 0 0-14.276 3.25l-3.555-6.04c-1.045-1.776-3.366-2.464-5.187-1.532l-4.872 2.49c-1.842.941-2.474 3.16-1.409 4.946l3.688 6.18a51.383 51.383 0 0 0-10.691 10.103l-6.663-3.762c-1.887-1.066-4.313-.513-5.412 1.24l-2.932 4.683c-1.106 1.765-.45 4.056 1.458 5.11l6.895 3.805a48.985 48.985 0 0 0-3.765 14.018l-8.271.013c-2.23 0-4.037 1.687-4.037 3.758v5.51c0 2.07 1.81 3.728 4.037 3.7l8.49-.106a48.524 48.524 0 0 0 4.146 13.63l-7.495 4.24c-1.911 1.082-2.567 3.381-1.458 5.13l2.928 4.638c1.1 1.738 3.523 2.256 5.412 1.164l7.581-4.383a50.502 50.502 0 0 0 10.463 9.321l-4.374 7.392c-1.065 1.802-.429 4.01 1.409 4.926l4.872 2.422c1.821.905 4.142.185 5.187-1.605l4.333-7.424a51.509 51.509 0 0 0 13.498 2.79v8.276c0 1.967 1.639 3.471 3.655 3.351l5.327-.318c1.989-.118 3.602-1.796 3.602-3.744v-8.185a51.93 51.93 0 0 0 12.905-3.98l4.022 6.745c.96 1.611 3.082 2.065 4.736 1.019l4.374-2.769c1.635-1.035 2.195-3.17 1.252-4.771l-3.905-6.628a51.229 51.229 0 0 0 9.251-9.475l6.511 3.591c1.597.882 3.634.249 4.552-1.408l2.431-4.395c.912-1.648.371-3.703-1.211-4.595l-6.295-3.558a48.965 48.965 0 0 0 3.5-12.657l7.033-.085c1.812-.022 3.276-1.549 3.276-3.409v-4.947c-.004-1.859-1.468-3.36-3.28-3.36zm-55.412 40.727c-20.256.749-37.201-14.926-37.201-35.033s16.945-35.997 37.201-35.506c19.565.475 34.943 16.159 34.943 35.046s-15.378 34.767-34.943 35.491z" fill="#97a6b7"/><path d="m121.099 14.898-4.874-.168-1.681 4.358zM169.438 16.909l5.621.056v4.134zM190.861 36.853l5.603.226-1.4 3.128zM199.658 63.842l5.66.446-1.849 2.738zM190.245 102.56l5.491.783.672-4.47zM169.232 122.73l4.931.894.392-3.631zM144.577 131.446l-4.426-.782 3.81-5.643zM120.595 126.697l-5.154-1.062 3.977-4.804zM91.627 34.62l5.379.168-2.13 3.91zM80.924 76.691l4.93.727-.391-4.023zM91.514 106.137l4.82.781.391-3.184z" fill="#97a6b7"/><path d="m204.704 64.226-6.902.012a48.882 48.882 0 0 0-3.198-13.007l5.832-3.373c1.595-.922 2.144-3.002 1.221-4.65l-2.453-4.395c-.925-1.658-2.978-2.267-4.59-1.354l-5.762 3.26a50.654 50.654 0 0 0-9.509-10.03l3.315-5.676c.951-1.625.387-3.773-1.263-4.79l-4.411-2.728c-1.668-1.032-3.808-.544-4.776 1.094l-3.322 5.618a51.762 51.762 0 0 0-13.746-4.178V13.36c0-1.967-1.622-3.633-3.628-3.724l-5.371-.24c-2.033-.093-3.688 1.442-3.688 3.43v6.735a52.388 52.388 0 0 0-14.394 3.28l-3.585-6.09c-1.054-1.79-3.393-2.48-5.231-1.544l-4.912 2.511c-1.858.95-2.495 3.185-1.421 4.986l3.714 6.23a51.84 51.84 0 0 0-10.779 10.186l-6.718-3.79c-1.905-1.074-4.35-.517-5.456 1.25l-2.95 4.713c-1.115 1.78-.453 4.089 1.474 5.152l6.954 3.836a49.393 49.393 0 0 0-3.797 14.133l-8.34.013c-2.244 0-4.069 1.7-4.069 3.789v5.558c0 2.089 1.825 3.763 4.07 3.73l8.561-.105a48.9 48.9 0 0 0 4.175 13.735l-7.555 4.275c-1.928 1.09-2.59 3.41-1.475 5.173l2.954 4.675c1.107 1.752 3.551 2.274 5.456 1.173l7.644-4.419a50.9 50.9 0 0 0 10.549 9.399l-4.407 7.452c-1.074 1.816-.437 4.042 1.421 4.966l4.912 2.442c1.836.912 4.176.185 5.231-1.618l4.374-7.485a52.006 52.006 0 0 0 13.607 2.813v8.343c0 1.988 1.652 3.5 3.688 3.379l5.371-.321c2.006-.119 3.628-1.809 3.628-3.774v-8.253a52.387 52.387 0 0 0 13.013-4.011l4.055 6.799c.968 1.625 3.108 2.082 4.776 1.026l4.411-2.791c1.65-1.043 2.214-3.195 1.263-4.81l-3.937-6.685a51.686 51.686 0 0 0 9.328-9.553l6.565 3.622c1.612.889 3.665.252 4.59-1.419l2.452-4.431c.919-1.662.374-3.733-1.221-4.633l-6.347-3.58a49.34 49.34 0 0 0 3.53-12.76l7.087-.086c1.827-.023 3.304-1.561 3.304-3.437v-4.987c-.009-1.877-1.486-3.395-3.312-3.392zm-55.871 41.058c-20.421.755-37.511-15.045-37.511-35.319 0-20.273 17.09-36.29 37.511-35.794 19.725.478 35.232 16.29 35.232 35.331 0 19.041-15.506 35.052-35.232 35.782z" fill="#d8dee8"/><path d="m221.632 158.123-3.683-.684c.2-2.426.065-4.868-.401-7.258l3.451-1.217c.943-.332 1.442-1.387 1.115-2.358l-.867-2.59c-.326-.977-1.361-1.506-2.315-1.182l-3.395 1.165a27.458 27.458 0 0 0-4.063-6.3l2.338-2.697c.67-.77.585-1.974-.193-2.683l-2.078-1.896c-.787-.716-1.973-.67-2.659.107l-2.336 2.666a27.996 27.996 0 0 0-6.912-3.602l.669-3.554c.198-1.049-.5-2.1-1.561-2.349l-2.84-.667c-1.075-.256-2.111.402-2.31 1.463l-.677 3.592a28.395 28.395 0 0 0-8.007.312l-1.3-3.607c-.382-1.059-1.561-1.663-2.634-1.346l-2.873.85a1.915 1.915 0 0 0-1.383 1.743 1.9 1.9 0 0 0 .125.775l1.355 3.694a28.173 28.173 0 0 0-6.775 4.357l-3.203-2.692c-.908-.763-2.268-.71-3.036.122l-2.049 2.223c-.772.838-.652 2.138.269 2.895l3.323 2.737a26.814 26.814 0 0 0-3.445 7.159l-4.441-.822c-1.201-.221-2.342.501-2.552 1.615l-.557 2.963c-.21 1.112.596 2.187 1.796 2.394l4.577.798c-.1 2.61.186 5.221.849 7.747l-4.46 1.527c-1.137.389-1.723 1.56-1.305 2.611l1.105 2.789c.415 1.045 1.667 1.569 2.794 1.171l4.519-1.594a27.606 27.606 0 0 0 4.682 6.066l-3.098 3.536c-.756.862-.639 2.113.257 2.791l2.374 1.796c.887.669 2.209.513 2.952-.342l3.082-3.557a28.157 28.157 0 0 0 6.977 2.86l-.839 4.447c-.199 1.06.531 2.032 1.63 2.17l2.896.365c1.083.137 2.117-.603 2.316-1.651l.829-4.402c2.474.04 4.943-.242 7.343-.841l1.48 4.032c.354.964 1.449 1.421 2.444 1.026l2.633-1.048c.985-.393 1.502-1.484 1.157-2.441l-1.428-3.958a28.094 28.094 0 0 0 5.934-4.165l3.129 2.594c.772.636 1.93.501 2.591-.299l1.752-2.119c.658-.794.575-1.953-.185-2.593l-3.027-2.544c1.34-2 2.404-4.171 3.164-6.454l3.789.661c.977.171 1.919-.504 2.107-1.504l.501-2.661c.192-1.004-.443-1.961-1.417-2.142zm-33.924 16.32c-10.969-1.636-18.496-11.771-16.46-22.585 2.036-10.813 12.759-17.652 23.601-15.349 10.475 2.223 17.153 12.208 15.245 22.365-1.908 10.157-11.792 17.153-22.386 15.569z" fill="#97a6b7"/><path d="m184.594 123.973-2.605-.581-1.346 2.174zM210.386 129.921l3.017.596-.418 2.223zM219.887 142.804l2.991.685-1.07 1.542zM221.886 158.204l2.999.809-1.272 1.287zM212.902 178.079l2.874.973.815-2.337zM199.56 186.81l2.561.977.579-1.913zM185.419 189.015l-2.302-.866 2.621-2.651zM173.002 184.047l-2.665-1.09 2.626-2.183zM166.745 131.612l2.877.632-1.541 1.889zM156.73 153.161l2.578.887.196-2.203zM159.444 170.062l2.512.906.534-1.674z" fill="#97a6b7"/><path d="m224.56 158.918-3.712-.684a26.763 26.763 0 0 0-.405-7.317l3.479-1.227c.951-.336 1.458-1.399 1.127-2.378l-.873-2.611c-.329-.985-1.372-1.519-2.331-1.191l-3.43 1.173a27.656 27.656 0 0 0-4.098-6.351l2.357-2.719c.676-.78.59-1.99-.193-2.705l-2.096-1.912c-.793-.722-1.994-.675-2.68.108l-2.356 2.687a28.266 28.266 0 0 0-6.969-3.631l.675-3.583c.199-1.057-.504-2.117-1.574-2.368l-2.864-.672c-1.083-.257-2.128.405-2.329 1.474l-.682 3.622a28.71 28.71 0 0 0-8.073.314l-1.312-3.635c-.385-1.068-1.573-1.677-2.658-1.357l-2.896.855a1.932 1.932 0 0 0-1.195.991 1.915 1.915 0 0 0-.074 1.548l1.366 3.724a28.382 28.382 0 0 0-6.827 4.393l-3.23-2.715c-.916-.77-2.287-.716-3.061.123l-2.066 2.24c-.78.844-.658 2.153.271 2.919l3.351 2.763a27.024 27.024 0 0 0-3.474 7.217l-4.486-.832c-1.208-.224-2.361.505-2.573 1.625l-.563 2.987c-.211 1.123.601 2.206 1.812 2.416l4.615.805c-.1 2.631.189 5.263.857 7.81l-4.496 1.539c-1.147.393-1.738 1.573-1.317 2.633l1.115 2.812c.419 1.054 1.68 1.581 2.816 1.18l4.558-1.606a27.82 27.82 0 0 0 4.717 6.116l-3.118 3.563c-.763.869-.644 2.13.257 2.814l2.395 1.808c.894.675 2.229.52 2.976-.343l3.108-3.584a28.467 28.467 0 0 0 7.032 2.882l-.844 4.487c-.202 1.069.534 2.049 1.639 2.188l2.916.369c1.092.137 2.135-.608 2.334-1.665l.836-4.439a28.587 28.587 0 0 0 7.404-.847l1.492 4.065c.357.972 1.458 1.433 2.465 1.033l2.655-1.057c.993-.395 1.514-1.495 1.166-2.459l-1.44-3.992a28.287 28.287 0 0 0 5.984-4.198l3.164 2.609c.777.64 1.946.504 2.612-.302l1.768-2.138c.662-.8.578-1.967-.188-2.614l-3.052-2.566a27.046 27.046 0 0 0 3.191-6.507l3.82.667c.984.171 1.934-.508 2.124-1.516l.505-2.682c.2-1.009-.441-1.973-1.424-2.156zm-34.204 16.456c-11.059-1.65-18.651-11.868-16.593-22.769 2.059-10.902 12.865-17.796 23.797-15.479 10.561 2.244 17.3 12.309 15.372 22.548-1.928 10.24-11.896 17.294-22.576 15.7z" fill="#d8dee8"/><path d="M64.181 182.024c-1.993 3.296-5.468 7.77-9.23 12.96l62.78 9.064c-7.023-19.063-16.922-39.081-2.137-72.185 6.939-15.534 25.381-42.843 17.79-61.059-8.648-20.75-25.757-11.79-30.098-27.853C96.501 17.84 75.07.375 52.039 12.854c-22.727 12.314-21.963 57.313 7.982 106.54 17.474 37.743 14.572 45.421 4.16 62.63z" fill="url(#b)" style="fill:url(#b)"/><mask id="c" maskUnits="userSpaceOnUse" x="36" y="8" width="100" height="197"><path d="M64.181 182.024c-1.993 3.296-5.468 7.77-9.23 12.96l62.78 9.064c-7.023-19.063-16.922-39.081-2.137-72.185 6.939-15.534 25.381-42.843 17.79-61.059-8.648-20.75-25.757-11.79-30.098-27.853C96.501 17.84 75.07.375 52.039 12.854c-22.727 12.314-21.963 57.313 7.982 106.54 17.474 37.743 14.572 45.421 4.16 62.63z" fill="#fff"/></mask><g style="mix-blend-mode:soft-light" fill="#fcfdfe" mask="url(#c)"><path d="M87.936 196.042c.453-8.221.463-15.998.473-24.232v-2.746c-.24-3.964-.369-7.881-.493-11.668-.281-8.551-.547-16.628-2-25.204-.027-.501-.03-.987-.032-1.503-.01-1.839-.02-3.742-1.09-5.558l-.026-.076C80.454 79.701 66.684 34.475 43.842-9.367l.327-.171c22.856 43.87 36.639 89.13 40.962 134.518 1.101 1.894 1.115 3.92 1.121 5.71 0 .513.005.993.03 1.464 1.458 8.579 1.715 16.668 2.002 25.233.124 3.784.257 7.696.493 11.67v2.756c-.01 8.239-.02 16.021-.474 24.252z"/><path d="M87.513 155.824c-.403-21.449 10.942-46.927 20.531-64.524 10.384-19.057 21.001-33.232 21.108-33.373l.294.22c-.106.141-10.709 14.298-21.082 33.333-9.566 17.556-20.885 42.97-20.483 64.338zM73.065 62.607c-1.7-22.737 1.801-46.991 2.946-54.961.22-1.525.364-2.532.358-2.727l.368-.013c.007.219-.106 1.014-.362 2.792-1.148 7.96-4.64 32.184-2.943 54.881zM81.267 98.964c-7.694-19.588-47.923-36.956-48.327-37.13l.145-.336c.406.17 40.775 17.602 48.525 37.332z"/></g><path d="M64.597 112.833c.343 29.06 14.398 19.485 27.358 22.353 14.959 21.582 16.369 41.605-5.966 58.897L61.1 190.37c-9.233-.428-20.069-3.242-19.457-15.502.69-13.866 3.98-22.674-11.716-29.483-15.696-6.81-22.438-19.236-16.082-33.369 6.69-14.874-9-34.923 2.466-44.888 19.978-17.364 47.931 15.444 48.285 45.705z" fill="url(#d)" style="fill:url(#d)"/><mask id="e" maskUnits="userSpaceOnUse" x="11" y="62" width="93" height="133"><path d="M64.597 112.833c.343 29.06 14.398 19.485 27.358 22.353 14.959 21.582 16.369 41.605-5.966 58.897L61.1 190.37c-9.233-.428-20.069-3.242-19.457-15.502.69-13.866 3.98-22.674-11.716-29.483-15.696-6.81-22.438-19.236-16.082-33.369 6.69-14.874-9-34.923 2.466-44.888 19.978-17.364 47.931 15.444 48.285 45.705z" fill="#fff"/></mask><g style="mix-blend-mode:soft-light" fill="#fcfdfe" mask="url(#e)"><path d="M70.775 164.838a190.188 190.188 0 0 1-26.758-37.437c-7.427-13.623-13.09-27.992-16.827-42.708a173.31 173.31 0 0 1-4.498-25.553l.375-.037a172.91 172.91 0 0 0 4.487 25.498c3.731 14.686 9.38 29.025 16.794 42.621a189.833 189.833 0 0 0 26.704 37.363zM43.988 180.799l-.171-.334c4.622-2.349 10.074-4.18 16.21-5.443a63.247 63.247 0 0 1 8.623-1.177l.025.374a62.875 62.875 0 0 0-8.577 1.174c-6.097 1.253-11.517 3.07-16.11 5.406z"/><path d="M48.862 135.693c-12.85-12.396-40.206-11.264-40.48-11.248l-.018-.376c.278-.012 27.792-1.155 40.762 11.354zM33.016 103.342c-3.85-19.775 11.017-42.628 11.168-42.856l.314.206c-.15.227-14.93 22.954-11.112 42.579z"/></g><path d="m237.645 199.479-222.454-1.946v5.769c0 1.566.97 2.896 2.284 3.134l62.904 11.359a8.575 8.575 0 0 0 2.256.107l152.593-12.955c1.362-.115 2.417-1.454 2.417-3.06z" fill="url(#f)" style="fill:url(#f)"/><path d="M156.917 190.128 17.491 200.681c-2.495.189-4.523-1.817-4.523-4.482V89.446c0-2.664 2.028-4.825 4.523-4.825h139.426c2.058 0 3.718 1.953 3.718 4.362v96.502c0 2.409-1.662 4.487-3.718 4.643z" fill="url(#g)" style="fill:url(#g)"/><path d="M159.141 190.128 19.714 200.681c-2.495.189-4.523-1.817-4.523-4.482V89.446c0-2.664 2.028-4.825 4.523-4.825h139.427c2.058 0 3.717 1.953 3.717 4.362v96.502c0 2.409-1.662 4.487-3.717 4.643z" fill="url(#h)" style="fill:url(#h)"/><path d="m154.797 183.324-129.86 9.163c-2.03.144-3.681-1.503-3.681-3.677V95.35c0-2.175 1.65-3.946 3.68-3.955l129.861-.575c1.695-.008 3.067 1.592 3.067 3.573v85.127c0 1.982-1.372 3.685-3.067 3.804z" fill="url(#i)" style="fill:url(#i)"/><path d="M94.352 87.54c0 .993-.718 1.797-1.604 1.803-.886.006-1.608-.802-1.608-1.796 0-.995.72-1.801 1.608-1.801.887 0 1.603.803 1.603 1.795z" fill="#fff"/><path d="M125.548 160.846c-10.749-6.194-19.2 1.655-27.359-6.09-4.945-4.694-2.517-8.195-8.602-15.21-6.739-7.771-11.127-5.159-17.9-12.152-8.563-8.844-4.28-15.724-11.656-22.072-8.949-7.703-18.6-.574-27.118-7.96-3.674-3.187-5.69-7.818-6.743-12.742h-8.333c-1.458 0-2.646 1.268-2.646 2.832v110.659c0 1.564 1.186 2.742 2.646 2.631l142.099-10.803c.697-.053 1.315-.489 1.715-1.121-10.401-.406-16.792-4.142-20.877-8.002-7.994-7.552-6.608-15-15.226-19.97z" fill="#fff" style="mix-blend-mode:soft-light" opacity=".48"/><path d="M164.697 189.649 15.191 200.758l65.188 11.771a8.575 8.575 0 0 0 2.256.107l155.01-13.157-70.571-9.754a11.313 11.313 0 0 0-2.377-.076z" fill="url(#j)" style="fill:url(#j)"/><path style="mix-blend-mode:multiply;fill:url(#k)" opacity=".3" d="m37.007 201.037 124.468-9.386 38.522 5.283L76.6 206.966z" fill="url(#k)"/><g opacity=".75" fill="#fff"><path d="m47.75 98.734-14.3.05v-4.615h14.3zM122.676 98.473l-65.843.23v-4.534h65.843zM70.636 106.315l-13.803.13v-4.533l13.803-.082zM143.04 105.633l-63.634.599v-4.453l63.634-.379zM70.636 113.976l-13.803.212v-4.532l13.803-.165zM143.04 112.863l-63.634.979v-4.455l63.634-.757zM47.75 122.125l-14.3.305v-4.614l14.3-.255zM122.676 120.527l-65.843 1.405v-4.534l65.843-1.174zM70.636 129.298l-13.803.376v-4.533l13.803-.328zM143.04 127.323l-63.634 1.736v-4.454l63.634-1.514zM70.636 136.959l-13.803.458v-4.532l13.803-.411zM143.04 134.554l-63.634 2.114v-4.455l63.634-1.891zM70.636 144.62l-13.803.541v-4.534l13.803-.492zM143.04 141.784l-63.634 2.492v-4.454l63.634-2.271zM92.943 151.274l-13.326.601v-4.453l13.326-.555zM152.757 148.576l-51.345 2.317v-4.379l51.345-2.137zM47.75 161.11l-14.3.73v-4.614l14.3-.681zM122.676 157.285l-65.843 3.361v-4.532l65.843-3.133zM70.636 167.603l-13.803.787v-4.534l13.803-.739zM143.04 163.476l-63.634 3.627v-4.455l63.634-3.405zM70.636 175.263l-13.803.869v-4.533l13.803-.82zM143.04 170.706l-63.634 4.006v-4.455l63.634-3.784zM47.75 184.501l-14.3.985v-4.614l14.3-.935zM122.676 179.339l-65.843 4.536v-4.532l65.843-4.307z"/></g><path d="M211.921 135.383c-8.121 15.982-19.165 17.679-22.422 17.841v.013s.096.008-.147 0-.149 0-.149 0v-.013c-2.96-.133-10.646-1.315-17.934-10.72a44.424 44.424 0 0 1-4.479-7.121c-9.434-18.565-2.573-28.127-2.573-28.127l24.988-.06h.296l10.647.027 14.383.033s6.824 9.562-2.61 28.127z" fill="url(#l)" style="fill:url(#l)"/><path d="M189.39 110.848c14.012 0 25.371-1.435 25.371-3.205 0-1.769-11.359-3.204-25.371-3.204-14.011 0-25.37 1.435-25.37 3.204 0 1.77 11.359 3.205 25.37 3.205z" fill="url(#m)" style="fill:url(#m)"/><path style="mix-blend-mode:multiply;fill:url(#n)" opacity=".3" d="M211.921 135.383c-8.121 15.982-19.165 17.679-22.422 17.841v.013s.096.008-.147 0-.149 0-.149 0v-.013c-2.96-.133-10.646-1.315-17.934-10.72.042-8.661 20.193-14.545 26.489-18.558 7.964-5.077 1.556-16.299 1.556-16.299.308-.146.608-.287.908-.422l14.345.034s6.788 9.559-2.646 28.124z" fill="url(#n)"/><path d="M150.79 79.495c7.307 0 13.23-7.558 13.23-16.88s-5.923-16.88-13.23-16.88-13.23 7.558-13.23 16.88 5.923 16.88 13.23 16.88z" fill="url(#o)" style="fill:url(#o)"/><path d="M234.342 66.418c0 21-20.836 38.021-46.537 38.021a56.434 56.434 0 0 1-11.44-1.159c-20.169-4.164-35.096-19.088-35.096-36.858 0-20.997 20.836-38.02 46.536-38.02 7.221 0 14.057 1.344 20.155 3.742 15.61 6.132 26.382 19.178 26.382 34.274z" fill="url(#p)" style="fill:url(#p)"/><path d="m156.729 83.774 35.882 3.122c7.931.69 14.774-5.496 15.051-13.906l.296-8.974c.128-3.86-2.836-7.08-6.57-7.175l-51.15-1.316c-2.97-.076-5.35 2.616-5.35 6.002v7.877c0 7.39 5.225 13.793 11.841 14.37z" fill="#f4f7fa"/><path d="m155.868 78.642 38.393 2.822c5.671.417 10.515-4.053 10.703-10.024l.125-3.963c.121-3.83-2.811-7.038-6.499-7.15l-45.77-1.396c-3.002-.091-5.408 2.598-5.413 5.995l-.005 3.517c-.007 5.3 3.745 9.853 8.466 10.199z" fill="url(#q)" style="fill:url(#q)"/><path style="mix-blend-mode:multiply;fill:url(#r)" opacity=".3" d="M234.342 66.418c0 21-20.836 38.021-46.536 38.021a56.426 56.426 0 0 1-11.44-1.159c-3.62-11.391 16.835-23.885 28.598-31.845 14.409-9.749 3.002-39.296 3.002-39.296 15.604 6.137 26.376 19.183 26.376 34.28z" fill="url(#r)"/><path d="M227.991 86.114c7.307 0 13.23-7.557 13.23-16.879 0-9.322-5.923-16.88-13.23-16.88s-13.23 7.558-13.23 16.88 5.923 16.88 13.23 16.88z" fill="url(#s)" style="fill:url(#s)"/><path d="M179.221 70.552c-.857.684-1.393 1.642-1.412 2.724-.012.69.207 1.345.568 1.937l8.823.554c.412-.55.645-1.213.669-1.9.023-1.034-.429-2.005-1.184-2.77zM155.029 69.727a3.338 3.338 0 0 0-.812 2.16c.008.651.193 1.288.535 1.842l7.968.5a3.286 3.286 0 0 0 .58-1.808 3.589 3.589 0 0 0-.521-1.873z" fill="#d8dee8"/><path d="M99.611 167.023c3.137-1.733 2.219-11.571-2.037-18.484-6.042-9.814-19.284-14.5-22-11.577-2.778 2.993 5.22 14.222 6.518 16.046 4.714 6.618 13.81 16.065 17.52 14.015z" fill="url(#t)" style="fill:url(#t)"/><path d="M127.981 229.722c-.586.645-.719 1.832-.21 2.417.509.585 1.253.145 3.389.208 2.286.068 2.884.606 4.438.179.628-.171 1.736-.593 1.715-1.04-.015-.314-.579-.476-2.465-1.107-2.676-.893-2.664-.94-3.233-1.036-1.427-.236-2.86-.472-3.634.379z" fill="url(#u)" style="fill:url(#u)"/><path d="m129.446 226.002 1.147 3.805c-.085.204-1.253.885-2.253.453l-1.704-3.692z" fill="url(#v)" style="fill:url(#v)"/><path d="M113.477 233.065c-.587.645-.72 1.833-.21 2.418.509.585 1.253.144 3.388.208 2.287.067 2.884.606 4.438.178.628-.171 1.737-.592 1.716-1.039-.015-.314-.579-.477-2.465-1.107-2.677-.894-2.665-.941-3.233-1.037-1.428-.236-2.861-.472-3.634.379z" fill="url(#w)" style="fill:url(#w)"/><path d="m114.942 229.345 1.146 3.805c-.086.203-1.252.884-2.253.453l-1.703-3.693z" fill="url(#x)" style="fill:url(#x)"/><path d="M50.417 137.598a49.903 49.903 0 0 1 16.051-2.673c7.713 0 13.907 0 18.182 3.636 10.377 8.821-1.238 29.95 4.717 45.597.652 1.71 2.548 7.147.899 13.006-.305 1.08-.93 2.017-2.001 3.601-6.288 9.3-23.947 10.063-32.037 1.999-4.276-4.261-8.12-3.481-8.222-8.344-.409-19.195 2.579-38.341 2.411-56.822z" fill="url(#y)" style="fill:url(#y)"/><path style="mix-blend-mode:multiply;fill:url(#z)" opacity=".4" d="M54.895 160.702c-1.47-4.014.053-8.609-3.225-10.614-1.2-.735-2.694-1.047-4.32-1.011.195 14.111.473 28.203.818 42.93.113 4.863.723 5.103 5.45 9.366 5.478 4.937 14.918 6.549 23.014 4.934-10.604-6.499-18.17-13.238-17.086-19.011 1.263-6.724 13.61-8.709 13.114-13.49-.526-5.069-14.551-4.33-17.765-13.104z" fill="url(#z)"/><path d="M53.79 138.032c-3.565-2.4-12.154 3.652-16.915 8.979-2.212 2.48-9.917 11.096-8.003 22.676.312 1.886 1.748 10.709 9.322 15.03 6.782 3.87 15.939 2.875 23.276-2.605l3.008-2.662 2.96-3.189a23.78 23.78 0 0 0-7.886-4.332c-5.638-1.814-9.348.877-10.694-.894-1.66-2.182 3.395-6.243 4.717-15.493.361-2.495 4.197-14.829.215-17.51z" fill="url(#A)" style="fill:url(#A)"/><path d="M59.638 198.409c-2.356 7.645 2.006 4.537 10.892.171 9.356-4.595 29.806-11.195 38.618-2.551 6.563 6.439 1.921 16.62 12.074 27.825a32.78 32.78 0 0 0 4.546 4.153l5.488-2.265c.718-4.181 2.98-20.296-7.193-34.731-2.459-3.489-7.138-10.189-15.144-13.023-21.649-7.662-47.109 13.371-49.281 20.421z" fill="url(#B)" style="fill:url(#B)"/><path d="M51 191.277c-1.524 4.391-.152 9.437 2.34 12.571 5.532 6.96 17.95 6.228 25.707 3.657 9.438-3.126 11.546-8.821 15.258-7.422 5.767 2.176 1.664 16.334 12.074 27.826a33 33 0 0 0 4.545 4.152l5.489-2.265c1.383-9.735.372-17.535-.68-22.518-1.207-5.712-2.288-10.831-6.325-15.767-5.016-6.133-11.571-8.287-15.332-9.47-15.912-5.001-39.113-2.172-43.076 9.236z" fill="url(#C)" style="fill:url(#C)"/><path d="m102.592 179.407-42.954-.64 11.422 5.497 31.641-2.065z" fill="url(#D)" style="fill:url(#D)"/><path d="M58.121 179.905a1.903 1.903 0 0 0 1.26 1.791l13.722 5.365.062-3.719-13.53-4.576a1.19 1.19 0 0 0-1.513 1.139z" fill="url(#E)" style="fill:url(#E)"/><path d="M64.254 178.186c-.264-.059 1.287-3.134 2.5-2.779 1.212.355 7.158 3.789 7.698 5.204l.54 1.414s-2.592.202-4.202-.337c-1.611-.538-4.392-3.025-6.536-3.502z" fill="url(#F)" style="fill:url(#F)"/><path d="m74.308 157.244-3.028 27.489c-.104.948 1.227 2.362 2.183 2.316l44.417-2.718a1.556 1.556 0 0 0 1.458-1.289l5.575-26.549c.166-.966-1.576-1.967-2.559-1.937l-46.545 1.305a1.564 1.564 0 0 0-1.01.412 1.55 1.55 0 0 0-.491.971z" fill="url(#G)" style="fill:url(#G)"/><path d="m75.322 158.045-3.027 27.49a1.544 1.544 0 0 0 .413 1.233 1.562 1.562 0 0 0 1.209.487l44.978-2.122a1.552 1.552 0 0 0 1.458-1.288l4.596-26.671a1.546 1.546 0 0 0-.358-1.28 1.562 1.562 0 0 0-1.221-.535l-46.546 1.305a1.559 1.559 0 0 0-1.502 1.381z" fill="url(#H)" style="fill:url(#H)"/><path style="mix-blend-mode:multiply;fill:url(#I)" opacity=".3" d="M101.734 178.691c-3.927-1.66-2.541-4.825-7.178-8.769-6.119-5.204-12.355-2.947-14.538-6.98-.68-1.256-1.005-3.21.18-6.373l-3.371.095a1.557 1.557 0 0 0-1.505 1.381l-3.027 27.49a1.55 1.55 0 0 0 .964 1.609c.208.084.433.122.658.112l44.978-2.123a1.557 1.557 0 0 0 1.458-1.288l.635-3.677a17 17 0 0 0-4.899-1.831c-6.596-1.338-9.834 2.264-14.355.354z" fill="url(#I)"/><path d="M67.188 124.416a33.219 33.219 0 0 1-.6 6.661c-.343 1.773-.595 2.232-.912 2.604-.479.56-1.201 1.026-5.301 2.043-2.23.551-2.517.535-2.566.756-.24 1.076 5.84 4.744 12.12 3.86 3.844-.54 7.342-2.727 7.127-3.876-.214-1.148-4.055-.535-5.2-2.626-.796-1.454.097-3.52 1.15-5.229-1.017-1.907-4.796-2.281-5.818-4.193z" fill="url(#J)" style="fill:url(#J)"/><path d="M75.254 128.044c1.182-.935 1.767-2.951 1.09-4.497-.582-1.33-1.91-1.843-2.706-2.151-2.305-.891-5.562-.684-7.174 1.23-.956 1.132-.321 4.165-.237 4.703.094.608.475.907.765 1.423.401.715 1.03 1.85 2.037 3.738a9.99 9.99 0 0 1 .96-1.468c.162-.205.808-1.006 1.622-1.597 1.632-1.186 2.523-.495 3.644-1.381z" fill="url(#K)" style="fill:url(#K)"/><path d="M67.355 130.686s.894 2.961 4.057 3.568c2.83.542 4.867-5.579 3.43-7.363-.478-.599-1.618-1.086-2.658-1.067-.612.011-.867.197-1.868.196-.923 0-1.143-.16-1.458-.008-.398.189-.813.798-.743 2.76-.391-.674-.975-1.046-1.482-.95a.982.982 0 0 0-.466.264c-.573.61-.159 1.688 1.188 2.6z" fill="url(#L)" style="fill:url(#L)"/><path d="M68.83 125.606c.11.134-.428.528-.647 1.227-.418 1.358.545 3.367 1.93 3.876.819.301 1.182-.145 2.61.07.695.106 1.37.323 1.996.643.043 1.619-.76 3.013-1.95 3.447-1.287.468-2.552-.347-3.083-.684-.355-.228-1.493-.956-1.846-2.263-.368-1.36.483-1.902-.086-2.907-.285-.505-.754-.815-1.051-1.728a3.937 3.937 0 0 1-.145-.598c.918-.578 2.117-1.278 2.273-1.083z" fill="url(#M)" style="fill:url(#M)"/><path d="M73.562 131.717s-.686.158-1.707-.171c-.05-.016-.11-.015-.123.01-.05.091.502.705 1.161.692.469-.008.915-.332.884-.452-.014-.051-.113-.07-.215-.079z" fill="url(#N)" style="fill:url(#N)"/><path d="M192.232 5.25c-38.807 0-70.267 31.368-70.267 70.064 0 38.697 31.46 70.065 70.267 70.065 38.807 0 70.268-31.369 70.268-70.064 0-38.696-31.46-70.065-70.268-70.065zM247.1 112.199a66.327 66.327 0 0 1-29.114 23.907 66.235 66.235 0 0 1-32.147 4.901 66.187 66.187 0 0 1-30.598-10.983 66.219 66.219 0 0 1-23.976-29.03 65.706 65.706 0 0 1-4.915-32.054 65.765 65.765 0 0 1 11.014-30.51 66.328 66.328 0 0 1 29.115-23.904 66.244 66.244 0 0 1 62.744 6.082 66.217 66.217 0 0 1 23.976 29.032 65.716 65.716 0 0 1-6.099 62.563z" fill="#fff"/><path d="m244.904 38.062-11.921-11.21-3.202 3.386a58.634 58.634 0 0 0-37.553-13.523c-32.456 0-58.768 26.236-58.768 58.6 0 15.467 6.01 29.534 15.829 40.007l-1.796 1.898 11.921 11.21 2.659-2.812a58.619 58.619 0 0 0 30.159 8.295c32.457 0 58.769-26.235 58.769-58.6a58.206 58.206 0 0 0-10.166-32.95zm-98.561 68.101a55.052 55.052 0 0 1 6.727-69.899 55.4 55.4 0 0 1 33.842-15.908 55.456 55.456 0 0 1 40.514 12.374l-75.775 80.098a55.54 55.54 0 0 1-5.308-6.665zm96.88-52.326a54.947 54.947 0 0 1 4.112 26.809 54.992 54.992 0 0 1-9.214 25.517 55.467 55.467 0 0 1-24.35 19.996 55.367 55.367 0 0 1-49.284-3.093l73.935-78.152a55.185 55.185 0 0 1 4.801 8.923z" fill="#fff"/><path d="M254.48 49.092a67.656 67.656 0 0 0-33.794-35.006 67.942 67.942 0 0 0-48.613-3.343 67.732 67.732 0 0 0-38.294 30.047 67.403 67.403 0 0 0-8.172 47.9 67.548 67.548 0 0 0 26.175 40.984 67.906 67.906 0 0 0 46.987 12.873 67.833 67.833 0 0 0 43.502-21.893 67.46 67.46 0 0 0 17.52-45.34 66.96 66.96 0 0 0-5.311-26.222zM134.279 75.315c0-31.864 25.997-57.787 57.953-57.787 14.923 0 28.541 5.651 38.824 14.92l-79.115 84.364c-10.885-10.512-17.662-25.23-17.662-41.497zm57.953 57.786a57.743 57.743 0 0 1-31.622-9.381l77.935-83.106a57.382 57.382 0 0 1 11.641 34.7c0 31.864-25.994 57.787-57.954 57.787z" fill="#f95e69"/></g><defs><linearGradient id="w" x1="124.115" y1="232.303" x2="115.003" y2="234.873" gradientUnits="userSpaceOnUse"><stop stop-color="#444B8C"/><stop offset="1" stop-color="#26264F"/></linearGradient><linearGradient id="b" x1="109.993" y1="76.264" x2="-15.095" y2="230.116" gradientUnits="userSpaceOnUse"><stop stop-color="#AA80F9"/><stop offset=".2" stop-color="#9B7BF2"/><stop offset="1" stop-color="#6165D7"/></linearGradient><linearGradient id="f" x1="109.15" y1="208.023" x2="93.536" y2="214.6" gradientUnits="userSpaceOnUse"><stop stop-color="#40447E"/><stop offset="1" stop-color="#3C3B6B"/></linearGradient><linearGradient id="g" x1="83.722" y1="138.745" x2="67.532" y2="145.565" gradientUnits="userSpaceOnUse"><stop stop-color="#40447E"/><stop offset="1" stop-color="#3C3B6B"/></linearGradient><linearGradient id="h" x1="15.191" y1="142.657" x2="162.858" y2="142.657" gradientUnits="userSpaceOnUse"><stop stop-color="#40447E"/><stop offset="1" stop-color="#3C3B6B"/></linearGradient><linearGradient id="i" x1="24.676" y1="190.125" x2="174.231" y2="67.99" gradientUnits="userSpaceOnUse"><stop stop-color="#FFC444"/><stop offset="1" stop-color="#F36F56"/></linearGradient><linearGradient id="j" x1="15.191" y1="201.143" x2="237.645" y2="201.143" gradientUnits="userSpaceOnUse"><stop stop-color="#40447E"/><stop offset="1" stop-color="#3C3B6B"/></linearGradient><linearGradient id="k" x1="37.007" y1="199.308" x2="199.997" y2="199.308" gradientUnits="userSpaceOnUse"><stop stop-color="#40447E"/><stop offset="1" stop-color="#3C3B6B"/></linearGradient><linearGradient id="l" x1="188.709" y1="-35.039" x2="189.954" y2="256.95" gradientUnits="userSpaceOnUse"><stop stop-color="#D8DEE8"/><stop offset="1" stop-color="#97A6B7"/></linearGradient><linearGradient id="m" x1="189.292" y1="84.657" x2="189.465" y2="125.277" gradientUnits="userSpaceOnUse"><stop stop-color="#444B8C"/><stop offset="1" stop-color="#26264F"/></linearGradient><linearGradient id="n" x1="193.395" y1="-34.571" x2="194.636" y2="256.661" gradientUnits="userSpaceOnUse"><stop stop-color="#AA80F9"/><stop offset="1" stop-color="#6165D7"/></linearGradient><linearGradient id="o" x1="137.56" y1="62.615" x2="164.019" y2="62.615" gradientUnits="userSpaceOnUse"><stop stop-color="#444B8C"/><stop offset="1" stop-color="#26264F"/></linearGradient><linearGradient id="p" x1="141.269" y1="66.418" x2="234.342" y2="66.418" gradientUnits="userSpaceOnUse"><stop stop-color="#97A6B7"/><stop offset="1" stop-color="#67878E"/></linearGradient><linearGradient id="q" x1="205.093" y1="70.206" x2="147.402" y2="70.206" gradientUnits="userSpaceOnUse"><stop stop-color="#444B8C"/><stop offset="1" stop-color="#26264F"/></linearGradient><linearGradient id="r" x1="203.967" y1="-190.617" x2="205.917" y2="266.849" gradientUnits="userSpaceOnUse"><stop stop-color="#AA80F9"/><stop offset="1" stop-color="#6165D7"/></linearGradient><linearGradient id="s" x1="214.761" y1="69.235" x2="241.221" y2="69.235" gradientUnits="userSpaceOnUse"><stop stop-color="#444B8C"/><stop offset="1" stop-color="#26264F"/></linearGradient><linearGradient id="t" x1="88.986" y1="137.251" x2="85.209" y2="203.633" gradientUnits="userSpaceOnUse"><stop stop-color="#AA80F9"/><stop offset="1" stop-color="#6165D7"/></linearGradient><linearGradient id="u" x1="138.56" y1="228.883" x2="129.448" y2="231.453" gradientUnits="userSpaceOnUse"><stop stop-color="#444B8C"/><stop offset="1" stop-color="#26264F"/></linearGradient><linearGradient id="v" x1="131.735" y1="231.179" x2="126.174" y2="223.863" gradientUnits="userSpaceOnUse"><stop stop-color="#FFC444"/><stop offset="1" stop-color="#F36F56"/></linearGradient><linearGradient id="d" x1="23.396" y1="86.183" x2="117.413" y2="241.406" gradientUnits="userSpaceOnUse"><stop stop-color="#E38DDD"/><stop offset="1" stop-color="#9571F6"/></linearGradient><linearGradient id="x" x1="117.234" y1="234.554" x2="111.673" y2="227.238" gradientUnits="userSpaceOnUse"><stop stop-color="#FFC444"/><stop offset="1" stop-color="#F36F56"/></linearGradient><linearGradient id="y" x1="72.323" y1="136.303" x2="68.546" y2="202.686" gradientUnits="userSpaceOnUse"><stop stop-color="#AA80F9"/><stop offset="1" stop-color="#6165D7"/></linearGradient><linearGradient id="z" x1="53.099" y1="188.915" x2="75.931" y2="159.923" gradientUnits="userSpaceOnUse"><stop stop-color="#AA80F9"/><stop offset="1" stop-color="#6165D7"/></linearGradient><linearGradient id="A" x1="50.051" y1="135.036" x2="46.274" y2="201.418" gradientUnits="userSpaceOnUse"><stop stop-color="#AA80F9"/><stop offset="1" stop-color="#6165D7"/></linearGradient><linearGradient id="B" x1="85.914" y1="223.669" x2="117.7" y2="183.305" gradientUnits="userSpaceOnUse"><stop stop-color="#FF9085"/><stop offset="1" stop-color="#FB6FBB"/></linearGradient><linearGradient id="C" x1="104.908" y1="186.47" x2="68.017" y2="227.452" gradientUnits="userSpaceOnUse"><stop stop-color="#FF9085"/><stop offset="1" stop-color="#FB6FBB"/></linearGradient><linearGradient id="D" x1="87.496" y1="197.114" x2="82.326" y2="182.425" gradientUnits="userSpaceOnUse"><stop stop-color="#311944"/><stop offset="1" stop-color="#893976"/></linearGradient><linearGradient id="E" x1="64.796" y1="175.845" x2="66.69" y2="188.972" gradientUnits="userSpaceOnUse"><stop stop-color="#311944"/><stop offset="1" stop-color="#893976"/></linearGradient><linearGradient id="F" x1="64.224" y1="178.721" x2="74.992" y2="178.721" gradientUnits="userSpaceOnUse"><stop stop-color="#FFC444"/><stop offset="1" stop-color="#F36F56"/></linearGradient><linearGradient id="G" x1="102.548" y1="176.994" x2="92.456" y2="162.623" gradientUnits="userSpaceOnUse"><stop stop-color="#444B8C"/><stop offset="1" stop-color="#26264F"/></linearGradient><linearGradient id="H" x1="83.116" y1="200.734" x2="105.183" y2="155.779" gradientUnits="userSpaceOnUse"><stop stop-color="#311944"/><stop offset="1" stop-color="#893976"/></linearGradient><linearGradient id="I" x1="72.285" y1="171.913" x2="120.991" y2="171.913" gradientUnits="userSpaceOnUse"><stop stop-color="#311944"/><stop offset="1" stop-color="#893976"/></linearGradient><linearGradient id="J" x1="62.624" y1="146.642" x2="74.942" y2="120.916" gradientUnits="userSpaceOnUse"><stop stop-color="#FFC444"/><stop offset="1" stop-color="#F36F56"/></linearGradient><linearGradient id="K" x1="61.19" y1="138.393" x2="72.817" y2="122.31" gradientUnits="userSpaceOnUse"><stop stop-color="#311944"/><stop offset="1" stop-color="#6B3976"/></linearGradient><linearGradient id="L" x1="70.717" y1="126.773" x2="65.299" y2="153.047" gradientUnits="userSpaceOnUse"><stop stop-color="#FFC444"/><stop offset="1" stop-color="#F36F56"/></linearGradient><linearGradient id="M" x1="63.125" y1="139.802" x2="74.763" y2="123.703" gradientUnits="userSpaceOnUse"><stop stop-color="#311944"/><stop offset="1" stop-color="#6B3976"/></linearGradient><linearGradient id="N" x1="72.82" y1="130.804" x2="71.615" y2="133.976" gradientUnits="userSpaceOnUse"><stop stop-color="#FFC444"/><stop offset="1" stop-color="#F36F56"/></linearGradient><clipPath id="a"><path fill="#fff" transform="translate(0 .995)" d="M0 0h263v240H0z"/></clipPath></defs></svg>