<svg width="618" height="468" fill="none" xmlns="http://www.w3.org/2000/svg"><g clip-path="url(#a)"><g clip-path="url(#b)"><mask id="c" style="mask-type:luminance" maskUnits="userSpaceOnUse" x="13" y="0" width="552" height="341"><path d="M14.84 332.372c-1.251-.489-1.068 2.294.276 2.172 1.343-.123 1.985-1.682 2.336-3.059 9.558-35.952 7.634-74.213 17.176-110.104 7.634-28.734 22.567-55.052 30.857-83.664 6.107-21.211 8.703-43.63 17.955-63.677 13.009-28 38.201-49.058 66.447-61.49 18.505-8.167 38.781-13 58.996-11.669 36.964 2.447 80.096 16.822 113.289 32.221 20.093 9.298 40.124 18.626 61.317 25.064 35.574 10.827 73.958 13.427 107.12 30.279 40.568 20.599 69.44 63.463 73.974 108.759 1.069 10.582-1.527 18.106-2.87 28.138-1.848 14.145.717 29.575 1.527 43.781 1.648 29.989 2.626 41.811-1.527 71.662" fill="#fff"/></mask><g mask="url(#c)"><path d="M571.133-67.644h-82.448v82.579h82.448v-82.579zm0 82.579h-82.448v82.578h82.448V14.935z" fill="#E7EEFD"/><path d="M495.297 21.985a1.522 1.522 0 0 1 1.555-1.033 1.524 1.524 0 0 1 1.391 1.247 1.525 1.525 0 0 1-.363 1.298 1.527 1.527 0 0 1-2.583-1.512zm29.559 0a1.527 1.527 0 1 1 2.532 1.31 1.527 1.527 0 0 1-2.532-1.31zm26.658 0a1.522 1.522 0 0 1 1.555-1.033 1.524 1.524 0 0 1 1.391 1.247 1.525 1.525 0 0 1-.363 1.298 1.527 1.527 0 0 1-2.583-1.512zm-56.217 26.562a1.53 1.53 0 0 1 .983-1.421 1.524 1.524 0 0 1 2.057 1.228 1.52 1.52 0 0 1-.152.892 1.523 1.523 0 0 1-1.514.83 1.525 1.525 0 0 1-1.374-1.529zm29.559 0a1.53 1.53 0 0 1 1.526-1.376 1.53 1.53 0 0 1 1.374 1.53 1.523 1.523 0 0 1-1.549 1.038 1.523 1.523 0 0 1-1.397-1.238l.046.046zm26.658 0a1.53 1.53 0 0 1 .983-1.421 1.524 1.524 0 0 1 2.057 1.228 1.53 1.53 0 0 1-1.666 1.723 1.525 1.525 0 0 1-1.374-1.53zm-56.217 26.548a1.53 1.53 0 0 1 1.526-1.377 1.523 1.523 0 0 1 1.42.985 1.535 1.535 0 0 1-1.227 2.06 1.522 1.522 0 0 1-1.54-.781c-.148-.27-.21-.58-.179-.887zm29.559 0a1.53 1.53 0 0 1 .983-1.422 1.524 1.524 0 0 1 2.057 1.228 1.53 1.53 0 0 1-1.666 1.723 1.53 1.53 0 0 1-1.374-1.53zm26.658 0a1.53 1.53 0 0 1 1.526-1.377 1.523 1.523 0 0 1 1.42.985 1.535 1.535 0 0 1-1.226 2.06 1.524 1.524 0 0 1-1.541-.781c-.148-.27-.21-.58-.179-.887z" fill="#91B3FA"/><path d="M571.133 97.513h-82.448v82.579h82.448V97.513z" fill="#E7EEFD"/><path d="M495.297 104.563a1.523 1.523 0 0 1 1.555-1.033 1.525 1.525 0 0 1 1.391 1.247 1.523 1.523 0 0 1-.363 1.298 1.51 1.51 0 0 1-.566.398 1.516 1.516 0 0 1-1.342-.097 1.527 1.527 0 0 1-.675-1.813zm29.559 0a1.525 1.525 0 0 1 2.946-.371 1.526 1.526 0 1 1-2.946.371zm26.658 0a1.523 1.523 0 0 1 1.555-1.033 1.525 1.525 0 0 1 1.391 1.247 1.523 1.523 0 0 1-.363 1.298 1.51 1.51 0 0 1-.566.398 1.516 1.516 0 0 1-1.342-.097 1.527 1.527 0 0 1-.675-1.813zm-56.217 26.563a1.532 1.532 0 0 1 .983-1.422 1.522 1.522 0 0 1 2.057 1.228 1.525 1.525 0 0 1-.781 1.543 1.523 1.523 0 0 1-1.867-.319 1.523 1.523 0 0 1-.392-1.03zm29.559 0a1.529 1.529 0 0 1 1.526-1.377 1.527 1.527 0 0 1 1.375 1.53 1.542 1.542 0 0 1-.356 1.301 1.522 1.522 0 0 1-1.246.513 1.527 1.527 0 0 1-1.345-2.013l.046.046zm26.658 0a1.532 1.532 0 0 1 .983-1.422 1.526 1.526 0 0 1 2.057 1.228 1.533 1.533 0 0 1-.781 1.543 1.523 1.523 0 0 1-1.867-.319 1.523 1.523 0 0 1-.392-1.03zm-56.217 26.547a1.53 1.53 0 0 1 2.388-1.104 1.527 1.527 0 0 1 .615 1.616 1.531 1.531 0 0 1-2.174 1.005 1.525 1.525 0 0 1-.829-1.517zm29.559 0a1.529 1.529 0 0 1 1.885-1.479 1.528 1.528 0 0 1 1.155 1.286 1.528 1.528 0 0 1-2.649 1.224 1.53 1.53 0 0 1-.391-1.031zm26.658 0a1.53 1.53 0 0 1 2.388-1.104 1.527 1.527 0 0 1 .615 1.616 1.531 1.531 0 0 1-1.283 1.157 1.525 1.525 0 0 1-1.72-1.669z" fill="#91B3FA"/><path d="M571.133 180.092h-82.448v82.578h82.448v-82.578z" fill="#E7EEFD"/><path d="M495.297 187.141a1.523 1.523 0 0 1 1.555-1.032 1.524 1.524 0 0 1 1.391 1.246 1.527 1.527 0 1 1-2.946-.214zm29.559 0a1.53 1.53 0 0 1 1.526-1.361 1.53 1.53 0 1 1-.71 2.888 1.533 1.533 0 0 1-.816-1.527zm26.658 0a1.523 1.523 0 0 1 1.555-1.032 1.524 1.524 0 0 1 1.391 1.246 1.527 1.527 0 1 1-2.946-.214zm-56.217 26.563a1.526 1.526 0 1 1 2.888.699 1.523 1.523 0 0 1-1.514.83 1.523 1.523 0 0 1-1.374-1.529zm29.559 0a1.53 1.53 0 0 1 1.526-1.376 1.53 1.53 0 0 1 1.375 1.529 1.541 1.541 0 0 1-.356 1.301 1.525 1.525 0 0 1-2.657-.81 1.524 1.524 0 0 1 .066-.69l.046.046zm26.658 0a1.526 1.526 0 1 1 2.888.699 1.523 1.523 0 0 1-1.514.83 1.523 1.523 0 0 1-1.374-1.529zm-56.217 26.547a1.529 1.529 0 0 1 1.526-1.376 1.532 1.532 0 0 1 1.42.985 1.538 1.538 0 0 1-.406 1.681 1.524 1.524 0 0 1-1.711.227 1.529 1.529 0 0 1-.829-1.517zm29.559 0a1.531 1.531 0 0 1 .983-1.421 1.526 1.526 0 0 1 2.057 1.228 1.528 1.528 0 0 1-2.649 1.224 1.53 1.53 0 0 1-.391-1.031zm26.658 0a1.529 1.529 0 0 1 1.526-1.376 1.532 1.532 0 0 1 1.42.985 1.538 1.538 0 0 1-.406 1.681 1.524 1.524 0 0 1-2.361-.402 1.53 1.53 0 0 1-.179-.888z" fill="#91B3FA"/><path d="M571.133 262.67h-82.448v82.578h82.448V262.67z" fill="#E7EEFD"/><path d="M495.297 269.72a1.526 1.526 0 0 1 2.915.905 1.537 1.537 0 0 1-.898 1.005 1.516 1.516 0 0 1-1.342-.098 1.513 1.513 0 0 1-.744-1.124 1.517 1.517 0 0 1 .069-.688zm29.559 0a1.525 1.525 0 0 1 2.946-.372 1.526 1.526 0 1 1-2.946.372zm26.658 0a1.526 1.526 0 0 1 2.915.905 1.537 1.537 0 0 1-.898 1.005 1.516 1.516 0 0 1-1.342-.098 1.513 1.513 0 0 1-.744-1.124 1.517 1.517 0 0 1 .069-.688zm-56.217 26.562a1.531 1.531 0 0 1 .983-1.421 1.522 1.522 0 0 1 2.057 1.228 1.52 1.52 0 0 1-.152.892 1.526 1.526 0 0 1-2.888-.699zm29.559 0a1.529 1.529 0 0 1 1.526-1.376 1.527 1.527 0 0 1 1.375 1.529c.044.23.034.467-.027.693a1.534 1.534 0 0 1-1.575 1.121 1.513 1.513 0 0 1-1.167-.675 1.527 1.527 0 0 1-.178-1.337l.046.045zm26.658 0a1.531 1.531 0 0 1 .983-1.421 1.526 1.526 0 0 1 2.057 1.228 1.528 1.528 0 0 1-2.648 1.224 1.526 1.526 0 0 1-.392-1.031zm-56.217 26.548a1.53 1.53 0 0 1 2.946-.392 1.531 1.531 0 0 1-1.227 2.061 1.53 1.53 0 0 1-1.719-1.669zm29.559 0a1.532 1.532 0 0 1 .983-1.422 1.526 1.526 0 0 1 2.057 1.228 1.533 1.533 0 0 1-.781 1.543 1.523 1.523 0 0 1-1.868-.319 1.527 1.527 0 0 1-.391-1.03zm26.658 0a1.53 1.53 0 0 1 2.946-.392 1.531 1.531 0 0 1-1.226 2.061 1.532 1.532 0 0 1-1.541-.782 1.53 1.53 0 0 1-.179-.887z" fill="#91B3FA"/><path d="M488.685-67.644h-82.447v82.579h82.447v-82.579zm0 82.579h-82.447v82.578h82.447V14.935z" fill="#E7EEFD"/><path d="M412.849 21.985a1.532 1.532 0 0 1 1.556-1.033 1.527 1.527 0 0 1 1.36 1.938 1.539 1.539 0 0 1-.898 1.005 1.527 1.527 0 0 1-2.018-1.91zm29.559 0a1.527 1.527 0 1 1 3 .533 1.53 1.53 0 0 1-2.183.993 1.53 1.53 0 0 1-.817-1.527zm26.658 0a1.532 1.532 0 0 1 1.556-1.033 1.527 1.527 0 0 1 1.36 1.938 1.539 1.539 0 0 1-.898 1.005 1.527 1.527 0 0 1-2.018-1.91zm-56.217 26.562a1.53 1.53 0 0 1 .983-1.421 1.524 1.524 0 0 1 2.057 1.228 1.53 1.53 0 0 1-1.666 1.723 1.525 1.525 0 0 1-1.374-1.53zm29.559 0a1.527 1.527 0 0 1 1.527-1.376 1.525 1.525 0 0 1 1.374 1.53 1.526 1.526 0 0 1-2.947-.199l.046.045zm26.658 0a1.53 1.53 0 0 1 .983-1.421 1.524 1.524 0 0 1 2.057 1.228 1.53 1.53 0 0 1-1.666 1.723 1.525 1.525 0 0 1-1.374-1.53zm-56.217 26.548a1.527 1.527 0 1 1 2.541 1.29 1.532 1.532 0 0 1-1.712.227 1.527 1.527 0 0 1-.829-1.517zm29.559 0a1.523 1.523 0 0 1 .983-1.422 1.524 1.524 0 0 1 2.057 1.228 1.53 1.53 0 0 1-1.666 1.723 1.525 1.525 0 0 1-1.374-1.53zm26.658 0a1.527 1.527 0 1 1 2.541 1.29 1.528 1.528 0 0 1-2.361-.403 1.53 1.53 0 0 1-.18-.887z" fill="#91B3FA"/><path d="M488.685 97.513h-82.447v82.579h82.447V97.513z" fill="#E7EEFD"/><path d="M412.849 104.563a1.534 1.534 0 0 1 1.556-1.033 1.528 1.528 0 0 1 1.027 2.545 1.515 1.515 0 0 1-1.248.506 1.523 1.523 0 0 1-1.162-.681 1.534 1.534 0 0 1-.173-1.337zm29.559 0a1.525 1.525 0 0 1 2.946-.371 1.529 1.529 0 0 1-2.129 1.898 1.528 1.528 0 0 1-.817-1.527zm26.658 0a1.534 1.534 0 0 1 1.556-1.033 1.528 1.528 0 0 1 1.027 2.545 1.515 1.515 0 0 1-1.248.506 1.523 1.523 0 0 1-1.162-.681 1.534 1.534 0 0 1-.173-1.337zm-56.217 26.563a1.533 1.533 0 0 1 .983-1.422 1.529 1.529 0 1 1-.591 2.452 1.528 1.528 0 0 1-.392-1.03zm29.559 0a1.526 1.526 0 0 1 1.527-1.377 1.53 1.53 0 0 1 1.374 1.53 1.528 1.528 0 1 1-2.947-.199l.046.046zm26.658 0a1.533 1.533 0 0 1 .983-1.422 1.525 1.525 0 0 1 2.057 1.228 1.533 1.533 0 0 1-.78 1.543 1.525 1.525 0 0 1-2.26-1.349zm-56.217 26.547a1.53 1.53 0 0 1 1.527-1.376 1.521 1.521 0 0 1 1.419.985 1.53 1.53 0 0 1-1.226 2.06 1.523 1.523 0 0 1-1.54-.782 1.53 1.53 0 0 1-.18-.887zm29.559 0c.001-.309.096-.609.272-.863a1.522 1.522 0 0 1 1.613-.616 1.53 1.53 0 0 1-.511 3.008 1.523 1.523 0 0 1-1.374-1.529zm26.658 0a1.53 1.53 0 0 1 1.527-1.376 1.521 1.521 0 0 1 1.419.985 1.53 1.53 0 0 1-1.226 2.06 1.523 1.523 0 0 1-1.54-.782 1.53 1.53 0 0 1-.18-.887z" fill="#91B3FA"/><path d="M488.685 180.092h-82.447v82.578h82.447v-82.578z" fill="#E7EEFD"/><path d="M412.849 187.141a1.521 1.521 0 0 1 1.556-1.032 1.527 1.527 0 0 1 1.027 2.545c-.156.174-.349.31-.565.398a1.534 1.534 0 0 1-1.343-.098 1.53 1.53 0 0 1-.675-1.813zm29.559 0a1.53 1.53 0 0 1 1.527-1.361c.308.002.609.098.863.274a1.536 1.536 0 0 1 .61 1.621 1.534 1.534 0 0 1-.467.777 1.528 1.528 0 0 1-2.533-1.311zm26.658 0a1.521 1.521 0 0 1 1.556-1.032 1.527 1.527 0 0 1 1.027 2.545c-.156.174-.349.31-.565.398a1.534 1.534 0 0 1-1.343-.098 1.53 1.53 0 0 1-.675-1.813zm-56.217 26.563a1.527 1.527 0 1 1 3.055.014 1.527 1.527 0 0 1-3.055-.014zm29.559 0a1.53 1.53 0 0 1 1.527-1.376 1.528 1.528 0 0 1 1.374 1.529 1.527 1.527 0 0 1-.919 1.703 1.523 1.523 0 0 1-1.849-.564 1.533 1.533 0 0 1-.179-1.338l.046.046zm26.658 0a1.527 1.527 0 1 1 3.055.014 1.527 1.527 0 0 1-3.055-.014zm-56.217 26.547a1.526 1.526 0 0 1 2.946-.391c.11.288.13.603.057.903a1.526 1.526 0 0 1-3.003-.512zm29.559 0a1.525 1.525 0 0 1 .983-1.421 1.529 1.529 0 1 1-.591 2.452 1.53 1.53 0 0 1-.392-1.031zm26.658 0a1.526 1.526 0 0 1 2.946-.391c.11.288.13.603.057.903a1.526 1.526 0 0 1-3.003-.512z" fill="#91B3FA"/><path d="M488.685 262.67h-82.447v82.578h82.447V262.67z" fill="#E7EEFD"/><path d="M412.849 269.72a1.526 1.526 0 0 1 2.947.214 1.537 1.537 0 0 1-.364 1.298 1.52 1.52 0 0 1-1.908.3 1.533 1.533 0 0 1-.675-1.812zm29.559 0a1.525 1.525 0 0 1 2.946-.372 1.532 1.532 0 0 1-.413 1.682 1.522 1.522 0 0 1-1.716.217 1.528 1.528 0 0 1-.817-1.527zm26.658 0a1.526 1.526 0 0 1 2.947.214 1.537 1.537 0 0 1-.364 1.298 1.52 1.52 0 0 1-1.908.3 1.533 1.533 0 0 1-.675-1.812zm-56.217 26.562a1.532 1.532 0 0 1 .983-1.421 1.529 1.529 0 1 1-.591 2.452 1.53 1.53 0 0 1-.392-1.031zm29.559 0a1.526 1.526 0 0 1 1.527-1.376 1.528 1.528 0 0 1 1.374 1.529 1.531 1.531 0 0 1-.919 1.703 1.523 1.523 0 0 1-1.849-.564 1.529 1.529 0 0 1-.179-1.337l.046.045zm26.658 0a1.532 1.532 0 0 1 .983-1.421 1.525 1.525 0 0 1 2.057 1.228 1.528 1.528 0 0 1-2.648 1.224 1.53 1.53 0 0 1-.392-1.031zm-56.217 26.548a1.528 1.528 0 1 1 2.541 1.289c-.23.207-.516.339-.821.38a1.529 1.529 0 0 1-1.72-1.669zm29.559 0a1.525 1.525 0 0 1 1.885-1.479 1.529 1.529 0 1 1-1.493 2.509 1.528 1.528 0 0 1-.392-1.03zm26.658 0a1.528 1.528 0 1 1 2.541 1.289 1.529 1.529 0 0 1-1.712.228 1.529 1.529 0 0 1-.829-1.517z" fill="#91B3FA"/><path d="M406.238-67.644H323.79v82.579h82.448v-82.579zm0 82.579H323.79v82.578h82.448V14.935z" fill="#E7EEFD"/><path d="M330.401 21.985a1.532 1.532 0 0 1 1.556-1.033 1.527 1.527 0 0 1 1.36 1.938 1.537 1.537 0 0 1-.898 1.005 1.525 1.525 0 0 1-2.086-1.222 1.533 1.533 0 0 1 .068-.688zm29.559 0a1.533 1.533 0 0 1 1.527-1.361 1.523 1.523 0 0 1 1.42.99 1.537 1.537 0 0 1-.414 1.681 1.527 1.527 0 0 1-2.533-1.31zm26.658 0a1.532 1.532 0 0 1 1.556-1.033 1.527 1.527 0 0 1 1.36 1.938 1.537 1.537 0 0 1-.898 1.005 1.525 1.525 0 0 1-2.086-1.222 1.533 1.533 0 0 1 .068-.688zm-56.217 26.562a1.53 1.53 0 0 1 1.886-1.479 1.527 1.527 0 0 1 1.155 1.286c.04.306-.013.617-.152.892a1.523 1.523 0 0 1-1.514.83 1.528 1.528 0 0 1-1.375-1.529zm29.559 0a1.532 1.532 0 0 1 1.527-1.376 1.525 1.525 0 0 1 1.374 1.53 1.523 1.523 0 0 1-1.55 1.038 1.528 1.528 0 0 1-1.396-1.238l.045.046zm26.658 0a1.53 1.53 0 0 1 1.886-1.479 1.527 1.527 0 0 1 1.155 1.286c.04.306-.013.617-.152.892a1.523 1.523 0 0 1-1.514.83 1.528 1.528 0 0 1-1.375-1.529zm-56.217 26.548a1.532 1.532 0 0 1 1.527-1.377 1.525 1.525 0 0 1 1.419.985 1.532 1.532 0 0 1-.405 1.681 1.525 1.525 0 0 1-2.361-.402c-.148-.27-.21-.58-.18-.887zm29.559 0a1.53 1.53 0 0 1 1.886-1.479 1.527 1.527 0 0 1 1.003 2.178 1.528 1.528 0 0 1-2.497.331 1.53 1.53 0 0 1-.392-1.03zm26.658 0a1.532 1.532 0 0 1 1.527-1.377 1.525 1.525 0 0 1 1.419.985 1.532 1.532 0 0 1-.405 1.681 1.525 1.525 0 0 1-2.361-.402c-.148-.27-.21-.58-.18-.887z" fill="#91B3FA"/><path d="M406.238 97.513H323.79v82.579h82.448V97.513z" fill="#E7EEFD"/><path d="M330.401 104.563a1.534 1.534 0 0 1 1.556-1.033 1.528 1.528 0 0 1 1.36 1.938 1.53 1.53 0 0 1-1.581 1.113 1.53 1.53 0 0 1-1.162-.681 1.532 1.532 0 0 1-.173-1.337zm29.559 0a1.531 1.531 0 0 1 1.527-1.361 1.522 1.522 0 0 1 1.42.99 1.537 1.537 0 0 1-.414 1.681 1.52 1.52 0 0 1-1.716.217 1.53 1.53 0 0 1-.817-1.527zm26.658 0a1.534 1.534 0 0 1 1.556-1.033 1.528 1.528 0 0 1 1.36 1.938 1.53 1.53 0 0 1-1.581 1.113 1.53 1.53 0 0 1-1.162-.681 1.532 1.532 0 0 1-.173-1.337zm-56.217 26.563a1.536 1.536 0 0 1 .984-1.422 1.526 1.526 0 0 1 2.057 1.228c.04.306-.013.617-.152.893a1.523 1.523 0 0 1-1.514.83 1.527 1.527 0 0 1-1.375-1.529zm29.559 0a1.53 1.53 0 0 1 1.527-1.377 1.526 1.526 0 0 1 1.374 1.53 1.528 1.528 0 1 1-2.946-.199l.045.046zm26.658 0a1.536 1.536 0 0 1 .984-1.422 1.526 1.526 0 0 1 2.057 1.228c.04.306-.013.617-.152.893a1.523 1.523 0 0 1-1.514.83 1.527 1.527 0 0 1-1.375-1.529zm-56.217 26.547a1.528 1.528 0 1 1 2.541 1.29 1.531 1.531 0 0 1-1.712.227 1.529 1.529 0 0 1-.829-1.517zm29.559 0a1.53 1.53 0 0 1 1.886-1.479 1.528 1.528 0 0 1 1.155 1.286 1.536 1.536 0 0 1-.781 1.542 1.525 1.525 0 0 1-2.26-1.349zm26.658 0a1.528 1.528 0 1 1 2.541 1.29 1.531 1.531 0 0 1-1.712.227 1.538 1.538 0 0 1-.829-1.517z" fill="#91B3FA"/><path d="M406.238 180.092H323.79v82.578h82.448v-82.578z" fill="#E7EEFD"/><path d="M330.401 187.141a1.521 1.521 0 0 1 1.556-1.032 1.527 1.527 0 0 1 1.36 1.938 1.537 1.537 0 0 1-.898 1.005 1.532 1.532 0 0 1-1.343-.098 1.531 1.531 0 0 1-.675-1.813zm29.559 0a1.529 1.529 0 0 1 2.39-1.087 1.531 1.531 0 0 1-.681 2.773 1.53 1.53 0 0 1-1.709-1.686zm26.658 0a1.521 1.521 0 0 1 1.556-1.032 1.527 1.527 0 0 1 1.36 1.938 1.537 1.537 0 0 1-.898 1.005 1.532 1.532 0 0 1-1.343-.098 1.531 1.531 0 0 1-.675-1.813zm-56.217 26.563a1.535 1.535 0 0 1 .984-1.421 1.527 1.527 0 0 1 1.276 2.77 1.523 1.523 0 0 1-1.868-.318 1.533 1.533 0 0 1-.392-1.031zm29.559 0a1.528 1.528 0 0 1 1.527-1.376 1.528 1.528 0 0 1 1.374 1.529 1.525 1.525 0 0 1-2.946-.199l.045.046zm26.658 0a1.535 1.535 0 0 1 .984-1.421 1.527 1.527 0 0 1 1.276 2.77 1.523 1.523 0 0 1-1.868-.318 1.538 1.538 0 0 1-.392-1.031zm-56.217 26.547a1.53 1.53 0 0 1 1.527-1.376 1.53 1.53 0 1 1-.698 2.893 1.532 1.532 0 0 1-.829-1.517zm29.559 0a1.53 1.53 0 0 1 1.886-1.478 1.526 1.526 0 0 1 1.155 1.285 1.536 1.536 0 0 1-.781 1.543 1.525 1.525 0 0 1-2.26-1.35zm26.658 0a1.53 1.53 0 0 1 1.527-1.376 1.53 1.53 0 1 1-.698 2.893 1.527 1.527 0 0 1-.829-1.517z" fill="#91B3FA"/><path d="M406.238 262.67H323.79v82.578h82.448V262.67z" fill="#E7EEFD"/><path d="M330.401 269.72a1.526 1.526 0 0 1 2.947.214 1.523 1.523 0 0 1-.363 1.298 1.518 1.518 0 0 1-1.909.3 1.52 1.52 0 0 1-.743-1.124 1.53 1.53 0 0 1 .068-.688zm29.559 0a1.531 1.531 0 0 1 1.527-1.361 1.529 1.529 0 1 1-.71 2.888 1.53 1.53 0 0 1-.817-1.527zm26.658 0a1.526 1.526 0 0 1 2.947.214 1.523 1.523 0 0 1-.363 1.298 1.518 1.518 0 0 1-1.909.3 1.52 1.52 0 0 1-.743-1.124 1.53 1.53 0 0 1 .068-.688zm-56.217 26.562a1.53 1.53 0 0 1 1.886-1.478 1.526 1.526 0 0 1 1.155 1.285 1.536 1.536 0 0 1-.781 1.543 1.523 1.523 0 0 1-1.868-.319 1.53 1.53 0 0 1-.392-1.031zm29.559 0a1.53 1.53 0 0 1 1.527-1.376c.378.038.728.216.982.499.255.282.394.65.392 1.03a1.52 1.52 0 0 1-1.55 1.039 1.529 1.529 0 0 1-1.396-1.237l.045.045zm26.658 0a1.53 1.53 0 0 1 1.886-1.478 1.526 1.526 0 0 1 1.155 1.285 1.536 1.536 0 0 1-.781 1.543 1.523 1.523 0 0 1-1.868-.319 1.536 1.536 0 0 1-.392-1.031zm-56.217 26.548a1.528 1.528 0 1 1 2.541 1.289 1.525 1.525 0 0 1-2.541-1.289zm29.559 0a1.536 1.536 0 0 1 .984-1.422 1.526 1.526 0 0 1 2.057 1.228 1.529 1.529 0 0 1-1.667 1.723 1.527 1.527 0 0 1-1.374-1.529zm26.658 0a1.528 1.528 0 1 1 2.541 1.289 1.525 1.525 0 0 1-2.541-1.289z" fill="#91B3FA"/><path d="M323.79-67.644h-82.447v82.579h82.447v-82.579zm0 82.579h-82.447v82.578h82.447V14.935z" fill="#E7EEFD"/><path d="M247.954 21.985a1.527 1.527 0 1 1 2.583 1.512 1.527 1.527 0 0 1-2.583-1.512zm29.559 0a1.527 1.527 0 1 1 2.532 1.31 1.523 1.523 0 0 1-2.36-.42 1.53 1.53 0 0 1-.172-.89zm26.658 0a1.527 1.527 0 1 1 2.583 1.512 1.532 1.532 0 0 1-1.248.505 1.521 1.521 0 0 1-1.162-.68 1.53 1.53 0 0 1-.173-1.337zm-56.217 26.562a1.523 1.523 0 0 1 .983-1.421 1.524 1.524 0 0 1 2.057 1.228 1.53 1.53 0 0 1-1.666 1.723 1.525 1.525 0 0 1-1.374-1.53zm29.559 0a1.527 1.527 0 0 1 1.527-1.376 1.525 1.525 0 0 1 1.374 1.53 1.528 1.528 0 0 1-2.947-.199l.046.045zm26.658 0a1.523 1.523 0 0 1 .983-1.421 1.524 1.524 0 0 1 2.057 1.228 1.53 1.53 0 0 1-1.666 1.723 1.525 1.525 0 0 1-1.374-1.53zm-56.217 26.548a1.527 1.527 0 1 1 2.54 1.29 1.525 1.525 0 0 1-2.54-1.29zm29.559 0a1.523 1.523 0 0 1 .983-1.422 1.524 1.524 0 0 1 2.057 1.228 1.526 1.526 0 1 1-3.04.193zm26.658 0a1.527 1.527 0 1 1 2.54 1.29 1.525 1.525 0 0 1-2.54-1.29z" fill="#91B3FA"/><path d="M323.79 97.513h-82.447v82.579h82.447V97.513z" fill="#E7EEFD"/><path d="M247.954 104.563a1.529 1.529 0 0 1 1.556-1.033 1.532 1.532 0 0 1 1.027 2.545 1.51 1.51 0 0 1-.566.398 1.514 1.514 0 0 1-1.342-.097 1.534 1.534 0 0 1-.675-1.813zm29.559 0a1.525 1.525 0 0 1 2.946-.371 1.529 1.529 0 0 1-2.129 1.898 1.528 1.528 0 0 1-.817-1.527zm26.658 0a1.529 1.529 0 0 1 2.464-.647 1.537 1.537 0 0 1 .451 1.552 1.518 1.518 0 0 1-.897 1.005 1.52 1.52 0 0 1-1.845-.573 1.534 1.534 0 0 1-.173-1.337zm-56.217 26.563a1.525 1.525 0 0 1 2.661-1.016 1.533 1.533 0 0 1-.401 2.365 1.527 1.527 0 0 1-2.26-1.349zm29.559 0a1.526 1.526 0 0 1 1.527-1.377 1.53 1.53 0 0 1 1.374 1.53 1.529 1.529 0 0 1-2.459.658 1.53 1.53 0 0 1-.488-.857l.046.046zm26.658 0a1.525 1.525 0 0 1 1.885-1.479 1.529 1.529 0 1 1-1.493 2.509 1.528 1.528 0 0 1-.392-1.03zm-56.217 26.547a1.53 1.53 0 0 1 1.527-1.376 1.521 1.521 0 0 1 1.419.985 1.538 1.538 0 0 1-.406 1.681 1.517 1.517 0 0 1-1.711.227 1.53 1.53 0 0 1-.829-1.517zm29.559 0c.001-.309.096-.609.272-.863a1.522 1.522 0 0 1 1.613-.616c.3.073.57.234.776.464.207.229.339.516.379.822a1.527 1.527 0 1 1-3.04.193zm26.658 0a1.53 1.53 0 0 1 1.527-1.376 1.521 1.521 0 0 1 1.419.985 1.53 1.53 0 0 1-1.226 2.06 1.523 1.523 0 0 1-1.54-.782 1.53 1.53 0 0 1-.18-.887z" fill="#91B3FA"/><path d="M323.79 180.092h-82.447v82.578h82.447v-82.578z" fill="#E7EEFD"/><path d="M247.954 187.141a1.529 1.529 0 0 1 1.556-1.032c.337.024.656.16.907.385a1.535 1.535 0 0 1 .452 1.553 1.524 1.524 0 0 1-2.742.432 1.533 1.533 0 0 1-.173-1.338zm29.559 0a1.53 1.53 0 0 1 1.527-1.361c.308.002.609.098.863.274a1.536 1.536 0 0 1 .61 1.621 1.529 1.529 0 0 1-2.183.993 1.531 1.531 0 0 1-.817-1.527zm26.658 0a1.529 1.529 0 0 1 2.464-.647c.251.226.421.529.483.861a1.541 1.541 0 0 1-.364 1.299c-.156.174-.349.31-.565.398a1.534 1.534 0 0 1-1.343-.098 1.53 1.53 0 0 1-.675-1.813zm-56.217 26.563a1.52 1.52 0 0 1 .272-.863 1.528 1.528 0 1 1 1.988 2.212 1.527 1.527 0 0 1-2.26-1.349zm29.559 0a1.53 1.53 0 0 1 1.527-1.376 1.528 1.528 0 0 1 1.374 1.529 1.532 1.532 0 0 1-1.55 1.039 1.527 1.527 0 0 1-1.397-1.238l.046.046zm26.658 0a1.52 1.52 0 0 1 .272-.863 1.528 1.528 0 1 1 1.988 2.212 1.527 1.527 0 0 1-2.26-1.349zm-56.217 26.547a1.526 1.526 0 0 1 2.946-.391 1.538 1.538 0 0 1-.406 1.681 1.524 1.524 0 0 1-2.36-.402 1.531 1.531 0 0 1-.18-.888zm29.559 0a1.525 1.525 0 0 1 .983-1.421 1.52 1.52 0 0 1 1.678.406 1.523 1.523 0 0 1 .227 1.714 1.529 1.529 0 0 1-1.514.831 1.53 1.53 0 0 1-1.374-1.53zm26.658 0a1.526 1.526 0 0 1 2.946-.391 1.53 1.53 0 0 1-1.226 2.06 1.527 1.527 0 0 1-1.72-1.669z" fill="#91B3FA"/><path d="M323.79 262.67h-82.447v82.578h82.447V262.67z" fill="#E7EEFD"/><path d="M247.954 269.72a1.527 1.527 0 1 1 2.583 1.512 1.533 1.533 0 0 1-1.248.505 1.51 1.51 0 0 1-.66-.205 1.533 1.533 0 0 1-.675-1.812zm29.559 0a1.525 1.525 0 0 1 2.946-.372 1.532 1.532 0 0 1-.414 1.682 1.527 1.527 0 0 1-2.532-1.31zm26.658 0a1.527 1.527 0 1 1 2.583 1.512 1.52 1.52 0 0 1-1.908.3 1.533 1.533 0 0 1-.675-1.812zm-56.217 26.562a1.525 1.525 0 0 1 .983-1.421 1.52 1.52 0 0 1 1.678.406 1.528 1.528 0 1 1-2.269 2.046 1.53 1.53 0 0 1-.392-1.031zm29.559 0a1.526 1.526 0 0 1 1.527-1.376 1.528 1.528 0 0 1 1.374 1.529 1.531 1.531 0 0 1-1.55 1.039 1.526 1.526 0 0 1-1.397-1.237l.046.045zm26.658 0a1.525 1.525 0 0 1 .983-1.421 1.529 1.529 0 1 1-.591 2.452 1.53 1.53 0 0 1-.392-1.031zm-56.217 26.548a1.528 1.528 0 0 1 2.946-.392 1.525 1.525 0 0 1-1.226 2.061 1.529 1.529 0 0 1-1.72-1.669zm29.559 0a1.525 1.525 0 0 1 2.661-1.016 1.525 1.525 0 0 1-.401 2.365 1.527 1.527 0 0 1-2.26-1.349zm26.658 0a1.528 1.528 0 0 1 2.946-.392 1.534 1.534 0 0 1-.406 1.681 1.526 1.526 0 0 1-2.54-1.289z" fill="#91B3FA"/><path d="M241.343-67.644h-82.448v82.579h82.448v-82.579zm0 82.579h-82.448v82.578h82.448V14.935z" fill="#E7EEFD"/><path d="M165.506 21.985a1.532 1.532 0 0 1 1.556-1.033 1.527 1.527 0 0 1 1.36 1.938 1.527 1.527 0 1 1-2.916-.905zm29.559 0a1.533 1.533 0 0 1 1.527-1.361 1.523 1.523 0 0 1 1.419.99 1.53 1.53 0 0 1-2.129 1.897 1.531 1.531 0 0 1-.817-1.526zm26.658 0a1.532 1.532 0 0 1 1.556-1.033 1.527 1.527 0 0 1 1.36 1.938 1.527 1.527 0 1 1-2.916-.905zm-56.217 26.562a1.53 1.53 0 0 1 1.886-1.479 1.527 1.527 0 0 1 1.155 1.286 1.529 1.529 0 0 1-1.667 1.723 1.525 1.525 0 0 1-1.374-1.53zm29.559 0a1.532 1.532 0 0 1 1.527-1.376 1.525 1.525 0 0 1 1.374 1.53 1.528 1.528 0 1 1-2.947-.2l.046.046zm26.658 0a1.53 1.53 0 0 1 1.886-1.479 1.527 1.527 0 0 1 1.155 1.286 1.529 1.529 0 0 1-1.667 1.723 1.525 1.525 0 0 1-1.374-1.53zm-56.217 26.548a1.532 1.532 0 0 1 1.527-1.377 1.525 1.525 0 0 1 1.419.985 1.532 1.532 0 0 1-.405 1.681 1.525 1.525 0 0 1-2.361-.402 1.53 1.53 0 0 1-.18-.887zm29.559 0a1.53 1.53 0 0 1 1.886-1.479 1.527 1.527 0 0 1 1.003 2.178 1.528 1.528 0 0 1-2.497.331 1.53 1.53 0 0 1-.392-1.03zm26.658 0a1.532 1.532 0 0 1 1.527-1.377 1.525 1.525 0 0 1 1.419.985 1.532 1.532 0 0 1-.405 1.681 1.525 1.525 0 0 1-2.361-.402 1.53 1.53 0 0 1-.18-.887z" fill="#91B3FA"/><path d="M241.343 97.513h-82.448v82.579h82.448V97.513z" fill="#E7EEFD"/><path d="M165.506 104.563a1.534 1.534 0 0 1 1.556-1.033 1.528 1.528 0 0 1 1.027 2.545 1.518 1.518 0 0 1-1.908.301 1.533 1.533 0 0 1-.675-1.813zm29.559 0a1.531 1.531 0 0 1 1.527-1.361 1.522 1.522 0 0 1 1.419.99 1.529 1.529 0 0 1-2.129 1.898 1.53 1.53 0 0 1-.817-1.527zm26.658 0a1.534 1.534 0 0 1 1.556-1.033 1.528 1.528 0 0 1 1.027 2.545 1.518 1.518 0 0 1-1.908.301 1.533 1.533 0 0 1-.675-1.813zm-56.217 26.563a1.536 1.536 0 0 1 .984-1.422 1.526 1.526 0 0 1 2.057 1.228 1.529 1.529 0 0 1-1.667 1.723 1.528 1.528 0 0 1-1.374-1.529zm29.559 0a1.53 1.53 0 0 1 1.527-1.377 1.53 1.53 0 0 1 1.374 1.53 1.528 1.528 0 1 1-2.947-.199l.046.046zm26.658 0a1.536 1.536 0 0 1 .984-1.422 1.526 1.526 0 0 1 2.057 1.228 1.529 1.529 0 0 1-1.667 1.723 1.528 1.528 0 0 1-1.374-1.529zm-56.217 26.547a1.526 1.526 0 0 1 2.946-.391 1.53 1.53 0 0 1-1.226 2.06 1.523 1.523 0 0 1-1.54-.782 1.53 1.53 0 0 1-.18-.887zm29.559 0a1.53 1.53 0 0 1 1.886-1.479 1.528 1.528 0 0 1 1.155 1.286 1.536 1.536 0 0 1-.781 1.542 1.525 1.525 0 0 1-2.26-1.349zm26.658 0a1.526 1.526 0 0 1 2.946-.391 1.53 1.53 0 0 1-1.226 2.06 1.523 1.523 0 0 1-1.54-.782 1.53 1.53 0 0 1-.18-.887z" fill="#91B3FA"/><path d="M241.343 180.092h-82.448v82.578h82.448v-82.578z" fill="#E7EEFD"/><path d="M165.506 187.141a1.521 1.521 0 0 1 1.556-1.032 1.527 1.527 0 0 1 1.027 2.545 1.53 1.53 0 0 1-1.248.505 1.527 1.527 0 0 1-1.335-2.018zm29.559 0a1.529 1.529 0 0 1 2.39-1.087 1.536 1.536 0 0 1 .61 1.621 1.534 1.534 0 0 1-.467.777 1.528 1.528 0 0 1-2.533-1.311zm26.658 0a1.521 1.521 0 0 1 1.556-1.032 1.527 1.527 0 0 1 1.027 2.545 1.53 1.53 0 0 1-1.248.505 1.527 1.527 0 0 1-1.335-2.018zm-56.217 26.563a1.535 1.535 0 0 1 .984-1.421 1.527 1.527 0 0 1 1.276 2.77 1.525 1.525 0 0 1-2.26-1.349zm29.559 0a1.526 1.526 0 0 1 1.527-1.376 1.528 1.528 0 0 1 1.374 1.529 1.527 1.527 0 0 1-.919 1.703 1.52 1.52 0 0 1-1.344-.091 1.524 1.524 0 0 1-.75-1.121 1.538 1.538 0 0 1 .066-.69l.046.046zm26.658 0a1.535 1.535 0 0 1 .984-1.421 1.527 1.527 0 0 1 1.276 2.77 1.525 1.525 0 0 1-2.26-1.349zm-56.217 26.547a1.53 1.53 0 0 1 1.527-1.376 1.53 1.53 0 1 1-.698 2.893 1.527 1.527 0 0 1-.829-1.517zm29.559 0a1.53 1.53 0 0 1 1.886-1.478 1.526 1.526 0 0 1 1.155 1.285 1.536 1.536 0 0 1-.781 1.543 1.525 1.525 0 0 1-2.26-1.35zm26.658 0a1.53 1.53 0 0 1 1.527-1.376 1.53 1.53 0 1 1-.698 2.893 1.527 1.527 0 0 1-.829-1.517z" fill="#91B3FA"/><path d="M241.343 262.67h-82.448v82.578h82.448V262.67z" fill="#E7EEFD"/><path d="M165.506 269.72a1.526 1.526 0 0 1 2.947.214 1.537 1.537 0 0 1-.364 1.298 1.53 1.53 0 0 1-1.248.505 1.52 1.52 0 0 1-1.404-1.329 1.545 1.545 0 0 1 .069-.688zm29.559 0a1.531 1.531 0 0 1 1.527-1.361 1.522 1.522 0 0 1 1.419.989 1.532 1.532 0 0 1-.413 1.682 1.527 1.527 0 0 1-2.533-1.31zm26.658 0a1.526 1.526 0 0 1 2.947.214 1.537 1.537 0 0 1-.364 1.298 1.53 1.53 0 0 1-1.248.505 1.52 1.52 0 0 1-1.403-1.329 1.53 1.53 0 0 1 .068-.688zm-56.217 26.562a1.53 1.53 0 0 1 1.886-1.478 1.526 1.526 0 0 1 1.155 1.285 1.536 1.536 0 0 1-.781 1.543 1.525 1.525 0 0 1-2.26-1.35zm29.559 0a1.53 1.53 0 0 1 1.527-1.376 1.528 1.528 0 0 1 1.374 1.529 1.526 1.526 0 0 1-2.947-.198l.046.045zm26.658 0a1.53 1.53 0 0 1 1.886-1.478 1.526 1.526 0 0 1 1.155 1.285 1.536 1.536 0 0 1-.781 1.543 1.525 1.525 0 0 1-2.26-1.35zm-56.217 26.548a1.526 1.526 0 0 1 2.946-.392 1.534 1.534 0 0 1-.405 1.681 1.525 1.525 0 0 1-2.541-1.289zm29.559 0a1.536 1.536 0 0 1 .984-1.422 1.526 1.526 0 0 1 2.057 1.228 1.529 1.529 0 0 1-1.667 1.723 1.528 1.528 0 0 1-1.374-1.529zm26.658 0a1.526 1.526 0 0 1 2.946-.392 1.534 1.534 0 0 1-.405 1.681 1.525 1.525 0 0 1-2.541-1.289z" fill="#91B3FA"/><path d="M158.895-67.644H76.448v82.579h82.447v-82.579zm0 82.579H76.448v82.578h82.447V14.935z" fill="#E7EEFD"/><path d="M83.059 21.985a1.528 1.528 0 0 1 2.463-.647 1.53 1.53 0 0 1-1.128 2.664 1.525 1.525 0 0 1-1.404-1.329 1.532 1.532 0 0 1 .069-.688zm29.559 0a1.527 1.527 0 1 1 2.532 1.31 1.523 1.523 0 0 1-2.361-.42 1.537 1.537 0 0 1-.171-.89zm26.658 0a1.522 1.522 0 0 1 1.556-1.033 1.524 1.524 0 0 1 1.39 1.247 1.525 1.525 0 0 1-.363 1.298 1.527 1.527 0 0 1-2.583-1.512zM83.059 48.547a1.53 1.53 0 0 1 1.885-1.478 1.526 1.526 0 0 1 1.155 1.285 1.532 1.532 0 0 1-.78 1.542 1.524 1.524 0 0 1-1.868-.318 1.53 1.53 0 0 1-.392-1.03zm29.559 0a1.53 1.53 0 0 1 1.526-1.376 1.528 1.528 0 0 1 1.375 1.53 1.542 1.542 0 0 1-.356 1.3 1.529 1.529 0 0 1-1.908.311 1.532 1.532 0 0 1-.683-1.81l.046.045zm26.658 0a1.523 1.523 0 0 1 .983-1.421 1.524 1.524 0 0 1 2.057 1.228 1.526 1.526 0 1 1-3.04.193zM83.059 75.095a1.53 1.53 0 0 1 1.526-1.377 1.525 1.525 0 0 1 1.477 1.889 1.53 1.53 0 0 1-1.283 1.157 1.526 1.526 0 0 1-1.72-1.67zm29.559 0a1.53 1.53 0 0 1 .983-1.422 1.524 1.524 0 0 1 2.057 1.228c.041.306-.012.617-.152.893a1.523 1.523 0 0 1-1.514.83 1.525 1.525 0 0 1-1.374-1.53zm26.658 0a1.53 1.53 0 0 1 1.526-1.377 1.523 1.523 0 0 1 1.42.985 1.528 1.528 0 0 1-2.117 1.908 1.53 1.53 0 0 1-.829-1.517z" fill="#91B3FA"/><path d="M158.895 97.513H76.448v82.579h82.447V97.513z" fill="#E7EEFD"/><path d="M83.059 104.563a1.53 1.53 0 0 1 1.556-1.033 1.527 1.527 0 0 1 1.36 1.938 1.524 1.524 0 0 1-1.581 1.113 1.526 1.526 0 0 1-1.404-1.329 1.532 1.532 0 0 1 .069-.689zm29.559 0a1.525 1.525 0 0 1 2.946-.371 1.529 1.529 0 0 1-2.13 1.898 1.53 1.53 0 0 1-.816-1.527zm26.658 0a1.523 1.523 0 0 1 1.556-1.033 1.525 1.525 0 0 1 1.39 1.247 1.523 1.523 0 0 1-.363 1.298 1.51 1.51 0 0 1-.566.398 1.516 1.516 0 0 1-1.342-.097 1.527 1.527 0 0 1-.675-1.813zm-56.217 26.563a1.533 1.533 0 0 1 .983-1.422 1.525 1.525 0 0 1 2.057 1.228 1.535 1.535 0 0 1-.78 1.543 1.525 1.525 0 0 1-2.26-1.349zm29.559 0a1.529 1.529 0 0 1 1.526-1.377 1.527 1.527 0 0 1 1.375 1.53 1.542 1.542 0 0 1-.356 1.301 1.522 1.522 0 0 1-1.246.513 1.531 1.531 0 0 1-1.411-1.324 1.52 1.52 0 0 1 .066-.689l.046.046zm26.658 0a1.525 1.525 0 0 1 3.04-.194 1.525 1.525 0 0 1-.78 1.543 1.528 1.528 0 0 1-2.26-1.349zm-56.217 26.547a1.527 1.527 0 1 1 3.003.512 1.533 1.533 0 0 1-1.283 1.157 1.523 1.523 0 0 1-1.72-1.669zm29.559 0a1.529 1.529 0 0 1 1.885-1.479 1.534 1.534 0 0 1 1.003 2.178 1.523 1.523 0 0 1-1.514.83 1.523 1.523 0 0 1-1.374-1.529zm26.658 0a1.53 1.53 0 0 1 2.388-1.104 1.527 1.527 0 0 1 .615 1.616 1.531 1.531 0 0 1-1.283 1.157 1.517 1.517 0 0 1-.891-.152 1.53 1.53 0 0 1-.829-1.517z" fill="#91B3FA"/><path d="M158.895 180.092H76.448v82.578h82.447v-82.578z" fill="#E7EEFD"/><path d="M83.059 187.141a1.53 1.53 0 0 1 1.556-1.032 1.526 1.526 0 0 1 1.36 1.938 1.531 1.531 0 0 1-.899 1.005 1.531 1.531 0 0 1-1.342-.098 1.535 1.535 0 0 1-.744-1.124 1.534 1.534 0 0 1 .069-.689zm29.559 0a1.53 1.53 0 0 1 1.526-1.361 1.53 1.53 0 1 1-.71 2.888 1.533 1.533 0 0 1-.816-1.527zm26.658 0a1.523 1.523 0 0 1 1.556-1.032 1.524 1.524 0 0 1 1.39 1.246 1.527 1.527 0 1 1-2.946-.214zm-56.217 26.563a1.527 1.527 0 1 1 2.26 1.349 1.525 1.525 0 0 1-2.26-1.349zm29.559 0a1.53 1.53 0 0 1 1.526-1.376 1.53 1.53 0 0 1 1.375 1.529 1.541 1.541 0 0 1-.356 1.301 1.525 1.525 0 0 1-2.657-.81 1.524 1.524 0 0 1 .066-.69l.046.046zm26.658 0a1.52 1.52 0 0 1 .272-.863 1.527 1.527 0 0 1 2.616 1.562 1.527 1.527 0 0 1-2.888-.699zm-56.217 26.547a1.529 1.529 0 0 1 2.388-1.104 1.533 1.533 0 0 1 .152 2.394 1.525 1.525 0 0 1-2.36-.402 1.533 1.533 0 0 1-.18-.888zm29.559 0a1.531 1.531 0 0 1 .983-1.421 1.522 1.522 0 0 1 2.057 1.228 1.52 1.52 0 0 1-.152.892 1.526 1.526 0 0 1-2.888-.699zm26.658 0a1.529 1.529 0 0 1 1.526-1.376 1.532 1.532 0 0 1 1.42.985 1.538 1.538 0 0 1-.406 1.681 1.524 1.524 0 0 1-2.36-.402 1.531 1.531 0 0 1-.18-.888z" fill="#91B3FA"/><path d="M158.895 262.67H76.448v82.578h82.447V262.67z" fill="#E7EEFD"/><path d="M83.059 269.72a1.528 1.528 0 1 1 2.018 1.91 1.518 1.518 0 0 1-1.343-.098 1.534 1.534 0 0 1-.675-1.812zm29.559 0a1.525 1.525 0 0 1 2.946-.372 1.532 1.532 0 0 1-.414 1.682 1.53 1.53 0 0 1-2.361-.42 1.535 1.535 0 0 1-.171-.89zm26.658 0a1.527 1.527 0 1 1 2.583 1.512 1.533 1.533 0 0 1-1.248.505 1.51 1.51 0 0 1-.66-.205 1.513 1.513 0 0 1-.744-1.124 1.53 1.53 0 0 1 .069-.688zm-56.217 26.562a1.532 1.532 0 0 1 .983-1.421 1.525 1.525 0 0 1 2.057 1.228 1.53 1.53 0 0 1-1.666 1.723 1.525 1.525 0 0 1-1.374-1.53zm29.559 0a1.529 1.529 0 0 1 1.526-1.376 1.527 1.527 0 0 1 1.375 1.529 1.532 1.532 0 0 1-.92 1.703 1.516 1.516 0 0 1-.682.111 1.517 1.517 0 0 1-1.167-.675 1.527 1.527 0 0 1-.178-1.337l.046.045zm26.658 0a1.525 1.525 0 0 1 .983-1.421 1.522 1.522 0 0 1 2.057 1.228 1.529 1.529 0 0 1-1.666 1.723 1.53 1.53 0 0 1-1.374-1.53zM83.059 322.83a1.53 1.53 0 0 1 1.526-1.376 1.53 1.53 0 0 1 .193 3.045 1.53 1.53 0 0 1-1.72-1.669zm29.559 0a1.532 1.532 0 0 1 .983-1.422 1.522 1.522 0 0 1 2.057 1.228 1.525 1.525 0 0 1-.781 1.543 1.523 1.523 0 0 1-1.867-.319 1.523 1.523 0 0 1-.392-1.03zm26.658 0a1.53 1.53 0 0 1 2.946-.392 1.525 1.525 0 0 1-1.226 2.061 1.523 1.523 0 0 1-1.54-.782 1.53 1.53 0 0 1-.18-.887z" fill="#91B3FA"/><path d="M76.448-67.644H-6v82.579h82.448v-82.579zm0 82.579H-6v82.578h82.448V14.935z" fill="#E7EEFD"/><path d="M30.17 21.985a1.53 1.53 0 0 1 1.527-1.361 1.524 1.524 0 0 1 1.42.99 1.531 1.531 0 0 1-1.239 2.056 1.525 1.525 0 0 1-1.708-1.685zm26.658 0a1.528 1.528 0 0 1 2.464-.647 1.53 1.53 0 0 1-1.789 2.46 1.528 1.528 0 0 1-.675-1.813zM30.17 48.547a1.53 1.53 0 0 1 1.527-1.376 1.526 1.526 0 0 1 1.374 1.53 1.532 1.532 0 0 1-.92 1.702 1.523 1.523 0 0 1-1.848-.564 1.53 1.53 0 0 1-.179-1.338l.046.046zm26.658 0a1.531 1.531 0 0 1 .983-1.421 1.524 1.524 0 0 1 2.057 1.228 1.531 1.531 0 0 1-1.666 1.723 1.526 1.526 0 0 1-1.374-1.53zM30.17 75.095a1.53 1.53 0 0 1 .983-1.422 1.524 1.524 0 0 1 2.057 1.228 1.531 1.531 0 0 1-.78 1.543 1.524 1.524 0 0 1-1.868-.319 1.53 1.53 0 0 1-.392-1.03zm26.658 0a1.53 1.53 0 0 1 1.527-1.377 1.525 1.525 0 0 1 1.42.985 1.532 1.532 0 0 1-1.227 2.06 1.525 1.525 0 0 1-1.72-1.668z" fill="#91B3FA"/><path d="M76.448 97.513H-6v82.579h82.448V97.513z" fill="#E7EEFD"/><path d="M30.17 104.563a1.528 1.528 0 0 1 2.39-1.087 1.528 1.528 0 0 1 .143 2.397 1.52 1.52 0 0 1-2.36-.42 1.53 1.53 0 0 1-.173-.89zm26.658 0a1.53 1.53 0 0 1 1.556-1.033 1.527 1.527 0 0 1 1.36 1.938 1.522 1.522 0 0 1-.898 1.005 1.518 1.518 0 0 1-1.343-.097 1.53 1.53 0 0 1-.675-1.813zM30.17 131.126a1.528 1.528 0 0 1 1.527-1.377 1.525 1.525 0 0 1 1.374 1.53 1.525 1.525 0 0 1-2.459.658 1.529 1.529 0 0 1-.488-.857l.046.046zm26.658 0a1.533 1.533 0 0 1 .983-1.422 1.525 1.525 0 0 1 2.057 1.228 1.534 1.534 0 0 1-.78 1.543 1.525 1.525 0 0 1-2.26-1.349zM30.17 157.673a1.53 1.53 0 0 1 1.885-1.479 1.527 1.527 0 0 1 1.155 1.286 1.53 1.53 0 0 1-1.666 1.722 1.524 1.524 0 0 1-1.374-1.529zm26.658 0a1.527 1.527 0 1 1 3.003.512 1.533 1.533 0 0 1-1.283 1.157 1.524 1.524 0 0 1-1.72-1.669z" fill="#91B3FA"/><path d="M76.448 180.092H-6v82.578h82.448v-82.578z" fill="#E7EEFD"/><path d="M30.17 187.141a1.529 1.529 0 0 1 2.39-1.087 1.533 1.533 0 0 1 .143 2.398 1.53 1.53 0 0 1-2.533-1.311zm26.658 0a1.53 1.53 0 0 1 1.556-1.032 1.526 1.526 0 0 1 1.36 1.938 1.529 1.529 0 0 1-1.58 1.112 1.526 1.526 0 0 1-1.405-1.329 1.532 1.532 0 0 1 .07-.689zM30.17 213.704a1.527 1.527 0 0 1 1.527-1.376 1.529 1.529 0 0 1 1.374 1.529 1.531 1.531 0 0 1-1.55 1.039 1.528 1.528 0 0 1-1.397-1.238l.046.046zm26.658 0a1.528 1.528 0 1 1 3.056.014 1.528 1.528 0 0 1-3.056-.014zM30.17 240.251a1.532 1.532 0 0 1 .983-1.421 1.525 1.525 0 0 1 2.057 1.228 1.53 1.53 0 0 1-1.666 1.723 1.525 1.525 0 0 1-1.374-1.53zm26.658 0a1.529 1.529 0 0 1 2.389-1.104 1.533 1.533 0 0 1 .152 2.394 1.524 1.524 0 0 1-2.361-.402 1.534 1.534 0 0 1-.18-.888z" fill="#91B3FA"/><path d="M76.448 262.67H-6v82.578h82.448V262.67z" fill="#E7EEFD"/><path d="M30.17 269.72a1.528 1.528 0 0 1 2.39-1.087 1.53 1.53 0 0 1-.682 2.772 1.529 1.529 0 0 1-1.708-1.685zm26.658 0a1.527 1.527 0 1 1 2.583 1.512 1.533 1.533 0 0 1-1.248.505 1.517 1.517 0 0 1-1.404-1.329 1.528 1.528 0 0 1 .07-.688zM30.17 296.282a1.528 1.528 0 0 1 1.527-1.376 1.525 1.525 0 0 1 1.374 1.529 1.536 1.536 0 0 1-.356 1.302 1.53 1.53 0 0 1-1.908.311 1.543 1.543 0 0 1-.749-1.122 1.528 1.528 0 0 1 .066-.689l.046.045zm26.658 0a1.533 1.533 0 0 1 .983-1.421 1.525 1.525 0 0 1 2.057 1.228 1.53 1.53 0 0 1-1.666 1.723 1.525 1.525 0 0 1-1.374-1.53zM30.17 322.83a1.533 1.533 0 0 1 .983-1.422 1.525 1.525 0 0 1 2.057 1.228 1.535 1.535 0 0 1-.78 1.543 1.525 1.525 0 0 1-2.26-1.349zm26.658 0a1.53 1.53 0 0 1 1.527-1.376 1.53 1.53 0 0 1 .193 3.045 1.533 1.533 0 0 1-1.54-.782 1.532 1.532 0 0 1-.18-.887z" fill="#91B3FA"/></g></g><path d="M604.772 350.152H13.923a13.919 13.919 0 0 1-4.951-.746 13.035 13.035 0 0 1-4.257-2.426 11.761 11.761 0 0 1-2.908-3.732 10.837 10.837 0 0 1-1.112-4.466 10.83 10.83 0 0 1 1.108-4.469 11.751 11.751 0 0 1 2.907-3.737 13.042 13.042 0 0 1 4.258-2.429 13.914 13.914 0 0 1 4.955-.747h590.849c1.69-.052 3.373.202 4.955.747a13.035 13.035 0 0 1 4.258 2.429 11.749 11.749 0 0 1 2.907 3.737 10.827 10.827 0 0 1 1.108 4.469 10.834 10.834 0 0 1-1.112 4.466 11.758 11.758 0 0 1-2.908 3.732 13.029 13.029 0 0 1-4.256 2.426 13.924 13.924 0 0 1-4.952.746zm-504.29 99.1c-3.723-.602-7.526-.857-11.007-2.276-4.205-1.714-7.927-5.919-7.057-10.351.75-3.844 4.7-6.348 8.583-6.803 3.883-.455 7.74.67 11.529 1.634a147.188 147.188 0 0 0 19.537 3.589c9.561 1.084 19.925 1.499 27.411 7.539 4.954 4.017 8.583 10.405 14.85 11.596a31.93 31.93 0 0 1 3.91.643 3.604 3.604 0 0 1 2.678 2.678c.375 2.679-6.267 3.013-8.155 3.536-5.477 1.499-10.712 3.495-16.068 5.048-5.678 1.62-11.757 1.138-17.555.603-5.799-.536-12.387-1.473-15.761-6.241-1.768-2.49-2.384-5.718-4.54-7.874a12.047 12.047 0 0 0-6.079-2.865 12.271 12.271 0 0 0-2.276-.456z" fill="#E9EFFD"/><path d="M84.48 425.791a10.592 10.592 0 0 0 8.034 12.628 10.127 10.127 0 0 0 8.035-1.339l58.155 12.534 3.281-14.73-58.33-12.574a12.386 12.386 0 0 0-6.548-4.58 10.475 10.475 0 0 0-8.034 1.433 10.603 10.603 0 0 0-4.593 6.628zm8.034-.495.161-.094c.235-.112.482-.198.737-.254h.147a4.334 4.334 0 0 1 1.66 0 3.317 3.317 0 0 1 2.344 3.321 3.415 3.415 0 0 1-2.678 3.12l.508-.188a3.537 3.537 0 0 1-2.29.148 3.33 3.33 0 0 1-2.343-2.826 3.336 3.336 0 0 1 1.674-3.267l.08.04z" fill="#010648"/><path d="m101.165 432.554 58.195 12.547m-56.856-18.332 58.195 12.547" stroke="#fff" stroke-miterlimit="10"/><path d="M151.821 441.459a14.04 14.04 0 0 0 1.888 10.713c.148.244.309.481.482.709a14.202 14.202 0 0 0 17.97 4.326l1.929-.991-10.793-7.446 5.838-8.463 10.619 7.325.12-2.29a14.21 14.21 0 0 0-12.202-15.394 14.208 14.208 0 0 0-15.918 11.511h.067z" fill="#fff" stroke="#010648" stroke-miterlimit="10"/><path d="M130.584 404.714c-7.285-.817-16.069-3.442-17.609-10.593-1.339-6.213 4.017-12.252 10.123-14.06 6.106-1.808 12.628-.589 18.921.321 9.28 1.339 75.59 2.236 73.715 15.36-.937 6.615-32.606 8.034-38.739 8.664a214.26 214.26 0 0 1-46.411.308z" fill="#E9EFFD"/><path d="m186.275 383.703-1.071 4.218-50.255-8.811 1.071-4.218 50.255 8.811z" fill="#010648"/><path d="m222.711 384.694.294.402a8.329 8.329 0 0 1 1.42 6.32 8.72 8.72 0 0 1-10.124 6.897l-48.902-8.289 2.518-16.07 49.29 7.553a8.907 8.907 0 0 1 5.504 3.187zm-77.786-15.989 6.481 9.227-1.245 3.749-8.383 5.651-19.028-8.035 1.969-10.646 20.206.054z" fill="#fff" stroke="#010648" stroke-miterlimit="10"/><path d="m179.432 381.333 45.1 7.218m-46.077-1.634 45.099 7.218m-54.231-3.442 3.187-16.337m-43.788 4.513 10.633 4.057" stroke="#010648" stroke-miterlimit="10"/><path d="M11.04 331.933V215.065h77.376v20.372H35.748v27.848H83.28v20.372H35.748v48.276H11.04zm93.995 0V215.065h78.746v20.372h-54.038v27.848h49.986v20.372h-49.986v27.904h54.266v20.372h-78.974zm98.389 0V215.065h24.708v48.22h50.158v-48.22h24.65v116.868h-24.65v-48.276h-50.158v48.276h-24.708zm119.888 0V215.065h24.708v96.496h50.1v20.372h-74.808zm91.171 0V215.065h78.745v20.372H439.19v27.848h49.987v20.372H439.19v27.904h54.266v20.372h-78.973zm98.389 0V215.065h46.106c8.825 0 16.358 1.579 22.596 4.737 6.277 3.119 11.051 7.551 14.323 13.296 3.31 5.706 4.964 12.421 4.964 20.144 0 7.76-1.673 14.437-5.021 20.029-3.348 5.554-8.198 9.815-14.551 12.782-6.315 2.968-13.961 4.452-22.939 4.452h-30.87v-19.859h26.876c4.717 0 8.635-.647 11.755-1.94 3.119-1.294 5.44-3.234 6.961-5.821 1.56-2.587 2.34-5.801 2.34-9.643 0-3.881-.78-7.153-2.34-9.816-1.521-2.663-3.861-4.679-7.018-6.048-3.12-1.408-7.057-2.112-11.812-2.112H537.58v96.667h-24.708zm63.11-53.184 29.045 53.184h-27.276l-28.417-53.184h26.648z" fill="#4F52FF"/><path d="M137.707 61.889v29.607" stroke="#262525" stroke-width="3" stroke-miterlimit="10"/><path d="M193.961 18.06H81.441v52.117h112.52V18.06z" fill="#FF2E23"/><path d="M193.961 18.06H81.441v52.117h112.52V18.06z" fill="url(#d)"/><path d="M123.272 52.314V57h-5.115v-4.687h-11.676V47.8l9.038-23.14h5.357l-8.852 22.859h6.133v-8.222h5.115v8.222h2.371v4.834l-2.371-.04zm22.912-3.16a8.34 8.34 0 0 1-.67 3.428 7.639 7.639 0 0 1-4.499 4.124 9.908 9.908 0 0 1-6.347 0 7.612 7.612 0 0 1-2.678-1.58 7.715 7.715 0 0 1-1.808-2.544 8.126 8.126 0 0 1-.67-3.428V32.562a8.312 8.312 0 0 1 .67-3.468 7.38 7.38 0 0 1 1.875-2.558 7.866 7.866 0 0 1 2.678-1.58 9.372 9.372 0 0 1 3.147-.536 9.84 9.84 0 0 1 3.2.536c.99.34 1.901.878 2.678 1.58a7.901 7.901 0 0 1 1.808 2.558 8.512 8.512 0 0 1 .669 3.468l-.053 16.592zm-5.115-16.592a3.226 3.226 0 0 0-.863-2.405 3.223 3.223 0 0 0-2.345-1.016 3.212 3.212 0 0 0-3.207 3.421V49.1a3.197 3.197 0 0 0 .884 2.437c.639.57 1.475.868 2.33.83a3.256 3.256 0 0 0 2.317-.83 3.186 3.186 0 0 0 .884-2.424V32.562zm25.428 19.752V57h-5.115v-4.687h-11.663V47.8l8.985-23.14h5.356l-8.878 22.765h6.2v-8.128h5.115v8.222h2.37v4.834l-2.37-.04zm182.647 154.627a12.755 12.755 0 0 1 2.344 4.66 376.141 376.141 0 0 1 2.852 8.557c.924 2.865 1.888 5.892 1.339 8.878a4.116 4.116 0 0 1-1.781 3.013 3.29 3.29 0 0 1-2.29.254 6.693 6.693 0 0 1-4.258-4.191c-.79-1.901-1.111-4.017-1.848-5.905-1.339-3.388-3.91-6.857-7.673-7.258-1.928-.215-4.432-.416-5.758-2.022-1.325-1.607-1.473-5.357.429-6.589a5.591 5.591 0 0 1 2.102-.763 26.768 26.768 0 0 1 7.164 0c2.089.174 4.352-.228 6.321.656.393.169.752.41 1.057.71z" fill="#fff"/><path d="M349.144 206.941a12.755 12.755 0 0 1 2.344 4.66 376.141 376.141 0 0 1 2.852 8.557c.924 2.865 1.888 5.892 1.339 8.878a4.116 4.116 0 0 1-1.781 3.013 3.29 3.29 0 0 1-2.29.254 6.693 6.693 0 0 1-4.258-4.191c-.79-1.901-1.111-4.017-1.848-5.905-1.339-3.388-3.91-6.857-7.673-7.258-1.928-.215-4.432-.416-5.758-2.022-1.325-1.607-1.473-5.357.429-6.589a5.591 5.591 0 0 1 2.102-.763 26.768 26.768 0 0 1 7.164 0c2.089.174 4.352-.228 6.321.656.393.169.752.41 1.057.71z" fill="url(#e)"/><path d="M144.188 101.633c.362-1.687.724-3.388 1.072-5.088.723-3.59 2.678-7.312-.094-10.472-2.477-2.812-7.606-1.848-10.552-.134a8.156 8.156 0 0 0-4.178 8.356 6.701 6.701 0 0 0 6.133 5.142 152.142 152.142 0 0 0-2.129 7.566c-.91 3.629 1.339 4.915 4.553 4.218a5.425 5.425 0 0 0 2.317-.884 5.584 5.584 0 0 0 1.606-3.227 357.64 357.64 0 0 0 1.272-5.477z" fill="#fff"/><path d="M144.188 101.633c.362-1.687.724-3.388 1.072-5.088.723-3.59 2.678-7.312-.094-10.472-2.477-2.812-7.606-1.848-10.552-.134a8.156 8.156 0 0 0-4.178 8.356 6.701 6.701 0 0 0 6.133 5.142 152.142 152.142 0 0 0-2.129 7.566c-.91 3.629 1.339 4.915 4.553 4.218a5.425 5.425 0 0 0 2.317-.884 5.584 5.584 0 0 0 1.606-3.227 357.64 357.64 0 0 0 1.272-5.477z" fill="url(#f)"/><path d="m337.762 202.575-1.446-.308c-15.332-2.825-31.99-7.526-47.643-6.079-3.375.308-6.696.95-10.083 1.165-11.396.709-22.323-3.321-33.303-5.718-4.472-.978-8.931-1.5-13.39-2.424-5.45-1.138-11.074 0-16.564-.696-4.794-.63-9.494-2.679-14.302-2.103-6.213.777-11.69 4.633-13.39 10.793a19.739 19.739 0 0 0 .294 9.468c.683 2.906 1.848 5.999 4.433 7.486 5.423 3.093 15.667 1.084 21.679 1.191 8.142.134 16.283.415 24.424.683 16.069.536 32.138 1.085 48.126.683 16.524-.415 33.035 0 49.545.563a547.677 547.677 0 0 0 1.62-14.704z" fill="#010648"/><path d="m337.762 202.575-1.446-.308c-15.332-2.825-31.99-7.526-47.643-6.079-3.375.308-6.696.95-10.083 1.165-11.396.709-22.323-3.321-33.303-5.718-4.472-.978-8.931-1.5-13.39-2.424-5.45-1.138-11.074 0-16.564-.696-4.794-.63-9.494-2.679-14.302-2.103-6.213.777-11.69 4.633-13.39 10.793a19.739 19.739 0 0 0 .294 9.468c.683 2.906 1.848 5.999 4.433 7.486 5.423 3.093 15.667 1.084 21.679 1.191 8.142.134 16.283.415 24.424.683 16.069.536 32.138 1.085 48.126.683 16.524-.415 33.035 0 49.545.563a547.677 547.677 0 0 0 1.62-14.704z" fill="url(#g)"/><path d="M66.483 234.754a21.427 21.427 0 0 0-4.526 9.374 11.26 11.26 0 0 0-.16 6.066c.736 2.45 3.012 4.727 5.744 4.165a4.15 4.15 0 0 0 3.066-4.018 3.495 3.495 0 0 0-1.218-2.531c.076-.833.206-1.66.388-2.477.044-.308.169-.599.362-.844.79-.776 1.017.442.964.978-.054.536-.616 2.049.08 2.397.455.174.817-.415.938-.884a29.79 29.79 0 0 0 .71-5.209l.374-4.807a6.252 6.252 0 0 0 0-1.581 3.404 3.404 0 0 0-3.495-2.678 5.973 5.973 0 0 0-3.227 2.049z" fill="#fff"/><path d="M66.483 234.754a21.427 21.427 0 0 0-4.526 9.374 11.26 11.26 0 0 0-.16 6.066c.736 2.45 3.012 4.727 5.744 4.165a4.15 4.15 0 0 0 3.066-4.018 3.495 3.495 0 0 0-1.218-2.531c.076-.833.206-1.66.388-2.477.044-.308.169-.599.362-.844.79-.776 1.017.442.964.978-.054.536-.616 2.049.08 2.397.455.174.817-.415.938-.884a29.79 29.79 0 0 0 .71-5.209l.374-4.807a6.252 6.252 0 0 0 0-1.581 3.404 3.404 0 0 0-3.495-2.678 5.973 5.973 0 0 0-3.227 2.049z" fill="url(#h)"/><path d="M113.176 192.626c-5.048-.71-10.257.843-15.078 1.607l-5.918 1.165a32.168 32.168 0 0 0-7.339 1.928c-3.508 1.647-6.012 4.861-8.034 8.182a100.917 100.917 0 0 0-5.29 10.713c-2.677 5.892-4.98 11.824-7.404 17.743a.71.71 0 0 0 .362.911c3.575 1.66 7.083 3.468 10.565 5.356a.273.273 0 0 0 .344-.05.272.272 0 0 0 .057-.111c.938-2.973 13.016-22.765 15.855-24.104a34.64 34.64 0 0 1 5.356-1.339 68.722 68.722 0 0 0 10.619-4.017 70.15 70.15 0 0 0 9.092-5.196 6.305 6.305 0 0 0 2.276-2.678c2.223-5.048-.334-9.387-5.463-10.11z" fill="#fff"/><path d="M113.176 192.626c-5.048-.71-10.257.843-15.078 1.607l-5.918 1.165a32.168 32.168 0 0 0-7.339 1.928c-3.508 1.647-6.012 4.861-8.034 8.182a100.917 100.917 0 0 0-5.29 10.713c-2.677 5.892-4.98 11.824-7.404 17.743a.71.71 0 0 0 .362.911c3.575 1.66 7.083 3.468 10.565 5.356a.273.273 0 0 0 .344-.05.272.272 0 0 0 .057-.111c.938-2.973 13.016-22.765 15.855-24.104a34.64 34.64 0 0 1 5.356-1.339 68.722 68.722 0 0 0 10.619-4.017 70.15 70.15 0 0 0 9.092-5.196 6.305 6.305 0 0 0 2.276-2.678c2.223-5.048-.334-9.387-5.463-10.11z" fill="url(#i)"/><path d="M266.243 263.545a53.901 53.901 0 0 1-2.879-5.156 8.794 8.794 0 0 0-1.807-2.906 8.366 8.366 0 0 0-4.674-1.607 19.605 19.605 0 0 0-7.284 0 5.49 5.49 0 0 0-2.678 1.34c-2.009 2.035-.094 5.664 1.861 7.057 1.955 1.392 4.673 1.807 6.695 3.508a18.385 18.385 0 0 1 4.406 6.508l3.334 6.897c.214.428.469.91.924 1.058.264.066.54.066.804 0 2.838-.643 4.526-3.75 4.619-6.696.174-3.857-1.486-6.923-3.321-10.003z" fill="#fff"/><path d="M266.243 263.545a53.901 53.901 0 0 1-2.879-5.156 8.794 8.794 0 0 0-1.807-2.906 8.366 8.366 0 0 0-4.674-1.607 19.605 19.605 0 0 0-7.284 0 5.49 5.49 0 0 0-2.678 1.34c-2.009 2.035-.094 5.664 1.861 7.057 1.955 1.392 4.673 1.807 6.695 3.508a18.385 18.385 0 0 1 4.406 6.508l3.334 6.897c.214.428.469.91.924 1.058.264.066.54.066.804 0 2.838-.643 4.526-3.75 4.619-6.696.174-3.857-1.486-6.923-3.321-10.003z" fill="url(#j)"/><path d="M90.948 212.07a16.764 16.764 0 0 0 6.32 3.709 6.921 6.921 0 0 0 7.258-1.808c1.526-1.888 2.075-5.075 4.485-5.437a4.482 4.482 0 0 1 2.089.322c3.361 1.111 6.696 2.959 10.204 2.45a9.837 9.837 0 0 0 5.771-3.334 8.649 8.649 0 0 0 2.357-7.178c-1.018-5.142-7.659-6.227-11.891-6.481-5.717-.335-11.583-.268-17.166-1.527-4.151-.937-7.66-.75-10.94 2.679a11.343 11.343 0 0 0-1.701 12.413 13.891 13.891 0 0 0 3.214 4.192z" fill="#fff"/><path d="M90.948 212.07a16.764 16.764 0 0 0 6.32 3.709 6.921 6.921 0 0 0 7.258-1.808c1.526-1.888 2.075-5.075 4.485-5.437a4.482 4.482 0 0 1 2.089.322c3.361 1.111 6.696 2.959 10.204 2.45a9.837 9.837 0 0 0 5.771-3.334 8.649 8.649 0 0 0 2.357-7.178c-1.018-5.142-7.659-6.227-11.891-6.481-5.717-.335-11.583-.268-17.166-1.527-4.151-.937-7.66-.75-10.94 2.679a11.343 11.343 0 0 0-1.701 12.413 13.891 13.891 0 0 0 3.214 4.192z" fill="url(#k)"/><path d="M123.125 180.292c-6.842.71-9.025 5.25-12.547 10.419-2.919 4.285-5.677 10.632-1.901 15.132 3.039 3.615 7.057 5.249 11.02 7.539 3.361 1.928 6.079 3.428 10.338 3.254 10.377-.429 20.876.736 31.374.669 6.695 0 13.149 0 19.604-2.008 5.65-1.781 7.686-7.285 9.172-12.735 1.486-5.45 2.303-13.539-1.567-18.426a10.613 10.613 0 0 0-1.74-1.728 13.987 13.987 0 0 0-3.268-1.754 11.486 11.486 0 0 0-6.882-1.138c-.509.12-1.018.308-1.527.455a75.352 75.352 0 0 1-14.167 2.544 80.738 80.738 0 0 1-16.671-.508c-6.964-.71-14.248-2.424-21.238-1.715z" fill="#fff"/><path d="M123.125 180.292c-6.842.71-9.025 5.25-12.547 10.419-2.919 4.285-5.677 10.632-1.901 15.132 3.039 3.615 7.057 5.249 11.02 7.539 3.361 1.928 6.079 3.428 10.338 3.254 10.377-.429 20.876.736 31.374.669 6.695 0 13.149 0 19.604-2.008 5.65-1.781 7.686-7.285 9.172-12.735 1.486-5.45 2.303-13.539-1.567-18.426a10.613 10.613 0 0 0-1.74-1.728 13.987 13.987 0 0 0-3.268-1.754 11.486 11.486 0 0 0-6.882-1.138c-.509.12-1.018.308-1.527.455a75.352 75.352 0 0 1-14.167 2.544 80.738 80.738 0 0 1-16.671-.508c-6.964-.71-14.248-2.424-21.238-1.715z" fill="url(#l)"/><path d="M251.634 260.17c.308-1.821.938-6.695-.281-7.9a8.208 8.208 0 0 0-4.271-1.594c-1.942-.442-3.844-1.111-5.758-1.66l-11.811-3.429a177.386 177.386 0 0 1-18.666-6.695c-8.343-3.455-17.006-7.365-25.991-6.455a57.06 57.06 0 0 0-6.187 1.46 17.598 17.598 0 0 0-6.695 2.759 7.955 7.955 0 0 0-2.397 9.373c3.053 8.035 11.342 8.477 18.492 10.392a67.265 67.265 0 0 0 11.489 1.513 602.045 602.045 0 0 1 38.351 4.526 553.4 553.4 0 0 1 9.655 1.527c.883.147 1.995.495 3.053.602.482-1.473.776-2.959 1.017-4.419z" fill="#010648"/><path d="M251.634 260.17c.308-1.821.938-6.695-.281-7.9a8.208 8.208 0 0 0-4.271-1.594c-1.942-.442-3.844-1.111-5.758-1.66l-11.811-3.429a177.386 177.386 0 0 1-18.666-6.695c-8.343-3.455-17.006-7.365-25.991-6.455a57.06 57.06 0 0 0-6.187 1.46 17.598 17.598 0 0 0-6.695 2.759 7.955 7.955 0 0 0-2.397 9.373c3.053 8.035 11.342 8.477 18.492 10.392a67.265 67.265 0 0 0 11.489 1.513 602.045 602.045 0 0 1 38.351 4.526 553.4 553.4 0 0 1 9.655 1.527c.883.147 1.995.495 3.053.602.482-1.473.776-2.959 1.017-4.419z" fill="url(#m)"/><path d="M174.773 251.895a3.386 3.386 0 0 0 1.714 0c6.802-1.741 12.721-7.807 16.805-13.204 6.548-8.651 10.538-18.748 16.698-27.612 1.888-2.679 4.419-4.58 5.999-7.499a28.595 28.595 0 0 0 2.972-17.837c-2.075-11.169-15.037-14.463-24.879-12.816-6.455 1.085-12.212 4.835-18.653 6.04-.82.068-1.61.335-2.304.776-.238.244-.4.551-.468.884v23.502c0 4.887.495 11.128-.161 15.132-.402 2.464-2.357 5.195-3.133 7.632a27.863 27.863 0 0 0-.375 17.69c.83 2.37 2.973 6.562 5.785 7.312z" fill="#010648"/><path d="M174.773 251.895a3.386 3.386 0 0 0 1.714 0c6.802-1.741 12.721-7.807 16.805-13.204 6.548-8.651 10.538-18.748 16.698-27.612 1.888-2.679 4.419-4.58 5.999-7.499a28.595 28.595 0 0 0 2.972-17.837c-2.075-11.169-15.037-14.463-24.879-12.816-6.455 1.085-12.212 4.835-18.653 6.04-.82.068-1.61.335-2.304.776-.238.244-.4.551-.468.884v23.502c0 4.887.495 11.128-.161 15.132-.402 2.464-2.357 5.195-3.133 7.632a27.863 27.863 0 0 0-.375 17.69c.83 2.37 2.973 6.562 5.785 7.312z" fill="url(#n)"/><path d="m139.81 201.517.375.764-.375-.764z" fill="#262525"/><path d="M137.761 193.161a71.653 71.653 0 0 0 5.905-12.172 69.79 69.79 0 0 0 4.192-16.967 93.15 93.15 0 0 0-.067-15.453c-.911-15.105-1.139-30.451-2.786-45.53-1.553.79-12.788 1.821-12.747 1.447a9430.255 9430.255 0 0 1-6.16 50.163 57.428 57.428 0 0 1-2.21 11.73 69.665 69.665 0 0 1-5.53 11.034c-3.401 6.134-11.288 16.98-9.762 24.104" fill="#fff"/><path d="M137.761 193.161a71.653 71.653 0 0 0 5.905-12.172 69.79 69.79 0 0 0 4.192-16.967 93.15 93.15 0 0 0-.067-15.453c-.911-15.105-1.139-30.451-2.786-45.53-1.553.79-12.788 1.821-12.747 1.447a9430.255 9430.255 0 0 1-6.16 50.163 57.428 57.428 0 0 1-2.21 11.73 69.665 69.665 0 0 1-5.53 11.034c-3.401 6.134-11.288 16.98-9.762 24.104" fill="url(#o)"/><path d="M173.005 218.055a127.307 127.307 0 0 1 15.265-22.765" stroke="#444B8C" stroke-miterlimit="10"/><path d="M141.042 198.839c-.268-2.169-.697-4.245-.924-6.428a15.88 15.88 0 0 0-.536-3.187 2.387 2.387 0 0 0-.107-.281c-2.116 4.379-5.919 7.74-9.815 10.606l10.913 6.133c1.018.562.562-6.066.469-6.843z" fill="#3196B1"/><path d="M102.464 200.781a3.617 3.617 0 0 1-1.018 2.008c6.374 3.214 7.499 16.23 6.883 22.377-.416 4.151-1.634 8.195-1.969 12.347-.522 6.173 1.071 12.721 5.356 17.247a19.546 19.546 0 0 0 20.756 4.513 22.886 22.886 0 0 0 13.805-16.618c3.79-18.065-13.805-34-25.04-45.65-4.446-4.594-10.07-7.834-16.631-7.54a32.43 32.43 0 0 0-5.878.898c-4.915 1.138-9.374 2.919-11.945 7.432-1.54 2.678-4.271 4.794-5.088 7.82a6.412 6.412 0 0 0 1.78 6.361 5.606 5.606 0 0 0 6.455.723c4.405-2.678 2.973-12.307 8.918-12.052a1.19 1.19 0 0 1 .75-1.339 3.556 3.556 0 0 1 1.593-.201 1.7 1.7 0 0 1 .723.12c.55.295.55 1.058.55 1.554z" fill="url(#p)"/><path d="M99.143 214.346a4.298 4.298 0 0 1 .857-4.098" fill="#fff"/><path d="M99.143 214.346a4.298 4.298 0 0 1 .857-4.098" stroke="#010648" stroke-miterlimit="10"/><path d="M217.622 197.125c-2.544 6.495-7.525 11.811-9.989 18.332" stroke="#444B8C" stroke-miterlimit="10"/><path d="M244.042 424.68a6 6 0 0 0-.777 3.214 6.152 6.152 0 0 0 3.736 5.021 14.256 14.256 0 0 0 6.454.964 60.033 60.033 0 0 0 20.086-4.753c5.664-2.263 12.44-4.54 16.846-8.892 1.098-1.098 1.847-2.879 1.004-4.178a4.347 4.347 0 0 0-3.026-1.473 62.844 62.844 0 0 0-25.911 1.085c-4.794 1.218-15.453 3.642-18.412 9.012z" fill="#E9EFFD"/><path d="M279.929 359.305c0-.241 0-.469.067-.697.415-2.504 2.396-4.405 3.736-6.561a14.254 14.254 0 0 0 2.169-6.991c.201-4.619 0-10.552 2.049-14.837 1.794-3.857 6.065-5.959 8.262-9.575a22.775 22.775 0 0 0 2.115-6.695 23.443 23.443 0 0 1 4.66-10.03 32.44 32.44 0 0 1 6.695-5.45 34.42 34.42 0 0 1 7.365-4.018c3.495-1.231 7.365-1.647 8.985 1.956 1.339 2.905.643 7.017-.723 9.748a30.312 30.312 0 0 1-4.887 6.294 91.837 91.837 0 0 0-8.477 10.941 8.57 8.57 0 0 0-1.566 3.495 14.605 14.605 0 0 0 .375 3.722c.79 6.294-1.808 11.383-6.696 15.213-3.829 3.026-6.226 4.74-7.19 9.976-.603 3.241-.871 6.696-2.678 9.441a31.976 31.976 0 0 1-2.571 3.12 24.46 24.46 0 0 0-5.705 13.592c-.214 2.491-.75 8.035-4.74 6.977-4.901-1.339-4.298-15.681-2.866-19.056a21.968 21.968 0 0 0 1.821-4.312c.429-2.008-.321-4.191-.2-6.253z" fill="#010648"/><path d="M259.213 369.723a17.235 17.235 0 0 1 .857-5.678c.777-2.384 2.049-4.767 1.661-7.245-.63-4.084-5.356-6.32-6.816-10.19-2.009-5.357 2.678-10.633 3.776-16.203.897-4.714-.91-9.468-2.129-14.128-.522-1.995-3.508-13.391 2.424-11.61a3.767 3.767 0 0 1 1.982 2.049c2.879 5.477 3.615 12.413 8.208 16.913 1.875 1.848 4.298 3.08 6.079 5.021a14.138 14.138 0 0 1 3.013 11.744c-1.111 7.218-8.235 12.052-5.356 19.444a62.708 62.708 0 0 0 4.874 8.597c3.441 5.906 10.445 29.608-3.642 21.426-7.512-4.352-14.743-11.409-14.931-20.14z" fill="#fff" stroke="#010648" stroke-miterlimit="10"/><path d="m286.985 370.245.241-.469c1.755-3.347 4.085-6.36 5.892-9.681 1.46-2.679 2.571-5.585 4.205-8.182a13.101 13.101 0 0 1 6.842-5.852 7.115 7.115 0 0 1 6.147 1.138c.468.442.83.991 1.272 1.446a14.168 14.168 0 0 0 2.892 1.929c5.075 3.066 7.245 8.851 9.106 14.181 2.022 5.838 4.486 10.793 5.356 16.939a4.798 4.798 0 0 1-.643 4.018 3.152 3.152 0 0 1-1.56.773 3.15 3.15 0 0 1-1.734-.171 8.424 8.424 0 0 1-2.892-1.968 12.475 12.475 0 0 1-2.906-3.522c-.576-1.152-.844-2.464-1.486-3.575a14.273 14.273 0 0 0-3.227-3.308c-3.415-2.946-5.504-6.481-7.941-10.164-2.45 1.004-4.861 4.205-7.512 5.611-2.303 1.232-6.187 1.674-7.472 4.245-1.286 2.571-.683 6.2-1.594 8.972-2.035 6.173-6.789 5.289-6.119-1.339a31.553 31.553 0 0 1 3.133-11.021z" fill="#fff" stroke="#010648" stroke-miterlimit="10"/><path d="M301.983 382.002h-45.501v5.678h3.655l5.357 30.344h27.477l5.356-30.344h3.656v-5.678z" fill="#010648"/><path d="M258.852 388.162h40.761" stroke="#fff" stroke-miterlimit="10"/><path d="M258.705 343.972a1.112 1.112 0 1 0-.002-2.224 1.112 1.112 0 0 0 .002 2.224zm11.141 3.321a1.115 1.115 0 0 1-1.32 1.105 1.108 1.108 0 0 1-.881-.87 1.11 1.11 0 0 1 1.089-1.333 1.112 1.112 0 0 1 1.112 1.098zm-2.263 12.239a1.115 1.115 0 0 1-.687 1.027 1.11 1.11 0 1 1 .687-1.027zm6.655-24.439a1.115 1.115 0 0 1-1.329 1.091 1.114 1.114 0 0 1-.4-2.015 1.108 1.108 0 0 1 1.403.139 1.111 1.111 0 0 1 .326.785zm-13.311-22.189a1.114 1.114 0 0 1-1.328 1.091 1.114 1.114 0 0 1-.401-2.015 1.114 1.114 0 0 1 1.404.138c.208.209.325.492.325.786zm14.422 61.024a1.111 1.111 0 1 0 0-2.223 1.111 1.111 0 0 0 0 2.223zm-8.878-3.321a1.113 1.113 0 0 1-1.328 1.09 1.112 1.112 0 1 1 1.328-1.09zm-1.111-41.057c0 .294-.117.577-.326.785a1.109 1.109 0 0 1-1.572 0 1.111 1.111 0 1 1 1.898-.785z" fill="#010648"/><path d="M376.475 449.011c-7.526-1.513-14.998-3.414-22.389-5.463-6.95-1.928-14.261-4.258-18.948-9.749-14.047-16.484 8.864-33.478 20.996-40.602 9.909-5.811 21.706-12.614 33.477-10.9 6.695.964 13.029 3.709 19.202 6.521 20.581 9.374 41.149 19.913 63.551 22.939 4.7.643 43.64 1.674 41.859 8.035a5.72 5.72 0 0 1-2.129 2.678c-8.195 6.629-18.385 10.164-28.375 13.512-25.227 8.476-51.125 16.658-77.732 16.391a159.326 159.326 0 0 1-29.512-3.362z" fill="#E9EFFD"/><path d="M390.361 399.371c-3.281 5.985 1.834 10.297 6.092 14.301a13.635 13.635 0 0 0 3.883 2.772c2.545 1.098 5.437.831 8.196.536a598.678 598.678 0 0 0 59.333-9.039c4.58-.991 9.092-2.183 13.658-3.214a122.882 122.882 0 0 0 17.756-6.187 56.837 56.837 0 0 0 15.815-9.547l.254-.215a5.658 5.658 0 0 0 2.089-2.089c2.45-2.785 4.124-6.253 2.678-9.507-1.607-3.736-6.347-4.794-10.404-5.116-12.119-.964-24.264.335-36.249 2.143-8.034 1.218-16.068 2.932-24.196 3.937-8.128 1.004-16.069.107-24.318.294a41.067 41.067 0 0 0-34.587 20.931z" fill="#010648"/><path d="M390.361 399.371c-3.281 5.985 1.834 10.297 6.092 14.301a13.635 13.635 0 0 0 3.883 2.772c2.545 1.098 5.437.831 8.196.536a598.678 598.678 0 0 0 59.333-9.039c4.58-.991 9.092-2.183 13.658-3.214a122.882 122.882 0 0 0 17.756-6.187 56.837 56.837 0 0 0 15.815-9.547l.254-.215a5.658 5.658 0 0 0 2.089-2.089c2.45-2.785 4.124-6.253 2.678-9.507-1.607-3.736-6.347-4.794-10.404-5.116-12.119-.964-24.264.335-36.249 2.143-8.034 1.218-16.068 2.932-24.196 3.937-8.128 1.004-16.069.107-24.318.294a41.067 41.067 0 0 0-34.587 20.931z" fill="url(#q)"/><path d="M425.524 369.87c-5.021-1.982-10.19-.12-12.949-5.825a57.342 57.342 0 0 1-2.196-6.508 27.77 27.77 0 0 0-13.591-15.681c4.941-4.66 11.556-6.977 17.568-10.11a67.828 67.828 0 0 0 15.172-10.713c4.178-3.91 10.712-12.333 7.191-18.426-2.786-4.915-9.695-3.388-14.168-2.25-6.226 1.593-11.663 1.888-17.273 5.557-5.357 3.536-9.856 8.303-14.221 13.07-6.816 7.432-21.68 21.961-11.958 32.393a112.076 112.076 0 0 0 17.81 16.19 35.191 35.191 0 0 0 5.891 3.455c4.125 1.821 5.718 5.182 9.842 7.03a30.363 30.363 0 0 0 10.887 2.852c2.799.134 7.338-.508 7.606-3.883.268-3.375-2.973-6.106-5.611-7.151z" fill="#fff"/><path d="M425.524 369.87c-5.021-1.982-10.19-.12-12.949-5.825a57.342 57.342 0 0 1-2.196-6.508 27.77 27.77 0 0 0-13.591-15.681c4.941-4.66 11.556-6.977 17.568-10.11a67.828 67.828 0 0 0 15.172-10.713c4.178-3.91 10.712-12.333 7.191-18.426-2.786-4.915-9.695-3.388-14.168-2.25-6.226 1.593-11.663 1.888-17.273 5.557-5.357 3.536-9.856 8.303-14.221 13.07-6.816 7.432-21.68 21.961-11.958 32.393a112.076 112.076 0 0 0 17.81 16.19 35.191 35.191 0 0 0 5.891 3.455c4.125 1.821 5.718 5.182 9.842 7.03a30.363 30.363 0 0 0 10.887 2.852c2.799.134 7.338-.508 7.606-3.883.268-3.375-2.973-6.106-5.611-7.151z" fill="url(#r)"/><path d="M495.664 360.764c-2.437 3.214-6.521 5.357-10.418 4.433-4.138-.978-6.856-4.821-9.079-8.437a71.128 71.128 0 0 1-8.583-18.225c-1.942-7.164-2.866-18.56 4.245-23.314 5.061-3.388 13.39-1.473 17.233 2.852 8.436 9.374 14.02 29.715 7.512 41.312-.273.479-.577.939-.91 1.379z" fill="#fff"/><path d="M495.664 360.764c-2.437 3.214-6.521 5.357-10.418 4.433-4.138-.978-6.856-4.821-9.079-8.437a71.128 71.128 0 0 1-8.583-18.225c-1.942-7.164-2.866-18.56 4.245-23.314 5.061-3.388 13.39-1.473 17.233 2.852 8.436 9.374 14.02 29.715 7.512 41.312-.273.479-.577.939-.91 1.379z" fill="url(#s)"/><path d="M482.755 303.531c-6.253-6.616-13.685-11.476-23.433-11.235-2.678.067-5.222.495-7.847.589-9.213.321-18.345-1.982-27.223 1.567a131.287 131.287 0 0 0-26.553 15.065c-.67.468 15.533 22.697 17.26 24.719 6.695-4.914 5.088 18.239 4.981 21.426-.254 7.794-.455 15.668 1.152 23.354a2.743 2.743 0 0 1 1.486-1.272c.79-.174 1.339.79 1.995.964 1.718.188 3.451.188 5.169 0h8.945c6.867.105 13.733-.239 20.555-1.031a67.843 67.843 0 0 1 10.618-.951c1.875-6.468 1.219-14.261 1.339-20.689.201-6.173-.294-12.239.174-18.399a191.604 191.604 0 0 0 25.777-8.329c.509-.201-4.017-10.486-4.512-11.477a55.865 55.865 0 0 0-6.99-10.86c-.884-1.259-1.862-2.343-2.893-3.441z" fill="#010648"/><path d="M482.755 303.531c-6.253-6.616-13.685-11.476-23.433-11.235-2.678.067-5.222.495-7.847.589-9.213.321-18.345-1.982-27.223 1.567a131.287 131.287 0 0 0-26.553 15.065c-.67.468 15.533 22.697 17.26 24.719 6.695-4.914 5.088 18.239 4.981 21.426-.254 7.794-.455 15.668 1.152 23.354a2.743 2.743 0 0 1 1.486-1.272c.79-.174 1.339.79 1.995.964 1.718.188 3.451.188 5.169 0h8.945c6.867.105 13.733-.239 20.555-1.031a67.843 67.843 0 0 1 10.618-.951c1.875-6.468 1.219-14.261 1.339-20.689.201-6.173-.294-12.239.174-18.399a191.604 191.604 0 0 0 25.777-8.329c.509-.201-4.017-10.486-4.512-11.477a55.865 55.865 0 0 0-6.99-10.86c-.884-1.259-1.862-2.343-2.893-3.441z" fill="url(#t)"/><path d="M433.92 418.975c-1.272 1.272-28.053 7.151-28.053 7.151l-1.272-13.619 24.933-8.918 4.392 15.386z" fill="#fff"/><path d="M433.92 418.975c-1.272 1.272-28.053 7.151-28.053 7.151l-1.272-13.619 24.933-8.918 4.392 15.386z" fill="url(#u)"/><path d="M501.703 402.705a67.582 67.582 0 0 1 9.628-4.861c3.562-1.339 7.579-2.156 10.257-4.834 2.678-2.678 3.83-7.03 4.62-10.994a30.677 30.677 0 0 0-.362-13.686 18.116 18.116 0 0 0-13.056-12.815 17.066 17.066 0 0 0-11.382 1.339c-2.571 1.339-4.767 3.227-7.311 4.58a61.456 61.456 0 0 1-6.695 2.678c-6.789 2.678-13.043 6.602-19.229 10.351-6.186 3.75-11.797 8.49-17.809 12.561-2.384 1.594-27.344 13.713-27.331 13.726 3.228 7.204 6.053 14.61 9.012 21.961 16.149-2.182 31.696-7.258 47.403-11.476 3.107-.843 5.999-2.089 9.119-2.799a39.328 39.328 0 0 0 9.962-4.017c1.098-.522 2.13-1.125 3.174-1.714z" fill="#010648"/><path d="M501.703 402.705a67.582 67.582 0 0 1 9.628-4.861c3.562-1.339 7.579-2.156 10.257-4.834 2.678-2.678 3.83-7.03 4.62-10.994a30.677 30.677 0 0 0-.362-13.686 18.116 18.116 0 0 0-13.056-12.815 17.066 17.066 0 0 0-11.382 1.339c-2.571 1.339-4.767 3.227-7.311 4.58a61.456 61.456 0 0 1-6.695 2.678c-6.789 2.678-13.043 6.602-19.229 10.351-6.186 3.75-11.797 8.49-17.809 12.561-2.384 1.594-27.344 13.713-27.331 13.726 3.228 7.204 6.053 14.61 9.012 21.961 16.149-2.182 31.696-7.258 47.403-11.476 3.107-.843 5.999-2.089 9.119-2.799a39.328 39.328 0 0 0 9.962-4.017c1.098-.522 2.13-1.125 3.174-1.714z" fill="url(#v)"/><path d="M404.956 427.559c-4.941.977-9.895-.08-15.225-.656-4.151-.456-8.409.321-12.547-.322-5.503-.843-9.788-4.753-10.203-10.257-.228-3.107-.335-6.562 1.714-8.905a8.208 8.208 0 0 1 6.936-2.357 31.68 31.68 0 0 1 7.338 2.035 107.215 107.215 0 0 0 12.614 3.335c3.441.736 6.401 2.45 9.815.75a.788.788 0 0 1 .589-.121c.201.067.308.308.375.509a163.303 163.303 0 0 1 3.294 10.391c.496 1.822 1.339 2.88-.16 4.018a12.183 12.183 0 0 1-4.54 1.58z" fill="#010648"/><path d="M458.344 418.975c1.339 1.272 28.121 7.151 28.121 7.151l1.258-13.619-24.92-8.918-4.459 15.386z" fill="#fff"/><path d="M458.344 418.975c1.339 1.272 28.121 7.151 28.121 7.151l1.258-13.619-24.92-8.918-4.459 15.386z" fill="url(#w)"/><path d="M389.651 404.299a90.983 90.983 0 0 1-14.904-7.084 15.158 15.158 0 0 1-4.312-3.482 16.946 16.946 0 0 1-2.678-7.352c-1.834-9.641-4.419-16.98 2.558-25.161 5.691-6.696 14.81-9.24 22.536-4.433 5.022 3.134 8.396 8.798 13.967 10.713 2.999 1.058 6.427.844 9.373 2.196a85.153 85.153 0 0 1 7.86 4.821c6.227 3.763 11.797 8.49 17.81 12.561 2.37 1.593 27.33 13.712 27.33 13.726-3.241 7.204-6.066 14.609-9.026 21.961-16.135-2.183-31.695-7.258-47.389-11.476-7.766-2.036-15.613-4.151-23.125-6.99z" fill="url(#x)"/><path d="M487.308 427.559c4.941.977 9.896-.08 15.225-.656 4.151-.456 8.409.321 12.534-.322 5.222-.803 11.181-5.985 11.408-11.516a12.031 12.031 0 0 0-1.031-5.048 9.796 9.796 0 0 0-1.339-2.384 7.626 7.626 0 0 0-2.405-1.885 7.63 7.63 0 0 0-2.951-.793c-3.12-.295-6.267.723-9.226 1.58a73.34 73.34 0 0 0-8.824 2.678 22.959 22.959 0 0 1-12.132 1.674 7.603 7.603 0 0 0-3.2 0c-2.317.67-2.089 4.165-2.264 6.08a27.693 27.693 0 0 1-1.58 8.543 18.6 18.6 0 0 0 5.785 2.049z" fill="#010648"/><path d="M475.364 315.569a.32.32 0 0 0 0-.107l-.201-3.388a8.568 8.568 0 0 1 0-1.754 8.037 8.037 0 0 1 2.999-4.299c1.005-.91 9.374-9.132 10.07-8.664 2.678 1.996 4.245.215 6.16-1.834a3.35 3.35 0 0 0 1.165-2.21c0-.857-1.058-1.66-1.754-1.165a145.402 145.402 0 0 0 4.459-5.169c1.258-1.553 2.517-2.504 1.66-4.553a15.092 15.092 0 0 0-7.525-7.365c-2.545-1.245-6.615-2.999-9.521-2.785-3.2.241-4.848 2.932-7.244 4.58a.618.618 0 0 1-.349.147c-.16 0-.267-.147-.388-.241a2.681 2.681 0 0 0-3.307 0 6.568 6.568 0 0 0-1.955 2.959 4.237 4.237 0 0 0-.389 2.237 1.61 1.61 0 0 0 1.58 1.339c-.602.093-1.593 4.646-1.754 5.236-.817 2.892-2.598 4.526-4.62 6.695-1.834 2.009-4.017 4.192-6.695 4.018-1.205 0-2.678-.456-3.401.535a2.46 2.46 0 0 0-.335 1.152c-.482 5.972 3.361 11.248 8.155 14.382 2.477 1.861 13.417 6.347 13.19.254z" fill="#fff"/><path d="M475.364 315.569a.32.32 0 0 0 0-.107l-.201-3.388a8.568 8.568 0 0 1 0-1.754 8.037 8.037 0 0 1 2.999-4.299c1.005-.91 9.374-9.132 10.07-8.664 2.678 1.996 4.245.215 6.16-1.834a3.35 3.35 0 0 0 1.165-2.21c0-.857-1.058-1.66-1.754-1.165a145.402 145.402 0 0 0 4.459-5.169c1.258-1.553 2.517-2.504 1.66-4.553a15.092 15.092 0 0 0-7.525-7.365c-2.545-1.245-6.615-2.999-9.521-2.785-3.2.241-4.848 2.932-7.244 4.58a.618.618 0 0 1-.349.147c-.16 0-.267-.147-.388-.241a2.681 2.681 0 0 0-3.307 0 6.568 6.568 0 0 0-1.955 2.959 4.237 4.237 0 0 0-.389 2.237 1.61 1.61 0 0 0 1.58 1.339c-.602.093-1.593 4.646-1.754 5.236-.817 2.892-2.598 4.526-4.62 6.695-1.834 2.009-4.017 4.192-6.695 4.018-1.205 0-2.678-.456-3.401.535a2.46 2.46 0 0 0-.335 1.152c-.482 5.972 3.361 11.248 8.155 14.382 2.477 1.861 13.417 6.347 13.19.254z" fill="url(#y)"/><path d="M473.69 340.021h-68.573a2.223 2.223 0 0 0-2.223 2.223v41.365c0 1.228.995 2.223 2.223 2.223h68.573a2.223 2.223 0 0 0 2.223-2.223v-41.365a2.223 2.223 0 0 0-2.223-2.223z" fill="#4F52FF"/><path d="M443.695 361.501a4.301 4.301 0 0 1-2.653 3.971 4.3 4.3 0 0 1-5.616-5.616 4.294 4.294 0 0 1 7.01-1.395 4.3 4.3 0 0 1 1.259 3.04zm62.775-87.176a6.497 6.497 0 0 0-.348-1.339 5.053 5.053 0 0 0-2.276-2.679 7.157 7.157 0 0 0-2.679-.642 21.63 21.63 0 0 0-3.24 0 27.546 27.546 0 0 1-3.12.147 16.66 16.66 0 0 1-4.714-1.272 16.445 16.445 0 0 0-4.7-1.339c-3.374-.268-5.771 2.303-7.806 4.686a49.596 49.596 0 0 0-5.665 8.825c-3.2 5.959-4.191 13.391 1.862 17.971 7.927 6.066 17.407-2.209 23.299-7.271a33.414 33.414 0 0 0 3.669-2.946 22.267 22.267 0 0 0 2.973-4.486 31.377 31.377 0 0 0 2.156-4.781c.58-1.555.782-3.226.589-4.874zm-26.982 20.086a9.437 9.437 0 0 1-3.562-1.446c-.723-.562.107-1.727.804-1.152a8.362 8.362 0 0 0 3.12 1.246c.763.201.415 1.513-.362 1.339v.013zm18.908-10.458a7.108 7.108 0 0 1-1.34 2.357c-2.49 3.307-6.119 7.485-9.761 9.548l-.415.227c-.991-3.401-2.223-6.776-5.357-8.784a13.389 13.389 0 0 0-9.119-1.607c1.125-4.714 4.727-11.945 10.244-12.052a9.86 9.86 0 0 1 5.651 2.089c1.674 1.165 3.174 2.584 4.888 3.696 1.968 1.285 5.999 1.513 5.209 4.512v.014z" fill="#010648"/><path d="M486.585 360.389a7.602 7.602 0 0 1-.08 1.5 2.83 2.83 0 0 1-2.116 2.41 3.808 3.808 0 0 1-3.107-1.607 18.948 18.948 0 0 1-4.887-13.056 6.846 6.846 0 0 1 .937-3.923 2.853 2.853 0 0 1 3.589-1.032 4.213 4.213 0 0 1 1.473 2.29l3.254 8.771c.541 1.494.857 3.06.937 4.647z" fill="#fff"/><path d="M486.585 360.389a7.602 7.602 0 0 1-.08 1.5 2.83 2.83 0 0 1-2.116 2.41 3.808 3.808 0 0 1-3.107-1.607 18.948 18.948 0 0 1-4.887-13.056 6.846 6.846 0 0 1 .937-3.923 2.853 2.853 0 0 1 3.589-1.032 4.213 4.213 0 0 1 1.473 2.29l3.254 8.771c.541 1.494.857 3.06.937 4.647z" fill="url(#z)"/><path d="M486.625 299.701c.174-.415.348-.817.549-1.219 1.487-3.093 4.781-4.392 7.338-6.588 1.58-1.339 3.201-2.424 4.848-3.683.79-.602 1.432-1.513 2.263-2.022a1.51 1.51 0 0 1 1.74 0c.325.37.502.847.496 1.339.201 3.201-1.567 5.665-3.134 8.236-1.339 2.25-3.494 3.656-4.914 5.838-1.419 2.183-1.165 4.915-.897 7.459.482 4.267.955 8.539 1.419 12.815a81.913 81.913 0 0 0 2.397 11.236c1.473 5.945 1.339 12.868 1.487 18.961.147 6.093-3.924 13.458-10.284 14.731-12.788 2.584-10.003-15.467-10.338-22.765-.281-5.772 1.098-11.664 2.41-17.221 1.34-5.812 1.514-11.825 2.357-17.717a41.306 41.306 0 0 1 2.263-9.4z" fill="#fff"/><path d="M486.625 299.701c.174-.415.348-.817.549-1.219 1.487-3.093 4.781-4.392 7.338-6.588 1.58-1.339 3.201-2.424 4.848-3.683.79-.602 1.432-1.513 2.263-2.022a1.51 1.51 0 0 1 1.74 0c.325.37.502.847.496 1.339.201 3.201-1.567 5.665-3.134 8.236-1.339 2.25-3.494 3.656-4.914 5.838-1.419 2.183-1.165 4.915-.897 7.459.482 4.267.955 8.539 1.419 12.815a81.913 81.913 0 0 0 2.397 11.236c1.473 5.945 1.339 12.868 1.487 18.961.147 6.093-3.924 13.458-10.284 14.731-12.788 2.584-10.003-15.467-10.338-22.765-.281-5.772 1.098-11.664 2.41-17.221 1.34-5.812 1.514-11.825 2.357-17.717a41.306 41.306 0 0 1 2.263-9.4z" fill="url(#A)"/><path d="M491.111 361.501a3.08 3.08 0 0 1-2.022.602c-.549 0-.616.79-.134.924a2.478 2.478 0 0 0 2.839-.843c.335-.402-.281-.938-.683-.683zM380.907 345.03a2.37 2.37 0 0 1-.79-2.022 1.112 1.112 0 0 0-.737-1.34 1.074 1.074 0 0 0-.827.083 1.054 1.054 0 0 0-.512.654 4.522 4.522 0 0 0 1.339 4.017c1.018 1.058 2.518-.468 1.527-1.392z" fill="#010648"/><path d="M421.159 414.69a234.79 234.79 0 0 0 20.179 4.017m24.693-10.378a134.055 134.055 0 0 1 2.865-6.307c-8.69-4.874-17.153-10.07-25.75-15.078m-33.101 23.287a133.063 133.063 0 0 1-18.573-5.919" stroke="#444B8C" stroke-miterlimit="10"/><path d="m438.794 119.738-1.218.576a.816.816 0 0 1-1.005-.255 13.088 13.088 0 0 0-3.695-3.361.82.82 0 0 1-.349-.964l.59-1.741a.832.832 0 0 0-.496-1.044l-3.548-1.339a.832.832 0 0 0-1.045.482l-.656 1.74a.825.825 0 0 1-.844.536 16.94 16.94 0 0 0-5.061.335.988.988 0 0 1-1.058-.375l-.777-1.634c-.187-.415-.509-1.017-.924-.817l-3.414 1.621a1.244 1.244 0 0 0-.375 1.433l.763 1.633a.78.78 0 0 1-.174.978 14.351 14.351 0 0 0-3.093 3.455.801.801 0 0 1-.964.334l-1.634-.615a.83.83 0 0 0-1.058.508l-1.232 3.495a.821.821 0 0 0 .482 1.032l1.781.696a.816.816 0 0 1 .522.87 12.857 12.857 0 0 0 .268 4.995.83.83 0 0 1-.428.951l-1.527.723a.883.883 0 0 0-.522 1.098l1.607 3.428c.201.402.736.389 1.151.201l1.514-.723a.88.88 0 0 1 1.017.281 15.853 15.853 0 0 0 3.562 3.227.819.819 0 0 1 .308.991l-.535 1.46a.81.81 0 0 0 .213.905.806.806 0 0 0 .282.166l3.441 1.206a.845.845 0 0 0 .638-.041.823.823 0 0 0 .42-.482l.469-1.446a.827.827 0 0 1 .884-.562c1.579.194 3.18.13 4.74-.188a.777.777 0 0 1 .87.482l.737 1.567c.201.402.736.375 1.151.187l3.415-1.62c.415-.201.348-.402.161-.803l-.737-1.567a.99.99 0 0 1 .362-1.058 16.385 16.385 0 0 0 3.454-3.723.887.887 0 0 1 .991-.334l1.58.535a.844.844 0 0 0 1.058-.509l1.259-3.481a.79.79 0 0 0-.035-.647.801.801 0 0 0-.501-.411l-1.339-.442a.818.818 0 0 1-.575-.857 16.075 16.075 0 0 0-.255-4.834.914.914 0 0 1 .429-.965l1.205-.562c.415-.201.335-.402.147-.817l-1.62-3.415c-.214-.401-.362-.683-.777-.495zm-10.712 16.511a7.929 7.929 0 0 1-8.706-1.297 7.926 7.926 0 0 1-2.141-8.538 7.93 7.93 0 0 1 7.063-5.253 7.933 7.933 0 0 1 7.56 4.509 7.944 7.944 0 0 1 .33 6.061 7.907 7.907 0 0 1-1.577 2.662 7.903 7.903 0 0 1-2.476 1.856h-.053z" fill="#5FB387"/><path d="m438.794 119.738-1.218.576a.816.816 0 0 1-1.005-.255 13.088 13.088 0 0 0-3.695-3.361.82.82 0 0 1-.349-.964l.59-1.741a.832.832 0 0 0-.496-1.044l-3.548-1.339a.832.832 0 0 0-1.045.482l-.656 1.74a.825.825 0 0 1-.844.536 16.94 16.94 0 0 0-5.061.335.988.988 0 0 1-1.058-.375l-.777-1.634c-.187-.415-.509-1.017-.924-.817l-3.414 1.621a1.244 1.244 0 0 0-.375 1.433l.763 1.633a.78.78 0 0 1-.174.978 14.351 14.351 0 0 0-3.093 3.455.801.801 0 0 1-.964.334l-1.634-.615a.83.83 0 0 0-1.058.508l-1.232 3.495a.821.821 0 0 0 .482 1.032l1.781.696a.816.816 0 0 1 .522.87 12.857 12.857 0 0 0 .268 4.995.83.83 0 0 1-.428.951l-1.527.723a.883.883 0 0 0-.522 1.098l1.607 3.428c.201.402.736.389 1.151.201l1.514-.723a.88.88 0 0 1 1.017.281 15.853 15.853 0 0 0 3.562 3.227.819.819 0 0 1 .308.991l-.535 1.46a.81.81 0 0 0 .213.905.806.806 0 0 0 .282.166l3.441 1.206a.845.845 0 0 0 .638-.041.823.823 0 0 0 .42-.482l.469-1.446a.827.827 0 0 1 .884-.562c1.579.194 3.18.13 4.74-.188a.777.777 0 0 1 .87.482l.737 1.567c.201.402.736.375 1.151.187l3.415-1.62c.415-.201.348-.402.161-.803l-.737-1.567a.99.99 0 0 1 .362-1.058 16.385 16.385 0 0 0 3.454-3.723.887.887 0 0 1 .991-.334l1.58.535a.844.844 0 0 0 1.058-.509l1.259-3.481a.79.79 0 0 0-.035-.647.801.801 0 0 0-.501-.411l-1.339-.442a.818.818 0 0 1-.575-.857 16.075 16.075 0 0 0-.255-4.834.914.914 0 0 1 .429-.965l1.205-.562c.415-.201.335-.402.147-.817l-1.62-3.415c-.214-.401-.362-.683-.777-.495zm-10.712 16.511a7.929 7.929 0 0 1-8.706-1.297 7.926 7.926 0 0 1-2.141-8.538 7.93 7.93 0 0 1 7.063-5.253 7.933 7.933 0 0 1 7.56 4.509 7.944 7.944 0 0 1 .33 6.061 7.907 7.907 0 0 1-1.577 2.662 7.903 7.903 0 0 1-2.476 1.856h-.053z" fill="url(#B)"/><path d="m481.497 142.597-1.634.776a1.149 1.149 0 0 1-1.339-.361 17.28 17.28 0 0 0-4.995-4.526 1.117 1.117 0 0 1-.455-1.34l.79-2.343a1.112 1.112 0 0 0-.67-1.339l-4.78-1.741a1.11 1.11 0 0 0-1.419.656l-.897 2.344a1.096 1.096 0 0 1-1.139.723 22.516 22.516 0 0 0-6.829.455 1.342 1.342 0 0 1-1.433-.522l-1.044-2.196c-.255-.549-.696-1.339-1.245-1.112l-4.62 2.196a1.703 1.703 0 0 0-.509 1.902l1.031 2.196a1.057 1.057 0 0 1-.241 1.339 19.618 19.618 0 0 0-4.178 4.674 1.07 1.07 0 0 1-1.339.441l-2.183-.883a1.096 1.096 0 0 0-1.419.669l-1.674 4.714a1.113 1.113 0 0 0 .656 1.339l2.411.937a1.111 1.111 0 0 1 .696 1.165 17.33 17.33 0 0 0 .375 6.696 1.134 1.134 0 0 1-.603 1.339l-2.048.978a1.19 1.19 0 0 0-.71 1.486l2.183 4.607c.267.562.99.535 1.539.281l2.049-.978a1.19 1.19 0 0 1 1.339.389 21.519 21.519 0 0 0 4.794 4.499 1.15 1.15 0 0 1 .429 1.339l-.737 1.969a1.11 1.11 0 0 0 .67 1.446l4.646 1.634a1.116 1.116 0 0 0 1.42-.71l.642-1.955a1.115 1.115 0 0 1 1.205-.75c2.154.252 4.333.152 6.455-.295a1.058 1.058 0 0 1 1.178.643l1.004 2.102c.255.563.991.523 1.54.268l4.62-2.196c.549-.254.469-.536.214-1.085l-1.004-2.115a1.339 1.339 0 0 1 .495-1.42 22.447 22.447 0 0 0 4.701-5.102 1.218 1.218 0 0 1 1.339-.455l2.142.723a1.122 1.122 0 0 0 1.419-.67l1.701-4.713a1.112 1.112 0 0 0-.71-1.433l-1.901-.616a1.1 1.1 0 0 1-.763-1.165 22.442 22.442 0 0 0-.335-6.522 1.163 1.163 0 0 1 .576-1.339l1.62-.763c.549-.268.455-.549.201-1.098l-2.196-4.62c-.255-.455-.469-.83-1.031-.562zm-14.382 22.282a10.714 10.714 0 1 1-5.105-20.381 10.713 10.713 0 0 1 5.105 20.381z" fill="#5FB387"/><path d="m481.497 142.597-1.634.776a1.149 1.149 0 0 1-1.339-.361 17.28 17.28 0 0 0-4.995-4.526 1.117 1.117 0 0 1-.455-1.34l.79-2.343a1.112 1.112 0 0 0-.67-1.339l-4.78-1.741a1.11 1.11 0 0 0-1.419.656l-.897 2.344a1.096 1.096 0 0 1-1.139.723 22.516 22.516 0 0 0-6.829.455 1.342 1.342 0 0 1-1.433-.522l-1.044-2.196c-.255-.549-.696-1.339-1.245-1.112l-4.62 2.196a1.703 1.703 0 0 0-.509 1.902l1.031 2.196a1.057 1.057 0 0 1-.241 1.339 19.618 19.618 0 0 0-4.178 4.674 1.07 1.07 0 0 1-1.339.441l-2.183-.883a1.096 1.096 0 0 0-1.419.669l-1.674 4.714a1.113 1.113 0 0 0 .656 1.339l2.411.937a1.111 1.111 0 0 1 .696 1.165 17.33 17.33 0 0 0 .375 6.696 1.134 1.134 0 0 1-.603 1.339l-2.048.978a1.19 1.19 0 0 0-.71 1.486l2.183 4.607c.267.562.99.535 1.539.281l2.049-.978a1.19 1.19 0 0 1 1.339.389 21.519 21.519 0 0 0 4.794 4.499 1.15 1.15 0 0 1 .429 1.339l-.737 1.969a1.11 1.11 0 0 0 .67 1.446l4.646 1.634a1.116 1.116 0 0 0 1.42-.71l.642-1.955a1.115 1.115 0 0 1 1.205-.75c2.154.252 4.333.152 6.455-.295a1.058 1.058 0 0 1 1.178.643l1.004 2.102c.255.563.991.523 1.54.268l4.62-2.196c.549-.254.469-.536.214-1.085l-1.004-2.115a1.339 1.339 0 0 1 .495-1.42 22.447 22.447 0 0 0 4.701-5.102 1.218 1.218 0 0 1 1.339-.455l2.142.723a1.122 1.122 0 0 0 1.419-.67l1.701-4.713a1.112 1.112 0 0 0-.71-1.433l-1.901-.616a1.1 1.1 0 0 1-.763-1.165 22.442 22.442 0 0 0-.335-6.522 1.163 1.163 0 0 1 .576-1.339l1.62-.763c.549-.268.455-.549.201-1.098l-2.196-4.62c-.255-.455-.469-.83-1.031-.562zm-14.382 22.282a10.714 10.714 0 1 1-5.105-20.381 10.713 10.713 0 0 1 5.105 20.381z" fill="url(#C)"/></g><defs><linearGradient id="e" x1="337.166" y1="210.502" x2="362.43" y2="220.366" gradientUnits="userSpaceOnUse"><stop stop-color="#FFC444"/><stop offset="1" stop-color="#F36F56"/></linearGradient><linearGradient id="r" x1="391.106" y1="314.805" x2="456.93" y2="336.058" gradientUnits="userSpaceOnUse"><stop stop-color="#FFC444"/><stop offset="1" stop-color="#F36F56"/></linearGradient><linearGradient id="f" x1="134.349" y1="89.47" x2="152.285" y2="94.06" gradientUnits="userSpaceOnUse"><stop stop-color="#FFC444"/><stop offset="1" stop-color="#F36F56"/></linearGradient><linearGradient id="g" x1="329.246" y1="217.388" x2="325.944" y2="180.506" gradientUnits="userSpaceOnUse"><stop stop-color="#010648"/><stop offset="1" stop-color="#010648"/></linearGradient><linearGradient id="h" x1="64.359" y1="236.852" x2="77.524" y2="239.901" gradientUnits="userSpaceOnUse"><stop stop-color="#FFC444"/><stop offset="1" stop-color="#F36F56"/></linearGradient><linearGradient id="i" x1="124.768" y1="191.847" x2="74.149" y2="258.338" gradientUnits="userSpaceOnUse"><stop stop-color="#389FBF"/><stop offset="1" stop-color="#30ABBA"/></linearGradient><linearGradient id="j" x1="251.851" y1="258.644" x2="276.083" y2="267.728" gradientUnits="userSpaceOnUse"><stop stop-color="#FFC444"/><stop offset="1" stop-color="#F36F56"/></linearGradient><linearGradient id="k" x1="97.164" y1="196.854" x2="128.893" y2="221.215" gradientUnits="userSpaceOnUse"><stop stop-color="#FFC444"/><stop offset="1" stop-color="#F36F56"/></linearGradient><linearGradient id="l" x1="199.55" y1="178.922" x2="171.095" y2="250.932" gradientUnits="userSpaceOnUse"><stop stop-color="#389FBF"/><stop offset="1" stop-color="#30ABBA"/></linearGradient><linearGradient id="m" x1="247.371" y1="264.703" x2="240.999" y2="227.02" gradientUnits="userSpaceOnUse"><stop stop-color="#010648"/><stop offset="1" stop-color="#010648"/></linearGradient><linearGradient id="n" x1="216.394" y1="252.285" x2="172.251" y2="186.481" gradientUnits="userSpaceOnUse"><stop stop-color="#010648"/><stop offset="1" stop-color="#010648"/></linearGradient><linearGradient id="o" x1="151.966" y1="101.809" x2="70.12" y2="139.278" gradientUnits="userSpaceOnUse"><stop stop-color="#389FBF"/><stop offset="1" stop-color="#30ABBA"/></linearGradient><linearGradient id="p" x1="136.384" y1="185.185" x2="115.798" y2="221.88" gradientUnits="userSpaceOnUse"><stop stop-color="#AB316D"/><stop offset="1" stop-color="#792D3D"/></linearGradient><linearGradient id="q" x1="513.223" y1="417.399" x2="505.167" y2="363.989" gradientUnits="userSpaceOnUse"><stop stop-color="#010648"/><stop offset="1" stop-color="#010648"/></linearGradient><linearGradient id="d" x1="108.401" y1="70.036" x2="139.33" y2="-.606" gradientUnits="userSpaceOnUse"><stop stop-color="#E8505B"/><stop offset="1" stop-color="#E8505B"/></linearGradient><linearGradient id="s" x1="474.365" y1="323.402" x2="510.715" y2="333.327" gradientUnits="userSpaceOnUse"><stop stop-color="#FFC444"/><stop offset="1" stop-color="#F36F56"/></linearGradient><linearGradient id="t" x1="492.243" y1="244.992" x2="435.709" y2="383.858" gradientUnits="userSpaceOnUse"><stop stop-color="#FF928E"/><stop offset="1" stop-color="#FE7062"/></linearGradient><linearGradient id="u" x1="411.809" y1="407.892" x2="438.16" y2="422.523" gradientUnits="userSpaceOnUse"><stop stop-color="#FFC444"/><stop offset="1" stop-color="#F36F56"/></linearGradient><linearGradient id="v" x1="520.941" y1="422.949" x2="499.622" y2="347.808" gradientUnits="userSpaceOnUse"><stop stop-color="#010648"/><stop offset="1" stop-color="#010648"/></linearGradient><linearGradient id="w" x1="465.572" y1="407.892" x2="491.948" y2="422.564" gradientUnits="userSpaceOnUse"><stop stop-color="#FFC444"/><stop offset="1" stop-color="#F36F56"/></linearGradient><linearGradient id="x" x1="463.339" y1="423.006" x2="441.474" y2="347.114" gradientUnits="userSpaceOnUse"><stop stop-color="#010648"/><stop offset="1" stop-color="#010648"/></linearGradient><linearGradient id="y" x1="465.35" y1="281.117" x2="511.374" y2="300.682" gradientUnits="userSpaceOnUse"><stop stop-color="#FFC444"/><stop offset="1" stop-color="#F36F56"/></linearGradient><linearGradient id="z" x1="478.893" y1="348.213" x2="490.348" y2="350.724" gradientUnits="userSpaceOnUse"><stop stop-color="#FFC444"/><stop offset="1" stop-color="#F36F56"/></linearGradient><linearGradient id="A" x1="485.536" y1="301.405" x2="513.669" y2="305.004" gradientUnits="userSpaceOnUse"><stop stop-color="#FFC444"/><stop offset="1" stop-color="#F36F56"/></linearGradient><linearGradient id="B" x1="413.201" y1="146.21" x2="442.323" y2="119.509" gradientUnits="userSpaceOnUse"><stop stop-color="#30ABBA"/><stop offset="1" stop-color="#6165D7"/></linearGradient><linearGradient id="C" x1="446.96" y1="178.424" x2="486.274" y2="142.339" gradientUnits="userSpaceOnUse"><stop stop-color="#30ABBA"/><stop offset="1" stop-color="#6165D7"/></linearGradient><clipPath id="a"><path fill="#fff" d="M0 0h618v468H0z"/></clipPath><clipPath id="b"><path fill="#fff" transform="translate(13)" d="M0 0h552v341H0z"/></clipPath></defs></svg>