<svg width="480" height="480" fill="none" xmlns="http://www.w3.org/2000/svg"><g clip-path="url(#a)"><path d="M414.493 415.223c-12.116 12.496-22.958 19.842-31.261 25.388-80.964 54.082-173.514 38.502-202.128 33.168-46.165-8.593-85.136-14.661-118.617-44.925-76.081-68.766-72.381-212.22-14.245-301.081 6.893-10.538 64.94-96.62 157.69-108.748 2.268-.298 3.965-.466 5.451-.623 14.348-1.52 103.261-9.542 175.761 51.225 10.372 8.698 27.072 24.396 42.56 48.319 56.629 87.496 56.809 223.01-15.211 297.277z" fill="#F4F7FA"/><mask id="b" style="mask-type:luminance" maskUnits="userSpaceOnUse" x="63" y="117" width="104" height="221"><path d="m134.95 337.455 31.69-15.596s-2.032-19.2-15.44-26.855c-27.361-15.619-11.777-38.502-6.683-49.063 7.682-15.927 7.51-33.314-13.874-30.404-21.385 2.91-16.924-34.645-.811-58.577 15.767-23.42-16.749-64.976-55.526-17.42-23.158 28.4-2.889 57.8 3.82 75.081 6.71 17.281-17.255 30.778 1.132 46.873 15.704 13.75 35.589 19.624 30.993 36.653-4.597 17.028.882 30.893 24.699 39.308z" fill="#fff"/></mask><g mask="url(#b)"><path d="m134.95 337.455 31.69-15.596s-2.032-19.2-15.44-26.855c-27.361-15.619-11.777-38.502-6.683-49.063 7.682-15.923 6.972-31.272-12.077-32.077-21.557-.91-18.714-32.969-2.602-56.901 15.767-23.42-16.748-64.975-55.525-17.42-23.159 28.4-2.89 57.8 3.82 75.081 6.71 17.282-17.255 30.779 1.132 46.873 15.704 13.75 35.589 19.625 30.992 36.653-4.596 17.028.876 30.89 24.693 39.305z" fill="url(#c)"/><path d="m134.95 337.455 31.69-15.596s-2.032-19.2-15.44-26.855c-27.361-15.619-11.777-38.502-6.683-49.063 7.682-15.923 6.972-31.272-12.077-32.077-21.557-.91-18.714-32.969-2.602-56.901 15.767-23.42-16.748-64.975-55.525-17.42-23.159 28.4-2.89 57.8 3.82 75.081 6.71 17.282-17.255 30.779 1.132 46.873 15.704 13.75 35.589 19.625 30.992 36.653-4.596 17.028.876 30.89 24.693 39.305z" fill="url(#d)"/><path d="M150.167 333.609c-.275-.371-27.748-37.683-43.837-82.895-9.458-26.573-13.193-50.638-11.103-71.529 2.616-26.145 14.408-47.356 35.051-63.045l.373.495c-20.499 15.581-32.208 36.648-34.81 62.614-2.081 20.799 1.644 44.781 11.067 71.261 16.059 45.127 43.477 82.364 43.752 82.734l-.493.365z" fill="#BEB8F2"/><path d="M94.592 190.124c-13.694-20.864-20.742-56.54-20.811-56.897l.606-.119c.07.357 7.102 35.916 20.72 56.679l-.515.337zM96.707 172.74l-.527-.33c15.795-25.403 40.455-29.055 40.703-29.083l.084.611c-.245.033-24.624 3.656-40.26 28.802zM118.4 279.548c-8.105-35.537 31.383-64.884 31.807-65.09l.273.555-.136-.278.15.269c-.406.247-39.459 29.47-31.491 64.406l-.603.138zM112.333 266.088c-13.993-17.957-42.531-21.06-42.817-21.09l.061-.615c.29.03 29.087 3.156 43.244 21.316l-.488.389zM145.891 327.5c-5.211-13.1 7.747-31.749 7.877-31.938l.506.357c-.129.184-12.895 18.564-7.808 31.352l-.575.229zM139.965 318.478c-6.199-8.573-25.767-12.092-32.192-13.249-1.273-.23-1.797-.331-1.982-.402l.233-.571c.134.052.933.196 1.858.363 6.49 1.168 26.239 4.723 32.583 13.497l-.5.362z" fill="#BEB8F2"/></g><path d="M151.789 403.134c-1.291 11.912 6.731 20.682 13.432 26.143 1.042-.345 1.744-.261 2.881-.36 10.263-.896 14.315-3.573 24.192-6.132 2.126-.551 7.763-4.181 9.973-5.824l4.059-3.139s-.306-27.812-15.451-30.405c-15.144-2.593-18.664-29.189-22.174-43.152-9.542-37.883-48.264-21.063-64.421-68.77-4.295-12.688-8.247-38.322-22.355-44.816-16.072-7.401-21.154 6.902-32.24-.083-17.327-10.906-39.022-9.6-45.64 9.892-6.53 19.242 17.95 44.878 61.519 57.409 30.24 12.532 32.669 18.522 35.855 34.03 2.233 10.863 1.458 41.385 19.267 47.453 17.809 6.067 32.578 14.136 31.103 27.754z" fill="url(#e)"/><mask id="f" style="mask-type:luminance" maskUnits="userSpaceOnUse" x="3" y="219" width="203" height="217"><path d="m174.225 435.631 31.635-20.634s.165-28.984-14.985-31.578c-15.149-2.595-18.664-29.189-22.174-43.152-9.542-37.885-48.264-21.065-64.421-68.772-4.295-12.688-8.247-38.32-22.355-44.816-16.072-7.401-21.154 6.902-32.24-.083-17.327-10.906-39.022-9.6-45.64 9.892-6.53 19.242 17.95 44.878 61.519 57.409 30.24 12.533 32.669 18.522 35.855 34.03 2.233 10.863 1.458 41.385 19.267 47.453 17.809 6.067 32.578 14.136 31.103 27.76-2.246 20.709 22.436 32.491 22.436 32.491z" fill="#fff"/></mask><g mask="url(#f)" fill="#FCFDFE"><path d="M187.463 424.84a579.352 579.352 0 0 0-5.946-11.962c-14.902-29.038-31.976-55.634-50.747-79.049-15.901-19.829-33.238-37.675-51.534-53.002-14.7-12.328-30.104-23.119-45.772-32.07-11.006-6.289-22.032-11.612-32.766-15.819-1.858-.728-3.809-1.373-5.695-1.996-2.54-.839-5.168-1.707-7.633-2.799l.251-.568c2.437 1.08 5.05 1.943 7.577 2.777 1.894.627 3.851 1.273 5.726 2.008 10.763 4.219 21.816 9.554 32.85 15.863 15.699 8.97 31.129 19.78 45.86 32.134 18.321 15.367 35.687 33.222 51.613 53.089 18.798 23.448 35.893 50.078 50.817 79.151a556.395 556.395 0 0 1 5.959 11.975l-.56.268z"/><path d="M100.762 300.447c-22.404-23.377-28.266-78.392-28.324-78.945l.618-.063c.056.55 5.898 55.357 28.153 78.578l-.447.43zM157.293 370.827c-13.083-17.293-54.914-20.032-55.332-20.059l.038-.619c.424.026 42.539 2.786 55.793 20.303l-.499.375zM163.967 381.441c-6.562-12.922-8.615-33.994-5.781-59.336.067-.581.118-1.041.116-1.123h.259l.331-.166c.054.111.054.111-.084 1.357-2.82 25.221-.788 46.169 5.719 58.992l-.56.276zM183.809 417.54c-10.67-11.224-33.713-9.332-33.944-9.31l-.054-.618c.236-.022 23.574-1.938 34.448 9.501l-.45.427zM187.815 424.632c-1.322-12.8.991-26.383 7.059-41.524l.577.231c-6.027 15.046-8.323 28.533-7.018 41.23l-.618.063zM42.641 254.202c-13.139-12.265-24.087-28.176-27.684-33.404-.634-.92-1.133-1.653-1.232-1.748l.44-.437c.133.134.475.628 1.304 1.833 3.588 5.215 14.505 21.085 27.595 33.303l-.423.453zM19.248 275.175l-.208-.585a145.81 145.81 0 0 1 18.283-4.898c13.423-2.644 23.444-2.426 29.78.651l-.27.558c-14.845-7.206-47.26 4.158-47.585 4.274z"/></g><path d="m164.349 429.536.439-.019c8.664-.42 18.057-2.41 28.025-6.817l5.647-2.989c-.608-5.326-2.147-10.281-8.823-9.212-10.383 1.662-18.296-14.196-18.533-21.044-.29-8.475-1.372-28.194-17.461-25.879-13.386 1.929-21.644 5.908-29.673-8.665s-20.698-19.976-33.839-12.54c-13.83 7.826-34.706-5.543-43.339 6.462-15.044 20.919 19.325 44.999 48.725 42.595 29.401-2.404 19.491 13.396 24.721 25.97 7.149 17.165 28.028 2.688 37.164 6.38 3.094 1.249 5.318 3.366 6.947 5.758z" fill="#6165D7"/><mask id="g" style="mask-type:luminance" maskUnits="userSpaceOnUse" x="43" y="339" width="157" height="101"><path d="m168.133 439.071 30.999-15.255c-.353-5.278-2.03-14.512-9.495-13.317-10.383 1.662-18.296-14.196-18.533-21.044-.29-8.475-1.372-28.194-17.461-25.879-13.386 1.929-21.644 5.908-29.673-8.665s-20.698-19.976-33.839-12.54c-13.83 7.826-34.706-5.543-43.339 6.462-15.044 20.919 19.325 44.999 48.725 42.595 29.401-2.404 19.491 13.396 24.721 25.97 7.149 17.165 28.028 2.688 37.164 6.38 7.162 2.893 9.719 10.42 10.731 15.293z" fill="#fff"/></mask><g mask="url(#g)" fill="#FCFDFE"><path d="M180.382 426.972c-16.223-21.282-37.791-39.085-62.373-51.483-24.72-12.47-51.83-19.129-78.395-19.259v-.62c26.662.131 53.865 6.811 78.672 19.324 24.665 12.441 46.307 30.305 62.587 51.661l-.491.377z"/><path d="M160.261 404.796c-9.544-19.629-.205-43.046-.109-43.28l.575.234c-.094.232-9.329 23.397.092 42.774l-.558.272zM119.812 421.507l-.236-.575c.37-.152 37.154-15.037 54.837-2.313l-.362.505c-17.407-12.523-53.874 2.233-54.239 2.383zM115.956 374.496c-13.354-11.455-14.739-38.253-14.75-38.522l.619-.028c.014.268 1.386 26.799 14.535 38.079l-.404.471zM43.175 376.806l-.387-.486c.208-.165 21.08-16.663 40.672-14.73l-.061.618c-19.328-1.907-40.016 14.431-40.224 14.598z"/></g><path d="m351.453 94.945-32.724-48.677c-1.486-2.203-3.926-1.044-6.442-1.157l-167.57-9.4c-2.676-.11-5.018 1.156-6.153 3.32L113.22 87.4a6.457 6.457 0 0 0-.68 3.648l33.705 343.334c.394 4.022 4.104 7.181 8.278 7.058l224.257-6.686c3.85-.114 6.66-3.333 6.277-7.188L352.758 98.5a7.782 7.782 0 0 0-1.305-3.555zM237.44 117.71c-14.102-.386-26.688-11.884-28.044-25.692-1.356-13.807 9.041-24.59 23.157-24.085 14.039.495 26.47 12.001 27.813 25.685s-8.893 24.472-22.926 24.092z" fill="url(#h)"/><path d="m354.302 94.945-32.724-48.677c-1.486-2.203-3.939-3.62-6.458-3.723l-167.557-6.834c-2.676-.11-5.018 1.156-6.153 3.32L116.07 87.4a6.458 6.458 0 0 0-.681 3.648l33.705 343.334c.395 4.022 4.104 7.181 8.278 7.058l224.259-6.686c3.849-.114 6.658-3.333 6.277-7.188L355.607 98.5a7.771 7.771 0 0 0-1.305-3.555zM240.29 117.71c-14.104-.38-26.689-11.884-28.043-25.692-1.355-13.807 9.04-24.59 23.149-24.085 14.039.495 26.47 12.001 27.814 25.685 1.345 13.684-8.888 24.472-22.92 24.092z" fill="url(#i)"/><path d="m322.697 314.648 10.496 32.007c-12.591 8.876-27.536 14.216-44.834 16.019-14.55 1.52-28.418.036-41.603-4.452-13.185-4.488-24.472-11.709-33.86-21.663-9.131-9.38-15.97-21.59-20.519-36.628l-18.873 1.968-2.186-20.946 15.924-1.664-.524-5.015c-.102-.983-.21-2.462-.314-4.442-.104-1.979-.211-3.453-.315-4.44l-16.517 1.725-2.187-20.946 19.758-2.064c2.092-16.123 7.479-30.206 16.16-42.249 15.579-22.103 37.228-34.607 64.947-37.51 16.117-1.684 31.17-.274 45.157 4.228l-4.743 34.508c-11.698-3.55-22.855-4.77-33.472-3.66-15.335 1.601-26.871 8.175-34.608 19.72-3.634 5.152-6.112 11.872-7.433 20.159l73.433-7.67 2.185 20.946-77.85 8.135c.009 1.983.229 5.042.661 9.176l.496 4.721 78.142-8.166 2.187 20.946-74.025 7.733c2.863 8.451 6.827 14.996 11.892 19.634 9.894 9.108 23.098 12.798 39.612 11.072 12.576-1.312 23.513-5.04 32.813-11.182z" fill="#fff"/><path d="M235.404 67.931c-14.117-.504-24.513 10.279-23.157 24.086 1.356 13.808 13.939 25.306 28.043 25.692 14.039.38 24.27-10.41 22.927-24.092-1.343-13.682-13.769-25.183-27.813-25.686zm4.256 43.37c-10.467-.294-19.794-8.835-20.8-19.076-1.006-10.24 6.7-18.247 17.178-17.884 10.424.36 19.674 8.899 20.665 19.071.991 10.172-6.607 18.182-17.043 17.889z" fill="#6165D7"/><path d="m199.406 37.828 5.813 59.204c1.604 16.328 16.495 29.909 33.174 30.332l5.7.144c16.547.418 28.606-12.329 27.021-28.468l-5.745-58.52-65.963-2.693zm40.884 79.881c-14.104-.38-26.689-11.884-28.043-25.692-1.355-13.807 9.04-24.59 23.157-24.085 14.039.495 26.468 12.001 27.813 25.685 1.344 13.684-8.895 24.472-22.927 24.092z" fill="url(#j)"/><path style="mix-blend-mode:multiply" opacity=".35" d="m354.302 94.945-32.724-48.677c-1.486-2.203-3.939-3.62-6.458-3.723L175.376 36.85c-20.171 47.572-14.674 80.265-5.342 101.747 32.646 75.143 137.771 75.144 159.872 147.562 14.286 46.812-21.69 71.812-1.514 132.051a145.905 145.905 0 0 0 7.373 17.919l45.864-1.367c3.851-.114 6.66-3.333 6.277-7.188L355.607 98.5a7.772 7.772 0 0 0-1.305-3.555zM240.29 117.71c-14.104-.38-26.689-11.884-28.043-25.692-1.355-13.807 9.04-24.59 23.149-24.085 14.039.495 26.47 12.001 27.813 25.685 1.342 13.684-8.887 24.472-22.919 24.092z" fill="url(#k)"/><path d="M270.402 56.303a71.635 71.635 0 0 0-2.387-13.57c-1.249-4.428-2.92-8.757-5.178-12.806a51.252 51.252 0 0 0-8.259-11.117 56.363 56.363 0 0 0-10.818-8.565 68.332 68.332 0 0 0-12.388-5.89c-8.61-3.09-17.753-4.618-26.906-4.319-2.288.13-4.582.295-6.847.701-2.264.406-4.529.907-6.719 1.728-2.19.822-4.329 1.84-6.247 3.305-1.917 1.466-3.579 3.427-4.443 5.762-.863 2.335-1.05 4.792-.847 7.127.203 2.335.763 4.617 1.468 6.803 1.277 3.925 3.058 7.601 5.013 11.158l2.4.099c-2.104-3.844-4.025-7.801-5.31-11.926-.646-2.079-1.133-4.2-1.293-6.316-.16-2.115.029-4.222.771-6.089s2.053-3.437 3.718-4.673c1.665-1.236 3.602-2.148 5.616-2.872 4.056-1.42 8.443-1.973 12.804-2.125a68.698 68.698 0 0 1 13.098 1.005 72.16 72.16 0 0 1 12.687 3.447 65.214 65.214 0 0 1 11.765 5.757 53.195 53.195 0 0 1 10.102 8.19 47.885 47.885 0 0 1 7.597 10.47c2.07 3.802 3.596 7.91 4.728 12.108a67.925 67.925 0 0 1 2.112 12.89 72.08 72.08 0 0 1-.363 13.053c-.131 1.08-.302 2.149-.474 3.226-.213 1.063-.382 2.137-.651 3.184a51.338 51.338 0 0 1-1.817 6.197 37.707 37.707 0 0 1-2.671 5.76 20.718 20.718 0 0 1-3.711 4.825c-1.435 1.344-3.041 2.342-4.79 2.71l-.661.13c-.223.036-.456.037-.682.062-.451.064-.928.01-1.392.02a14.945 14.945 0 0 1-2.869-.496c-1.926-.496-3.836-1.358-5.679-2.38a49.277 49.277 0 0 1-5.378-3.493l-.015-.011h-.011a2.377 2.377 0 0 0-.506-.266 17.894 17.894 0 0 0 .033 3.14c.09.89.241 1.774.455 2.643a46.734 46.734 0 0 0 3.283 1.949c2.085 1.118 4.295 2.096 6.716 2.705a19.3 19.3 0 0 0 3.749.584c.661 0 1.299.04 1.961-.047.33-.035.661-.053.991-.108l.991-.2c.329-.068.652-.16.968-.273.322-.093.638-.203.948-.33l.905-.425c.304-.131.596-.287.874-.467a17.08 17.08 0 0 0 3.046-2.345 24.824 24.824 0 0 0 4.398-5.826 41.904 41.904 0 0 0 2.904-6.445 54.95 54.95 0 0 0 1.889-6.709c.273-1.127.441-2.27.661-3.406.165-1.14.33-2.282.463-3.427.486-4.59.553-9.214.198-13.816z" fill="#BFBFBF"/><path d="M339.134 131.193c-3.964-2.394-7.913.769-10.818-2.087-3.634-3.567-2.45-13.399 2.844-18.302 3.832-3.551 7.48-2.348 20.823-4.877 4.602-.87 10.873-2.06 14.621-3.546 16.352-6.484 12.417-29.654 25.254-40.778 14.8-12.827 50.98-8.834 69.116 13.741 20.76 25.844 8.731 64.66-11.519 81.558-12.758 10.643-29.623 10.788-63.356 11.081-33.64.291-39.198-7.106-40.761-9.749-5.403-9.158.826-22.799-6.204-27.041z" fill="#010648"/><path d="M298.821 225.16c-4.534-6.145-5.406-14.587-3.544-21.275 3.138-11.299 12.146-10.575 16.835-23.492 3.033-8.352.496-12.063 4.873-18.177 3.216-4.498 9.831-9.829 14.518-8.593 14.025 3.723 20.344 68.849-2.112 79.95-8.989 4.45-23.762.826-30.57-8.413z" fill="url(#l)"/><path d="M351.398 242.164c-14.322 4.323-16.565 32.092-17.946 49.181-1.555 19.243-3.288 40.68 9.014 59.881 15.473 24.152 47.516 35.977 81.559 32.588l-1.058-6.594c-34.939-13.341-44.481-28.335-46.889-39.364-5.12-23.451 19.948-38.511 13.473-63.949-4.879-19.16-25.473-35.57-38.153-31.743z" fill="url(#m)"/><path d="M401.212 260.626c-7.763-11.461-15.346-23.056-22.941-34.636-1.486-2.276-2.357-4.914-2.773-7.686a53.301 53.301 0 0 0-8.564 8.613 429.213 429.213 0 0 0-14.741 104.541c-.46 26.429 5.51 106.347 8.392 126.431 1.057.216 1.44-2.535 2.52-2.328 1.322.251 1.652 2.643 2.941 2.87 3.835-40.562 8.233-77.169 10.453-95.985.753-6.383 2.973-25.532 13.224-40.957.165-.248 15.329-20.986 20.562-29.281a144.936 144.936 0 0 0 6.397-11.126c-5.875-6.177-10.583-13.246-15.47-20.456z" fill="url(#n)"/><path d="M366.325 436.442c-.595-1.372-3.869 2.077-6.918 5.719l1.178 15.728c-1.082-.689-2.448-1.443-3.987-1.798-1.852-.426-5.051.24-5.296 1.125-1.517 5.463 12.101 6.656 13.592 4.939a4.875 4.875 0 0 0 1.157-3.724c-1.383-7.872-1.2-13.205-.544-16.886.454-2.586 1.146-4.345.818-5.103z" fill="#67878E"/><path d="M360.585 457.889c1.057.216 1.44-2.535 2.521-2.329 1.321.252 1.651 2.644 2.94 2.871a3184.37 3184.37 0 0 1 4.294-42.215c-4.588-.537-9.25-.674-13.843-.727 1.463 18.605 2.998 34.799 4.088 42.4z" fill="#67878E"/><path style="mix-blend-mode:multiply" opacity=".25" d="M401.212 260.626c-7.763-11.461-15.346-23.056-22.941-34.636-1.486-2.276-2.357-4.914-2.773-7.687a53.28 53.28 0 0 0-8.564 8.616 428.028 428.028 0 0 0-12.977 72.386c7.936-.459 15.504 4.21 17.734 9.789 4.612 11.534-9.933 20.564-9.785 44.751.081 13.249 4.817 16.574 2.661 28.736-.556 3.14-2.134 10.035-1.438 19.51.307 4.161.642 3.255.896 7.015.726 10.712-1.828 20.559-.721 27.248a15.87 15.87 0 0 0 1.532 4.692 15.229 15.229 0 0 0 2.554 3.539c3.469-34.916 7.145-65.494 9.109-82.139.753-6.383 2.973-25.532 13.224-40.957.165-.248 15.329-20.986 20.562-29.281a144.936 144.936 0 0 0 6.397-11.126c-5.875-6.177-10.583-13.248-15.47-20.456z" fill="url(#o)"/><path d="m312.621 206.686 1.049-2.161s2.525-3.393 3.549-5.678c1.025-2.285.8-4.143-1.308-5.58-2.107-1.438-4.129.958-5.89 3.014-1.075 1.251-1.191 3.878-1.096 6.005.067 1.487-.991 4.476-.991 4.476l4.687-.076z" fill="#F4F7FA"/><path d="M320.799 160.4c-4.884 8.961-4.328 17.887-3.799 21.794 1.665 12.15 8.98 20.35 10.774 22.539 8.476 10.348 13.294 34.164-1.919 92.812 3.49 1.539 18.195 16.128 20.39 6.471 2.994-13.165 8.414-101.294 8.258 1.342 0 1.352 2.717.297 4.13.406a92.79 92.79 0 0 0 34.083-3.614c19.387-5.841 32.319-16.704 38.937-23.2a185.385 185.385 0 0 1-27.499-45.724c-15.708-37.542-15.262-71.59-13.533-90.38-7.2-2.426-29.678-8.981-51.066 1.38-5.331 2.583-13.61 6.735-18.756 16.174z" fill="url(#p)"/><path d="m305.905 191.363 24.644 29.769a2.292 2.292 0 0 0 1.817.885h17.508a2.296 2.296 0 0 0 2.01-1.189 2.293 2.293 0 0 0-.073-2.335l-18.755-29.589c-.429-.677-1.506-2.148-3.057-2.148l-21.155.554c-1.892.046-4.1 2.563-2.939 4.053z" fill="url(#q)"/><path d="m305.902 191.96 22.713 29.172a2.289 2.289 0 0 0 1.816.885h17.508a2.294 2.294 0 0 0 1.938-3.524l-18.755-29.589a2.298 2.298 0 0 0-1.982-1.065l-21.472.416a2.29 2.29 0 0 0-2.027 1.307 2.297 2.297 0 0 0 .261 2.398z" fill="#FC9D8A"/><path d="m353.844 210.037-2.17-1.031s-3.411-2.498-5.703-3.505c-2.293-1.006-4.148-.766-5.568 1.354-1.421 2.12.991 4.116 3.062 5.868 1.259 1.065 3.885 1.156 6.009 1.047 1.486-.079 4.483.955 4.483.955l-.113-4.688z" fill="#fff"/><path d="M422.967 377.22c-8.531-3.258-15.538-6.609-21.307-9.987-1.639 5.167-2.39 10.772-2.291 16.346a111.677 111.677 0 0 0 24.655.235l-1.057-6.594z" fill="#67878E"/><path d="m422.204 378.546.764-1.322s1.371-.826 2.019.877c.647 1.704 4.329 10.576 4.524 14.606-.965 2.409-3.697.369-4.26-1.271-.563-1.639-2.516-7.712-2.516-7.712l-.531-5.178z" fill="#67878E"/><path style="mix-blend-mode:multiply" opacity=".3" d="M404.15 233.224c-12.131-28.995-14.616-55.872-14.326-75.278-6.663 3.265-15.14 8.773-16.792 17.273-2.18 11.218 9.301 18.529 5.978 26.45-4.106 9.784-24.252 4.882-28.471 14.819-2.332 5.493 1.713 11.959 8.533 22.857 6.034 9.642 11.114 18.289 21.266 23.492 14.624 7.501 22.983 3.204 31.46 10.64 4.613 4.049 7.018 9.604 8.22 15.228a97.553 97.553 0 0 0 11.635-9.75 185.373 185.373 0 0 1-27.503-45.731z" fill="url(#r)"/><path d="M349.742 124.892c0 1.894.066 12.033 4.568 13.697.991.366 1.776.133 6.141.247 2.489.064 4.516.198 5.819.299a31.982 31.982 0 0 1-1.582 6.649c-5.603 15.774-23.74 26.733-29.885 22.786-3.199-2.056-3.447-8.223-3.549-10.781a21.513 21.513 0 0 1 1.45-8.632 424.839 424.839 0 0 1 11.491-8.062l-.307-5.82c1.95-3.461 3.901-6.921 5.854-10.383z" fill="#F4F7FA"/><path d="M351.707 128.632s.022 8.345-6.638 11.058c-5.963 2.431-13.784-11.567-11.427-16.12.787-1.515 3.139-3.294 5.42-3.708 1.602-.289 8.258-.33 10.136 4.9.562-1.653 1.677-2.725 2.829-2.737.406.019.799.149 1.135.377 1.526 1.089 1.092 3.637-1.455 6.23z" fill="#fff"/><path d="M376.35 143.596c6.092-1.517 6.122-3.499 14.268-.755 23.39 7.877 48.152 43.191 35.355 68.13-7.117 13.87-24.173 26.376-42.976 23.491-15.306-2.348-24.298-13.75-26.583-16.843l-2.659-10.637c9.975 5.656 17.001 5.655 21.71 4.432 8.014-2.082 9.795-7.828 23.038-12.854 5.16-1.959 8.259-2.365 8.424-3.989.33-3.358-12.646-4.479-20.823-11.524-5.968-5.131-11.916-15.599-9.754-39.451z" fill="url(#s)"/><path d="m307.014 204.771 7.089 1.109c.877.596 11.406 7.996 10.405 18.616-.128 1.382-.619 6.61-4.208 8.644-5.54 3.14-16.777-2.251-19.272-11.081-1.668-5.921.798-12.63 5.986-17.288z" fill="url(#t)"/><path d="M451.817 152.024a.888.888 0 0 1-.33-1.711c19.265-7.693 23.274-40.996 23.313-41.332a.895.895 0 0 1 .636-.752.893.893 0 0 1 .674.077.872.872 0 0 1 .422.53.874.874 0 0 1 .029.345 90.028 90.028 0 0 1-4.487 18.24c-4.625 12.695-11.519 21.182-19.93 24.54a.914.914 0 0 1-.327.063zM339.024 114.791a.894.894 0 0 1-.884-.817.885.885 0 0 1 .041-.343c.076-.233 1.946-5.734 9.403-7.601 1.082-.271 2.237-.529 3.419-.792 6.231-1.388 13.292-2.962 13.429-7.535a.925.925 0 0 1 .912-.86.893.893 0 0 1 .86.912c-.18 5.948-7.955 7.685-14.816 9.214-1.166.259-2.312.513-3.372.781-6.469 1.623-8.094 6.243-8.152 6.445a.89.89 0 0 1-.84.596z" fill="#010648"/></g><defs><linearGradient id="m" x1="458.648" y1="413.836" x2="341.513" y2="281.968" gradientUnits="userSpaceOnUse"><stop stop-color="#40447E"/><stop offset="1" stop-color="#1C2C5A"/></linearGradient><linearGradient id="c" x1="100.298" y1="125.319" x2="125.42" y2="335.749" gradientUnits="userSpaceOnUse"><stop stop-color="#AA80F9"/><stop offset="1" stop-color="#6165D7"/></linearGradient><linearGradient id="e" x1="159.407" y1="351.823" x2="-73.587" y2="196.1" gradientUnits="userSpaceOnUse"><stop stop-color="#FF9085"/><stop offset="1" stop-color="#FB6FBB"/></linearGradient><linearGradient id="h" x1="268.182" y1="54.32" x2="142.197" y2="721.754" gradientUnits="userSpaceOnUse"><stop stop-color="#AB316D"/><stop offset="1" stop-color="#792D3D"/></linearGradient><linearGradient id="i" x1="271.176" y1="52.759" x2="144.7" y2="722.786" gradientUnits="userSpaceOnUse"><stop stop-color="#FC9D8A"/><stop offset="1" stop-color="#FF8F79"/></linearGradient><linearGradient id="j" x1="238.327" y1="39.407" x2="211.095" y2="183.674" gradientUnits="userSpaceOnUse"><stop stop-color="#FF9085"/><stop offset="1" stop-color="#FB6FBB"/></linearGradient><linearGradient id="k" x1="294.03" y1="56.782" x2="169.53" y2="716.343" gradientUnits="userSpaceOnUse"><stop stop-color="#FFC444"/><stop offset="1" stop-color="#F36F56"/></linearGradient><linearGradient id="l" x1="307.696" y1="204.504" x2="321.929" y2="176.906" gradientUnits="userSpaceOnUse"><stop stop-color="#30ABBA"/><stop offset="1" stop-color="#6165D7"/></linearGradient><linearGradient id="d" x1="91.121" y1="254.508" x2="134.336" y2="189.75" gradientUnits="userSpaceOnUse"><stop stop-color="#30ABBA"/><stop offset="1" stop-color="#6165D7"/></linearGradient><linearGradient id="n" x1="348.238" y1="289.943" x2="386.761" y2="365.647" gradientUnits="userSpaceOnUse"><stop stop-color="#40447E"/><stop offset="1" stop-color="#3C3B6B"/></linearGradient><linearGradient id="o" x1="365.59" y1="276.206" x2="390.213" y2="359.611" gradientUnits="userSpaceOnUse"><stop stop-color="#40447E"/><stop offset="1" stop-color="#3C3B6B"/></linearGradient><linearGradient id="p" x1="347.448" y1="243.602" x2="374.72" y2="184.263" gradientUnits="userSpaceOnUse"><stop stop-color="#30ABBA"/><stop offset="1" stop-color="#6165D7"/></linearGradient><linearGradient id="q" x1="350.985" y1="178.95" x2="337.368" y2="195.016" gradientUnits="userSpaceOnUse"><stop stop-color="#FFC444"/><stop offset="1" stop-color="#F36F56"/></linearGradient><linearGradient id="r" x1="345.852" y1="188.337" x2="492.804" y2="275.314" gradientUnits="userSpaceOnUse"><stop stop-color="#AA80F9"/><stop offset="1" stop-color="#6165D7"/></linearGradient><linearGradient id="s" x1="374.025" y1="199.62" x2="387.401" y2="165.002" gradientUnits="userSpaceOnUse"><stop stop-color="#30ABBA"/><stop offset="1" stop-color="#6165D7"/></linearGradient><linearGradient id="t" x1="308.5" y1="241" x2="330.837" y2="187.958" gradientUnits="userSpaceOnUse"><stop stop-color="#30ABBA"/><stop offset="1" stop-color="#6165D7"/></linearGradient><clipPath id="a"><path fill="#fff" d="M0 0h480v480H0z"/></clipPath></defs></svg>