<svg width="480" height="480" fill="none" xmlns="http://www.w3.org/2000/svg"><path d="M444.314 323.763c-46.98 108.393-170.991 154.951-268.158 147.012-26.53-2.166-79.91-6.528-121.588-45.428-80.035-74.716-67.715-230.894 8.907-322.841 9.862-11.848 78.166-91.181 184.601-90.119 77.925.777 132.62 44.229 139.271 49.641 8.402 6.838 26.931 23.088 43.632 48.867 39.241 60.573 42.69 145.134 13.335 212.868z" fill="url(#a)"/><path d="M412.578 86.172c2.889-4.574 9.989-1.995 9.275 3.363-3.715 27.618-8.128 75.827.575 107.334 12.783 46.325 35.798 182.593-93.936 217.092 0 0 12.355-214.218 84.086-327.789z" fill="#30ABBA"/><path d="M401.624 143.426s-.12.259-.318.752a41.988 41.988 0 0 0-.824 2.239c-.687 1.975-1.546 4.932-2.405 8.743a127.096 127.096 0 0 0-2.301 13.886 170.493 170.493 0 0 0-1.072 18.211c-.101 3.341.098 6.826.145 10.426.075 1.8.202 3.629.304 5.486.053.926.111 1.862.171 2.806.071.941.172 1.886.261 2.842.18 1.906.364 3.838.552 5.796.094.928.242 1.956.359 2.94.116.984.231 2.004.379 2.988.541 3.943 1.19 8.037 1.889 12.182.699 4.145 1.429 8.372 2.108 12.67.331 2.152.675 4.313.979 6.499l.469 3.283c.155 1.096.297 2.199.426 3.31.302 2.206.515 4.44.766 6.674.25 2.234.4 4.493.602 6.746.129 2.262.279 4.529.344 6.802l.075 3.415.035 1.714-.021 1.714c-.055 9.119-.836 18.269-2.557 27.113a132.355 132.355 0 0 1-7.655 25.255c-.409.989-.815 1.975-1.219 2.957l-1.374 2.858c-.919 1.886-1.769 3.792-2.8 5.578-.998 1.799-1.936 3.6-2.952 5.339a2744.42 2744.42 0 0 1-3.121 5.064 161.511 161.511 0 0 1-13.159 17.619l-3.246 3.792-3.276 3.458-3.112 3.279-3.069 2.964c-3.899 3.899-7.596 6.971-10.55 9.588-1.46 1.331-2.884 2.378-4.071 3.348l-3.043 2.428-2.533 2.021a.29.29 0 0 1-.378-.439v-.009l2.385-2.184 2.86-2.621 1.814-1.661c.319-.298.661-.593.996-.915l1.03-1.005 4.637-4.555c.422-.415.852-.837 1.292-1.267.436-.433.859-.903 1.291-1.371l2.721-2.88 2.896-3.07 2.919-3.381 3.071-3.557c.994-1.257 2.013-2.541 3.056-3.85l1.575-1.987.8-1.008.757-1.054 3.092-4.317c1.084-1.438 2.032-3.007 3.045-4.563l1.529-2.352.774-1.188c.247-.405.479-.82.721-1.231.957-1.651 1.927-3.323 2.912-5.016.944-1.715 1.808-3.496 2.732-5.27.957-1.759 1.731-3.627 2.576-5.486l1.254-2.803 1.128-2.885a127.597 127.597 0 0 0 6.982-24.514 146.112 146.112 0 0 0 2.307-26.247c0-8.86-.687-17.731-1.732-26.45l-.398-3.257a118.103 118.103 0 0 0-.443-3.257c-.287-2.159-.617-4.31-.931-6.446l-1.889-12.686c-.619-4.181-1.203-8.294-1.677-12.391-.249-2.057-.424-3.989-.601-6.027l-.377-5.911c-.057-.972-.133-1.935-.172-2.895-.04-.96-.052-1.914-.078-2.86-.044-1.886-.115-3.756-.135-5.588.046-3.669.044-7.2.278-10.607l.136-2.52.067-1.237.108-1.224.434-4.747c.148-1.543.392-3.036.576-4.492l.295-2.148.361-2.076c.249-1.359.436-2.681.714-3.943.279-1.261.529-2.478.778-3.648.583-2.319 1.1-4.457 1.694-6.342a71.83 71.83 0 0 1 3.091-8.661c.421-.977.771-1.714 1.022-2.206s.385-.741.385-.741a.288.288 0 0 1 .381-.108.288.288 0 0 1 .134.372l.019-.003z" fill="#AAE3EA"/><path d="M349.419 413.11s58.263 20.135 101.791-43.488c40.888-59.765 16.316-134.489-1.718-177.18-.941-2.228-4.215-1.81-4.574.576-5.411 35.944-30.586 176.493-98.609 219.981l3.11.111z" fill="#AAE3EA"/><path d="m355.504 413.919.498-.097c.325-.062.809-.172 1.441-.317a76.587 76.587 0 0 0 5.416-1.506c1.162-.334 2.425-.785 3.809-1.241 1.374-.514 2.86-1.028 4.412-1.676a107.495 107.495 0 0 0 10.25-4.747c3.684-1.886 7.516-4.214 11.456-6.828 1.927-1.372 3.936-2.734 5.872-4.286l1.479-1.143.745-.576.718-.617 2.911-2.49c3.809-3.459 7.612-7.191 11.071-11.338l1.319-1.543.66-.771.618-.811 2.475-3.257c.859-1.065 1.59-2.229 2.358-3.355l2.296-3.408 2.104-3.531 1.053-1.763c.172-.295.357-.581.515-.883l.472-.91c.629-1.211 1.259-2.42 1.89-3.626.312-.603.625-1.205.939-1.805l.83-1.851 1.645-3.681c.266-.615.563-1.213.8-1.836l.705-1.861 1.401-3.69c.232-.61.479-1.213.687-1.824.208-.61.393-1.234.591-1.846.391-1.227.781-2.443 1.168-3.646.378-1.2.798-2.39 1.078-3.6l1.871-7.029c.525-2.304.961-4.565 1.437-6.74.225-1.091.497-2.153.675-3.215.179-1.061.344-2.103.507-3.123.33-2.042.651-3.998.975-5.859.249-1.871.438-3.652.643-5.315.204-1.663.405-3.238.587-4.687.182-1.448.225-2.789.344-3.996.201-2.415.362-4.314.489-5.61.127-1.296.186-1.991.186-1.991v-.012a.292.292 0 0 1 .495-.173.291.291 0 0 1 .083.196l.03 1.998c.018 1.305.037 3.218.046 5.658 0 1.218.033 2.571-.031 4.04-.064 1.469-.172 3.057-.254 4.754a188.965 188.965 0 0 1-.344 5.41 490.973 490.973 0 0 1-.695 5.974l-.385 3.189c-.137 1.082-.364 2.172-.548 3.29-.407 2.228-.809 4.532-1.279 6.893-.573 2.342-1.156 4.742-1.751 7.2-.276 1.236-.687 2.446-1.07 3.682-.383 1.236-.771 2.481-1.162 3.737l-.589 1.886c-.217.626-.464 1.246-.687 1.874l-1.44 3.771-.73 1.905c-.247.634-.553 1.248-.827 1.875-.565 1.249-1.132 2.506-1.702 3.772l-.859 1.885-.972 1.848-1.938 3.727-.489.931c-.172.309-.357.603-.536.905l-1.087 1.805-2.185 3.611-2.404 3.471c-.804 1.152-1.575 2.328-2.468 3.411l-2.585 3.306-.644.822-.687.786-1.374 1.565c-3.593 4.22-7.591 7.957-11.567 11.412l-3.033 2.482-.749.614-.775.572-1.546 1.137c-2.006 1.553-4.111 2.873-6.116 4.214-1.013.656-2.048 1.242-3.05 1.853l-1.494.896c-.5.288-1.008.552-1.505.827l-2.94 1.59-2.894 1.411a109.43 109.43 0 0 1-10.593 4.375c-1.599.597-3.133 1.046-4.533 1.507-1.42.403-2.712.806-3.902 1.094a77.94 77.94 0 0 1-5.551 1.212c-.646.113-1.142.193-1.482.24l-.515.07a.29.29 0 0 1-.096-.571l.013-.002z" fill="url(#b)"/><path d="m100.289 52.53 249.312 4.24a25.859 25.859 0 0 1 17.673 7.396 25.765 25.765 0 0 1 7.705 17.513l12.246 361.097a19.003 19.003 0 0 1-11.586 18.142 19.093 19.093 0 0 1-7.432 1.516l-285.833.324a18.127 18.127 0 0 1-6.997-1.398 18.054 18.054 0 0 1-9.814-9.952 18.019 18.019 0 0 1-1.29-7.005l6.199-363.108a29.242 29.242 0 0 1 8.94-20.546 29.352 29.352 0 0 1 20.877-8.218z" fill="url(#c)"/><path d="M124.253 457.233h-.019l-31.965-.957c-10.633-.319-19.137-9.214-18.955-19.829l.823-48.185a.578.578 0 0 1 .989-.393.581.581 0 0 1 .163.413l-.822 48.184c-.172 9.985 7.826 18.353 17.83 18.651l31.965.957a.58.58 0 1 1-.017 1.159h.008zM74.972 373.925h-.01a.583.583 0 0 1-.57-.588l.133-7.803a.587.587 0 0 1 .59-.569.572.572 0 0 1 .53.367.576.576 0 0 1 .04.222l-.133 7.802a.578.578 0 0 1-.58.569z" fill="#30ABBA"/><path d="M101.105 49.62c33.968 5.187 150.795 21.429 247.723 15.66a7.891 7.891 0 0 1 5.772 2.023 7.861 7.861 0 0 1 2.581 5.536l13.109 362.718a9.035 9.035 0 0 1-2.402 6.47 9.075 9.075 0 0 1-6.273 2.899c-40.752 1.714-208.571 8.156-268.271.888a7.189 7.189 0 0 1-4.53-2.398 7.163 7.163 0 0 1-1.773-4.802L91.3 57.933a8.488 8.488 0 0 1 3.003-6.388 8.522 8.522 0 0 1 6.801-1.925z" fill="#30ABBA"/><path d="M104.595 59.083c32.689 4.992 145.128 20.623 238.387 15.07a7.589 7.589 0 0 1 7.341 4.36c.427.915.665 1.907.702 2.916l12.617 349.062a8.698 8.698 0 0 1-2.311 6.227 8.726 8.726 0 0 1-6.038 2.787c-39.217 1.649-200.717 7.85-258.164.857a6.912 6.912 0 0 1-4.36-2.308 6.891 6.891 0 0 1-1.706-4.623l4.094-366.342a8.168 8.168 0 0 1 2.888-6.154 8.202 8.202 0 0 1 6.55-1.852z" fill="#AAE3EA"/><path d="M339.915 104.751a2.152 2.152 0 0 0 2.078-1.4c.104-.279.148-.577.13-.874l-.018-.395a2.547 2.547 0 0 0-2.436-2.37l-211.826-5.27c-1.276-.033-1.683.768-.905 1.778l2.416 3.137c.778 1.011 2.458 1.854 3.736 1.877l206.825 3.517zM127.609 108.379c-1.278-.031-1.685.77-.907 1.779l2.417 3.137c.778 1.012 2.459 1.855 3.735 1.886l206.825 3.516a2.147 2.147 0 0 0 2.207-2.273l-.019-.394a2.538 2.538 0 0 0-2.437-2.373l-211.821-5.278z" fill="#fff" opacity=".6"/><path d="M162.047 235.677h-.078l-28.063.161c-4.045.022-7.425-2.705-7.863-6.343l-2.829-23.462a5.164 5.164 0 0 1 1.166-3.908 6.225 6.225 0 0 1 4.306-2.205c2.358-.206 5.621-.526 9.202-.891 7.8-.784 16.641-1.672 21.84-1.816h.113c3.72-.056 6.956 2.158 7.901 5.417 1.546 5.381 1.576 15.6 1.465 26.486-.045 3.573-3.246 6.501-7.16 6.561zm-33.168-33.48a3.917 3.917 0 0 0-2.724 1.371 2.88 2.88 0 0 0-.559 1.028 2.887 2.887 0 0 0-.108 1.165l2.829 23.461c.299 2.486 2.696 4.348 5.577 4.332l28.062-.161h.055c2.682-.041 4.875-1.959 4.9-4.296.109-10.711.085-20.743-1.374-25.834-.648-2.251-3.113-3.893-5.742-3.76-5.116.143-14.296 1.067-21.673 1.806-3.607.361-6.87.685-9.24.889l-.003-.001z" fill="#fff"/><path opacity=".6" d="M131.929 204.514c5.887-.492 18.679-1.987 24.754-2.155 2.576-.072 4.855 1.447 5.496 3.666 1.238 4.309 1.216 12.939 1.135 20.904-.024 2.386-2.19 4.323-4.869 4.338l-22.427.129c-2.756.015-5.075-1.826-5.369-4.267l-2.26-18.747c-.235-1.946 1.357-3.696 3.54-3.868zM186.32 210.914c-1.278-.011-2.041.984-1.695 2.211l2.66 9.477c.344 1.227 1.671 2.215 2.947 2.196l141.246-2.162a2.276 2.276 0 0 0 1.614-.706 2.253 2.253 0 0 0 .619-1.646l-.216-5.813a2.455 2.455 0 0 0-2.405-2.335l-144.77-1.222z" fill="#fff"/><path d="M163.687 172.788h-.077l-28.062.161c-4.045.022-7.425-2.705-7.863-6.343l-2.824-23.463a5.159 5.159 0 0 1 1.165-3.91 6.225 6.225 0 0 1 4.307-2.205c2.365-.197 5.62-.525 9.203-.883 7.799-.785 16.639-1.673 21.837-1.817h.115c3.721-.057 6.956 2.158 7.901 5.417 1.546 5.381 1.575 15.6 1.465 26.486-.05 3.569-3.251 6.497-7.167 6.557zm-33.168-33.48a3.94 3.94 0 0 0-2.723 1.371 2.906 2.906 0 0 0-.666 2.193l2.829 23.462c.299 2.485 2.696 4.349 5.575 4.332l28.064-.16h.054c2.683-.041 4.876-1.959 4.9-4.296.11-10.711.086-20.743-1.374-25.832-.647-2.253-3.113-3.895-5.741-3.76-5.116.141-14.296 1.065-21.675 1.805-3.596.362-6.87.686-9.24.888l-.003-.003z" fill="#fff"/><path opacity=".6" d="M133.569 141.621c5.889-.494 18.679-1.987 24.756-2.157 2.576-.07 4.855 1.447 5.496 3.667 1.238 4.31 1.216 12.938 1.135 20.904-.026 2.384-2.19 4.322-4.869 4.337l-22.427.129c-2.76.013-5.07-1.826-5.371-4.272l-2.26-18.743c-.233-1.939 1.359-3.684 3.54-3.865zM187.962 148.027c-1.278-.012-2.041.984-1.695 2.211l2.657 9.477c.343 1.226 1.671 2.215 2.947 2.194l141.246-2.162a2.27 2.27 0 0 0 2.089-1.465 2.28 2.28 0 0 0 .144-.885l-.217-5.815a2.456 2.456 0 0 0-.742-1.639 2.467 2.467 0 0 0-1.662-.696l-144.767-1.22z" fill="#fff"/><path d="M162.969 295.701h-.077l-28.064.159c-4.045.024-7.425-2.703-7.863-6.343l-2.828-23.46a5.16 5.16 0 0 1 1.164-3.912 6.234 6.234 0 0 1 4.307-2.204c2.365-.198 5.622-.525 9.203-.883 7.801-.784 16.64-1.673 21.839-1.817h.114c3.72-.057 6.955 2.158 7.9 5.418 1.546 5.382 1.577 15.6 1.465 26.484-.043 3.571-3.246 6.498-7.16 6.558zm-33.168-33.48a3.949 3.949 0 0 0-1.501.411 3.953 3.953 0 0 0-1.223.96 2.906 2.906 0 0 0-.666 2.194l2.828 23.46c.299 2.488 2.697 4.349 5.577 4.332l28.062-.159h.055c2.683-.041 4.876-1.958 4.9-4.296.11-10.711.086-20.743-1.374-25.833-.649-2.252-3.114-3.865-5.743-3.759-5.117.142-14.297 1.064-21.675 1.805-3.597.362-6.87.686-9.238.888l-.002-.003z" fill="#fff"/><path opacity=".6" d="M132.851 264.533c5.888-.492 18.679-1.987 24.754-2.155 2.576-.072 4.856 1.447 5.496 3.665 1.238 4.31 1.216 12.94 1.135 20.904-.024 2.387-2.189 4.324-4.869 4.339l-22.425.127c-2.758.017-5.077-1.826-5.37-4.265l-2.262-18.747c-.234-1.941 1.358-3.684 3.541-3.868zM187.242 270.939c-1.276-.01-2.039.984-1.695 2.212l2.66 9.476c.344 1.228 1.671 2.215 2.948 2.196l141.247-2.163a2.267 2.267 0 0 0 2.233-2.35l-.218-5.813a2.453 2.453 0 0 0-2.404-2.335l-144.771-1.223z" fill="#fff"/><path d="M161.226 353.379h-.074l-28.064.16c-4.043.024-7.423-2.704-7.863-6.343l-2.828-23.46a5.17 5.17 0 0 1 1.164-3.909 6.235 6.235 0 0 1 4.308-2.206c2.363-.197 5.614-.514 9.193-.883 7.416-.745 16.648-1.671 21.848-1.817 3.693-.074 7.059 2.121 8.007 5.416 1.546 5.381 1.577 15.6 1.465 26.484-.036 3.579-3.239 6.493-7.156 6.558zm-33.165-33.48a3.932 3.932 0 0 0-2.724 1.372 2.902 2.902 0 0 0-.666 2.192l2.828 23.46c.299 2.486 2.697 4.35 5.575 4.332l28.064-.159c2.645-.087 4.931-1.946 4.955-4.298.11-10.711.086-20.743-1.374-25.832-.649-2.253-3.114-3.837-5.743-3.76-5.118.141-14.303 1.065-21.684 1.805-3.591.362-6.857.686-9.229.888h-.002z" fill="#fff"/><path opacity=".6" d="M131.111 322.212c5.888-.492 18.68-1.987 24.754-2.155 2.577-.072 4.856 1.445 5.496 3.665 1.239 4.31 1.216 12.94 1.136 20.904-.024 2.387-2.19 4.322-4.869 4.337l-22.426.129c-2.758.017-5.077-1.826-5.37-4.265l-2.26-18.749c-.236-1.939 1.356-3.684 3.539-3.866zM185.502 328.618c-1.276-.01-2.038.984-1.695 2.212l2.661 9.476c.343 1.228 1.671 2.215 2.947 2.196l141.248-2.163a2.266 2.266 0 0 0 2.232-2.35l-.218-5.814a2.452 2.452 0 0 0-2.404-2.334l-144.771-1.223z" fill="#fff"/><path d="M158.955 412.869h-.077l-28.064.159c-4.045.024-7.425-2.703-7.863-6.343l-2.828-23.462a5.163 5.163 0 0 1 1.166-3.91 6.215 6.215 0 0 1 4.306-2.204c2.365-.198 5.621-.525 9.202-.885 7.801-.783 16.641-1.671 21.84-1.815 3.811 0 7.06 2.122 8.006 5.413 1.546 5.381 1.577 15.6 1.465 26.486-.027 3.578-3.237 6.501-7.153 6.561zm-33.168-33.48a3.93 3.93 0 0 0-2.724 1.371 2.901 2.901 0 0 0-.666 2.193l2.828 23.461c.299 2.486 2.697 4.348 5.577 4.332l28.062-.161h.057c2.681-.041 4.874-1.959 4.898-4.296.11-10.711.086-20.743-1.374-25.834-.649-2.251-3.112-3.808-5.743-3.758-5.117.141-14.297 1.065-21.673 1.805-3.607.362-6.87.686-9.24.888l-.002-.001z" fill="#fff"/><path opacity=".6" d="M128.837 381.701c5.888-.494 18.68-1.987 24.754-2.156 2.577-.071 4.857 1.446 5.496 3.666 1.24 4.31 1.216 12.938 1.136 20.904-.024 2.385-2.19 4.322-4.869 4.338l-22.426.128c-2.758.016-5.077-1.826-5.37-4.265l-2.26-18.749c-.236-1.939 1.356-3.684 3.539-3.866zM183.228 388.114c-1.276-.012-2.038.984-1.695 2.212l2.661 9.476c.343 1.226 1.671 2.215 2.947 2.195l141.242-2.169a2.268 2.268 0 0 0 2.233-2.35l-.216-5.815a2.462 2.462 0 0 0-2.405-2.335l-144.767-1.214z" fill="#fff"/><path d="M241.247 5.722C232.349-.686 224.517-.686 218.98.837a10.991 10.991 0 0 0-6.048 4.272 10.957 10.957 0 0 0-1.958 7.133l1.934 25.939 28.246 2.988s17.546-22.883.093-35.447zM228.452 26.4a7.066 7.066 0 0 1-3.9-1.253 7.043 7.043 0 0 1-2.876-7.28 7.03 7.03 0 0 1 1.992-3.572 7.059 7.059 0 0 1 7.714-1.396 7.043 7.043 0 0 1 4.244 6.58 7.038 7.038 0 0 1-2.152 4.944 7.061 7.061 0 0 1-5.022 1.977z" fill="url(#d)"/><path d="M215.426 27.958a1.396 1.396 0 0 1-.895-1.2l-.307-4.131a1.395 1.395 0 0 1 .756-1.386 1.408 1.408 0 0 1 1.568.199 1.387 1.387 0 0 1 .47.981l.308 4.132a1.404 1.404 0 0 1-.766 1.351 1.399 1.399 0 0 1-1.134.054zm-.604-8.095a1.396 1.396 0 0 1-.894-1.2l-.235-3.137a11.187 11.187 0 0 1 2.002-7.257 11.22 11.22 0 0 1 6.153-4.352 21.91 21.91 0 0 1 10.7-.257 1.403 1.403 0 0 1 1.063 1.67 1.402 1.402 0 0 1-1.673 1.06 19.115 19.115 0 0 0-9.336.222 8.415 8.415 0 0 0-4.608 3.267 8.386 8.386 0 0 0-1.498 5.44l.234 3.137a1.404 1.404 0 0 1-.563 1.226 1.404 1.404 0 0 1-1.339.181h-.006z" fill="#30ABBA"/><path d="m174.012 54.262.222-13.028a7.931 7.931 0 0 1 2.527-5.673 7.964 7.964 0 0 1 5.842-2.129l89.89 4.606a7.751 7.751 0 0 1 5.102 2.278 7.723 7.723 0 0 1 2.237 5.113l.537 12.524-106.357-3.69z" fill="url(#e)"/><path d="M207.835 38.674h-.01l-3.868-.065a.581.581 0 0 1-.402-.993.581.581 0 0 1 .412-.166h.009l3.869.065a.581.581 0 0 1 .402.993.582.582 0 0 1-.412.166zM178.457 50.88a1.4 1.4 0 0 1-.896-1.33l.091-5.267a8.093 8.093 0 0 1 2.47-5.684 8.123 8.123 0 0 1 5.774-2.277l14.22.242a1.402 1.402 0 0 1 .923 2.392 1.406 1.406 0 0 1-.972.407l-14.219-.243a5.33 5.33 0 0 0-3.779 1.493 5.31 5.31 0 0 0-1.623 3.718l-.089 5.267a1.402 1.402 0 0 1-1.426 1.371 1.438 1.438 0 0 1-.474-.089z" fill="#30ABBA"/><path d="m145.911 49.017 157.28 2.67a11.64 11.64 0 0 1 7.441 2.854 11.597 11.597 0 0 1 3.85 6.966l.12.77a9.94 9.94 0 0 1-2.337 8.078 9.99 9.99 0 0 1-7.698 3.418L143.206 71.03a6.502 6.502 0 0 1-4.665-2.089 6.468 6.468 0 0 1-1.704-4.811l.471-7.2a8.45 8.45 0 0 1 2.714-5.676 8.486 8.486 0 0 1 5.889-2.237z" fill="url(#f)"/><path d="M249.084 260.835c-1.008 35.937-4.279 159.894-2.717 203.819.171 4.654 4.386 8.389 9.654 8.54 26.044.755 121.524 2.663 164.126 1.084 8.873-.329 15.928-6.686 16.114-14.527.884-37.714 2.837-143.808-1.805-192.408-.557-5.829-5.728-10.457-12.308-11.042-28.364-2.508-124.255-8.636-161.061-6.526-6.638.38-11.838 5.186-12.003 11.06z" fill="#6165D7"/><path d="M260.715 269.208c-1.404 8.4-5.824 36.343-4.421 46.675.204 1.51 4.857 2.731 10.751 2.82 24.273.363 107.085 1.164 142.689.435 6.41-.132 11.44-1.459 11.787-3.101 1.803-8.571 6.983-34.587 5.639-44.804-.215-1.631-5.153-2.961-11.496-3.107-26.26-.603-114.257-2.04-144.511-1.616-5.688.079-10.205 1.244-10.438 2.698z" fill="url(#g)"/><path d="M416.092 276.514a6.984 6.984 0 0 0-4.908-2.124l-136.403-2.161a6.985 6.985 0 0 0-4.773 1.778 6.961 6.961 0 0 0-2.291 4.54l-2.834 30.206c-.234 2.472 3.844 4.555 9.041 4.618l134.103 1.622c5.19.062 9.479-1.913 9.522-4.385l.515-29.127a6.983 6.983 0 0 0-.49-2.68 6.98 6.98 0 0 0-1.482-2.287z" fill="#fff" style="mix-blend-mode:soft-light" opacity=".2"/><path d="M283.583 338.986h-11.844c-5.383 0-9.747 4.356-9.747 9.729v.236c0 5.373 4.364 9.729 9.747 9.729h11.844c5.383 0 9.747-4.356 9.747-9.729v-.236c0-5.373-4.364-9.729-9.747-9.729zM327.686 338.986h-11.844c-5.383 0-9.746 4.356-9.746 9.729v.236c0 5.373 4.363 9.729 9.746 9.729h11.844c5.383 0 9.747-4.356 9.747-9.729v-.236c0-5.373-4.364-9.729-9.747-9.729zM370.05 338.986h-11.844c-5.383 0-9.747 4.356-9.747 9.729v.236c0 5.373 4.364 9.729 9.747 9.729h11.844c5.383 0 9.746-4.356 9.746-9.729v-.236c0-5.373-4.363-9.729-9.746-9.729z" fill="#010648"/><path d="M422.412 350.014a9.876 9.876 0 0 1-2.901 6.991 9.912 9.912 0 0 1-7.003 2.896h-11.475a9.92 9.92 0 0 1-7.003-2.896 9.887 9.887 0 0 1-2.902-6.991 9.882 9.882 0 0 1 6.115-9.133 9.92 9.92 0 0 1 3.79-.753h11.468a9.912 9.912 0 0 1 9.151 6.103 9.882 9.882 0 0 1 .754 3.783h.006z" fill="url(#h)"/><path opacity=".63" d="M283.583 369.686h-11.844c-5.383 0-9.747 4.355-9.747 9.728v.237c0 5.373 4.364 9.728 9.747 9.728h11.844c5.383 0 9.747-4.355 9.747-9.728v-.237c0-5.373-4.364-9.728-9.747-9.728zM327.686 369.686h-11.844c-5.383 0-9.746 4.355-9.746 9.728v.237c0 5.373 4.363 9.728 9.746 9.728h11.844c5.383 0 9.747-4.355 9.747-9.728v-.237c0-5.373-4.364-9.728-9.747-9.728zM370.05 369.686h-11.844c-5.383 0-9.747 4.355-9.747 9.728v.237c0 5.373 4.364 9.728 9.747 9.728h11.844c5.383 0 9.746-4.355 9.746-9.728v-.237c0-5.373-4.363-9.728-9.746-9.728z" fill="#010648"/><path d="M413.573 369.686h-11.844c-5.383 0-9.747 4.355-9.747 9.728v.237c0 5.373 4.364 9.728 9.747 9.728h11.844c5.383 0 9.746-4.355 9.746-9.728v-.237c0-5.373-4.363-9.728-9.746-9.728z" fill="#010648"/><path opacity=".63" d="M283.583 398.067h-11.844c-5.383 0-9.747 4.356-9.747 9.729v.237c0 5.372 4.364 9.728 9.747 9.728h11.844c5.383 0 9.747-4.356 9.747-9.728v-.237c0-5.373-4.364-9.729-9.747-9.729zM327.686 398.067h-11.844c-5.383 0-9.746 4.356-9.746 9.729v.237c0 5.372 4.363 9.728 9.746 9.728h11.844c5.383 0 9.747-4.356 9.747-9.728v-.237c0-5.373-4.364-9.729-9.747-9.729zM370.05 398.067h-11.844c-5.383 0-9.747 4.356-9.747 9.729v.237c0 5.372 4.364 9.728 9.747 9.728h11.844c5.383 0 9.746-4.356 9.746-9.728v-.237c0-5.373-4.363-9.729-9.746-9.729zM283.583 427.61h-11.844c-5.383 0-9.747 4.355-9.747 9.728v.237c0 5.373 4.364 9.728 9.747 9.728h11.844c5.383 0 9.747-4.355 9.747-9.728v-.237c0-5.373-4.364-9.728-9.747-9.728zM327.686 427.61h-11.844c-5.383 0-9.746 4.355-9.746 9.728v.237c0 5.373 4.363 9.728 9.746 9.728h11.844c5.383 0 9.747-4.355 9.747-9.728v-.237c0-5.373-4.364-9.728-9.747-9.728zM370.05 427.61h-11.844c-5.383 0-9.747 4.355-9.747 9.728v.237c0 5.373 4.364 9.728 9.747 9.728h11.844c5.383 0 9.746-4.355 9.746-9.728v-.237c0-5.373-4.363-9.728-9.746-9.728z" fill="#010648"/><path d="M406.921 399.226h-.861c-6.813 0-12.336 5.513-12.336 12.314v23.448c0 6.801 5.523 12.314 12.336 12.314h.861c6.813 0 12.336-5.513 12.336-12.314V411.54c0-6.801-5.523-12.314-12.336-12.314z" fill="url(#i)"/><g opacity=".7" fill="#AAE3EA"><path d="M402.428 280.774a2.024 2.024 0 0 1-1.255 1.873c-.246.102-.51.154-.777.154h-6.382a2.033 2.033 0 0 1-2.032-2.027 2.027 2.027 0 0 1 2.032-2.028h6.382a2.027 2.027 0 0 1 2.032 2.028zM402.428 309.735a2.031 2.031 0 0 1-2.032 2.028h-6.382a2.031 2.031 0 0 1-2.032-2.028 2.029 2.029 0 0 1 2.032-2.028h6.382a2.029 2.029 0 0 1 2.032 2.028zM393.143 293.517a2.029 2.029 0 0 1-3.467 1.433 2.025 2.025 0 0 1-.595-1.433v-6.374a2.025 2.025 0 0 1 2.03-2.026 2.032 2.032 0 0 1 2.032 2.026v6.374zM393.143 305.102a2.026 2.026 0 0 1-2.032 2.026 2.032 2.032 0 0 1-2.03-2.026v-6.372a2.033 2.033 0 0 1 4.062 0v6.372zM407.07 293.517a2.028 2.028 0 0 1-2.03 2.028 2.029 2.029 0 0 1-2.032-2.028v-6.374a2.028 2.028 0 0 1 2.809-1.872 2.04 2.04 0 0 1 1.099 1.096c.102.246.154.51.154.776v6.374zM407.07 305.102a2.022 2.022 0 0 1-1.253 1.872 2.028 2.028 0 0 1-1.554 0 2.008 2.008 0 0 1-.659-.439 2.016 2.016 0 0 1-.596-1.433v-6.372a2.028 2.028 0 0 1 2.809-1.872 2.04 2.04 0 0 1 1.099 1.096c.102.246.154.51.154.776v6.372z"/></g><path d="M229.001 154.788c8.107-8.092 8.107-21.212 0-29.304-8.107-8.092-21.251-8.092-29.358 0s-8.107 21.212 0 29.304c8.107 8.092 21.251 8.092 29.358 0z" fill="url(#j)"/><path d="M228.513 154.3c7.837-7.822 7.837-20.506 0-28.328-7.837-7.823-20.544-7.823-28.382 0-7.837 7.822-7.837 20.506 0 28.328 7.838 7.823 20.545 7.823 28.382 0z" fill="url(#k)"/><path opacity=".78" d="M197.774 132.394a.563.563 0 0 1-.44-.201.572.572 0 0 1-.079-.639 19.114 19.114 0 0 1 8.565-8.497 19.163 19.163 0 0 1 11.957-1.686.59.59 0 0 1 .463.448.572.572 0 0 1-.237.597.593.593 0 0 1-.433.094 18.235 18.235 0 0 0-3.24-.292 17.891 17.891 0 0 0-9.419 2.65 17.857 17.857 0 0 0-6.61 7.204.584.584 0 0 1-.527.322z" fill="#fff"/><path opacity=".78" d="M231.284 144.459c2.155-9.113-3.499-18.244-12.63-20.395-9.13-2.151-18.278 3.493-20.433 12.606-2.155 9.114 3.5 18.245 12.63 20.396s18.278-3.493 20.433-12.607z" fill="#fff"/><path d="m221.492 146.743 1.242 3.771c-1.488 1.047-3.256 1.676-5.302 1.886a11.452 11.452 0 0 1-4.92-.526 9.695 9.695 0 0 1-4.009-2.551c-1.08-1.108-1.889-2.548-2.427-4.322l-2.233.233-.257-2.472 1.889-.197-.062-.591c-.012-.117-.024-.29-.036-.525a9.137 9.137 0 0 0-.038-.514l-1.952.202-.26-2.47 2.338-.244a10.725 10.725 0 0 1 1.91-4.986c1.843-2.608 4.404-4.083 7.682-4.425a12.923 12.923 0 0 1 5.341.499l-.56 4.061a10.024 10.024 0 0 0-3.95-.432c-1.814.191-3.178.967-4.093 2.328-.431.607-.724 1.4-.879 2.379l8.684-.905.259 2.471-9.207.96c0 .234.025.595.077 1.083l.058.557 9.242-.963.259 2.472-8.759.912c.344.997.812 1.77 1.405 2.317 1.171 1.074 2.733 1.509 4.685 1.307a8.553 8.553 0 0 0 3.873-1.315z" fill="url(#l)"/><path d="M298.967 141.071c14.113-14.087 14.113-36.925 0-51.011-14.112-14.087-36.993-14.087-51.106 0-14.113 14.086-14.113 36.924 0 51.011 14.113 14.086 36.994 14.086 51.106 0z" fill="url(#m)"/><path d="M298.118 140.223c13.644-13.618 13.644-35.698 0-49.316-13.643-13.618-35.764-13.618-49.408 0-13.644 13.618-13.644 35.698 0 49.316 13.644 13.619 35.765 13.619 49.408 0z" fill="url(#n)"/><path opacity=".78" d="M244.604 101.657a.57.57 0 0 1-.259-.063.572.572 0 0 1-.257-.777 32.648 32.648 0 0 1 12.093-13.175 32.74 32.74 0 0 1 17.233-4.842c1.986 0 3.969.177 5.923.531a.585.585 0 0 1 .463.449.593.593 0 0 1 .004.226.591.591 0 0 1-.242.372.58.58 0 0 1-.434.093 32.078 32.078 0 0 0-5.714-.514 31.585 31.585 0 0 0-16.625 4.674 31.505 31.505 0 0 0-11.666 12.712.583.583 0 0 1-.519.314z" fill="#fff"/><path opacity=".78" d="M295.085 137.194c11.547-11.527 11.547-30.214 0-41.74-11.548-11.527-30.271-11.527-41.819 0-11.547 11.526-11.547 30.213 0 41.74 11.548 11.526 30.271 11.526 41.819 0z" fill="#fff"/><path d="m285.63 125.373 1.889 5.727c-2.258 1.587-4.937 2.543-8.039 2.866a17.371 17.371 0 0 1-7.461-.797 14.728 14.728 0 0 1-6.071-3.876c-1.643-1.679-2.873-3.862-3.688-6.55l-3.383.343-.395-3.741 2.854-.296-.093-.899c-.018-.171-.037-.44-.056-.793a16.332 16.332 0 0 0-.057-.796l-2.961.309-.393-3.748 3.543-.368c.374-2.886 1.34-5.405 2.897-7.559 2.794-3.954 6.677-6.191 11.648-6.711 2.889-.3 5.589-.047 8.098.758l-.858 6.171c-2.098-.635-4.102-.854-6.012-.655-2.748.286-4.816 1.462-6.205 3.528-.652.923-1.097 2.123-1.334 3.6l13.168-1.371.391 3.747-13.959 1.456c0 .356.039.904.118 1.642l.088.845 14.026-1.462.392 3.747-13.273 1.396c.514 1.512 1.225 2.683 2.132 3.512 1.773 1.629 4.141 2.289 7.103 1.98 2.26-.233 4.224-.901 5.891-2.005z" fill="url(#o)"/><path d="M324.632 222.374c14.522-14.495 14.522-37.995 0-52.49-14.522-14.494-38.066-14.494-52.588 0-14.522 14.495-14.522 37.995 0 52.49 14.522 14.495 38.066 14.495 52.588 0z" fill="url(#p)"/><path d="M323.758 221.501c14.038-14.012 14.038-36.731 0-50.744-14.039-14.013-36.801-14.013-50.84 0-14.038 14.013-14.038 36.732 0 50.744 14.039 14.013 36.801 14.013 50.84 0z" fill="url(#q)"/><path opacity=".78" d="M268.694 181.803a.592.592 0 0 1-.44-.2.572.572 0 0 1-.079-.64 33.592 33.592 0 0 1 12.438-13.552 33.667 33.667 0 0 1 17.725-4.982c2.042-.001 4.08.182 6.09.546a.579.579 0 1 1-.208 1.139 32.966 32.966 0 0 0-5.882-.528 32.512 32.512 0 0 0-17.117 4.81 32.426 32.426 0 0 0-12.008 13.09.579.579 0 0 1-.519.317z" fill="#fff"/><path opacity=".78" d="M320.637 218.387c11.883-11.86 11.883-31.09 0-42.95-11.882-11.86-31.148-11.86-43.03 0-11.883 11.86-11.883 31.09 0 42.95 11.882 11.86 31.148 11.86 43.03 0z" fill="#fff"/><path d="m309.043 207.525 1.568 6.329c-2.564 1.529-5.532 2.343-8.905 2.443-2.736.1-5.461-.398-7.983-1.461a15.93 15.93 0 0 1-6.236-4.671c-1.631-1.943-2.776-4.4-3.435-7.372l-3.679.108-.12-4.075 3.103-.091-.027-.975v-1.714l-3.221.094-.118-4.075 3.85-.111c.639-3.086 1.885-5.726 3.738-7.92 3.333-4.041 7.702-6.141 13.106-6.3 3.143-.093 6.035.397 8.675 1.469l-1.419 6.588c-2.211-.854-4.351-1.25-6.421-1.19-2.989.087-5.315 1.189-6.98 3.305-.779.943-1.355 2.204-1.73 3.784l14.315-.419.119 4.074-15.176.445c-.027.384-.027.977 0 1.78l.026.919 15.236-.446.118 4.073-14.427.423c.431 1.672 1.102 2.992 2.015 3.96 1.783 1.902 4.283 2.806 7.502 2.711 2.45-.073 4.619-.635 6.506-1.685z" fill="url(#r)"/><path d="M373.009 149.333c2.086-14.875-8.303-28.621-23.206-30.704-14.902-2.082-28.674 8.288-30.76 23.162-2.087 14.875 8.302 28.621 23.205 30.704 14.902 2.082 28.674-8.288 30.761-23.162z" fill="url(#s)"/><path d="M371.285 153.034c4.134-13.921-3.821-28.551-17.769-32.677-13.947-4.127-28.604 3.814-32.738 17.735s3.821 28.551 17.768 32.677c13.947 4.127 28.605-3.814 32.739-17.735z" fill="url(#t)"/><path opacity=".78" d="M324.322 135.228a.577.577 0 0 1-.517-.84 24.754 24.754 0 0 1 9.169-9.992 24.817 24.817 0 0 1 13.067-3.674c1.506 0 3.009.135 4.491.404a.59.59 0 0 1 .463.447.572.572 0 0 1-.237.598.588.588 0 0 1-.434.094 24.03 24.03 0 0 0-4.283-.384 23.664 23.664 0 0 0-12.459 3.501 23.608 23.608 0 0 0-8.742 9.527.572.572 0 0 1-.518.319z" fill="#fff"/><path opacity=".78" d="M362.377 161.877c8.706-8.69 8.706-22.778 0-31.468-8.705-8.69-22.821-8.69-31.527 0s-8.706 22.778 0 31.468c8.706 8.69 22.822 8.69 31.527 0z" fill="#fff"/><path d="m352.085 156.05.041 4.918c-2.148.675-4.468.755-6.961.238a14.146 14.146 0 0 1-5.606-2.463 12.004 12.004 0 0 1-3.759-4.514c-.856-1.714-1.267-3.714-1.234-6l-2.718-.562.625-3.01 2.294.474.15-.721c.029-.141.081-.352.153-.631.072-.28.125-.49.154-.631l-2.375-.499.625-3.008 2.846.588c1.006-2.15 2.38-3.87 4.122-5.16 3.153-2.383 6.726-3.162 10.719-2.335a15.959 15.959 0 0 1 6.107 2.59l-2.193 4.587a12.373 12.373 0 0 0-4.503-1.993c-2.209-.457-4.109-.055-5.701 1.208-.735.556-1.379 1.38-1.932 2.474l10.577 2.189-.626 3.01-11.213-2.321c-.088.278-.192.712-.316 1.307l-.141.685 11.26 2.33-.625 3.01-10.662-2.206c.024 1.303.285 2.389.784 3.257.976 1.704 2.653 2.803 5.031 3.297 1.812.369 3.505.333 5.077-.108z" fill="url(#u)"/><path d="M68.04 462.475s-1.048 5.919-1.561 11.779a4.03 4.03 0 0 0 .998 3.013 4.053 4.053 0 0 0 2.871 1.362c7.817.324 24.54.956 30.539.685a1.317 1.317 0 0 0 1.159-1.8 2.947 2.947 0 0 0-1.508-1.584l-27.62-12.67-4.878-.785z" fill="url(#v)"/><path d="m67.181 458.998.842 7.08s4.838 2.248 8.142-.284l-2.002-7.886-6.982 1.09z" fill="url(#w)"/><path d="M67.813 325.886c-.362 1.849-1.95 92.266 7.729 132.785a1.368 1.368 0 0 1-.807 1.599 24.018 24.018 0 0 1-7.887 1.6 2.38 2.38 0 0 1-2.355-1.699c-2.766-9.401-16.03-56.503-17.76-101.498-1.934-50.278 0-1.714 0-1.714l1.133-31.078 19.947.005z" fill="#010648"/><path d="M36.267 465.564s-1.668 2.988-3.283 10.929a2.453 2.453 0 0 0 .428 1.956 2.467 2.467 0 0 0 1.743.992c2.576.254 6.556.58 9.738.557a2.47 2.47 0 0 0 1.834-.826 2.457 2.457 0 0 0 .602-1.917c-.352-2.897-1.452-7.652-4.843-11.358l-6.22-.333z" fill="url(#x)"/><path d="m34.801 456.456 1.967 10.707s1.944 1.444 5.79.398l-.938-11.52-6.819.415z" fill="url(#y)"/><path d="M29.49 328.665c-7.92 47.703 1.717 117.905 4.966 131.645a2.144 2.144 0 0 0 1.735 1.627c1.45.24 3.838.437 6.193-.246a1.969 1.969 0 0 0 1.415-1.808c.437-11.109-.343-79.305 7.03-106.255a6.129 6.129 0 0 1 2.365-3.379l14.322-10.162 1.1-16.428-39.127 5.006z" fill="#010648"/><path d="M79.95 238.272c-23.732-.391-49.918 6.221-49.918 6.221-7.074 41.201-1.237 88.723-1.237 88.723 18.377 4.8 39.099-2.94 39.099-2.94 3.054-17.222 17.302-65.688 17.302-65.688 11.596-1.435 21.147-4.774 29.015-9.19-6.001-6.943-8.829-15.772-10.057-20.999-8.392 2.604-16.883 3.995-24.203 3.873z" fill="url(#z)"/><path d="M150.053 203.381c-2.33-2.811-5.281-1.481-5.281-1.481-3.493 14.724-21.812 26.664-40.618 32.499 1.228 5.222 4.056 14.058 10.057 20.999 31.222-17.522 35.842-52.017 35.842-52.017z" fill="url(#A)"/><path d="M149.488 204.096c.244.773-2.576 1.953-4.245-1.214-.059-1.517-.983-8.017-.074-9.257 4.838-6.579 14.214-14.825 14.214-14.825 1.585 1.56.28 3.086.28 3.086l-4.552 4.731c.954 1.714 2.113 3.166 2.657 5.242a6.353 6.353 0 0 1-.635 4.684c-.799 1.436-1.889 3.303-2.92 4.764-1.946 2.767-4.725 2.789-4.725 2.789z" fill="url(#B)"/><path d="m153.126 189.689-4.148 3.511-1.302 3.494 3.698 4.093s1.244-6.93 2.168-8.43c.924-1.5.443-2.229-.416-2.668z" fill="url(#C)"/><path d="m39.135 267.429-9.103-22.938S7.864 259.526 4.218 278.587c4.19.308 11.811 1.395 19.27 5.156 1.64-9.001 15.647-16.314 15.647-16.314z" fill="url(#D)"/><path d="M58.506 289.013s-24.888 14.04-33.286 2.057c-1.744-2.489-2.161-4.971-1.732-7.321-7.459-3.762-15.08-4.848-19.27-5.157-1.099 5.748-.515 11.859 2.865 18.036 14.71 26.859 54.717-1.485 54.717-1.485l-3.294-6.13z" fill="url(#E)"/><path d="M55.516 306.775 69.1 259.428a1.376 1.376 0 0 1 1.17-.994 589.555 589.555 0 0 1 17.825-1.787c9.918-.838 21.436-1.517 28.318-.939a1.394 1.394 0 0 1 1.097.696 1.39 1.39 0 0 1 .038 1.298c-3.914 7.903-20.012 40.052-28.067 50.583a1.392 1.392 0 0 1-1.121.549l-31.515-.292a1.392 1.392 0 0 1-1.104-.554 1.385 1.385 0 0 1-.225-1.213z" fill="#7D97F4"/><path d="m89.505 252.542 9.848-1.637a.713.713 0 0 1 .653.236.718.718 0 0 1 .157.323.714.714 0 0 1-.023.358l-.974 2.948a.71.71 0 0 1-.579.477l-9.477 1.265a.708.708 0 0 1-.781-.857l.604-2.572a.702.702 0 0 1 .572-.541z" fill="#6165D7"/><path d="m82.13 260.863.813-4.217a.977.977 0 0 1 .858-.787l19.891-2.014a.982.982 0 0 1 .835.328.972.972 0 0 1 .214.872l-1.266 5.256a.978.978 0 0 1-.9.745l-19.438.977a.982.982 0 0 1-.991-.723.973.973 0 0 1-.016-.437z" fill="#6165D7"/><path d="M58.798 295.335s-1.889-7.765-1.128-10.52c.76-2.755 2.241-6.298 7.17-5.512 4.93.787 10.745 2.868 10.745 2.868s-.294 3.588-4.041 2.431l2.323 1.793s-.331 2.874-3.496 1.339l2.16 2.38s-1.358 2.36-3.687.847c-2.33-1.514-3.444 5.31-10.046 4.374z" fill="url(#F)"/><path d="m55.911 219.041-7.557 21.797a.788.788 0 0 0 .36.947c2.06 1.136 9.474 4.419 18.41-1.236a3.699 3.699 0 0 0 1.707-2.642l2.446-18.857-15.366-.009z" fill="url(#G)"/><path d="M75.408 199.714c.172.343 3.018 25.416 3.018 25.416l-14.377 1.319-6.238-23.371s14.768-9.103 17.597-3.364z" fill="url(#H)"/><path d="m62.489 207.218 2.319 12.553c.028.16.08.316.15.462.444.9 2.192 3.882 5.141 1.911 2.676-1.79 5.153-3.382 7.198-3.418a1.785 1.785 0 0 1 1.807 1.58c.258 2.279.745 7.423.484 11.957a1.782 1.782 0 0 1-1.731 1.667c-2.78.085-8.65.101-13.376-.991a1.79 1.79 0 0 1-1.324-1.258c-.859-3.086-3.512-12.432-4.654-14.925-1.074-2.338-4.536-2.825-6.011-2.926a1.76 1.76 0 0 1-1.232-.629c-1.09-1.308-3.054-4.519.876-7.372a1.785 1.785 0 0 0 .362-2.546c-1.24-1.596-2.404-4.266.492-6.889 2.95-2.666 6.13-1.665 8.008-.623a1.788 1.788 0 0 0 2.25-.447c.316-.381.802-.629 1.546-.444a1.767 1.767 0 0 0 1.897-.801c.127-.209.21-.443.241-.685.275-1.963 1.374-4.325 4.94-4.845 6.335-.92 9.176 5.496 8.86 9.9-.316 4.404-7.242 5.011-11.114 4.099-2.942-.686-5.621 1.903-6.736 3.189a1.761 1.761 0 0 0-.393 1.481z" fill="#010648"/><path d="M59.392 221.314s.222-7.695-2.863-8.571c-3.084-.876-6.554 1.229-4.1 5.955 3.046 5.894 6.963 2.616 6.963 2.616z" fill="url(#I)"/><defs><linearGradient id="r" x1="297.494" y1="179.345" x2="287.211" y2="243.693" gradientUnits="userSpaceOnUse"><stop stop-color="#FC9D8A"/><stop offset="1" stop-color="#FF8F79"/></linearGradient><linearGradient id="a" x1="490.449" y1="532.877" x2="151.251" y2="166.075" gradientUnits="userSpaceOnUse"><stop stop-color="#DAE3FE"/><stop offset="1" stop-color="#E9EFFD"/></linearGradient><linearGradient id="c" x1="49.361" y1="488.937" x2="376.754" y2="71.317" gradientUnits="userSpaceOnUse"><stop stop-color="#09005D"/><stop offset="1" stop-color="#1A0F91"/></linearGradient><linearGradient id="d" x1="270.195" y1="-30.598" x2="151.817" y2="117.272" gradientUnits="userSpaceOnUse"><stop stop-color="#09005D"/><stop offset="1" stop-color="#1A0F91"/></linearGradient><linearGradient id="e" x1="280.66" y1="-20.567" x2="163.23" y2="127.938" gradientUnits="userSpaceOnUse"><stop stop-color="#09005D"/><stop offset="1" stop-color="#1A0F91"/></linearGradient><linearGradient id="f" x1="266.022" y1="-11.643" x2="184.161" y2="132.038" gradientUnits="userSpaceOnUse"><stop stop-color="#09005D"/><stop offset="1" stop-color="#1A0F91"/></linearGradient><linearGradient id="g" x1="328.267" y1="345.749" x2="346.244" y2="271.099" gradientUnits="userSpaceOnUse"><stop stop-color="#09005D"/><stop offset="1" stop-color="#1A0F91"/></linearGradient><linearGradient id="h" x1="410.825" y1="229.202" x2="405.621" y2="385.016" gradientUnits="userSpaceOnUse"><stop stop-color="#FC9D8A"/><stop offset="1" stop-color="#FC9D8A"/></linearGradient><linearGradient id="i" x1="393.724" y1="423.264" x2="419.257" y2="423.264" gradientUnits="userSpaceOnUse"><stop stop-color="#09005D"/><stop offset="1" stop-color="#1A0F91"/></linearGradient><linearGradient id="j" x1="185.915" y1="173.047" x2="213.7" y2="140.737" gradientUnits="userSpaceOnUse"><stop stop-color="#E1473D"/><stop offset="1" stop-color="#E9605A"/></linearGradient><linearGradient id="k" x1="203.358" y1="125.133" x2="244.973" y2="178.936" gradientUnits="userSpaceOnUse"><stop stop-color="#FC9D8A"/><stop offset="1" stop-color="#FF8F79"/></linearGradient><linearGradient id="l" x1="214.335" y1="129.915" x2="208.342" y2="169.27" gradientUnits="userSpaceOnUse"><stop stop-color="#FC9D8A"/><stop offset="1" stop-color="#FF8F79"/></linearGradient><linearGradient id="m" x1="223.962" y1="172.856" x2="272.331" y2="116.608" gradientUnits="userSpaceOnUse"><stop stop-color="#E1473D"/><stop offset="1" stop-color="#E9605A"/></linearGradient><linearGradient id="n" x1="254.326" y1="89.447" x2="326.773" y2="183.111" gradientUnits="userSpaceOnUse"><stop stop-color="#FC9D8A"/><stop offset="1" stop-color="#FF8F79"/></linearGradient><linearGradient id="o" x1="274.778" y1="99.863" x2="265.69" y2="159.553" gradientUnits="userSpaceOnUse"><stop stop-color="#FC9D8A"/><stop offset="1" stop-color="#FF8F79"/></linearGradient><linearGradient id="p" x1="247.453" y1="255.083" x2="297.223" y2="197.205" gradientUnits="userSpaceOnUse"><stop stop-color="#E1473D"/><stop offset="1" stop-color="#E9605A"/></linearGradient><linearGradient id="q" x1="278.698" y1="169.255" x2="353.241" y2="265.631" gradientUnits="userSpaceOnUse"><stop stop-color="#FC9D8A"/><stop offset="1" stop-color="#FF8F79"/></linearGradient><linearGradient id="b" x1="355.262" y1="347.105" x2="449.569" y2="347.105" gradientUnits="userSpaceOnUse"><stop stop-color="#DAE3FE"/><stop offset="1" stop-color="#E9EFFD"/></linearGradient><linearGradient id="s" x1="308.735" y1="188.772" x2="345.203" y2="146.366" gradientUnits="userSpaceOnUse"><stop stop-color="#E1473D"/><stop offset="1" stop-color="#E9605A"/></linearGradient><linearGradient id="t" x1="323.973" y1="135.108" x2="405.739" y2="171.132" gradientUnits="userSpaceOnUse"><stop stop-color="#FC9D8A"/><stop offset="1" stop-color="#FF8F79"/></linearGradient><linearGradient id="u" x1="346.379" y1="133.639" x2="339.29" y2="182.423" gradientUnits="userSpaceOnUse"><stop stop-color="#FC9D8A"/><stop offset="1" stop-color="#FF8F79"/></linearGradient><linearGradient id="v" x1="100.013" y1="454.294" x2="-.931" y2="564.299" gradientUnits="userSpaceOnUse"><stop stop-color="#09005D"/><stop offset="1" stop-color="#1A0F91"/></linearGradient><linearGradient id="w" x1="67.181" y1="462.451" x2="76.165" y2="462.451" gradientUnits="userSpaceOnUse"><stop stop-color="#FF928E"/><stop offset="1" stop-color="#FEB3B1"/></linearGradient><linearGradient id="x" x1="77.321" y1="433.473" x2="-23.622" y2="543.477" gradientUnits="userSpaceOnUse"><stop stop-color="#09005D"/><stop offset="1" stop-color="#1A0F91"/></linearGradient><linearGradient id="y" x1="34.801" y1="461.991" x2="42.559" y2="461.991" gradientUnits="userSpaceOnUse"><stop stop-color="#FF928E"/><stop offset="1" stop-color="#FEB3B1"/></linearGradient><linearGradient id="z" x1="109.852" y1="179.657" x2="31.931" y2="325.357" gradientUnits="userSpaceOnUse"><stop stop-color="#FF928E"/><stop offset="1" stop-color="#FE7062"/></linearGradient><linearGradient id="A" x1="142.976" y1="175.113" x2="127.176" y2="220.338" gradientUnits="userSpaceOnUse"><stop stop-color="#FF928E"/><stop offset="1" stop-color="#FEB3B1"/></linearGradient><linearGradient id="B" x1="208.512" y1="176.887" x2="138.891" y2="196.069" gradientUnits="userSpaceOnUse"><stop stop-color="#FF928E"/><stop offset="1" stop-color="#FEB3B1"/></linearGradient><linearGradient id="C" x1="144.346" y1="208.728" x2="156.252" y2="184.669" gradientUnits="userSpaceOnUse"><stop stop-color="#FF928E"/><stop offset="1" stop-color="#FEB3B1"/></linearGradient><linearGradient id="D" x1="79.599" y1="163.476" x2="1.676" y2="309.178" gradientUnits="userSpaceOnUse"><stop stop-color="#FF928E"/><stop offset="1" stop-color="#FE7062"/></linearGradient><linearGradient id="E" x1="3.713" y1="293.388" x2="61.8" y2="293.388" gradientUnits="userSpaceOnUse"><stop stop-color="#FF928E"/><stop offset="1" stop-color="#FEB3B1"/></linearGradient><linearGradient id="F" x1="57.488" y1="287.309" x2="75.585" y2="287.309" gradientUnits="userSpaceOnUse"><stop stop-color="#FF928E"/><stop offset="1" stop-color="#FEB3B1"/></linearGradient><linearGradient id="G" x1="65.096" y1="204.991" x2="57.387" y2="245.928" gradientUnits="userSpaceOnUse"><stop stop-color="#FF928E"/><stop offset="1" stop-color="#FEB3B1"/></linearGradient><linearGradient id="H" x1="68.59" y1="203.047" x2="59.403" y2="250.26" gradientUnits="userSpaceOnUse"><stop stop-color="#FF928E"/><stop offset="1" stop-color="#FEB3B1"/></linearGradient><linearGradient id="I" x1="43.729" y1="248.999" x2="54.129" y2="217.331" gradientUnits="userSpaceOnUse"><stop stop-color="#FF928E"/><stop offset="1" stop-color="#FEB3B1"/></linearGradient></defs></svg>