<svg width="412" height="392" fill="none" xmlns="http://www.w3.org/2000/svg"><g clip-path="url(#a)"><path d="M111.306 23.561c-13.234 18.925 2.274 49.608-17.35 63.843-19.105 13.856-42.574-8.856-60.577 3.07-26.708 17.694-21.83 98.652 17.218 148.953 11.743 15.127 21.556 21.013 25.895 38.121 9.332 36.735-23.463 58.589-17.222 76.757 14.052 40.91 230.171 75.238 316.892-47.709 40.501-57.422 46.559-140.338 10.374-203.314-65.386-113.796-245.56-122.187-275.23-79.72z" fill="#F4F7FA"/><g opacity=".3" fill="#91B3FA"><path d="M169.677 55.254a1.474 1.474 0 0 1-1.86-.94 55.116 55.116 0 0 0-1.681-4.463 1.474 1.474 0 0 1 .752-1.92l.026-.01a1.475 1.475 0 0 1 1.933.777 59.223 59.223 0 0 1 1.768 4.698 1.47 1.47 0 0 1-.938 1.858zm-7.056-12.306A56.464 56.464 0 0 0 160 38.966a1.473 1.473 0 0 1 1.437-2.281c.379.057.721.26.953.564a58.92 58.92 0 0 1 2.757 4.192 1.47 1.47 0 0 1-.507 2.018 1.473 1.473 0 0 1-2.019-.507v-.004zm-7.583-9.934a55.313 55.313 0 0 0-3.442-3.298 1.47 1.47 0 0 1 .878-2.574 1.471 1.471 0 0 1 1.066.363 57.865 57.865 0 0 1 3.626 3.472 1.47 1.47 0 0 1-.045 2.082 1.492 1.492 0 0 1-.416.287 1.476 1.476 0 0 1-1.667-.332zm-9.607-7.989a55.99 55.99 0 0 0-4.094-2.446 1.472 1.472 0 1 1 1.4-2.59 59.841 59.841 0 0 1 4.312 2.574 1.472 1.472 0 0 1-.51 2.674c-.382.079-.781.003-1.108-.211zm-11.149-5.657a56.056 56.056 0 0 0-4.536-1.478 1.472 1.472 0 0 1 .795-2.836c1.608.45 3.213.974 4.773 1.557a1.468 1.468 0 0 1 .824.768 1.48 1.48 0 0 1 .039 1.126 1.474 1.474 0 0 1-1.895.863zm-12.122-3.047a56.927 56.927 0 0 0-4.751-.44 1.472 1.472 0 1 1 .143-2.94c1.665.084 3.348.24 4.999.463a1.47 1.47 0 1 1-.391 2.917zM70.71 34.844a1.473 1.473 0 0 1-.132-2.078 58.953 58.953 0 0 1 3.482-3.62 1.473 1.473 0 0 1 2.033 2.13 58.003 58.003 0 0 0-3.306 3.432 1.474 1.474 0 0 1-2.077.136zm38.96-18.808a56.363 56.363 0 0 0-4.721.63 1.473 1.473 0 0 1-1.461-2.294 1.474 1.474 0 0 1 .951-.605 60.545 60.545 0 0 1 4.975-.662 1.474 1.474 0 0 1 1.598 1.334 1.472 1.472 0 0 1-1.334 1.597h-.008zm-29.666 9.96a1.47 1.47 0 0 1 .338-2.053 59.225 59.225 0 0 1 4.2-2.75 1.474 1.474 0 0 1 2.183 1.625 1.472 1.472 0 0 1-.673.903 56.527 56.527 0 0 0-3.993 2.614 1.487 1.487 0 0 1-.258.143 1.471 1.471 0 0 1-1.797-.482zm17.424-7.447a56.125 56.125 0 0 0-4.466 1.669 1.473 1.473 0 0 1-1.178-2.697l.029-.013a59.003 59.003 0 0 1 4.703-1.76 1.474 1.474 0 0 1 1.06 2.744c-.043.02-.092.04-.148.057zM66.177 43.423a1.47 1.47 0 0 0 .658-.585c.39-.649.803-1.302 1.222-1.94a1.47 1.47 0 0 0-.952-2.255 1.475 1.475 0 0 0-1.508.636 61.06 61.06 0 0 0-1.287 2.042 1.472 1.472 0 0 0 1.86 2.102h.007z"/></g><g opacity=".3" fill="#91B3FA"><path d="M59.896 87.859a1.473 1.473 0 0 0 .819-1.725 54.105 54.105 0 0 1-.551-2.226 1.474 1.474 0 0 0-2.875.646c.178.785.372 1.573.58 2.345a1.475 1.475 0 0 0 2.027.96zM136.04 126.466a1.464 1.464 0 0 1-1.148.002 1.457 1.457 0 0 1-.484-.33 1.48 1.48 0 0 1-.285-1.639 1.47 1.47 0 0 1 .846-.776 55.775 55.775 0 0 0 4.292-1.889 1.472 1.472 0 0 1 1.288 2.644c-.613.3-1.228.589-1.847.866a54.21 54.21 0 0 1-2.662 1.122zm9.43-6.399a1.47 1.47 0 0 1 .403-2.042 54.63 54.63 0 0 0 3.786-2.775 1.47 1.47 0 0 1 2.384 1.312 1.474 1.474 0 0 1-.544.987 60.805 60.805 0 0 1-3.985 2.922 1.471 1.471 0 0 1-2.044-.404zm-17.086 8.8a58.475 58.475 0 0 1-4.849.949 1.476 1.476 0 0 1-1.645-1.239 1.471 1.471 0 0 1 1.202-1.672 56.052 56.052 0 0 0 4.605-.901 1.473 1.473 0 0 1 1.743.954 1.47 1.47 0 0 1-.796 1.82 1.425 1.425 0 0 1-.26.089zm26.943-16.693a1.477 1.477 0 0 1-.363-1.595 1.46 1.46 0 0 1 .306-.486 55.685 55.685 0 0 0 3.082-3.539 1.465 1.465 0 0 1 .989-.544 1.48 1.48 0 0 1 1.454.755 1.483 1.483 0 0 1-.141 1.632 55.598 55.598 0 0 1-3.245 3.718 1.465 1.465 0 0 1-1.029.46 1.466 1.466 0 0 1-1.053-.403v.002zm-39.785 18.304a57.338 57.338 0 0 1-4.937-.143 1.468 1.468 0 0 1-1.365-1.571 1.468 1.468 0 0 1 1.572-1.365c1.558.109 3.135.155 4.69.133a1.476 1.476 0 0 1 1.461 1.154 1.473 1.473 0 0 1-.839 1.662 1.422 1.422 0 0 1-.582.124v.006zm-12.876-1.247a59.478 59.478 0 0 1-4.788-1.214 1.472 1.472 0 0 1-.995-1.832 1.484 1.484 0 0 1 .71-.876 1.477 1.477 0 0 1 1.123-.118c1.492.445 3.023.833 4.549 1.153a1.478 1.478 0 0 1 .931.635 1.475 1.475 0 0 1-.016 1.636 1.484 1.484 0 0 1-.944.616 1.46 1.46 0 0 1-.574-.006l.004.006zm-12.304-4.025a60.183 60.183 0 0 1-4.41-2.227 1.473 1.473 0 1 1 1.432-2.574c1.359.759 2.77 1.472 4.19 2.116a1.478 1.478 0 0 1 .863 1.39 1.472 1.472 0 0 1-2.08 1.29l.005.005zm-11.132-6.611a56.783 56.783 0 0 1-3.817-3.147 1.47 1.47 0 0 1 .298-2.487c.182-.084.379-.13.58-.136a1.482 1.482 0 0 1 1.083.434 55.381 55.381 0 0 0 3.623 2.982 1.47 1.47 0 0 1-.286 2.517 1.472 1.472 0 0 1-1.488-.169l.007.006zm-9.414-8.911a58.91 58.91 0 0 1-3.028-3.9 1.464 1.464 0 0 1-.252-1.098 1.474 1.474 0 0 1 2.652-.608 55.178 55.178 0 0 0 2.877 3.705 1.475 1.475 0 0 1-.173 2.075 1.472 1.472 0 0 1-2.076-.174zM62.59 98.959a60.261 60.261 0 0 1-2.109-4.465 1.454 1.454 0 0 1 .783-1.93 1.472 1.472 0 0 1 1.93.785 57.607 57.607 0 0 0 2.004 4.244 1.47 1.47 0 0 1-.62 1.986l-.082.04a1.473 1.473 0 0 1-1.906-.66zM164.578 102.35a1.46 1.46 0 0 0 .661-.59c.408-.685.808-1.391 1.192-2.1a1.472 1.472 0 1 0-2.591-1.399 59.568 59.568 0 0 1-1.132 1.994 1.472 1.472 0 0 0 1.87 2.095z"/></g><path d="M158.385 77.886a.695.695 0 0 0-.287-.75l-6.938-4.692a36.5 36.5 0 0 0-1.512-11.719l5.496-6.312a.682.682 0 0 0 .165-.385.683.683 0 0 0-.088-.41l-5.016-8.703a.68.68 0 0 0-.726-.332l-8.221 1.584a36.462 36.462 0 0 0-9.374-7.2l-.572-8.354a.688.688 0 0 0-.508-.616l-9.704-2.61a.688.688 0 0 0-.748.286l-4.71 6.934a36.495 36.495 0 0 0-11.723 1.526l-6.315-5.493a.687.687 0 0 0-.795-.077l-8.707 5.005a.69.69 0 0 0-.334.726l1.586 8.217a36.52 36.52 0 0 0-7.204 9.371l-8.356.58a.686.686 0 0 0-.617.507l-2.61 9.699a.688.688 0 0 0 .278.748l6.937 4.693a36.454 36.454 0 0 0 1.528 11.718l-5.496 6.314a.686.686 0 0 0-.077.793l5.015 8.705a.687.687 0 0 0 .727.332l8.22-1.586a36.478 36.478 0 0 0 9.374 7.2l.58 8.353a.69.69 0 0 0 .508.618l9.711 2.611a.686.686 0 0 0 .748-.286l4.689-6.927c3.967.133 7.93-.383 11.731-1.526l6.315 5.493a.69.69 0 0 0 .796.077l8.707-5.014a.683.683 0 0 0 .331-.726l-1.585-8.216a36.49 36.49 0 0 0 7.205-9.37l8.357-.573a.683.683 0 0 0 .616-.508l2.603-9.705z" fill="#91B3FA"/><path d="M117.222 80.993a10.104 10.104 0 0 1-12.356-6.617 10.092 10.092 0 0 1 6.162-12.585 10.102 10.102 0 0 1 12.808 5.693 10.097 10.097 0 0 1-6.614 13.51zm-9.504-13.495a7.735 7.735 0 0 0 1.731 9.668 7.747 7.747 0 0 0 12.592-4.233 7.74 7.74 0 0 0-9.671-9.105 7.671 7.671 0 0 0-4.652 3.67z" fill="#BDD0FB"/><path d="M124.396 93.877a25.26 25.26 0 0 0 6.172-3.927l.042-.035.114-.101c.076-.066.143-.133.223-.199a.588.588 0 1 0-.789-.874 23.697 23.697 0 0 1-26.854 3.412 23.516 23.516 0 0 1-9.53-9.142 23.97 23.97 0 0 1-1.107-2.166 23.641 23.641 0 0 1 9.8-30.126c11.302-6.51 25.796-2.61 32.307 8.688.401.696.766 1.411 1.093 2.145a23.575 23.575 0 0 1 2.065 10.054.587.587 0 0 0 .578.573.588.588 0 0 0 .599-.551 24.811 24.811 0 0 0-3.315-12.803c-6.834-11.872-22.056-15.96-33.915-9.131a24.82 24.82 0 0 0-10.288 31.625 24.84 24.84 0 0 0 15.007 13.494 24.851 24.851 0 0 0 17.798-.936z" fill="#BDD0FB"/><g opacity=".3" fill="#91B3FA"><path d="M231.55 70.035a.909.909 0 0 0 .53-.952 39.219 39.219 0 0 0-.385-2.289.902.902 0 0 0-.379-.601.917.917 0 0 0-.696-.145.909.909 0 0 0-.709 1.1c.143.722.266 1.458.366 2.188a.91.91 0 0 0 1.024.777.88.88 0 0 0 .249-.078zM229.882 63.257a.908.908 0 0 1-1.144-.573 37.709 37.709 0 0 0-1.722-4.284.91.91 0 0 1 .43-1.211.944.944 0 0 1 1.213.429 39.471 39.471 0 0 1 1.801 4.493.904.904 0 0 1-.578 1.145zm-5.099-8.907a37.696 37.696 0 0 0-2.705-3.742.906.906 0 0 1 .147-1.255.909.909 0 0 1 1.259.102 39.26 39.26 0 0 1 2.836 3.921.903.903 0 0 1 .117.687.903.903 0 0 1-.519.63.911.911 0 0 1-1.135-.343zm-5.854-7.12a37.509 37.509 0 0 0-3.542-2.963.908.908 0 0 1 .755-1.624.903.903 0 0 1 .323.16 39.163 39.163 0 0 1 3.714 3.101.912.912 0 0 1 .225.987.917.917 0 0 1-1.001.572.915.915 0 0 1-.474-.233zm-7.425-5.466a37.753 37.753 0 0 0-4.159-2.002.912.912 0 0 1-.468-1.172.91.91 0 0 1 1.155-.51 39.25 39.25 0 0 1 4.362 2.101.915.915 0 0 1 .449.547.909.909 0 0 1-1.339 1.039v-.003zm-8.534-3.486a37.65 37.65 0 0 0-4.522-.935.907.907 0 0 1-.78-1.031.918.918 0 0 1 .359-.601.902.902 0 0 1 .679-.169c1.597.23 3.178.558 4.735.981a.907.907 0 0 1 .612 1.108.91.91 0 0 1-1.089.647h.006zm-9.123-1.31a36.996 36.996 0 0 0-4.61.194.91.91 0 0 1-.19-1.809 39.253 39.253 0 0 1 4.835-.204.908.908 0 0 1 .892.927.906.906 0 0 1-.927.892zm-9.157.958c-1.5.349-2.978.79-4.423 1.323a.912.912 0 0 1-.628-1.709 39.63 39.63 0 0 1 4.639-1.384.912.912 0 0 1 1.03 1.251.88.88 0 0 1-.625.519h.007zm-13.889 5.291a.912.912 0 0 1 .241-1.262 39.162 39.162 0 0 1 3.601-2.175c.19-.102.378-.2.563-.298a.913.913 0 0 1 1.217.399c.109.213.13.46.058.69a.913.913 0 0 1-.445.53c-.177.09-.355.183-.533.286a37.829 37.829 0 0 0-3.434 2.076.935.935 0 0 1-.767.126.914.914 0 0 1-.508-.366l.007-.006z"/></g><g opacity=".3" fill="#91B3FA"><path d="M208.725 110.465a39.44 39.44 0 0 1-4.475 1.624.91.91 0 1 1-.516-1.743 37.57 37.57 0 0 0 4.269-1.55.908.908 0 0 1 1.215 1.161.906.906 0 0 1-.481.503l-.012.005zm3.005-2.479a.91.91 0 0 1 .061-1.007.903.903 0 0 1 .265-.235 38.223 38.223 0 0 0 3.78-2.523.909.909 0 1 1 1.099 1.45 39.892 39.892 0 0 1-3.962 2.643.908.908 0 0 1-1.235-.328h-.008zm-12.124 5.173a39.59 39.59 0 0 1-4.737.494.896.896 0 0 1-.654-.238.907.907 0 0 1-.056-1.285.91.91 0 0 1 .632-.294 38.056 38.056 0 0 0 4.518-.471.908.908 0 0 1 .297 1.794zm19.659-10.613a.914.914 0 0 1-.258-.647.915.915 0 0 1 .277-.64 37.257 37.257 0 0 0 3.057-3.359.911.911 0 0 1 1.418 1.144 38.947 38.947 0 0 1-3.208 3.524.904.904 0 0 1-1.286-.022zm-29.154 11.022a39.5 39.5 0 0 1-4.721-.658.91.91 0 0 1-.578-.389c-.134-.201-.182-.446-.134-.683a.914.914 0 0 1 .389-.578c.201-.133.447-.181.683-.133a37.69 37.69 0 0 0 4.498.627.916.916 0 0 1 .845.979.92.92 0 0 1-.32.623.9.9 0 0 1-.668.212h.006zm-9.319-1.882a39.902 39.902 0 0 1-4.424-1.768.91.91 0 0 1 .777-1.644 38.062 38.062 0 0 0 4.219 1.696.909.909 0 1 1-.572 1.726v-.01zm-8.601-4.056a39.335 39.335 0 0 1-3.872-2.778.911.911 0 0 1 .493-1.573c.23-.03.463.028.652.163a37.249 37.249 0 0 0 3.691 2.648.912.912 0 0 1 .286 1.254.908.908 0 0 1-1.255.286h.005zM226.137 95.47a.905.905 0 0 0 .399-.351 39.57 39.57 0 0 0 1.166-2.012.9.9 0 0 0 .071-.693.896.896 0 0 0-.439-.54.906.906 0 0 0-1.007.094.922.922 0 0 0-.226.274 33.344 33.344 0 0 1-1.112 1.919.91.91 0 0 0 1.145 1.308h.003z"/></g><path d="M222.384 78.572a.462.462 0 0 0-.012-.28.465.465 0 0 0-.174-.22l-4.643-3.147a24.398 24.398 0 0 0-1.022-7.842l3.678-4.223a.457.457 0 0 0 .051-.532l-3.356-5.824a.46.46 0 0 0-.485-.222l-5.501 1.063a24.47 24.47 0 0 0-6.273-4.818l-.388-5.59a.462.462 0 0 0-.341-.412l-6.486-1.745a.463.463 0 0 0-.501.188l-3.147 4.64a24.428 24.428 0 0 0-7.846 1.021l-4.225-3.675a.458.458 0 0 0-.532-.052l-5.827 3.354a.462.462 0 0 0-.222.486l1.06 5.499a24.414 24.414 0 0 0-4.82 6.27l-5.592.388a.458.458 0 0 0-.412.339l-1.747 6.49a.455.455 0 0 0 .186.501l4.642 3.146a24.39 24.39 0 0 0 1.022 7.841l-3.677 4.225a.458.458 0 0 0-.051.532l3.362 5.818a.46.46 0 0 0 .486.222l5.494-1.063a24.407 24.407 0 0 0 6.273 4.82l.388 5.59a.46.46 0 0 0 .339.412l6.494 1.746a.462.462 0 0 0 .501-.186l3.147-4.64a24.414 24.414 0 0 0 7.844-1.023l4.228 3.678a.456.456 0 0 0 .532.051l5.827-3.355a.46.46 0 0 0 .222-.486l-1.06-5.497a24.468 24.468 0 0 0 4.82-6.27l5.592-.388a.46.46 0 0 0 .412-.34l1.74-6.49z" fill="#91B3FA"/><path d="M194.872 80.768a6.88 6.88 0 0 1-8.412-4.505 6.872 6.872 0 0 1 4.191-8.57 6.882 6.882 0 0 1 8.724 3.87 6.87 6.87 0 0 1-3.544 8.856 7.02 7.02 0 0 1-.959.35zm-6.74-5.243a5.075 5.075 0 0 0 2.399 3.04 5.062 5.062 0 0 0 7.497-3.822 5.056 5.056 0 0 0-2.554-5.006 5.064 5.064 0 0 0-7.285 2.852 5.064 5.064 0 0 0-.057 2.936z" fill="#BDD0FB"/><path d="M199.864 89.735a17.378 17.378 0 0 0 4.385-2.83l.117-.106a.908.908 0 0 0-1.22-1.349 15.347 15.347 0 0 1-2.638 1.917l-.156.087a15.162 15.162 0 0 1-7.239 1.96 15.437 15.437 0 0 1-4.095-.494l-.033-.008-.1-.028a15.212 15.212 0 0 1-9.299-7.141 15.38 15.38 0 0 1-.716-1.403 15.304 15.304 0 0 1 7.048-19.857 15.323 15.323 0 0 1 20.211 5.985 15.26 15.26 0 0 1 2.044 7.894.91.91 0 0 0 1.819.031 17.127 17.127 0 0 0-12.068-16.651 17.14 17.14 0 0 0-19.367 6.929 17.124 17.124 0 0 0 10.518 26.138c3.618.819 7.404.442 10.789-1.074z" fill="#BDD0FB"/><path d="m144.277 174.12-18.998 32.901-32.422-17.246 5.697 21.277 32.418 17.234 19-32.887-5.695-21.279z" fill="url(#b)"/><path d="m361.769 123.402-24.956-10.041a105.072 105.072 0 0 0-26.25-24.225c-51.025-33.137-121.814-17.751-157.802 34.291-14.951 21.605-22.041 46.575-20.55 71.593.283 4.903.896 9.781 1.834 14.601.811 4.157-1.982 8.331-6.239 9.33-4.258.998-8.351-1.563-9.157-5.721a131.303 131.303 0 0 1-1.596-10.582c-3.275-30.486 4.691-61.206 22.909-87.536 40.97-59.245 121.561-76.758 179.644-39.04 7.087 4.601 13.673 9.93 19.65 15.902a118.784 118.784 0 0 1 22.513 31.428z" fill="url(#c)"/><path d="m360.58 215.067 18.998-32.901L412 199.413l-5.697-21.279-32.417-17.232-19.001 32.887 5.695 21.278z" fill="url(#d)"/><path d="M364.914 274.086c-40.979 59.243-121.569 76.75-179.651 39.028a120.39 120.39 0 0 1-19.651-15.892 118.877 118.877 0 0 1-22.106-30.603l26.413 11.584a105.186 105.186 0 0 0 24.382 21.859c51.017 33.137 121.807 17.752 157.803-34.291 14.95-21.606 22.041-46.576 20.55-71.602a109.254 109.254 0 0 0-1.834-14.586c-.81-4.159 1.981-8.332 6.239-9.33 4.258-.998 8.352 1.563 9.156 5.72.68 3.528 1.212 7.055 1.597 10.583 3.277 30.478-4.689 61.194-22.898 87.53z" fill="url(#e)"/><path d="M161.631 292.217H12.228v-28.792H161.63c-3.198 0-3.198 28.792 0 28.792z" fill="#BDD0FB"/><path d="M12.228 285.007v-13.171c0-4.646 2.953-8.411 6.595-8.411H161c2.861 0 5.186-2.235 5.186-4.994a1.548 1.548 0 0 0-1.574-1.517H9.222c-3.564 0-9.222 5.395-9.222 12.049v18.404c0 6.275 5.492 11.368 8.853 11.368h154.941c1.322 0 2.393-1.032 2.393-2.305 0-2.322-1.955-4.206-4.367-4.206H17.883c-3.126-.007-5.655-3.233-5.655-7.217z" fill="#7D97F4"/><path opacity=".46" d="M156.456 269.835H16.371a.504.504 0 0 1-.33-.842.504.504 0 0 1 .33-.16h140.085a.504.504 0 0 1 .33.842.504.504 0 0 1-.33.16zM156.456 274.108H16.371a.499.499 0 0 1-.464-.5.5.5 0 0 1 .464-.501h140.085a.504.504 0 0 1 .33.842.498.498 0 0 1-.33.159zM156.456 278.382H16.371a.504.504 0 0 1 0-1.001h140.085a.498.498 0 0 1 .498.3.492.492 0 0 1 0 .401.498.498 0 0 1-.498.3zM156.456 282.656H16.371a.499.499 0 0 1-.464-.5.504.504 0 0 1 .464-.501h140.085a.499.499 0 0 1 .33.842.498.498 0 0 1-.33.159zM156.456 286.929H16.371a.499.499 0 0 1-.464-.5.504.504 0 0 1 .464-.501h140.085a.507.507 0 0 1 .498.3.496.496 0 0 1-.119.569.498.498 0 0 1-.379.132z" fill="#fff"/><path d="M4.51 346.532h193.277a3.06 3.06 0 0 0 3.06-3.059v-41.992a3.06 3.06 0 0 0-3.06-3.059H4.511a3.06 3.06 0 0 0-3.06 3.059v41.992a3.06 3.06 0 0 0 3.06 3.059z" fill="url(#f)"/><path d="M155.924 341.002h21.353c.572 0 1.035-.464 1.035-1.035v-34.981c0-.571-.463-1.035-1.035-1.035h-21.353c-.572 0-1.036.464-1.036 1.035v34.981c0 .571.464 1.035 1.036 1.035z" fill="url(#g)"/><path d="M143.497 341.002h7.103a.842.842 0 0 0 .843-.842v-35.367a.842.842 0 0 0-.843-.842h-7.103a.843.843 0 0 0-.843.842v35.367c0 .465.378.842.843.842z" fill="url(#h)"/><path d="M71.091 117.704c-.131.246-4.076 3.024-4.076 3.024s-2.744 15.096 2.29 22.528c5.032 7.432 22.175-5.801 22.175-5.801s9.639-1.507 14.482-20.449c1.11-4.346-5.837-1.044-13.577-.243-9.989 1.028-21.294.941-21.294.941z" fill="url(#i)"/><path d="M54.85 160.461a32.905 32.905 0 0 1 10-4.649c1.344-.367 8.596 1.74 13.08 1.637 6.152-.143 12.418-2.94 17.491-1.676 5.039 1.254 9.156 2.894 11.544 4.586 7.128 5.068 11.312 14.516 13.863 23.882-4.828 4.955-10.906 7.15-10.906 7.15l-1.123 45.494-26.912 13.763-30.718-15.406 1.1-44.459s-9.754-4.54-10.47-6.192c-.718-1.652 4.446-18.216 13.051-24.13z" fill="#BDD0FB"/><path d="M42.253 184.385s-13.072 36.223 16.739 51.111c6.19-.822 3.809-11.095 3.809-11.095s-12.952-2.86-9.062-33.083c-3.584-2.944-11.486-6.933-11.486-6.933z" fill="url(#j)"/><path d="M120.2 184.385s8.995 37.812-16.739 51.111c-6.189-.822-3.808-11.095-3.808-11.095s10.444-5.138 9.062-33.083c3.582-2.944 11.485-6.933 11.485-6.933z" fill="url(#k)"/><path d="M108.38 198.202H52.265a1.45 1.45 0 0 0-1.45 1.45v36.938c0 .801.649 1.45 1.45 1.45h56.115a1.45 1.45 0 0 0 1.451-1.45v-36.938c0-.801-.65-1.45-1.451-1.45z" fill="url(#l)"/><path d="M83.804 208.991c.312 2.113-.82 4.032-2.934 4.344a3.87 3.87 0 0 1-4.397-3.26c-.312-2.114.656-4.213 2.77-4.525 2.115-.312 4.248 1.327 4.561 3.441z" fill="#91B3FA"/><path d="M135.716 249.851c-6.753-1.55-22.364-.715-22.364-.715l-.634 1.716-1.052 8.543s14.866 2.678 22.194 2.671a6.89 6.89 0 0 0 2.056-.307c.223-.2.441-.408.648-.634 3.109-3.392 2.21-8.377-.848-11.274z" fill="url(#m)"/><path d="M136.385 250.021a12.25 12.25 0 0 0-.669-.17c3.058 2.897 3.957 7.882.848 11.276-.207.226-.429.429-.648.633 5.497-1.71 6.149-10.143.469-11.739z" fill="#BDD0FB"/><path d="m108.874 248.654 2.643.113a5.092 5.092 0 0 1 3.72 1.919 6.265 6.265 0 0 1 1.362 4.29 4.94 4.94 0 0 1-1.43 3.259 4.006 4.006 0 0 1-3.094 1.174l-4.044-.286.843-10.469z" fill="url(#n)"/><path d="M19.986 249.03c6.79-1.343 22.373-.032 22.373-.032l.592 1.738.837 8.572s-14.926 2.222-22.25 1.99a6.965 6.965 0 0 1-2.048-.37 9.867 9.867 0 0 1-.632-.654c-3.023-3.488-2.002-8.444 1.128-11.244z" fill="url(#o)"/><path d="M19.314 249.179c.213-.053.44-.103.674-.143-3.13 2.801-4.15 7.756-1.129 11.244.2.232.413.446.632.654-5.453-1.884-5.9-10.334-.177-11.755z" fill="#BDD0FB"/><path d="m46.856 248.655-2.648.029a5.05 5.05 0 0 0-3.76 1.805 6.225 6.225 0 0 0-1.47 4.24 4.969 4.969 0 0 0 1.348 3.302 4.026 4.026 0 0 0 3.063 1.268l4.05-.163-.583-10.481z" fill="url(#p)"/><path d="M137.606 223.071c-3.063-7.046-10.554-8.19-16.931-4.895-.111.143-40.488 20.831-76.103 29.898a38.642 38.642 0 0 1 1.658 10.153c.022.763.01 1.514-.035 2.254 27.307-1.403 56.94-10.505 82.406-18.507 7.903-2.539 12.4-11.094 9.005-18.903z" fill="url(#q)"/><path d="M109.061 258.769c-.107-3.939.659-7.605 2.298-10.999.047-.156.103-.304.153-.459a314.073 314.073 0 0 1-8.112-2.653c-25.286-8.65-44.578-17.383-62.99-27.435-7.153-3.907-15.285-1.287-17.574 7.172-2.044 7.55 2.594 13.585 9.257 16.264 22.902 9.196 56.545 17.589 77.011 18.969-.016-.289-.033-.575-.043-.859z" fill="url(#r)"/><path d="M64.85 155.811s2.719 11.78 15.924 11.535c13.448-.244 14.647-11.573 14.647-11.573l-8.786-1.879-.734-9.785-13.213.979-.245 9.295-7.592 1.428z" fill="url(#s)"/><path d="M74.538 116.388s-15.144 29.316 2.82 36.435c12.67 5.016 20.614-19.472 18.245-26.104-3.664-10.256-6.076-9.039-6.076-9.039l-14.99-1.292z" fill="url(#t)"/><path d="M95.609 126.719c-.043-.121-.08-.226-.113-.326.057.542.088 1.105.094 1.686.023-.414.043-.827.057-1.242l-.038-.118z" fill="#fff"/><path d="M95.495 126.393a14.4 14.4 0 0 0-.074-.592c.778 1.297-.72-1.728.074.592z" fill="#fff"/><path d="M102.619 108.516c8.114-1.845 2.482 23.243-9.597 19.131-12.08-4.113-17.709-6.64-19.592-3.325-1.882 3.315-5.019 16.874-6.061 9.846-.975-6.579-1.918-18.618 4.435-21.246 3.603-1.493 6.772 1.741 9.256.932 3.826-1.247 7.508-1.287 9.78.021 4.3 2.477 6.623-4.191 11.779-5.359z" fill="url(#u)"/><path d="M72.08 129.2s-2.62-3.953-3.813.093c-1.193 4.045-.436 9.635 1.964 7.037 2.401-2.598 1.849-7.13 1.849-7.13z" fill="url(#v)"/><path d="M320.52 125.832c.779 27.756 3.3 123.497 2.096 157.425-.127 3.593-3.383 6.479-7.439 6.596-20.088.582-93.73 2.057-126.587.837-6.844-.255-12.286-5.161-12.428-11.22-.684-29.134-2.189-111.076 1.391-148.613.429-4.497 4.418-8.08 9.494-8.529 21.876-1.936 95.834-6.671 124.221-5.041 5.114.295 9.125 4.006 9.252 8.545z" fill="url(#w)"/><path d="M306.58 129.902H194.147a8.17 8.17 0 0 0-8.171 8.167v23.523c0 4.51 3.659 8.167 8.171 8.167H306.58c4.512 0 8.171-3.657 8.171-8.167v-23.523a8.17 8.17 0 0 0-8.171-8.167z" fill="url(#x)"/><path d="M191.709 137.934a5.383 5.383 0 0 1 3.786-1.64l105.205-1.67a5.385 5.385 0 0 1 5.448 4.88l2.186 23.33c.179 1.911-2.964 3.52-6.973 3.568l-103.437 1.253c-4.006.047-7.311-1.477-7.344-3.388l-.39-22.496a5.372 5.372 0 0 1 1.519-3.837z" fill="#7D97F4" opacity=".51"/><path d="M286.642 193.607a7.51 7.51 0 0 0 2.202 5.314 7.52 7.52 0 0 0 5.316 2.201h9.157a7.513 7.513 0 1 0 0-15.028h-9.157c-.987 0-1.964.194-2.877.571a7.5 7.5 0 0 0-4.068 4.067 7.502 7.502 0 0 0-.573 2.875z" fill="url(#y)"/><path d="M252.655 193.607a7.513 7.513 0 0 0 7.519 7.515h9.156a7.513 7.513 0 1 0 0-15.028h-9.156a7.529 7.529 0 0 0-5.317 2.2 7.517 7.517 0 0 0-2.202 5.313z" fill="url(#z)"/><path d="M219.968 193.607a7.509 7.509 0 0 0 7.516 7.515h9.157a7.51 7.51 0 0 0 5.315-2.201 7.52 7.52 0 0 0 2.201-5.314 7.516 7.516 0 0 0-7.516-7.513h-9.157a7.516 7.516 0 0 0-7.516 7.513z" fill="url(#A)"/><path d="M186.836 194.712c0 2.025.805 3.967 2.237 5.398a7.643 7.643 0 0 0 5.402 2.237h8.845a7.639 7.639 0 0 0 7.058-10.558 7.646 7.646 0 0 0-7.058-4.714h-8.845a7.64 7.64 0 0 0-7.639 7.637z" fill="url(#B)"/><path d="M286.642 217.13a7.51 7.51 0 0 0 4.641 6.942c.913.378 1.89.572 2.877.572h9.157a7.515 7.515 0 1 0 0-15.029h-9.157a7.515 7.515 0 0 0-7.518 7.515z" fill="url(#C)"/><path d="M252.655 217.13a7.51 7.51 0 0 0 4.642 6.942 7.511 7.511 0 0 0 2.877.572h9.156a7.515 7.515 0 1 0 0-15.029h-9.156a7.515 7.515 0 0 0-7.519 7.515z" fill="url(#D)"/><path d="M219.968 217.13a7.514 7.514 0 0 0 7.516 7.514h9.157a7.514 7.514 0 1 0-.009-15.029h-9.156a7.53 7.53 0 0 0-5.316 2.201 7.511 7.511 0 0 0-2.201 5.314h.009z" fill="url(#E)"/><path d="M185.976 217.13a7.52 7.52 0 0 0 7.517 7.514h9.156a7.514 7.514 0 1 0 0-15.029h-9.156c-.987 0-1.965.195-2.877.572a7.533 7.533 0 0 0-4.068 4.067 7.529 7.529 0 0 0-.572 2.876z" fill="url(#F)"/><path opacity=".63" d="M286.642 237.959a7.51 7.51 0 0 0 2.202 5.314 7.537 7.537 0 0 0 2.439 1.629c.913.377 1.89.572 2.877.572h9.157a7.515 7.515 0 1 0 0-15.029h-9.157a7.518 7.518 0 0 0-7.518 7.514z" fill="url(#G)"/><path opacity=".63" d="M252.655 237.959a7.515 7.515 0 0 0 7.519 7.515h9.156a7.514 7.514 0 0 0-.015-15.029h-9.156a7.517 7.517 0 0 0-7.504 7.514z" fill="url(#H)"/><path opacity=".63" d="M219.968 237.959a7.5 7.5 0 0 0 2.201 5.313 7.52 7.52 0 0 0 5.315 2.202h9.157a7.529 7.529 0 0 0 5.315-2.202 7.509 7.509 0 0 0 0-10.626 7.52 7.52 0 0 0-5.315-2.201h-9.157a7.514 7.514 0 0 0-7.516 7.514z" fill="url(#I)"/><path opacity=".63" d="M286.642 260.831c0 .987.195 1.964.573 2.875a7.5 7.5 0 0 0 4.068 4.067c.913.377 1.89.571 2.877.571h9.157a7.52 7.52 0 0 0 7.518-7.513 7.515 7.515 0 0 0-7.518-7.514h-9.157a7.518 7.518 0 0 0-7.518 7.514z" fill="url(#J)"/><path opacity=".63" d="M252.655 260.831a7.517 7.517 0 0 0 7.519 7.513h9.156a7.52 7.52 0 0 0 7.518-7.513 7.515 7.515 0 0 0-7.518-7.514h-9.156a7.511 7.511 0 0 0-5.317 2.201 7.512 7.512 0 0 0-2.202 5.313z" fill="url(#K)"/><path opacity=".63" d="M219.968 260.831a7.516 7.516 0 0 0 7.516 7.513h9.157a7.516 7.516 0 0 0 5.312-12.829 7.515 7.515 0 0 0-5.321-2.198h-9.156a7.517 7.517 0 0 0-7.517 7.514h.009z" fill="url(#L)"/><path d="M199.339 232.484h-.58c-5.255 0-9.515 4.259-9.515 9.512v18.221c0 5.253 4.26 9.511 9.515 9.511h.58c5.255 0 9.515-4.258 9.515-9.511v-18.221c0-5.253-4.26-9.512-9.515-9.512z" fill="url(#M)"/></g><defs><linearGradient id="u" x1="91.718" y1="110.215" x2="66.86" y2="150.446" gradientUnits="userSpaceOnUse"><stop stop-color="#09005D"/><stop offset="1" stop-color="#1A0F91"/></linearGradient><linearGradient id="b" x1="-232.916" y1="892.241" x2="7.664" y2="406.405" gradientUnits="userSpaceOnUse"><stop stop-color="#6165D7"/><stop offset="1" stop-color="#AA80F9"/></linearGradient><linearGradient id="d" x1="384.755" y1="210.908" x2="371.28" y2="164.688" gradientUnits="userSpaceOnUse"><stop stop-color="#FF9085"/><stop offset="1" stop-color="#FB6FBB"/></linearGradient><linearGradient id="e" x1="143.506" y1="251.517" x2="388.534" y2="251.517" gradientUnits="userSpaceOnUse"><stop stop-color="#FF9085"/><stop offset="1" stop-color="#FB6FBB"/></linearGradient><linearGradient id="f" x1="92.043" y1="354.095" x2="171.185" y2="79.06" gradientUnits="userSpaceOnUse"><stop stop-color="#FE7062"/><stop offset="1" stop-color="#FF928E"/></linearGradient><linearGradient id="g" x1="302.972" y1="104.244" x2="84.26" y2="454.549" gradientUnits="userSpaceOnUse"><stop stop-color="#FF928E"/><stop offset="1" stop-color="#FEB3B1"/></linearGradient><linearGradient id="h" x1="289.087" y1="95.176" x2="70.502" y2="445.275" gradientUnits="userSpaceOnUse"><stop stop-color="#FF928E"/><stop offset="1" stop-color="#FEB3B1"/></linearGradient><linearGradient id="i" x1="92.742" y1="110.88" x2="67.664" y2="151.468" gradientUnits="userSpaceOnUse"><stop stop-color="#09005D"/><stop offset="1" stop-color="#1A0F91"/></linearGradient><linearGradient id="j" x1="35.575" y1="174.645" x2="86.679" y2="298.145" gradientUnits="userSpaceOnUse"><stop stop-color="#A22B25"/><stop offset="1" stop-color="#C0423C"/></linearGradient><linearGradient id="k" x1="126.238" y1="174.381" x2="75.134" y2="297.88" gradientUnits="userSpaceOnUse"><stop stop-color="#A22B25"/><stop offset="1" stop-color="#C0423C"/></linearGradient><linearGradient id="l" x1="81.003" y1="190.597" x2="78.346" y2="298.249" gradientUnits="userSpaceOnUse"><stop stop-color="#09005D"/><stop offset="1" stop-color="#1A0F91"/></linearGradient><linearGradient id="m" x1="111.7" y1="255.35" x2="139.646" y2="255.564" gradientUnits="userSpaceOnUse"><stop stop-color="#4F52FF"/><stop offset="1" stop-color="#4042E2"/></linearGradient><linearGradient id="n" x1="130.143" y1="204.993" x2="100.666" y2="284.871" gradientUnits="userSpaceOnUse"><stop stop-color="#A22B25"/><stop offset="1" stop-color="#C0423C"/></linearGradient><linearGradient id="o" x1="44.042" y1="255.272" x2="16.084" y2="254.712" gradientUnits="userSpaceOnUse"><stop stop-color="#4F52FF"/><stop offset="1" stop-color="#4042E2"/></linearGradient><linearGradient id="p" x1="71.04" y1="180.923" x2="41.546" y2="260.843" gradientUnits="userSpaceOnUse"><stop stop-color="#A22B25"/><stop offset="1" stop-color="#C0423C"/></linearGradient><linearGradient id="q" x1="157.88" y1="106.571" x2="85.629" y2="252.139" gradientUnits="userSpaceOnUse"><stop stop-color="#4F52FF"/><stop offset="1" stop-color="#4042E2"/></linearGradient><linearGradient id="r" x1="67.725" y1="230.671" x2="76.755" y2="155.893" gradientUnits="userSpaceOnUse"><stop stop-color="#4F52FF"/><stop offset="1" stop-color="#4042E2"/></linearGradient><linearGradient id="s" x1="80.469" y1="184.841" x2="79.79" y2="125.662" gradientUnits="userSpaceOnUse"><stop stop-color="#A22B25"/><stop offset="1" stop-color="#C0423C"/></linearGradient><linearGradient id="t" x1="78.5" y1="151.985" x2="88.865" y2="101.498" gradientUnits="userSpaceOnUse"><stop stop-color="#A22B25"/><stop offset="1" stop-color="#C0423C"/></linearGradient><linearGradient id="c" x1="414.102" y1="-33.158" x2="15.136" y2="334.052" gradientUnits="userSpaceOnUse"><stop stop-color="#6165D7"/><stop offset="1" stop-color="#AA80F9"/></linearGradient><linearGradient id="v" x1="68.076" y1="157.633" x2="73.857" y2="77.07" gradientUnits="userSpaceOnUse"><stop stop-color="#A22B25"/><stop offset="1" stop-color="#C0423C"/></linearGradient><linearGradient id="w" x1="172.906" y1="322.405" x2="307.031" y2="121.612" gradientUnits="userSpaceOnUse"><stop stop-color="#09005D"/><stop offset="1" stop-color="#1A0F91"/></linearGradient><linearGradient id="x" x1="169.647" y1="83.94" x2="299.939" y2="190.393" gradientUnits="userSpaceOnUse"><stop stop-color="#4F52FF"/><stop offset="1" stop-color="#4042E2"/></linearGradient><linearGradient id="y" x1="336.004" y1="229.473" x2="237.018" y2="134.133" gradientUnits="userSpaceOnUse"><stop stop-color="#4F52FF"/><stop offset="1" stop-color="#4042E2"/></linearGradient><linearGradient id="z" x1="319.655" y1="246.449" x2="220.667" y2="151.109" gradientUnits="userSpaceOnUse"><stop stop-color="#4F52FF"/><stop offset="1" stop-color="#4042E2"/></linearGradient><linearGradient id="A" x1="303.933" y1="262.771" x2="204.946" y2="167.433" gradientUnits="userSpaceOnUse"><stop stop-color="#4F52FF"/><stop offset="1" stop-color="#4042E2"/></linearGradient><linearGradient id="B" x1="231.615" y1="102.96" x2="196.884" y2="200.444" gradientUnits="userSpaceOnUse"><stop stop-color="#FF928E"/><stop offset="1" stop-color="#FE7062"/></linearGradient><linearGradient id="C" x1="324.247" y1="241.68" x2="225.261" y2="146.341" gradientUnits="userSpaceOnUse"><stop stop-color="#4F52FF"/><stop offset="1" stop-color="#4042E2"/></linearGradient><linearGradient id="D" x1="281.874" y1="179.461" x2="256.454" y2="235.409" gradientUnits="userSpaceOnUse"><stop stop-color="#4F52FF"/><stop offset="1" stop-color="#4042E2"/></linearGradient><linearGradient id="E" x1="292.175" y1="274.98" x2="193.188" y2="179.64" gradientUnits="userSpaceOnUse"><stop stop-color="#4F52FF"/><stop offset="1" stop-color="#4042E2"/></linearGradient><linearGradient id="F" x1="275.825" y1="291.956" x2="176.837" y2="196.616" gradientUnits="userSpaceOnUse"><stop stop-color="#4F52FF"/><stop offset="1" stop-color="#4042E2"/></linearGradient><linearGradient id="G" x1="313.833" y1="252.492" x2="214.847" y2="157.153" gradientUnits="userSpaceOnUse"><stop stop-color="#4F52FF"/><stop offset="1" stop-color="#4042E2"/></linearGradient><linearGradient id="H" x1="284.842" y1="197.785" x2="256.88" y2="253.733" gradientUnits="userSpaceOnUse"><stop stop-color="#4F52FF"/><stop offset="1" stop-color="#4042E2"/></linearGradient><linearGradient id="I" x1="281.762" y1="285.791" x2="182.776" y2="190.453" gradientUnits="userSpaceOnUse"><stop stop-color="#4F52FF"/><stop offset="1" stop-color="#4042E2"/></linearGradient><linearGradient id="J" x1="302.402" y1="264.36" x2="203.416" y2="169.021" gradientUnits="userSpaceOnUse"><stop stop-color="#4F52FF"/><stop offset="1" stop-color="#4042E2"/></linearGradient><linearGradient id="K" x1="284.074" y1="223.837" x2="254.297" y2="280.876" gradientUnits="userSpaceOnUse"><stop stop-color="#4F52FF"/><stop offset="1" stop-color="#4042E2"/></linearGradient><linearGradient id="L" x1="270.331" y1="297.66" x2="171.344" y2="202.32" gradientUnits="userSpaceOnUse"><stop stop-color="#4F52FF"/><stop offset="1" stop-color="#4042E2"/></linearGradient><linearGradient id="M" x1="209.444" y1="266.2" x2="176.864" y2="218.847" gradientUnits="userSpaceOnUse"><stop stop-color="#4F52FF"/><stop offset="1" stop-color="#4042E2"/></linearGradient><clipPath id="a"><path fill="#fff" d="M0 0h412v392H0z"/></clipPath></defs></svg>