<svg height="60" width="120" xmlns:xlink="http://www.w3.org/1999/xlink" xmlns="http://www.w3.org/2000/svg"><path d="M32.377 26.446h-12.52v3.715h8.88c-.44 5.2-4.773 7.432-8.865 7.432a9.76 9.76 0 0 1-9.802-9.891c0-5.624 4.354-9.954 9.814-9.954 4.212 0 6.694 2.685 6.694 2.685l2.6-2.694s-3.34-3.717-9.43-3.717c-7.755 0-13.754 6.545-13.754 13.614 0 6.927 5.643 13.682 13.95 13.682 7.307 0 12.656-5.006 12.656-12.408 0-1.562-.227-2.464-.227-2.464z" fill="#4885ed"/><use xlink:href="#a" fill="#db3236"/><use xlink:href="#a" x="19.181" fill="#f4c20d"/><path d="M80.628 23.765c-4.716 0-8.422 4.13-8.422 8.766 0 5.28 4.297 8.782 8.34 8.782 2.5 0 3.83-.993 4.8-2.132v1.73c0 3.027-1.838 4.84-4.612 4.84-2.68 0-4.024-1.993-4.5-3.123l-3.372 1.4c1.196 2.53 3.604 5.167 7.9 5.167 4.7 0 8.262-2.953 8.262-9.147V24.292H85.36v1.486c-1.13-1.22-2.678-2.013-4.73-2.013zm.34 3.44c2.312 0 4.686 1.974 4.686 5.345 0 3.427-2.37 5.315-4.737 5.315-2.514 0-4.853-2.04-4.853-5.283 0-3.368 2.43-5.378 4.904-5.378z" fill="#4885ed"/><path d="M105.4 23.744c-4.448 0-8.183 3.54-8.183 8.76 0 5.526 4.163 8.803 8.6 8.803 3.712 0 6-2.03 7.35-3.85l-3.033-2.018c-.787 1.22-2.103 2.415-4.298 2.415-2.466 0-3.6-1.35-4.303-2.66l11.763-4.88-.6-1.43c-1.136-2.8-3.787-5.14-7.295-5.14zm.153 3.374c1.603 0 2.756.852 3.246 1.874l-7.856 3.283c-.34-2.542 2.07-5.157 4.6-5.157z" fill="#db3236"/><path d="M91.6 40.787h3.864V14.93H91.6z" fill="#3cba54"/><defs><path id="a" d="M42.634 23.755c-5.138 0-8.82 4.017-8.82 8.7 0 4.754 3.57 8.845 8.88 8.845 4.806 0 8.743-3.673 8.743-8.743 0-5.8-4.58-8.803-8.803-8.803zm.05 3.446c2.526 0 4.92 2.043 4.92 5.334 0 3.22-2.384 5.322-4.932 5.322-2.8 0-5-2.242-5-5.348 0-3.04 2.18-5.308 5.02-5.308z"/></defs><g aria-label="user reviews on" style="font-size:10.6667px;line-height:1.25"><path d="M39.501 5.57v5.824h-1.216l-.213-.747h-.085q-.278.448-.768.65-.48.203-1.024.203-.939 0-1.504-.501-.566-.512-.566-1.632V5.57h1.59v3.402q0 .63.224.95.224.309.714.309.726 0 .992-.49.267-.502.267-1.43V5.57zM45.23 9.666q0 .885-.63 1.365-.619.47-1.856.47-.608 0-1.045-.086-.438-.075-.875-.256V9.847q.47.213 1.013.352.544.139.96.139.459 0 .662-.139.202-.139.202-.363 0-.149-.085-.266-.075-.118-.341-.267-.267-.15-.832-.384-.555-.235-.907-.459-.341-.234-.512-.554-.17-.331-.17-.822 0-.81.629-1.216.629-.405 1.674-.405.544 0 1.035.107.49.106 1.013.352l-.48 1.141q-.426-.181-.81-.299-.384-.128-.779-.128-.704 0-.704.384 0 .139.085.256.096.107.352.235.267.128.779.341.501.203.864.427.363.213.555.544.202.33.202.843zM48.867 5.463q1.205 0 1.909.693.704.683.704 1.952v.768h-3.755q.022.672.395 1.056.384.384 1.056.384.555 0 1.013-.106.47-.118.96-.352v1.226q-.437.214-.906.31-.47.106-1.142.106-.874 0-1.546-.32-.672-.33-1.056-.981-.384-.661-.384-1.675 0-1.013.341-1.696.352-.682.97-1.024.62-.341 1.44-.341zm.01 1.13q-.469 0-.768.3-.298.298-.352.927h2.23q-.011-.522-.288-.874-.267-.352-.822-.352zM56.024 5.463q.117 0 .277.01.16.011.256.033l-.117 1.493q-.085-.021-.224-.032-.139-.021-.245-.021-.406 0-.779.149-.373.139-.608.459-.224.32-.224.874v2.966h-1.59V5.57h1.206l.235.981h.074q.256-.448.704-.768.448-.32 1.035-.32zM63.64 5.463q.117 0 .277.01.16.011.256.033l-.117 1.493q-.085-.021-.224-.032-.139-.021-.245-.021-.406 0-.779.149-.373.139-.608.459-.224.32-.224.874v2.966h-1.59V5.57h1.206l.235.981h.074q.256-.448.704-.768.448-.32 1.035-.32zM67.416 5.463q1.205 0 1.91.693.703.683.703 1.952v.768h-3.754q.021.672.394 1.056.384.384 1.056.384.555 0 1.014-.106.47-.118.96-.352v1.226q-.438.214-.907.31-.47.106-1.141.106-.875 0-1.547-.32-.672-.33-1.056-.981-.384-.661-.384-1.675 0-1.013.341-1.696.352-.682.971-1.024.619-.341 1.44-.341zm.01 1.13q-.469 0-.767.3-.299.298-.352.927h2.23q-.012-.522-.289-.874-.267-.352-.821-.352zM72.493 11.394 70.275 5.57h1.664l1.12 3.317q.096.299.15.619.052.32.074.576h.042q.032-.576.235-1.195l1.12-3.317h1.664l-2.219 5.824zM77.976 3.287q.352 0 .608.17.256.16.256.609 0 .437-.256.608-.256.17-.608.17-.363 0-.619-.17-.245-.171-.245-.608 0-.448.245-.608.256-.171.62-.171zm.79 2.283v5.824h-1.59V5.57zM82.83 5.463q1.205 0 1.909.693.704.683.704 1.952v.768h-3.755q.021.672.395 1.056.384.384 1.056.384.554 0 1.013-.106.47-.118.96-.352v1.226q-.437.214-.907.31-.469.106-1.14.106-.876 0-1.548-.32-.672-.33-1.056-.981-.384-.661-.384-1.675 0-1.013.342-1.696.352-.682.97-1.024.62-.341 1.44-.341zm.01 1.13q-.47 0-.768.3-.299.298-.352.927h2.23q-.011-.522-.289-.874-.266-.352-.82-.352zM91.31 11.394l-.449-2.038q-.042-.181-.128-.533-.074-.363-.17-.768-.096-.416-.182-.757-.085-.352-.117-.512h-.043q-.032.16-.117.512-.075.341-.17.757l-.182.768q-.085.363-.128.555l-.47 2.016h-1.706L85.795 5.57h1.578l.672 2.581q.075.277.128.65.064.363.107.715l.085.544h.043q.01-.149.043-.394.032-.256.074-.523.054-.267.086-.48.042-.213.064-.299l.714-2.794h1.75l.682 2.794q.032.15.096.48.064.331.107.672.043.342.053.544h.043q.021-.181.075-.522.053-.352.117-.726.075-.384.15-.661l.693-2.581h1.557l-1.675 5.824zM99.715 9.666q0 .885-.63 1.365-.618.47-1.856.47-.608 0-1.045-.086-.437-.075-.875-.256V9.847q.47.213 1.014.352.544.139.96.139.458 0 .661-.139t.203-.363q0-.149-.086-.266-.074-.118-.34-.267-.268-.15-.833-.384-.555-.235-.907-.459-.34-.234-.512-.554-.17-.331-.17-.822 0-.81.63-1.216.628-.405 1.674-.405.544 0 1.034.107.491.106 1.014.352l-.48 1.141q-.427-.181-.81-.299-.385-.128-.78-.128-.704 0-.704.384 0 .139.086.256.096.107.352.235.266.128.778.341.502.203.864.427.363.213.555.544.203.33.203.843zM109.016 8.471q0 1.45-.768 2.24-.757.79-2.07.79-.81 0-1.45-.353-.63-.352-.992-1.024-.362-.682-.362-1.653 0-1.45.757-2.23.757-.778 2.08-.778.821 0 1.45.352.63.352.993 1.024.362.672.362 1.632zm-4.021 0q0 .864.277 1.312.288.437.928.437.63 0 .907-.437.288-.448.288-1.312 0-.864-.288-1.29-.277-.438-.917-.438-.63 0-.918.437-.277.427-.277 1.291zM113.635 5.463q.939 0 1.504.512.565.501.565 1.621v3.798h-1.59V7.99q0-.63-.223-.939-.224-.32-.715-.32-.725 0-.992.502-.266.49-.266 1.418v2.742h-1.59V5.57h1.216l.214.746h.085q.277-.448.757-.65.49-.203 1.035-.203z" style="font-weight:700;-inkscape-font-specification:'sans-serif Bold'"/></g><path style="fill:#f4c20d;fill-opacity:1;stroke-width:1.00157" d="m12.632 44.93 1.542 3.124 3.448.5-2.495 2.433.59 3.434-3.085-1.621-3.084 1.621.589-3.434-2.495-2.432 3.448-.501z"/><path style="fill:#f4c20d;fill-opacity:1;stroke-width:1.00157" d="m11.251 44.831 1.888 3.826 4.222.613-3.055 2.978.721 4.205-3.776-1.985-3.776 1.985.721-4.205-3.054-2.978 4.221-.613z" transform="matrix(.81679 0 0 .81679 13.423 8.311)"/><path style="fill:#f4c20d;fill-opacity:1;stroke-width:1.00157" d="m11.251 44.831 1.888 3.826 4.222.613-3.055 2.978.721 4.205-3.776-1.985-3.776 1.985.721-4.205-3.054-2.978 4.221-.613z" transform="matrix(.81679 0 0 .81679 23.403 8.311)"/><path style="fill:#f4c20d;fill-opacity:1;stroke-width:1.00157" d="m11.251 44.831 1.888 3.826 4.222.613-3.055 2.978.721 4.205-3.776-1.985-3.776 1.985.721-4.205-3.054-2.978 4.221-.613z" transform="matrix(.81679 0 0 .81679 33.384 8.311)"/><path style="fill:#f4c20d;fill-opacity:1;stroke-width:1.00157" d="m11.251 44.831 1.888 3.826 4.222.613-3.055 2.978.721 4.205-3.776-1.985-3.776 1.985.721-4.205-3.054-2.978 4.221-.613z" transform="matrix(.81679 0 0 .81679 43.365 8.311)"/></svg>