<svg height="50" width="110" xmlns:xlink="http://www.w3.org/1999/xlink" xmlns="http://www.w3.org/2000/svg"><path d="M26.453 23.205H13.9v3.723h8.903c-.441 5.21-4.786 7.447-8.888 7.447a9.786 9.78 0 0 1-9.828-9.911c0-5.635 4.365-9.974 9.84-9.974 4.223 0 6.711 2.69 6.711 2.69l2.607-2.699s-3.349-3.724-9.455-3.724C6.015 10.757 0 17.315 0 24.397c0 6.942 5.658 13.71 13.987 13.71 7.326 0 12.69-5.016 12.69-12.433 0-1.565-.228-2.469-.228-2.469z" fill="#4885ed" style="stroke-width:1.00232"/><use xlink:href="#a" fill="#db3236" transform="matrix(1.00264 0 0 1.002 -6.01 -3.294)"/><use xlink:href="#a" x="19.181" fill="#f4c20d" transform="matrix(1.00264 0 0 1.002 -6.01 -3.294)"/><path d="M74.831 20.52c-4.728 0-8.444 4.137-8.444 8.783 0 5.29 4.308 8.8 8.362 8.8 2.507 0 3.84-.996 4.813-2.137v1.733c0 3.033-1.843 4.85-4.625 4.85-2.687 0-4.034-1.997-4.511-3.13l-3.381 1.404C68.244 43.358 70.658 46 74.965 46c4.713 0 8.284-2.959 8.284-9.165V21.047h-3.673v1.49c-1.133-1.223-2.685-2.018-4.743-2.018zm.341 3.446c2.318 0 4.698 1.978 4.698 5.356 0 3.434-2.376 5.325-4.75 5.325-2.52 0-4.865-2.044-4.865-5.293 0-3.375 2.437-5.39 4.917-5.39z" fill="#4885ed" style="stroke-width:1.00232"/><path d="M99.669 20.498c-4.46 0-8.205 3.547-8.205 8.778 0 5.537 4.174 8.82 8.623 8.82 3.721 0 6.016-2.034 7.37-3.858l-3.042-2.022c-.789 1.223-2.108 2.42-4.31 2.42-2.472 0-3.609-1.352-4.314-2.665l11.794-4.89-.601-1.433c-1.14-2.805-3.797-5.15-7.314-5.15zm.153 3.38c1.607 0 2.763.854 3.255 1.879l-7.877 3.29c-.341-2.548 2.075-5.168 4.612-5.168z" fill="#db3236" style="stroke-width:1.00232"/><path d="M85.832 37.575h3.874V11.666h-3.874z" fill="#3cba54" style="stroke-width:1.00232"/><defs><path id="a" d="M42.634 23.755c-5.138 0-8.82 4.017-8.82 8.7 0 4.754 3.57 8.845 8.88 8.845 4.806 0 8.743-3.673 8.743-8.743 0-5.8-4.58-8.803-8.803-8.803zm.05 3.446c2.526 0 4.92 2.043 4.92 5.334 0 3.22-2.384 5.322-4.932 5.322-2.8 0-5-2.242-5-5.348 0-3.04 2.18-5.308 5.02-5.308z"/></defs><g aria-label="user reviews on" style="font-size:10.6667px;line-height:1.25"><path d="M39.501 5.57v5.824h-1.216l-.213-.747h-.085q-.278.448-.768.65-.48.203-1.024.203-.939 0-1.504-.501-.566-.512-.566-1.632V5.57h1.59v3.402q0 .63.224.95.224.309.714.309.726 0 .992-.49.267-.502.267-1.43V5.57zM45.23 9.666q0 .885-.63 1.365-.619.47-1.856.47-.608 0-1.045-.086-.438-.075-.875-.256V9.847q.47.213 1.013.352.544.139.96.139.459 0 .662-.139.202-.139.202-.363 0-.149-.085-.266-.075-.118-.341-.267-.267-.15-.832-.384-.555-.235-.907-.459-.341-.234-.512-.554-.17-.331-.17-.822 0-.81.629-1.216.629-.405 1.674-.405.544 0 1.035.107.49.106 1.013.352l-.48 1.141q-.426-.181-.81-.299-.384-.128-.779-.128-.704 0-.704.384 0 .139.085.256.096.107.352.235.267.128.779.341.501.203.864.427.363.213.555.544.202.33.202.843zM48.867 5.463q1.205 0 1.909.693.704.683.704 1.952v.768h-3.755q.022.672.395 1.056.384.384 1.056.384.555 0 1.013-.106.47-.118.96-.352v1.226q-.437.214-.906.31-.47.106-1.142.106-.874 0-1.546-.32-.672-.33-1.056-.981-.384-.661-.384-1.675 0-1.013.341-1.696.352-.682.97-1.024.62-.341 1.44-.341zm.01 1.13q-.469 0-.768.3-.298.298-.352.927h2.23q-.011-.522-.288-.874-.267-.352-.822-.352zM56.024 5.463q.117 0 .277.01.16.011.256.033l-.117 1.493q-.085-.021-.224-.032-.139-.021-.245-.021-.406 0-.779.149-.373.139-.608.459-.224.32-.224.874v2.966h-1.59V5.57h1.206l.235.981h.074q.256-.448.704-.768.448-.32 1.035-.32zM63.64 5.463q.117 0 .277.01.16.011.256.033l-.117 1.493q-.085-.021-.224-.032-.139-.021-.245-.021-.406 0-.779.149-.373.139-.608.459-.224.32-.224.874v2.966h-1.59V5.57h1.206l.235.981h.074q.256-.448.704-.768.448-.32 1.035-.32zM67.416 5.463q1.205 0 1.91.693.703.683.703 1.952v.768h-3.754q.021.672.394 1.056.384.384 1.056.384.555 0 1.014-.106.47-.118.96-.352v1.226q-.438.214-.907.31-.47.106-1.141.106-.875 0-1.547-.32-.672-.33-1.056-.981-.384-.661-.384-1.675 0-1.013.341-1.696.352-.682.971-1.024.619-.341 1.44-.341zm.01 1.13q-.469 0-.767.3-.299.298-.352.927h2.23q-.012-.522-.289-.874-.267-.352-.821-.352zM72.493 11.394 70.275 5.57h1.664l1.12 3.317q.096.299.15.619.052.32.074.576h.042q.032-.576.235-1.195l1.12-3.317h1.664l-2.219 5.824zM77.976 3.287q.352 0 .608.17.256.16.256.609 0 .437-.256.608-.256.17-.608.17-.363 0-.619-.17-.245-.171-.245-.608 0-.448.245-.608.256-.171.62-.171zm.79 2.283v5.824h-1.59V5.57zM82.83 5.463q1.205 0 1.909.693.704.683.704 1.952v.768h-3.755q.021.672.395 1.056.384.384 1.056.384.554 0 1.013-.106.47-.118.96-.352v1.226q-.437.214-.907.31-.469.106-1.14.106-.876 0-1.548-.32-.672-.33-1.056-.981-.384-.661-.384-1.675 0-1.013.342-1.696.352-.682.97-1.024.62-.341 1.44-.341zm.01 1.13q-.47 0-.768.3-.299.298-.352.927h2.23q-.011-.522-.289-.874-.266-.352-.82-.352zM91.31 11.394l-.449-2.038q-.042-.181-.128-.533-.074-.363-.17-.768-.096-.416-.182-.757-.085-.352-.117-.512h-.043q-.032.16-.117.512-.075.341-.17.757l-.182.768q-.085.363-.128.555l-.47 2.016h-1.706L85.795 5.57h1.578l.672 2.581q.075.277.128.65.064.363.107.715l.085.544h.043q.01-.149.043-.394.032-.256.074-.523.054-.267.086-.48.042-.213.064-.299l.714-2.794h1.75l.682 2.794q.032.15.096.48.064.331.107.672.043.342.053.544h.043q.021-.181.075-.522.053-.352.117-.726.075-.384.15-.661l.693-2.581h1.557l-1.675 5.824zM99.715 9.666q0 .885-.63 1.365-.618.47-1.856.47-.608 0-1.045-.086-.437-.075-.875-.256V9.847q.47.213 1.014.352.544.139.96.139.458 0 .661-.139t.203-.363q0-.149-.086-.266-.074-.118-.34-.267-.268-.15-.833-.384-.555-.235-.907-.459-.34-.234-.512-.554-.17-.331-.17-.822 0-.81.63-1.216.628-.405 1.674-.405.544 0 1.034.107.491.106 1.014.352l-.48 1.141q-.427-.181-.81-.299-.385-.128-.78-.128-.704 0-.704.384 0 .139.086.256.096.107.352.235.266.128.778.341.502.203.864.427.363.213.555.544.203.33.203.843zM109.016 8.471q0 1.45-.768 2.24-.757.79-2.07.79-.81 0-1.45-.353-.63-.352-.992-1.024-.362-.682-.362-1.653 0-1.45.757-2.23.757-.778 2.08-.778.821 0 1.45.352.63.352.993 1.024.362.672.362 1.632zm-4.021 0q0 .864.277 1.312.288.437.928.437.63 0 .907-.437.288-.448.288-1.312 0-.864-.288-1.29-.277-.438-.917-.438-.63 0-.918.437-.277.427-.277 1.291zM113.635 5.463q.939 0 1.504.512.565.501.565 1.621v3.798h-1.59V7.99q0-.63-.223-.939-.224-.32-.715-.32-.725 0-.992.502-.266.49-.266 1.418v2.742h-1.59V5.57h1.216l.214.746h.085q.277-.448.757-.65.49-.203 1.035-.203z" style="font-weight:700;-inkscape-font-specification:'sans-serif Bold'" transform="matrix(1.00264 0 0 1.002 -6.01 -3.294)"/></g></svg>