<svg version="1.1" x="0" y="0" width="120" height="55" id="svg62" xmlns:xlink="http://www.w3.org/1999/xlink" xmlns="http://www.w3.org/2000/svg"><style type="text/css" id="style2">.st1,.st2{fill:#405c77}.st2{clip-path:url(#SVGID_12_)}.st4{font-family:sans-serif;font-size:10px;font-weight:700}.st15,.st4{fill:#405c77}</style><g id="bg-rect" transform="matrix(1.00486 0 0 1.01194 -40.486 -4.937)"><g id="Logo"><g id="g14"><defs id="defs7"><path id="SVGID_7_" d="M42.241 4.879h115.514v30H42.241z"/></defs><clipPath id="SVGID_8_"><use xlink:href="#SVGID_7_" style="overflow:visible" id="use9" x="0" y="0" width="100%" height="100%"/></clipPath><path d="M49.023 18.601c-.03-.207.059-.325.088-.383a6.79 6.79 0 0 0 1.09.088c.854 0 1.444-.148 2.063-.442 1.326-.708 1.856-2.004 1.856-3.654 0-2.741-1.473-4.509-4.627-4.509-.265 0-1.149.029-1.326.177-.088.059-.206.235-.236.413-.059.677-.088 1.562-.088 7.043 0 4.597.03 5.776.088 6.719.089.707.236 1.001 1.032 1.237.501.118 1.149.207 2.034.294.147.178.088 1.033-.059 1.18-.943 0-3.242-.089-4.421-.089-1.385 0-3.448.089-4.097.089-.147-.147-.147-1.001-.029-1.149.678-.088 1.326-.147 1.709-.265.767-.207.796-.796.855-1.651.029-1.061.059-3.978.059-6.335 0-4.48 0-5.187-.03-6.16-.059-1.061-.265-1.296-1.208-1.474a11.268 11.268 0 0 0-1.474-.236c-.118-.206-.059-1.002.088-1.149.383 0 2.21.089 3.625.089 2.004 0 3.389-.03 5.216-.03 1.062 0 2.859.177 4.067 1.15 1.031.825 1.886 2.151 1.886 4.126 0 2.77-1.739 4.479-3.242 5.216-1.12.59-2.328.737-3.242.737-.531 0-.884-.029-1.268-.147-.174-.119-.38-.678-.409-.885z" clip-path="url(#SVGID_8_)" id="path12" style="clip-path:url(#SVGID_8_);fill:#405c77"/></g><path class="st1" d="M58.751 25.584c.589-.087.943-.146 1.296-.294.354-.147.472-.472.501-.795.118-.737.147-2.711.147-7.662 0-2.151 0-5.511-.059-6.484-.03-.236-.059-.914-.472-1.002-.294-.088-.972-.176-1.798-.294-.147-.088-.147-.854.059-.973 1.621-.176 3.772-.677 4.804-1.12.088.03.266.295.266.383-.207.561-.266.884-.266 1.945-.029 1.474-.029 4.951-.059 7.545 0 4.509.03 6.425.059 7.22.03.707.088 1.12.708 1.267.413.119.501.178 1.267.265.088.207.059.973-.147 1.18-.678 0-1.474-.089-3.301-.089-1.179 0-2.652.089-3.035.089-.089-.179-.147-.945.03-1.181z" id="path16"/><path class="st1" d="M73.251 20.928c-.825.325-2.711.884-3.389 1.269-.147.059-.354.618-.354.971 0 1.091.766 1.916 2.063 1.916.354 0 1.031-.176 1.415-.471.265-.177.324-.383.383-.736.059-.384.059-2.27.059-2.8 0-.031-.088-.178-.177-.149zm-.147-3.712c-.471-.737-1.385-1.091-2.181-1.091s-1.238.207-1.326.295c-.354.295-.825 1.297-1.238 2.122-.117.148-1.178-.353-1.119-.618.117-.501.589-1.857.825-2.034 1.268-.825 3.242-1.591 4.008-1.591 1.385 0 2.446.648 3.094 1.621.56.914.737 1.798.737 2.976 0 1.503-.118 3.802-.118 5.039 0 .679.265 1.091 1.149 1.091.442 0 .678-.058 1.061-.147.029.147-.03 1.031-.147 1.149-.708.708-1.828 1.002-2.564 1.002-.914 0-1.444-.412-1.621-.855-.118-.176-.177-.441-.235-.648 0-.029-.118-.059-.147-.029-1.68 1.031-2.771 1.532-3.684 1.532-.56 0-1.179-.354-1.68-.826-.648-.677-1.031-1.621-1.031-2.652 0-.825.56-1.769.678-1.886 1.12-.56 4.45-1.267 5.659-1.886.059-.029.177-.206.207-.294.059-.176.059-.442.059-.501-.003-.561-.033-1.21-.386-1.769z" id="path18"/><path class="st1" d="M81.887 18.306c0 1.738.766 3.595 2.8 3.595.383 0 1.002-.177 1.297-.501.442-.412.795-1.296.795-2.357 0-1.738-.707-3.419-2.741-3.419-1.237 0-2.151.973-2.151 2.682zm7.073 11.346c0-.884-.412-1.563-1.444-1.946-.795-.294-2.122-.441-3.654-.441-.501 0-.854.147-1.061.265-1.09.708-1.532 1.385-1.532 2.122 0 .707.265 1.296.884 1.827.825.708 1.886.944 3.065.944 2.623 0 3.742-1.445 3.742-2.771zm-1.149-14.706c.472.176.943.265 1.65.265 1.002 0 1.415-.324 1.798-.708.118-.029.472.207.501.265 0 .413-.412 1.444-.708 1.798-.235.265-.5.471-1.149.471h-.678c-.03 0-.089.06-.089.089.059.236.147.796.147 1.002 0 2.122-.795 3.124-1.798 3.89a6.088 6.088 0 0 1-3.094 1.208c-.059 0-.648.059-.708.059-.206.059-.648.295-.648.678 0 .53.501.795 1.268.854 1.562.118 3.919.236 4.951.59 1.12.412 2.004 1.445 2.004 2.917 0 1.886-1.296 3.802-3.713 4.981a7.94 7.94 0 0 1-3.507.795c-1.503 0-2.711-.294-3.772-1.12-.943-.737-1.415-1.856-1.415-2.682 0-.265.118-1.061.236-1.209.324-.412 1.385-1.208 2.741-2.151.029 0 .029-.059 0-.059-1.149-.442-1.622-1.179-1.769-1.739-.029-.176.147-.53.177-.648.442-.295 1.474-.854 1.916-1.237.03-.03.03-.119-.029-.147-1.562-.531-2.771-1.739-2.771-4.126 0-1.238.531-2.535 1.709-3.389.737-.59 2.652-1.327 3.861-1.296 1.239.03 1.946.295 2.889.649z" id="path20"/><path class="st1" d="M102.775 24.877c.752.57 1.818.811 2.878.784 1.268-.031 3.048-.781 2.993-3.02-.045-1.826-1.182-2.595-3.96-4.061-2.865-1.494-4.666-2.835-4.732-5.604-.079-3.269 2.528-5.162 5.857-5.24 2.238-.056 3.516.328 4.815.443-.183.978-.313 2.897-.397 4.343-.083.208-.996.231-1.146.058-.215-1.558-.475-2.494-1.163-2.979-.72-.483-1.665-.608-2.49-.589-2.005.049-2.938 1.633-2.907 2.899.04 1.679.793 2.37 2.109 3.164 1.228.735 2.894 1.404 3.969 1.996 1.673.933 2.822 2.144 2.874 4.264.067 2.829-2.282 5.626-6.671 5.731-1.886.047-3.728-.56-4.501-.835-.272-.345-.97-3.6-1.086-4.689.052-.267 1.049-.526 1.228-.412.603 1.755 1.251 3.006 2.33 3.747z" id="path22"/><path class="st1" d="M124.447 27.029c-1.944 0-3.448-.737-4.449-2.122-.767-1.06-1.18-2.505-1.18-4.037 0-2.269 1.062-4.126 3.095-5.334 1.415-.884 3.035-1.238 3.831-1.238 1.268 0 2.063.265 2.622.53.531.236.767.501.914.795.03.118 0 .414-.059.561-.207.53-.825 1.267-1.12 1.385-.059.029-.236.059-.294.029-.736-.677-1.887-1.68-3.418-1.68-2.241 0-3.066 1.945-3.066 3.86 0 1.267.354 2.623 1.149 3.536.796.973 1.886 1.444 3.301 1.444 1.062 0 2.21-.294 3.478-1.444.06.03.206.148.206.295 0 .323-.117 1.002-.206 1.12-1.355 1.71-3.507 2.3-4.804 2.3z" id="path24"/><g id="g36"><defs id="defs27"><path id="SVGID_9_" d="M42.241 4.879h115.514v30H42.241z"/></defs><clipPath id="SVGID_10_"><use xlink:href="#SVGID_9_" style="overflow:visible" id="use29" x="0" y="0" width="100%" height="100%"/></clipPath><path class="st15" d="M137.681 20.928c-.824.325-2.711.884-3.389 1.269-.147.059-.354.618-.354.971 0 1.091.766 1.916 2.063 1.916.354 0 1.03-.176 1.414-.471.265-.177.324-.383.383-.736.06-.384.06-2.27.06-2.8 0-.031-.088-.178-.177-.149zm-.148-3.712c-.471-.737-1.385-1.091-2.18-1.091-.796 0-1.238.207-1.327.295-.353.295-.825 1.297-1.237 2.122-.117.148-1.18-.353-1.12-.618.118-.501.589-1.857.825-2.034 1.268-.825 3.242-1.591 4.008-1.591 1.386 0 2.446.648 3.095 1.621.561.914.737 1.798.737 2.976 0 1.503-.118 3.802-.118 5.039 0 .679.266 1.091 1.149 1.091.441 0 .678-.058 1.061-.147.029.147-.029 1.031-.146 1.149-.708.708-1.827 1.002-2.564 1.002-.915 0-1.444-.412-1.621-.855-.117-.176-.177-.441-.235-.648 0-.029-.118-.059-.147-.029-1.681 1.031-2.77 1.532-3.685 1.532-.56 0-1.178-.354-1.68-.826-.648-.677-1.031-1.621-1.031-2.652 0-.825.56-1.769.678-1.886 1.119-.56 4.451-1.267 5.658-1.886.06-.029.178-.206.207-.294.059-.176.059-.442.059-.501-.002-.561-.031-1.21-.386-1.769z" id="path32"/><path class="st15" d="M144.578 25.379c.413-.089.619-.412.649-.914.058-.825.058-2.918.058-4.804v-2.122c-.117-.412-.648-.824-1.679-1.296-.06-.236.059-.795.206-.884 1.208-.118 3.123-.707 3.83-1.091.061.031.179.148.179.236 0 .148-.03 1.179-.03 1.65 0 .06.147.06.177.031 1.268-1.091 2.8-1.886 3.949-1.886 1.297 0 2.299.589 3.006 1.591.59.884.825 2.122.825 3.536 0 1.739 0 4.391.059 5.306 0 .087.118.353.207.412.56.265 1.031.354 1.68.441.118.207.06.973-.118 1.18-.412 0-1.443-.089-3.064-.089-1.297 0-2.181.089-2.947.089-.117-.178-.177-1.001 0-1.18.56-.058 1.032-.146 1.208-.235.384-.118.472-.382.472-1.444 0-1.944.029-4.185-.088-5.304-.059-.501-.267-1.179-.825-1.65-.413-.354-.973-.619-1.798-.619-.854 0-1.827.354-2.417.884-.177.147-.324.412-.324.973 0 2.004 0 4.95.06 6.335.028.53.146.766.618.884.354.089.708.147 1.209.176.116.178.059.973-.118 1.18-.442 0-1.326-.089-3.035-.089-1.239 0-2.741.089-3.036.089-.146-.178-.146-1.031 0-1.18a8.952 8.952 0 0 0 1.087-.206z" id="path34"/></g><path class="st1" d="M116.244 27.915a.185.185 0 0 1-.122-.042l-.001-.013-.166-.14-1.391-1.256-.009-.183.766-.849.179-.009 1.554 1.468-.002.052h.011c.183 0-.181.545-.196.563l-.191.175c-.112.124-.285.234-.432.234z" id="path38"/><path class="st1" d="M123.118 34.879c-.57 0-1.23-.343-1.96-1.021l-4.702-4.781c-.455-.422-.572-.85-.591-1.133-.022-.379.117-.678.257-.832l.135-.147c.146-.159.438-.331.829-.331.273 0 .694.087 1.143.503l5.106 4.317c1.691 1.569 1.159 2.526.852 2.864l-.135.147c-.171.19-.472.414-.934.414z" id="path40"/><path class="st1" d="M115.553 27.712c-.205 0-.469-.235-.52-.282l.023-.207c.005-.003.549-.317.783-.597.238-.284.464-.781.466-.786l.21-.034c.093.101.305.353.305.514 0 .194-1.019 1.392-1.267 1.392z" id="path42"/><g id="g54"><defs id="defs45"><path id="SVGID_11_" d="M42.241 4.879h115.514v30H42.241z"/></defs><clipPath id="SVGID_12_"><use xlink:href="#SVGID_11_" style="overflow:visible" id="use47" x="0" y="0" width="100%" height="100%"/></clipPath><path class="st2" d="M115.378 27.539a.693.693 0 0 1-.476-.179l-.628-.573c-.312-.285-.303-.811.021-1.173l.335-.374a.922.922 0 0 1 .678-.32c.183 0 .347.063.475.179l.628.573c.313.285.302.811-.021 1.173l-.335.375a.923.923 0 0 1-.677.319z" clip-path="url(#SVGID_12_)" id="path50"/><path class="st2" d="M114.189 24.779c-4.108 4.834-11.354 5.425-16.188 1.318-4.835-4.105-5.426-11.352-1.319-16.186s11.354-5.426 16.188-1.32 5.424 11.354 1.319 16.188zm-.683-16.936c-5.248-4.456-13.115-3.815-17.572 1.432-4.456 5.249-3.816 13.112 1.431 17.573 5.246 4.455 13.114 3.813 17.571-1.433 4.46-5.248 3.817-13.116-1.43-17.572z" clip-path="url(#SVGID_12_)" id="path52"/></g></g></g><g id="text-container" transform="matrix(1.00486 0 0 1.01194 -.291 9.603)"><text id="banner-text" fill="#fff" x="50%" y="66%" alignment-baseline="middle" text-anchor="middle"><tspan x="50%" class="st4" id="text-line-1">PROFESSIONAL</tspan><tspan x="50%" y="81%" class="st4" id="textd-line-2">PLAGIARISM DETECTION</tspan></text></g></svg>