<svg xml:space="preserve" width="600" height="118" xmlns="http://www.w3.org/2000/svg"><path d="M82.014 41.28c0 22.855-18.403 41.38-41.007 41.38S0 64.135 0 41.28C0 18.425 18.403 0 41.007 0s41.007 18.526 41.007 41.28z" style="stroke-width:1.00349;fill:#d9c594"/><path d="m57.41 20.036-23.404 23.56-9.402-9.465-9.401 9.465 18.803 19.029L66.81 29.6z" style="stroke-width:1.00349;fill:#fff"/><path d="M148.825 49.737c-1.9 1.712-4.901 2.316-9.502 2.316H121.62v19.029h-13.002V14.9h30.705c4.501 0 7.601.604 9.502 2.215 2.5 2.316 4.8 5.94 4.8 16.31 0 10.37-2.3 14.096-4.8 16.311zm-14.603-7.853c2.9 0 3.801-.201 4.401-.604.9-.806 1.6-2.215 1.6-7.652s-.8-6.846-1.6-7.551c-.6-.504-1.4-.705-4.4-.705H121.62v16.613zm23.804 29.299v-44.1h12.202v6.746c4.501-4.732 6.902-6.846 10.402-6.846h4.7v12.082h-5.7c-3.3 0-5.901.302-9.402 1.812v30.306h-12.202zm33.906-2.719c-2.9-2.92-4-6.846-4-19.33 0-12.486 1.1-16.412 4-19.433 1.8-1.913 4.2-2.617 8.701-2.617h14.903c4.5 0 6.801.704 8.701 2.617 2.9 3.02 4.001 6.847 4.001 19.432 0 12.485-1.1 16.411-4 19.331-1.9 2.014-4.201 2.719-8.702 2.719h-14.903c-4.5 0-6.8-.705-8.701-2.719zm9.102-7.752c.5.604 1.1.805 3.2.805h7.601c2.1 0 2.7-.201 3.2-.805.6-.604 1.001-2.115 1.001-11.579s-.4-10.874-1-11.578c-.5-.604-1.1-.705-3.2-.705h-7.602c-2.1 0-2.7.201-3.2.705-.6.704-1 2.215-1 11.578 0 9.464.4 10.874 1 11.579zm58.61 7.752c-.8 2.316-1.701 2.92-4.101 2.92h-8.002c-2.3 0-3.3-.604-4.1-2.92l-13.903-41.38h13.002l8.902 31.312h.9l8.802-31.312h12.402zm27.204-16.512c.1 6.947.6 8.86 1 9.364.6.604 1.8.805 3.9.805h7.402c2.5 0 3.1-.201 3.6-.805.4-.504.6-1.712.6-4.833h11.202c-.1 6.544-.8 9.968-2.9 12.082-1.4 1.309-3.1 2.517-7.801 2.517h-16.203c-4.5 0-6.801-.705-8.702-2.719-2.9-2.92-4-6.343-4-19.33 0-12.989 1.1-16.412 4-19.432 1.8-1.913 4.201-2.618 8.702-2.618h14.802c4.501 0 6.902.705 8.702 2.618 2.9 2.92 3.5 6.343 3.5 19.029v1.41c0 1.308-.3 1.812-1.8 1.812 0 .1-26.004.1-26.004.1zm0-6.947h16.203c0-5.94-.4-7.551-1-8.155-.5-.504-1.2-.705-3.701-.705h-6.601c-2.1 0-3.3.201-3.901.806-.5.604-.9 1.912-1 8.054zm34.005 26.178v-44.1h12.203v5.84c5.7-5.135 7.4-5.94 11.501-5.94h5.301c3.7 0 6.101.805 7.802 2.517 1.8 1.812 2.5 4.128 2.5 10.572v31.11h-12.202v-29.7c0-1.813-.3-2.92-1-3.625-.7-.705-1.5-1.007-3.7-1.007h-3.301c-2.1 0-4.001.503-6.901 1.812v32.42c0 .1-12.203.1-12.203.1zm100.417 0h-36.806V15.002h37.006v5.437h-30.705v18.827h26.405v5.336h-26.405v21.043h30.505zm2.6 0 15.103-21.849-14.802-21.042h6.9l11.603 16.713h.7l11.402-16.713h6.5l-14.802 21.244 15.103 21.647h-6.901l-12.002-17.217h-.6l-11.702 17.217zm48.709-42.891v5.739c5.6-4.632 7.601-5.74 12.102-5.74h4.9c4.901 0 7.202.806 9.102 2.619 2.5 2.617 3.3 5.94 3.3 18.827 0 12.988-.9 16.31-3.3 18.929-1.8 1.812-4.2 2.617-9.101 2.617h-4.901c-4.401 0-6.501-1.107-12.102-5.739v17.72h-5.901V28.293h5.9zm0 9.061V62.02c4.4 2.82 6.9 3.927 10.602 3.927h5.2c3.401 0 4.801-.604 5.701-1.51 1.6-1.611 2-4.128 2-14.8 0-10.572-.4-13.19-2-14.7-1-1.007-2.3-1.51-5.7-1.51h-5.402c-3.7.1-6.2 1.208-10.401 3.926zm42.107 14.297c.1 9.766.7 11.981 1.9 13.19 1 1.006 2.1 1.208 5.1 1.208h10.603c2.6 0 3.7-.302 4.6-1.208 1-1.007 1.4-2.316 1.4-6.746h5.702c-.2 6.544-.9 8.86-2.9 10.874-1.601 1.61-3.701 2.215-7.702 2.215h-12.302c-4.4 0-6.901-.605-8.702-2.417-2.7-2.718-3.7-6.141-3.7-19.13 0-12.786 1-16.31 3.7-19.028 1.8-1.813 4.301-2.417 8.702-2.417h10.702c4.3 0 6.9.604 8.601 2.316 2.7 2.819 3.7 6.242 3.7 18.727v1.309c0 .604-.2 1.006-1 1.006zm0-4.732h23.604c-.1-8.86-.7-10.974-2-12.183-.9-.906-2-1.308-5.101-1.308h-9.502c-3 0-4.1.302-5.2 1.308-1.201 1.209-1.701 3.222-1.801 12.183zm37.506 24.265V28.292h5.901v6.947c5.2-5.437 7.101-7.048 10.702-7.048h4.9v6.142h-5.4c-3.3 0-5.501.503-10.102 3.725v33.225c-.1-.1-6.001-.1-6.001-.1zm47.708-1.31-3.7 1.008c-1.901.402-3.801.604-5.702.604-2.8 0-4.8-.504-6.3-2.014-1.4-1.41-1.8-3.323-1.8-6.746V33.427h-7.102v-5.135h7.101V17.519h6.001v10.773H600v5.135h-11.702v27.99c0 2.214.2 3.221.9 3.725.5.604 1.4.906 3.7.906h7.002zM352.159 96.153h2.4v21.546h-2.4zm10.902 8.054v7.451c0 3.423.2 4.33 2.2 4.33.9 0 2.8-.202 2.8-.202l.2 1.913s-2.1.302-3.2.302c-3.2 0-4.3-1.208-4.3-5.739v-8.155h-2.201v-2.014h2.2V97.36h2.3v4.732h4.901v2.014c0 .1-4.9.1-4.9.1zm9.101-8.558h2.4l-2 6.847h-1.8zm16.303 8.76s-3.4-.504-5.401-.504c-1.9 0-3.4.504-3.4 2.417 0 1.51.7 1.913 4 2.416 3.9.705 5.3 1.41 5.3 4.43 0 3.625-2.3 4.833-6 4.833-2 0-5.501-.604-5.501-.604l.1-2.014s3.5.504 5.1.504c2.501 0 3.901-.604 3.901-2.719 0-1.61-.8-2.013-4.2-2.517-3.5-.604-5.201-1.208-5.201-4.33 0-3.422 2.8-4.53 5.6-4.53 2.301 0 5.602.604 5.602.604l.1 2.014zm16.603-8.256h5.2l5.901 21.546h-2.4l-1.5-5.538h-9.202l-1.5 5.538h-2.4zm-1.5 13.894h8.1l-3.3-11.78h-1.6zm16.302-14.7h2.3v22.352h-2.3zm7.801 0h2.3v22.352h-2.3zm19.404.806h5.2l5.901 21.546h-2.4l-1.5-5.538h-9.202l-1.5 5.538h-2.4zm-1.4 13.894h8.1l-3.3-11.78h-1.6zm28.604-.403c0 6.243-1.7 8.357-7.301 8.357-1.9 0-5.201-.302-5.201-.302V95.346h2.3v7.552s2.4-1.108 4.601-1.108c4.1 0 5.601 2.316 5.601 7.853zm-2.4 0c0-4.027-.8-5.739-3.5-5.739-2.101 0-4.302.907-4.302.907v10.974s2 .201 2.8.201c4.302 0 5.002-1.913 5.002-6.343zm19.403.101c0 5.638-1.4 8.256-6.601 8.256-5.201 0-6.601-2.618-6.601-8.256 0-5.336 1.7-7.954 6.6-7.954 4.902 0 6.602 2.618 6.602 7.954zm-2.4 0c0-4.33-.9-5.94-4.201-5.94-3.3 0-4.2 1.51-4.2 5.94 0 4.43.6 6.242 4.2 6.242s4.2-1.812 4.2-6.242zm18.703-7.652v15.606h-2.3v-1.108s-2.301 1.41-4.602 1.41c-4.3 0-5.2-2.014-5.2-7.753v-8.155h2.3v8.155c0 4.33.4 5.74 3.3 5.74 2.3 0 4.201-1.108 4.201-1.108v-12.686zm8.201 2.114v7.451c0 3.423.2 4.33 2.2 4.33.9 0 2.8-.202 2.8-.202l.2 1.913s-2.1.302-3.2.302c-3.2 0-4.3-1.208-4.3-5.739v-8.155h-2.2v-2.014h2.2V97.36h2.3v4.732h4.9v2.014h-4.9zm14.002-8.054h15.503v2.114h-6.501v19.432h-2.4V98.266h-6.602zm16.003 5.94h2.3v2.114s2.7-1.912 5.701-2.416v2.416c-2.9.605-5.6 2.115-5.6 2.115v11.478h-2.301v-15.707zm23.404 0v15.606h-2.3v-1.108s-2.3 1.41-4.601 1.41c-4.301 0-5.201-2.014-5.201-7.753v-8.155h2.3v8.155c0 4.33.4 5.74 3.3 5.74 2.301 0 4.201-1.108 4.201-1.108v-12.686zm15.302 2.316s-3.4-.504-5.4-.504c-1.9 0-3.401.504-3.401 2.417 0 1.51.7 1.913 4 2.416 3.901.705 5.302 1.41 5.302 4.43 0 3.625-2.3 4.833-6.001 4.833-2 0-5.501-.604-5.501-.604l.1-2.014s3.5.504 5.1.504c2.5 0 3.901-.604 3.901-2.719 0-1.61-.8-2.013-4.2-2.517-3.501-.604-5.201-1.208-5.201-4.33 0-3.422 2.8-4.53 5.6-4.53 2.3 0 5.601.604 5.601.604zm7.802-.202v7.451c0 3.423.2 4.33 2.2 4.33.9 0 2.8-.202 2.8-.202l.2 1.913s-2.1.302-3.2.302c-3.2 0-4.3-1.208-4.3-5.739v-8.155h-2.201v-2.014h2.2V97.36h2.3v4.732h4.902v2.014z" style="stroke-width:1.00349;fill:#1d1d1d"/></svg>