<?xml version="1.0" encoding="utf-8"?>
<!-- Generator: Adobe Illustrator 25.0.1, SVG Export Plug-In . SVG Version: 6.00 Build 0)  -->
<svg version="1.1"
	 id="svg2" xmlns:cc="http://creativecommons.org/ns#" xmlns:dc="http://purl.org/dc/elements/1.1/" xmlns:inkscape="http://www.inkscape.org/namespaces/inkscape" xmlns:rdf="http://www.w3.org/1999/02/22-rdf-syntax-ns#" xmlns:sodipodi="http://sodipodi.sourceforge.net/DTD/sodipodi-0.dtd" xmlns:svg="http://www.w3.org/2000/svg"
	 xmlns="http://www.w3.org/2000/svg" xmlns:xlink="http://www.w3.org/1999/xlink" x="0px" y="0px" viewBox="0 0 496 85.3"
	 style="enable-background:new 0 0 496 85.3;" xml:space="preserve">
<style type="text/css">
	.st0{fill:#67878E;}
</style>
<sodipodi:namedview  bordercolor="#666666" borderopacity="1" gridtolerance="10" guidetolerance="10" id="namedview4" inkscape:pageopacity="0" inkscape:pageshadow="2" inkscape:window-height="480" inkscape:window-width="640" objecttolerance="10" pagecolor="#ffffff">
	</sodipodi:namedview>
<g id="g10" transform="matrix(1.3333333,0,0,-1.3333333,0,85.333333)" inkscape:groupmode="layer" inkscape:label="ink_ext_XXXXXX">
	<g id="g12" transform="scale(0.1)">
		<path id="path14" class="st0" d="M659.5,364.7c-27.8,21.3-46.3,48.6-55.1,62.6l-52,83.2c-5,25.7-18.4,49.8-38.3,67.6
			c6.7,2.5,12.2,5.2,15.6,7.7c-34,0-67.6,17.3-86.1,17.3c-11.9,0-19.6-7.1-19.6-16.6c0.8-10.5,11.6-21.1,31.5-21.1
			c4.5,0,10.3,0.6,16.6,1.6c10.8-15,19.5-28.6,19.5-48c0-36.4-43.6-64.8-87.6-64.8l-7.3,0.3c-4,9-17.2,24.2-17.2,41.4
			c0,29,18.9,52.6,18.9,81.3c0,17.8-8.7,28.9-12,33.4c5.4,5,11.3,11.2,12.7,15.4c-3.1-1.3-6.8-1.6-12.3-1.6c-21.1,0-38.2,5.5-55,5.5
			c-9.5,0-12.1-3-11.7-8.4c-3.6,1.4-6.9,2.3-10.9,3c-4.9,0.9-10.2,1.4-15.9,1.4c-20.4,0-27.6-8.5-27.6-15.9
			c0-6.2,4.8-17.5,10.4-26.1c7.9,4,17.5,6.7,21.8,6.7c10.8,0,20.4-10.3,25.5-22.5c-7.3-0.9-8.7-1.2-16-1.2
			c-19.9,0-33.3,7.1-36.9,6.5c0-2.8,5.6-10.1,16.7-14.2c14.6-5.3,35.9-8.1,39.6-8.7c0-0.6-3.5-6.6-9.9-7.9
			c-3.5,0.9-37.6,11.6-39.8,10.3c0-7.6,19.8-24.5,37.6-31c-14.8-18.9-33.3-38.3-42.1-67.8l-7.3-0.3c-44,0-87.6,28.4-87.6,64.8
			c0,19.4,8.7,33,19.5,48c6.3-1,12.1-1.6,16.6-1.6c19.9,0,30.7,10.7,31.5,21.1c0,9.4-7.7,16.6-19.6,16.6
			c-18.5,0-52.2-17.3-86.1-17.3c3.4-2.5,8.9-5.2,15.6-7.7c-19.9-17.9-33.2-41.9-38.2-67.6l-52-83.2c-8.8-14-27.2-41.3-55.1-62.6
			c33.7,0,56-0.8,84.4,44.2l26.6,42.7c2-5.5,4.4-10.9,7.3-16.2l-53-84.8c-8.8-14.1-27.1-41.2-55-62.6c33.7,0,56-0.8,84.4,44.2
			l45.6,73.1c3.4-3.6,7-7.2,10.8-10.6L96.7,291.5c-8-12.7-23.5-35.9-47-56.1l-8-6.5c18,0,32.8-0.2,46.9,6.5
			c12.3,5.8,24.2,16.8,37.5,37.7l62.8,100.5c4.1-2.6,8.4-5.1,12.7-7.5L125,243.5l-5.1-7.9c-10-14.9-26.5-36.7-49.9-54.7
			c33.6,0,55.9-0.8,84.4,44.2l6.4,10.3l72.5,116c4.7-1.8,9.4-3.5,14.2-5l-69.3-111l-19.9-31.8c-8.7-13.9-27.3-41.3-55-62.6
			c33.7,0,56-0.8,84.4,44.2l31.3,50.1L285.6,337c2.6-8.2,4.4-15.9,4.4-23.5c0-28.2-10.9-54.4-27.6-77.9
			c-11.6-16.3-26-31.3-41.4-44.7c2.4-1.1,6.6-1.5,10.5-1.5c7.8,0,12.8,0.5,16.3,1.1c-8.8-19.8-27.5-45.4-36.9-58.7
			c-12.3,2.2-30.3,3.9-42,3.9c-12.3,0-13.6-7.2-13.6-13.6c0-11.2,5.2-20.1,11.3-25.1c2.3,5.8,6.9,13.4,31.9,13.3
			c-6.6-7.4-27.4-24.2-27.4-37.7c0-9,9.8-22.4,22.8-22.4c-0.8,2.9-0.7,5.6-0.7,7.5c0,10.9,9.7,23.7,17.9,32.7
			c-0.2-2.6-0.1-2.4-0.1-5.5c0-25.9,2.4-37.8,18.8-37.8c8,0,13.6,4.4,15.6,5.7c-10.7,9.9-11.2,17.6-11.2,32.1l0.1,12.6
			c0,3.3,0,7.7-0.5,10.9c5.9,0.8,8.2,0.8,12.8,0.8c0,0,23.4,1.9,29-10.3c6.3,5.8,15.6,14,15.6,23.1c0,6-2.8,12.7-14.9,12.7
			c-4.6,0-18.9-2.8-30.9-2.8c3.2,7.2,17.6,28.1,30,43.4c1.9-5.9,4.8-12.3,11.3-17.5c0.9,9.8,6.6,40.7,21.9,58.8
			c1.8-12.2,4.2-24.7,4.2-51.2c0-64.3-15.5-111.9-48.4-121c4.3-7.5,13.3-14.1,22.7-14.1c12,0,18.6,13.6,25.2,26.4
			c3.4-9.5,13.1-32.6,22.7-32.6c9.6,0,19.2,23.2,22.7,32.6c6.7-12.8,13.2-26.4,25.2-26.4c9.4,0,18.4,6.6,22.7,14.1
			c-32.8,9.1-48.3,56.6-48.3,121c0,26.5,2.4,39,4.2,51.2c15.3-18.1,21.1-49,22-58.8c6.5,5.2,9.4,11.6,11.3,17.5
			c12.4-15.2,26.8-36.2,30-43.4c-12,0-26.3,2.8-30.9,2.8c-12,0-14.9-6.8-14.9-12.7c0-9.1,9.2-17.3,15.5-23.1
			c5.6,12.2,29,10.3,29,10.3c4.5,0,6.9,0,12.8-0.8c-0.5-3.2-0.6-7.6-0.5-10.9l0.1-12.6c0-14.5-0.5-22.2-11.2-32.1
			c1.9-1.3,7.5-5.7,15.5-5.7c16.4,0,18.8,11.9,18.8,37.8c0,3.1,0.1,2.8-0.1,5.5c8.2-8.9,17.9-21.8,17.9-32.7c0-2,0.1-4.7-0.7-7.5
			c13,0,22.8,13.4,22.8,22.4c0,13.5-20.8,30.3-25.1,37.8c22.7,0,27.3-7.6,29.6-13.4c6.1,5,11.3,13.9,11.3,25.1
			c0,6.4-1.4,13.6-13.7,13.6c-11.8,0-29.7-1.7-42-3.9c-9.5,13.3-28.2,38.9-36.9,58.7c3.5-0.6,8.6-1.1,16.3-1.1
			c3.9,0,8.1,0.4,10.5,1.5c-15.4,13.4-29.8,28.3-41.4,44.6c-16.7,23.5-27.6,49.8-27.6,78c0,7.7,1.8,15.3,7.3,24.1l63.8-102.1
			l31.3-50.1c28.5-45,50.8-44.2,84.4-44.2c-27.7,21.3-46.3,48.7-55,62.6l-19.9,31.8l-69.3,111c4.8,1.6,9.6,3.2,14.2,5l72.5-116
			l6.4-10.3c28.5-45,50.8-44.2,84.4-44.2c-23.4,17.9-40,39.8-50,54.5l-5.1,8.1l-76.6,122.6c4.4,2.4,8.6,4.9,12.7,7.5l62.8-100.5
			c13.2-20.9,25.1-32,37.5-37.7c14.2-6.7,29-6.5,46.9-6.5l-8,6.5c-23.5,20.2-39.1,43.4-47,56.1l-64.4,103.1c3.8,3.4,7.4,7,10.8,10.6
			l45.7-73.1c28.5-45,50.8-44.2,84.4-44.2c-28,21.5-46.2,48.5-55.1,62.6l-53,84.8c2.8,5.3,5.3,10.7,7.3,16.2l26.7-42.7
			C603.5,363.9,625.8,364.7,659.5,364.7z M396.4,182.1c1.8,6.7,3.6,11.7,10.7,11.7c3.6,0,5.3-0.6,7.5-1.4
			c7.6-21.1,36.9-60.7,41.5-66.8c12.6,2.1,30.3,4.3,44.6,4.3c3.3,0,7.9,0.3,7.9-7.7c0-4.7-2-12.8-4.6-15.5
			c-6.3,7.4-17.1,9.7-30.6,9.7c-5.2,0-11.5-1.8-13.9-2.4c17.1-17.3,33.2-31.7,33.2-41.3c0-5.4-5.6-12.5-10.3-14.8
			c0,14.2-14.6,33.7-29,44.6c0-1.9-0.7-9.3-0.7-17.4c0-26.7-2.6-32-12.9-32c-1.9,0-5.1,0.7-6.3,1.4c5.5,6.3,7.9,14.7,7.9,30.6
			c0,4.6-0.1,8.9-0.1,12.6c0,7,0.8,12,1.3,15.9c-3.9,0.6-12.9,1.8-19.4,1.8c-14,0-22.7-1.4-29-7.7c-4.5,3.4-9.6,9.9-9.6,14.4
			c0,6.5,4.4,6.9,8.9,6.9c7.1,0,12.9-2.8,39.7-2.8C428.1,141.3,412.6,162.5,396.4,182.1z M273.1,182.1c-16.1-19.6-31.6-40.9-36.9-56
			c26.8,0,32.7,2.8,39.7,2.8c4.6,0,8.9-0.4,8.9-6.9c0-4.5-5.1-11-9.6-14.4c-6.3,6.3-15,7.7-29,7.7c-6.6,0-15.5-1.3-19.4-1.8
			c0.5-3.9,1.3-8.8,1.3-15.9c0-3.7-0.1-8-0.1-12.6c0-15.9,2.3-24.3,7.9-30.6c-1.2-0.7-4.4-1.4-6.3-1.4c-10.3,0-12.9,5.3-12.9,32
			c0,8.1-0.7,15.5-0.7,17.4c-14.3-10.9-29-30.5-29-44.6c-4.7,2.4-10.2,9.5-10.2,14.8c0,9.6,16.1,23.9,33.2,41.3
			c-2.4,0.6-8.7,2.4-13.9,2.4c-13.4,0-24.3-2.2-30.6-9.7c-2.5,2.7-4.6,10.8-4.6,15.5c0,8.1,4.6,7.7,7.9,7.7c14.3,0,32-2.2,44.6-4.3
			c4.6,6.1,33.9,45.7,41.5,66.8c2.2,0.8,3.9,1.4,7.5,1.4C269.4,193.8,271.2,188.9,273.1,182.1z M267.7,418.5
			c0-6.8,0.4-13.2,1.1-19.3c-63.5,0.4-119.3,51.9-119.3,107.4c0,31.7,23.1,56.8,31.2,63.8l5.8-1.3c-8.6-10.5-23.8-28.2-23.8-51.5
			c0-46.4,49.6-86.7,105.7-86.7C267.9,427,267.7,422.8,267.7,418.5z M340,583.6c0-8.7-3.9-16.6-6.8-23.2
			c-3.2,16.9-16.9,37.4-35.2,37.4c-5.2,0-14-2.6-19-4.8c-1.8,3-6.3,12.8-6.3,17.2c0,4.5,6.9,8.9,20.6,8.9
			C320,619.1,340,607.6,340,583.6z M346.3,591.1c-1,6.2-3.4,11.7-6.9,16.5c0.2,5.6,2.5,11,11.5,6.6c-4.9-5-1.1-13.9-1.1-13.9
			s10,4.7,7.9,11.2C372.5,608,361.9,588.1,346.3,591.1z M520.1,506.6c0-55.1-55.1-106.2-118-107.3c0.7,6.2,1.2,12.6,1.2,19.2
			c0,3.6,0,7.7-0.4,12.5c55.4,0.8,104,40.7,104,86.6c0,23.4-15.2,41-23.8,51.5l5.8,1.3C497,563.4,520.1,538.3,520.1,506.6"/>
		<path id="path16" class="st0" d="M793,93.4h-11.1l23-63.4h8.3l22.7,63.4h-11.1l-15.7-48.7L793,93.4z M841.2,61.5
			c0-9.8,2.7-17.8,8-23.7c5.3-6,12.3-9,20.9-9c5.7,0,10.8,1.4,15.1,4.1c4.4,2.7,7.8,6.6,10.1,11.5c2.4,4.9,3.5,10.4,3.5,16.6v0.8
			c0,9.9-2.7,17.9-8,23.8c-5.3,6-12.3,9-21,9c-5.6,0-10.6-1.3-14.9-4c-4.4-2.7-7.8-6.5-10.2-11.5c-2.4-5-3.7-10.5-3.7-16.8
			L841.2,61.5z M857,79.3c3.3,4.3,7.6,6.4,12.9,6.4c5.5,0,9.9-2.2,13.2-6.5c3.3-4.3,4.9-9.9,4.9-16.9c0-7.8-1.6-13.8-4.9-18.1
			c-3.2-4.3-7.6-6.5-13.1-6.5c-5.5,0-9.8,2.1-13.1,6.4c-3.3,4.3-4.9,9.9-4.9,16.9C852.1,68.9,853.7,75,857,79.3z M912.4,93.4V30
			h10.8v45.2c1.5,3,3.6,5.5,6.2,7.4s5.7,2.8,9.3,2.8c4.3,0,7.5-1.1,9.6-3.3c2.1-2.2,3.1-5.6,3.1-10.1V30h10.8v41.9
			c-0.1,15.1-6.9,22.7-20.3,22.7c-7.8,0-14.1-3-19-9.1l-0.4,8L912.4,93.4z M1058.8,115.3V57.5c0-6.2-1.7-11-5.1-14.4
			c-3.4-3.4-8.2-5.1-14.6-5.1c-6.3,0-11.1,1.7-14.5,5.1c-3.4,3.4-5.1,8.2-5.1,14.4v57.8h-11.1V57.2c0.1-8.8,2.9-15.8,8.4-20.8
			c5.5-5,13-7.6,22.3-7.6l3,0.1c8.6,0.6,15.4,3.5,20.4,8.6s7.6,11.7,7.6,19.7v58H1058.8z M1087,93.4V30h10.8v45.2
			c1.5,3,3.6,5.5,6.2,7.4c2.7,1.9,5.8,2.8,9.3,2.8c4.3,0,7.5-1.1,9.6-3.3c2.1-2.2,3.1-5.6,3.1-10.1V30h10.8v41.9
			c-0.1,15.1-6.9,22.7-20.3,22.7c-7.8,0-14.1-3-19-9.1l-0.3,8L1087,93.4z M1157.3,108.8V93.4h-11.6V85h11.6V45.7
			c0-5.4,1.2-9.6,3.7-12.5c2.5-2.9,6.1-4.4,10.9-4.4c2.7,0,5.5,0.4,8.3,1.2v8.7c-2.2-0.5-3.9-0.7-5.2-0.7c-2.5,0-4.3,0.6-5.4,1.9
			c-1.1,1.3-1.6,3.2-1.6,5.7V85h11.8v8.4h-11.8v15.4L1157.3,108.8z M1240.8,41.1l-6.6,5.2c-2-2.6-4.3-4.6-7-6.2
			c-2.7-1.6-5.9-2.3-9.7-2.3c-5.4,0-9.8,1.9-13.3,5.8c-3.5,3.8-5.3,8.9-5.5,15.1h42.9v4.5c0,10.1-2.3,17.9-6.9,23.3
			s-11,8.1-19.2,8.1c-5,0-9.7-1.4-14-4.2c-4.3-2.8-7.7-6.7-10.1-11.6c-2.4-4.9-3.6-10.6-3.6-16.8v-2c0-9.5,2.7-17,8.1-22.6
			c5.4-5.6,12.4-8.5,21-8.5C1227.5,28.8,1235.4,32.9,1240.8,41.1L1240.8,41.1z M1226.3,81.1c2.7-3,4.1-7.3,4.4-12.8v-0.8H1199
			c0.7,5.7,2.5,10.2,5.5,13.4c3,3.2,6.6,4.8,11,4.8C1220,85.7,1223.6,84.1,1226.3,81.1z M1285.4,93.8c-1.1,0.5-2.7,0.8-4.8,0.8
			c-6.5,0-11.6-2.8-15.1-8.5l-0.2,7.3h-10.6V30h10.8v45c2.5,6.1,7.4,9.1,14.5,9.1c1.9,0,3.7-0.1,5.3-0.4L1285.4,93.8z M1295.7,93.4
			V30h10.8v45.2c1.5,3,3.6,5.5,6.2,7.4c2.7,1.9,5.7,2.8,9.3,2.8c4.3,0,7.5-1.1,9.6-3.3c2.1-2.2,3.1-5.6,3.1-10.1V30h10.8v41.9
			c-0.1,15.1-6.9,22.7-20.3,22.7c-7.8,0-14.1-3-19-9.1l-0.4,8L1295.7,93.4z M1412,41.1l-6.6,5.2c-2-2.6-4.3-4.6-7-6.2
			c-2.7-1.6-5.9-2.3-9.7-2.3c-5.4,0-9.8,1.9-13.3,5.8c-3.5,3.8-5.3,8.9-5.5,15.1h42.9v4.5c0,10.1-2.3,17.9-6.9,23.3
			s-11,8.1-19.2,8.1c-5,0-9.7-1.4-14-4.2c-4.3-2.8-7.7-6.7-10.1-11.6c-2.4-4.9-3.6-10.6-3.6-16.8v-2c0-9.5,2.7-17,8.1-22.6
			c5.4-5.6,12.4-8.5,21-8.5C1398.8,28.8,1406.7,32.9,1412,41.1L1412,41.1z M1397.6,81.1c2.7-3,4.1-7.3,4.4-12.8v-0.8h-31.8
			c0.7,5.7,2.5,10.2,5.5,13.4c3,3.2,6.6,4.8,11,4.8C1391.3,85.7,1394.9,84.1,1397.6,81.1z M1436.9,120H1426V30h10.8v45.2
			c1.5,3,3.6,5.5,6.2,7.4c2.7,1.9,5.7,2.8,9.2,2.8c4.3,0,7.5-1.1,9.6-3.3c2.1-2.2,3.1-5.6,3.1-10.1V30h10.8v41.9
			c-0.1,15.1-6.9,22.7-20.3,22.7c-7.7,0-13.9-2.9-18.8-8.8L1436.9,120z M1492.2,93.4V30h10.8v46.3c2.6,6.1,7.5,9.1,14.6,9.1
			c9,0,13.5-4.6,13.5-13.8V30h10.9v42.1c0.4,4.1,2,7.3,4.6,9.7c2.7,2.4,6,3.6,10,3.6c4.9,0,8.4-1.1,10.4-3.4
			c2.1-2.2,3.1-5.6,3.1-10.2V30h10.8v42.5c-0.2,14.7-7.3,22.1-21.2,22.1c-4.6,0-8.6-0.9-12-2.8c-3.4-1.9-6.1-4.3-8.2-7.4
			c-3.2,6.8-9.2,10.2-18.1,10.2c-7.9,0-14.2-2.7-18.8-8.2l-0.3,7L1492.2,93.4z M1647.6,41.1l-6.6,5.2c-2-2.6-4.3-4.6-7-6.2
			c-2.7-1.6-5.9-2.3-9.7-2.3c-5.4,0-9.8,1.9-13.3,5.8c-3.5,3.8-5.3,8.9-5.5,15.1h42.9v4.5c0,10.1-2.3,17.9-6.9,23.3
			s-11,8.1-19.2,8.1c-5,0-9.7-1.4-14-4.2c-4.3-2.8-7.7-6.7-10.1-11.6c-2.4-4.9-3.6-10.6-3.6-16.8v-2c0-9.5,2.7-17,8.1-22.6
			c5.4-5.6,12.4-8.5,21-8.5C1634.3,28.8,1642.3,32.9,1647.6,41.1L1647.6,41.1z M1633.1,81.1c2.7-3,4.1-7.3,4.5-12.8v-0.8h-31.8
			c0.7,5.7,2.5,10.2,5.5,13.4c3,3.2,6.6,4.8,11,4.8C1626.8,85.7,1630.4,84.1,1633.1,81.1z M1661.6,93.4V30h10.8v45.2
			c1.5,3,3.6,5.5,6.2,7.4c2.7,1.9,5.8,2.8,9.3,2.8c4.3,0,7.5-1.1,9.6-3.3c2.1-2.2,3.1-5.6,3.1-10.1V30h10.8v41.9
			c-0.1,15.1-6.9,22.7-20.3,22.7c-7.8,0-14.1-3-19-9.1l-0.3,8L1661.6,93.4z M1760.2,40.2c-2.5-1.7-5.8-2.5-9.9-2.5
			c-4.4,0-8,1.1-10.8,3.2c-2.7,2.1-4.2,5-4.4,8.6h-10.8c0-3.8,1.1-7.2,3.3-10.5c2.2-3.2,5.3-5.7,9.2-7.5c3.9-1.8,8.4-2.7,13.5-2.7
			c7.2,0,13.1,1.7,17.6,5.1c4.5,3.4,6.8,8,6.8,13.6c0,3.4-0.8,6.3-2.4,8.6c-1.6,2.4-4.1,4.4-7.5,6.1c-3.4,1.7-7.8,3.1-13.2,4.3
			s-9.2,2.5-11.2,3.8s-3.1,3.3-3.1,5.9c0,2.8,1.1,5,3.3,6.7c2.2,1.7,5.3,2.6,9.3,2.6c3.8,0,7-1.1,9.5-3.2s3.8-4.7,3.8-7.7h10.9
			c0,5.8-2.2,10.5-6.7,14.2c-4.5,3.7-10.3,5.6-17.5,5.6c-6.8,0-12.4-1.8-16.8-5.4c-4.4-3.6-6.6-8-6.6-13.2c0-3.1,0.8-5.8,2.3-8.1
			c1.5-2.3,3.9-4.2,7.2-5.9s7.6-3,13.1-4.2c5.5-1.2,9.3-2.6,11.6-4.2c2.2-1.6,3.3-3.9,3.3-6.8C1763.9,44,1762.7,41.8,1760.2,40.2
			L1760.2,40.2z M1785.6,61.4c0-9.7,2.3-17.5,6.9-23.6c4.6-6,10.6-9,17.9-9c7.7,0,13.8,2.7,18.1,8l0.5-6.8h10v90h-10.8V87
			c-4.3,5.1-10.2,7.6-17.6,7.6c-7.5,0-13.5-3-18.1-8.9c-4.6-5.9-6.9-13.7-6.9-23.5V61.4z M1800.9,79.2c3,4.1,7.1,6.2,12.4,6.2
			c6.7,0,11.7-3,14.9-9V47.3c-3.2-6.2-8.2-9.3-15.1-9.3c-5.2,0-9.3,2-12.3,6.1c-3,4.1-4.5,9.7-4.5,16.9
			C1796.4,69,1797.9,75.1,1800.9,79.2L1800.9,79.2z M1905.8,30v0.9c-1.5,3.4-2.2,8.1-2.2,13.9V74c-0.2,6.4-2.3,11.4-6.4,15.1
			c-4.1,3.6-9.9,5.5-17.2,5.5c-4.6,0-8.8-0.9-12.7-2.6c-3.8-1.7-6.9-4.1-9.1-7c-2.2-2.9-3.4-6-3.4-9.2h10.9c0,2.8,1.3,5.1,3.9,7.1
			c2.6,2,5.8,2.9,9.7,2.9c4.4,0,7.8-1.1,10-3.4c2.3-2.2,3.4-5.3,3.4-9.1v-5h-10.6c-9.1,0-16.2-1.8-21.2-5.5c-5-3.7-7.5-8.8-7.5-15.4
			c0-5.4,2-9.9,6-13.4c4-3.5,9.1-5.3,15.4-5.3c7,0,13,2.6,18.1,7.9c0.4-3.2,0.9-5.4,1.5-6.7L1905.8,30z M1867.7,41.1
			c-2.3,1.9-3.4,4.6-3.4,8c0,7.8,6.6,11.7,19.9,11.7h8.5v-13c-1.4-2.8-3.6-5.1-6.6-6.9c-3.1-1.8-6.3-2.6-9.7-2.6
			C1872.9,38.3,1870,39.2,1867.7,41.1z M1924.2,108.8V93.4h-11.5V85h11.5V45.7c0-5.4,1.2-9.6,3.7-12.5c2.5-2.9,6.1-4.4,11-4.4
			c2.7,0,5.5,0.4,8.3,1.2v8.7c-2.2-0.5-3.9-0.7-5.2-0.7c-2.5,0-4.3,0.6-5.4,1.9c-1.1,1.3-1.6,3.2-1.6,5.7V85h11.8v8.4h-11.8v15.4
			H1924.2z M2007.7,41.1l-6.6,5.2c-2-2.6-4.3-4.6-7-6.2c-2.7-1.6-5.9-2.3-9.7-2.3c-5.4,0-9.8,1.9-13.3,5.8
			c-3.5,3.8-5.3,8.9-5.5,15.1h42.9v4.5c0,10.1-2.3,17.9-6.9,23.3s-11,8.1-19.2,8.1c-5,0-9.7-1.4-14-4.2c-4.3-2.8-7.7-6.7-10.1-11.6
			c-2.4-4.9-3.6-10.6-3.6-16.8v-2c0-9.5,2.7-17,8.1-22.6c5.4-5.6,12.4-8.5,21-8.5C1994.4,28.8,2002.3,32.9,2007.7,41.1L2007.7,41.1z
			 M1993.2,81.1c2.7-3,4.1-7.3,4.5-12.8v-0.8h-31.8c0.7,5.7,2.5,10.2,5.5,13.4c3,3.2,6.6,4.8,11,4.8
			C1986.9,85.7,1990.5,84.1,1993.2,81.1z M2021.7,93.4V30h10.8v45.2c1.5,3,3.6,5.5,6.2,7.4c2.7,1.9,5.7,2.8,9.3,2.8
			c4.3,0,7.5-1.1,9.6-3.3s3.1-5.6,3.1-10.1V30h10.8v41.9c-0.1,15.1-6.9,22.7-20.3,22.7c-7.8,0-14.1-3-19-9.1l-0.3,8L2021.7,93.4"/>
		<path id="path18" class="st0" d="M813.5,170c7.7,0.1,14.4,1.7,20.1,5c5.8,3.2,10.2,7.9,13.3,13.9c3.1,6.1,4.7,13.1,4.7,21.2v5.4
			c0,7.9-1.6,14.8-4.7,20.9c-3.1,6.1-7.5,10.7-13.2,14c-5.7,3.3-12.3,4.9-19.7,4.9h-24.1V170H813.5z M814.3,246.1
			c8.4-0.1,14.8-2.8,19.4-8.2c4.5-5.4,6.8-12.9,6.8-22.6v-5c0-10-2.4-17.7-7.2-23c-4.8-5.4-11.6-8.1-20.2-8.1h-11.8v66.9
			L814.3,246.1z M878.3,233.4h-10.8V170h10.8V233.4z M868.1,245.8c1.1-1.2,2.7-1.8,4.8-1.8c2.1,0,3.7,0.6,4.8,1.8
			c1.1,1.2,1.6,2.6,1.6,4.4c0,1.8-0.5,3.2-1.6,4.5c-1.1,1.2-2.7,1.8-4.8,1.8c-2.1,0-3.7-0.6-4.8-1.8c-1.1-1.2-1.6-2.7-1.6-4.5
			S867.1,247,868.1,245.8z M945.1,181.1l-6.6,5.2c-2-2.6-4.3-4.6-7-6.2c-2.7-1.6-5.9-2.3-9.7-2.3c-5.4,0-9.8,1.9-13.3,5.8
			c-3.5,3.8-5.3,8.9-5.5,15.1h43v4.5c0,10.1-2.3,17.9-6.9,23.3c-4.6,5.4-11,8.1-19.2,8.1c-5,0-9.7-1.4-14-4.2
			c-4.3-2.8-7.7-6.7-10.1-11.6c-2.4-4.9-3.6-10.6-3.6-16.8v-2c0-9.5,2.7-17,8.1-22.6c5.4-5.6,12.4-8.5,21-8.5
			C931.9,168.8,939.8,172.9,945.1,181.1z M930.7,221.1c2.7-3,4.1-7.3,4.5-12.8v-0.8h-31.8c0.7,5.7,2.5,10.2,5.5,13.4
			c3,3.2,6.6,4.8,11,4.8C924.4,225.7,928,224.1,930.7,221.1z M1033.7,225.7v7.7h-48v-9h34.5l-35-46.5v-8h50.3v8.8h-37.1
			L1033.7,225.7z M1095.9,181.1l-6.6,5.2c-2-2.6-4.3-4.6-7-6.2c-2.7-1.6-5.9-2.3-9.7-2.3c-5.4,0-9.8,1.9-13.3,5.8
			c-3.5,3.8-5.3,8.9-5.5,15.1h42.9v4.5c0,10.1-2.3,17.9-6.8,23.3c-4.6,5.4-11,8.1-19.2,8.1c-5,0-9.7-1.4-14-4.2
			c-4.3-2.8-7.7-6.7-10.1-11.6c-2.4-4.9-3.6-10.6-3.6-16.8v-2c0-9.5,2.7-17,8.1-22.6c5.4-5.6,12.4-8.5,21-8.5
			C1082.6,168.8,1090.6,172.9,1095.9,181.1L1095.9,181.1z M1081.4,221.1c2.7-3,4.1-7.3,4.4-12.8v-0.8h-31.8
			c0.7,5.7,2.5,10.2,5.5,13.4c3,3.2,6.6,4.8,11,4.8C1075.2,225.7,1078.8,224.1,1081.4,221.1z M1109.9,233.4V170h10.8v45.2
			c1.5,3,3.6,5.5,6.2,7.4c2.7,1.9,5.7,2.8,9.2,2.8c4.3,0,7.5-1.1,9.6-3.3c2.1-2.2,3.1-5.6,3.1-10.1v-42h10.8v41.9
			c-0.1,15.1-6.9,22.7-20.3,22.7c-7.8,0-14.2-3-19-9.1l-0.3,8H1109.9z M1180.2,248.8v-15.4h-11.5V225h11.5v-39.3
			c0-5.4,1.2-9.6,3.7-12.5c2.5-2.9,6.1-4.4,11-4.4c2.7,0,5.5,0.4,8.3,1.2v8.7c-2.2-0.5-3.9-0.7-5.2-0.7c-2.5,0-4.3,0.6-5.4,1.9
			c-1.1,1.3-1.6,3.2-1.6,5.7V225h11.8v8.4H1191v15.4H1180.2z M1245.3,233.8c-1.1,0.5-2.7,0.8-4.8,0.8c-6.5,0-11.6-2.8-15.1-8.5
			l-0.2,7.3h-10.5V170h10.8v45c2.5,6.1,7.4,9.1,14.5,9.1c1.9,0,3.7-0.1,5.3-0.4L1245.3,233.8z M1305.8,170v0.9
			c-1.5,3.4-2.2,8.1-2.2,13.9V214c-0.2,6.4-2.3,11.4-6.4,15.1c-4.1,3.6-9.9,5.5-17.2,5.5c-4.6,0-8.8-0.9-12.7-2.6
			c-3.8-1.7-6.9-4.1-9.1-7c-2.2-2.9-3.4-6-3.4-9.2h10.9c0,2.8,1.3,5.1,3.9,7.1s5.9,2.9,9.7,2.9c4.4,0,7.8-1.1,10-3.4
			c2.3-2.2,3.4-5.3,3.4-9.1v-5h-10.5c-9.1,0-16.2-1.8-21.2-5.5c-5-3.7-7.5-8.8-7.5-15.4c0-5.4,2-9.9,6-13.4c4-3.5,9.1-5.3,15.4-5.3
			c7,0,13,2.6,18.1,7.9c0.4-3.2,0.9-5.4,1.5-6.7L1305.8,170z M1267.7,181.1c-2.3,1.9-3.4,4.6-3.4,8c0,7.8,6.6,11.7,19.9,11.7h8.5
			v-13c-1.4-2.8-3.6-5.1-6.6-6.9c-3-1.8-6.3-2.6-9.7-2.6C1272.9,178.3,1270,179.2,1267.7,181.1z M1331.5,260h-10.8v-90h10.8V260z
			 M1398.8,181.1l-6.6,5.2c-2-2.6-4.3-4.6-7-6.2c-2.7-1.6-5.9-2.3-9.7-2.3c-5.4,0-9.8,1.9-13.3,5.8c-3.5,3.8-5.3,8.9-5.5,15.1h42.9
			v4.5c0,10.1-2.3,17.9-6.9,23.3c-4.6,5.4-11,8.1-19.2,8.1c-5,0-9.7-1.4-14-4.2c-4.3-2.8-7.7-6.7-10.1-11.6
			c-2.4-4.9-3.6-10.6-3.6-16.8v-2c0-9.5,2.7-17,8.1-22.6c5.4-5.6,12.4-8.5,21-8.5C1385.5,168.8,1393.5,172.9,1398.8,181.1
			L1398.8,181.1z M1384.3,221.1c2.7-3,4.1-7.3,4.4-12.8v-0.8H1357c0.7,5.7,2.5,10.2,5.5,13.4c3,3.2,6.6,4.8,11,4.8
			C1378.1,225.7,1381.6,224.1,1384.3,221.1z M1474.9,203.4c9.7,0,17.1,2.2,22.2,6.7c5.2,4.5,7.8,10.9,7.8,19.1
			c0,7.9-2.6,14.2-7.9,18.9c-5.3,4.8-12.6,7.1-21.9,7.1h-31.5V170h11.2v33.4L1474.9,203.4z M1454.8,246.1h20.9
			c5.6-0.1,10-1.7,13.2-4.8c3.2-3.1,4.8-7.1,4.8-12.2c0-5.4-1.6-9.5-4.8-12.3c-3.2-2.8-7.8-4.3-13.8-4.3h-20.2V246.1z M1528.6,260
			h-10.8v-90h10.8V260z M1595.6,170v0.9c-1.5,3.4-2.2,8.1-2.2,13.9V214c-0.2,6.4-2.3,11.4-6.4,15.1c-4.1,3.6-9.9,5.5-17.2,5.5
			c-4.6,0-8.8-0.9-12.7-2.6c-3.8-1.7-6.9-4.1-9.1-7c-2.2-2.9-3.4-6-3.4-9.2h10.9c0,2.8,1.3,5.1,3.9,7.1c2.6,2,5.9,2.9,9.7,2.9
			c4.4,0,7.8-1.1,10-3.4c2.3-2.2,3.4-5.3,3.4-9.1v-5H1572c-9.1,0-16.2-1.8-21.2-5.5c-5-3.7-7.5-8.8-7.5-15.4c0-5.4,2-9.9,6-13.4
			c4-3.5,9.1-5.3,15.4-5.3c7,0,13,2.6,18.1,7.9c0.4-3.2,0.9-5.4,1.5-6.7L1595.6,170z M1557.5,181.1c-2.3,1.9-3.4,4.6-3.4,8
			c0,7.8,6.7,11.7,19.9,11.7h8.5v-13c-1.4-2.8-3.6-5.1-6.6-6.9c-3.1-1.8-6.3-2.6-9.7-2.6C1562.7,178.3,1559.7,179.2,1557.5,181.1z
			 M1614,248.8v-15.4h-11.6V225h11.6v-39.3c0-5.4,1.2-9.6,3.7-12.5c2.5-2.9,6.1-4.4,10.9-4.4c2.7,0,5.5,0.4,8.3,1.2v8.7
			c-2.2-0.5-3.9-0.7-5.2-0.7c-2.5,0-4.3,0.6-5.4,1.9c-1.1,1.3-1.6,3.2-1.6,5.7V225h11.8v8.4h-11.8v15.4H1614z M1656,248.8v-15.4
			h-11.5V225h11.5v-39.3c0-5.4,1.2-9.6,3.7-12.5c2.5-2.9,6.1-4.4,11-4.4c2.7,0,5.5,0.4,8.3,1.2v8.7c-2.2-0.5-3.9-0.7-5.2-0.7
			c-2.5,0-4.3,0.6-5.4,1.9c-1.1,1.3-1.6,3.2-1.6,5.7V225h11.8v8.4h-11.8v15.4H1656z M1708.9,170v55h13.5v8.4h-13.5v6.7
			c0,3.8,1,6.8,2.9,8.8c1.9,2.1,4.6,3.1,8.2,3.1c2.1,0,4-0.2,5.9-0.5l0.6,8.7c-2.5,0.7-4.9,1-7.4,1c-6.6,0-11.8-1.9-15.4-5.6
			s-5.4-9-5.4-15.8v-6.5h-10V225h10v-55H1708.9z M1729.4,201.5c0-9.8,2.7-17.8,8-23.7c5.3-6,12.3-9,20.9-9c5.7,0,10.8,1.4,15.1,4.1
			c4.4,2.7,7.8,6.6,10.1,11.5c2.4,4.9,3.6,10.4,3.6,16.6v0.8c0,9.9-2.7,17.9-8,23.8c-5.3,6-12.3,9-20.9,9c-5.6,0-10.6-1.3-14.9-4
			c-4.4-2.7-7.8-6.5-10.2-11.5s-3.7-10.5-3.7-16.8L1729.4,201.5z M1745.2,219.3c3.3,4.3,7.6,6.4,12.9,6.4c5.5,0,9.8-2.2,13.2-6.5
			c3.3-4.3,5-9.9,5-16.9c0-7.8-1.6-13.8-4.9-18.1c-3.2-4.3-7.6-6.5-13.1-6.5c-5.5,0-9.8,2.1-13.1,6.4c-3.3,4.3-4.9,9.9-4.9,16.9
			C1740.3,208.9,1742,215,1745.2,219.3z M1831.3,233.8c-1.1,0.5-2.7,0.8-4.8,0.8c-6.5,0-11.6-2.8-15.1-8.5l-0.2,7.3h-10.5V170h10.8
			v45c2.5,6.1,7.4,9.1,14.5,9.1c1.9,0,3.7-0.1,5.3-0.4L1831.3,233.8z M1841.6,233.4V170h10.8v46.3c2.6,6.1,7.5,9.1,14.6,9.1
			c9,0,13.5-4.6,13.5-13.8V170h10.9v42.1c0.4,4.1,2,7.3,4.6,9.7c2.7,2.4,6,3.6,10,3.6c4.9,0,8.3-1.1,10.4-3.4
			c2.1-2.2,3.1-5.6,3.1-10.2V170h10.8v42.5c-0.2,14.7-7.3,22.1-21.2,22.1c-4.6,0-8.6-0.9-12-2.8s-6.1-4.3-8.2-7.4
			c-3.2,6.8-9.2,10.2-18.1,10.2c-7.9,0-14.2-2.7-18.8-8.2l-0.3,7L1841.6,233.4z M1992.7,170v55h13.5v8.4h-13.5v6.7
			c0,3.8,0.9,6.8,2.9,8.8c1.9,2.1,4.6,3.1,8.1,3.1c2.1,0,4-0.2,5.9-0.5l0.6,8.7c-2.5,0.7-4.9,1-7.4,1c-6.6,0-11.8-1.9-15.4-5.6
			c-3.6-3.7-5.4-9-5.4-15.8v-6.5h-10V225h10v-55H1992.7z M2057.1,170h10.3v63.4h-10.8v-46.1c-2.7-6.2-8.2-9.3-16.5-9.3
			c-7.8,0-11.7,4.8-11.7,14.4v41h-10.8v-41.2c0-7.7,1.8-13.5,5.4-17.4c3.5-3.9,8.7-5.9,15.4-5.9c8.2,0,14.4,2.5,18.6,7.4L2057.1,170
			z M2025.5,245.9c1.1-1.2,2.7-1.8,4.8-1.8s3.7,0.6,4.8,1.8c1.1,1.2,1.6,2.6,1.6,4.4c0,1.8-0.6,3.2-1.6,4.4
			c-1.1,1.2-2.7,1.8-4.8,1.8c-2.1,0-3.7-0.6-4.8-1.8c-1.1-1.2-1.6-2.7-1.6-4.4C2023.9,248.6,2024.4,247.1,2025.5,245.9z
			 M2050.7,245.8c1.1-1.2,2.7-1.8,4.8-1.8s3.7,0.6,4.8,1.8c1.1,1.2,1.6,2.6,1.6,4.4c0,1.8-0.6,3.3-1.6,4.5c-1.1,1.2-2.7,1.8-4.8,1.8
			s-3.7-0.6-4.8-1.8c-1.1-1.2-1.6-2.7-1.6-4.5C2049.1,248.5,2049.6,247,2050.7,245.8z M2114.5,233.8c-1.1,0.5-2.7,0.8-4.8,0.8
			c-6.5,0-11.6-2.8-15.1-8.5l-0.2,7.3h-10.6V170h10.8v45c2.5,6.1,7.4,9.1,14.5,9.1c1.9,0,3.7-0.1,5.3-0.4V233.8z M2151.6,201.4
			c0-9.7,2.3-17.5,6.9-23.6c4.6-6,10.6-9,18-9c7.7,0,13.8,2.7,18.1,8l0.5-6.8h10v90h-10.8v-33c-4.3,5.1-10.2,7.6-17.6,7.6
			c-7.5,0-13.5-3-18.1-8.9s-6.9-13.7-6.9-23.5V201.4z M2166.8,219.2c3,4.1,7.1,6.2,12.4,6.2c6.7,0,11.7-3,14.9-9v-29.1
			c-3.2-6.2-8.2-9.3-15.1-9.3c-5.2,0-9.3,2-12.3,6.1c-3,4.1-4.4,9.7-4.4,16.9C2162.4,209,2163.9,215.1,2166.8,219.2L2166.8,219.2z
			 M2233.1,233.4h-10.8V170h10.8V233.4z M2223,245.8c1.1-1.2,2.7-1.8,4.8-1.8s3.7,0.6,4.8,1.8c1.1,1.2,1.6,2.6,1.6,4.4
			c0,1.8-0.6,3.2-1.6,4.5c-1.1,1.2-2.7,1.8-4.8,1.8s-3.7-0.6-4.8-1.8c-1.1-1.2-1.6-2.7-1.6-4.5S2221.9,247,2223,245.8z M2300,181.1
			l-6.6,5.2c-2-2.6-4.3-4.6-7-6.2c-2.7-1.6-5.9-2.3-9.7-2.3c-5.4,0-9.8,1.9-13.3,5.8c-3.5,3.8-5.3,8.9-5.5,15.1h42.9v4.5
			c0,10.1-2.3,17.9-6.9,23.3c-4.6,5.4-11,8.1-19.2,8.1c-5,0-9.7-1.4-14-4.2c-4.3-2.8-7.7-6.7-10.1-11.6c-2.4-4.9-3.6-10.6-3.6-16.8
			v-2c0-9.5,2.7-17,8.1-22.6c5.4-5.6,12.4-8.5,21-8.5C2286.7,168.8,2294.7,172.9,2300,181.1L2300,181.1z M2285.6,221.1
			c2.7-3,4.1-7.3,4.4-12.8v-0.8h-31.8c0.7,5.7,2.5,10.2,5.5,13.4c3,3.2,6.6,4.8,11,4.8C2279.3,225.7,2282.9,224.1,2285.6,221.1z
			 M2400.2,247.1v8.2h-59.5v-9.2h46l-46.8-67.7V170h62.1v9.2h-48.8L2400.2,247.1z M2453.2,170h10.3v63.4h-10.8v-46.1
			c-2.7-6.2-8.2-9.3-16.5-9.3c-7.8,0-11.7,4.8-11.7,14.4v41h-10.8v-41.2c0-7.7,1.8-13.5,5.4-17.4c3.5-3.9,8.7-5.9,15.4-5.9
			c8.2,0,14.4,2.5,18.6,7.4L2453.2,170z M2484.3,177.8c4.6-6,10.6-9,18-9c7.5,0,13.4,2.5,17.8,7.5v-5.4c0-5.4-1.5-9.6-4.4-12.5
			s-7.1-4.5-12.3-4.5c-6.7,0-12.4,2.9-17.1,8.6l-5.6-6.5c2.3-3.4,5.6-6.1,10-8c4.4-2,8.9-2.9,13.4-2.9c8.2,0,14.7,2.4,19.6,7.1
			c4.9,4.7,7.3,11.2,7.3,19.4v61.9h-9.9l-0.5-7c-4.3,5.5-10.4,8.2-18.1,8.2c-7.5,0-13.6-2.9-18.2-8.8c-4.6-5.8-6.9-13.7-6.9-23.6
			C2477.4,191.9,2479.7,183.8,2484.3,177.8L2484.3,177.8z M2492.8,219.2c3,4.1,7.1,6.2,12.4,6.2c6.6,0,11.6-3,14.9-9.1v-28.9
			c-3.2-6.2-8.2-9.3-15.1-9.3c-5.3,0-9.4,2-12.3,6.1c-2.9,4.1-4.4,9.7-4.4,16.8C2488.3,209,2489.8,215.1,2492.8,219.2z M2597.5,170
			v0.9c-1.5,3.4-2.2,8.1-2.2,13.9V214c-0.1,6.4-2.3,11.4-6.4,15.1c-4.1,3.6-9.9,5.5-17.2,5.5c-4.6,0-8.8-0.9-12.7-2.6
			c-3.8-1.7-6.9-4.1-9.1-7c-2.2-2.9-3.4-6-3.4-9.2h10.9c0,2.8,1.3,5.1,3.9,7.1c2.6,2,5.9,2.9,9.7,2.9c4.4,0,7.8-1.1,10-3.4
			c2.3-2.2,3.4-5.3,3.4-9.1v-5h-10.5c-9.1,0-16.2-1.8-21.2-5.5c-5-3.7-7.5-8.8-7.5-15.4c0-5.4,2-9.9,6-13.4c4-3.5,9.1-5.3,15.4-5.3
			c7,0,13,2.6,18.1,7.9c0.4-3.2,0.9-5.4,1.5-6.7L2597.5,170z M2559.4,181.1c-2.3,1.9-3.4,4.6-3.4,8c0,7.8,6.6,11.7,19.9,11.7h8.5
			v-13c-1.4-2.8-3.6-5.1-6.6-6.9c-3.1-1.8-6.3-2.6-9.7-2.6C2564.6,178.3,2561.7,179.2,2559.4,181.1z M2555.5,245.9
			c1.1-1.2,2.7-1.8,4.8-1.8s3.7,0.6,4.8,1.8c1.1,1.2,1.6,2.6,1.6,4.4c0,1.8-0.6,3.2-1.6,4.4c-1.1,1.2-2.7,1.8-4.8,1.8
			s-3.7-0.6-4.8-1.8c-1.1-1.2-1.6-2.7-1.6-4.4C2553.9,248.6,2554.5,247.1,2555.5,245.9z M2580.7,245.8c1.1-1.2,2.7-1.8,4.8-1.8
			c2.1,0,3.7,0.6,4.8,1.8c1.1,1.2,1.6,2.6,1.6,4.4c0,1.8-0.6,3.3-1.6,4.5c-1.1,1.2-2.7,1.8-4.8,1.8c-2.1,0-3.7-0.6-4.8-1.8
			c-1.1-1.2-1.6-2.7-1.6-4.5C2579.1,248.5,2579.7,247,2580.7,245.8z M2612,233.4V170h10.8v45.2c1.5,3,3.6,5.5,6.2,7.4
			c2.6,1.9,5.7,2.8,9.2,2.8c4.3,0,7.5-1.1,9.6-3.3c2.1-2.2,3.1-5.6,3.1-10.1v-42h10.8v41.9c-0.1,15.1-6.9,22.7-20.3,22.7
			c-7.8,0-14.1-3-19-9.1l-0.4,8L2612,233.4z M2682.3,177.8c4.6-6,10.6-9,18-9c7.5,0,13.4,2.5,17.8,7.5v-5.4c0-5.4-1.5-9.6-4.4-12.5
			c-2.9-3-7.1-4.5-12.3-4.5c-6.7,0-12.4,2.9-17.1,8.6l-5.6-6.5c2.3-3.4,5.6-6.1,10-8c4.4-2,8.8-2.9,13.4-2.9
			c8.2,0,14.7,2.4,19.6,7.1c4.9,4.7,7.3,11.2,7.3,19.4v61.9h-9.9l-0.5-7c-4.3,5.5-10.4,8.2-18.1,8.2c-7.5,0-13.6-2.9-18.2-8.8
			c-4.6-5.8-6.9-13.7-6.9-23.6C2675.4,191.9,2677.7,183.8,2682.3,177.8L2682.3,177.8z M2690.8,219.2c3,4.1,7.1,6.2,12.4,6.2
			c6.6,0,11.6-3,14.9-9.1v-28.9c-3.2-6.2-8.2-9.3-15.1-9.3c-5.3,0-9.4,2-12.3,6.1c-2.9,4.1-4.4,9.7-4.4,16.8
			C2686.3,209,2687.8,215.1,2690.8,219.2z M2756.7,260h-10.8v-90h10.8V260z M2785,233.4h-10.8V170h10.8V233.4z M2774.9,245.8
			c1.1-1.2,2.7-1.8,4.8-1.8s3.7,0.6,4.8,1.8c1.1,1.2,1.6,2.6,1.6,4.4c0,1.8-0.6,3.2-1.6,4.5c-1.1,1.2-2.7,1.8-4.8,1.8
			s-3.7-0.6-4.8-1.8c-1.1-1.2-1.6-2.7-1.6-4.5S2773.8,247,2774.9,245.8z M2814.3,183.6c-3,3.9-4.5,9.6-4.5,16.9v2.1
			c0,7.5,1.5,13.2,4.5,17.2c3,4,7.3,5.9,12.8,5.9c4.1,0,7.6-1.3,10.3-4c2.8-2.6,4.4-6,4.7-10.1h10.2c-0.3,6.8-2.8,12.3-7.5,16.6
			c-4.7,4.3-10.6,6.4-17.7,6.4c-5.8,0-10.8-1.3-15-4c-4.2-2.7-7.5-6.4-9.8-11.2c-2.3-4.8-3.4-10.3-3.4-16.5v-1.8
			c0-10,2.6-17.9,7.6-23.6c5.1-5.8,12-8.6,20.6-8.6c4.3,0,8.4,1,12.2,2.9c3.8,2,6.9,4.6,9.2,7.9c2.3,3.3,3.6,6.7,3.8,10.4h-10.2
			c-0.3-3.5-1.9-6.4-4.8-8.8c-2.9-2.3-6.3-3.5-10.1-3.5C2821.6,177.7,2817.3,179.6,2814.3,183.6L2814.3,183.6z M2875.8,260H2865v-90
			h10.8v45.2c1.5,3,3.6,5.5,6.2,7.4c2.6,1.9,5.7,2.8,9.2,2.8c4.3,0,7.5-1.1,9.6-3.3c2.1-2.2,3.1-5.6,3.1-10.1v-42h10.8v41.9
			c-0.1,15.1-6.9,22.7-20.3,22.7c-7.7,0-13.9-2.9-18.8-8.8V260z M2931.1,233.4V170h10.8v46.3c2.6,6.1,7.5,9.1,14.6,9.1
			c9,0,13.5-4.6,13.5-13.8V170h10.9v42.1c0.4,4.1,2,7.3,4.6,9.7c2.6,2.4,6,3.6,10,3.6c4.9,0,8.4-1.1,10.4-3.4
			c2.1-2.2,3.1-5.6,3.1-10.2V170h10.8v42.5c-0.2,14.7-7.3,22.1-21.2,22.1c-4.6,0-8.6-0.9-12-2.8c-3.4-1.9-6.1-4.3-8.2-7.4
			c-3.2,6.8-9.2,10.2-18.1,10.2c-7.9,0-14.2-2.7-18.8-8.2l-0.3,7L2931.1,233.4z M3086.1,170v0.9c-1.5,3.4-2.2,8.1-2.2,13.9V214
			c-0.1,6.4-2.3,11.4-6.4,15.1c-4.1,3.6-9.9,5.5-17.2,5.5c-4.6,0-8.8-0.9-12.7-2.6c-3.8-1.7-6.9-4.1-9.1-7c-2.2-2.9-3.4-6-3.4-9.2
			h10.9c0,2.8,1.3,5.1,3.9,7.1c2.6,2,5.9,2.9,9.7,2.9c4.4,0,7.8-1.1,10-3.4c2.3-2.2,3.4-5.3,3.4-9.1v-5h-10.5
			c-9.1,0-16.2-1.8-21.2-5.5c-5-3.7-7.5-8.8-7.5-15.4c0-5.4,2-9.9,6-13.4c4-3.5,9.1-5.3,15.4-5.3c7,0,13,2.6,18.1,7.9
			c0.4-3.2,0.9-5.4,1.5-6.7L3086.1,170z M3048,181.1c-2.3,1.9-3.4,4.6-3.4,8c0,7.8,6.6,11.7,19.9,11.7h8.5v-13
			c-1.4-2.8-3.6-5.1-6.6-6.9c-3-1.8-6.3-2.6-9.7-2.6C3053.2,178.3,3050.3,179.2,3048,181.1z M3112.9,183.6c-3,3.9-4.5,9.6-4.5,16.9
			v2.1c0,7.5,1.5,13.2,4.5,17.2c3,4,7.3,5.9,12.8,5.9c4.1,0,7.6-1.3,10.3-4c2.8-2.6,4.4-6,4.7-10.1h10.2c-0.3,6.8-2.8,12.3-7.5,16.6
			c-4.7,4.3-10.6,6.4-17.7,6.4c-5.8,0-10.8-1.3-15-4c-4.2-2.7-7.5-6.4-9.8-11.2c-2.3-4.8-3.4-10.3-3.4-16.5v-1.8
			c0-10,2.6-17.9,7.6-23.6c5.1-5.8,12-8.6,20.6-8.6c4.3,0,8.4,1,12.2,2.9c3.8,2,6.9,4.6,9.2,7.9c2.3,3.3,3.6,6.7,3.8,10.4h-10.2
			c-0.3-3.5-1.9-6.4-4.8-8.8c-2.9-2.3-6.3-3.5-10.1-3.5C3120.2,177.7,3115.9,179.6,3112.9,183.6L3112.9,183.6z M3174.4,260h-10.8
			v-90h10.8v45.2c1.5,3,3.6,5.5,6.2,7.4c2.6,1.9,5.7,2.8,9.2,2.8c4.3,0,7.5-1.1,9.6-3.3c2.1-2.2,3.1-5.6,3.1-10.1v-42h10.8v41.9
			c-0.1,15.1-6.9,22.7-20.3,22.7c-7.7,0-13.9-2.9-18.8-8.8V260z M3268.9,170h10.3v63.4h-10.8v-46.1c-2.7-6.2-8.2-9.3-16.5-9.3
			c-7.8,0-11.7,4.8-11.7,14.4v41h-10.8v-41.2c0-7.7,1.8-13.5,5.4-17.4c3.5-3.9,8.7-5.9,15.4-5.9c8.2,0,14.4,2.5,18.6,7.4L3268.9,170
			z M3295.7,233.4V170h10.8v45.2c1.5,3,3.6,5.5,6.2,7.4c2.7,1.9,5.7,2.8,9.3,2.8c4.3,0,7.5-1.1,9.6-3.3c2.1-2.2,3.1-5.6,3.1-10.1
			v-42h10.8v41.9c-0.1,15.1-6.9,22.7-20.3,22.7c-7.8,0-14.1-3-19-9.1l-0.4,8L3295.7,233.4z M3366.1,177.8c4.6-6,10.6-9,18-9
			c7.5,0,13.4,2.5,17.8,7.5v-5.4c0-5.4-1.5-9.6-4.4-12.5s-7.1-4.5-12.3-4.5c-6.7,0-12.4,2.9-17.1,8.6l-5.6-6.5c2.3-3.4,5.6-6.1,10-8
			c4.4-2,8.9-2.9,13.4-2.9c8.2,0,14.7,2.4,19.6,7.1c4.9,4.7,7.3,11.2,7.3,19.4v61.9h-9.9l-0.5-7c-4.3,5.5-10.4,8.2-18.1,8.2
			c-7.5,0-13.6-2.9-18.2-8.8c-4.6-5.8-6.9-13.7-6.9-23.6C3359.2,191.9,3361.5,183.8,3366.1,177.8z M3374.5,219.2
			c3,4.1,7.1,6.2,12.4,6.2c6.6,0,11.6-3,14.9-9.1v-28.9c-3.2-6.2-8.2-9.3-15.1-9.3c-5.3,0-9.4,2-12.3,6.1c-2.9,4.1-4.4,9.7-4.4,16.8
			C3370.1,209,3371.6,215.1,3374.5,219.2"/>
		<path id="path20" class="st0" d="M885.2,441.9c0-12.5-2.2-21.5-6.7-27.1c-4.5-5.6-11.8-8.4-21.8-8.4c-5.1,0-9.6,0.6-13.4,1.8
			c-3.8,1.2-7,3.2-9.6,6c-2.6,2.8-4.4,6.5-5.6,11c-1.2,4.6-1.8,10.1-1.8,16.7V548h-32.9V435.4c0-38.9,21.3-58.3,63.8-58.3
			c8.8,0,16.9,1.2,24.2,3.6c7.4,2.4,13.6,6.2,18.7,11.3c5.1,5.1,9.1,11.6,12,19.4c2.9,7.8,4.3,17.2,4.3,28.1V548h-31.2L885.2,441.9z
			 M1049.7,378.8h24V548h-31.2v-88.3l3.8-25.7h-1.2l-12.7,25.7l-63.6,89.5h-24V380H976v87.6l-3.8,26.4h1.2l13.2-26.4L1049.7,378.8z
			 M1221.5,548h-131v-29.3h49.2V380h32.9v138.7h49L1221.5,548z M1238.4,380h100.8v29.3h-67.9v41h60.7v29.3h-60.7v39.1h66.7V548
			h-99.6V380z M1363.8,380h32.9v68.9l17.3-3.1l38.2-65.8h37.9l-38.4,64.1l-11.8,7.4c10.7,3.4,19.3,9.4,25.7,18
			c6.4,8.6,9.6,19.8,9.6,33.6c0,9.3-1.8,17-5.4,23.2c-3.6,6.2-8.4,11-14.4,14.5c-6,3.5-12.8,6-20.4,7.4c-7.6,1.4-15.3,2.2-23.2,2.2
			c-3.4,0-7-0.1-11-0.2c-4-0.2-8.1-0.4-12.4-0.7c-4.2-0.3-8.5-0.8-12.7-1.3c-4.2-0.6-8.2-1.2-11.9-1.8L1363.8,380z M1433.8,515
			c4.5-4.1,6.7-9.7,6.7-16.9c0-9.6-2.7-16.5-8.2-20.6c-5.4-4.2-12.7-6.2-21.8-6.2h-13.9v48.7c1.8,0.5,4.3,0.8,7.6,1s6.6,0.2,10,0.2
			C1422.8,521.1,1429.4,519.1,1433.8,515z M1612.2,378.8h24V548H1605v-88.3l3.8-25.7h-1.2l-12.7,25.7l-63.6,89.5h-24V380h31.2v87.6
			l-3.8,26.4h1.2l13.2-26.4L1612.2,378.8z M1665.2,380H1766v29.3h-67.9v41h60.7v29.3h-60.7v39.1h66.7V548h-99.6V380z M1884.9,380
			h32.9v168h-32.9v-68.4h-61.4V548h-32.9V380h32.9v70.3h61.4V380z M2077.3,380h32.9v168h-29.8l-42.5-76.3l-7.2-19.7h-1l-7.9,19.2
			L1977,548h-30V380h31.2v87.4l-4.8,33.1h1.2l10.6-26.6l37.7-62.9h10.6l35.8,62.6l10.3,26.9h1.4l-3.6-33.4L2077.3,380z M2139.2,380
			H2240v29.3h-67.9v41h60.7v29.3h-60.7v39.1h66.7V548h-99.6V380z M2369.5,378.8h24V548h-31.2v-88.3l3.8-25.7h-1.2l-12.7,25.7
			l-63.6,89.5h-24V380h31.2v87.6L2292,494h1.2l13.2-26.4L2369.5,378.8z M2485.8,410.1c-5.2-3.3-12.7-4.9-22.4-4.9
			c-4.2,0-8.2,0.3-12.1,1c-3.9,0.6-7.6,1.4-11.2,2.4c-3.5,1-6.7,2-9.5,3.1c-2.8,1.1-5.1,2.2-6.8,3.1l-10.6-28.1
			c4.3-2.2,11-4.5,20.2-6.7c9.1-2.2,19.7-3.4,31.7-3.4c9.1,0,17.5,1,25.1,3.1s14.1,5.3,19.4,9.6c5.4,4.3,9.5,9.7,12.5,16.2
			c3,6.5,4.4,14.2,4.4,23.2s-1.9,16.4-5.6,22.4s-8.5,11-14.2,15.1c-5.7,4.1-11.8,7.6-18.5,10.4c-6.6,2.9-12.8,5.7-18.5,8.4
			c-5.7,2.7-10.4,5.7-14.2,8.9c-3.8,3.2-5.6,7.2-5.6,12c0,5.1,2,9.2,6.1,12.2s10,4.6,17.6,4.6c8.2,0,15.8-0.9,22.8-2.8
			s12.3-3.9,15.8-6.1l10.3,27.6c-5.6,3.2-12.7,5.6-21.4,7.3c-8.6,1.7-17.8,2.5-27.6,2.5c-8.5,0-16.2-1-23-2.9
			c-6.9-1.9-12.8-4.9-17.9-8.9c-5-4-8.9-9-11.6-15s-4.1-13.1-4.1-21.2c0-9.4,1.9-17.2,5.6-23.3s8.5-11.2,14.2-15.2
			c5.7-4.1,11.8-7.5,18.5-10.3c6.6-2.8,12.8-5.5,18.5-8.2c5.7-2.6,10.4-5.6,14.2-8.8c3.8-3.2,5.6-7.4,5.6-12.5
			C2493.6,418.4,2491,413.4,2485.8,410.1L2485.8,410.1z M2547.6,380h32.9v68.9l17.3-3.1l38.2-65.8h37.9l-38.4,64.1l-11.8,7.4
			c10.7,3.4,19.3,9.4,25.7,18c6.4,8.6,9.6,19.8,9.6,33.6c0,9.3-1.8,17-5.4,23.2c-3.6,6.2-8.4,11-14.4,14.5c-6,3.5-12.8,6-20.4,7.4
			c-7.6,1.4-15.3,2.2-23.2,2.2c-3.4,0-7-0.1-11-0.2c-4-0.2-8.1-0.4-12.4-0.7c-4.2-0.3-8.5-0.8-12.7-1.3c-4.2-0.6-8.2-1.2-11.9-1.8
			L2547.6,380z M2617.7,515c4.5-4.1,6.7-9.7,6.7-16.9c0-9.6-2.7-16.5-8.2-20.6c-5.4-4.2-12.7-6.2-21.8-6.2h-13.9v48.7
			c1.8,0.5,4.3,0.8,7.6,1s6.6,0.2,10,0.2C2606.7,521.1,2613.2,519.1,2617.7,515z M2691.2,380H2792v29.3h-67.9v41h60.7v29.3h-60.7
			v39.1h66.7V548h-99.6V380z M2872.7,447.7l36.2-3.8v-31.7c-2.7-2.1-6.1-3.6-10.1-4.7c-4-1-8.1-1.6-12.2-1.6
			c-6.1,0-11.8,1.1-17.2,3.4c-5.4,2.2-10,5.7-14,10.4s-7.1,10.7-9.4,18s-3.4,16-3.4,26c0,10.6,1.2,19.5,3.5,26.9
			c2.3,7.4,5.6,13.4,9.8,18.1c4.2,4.7,9.2,8.1,15,10.2c5.8,2.1,12.1,3.1,19,3.1c7.7,0,14-0.4,19-1.3c5-0.9,9.4-2.1,13.4-3.7
			l6.7,27.6c-4.3,1.6-10.1,3.1-17.4,4.6c-7.3,1.4-15.7,2.2-25.3,2.2s-19-1.6-28.3-4.7c-9.3-3.1-17.6-8.2-25.1-15.1
			c-7.4-7-13.4-16-18-27.1c-4.6-11.1-6.8-24.6-6.8-40.4c0-15.2,1.9-28.3,5.8-39.4s9.1-20.1,15.8-27.2c6.7-7.1,14.7-12.4,23.9-15.7
			c9.2-3.4,19.2-5,29.9-5c9.1,0,18.4,1.3,27.7,3.8c9.4,2.6,17.4,6.6,24.1,12.2v74.9h-62.6L2872.7,447.7z M2962.4,380h32.9v168h-32.9
			V380z M3089.2,410.1c-5.2-3.3-12.7-4.9-22.4-4.9c-4.2,0-8.2,0.3-12.1,1c-3.9,0.6-7.6,1.4-11.2,2.4c-3.5,1-6.7,2-9.5,3.1
			c-2.8,1.1-5.1,2.2-6.8,3.1l-10.6-28.1c4.3-2.2,11-4.5,20.2-6.7c9.1-2.2,19.7-3.4,31.7-3.4c9.1,0,17.5,1,25.1,3.1
			s14.1,5.3,19.4,9.6c5.4,4.3,9.5,9.7,12.5,16.2c3,6.5,4.4,14.2,4.4,23.2s-1.9,16.4-5.6,22.4s-8.5,11-14.2,15.1
			c-5.7,4.1-11.8,7.6-18.5,10.4c-6.6,2.9-12.8,5.7-18.5,8.4c-5.7,2.7-10.4,5.7-14.2,8.9c-3.8,3.2-5.6,7.2-5.6,12
			c0,5.1,2,9.2,6.1,12.2s10,4.6,17.6,4.6c8.2,0,15.8-0.9,22.8-2.8s12.3-3.9,15.8-6.1l10.3,27.6c-5.6,3.2-12.7,5.6-21.4,7.3
			c-8.6,1.7-17.8,2.5-27.6,2.5c-8.5,0-16.2-1-23-2.9c-6.9-1.9-12.8-4.9-17.9-8.9c-5-4-8.9-9-11.6-15s-4.1-13.1-4.1-21.2
			c0-9.4,1.9-17.2,5.6-23.3s8.5-11.2,14.2-15.2c5.7-4.1,11.8-7.5,18.5-10.3c6.6-2.8,12.8-5.5,18.5-8.2c5.7-2.6,10.4-5.6,14.2-8.8
			c3.8-3.2,5.6-7.4,5.6-12.5C3097,418.4,3094.4,413.4,3089.2,410.1L3089.2,410.1z M3272.3,548h-131v-29.3h49.2V380h32.9v138.7h49
			L3272.3,548z M3289.1,380h100.8v29.3H3322v41h60.7v29.3H3322v39.1h66.7V548h-99.6L3289.1,380z M3414.5,380h32.9v68.9l17.3-3.1
			l38.2-65.8h37.9l-38.4,64.1l-11.8,7.4c10.7,3.4,19.3,9.4,25.7,18c6.4,8.6,9.6,19.8,9.6,33.6c0,9.3-1.8,17-5.4,23.2
			c-3.6,6.2-8.4,11-14.4,14.5c-6,3.5-12.8,6-20.4,7.4c-7.6,1.4-15.3,2.2-23.2,2.2c-3.4,0-7-0.1-11-0.2c-4-0.2-8.1-0.4-12.4-0.7
			c-4.2-0.3-8.5-0.8-12.7-1.3c-4.2-0.6-8.2-1.2-11.9-1.8L3414.5,380z M3484.6,515c4.5-4.1,6.7-9.7,6.7-16.9c0-9.6-2.7-16.5-8.2-20.6
			c-5.4-4.2-12.7-6.2-21.8-6.2h-13.9v48.7c1.8,0.5,4.3,0.8,7.6,1s6.6,0.2,10,0.2C3473.6,521.1,3480.1,519.1,3484.6,515"/>
		<path id="path22" class="st0" d="M659.5,364.7c-27.8,21.3-46.3,48.6-55.1,62.6l-52,83.2c-5,25.7-18.4,49.8-38.3,67.6
			c6.7,2.5,12.2,5.2,15.6,7.7c-34,0-67.6,17.3-86.1,17.3c-11.9,0-19.6-7.1-19.6-16.6c0.8-10.5,11.6-21.1,31.5-21.1
			c4.5,0,10.3,0.6,16.6,1.6c10.8-15,19.5-28.6,19.5-48c0-36.4-43.6-64.8-87.6-64.8l-7.3,0.3c-4,9-17.2,24.2-17.2,41.4
			c0,29,18.9,52.6,18.9,81.3c0,17.8-8.7,28.9-12,33.4c5.4,5,11.3,11.2,12.7,15.4c-3.1-1.3-6.8-1.6-12.3-1.6c-21.1,0-38.2,5.5-55,5.5
			c-9.5,0-12.1-3-11.7-8.4c-3.6,1.4-6.9,2.3-10.9,3c-4.9,0.9-10.2,1.4-15.9,1.4c-20.4,0-27.6-8.5-27.6-15.9
			c0-6.2,4.8-17.5,10.4-26.1c7.9,4,17.5,6.7,21.8,6.7c10.8,0,20.4-10.3,25.5-22.5c-7.3-0.9-8.7-1.2-16-1.2
			c-19.9,0-33.3,7.1-36.9,6.5c0-2.8,5.6-10.1,16.7-14.2c14.6-5.3,35.9-8.1,39.6-8.7c0-0.6-3.5-6.6-9.9-7.9
			c-3.5,0.9-37.6,11.6-39.8,10.3c0-7.6,19.8-24.5,37.6-31c-14.8-18.9-33.3-38.3-42.1-67.8l-7.3-0.3c-44,0-87.6,28.4-87.6,64.8
			c0,19.4,8.7,33,19.5,48c6.3-1,12.1-1.6,16.6-1.6c19.9,0,30.7,10.7,31.5,21.1c0,9.4-7.7,16.6-19.6,16.6
			c-18.5,0-52.2-17.3-86.1-17.3c3.4-2.5,8.9-5.2,15.6-7.7c-19.9-17.9-33.2-41.9-38.2-67.6l-52-83.2c-8.8-14-27.2-41.3-55.1-62.6
			c33.7,0,56-0.8,84.4,44.2l26.6,42.7c2-5.5,4.4-10.9,7.3-16.2l-53-84.8c-8.8-14.1-27.1-41.2-55-62.6c33.7,0,56-0.8,84.4,44.2
			l45.6,73.1c3.4-3.6,7-7.2,10.8-10.6L96.7,291.5c-8-12.7-23.5-35.9-47-56.1l-8-6.5c18,0,32.8-0.2,46.9,6.5
			c12.3,5.8,24.2,16.8,37.5,37.7l62.8,100.5c4.1-2.6,8.4-5.1,12.7-7.5L125,243.5l-5.1-7.9c-10-14.9-26.5-36.7-49.9-54.7
			c33.6,0,55.9-0.8,84.4,44.2l6.4,10.3l72.5,116c4.7-1.8,9.4-3.5,14.2-5l-69.3-111l-19.9-31.8c-8.7-13.9-27.3-41.3-55-62.6
			c33.7,0,56-0.8,84.4,44.2l31.3,50.1L285.6,337c2.6-8.2,4.4-15.9,4.4-23.5c0-28.2-10.9-54.4-27.6-77.9
			c-11.6-16.3-26-31.3-41.4-44.7c2.4-1.1,6.6-1.5,10.5-1.5c7.8,0,12.8,0.5,16.3,1.1c-8.8-19.8-27.5-45.4-36.9-58.7
			c-12.3,2.2-30.3,3.9-42,3.9c-12.3,0-13.6-7.2-13.6-13.6c0-11.2,5.2-20.1,11.3-25.1c2.3,5.8,6.9,13.4,31.9,13.3
			c-6.6-7.4-27.4-24.2-27.4-37.7c0-9,9.8-22.4,22.8-22.4c-0.8,2.9-0.7,5.6-0.7,7.5c0,10.9,9.7,23.7,17.9,32.7
			c-0.2-2.6-0.1-2.4-0.1-5.5c0-25.9,2.4-37.8,18.8-37.8c8,0,13.6,4.4,15.6,5.7c-10.7,9.9-11.2,17.6-11.2,32.1l0.1,12.6
			c0,3.3,0,7.7-0.5,10.9c5.9,0.8,8.2,0.8,12.8,0.8c0,0,23.4,1.9,29-10.3c6.3,5.8,15.6,14,15.6,23.1c0,6-2.8,12.7-14.9,12.7
			c-4.6,0-18.9-2.8-30.9-2.8c3.2,7.2,17.6,28.1,30,43.4c1.9-5.9,4.8-12.3,11.3-17.5c0.9,9.8,6.6,40.7,21.9,58.8
			c1.8-12.2,4.2-24.7,4.2-51.2c0-64.3-15.5-111.9-48.4-121c4.3-7.5,13.3-14.1,22.7-14.1c12,0,18.6,13.6,25.2,26.4
			c3.4-9.5,13.1-32.6,22.7-32.6c9.6,0,19.2,23.2,22.7,32.6c6.7-12.8,13.2-26.4,25.2-26.4c9.4,0,18.4,6.6,22.7,14.1
			c-32.8,9.1-48.3,56.6-48.3,121c0,26.5,2.4,39,4.2,51.2c15.3-18.1,21.1-49,22-58.8c6.5,5.2,9.4,11.6,11.3,17.5
			c12.4-15.2,26.8-36.2,30-43.4c-12,0-26.3,2.8-30.9,2.8c-12,0-14.9-6.8-14.9-12.7c0-9.1,9.2-17.3,15.5-23.1
			c5.6,12.2,29,10.3,29,10.3c4.5,0,6.9,0,12.8-0.8c-0.5-3.2-0.6-7.6-0.5-10.9l0.1-12.6c0-14.5-0.5-22.2-11.2-32.1
			c1.9-1.3,7.5-5.7,15.5-5.7c16.4,0,18.8,11.9,18.8,37.8c0,3.1,0.1,2.8-0.1,5.5c8.2-8.9,17.9-21.8,17.9-32.7c0-2,0.1-4.7-0.7-7.5
			c13,0,22.8,13.4,22.8,22.4c0,13.5-20.8,30.3-25.1,37.8c22.7,0,27.3-7.6,29.6-13.4c6.1,5,11.3,13.9,11.3,25.1
			c0,6.4-1.4,13.6-13.7,13.6c-11.8,0-29.7-1.7-42-3.9c-9.5,13.3-28.2,38.9-36.9,58.7c3.5-0.6,8.6-1.1,16.3-1.1
			c3.9,0,8.1,0.4,10.5,1.5c-15.4,13.4-29.8,28.3-41.4,44.6c-16.7,23.5-27.6,49.8-27.6,78c0,7.7,1.8,15.3,7.3,24.1l63.8-102.1
			l31.3-50.1c28.5-45,50.8-44.2,84.4-44.2c-27.7,21.3-46.3,48.7-55,62.6l-19.9,31.8l-69.3,111c4.8,1.6,9.6,3.2,14.2,5l72.5-116
			l6.4-10.3c28.5-45,50.8-44.2,84.4-44.2c-23.4,17.9-40,39.8-50,54.5l-5.1,8.1l-76.6,122.6c4.4,2.4,8.6,4.9,12.7,7.5l62.8-100.5
			c13.2-20.9,25.1-32,37.5-37.7c14.2-6.7,29-6.5,46.9-6.5l-8,6.5c-23.5,20.2-39.1,43.4-47,56.1l-64.4,103.1c3.8,3.4,7.4,7,10.8,10.6
			l45.7-73.1c28.5-45,50.8-44.2,84.4-44.2c-28,21.5-46.2,48.5-55.1,62.6l-53,84.8c2.8,5.3,5.3,10.7,7.3,16.2l26.7-42.7
			C603.5,363.9,625.8,364.7,659.5,364.7z M396.4,182.1c1.8,6.7,3.6,11.7,10.7,11.7c3.6,0,5.3-0.6,7.5-1.4
			c7.6-21.1,36.9-60.7,41.5-66.8c12.6,2.1,30.3,4.3,44.6,4.3c3.3,0,7.9,0.3,7.9-7.7c0-4.7-2-12.8-4.6-15.5
			c-6.3,7.4-17.1,9.7-30.6,9.7c-5.2,0-11.5-1.8-13.9-2.4c17.1-17.3,33.2-31.7,33.2-41.3c0-5.4-5.6-12.5-10.3-14.8
			c0,14.2-14.6,33.7-29,44.6c0-1.9-0.7-9.3-0.7-17.4c0-26.7-2.6-32-12.9-32c-1.9,0-5.1,0.7-6.3,1.4c5.5,6.3,7.9,14.7,7.9,30.6
			c0,4.6-0.1,8.9-0.1,12.6c0,7,0.8,12,1.3,15.9c-3.9,0.6-12.9,1.8-19.4,1.8c-14,0-22.7-1.4-29-7.7c-4.5,3.4-9.6,9.9-9.6,14.4
			c0,6.5,4.4,6.9,8.9,6.9c7.1,0,12.9-2.8,39.7-2.8C428.1,141.3,412.6,162.5,396.4,182.1z M273.1,182.1c-16.1-19.6-31.6-40.9-36.9-56
			c26.8,0,32.7,2.8,39.7,2.8c4.6,0,8.9-0.4,8.9-6.9c0-4.5-5.1-11-9.6-14.4c-6.3,6.3-15,7.7-29,7.7c-6.6,0-15.5-1.3-19.4-1.8
			c0.5-3.9,1.3-8.8,1.3-15.9c0-3.7-0.1-8-0.1-12.6c0-15.9,2.3-24.3,7.9-30.6c-1.2-0.7-4.4-1.4-6.3-1.4c-10.3,0-12.9,5.3-12.9,32
			c0,8.1-0.7,15.5-0.7,17.4c-14.3-10.9-29-30.5-29-44.6c-4.7,2.4-10.2,9.5-10.2,14.8c0,9.6,16.1,23.9,33.2,41.3
			c-2.4,0.6-8.7,2.4-13.9,2.4c-13.4,0-24.3-2.2-30.6-9.7c-2.5,2.7-4.6,10.8-4.6,15.5c0,8.1,4.6,7.7,7.9,7.7c14.3,0,32-2.2,44.6-4.3
			c4.6,6.1,33.9,45.7,41.5,66.8c2.2,0.8,3.9,1.4,7.5,1.4C269.4,193.8,271.2,188.9,273.1,182.1z M267.7,418.5
			c0-6.8,0.4-13.2,1.1-19.3c-63.5,0.4-119.3,51.9-119.3,107.4c0,31.7,23.1,56.8,31.2,63.8l5.8-1.3c-8.6-10.5-23.8-28.2-23.8-51.5
			c0-46.4,49.6-86.7,105.7-86.7C267.9,427,267.7,422.8,267.7,418.5z M340,583.6c0-8.7-3.9-16.6-6.8-23.2
			c-3.2,16.9-16.9,37.4-35.2,37.4c-5.2,0-14-2.6-19-4.8c-1.8,3-6.3,12.8-6.3,17.2c0,4.5,6.9,8.9,20.6,8.9
			C320,619.1,340,607.6,340,583.6z M346.3,591.1c-1,6.2-3.4,11.7-6.9,16.5c0.2,5.6,2.5,11,11.5,6.6c-4.9-5-1.1-13.9-1.1-13.9
			s10,4.7,7.9,11.2C372.5,608,361.9,588.1,346.3,591.1z M520.1,506.6c0-55.1-55.1-106.2-118-107.3c0.7,6.2,1.2,12.6,1.2,19.2
			c0,3.6,0,7.7-0.4,12.5c55.4,0.8,104,40.7,104,86.6c0,23.4-15.2,41-23.8,51.5l5.8,1.3C497,563.4,520.1,538.3,520.1,506.6"/>
	</g>
</g>
</svg>
