<svg xmlns="http://www.w3.org/2000/svg" height="44.931" width="240.54"><defs><linearGradient gradientTransform="translate(-86 -64)" gradientUnits="userSpaceOnUse" y2="109.12" y1="66.18" x2="103" x1="103" id="a"><stop stop-color="#1fb1ff" offset="0"/><stop stop-color="#3082ed" offset="1"/></linearGradient></defs><path style="fill:url(#a)" d="M19 0v28.82a2.43 2.43 0 0 1-4.86 0V.22L9.28 5.06v23.76a7.28 7.28 0 0 0 14.56 0V4.86zm14.56 14.56v14.16a16.79 16.79 0 0 1-33.56 0V14.36L4.86 9.5v19.22a11.92 11.92 0 0 0 23.84 0V9.7z" class="logo-icon"/><path style="fill:#000" d="M54.58 33.56c-.66-.4-1.2-.92-1.62-1.6a7.22 7.22 0 0 1-.92-2.32c-.18-.88-.28-1.78-.28-2.74V14.14H46V26.9c0 1.64.2 3.2.62 4.7.4 1.5 1.04 2.82 1.92 3.96a9.55 9.55 0 0 0 3.44 2.72c1.4.68 3.1 1.02 5.08 1.02 1.92 0 3.58-.32 4.98-.98a9.44 9.44 0 0 0 3.44-2.64c.9-1.12 1.56-2.44 2-3.94.44-1.5.66-3.12.66-4.84V14.14h-5.76V26.9c0 .9-.1 1.8-.28 2.68a6.7 6.7 0 0 1-.88 2.34 4.68 4.68 0 0 1-4.16 2.24c-.98 0-1.8-.2-2.48-.6zm37.22 5.52h4.62V14.14h-5.76v14.64L79.04 14.14h-4.5v24.94h5.76V24.82zm17.12 0V14.14h-5.76v24.94zm6.18-7.98c.6 1.56 1.44 2.94 2.54 4.16a12.33 12.33 0 0 0 3.9 2.92c1.5.74 3.16 1.12 4.96 1.12 1.04 0 2.08-.14 3.16-.4s2.1-.62 3.06-1.12a9.78 9.78 0 0 0 2.54-1.82 7.5 7.5 0 0 0 1.68-2.46l-4.7-2.78a5 5 0 0 1-2.42 2.66c-.5.26-1.02.46-1.58.6a7.4 7.4 0 0 1-1.6.18c-1 0-1.9-.2-2.72-.62-.8-.4-1.5-.96-2.08-1.66a8.54 8.54 0 0 1-1.76-5.26c0-.92.12-1.82.38-2.72.26-.88.66-1.68 1.2-2.38a6 6 0 0 1 4.92-2.4 6.78 6.78 0 0 1 3.16.72 5.44 5.44 0 0 1 2.5 2.7l4.42-3.1a9.64 9.64 0 0 0-3.84-3.92 11.8 11.8 0 0 0-6.1-1.52c-1.98 0-3.72.36-5.28 1.08a12.41 12.41 0 0 0-6.38 6.84 12.63 12.63 0 0 0-.86 4.48c0 1.6.3 3.16.9 4.7zm42.38-16.96v9.66h-9.94v-9.66h-5.76v24.94h5.76V28.86h9.94v10.22h5.76V14.14zm18.24 19.88v-5.3h9.84v-4.68h-9.84V19.2h11.46v-5.06h-17.22v24.94h17.54v-5.06zm16.16-2.92c.6 1.56 1.44 2.94 2.54 4.16a12.33 12.33 0 0 0 3.9 2.92c1.5.74 3.16 1.12 4.96 1.12 1.04 0 2.08-.14 3.16-.4s2.1-.62 3.06-1.12a9.78 9.78 0 0 0 2.54-1.82 7.5 7.5 0 0 0 1.68-2.46l-4.7-2.78a5 5 0 0 1-2.42 2.66c-.5.26-1.02.46-1.58.6a7.4 7.4 0 0 1-1.6.18 6.14 6.14 0 0 1-4.78-2.28 8.54 8.54 0 0 1-1.78-5.26c0-.92.12-1.82.38-2.72.26-.88.66-1.68 1.2-2.38a6 6 0 0 1 4.92-2.4 6.78 6.78 0 0 1 3.16.72c.52.28.98.62 1.42 1.06.44.44.8.98 1.08 1.64l4.42-3.1a9.64 9.64 0 0 0-3.84-3.92 11.8 11.8 0 0 0-6.1-1.52c-1.98 0-3.72.36-5.28 1.08A12.41 12.41 0 0 0 191 26.4c0 1.6.28 3.16.88 4.7zm26.68 7.98V14.14h5.76V24.9l9.12-10.76h6.46l-9.34 11.14 9.98 13.8h-6.56l-7.06-10.04-2.6 2.7v7.34z" class="logo-name filled"/></svg>