<svg width="16" height="16" viewBox="0 0 16 16" fill="none" xmlns="http://www.w3.org/2000/svg">
<path d="M15.4458 6.98569L12.2008 1.64414C12.0972 1.4744 11.9306 1.35265 11.7375 1.30556C11.5443 1.25846 11.3403 1.28988 11.1703 1.39291L2.76367 6.50009H6.18052L11.6155 3.19809C11.6722 3.16374 11.7402 3.15327 11.8045 3.16897C11.8689 3.18467 11.9244 3.22526 11.9589 3.28184L12.4782 4.13656C12.5117 4.19347 12.5216 4.26119 12.506 4.32533C12.4903 4.38947 12.4503 4.44498 12.3943 4.48006L9.06947 6.50009H11.5302L13.3789 5.37899C13.4356 5.34474 13.5035 5.33435 13.5679 5.35009C13.6322 5.36583 13.6877 5.40641 13.7221 5.46296L14.6261 6.95009C14.6595 7.00706 14.6695 7.07481 14.6538 7.13898C14.6381 7.20316 14.5981 7.2587 14.5421 7.29384L13.75 7.77414V8.89366L15.1943 8.01616C15.363 7.91172 15.4839 7.74516 15.531 7.5524C15.578 7.35963 15.5474 7.15611 15.4458 6.98569Z" fill="#F70431"/>
<path d="M13.2268 7.57352C13.1857 7.41123 13.0922 7.26703 12.9608 7.16332C12.8294 7.05961 12.6674 7.0022 12.5 7H1.25C1.05115 7.00022 0.860516 7.07931 0.719911 7.21991C0.579306 7.36052 0.500218 7.55115 0.5 7.75V14C0.500218 14.1988 0.579306 14.3895 0.719911 14.5301C0.860516 14.6707 1.05115 14.7498 1.25 14.75H12.5C12.6988 14.7498 12.8895 14.6707 13.0301 14.5301C13.1707 14.3895 13.2498 14.1988 13.25 14V7.95557C13.2575 7.82776 13.2498 7.69949 13.2268 7.57352ZM6.75 11.75C6.81469 11.7524 6.87591 11.7798 6.92082 11.8264C6.96573 11.8731 6.99082 11.9353 6.99082 12C6.99082 12.0647 6.96573 12.1269 6.92082 12.1736C6.87591 12.2202 6.81469 12.2476 6.75 12.25C6.68531 12.2476 6.62409 12.2202 6.57918 12.1736C6.53427 12.1269 6.50918 12.0647 6.50918 12C6.50918 11.9353 6.53427 11.8731 6.57918 11.8264C6.62409 11.7798 6.68531 11.7524 6.75 11.75ZM6 11.75C6.06469 11.7524 6.12591 11.7798 6.17082 11.8264C6.21573 11.8731 6.24082 11.9353 6.24082 12C6.24082 12.0647 6.21573 12.1269 6.17082 12.1736C6.12591 12.2202 6.06469 12.2476 6 12.25C5.93531 12.2476 5.87409 12.2202 5.82918 12.1736C5.78427 12.1269 5.75918 12.0647 5.75918 12C5.75918 11.9353 5.78427 11.8731 5.82918 11.8264C5.87409 11.7798 5.93531 11.7524 6 11.75ZM4.25 11.75C4.31469 11.7524 4.37591 11.7798 4.42082 11.8264C4.46573 11.8731 4.49082 11.9353 4.49082 12C4.49082 12.0647 4.46573 12.1269 4.42082 12.1736C4.37591 12.2202 4.31469 12.2476 4.25 12.25C4.18531 12.2476 4.12409 12.2202 4.07918 12.1736C4.03427 12.1269 4.00918 12.0647 4.00918 12C4.00918 11.9353 4.03427 11.8731 4.07918 11.8264C4.12409 11.7798 4.18531 11.7524 4.25 11.75ZM3.75 12C3.74758 12.0647 3.72018 12.1259 3.67356 12.1708C3.62694 12.2157 3.56473 12.2408 3.5 12.2408C3.43527 12.2408 3.37306 12.2157 3.32644 12.1708C3.27982 12.1259 3.25242 12.0647 3.25 12C3.25242 11.9353 3.27982 11.8741 3.32644 11.8292C3.37306 11.7843 3.43527 11.7592 3.5 11.7592C3.56473 11.7592 3.62694 11.7843 3.67356 11.8292C3.72018 11.8741 3.74758 11.9353 3.75 12ZM1.74948 10.75C1.68385 10.748 1.62146 10.721 1.57508 10.6746C1.5287 10.6281 1.50184 10.5656 1.5 10.5V9C1.50232 8.93444 1.52941 8.87219 1.5758 8.8258C1.62219 8.77941 1.68444 8.75232 1.75 8.75H3.25C3.3163 8.75 3.37989 8.77634 3.42678 8.82322C3.47366 8.87011 3.5 8.9337 3.5 9V10.5C3.5 10.5663 3.47366 10.6299 3.42678 10.6768C3.37989 10.7237 3.3163 10.75 3.25 10.75H1.75H1.74948ZM3 12C2.99758 12.0647 2.97018 12.1259 2.92356 12.1708C2.87694 12.2157 2.81473 12.2408 2.75 12.2408C2.68527 12.2408 2.62306 12.2157 2.57644 12.1708C2.52982 12.1259 2.50242 12.0647 2.5 12C2.50242 11.9353 2.52982 11.8741 2.57644 11.8292C2.62306 11.7843 2.68527 11.7592 2.75 11.7592C2.81473 11.7592 2.87694 11.7843 2.92356 11.8292C2.97018 11.8741 2.99758 11.9353 3 12ZM11.5 13.25H2.25C2.1837 13.25 2.12011 13.2237 2.07322 13.1768C2.02634 13.1299 2 13.0663 2 13C2 12.9337 2.02634 12.8701 2.07322 12.8232C2.12011 12.7763 2.1837 12.75 2.25 12.75H11.5C11.5663 12.75 11.6299 12.7763 11.6768 12.8232C11.7237 12.8701 11.75 12.9337 11.75 13C11.75 13.0663 11.7237 13.1299 11.6768 13.1768C11.6299 13.2237 11.5663 13.25 11.5 13.25ZM7.25 12C7.25242 11.9353 7.27982 11.8741 7.32644 11.8292C7.37306 11.7843 7.43527 11.7592 7.5 11.7592C7.56473 11.7592 7.62694 11.7843 7.67356 11.8292C7.72018 11.8741 7.74758 11.9353 7.75 12C7.74758 12.0647 7.72018 12.1259 7.67356 12.1708C7.62694 12.2157 7.56473 12.2408 7.5 12.2408C7.43527 12.2408 7.37306 12.2157 7.32644 12.1708C7.27982 12.1259 7.25242 12.0647 7.25 12ZM8 12C8.00242 11.9353 8.02982 11.8741 8.07644 11.8292C8.12306 11.7843 8.18527 11.7592 8.25 11.7592C8.31473 11.7592 8.37694 11.7843 8.42356 11.8292C8.47018 11.8741 8.49758 11.9353 8.5 12C8.49758 12.0647 8.47018 12.1259 8.42356 12.1708C8.37694 12.2157 8.31473 12.2408 8.25 12.2408C8.18527 12.2408 8.12306 12.2157 8.07644 12.1708C8.02982 12.1259 8.00242 12.0647 8 12ZM8.75 12C8.75242 11.9353 8.77982 11.8741 8.82644 11.8292C8.87306 11.7843 8.93527 11.7592 9 11.7592C9.06473 11.7592 9.12694 11.7843 9.17356 11.8292C9.22018 11.8741 9.24758 11.9353 9.25 12C9.24758 12.0647 9.22018 12.1259 9.17356 12.1708C9.12694 12.2157 9.06473 12.2408 9 12.2408C8.93527 12.2408 8.87306 12.2157 8.82644 12.1708C8.77982 12.1259 8.75242 12.0647 8.75 12ZM9.5 12C9.50242 11.9353 9.52982 11.8741 9.57644 11.8292C9.62306 11.7843 9.68527 11.7592 9.75 11.7592C9.81473 11.7592 9.87694 11.7843 9.92356 11.8292C9.97018 11.8741 9.99758 11.9353 10 12C9.99758 12.0647 9.97018 12.1259 9.92356 12.1708C9.87694 12.2157 9.81473 12.2408 9.75 12.2408C9.68527 12.2408 9.62306 12.2157 9.57644 12.1708C9.52982 12.1259 9.50242 12.0647 9.5 12ZM10.25 12C10.2524 11.9353 10.2798 11.8741 10.3264 11.8292C10.3731 11.7843 10.4353 11.7592 10.5 11.7592C10.5647 11.7592 10.6269 11.7843 10.6736 11.8292C10.7202 11.8741 10.7476 11.9353 10.75 12C10.7476 12.0647 10.7202 12.1259 10.6736 12.1708C10.6269 12.2157 10.5647 12.2408 10.5 12.2408C10.4353 12.2408 10.3731 12.2157 10.3264 12.1708C10.2798 12.1259 10.2524 12.0647 10.25 12ZM11 12C11.0024 11.9353 11.0298 11.8741 11.0764 11.8292C11.1231 11.7843 11.1853 11.7592 11.25 11.7592C11.3147 11.7592 11.3769 11.7843 11.4236 11.8292C11.4702 11.8741 11.4976 11.9353 11.5 12C11.4976 12.0647 11.4702 12.1259 11.4236 12.1708C11.3769 12.2157 11.3147 12.2408 11.25 12.2408C11.1853 12.2408 11.1231 12.2157 11.0764 12.1708C11.0298 12.1259 11.0024 12.0647 11 12ZM11.5 9.5H7C6.93519 9.49775 6.87379 9.47043 6.82874 9.42379C6.78369 9.37716 6.75851 9.31484 6.75851 9.25C6.75851 9.18516 6.78369 9.12284 6.82874 9.07621C6.87379 9.02957 6.93519 9.00225 7 9H11.5C11.5648 9.00225 11.6262 9.02957 11.6713 9.07621C11.7163 9.12284 11.7415 9.18516 11.7415 9.25C11.7415 9.31484 11.7163 9.37716 11.6713 9.42379C11.6262 9.47043 11.5648 9.49775 11.5 9.5ZM11.5 8.75H8.25C8.18519 8.74775 8.12379 8.72043 8.07874 8.67379C8.03369 8.62715 8.00851 8.56484 8.00851 8.5C8.00851 8.43516 8.03369 8.37285 8.07874 8.32621C8.12379 8.27957 8.18519 8.25225 8.25 8.25H11.5C11.5648 8.25225 11.6262 8.27957 11.6713 8.32621C11.7163 8.37285 11.7415 8.43516 11.7415 8.5C11.7415 8.56484 11.7163 8.62715 11.6713 8.67379C11.6262 8.72043 11.5648 8.74775 11.5 8.75Z" fill="#F70431"/>
<path d="M2.49072 10.25H3.00002V10H2.62782C2.59676 10.0906 2.55039 10.1751 2.49072 10.25Z" fill="#F70431"/>
<path d="M2 10.0443C2.04447 10.0136 2.08219 9.97419 2.11085 9.9284C2.1395 9.88262 2.15848 9.83145 2.16663 9.77806C2.14954 9.66332 2.09009 9.55915 2 9.48608V10.0443Z" fill="#F70431"/>
<path d="M2.60955 9.5H2.99997V9.25H2.46045C2.52192 9.32572 2.57214 9.40993 2.60955 9.5Z" fill="#F70431"/>
</svg>
