<?xml version="1.0" encoding="UTF-8" standalone="no"?>
<!-- Created with Inkscape (http://www.inkscape.org/) -->

<svg
   width="135mm"
   height="100mm"
   viewBox="0 0 135 100"
   version="1.1"
   id="svg434"
   xml:space="preserve"
   inkscape:version="1.2.2 (732a01da63, 2022-12-09)"
   sodipodi:docname="quote.svg"
   xmlns:inkscape="http://www.inkscape.org/namespaces/inkscape"
   xmlns:sodipodi="http://sodipodi.sourceforge.net/DTD/sodipodi-0.dtd"
   xmlns:xlink="http://www.w3.org/1999/xlink"
   xmlns="http://www.w3.org/2000/svg"
   xmlns:svg="http://www.w3.org/2000/svg"><sodipodi:namedview
     id="namedview436"
     pagecolor="#ffffff"
     bordercolor="#000000"
     borderopacity="0.25"
     inkscape:showpageshadow="2"
     inkscape:pageopacity="0.0"
     inkscape:pagecheckerboard="0"
     inkscape:deskcolor="#d1d1d1"
     inkscape:document-units="mm"
     showgrid="false"
     inkscape:zoom="1.0670983"
     inkscape:cx="324.71234"
     inkscape:cy="219.28626"
     inkscape:window-width="1920"
     inkscape:window-height="1027"
     inkscape:window-x="-8"
     inkscape:window-y="-8"
     inkscape:window-maximized="1"
     inkscape:current-layer="layer1" /><defs
     id="defs431"><linearGradient
       id="paint0_linear_8_1885"
       x1="2.47259"
       y1="29.5684"
       x2="10.5785"
       y2="24.6905"
       gradientUnits="userSpaceOnUse"><stop
         stop-color="#30ABBA"
         id="stop1206" /><stop
         offset="1"
         stop-color="#6165D7"
         id="stop1208" /></linearGradient><linearGradient
       id="paint1_linear_8_1885"
       x1="4.60512"
       y1="8.69773"
       x2="8.48796"
       y2="-2.14369"
       gradientUnits="userSpaceOnUse"><stop
         stop-color="#30ABBA"
         id="stop1211" /><stop
         offset="1"
         stop-color="#6165D7"
         id="stop1213" /></linearGradient><linearGradient
       id="paint2_linear_8_1885"
       x1="4.34877"
       y1="8.96906"
       x2="8.64688"
       y2="-2.58094"
       gradientUnits="userSpaceOnUse"><stop
         stop-color="#30ABBA"
         id="stop1216" /><stop
         offset="1"
         stop-color="#6165D7"
         id="stop1218" /></linearGradient><linearGradient
       id="paint3_linear_8_1885"
       x1="124.359"
       y1="22.043"
       x2="133.694"
       y2="-12.6406"
       gradientUnits="userSpaceOnUse"><stop
         stop-color="#30ABBA"
         id="stop1221" /><stop
         offset="1"
         stop-color="#6165D7"
         id="stop1223" /></linearGradient><clipPath
       id="clip0_8_1885"><rect
         width="200"
         height="40"
         fill="white"
         id="rect1226" /></clipPath><linearGradient
       inkscape:collect="always"
       xlink:href="#paint3_linear_8_1885"
       id="linearGradient1799"
       x1="32.084415"
       y1="71.740257"
       x2="98.707794"
       y2="30.012987"
       gradientUnits="userSpaceOnUse" /></defs><g
     inkscape:label="Слой 1"
     inkscape:groupmode="layer"
     id="layer1"><path
       d="M 55.970172,8.9519571 C 34.546713,14.893811 20.603666,27.312424 17.136363,48.924458 c -0.943952,5.878614 0.374417,1.438689 4.363788,-1.544094 13.025464,-9.74149 38.636052,-6.292309 42.19037,15.954744 C 70.84134,102.72528 21.558161,109.54459 6.9717552,87.79027 3.5782774,82.733756 1.331781,76.831429 0.52230482,70.349402 -2.9924543,42.157854 11.464748,17.049215 36.861762,5.2550879 41.560425,3.0733325 46.512205,1.3658718 51.841043,0.11163253 c 2.66837,-0.53753394 4.606371,0.91169147 5.500226,3.36748707 0.756739,2.0948039 1.015137,4.405667 -1.371097,5.4728375 z m 70.606418,0 C 105.15314,14.893811 91.20747,27.312424 87.742798,48.924458 c -0.943952,5.878614 0.374417,1.438689 4.363798,-1.544094 13.025454,-9.74149 38.636034,-6.292309 42.187724,15.954744 C 141.45041,102.72528 92.164596,109.54459 77.57819,87.79027 74.184722,82.733756 71.938221,76.831429 71.128744,70.349402 67.613979,42.157854 82.071183,17.049215 107.46819,5.2550879 c 4.69867,-2.1817554 9.64781,-3.8892161 14.97928,-5.14345537 2.66838,-0.53753394 4.60638,0.91169147 5.50023,3.36748707 0.75674,2.0948039 1.01514,4.405667 -1.37111,5.4728375 z"
       id="path2"
       style="stroke-width:0.263585;fill-opacity:1;fill:url(#linearGradient1799)" /></g></svg>
