<svg xmlns="http://www.w3.org/2000/svg" viewBox="0 0 484.25 563.47"><defs><style>.cls-1{fill:#fc9d8a;}</style></defs><g id="objects"><polygon class="cls-1" points="205.1 420.78 124.82 340.5 168.83 296.49 199.06 326.72 312.78 179.31 362.06 217.32 205.1 420.78"/><path class="cls-1" d="M302.87,585l-3.63-.65c-2.49-.44-61.66-11.45-120.65-62.64-53.76-46.65-117.84-137-117.84-302.57V115.69H81.5c129.87,0,205.55-78,206.3-78.75l14.66-15.41,15.09,15c.76.76,81.36,79.17,206.7,79.17H545V219.14c0,72.57-12.24,136.88-36.38,191.13-19.61,44.05-47,81.55-81.46,111.44-59,51.19-118.16,62.2-120.65,62.64ZM102.25,156.61v62.53c0,119.35,34.28,210.12,101.91,269.81,42.64,37.62,86,50.56,98.72,53.72,12.63-3.14,56-16.06,98.71-53.72,67.62-59.69,101.92-150.46,101.92-269.81V156.57C403.4,150.6,332.57,102.8,303.19,79,274.56,103.1,205.42,150.82,102.25,156.61Z" transform="translate(-60.75 -21.53)"/></g></svg>