<svg width="480" height="480" viewBox="0 0 480 480" fill="none" xmlns="http://www.w3.org/2000/svg">
<path d="M446.607 215.565C437.891 158.519 430.895 119.096 399.422 97.4932C346.337 61.054 287.052 120.216 211.855 80.5138C174.83 60.9708 173.442 38.3123 142.085 35.304C86.6089 29.9834 41.1783 96.1891 37.2403 101.871C13.3176 136.363 5.32636 178.429 15.025 218.531C21.3233 244.578 25.5862 271.536 24.4117 298.302C22.3778 344.885 23.5476 388.365 68.7557 416.146C109.12 440.949 159.919 462.828 208.384 466.66C241.319 469.264 278.254 465.05 309.995 456.475C471.771 412.776 458.589 294.001 446.607 215.565Z" fill="#DFEFFE"/>
<path d="M91.6086 228.471C58.5745 228.207 31.1699 200.82 31.1699 167.424C31.1699 134.029 58.5745 108.141 91.6086 109.687C123.943 111.199 149.749 138.544 149.749 170.673C149.749 202.801 123.943 228.729 91.6086 228.471Z" fill="url(#paint0_linear_17_58)"/>
<path d="M95.6137 228.471C62.5812 228.207 35.1766 200.82 35.1766 167.424C35.1766 134.029 62.5812 108.141 95.6137 109.687C127.948 111.199 153.754 138.544 153.754 170.673C153.754 202.801 127.948 228.729 95.6137 228.471Z" fill="#D8DEE8"/>
<path d="M149.817 170.564C149.817 200.563 125.788 224.65 95.6138 224.375C64.8328 224.089 39.4204 198.641 39.4204 167.542C39.4204 136.442 64.8328 112.385 95.6138 113.784C125.788 115.155 149.817 140.566 149.817 170.564Z" fill="white"/>
<path d="M60.437 411.979C27.4046 411.718 0 384.329 0 350.934C0 317.538 27.4046 291.645 60.437 293.196C92.7734 294.71 118.573 322.049 118.573 354.18C118.573 386.312 92.7734 412.24 60.437 411.979Z" fill="url(#paint1_linear_17_58)"/>
<path d="M64.4438 411.979C31.4098 411.718 4.00037 384.329 4.00037 350.934C4.00037 317.538 31.4098 291.645 64.4438 293.196C96.7786 294.71 122.585 322.049 122.585 354.18C122.585 386.312 96.7786 412.24 64.4438 411.979Z" fill="#D8DEE8"/>
<path d="M118.647 354.074C118.647 384.072 94.6184 408.16 64.4439 407.886C33.6613 407.598 8.25049 382.151 8.25049 351.051C8.25049 319.952 33.6613 295.895 64.4439 297.293C94.6184 298.665 118.647 324.075 118.647 354.074Z" fill="white"/>
<path d="M58.8384 336.498V310.312H41.8525V336.498C41.8527 337.744 41.4686 338.959 40.7527 339.978C40.0367 340.997 39.0238 341.77 37.8521 342.192C22.228 347.81 10.9691 363.229 10.9691 377.44C10.9691 395.222 28.5983 404.376 50.3446 404.376C72.091 404.376 89.7202 395.222 89.7202 377.44C89.7202 363.229 78.4581 347.81 62.8372 342.192C61.666 341.769 60.6535 340.996 59.9379 339.977C59.2222 338.958 58.8383 337.743 58.8384 336.498Z" fill="url(#paint2_linear_17_58)"/>
<path d="M17.7107 365.13C15.2048 368.591 13.7903 372.503 13.7903 376.651C13.7903 390.757 30.1569 402.193 50.3447 402.193C70.5325 402.193 86.8991 390.757 86.8991 376.651C86.8991 372.507 85.4862 368.594 82.9787 365.13H17.7107Z" fill="url(#paint3_linear_17_58)"/>
<path d="M50.3448 367.96C68.3601 367.96 82.9644 366.693 82.9644 365.13C82.9644 363.566 68.3601 362.299 50.3448 362.299C32.3295 362.299 17.7252 363.566 17.7252 365.13C17.7252 366.693 32.3295 367.96 50.3448 367.96Z" fill="url(#paint4_linear_17_58)"/>
<g style="mix-blend-mode:soft-light" opacity="0.3">
<path d="M53.7546 392.666C49.3573 392.652 40.2779 392.621 33.2948 385.846C29.0687 381.747 23.8009 373.421 26.3468 366.545C30.208 356.113 48.9813 357.312 50.2806 348.658C50.8711 344.723 47.0563 344.026 46.1634 337.206C45.1777 329.685 49.3109 326.702 49.2517 319.834C49.2293 317.368 48.6645 314.144 46.485 310.312H41.8525V336.498C41.8527 337.744 41.4686 338.959 40.7527 339.978C40.0367 340.997 39.0238 341.77 37.8521 342.192C22.228 347.81 10.9691 363.229 10.9691 377.44C10.9691 395.222 28.5983 404.376 50.3446 404.376C72.091 404.376 89.7202 395.222 89.7202 377.44C89.7187 376.418 89.6616 375.396 89.549 374.379C83.4459 381.199 70.6957 392.724 53.7546 392.666Z" fill="white"/>
</g>
<path d="M58.1295 313.53H42.5646C42.2097 313.53 41.8583 313.46 41.5304 313.324C41.2025 313.189 40.9045 312.989 40.6535 312.739C40.4026 312.488 40.2035 312.19 40.0677 311.862C39.9318 311.534 39.8619 311.182 39.8619 310.827C39.8628 310.111 40.1479 309.425 40.6547 308.918C41.1614 308.412 41.8484 308.128 42.5646 308.128H58.1343C58.8511 308.128 59.5386 308.413 60.0454 308.92C60.5523 309.426 60.837 310.114 60.837 310.831C60.8366 311.186 60.7662 311.537 60.6299 311.865C60.4936 312.193 60.2941 312.491 60.0426 312.741C59.7912 312.992 59.4928 313.191 59.1646 313.326C58.8363 313.461 58.4846 313.531 58.1295 313.53Z" fill="url(#paint5_linear_17_58)"/>
<path d="M96.6281 295.1C109.849 295.506 120.951 303.581 123.116 313.795C123.118 313.808 123.12 313.822 123.124 313.835C123.24 314.395 123.33 314.96 123.393 315.531C123.393 315.569 123.402 315.606 123.405 315.645C123.433 315.912 123.455 316.179 123.469 316.445C123.469 316.493 123.469 316.542 123.469 316.59C123.484 316.865 123.492 317.142 123.492 317.419C123.492 329.292 111.374 338.292 96.6217 337.527C96.2281 337.508 95.8392 337.479 95.4504 337.445L95.3368 337.436C94.9698 337.402 94.605 337.363 94.2423 337.319L94.0726 337.298C93.7206 337.253 93.3712 337.2 93.0245 337.138L92.8293 337.106C92.4885 337.048 92.1508 336.988 91.8148 336.92L91.61 336.879C91.2755 336.81 90.9443 336.738 90.6147 336.66L90.4242 336.612C90.1042 336.532 89.7714 336.452 89.4481 336.359L89.2769 336.309C88.9857 336.228 88.6977 336.142 88.4128 336.052L88.1952 335.983C87.9056 335.89 87.6191 335.792 87.3327 335.69C87.2719 335.669 87.2079 335.65 87.1471 335.628C77.3396 332.09 70.446 324.129 70.446 315.225C70.4556 303.672 82.0889 294.653 96.6281 295.1Z" fill="url(#paint6_linear_17_58)"/>
<path d="M67.6571 315.236C67.6571 326.803 79.2888 336.78 93.8296 337.532C108.582 338.297 120.7 329.297 120.7 317.424C120.7 305.551 108.582 295.553 93.8296 295.1C79.2888 294.653 67.6571 303.672 67.6571 315.236Z" fill="url(#paint7_linear_17_58)"/>
<g style="mix-blend-mode:multiply" opacity="0.3">
<path d="M87.4112 331.811C90.5939 325.713 87.376 319.726 91.6837 315.867C96.0778 311.929 101.816 315.992 108.029 312.873C110.441 311.663 113.129 309.265 115.133 304.186C118.621 307.92 120.7 312.518 120.7 317.422C120.7 329.295 108.582 338.295 93.8295 337.53C90.5956 337.368 87.4031 336.731 84.3549 335.639C85.6071 334.568 86.6444 333.269 87.4112 331.811Z" fill="url(#paint8_linear_17_58)"/>
</g>
<path d="M95.1705 316.495C95.1748 316.776 95.1227 317.055 95.0173 317.315C94.9119 317.575 94.7553 317.811 94.5568 318.01C94.3583 318.208 94.1219 318.365 93.8618 318.47C93.6016 318.576 93.3229 318.628 93.0423 318.623C92.4714 318.604 91.9305 318.364 91.5338 317.953C91.1372 317.542 90.9161 316.993 90.9172 316.422C90.9131 316.142 90.9651 315.864 91.0699 315.605C91.1747 315.346 91.3303 315.11 91.5276 314.912C91.7249 314.714 91.9598 314.557 92.2186 314.451C92.4773 314.345 92.7546 314.292 93.0343 314.295C93.607 314.31 94.1511 314.549 94.5502 314.96C94.9493 315.371 95.1719 315.922 95.1705 316.495Z" fill="white"/>
<path d="M87.6896 329.545C86.5757 329.527 85.4959 329.158 84.6045 328.49C80.9033 325.669 81.6505 318.249 86.3151 311.516C89.7922 306.494 94.5464 303.23 98.4348 303.23C99.5762 303.204 100.696 303.54 101.635 304.19C105.543 306.965 104.77 314.609 99.8878 321.498C96.3146 326.53 91.53 329.679 87.6896 329.545ZM98.4396 304.593C95.0232 304.593 90.5843 307.698 87.3888 312.304C83.2699 318.24 82.3466 325.127 85.3582 327.415C86.0338 327.912 86.8491 328.184 87.688 328.191C91.0484 328.303 95.5033 325.296 98.7708 320.68C103.05 314.631 104.007 307.558 100.851 305.307C100.144 304.822 99.3017 304.572 98.4444 304.593H98.4396Z" fill="white"/>
<path d="M98.5084 329.924C94.6056 329.786 89.8259 326.335 86.3295 321.173C81.6538 314.266 80.9017 306.845 84.5901 304.169C85.4871 303.534 86.5651 303.204 87.6641 303.23C91.4821 303.23 96.2698 306.523 99.859 311.666C104.783 318.721 105.608 326.416 101.707 329.07C100.761 329.692 99.639 329.992 98.5084 329.924ZM87.6657 304.574C86.8375 304.549 86.0233 304.791 85.3438 305.265C82.3419 307.435 83.2732 314.337 87.4016 320.419C90.6148 325.154 95.0825 328.437 98.5053 328.551C99.3566 328.604 100.202 328.379 100.915 327.911C104.071 325.759 103.067 318.63 98.7533 312.434C95.4713 307.726 91.0148 304.58 87.6657 304.574Z" fill="white"/>
<path d="M93.3319 324.307L92.9334 324.467C89.0738 324.307 85.4814 323.437 82.8027 321.875C80.012 320.248 78.503 318.174 78.535 315.955C78.5991 311.57 84.7757 308.202 92.7478 308.255L93.1447 308.272C98.6301 308.387 103.695 310.143 106.311 312.86C107.511 314.106 108.138 315.338 108.122 316.758C108.069 321.32 101.504 324.693 93.3319 324.307ZM92.7494 309.631C85.6158 309.57 79.8712 312.444 79.82 316.031C79.7944 317.74 81.0681 319.43 83.4188 320.797C85.9183 322.25 89.2978 323.135 92.9494 323.285L93.3287 323.298C100.621 323.491 106.693 320.617 106.737 316.897C106.749 315.839 106.272 314.802 105.324 313.814C102.959 311.351 98.2684 309.755 93.127 309.639L92.7494 309.631Z" fill="white"/>
<path d="M229.246 157.485L246.305 193.179L285.02 201.33L286.033 202.127L286.319 201.764L286.398 201.665L268.577 164.56L228.332 155.979L228.235 156.104L227.95 156.468L229.246 157.485Z" fill="url(#paint9_linear_17_58)"/>
<path d="M268.281 165.011L286.025 202.137L245.76 193.661L228.015 156.535L268.281 165.011Z" fill="url(#paint10_linear_17_58)"/>
<path d="M239.402 168.083L225.93 185.221L225.974 185.254C225.334 186.227 232.147 192.207 240.922 199.107C248.984 205.444 255.903 210.358 257.583 210.451C257.64 210.459 257.698 210.455 257.753 210.439C257.808 210.423 257.86 210.396 257.904 210.359L257.744 210.236L271.215 193.098C271.321 192.963 271.406 192.813 271.468 192.653C271.649 192.205 271.71 191.716 271.643 191.237C271.281 187.717 266.322 181.46 259.089 175.775C251.856 170.089 244.604 166.748 241.1 167.228C240.346 167.335 239.772 167.612 239.402 168.083Z" fill="url(#paint11_linear_17_58)"/>
<path d="M274.99 179.275L276.005 180.704C276.354 180.845 276.462 181.234 276.499 181.728L278.035 205.219V205.235L278.423 210.779C278.435 211.1 278.851 211.343 279.175 211.312C279.498 211.282 279.871 211.011 279.858 210.672L279.464 204.651L277.923 181.64C277.835 180.327 276.832 179.152 275.523 179.24L274.99 179.275Z" fill="url(#paint12_linear_17_58)"/>
<path d="M280.639 205.922L280.01 205.058C279.898 204.896 279.744 204.766 279.566 204.681C279.387 204.597 279.189 204.561 278.992 204.578C278.797 204.595 278.61 204.663 278.45 204.775C278.29 204.888 278.163 205.041 278.082 205.218L277.63 206.196C277.518 206.429 277.463 206.685 277.47 206.943L277.994 214.843C278.005 215.013 278.879 215.093 279.783 215.034C280.687 214.975 281.543 214.779 281.53 214.61L281.005 206.687C280.991 206.407 280.789 206.151 280.639 205.922Z" fill="url(#paint13_linear_17_58)"/>
<path d="M210.946 240.709C198.487 244.474 182.55 259.133 174.214 267.171C154.99 285.708 118.893 348.25 139.926 370.584C154.231 385.786 179.373 379.395 190.458 364.073C198.619 352.806 193.674 342.551 191.957 322.264C190.112 300.434 197.942 262.276 210.946 240.709Z" fill="url(#paint14_linear_17_58)"/>
<path d="M210.946 240.709C198.487 244.474 182.55 259.133 174.214 267.171C154.99 285.708 118.893 348.25 139.926 370.584C154.231 385.786 179.373 379.395 190.458 364.073C198.619 352.806 193.674 342.551 191.957 322.264C190.112 300.434 197.942 262.276 210.946 240.709Z" fill="url(#paint15_linear_17_58)"/>
<path d="M200.449 246.721C191.861 256.922 188.846 256.069 182.153 270.113C172.072 291.27 179.496 315.452 180.553 341.511C181.714 370.095 180.572 423.301 166.205 450.803C165.954 451.283 165.833 451.382 165.842 452.099C166.284 481.249 304.016 460.828 303.798 450.179C302.713 397.31 268.274 281.535 276.808 243.242C272.936 243.172 265.276 239.128 262.158 238.256C248.783 234.515 236.704 233.885 224.055 235.606C219.429 236.235 217.099 237.301 213.723 238.599C208.239 240.701 204.701 243.831 200.449 246.721Z" fill="url(#paint16_linear_17_58)"/>
<path d="M200.449 246.721C191.861 256.922 188.846 256.069 182.153 270.113C172.072 291.27 179.496 315.452 180.553 341.511C181.714 370.095 180.572 423.301 166.205 450.803C165.954 451.283 165.833 451.382 165.842 452.099C166.284 481.249 304.016 460.828 303.798 450.179C302.713 397.31 268.274 281.535 276.808 243.242C272.936 243.172 265.276 239.128 262.158 238.256C248.783 234.515 236.704 233.885 224.055 235.606C219.429 236.235 217.099 237.301 213.723 238.599C208.239 240.701 204.701 243.831 200.449 246.721Z" fill="url(#paint17_linear_17_58)"/>
<path d="M249.467 206.432C249.287 215.306 252.199 228.095 253.346 236.054C254.494 244.013 238.228 244.348 232.912 240.658C228.03 237.269 231.705 228.079 236.415 223.256C241.124 218.433 244.667 211.37 249.467 206.432Z" fill="url(#paint18_linear_17_58)"/>
<path d="M249.467 206.432C249.287 215.306 252.199 228.095 253.346 236.054C254.494 244.013 238.228 244.348 232.912 240.658C228.03 237.269 231.705 228.079 236.415 223.256C241.124 218.433 244.667 211.37 249.467 206.432Z" fill="url(#paint19_linear_17_58)"/>
<path d="M225.001 203.656C217.502 197.038 216.128 173.559 223.721 168.961C227.401 166.732 233.83 178.311 238.01 180.546C243.625 183.547 258.859 186.883 261.878 192.9C264.155 197.438 259.582 206.844 257.745 210.207C255.665 214.011 255.423 212.71 252.929 215.411C249.469 219.156 244.862 223.538 241.35 227.732C240.588 224.54 240.79 224.542 239.447 220.416C238.932 218.831 234.792 212.126 232.779 209.535C231.505 207.903 225.919 204.468 225.001 203.656Z" fill="#010648"/>
<path d="M249.042 221.913C243.281 227.248 240.455 233.737 230 231.793C220.634 230.052 219.064 206.67 227.58 199.772C230.422 197.471 234.571 197.495 238.101 198.546C240.182 199.165 242.364 200.554 244.448 201.353C246.368 202.089 247.994 201.193 249.757 203.143C251.965 205.582 250.466 211.802 249.202 214.809C250.162 213.96 251.258 212.764 252.525 212.37C253.42 212.091 254.972 210.61 255.815 211.89C257.191 213.989 254.207 217.99 252.455 219.635C251.65 220.392 250.023 221.316 249.042 221.913Z" fill="url(#paint20_linear_17_58)"/>
<path d="M249.042 221.913C243.281 227.248 240.455 233.737 230 231.793C220.634 230.052 219.064 206.67 227.58 199.772C230.422 197.471 234.571 197.495 238.101 198.546C240.182 199.165 242.364 200.554 244.448 201.353C246.368 202.089 247.994 201.193 249.757 203.143C251.965 205.582 250.466 211.802 249.202 214.809C250.162 213.96 251.258 212.764 252.525 212.37C253.42 212.091 254.972 210.61 255.815 211.89C257.191 213.989 254.207 217.99 252.455 219.635C251.65 220.392 250.023 221.316 249.042 221.913Z" fill="url(#paint21_linear_17_58)"/>
<path d="M250.428 201.647C249.147 202.388 251.428 204.756 251.085 207.099C250.42 211.65 248.968 219.864 242.327 220.659C238.402 221.129 234.29 217.619 230.166 217.204C227.617 216.943 224.806 217.081 222.272 217.764C220.632 222.662 220.565 230.372 224.814 233.407C229.388 236.675 232.387 234.976 237.245 233.567C240.497 232.63 244.084 229.823 246.129 226.634C248.259 223.31 249.821 219.822 251.935 216.326C253.101 214.394 254.513 211.976 255.887 209.952C256.26 209.402 256.83 208.521 257.1 207.792C256.007 206.741 252.285 200.575 250.428 201.647Z" fill="#010648"/>
<path d="M227.451 221.116C229.384 222.195 231.649 222.187 233.752 222.216C233.853 222.216 234.307 222.038 234.133 222.42C233.477 223.861 230.632 224.355 229.188 223.937C228.163 223.643 226.43 222.392 226.615 221.27C226.694 220.798 227.259 221.216 227.451 221.116Z" fill="white"/>
<path style="mix-blend-mode:multiply" opacity="0.3" d="M212.539 415.282C208.842 411.108 202.963 404.468 202.617 395.2C201.72 371.369 238.581 362.089 237.13 342.697C236.01 327.623 213.438 329.323 200.598 302.566C198.393 297.972 190.326 280.512 196.177 260.741C198.513 252.844 202.352 247.005 205.219 243.334C203.635 244.454 202.097 245.605 200.452 246.722C191.864 256.923 188.85 256.07 182.156 270.113C172.075 291.27 179.5 315.452 180.556 341.511C181.718 370.095 180.575 423.301 166.209 450.803C165.957 451.283 165.789 451.592 165.845 452.099C169.059 481.075 304.019 460.828 303.801 450.179C303.67 443.804 303.051 436.509 302.084 428.553C297.298 429.867 239.009 445.172 212.539 415.282Z" fill="url(#paint22_linear_17_58)"/>
<path d="M173.848 323.746C166.313 323.368 171.518 318.812 169.236 319.475C167.807 319.889 132.847 354.263 143.864 372.396C154.371 389.691 198.017 377.963 213.396 372.479C221.944 369.431 247.328 359.998 262.746 335.437C264.132 333.23 265.17 331.327 265.858 329.996C232.165 325.576 216.029 324.517 207.576 324.471C202.155 324.45 196.686 324.89 173.848 323.746Z" fill="#30ABBA"/>
<path d="M186.581 320.255C187.531 327.845 191.451 351.276 211.238 370.475C215.173 374.293 241.859 399.318 279.274 393.012C308.511 388.083 334.547 365.687 340.561 337.715C352.311 283.105 282.532 234.929 266.508 243.189C255.751 248.735 252.681 288.24 268.78 308.204C272.28 312.542 278.786 318.564 277.778 326.126C276.818 333.386 269.457 337.967 265.296 340.488C245.662 352.367 202.645 321.705 191.264 319.188C190.45 319.169 189.832 318.383 186.581 320.255Z" fill="url(#paint23_linear_17_58)"/>
<path d="M186.581 320.255C187.531 327.845 191.451 351.276 211.238 370.475C215.173 374.293 241.859 399.318 279.274 393.012C308.511 388.083 334.547 365.687 340.561 337.715C352.311 283.105 282.532 234.929 266.508 243.189C255.751 248.735 252.681 288.24 268.78 308.204C272.28 312.542 278.786 318.564 277.778 326.126C276.818 333.386 269.457 337.967 265.296 340.488C245.662 352.367 202.645 321.705 191.264 319.188C190.45 319.169 189.832 318.383 186.581 320.255Z" fill="url(#paint24_linear_17_58)"/>
<path style="mix-blend-mode:multiply" opacity="0.3" d="M290.971 307.948C284.191 301.08 276.338 297.462 267.503 294.748C265.298 294.15 263.091 293.598 260.909 293.026C262.714 298.64 265.3 303.88 268.786 308.204C272.273 312.528 278.792 318.564 277.784 326.126C276.824 333.386 269.463 337.967 265.303 340.488C245.667 352.367 202.651 321.705 191.271 319.188C190.45 319.162 189.831 318.388 186.582 320.257C186.821 322.159 187.246 325.057 188.061 328.637C204.206 323.467 221.722 339.665 235.684 347.583C253.628 357.733 275.955 364.295 293.45 350.889C306.563 341.068 301.809 319.218 290.971 307.948Z" fill="url(#paint25_linear_17_58)"/>
<path style="mix-blend-mode:multiply" opacity="0.3" d="M299.553 254.683C296.492 264.975 296.122 275.398 302.257 285.34C311.098 299.355 320.979 311.057 324.572 326.739C327.793 340.052 325.852 353.153 322.011 366.176C320.901 369.646 319.182 372.649 317.072 375.349C328.78 365.468 337.416 352.356 340.567 337.713C347.966 303.328 323.031 271.484 299.553 254.683Z" fill="url(#paint26_linear_17_58)"/>
<path d="M262.749 335.436C263.683 337.669 268.295 339.959 270.534 339.699C274.286 339.264 276.934 336.707 279.288 335.593C281.391 334.596 286.084 333.246 286.364 331.577C286.899 328.415 281.77 327.525 278.763 327.22C274.547 326.792 270.049 328.02 265.861 330.002C264.816 331.831 263.648 333.625 262.749 335.436Z" fill="url(#paint27_linear_17_58)"/>
<path d="M262.749 335.436C263.683 337.669 268.295 339.959 270.534 339.699C274.286 339.264 276.934 336.707 279.288 335.593C281.391 334.596 286.084 333.246 286.364 331.577C286.899 328.415 281.77 327.525 278.763 327.22C274.547 326.792 270.049 328.02 265.861 330.002C264.816 331.831 263.648 333.625 262.749 335.436Z" fill="url(#paint28_linear_17_58)"/>
<path d="M179.834 324.028C194.556 326.097 197.964 325.081 198.372 323.783C198.894 322.125 194.925 318.776 190.691 318.198C186.387 317.614 182.025 319.915 179.834 324.028Z" fill="url(#paint29_linear_17_58)"/>
<path d="M179.834 324.028C194.556 326.097 197.964 325.081 198.372 323.783C198.894 322.125 194.925 318.776 190.691 318.198C186.387 317.614 182.025 319.915 179.834 324.028Z" fill="url(#paint30_linear_17_58)"/>
<path d="M54.5659 173.09C52.7298 173.169 50.921 172.623 49.4357 171.541C46.1394 169.086 45.7857 164.628 48.6484 161.619L90.4914 117.227C91.1928 116.506 92.0376 115.939 92.9713 115.564C93.9051 115.189 94.9072 115.014 95.9128 115.05C96.9248 115.074 97.9213 115.303 98.8422 115.723C99.763 116.143 100.589 116.746 101.27 117.495L115.281 133.12L131.203 115.614C133.586 112.995 137.709 112.837 140.414 115.232C143.118 117.627 143.387 121.633 141.054 124.252L120.412 147.408C119.76 148.128 118.966 148.704 118.08 149.101C117.194 149.498 116.236 149.707 115.265 149.715C114.295 149.722 113.333 149.529 112.441 149.146C111.549 148.764 110.746 148.2 110.082 147.492L95.9128 131.997L60.4129 170.488C58.8842 172.093 56.7821 173.029 54.5659 173.09Z" fill="url(#paint31_linear_17_58)"/>
<path d="M145.512 127.613L127.977 112.227L150.479 104.671H152.05L146.93 127.473L145.512 127.613Z" fill="url(#paint32_linear_17_58)"/>
<path d="M56.131 173.09C54.2948 173.169 52.4861 172.623 51.0008 171.541C47.7044 169.086 47.3508 164.628 50.2135 161.619L92.0629 117.227C92.7642 116.506 93.609 115.939 94.5428 115.564C95.4766 115.189 96.4786 115.014 97.4843 115.05C98.4963 115.074 99.4928 115.303 100.414 115.723C101.335 116.143 102.161 116.746 102.842 117.495L116.853 133.12L132.775 115.614C135.157 112.995 139.281 112.837 141.985 115.232C144.689 117.627 144.958 121.633 142.625 124.252L121.983 147.408C121.331 148.128 120.537 148.704 119.652 149.101C118.766 149.498 117.807 149.707 116.837 149.715C115.866 149.722 114.904 149.529 114.012 149.146C113.12 148.764 112.317 148.2 111.654 147.492L97.4843 131.997L61.9844 170.488C60.4541 172.095 58.3494 173.03 56.131 173.09Z" fill="url(#paint33_linear_17_58)"/>
<path d="M146.93 127.473L129.549 112.227L152.05 104.671L146.93 127.473Z" fill="url(#paint34_linear_17_58)"/>
<path d="M107.084 137.015C107.084 137.015 113.164 138.714 113.804 147.497C112.809 147.429 110.492 147.497 110.492 147.497C110.492 147.497 110.921 141.11 106.596 139.869C106.951 139.125 107.084 137.015 107.084 137.015Z" fill="white"/>
<path d="M84.7758 136.488L85.2318 141.288C88.2353 140.57 91.5221 139.736 95.0537 139.584C99.263 139.4 103.479 139.738 107.605 140.589C107.95 140.159 108.185 139.652 108.289 139.11C108.453 138.263 108.363 137.386 108.03 136.59C106.001 135.966 103.929 135.493 101.83 135.176C95.4665 134.222 89.7171 135.176 84.7758 136.488Z" fill="url(#paint35_linear_17_58)"/>
<path d="M84.4893 137.868C84.4989 137.289 84.5485 136.568 84.7726 136.483C84.9966 136.398 85.267 136.926 85.3902 137.216C85.4398 137.337 85.5502 137.63 85.6222 138.563C85.7135 139.766 85.6078 140.357 85.5118 140.72C85.4526 140.939 85.363 141.272 85.2286 141.28C85.1198 141.28 85.0254 141.077 84.8862 140.672C84.5909 139.768 84.4566 138.819 84.4893 137.868Z" fill="url(#paint36_linear_17_58)"/>
<path d="M78.9559 147.98C80.2153 148.186 83.2764 148.804 83.2764 148.804C83.2764 148.804 81.289 143.187 85.0462 140.59C85.3098 139.454 85.1789 138.261 84.675 137.209C83.0764 138.004 79.596 140.667 78.9559 147.98Z" fill="white"/>
<path d="M52.9019 149.458C52.9019 149.458 53.0619 146.509 58.3089 146.509C59.1361 147.046 59.1777 149.458 59.1777 149.458H52.9019Z" fill="url(#paint37_linear_17_58)"/>
<path d="M48.2373 207.454L62.6133 215.229L71.3246 186.674L56.9663 148.392L52.897 149.457L46.7251 204.436C46.6508 205.032 46.7548 205.637 47.0239 206.174C47.293 206.711 47.7153 207.157 48.2373 207.454Z" fill="#010648"/>
<path style="mix-blend-mode:multiply" opacity="0.3" d="M71.3247 186.674L56.9663 148.392L52.8971 149.457C53.8988 152.837 54.3805 158.338 54.6061 161.401C55.5662 174.436 58.7665 178.062 57.216 187.164C55.9358 194.725 53.1179 195.75 53.3627 200.837C53.6316 206.377 57.248 211.016 61.5492 214.664L62.6086 215.237L71.3247 186.674Z" fill="url(#paint38_linear_17_58)"/>
<path d="M56.9727 148.392H135.911L148.339 209.073L62.6149 215.229L56.9727 148.392Z" fill="#311944"/>
<g style="mix-blend-mode:multiply" opacity="0.2">
<path d="M135.911 148.392H109.319C108.654 150.079 107.875 151.72 106.988 153.303C95.0953 174.484 67.8699 177.145 68.3612 180.634C69.0957 185.837 129.723 178.451 131.271 185.594C132.018 189.046 119.215 196.891 105.837 199.861C89.8195 203.418 78.0487 198.936 70.2206 206.928C67.5691 209.634 66.3994 212.803 65.8297 214.946L148.336 209.077L135.911 148.392Z" fill="#010648"/>
</g>
<path d="M58.3088 146.511C57.4207 146.511 56.1774 146.411 54.8252 147.12C54.5562 147.262 54.2993 147.425 54.0571 147.608L54.6796 147.41C55.6813 147.147 57.0623 147.496 57.5775 148.394C58.2176 149.498 58.44 152.05 58.5776 153.315C58.9729 156.912 61.3955 179.292 61.3955 179.292C61.4829 180.202 61.9105 181.045 62.5928 181.653C63.2752 182.261 64.162 182.59 65.0759 182.572L138.505 179.154C139.064 179.151 139.609 178.984 140.075 178.674C140.533 178.364 140.888 177.924 141.097 177.411C141.305 176.899 141.357 176.336 141.246 175.794L137.526 149.14C137.372 148.397 136.968 147.73 136.38 147.251C135.792 146.772 135.056 146.51 134.298 146.511H58.3088Z" fill="url(#paint39_linear_17_58)"/>
<path d="M59.0961 146.51C58.2064 146.51 57.1519 146.401 55.9757 146.683C55.6557 146.76 55.1516 146.899 54.9276 147.068C54.9276 147.068 57.4207 146.536 58.3632 148.393C58.9393 149.528 59.2257 152.05 59.3649 153.314C59.7585 156.911 62.1812 179.291 62.1812 179.291C62.2689 180.201 62.6966 181.044 63.3789 181.652C64.0612 182.26 64.9478 182.589 65.8616 182.571L140.119 181.144C140.678 181.139 141.222 180.973 141.688 180.664C142.145 180.353 142.501 179.914 142.709 179.401C142.918 178.889 142.97 178.326 142.859 177.784L138.311 149.141C138.158 148.398 137.754 147.73 137.166 147.251C136.578 146.772 135.842 146.51 135.084 146.51H59.0961Z" fill="#010648"/>
<path style="mix-blend-mode:multiply" opacity="0.1" d="M142.859 177.779L138.311 149.136C138.157 148.394 137.752 147.727 137.164 147.249C136.576 146.771 135.842 146.51 135.084 146.51H59.0961C58.2064 146.51 57.1519 146.401 55.9757 146.683C55.6557 146.76 55.1516 146.899 54.9276 147.068C54.9276 147.068 57.4207 146.536 58.3632 148.393C58.4633 148.6 58.5473 148.814 58.6144 149.033C65.8312 149.289 73.0464 149.105 80.2632 149.513C94.5288 150.314 108.956 150.314 122.42 155.444C126.726 157.085 129.678 162.979 128.51 165.702C127.668 167.666 124.793 167.511 123.79 170.087C122.735 172.798 125.265 174.638 124.202 176.54C123.09 178.534 119.712 177.584 114.245 179.006C111.877 179.626 109.601 180.555 107.477 181.771L140.121 181.144C140.679 181.139 141.224 180.973 141.689 180.664C142.147 180.353 142.503 179.912 142.711 179.399C142.919 178.885 142.971 178.322 142.859 177.779Z" fill="url(#paint40_linear_17_58)"/>
<path d="M107.322 186.475L98.0235 188.467L97.041 188.537C96.8054 188.554 96.5688 188.523 96.3454 188.447C96.122 188.37 95.9163 188.249 95.7405 188.091C95.5648 187.933 95.4226 187.742 95.3225 187.528C95.2223 187.314 95.1663 187.082 95.1576 186.846L94.7496 177.368C94.7379 177.132 94.7739 176.896 94.8554 176.675C94.9368 176.453 95.062 176.25 95.2236 176.078C95.3851 175.905 95.5797 175.767 95.7957 175.672C96.0117 175.576 96.2448 175.525 96.481 175.522L97.4683 175.509L106.815 176.567C107.708 176.554 108.46 176.131 108.5 177.071L108.884 185.961C108.924 186.9 108.212 186.411 107.322 186.475Z" fill="url(#paint41_linear_17_58)"/>
<path d="M108.03 187.795L97.726 188.545C97.4904 188.561 97.254 188.529 97.031 188.451C96.808 188.374 96.6029 188.252 96.4279 188.093C96.253 187.935 96.1117 187.743 96.0125 187.528C95.9133 187.314 95.8582 187.082 95.8506 186.846L95.4426 177.368C95.4309 177.132 95.4669 176.896 95.5483 176.675C95.6298 176.453 95.755 176.25 95.9166 176.078C96.0781 175.905 96.2727 175.767 96.4887 175.672C96.7047 175.576 96.9378 175.525 97.174 175.522L107.503 175.384C108.396 175.371 109.154 176.131 109.194 177.071L109.577 185.961C109.612 186.9 108.919 187.723 108.03 187.795Z" fill="url(#paint42_linear_17_58)"/>
<path d="M403.852 409.843C370.82 409.579 343.415 382.191 343.415 348.796C343.415 315.402 370.82 289.513 403.852 291.059C436.189 292.571 461.995 319.917 461.995 352.043C461.995 384.17 436.189 410.101 403.852 409.843Z" fill="url(#paint43_linear_17_58)"/>
<path d="M407.859 409.843C374.825 409.579 347.421 382.191 347.421 348.796C347.421 315.402 374.825 289.513 407.859 291.059C440.194 292.571 466 319.917 466 352.043C466 384.17 440.194 410.101 407.859 409.843Z" fill="#D8DEE8"/>
<path d="M462.062 351.934C462.062 381.933 438.034 406.02 407.859 405.747C377.077 405.46 351.666 380.011 351.666 348.912C351.666 317.812 377.077 293.755 407.859 295.154C438.034 296.525 462.062 321.936 462.062 351.934Z" fill="white"/>
<path d="M454.648 315.451L454.45 381.227C454.44 384.451 451.832 387.384 448.564 387.718L400.478 392.642C396.773 393.02 393.742 390.46 393.742 386.99V316.192C393.742 312.905 396.432 310.195 399.844 309.867C400.062 309.844 400.284 309.838 400.506 309.836L448.771 309.606C449.543 309.597 450.308 309.741 451.023 310.032C451.739 310.322 452.389 310.751 452.936 311.296C453.483 311.84 453.916 312.488 454.21 313.201C454.504 313.915 454.653 314.68 454.648 315.451Z" fill="url(#paint44_linear_17_58)"/>
<path d="M458.058 315.404L457.857 380.974C457.845 384.189 455.389 387.099 452.142 387.432L404.385 392.321C400.705 392.697 397.546 390.161 397.546 386.701L397.556 316.133C397.556 312.858 400.303 310.155 403.692 309.829C403.908 309.806 404.203 309.8 404.425 309.798L452.36 309.569C455.618 309.568 458.068 312.166 458.058 315.404Z" fill="url(#paint45_linear_17_58)"/>
<g style="mix-blend-mode:multiply" opacity="0.3">
<path d="M458.058 315.311L458.007 331.793L397.554 333.78V316.039C397.554 312.839 400.175 310.24 403.451 309.813C403.775 309.794 404.1 309.794 404.424 309.813L452.358 309.584C455.618 309.568 458.068 312.072 458.058 315.311Z" fill="url(#paint46_linear_17_58)"/>
<path d="M458.023 326.726L458.002 333.575C452.136 335.43 441.343 336.935 428.957 337.415C423.486 337.627 418.198 337.619 413.418 337.415C407.054 337.153 401.681 336.551 397.554 335.7V328.33C399.108 327.947 400.535 327.593 402.228 327.259C405.908 326.533 410.341 325.92 415.189 325.468C419.51 325.065 424.213 324.792 429.055 324.681C435.288 324.537 441.074 324.681 446.047 325.043C446.435 325.07 446.82 325.1 447.196 325.131C448.387 325.228 449.529 325.339 450.614 325.462C450.998 325.505 451.377 325.55 451.747 325.598C452.598 325.705 453.331 325.822 454.106 325.944C455.586 326.176 456.903 326.438 458.023 326.726Z" fill="url(#paint47_linear_17_58)"/>
</g>
<path d="M455.098 328.311C455.093 328.786 454.904 329.242 454.572 329.582C454.24 329.922 453.789 330.121 453.314 330.138L403.699 331.65C402.579 331.684 401.682 330.865 401.682 329.818V317.977C401.682 316.93 402.588 316.071 403.7 316.057L453.351 315.453C453.583 315.45 453.815 315.492 454.031 315.579C454.247 315.666 454.443 315.795 454.609 315.959C454.774 316.123 454.905 316.319 454.994 316.534C455.082 316.75 455.127 316.981 455.125 317.214L455.098 328.311Z" fill="white"/>
<path d="M453.97 328.096C453.966 328.396 453.847 328.684 453.636 328.899C453.426 329.114 453.141 329.239 452.84 329.249L403.47 330.704C403.309 330.716 403.148 330.695 402.995 330.642C402.843 330.59 402.702 330.507 402.583 330.399C402.463 330.291 402.367 330.16 402.299 330.013C402.232 329.867 402.194 329.708 402.19 329.547V317.752C402.202 317.422 402.342 317.111 402.582 316.884C402.821 316.657 403.14 316.533 403.47 316.539L452.874 315.91C453.021 315.908 453.166 315.936 453.302 315.991C453.439 316.046 453.562 316.127 453.667 316.231C453.771 316.334 453.854 316.457 453.91 316.593C453.966 316.728 453.995 316.874 453.994 317.021L453.97 328.096Z" fill="url(#paint48_linear_17_58)"/>
<path d="M447.145 321.523C447.143 321.594 447.127 321.664 447.098 321.729C447.068 321.794 447.026 321.852 446.973 321.9C446.92 321.948 446.859 321.985 446.791 322.008C446.724 322.032 446.653 322.041 446.582 322.037H446.556C446.236 322.037 445.993 321.853 445.993 321.545V319.26C445.994 319.187 446.01 319.116 446.039 319.049C446.068 318.982 446.11 318.921 446.162 318.871C446.215 318.82 446.277 318.78 446.345 318.753C446.413 318.727 446.485 318.713 446.558 318.715H446.584C446.656 318.711 446.728 318.721 446.795 318.746C446.863 318.77 446.925 318.809 446.978 318.858C447.03 318.907 447.072 318.967 447.101 319.033C447.13 319.099 447.145 319.171 447.145 319.243V321.523Z" fill="url(#paint49_linear_17_58)"/>
<path d="M451.73 321.443C451.728 321.514 451.712 321.584 451.683 321.649C451.653 321.714 451.612 321.772 451.56 321.82C451.508 321.869 451.446 321.906 451.38 321.931C451.313 321.955 451.242 321.966 451.171 321.963H451.146C451.076 321.97 451.005 321.962 450.939 321.941C450.872 321.919 450.811 321.883 450.758 321.837C450.706 321.79 450.664 321.733 450.635 321.669C450.606 321.605 450.591 321.536 450.59 321.466V319.185C450.592 319.039 450.652 318.899 450.756 318.796C450.861 318.693 451.002 318.636 451.149 318.636H451.174C451.246 318.633 451.318 318.644 451.386 318.669C451.454 318.694 451.515 318.733 451.567 318.783C451.619 318.833 451.661 318.893 451.688 318.959C451.716 319.026 451.73 319.097 451.73 319.169V321.443Z" fill="url(#paint50_linear_17_58)"/>
<path d="M447.132 326.638C447.133 326.793 447.075 326.942 446.971 327.057C446.867 327.172 446.723 327.244 446.569 327.259H446.543C446.391 327.252 446.247 327.187 446.142 327.076C446.037 326.965 445.98 326.818 445.982 326.665V324.314C445.982 324.16 446.04 324.011 446.145 323.897C446.249 323.783 446.393 323.712 446.547 323.698H446.572C446.724 323.704 446.868 323.769 446.973 323.879C447.078 323.99 447.136 324.136 447.134 324.289L447.132 326.638Z" fill="url(#paint51_linear_17_58)"/>
<path d="M451.707 326.544C451.707 326.849 451.456 326.947 451.149 327.184H451.123C450.816 327.184 450.568 326.873 450.568 326.566V324.112C450.568 323.806 450.819 323.387 451.126 323.382H451.152C451.459 323.382 451.707 323.78 451.707 324.086V326.544Z" fill="url(#paint52_linear_17_58)"/>
<path opacity="0.3" d="M450.593 322.638C450.591 322.788 450.531 322.931 450.425 323.037C450.319 323.143 450.177 323.203 450.027 323.206L447.827 323.257C447.516 323.257 447.382 323.021 447.382 322.713V322.689C447.382 322.382 447.515 322.129 447.825 322.123L450.089 322.073C450.159 322.072 450.228 322.086 450.292 322.113C450.357 322.14 450.414 322.181 450.462 322.232C450.509 322.283 450.546 322.343 450.568 322.409C450.591 322.475 450.6 322.545 450.593 322.614V322.638Z" fill="url(#paint53_linear_17_58)"/>
<path d="M450.593 317.876C450.592 318.025 450.533 318.167 450.428 318.273C450.324 318.378 450.182 318.439 450.033 318.441L447.83 318.478C447.52 318.478 447.382 318.238 447.382 317.931V317.905C447.382 317.598 447.521 317.345 447.832 317.34L450.093 317.307C450.162 317.306 450.231 317.32 450.295 317.348C450.359 317.376 450.416 317.417 450.464 317.468C450.511 317.519 450.547 317.58 450.569 317.645C450.591 317.711 450.6 317.781 450.593 317.851V317.876Z" fill="url(#paint54_linear_17_58)"/>
<path d="M450.593 327.626C450.589 327.777 450.527 327.92 450.421 328.026C450.314 328.132 450.171 328.193 450.021 328.198L447.699 328.261C447.626 328.264 447.553 328.252 447.485 328.227C447.417 328.201 447.354 328.161 447.302 328.111C447.249 328.06 447.207 328 447.178 327.933C447.149 327.866 447.134 327.794 447.134 327.721V327.695C447.136 327.546 447.195 327.403 447.3 327.297C447.404 327.191 447.546 327.129 447.696 327.125L450.024 327.063C450.097 327.06 450.17 327.072 450.238 327.097C450.306 327.123 450.369 327.162 450.422 327.212C450.475 327.262 450.518 327.322 450.547 327.389C450.576 327.456 450.592 327.528 450.593 327.601V327.626Z" fill="url(#paint55_linear_17_58)"/>
<g style="mix-blend-mode:soft-light" opacity="0.3">
<path d="M432.657 385.173C432.462 386.296 432.124 387.39 431.652 388.429C431.479 388.802 431.284 389.191 431.07 389.589L404.385 392.32C400.705 392.697 397.546 390.16 397.546 386.701L397.556 316.039C397.556 312.838 400.177 310.187 403.452 309.758C403.532 309.782 403.649 309.806 403.731 309.83C407.174 310.872 410.932 312.814 413.172 316.45C414.57 318.719 415.402 321.654 415.217 325.464C415.164 326.515 415.048 327.562 414.868 328.6C414.756 329.24 414.646 329.902 414.532 330.573C414.391 331.41 414.253 332.264 414.117 333.133C413.901 334.529 413.705 335.959 413.545 337.404C413.385 338.788 413.276 340.188 413.225 341.584C413.213 341.854 413.205 342.125 413.199 342.393C413.175 343.265 413.178 344.134 413.21 344.995C413.231 345.586 413.268 346.17 413.317 346.755C413.602 350.021 414.37 353.127 415.91 355.82C417.073 357.856 418.824 359.405 420.661 360.834C421.141 361.21 421.635 361.579 422.122 361.954C423.786 363.174 425.351 364.524 426.802 365.991C426.837 366.026 426.872 366.063 426.906 366.1C427.596 366.82 428.237 367.585 428.826 368.39C429.473 369.284 430.03 370.239 430.49 371.241C430.668 371.624 430.833 372.014 430.983 372.41C431.246 373.086 431.471 373.784 431.668 374.49C431.756 374.81 431.843 375.13 431.924 375.459C431.929 375.472 431.932 375.485 431.934 375.498C432.284 376.827 432.551 378.176 432.734 379.538C432.994 381.409 432.968 383.309 432.657 385.173Z" fill="white"/>
</g>
<g style="mix-blend-mode:multiply">
<path d="M413.325 345.741C413.313 346.089 413.169 346.419 412.922 346.664C412.676 346.91 412.345 347.052 411.997 347.063L403.036 347.505C402.286 347.541 401.678 347.002 401.678 346.298V343.085C401.678 342.381 402.289 341.784 403.039 341.752L412 341.371C412.167 341.358 412.335 341.379 412.494 341.433C412.653 341.487 412.798 341.572 412.923 341.685C413.047 341.797 413.147 341.934 413.216 342.086C413.286 342.239 413.324 342.404 413.327 342.571L413.325 345.741Z" fill="url(#paint56_linear_17_58)"/>
<path d="M427.788 345.05C427.778 345.388 427.641 345.71 427.403 345.951C427.166 346.192 426.846 346.334 426.508 346.348L417.867 346.775C417.701 346.789 417.535 346.769 417.378 346.715C417.221 346.662 417.076 346.577 416.954 346.466C416.831 346.355 416.732 346.219 416.664 346.068C416.595 345.917 416.559 345.753 416.556 345.588V342.431C416.568 342.086 416.71 341.759 416.954 341.516C417.198 341.273 417.526 341.132 417.87 341.122L426.511 340.755C426.674 340.743 426.837 340.765 426.991 340.819C427.145 340.873 427.287 340.958 427.407 341.068C427.527 341.179 427.623 341.313 427.689 341.462C427.755 341.612 427.79 341.773 427.791 341.936L427.788 345.05Z" fill="url(#paint57_linear_17_58)"/>
<path d="M441.301 344.405C441.295 344.737 441.163 345.053 440.932 345.291C440.702 345.529 440.389 345.67 440.058 345.686L431.699 346.097C431.537 346.109 431.375 346.089 431.222 346.036C431.07 345.983 430.929 345.899 430.81 345.789C430.691 345.679 430.596 345.546 430.531 345.398C430.466 345.25 430.432 345.09 430.431 344.929V341.824C430.441 341.488 430.579 341.168 430.817 340.93C431.055 340.692 431.375 340.554 431.711 340.544L440.074 340.189C440.233 340.179 440.392 340.201 440.542 340.255C440.691 340.309 440.828 340.393 440.944 340.501C441.06 340.61 441.153 340.742 441.216 340.888C441.279 341.034 441.311 341.192 441.311 341.351L441.301 344.405Z" fill="url(#paint58_linear_17_58)"/>
<path d="M454.828 343.758C454.821 344.08 454.694 344.388 454.472 344.62C454.249 344.852 453.947 344.992 453.626 345.011L445.543 345.41C445.386 345.421 445.229 345.399 445.08 345.346C444.932 345.293 444.796 345.21 444.681 345.102C444.567 344.994 444.475 344.864 444.413 344.719C444.351 344.574 444.32 344.418 444.321 344.261L444.329 341.208C444.333 340.88 444.463 340.566 444.692 340.332C444.92 340.097 445.23 339.958 445.558 339.945L453.642 339.601C453.797 339.593 453.951 339.616 454.097 339.67C454.242 339.724 454.375 339.807 454.487 339.915C454.599 340.022 454.687 340.151 454.747 340.294C454.807 340.437 454.837 340.59 454.836 340.745L454.828 343.758Z" fill="url(#paint59_linear_17_58)"/>
<path d="M413.309 355.919C413.295 356.267 413.151 356.597 412.905 356.845C412.659 357.092 412.33 357.238 411.981 357.255L403.032 357.805C402.283 357.852 401.673 357.325 401.675 356.616V353.413C401.675 352.71 402.284 352.107 403.035 352.065L411.986 351.576C412.152 351.56 412.32 351.579 412.478 351.631C412.637 351.683 412.783 351.767 412.908 351.878C413.032 351.989 413.132 352.125 413.202 352.277C413.271 352.429 413.308 352.593 413.311 352.76L413.309 355.919Z" fill="url(#paint60_linear_17_58)"/>
<path d="M427.772 355.051C427.761 355.39 427.624 355.713 427.387 355.956C427.15 356.199 426.83 356.344 426.492 356.363L417.851 356.894C417.686 356.911 417.52 356.893 417.363 356.842C417.206 356.791 417.062 356.707 416.938 356.598C416.815 356.488 416.716 356.353 416.648 356.203C416.579 356.053 416.542 355.89 416.54 355.725V352.571C416.553 352.225 416.695 351.898 416.939 351.653C417.182 351.407 417.509 351.263 417.854 351.247L426.495 350.775C426.657 350.761 426.82 350.78 426.974 350.832C427.128 350.883 427.27 350.966 427.39 351.076C427.511 351.185 427.607 351.318 427.673 351.467C427.739 351.615 427.774 351.776 427.775 351.939L427.772 355.051Z" fill="url(#paint61_linear_17_58)"/>
<path d="M441.279 354.241C441.271 354.572 441.139 354.888 440.909 355.127C440.679 355.366 440.368 355.51 440.037 355.531L431.679 356.044C431.519 356.059 431.358 356.04 431.205 355.989C431.052 355.938 430.912 355.855 430.793 355.747C430.674 355.638 430.579 355.506 430.513 355.359C430.448 355.212 430.414 355.053 430.414 354.892V351.789C430.424 351.453 430.56 351.132 430.796 350.891C431.032 350.65 431.349 350.507 431.686 350.49L440.044 350.034C440.201 350.021 440.36 350.042 440.51 350.093C440.66 350.145 440.797 350.228 440.913 350.335C441.03 350.443 441.122 350.574 441.185 350.719C441.249 350.864 441.281 351.021 441.28 351.18L441.279 354.241Z" fill="url(#paint62_linear_17_58)"/>
<path d="M454.799 353.43C454.793 353.753 454.667 354.062 454.445 354.297C454.223 354.531 453.921 354.674 453.599 354.697L445.519 355.193C445.363 355.206 445.206 355.187 445.057 355.136C444.909 355.085 444.773 355.003 444.658 354.897C444.543 354.79 444.451 354.661 444.389 354.517C444.327 354.373 444.296 354.217 444.297 354.06V351.01C444.303 350.682 444.433 350.367 444.661 350.13C444.889 349.893 445.197 349.75 445.526 349.73L453.605 349.289C453.759 349.278 453.914 349.3 454.059 349.352C454.204 349.404 454.337 349.486 454.45 349.592C454.562 349.698 454.651 349.826 454.711 349.969C454.772 350.111 454.802 350.264 454.8 350.418L454.799 353.43Z" fill="url(#paint63_linear_17_58)"/>
<path d="M413.3 365.847C413.285 366.197 413.141 366.528 412.896 366.778C412.651 367.028 412.322 367.178 411.973 367.199L403.028 367.855C402.278 367.91 401.67 367.385 401.67 366.683V363.482C401.67 362.78 402.279 362.17 403.028 362.119L411.976 361.524C412.709 361.476 413.301 362.004 413.301 362.69L413.3 365.847Z" fill="url(#paint64_linear_17_58)"/>
<path d="M427.757 364.808C427.746 365.148 427.608 365.472 427.372 365.717C427.135 365.962 426.817 366.111 426.477 366.134L417.836 366.775C417.673 366.794 417.507 366.778 417.35 366.729C417.193 366.68 417.048 366.598 416.925 366.489C416.801 366.381 416.702 366.247 416.634 366.097C416.565 365.948 416.529 365.785 416.527 365.621V362.47C416.54 362.124 416.682 361.795 416.925 361.547C417.167 361.3 417.494 361.152 417.839 361.132L426.48 360.558C426.642 360.541 426.804 360.559 426.958 360.609C427.112 360.659 427.254 360.741 427.375 360.849C427.495 360.957 427.592 361.089 427.658 361.237C427.725 361.385 427.76 361.545 427.761 361.707L427.757 364.808Z" fill="url(#paint65_linear_17_58)"/>
<path d="M441.257 363.841C441.247 364.173 441.115 364.489 440.886 364.73C440.657 364.97 440.347 365.118 440.016 365.143L431.663 365.756C431.504 365.773 431.343 365.757 431.19 365.708C431.037 365.659 430.896 365.578 430.777 365.471C430.658 365.363 430.562 365.232 430.497 365.086C430.431 364.939 430.398 364.78 430.398 364.62V361.52C430.409 361.183 430.545 360.861 430.779 360.618C431.014 360.376 431.331 360.229 431.668 360.207L440.023 359.651C440.18 359.637 440.338 359.655 440.488 359.705C440.638 359.755 440.775 359.836 440.892 359.943C441.008 360.05 441.101 360.179 441.165 360.324C441.228 360.469 441.26 360.625 441.26 360.783L441.257 363.841Z" fill="url(#paint66_linear_17_58)"/>
<path d="M454.77 362.869C454.763 363.193 454.637 363.503 454.415 363.739C454.194 363.975 453.893 364.121 453.57 364.149L445.495 364.741C445.34 364.755 445.183 364.737 445.035 364.687C444.887 364.637 444.751 364.557 444.636 364.451C444.521 364.346 444.429 364.218 444.367 364.075C444.304 363.932 444.272 363.777 444.273 363.621V360.581C444.281 360.251 444.411 359.937 444.638 359.698C444.865 359.46 445.173 359.315 445.502 359.291L453.578 358.753C453.732 358.74 453.887 358.759 454.032 358.81C454.178 358.86 454.312 358.941 454.425 359.047C454.537 359.152 454.626 359.281 454.686 359.423C454.746 359.565 454.775 359.719 454.771 359.873L454.77 362.869Z" fill="url(#paint67_linear_17_58)"/>
<path d="M413.29 375.532C413.29 376.224 412.697 376.836 411.965 376.898L403.023 377.657C402.275 377.721 401.667 377.202 401.667 376.501V373.301C401.667 372.598 402.276 371.982 403.025 371.923L411.968 371.224C412.7 371.168 413.293 371.683 413.292 372.374L413.29 375.532Z" fill="url(#paint68_linear_17_58)"/>
<path d="M427.741 374.326C427.728 374.667 427.591 374.992 427.355 375.239C427.12 375.486 426.802 375.638 426.461 375.667L417.83 376.4C417.107 376.46 416.519 375.952 416.519 375.262V372.114C416.534 371.767 416.675 371.437 416.917 371.188C417.16 370.939 417.485 370.787 417.831 370.762L426.472 370.089C426.633 370.069 426.795 370.083 426.95 370.131C427.104 370.179 427.246 370.259 427.367 370.366C427.488 370.473 427.585 370.604 427.651 370.752C427.718 370.899 427.752 371.058 427.753 371.22L427.741 374.326Z" fill="url(#paint69_linear_17_58)"/>
<path d="M441.236 373.202C441.225 373.535 441.094 373.853 440.865 374.095C440.637 374.338 440.327 374.489 439.996 374.519L431.646 375.226C431.487 375.247 431.326 375.234 431.172 375.187C431.019 375.14 430.878 375.061 430.758 374.954C430.638 374.848 430.542 374.718 430.477 374.571C430.412 374.425 430.379 374.266 430.38 374.106V371.01C430.391 370.671 430.527 370.348 430.761 370.103C430.995 369.858 431.311 369.708 431.649 369.682L440 369.03C440.157 369.014 440.315 369.031 440.465 369.08C440.614 369.129 440.751 369.209 440.868 369.315C440.985 369.42 441.078 369.549 441.141 369.693C441.204 369.837 441.237 369.993 441.236 370.15V373.202Z" fill="url(#paint70_linear_17_58)"/>
<path d="M413.282 385.915C413.282 386.606 412.689 387.224 411.956 387.294L403.02 388.165C402.271 388.237 401.663 387.728 401.663 387.027V383.827C401.663 383.126 402.271 382.502 403.02 382.435L411.959 381.625C412.692 381.559 413.284 382.065 413.282 382.758V385.915Z" fill="url(#paint71_linear_17_58)"/>
<path d="M427.727 384.531C427.714 384.873 427.576 385.199 427.341 385.449C427.106 385.698 426.788 385.853 426.447 385.886L417.819 386.725C417.095 386.795 416.51 386.294 416.51 385.605V382.459C416.526 382.111 416.668 381.781 416.909 381.53C417.15 381.279 417.474 381.123 417.82 381.092L426.452 380.311C426.612 380.288 426.775 380.3 426.93 380.346C427.085 380.392 427.228 380.471 427.349 380.577C427.471 380.683 427.568 380.815 427.634 380.962C427.7 381.11 427.733 381.27 427.732 381.431L427.727 384.531Z" fill="url(#paint72_linear_17_58)"/>
<path d="M441.213 383.238C441.202 383.572 441.071 383.891 440.843 384.136C440.615 384.38 440.306 384.534 439.973 384.569L431.627 385.38C431.469 385.403 431.309 385.391 431.156 385.345C431.003 385.3 430.862 385.223 430.742 385.118C430.623 385.013 430.527 384.884 430.461 384.739C430.395 384.594 430.362 384.437 430.362 384.278V381.185C430.374 380.845 430.51 380.521 430.743 380.274C430.977 380.027 431.293 379.874 431.631 379.844L439.978 379.087C440.133 379.067 440.291 379.081 440.441 379.127C440.59 379.174 440.728 379.252 440.845 379.356C440.962 379.46 441.056 379.588 441.119 379.731C441.183 379.874 441.215 380.029 441.213 380.186V383.238Z" fill="url(#paint73_linear_17_58)"/>
<path d="M453.519 367.973L445.446 368.604C444.769 368.657 444.26 369.421 444.258 370.087V371.803V373.233L444.242 379.698V381.599V382.841C444.242 383.506 444.746 384.105 445.422 384.037L453.49 383.253C454.151 383.189 454.728 382.495 454.73 381.837V380.611V378.734L454.749 372.355V370.942V369.25C454.754 368.593 454.181 367.924 453.519 367.973Z" fill="url(#paint74_linear_17_58)"/>
</g>
<path d="M413.817 345.718C413.804 346.066 413.66 346.395 413.414 346.641C413.168 346.886 412.838 347.029 412.49 347.04L403.548 347.48C402.798 347.519 402.19 346.978 402.19 346.275V343.062C402.19 342.36 402.799 341.763 403.548 341.731L412.493 341.352C412.66 341.338 412.828 341.359 412.987 341.413C413.145 341.467 413.291 341.553 413.415 341.665C413.539 341.778 413.639 341.914 413.708 342.067C413.778 342.219 413.815 342.384 413.818 342.552L413.817 345.718Z" fill="url(#paint75_linear_17_58)"/>
<path d="M427.788 345.05C427.778 345.388 427.641 345.71 427.403 345.951C427.166 346.192 426.846 346.334 426.508 346.348L417.867 346.775C417.701 346.789 417.535 346.769 417.378 346.715C417.221 346.662 417.076 346.577 416.954 346.466C416.831 346.355 416.732 346.219 416.664 346.068C416.595 345.917 416.559 345.753 416.556 345.588V342.431C416.568 342.086 416.71 341.759 416.954 341.516C417.198 341.273 417.526 341.132 417.87 341.122L426.511 340.755C426.674 340.743 426.837 340.765 426.991 340.819C427.145 340.873 427.287 340.958 427.407 341.068C427.527 341.179 427.623 341.313 427.689 341.462C427.755 341.612 427.79 341.773 427.791 341.936L427.788 345.05Z" fill="url(#paint76_linear_17_58)"/>
<path d="M441.767 344.383C441.761 344.714 441.629 345.03 441.399 345.268C441.169 345.505 440.857 345.647 440.527 345.663L432.175 346.075C432.014 346.087 431.852 346.066 431.7 346.013C431.547 345.96 431.407 345.876 431.288 345.766C431.169 345.657 431.074 345.524 431.009 345.376C430.944 345.228 430.91 345.068 430.91 344.906V341.804C430.92 341.469 431.056 341.151 431.292 340.913C431.528 340.675 431.846 340.536 432.18 340.524L440.533 340.168C440.692 340.158 440.851 340.181 441 340.235C441.15 340.289 441.287 340.373 441.403 340.481C441.518 340.59 441.611 340.722 441.674 340.868C441.736 341.014 441.769 341.171 441.768 341.33L441.767 344.383Z" fill="url(#paint77_linear_17_58)"/>
<path d="M455.277 343.737C455.271 344.058 455.144 344.365 454.922 344.597C454.7 344.83 454.398 344.97 454.077 344.99L446.006 345.388C445.849 345.399 445.691 345.377 445.543 345.324C445.394 345.271 445.259 345.188 445.144 345.08C445.029 344.972 444.938 344.842 444.876 344.697C444.814 344.553 444.782 344.397 444.783 344.239V341.188C444.788 340.86 444.918 340.547 445.146 340.313C445.374 340.078 445.684 339.94 446.011 339.927L454.085 339.583C454.24 339.575 454.395 339.598 454.54 339.652C454.685 339.706 454.818 339.789 454.929 339.897C455.041 340.004 455.13 340.133 455.19 340.275C455.25 340.418 455.28 340.572 455.279 340.727L455.277 343.737Z" fill="url(#paint78_linear_17_58)"/>
<path d="M413.805 355.888C413.792 356.236 413.648 356.567 413.403 356.814C413.158 357.061 412.828 357.208 412.48 357.224L403.542 357.773C402.793 357.82 402.185 357.293 402.185 356.584V353.376C402.185 352.673 402.793 352.07 403.542 352.03L412.484 351.541C412.65 351.525 412.817 351.544 412.975 351.596C413.133 351.648 413.279 351.732 413.404 351.843C413.528 351.954 413.628 352.089 413.697 352.241C413.767 352.392 413.804 352.556 413.807 352.723L413.805 355.888Z" fill="url(#paint79_linear_17_58)"/>
<path d="M427.772 355.052C427.761 355.391 427.624 355.714 427.387 355.957C427.15 356.2 426.83 356.345 426.492 356.364L417.851 356.895C417.686 356.912 417.52 356.894 417.363 356.843C417.206 356.792 417.062 356.708 416.938 356.598C416.815 356.489 416.716 356.354 416.648 356.204C416.579 356.054 416.542 355.891 416.54 355.726V352.572C416.553 352.226 416.695 351.899 416.939 351.654C417.182 351.408 417.509 351.264 417.854 351.248L426.495 350.776C426.657 350.762 426.82 350.781 426.974 350.833C427.128 350.884 427.27 350.967 427.39 351.077C427.511 351.186 427.607 351.319 427.673 351.468C427.739 351.616 427.774 351.777 427.775 351.94L427.772 355.052Z" fill="url(#paint80_linear_17_58)"/>
<path d="M441.744 354.213C441.736 354.544 441.605 354.86 441.375 355.099C441.145 355.338 440.835 355.482 440.504 355.503L432.158 356.015C431.998 356.03 431.836 356.011 431.683 355.96C431.531 355.909 431.39 355.827 431.271 355.719C431.152 355.61 431.057 355.478 430.992 355.331C430.926 355.184 430.893 355.025 430.892 354.864V351.765C430.901 351.428 431.037 351.107 431.272 350.866C431.507 350.625 431.825 350.482 432.161 350.465L440.511 350.009C440.668 349.997 440.827 350.017 440.977 350.069C441.126 350.121 441.263 350.204 441.379 350.312C441.495 350.419 441.587 350.55 441.65 350.695C441.713 350.84 441.745 350.997 441.744 351.155V354.213Z" fill="url(#paint81_linear_17_58)"/>
<path d="M455.25 353.413C455.244 353.736 455.117 354.044 454.895 354.278C454.673 354.513 454.372 354.655 454.05 354.679L445.98 355.175C445.824 355.189 445.666 355.17 445.517 355.119C445.369 355.069 445.233 354.987 445.117 354.88C445.002 354.774 444.911 354.644 444.849 354.499C444.787 354.355 444.757 354.199 444.759 354.042V350.994C444.765 350.665 444.894 350.35 445.122 350.113C445.349 349.875 445.658 349.733 445.987 349.713L454.058 349.272C454.212 349.262 454.366 349.284 454.511 349.336C454.655 349.389 454.788 349.47 454.9 349.576C455.012 349.682 455.101 349.81 455.161 349.951C455.221 350.093 455.251 350.246 455.25 350.4V353.413Z" fill="url(#paint82_linear_17_58)"/>
<path d="M413.805 365.814C413.791 366.163 413.647 366.494 413.403 366.744C413.158 366.993 412.829 367.143 412.48 367.164L403.547 367.819C402.798 367.873 402.19 367.35 402.191 366.647V363.447C402.191 362.744 402.801 362.135 403.55 362.085L412.485 361.492C413.218 361.442 413.81 361.972 413.809 362.656L413.805 365.814Z" fill="url(#paint83_linear_17_58)"/>
<path d="M427.757 364.81C427.746 365.15 427.608 365.474 427.372 365.719C427.135 365.964 426.817 366.112 426.477 366.136L417.836 366.776C417.673 366.796 417.507 366.78 417.35 366.731C417.193 366.682 417.048 366.6 416.925 366.491C416.801 366.383 416.702 366.249 416.634 366.099C416.565 365.95 416.529 365.787 416.527 365.623V362.472C416.54 362.126 416.682 361.797 416.925 361.549C417.167 361.302 417.494 361.154 417.839 361.134L426.48 360.56C426.642 360.543 426.804 360.561 426.958 360.611C427.112 360.661 427.254 360.743 427.375 360.851C427.495 360.959 427.592 361.091 427.658 361.239C427.725 361.387 427.76 361.547 427.761 361.709L427.757 364.81Z" fill="url(#paint84_linear_17_58)"/>
<path d="M441.722 363.814C441.713 364.146 441.582 364.463 441.353 364.703C441.124 364.944 440.815 365.091 440.484 365.117L432.139 365.728C431.979 365.745 431.818 365.728 431.666 365.679C431.514 365.629 431.373 365.548 431.254 365.441C431.135 365.334 431.039 365.203 430.974 365.057C430.909 364.911 430.875 364.752 430.875 364.592V361.496C430.885 361.158 431.021 360.837 431.255 360.594C431.49 360.352 431.807 360.205 432.144 360.183L440.489 359.628C440.646 359.613 440.804 359.631 440.954 359.681C441.103 359.731 441.241 359.812 441.357 359.919C441.473 360.025 441.566 360.155 441.629 360.299C441.693 360.444 441.725 360.6 441.724 360.758L441.722 363.814Z" fill="url(#paint85_linear_17_58)"/>
<path d="M455.221 362.838C455.215 363.162 455.089 363.472 454.868 363.709C454.647 363.945 454.345 364.091 454.023 364.118L445.958 364.711C445.802 364.726 445.645 364.709 445.496 364.659C445.348 364.61 445.212 364.53 445.096 364.424C444.981 364.318 444.89 364.189 444.828 364.046C444.766 363.902 444.735 363.747 444.737 363.59V360.55C444.744 360.221 444.874 359.906 445.101 359.668C445.328 359.43 445.636 359.284 445.964 359.26L454.032 358.723C454.186 358.71 454.341 358.729 454.486 358.78C454.632 358.83 454.766 358.911 454.878 359.017C454.991 359.123 455.079 359.251 455.139 359.393C455.199 359.535 455.228 359.689 455.224 359.843L455.221 362.838Z" fill="url(#paint86_linear_17_58)"/>
<path d="M413.789 375.496C413.772 375.846 413.628 376.177 413.384 376.428C413.141 376.68 412.814 376.833 412.465 376.861L403.534 377.619C402.787 377.682 402.179 377.167 402.179 376.464V373.264C402.179 372.563 402.787 371.947 403.536 371.888L412.468 371.19C413.199 371.132 413.791 371.648 413.791 372.339L413.789 375.496Z" fill="url(#paint87_linear_17_58)"/>
<path d="M427.741 374.328C427.728 374.669 427.591 374.994 427.355 375.241C427.12 375.488 426.802 375.64 426.461 375.669L417.83 376.402C417.107 376.462 416.519 375.954 416.519 375.264V372.116C416.534 371.769 416.675 371.439 416.917 371.19C417.16 370.941 417.485 370.789 417.831 370.764L426.472 370.091C426.633 370.071 426.795 370.085 426.95 370.133C427.104 370.181 427.246 370.261 427.367 370.368C427.488 370.475 427.585 370.606 427.651 370.754C427.718 370.901 427.752 371.06 427.753 371.222L427.741 374.328Z" fill="url(#paint88_linear_17_58)"/>
<path d="M441.701 373.163C441.691 373.496 441.559 373.814 441.331 374.056C441.102 374.298 440.793 374.449 440.461 374.478L432.123 375.186C431.964 375.206 431.803 375.193 431.65 375.146C431.497 375.099 431.356 375.019 431.236 374.913C431.116 374.807 431.02 374.677 430.955 374.53C430.89 374.384 430.857 374.226 430.859 374.066V370.971C430.87 370.632 431.005 370.31 431.239 370.065C431.474 369.82 431.79 369.671 432.127 369.644L440.469 368.993C440.626 368.977 440.784 368.994 440.933 369.043C441.082 369.092 441.219 369.172 441.336 369.278C441.452 369.384 441.545 369.513 441.608 369.657C441.671 369.8 441.704 369.956 441.703 370.113L441.701 373.163Z" fill="url(#paint89_linear_17_58)"/>
<path d="M413.78 385.868C413.78 386.559 413.186 387.177 412.455 387.247L403.531 388.116C402.782 388.188 402.175 387.679 402.175 386.98V383.78C402.175 383.08 402.783 382.456 403.531 382.389L412.458 381.589C413.189 381.522 413.781 382.029 413.781 382.72L413.78 385.868Z" fill="url(#paint90_linear_17_58)"/>
<path d="M427.727 384.532C427.714 384.874 427.576 385.2 427.341 385.45C427.106 385.699 426.788 385.854 426.447 385.887L417.819 386.726C417.095 386.796 416.51 386.295 416.51 385.606V382.46C416.526 382.112 416.668 381.782 416.909 381.531C417.15 381.28 417.474 381.124 417.82 381.093L426.452 380.312C426.612 380.289 426.775 380.301 426.93 380.347C427.085 380.393 427.228 380.471 427.349 380.578C427.471 380.684 427.568 380.816 427.634 380.963C427.7 381.111 427.733 381.271 427.732 381.432L427.727 384.532Z" fill="url(#paint91_linear_17_58)"/>
<path d="M441.679 383.195C441.668 383.529 441.536 383.847 441.308 384.092C441.081 384.336 440.773 384.49 440.44 384.525L432.104 385.334C431.946 385.357 431.786 385.345 431.633 385.3C431.481 385.254 431.34 385.177 431.22 385.072C431.1 384.968 431.004 384.838 430.939 384.693C430.873 384.548 430.84 384.391 430.841 384.232V381.142C430.853 380.803 430.988 380.479 431.221 380.232C431.455 379.985 431.77 379.832 432.108 379.801L440.447 379.046C440.602 379.026 440.76 379.04 440.909 379.086C441.058 379.133 441.196 379.21 441.313 379.314C441.43 379.418 441.523 379.546 441.587 379.689C441.65 379.832 441.682 379.987 441.681 380.144L441.679 383.195Z" fill="url(#paint92_linear_17_58)"/>
<path d="M453.987 367.939L445.923 368.57C445.247 368.623 444.722 369.387 444.721 370.053V371.767V373.197L444.705 379.657V381.558V382.798C444.705 383.464 445.225 384.061 445.9 383.994L453.959 383.21C454.619 383.146 455.18 382.453 455.181 381.797V380.571V378.696L455.2 372.321V370.908V369.216C455.205 368.559 454.648 367.888 453.987 367.939Z" fill="url(#paint93_linear_17_58)"/>
<path d="M353.228 359.549L392.595 357.838L437.954 359.427L393.206 369.207L353.228 359.549Z" fill="url(#paint94_linear_17_58)"/>
<path d="M384.946 397.483L353.058 388.901C349.848 388.037 347.352 384.854 347.352 381.769V381.735C347.352 378.649 349.848 376.58 353.058 377.146L387.26 382.747L384.946 397.483Z" fill="url(#paint95_linear_17_58)"/>
<path d="M438.008 391.04L386.482 396.8C383.255 397.162 380.602 394.911 380.602 391.769V389.638C380.602 386.497 383.255 383.738 386.482 383.482L438.008 379.381C435.728 383.617 435.201 387.588 438.008 391.04Z" fill="#D8DEE8"/>
<path d="M438.456 391.611L386.922 397.455C382.714 397.935 379.226 394.984 379.226 390.873V390.828C379.226 386.717 382.714 383.103 386.922 382.775L438.464 378.753C438.54 378.75 438.616 378.764 438.686 378.792C438.757 378.82 438.82 378.863 438.873 378.917C438.926 378.972 438.967 379.037 438.994 379.108C439.02 379.179 439.031 379.255 439.026 379.331C439.03 379.491 438.975 379.648 438.872 379.771C438.768 379.894 438.623 379.974 438.464 379.997L386.922 384.194C383.536 384.469 380.741 387.381 380.741 390.683V390.727C380.741 394.029 383.536 396.408 386.922 396.035L438.464 390.367C438.539 390.361 438.615 390.372 438.685 390.398C438.756 390.424 438.82 390.464 438.873 390.517C438.927 390.571 438.968 390.634 438.994 390.705C439.021 390.775 439.031 390.851 439.026 390.926C439.029 391.089 438.973 391.248 438.868 391.374C438.764 391.5 438.617 391.584 438.456 391.611Z" fill="url(#paint96_linear_17_58)"/>
<path d="M386.282 382.779L353.053 377.148C349.843 376.581 347.347 372.371 347.347 367.737V367.687C347.347 363.047 349.843 359.376 353.053 359.496L388.302 360.805L386.282 382.779Z" fill="url(#paint97_linear_17_58)"/>
<path d="M438.008 377.854L389.371 381.523C384.57 381.885 380.604 378.36 380.604 373.644V370.444C380.604 365.726 384.575 361.803 389.371 361.663L438.008 360.337C435.728 366.694 435.21 372.653 438.008 377.854Z" fill="#D8DEE8"/>
<path d="M438.456 378.753L386.922 382.774C382.714 383.103 379.226 378.353 379.226 372.183V372.114C379.226 365.944 382.714 360.836 386.922 360.73L438.464 359.45C438.775 359.442 439.026 359.854 439.026 360.367C439.026 360.881 438.775 361.306 438.464 361.316L386.922 362.862C383.536 362.964 380.741 367.08 380.741 372.037V372.105C380.741 377.065 383.536 380.889 386.922 380.643L438.464 376.887C438.775 376.865 439.026 377.263 439.026 377.779C439.026 378.294 438.768 378.729 438.456 378.753Z" fill="url(#paint98_linear_17_58)"/>
<g style="mix-blend-mode:soft-light" opacity="0.5">
<path d="M375.982 378.134L368.881 376.893C367.221 372.366 367.346 368.208 368.881 363.238L375.982 363.742C374.635 368.445 374.635 373.432 375.982 378.134Z" fill="white"/>
</g>
<path d="M367.528 223.043C334.494 222.779 307.09 195.392 307.09 161.997C307.09 128.601 334.494 102.713 367.528 104.266C399.863 105.778 425.669 133.123 425.669 165.25C425.669 197.377 399.863 223.301 367.528 223.043Z" fill="url(#paint99_linear_17_58)"/>
<path d="M371.534 223.043C338.5 222.779 311.095 195.392 311.095 161.997C311.095 128.601 338.5 102.713 371.534 104.266C403.868 105.778 429.674 133.123 429.674 165.25C429.674 197.377 403.868 223.301 371.534 223.043Z" fill="#D8DEE8"/>
<path d="M425.736 165.137C425.736 195.134 401.708 219.223 371.534 218.947C340.751 218.661 315.34 193.213 315.34 162.112C315.34 131.011 340.751 106.956 371.534 108.356C401.708 109.727 425.736 135.138 425.736 165.137Z" fill="white"/>
<path d="M435.408 170.994C435.269 171.898 434.934 172.761 434.425 173.522C433.916 174.283 433.247 174.922 432.464 175.396L371.502 134.63L374.446 130.228L435.408 170.994Z" fill="url(#paint100_linear_17_58)"/>
<path d="M374.441 130.227C374.318 132.245 373.347 133.718 371.497 134.629L359.079 123.343C359.05 123.314 359.031 123.276 359.027 123.236C359.023 123.195 359.033 123.154 359.056 123.12C359.079 123.086 359.113 123.061 359.152 123.05C359.192 123.038 359.234 123.041 359.271 123.058L374.441 130.227Z" fill="url(#paint101_linear_17_58)"/>
<path d="M359.079 123.343L363.909 127.731C364.479 127.216 364.914 126.569 365.173 125.846L359.271 123.058C359.234 123.041 359.192 123.038 359.152 123.05C359.113 123.061 359.079 123.086 359.056 123.12C359.033 123.154 359.023 123.195 359.027 123.236C359.031 123.276 359.05 123.314 359.079 123.343Z" fill="url(#paint102_linear_17_58)"/>
<path d="M342.988 110.642C342.988 110.642 343.867 117.286 350.363 123.158C356.86 129.031 364.088 129.156 365.109 126.944C366.13 124.733 365.619 119.103 361.566 116.946C357.513 114.789 347.06 114.482 342.988 110.642Z" fill="url(#paint103_linear_17_58)"/>
<path d="M342.988 110.642C342.988 110.642 343.867 117.286 350.363 123.158C356.86 129.031 364.088 129.156 365.109 126.944C366.13 124.733 365.619 119.103 361.566 116.946C357.513 114.789 347.06 114.482 342.988 110.642Z" fill="url(#paint104_linear_17_58)"/>
<g style="mix-blend-mode:multiply" opacity="0.3">
<path d="M342.988 110.642C343.399 111.023 343.847 111.362 344.326 111.655C345.814 116.021 347.725 117.673 349.459 118.215C351.88 118.98 353.498 117.45 356.306 118.682C359.987 120.302 359.847 124.097 362.661 125.107C363.379 125.365 364.312 125.448 365.541 125.088C365.507 125.725 365.362 126.351 365.114 126.938C364.093 129.149 356.865 129.018 350.368 123.152C343.871 117.286 342.988 110.642 342.988 110.642Z" fill="url(#paint105_linear_17_58)"/>
</g>
<path d="M408.365 175.1C404.605 160.033 388.326 160.966 376.587 165.224C374.085 166.131 371.338 166.098 368.858 165.129C366.644 164.267 364.471 162.662 363.922 159.679C362.709 153.086 366.781 146.542 359.121 141.628C351.461 136.713 322.765 139.571 326.276 166.528C329.787 193.484 346.598 214.068 374.494 215.199C402.39 216.33 412.365 191.185 408.365 175.1ZM343.583 158.218C342.414 153.784 344.244 149.457 347.672 148.553C351.099 147.649 354.826 150.509 355.993 154.943C357.159 159.377 355.333 163.705 351.906 164.609C348.478 165.513 344.747 162.652 343.575 158.218H343.583Z" fill="url(#paint106_linear_17_58)"/>
<path d="M409.952 172.051C406.192 156.984 389.913 157.917 378.176 162.175C375.673 163.082 372.926 163.049 370.445 162.081C368.231 161.218 366.059 159.613 365.511 156.63C364.298 150.038 368.37 143.493 360.71 138.579C353.05 133.665 324.356 136.523 327.876 163.473C331.396 190.423 348.198 211.012 376.092 212.144C403.987 213.275 413.965 188.136 409.952 172.051ZM345.172 155.169C344.001 150.735 345.832 146.408 349.259 145.504C352.687 144.6 356.414 147.46 357.58 151.894C358.747 156.328 356.921 160.656 353.493 161.561C350.066 162.465 346.342 159.604 345.172 155.169Z" fill="url(#paint107_linear_17_58)"/>
<path d="M339.796 177.479C343.291 177.479 346.124 174.483 346.124 170.787C346.124 167.091 343.291 164.095 339.796 164.095C336.301 164.095 333.467 167.091 333.467 170.787C333.467 174.483 336.301 177.479 339.796 177.479Z" fill="url(#paint108_linear_17_58)"/>
<path d="M353.912 194.03C357.408 194.03 360.241 191.034 360.241 187.338C360.241 183.643 357.408 180.646 353.912 180.646C350.417 180.646 347.584 183.643 347.584 187.338C347.584 191.034 350.417 194.03 353.912 194.03Z" fill="url(#paint109_linear_17_58)"/>
<path d="M375.793 200.358C379.543 200.358 382.583 197.144 382.583 193.179C382.583 189.215 379.543 186.001 375.793 186.001C372.044 186.001 369.004 189.215 369.004 193.179C369.004 197.144 372.044 200.358 375.793 200.358Z" fill="url(#paint110_linear_17_58)"/>
<path d="M394.291 191.595C398.04 191.595 401.079 188.381 401.079 184.417C401.079 180.452 398.04 177.238 394.291 177.238C390.543 177.238 387.503 180.452 387.503 184.417C387.503 188.381 390.543 191.595 394.291 191.595Z" fill="url(#paint111_linear_17_58)"/>
<defs>
<linearGradient id="paint0_linear_17_58" x1="31.1699" y1="169.047" x2="149.749" y2="169.047" gradientUnits="userSpaceOnUse">
<stop stop-color="#444B8C"/>
<stop offset="1" stop-color="#26264F"/>
</linearGradient>
<linearGradient id="paint1_linear_17_58" x1="0" y1="352.556" x2="118.579" y2="352.556" gradientUnits="userSpaceOnUse">
<stop stop-color="#444B8C"/>
<stop offset="1" stop-color="#26264F"/>
</linearGradient>
<linearGradient id="paint2_linear_17_58" x1="79.0598" y1="312.069" x2="8.38804" y2="471.388" gradientUnits="userSpaceOnUse">
<stop stop-color="#E38DDD"/>
<stop offset="1" stop-color="#9571F6"/>
</linearGradient>
<linearGradient id="paint3_linear_17_58" x1="13.7903" y1="383.66" x2="86.8991" y2="383.66" gradientUnits="userSpaceOnUse">
<stop stop-color="#AA80F9"/>
<stop offset="1" stop-color="#6165D7"/>
</linearGradient>
<linearGradient id="paint4_linear_17_58" x1="49.1559" y1="366.722" x2="66.2697" y2="343.817" gradientUnits="userSpaceOnUse">
<stop stop-color="#AA80F9"/>
<stop offset="1" stop-color="#6165D7"/>
</linearGradient>
<linearGradient id="paint5_linear_17_58" x1="53.0506" y1="304.726" x2="44.3216" y2="324.407" gradientUnits="userSpaceOnUse">
<stop stop-color="#E38DDD"/>
<stop offset="1" stop-color="#9571F6"/>
</linearGradient>
<linearGradient id="paint6_linear_17_58" x1="70.0348" y1="309.966" x2="110.178" y2="319.448" gradientUnits="userSpaceOnUse">
<stop stop-color="#311944"/>
<stop offset="1" stop-color="#893976"/>
</linearGradient>
<linearGradient id="paint7_linear_17_58" x1="103.493" y1="299.065" x2="69.078" y2="362.896" gradientUnits="userSpaceOnUse">
<stop stop-color="#FFC444"/>
<stop offset="1" stop-color="#F36F56"/>
</linearGradient>
<linearGradient id="paint8_linear_17_58" x1="113.58" y1="303.283" x2="79.8552" y2="370.961" gradientUnits="userSpaceOnUse">
<stop stop-color="#FFC444"/>
<stop offset="1" stop-color="#F36F56"/>
</linearGradient>
<linearGradient id="paint9_linear_17_58" x1="238.324" y1="197.358" x2="264.709" y2="171.702" gradientUnits="userSpaceOnUse">
<stop stop-color="#010648"/>
<stop offset="1" stop-color="#010648"/>
</linearGradient>
<linearGradient id="paint10_linear_17_58" x1="280.311" y1="149.239" x2="234.951" y2="217.449" gradientUnits="userSpaceOnUse">
<stop stop-color="#010648"/>
<stop offset="1" stop-color="#010648"/>
</linearGradient>
<linearGradient id="paint11_linear_17_58" x1="235" y1="215.5" x2="261.963" y2="173.739" gradientUnits="userSpaceOnUse">
<stop stop-color="#AA80F9"/>
<stop offset="1" stop-color="#010648"/>
</linearGradient>
<linearGradient id="paint12_linear_17_58" x1="254.214" y1="157.695" x2="314.565" y2="253.58" gradientUnits="userSpaceOnUse">
<stop stop-color="#FFC444"/>
<stop offset="1" stop-color="#F36F56"/>
</linearGradient>
<linearGradient id="paint13_linear_17_58" x1="278.64" y1="232.269" x2="279.943" y2="200.038" gradientUnits="userSpaceOnUse">
<stop stop-color="#FFC444"/>
<stop offset="1" stop-color="#F36F56"/>
</linearGradient>
<linearGradient id="paint14_linear_17_58" x1="264.916" y1="400.588" x2="154.564" y2="283.53" gradientUnits="userSpaceOnUse">
<stop stop-color="#FF9085"/>
<stop offset="1" stop-color="#FB6FBB"/>
</linearGradient>
<linearGradient id="paint15_linear_17_58" x1="151.38" y1="314.944" x2="173.049" y2="276.298" gradientUnits="userSpaceOnUse">
<stop stop-color="#30ABBA"/>
<stop offset="1" stop-color="#6165D7"/>
</linearGradient>
<linearGradient id="paint16_linear_17_58" x1="259.532" y1="498.177" x2="196.699" y2="251.501" gradientUnits="userSpaceOnUse">
<stop stop-color="#FF9085"/>
<stop offset="1" stop-color="#FB6FBB"/>
</linearGradient>
<linearGradient id="paint17_linear_17_58" x1="197.628" y1="359.213" x2="232.794" y2="292.567" gradientUnits="userSpaceOnUse">
<stop stop-color="#30ABBA"/>
<stop offset="1" stop-color="#6165D7"/>
</linearGradient>
<linearGradient id="paint18_linear_17_58" x1="230.605" y1="224.678" x2="253.405" y2="224.678" gradientUnits="userSpaceOnUse">
<stop stop-color="#FFC444"/>
<stop offset="1" stop-color="#F36F56"/>
</linearGradient>
<linearGradient id="paint19_linear_17_58" x1="233.158" y1="218.854" x2="259.819" y2="226.87" gradientUnits="userSpaceOnUse">
<stop stop-color="#FEBBBA"/>
<stop offset="1" stop-color="#FF928E"/>
</linearGradient>
<linearGradient id="paint20_linear_17_58" x1="239.348" y1="195.051" x2="238.04" y2="288.886" gradientUnits="userSpaceOnUse">
<stop stop-color="#FFC444"/>
<stop offset="1" stop-color="#F36F56"/>
</linearGradient>
<linearGradient id="paint21_linear_17_58" x1="225.829" y1="209.531" x2="261.247" y2="226.515" gradientUnits="userSpaceOnUse">
<stop stop-color="#FEBBBA"/>
<stop offset="1" stop-color="#FF928E"/>
</linearGradient>
<linearGradient id="paint22_linear_17_58" x1="251.171" y1="501.246" x2="182.575" y2="258.847" gradientUnits="userSpaceOnUse">
<stop stop-color="#FF9085"/>
<stop offset="1" stop-color="#FB6FBB"/>
</linearGradient>
<linearGradient id="paint23_linear_17_58" x1="246.312" y1="503.78" x2="273.842" y2="228.058" gradientUnits="userSpaceOnUse">
<stop stop-color="#FF9085"/>
<stop offset="1" stop-color="#FB6FBB"/>
</linearGradient>
<linearGradient id="paint24_linear_17_58" x1="222.365" y1="323.569" x2="237.934" y2="272.7" gradientUnits="userSpaceOnUse">
<stop stop-color="#30ABBA"/>
<stop offset="1" stop-color="#6165D7"/>
</linearGradient>
<linearGradient id="paint25_linear_17_58" x1="238.419" y1="403.515" x2="247.044" y2="285.854" gradientUnits="userSpaceOnUse">
<stop stop-color="#FF9085"/>
<stop offset="1" stop-color="#FB6FBB"/>
</linearGradient>
<linearGradient id="paint26_linear_17_58" x1="307.576" y1="461.814" x2="323.46" y2="245.124" gradientUnits="userSpaceOnUse">
<stop stop-color="#FF9085"/>
<stop offset="1" stop-color="#FB6FBB"/>
</linearGradient>
<linearGradient id="paint27_linear_17_58" x1="262.746" y1="333.427" x2="286.401" y2="333.427" gradientUnits="userSpaceOnUse">
<stop stop-color="#FFC444"/>
<stop offset="1" stop-color="#F36F56"/>
</linearGradient>
<linearGradient id="paint28_linear_17_58" x1="265.399" y1="331.419" x2="281.988" y2="346.423" gradientUnits="userSpaceOnUse">
<stop stop-color="#FEBBBA"/>
<stop offset="1" stop-color="#FF928E"/>
</linearGradient>
<linearGradient id="paint29_linear_17_58" x1="179.834" y1="321.659" x2="198.419" y2="321.659" gradientUnits="userSpaceOnUse">
<stop stop-color="#FFC444"/>
<stop offset="1" stop-color="#F36F56"/>
</linearGradient>
<linearGradient id="paint30_linear_17_58" x1="181.916" y1="320.526" x2="191.08" y2="332.066" gradientUnits="userSpaceOnUse">
<stop stop-color="#FEBBBA"/>
<stop offset="1" stop-color="#FF928E"/>
</linearGradient>
<linearGradient id="paint31_linear_17_58" x1="81.0392" y1="159.613" x2="35.4822" y2="214.68" gradientUnits="userSpaceOnUse">
<stop stop-color="#F36F56"/>
<stop offset="1" stop-color="#FFC444"/>
</linearGradient>
<linearGradient id="paint32_linear_17_58" x1="95.0007" y1="171.163" x2="49.4437" y2="226.23" gradientUnits="userSpaceOnUse">
<stop stop-color="#F36F56"/>
<stop offset="1" stop-color="#FFC444"/>
</linearGradient>
<linearGradient id="paint33_linear_17_58" x1="66.7289" y1="172.617" x2="148.115" y2="91.2309" gradientUnits="userSpaceOnUse">
<stop stop-color="#FFC444"/>
<stop offset="1" stop-color="#F36F56"/>
</linearGradient>
<linearGradient id="paint34_linear_17_58" x1="76.0995" y1="181.99" x2="157.488" y2="100.602" gradientUnits="userSpaceOnUse">
<stop stop-color="#FFC444"/>
<stop offset="1" stop-color="#F36F56"/>
</linearGradient>
<linearGradient id="paint35_linear_17_58" x1="95.3385" y1="155.843" x2="96.8971" y2="132.646" gradientUnits="userSpaceOnUse">
<stop offset="0.1" stop-color="#311944"/>
<stop offset="0.27" stop-color="#371B47"/>
<stop offset="0.48" stop-color="#462150"/>
<stop offset="0.72" stop-color="#612A5F"/>
<stop offset="0.97" stop-color="#853774"/>
<stop offset="1" stop-color="#893976"/>
</linearGradient>
<linearGradient id="paint36_linear_17_58" x1="85.5582" y1="139.163" x2="103.075" y2="148.555" gradientUnits="userSpaceOnUse">
<stop offset="0.1" stop-color="#311944"/>
<stop offset="0.27" stop-color="#371B47"/>
<stop offset="0.48" stop-color="#462150"/>
<stop offset="0.72" stop-color="#612A5F"/>
<stop offset="0.97" stop-color="#853774"/>
<stop offset="1" stop-color="#893976"/>
</linearGradient>
<linearGradient id="paint37_linear_17_58" x1="58.0672" y1="167.857" x2="48.3878" y2="79.3782" gradientUnits="userSpaceOnUse">
<stop offset="0.1" stop-color="#311944"/>
<stop offset="0.69" stop-color="#6D2F66"/>
<stop offset="1" stop-color="#893976"/>
</linearGradient>
<linearGradient id="paint38_linear_17_58" x1="42.3263" y1="154.73" x2="61.8037" y2="187.391" gradientUnits="userSpaceOnUse">
<stop stop-color="#311944"/>
<stop offset="1" stop-color="#893976"/>
</linearGradient>
<linearGradient id="paint39_linear_17_58" x1="67.1978" y1="164.306" x2="92.5398" y2="163.322" gradientUnits="userSpaceOnUse">
<stop offset="0.1" stop-color="#311944"/>
<stop offset="0.69" stop-color="#6D2F66"/>
<stop offset="1" stop-color="#893976"/>
</linearGradient>
<linearGradient id="paint40_linear_17_58" x1="109.662" y1="260.806" x2="96.345" y2="139.071" gradientUnits="userSpaceOnUse">
<stop stop-color="#311944"/>
<stop offset="1" stop-color="#893976"/>
</linearGradient>
<linearGradient id="paint41_linear_17_58" x1="130.312" y1="197.14" x2="86.8735" y2="174.433" gradientUnits="userSpaceOnUse">
<stop stop-color="#FFC444"/>
<stop offset="1" stop-color="#F36F56"/>
</linearGradient>
<linearGradient id="paint42_linear_17_58" x1="91.2469" y1="177.922" x2="136.002" y2="193.938" gradientUnits="userSpaceOnUse">
<stop stop-color="#FFC444"/>
<stop offset="1" stop-color="#F36F56"/>
</linearGradient>
<linearGradient id="paint43_linear_17_58" x1="343.415" y1="350.419" x2="461.995" y2="350.419" gradientUnits="userSpaceOnUse">
<stop stop-color="#444B8C"/>
<stop offset="1" stop-color="#26264F"/>
</linearGradient>
<linearGradient id="paint44_linear_17_58" x1="422.227" y1="488.069" x2="423.727" y2="376.608" gradientUnits="userSpaceOnUse">
<stop stop-color="#444B8C"/>
<stop offset="1" stop-color="#26264F"/>
</linearGradient>
<linearGradient id="paint45_linear_17_58" x1="425.84" y1="487.41" x2="427.332" y2="376.341" gradientUnits="userSpaceOnUse">
<stop stop-color="#AA80F9"/>
<stop offset="1" stop-color="#6165D7"/>
</linearGradient>
<linearGradient id="paint46_linear_17_58" x1="397.554" y1="321.677" x2="458.058" y2="321.677" gradientUnits="userSpaceOnUse">
<stop stop-color="#AA80F9"/>
<stop offset="1" stop-color="#6165D7"/>
</linearGradient>
<linearGradient id="paint47_linear_17_58" x1="397.554" y1="331.093" x2="458.023" y2="331.093" gradientUnits="userSpaceOnUse">
<stop stop-color="#AA80F9"/>
<stop offset="1" stop-color="#6165D7"/>
</linearGradient>
<linearGradient id="paint48_linear_17_58" x1="428.793" y1="306.781" x2="424.699" y2="400.116" gradientUnits="userSpaceOnUse">
<stop stop-color="#E38DDD"/>
<stop offset="1" stop-color="#9571F6"/>
</linearGradient>
<linearGradient id="paint49_linear_17_58" x1="446.715" y1="317.135" x2="445.913" y2="335.44" gradientUnits="userSpaceOnUse">
<stop stop-color="#311944"/>
<stop offset="1" stop-color="#A03976"/>
</linearGradient>
<linearGradient id="paint50_linear_17_58" x1="451.298" y1="317.055" x2="450.494" y2="335.379" gradientUnits="userSpaceOnUse">
<stop stop-color="#311944"/>
<stop offset="1" stop-color="#A03976"/>
</linearGradient>
<linearGradient id="paint51_linear_17_58" x1="446.711" y1="322.008" x2="445.852" y2="341.615" gradientUnits="userSpaceOnUse">
<stop stop-color="#311944"/>
<stop offset="1" stop-color="#A03976"/>
</linearGradient>
<linearGradient id="paint52_linear_17_58" x1="451.306" y1="321.583" x2="450.387" y2="342.515" gradientUnits="userSpaceOnUse">
<stop stop-color="#311944"/>
<stop offset="1" stop-color="#A03976"/>
</linearGradient>
<linearGradient id="paint53_linear_17_58" x1="452.115" y1="322.803" x2="434.443" y2="322.029" gradientUnits="userSpaceOnUse">
<stop stop-color="#311944"/>
<stop offset="1" stop-color="#A03976"/>
</linearGradient>
<linearGradient id="paint54_linear_17_58" x1="452.117" y1="318.03" x2="434.438" y2="317.255" gradientUnits="userSpaceOnUse">
<stop stop-color="#311944"/>
<stop offset="1" stop-color="#A03976"/>
</linearGradient>
<linearGradient id="paint55_linear_17_58" x1="452.232" y1="327.81" x2="433.206" y2="326.975" gradientUnits="userSpaceOnUse">
<stop stop-color="#311944"/>
<stop offset="1" stop-color="#A03976"/>
</linearGradient>
<linearGradient id="paint56_linear_17_58" x1="459.354" y1="315.565" x2="363.803" y2="368.718" gradientUnits="userSpaceOnUse">
<stop stop-color="#444B8C"/>
<stop offset="1" stop-color="#3E4177"/>
</linearGradient>
<linearGradient id="paint57_linear_17_58" x1="461.401" y1="321.916" x2="368.845" y2="373.403" gradientUnits="userSpaceOnUse">
<stop stop-color="#444B8C"/>
<stop offset="1" stop-color="#3E4177"/>
</linearGradient>
<linearGradient id="paint58_linear_17_58" x1="463.257" y1="327.876" x2="373.457" y2="377.83" gradientUnits="userSpaceOnUse">
<stop stop-color="#444B8C"/>
<stop offset="1" stop-color="#3E4177"/>
</linearGradient>
<linearGradient id="paint59_linear_17_58" x1="465.789" y1="333.465" x2="378.701" y2="381.91" gradientUnits="userSpaceOnUse">
<stop stop-color="#444B8C"/>
<stop offset="1" stop-color="#3E4177"/>
</linearGradient>
<linearGradient id="paint60_linear_17_58" x1="464.193" y1="323.118" x2="368.177" y2="376.532" gradientUnits="userSpaceOnUse">
<stop stop-color="#444B8C"/>
<stop offset="1" stop-color="#3E4177"/>
</linearGradient>
<linearGradient id="paint61_linear_17_58" x1="466.027" y1="329.405" x2="373.02" y2="381.143" gradientUnits="userSpaceOnUse">
<stop stop-color="#444B8C"/>
<stop offset="1" stop-color="#3E4177"/>
</linearGradient>
<linearGradient id="paint62_linear_17_58" x1="467.688" y1="335.303" x2="377.449" y2="385.502" gradientUnits="userSpaceOnUse">
<stop stop-color="#444B8C"/>
<stop offset="1" stop-color="#3E4177"/>
</linearGradient>
<linearGradient id="paint63_linear_17_58" x1="470.026" y1="340.83" x2="382.516" y2="389.511" gradientUnits="userSpaceOnUse">
<stop stop-color="#444B8C"/>
<stop offset="1" stop-color="#3E4177"/>
</linearGradient>
<linearGradient id="paint64_linear_17_58" x1="469.071" y1="330.4" x2="372.598" y2="384.069" gradientUnits="userSpaceOnUse">
<stop stop-color="#444B8C"/>
<stop offset="1" stop-color="#3E4177"/>
</linearGradient>
<linearGradient id="paint65_linear_17_58" x1="470.692" y1="336.629" x2="377.245" y2="388.612" gradientUnits="userSpaceOnUse">
<stop stop-color="#444B8C"/>
<stop offset="1" stop-color="#3E4177"/>
</linearGradient>
<linearGradient id="paint66_linear_17_58" x1="472.156" y1="342.472" x2="381.49" y2="392.908" gradientUnits="userSpaceOnUse">
<stop stop-color="#444B8C"/>
<stop offset="1" stop-color="#3E4177"/>
</linearGradient>
<linearGradient id="paint67_linear_17_58" x1="474.303" y1="347.937" x2="386.38" y2="396.848" gradientUnits="userSpaceOnUse">
<stop stop-color="#444B8C"/>
<stop offset="1" stop-color="#3E4177"/>
</linearGradient>
<linearGradient id="paint68_linear_17_58" x1="473.983" y1="337.417" x2="377.067" y2="391.332" gradientUnits="userSpaceOnUse">
<stop stop-color="#444B8C"/>
<stop offset="1" stop-color="#3E4177"/>
</linearGradient>
<linearGradient id="paint69_linear_17_58" x1="475.391" y1="343.591" x2="381.515" y2="395.813" gradientUnits="userSpaceOnUse">
<stop stop-color="#444B8C"/>
<stop offset="1" stop-color="#3E4177"/>
</linearGradient>
<linearGradient id="paint70_linear_17_58" x1="476.659" y1="349.382" x2="385.578" y2="400.048" gradientUnits="userSpaceOnUse">
<stop stop-color="#444B8C"/>
<stop offset="1" stop-color="#3E4177"/>
</linearGradient>
<linearGradient id="paint71_linear_17_58" x1="478.961" y1="345.101" x2="381.57" y2="399.28" gradientUnits="userSpaceOnUse">
<stop stop-color="#444B8C"/>
<stop offset="1" stop-color="#3E4177"/>
</linearGradient>
<linearGradient id="paint72_linear_17_58" x1="480.15" y1="351.212" x2="385.815" y2="403.69" gradientUnits="userSpaceOnUse">
<stop stop-color="#444B8C"/>
<stop offset="1" stop-color="#3E4177"/>
</linearGradient>
<linearGradient id="paint73_linear_17_58" x1="481.216" y1="356.94" x2="389.691" y2="407.855" gradientUnits="userSpaceOnUse">
<stop stop-color="#444B8C"/>
<stop offset="1" stop-color="#3E4177"/>
</linearGradient>
<linearGradient id="paint74_linear_17_58" x1="480.552" y1="358.636" x2="392.55" y2="407.591" gradientUnits="userSpaceOnUse">
<stop stop-color="#444B8C"/>
<stop offset="1" stop-color="#3E4177"/>
</linearGradient>
<linearGradient id="paint75_linear_17_58" x1="408.282" y1="338.052" x2="406.706" y2="373.998" gradientUnits="userSpaceOnUse">
<stop stop-color="#444B8C"/>
<stop offset="1" stop-color="#26264F"/>
</linearGradient>
<linearGradient id="paint76_linear_17_58" x1="422.443" y1="337.521" x2="420.897" y2="372.787" gradientUnits="userSpaceOnUse">
<stop stop-color="#444B8C"/>
<stop offset="1" stop-color="#26264F"/>
</linearGradient>
<linearGradient id="paint77_linear_17_58" x1="436.608" y1="336.99" x2="435.091" y2="371.581" gradientUnits="userSpaceOnUse">
<stop stop-color="#444B8C"/>
<stop offset="1" stop-color="#26264F"/>
</linearGradient>
<linearGradient id="paint78_linear_17_58" x1="450.298" y1="336.477" x2="448.808" y2="370.418" gradientUnits="userSpaceOnUse">
<stop stop-color="#444B8C"/>
<stop offset="1" stop-color="#26264F"/>
</linearGradient>
<linearGradient id="paint79_linear_17_58" x1="408.28" y1="348.19" x2="406.678" y2="384.719" gradientUnits="userSpaceOnUse">
<stop stop-color="#444B8C"/>
<stop offset="1" stop-color="#26264F"/>
</linearGradient>
<linearGradient id="paint80_linear_17_58" x1="422.435" y1="347.493" x2="420.862" y2="383.322" gradientUnits="userSpaceOnUse">
<stop stop-color="#444B8C"/>
<stop offset="1" stop-color="#26264F"/>
</linearGradient>
<linearGradient id="paint81_linear_17_58" x1="436.594" y1="346.791" x2="435.053" y2="381.928" gradientUnits="userSpaceOnUse">
<stop stop-color="#444B8C"/>
<stop offset="1" stop-color="#26264F"/>
</linearGradient>
<linearGradient id="paint82_linear_17_58" x1="450.275" y1="346.116" x2="448.763" y2="380.582" gradientUnits="userSpaceOnUse">
<stop stop-color="#444B8C"/>
<stop offset="1" stop-color="#26264F"/>
</linearGradient>
<linearGradient id="paint83_linear_17_58" x1="408.278" y1="358.085" x2="406.651" y2="395.183" gradientUnits="userSpaceOnUse">
<stop stop-color="#444B8C"/>
<stop offset="1" stop-color="#26264F"/>
</linearGradient>
<linearGradient id="paint84_linear_17_58" x1="422.426" y1="357.222" x2="420.83" y2="393.603" gradientUnits="userSpaceOnUse">
<stop stop-color="#444B8C"/>
<stop offset="1" stop-color="#26264F"/>
</linearGradient>
<linearGradient id="paint85_linear_17_58" x1="436.578" y1="356.357" x2="435.013" y2="392.025" gradientUnits="userSpaceOnUse">
<stop stop-color="#444B8C"/>
<stop offset="1" stop-color="#26264F"/>
</linearGradient>
<linearGradient id="paint86_linear_17_58" x1="450.253" y1="355.522" x2="448.72" y2="390.502" gradientUnits="userSpaceOnUse">
<stop stop-color="#444B8C"/>
<stop offset="1" stop-color="#26264F"/>
</linearGradient>
<linearGradient id="paint87_linear_17_58" x1="408.275" y1="367.732" x2="406.624" y2="405.39" gradientUnits="userSpaceOnUse">
<stop stop-color="#444B8C"/>
<stop offset="1" stop-color="#26264F"/>
</linearGradient>
<linearGradient id="paint88_linear_17_58" x1="422.418" y1="366.709" x2="420.798" y2="403.63" gradientUnits="userSpaceOnUse">
<stop stop-color="#444B8C"/>
<stop offset="1" stop-color="#26264F"/>
</linearGradient>
<linearGradient id="paint89_linear_17_58" x1="436.563" y1="365.684" x2="434.976" y2="401.872" gradientUnits="userSpaceOnUse">
<stop stop-color="#444B8C"/>
<stop offset="1" stop-color="#26264F"/>
</linearGradient>
<linearGradient id="paint90_linear_17_58" x1="408.274" y1="378.075" x2="406.597" y2="416.334" gradientUnits="userSpaceOnUse">
<stop stop-color="#444B8C"/>
<stop offset="1" stop-color="#26264F"/>
</linearGradient>
<linearGradient id="paint91_linear_17_58" x1="422.408" y1="376.882" x2="420.763" y2="414.383" gradientUnits="userSpaceOnUse">
<stop stop-color="#444B8C"/>
<stop offset="1" stop-color="#26264F"/>
</linearGradient>
<linearGradient id="paint92_linear_17_58" x1="436.547" y1="375.685" x2="434.934" y2="412.434" gradientUnits="userSpaceOnUse">
<stop stop-color="#444B8C"/>
<stop offset="1" stop-color="#26264F"/>
</linearGradient>
<linearGradient id="paint93_linear_17_58" x1="450.643" y1="359.97" x2="446.679" y2="450.344" gradientUnits="userSpaceOnUse">
<stop stop-color="#444B8C"/>
<stop offset="1" stop-color="#26264F"/>
</linearGradient>
<linearGradient id="paint94_linear_17_58" x1="398.336" y1="353.839" x2="388.046" y2="375.008" gradientUnits="userSpaceOnUse">
<stop stop-color="#FF9085"/>
<stop offset="1" stop-color="#FB6FBB"/>
</linearGradient>
<linearGradient id="paint95_linear_17_58" x1="362.609" y1="397.112" x2="369.516" y2="381.403" gradientUnits="userSpaceOnUse">
<stop stop-color="#FFC444"/>
<stop offset="1" stop-color="#F36F56"/>
</linearGradient>
<linearGradient id="paint96_linear_17_58" x1="379.218" y1="388.129" x2="439.018" y2="388.129" gradientUnits="userSpaceOnUse">
<stop stop-color="#FFC444"/>
<stop offset="1" stop-color="#F36F56"/>
</linearGradient>
<linearGradient id="paint97_linear_17_58" x1="372.636" y1="354.756" x2="360.528" y2="395.542" gradientUnits="userSpaceOnUse">
<stop stop-color="#FF9085"/>
<stop offset="1" stop-color="#FB6FBB"/>
</linearGradient>
<linearGradient id="paint98_linear_17_58" x1="379.218" y1="371.12" x2="439.018" y2="371.12" gradientUnits="userSpaceOnUse">
<stop stop-color="#FF9085"/>
<stop offset="1" stop-color="#FB6FBB"/>
</linearGradient>
<linearGradient id="paint99_linear_17_58" x1="307.09" y1="163.619" x2="425.669" y2="163.619" gradientUnits="userSpaceOnUse">
<stop stop-color="#444B8C"/>
<stop offset="1" stop-color="#26264F"/>
</linearGradient>
<linearGradient id="paint100_linear_17_58" x1="400.617" y1="154.035" x2="414.409" y2="147.902" gradientUnits="userSpaceOnUse">
<stop stop-color="#40447E"/>
<stop offset="1" stop-color="#3C3B6B"/>
</linearGradient>
<linearGradient id="paint101_linear_17_58" x1="359.968" y1="121.721" x2="393.489" y2="149.349" gradientUnits="userSpaceOnUse">
<stop stop-color="#FFC444"/>
<stop offset="1" stop-color="#F36F56"/>
</linearGradient>
<linearGradient id="paint102_linear_17_58" x1="356.03" y1="120.815" x2="368.773" y2="129.771" gradientUnits="userSpaceOnUse">
<stop stop-color="#AB316D"/>
<stop offset="1" stop-color="#792D3D"/>
</linearGradient>
<linearGradient id="paint103_linear_17_58" x1="341.268" y1="113.877" x2="361.529" y2="124.552" gradientUnits="userSpaceOnUse">
<stop stop-color="#FF9085"/>
<stop offset="1" stop-color="#FB6FBB"/>
</linearGradient>
<linearGradient id="paint104_linear_17_58" x1="341.268" y1="113.877" x2="361.529" y2="124.552" gradientUnits="userSpaceOnUse">
<stop stop-color="#FF9085"/>
<stop offset="1" stop-color="#FB6FBB"/>
</linearGradient>
<linearGradient id="paint105_linear_17_58" x1="340.556" y1="115.228" x2="360.818" y2="125.905" gradientUnits="userSpaceOnUse">
<stop stop-color="#FF9085"/>
<stop offset="1" stop-color="#FB6FBB"/>
</linearGradient>
<linearGradient id="paint106_linear_17_58" x1="431.438" y1="175.652" x2="376.294" y2="177.1" gradientUnits="userSpaceOnUse">
<stop stop-color="#FFC444"/>
<stop offset="1" stop-color="#F36F56"/>
</linearGradient>
<linearGradient id="paint107_linear_17_58" x1="416.999" y1="178.13" x2="282.924" y2="168.58" gradientUnits="userSpaceOnUse">
<stop stop-color="#FFC444"/>
<stop offset="1" stop-color="#F36F56"/>
</linearGradient>
<linearGradient id="paint108_linear_17_58" x1="364.763" y1="107.255" x2="338.322" y2="174.539" gradientUnits="userSpaceOnUse">
<stop offset="0.1" stop-color="#311944"/>
<stop offset="0.27" stop-color="#371B47"/>
<stop offset="0.48" stop-color="#462150"/>
<stop offset="0.72" stop-color="#612A5F"/>
<stop offset="0.97" stop-color="#853774"/>
<stop offset="1" stop-color="#893976"/>
</linearGradient>
<linearGradient id="paint109_linear_17_58" x1="356.689" y1="180.274" x2="348.966" y2="199.925" gradientUnits="userSpaceOnUse">
<stop stop-color="#AA80F9"/>
<stop offset="1" stop-color="#6165D7"/>
</linearGradient>
<linearGradient id="paint110_linear_17_58" x1="378.771" y1="185.601" x2="370.486" y2="206.682" gradientUnits="userSpaceOnUse">
<stop stop-color="#FF9085"/>
<stop offset="1" stop-color="#FB6FBB"/>
</linearGradient>
<linearGradient id="paint111_linear_17_58" x1="389.099" y1="197.629" x2="380.813" y2="218.71" gradientUnits="userSpaceOnUse">
<stop stop-color="#E38DDD"/>
<stop offset="1" stop-color="#9571F6"/>
</linearGradient>
</defs>
</svg>
