<svg width="481" height="480" viewBox="0 0 481 480" fill="none" xmlns="http://www.w3.org/2000/svg">
<g clip-path="url(#clip0_17_202)">
<path d="M422.847 412.483C413.037 422.81 403.755 429.472 396.421 434.734C310.21 496.59 208.195 478.559 186.52 474.158C154.506 467.657 92.6239 455.088 47.8823 402.474C-19.8057 322.871 -9.26572 197.472 43.2386 114.68C52.8331 99.5367 103.572 15.4928 206.679 2.01517C269.08 -6.14185 341.818 10.3083 394.493 54.4393C505.063 147.076 497.192 334.215 422.847 412.483Z" fill="url(#paint0_linear_17_202)"/>
<path d="M345.258 273.21C345.258 273.21 343.862 214.202 371.032 198.41C398.202 182.617 449.881 172.744 451.821 88.0161C452.957 38.4128 454.183 16.7259 455.006 7.26922C455.083 6.41001 454.959 5.54477 454.645 4.74141C454.331 3.93806 453.835 3.21845 453.196 2.63905C452.556 2.05966 451.792 1.63625 450.962 1.40205C450.131 1.16786 449.258 1.12925 448.411 1.28926C422.67 6.13708 339.058 26.0953 321.523 83.1683C300.74 150.827 345.258 273.21 345.258 273.21Z" fill="#30ABBA"/>
<path d="M428.503 24.8618C400.243 50.0603 367.578 94.6571 350.165 139.254C347.929 146.605 341.391 162.235 338.552 190.005C336.016 213.166 337.277 237.641 340.351 253.841C340.444 254.333 340.729 254.768 341.143 255.05C341.557 255.332 342.066 255.438 342.558 255.345C344.32 255.01 344.086 253.116 344.068 253.175C340.557 225.496 342.015 191.045 350.062 159.959C360.341 121.788 383.273 84.78 406.99 53.3957L409.433 50.3045C427.809 26.7074 431.676 26.533 429.96 24.888C429.764 24.7018 429.506 24.5958 429.236 24.591C428.967 24.5861 428.705 24.6828 428.503 24.8618Z" fill="#BDD0FB"/>
<path d="M311.295 381.441C307.618 383.245 346.106 334.845 358.162 258.833C363.843 223.014 363.918 178.135 384.328 160.84C401.311 146.447 459.097 155.533 478.005 158.988C478.535 159.083 479.026 159.328 479.422 159.693C479.818 160.058 480.101 160.528 480.24 161.048C480.378 161.569 480.365 162.117 480.203 162.631C480.041 163.144 479.736 163.601 479.324 163.947C470.253 171.563 450.86 189.524 445.806 207.628C439.137 231.488 416.452 246.665 396.145 250.772C375.838 254.878 364.539 258.864 354.645 291.342C344.75 323.82 321.743 376.318 311.295 381.441Z" fill="#6165D7"/>
<path d="M451.401 169.068C427.277 170.078 401.382 181.082 388.241 201.724L387.001 203.694C384.137 208.313 367.901 241.145 358.884 268.362C358.83 268.525 358.844 268.703 358.921 268.856C358.998 269.01 359.133 269.126 359.296 269.18C359.454 269.23 359.626 269.217 359.776 269.146C359.926 269.074 360.044 268.948 360.105 268.793C366.385 253.418 375.411 233.923 382.596 219.347C390.303 203.439 395.695 192.667 413.274 182.349C432.84 171.237 451.53 170.092 451.477 170.103C451.601 170.077 451.711 170.007 451.788 169.906C451.864 169.805 451.901 169.68 451.892 169.554C451.883 169.427 451.829 169.309 451.739 169.219C451.649 169.13 451.53 169.077 451.404 169.068H451.401Z" fill="url(#paint1_linear_17_202)"/>
<path d="M92.9641 114.534C92.9638 110.91 93.6774 107.321 95.0642 103.973C96.4509 100.625 98.4835 97.583 101.046 95.0205C103.609 92.458 106.651 90.4253 109.999 89.0386C113.347 87.6519 116.935 86.9382 120.559 86.9385H355.233C361.467 86.9389 367.462 89.3336 371.981 93.628C376.5 97.9224 379.196 103.788 379.514 110.014L396.836 450.242C396.959 452.643 396.597 455.044 395.773 457.302C394.949 459.561 393.679 461.63 392.039 463.388C390.398 465.145 388.422 466.555 386.225 467.534C384.029 468.512 381.659 469.038 379.256 469.082L110.29 473.966C108.029 474.007 105.784 473.598 103.683 472.761C101.583 471.924 99.6705 470.677 98.0575 469.093C96.4445 467.509 95.1633 465.62 94.2888 463.535C93.4143 461.45 92.9639 459.212 92.9641 456.951V114.534Z" fill="url(#paint2_linear_17_202)"/>
<path d="M149.601 468.186H149.592L119.497 467.797C109.433 467.667 101.247 459.373 101.247 449.306V403.87C101.247 403.7 101.314 403.537 101.435 403.417C101.555 403.296 101.718 403.229 101.889 403.229C102.059 403.229 102.222 403.296 102.343 403.417C102.463 403.537 102.531 403.7 102.531 403.87V449.31C102.531 458.674 110.149 466.391 119.513 466.514L149.611 466.903C149.782 466.903 149.945 466.97 150.065 467.091C150.186 467.211 150.253 467.374 150.253 467.544C150.253 467.715 150.186 467.878 150.065 467.998C149.945 468.119 149.782 468.186 149.611 468.186H149.601Z" fill="#91B3FA"/>
<path d="M101.889 390.439C101.718 390.439 101.555 390.371 101.435 390.251C101.314 390.13 101.247 389.967 101.247 389.797V382.439C101.247 382.269 101.314 382.105 101.435 381.985C101.555 381.865 101.718 381.797 101.889 381.797C102.059 381.797 102.222 381.865 102.343 381.985C102.463 382.105 102.531 382.269 102.531 382.439V389.797C102.531 389.967 102.463 390.13 102.343 390.251C102.222 390.371 102.059 390.439 101.889 390.439Z" fill="url(#paint3_linear_17_202)"/>
<path d="M112.19 92.1751C112.182 91.0271 112.421 89.8909 112.891 88.8433C113.36 87.7957 114.049 86.8612 114.911 86.1032C115.774 85.3451 116.788 84.7811 117.888 84.4493C118.987 84.1176 120.144 84.0258 121.282 84.1803C153.327 88.5257 263.527 101.974 354.64 94.9732C355.625 94.8956 356.617 95.0161 357.555 95.3275C358.493 95.6388 359.36 96.1348 360.104 96.7861C360.848 97.4375 361.454 98.231 361.886 99.1201C362.319 100.009 362.569 100.976 362.622 101.963L380.785 443.712C380.906 445.963 380.131 448.17 378.629 449.851C377.127 451.531 375.021 452.549 372.771 452.682C334.453 454.95 176.638 463.716 120.35 457.82C118.696 457.645 117.164 456.866 116.048 455.632C114.932 454.399 114.311 452.797 114.302 451.133L112.19 92.1751Z" fill="url(#paint4_linear_17_202)"/>
<path d="M115.965 100.739C115.957 99.634 116.187 98.5407 116.639 97.5328C117.091 96.5248 117.754 95.6257 118.584 94.8963C119.413 94.1669 120.39 93.6241 121.447 93.3048C122.505 92.9855 123.618 92.8971 124.713 93.0455C155.553 97.2322 261.605 110.162 349.286 103.43C350.234 103.357 351.187 103.473 352.09 103.773C352.992 104.073 353.826 104.551 354.541 105.178C355.256 105.805 355.839 106.568 356.254 107.424C356.67 108.279 356.91 109.209 356.962 110.159L374.441 439.039C374.559 441.205 373.814 443.33 372.368 444.948C370.923 446.566 368.895 447.545 366.729 447.67C329.853 449.853 177.98 458.289 123.809 452.616C122.217 452.448 120.743 451.698 119.67 450.51C118.596 449.322 117.999 447.78 117.992 446.179L115.965 100.739Z" fill="url(#paint5_linear_17_202)"/>
<path opacity="0.78" d="M144.514 126.094L147.788 196.599C147.84 197.73 148.318 198.798 149.125 199.591C149.931 200.384 151.008 200.843 152.139 200.875C165.196 201.245 205.887 202.236 228.862 201.039C230.115 200.973 231.297 200.439 232.175 199.543C233.053 198.647 233.563 197.454 233.603 196.2C234.041 182.977 234.999 144.491 231.988 128.402C231.749 127.14 231.088 125.998 230.112 125.162C229.137 124.327 227.907 123.848 226.623 123.805L149.437 121.11C148.779 121.088 148.124 121.201 147.512 121.445C146.901 121.688 146.346 122.055 145.884 122.524C145.421 122.992 145.061 123.551 144.825 124.165C144.589 124.78 144.483 125.437 144.514 126.094Z" fill="white"/>
<g opacity="0.6">
<path d="M337.741 132.23C339.184 132.23 340.333 131.166 340.295 129.864C340.257 128.563 339.046 127.478 337.603 127.452L252.708 125.95C251.266 125.924 250.477 127.017 250.964 128.378L251.452 129.774C251.932 131.134 253.504 132.249 254.941 132.249L337.741 132.23Z" fill="white"/>
</g>
<g opacity="0.6">
<path d="M252.708 139.086C251.266 139.06 250.477 140.154 250.964 141.515L251.452 142.901C251.932 144.262 253.504 145.377 254.941 145.377H337.736C339.179 145.377 340.328 144.313 340.29 143.011C340.251 141.71 339.041 140.625 337.598 140.599L252.708 139.086Z" fill="white"/>
</g>
<g opacity="0.6">
<path d="M252.708 152.421C251.266 152.397 250.477 153.489 250.964 154.85L251.452 156.245C251.932 157.606 253.504 158.719 254.941 158.719H337.736C339.179 158.719 340.328 157.655 340.29 156.353C340.251 155.052 339.041 153.967 337.598 153.942L252.708 152.421Z" fill="white"/>
</g>
<g opacity="0.6">
<path d="M345.961 223.022C347.404 223.022 348.515 221.958 348.429 220.657C348.344 219.356 347.091 218.283 345.649 218.272L147.113 216.702C145.671 216.69 145.226 217.604 146.124 218.733L147.902 220.966C148.8 222.094 150.717 223.017 152.16 223.017L345.961 223.022Z" fill="white"/>
</g>
<g opacity="0.6">
<path d="M147.113 229.852C145.671 229.839 145.226 230.754 146.124 231.882L147.902 234.115C148.8 235.244 150.717 236.167 152.16 236.167H345.968C347.411 236.167 348.522 235.102 348.436 233.803C348.351 232.503 347.098 231.427 345.656 231.416L147.113 229.852Z" fill="white"/>
</g>
<path d="M146.346 251.798C151.113 251.434 160.04 251.265 164.956 251.195C165.966 251.18 166.952 251.509 167.751 252.128C168.55 252.747 169.114 253.619 169.352 254.602C170.301 258.534 171.609 265.361 171.445 272.596C171.423 273.637 170.992 274.627 170.244 275.352C169.497 276.077 168.495 276.478 167.454 276.468L149.311 276.273C148.235 276.26 147.201 275.849 146.409 275.12C145.617 274.39 145.123 273.394 145.022 272.322L143.427 255.261C143.388 254.841 143.432 254.418 143.558 254.016C143.684 253.613 143.888 253.24 144.16 252.917C144.432 252.595 144.765 252.33 145.14 252.138C145.516 251.946 145.925 251.83 146.346 251.798Z" fill="url(#paint6_linear_17_202)"/>
<g opacity="0.6">
<path d="M179.757 258.799C178.315 258.74 177.315 259.858 177.526 261.285L178.002 264.458C178.13 265.171 178.499 265.818 179.048 266.29C179.596 266.763 180.291 267.032 181.015 267.052H225.32C225.663 267.052 226.002 266.984 226.318 266.852C226.633 266.72 226.92 266.527 227.161 266.284C227.402 266.04 227.592 265.752 227.721 265.435C227.849 265.117 227.914 264.778 227.911 264.435L227.899 263.439C227.88 262.734 227.597 262.061 227.105 261.554C226.613 261.048 225.949 260.746 225.244 260.708L179.757 258.799Z" fill="white"/>
</g>
<path d="M245.146 251.798C249.914 251.434 258.842 251.265 263.756 251.195C264.767 251.179 265.753 251.508 266.552 252.127C267.351 252.746 267.916 253.619 268.154 254.602C269.101 258.534 270.409 265.362 270.247 272.596C270.225 273.637 269.794 274.627 269.046 275.352C268.299 276.077 267.297 276.478 266.256 276.468L248.113 276.273C247.037 276.26 246.003 275.849 245.211 275.12C244.419 274.39 243.925 273.394 243.824 272.322L242.229 255.261C242.19 254.842 242.234 254.418 242.36 254.016C242.486 253.614 242.691 253.241 242.962 252.919C243.234 252.596 243.566 252.331 243.941 252.139C244.316 251.947 244.726 251.831 245.146 251.798Z" fill="url(#paint7_linear_17_202)"/>
<g opacity="0.6">
<path d="M278.557 258.799C277.116 258.74 276.115 259.858 276.326 261.285L276.802 264.458C276.93 265.171 277.3 265.818 277.849 266.29C278.398 266.763 279.093 267.032 279.817 267.052H324.114C324.456 267.052 324.795 266.984 325.111 266.852C325.427 266.72 325.713 266.527 325.954 266.284C326.195 266.04 326.385 265.752 326.514 265.435C326.643 265.117 326.707 264.778 326.704 264.435L326.692 263.439C326.674 262.734 326.391 262.061 325.899 261.555C325.408 261.048 324.743 260.746 324.039 260.708L278.557 258.799Z" fill="white"/>
</g>
<g opacity="0.6">
<path d="M140.786 310.163C141.409 312 143.549 313.275 145.986 313.257L344.64 311.942C346.887 311.926 348.686 310.482 348.637 308.73C348.588 307.028 346.809 305.665 344.625 305.657L145.966 304.95C142.459 304.938 139.893 307.523 140.786 310.163Z" fill="white"/>
</g>
<g opacity="0.6">
<path d="M140.786 346.033C141.409 347.87 143.549 349.144 145.986 349.128L344.64 347.808C346.887 347.794 348.686 346.349 348.637 344.598C348.588 342.895 346.809 341.531 344.625 341.524L145.964 340.826C142.459 340.805 139.893 343.391 140.786 346.033Z" fill="white"/>
</g>
<g opacity="0.6">
<path d="M140.786 381.9C141.409 383.737 143.549 385.012 145.986 384.996L344.64 383.676C346.887 383.66 348.686 382.216 348.637 380.464C348.588 378.762 346.809 377.399 344.625 377.392L145.964 376.694C142.459 376.674 139.893 379.257 140.786 381.9Z" fill="white"/>
</g>
<g opacity="0.6">
<path d="M140.786 417.767C141.409 419.604 143.549 420.879 145.986 420.862L344.64 419.539C346.887 419.524 348.686 418.079 348.637 416.328C348.588 414.625 346.809 413.263 344.625 413.254L145.966 412.562C142.459 412.539 139.893 415.124 140.786 417.767Z" fill="white"/>
</g>
<path d="M252.45 40.5486C243.974 34.6524 236.604 34.7693 231.414 36.2992C229.119 36.9832 227.133 38.4415 225.793 40.4256C224.453 42.4098 223.842 44.7971 224.064 47.181L226.301 71.6033L252.928 73.9652C252.928 73.9652 269.075 52.1143 252.45 40.5486ZM240.741 60.2609C239.428 60.2609 238.145 59.8715 237.053 59.1419C235.961 58.4124 235.11 57.3755 234.607 56.1623C234.105 54.9491 233.973 53.6142 234.23 52.3262C234.486 51.0383 235.118 49.8553 236.047 48.9268C236.975 47.9983 238.158 47.3659 239.446 47.1097C240.734 46.8536 242.069 46.985 243.282 47.4875C244.495 47.9901 245.532 48.8411 246.262 49.9329C246.991 51.0247 247.381 52.3084 247.381 53.6215C247.378 55.3809 246.678 57.0674 245.433 58.3106C244.188 59.5539 242.501 60.2522 240.741 60.2522V60.2609Z" fill="url(#paint8_linear_17_202)"/>
<path d="M228.961 61.3297C228.801 61.3294 228.647 61.2694 228.529 61.1612C228.41 61.0531 228.337 60.9048 228.323 60.7453L227.974 56.8552C227.959 56.6854 228.012 56.5166 228.121 56.3858C228.23 56.255 228.387 56.1729 228.556 56.1574C228.64 56.1492 228.725 56.1578 228.806 56.1827C228.887 56.2075 228.962 56.2481 229.026 56.3022C229.091 56.3562 229.145 56.4226 229.184 56.4974C229.223 56.5723 229.247 56.6541 229.254 56.7383L229.603 60.6284C229.611 60.7124 229.602 60.7971 229.577 60.8777C229.552 60.9583 229.512 61.0332 229.458 61.0981C229.404 61.1629 229.337 61.2164 229.263 61.2556C229.188 61.2947 229.106 61.3187 229.022 61.3262L228.961 61.3297ZM228.263 53.7064C228.103 53.7066 227.948 53.6468 227.83 53.5386C227.711 53.4304 227.637 53.2818 227.623 53.122L227.353 50.1704C227.145 47.8998 227.728 45.6271 229.005 43.7378C230.281 41.8485 232.172 40.459 234.357 39.8049C237.517 38.8671 240.862 38.7298 244.089 39.4055C244.249 39.4469 244.386 39.5481 244.473 39.688C244.561 39.828 244.591 39.9962 244.558 40.1578C244.525 40.3194 244.431 40.4621 244.295 40.5565C244.16 40.6508 243.994 40.6897 243.831 40.665C240.81 40.0331 237.68 40.1614 234.721 41.0383C232.822 41.6074 231.178 42.8161 230.068 44.4593C228.958 46.1025 228.451 48.0791 228.633 50.0536L228.903 53.0069C228.911 53.0909 228.902 53.1755 228.877 53.256C228.852 53.3365 228.811 53.4113 228.758 53.4761C228.704 53.5409 228.637 53.5944 228.563 53.6337C228.488 53.6729 228.407 53.697 228.323 53.7047L228.263 53.7064Z" fill="#91B3FA"/>
<path d="M189.961 87.3865V75.1073C189.962 74.1019 190.165 73.107 190.558 72.1817C190.951 71.2564 191.526 70.4196 192.249 69.721C192.972 69.0224 193.828 68.4763 194.767 68.1151C195.705 67.7539 196.706 67.585 197.711 67.6184L282.364 70.5194C284.177 70.5817 285.901 71.3179 287.201 72.5841C288.5 73.8503 289.28 75.5555 289.389 77.3664L290.097 89.1658L189.961 87.3865Z" fill="url(#paint9_linear_17_202)"/>
<path d="M221.528 72.2465H217.887C217.723 72.2379 217.567 72.1664 217.454 72.0468C217.34 71.9272 217.277 71.7686 217.277 71.6037C217.277 71.4387 217.34 71.2801 217.454 71.1605C217.567 71.0409 217.723 70.9694 217.887 70.9608H221.528C221.615 70.9563 221.702 70.9695 221.784 70.9998C221.866 71.03 221.941 71.0767 222.005 71.1368C222.068 71.1969 222.118 71.2693 222.153 71.3496C222.187 71.4299 222.205 71.5163 222.205 71.6037C222.205 71.691 222.187 71.7775 222.153 71.8577C222.118 71.938 222.068 72.0104 222.005 72.0705C221.941 72.1307 221.866 72.1773 221.784 72.2075C221.702 72.2378 221.615 72.251 221.528 72.2465Z" fill="#91B3FA"/>
<path d="M194.543 83.5314C194.373 83.5314 194.21 83.4638 194.089 83.3434C193.969 83.223 193.901 83.0597 193.901 82.8895V77.9213C193.906 76.0767 194.641 74.309 195.945 73.0047C197.249 71.7003 199.017 70.9655 200.862 70.9609H214.247C214.411 70.9695 214.566 71.041 214.68 71.1606C214.794 71.2802 214.857 71.4388 214.857 71.6038C214.857 71.7687 214.794 71.9273 214.68 72.0469C214.566 72.1665 214.411 72.238 214.247 72.2466H200.862C199.357 72.248 197.914 72.8462 196.85 73.9101C195.786 74.974 195.187 76.4165 195.185 77.9213V82.8895C195.185 83.0597 195.117 83.223 194.997 83.3434C194.877 83.4638 194.713 83.5314 194.543 83.5314Z" fill="#91B3FA"/>
<path d="M155.466 90.4879C155.564 88.4406 156.446 86.5096 157.93 85.0955C159.414 83.6813 161.385 82.8925 163.434 82.8926H311.479C314.056 82.8924 316.552 83.8023 318.524 85.4618C320.497 87.1213 321.82 89.4239 322.261 91.9637L322.387 92.6876C322.62 94.0373 322.556 95.4218 322.199 96.7441C321.841 98.0663 321.199 99.2945 320.316 100.342C319.434 101.39 318.334 102.233 317.092 102.811C315.85 103.389 314.497 103.688 313.127 103.688H161.242C160.414 103.689 159.595 103.522 158.835 103.197C158.074 102.871 157.387 102.395 156.816 101.796C156.245 101.198 155.802 100.489 155.513 99.7137C155.224 98.9383 155.096 98.1124 155.136 97.286L155.466 90.4879Z" fill="url(#paint10_linear_17_202)"/>
<path d="M219.726 425.87H6.89661V475.472H219.726V425.87Z" fill="url(#paint11_linear_17_202)"/>
<path d="M2.4657 453.249H223.477V471.391C223.477 471.63 223.382 471.86 223.212 472.029C223.043 472.198 222.814 472.293 222.575 472.293H3.8159C3.45827 472.293 3.11528 472.151 2.8624 471.898C2.60951 471.645 2.46744 471.302 2.46744 470.945V453.249H2.4657Z" fill="url(#paint12_linear_17_202)"/>
<path d="M2.4657 453.249H223.477V471.391C223.477 471.63 223.382 471.86 223.212 472.029C223.043 472.198 222.814 472.293 222.575 472.293H3.8159C3.45827 472.293 3.11528 472.151 2.8624 471.898C2.60951 471.645 2.46744 471.302 2.46744 470.945V453.249H2.4657Z" fill="url(#paint13_linear_17_202)"/>
<path d="M2.4657 431.623H223.477V449.333C223.477 449.688 223.336 450.028 223.085 450.279C222.834 450.53 222.493 450.671 222.139 450.671H4.13513C3.69237 450.671 3.26774 450.495 2.95466 450.182C2.64158 449.869 2.4657 449.444 2.4657 449.001V431.623Z" fill="url(#paint14_linear_17_202)"/>
<path d="M2.4657 431.623H223.477V449.333C223.477 449.688 223.336 450.028 223.085 450.279C222.834 450.53 222.493 450.671 222.139 450.671H4.13513C3.69237 450.671 3.26774 450.495 2.95466 450.182C2.64158 449.869 2.4657 449.444 2.4657 449.001V431.623Z" fill="url(#paint15_linear_17_202)"/>
<path d="M3.84377 424.481H222.074C222.444 424.481 222.799 424.628 223.061 424.89C223.322 425.152 223.47 425.507 223.47 425.877V431.623H2.46565V425.867C2.46474 425.685 2.4997 425.505 2.56855 425.337C2.63739 425.169 2.73876 425.016 2.86682 424.888C2.99488 424.759 3.14711 424.657 3.31477 424.587C3.48243 424.517 3.6622 424.481 3.84377 424.481Z" fill="url(#paint16_linear_17_202)"/>
<path d="M423.359 469.43C427.404 461.11 424.878 451.543 417.717 448.061C410.556 444.58 401.472 448.501 397.426 456.821C393.381 465.14 395.907 474.707 403.068 478.189C410.23 481.671 419.314 477.749 423.359 469.43Z" fill="url(#paint17_linear_17_202)"/>
<path d="M394.987 446.311L387.654 461.394C387.39 461.935 387.616 462.587 388.157 462.851L397.337 467.314C397.878 467.577 398.531 467.352 398.794 466.81L406.128 451.727C406.391 451.186 406.165 450.533 405.624 450.27L396.445 445.807C395.903 445.544 395.251 445.769 394.987 446.311Z" fill="url(#paint18_linear_17_202)"/>
<path d="M396.735 444.485C395.418 451.237 392.421 457.27 387.863 462.627C385.399 465.524 381.448 466.822 377.518 466.032C339.95 458.489 261.211 409.824 184.745 367.31C179.677 364.493 176.174 361.297 178.562 356.387L183.836 345.541C186.208 340.657 191.888 343.408 197.217 345.599C278.104 378.829 363.892 407.797 393.344 434.599C396.17 437.17 397.429 440.917 396.735 444.485Z" fill="url(#paint19_linear_17_202)"/>
<path d="M396.735 444.485C395.418 451.237 392.421 457.27 387.863 462.627C385.399 465.524 381.448 466.822 377.518 466.032C339.95 458.489 261.211 409.824 184.745 367.31C179.677 364.493 176.174 361.297 178.562 356.387L183.836 345.541C186.208 340.657 191.888 343.408 197.217 345.599C278.104 378.829 363.892 407.797 393.344 434.599C396.17 437.17 397.429 440.917 396.735 444.485Z" fill="url(#paint20_linear_17_202)"/>
<path d="M196.099 334.458L178.196 371.276C178.074 371.525 177.859 371.715 177.598 371.806C177.336 371.896 177.05 371.88 176.8 371.759L167.356 367.166C167.107 367.045 166.917 366.83 166.826 366.568C166.736 366.307 166.752 366.02 166.873 365.771L184.776 328.963C184.897 328.714 185.112 328.523 185.374 328.432C185.635 328.341 185.922 328.358 186.172 328.478L195.616 333.071C195.862 333.192 196.051 333.406 196.142 333.665C196.232 333.925 196.217 334.209 196.099 334.458Z" fill="url(#paint21_linear_17_202)"/>
<path d="M116.519 297.704L98.616 334.523C98.4946 334.771 98.2795 334.962 98.018 335.052C97.7565 335.143 97.4697 335.126 97.2205 335.006L87.776 330.413C87.5273 330.291 87.3369 330.076 87.2463 329.815C87.1558 329.553 87.1725 329.266 87.2928 329.017L105.196 292.209C105.318 291.961 105.533 291.77 105.794 291.68C106.056 291.589 106.342 291.606 106.592 291.726L116.036 296.318C116.283 296.439 116.471 296.653 116.562 296.912C116.652 297.171 116.637 297.456 116.519 297.704Z" fill="url(#paint22_linear_17_202)"/>
<path d="M125.137 260.16L68.5709 376.498L147.389 414.821L203.955 298.483L125.137 260.16Z" fill="url(#paint23_linear_17_202)"/>
<path d="M125.137 260.16L68.5709 376.498L147.389 414.821L203.955 298.483L125.137 260.16Z" fill="url(#paint24_linear_17_202)"/>
<path d="M71.5548 370.357L64.4409 384.988L143.259 423.311L150.373 408.68L71.5548 370.357Z" fill="url(#paint25_linear_17_202)"/>
<path d="M146.471 416.726L142.935 423.997C142.411 425.073 141.522 425.928 140.426 426.41C139.331 426.892 138.1 426.97 136.952 426.631C112.383 419.335 88.6047 407.965 65.7263 391.955C64.7566 391.275 64.0609 390.272 63.7639 389.126C63.4669 387.98 63.588 386.766 64.1057 385.701L67.6556 378.398L146.471 416.726Z" fill="url(#paint26_linear_17_202)"/>
<path d="M154.424 405.758L151.476 411.82C151.414 411.949 151.327 412.064 151.22 412.16C151.113 412.255 150.988 412.328 150.853 412.375C150.717 412.421 150.574 412.441 150.431 412.432C150.288 412.424 150.148 412.387 150.02 412.324L67.5074 372.202C67.2477 372.075 67.049 371.851 66.9548 371.578C66.8606 371.305 66.8786 371.005 67.005 370.746L69.9513 364.684C70.0139 364.555 70.1013 364.439 70.2085 364.344C70.3157 364.249 70.4405 364.176 70.576 364.129C70.7114 364.082 70.8548 364.063 70.9978 364.071C71.1409 364.08 71.2809 364.117 71.4097 364.179L153.922 404.302C154.182 404.428 154.38 404.653 154.475 404.926C154.569 405.199 154.551 405.499 154.424 405.758Z" fill="url(#paint27_linear_17_202)"/>
<path d="M153.953 406.73L151.947 410.852C151.891 410.969 151.812 411.074 151.715 411.16C151.617 411.246 151.504 411.312 151.382 411.355C151.259 411.397 151.129 411.415 151 411.407C150.87 411.4 150.743 411.366 150.627 411.309L67.9243 371.093C67.8077 371.036 67.7033 370.957 67.6173 370.86C67.5313 370.763 67.4653 370.65 67.423 370.527C67.3807 370.404 67.363 370.275 67.3709 370.145C67.3788 370.016 67.4121 369.889 67.469 369.772L69.4734 365.65C69.53 365.534 69.6091 365.429 69.7061 365.343C69.8031 365.257 69.9162 365.19 70.0389 365.148C70.1615 365.106 70.2913 365.088 70.4209 365.096C70.5504 365.103 70.6772 365.137 70.7939 365.193L153.496 405.41C153.732 405.525 153.912 405.728 153.997 405.976C154.083 406.223 154.067 406.494 153.953 406.73Z" fill="url(#paint28_linear_17_202)"/>
<path d="M204.417 297.573L211.531 282.942L132.713 244.619L125.599 259.25L204.417 297.573Z" fill="url(#paint29_linear_17_202)"/>
<path d="M208.316 289.536L211.852 282.264C212.374 281.187 212.498 279.96 212.2 278.8C211.903 277.641 211.205 276.624 210.229 275.931C189.319 261.104 165.692 249.43 138.972 241.322C137.839 240.978 136.621 241.05 135.536 241.523C134.45 241.997 133.57 242.842 133.051 243.907L129.5 251.209L208.316 289.536Z" fill="url(#paint30_linear_17_202)"/>
<path d="M204.605 302.566L207.553 296.504C207.616 296.375 207.653 296.235 207.661 296.092C207.67 295.949 207.65 295.806 207.603 295.671C207.557 295.536 207.483 295.411 207.388 295.304C207.293 295.197 207.178 295.11 207.049 295.047L124.537 254.925C124.277 254.799 123.977 254.781 123.704 254.875C123.431 254.97 123.207 255.169 123.08 255.429L120.13 261.493C120.004 261.753 119.986 262.052 120.08 262.326C120.174 262.599 120.373 262.824 120.633 262.951L203.145 303.073C203.274 303.136 203.414 303.173 203.558 303.182C203.701 303.191 203.845 303.171 203.981 303.124C204.117 303.076 204.242 303.003 204.349 302.907C204.456 302.811 204.543 302.695 204.605 302.566Z" fill="url(#paint31_linear_17_202)"/>
<path d="M205.085 301.597L207.091 297.473C207.205 297.237 207.22 296.966 207.135 296.719C207.049 296.471 206.869 296.268 206.634 296.153L123.923 255.936C123.687 255.823 123.416 255.807 123.168 255.892C122.921 255.978 122.717 256.158 122.602 256.393L120.598 260.515C120.541 260.632 120.508 260.759 120.5 260.888C120.492 261.018 120.51 261.148 120.553 261.27C120.595 261.393 120.661 261.506 120.747 261.603C120.834 261.7 120.938 261.779 121.055 261.836L203.757 302.052C203.874 302.111 204.001 302.145 204.132 302.154C204.262 302.162 204.393 302.145 204.516 302.102C204.64 302.06 204.754 301.994 204.851 301.907C204.949 301.82 205.028 301.715 205.085 301.597Z" fill="url(#paint32_linear_17_202)"/>
</g>
<defs>
<linearGradient id="paint0_linear_17_202" x1="540.348" y1="621.67" x2="113.238" y2="91.2279" gradientUnits="userSpaceOnUse">
<stop stop-color="#DAE3FE"/>
<stop offset="1" stop-color="#E9EFFD"/>
</linearGradient>
<linearGradient id="paint1_linear_17_202" x1="358.856" y1="219.141" x2="451.947" y2="219.141" gradientUnits="userSpaceOnUse">
<stop stop-color="#DAE3FE"/>
<stop offset="1" stop-color="#E9EFFD"/>
</linearGradient>
<linearGradient id="paint2_linear_17_202" x1="244.811" y1="451.118" x2="223.229" y2="-187.761" gradientUnits="userSpaceOnUse">
<stop stop-color="#09005D"/>
<stop offset="1" stop-color="#1A0F91"/>
</linearGradient>
<linearGradient id="paint3_linear_17_202" x1="61.824" y1="360.665" x2="306.441" y2="516.068" gradientUnits="userSpaceOnUse">
<stop stop-color="#A737D5"/>
<stop offset="1" stop-color="#EF497A"/>
</linearGradient>
<linearGradient id="paint4_linear_17_202" x1="616.16" y1="-34.4124" x2="443.519" y2="106.945" gradientUnits="userSpaceOnUse">
<stop stop-color="#E1473D"/>
<stop offset="1" stop-color="#E9605A"/>
</linearGradient>
<linearGradient id="paint5_linear_17_202" x1="368.225" y1="179.261" x2="639.352" y2="-21.1878" gradientUnits="userSpaceOnUse">
<stop stop-color="#FEBBBA"/>
<stop offset="1" stop-color="#FC9D8A"/>
</linearGradient>
<linearGradient id="paint6_linear_17_202" x1="118.267" y1="232.603" x2="344.176" y2="413.186" gradientUnits="userSpaceOnUse">
<stop stop-color="#A737D5"/>
<stop offset="1" stop-color="#EF497A"/>
</linearGradient>
<linearGradient id="paint7_linear_17_202" x1="266.957" y1="256.353" x2="532.291" y2="68.6508" gradientUnits="userSpaceOnUse">
<stop stop-color="#FF928E"/>
<stop offset="1" stop-color="#FE7062"/>
</linearGradient>
<linearGradient id="paint8_linear_17_202" x1="278.632" y1="5.52017" x2="170.691" y2="147.515" gradientUnits="userSpaceOnUse">
<stop stop-color="#09005D"/>
<stop offset="1" stop-color="#1A0F91"/>
</linearGradient>
<linearGradient id="paint9_linear_17_202" x1="290.474" y1="14.5192" x2="182.531" y2="156.514" gradientUnits="userSpaceOnUse">
<stop stop-color="#09005D"/>
<stop offset="1" stop-color="#1A0F91"/>
</linearGradient>
<linearGradient id="paint10_linear_17_202" x1="276.871" y1="23.2046" x2="202.339" y2="160.06" gradientUnits="userSpaceOnUse">
<stop stop-color="#FF928E"/>
<stop offset="1" stop-color="#FE7062"/>
</linearGradient>
<linearGradient id="paint11_linear_17_202" x1="159.359" y1="385.72" x2="131.841" y2="424.534" gradientUnits="userSpaceOnUse">
<stop stop-color="#09005D"/>
<stop offset="1" stop-color="#1A0F91"/>
</linearGradient>
<linearGradient id="paint12_linear_17_202" x1="235.925" y1="294.103" x2="46.3614" y2="553.682" gradientUnits="userSpaceOnUse">
<stop stop-color="#4F52FF"/>
<stop offset="1" stop-color="#4042E2"/>
</linearGradient>
<linearGradient id="paint13_linear_17_202" x1="53.389" y1="463.452" x2="53.5772" y2="456.476" gradientUnits="userSpaceOnUse">
<stop stop-color="#30ABBA"/>
<stop offset="1" stop-color="#6165D7"/>
</linearGradient>
<linearGradient id="paint14_linear_17_202" x1="114.126" y1="416.514" x2="119.371" y2="307.511" gradientUnits="userSpaceOnUse">
<stop stop-color="#4F52FF"/>
<stop offset="1" stop-color="#4042E2"/>
</linearGradient>
<linearGradient id="paint15_linear_17_202" x1="53.389" y1="441.828" x2="53.5773" y2="434.85" gradientUnits="userSpaceOnUse">
<stop stop-color="#30ABBA"/>
<stop offset="1" stop-color="#6165D7"/>
</linearGradient>
<linearGradient id="paint16_linear_17_202" x1="282.158" y1="257.231" x2="233.668" y2="306.308" gradientUnits="userSpaceOnUse">
<stop stop-color="#09005D"/>
<stop offset="1" stop-color="#1A0F91"/>
</linearGradient>
<linearGradient id="paint17_linear_17_202" x1="508.305" y1="487.312" x2="552.914" y2="498.319" gradientUnits="userSpaceOnUse">
<stop stop-color="#4F52FF"/>
<stop offset="1" stop-color="#4042E2"/>
</linearGradient>
<linearGradient id="paint18_linear_17_202" x1="301.649" y1="396.958" x2="365.964" y2="437.228" gradientUnits="userSpaceOnUse">
<stop stop-color="#4F52FF"/>
<stop offset="1" stop-color="#4042E2"/>
</linearGradient>
<linearGradient id="paint19_linear_17_202" x1="490.621" y1="490.952" x2="168.945" y2="353.713" gradientUnits="userSpaceOnUse">
<stop stop-color="#4F52FF"/>
<stop offset="1" stop-color="#4042E2"/>
</linearGradient>
<linearGradient id="paint20_linear_17_202" x1="228.285" y1="408.953" x2="236.027" y2="365.067" gradientUnits="userSpaceOnUse">
<stop stop-color="#30ABBA"/>
<stop offset="1" stop-color="#6165D7"/>
</linearGradient>
<linearGradient id="paint21_linear_17_202" x1="136.069" y1="317.592" x2="184.881" y2="352.544" gradientUnits="userSpaceOnUse">
<stop stop-color="#09005D"/>
<stop offset="1" stop-color="#1A0F91"/>
</linearGradient>
<linearGradient id="paint22_linear_17_202" x1="263.513" y1="379.761" x2="106.054" y2="315.065" gradientUnits="userSpaceOnUse">
<stop stop-color="#4F52FF"/>
<stop offset="1" stop-color="#4042E2"/>
</linearGradient>
<linearGradient id="paint23_linear_17_202" x1="97.0164" y1="318.112" x2="170.881" y2="354.609" gradientUnits="userSpaceOnUse">
<stop stop-color="#4F52FF"/>
<stop offset="1" stop-color="#4042E2"/>
</linearGradient>
<linearGradient id="paint24_linear_17_202" x1="123.831" y1="370.224" x2="99.035" y2="350.914" gradientUnits="userSpaceOnUse">
<stop stop-color="#30ABBA"/>
<stop offset="1" stop-color="#6165D7"/>
</linearGradient>
<linearGradient id="paint25_linear_17_202" x1="47.282" y1="440.115" x2="90.7327" y2="408.832" gradientUnits="userSpaceOnUse">
<stop stop-color="#09005D"/>
<stop offset="1" stop-color="#1A0F91"/>
</linearGradient>
<linearGradient id="paint26_linear_17_202" x1="72.322" y1="490.322" x2="97.8136" y2="421.382" gradientUnits="userSpaceOnUse">
<stop stop-color="#4F52FF"/>
<stop offset="1" stop-color="#4042E2"/>
</linearGradient>
<linearGradient id="paint27_linear_17_202" x1="53.0128" y1="241.384" x2="79.2422" y2="308.148" gradientUnits="userSpaceOnUse">
<stop stop-color="#09005D"/>
<stop offset="1" stop-color="#1A0F91"/>
</linearGradient>
<linearGradient id="paint28_linear_17_202" x1="69.9217" y1="504.245" x2="108.104" y2="395.662" gradientUnits="userSpaceOnUse">
<stop stop-color="#4F52FF"/>
<stop offset="1" stop-color="#4042E2"/>
</linearGradient>
<linearGradient id="paint29_linear_17_202" x1="2027.22" y1="-70.0892" x2="1948.29" y2="-55.6017" gradientUnits="userSpaceOnUse">
<stop stop-color="#09005D"/>
<stop offset="1" stop-color="#1A0F91"/>
</linearGradient>
<linearGradient id="paint30_linear_17_202" x1="239.075" y1="155.701" x2="203.736" y2="213.055" gradientUnits="userSpaceOnUse">
<stop stop-color="#4F52FF"/>
<stop offset="1" stop-color="#4042E2"/>
</linearGradient>
<linearGradient id="paint31_linear_17_202" x1="149.882" y1="173.112" x2="158.573" y2="239.043" gradientUnits="userSpaceOnUse">
<stop stop-color="#09005D"/>
<stop offset="1" stop-color="#1A0F91"/>
</linearGradient>
<linearGradient id="paint32_linear_17_202" x1="245.61" y1="163.231" x2="192.354" y2="238.626" gradientUnits="userSpaceOnUse">
<stop stop-color="#4F52FF"/>
<stop offset="1" stop-color="#4042E2"/>
</linearGradient>
<clipPath id="clip0_17_202">
<rect width="479.869" height="480" fill="white" transform="translate(0.461304)"/>
</clipPath>
</defs>
</svg>
