<svg width="477" height="480" viewBox="0 0 477 480" fill="none" xmlns="http://www.w3.org/2000/svg">
<g clip-path="url(#clip0_17_4)">
<path d="M456.842 322.36C410.98 430.348 288.812 490.843 182.869 474.525C165.63 471.869 118.37 463.964 76.5262 426.645C-4.02669 354.809 -21.2519 212.565 43.7257 112.323C91.0193 39.3637 175.792 -1.99488 256.351 0.0740876C273.703 0.519045 340.202 3.26497 398.642 51.4554C407.227 58.5332 426.159 75.3481 443.221 102.035C483.288 164.691 486.732 251.984 456.842 322.36Z" fill="url(#paint0_linear_17_4)"/>
<path d="M16.0241 70.9019C16.6976 67.8755 20.9896 67.7612 21.8086 70.7513C29.7243 99.6649 52.8552 174.823 88.9227 214.857C147.652 280.041 186.342 385.53 148.121 439.803C148.121 439.803 -57.2277 400.683 16.0241 70.9019Z" fill="#BDD0FB"/>
<path opacity="0.43" d="M21.4606 112.118C21.5281 113.062 21.6597 113.834 21.7635 114.672L22.1219 117.136L22.8958 122.059C23.4343 125.33 24.0212 128.592 24.6099 131.854C25.808 138.367 27.0811 144.87 28.4293 151.363C31.1319 164.348 34.1877 177.246 37.4323 190.103C40.6768 202.96 44.2521 215.727 48.1113 228.427C51.9704 241.126 56.0339 253.75 60.4973 266.245C69.3809 291.251 79.6271 315.798 91.5682 339.517C97.6625 351.315 104.069 362.958 111.132 374.205C118.278 385.396 125.903 396.29 134.288 406.581C134.33 406.635 134.382 406.681 134.442 406.714C134.502 406.748 134.568 406.77 134.636 406.778C134.704 406.787 134.773 406.781 134.839 406.763C134.906 406.745 134.968 406.714 135.022 406.671C135.076 406.629 135.121 406.576 135.155 406.517C135.189 406.457 135.21 406.391 135.219 406.323C135.227 406.255 135.222 406.186 135.204 406.119C135.185 406.053 135.154 405.991 135.112 405.937C127.174 395.37 119.787 384.401 112.978 373.074C106.132 361.777 99.9479 350.092 94.0787 338.266C88.2094 326.439 82.8249 314.361 77.7139 302.179C72.603 289.997 68.0062 277.594 63.477 265.185C54.5207 240.309 46.8976 214.966 39.9756 189.439C36.5418 176.666 33.3561 163.828 30.4186 150.926C28.9354 144.48 27.5174 138.016 26.1646 131.535L24.2238 121.807L23.3027 116.933L22.8716 114.495C22.7418 113.694 22.5894 112.835 22.5063 112.128L22.4924 112.012C22.4794 111.875 22.4121 111.748 22.3054 111.66C22.1988 111.571 22.0615 111.529 21.9237 111.542C21.7859 111.555 21.659 111.623 21.5709 111.729C21.4827 111.836 21.4405 111.973 21.4536 112.111L21.4606 112.118Z" fill="white"/>
<path d="M116.444 5.98499C117.886 3.38796 121.853 4.45794 121.789 7.42374C121.16 36.0967 121.869 111.333 144.025 157.878C180.097 233.677 186.803 340.972 136.945 380.314C136.945 380.321 -40.6967 288.427 116.444 5.98499Z" fill="#30ABBA"/>
<path opacity="0.43" d="M110.173 45.2625C109.976 46.1473 109.886 46.8917 109.751 47.6864L109.405 50.0445L108.788 54.7642C108.388 57.9101 108.037 61.0629 107.685 64.2139C107.004 70.5195 106.396 76.8326 105.859 83.1532C104.796 95.792 104.075 108.462 103.546 121.139C103.016 133.816 102.805 146.507 102.881 159.198C102.957 171.888 103.227 184.581 103.92 197.26C105.241 222.614 107.943 247.921 112.424 272.935C114.796 285.415 117.495 297.841 120.908 310.083C124.41 322.296 128.432 334.365 133.32 346.095C133.369 346.221 133.466 346.322 133.59 346.376C133.714 346.43 133.854 346.433 133.98 346.384C134.106 346.334 134.207 346.237 134.261 346.113C134.315 345.989 134.318 345.849 134.269 345.723C129.877 333.867 126.098 321.794 122.945 309.55C119.751 297.323 117.27 284.921 115.116 272.473C112.963 260.025 111.321 247.483 109.957 234.918C108.593 222.354 107.749 209.715 106.986 197.095C105.558 171.842 105.481 146.522 106.094 121.224C106.428 108.575 107.005 95.9358 107.826 83.3073C108.22 76.9913 108.682 70.6794 109.211 64.3715L110.076 54.92L110.561 50.2004L110.828 47.8457C110.928 47.077 111.023 46.2459 111.139 45.5776L111.158 45.4651C111.175 45.3376 111.143 45.2085 111.068 45.104C110.993 44.9996 110.881 44.9277 110.754 44.903C110.628 44.8783 110.497 44.9026 110.388 44.971C110.279 45.0394 110.201 45.1468 110.168 45.2712L110.173 45.2625Z" fill="white"/>
<path d="M288.928 459.697C288.928 459.697 315.716 224.791 416.437 87.0101C423.209 77.7473 438.024 79.3696 442.534 89.8997C472.701 160.322 541.086 376.49 288.928 459.697Z" fill="#91B3FA"/>
<path opacity="0.5" d="M310.74 442.306C310.221 442.915 311.111 443.691 311.703 443.154C333.518 423.296 415.568 328.539 428.11 156.565C428.152 156.013 427.298 155.901 427.208 156.448C420.584 196.726 391.482 345.769 310.74 442.306Z" fill="white"/>
<path d="M300.428 52.2863L284.223 68.7342C283.602 69.364 283.144 70.1353 282.887 70.9816C282.631 71.8279 282.584 72.7239 282.751 73.5924L287.105 96.2627C287.959 100.702 283.35 104.192 279.314 102.168L258.673 91.8373C257.883 91.4413 257.007 91.2435 256.123 91.261C255.239 91.2785 254.373 91.5108 253.599 91.9378L233.385 103.084C229.427 105.267 224.683 101.964 225.358 97.4937L228.806 74.6693C228.938 73.7951 228.856 72.9019 228.566 72.0667C228.276 71.2314 227.787 70.4793 227.142 69.8751L210.294 54.0939C207.004 51.0051 208.672 45.4717 213.13 44.7342L235.902 40.9598C236.775 40.8148 237.599 40.46 238.304 39.9259C239.01 39.3918 239.574 38.6943 239.95 37.8936L249.751 16.9962C251.672 12.9033 257.449 12.7873 259.53 16.8005L270.15 37.2876C270.557 38.0726 271.149 38.7467 271.875 39.252C272.601 39.7572 273.438 40.0783 274.316 40.1876L297.22 43.0513C301.706 43.6123 303.602 49.0729 300.428 52.2863Z" fill="url(#paint1_linear_17_4)"/>
<path opacity="0.66" d="M254.431 86.1326C253.244 86.3324 252.099 86.7323 251.045 87.3152L237.843 94.5868C237.168 94.9594 236.402 95.1356 235.632 95.0955C234.862 95.0554 234.119 94.8006 233.486 94.3599C232.854 93.9193 232.357 93.3103 232.052 92.602C231.748 91.8937 231.647 91.1143 231.763 90.352L234.013 75.445C234.273 73.7252 234.11 71.9681 233.54 70.325C232.97 68.6819 232.008 67.202 230.739 66.0126L219.737 55.7076C219.172 55.1809 218.766 54.5064 218.565 53.7605C218.364 53.0147 218.376 52.2275 218.6 51.4883C218.824 50.7491 219.251 50.0874 219.832 49.5785C220.413 49.0695 221.125 48.7337 221.887 48.6091L229.486 47.3486L229.676 48.5052L222.077 49.7639C221.533 49.8543 221.024 50.0954 220.609 50.4598C220.194 50.8243 219.889 51.2976 219.729 51.8263C219.569 52.3549 219.56 52.9179 219.703 53.4514C219.846 53.9849 220.135 54.4678 220.538 54.8454L231.541 65.1642C232.95 66.4829 234.018 68.1245 234.651 69.9475C235.284 71.7705 235.465 73.7202 235.177 75.6285L232.926 90.5337C232.844 91.0797 232.915 91.6378 233.134 92.145C233.352 92.6522 233.707 93.0882 234.16 93.4038C234.614 93.7194 235.146 93.902 235.697 93.9308C236.249 93.9597 236.797 93.8337 237.28 93.5671L250.482 86.2954C251.651 85.6507 252.921 85.207 254.237 84.983L254.431 86.1326Z" fill="white"/>
<path opacity="0.66" d="M280.213 91.6656C280.003 92.2012 279.684 92.6873 279.277 93.0928C278.869 93.4984 278.381 93.8146 277.845 94.0213C277.308 94.228 276.734 94.3206 276.16 94.2933C275.585 94.266 275.023 94.1194 274.508 93.8627L264.194 88.7016L264.714 87.6524L275.027 92.8135C275.521 93.0613 276.074 93.1658 276.624 93.1153C277.174 93.0647 277.699 92.8611 278.14 92.5275C278.58 92.194 278.918 91.7437 279.115 91.2279C279.313 90.712 279.362 90.1511 279.257 89.6088L276.414 74.8057C276.06 72.9109 276.166 70.9586 276.725 69.1137C277.284 67.2688 278.279 65.5856 279.626 64.2064L290.208 53.472C290.597 53.0788 290.868 52.5845 290.991 52.045C291.113 51.5055 291.082 50.9425 290.901 50.4198C290.72 49.8971 290.396 49.4356 289.966 49.0876C289.536 48.7396 289.017 48.5191 288.468 48.4511L273.507 46.5812C271.596 46.3398 269.772 45.6379 268.192 44.536C266.612 43.434 265.324 41.9649 264.437 40.2549L257.496 26.8715C257.242 26.3811 256.855 25.9716 256.381 25.6894C255.906 25.4071 255.362 25.2633 254.81 25.2743C254.257 25.2853 253.719 25.4506 253.256 25.7515C252.793 26.0525 252.424 26.477 252.189 26.9771L245.783 40.6271C245.125 42.0323 244.197 43.2947 243.053 44.3426L242.262 43.4769C243.293 42.5318 244.129 41.3936 244.722 40.1268L251.128 26.4785C251.455 25.7807 251.971 25.1884 252.617 24.7685C253.264 24.3486 254.014 24.1179 254.785 24.1024C255.555 24.0869 256.315 24.2873 256.978 24.6809C257.64 25.0745 258.18 25.6456 258.535 26.3296L265.477 39.713C266.276 41.2586 267.44 42.5865 268.867 43.5819C270.294 44.5774 271.942 45.2104 273.668 45.4264L288.629 47.298C289.393 47.3944 290.116 47.7027 290.714 48.1882C291.313 48.6736 291.764 49.3167 292.016 50.0448C292.268 50.773 292.311 51.5572 292.141 52.3088C291.971 53.0603 291.594 53.7493 291.053 54.2979L280.469 65.0323C279.255 66.2759 278.358 67.7936 277.854 69.4571C277.35 71.1206 277.254 72.8809 277.574 74.5893L280.417 89.3924C280.564 90.1543 280.494 90.9422 280.213 91.6656Z" fill="white"/>
<path opacity="0.66" d="M233.988 46.6296L229.485 47.375L229.677 48.5314L234.179 47.786L233.988 46.6296Z" fill="white"/>
<path d="M202.153 68.4626L193.798 86.9344C193.477 87.6421 193.334 88.4171 193.38 89.1925C193.426 89.9679 193.659 90.7206 194.061 91.3857L204.532 108.742C206.585 112.143 203.839 116.419 199.902 115.98L179.758 113.75C178.986 113.664 178.204 113.767 177.48 114.05C176.756 114.333 176.112 114.788 175.603 115.375L162.334 130.706C159.737 133.709 154.823 132.438 154.023 128.539L149.927 108.673C149.77 107.913 149.43 107.201 148.937 106.601C148.443 106.001 147.812 105.53 147.096 105.228L128.417 97.3467C124.758 95.8024 124.457 90.7329 127.908 88.7696L145.526 78.7278C146.201 78.3435 146.773 77.8006 147.191 77.1461C147.61 76.4915 147.863 75.7449 147.929 74.9707L149.66 54.7693C150.007 50.8132 154.724 48.9606 157.661 51.6356L172.647 65.2925C173.222 65.8155 173.914 66.191 174.666 66.3868C175.418 66.5825 176.206 66.5926 176.962 66.4161L196.699 61.8142C200.567 60.9208 203.789 64.844 202.153 68.4626Z" fill="url(#paint2_linear_17_4)"/>
<path opacity="0.66" d="M174.535 110.332C173.62 110.86 172.8 111.537 172.111 112.337L163.445 122.348C163.001 122.857 162.423 123.233 161.777 123.433C161.131 123.632 160.442 123.647 159.788 123.477C159.134 123.306 158.54 122.957 158.073 122.467C157.607 121.978 157.286 121.368 157.147 120.706L154.47 107.739C154.161 106.242 153.494 104.843 152.524 103.663C151.555 102.482 150.313 101.554 148.905 100.96L136.698 95.8113C136.076 95.5457 135.54 95.1121 135.151 94.559C134.762 94.0059 134.535 93.3553 134.496 92.6803C134.456 92.0053 134.606 91.3326 134.927 90.7379C135.249 90.1431 135.73 89.6499 136.317 89.3135L142.195 85.9668L142.714 86.8602L136.827 90.2086C136.405 90.4478 136.057 90.8008 135.825 91.2274C135.593 91.6541 135.485 92.1373 135.514 92.6222C135.543 93.1071 135.707 93.5743 135.987 93.9706C136.268 94.3669 136.655 94.6765 137.103 94.8642L149.302 100.012C150.863 100.67 152.241 101.699 153.317 103.009C154.392 104.319 155.133 105.871 155.476 107.531L158.149 120.502C158.248 120.976 158.476 121.412 158.81 121.762C159.143 122.113 159.567 122.363 160.035 122.485C160.503 122.608 160.996 122.597 161.458 122.454C161.92 122.311 162.333 122.042 162.651 121.678L171.325 111.672C172.093 110.784 173.005 110.032 174.022 109.447L174.535 110.332Z" fill="white"/>
<path opacity="0.66" d="M197.465 107.055C197.455 107.56 197.34 108.057 197.127 108.516C196.915 108.974 196.609 109.383 196.229 109.716C195.85 110.05 195.405 110.301 194.923 110.452C194.441 110.604 193.933 110.654 193.431 110.599L183.363 109.48L183.477 108.457L193.545 109.576C194.027 109.63 194.515 109.548 194.953 109.339C195.391 109.131 195.762 108.803 196.024 108.395C196.285 107.986 196.427 107.512 196.433 107.026C196.439 106.541 196.309 106.064 196.057 105.649L189.213 94.3137C188.345 92.8594 187.84 91.2178 187.74 89.5274C187.64 87.837 187.948 86.1473 188.638 84.6008L194.095 72.5437C194.296 72.1018 194.369 71.6124 194.306 71.131C194.243 70.6497 194.046 70.1957 193.738 69.8205C193.43 69.4454 193.023 69.1641 192.563 69.0086C192.103 68.8531 191.609 68.8296 191.136 68.9407L178.24 71.9464C176.59 72.3321 174.87 72.3103 173.231 71.8829C171.591 71.4554 170.08 70.6352 168.828 69.493L159.037 60.5748C158.679 60.2473 158.236 60.0267 157.759 59.9381C157.282 59.8494 156.789 59.8963 156.338 60.0733C155.886 60.2503 155.492 60.5504 155.202 60.9396C154.912 61.3287 154.737 61.7914 154.697 62.275L153.571 75.4697C153.457 76.828 153.076 78.1504 152.451 79.3617L151.537 78.8908C152.1 77.7985 152.442 76.606 152.545 75.3814L153.67 62.1885C153.73 61.5152 153.977 60.8719 154.382 60.331C154.788 59.7901 155.336 59.373 155.965 59.1264C156.595 58.8799 157.28 58.8137 157.945 58.9353C158.61 59.0569 159.228 59.3614 159.73 59.8148L169.521 68.7347C170.649 69.7635 172.011 70.5023 173.489 70.8874C174.967 71.2726 176.517 71.2926 178.004 70.9456L190.903 67.94C191.562 67.7887 192.25 67.8243 192.89 68.0427C193.531 68.2611 194.097 68.6538 194.526 69.1765C194.955 69.6992 195.23 70.3313 195.32 71.0017C195.41 71.6721 195.31 72.3542 195.034 72.9713L189.575 85.0354C188.952 86.4292 188.674 87.9526 188.764 89.4766C188.855 91.0006 189.311 92.4804 190.094 93.7908L196.937 105.124C197.29 105.706 197.473 106.375 197.465 107.055Z" fill="white"/>
<path opacity="0.66" d="M145.676 83.988L142.192 85.9717L142.701 86.8669L146.186 84.8833L145.676 83.988Z" fill="white"/>
<path d="M128.453 114.158L125.063 133.266C124.933 133.998 124.983 134.75 125.208 135.459C125.433 136.167 125.827 136.81 126.356 137.333L140.174 150.96C142.879 153.63 141.35 158.242 137.577 158.767L118.359 161.443C117.624 161.547 116.924 161.827 116.321 162.261C115.718 162.694 115.229 163.267 114.896 163.931L106.205 181.283C104.503 184.68 99.6432 184.652 97.9811 181.234L89.4923 163.786C89.1673 163.117 88.6847 162.538 88.086 162.097C87.4874 161.656 86.7905 161.368 86.0556 161.256L66.867 158.346C63.11 157.778 61.6349 153.152 64.3721 150.51L78.3493 137.047C78.8848 136.531 79.2869 135.893 79.5209 135.187C79.7549 134.481 79.814 133.729 79.6929 132.996L76.5245 113.85C75.9047 110.1 79.8539 107.271 83.2075 109.056L100.331 118.187C100.986 118.538 101.718 118.723 102.461 118.727C103.205 118.732 103.938 118.555 104.598 118.213L121.829 109.285C125.203 107.536 129.118 110.415 128.453 114.158Z" fill="url(#paint3_linear_17_4)"/>
<path opacity="0.66" d="M112.711 159.513C111.985 160.215 111.383 161.034 110.93 161.937L105.253 173.269C104.963 173.849 104.516 174.336 103.963 174.675C103.41 175.014 102.774 175.192 102.125 175.188C101.476 175.185 100.842 174.999 100.293 174.654C99.7444 174.308 99.3034 173.816 99.0199 173.232L93.4796 161.833C92.8399 160.518 91.8903 159.379 90.7125 158.513C89.5348 157.647 88.1641 157.08 86.7187 156.861L74.1871 154.956C73.546 154.859 72.9447 154.585 72.4513 154.165C71.958 153.744 71.5922 153.193 71.3955 152.576C71.1987 151.958 71.1788 151.297 71.3381 150.669C71.4973 150.04 71.8293 149.469 72.2965 149.019L76.9608 144.526L77.6446 145.236L72.9804 149.729C72.6418 150.051 72.4005 150.461 72.2841 150.913C72.1677 151.365 72.1809 151.841 72.3221 152.286C72.4634 152.731 72.727 153.127 73.0828 153.429C73.4386 153.732 73.8723 153.928 74.3343 153.995L86.8658 155.9C88.47 156.142 89.9911 156.771 91.298 157.732C92.6049 158.694 93.6585 159.958 94.3678 161.417L99.9081 172.815C100.111 173.232 100.427 173.585 100.819 173.832C101.212 174.08 101.666 174.212 102.13 174.215C102.595 174.218 103.05 174.091 103.446 173.849C103.842 173.606 104.162 173.258 104.37 172.843L110.047 161.511C110.549 160.507 111.217 159.594 112.022 158.812L112.711 159.513Z" fill="white"/>
<path opacity="0.66" d="M133.209 151.062C133.318 151.533 133.329 152.021 133.239 152.496C133.15 152.971 132.963 153.423 132.689 153.821C132.416 154.22 132.063 154.558 131.652 154.813C131.242 155.068 130.782 155.234 130.304 155.302L120.7 156.641L120.563 155.664L130.167 154.326C130.627 154.262 131.059 154.07 131.416 153.773C131.773 153.476 132.039 153.085 132.185 152.645C132.331 152.204 132.351 151.731 132.242 151.28C132.134 150.829 131.901 150.417 131.571 150.091L122.549 141.192C121.4 140.048 120.544 138.644 120.052 137.099C119.56 135.555 119.448 133.914 119.723 132.317L121.947 119.839C122.029 119.381 121.981 118.909 121.808 118.477C121.635 118.045 121.345 117.67 120.97 117.395C120.595 117.119 120.15 116.955 119.686 116.919C119.222 116.884 118.758 116.98 118.345 117.195L107.092 123.025C105.652 123.772 104.052 124.157 102.43 124.147C100.808 124.138 99.2127 123.733 97.782 122.969L86.5958 117.006C86.1865 116.788 85.7244 116.689 85.2616 116.72C84.7989 116.75 84.3539 116.909 83.9769 117.18C83.5998 117.45 83.3058 117.82 83.1279 118.248C82.9501 118.676 82.8955 119.146 82.9703 119.603L85.0393 132.109C85.2538 133.396 85.2126 134.713 84.9181 135.984L83.9589 135.762C84.2237 134.616 84.2602 133.43 84.0663 132.27L81.999 119.764C81.8923 119.125 81.9668 118.468 82.2141 117.868C82.4614 117.269 82.8716 116.751 83.3983 116.372C83.925 115.994 84.5471 115.77 85.1943 115.727C85.8414 115.684 86.4876 115.823 87.0598 116.129L98.2443 122.091C99.5344 122.78 100.973 123.144 102.435 123.153C103.897 123.162 105.34 122.815 106.638 122.142L117.892 116.31C118.467 116.012 119.115 115.88 119.762 115.931C120.408 115.981 121.028 116.212 121.55 116.596C122.073 116.98 122.477 117.503 122.718 118.105C122.959 118.707 123.026 119.365 122.913 120.003L120.695 132.481C120.446 133.921 120.548 135.4 120.992 136.792C121.435 138.184 122.207 139.449 123.243 140.48L132.265 149.381C132.732 149.841 133.059 150.424 133.209 151.062Z" fill="white"/>
<path opacity="0.66" d="M79.7243 141.881L76.9608 144.542L77.6441 145.252L80.4077 142.59L79.7243 141.881Z" fill="white"/>
<path d="M376.895 99.5994L358.196 104.778C357.479 104.976 356.82 105.345 356.277 105.854C355.734 106.364 355.324 106.997 355.08 107.7L348.754 126.042C347.512 129.635 342.694 130.246 340.594 127.081L329.882 110.888C329.472 110.268 328.917 109.757 328.266 109.399C327.614 109.041 326.885 108.846 326.142 108.833L306.739 108.474C302.939 108.405 300.87 104.007 303.236 101.03L315.323 85.8456C315.786 85.264 316.101 84.5785 316.24 83.8483C316.379 83.1181 316.338 82.365 316.121 81.654L310.466 63.0904C309.358 59.4546 312.901 56.1269 316.459 57.4583L334.638 64.2625C335.334 64.5231 336.084 64.6104 336.822 64.5169C337.559 64.4234 338.263 64.1519 338.873 63.7258L354.78 52.6105C357.897 50.4342 362.154 52.7837 361.988 56.5719L361.133 75.963C361.1 76.7058 361.249 77.4454 361.566 78.118C361.883 78.7906 362.359 79.3761 362.952 79.8239L378.439 91.5192C381.476 93.8098 380.559 98.5849 376.895 99.5994Z" fill="url(#paint4_linear_17_4)"/>
<path opacity="0.66" d="M329.189 104.96C328.24 104.608 327.238 104.419 326.225 104.401L313.553 104.167C312.905 104.155 312.274 103.961 311.73 103.609C311.186 103.257 310.751 102.759 310.475 102.173C310.199 101.586 310.092 100.934 310.167 100.291C310.242 99.6468 310.496 99.0368 310.899 98.5296L318.793 88.6141C319.704 87.47 320.323 86.1216 320.597 84.685C320.87 83.2484 320.791 81.7667 320.365 80.3677L316.672 68.2482C316.482 67.6282 316.471 66.9677 316.637 66.3413C316.804 65.715 317.143 65.1478 317.615 64.7039C318.087 64.26 318.675 63.9572 319.31 63.8296C319.946 63.7021 320.604 63.7549 321.211 63.9822L327.271 66.252L326.925 67.1748L320.865 64.905C320.43 64.7426 319.958 64.705 319.503 64.7965C319.048 64.888 318.628 65.1049 318.289 65.4227C317.951 65.7405 317.708 66.1466 317.589 66.5951C317.469 67.0436 317.477 67.5166 317.612 67.9608L321.306 80.0803C321.779 81.632 321.868 83.2754 321.564 84.8689C321.26 86.4623 320.573 87.958 319.563 89.227L311.67 99.1442C311.38 99.5075 311.198 99.9446 311.144 100.406C311.09 100.868 311.167 101.335 311.365 101.755C311.564 102.175 311.876 102.531 312.266 102.783C312.656 103.035 313.11 103.173 313.574 103.18L326.244 103.415C327.368 103.435 328.48 103.644 329.534 104.034L329.189 104.96Z" fill="white"/>
<path opacity="0.66" d="M345.651 119.809C345.274 120.112 344.838 120.332 344.37 120.457C343.903 120.581 343.415 120.607 342.938 120.533C342.46 120.458 342.003 120.285 341.596 120.024C341.189 119.764 340.84 119.421 340.573 119.018L335.223 110.929L336.045 110.386L341.395 118.474C341.651 118.862 342.011 119.17 342.433 119.363C342.855 119.557 343.323 119.629 343.783 119.57C344.244 119.512 344.679 119.326 345.039 119.033C345.4 118.74 345.671 118.352 345.822 117.914L349.96 105.934C350.497 104.405 351.394 103.027 352.575 101.918C353.757 100.808 355.187 99.9984 356.747 99.5578L368.962 96.1764C369.409 96.0525 369.813 95.8058 370.128 95.4643C370.442 95.1228 370.655 94.7001 370.742 94.244C370.829 93.7878 370.786 93.3165 370.619 92.8833C370.452 92.4501 370.167 92.0723 369.796 91.7926L359.682 84.1435C358.387 83.1664 357.35 81.889 356.659 80.4216C355.969 78.9542 355.645 77.3408 355.717 75.7205L356.273 63.0574C356.293 62.5936 356.183 62.1335 355.955 61.7289C355.728 61.3243 355.392 60.9914 354.985 60.7678C354.578 60.5441 354.117 60.4386 353.653 60.4633C353.19 60.4879 352.742 60.6416 352.362 60.907L341.974 68.1683C340.904 68.915 339.699 69.4444 338.426 69.7266L338.211 68.7656C339.359 68.51 340.446 68.0312 341.409 67.3563L351.797 60.0968C352.328 59.7257 352.953 59.5105 353.6 59.4757C354.247 59.4409 354.891 59.5878 355.459 59.8997C356.027 60.2117 356.496 60.6763 356.814 61.2411C357.131 61.8058 357.285 62.4481 357.256 63.0955L356.7 75.7586C356.636 77.2196 356.927 78.6745 357.55 79.9977C358.173 81.321 359.108 82.4728 360.276 83.354L370.395 91.0014C370.913 91.3919 371.311 91.9195 371.544 92.5244C371.778 93.1294 371.837 93.7876 371.715 94.4245C371.594 95.0614 371.297 95.6516 370.857 96.1283C370.418 96.605 369.853 96.9491 369.229 97.1217L357.016 100.505C355.609 100.901 354.319 101.63 353.254 102.631C352.189 103.631 351.38 104.874 350.897 106.253L346.759 118.232C346.546 118.852 346.162 119.399 345.651 119.809Z" fill="white"/>
<path opacity="0.66" d="M327.285 66.2522L326.94 67.1748L330.533 68.5203L330.878 67.5977L327.285 66.2522Z" fill="white"/>
<path d="M436.067 161.299L416.676 160.607C415.933 160.581 415.195 160.735 414.525 161.058C413.855 161.38 413.274 161.861 412.831 162.458L401.269 178.04C399.004 181.092 394.224 180.223 393.178 176.568L387.839 157.911C387.635 157.197 387.26 156.543 386.748 156.006C386.235 155.468 385.599 155.063 384.896 154.826L366.498 148.647C362.897 147.435 362.244 142.62 365.397 140.497L381.499 129.654C382.115 129.238 382.622 128.679 382.974 128.024C383.327 127.369 383.515 126.639 383.523 125.895L383.715 106.49C383.751 102.681 388.131 100.583 391.123 102.923L406.409 114.88C406.995 115.338 407.684 115.647 408.415 115.78C409.147 115.913 409.9 115.866 410.61 115.644L429.125 109.83C432.75 108.691 436.107 112.204 434.805 115.775L428.159 134.006C427.904 134.705 427.823 135.455 427.923 136.192C428.022 136.928 428.299 137.63 428.73 138.236L439.984 154.049C442.169 157.156 439.866 161.435 436.067 161.299Z" fill="url(#paint5_linear_17_4)"/>
<path opacity="0.66" d="M388.957 152.057C388.157 151.436 387.258 150.954 386.298 150.632L374.284 146.597C373.67 146.39 373.126 146.016 372.713 145.516C372.301 145.016 372.036 144.411 371.949 143.769C371.862 143.127 371.957 142.473 372.222 141.882C372.487 141.29 372.912 140.785 373.45 140.423L383.961 133.341C385.174 132.524 386.17 131.425 386.864 130.137C387.557 128.85 387.928 127.413 387.943 125.95L388.067 113.277C388.074 112.629 388.262 111.995 388.609 111.448C388.957 110.901 389.451 110.462 390.035 110.181C390.619 109.9 391.27 109.787 391.915 109.857C392.559 109.926 393.171 110.175 393.682 110.574L398.79 114.565L398.182 115.341L393.076 111.35C392.71 111.063 392.272 110.885 391.81 110.835C391.348 110.785 390.882 110.865 390.463 111.067C390.045 111.268 389.691 111.583 389.442 111.975C389.193 112.367 389.059 112.821 389.054 113.285L388.93 125.961C388.914 127.583 388.503 129.177 387.734 130.605C386.965 132.033 385.86 133.253 384.515 134.159L374.004 141.242C373.618 141.501 373.314 141.862 373.123 142.286C372.933 142.709 372.865 143.177 372.927 143.637C372.99 144.097 373.179 144.531 373.475 144.889C373.771 145.246 374.161 145.514 374.601 145.662L386.615 149.699C387.677 150.057 388.672 150.591 389.558 151.278L388.957 152.057Z" fill="white"/>
<path opacity="0.66" d="M400.19 171.17C399.74 171.345 399.257 171.425 398.774 171.403C398.291 171.381 397.817 171.259 397.384 171.044C396.951 170.829 396.567 170.527 396.257 170.155C395.947 169.784 395.718 169.352 395.585 168.887L392.917 159.565L393.866 159.295L396.539 168.616C396.667 169.063 396.917 169.465 397.261 169.776C397.605 170.088 398.03 170.297 398.487 170.38C398.944 170.462 399.414 170.416 399.846 170.245C400.278 170.074 400.653 169.786 400.93 169.413L408.48 159.236C409.452 157.939 410.722 156.895 412.182 156.192C413.642 155.489 415.25 155.148 416.87 155.197L429.537 155.645C430.001 155.662 430.46 155.548 430.863 155.317C431.265 155.086 431.595 154.747 431.816 154.339C432.036 153.93 432.137 153.468 432.108 153.004C432.079 152.541 431.922 152.095 431.653 151.717L424.305 141.389C423.364 140.068 422.759 138.538 422.541 136.93C422.324 135.323 422.501 133.687 423.056 132.163L427.397 120.253C427.556 119.817 427.589 119.345 427.494 118.891C427.399 118.437 427.179 118.018 426.858 117.683C426.537 117.347 426.129 117.108 425.68 116.992C425.231 116.876 424.758 116.889 424.315 117.027L412.222 120.826C410.977 121.217 409.667 121.36 408.368 121.247L408.452 120.267C409.625 120.368 410.805 120.238 411.927 119.884L424.019 116.087C424.637 115.893 425.297 115.876 425.925 116.037C426.552 116.199 427.122 116.532 427.57 117.001C428.018 117.469 428.325 118.053 428.458 118.687C428.592 119.321 428.545 119.98 428.323 120.589L423.983 132.497C423.482 133.87 423.323 135.343 423.519 136.791C423.715 138.239 424.26 139.617 425.106 140.808L432.449 151.147C432.824 151.675 433.045 152.296 433.085 152.942C433.126 153.588 432.986 154.233 432.68 154.803C432.373 155.373 431.914 155.847 431.353 156.17C430.792 156.493 430.153 156.653 429.506 156.632L416.839 156.184C415.379 156.138 413.929 156.445 412.613 157.077C411.296 157.71 410.151 158.651 409.275 159.819L401.716 170.002C401.328 170.527 400.799 170.932 400.19 171.17Z" fill="white"/>
<path opacity="0.66" d="M398.789 114.576L398.182 115.352L401.204 117.716L401.811 116.94L398.789 114.576Z" fill="white"/>
<path d="M253.041 474.554C347.506 474.554 424.085 397.975 424.085 303.511C424.085 209.046 347.506 132.467 253.041 132.467C158.576 132.467 81.9973 209.046 81.9973 303.511C81.9973 397.975 158.576 474.554 253.041 474.554Z" fill="url(#paint6_linear_17_4)"/>
<path d="M253.041 468.867C344.365 468.867 418.397 394.834 418.397 303.511C418.397 212.187 344.365 138.154 253.041 138.154C161.717 138.154 87.6848 212.187 87.6848 303.511C87.6848 394.834 161.717 468.867 253.041 468.867Z" fill="url(#paint7_linear_17_4)"/>
<path opacity="0.78" d="M100.611 296.975H100.528C100.322 296.965 100.121 296.915 99.9346 296.827C99.7486 296.739 99.5818 296.615 99.444 296.462C99.3062 296.309 99.2001 296.13 99.1317 295.936C99.0634 295.742 99.0342 295.536 99.0459 295.33C99.386 288.833 100.134 282.363 101.286 275.96C101.36 275.551 101.593 275.189 101.935 274.952C102.276 274.715 102.697 274.624 103.106 274.698C103.515 274.772 103.877 275.005 104.114 275.346C104.351 275.688 104.442 276.109 104.368 276.518C103.24 282.791 102.506 289.128 102.173 295.493C102.153 295.894 101.98 296.271 101.689 296.547C101.398 296.823 101.012 296.977 100.611 296.975Z" fill="white"/>
<path opacity="0.78" d="M116.688 236.386C116.42 236.388 116.156 236.321 115.922 236.191C115.688 236.06 115.491 235.872 115.351 235.644C115.21 235.415 115.131 235.155 115.121 234.887C115.111 234.619 115.17 234.353 115.293 234.115C141.699 181.8 194.49 149.303 253.041 149.303C262.37 149.301 271.68 150.139 280.859 151.805C281.061 151.841 281.254 151.918 281.427 152.029C281.599 152.141 281.748 152.285 281.865 152.454C281.982 152.623 282.065 152.813 282.108 153.014C282.152 153.215 282.155 153.423 282.118 153.625C282.081 153.827 282.005 154.02 281.894 154.193C281.782 154.366 281.638 154.515 281.469 154.632C281.3 154.749 281.109 154.831 280.908 154.875C280.707 154.918 280.5 154.921 280.298 154.885C271.304 153.252 262.182 152.431 253.041 152.433C195.669 152.433 143.966 184.273 118.087 235.526C117.957 235.785 117.758 236.003 117.51 236.155C117.263 236.307 116.979 236.387 116.688 236.386Z" fill="white"/>
<path opacity="0.78" d="M256.644 447.068C333.938 447.068 396.598 384.408 396.598 307.114C396.598 229.82 333.938 167.16 256.644 167.16C179.35 167.16 116.69 229.82 116.69 307.114C116.69 384.408 179.35 447.068 256.644 447.068Z" fill="white"/>
<path d="M299.493 254.229C299.493 277.926 280.275 303.511 256.585 303.511C232.895 303.511 213.675 277.926 213.675 254.229C213.675 230.532 232.893 213.716 256.585 213.716C280.277 213.716 299.493 230.531 299.493 254.229Z" fill="url(#paint8_linear_17_4)"/>
<path d="M203.334 394.748H308.081C313.454 394.748 318.689 393.041 323.029 389.873C327.369 386.705 330.59 382.239 332.228 377.121L337.865 359.503C341.993 346.604 335.282 332.639 322.563 327.992C279.934 312.41 235.856 314.407 190.702 329.431C178.053 333.64 171.032 347.171 174.522 360.036L178.863 376.036C180.321 381.409 183.508 386.153 187.93 389.535C192.353 392.917 197.766 394.749 203.334 394.748Z" fill="url(#paint9_linear_17_4)"/>
<path d="M406.965 258.43C406.965 258.43 383.777 288.119 410.234 318.316L420.181 317.389C420.181 317.389 401.034 286.646 409.562 262.138L423.65 263.167L431.441 258.089L406.965 258.43Z" fill="url(#paint10_linear_17_4)"/>
<path d="M338.577 191.685L448.691 185.999C450.85 185.888 452.673 187.192 452.732 188.895L455.22 255.57C455.284 257.285 453.547 258.736 451.373 258.781C431.438 259.2 342.931 261.072 339.034 261.378C335.183 261.678 334.894 208.041 334.879 194.804C334.872 193.165 336.504 191.792 338.577 191.685Z" fill="url(#paint11_linear_17_4)"/>
<path d="M338.577 191.685L448.691 185.999C450.85 185.888 452.673 187.192 452.732 188.895L455.22 255.57C455.284 257.285 453.547 258.736 451.373 258.781C431.438 259.2 342.931 261.072 339.034 261.378C335.183 261.678 334.894 208.041 334.879 194.804C334.872 193.165 336.504 191.792 338.577 191.685Z" fill="url(#paint12_linear_17_4)"/>
<path d="M340.789 258.96L340.713 258.679C339.055 252.583 337.962 227.487 337.931 194.742C337.943 194.546 338.03 194.362 338.173 194.227C338.317 194.092 338.506 194.018 338.703 194.019L448.817 188.335C449.016 188.322 449.214 188.379 449.376 188.494C449.461 188.552 449.532 188.63 449.582 188.72C449.633 188.81 449.662 188.91 449.667 189.013L452.153 255.688C452.149 255.889 452.065 256.081 451.92 256.221C451.775 256.361 451.581 256.438 451.379 256.436H451.357C435.498 256.768 355.644 258.454 341.085 258.941L340.789 258.96ZM448.86 189.065H448.847L338.741 194.749C338.709 194.748 338.678 194.759 338.653 194.779C338.694 226.944 339.745 251.706 341.347 258.205C356.657 257.706 435.569 256.041 451.333 255.708H451.345L448.921 189.051C448.931 189.074 448.909 189.064 448.866 189.064L448.86 189.065Z" fill="#91B3FA"/>
<path d="M410.549 199.397C410.625 201.082 411.242 202.424 411.934 202.393L442.539 201.03C443.232 200.999 443.732 199.607 443.658 197.922C443.583 196.238 442.965 194.894 442.273 194.925L411.667 196.288C410.975 196.319 410.475 197.72 410.549 199.397Z" fill="#BDD0FB"/>
<path d="M410.682 207.7C410.72 208.543 411.313 209.203 412.003 209.172L442.609 207.807C443.301 207.778 443.833 207.068 443.794 206.227C443.756 205.385 443.166 204.724 442.473 204.755L411.868 206.119C411.176 206.15 410.644 206.859 410.682 207.7Z" fill="#BDD0FB"/>
<path d="M410.682 214.057C410.72 214.901 411.313 215.56 412.003 215.529L442.609 214.165C443.301 214.135 443.833 213.425 443.794 212.584C443.756 211.743 443.166 211.081 442.473 211.112L411.868 212.477C411.176 212.506 410.644 213.216 410.682 214.057Z" fill="#BDD0FB"/>
<path d="M368.752 251.046H367.52C367.161 251.044 366.816 250.911 366.549 250.672C366.281 250.434 366.111 250.105 366.069 249.749L363.404 226.774C363.382 226.582 363.398 226.388 363.451 226.202C363.504 226.016 363.593 225.843 363.713 225.692C363.834 225.541 363.983 225.415 364.152 225.322C364.321 225.228 364.507 225.169 364.699 225.148C364.722 225.148 366.907 224.887 368.716 223.689C369.322 223.289 370.02 221.438 370.636 219.809C371.587 217.291 372.771 214.158 374.944 211.672C378.467 207.648 377.887 201.595 377.804 200.918C377.631 199.434 378.779 197.251 380.574 196.553C381.67 196.127 383.864 195.908 386.256 199.218C389.245 203.354 387.941 208.913 387.077 212.608C386.809 213.753 386.558 214.833 386.523 215.503C386.518 215.54 386.518 215.578 386.523 215.616C387.119 216.064 390.611 215.524 392.697 215.2C393.786 215.027 394.901 214.854 395.976 214.734C399.77 214.295 404.228 214.459 405.064 219.676C405.41 221.831 404.489 223.441 403.561 224.473C405.235 225.908 406.101 227.474 406.143 229.148C406.181 230.663 405.511 231.918 404.825 232.784C405.541 233.426 406.074 234.246 406.37 235.161C406.666 236.076 406.715 237.053 406.511 237.993C406.234 239.348 405.529 240.578 404.5 241.501C405.056 242.121 405.355 242.931 405.336 243.764C405.265 246.309 402.193 248.852 398.033 249.81C393 250.97 373.87 251.046 368.752 251.046ZM366.472 227.782L368.837 248.116C373.966 248.116 392.73 248.025 397.384 246.955C400.694 246.193 402.393 244.446 402.415 243.684C402.415 243.39 401.871 243.032 401.044 242.793C400.716 242.697 400.431 242.491 400.239 242.208C400.047 241.925 399.96 241.584 399.992 241.244C400.025 240.904 400.176 240.586 400.418 240.345C400.66 240.104 400.979 239.955 401.319 239.924C402.327 239.834 403.397 238.686 403.646 237.42C403.83 236.503 403.675 235.213 401.894 234.274C401.673 234.158 401.485 233.987 401.349 233.777C401.213 233.568 401.132 233.327 401.114 233.078C401.097 232.828 401.144 232.579 401.25 232.352C401.356 232.126 401.518 231.931 401.721 231.785C401.721 231.785 403.258 230.616 403.215 229.21C403.173 227.846 401.672 226.601 400.421 225.796C400.209 225.66 400.035 225.472 399.918 225.249C399.8 225.027 399.741 224.778 399.747 224.527C399.753 224.275 399.824 224.029 399.953 223.813C400.082 223.597 400.265 223.418 400.483 223.292C400.556 223.249 402.481 222.08 402.173 220.145C401.939 218.685 401.672 217.028 396.317 217.652C395.278 217.773 394.203 217.939 393.149 218.104C389.234 218.708 386.142 219.189 384.515 217.723C384.061 217.314 383.533 216.573 383.594 215.363C383.64 214.43 383.909 213.285 384.222 211.945C385.008 208.588 386.083 203.993 383.876 200.941C383.01 199.756 382.176 199.116 381.67 199.279C381.164 199.441 380.72 200.317 380.714 200.619C380.806 201.396 381.502 208.633 377.146 213.604C375.323 215.681 374.288 218.426 373.375 220.843C372.463 223.259 371.727 225.207 370.33 226.132C369.144 226.892 367.841 227.451 366.472 227.785V227.782Z" fill="url(#paint13_linear_17_4)"/>
<path d="M419.666 403.787C419.666 403.787 438.453 444.736 448.311 461.696C448.311 461.696 450.268 472.368 448.311 475.72L446.642 476.463L454.434 476.231C454.434 476.231 455.126 461.876 454.586 461.074C454.046 460.273 452.965 460.325 452.965 460.325C452.965 460.325 449.626 433.871 439.956 428.225L430.581 395.96L419.666 403.787Z" fill="url(#paint14_linear_17_4)"/>
<path d="M443.317 478.476C443.305 478.663 449.397 478.578 452.706 478.517C453.299 478.507 453.871 478.295 454.33 477.918C454.788 477.541 455.105 477.02 455.23 476.44L457.73 463.311C457.845 462.711 457.722 462.089 457.387 461.578C457.052 461.066 456.532 460.704 455.937 460.569L454.543 460.25C454.543 460.25 452.552 462.979 453.178 465.55C453.805 468.121 454.363 474.776 452.779 475.552C451.194 476.327 446.643 476.464 446.643 476.464C446.643 476.464 443.421 476.784 443.317 478.476Z" fill="url(#paint15_linear_17_4)"/>
<path d="M401.859 478.718C401.731 478.796 401.631 478.913 401.575 479.052C401.52 479.192 401.511 479.345 401.55 479.49C401.589 479.635 401.674 479.764 401.792 479.856C401.91 479.948 402.056 480 402.206 480.003C407.746 479.945 420.153 479.771 421.25 479.31C422.674 478.718 420.731 473.597 418.688 471.865L407.4 475.548L401.859 478.718Z" fill="url(#paint16_linear_17_4)"/>
<path d="M398.355 401.177C398.355 401.177 410.495 459.909 413.937 471.368L405.805 476.468C405.805 476.468 409.877 475.776 412.904 475.556C415.93 475.336 418.7 471.873 418.7 471.873L417.725 470.315C417.725 470.315 414.682 411.901 415.423 405.268L398.355 401.177Z" fill="url(#paint17_linear_17_4)"/>
<path d="M368.216 264.178C368.216 264.178 366.541 294.732 394.359 310.345L387.661 325.617C387.661 325.617 362.478 310.381 363.408 268.839C363.429 267.646 363.009 266.487 362.227 265.586L356.874 259.377C355.869 258.211 355.158 256.821 354.803 255.323C354.447 253.825 354.457 252.264 354.831 250.771L355.535 247.956C355.59 247.736 355.695 247.532 355.842 247.36C355.989 247.188 356.175 247.052 356.383 246.964C356.592 246.876 356.818 246.837 357.044 246.852C357.27 246.866 357.49 246.933 357.686 247.047L358.245 247.372C360.027 248.407 361.438 249.976 362.281 251.856L364.909 257.733C365.388 258.803 366.188 259.698 367.198 260.293C368.209 260.887 369.38 261.153 370.548 261.052L372.174 260.911L368.216 264.178Z" fill="url(#paint18_linear_17_4)"/>
<path d="M393.39 308.054C398.044 309.346 413.809 313.492 423.652 313.323L417.61 347.43L418.091 352.991L398.388 352.903C398.388 352.903 392.848 340.022 388.464 333.6C387.2 331.746 388.142 329.533 388.859 327.405L387.874 326.751C387.386 326.426 387.019 325.951 386.827 325.398C386.636 324.845 386.63 324.245 386.812 323.688L391.61 309.008C391.728 308.651 391.978 308.353 392.309 308.176C392.641 307.998 393.027 307.955 393.39 308.054Z" fill="#30ABBA"/>
<path d="M396.809 349.987L397.197 353.358C397.197 353.358 391.629 370.033 399.981 408.978C399.981 408.978 418.068 414.103 432.935 401.841C432.935 401.841 428.742 365.081 427.596 363.369C421.882 354.84 418.091 352.981 418.091 352.981L417.918 349.3C417.918 349.3 402.017 352.181 396.809 349.987Z" fill="url(#paint19_linear_17_4)"/>
<path d="M396.809 349.987L397.197 353.358C397.197 353.358 391.629 370.033 399.981 408.978C399.981 408.978 418.068 414.103 432.935 401.841C432.935 401.841 428.742 365.081 427.596 363.369C421.882 354.84 418.091 352.981 418.091 352.981L417.918 349.3C417.918 349.3 402.017 352.181 396.809 349.987Z" fill="url(#paint20_linear_17_4)"/>
<path d="M404.521 310.803C404.451 310.712 408.634 298.175 408.634 298.175L414.626 298.718L416.965 312.94C416.965 312.94 407.576 314.836 404.521 310.803Z" fill="url(#paint21_linear_17_4)"/>
<path d="M413.191 278.401C412.791 278.65 400.389 283.768 403.054 296.653C403.13 297.028 403.295 297.38 403.534 297.679C403.773 297.979 404.079 298.217 404.429 298.374C406.248 299.186 410.166 300.576 414.853 300.105C421.351 299.446 425.608 288.107 425.427 284.807C425.245 281.507 417.151 275.939 413.191 278.401Z" fill="url(#paint22_linear_17_4)"/>
<path d="M416.969 273.399C416.643 273.442 409.803 275.823 413.194 280.782C416.586 285.74 417.869 288.657 416.255 290.834C414.794 292.818 411.555 291.687 411.837 295.813C411.871 296.218 411.798 296.624 411.625 296.991C411.452 297.358 411.185 297.673 410.852 297.905C407.8 299.972 400.355 306.329 407.736 315.391C408.033 315.746 408.218 316.182 408.264 316.643C408.311 317.103 408.218 317.567 407.997 317.974C405.836 321.851 401.298 333.21 417.727 339.5C433.964 345.723 439.826 335.11 441.464 330.868C441.638 330.423 441.949 330.045 442.352 329.788C442.754 329.53 443.227 329.406 443.704 329.434C445.488 329.519 448.015 329.223 447.899 326.837C447.828 325.388 446.925 324.091 445.858 323.051C445.611 322.808 445.422 322.511 445.308 322.184C445.193 321.857 445.155 321.507 445.197 321.163C445.239 320.819 445.36 320.489 445.55 320.198C445.74 319.908 445.994 319.666 446.293 319.489C446.826 319.204 447.295 318.813 447.672 318.339C448.048 317.866 448.323 317.32 448.481 316.737C449.465 313.09 447.501 302.193 437.054 300.342C436.189 300.188 435.271 299.371 435.15 298.495V298.455C435.069 298.044 435.104 297.618 435.252 297.225C435.4 296.833 435.655 296.489 435.988 296.234C437.657 295.01 439.797 292.546 438.065 288.593C436.524 285.089 433.564 283.907 431.372 283.529C431.067 283.48 430.776 283.37 430.515 283.205C430.255 283.04 430.03 282.824 429.856 282.569C429.682 282.315 429.561 282.028 429.501 281.725C429.441 281.423 429.443 281.111 429.507 280.809C430.215 277.331 429.571 271.747 416.969 273.399Z" fill="#010648"/>
</g>
<defs>
<linearGradient id="paint0_linear_17_4" x1="517.15" y1="483.62" x2="162.289" y2="173.116" gradientUnits="userSpaceOnUse">
<stop stop-color="#DAE3FE"/>
<stop offset="1" stop-color="#E9EFFD"/>
</linearGradient>
<linearGradient id="paint1_linear_17_4" x1="221.752" y1="24.0368" x2="348.502" y2="173.47" gradientUnits="userSpaceOnUse">
<stop stop-color="#FF928E"/>
<stop offset="1" stop-color="#FE7062"/>
</linearGradient>
<linearGradient id="paint2_linear_17_4" x1="128.716" y1="69.0811" x2="278.601" y2="153.692" gradientUnits="userSpaceOnUse">
<stop stop-color="#FF928E"/>
<stop offset="1" stop-color="#FE7062"/>
</linearGradient>
<linearGradient id="paint3_linear_17_4" x1="59.7372" y1="132.555" x2="218.288" y2="175.413" gradientUnits="userSpaceOnUse">
<stop stop-color="#FF928E"/>
<stop offset="1" stop-color="#FE7062"/>
</linearGradient>
<linearGradient id="paint4_linear_17_4" x1="331.442" y1="46.0133" x2="361.109" y2="208.064" gradientUnits="userSpaceOnUse">
<stop stop-color="#FF928E"/>
<stop offset="1" stop-color="#FE7062"/>
</linearGradient>
<linearGradient id="paint5_linear_17_4" x1="408.861" y1="96.524" x2="388.397" y2="259.996" gradientUnits="userSpaceOnUse">
<stop stop-color="#FF928E"/>
<stop offset="1" stop-color="#FE7062"/>
</linearGradient>
<linearGradient id="paint6_linear_17_4" x1="18.983" y1="575.184" x2="248.406" y2="308.888" gradientUnits="userSpaceOnUse">
<stop stop-color="#E1473D"/>
<stop offset="1" stop-color="#E9605A"/>
</linearGradient>
<linearGradient id="paint7_linear_17_4" x1="377.272" y1="3.44297" x2="152.209" y2="547.06" gradientUnits="userSpaceOnUse">
<stop stop-color="#FF928E"/>
<stop offset="1" stop-color="#FE7062"/>
</linearGradient>
<linearGradient id="paint8_linear_17_4" x1="305.478" y1="102.018" x2="185.155" y2="477.702" gradientUnits="userSpaceOnUse">
<stop stop-color="#FF928E"/>
<stop offset="1" stop-color="#FE7062"/>
</linearGradient>
<linearGradient id="paint9_linear_17_4" x1="333.701" y1="111.058" x2="213.377" y2="486.74" gradientUnits="userSpaceOnUse">
<stop stop-color="#FF928E"/>
<stop offset="1" stop-color="#FE7062"/>
</linearGradient>
<linearGradient id="paint10_linear_17_4" x1="423.195" y1="254.652" x2="406.527" y2="305.744" gradientUnits="userSpaceOnUse">
<stop stop-color="#FEBBBA"/>
<stop offset="1" stop-color="#FF928E"/>
</linearGradient>
<linearGradient id="paint11_linear_17_4" x1="422.823" y1="168.542" x2="304.867" y2="409.253" gradientUnits="userSpaceOnUse">
<stop stop-color="#4F52FF"/>
<stop offset="1" stop-color="#4042E2"/>
</linearGradient>
<linearGradient id="paint12_linear_17_4" x1="362.607" y1="226.381" x2="367.828" y2="199.77" gradientUnits="userSpaceOnUse">
<stop stop-color="#30ABBA"/>
<stop offset="1" stop-color="#6165D7"/>
</linearGradient>
<linearGradient id="paint13_linear_17_4" x1="363.394" y1="223.685" x2="406.634" y2="223.685" gradientUnits="userSpaceOnUse">
<stop stop-color="#DAE3FE"/>
<stop offset="1" stop-color="#E9EFFD"/>
</linearGradient>
<linearGradient id="paint14_linear_17_4" x1="419.666" y1="436.209" x2="454.787" y2="436.209" gradientUnits="userSpaceOnUse">
<stop stop-color="#FEBBBA"/>
<stop offset="1" stop-color="#FF928E"/>
</linearGradient>
<linearGradient id="paint15_linear_17_4" x1="467.942" y1="357.667" x2="450.549" y2="470.721" gradientUnits="userSpaceOnUse">
<stop stop-color="#09005D"/>
<stop offset="1" stop-color="#1A0F91"/>
</linearGradient>
<linearGradient id="paint16_linear_17_4" x1="431.138" y1="352.005" x2="413.747" y2="465.059" gradientUnits="userSpaceOnUse">
<stop stop-color="#09005D"/>
<stop offset="1" stop-color="#1A0F91"/>
</linearGradient>
<linearGradient id="paint17_linear_17_4" x1="398.355" y1="438.822" x2="418.693" y2="438.822" gradientUnits="userSpaceOnUse">
<stop stop-color="#FEBBBA"/>
<stop offset="1" stop-color="#FF928E"/>
</linearGradient>
<linearGradient id="paint18_linear_17_4" x1="354.543" y1="286.234" x2="394.359" y2="286.234" gradientUnits="userSpaceOnUse">
<stop stop-color="#FEBBBA"/>
<stop offset="1" stop-color="#FF928E"/>
</linearGradient>
<linearGradient id="paint19_linear_17_4" x1="380.399" y1="346.943" x2="445.623" y2="420.5" gradientUnits="userSpaceOnUse">
<stop stop-color="#09005D"/>
<stop offset="1" stop-color="#1A0F91"/>
</linearGradient>
<linearGradient id="paint20_linear_17_4" x1="438.547" y1="302.124" x2="400.586" y2="409.897" gradientUnits="userSpaceOnUse">
<stop stop-color="#010648"/>
<stop offset="1" stop-color="#242665"/>
</linearGradient>
<linearGradient id="paint21_linear_17_4" x1="404.521" y1="305.781" x2="416.965" y2="305.781" gradientUnits="userSpaceOnUse">
<stop stop-color="#FEBBBA"/>
<stop offset="1" stop-color="#FF928E"/>
</linearGradient>
<linearGradient id="paint22_linear_17_4" x1="424.301" y1="289.696" x2="514.889" y2="295.857" gradientUnits="userSpaceOnUse">
<stop stop-color="#FEBBBA"/>
<stop offset="1" stop-color="#FF928E"/>
</linearGradient>
<clipPath id="clip0_17_4">
<rect width="476.423" height="480" fill="white" transform="translate(0.232422)"/>
</clipPath>
</defs>
</svg>
