<svg width="48" height="48" viewBox="0 0 48 48" fill="none" xmlns="http://www.w3.org/2000/svg">
<g clip-path="url(#clip0_1248_1250)">
<path d="M32.8 8.80005H12V11.2H32.8V8.80005Z" fill="white"/>
<path d="M20 17.5999H15.2V19.1999H20V17.5999Z" fill="white"/>
<path d="M34.6752 23.0801C34.5032 22.9112 34.4088 22.6833 34.4088 22.4401C34.4088 22.1985 34.5032 21.9712 34.6736 21.8L35.2928 21.1808L29.9992 19.5928L31.012 22.9696L31.5872 24.8864L32.1648 24.3088C32.3679 24.1056 32.6352 24.0031 32.9031 24.0031C33.1703 24.0031 33.4375 24.1048 33.6415 24.3088L35.3999 26.068L36.5311 24.936L34.6752 23.0801Z" fill="white"/>
<path d="M12.0009 12.8V22.4H29.1704C28.9232 21.5752 28.6752 20.7497 28.428 19.9249C28.3352 19.6169 28.2432 19.3088 28.1504 19.0017C28.0329 18.6089 27.8993 18.2057 28.2168 17.8601C28.2248 17.8513 28.2328 17.8433 28.2408 17.8353C28.6424 17.4313 29.192 17.6809 29.6576 17.8201C30.1745 17.9752 30.6905 18.1296 31.2065 18.2849C31.7377 18.4441 32.2697 18.6041 32.8009 18.7633V12.8001L12.0009 12.8ZM21.6 20C21.6 20.4416 21.2416 20.8 20.8 20.8H14.4C13.9584 20.8 13.6 20.4416 13.6 20V16.8001C13.6 16.3585 13.9584 16.0001 14.4 16.0001H20.8C21.2416 16.0001 21.6 16.3585 21.6 16.8001V20Z" fill="white"/>
<path d="M44 31.2H4.00003H0V34.3992C0 36.164 1.43597 37.6 3.20081 37.6H19.1616C18.972 40.7728 17.6512 42.4 15.2 42.4H13.5999C12.2767 42.4 11.1999 43.4768 11.1999 44.8C11.1999 46.1232 12.2767 47.2 13.5999 47.2H34.4C35.7232 47.2 36.8 46.1232 36.8 44.8C36.8 43.4768 35.7232 42.4 34.4 42.4H32.7999C30.3487 42.4 29.0288 40.7728 28.8383 37.6H44.7992C46.564 37.6 48 36.164 48 34.3992V31.2H44ZM21.6 32.8H26.4C26.8416 32.8 27.2 33.1584 27.2 33.6C27.2 34.0415 26.8416 34.3999 26.4 34.3999H21.6C21.1584 34.3999 20.8 34.0415 20.8 33.6C20.8 33.1584 21.1584 32.8 21.6 32.8ZM28.9032 42.4H19.096C20.0816 41.3088 20.6617 39.684 20.7776 37.6H27.2216C27.3384 39.684 27.9176 41.3087 28.9032 42.4Z" fill="white"/>
<path d="M4.79999 5.59985V29.5999H43.2V5.59985H4.79999ZM38.2272 25.5023L35.9648 27.7655C35.8145 27.9159 35.6112 27.9999 35.3992 27.9999C35.1873 27.9999 34.9833 27.9159 34.8336 27.7655L32.9025 25.8335L31.7713 26.9656C31.5713 27.1648 31.2817 27.2432 31.0097 27.1759C30.7369 27.1071 30.5201 26.8999 30.4393 26.6296L29.6504 23.9999H11.2008C10.7592 23.9999 10.4008 23.6415 10.4008 23.1999V11.9999V7.99985C10.4008 7.55829 10.7592 7.19988 11.2008 7.19988H33.6007C34.0423 7.19988 34.4007 7.55829 34.4007 7.99985V11.9999V19.2431L37.0359 20.0335C37.3055 20.1151 37.5127 20.3311 37.5816 20.6039C37.6504 20.8767 37.5703 21.1663 37.3712 21.3655L36.2968 22.4399L38.228 24.371C38.54 24.6839 38.54 25.1903 38.2272 25.5023Z" fill="white"/>
<path d="M44.7992 0.800049H3.20081C1.43597 0.800049 0 2.23611 0 4.00086V29.6H3.19997V4.80008C3.19997 4.35852 3.55838 4.00011 3.99994 4.00011H44C44.4415 4.00011 44.7999 4.35852 44.7999 4.80008V29.6H48V4.00086C48 2.23611 46.564 0.800049 44.7992 0.800049Z" fill="white"/>
</g>
<defs>
<clipPath id="clip0_1248_1250">
<rect width="48" height="48" fill="white"/>
</clipPath>
</defs>
</svg>
