<svg width="48" height="48" viewBox="0 0 48 48" fill="none" xmlns="http://www.w3.org/2000/svg">
<path d="M41.5737 11.995C40.8444 12.0173 39.2487 12.0006 35.2 12.0006C32.5492 12.0006 30.3994 9.85089 30.3994 7.19993C30.3994 3.1519 30.3828 1.55563 30.405 0.826438C30.4187 0.374546 30.0575 0.000752 29.6055 0.000752H8.79975C7.03248 0.000752 5.59981 1.43343 5.59981 3.2007V44.8C5.59981 46.5673 7.03248 47.9999 8.79975 47.9999H39.1992C40.9665 47.9999 42.3992 46.5673 42.3992 44.8V12.7944C42.3992 12.3423 42.0255 11.9811 41.5737 11.995ZM12.1997 9.40059H19.2996C19.7414 9.40059 20.0996 9.75879 20.0996 10.2006C20.0996 10.6424 19.7414 11.0006 19.2996 11.0006H12.1997C11.7579 11.0006 11.3997 10.6424 11.3997 10.2006C11.3997 9.75879 11.7579 9.40059 12.1997 9.40059ZM12.1997 14.4005H23.2995C23.7413 14.4005 24.0995 14.7587 24.0995 15.2005C24.0995 15.6423 23.7413 16.0005 23.2995 16.0005H12.1997C11.7579 16.0005 11.3997 15.6423 11.3997 15.2005C11.3997 14.7587 11.7579 14.4005 12.1997 14.4005ZM36.5993 38.0001C36.5993 38.4419 36.2411 38.8001 35.7993 38.8001H12.1997C11.7579 38.8001 11.3997 38.4419 11.3997 38.0001V21.6004C11.3997 21.1586 11.7579 20.8004 12.1997 20.8004H35.7993C36.2411 20.8004 36.5993 21.1586 36.5993 21.6004V38.0001ZM27.5994 31.7642H13.7997C13.3579 31.7642 12.9997 31.406 12.9997 30.9642V28.6362C12.9997 28.1944 13.3579 27.8362 13.7997 27.8362H27.5994C28.0412 27.8362 28.3994 28.1944 28.3994 28.6362V30.9642C28.3994 31.406 28.0412 31.7642 27.5994 31.7642ZM30.7994 22.4004H34.1993C34.6411 22.4004 34.9993 22.7586 34.9993 23.2004V25.4362C34.9993 25.878 34.6411 26.2362 34.1993 26.2362H30.7994C30.3576 26.2362 29.9994 25.878 29.9994 25.4362V23.2004C29.9994 22.7585 30.3576 22.4004 30.7994 22.4004ZM12.9997 25.4362V23.2004C12.9997 22.7586 13.3579 22.4004 13.7997 22.4004H27.5994C28.0412 22.4004 28.3994 22.7586 28.3994 23.2004V25.4362C28.3994 25.878 28.0412 26.2362 27.5994 26.2362H13.7997C13.3579 26.2362 12.9997 25.878 12.9997 25.4362ZM34.1993 31.7642H30.7994C30.3576 31.7642 29.9994 31.406 29.9994 30.9642V28.6362C29.9994 28.1944 30.3576 27.8362 30.7994 27.8362H34.1993C34.6411 27.8362 34.9993 28.1944 34.9993 28.6362V30.9642C34.9993 31.406 34.6411 31.7642 34.1993 31.7642ZM27.5994 37.2001H13.7997C13.3579 37.2001 12.9997 36.8419 12.9997 36.4001V34.1643C12.9997 33.7225 13.3579 33.3643 13.7997 33.3643H27.5994C28.0412 33.3643 28.3994 33.7225 28.3994 34.1643V36.4001C28.3994 36.8419 28.0412 37.2001 27.5994 37.2001ZM34.9993 34.1642V36.4C34.9993 36.8418 34.6411 37.2 34.1993 37.2H30.7994C30.3576 37.2 29.9994 36.8418 29.9994 36.4V34.1642C29.9994 33.7224 30.3576 33.3642 30.7994 33.3642H34.1993C34.6411 33.3642 34.9993 33.7224 34.9993 34.1642ZM41.5992 10.4006H35.1993C33.4353 10.4006 31.9994 8.9646 31.9994 7.20063V0.800739C31.9994 0.0915505 32.86 -0.268443 33.3653 0.234748L42.1652 9.0346C42.6683 9.53769 42.3095 10.4006 41.5992 10.4006Z" fill="white"/>
</svg>
