<svg width="48" height="48" viewBox="0 0 48 48" fill="none" xmlns="http://www.w3.org/2000/svg">
<g clip-path="url(#clip0_1248_1284)">
<path d="M38.3625 7.44742C37.8915 5.52781 36.7888 3.82226 35.2317 2.60485C33.6746 1.38744 31.7534 0.728847 29.7768 0.734905C27.8003 0.740962 25.8832 1.41132 24.3335 2.63825C22.7839 3.86519 21.6917 5.57746 21.2325 7.49992C21.1534 7.56937 21.0899 7.65467 21.0459 7.75029C21.002 7.84591 20.9787 7.9497 20.9775 8.05492V10.8899C20.9775 11.0888 21.0565 11.2796 21.1971 11.4203C21.3378 11.5609 21.5286 11.6399 21.7275 11.6399H23.175C23.7498 11.6399 24.3011 11.4116 24.7076 11.0051C25.1141 10.5986 25.3425 10.0473 25.3425 9.47242C25.3425 8.89756 25.1141 8.34625 24.7076 7.93977C24.3011 7.53328 23.7498 7.30492 23.175 7.30492H22.8375C23.313 5.8372 24.2401 4.55726 25.4865 3.64787C26.7328 2.73848 28.2346 2.24614 29.7774 2.24115C31.3202 2.23616 32.8252 2.71878 34.0774 3.62009C35.3296 4.5214 36.265 5.79531 36.75 7.25992H36.48C35.932 7.29231 35.4172 7.5328 35.0407 7.93221C34.6642 8.33162 34.4545 8.85978 34.4545 9.40867C34.4545 9.95756 34.6642 10.4857 35.0407 10.8851C35.4172 11.2845 35.932 11.525 36.48 11.5574H37.89C38.0889 11.5574 38.2797 11.4784 38.4203 11.3378C38.561 11.1971 38.64 11.0063 38.64 10.8074V8.00992C38.6371 7.90169 38.6108 7.79537 38.5629 7.69827C38.515 7.60117 38.4466 7.51559 38.3625 7.44742Z" fill="white"/>
<path d="M41.64 21.9299C40.9802 20.4276 39.8981 19.1494 38.5254 18.2507C37.1526 17.3519 35.5483 16.8714 33.9075 16.8674H33.24C33.0411 16.8674 32.8503 16.9465 32.7097 17.0871C32.569 17.2278 32.49 17.4185 32.49 17.6174C32.49 18.3305 32.2067 19.0144 31.7025 19.5187C31.1982 20.0229 30.5143 20.3062 29.8012 20.3062C29.0881 20.3062 28.4043 20.0229 27.9 19.5187C27.3958 19.0144 27.1125 18.3305 27.1125 17.6174C27.1125 17.4185 27.0335 17.2278 26.8928 17.0871C26.7522 16.9465 26.5614 16.8674 26.3625 16.8674H25.695C24.0606 16.8786 22.4644 17.3625 21.0989 18.2608C19.7335 19.1592 18.6572 20.4334 18 21.9299H41.64Z" fill="white"/>
<path d="M46.5 47.25H1.5C1.30109 47.25 1.11032 47.171 0.96967 47.0303C0.829018 46.8897 0.75 46.6989 0.75 46.5C0.75 46.3011 0.829018 46.1103 0.96967 45.9697C1.11032 45.829 1.30109 45.75 1.5 45.75H46.5C46.6989 45.75 46.8897 45.829 47.0303 45.9697C47.171 46.1103 47.25 46.3011 47.25 46.5C47.25 46.6989 47.171 46.8897 47.0303 47.0303C46.8897 47.171 46.6989 47.25 46.5 47.25Z" fill="white"/>
<path d="M8.0625 40.4475V42.87C8.0625 43.0689 7.98348 43.2597 7.84283 43.4003C7.70218 43.541 7.51141 43.62 7.3125 43.62C7.11359 43.62 6.92282 43.541 6.78217 43.4003C6.64152 43.2597 6.5625 43.0689 6.5625 42.87V40.4475C5.66559 40.6215 4.85711 41.1021 4.27558 41.8067C3.69405 42.5114 3.37568 43.3964 3.375 44.31V44.625C3.375 44.8239 3.45402 45.0147 3.59467 45.1553C3.73532 45.296 3.92609 45.375 4.125 45.375H10.5C10.6989 45.375 10.8897 45.296 11.0303 45.1553C11.171 45.0147 11.25 44.8239 11.25 44.625V44.31C11.2493 43.3964 10.9309 42.5114 10.3494 41.8067C9.76789 41.1021 8.95941 40.6215 8.0625 40.4475Z" fill="white"/>
<path d="M28.605 33.8399L28.4025 35.0249L29.46 34.4999C29.5676 34.4434 29.6873 34.4139 29.8088 34.4139C29.9303 34.4139 30.0499 34.4434 30.1575 34.4999L31.215 35.0549L31.0125 33.8699C30.9928 33.7505 31.0023 33.6281 31.0402 33.5132C31.0781 33.3983 31.1432 33.2942 31.23 33.2099L32.085 32.3699L30.9 32.1974C30.7798 32.1794 30.6659 32.1324 30.5679 32.0605C30.4699 31.9887 30.3908 31.8941 30.3375 31.7849L29.8125 30.7124L29.25 31.7549C29.1967 31.8641 29.1176 31.9587 29.0196 32.0305C28.9216 32.1024 28.8077 32.1494 28.6875 32.1674L27.5025 32.3399L28.3575 33.1799C28.4497 33.2612 28.5205 33.3639 28.5636 33.479C28.6068 33.5941 28.621 33.718 28.605 33.8399Z" fill="white"/>
<path d="M46.7475 25.5976C46.7586 25.2661 46.7026 24.9357 46.5827 24.6263C46.4628 24.317 46.2816 24.0351 46.05 23.7976C45.8235 23.5603 45.5512 23.3714 45.2495 23.2425C44.9478 23.1136 44.6231 23.0473 44.295 23.0476H15.3225C14.9944 23.0473 14.6697 23.1136 14.368 23.2425C14.0664 23.3714 13.794 23.5603 13.5675 23.7976C13.3298 24.0444 13.1458 24.3378 13.0271 24.6592C12.9083 24.9806 12.8574 25.3231 12.8775 25.6651L14.88 41.6551V43.3051C14.8955 43.853 15.1232 44.3734 15.5149 44.7568C15.9066 45.1401 16.4319 45.3564 16.98 45.3601H42.6075C43.1556 45.3564 43.6809 45.1401 44.0726 44.7568C44.4643 44.3734 44.692 43.853 44.7075 43.3051V41.6551L46.71 25.6651C46.71 25.6651 46.7475 25.6201 46.7475 25.5976ZM25.2075 31.5976C25.251 31.4643 25.3309 31.3459 25.4383 31.2557C25.5457 31.1656 25.6762 31.1073 25.815 31.0876L28.11 30.7501L29.1375 28.6651C29.1997 28.5403 29.2955 28.4353 29.414 28.3619C29.5326 28.2885 29.6693 28.2497 29.8088 28.2497C29.9482 28.2497 30.0849 28.2885 30.2035 28.3619C30.322 28.4353 30.4178 28.5403 30.48 28.6651L31.5 30.7501L33.795 31.0876C33.9339 31.1078 34.0644 31.1665 34.1715 31.2571C34.2787 31.3477 34.3583 31.4666 34.4013 31.6002C34.4443 31.7338 34.4489 31.8768 34.4146 32.0129C34.3804 32.149 34.3086 32.2728 34.2075 32.3701L32.5575 33.9751L32.9475 36.2701C32.9704 36.4077 32.9544 36.549 32.9014 36.678C32.8484 36.807 32.7605 36.9187 32.6475 37.0005C32.5346 37.0823 32.401 37.131 32.2619 37.1411C32.1228 37.1512 31.9836 37.1223 31.86 37.0576L29.8125 36.0001L27.75 37.0576C27.6264 37.1223 27.4872 37.1512 27.3481 37.1411C27.209 37.131 27.0754 37.0823 26.9625 37.0005C26.8495 36.9187 26.7616 36.807 26.7086 36.678C26.6556 36.549 26.6396 36.4077 26.6625 36.2701L27.0525 33.9751L25.395 32.3551C25.2945 32.2568 25.2236 32.1323 25.1905 31.9957C25.1573 31.8592 25.1632 31.716 25.2075 31.5826V31.5976ZM43.2075 43.3051C43.2017 43.461 43.1362 43.6087 43.0245 43.7176C42.9128 43.8265 42.7635 43.8883 42.6075 43.8901H17.0175C16.8615 43.8883 16.7122 43.8265 16.6005 43.7176C16.4888 43.6087 16.4233 43.461 16.4175 43.3051V42.4201H43.23L43.2075 43.3051Z" fill="white"/>
<path d="M33.5925 9.42754C33.5921 8.80272 33.7933 8.19445 34.1662 7.69314C34.5392 7.19183 35.0639 6.82425 35.6625 6.64504C35.1171 5.55293 34.2772 4.63505 33.2377 3.99502C32.1982 3.355 31.0005 3.01832 29.7798 3.023C28.559 3.02768 27.3639 3.37353 26.3294 4.02151C25.2948 4.66948 24.462 5.59378 23.925 6.69004C24.545 6.8631 25.0903 7.23634 25.4761 7.75162C25.8618 8.26689 26.0663 8.89528 26.0578 9.5389C26.0492 10.1825 25.8281 10.8052 25.4287 11.3101C25.0294 11.8149 24.4743 12.1735 23.85 12.33C24.3699 13.4928 25.2178 14.4786 26.2896 15.1668C27.3614 15.8549 28.6107 16.2155 29.8843 16.2044C31.158 16.1932 32.4008 15.8108 33.4604 15.104C34.52 14.3972 35.3504 13.3967 35.85 12.225C35.2129 12.0826 34.6428 11.7285 34.2328 11.2204C33.8228 10.7124 33.5971 10.0804 33.5925 9.42754Z" fill="white"/>
</g>
<defs>
<clipPath id="clip0_1248_1284">
<rect width="48" height="48" fill="white"/>
</clipPath>
</defs>
</svg>
