<svg width="48" height="48" viewBox="0 0 48 48" fill="none" xmlns="http://www.w3.org/2000/svg">
<path fill-rule="evenodd" clip-rule="evenodd" d="M4.74741 1.5H31.4347V6.67163C31.4347 7.74938 32.3106 8.62519 33.3883 8.62519H38.56V17.5203C38.0469 17.6017 37.5732 17.9047 37.2941 18.388L33.3614 25.1997C33.1213 25.6156 33.0689 26.0897 33.1775 26.5228L28.1505 35.2298C27.976 35.532 27.8951 35.872 27.9147 36.2204L28.0583 38.7772C28.0597 38.8028 28.0618 38.8283 28.0643 38.8538C25.9949 38.2986 24.9368 38.9861 24.0122 39.5871C23.5757 39.8708 23.184 40.1254 22.7367 40.0487C22.5405 40.015 22.2009 39.7868 21.8296 39.537C20.5643 38.6863 19.047 37.6661 17.3575 39.4909C17.0776 39.7934 17.096 40.2656 17.3985 40.5456C17.701 40.8255 18.1732 40.8071 18.4532 40.5046C19.2727 39.6195 20.2133 40.2518 20.9977 40.7792C21.5097 41.1234 21.9779 41.4383 22.4849 41.5252C23.5049 41.7002 24.13 41.2939 24.8268 40.841C25.6167 40.3274 26.5423 39.726 28.7538 40.6789C29.0666 40.82 29.4427 40.729 29.6544 40.4498C29.9881 40.4843 30.3296 40.424 30.6396 40.2674L32.9256 39.1134C33.237 38.9562 33.4911 38.7161 33.6654 38.414L38.5601 29.9362V45.5929C38.5601 46.0926 38.1526 46.5001 37.6529 46.5001H4.74741C4.24772 46.5001 3.84019 46.0926 3.84019 45.5929V2.40722C3.84009 1.90753 4.24762 1.5 4.74741 1.5ZM38.9773 19.0351C38.8432 18.9577 38.6706 19.0039 38.5931 19.138L34.6604 25.9497C34.583 26.0839 34.6292 26.2565 34.7633 26.3339L38.0629 28.2389C38.197 28.3163 38.3696 28.2701 38.4471 28.136L41.7736 22.3742L42.3978 22.7362C42.6473 22.8803 42.7379 23.211 42.5934 23.461L39.3532 29.0733C39.1461 29.4308 39.268 29.8886 39.6256 30.0957C39.9832 30.3028 40.4409 30.1808 40.648 29.8233L43.8883 24.211C44.4468 23.2437 44.1155 22.0001 43.1477 21.4413C43.1467 21.4433 39.3256 19.2361 38.9773 19.0351ZM29.4495 35.9798C29.4209 36.0293 29.4091 36.0792 29.4123 36.1362L29.5559 38.693C29.5673 38.8962 29.7817 39.02 29.9634 38.9283L32.2494 37.7743C32.3004 37.7485 32.3377 37.7134 32.3662 37.6639L37.1215 29.4275L34.2047 27.7434L29.4495 35.9798ZM40.3601 18.1014L40.7291 17.4623C40.9332 17.1088 41.3895 16.9865 41.7431 17.1907L42.3508 17.5416C42.7043 17.7457 42.8267 18.2019 42.6225 18.5556L42.2535 19.1947L40.3601 18.1014ZM32.9347 1.57866V6.67163C32.9347 6.92147 33.1385 7.12528 33.3884 7.12528H38.4815C38.4375 7.02891 38.3751 6.94022 38.2943 6.85959L33.2004 1.76578C33.1197 1.68506 33.031 1.62263 32.9347 1.57866ZM31.8509 11.8413H22.0068C21.5926 11.8413 21.2568 12.1771 21.2568 12.5913C21.2568 13.0055 21.5926 13.3413 22.0068 13.3413H31.8509C32.2651 13.3413 32.6009 13.0055 32.6009 12.5913C32.6009 12.177 32.2651 11.8413 31.8509 11.8413ZM18.8806 11.8413H10.2652C9.85097 11.8413 9.51516 12.1771 9.51516 12.5913C9.51516 13.0055 9.85097 13.3413 10.2652 13.3413H18.8806C19.2948 13.3413 19.6306 13.0055 19.6306 12.5913C19.6306 12.177 19.2948 11.8413 18.8806 11.8413ZM31.9219 17.4525H29.1711C28.7569 17.4525 28.4211 17.7883 28.4211 18.2025C28.4211 18.6167 28.7569 18.9525 29.1711 18.9525H31.9219C32.3361 18.9525 32.6719 18.6167 32.6719 18.2025C32.6719 17.7882 32.3362 17.4525 31.9219 17.4525ZM25.6975 17.4525H10.3361C9.92194 17.4525 9.58612 17.7883 9.58612 18.2025C9.58612 18.6167 9.92194 18.9525 10.3361 18.9525H25.6974C26.1116 18.9525 26.4474 18.6167 26.4474 18.2025C26.4475 17.7882 26.1117 17.4525 25.6975 17.4525ZM31.9929 23.0637H10.4072C9.993 23.0637 9.65719 23.3995 9.65719 23.8137C9.65719 24.2279 9.993 24.5637 10.4072 24.5637H31.9929C32.4071 24.5637 32.7429 24.2279 32.7429 23.8137C32.7429 23.3995 32.4071 23.0637 31.9929 23.0637ZM28.9512 28.6749H10.4782C10.064 28.6749 9.72816 29.0107 9.72816 29.4249C9.72816 29.8391 10.064 30.1749 10.4782 30.1749H28.9512C29.3654 30.1749 29.7012 29.8391 29.7012 29.4249C29.7012 29.0107 29.3654 28.6749 28.9512 28.6749ZM25.7025 34.2862H10.5491C10.1349 34.2862 9.79912 34.622 9.79912 35.0362C9.79912 35.4503 10.1349 35.7862 10.5491 35.7862H25.7025C26.1167 35.7862 26.4525 35.4503 26.4525 35.0362C26.4525 34.622 26.1167 34.2862 25.7025 34.2862ZM10.4072 8.10262H12.9379C13.3521 8.10262 13.6879 7.76681 13.6879 7.35262C13.6879 6.93844 13.3521 6.60262 12.9379 6.60262H10.4072C9.993 6.60262 9.65719 6.93844 9.65719 7.35262C9.65719 7.76681 9.993 8.10262 10.4072 8.10262ZM15.9961 8.10262H25.6505C26.0647 8.10262 26.4005 7.76681 26.4005 7.35262C26.4005 6.93844 26.0647 6.60262 25.6505 6.60262H15.9961C15.5819 6.60262 15.2461 6.93844 15.2461 7.35262C15.2461 7.76681 15.5819 8.10262 15.9961 8.10262Z" fill="white"/>
</svg>
