<svg width="48" height="48" viewBox="0 0 48 48" fill="none" xmlns="http://www.w3.org/2000/svg">
<path d="M42.6678 3H14.7078C14.3104 3.00116 13.9295 3.15957 13.6484 3.44062C13.3674 3.72168 13.209 4.10253 13.2078 4.5V6.5025C13.2828 6.51 15.6378 6.915 15.6378 6.915C16.3344 7.03536 16.9662 7.39779 17.4217 7.93839C17.8773 8.47899 18.1273 9.16306 18.1278 9.87V14.85C18.1273 15.5569 17.8773 16.241 17.4217 16.7816C16.9662 17.3222 16.3344 17.6846 15.6378 17.805C14.9936 17.9196 13.8566 18.1201 13.2078 18.225V29.7825C13.8583 29.8685 14.9944 30.0867 15.6378 30.195C16.3344 30.3154 16.9662 30.6778 17.4217 31.2184C17.8773 31.759 18.1273 32.4431 18.1278 33.15V38.13C18.1276 38.8358 17.8785 39.519 17.4245 40.0594C16.9705 40.5999 16.3405 40.963 15.6453 41.085C14.9984 41.1998 13.8588 41.3988 13.2078 41.505V43.5C13.209 43.8975 13.3674 44.2783 13.6485 44.5594C13.9295 44.8404 14.3104 44.9988 14.7078 45H42.6678C43.0653 44.9988 43.4461 44.8404 43.7272 44.5594C44.0082 44.2783 44.1667 43.8975 44.1678 43.5V4.5C44.1667 4.10253 44.0083 3.72168 43.7272 3.44062C43.4461 3.15957 43.0653 3.00116 42.6678 3ZM39.1728 39.4125H23.1228C22.9239 39.4125 22.7331 39.3335 22.5925 39.1928C22.4518 39.0522 22.3728 38.8614 22.3728 38.6625C22.3728 38.4636 22.4518 38.2728 22.5925 38.1322C22.7331 37.9915 22.9239 37.9125 23.1228 37.9125H39.1728C39.3697 37.9156 39.5575 37.9959 39.6957 38.1362C39.8338 38.2766 39.9113 38.4656 39.9113 38.6625C39.9113 38.8594 39.8338 39.0485 39.6957 39.1888C39.5575 39.3291 39.3697 39.4095 39.1728 39.4125ZM39.1728 35.7825H23.1228C22.9239 35.7825 22.7331 35.7035 22.5925 35.5628C22.4518 35.4222 22.3728 35.2314 22.3728 35.0325C22.3728 34.8336 22.4518 34.6428 22.5925 34.5022C22.7331 34.3615 22.9239 34.2825 23.1228 34.2825H39.1728C39.3698 34.2854 39.5577 34.3657 39.696 34.5061C39.8343 34.6464 39.9118 34.8355 39.9118 35.0325C39.9118 35.2295 39.8343 35.4186 39.696 35.5589C39.5577 35.6993 39.3698 35.7796 39.1728 35.7825ZM22.3728 31.395C22.3734 31.1963 22.4526 31.0058 22.5932 30.8653C22.7337 30.7248 22.9241 30.6456 23.1228 30.645H30.4728C30.6717 30.645 30.8625 30.724 31.0032 30.8647C31.1438 31.0053 31.2228 31.1961 31.2228 31.395C31.2228 31.5939 31.1438 31.7847 31.0032 31.9253C30.8625 32.066 30.6717 32.145 30.4728 32.145H23.1228C22.9241 32.1444 22.7337 32.0652 22.5932 31.9247C22.4526 31.7841 22.3734 31.5937 22.3728 31.395ZM41.0553 15.375L38.5503 16.5825V19.4775C38.4024 21.0738 36.667 22.3151 35.2129 22.9201L35.2803 25.8376L36.1428 27.6526C36.1851 27.7412 36.2096 27.8373 36.2148 27.9354C36.22 28.0335 36.2059 28.1317 36.1731 28.2243C36.1404 28.3169 36.0897 28.4022 36.0241 28.4753C35.9584 28.5483 35.8789 28.6077 35.7903 28.6501C35.7016 28.6924 35.6055 28.7169 35.5074 28.7221C35.4093 28.7273 35.3112 28.7131 35.2185 28.6804C35.1259 28.6477 35.0406 28.597 34.9676 28.5313C34.8945 28.4656 34.8351 28.3862 34.7928 28.2976L34.4928 27.6826C34.2855 28.0617 34.0487 28.7534 33.5028 28.71C33.3739 28.7082 33.2477 28.6736 33.1359 28.6095C33.024 28.5454 32.9304 28.454 32.8636 28.3437C32.7969 28.2335 32.7593 28.1081 32.7543 27.9793C32.7494 27.8505 32.7773 27.7226 32.8354 27.6076L33.7729 25.8376L33.7278 23.3551C28.5609 24.257 24.7943 22.3498 23.9029 20.1223C23.6396 19.7552 23.816 16.7876 23.7678 16.3125L21.2328 15.0825C21.0426 14.9867 20.883 14.8397 20.7719 14.6579C20.6609 14.4762 20.6029 14.267 20.6044 14.0541C20.606 13.8411 20.6671 13.6328 20.7808 13.4527C20.8945 13.2727 21.0563 13.128 21.2479 13.035L30.5028 8.6925C30.6557 8.62145 30.8225 8.58526 30.9911 8.58656C31.1598 8.58785 31.326 8.6266 31.4778 8.7L41.0628 13.335C41.2522 13.4301 41.4114 13.5762 41.5223 13.7568C41.6333 13.9374 41.6917 14.1454 41.6909 14.3573C41.6901 14.5693 41.6302 14.7768 41.5179 14.9566C41.4056 15.1364 41.2454 15.2813 41.0553 15.375Z" fill="white"/>
<path d="M15.3828 39.6075C15.7309 39.5467 16.0464 39.3654 16.2741 39.0952C16.5017 38.825 16.627 38.4833 16.6278 38.13V33.15C16.627 32.7967 16.5017 32.4549 16.2741 32.1847C16.0464 31.9146 15.7309 31.7332 15.3828 31.6725L13.1853 31.29C12.9702 31.2542 12.7498 31.2655 12.5395 31.3231C12.3291 31.3808 12.1338 31.4834 11.9669 31.6239C11.8001 31.7643 11.6657 31.9393 11.5731 32.1368C11.4804 32.3342 11.4317 32.5494 11.4303 32.7675V33.735H9.85531C8.11 30.8249 3.77089 32.2118 3.83281 35.64C3.90471 39.2356 7.9801 40.3576 9.9302 37.5524L11.4303 37.5525V38.5125C11.4314 38.9087 11.5888 39.2884 11.8682 39.5693C12.1476 39.8501 12.5266 40.0094 12.9228 40.0125C13.1049 40.0231 15.3828 39.6075 15.3828 39.6075Z" fill="white"/>
<path d="M7.1028 15.8626C7.66037 15.8604 8.2077 15.7125 8.69052 15.4336C9.17333 15.1547 9.57486 14.7545 9.8553 14.2726H11.4303C11.4273 14.9569 11.3251 15.9254 11.9629 16.38C12.1321 16.525 12.3322 16.6295 12.548 16.6854C12.7637 16.7413 12.9894 16.7472 13.2078 16.7026L15.3828 16.3276C15.7308 16.2668 16.0464 16.0855 16.2741 15.8153C16.5017 15.5451 16.627 15.2034 16.6278 14.8501V9.87006C16.627 9.51675 16.5017 9.17502 16.2741 8.90484C16.0464 8.63466 15.7308 8.45329 15.3828 8.39256L13.2078 8.01756C12.9915 7.9773 12.769 7.98503 12.556 8.0402C12.3431 8.09537 12.1448 8.19664 11.9752 8.33685C11.8057 8.47706 11.669 8.6528 11.5749 8.85163C11.4807 9.05047 11.4313 9.26755 11.4303 9.48756V10.4551H9.85529C8.10998 7.54498 3.77087 8.93194 3.83279 12.3601C3.81342 12.8058 3.88305 13.2509 4.03762 13.6693C4.19219 14.0878 4.42859 14.4713 4.73303 14.7973C5.03746 15.1234 5.40382 15.3856 5.8107 15.5685C6.21759 15.7513 6.65684 15.8513 7.1028 15.8626Z" fill="white"/>
<path d="M35.1828 21.285C35.9855 20.9056 36.6416 20.2732 37.0503 19.485V17.3025L35.1153 18.2325L35.1828 21.285Z" fill="white"/>
<path d="M31.8978 19.7775C31.7433 19.8476 31.5754 19.8833 31.4057 19.882C31.2361 19.8807 31.0687 19.8425 30.9153 19.77L25.2678 17.0325V19.5075C25.5078 20.0324 27.0153 22.6275 33.0153 21.945C33.2426 21.9233 33.4682 21.8857 33.6903 21.8325L33.6303 18.945L31.8978 19.7775Z" fill="white"/>
<path d="M22.5828 14.0625L31.4103 18.345L33.1053 17.5275L30.3003 14.5725C30.1669 14.4276 30.0958 14.2361 30.1023 14.0393C30.1088 13.8424 30.1924 13.656 30.3351 13.5202C30.4777 13.3844 30.668 13.3102 30.865 13.3134C31.0619 13.3166 31.2497 13.3971 31.3878 13.5375L34.5303 16.845C35.7946 16.2357 38.4729 14.9613 39.7203 14.355L30.9828 10.125L22.5828 14.0625Z" fill="white"/>
</svg>
