<?xml version="1.0" encoding="UTF-8" standalone="no"?>
<svg
   width="34"
   height="34"
   viewBox="0 0 34 34"
   fill="none"
   version="1.1"
   id="svg6"
   sodipodi:docname="Architektur.svg"
   inkscape:version="1.2.2 (732a01da63, 2022-12-09)"
   xmlns:inkscape="http://www.inkscape.org/namespaces/inkscape"
   xmlns:sodipodi="http://sodipodi.sourceforge.net/DTD/sodipodi-0.dtd"
   xmlns="http://www.w3.org/2000/svg"
   xmlns:svg="http://www.w3.org/2000/svg">
  <defs
     id="defs10" />
  <sodipodi:namedview
     id="namedview8"
     pagecolor="#ffffff"
     bordercolor="#000000"
     borderopacity="0.25"
     inkscape:showpageshadow="2"
     inkscape:pageopacity="0.0"
     inkscape:pagecheckerboard="0"
     inkscape:deskcolor="#d1d1d1"
     showgrid="false"
     inkscape:zoom="24.911765"
     inkscape:cx="13.708383"
     inkscape:cy="17.020071"
     inkscape:window-width="1920"
     inkscape:window-height="1027"
     inkscape:window-x="-8"
     inkscape:window-y="-8"
     inkscape:window-maximized="1"
     inkscape:current-layer="svg6" />
  <path
     d="M7.24083 -0.000732422C7.8162 0.264728 7.98438 0.716009 7.98438 1.33542C7.96667 9.37887 7.97554 17.4312 7.97554 25.4746C7.97554 25.6162 7.97554 25.7578 7.97554 25.9436C8.13487 25.9436 8.27649 25.9436 8.40927 25.9436C16.491 25.9436 24.5728 25.9525 32.6634 25.9348C33.283 25.9348 33.7344 26.094 34 26.678C34 28.8725 34 31.0581 34 33.2526C33.7344 33.8278 33.283 33.9959 32.6634 33.9871C22.2005 33.9782 11.7376 33.9782 1.26582 33.9782C0.354079 33.9782 0.00886051 33.6331 0.00886051 32.7217C0.00886051 22.2626 0.00885187 11.8034 0 1.33542C0 0.716009 0.168198 0.264728 0.74357 -0.000732422C2.90342 -0.000732422 5.07212 -0.000732422 7.24083 -0.000732422ZM2.01823 2.00792C2.01823 12.0158 2.01823 21.9882 2.01823 31.9696C3.34601 31.9696 4.64723 31.9696 5.95731 31.9696C5.95731 31.2882 5.95731 30.6157 5.95731 29.9255C5.64749 29.9255 5.36424 29.9255 5.08098 29.9255C4.4348 29.9167 3.9922 29.5096 3.9922 28.9256C3.9922 28.3504 4.44364 27.9346 5.08982 27.9346C5.38193 27.9346 5.67406 27.9346 5.96617 27.9346C5.96617 27.2532 5.96617 26.6161 5.96617 25.9436C5.6475 25.9436 5.33768 25.9524 5.02786 25.9436C4.43479 25.9348 4.00105 25.51 3.9922 24.9614C3.98335 24.3951 4.43478 23.9615 5.04556 23.9526C5.35538 23.9526 5.65635 23.9526 5.96617 23.9526C5.96617 23.2625 5.96617 22.6253 5.96617 21.9617C5.6475 21.9617 5.34653 21.9617 5.04556 21.9617C4.43478 21.9528 3.99219 21.5281 4.00104 20.953C4.00989 20.3955 4.44365 19.9796 5.03672 19.9707C5.34654 19.9619 5.6475 19.9707 5.96617 19.9707C5.96617 19.2894 5.96617 18.6523 5.96617 17.9798C5.65635 17.9798 5.37308 17.9798 5.08982 17.9798C4.44364 17.9709 4.00104 17.5639 4.00104 16.9799C4.00104 16.4047 4.4525 15.9888 5.09868 15.9888C5.39079 15.9888 5.6829 15.9888 5.97501 15.9888C5.97501 15.3075 5.97501 14.6704 5.97501 13.9979C5.65634 13.9979 5.34654 13.9979 5.03672 13.9979C4.44365 13.989 4.00104 13.5731 4.00104 13.0157C3.99219 12.4494 4.44364 12.0158 5.04556 12.0069C5.35538 12.0069 5.65635 12.0069 5.96617 12.0069C5.96617 11.3256 5.96617 10.6796 5.96617 10.016C5.6475 10.016 5.34653 10.016 5.04556 10.016C4.43478 10.0071 3.9922 9.5824 3.9922 9.00723C4.00105 8.44976 4.43479 8.03387 5.02786 8.02502C5.33768 8.01617 5.63864 8.02502 5.95731 8.02502C5.95731 7.35252 5.95731 6.70656 5.95731 6.03406C5.63864 6.03406 5.34653 6.03406 5.04556 6.03406C4.42593 6.02522 3.98334 5.60933 3.98334 5.04302C3.98334 4.4767 4.42593 4.05197 5.04556 4.05197C5.34653 4.05197 5.65635 4.05197 5.95731 4.05197C5.95731 3.34407 5.95731 2.68927 5.95731 2.00792C4.64723 2.00792 3.34601 2.00792 2.01823 2.00792ZM7.98438 31.9696C16.0042 31.9696 23.9886 31.9696 31.9729 31.9696C31.9729 30.6157 31.9729 29.2884 31.9729 27.9611C31.2913 27.9611 30.6274 27.9611 29.937 27.9611C29.937 28.2885 29.9459 28.5894 29.937 28.8991C29.9282 29.4919 29.5033 29.9255 28.9544 29.9344C28.3879 29.9432 27.963 29.4919 27.9542 28.8814C27.9542 28.5717 27.9542 28.2708 27.9542 27.97C27.2726 27.97 26.6264 27.97 25.9625 27.97C25.9625 28.2708 25.9625 28.5451 25.9625 28.8194C25.9625 29.4831 25.5465 29.9432 24.9534 29.9344C24.378 29.9255 23.9709 29.4831 23.9709 28.8283C23.9709 28.5363 23.9709 28.2443 23.9709 27.9611C23.2804 27.9611 22.6431 27.9611 21.9792 27.9611C21.9792 28.2797 21.9792 28.5717 21.9792 28.8725C21.9703 29.4919 21.5543 29.9344 20.9878 29.9344C20.4213 29.9344 19.9964 29.4919 19.9875 28.8814C19.9875 28.5805 19.9875 28.2708 19.9875 27.9788C19.2971 27.9788 18.6509 27.9788 17.9958 27.9788C17.9958 28.3062 17.9958 28.5982 17.9958 28.8991C17.987 29.4919 17.5709 29.9344 17.0133 29.9432C16.4468 29.9521 16.013 29.5096 16.0042 28.8991C15.9953 28.5894 16.0042 28.2885 16.0042 27.9788C15.3226 27.9788 14.6764 27.9788 14.0125 27.9788C14.0125 28.2885 14.0125 28.5717 14.0125 28.8548C14.0037 29.5008 13.5965 29.9432 13.0122 29.9432C12.428 29.9432 12.0297 29.4919 12.0208 28.846C12.0208 28.554 12.0208 28.262 12.0208 27.97C10.6488 27.97 9.32101 27.97 7.98438 27.97C7.98438 29.2973 7.98438 30.6157 7.98438 31.9696Z"
     fill="white"
     id="path2"
     style="fill:#000000" />
  <path
     d="M31.8402 6.07833C31.6632 6.37034 31.5481 6.6535 31.3534 6.84817C30.5036 7.73304 29.6273 8.59136 28.7598 9.45853C25.0331 13.1838 21.2977 16.918 17.5622 20.6433C17.3586 20.8468 17.1019 21.0238 16.8452 21.1565C15.1102 22.0325 13.3752 22.9085 11.6314 23.758C11.4013 23.873 11.118 23.9438 10.879 23.9173C10.2417 23.8465 9.87875 23.1651 10.1266 22.5634C10.2505 22.2714 10.4098 21.9883 10.5515 21.7051C11.3216 20.1654 12.0829 18.6258 12.8618 17.0861C12.9769 16.8649 13.1274 16.6525 13.3044 16.4755C17.9074 11.8654 22.5104 7.26406 27.1222 2.6539C27.671 2.10528 28.211 2.10528 28.7598 2.6539C29.6361 3.52991 30.5213 4.39709 31.3799 5.29081C31.557 5.50318 31.6632 5.78632 31.8402 6.07833ZM16.6593 18.6612C19.9168 15.4048 23.1831 12.1397 26.4406 8.88337C26.0068 8.44978 25.5465 7.98965 25.1128 7.55607C21.8553 10.8124 18.589 14.0775 15.3315 17.3339C15.7652 17.7674 16.2255 18.2276 16.6593 18.6612ZM27.9011 7.40563C28.3614 6.9455 28.8129 6.49422 29.2378 6.06064C28.804 5.62705 28.3526 5.16692 27.9277 4.74218C27.4851 5.18462 27.0337 5.6359 26.5822 6.07833C27.016 6.51192 27.4674 6.9632 27.9011 7.40563ZM14.942 19.8911C14.6499 19.5991 14.3755 19.3337 14.0922 19.0594C13.8355 19.5726 13.5788 20.0946 13.3221 20.6167C13.3487 20.6344 13.3664 20.6521 13.3929 20.6698C13.8975 20.4132 14.4109 20.1566 14.942 19.8911Z"
     fill="white"
     id="path4"
     style="fill:#000000" />
</svg>
