<svg width="16" height="16" fill="none" xmlns="http://www.w3.org/2000/svg"><path d="M7.2 3.2A1.2 1.2 0 0 1 8.4 2h2.4A1.2 1.2 0 0 1 12 3.2v3.6h1V5c0-.332.268-.6.6-.6.332 0 .6.268.6.6v1.8h.6A1.2 1.2 0 0 1 16 8v5.6a1.2 1.2 0 0 1-1.2 1.2H8.4a1.2 1.2 0 0 1-1.2-1.2V3.2zm1.6.8v.8c0 .22.18.4.4.4h.8c.22 0 .4-.18.4-.4V4c0-.22-.18-.4-.4-.4h-.8c-.22 0-.4.18-.4.4zm.4 2c-.22 0-.4.18-.4.4v.8c0 .22.18.4.4.4h.8c.22 0 .4-.18.4-.4v-.8c0-.22-.18-.4-.4-.4h-.8zm-.4 2.8v.8c0 .22.18.4.4.4h.8c.22 0 .4-.18.4-.4v-.8c0-.22-.18-.4-.4-.4h-.8c-.22 0-.4.18-.4.4zm4.4-.4c-.22 0-.4.18-.4.4v.8c0 .22.18.4.4.4h.8c.22 0 .4-.18.4-.4v-.8c0-.22-.18-.4-.4-.4h-.8zm-.4 2.8v.8c0 .22.18.4.4.4h.8c.22 0 .4-.18.4-.4v-.8c0-.22-.18-.4-.4-.4h-.8c-.22 0-.4.18-.4.4zM5.6 6c0 .15-.025.275-.05.4.5.35.85.95.85 1.6 0 1.125-.9 2-2 2H4v4c0 .45-.375.8-.8.8a.79.79 0 0 1-.8-.8v-4H2c-1.125 0-2-.875-2-2 0-.65.325-1.25.825-1.6C.8 6.275.8 6.15.8 6c0-1.325 1.05-2.4 2.4-2.4A2.4 2.4 0 0 1 5.6 6z" fill="#6E6CFF"/></svg>