<?xml version="1.0" encoding="UTF-8" standalone="no"?>
<svg
   width="39"
   height="40"
   viewBox="0 0 39 40"
   fill="none"
   version="1.1"
   id="svg240"
   sodipodi:docname="Biologie.svg"
   inkscape:version="1.2.2 (732a01da63, 2022-12-09)"
   xmlns:inkscape="http://www.inkscape.org/namespaces/inkscape"
   xmlns:sodipodi="http://sodipodi.sourceforge.net/DTD/sodipodi-0.dtd"
   xmlns="http://www.w3.org/2000/svg"
   xmlns:svg="http://www.w3.org/2000/svg">
  <defs
     id="defs244" />
  <sodipodi:namedview
     id="namedview242"
     pagecolor="#ffffff"
     bordercolor="#000000"
     borderopacity="0.25"
     inkscape:showpageshadow="2"
     inkscape:pageopacity="0.0"
     inkscape:pagecheckerboard="0"
     inkscape:deskcolor="#d1d1d1"
     showgrid="false"
     inkscape:zoom="21.175"
     inkscape:cx="15.655254"
     inkscape:cy="20.023613"
     inkscape:window-width="1920"
     inkscape:window-height="1027"
     inkscape:window-x="-8"
     inkscape:window-y="-8"
     inkscape:window-maximized="1"
     inkscape:current-layer="svg240" />
  <path
     d="M37.7261 0.884959C38.3936 1.1439 38.6526 1.62195 38.6228 2.33902C38.5132 4.83882 37.6165 7.03984 36.0324 8.94207C35.3748 9.73882 34.6177 10.4459 33.9003 11.2028C36.67 13.5533 38.6128 16.4315 38.6128 20.2659C38.6128 24.1002 36.67 26.9785 33.9302 29.3089C34.7771 30.2551 35.6638 31.1415 36.4309 32.1274C37.7261 33.7907 38.4335 35.7128 38.6028 37.8242C38.6526 38.4815 38.1744 39.0791 37.5368 39.1289C36.8892 39.1787 36.3612 38.7006 36.2914 38.0134C36.2615 37.6648 36.1918 37.3262 36.1519 36.9776C36.132 36.7685 36.0324 36.7087 35.8331 36.7087C33.2029 36.7087 30.5827 36.7187 27.9524 36.7087C27.7233 36.7087 27.6436 36.7984 27.6237 37.0075C27.5838 37.3561 27.524 37.6947 27.4842 38.0433C27.4145 38.7106 26.8466 39.1886 26.2089 39.1189C25.5713 39.0492 25.133 38.4516 25.1828 37.7844C25.4418 34.7268 26.8665 32.2669 29.0384 30.1854C29.3273 29.9065 29.6262 29.6476 29.9351 29.3687C27.1156 26.9785 25.1728 24.1002 25.1728 20.2659C25.1728 16.4315 27.1156 13.5533 29.8753 11.2128C29.0882 10.3663 28.2613 9.56951 27.544 8.67317C26.0794 6.84065 25.2724 4.72927 25.1529 2.3689C25.113 1.64187 25.3721 1.1439 26.0495 0.875C26.2289 0.875 26.3982 0.875 26.5776 0.875C27.2451 1.13394 27.5041 1.61199 27.4842 2.32907C27.4742 2.7374 27.5539 3.14573 27.6336 3.54411C27.6536 3.6437 27.813 3.78313 27.9126 3.78313C30.5627 3.79309 33.2029 3.79309 35.8531 3.78313C35.9527 3.78313 36.1121 3.6437 36.132 3.55406C36.2117 3.15569 36.2914 2.74736 36.2815 2.33902C36.2615 1.63191 36.5305 1.1439 37.1881 0.884959C37.3774 0.884959 37.5567 0.884959 37.7261 0.884959ZM31.8579 22.0187C33.1232 22.0187 34.3985 22.0087 35.6638 22.0287C35.9925 22.0386 36.142 21.9589 36.1918 21.6104C36.3313 20.6742 36.3412 19.7579 36.1619 18.8317C36.1221 18.6325 36.0523 18.5628 35.8531 18.5628C33.2129 18.5628 30.5727 18.5628 27.9425 18.5628C27.7432 18.5628 27.6635 18.6226 27.6237 18.8317C27.4444 19.7978 27.4444 20.7539 27.6237 21.7199C27.6735 21.9789 27.7731 22.0386 28.0122 22.0386C29.2975 22.0187 30.5827 22.0187 31.8579 22.0187ZM35.1955 16.2323C34.3387 14.7384 33.2129 13.5831 31.9077 12.5972C30.5628 13.5333 28.889 15.4157 28.6698 16.2323C30.8318 16.2323 32.9738 16.2323 35.1955 16.2323ZM28.6598 6.12358C28.6797 6.19329 28.6797 6.23313 28.6997 6.26301C29.4867 7.5876 30.5329 8.67317 31.7483 9.59939C31.828 9.65915 32.0572 9.61931 32.1468 9.53963C32.8243 8.90224 33.5217 8.2748 34.1494 7.59756C34.5479 7.16931 34.8468 6.65142 35.2254 6.12358C32.9738 6.12358 30.8317 6.12358 28.6598 6.12358ZM28.6 34.3783C30.8517 34.3783 32.9638 34.3783 35.1158 34.3783C35.0859 34.2986 35.0759 34.2587 35.056 34.2189C34.2789 32.9242 33.2428 31.8486 32.0472 30.9323C31.9775 30.8726 31.7583 30.9124 31.6786 30.9821C30.9912 31.6295 30.2838 32.2569 29.6461 32.9441C29.2676 33.3624 28.9786 33.8604 28.6 34.3783ZM35.1656 24.3591C32.9638 24.3591 30.8218 24.3591 28.6299 24.3591C29.4867 25.8132 30.5926 26.9585 31.9077 27.9445C33.2129 26.9486 34.3287 25.8132 35.1656 24.3591Z"
     fill="white"
     id="path234"
     style="fill:#000000" />
  <path
     d="M13.2172 0.884949C13.9943 1.03434 14.8013 1.10405 15.5485 1.34308C20.2411 2.83698 23.1503 5.98414 24.0469 10.8443C24.6746 14.2305 23.8277 17.3278 21.7654 20.0965C21.6658 20.226 21.616 20.465 21.6558 20.6244C21.8949 21.6203 22.1739 22.6162 22.4429 23.6122C22.7219 24.6579 21.9746 25.3949 20.9285 25.116C19.5736 24.7575 18.2186 24.389 16.8637 24.0404C16.6943 24.0006 16.495 24.0006 16.3256 24.0604C10.328 26.1319 3.92179 23.3632 1.36132 17.5768C0.853211 16.4315 0.544355 15.2364 0.434763 13.9915C0.4248 13.9118 0.394926 13.8221 0.375 13.7425C0.375 13.115 0.375 12.4976 0.375 11.8701C0.444741 11.4419 0.504513 11.0136 0.59418 10.5953C1.6104 5.97418 4.37012 2.89674 8.85344 1.42275C9.68037 1.15385 10.5671 1.06422 11.4339 0.894908C12.0217 0.884949 12.6194 0.884949 13.2172 0.884949ZM19.713 22.3971C19.5237 21.69 19.3643 21.0327 19.1751 20.3754C19.0555 19.9471 19.1551 19.5886 19.4241 19.2699C19.5238 19.1504 19.6234 19.0408 19.713 18.9313C21.6359 16.5311 22.3333 13.8022 21.6757 10.8144C20.5599 5.68536 15.8175 2.52824 10.6468 3.35487C5.3963 4.19145 1.76979 9.45995 2.84579 14.6786C4.07123 20.6144 10.2084 23.9508 15.8474 21.7498C16.2459 21.5904 16.6245 21.5606 17.043 21.6801C17.9197 21.9191 18.7964 22.1482 19.713 22.3971Z"
     fill="white"
     id="path236"
     style="fill:#000000" />
  <path
     d="M13.4563 8.54372C13.785 8.68315 14.1138 8.81262 14.4824 8.96202C14.8013 8.63336 15.1301 8.28478 15.4688 7.95612C15.9968 7.43823 16.6843 7.40836 17.1625 7.87645C17.6407 8.34454 17.6108 9.07157 17.0828 9.60937C16.8138 9.88823 16.5248 10.1472 16.2758 10.436C16.206 10.5157 16.216 10.685 16.216 10.8045C16.216 10.8643 16.2758 10.914 16.2857 10.9738C16.3854 11.6809 16.8536 11.7706 17.4614 11.7108C17.8599 11.671 18.2584 11.6909 18.6569 11.7108C19.2447 11.7307 19.6931 12.159 19.7429 12.7366C19.7927 13.3143 19.444 13.872 18.8761 13.9516C18.2484 14.0313 17.6108 14.0214 16.9732 14.0114C16.6544 14.0014 16.5448 14.111 16.3754 14.3899C16.0666 14.9277 16.226 15.2563 16.6544 15.5949C16.8536 15.7443 17.013 15.9336 17.1824 16.1228C17.6108 16.6008 17.6008 17.308 17.1724 17.7462C16.7241 18.1943 16.0068 18.1943 15.5286 17.7262C15.1699 17.3777 14.8312 17.0191 14.4924 16.6606C14.1636 16.7901 13.8747 16.8897 13.6057 17.0291C13.516 17.0689 13.4463 17.2283 13.4363 17.3378C13.4164 17.9254 13.4463 18.513 13.4264 19.0907C13.4065 19.7181 12.988 20.1762 12.4201 20.246C11.8522 20.3157 11.3441 20.0069 11.1748 19.4592C11.1349 19.3197 11.1249 19.1703 11.1249 19.021C11.115 18.4732 11.115 17.9254 11.1249 17.3777C11.1349 17.1486 11.0851 16.9992 10.836 16.9494C10.7862 16.9395 10.7364 16.9295 10.6965 16.8996C10.2283 16.5411 9.87958 16.7104 9.56077 17.1287C9.40136 17.3378 9.2021 17.5071 9.01281 17.6864C8.54455 18.1246 7.83718 18.1246 7.38884 17.6964C6.94051 17.2582 6.91062 16.561 7.35895 16.083C7.71762 15.7045 8.11614 15.3659 8.46485 15.0273C8.33533 14.6986 8.25561 14.4397 8.12609 14.2006C8.07628 14.111 7.92685 14.0313 7.81726 14.0214C7.22944 14.0014 6.64162 14.0313 6.06377 14.0114C5.09737 13.9815 4.53945 13.0354 5.02763 12.2486C5.25678 11.8801 5.59552 11.7008 6.02393 11.7008C6.68148 11.7008 7.33903 11.7008 8.01651 11.7008C8.156 11.3821 8.29547 11.0834 8.40506 10.7746C8.43495 10.7049 8.37517 10.5655 8.30543 10.4958C8.0165 10.187 7.70765 9.89819 7.40877 9.58945C6.93054 9.09149 6.92059 8.41425 7.36892 7.94616C7.82722 7.46811 8.53458 7.45815 9.03273 7.94616C9.38143 8.28478 9.71022 8.64332 10.039 8.98193C10.3777 8.8425 10.6866 8.74291 10.9655 8.59352C11.0452 8.55368 11.115 8.40429 11.115 8.3047C11.1249 7.73702 11.115 7.15937 11.1249 6.59169C11.1349 5.84474 11.5932 5.34677 12.2707 5.34677C12.9382 5.34677 13.4264 5.8547 13.4363 6.58173C13.4463 7.21913 13.4463 7.84657 13.4563 8.48397C13.4363 8.51384 13.4463 8.5238 13.4563 8.54372ZM10.2183 12.7864C10.2083 13.9616 11.1449 14.9177 12.3006 14.9077C13.4363 14.8978 14.3928 13.9417 14.3828 12.8163C14.3729 11.6809 13.4563 10.7547 12.3205 10.7447C11.1548 10.7248 10.2283 11.6311 10.2183 12.7864Z"
     fill="white"
     id="path238"
     style="fill:#000000" />
</svg>
