<svg width="16" height="16" fill="none" xmlns="http://www.w3.org/2000/svg"><g clip-path="url(#a)"><path d="M5 10h.375v.5a.5.5 0 0 0 .5.5h1.25a.5.5 0 0 0 .5-.5V10H8a1 1 0 0 0 1-1V2a1 1 0 0 0-1-1V.5a.5.5 0 0 0-.5-.5h-2a.5.5 0 0 0-.5.5V1a1 1 0 0 0-1 1v7a1 1 0 0 0 1 1zm9.5 4h-.04A5.97 5.97 0 0 0 16 10c0-3.309-2.691-6-6-6v2c2.206 0 4 1.794 4 4s-1.794 4-4 4H1.5A1.5 1.5 0 0 0 0 15.5a.5.5 0 0 0 .5.5h15a.5.5 0 0 0 .5-.5 1.5 1.5 0 0 0-1.5-1.5zM3.25 13h6.5a.25.25 0 0 0 .25-.25v-.5a.25.25 0 0 0-.25-.25h-6.5a.25.25 0 0 0-.25.25v.5c0 .138.112.25.25.25z" fill="#6E6CFF"/></g><defs><clipPath id="a"><path fill="#fff" d="M0 0h16v16H0z"/></clipPath></defs></svg>