<svg width="40" height="34" viewBox="0 0 40 34" fill="none" xmlns="http://www.w3.org/2000/svg">
<path d="M39.125 8.92391C39.125 11.0443 39.125 13.1547 39.125 15.275C38.9258 16.2605 38.5275 17.1565 37.8603 17.9329C37.7308 18.0823 37.6412 18.3212 37.6412 18.5203C37.6313 22.4225 37.6313 26.3347 37.6313 30.237C37.6313 32.437 36.2172 33.8505 34.0164 33.8505C24.6655 33.8505 15.3247 33.8505 5.97381 33.8505C3.79294 33.8505 2.37886 32.427 2.37886 30.2569C2.37886 26.3347 2.37887 22.4225 2.36891 18.5004C2.36891 18.3112 2.28924 18.0922 2.15978 17.9429C1.31332 16.9574 0.865204 15.8424 0.875162 14.5384C0.895079 12.9058 0.875162 11.2832 0.875162 9.65061C0.875162 7.49044 2.28924 6.08682 4.45019 6.07687C6.23273 6.07687 8.00531 6.07687 9.78784 6.07687C9.9173 6.07687 10.0468 6.07687 10.2061 6.07687C10.2061 5.25062 10.1961 4.4841 10.2061 3.71759C10.226 1.71669 11.7098 0.153803 13.7015 0.143848C17.8939 0.113984 22.0863 0.123939 26.2788 0.143848C28.0414 0.153803 29.4455 1.38819 29.7044 3.13027C29.804 3.8271 29.7542 4.54383 29.7642 5.25062C29.7742 5.5194 29.7642 5.78818 29.7642 6.07687C29.9733 6.07687 30.1127 6.07687 30.2621 6.07687C32.1044 6.07687 33.9467 6.06691 35.789 6.08682C37.3723 6.10673 38.647 7.15197 39.0155 8.69495C39.0653 8.76463 39.0951 8.84428 39.125 8.92391ZM23.8888 20.2723C23.9485 20.2922 23.9685 20.3022 23.9983 20.3022C26.7667 20.0832 29.5053 19.675 32.1442 18.7691C33.4388 18.3212 34.6936 17.7737 35.7392 16.8578C36.496 16.1909 36.9143 15.3945 36.8943 14.3492C36.8545 12.7664 36.8844 11.1936 36.8844 9.61079C36.8844 8.75469 36.4562 8.31668 35.6097 8.31668C25.2033 8.31668 14.7969 8.31668 4.4004 8.31668C3.5639 8.31668 3.13569 8.75468 3.12574 9.58092C3.12574 11.1836 3.15561 12.7863 3.11578 14.399C3.09586 15.3746 3.47428 16.1311 4.1614 16.7682C4.85848 17.4153 5.6651 17.8633 6.52152 18.2415C8.44347 19.0877 10.475 19.5755 12.5463 19.894C13.7214 20.0732 14.9064 20.1927 16.1213 20.3519C16.1213 19.9737 16.1213 19.6651 16.1213 19.3565C16.1313 18.6497 16.5794 18.1818 17.2864 18.1719C19.0989 18.1619 20.9212 18.1619 22.7336 18.1719C23.4208 18.1719 23.8689 18.6397 23.8888 19.3266C23.8988 19.6452 23.8888 19.9637 23.8888 20.2723ZM4.61948 19.9139C4.61948 19.9737 4.61948 20.0931 4.61948 20.2026C4.61948 23.5574 4.61948 26.9221 4.61948 30.2768C4.61948 31.1727 5.04769 31.6107 5.94393 31.6107C15.3147 31.6107 24.6855 31.6107 34.0562 31.6107C34.9525 31.6107 35.3906 31.1827 35.3906 30.2867C35.3906 26.932 35.3906 23.5673 35.3906 20.2126C35.3906 20.0931 35.3906 19.9836 35.3906 19.8442C35.301 19.8741 35.2711 19.8841 35.2413 19.894C33.4587 20.8098 31.5667 21.4171 29.6049 21.7655C27.8622 22.0841 26.0896 22.2732 24.327 22.532C24.1079 22.5619 23.849 22.4823 23.7394 22.8406C23.2614 24.4334 22.166 25.3293 20.5229 25.5383C18.6209 25.7773 16.8981 24.7917 16.3504 23.0795C16.201 22.6316 15.9819 22.542 15.5736 22.5022C13.1936 22.3031 10.8235 22.0144 8.52314 21.3076C7.20864 20.9094 5.93398 20.3918 4.61948 19.9139ZM12.4666 6.047C17.5155 6.047 22.5245 6.047 27.5535 6.047C27.5535 5.31035 27.5535 4.60356 27.5535 3.89678C27.5535 2.86149 27.0655 2.3737 26.0199 2.3737C23.0324 2.3737 20.0449 2.3737 17.0574 2.3737C15.9719 2.3737 14.8964 2.36375 13.811 2.3737C13.0741 2.38366 12.4965 2.87144 12.4766 3.55832C12.4467 4.3746 12.4666 5.20085 12.4666 6.047ZM18.3619 20.4117C18.3619 20.9094 18.352 21.3872 18.3619 21.8551C18.3719 22.6216 18.8997 23.199 19.6466 23.3085C20.5727 23.4479 21.3793 23.0795 21.5386 22.323C21.6781 21.7058 21.6283 21.0587 21.6681 20.4117C20.5328 20.4117 19.4773 20.4117 18.3619 20.4117Z" fill="white"/>
</svg>
