<?xml version="1.0" encoding="UTF-8" standalone="no"?>
<svg
   width="40"
   height="40"
   viewBox="0 0 40 40"
   fill="none"
   version="1.1"
   id="svg377"
   sodipodi:docname="BWL.svg"
   inkscape:version="1.2.2 (732a01da63, 2022-12-09)"
   xmlns:inkscape="http://www.inkscape.org/namespaces/inkscape"
   xmlns:sodipodi="http://sodipodi.sourceforge.net/DTD/sodipodi-0.dtd"
   xmlns="http://www.w3.org/2000/svg"
   xmlns:svg="http://www.w3.org/2000/svg">
  <defs
     id="defs381" />
  <sodipodi:namedview
     id="namedview379"
     pagecolor="#ffffff"
     bordercolor="#000000"
     borderopacity="0.25"
     inkscape:showpageshadow="2"
     inkscape:pageopacity="0.0"
     inkscape:pagecheckerboard="0"
     inkscape:deskcolor="#d1d1d1"
     showgrid="false"
     inkscape:zoom="12.455883"
     inkscape:cx="2.7697756"
     inkscape:cy="20.231405"
     inkscape:window-width="1920"
     inkscape:window-height="1027"
     inkscape:window-x="-8"
     inkscape:window-y="-8"
     inkscape:window-maximized="1"
     inkscape:current-layer="svg377" />
  <path
     d="m 39.999995,11.567226 c 0,2.217402 0,4.424356 0,6.641663 -0.208314,1.030588 -0.624837,1.967582 -1.322563,2.779503 -0.135424,0.156236 -0.229124,0.406066 -0.229124,0.614275 -0.01035,4.080732 -0.01035,8.171921 -0.01035,12.252758 0,2.300653 -1.478797,3.778823 -3.780287,3.778823 -9.778719,0 -19.546876,0 -29.3255841,0 -2.2806483,0 -3.7594247,-1.488627 -3.7594247,-3.758013 0,-4.101647 1.04e-5,-8.192836 -0.010405,-12.294379 0,-0.197856 -0.083315,-0.426875 -0.218698,-0.583006 -0.88518693,-1.030588 -1.35380499,-2.196601 -1.34339140261,-3.560262 0.0208282026,-1.707294 0,-3.40413 0,-5.111414 0,-2.259001 1.47877440261,-3.7268391 3.73859140261,-3.7372443 1.8640941,0 3.7177725,0 5.5818559,0 0.135383,0 0.270808,0 0.437396,0 0,-0.8640523 -0.01046,-1.6656418 0,-2.4672209 0.02081,-2.0924444 1.5724969,-3.726836 3.6553199,-3.7372465 4.384209,-0.03123 8.768418,-0.02082 13.152732,0 1.843242,0.01041 3.311582,1.3012727 3.582327,3.1230557 0.104157,0.7287111 0.05208,1.4782326 0.06254,2.2173594 0.01046,0.2810771 0,0.5621543 0,0.8640523 0.218666,0 0.364444,0 0.52068,0 1.926588,0 3.853176,-0.010416 5.779764,0.010405 1.655739,0.020821 2.988758,1.1138824 3.374118,2.7274563 0.05208,0.07287 0.08324,0.156162 0.11451,0.239435 z M 24.066714,23.434824 c 0.06243,0.02081 0.08335,0.03127 0.11451,0.03127 2.895058,-0.22902 5.758954,-0.655896 8.518588,-1.603242 1.35383,-0.468392 2.666039,-1.040941 3.759477,-1.998745 0.791425,-0.697412 1.228862,-1.530249 1.207947,-2.623373 -0.04162,-1.655215 -0.01035,-3.299974 -0.01035,-4.9552 0,-0.895268 -0.44779,-1.353317 -1.333019,-1.353317 -10.88251,0 -21.765019,0 -32.6371761,0 -0.8747712,0 -1.3225725,0.458039 -1.3329778,1.322081 0,1.676005 0.031237,3.352031 -0.010416,5.038515 -0.020831,1.020235 0.374902,1.811346 1.0934589,2.477594 0.7289725,0.676706 1.5724967,1.145203 2.4680993,1.540706 2.0098823,0.884915 4.1343587,1.395033 6.3004237,1.728105 1.228863,0.187399 2.468078,0.312366 3.738562,0.478849 0,-0.395503 0,-0.718222 0,-1.040941 0.01046,-0.739137 0.479059,-1.228444 1.218405,-1.238797 1.895425,-0.01046 3.801098,-0.01046 5.696418,0 0.718641,0 1.187242,0.489203 1.208053,1.207529 0.01046,0.333177 0,0.666249 0,0.988968 z M 3.9157912,23.060026 c 0,0.06254 0,0.187399 0,0.301909 0,3.508287 0,7.026928 0,10.535111 0,0.936889 0.4478013,1.394928 1.3850457,1.394928 9.7994981,0 19.5990271,0 29.3984521,0 0.937307,0 1.395451,-0.447582 1.395451,-1.384575 0,-3.508183 0,-7.026824 0,-10.535007 0,-0.124967 0,-0.239477 0,-0.385255 -0.0937,0.03127 -0.124968,0.04173 -0.156131,0.05208 -1.864157,0.957699 -3.842719,1.592784 -5.894274,1.957124 -1.822432,0.333176 -3.676131,0.530928 -5.519373,0.801569 -0.229124,0.03127 -0.499869,-0.05197 -0.614484,0.322719 -0.499869,1.665673 -1.645385,2.602562 -3.36366,2.821124 -1.989019,0.249934 -3.79064,-0.780758 -4.363398,-2.571294 C 16.027184,25.902066 15.79806,25.808367 15.37108,25.766746 12.882191,25.558536 10.403655,25.256628 7.9980499,24.51749 6.6234094,24.101072 5.2904317,23.559791 3.9157912,23.060026 Z M 12.12193,8.5586931 c 5.279895,0 10.518065,0 15.77715,0 0,-0.7703529 0,-1.5094797 0,-2.248596 0,-1.0826562 -0.510327,-1.5927634 -1.603765,-1.5927634 -3.124183,0 -6.248366,0 -9.372549,0 -1.135163,0 -2.259869,-0.010405 -3.394928,0 -0.770614,0.010416 -1.374641,0.5205124 -1.395451,1.2388183 -0.03127,0.8536261 -0.01046,1.7176784 -0.01046,2.6025411 z m 6.165019,15.0219079 c 0,0.520471 -0.01035,1.020131 0,1.509438 0.01046,0.801569 0.562405,1.405386 1.343477,1.519896 0.968471,0.145778 1.811974,-0.239477 1.978562,-1.030588 0.145883,-0.645438 0.0938,-1.322144 0.135425,-1.998746 -1.187242,0 -2.291033,0 -3.457464,0 z"
     fill="white"
     id="path375"
     style="fill:#000000;stroke-width:1.04575" />
</svg>
