<?xml version="1.0" encoding="UTF-8" standalone="no"?>
<svg
   width="40"
   height="40"
   viewBox="0 0 40 40"
   fill="none"
   version="1.1"
   id="svg243"
   sodipodi:docname="Chemie.svg"
   inkscape:version="1.2.2 (732a01da63, 2022-12-09)"
   xmlns:inkscape="http://www.inkscape.org/namespaces/inkscape"
   xmlns:sodipodi="http://sodipodi.sourceforge.net/DTD/sodipodi-0.dtd"
   xmlns="http://www.w3.org/2000/svg"
   xmlns:svg="http://www.w3.org/2000/svg">
  <defs
     id="defs247" />
  <sodipodi:namedview
     id="namedview245"
     pagecolor="#ffffff"
     bordercolor="#000000"
     borderopacity="0.25"
     inkscape:showpageshadow="2"
     inkscape:pageopacity="0.0"
     inkscape:pagecheckerboard="0"
     inkscape:deskcolor="#d1d1d1"
     showgrid="false"
     inkscape:zoom="7.3038957"
     inkscape:cx="42.51156"
     inkscape:cy="16.018849"
     inkscape:window-width="1920"
     inkscape:window-height="1027"
     inkscape:window-x="-8"
     inkscape:window-y="-8"
     inkscape:window-maximized="1"
     inkscape:current-layer="svg243" />
  <path
     d="m 27.897398,0.043545 c 0.0728,0.041589 0.1456,0.093575 0.2184,0.135164 0.4784,0.270331 0.7281,0.779801 0.6033,1.278871 -0.1248,0.53027 -0.5617,0.90458 -1.113,0.92537 -0.468,0.0104 -0.9257,0 -1.4353,0 0,0.17676 0,0.31193 0,0.45749 0,3.43113 0,6.86231 0.0104,10.29341 0,0.2391 0.0624,0.4887 0.1664,0.6966 3.4636,6.9766 6.9271,13.9429 10.4219,20.9091 1.0609,2.1211 -0.0104,4.3877 -1.9138,5.0219 -0.3744,0.1248 -0.7905,0.1976 -1.1857,0.1976 -9.1114,0.0104 -18.2228,0.0104 -27.3445298,0 -2.68349,0 -4.316459,-2.7241 -3.10993,-5.1571 3.05793,-6.1448 6.12625,-12.2897 9.1841598,-18.4345 0.3017,-0.6031 0.5721,-1.2269 0.9049,-1.8092 0.4161,-0.707 0.5513,-1.4348 0.5409,-2.2562 -0.0312,-3.1608 -0.0104,-6.31121 -0.0104,-9.47201 0,-0.13517 0,-0.28073 0,-0.45748 -0.4369,0 -0.8425,0 -1.2378,0 -0.70723,0 -1.16489,-0.33272 -1.3105,-0.92537 -0.13522,-0.55106 0.14561,-1.02934 0.7801,-1.351658 0.0208,-0.010398 0.0312,-0.041587 0.0416,-0.062382 5.2838,0.010397 10.5363,0.010395 15.7889,0.010395 z m -7.8737,37.586505 c 4.4933,0 8.997,0 13.4903,0 1.1233,0 1.6642,-0.8422 1.1649,-1.8403 -1.8618,-3.7431 -3.734,-7.4758 -5.5854,-11.2188 -0.1144,-0.2288 -0.2392,-0.2807 -0.4784,-0.2807 -1.6018,0.0104 -3.1932,0.0104 -4.795,0 -0.2496,0 -0.3536,0.0831 -0.4576,0.3015 -0.6657,1.414 -1.789,2.1938 -3.3492,2.1834 -1.5601,0 -2.6835,-0.7798 -3.3491,-2.1938 -0.104,-0.2288 -0.2185,-0.2911 -0.4577,-0.2911 -1.6017,0.0104 -3.1931,0.0104 -4.79489,0 -0.23922,0 -0.36404,0.0727 -0.46805,0.2911 -1.8513898,3.743 -3.7235998,7.4861 -5.5853898,11.2188 -0.07281,0.1351 -0.13522,0.2807 -0.16642,0.4366 -0.14561,0.7798 0.40564,1.3933 1.25853,1.3933 4.5244898,0 9.0489198,0 13.5734198,0 z m -3.8276,-35.2367 c 0,0.19755 0,0.35351 0,0.50947 0,3.52471 0.0104,7.03903 -0.0104,10.56373 0,0.3639 -0.0936,0.7486 -0.2496,1.0813 -1.1441,2.3394 -2.3195,4.6684 -3.4844,7.0079 -0.0624,0.1143 -0.104,0.2391 -0.1768,0.395 1.3834,0 2.7147,0.0104 4.0356,-0.0103 0.1144,0 0.2705,-0.1248 0.3225,-0.2392 0.676,-1.4244 1.789,-2.225 3.3699,-2.2354 1.5914,-0.0104 2.7355,0.7902 3.3908,2.2458 0.0936,0.2184 0.2184,0.2391 0.416,0.2391 1.217,-0.0104 2.4443,0 3.6612,0 0.0832,0 0.1664,-0.0103 0.2913,-0.0207 -0.0832,-0.1872 -0.1457,-0.3224 -0.2185,-0.4575 -1.1441,-2.2978 -2.2986,-4.5957 -3.4323,-6.9039 -0.1664,-0.3431 -0.2601,-0.7694 -0.2705,-1.1541 -0.0208,-3.5247 -0.0104,-7.03901 -0.0104,-10.56372 0,-0.15596 0,-0.30152 0,-0.46788 -2.5586,0.0104 -5.0757,0.0104 -7.6344,0.0104 z m 5.1486,20.7531 c 0.0104,-0.7174 -0.5617,-1.3308 -1.2794,-1.3516 -0.7384,-0.0208 -1.3521,0.5614 -1.3729,1.2997 -0.0104,0.7382 0.5825,1.3516 1.3209,1.3516 0.7177,0.0104 1.321,-0.5718 1.3314,-1.2997 z"
     fill="white"
     id="path233"
     style="fill:#000000" />
  <path
     d="m 15.010298,34.89555 c -2.0178,0 -3.66115,-1.6636 -3.65075,-3.6807 0.0104,-2.0171 1.67455,-3.6599 3.69235,-3.6391 2.0075,0.0104 3.6404,1.6636 3.63,3.6599 0.0104,2.0171 -1.6434,3.6703 -3.6716,3.6599 z m 1.3418,-3.6599 c 0,-0.7174 -0.5825,-1.3101 -1.3106,-1.3205 -0.7384,-0.0104 -1.3417,0.5927 -1.3417,1.3205 0,0.7174 0.5929,1.31 1.3105,1.3204 0.7281,0.0104 1.3418,-0.5822 1.3418,-1.3204 z"
     fill="white"
     id="path235"
     style="fill:#000000" />
  <path
     d="m 23.757798,29.90485 c -0.6344,0 -1.1649,-0.5303 -1.1649,-1.1645 0,-0.6343 0.5305,-1.1645 1.1649,-1.1645 0.6449,0 1.1649,0.5302 1.1649,1.1645 0,0.6446 -0.52,1.1645 -1.1649,1.1645 z"
     fill="white"
     id="path237"
     style="fill:#000000" />
  <path
     d="m 27.502298,32.40015 c -0.6344,0 -1.1545,-0.5303 -1.1649,-1.1645 0,-0.6446 0.5409,-1.1853 1.1961,-1.1749 0.6345,0.0104 1.1546,0.5406 1.1442,1.1853 -0.0104,0.6446 -0.5409,1.1541 -1.1754,1.1541 z"
     fill="white"
     id="path239"
     style="fill:#000000" />
  <path
     d="m 22.519798,32.56655 c 0.6449,0 1.165,0.5406 1.1546,1.1748 -0.0104,0.6447 -0.5409,1.1646 -1.1754,1.1646 -0.6344,0 -1.1649,-0.5407 -1.1545,-1.1749 0.0104,-0.6447 0.5409,-1.1749 1.1753,-1.1645 z"
     fill="white"
     id="path241"
     style="fill:#000000" />
</svg>
