<svg width="36" height="41" viewBox="0 0 36 41" fill="none" xmlns="http://www.w3.org/2000/svg">
<path d="M25.8974 0.760395C25.9702 0.801984 26.043 0.85397 26.1158 0.895559C26.5942 1.16589 26.8439 1.67536 26.7191 2.17443C26.5943 2.7047 26.1574 3.07901 25.6061 3.0998C25.1381 3.1102 24.6804 3.0998 24.1708 3.0998C24.1708 3.27656 24.1708 3.41173 24.1708 3.55729C24.1708 6.98842 24.1708 10.4196 24.1812 13.8507C24.1812 14.0898 24.2436 14.3394 24.3476 14.5473C27.8112 21.5239 31.2747 28.4902 34.7695 35.4564C35.8304 37.5775 34.7591 39.8441 32.8557 40.4783C32.4813 40.6031 32.0652 40.6759 31.67 40.6759C22.5586 40.6863 13.4472 40.6863 4.32547 40.6759C1.64198 40.6759 0.00901103 37.9518 1.21554 35.5188C4.27347 29.374 7.34179 23.2291 10.3997 17.0843C10.7014 16.4812 10.9718 15.8574 11.3046 15.2751C11.7207 14.5681 11.8559 13.8403 11.8455 13.0189C11.8143 9.8581 11.8351 6.70769 11.8351 3.54689C11.8351 3.41172 11.8351 3.26616 11.8351 3.08941C11.3982 3.08941 10.9926 3.08941 10.5973 3.08941C9.89007 3.08941 9.43241 2.75669 9.2868 2.16404C9.15158 1.61298 9.43241 1.1347 10.0669 0.812382C10.0877 0.801984 10.0981 0.770795 10.1085 0.75C15.3923 0.760397 20.6448 0.760395 25.8974 0.760395ZM18.0237 38.3469C22.517 38.3469 27.0207 38.3469 31.514 38.3469C32.6373 38.3469 33.1782 37.5047 32.6789 36.5066C30.8171 32.7635 28.9449 29.0308 27.0935 25.2878C26.9791 25.059 26.8543 25.0071 26.6151 25.0071C25.0133 25.0175 23.4219 25.0175 21.8201 25.0071C21.5705 25.0071 21.4665 25.0902 21.3625 25.3086C20.6968 26.7226 19.5735 27.5024 18.0133 27.492C16.4532 27.492 15.3298 26.7122 14.6642 25.2982C14.5602 25.0694 14.4457 25.0071 14.2065 25.0071C12.6048 25.0175 11.0134 25.0175 9.41161 25.0071C9.17239 25.0071 9.04757 25.0798 8.94356 25.2982C7.09217 29.0412 5.21996 32.7843 3.35817 36.517C3.28536 36.6521 3.22295 36.7977 3.19175 36.9536C3.04614 37.7334 3.59739 38.3469 4.45028 38.3469C8.97477 38.3469 13.4992 38.3469 18.0237 38.3469ZM14.1961 3.1102C14.1961 3.30775 14.1961 3.46371 14.1961 3.61967C14.1961 7.14438 14.2065 10.6587 14.1857 14.1834C14.1857 14.5473 14.0921 14.932 13.9361 15.2647C12.792 17.6041 11.6166 19.9331 10.4517 22.2726C10.3893 22.3869 10.3477 22.5117 10.2749 22.6676C11.6583 22.6676 12.9896 22.678 14.3105 22.6573C14.4249 22.6573 14.581 22.5325 14.633 22.4181C15.309 20.9937 16.422 20.1931 18.0029 20.1827C19.5943 20.1723 20.7384 20.9729 21.3937 22.4285C21.4873 22.6469 21.6121 22.6676 21.8097 22.6676C23.0267 22.6572 24.254 22.6676 25.4709 22.6676C25.5541 22.6676 25.6373 22.6573 25.7622 22.6469C25.679 22.4597 25.6165 22.3245 25.5437 22.1894C24.3996 19.8916 23.2451 17.5937 22.1114 15.2855C21.945 14.9424 21.8513 14.5161 21.8409 14.1314C21.8201 10.6067 21.8305 7.09239 21.8305 3.56768C21.8305 3.41172 21.8305 3.26616 21.8305 3.0998C19.2719 3.1102 16.7548 3.1102 14.1961 3.1102ZM19.3447 23.8633C19.3551 23.1459 18.783 22.5325 18.0653 22.5117C17.3269 22.4909 16.7132 23.0731 16.6924 23.8114C16.682 24.5496 17.2749 25.163 18.0133 25.163C18.731 25.1734 19.3343 24.5912 19.3447 23.8633Z" fill="white"/>
<path d="M13.0103 35.6124C10.9925 35.6124 9.34915 33.9488 9.35955 31.9317C9.36995 29.9146 11.0341 28.2718 13.0519 28.2926C15.0594 28.303 16.6923 29.9562 16.6819 31.9525C16.6923 33.9696 15.0385 35.6228 13.0103 35.6124ZM14.3521 31.9525C14.3521 31.2351 13.7696 30.6424 13.0415 30.632C12.3031 30.6216 11.6998 31.2247 11.6998 31.9525C11.6998 32.6699 12.2927 33.2625 13.0103 33.2729C13.7384 33.2833 14.3521 32.6907 14.3521 31.9525Z" fill="white"/>
<path d="M21.7578 30.6217C21.1234 30.6217 20.5929 30.0914 20.5929 29.4572C20.5929 28.8229 21.1234 28.2927 21.7578 28.2927C22.4027 28.2927 22.9227 28.8229 22.9227 29.4572C22.9227 30.1018 22.4027 30.6217 21.7578 30.6217Z" fill="white"/>
<path d="M25.5023 33.117C24.8679 33.117 24.3478 32.5867 24.3374 31.9525C24.3374 31.3079 24.8783 30.7672 25.5335 30.7776C26.168 30.788 26.6881 31.3182 26.6777 31.9629C26.6673 32.6075 26.1368 33.117 25.5023 33.117Z" fill="white"/>
<path d="M20.5198 33.2834C21.1647 33.2834 21.6848 33.824 21.6744 34.4582C21.664 35.1029 21.1335 35.6228 20.499 35.6228C19.8646 35.6228 19.3341 35.0821 19.3445 34.4479C19.3549 33.8032 19.8854 33.273 20.5198 33.2834Z" fill="white"/>
</svg>
