<svg width="16" height="16" viewBox="0 0 16 16" fill="none" xmlns="http://www.w3.org/2000/svg">
<path d="M14.662 12.6094L10.9995 6.71875V2H11.2495C11.6651 2 11.9995 1.66562 11.9995 1.25V0.75C11.9995 0.334375 11.6651 0 11.2495 0H4.74952C4.3339 0 3.99952 0.334375 3.99952 0.75V1.25C3.99952 1.66562 4.3339 2 4.74952 2H4.99952V6.71875L1.33702 12.6094C0.421399 14.0813 1.47765 16 3.21515 16H12.7839C14.5245 16 15.5776 14.0781 14.662 12.6094ZM5.3089 10L6.81515 7.575C6.93077 7.4125 6.9964 7.2125 6.9964 7V2H8.9964V7C8.9964 7.21562 9.06515 7.4125 9.17765 7.575L10.6839 10H5.3089Z" fill="#6E6CFF"/>
</svg>
