<?xml version="1.0" encoding="UTF-8" standalone="no"?>
<svg
   width="40"
   height="40"
   viewBox="0 0 40 40"
   fill="none"
   version="1.1"
   id="svg432"
   sodipodi:docname="Elektrotechnik.svg"
   inkscape:version="1.2.2 (732a01da63, 2022-12-09)"
   xmlns:inkscape="http://www.inkscape.org/namespaces/inkscape"
   xmlns:sodipodi="http://sodipodi.sourceforge.net/DTD/sodipodi-0.dtd"
   xmlns="http://www.w3.org/2000/svg"
   xmlns:svg="http://www.w3.org/2000/svg">
  <defs
     id="defs436" />
  <sodipodi:namedview
     id="namedview434"
     pagecolor="#ffffff"
     bordercolor="#000000"
     borderopacity="0.25"
     inkscape:showpageshadow="2"
     inkscape:pageopacity="0.0"
     inkscape:pagecheckerboard="0"
     inkscape:deskcolor="#d1d1d1"
     showgrid="false"
     inkscape:zoom="9.0106383"
     inkscape:cx="20.586777"
     inkscape:cy="19.865407"
     inkscape:window-width="1920"
     inkscape:window-height="1027"
     inkscape:window-x="-8"
     inkscape:window-y="-8"
     inkscape:window-maximized="1"
     inkscape:current-layer="svg432" />
  <path
     d="m 27.32882,0.01040862 c 0.677212,0.31242158 0.885558,0.84352688 0.87507,1.57250778 -0.0312,1.7182969 -0.0104,3.4366026 -0.0104,5.1549083 0,0.1353807 0,0.2811786 0,0.4582108 1.114703,0 2.187718,0 3.271134,0 0.145859,0 0.291719,-0.010417 0.427179,0.010417 0.562551,0.09372 0.979243,0.5519311 0.989642,1.1455313 0.01049,1.5724637 0.01049,3.1450162 0,4.7279682 -0.0104,0.64566 -0.499977,1.124661 -1.145901,1.14546 -0.375005,0.01049 -0.750098,0 -1.187677,0 0,0.15626 0,0.291631 0,0.427003 0,1.812009 0.01049,3.613617 0,5.425714 -0.0312,5.217368 -3.739911,9.559931 -8.896644,10.413937 -0.12506,0.0208 -0.250032,0.05209 -0.395892,0.08329 0.260432,1.791209 1.00013,3.322073 2.250205,4.592595 1.57308,1.603751 3.500366,2.436869 5.76097,2.488867 0.770897,0.02089 1.291849,0.489489 1.291849,1.166436 0,0.697659 -0.541752,1.176748 -1.323048,1.176748 -5.18802,-0.03129 -9.605143,-3.978133 -10.313553,-9.195501 -0.0104,-0.06249 -0.02089,-0.124972 -0.02089,-0.135372 -0.906266,-0.249949 -1.802224,-0.427008 -2.646006,-0.739438 -4.04211,-1.509978 -6.750701,-5.404826 -6.7923701,-9.72659 -0.020843,-1.832896 0,-3.665703 0,-5.508999 0,-0.145771 0,-0.281231 0,-0.46869 -0.3854572,0 -0.750071,0 -1.1146937,0 -0.7396564,-0.0104 -1.2292935,-0.489401 -1.2292935,-1.228834 -0.010417,-1.520377 -0.010417,-3.0408435 0,-4.5717082 0,-0.749789 0.500035,-1.2288343 1.2605278,-1.2288343 1.0000946,0 2.0002155,0 3.0107275,0 0.125016,0 0.250024,0 0.416709,0 0,-0.2915871 0,-0.5519399 0,-0.8122927 0,-1.6037509 0.02083,-3.2074929 -0.01043,-4.8008264 -0.02083,-0.7289809 0.197955,-1.2600862 0.875105,-1.57250778 0.208355,0 0.416709,0 0.625055,0 0.67715,0.31242158 0.885496,0.84352688 0.875078,1.57250778 -0.03125,1.7287142 -0.01043,3.4574372 -0.01043,5.1861514 0,0.1353806 0,0.2707524 0,0.3957246 3.937919,0 7.813291,0 11.719949,0 0,-0.1562152 0,-0.3020043 0,-0.437385 0,-1.7182969 0.0208,-3.4366026 -0.0104,-5.1549083 -0.01049,-0.728972 0.197858,-1.2600861 0.87507,-1.5725016 0.166659,0.0104138 0.375005,0.0104111 0.58335,0.01041112 z m 3.177449,9.56000988 c -7.04242,0 -14.043066,0 -21.054216,0 0,0.7810325 0,1.5308655 0,2.3118975 0.3229534,0 0.63549,0 0.948026,0 0.937591,0 1.375126,0.447803 1.375126,1.395493 0,2.207725 -0.0104,4.425937 0.01044,6.633661 0,0.583174 0.05209,1.176748 0.156259,1.749522 0.760497,4.290565 5.156741,7.321008 9.417605,6.508777 4.094117,-0.781032 6.823587,-4.082307 6.823587,-8.247899 0,-2.249411 0,-4.498822 0,-6.758633 0,-0.791432 0.479177,-1.270521 1.260562,-1.270521 0.343805,0 0.697923,0 1.062616,0 0,-0.801831 0,-1.551664 0,-2.3222975 z"
     fill="white"
     id="path428"
     style="fill:#000000;stroke-width:0.881327" />
  <path
     d="m 19.56759,17.391315 c 0.71881,0.364517 1.343848,0.676948 1.968885,0.98929 0.427091,0.218745 0.86467,0.416603 1.291849,0.64566 0.760497,0.416603 0.916668,1.270521 0.322918,1.895382 -0.770897,0.801831 -1.552281,1.572464 -2.343977,2.343096 -0.500065,0.47909 -1.15639,0.447802 -1.635567,-0.0312 -0.479266,-0.489489 -0.479266,-1.124749 0,-1.63495 0.364605,-0.385316 0.750009,-0.760232 1.114702,-1.145549 0.0104,-0.0104 0.0104,-0.02089 0.0208,-0.07297 -0.531352,-0.270744 -1.073016,-0.541488 -1.614768,-0.812231 -0.510464,-0.260344 -1.031329,-0.499889 -1.531394,-0.770633 -0.760497,-0.406115 -0.916756,-1.28092 -0.312518,-1.895382 0.770897,-0.791431 1.552193,-1.572463 2.343977,-2.343096 0.489666,-0.479089 1.156389,-0.458202 1.635567,0.0312 0.458378,0.46869 0.479266,1.10395 0.03129,1.603751 -0.187546,0.208346 -0.395892,0.416603 -0.604238,0.614461 -0.218745,0.177059 -0.437579,0.354029 -0.687523,0.583174 z"
     fill="white"
     id="path430"
     style="fill:#000000;stroke-width:0.881327" />
</svg>
