<svg width="30" height="47" viewBox="0 0 30 47" fill="none" xmlns="http://www.w3.org/2000/svg">
<path d="M23.3158 0.74451C24.0842 1.099 24.3206 1.70162 24.3087 2.52876C24.2733 4.47843 24.2969 6.42811 24.2969 8.37779C24.2969 8.5314 24.2969 8.69683 24.2969 8.8977C25.5617 8.8977 26.7792 8.8977 28.0085 8.8977C28.174 8.8977 28.3395 8.88588 28.4932 8.90952C29.1315 9.01586 29.6043 9.53577 29.6161 10.2093C29.628 11.9935 29.628 13.7778 29.6161 15.5739C29.6043 16.3065 29.0488 16.85 28.3159 16.8736C27.8904 16.8855 27.4648 16.8736 26.9683 16.8736C26.9683 17.0509 26.9683 17.2045 26.9683 17.3581C26.9683 19.4141 26.9802 21.4583 26.9683 23.5144C26.9329 29.4343 22.7248 34.3616 16.8737 35.3306C16.7318 35.3542 16.59 35.3897 16.4245 35.4251C16.72 37.4575 17.5593 39.1945 18.9777 40.6361C20.7626 42.4558 22.9494 43.4011 25.5144 43.4601C26.3891 43.4838 26.9802 44.0155 26.9802 44.7836C26.9802 45.5752 26.3655 46.1188 25.479 46.1188C19.5924 46.0833 14.5805 41.605 13.7767 35.6851C13.7649 35.6142 13.753 35.5433 13.753 35.5315C12.7247 35.2479 11.7081 35.047 10.7507 34.6925C6.16431 32.9792 3.091 28.5599 3.04372 23.6562C3.02007 21.5765 3.04372 19.4969 3.04372 17.4054C3.04372 17.24 3.04372 17.0863 3.04372 16.8736C2.60636 16.8736 2.19265 16.8736 1.77893 16.8736C0.939677 16.8618 0.384109 16.3183 0.384109 15.4793C0.372289 13.7542 0.372289 12.029 0.384109 10.292C0.384109 9.44125 0.951475 8.8977 1.81437 8.8977C2.94913 8.8977 4.08392 8.8977 5.2305 8.8977C5.37235 8.8977 5.51419 8.8977 5.70332 8.8977C5.70332 8.56685 5.70332 8.27144 5.70332 7.97603C5.70332 6.15633 5.72695 4.33664 5.69149 2.52876C5.66785 1.70162 5.9161 1.099 6.68443 0.74451C6.92084 0.74451 7.15725 0.74451 7.39365 0.74451C8.16198 1.099 8.39838 1.70162 8.38656 2.52876C8.3511 4.49025 8.37473 6.45175 8.37473 8.41324C8.37473 8.56685 8.37473 8.72045 8.37473 8.86225C12.8429 8.86225 17.2401 8.86225 21.6728 8.86225C21.6728 8.685 21.6728 8.51958 21.6728 8.36597C21.6728 6.4163 21.6964 4.46662 21.661 2.51694C21.6491 1.68981 21.8855 1.08718 22.6539 0.732697C22.843 0.744513 23.0794 0.74451 23.3158 0.74451ZM26.9211 11.5918C18.9304 11.5918 10.9871 11.5918 3.03188 11.5918C3.03188 12.478 3.03188 13.3288 3.03188 14.215C3.39832 14.215 3.75294 14.215 4.10756 14.215C5.1714 14.215 5.66785 14.7231 5.66785 15.7984C5.66785 18.3034 5.65605 20.8203 5.67969 23.3253C5.67969 23.987 5.73879 24.6605 5.85699 25.3104C6.71989 30.1787 11.7081 33.6172 16.5427 32.6956C21.1881 31.8094 24.2851 28.0636 24.2851 23.3371C24.2851 20.7848 24.2851 18.2325 24.2851 15.6684C24.2851 14.7704 24.8288 14.2268 25.7154 14.2268C26.1055 14.2268 26.5073 14.2268 26.9211 14.2268C26.9211 13.317 26.9211 12.4662 26.9211 11.5918Z" fill="white"/>
<path d="M14.5095 20.4658C15.3251 20.8794 16.0343 21.2339 16.7435 21.5883C17.2281 21.8365 17.7246 22.061 18.2093 22.3209C19.0722 22.7936 19.2494 23.7625 18.5757 24.4715C17.701 25.3813 16.8144 26.2557 15.9161 27.1301C15.3487 27.6737 14.604 27.6382 14.0603 27.0947C13.5165 26.5393 13.5165 25.8185 14.0603 25.2396C14.474 24.8024 14.9113 24.377 15.3251 23.9398C15.3369 23.928 15.3369 23.9161 15.3487 23.857C14.7458 23.5498 14.1312 23.2426 13.5165 22.9354C12.9373 22.64 12.3463 22.3682 11.7789 22.061C10.916 21.6002 10.7387 20.6076 11.4243 19.9104C12.299 19.0124 13.1855 18.1262 14.0839 17.2518C14.6395 16.7082 15.396 16.7319 15.9397 17.2872C16.4598 17.819 16.4835 18.5398 15.9752 19.1069C15.7624 19.3433 15.526 19.5796 15.2896 19.8041C15.0414 20.005 14.7931 20.2058 14.5095 20.4658Z" fill="white"/>
</svg>
