<svg width="16" height="16" viewBox="0 0 16 16" fill="none" xmlns="http://www.w3.org/2000/svg">
<g clip-path="url(#clip0_111_146)">
<path d="M11.9188 1.39379C12.1031 0.965664 11.9656 0.465664 11.5875 0.190664C11.2094 -0.0843364 10.6938 -0.0593364 10.3406 0.246914L2.34064 7.24691C2.02814 7.52191 1.91564 7.96254 2.06251 8.35004C2.20939 8.73754 2.58439 9.00004 3.00001 9.00004H6.48439L4.08126 14.6063C3.89689 15.0344 4.03439 15.5344 4.41251 15.8094C4.79064 16.0844 5.30626 16.0594 5.65939 15.7532L13.6594 8.75316C13.9719 8.47816 14.0844 8.03754 13.9375 7.65004C13.7906 7.26254 13.4188 7.00316 13 7.00316H9.51564L11.9188 1.39379Z" fill="#6E6CFF"/>
</g>
<defs>
<clipPath id="clip0_111_146">
<rect width="16" height="16" fill="white"/>
</clipPath>
</defs>
</svg>
