<svg width="16" height="16" fill="none" xmlns="http://www.w3.org/2000/svg"><path d="M13.097 13.634a.428.428 0 0 0-.515-.334c-.382.087-.98.193-1.623.193-2.027 0-3.64-1.242-4.338-3.052h4.06a.428.428 0 0 0 .419-.334l.227-1.013a.429.429 0 0 0-.418-.523H6.115a7.71 7.71 0 0 1 .005-1.508h5.235a.429.429 0 0 0 .419-.337l.233-1.063a.429.429 0 0 0-.42-.52H6.65c.737-1.607 2.24-2.68 4.201-2.68.518 0 1.02.08 1.352.148a.429.429 0 0 0 .5-.308L13.13.72a.428.428 0 0 0-.333-.533A10.401 10.401 0 0 0 10.915 0C7.445 0 4.644 2.152 3.61 5.143H2.429A.429.429 0 0 0 2 5.57v1.063c0 .237.192.429.429.429h.77a10.602 10.602 0 0 0-.007 1.508H2.43A.429.429 0 0 0 2 9v1.013c0 .236.192.428.429.428h1.075C4.398 13.668 7.188 16 10.915 16a8.91 8.91 0 0 0 2.183-.278.429.429 0 0 0 .314-.499l-.315-1.589z" fill="#6E6CFF"/></svg>