<?xml version="1.0" encoding="UTF-8" standalone="no"?>
<svg
   width="40"
   height="40"
   viewBox="0 0 40 40"
   fill="none"
   version="1.1"
   id="svg1125"
   sodipodi:docname="Finanzwissenschaften.svg"
   inkscape:version="1.2.2 (732a01da63, 2022-12-09)"
   xmlns:inkscape="http://www.inkscape.org/namespaces/inkscape"
   xmlns:sodipodi="http://sodipodi.sourceforge.net/DTD/sodipodi-0.dtd"
   xmlns="http://www.w3.org/2000/svg"
   xmlns:svg="http://www.w3.org/2000/svg">
  <defs
     id="defs1129" />
  <sodipodi:namedview
     id="namedview1127"
     pagecolor="#ffffff"
     bordercolor="#000000"
     borderopacity="0.25"
     inkscape:showpageshadow="2"
     inkscape:pageopacity="0.0"
     inkscape:pagecheckerboard="0"
     inkscape:deskcolor="#d1d1d1"
     showgrid="false"
     inkscape:zoom="14.972986"
     inkscape:cx="19.13446"
     inkscape:cy="21.839331"
     inkscape:window-width="1920"
     inkscape:window-height="1027"
     inkscape:window-x="-8"
     inkscape:window-y="-8"
     inkscape:window-maximized="1"
     inkscape:current-layer="svg1125" />
  <path
     d="m 0.01042406,27.097465 c 0.20827404,-0.52047 0.61440226,-0.780758 1.14549784,-0.9577 1.9473365,-0.645438 3.8842572,-1.322039 5.8316041,-1.988288 0.9996971,-0.343529 1.48913,-0.104052 1.8640111,0.895268 0.020832,0.05208 0.041662,0.0937 0.1249778,0.24983 0.2707451,-0.29145 0.5623322,-0.510117 0.739357,-0.79111 2.7491771,-4.590747 8.9868791,-5.579714 13.1523181,-2.081988 0.156234,0.135321 0.40617,0.22902 0.614378,0.22902 0.90604,0.02081 1.822432,0 2.728367,0.01036 1.374641,0.01046 2.457622,0.583006 3.207426,1.748915 0.03126,0.05198 0.07288,0.104052 0.124967,0.187399 0.489412,-0.333177 0.978824,-0.655895 1.457884,-0.968157 1.051816,-0.697412 2.082719,-1.415739 3.155347,-2.092341 2.207686,-1.384575 5.123451,-0.208208 5.717021,2.331713 0.374902,1.571974 -0.08324,2.945988 -1.384994,3.914145 -2.145151,1.603138 -4.352839,3.122929 -6.539714,4.673989 -1.166328,0.832836 -2.311844,1.686379 -3.634302,2.258928 -1.614119,0.697517 -3.301125,1.082667 -5.061022,1.134745 -3.415634,0.0937 -6.841726,0.20821 -10.257361,0.312262 -0.104158,0 -0.197857,0.02081 -0.302014,0.03126 0.06244,0.97851 -0.156235,1.30123 -1.093438,1.623844 -1.9890199,0.676706 -3.9779983,1.363765 -5.9774027,2.040367 -0.8435035,0.29145 -1.4266462,0 -1.7078175,-0.832733 C 2.6450621,35.300448 1.3641834,31.584159 0.09372447,27.857413 0.07289728,27.784524 0.03124079,27.722093 0,27.649204 0.0104136,27.461805 0.01042406,27.274407 0.01042406,27.097465 Z m 9.65336944,0.353987 c 0.7289935,2.113152 1.4266155,4.14306 2.1035295,6.172969 0.0937,0.270641 0.260392,0.239478 0.447792,0.22902 3.623949,-0.11451 7.25825,-0.239372 10.882199,-0.34353 2.12434,-0.06243 4.092549,-0.61417 5.841988,-1.821699 2.707556,-1.873778 5.373387,-3.789178 8.049676,-5.704577 0.708182,-0.510118 0.85396,-1.384471 0.385359,-2.061177 -0.468601,-0.676602 -1.353726,-0.84319 -2.072262,-0.36434 -1.749543,1.155555 -3.488629,2.32136 -5.217257,3.497726 -0.114509,0.08324 -0.229124,0.20821 -0.281202,0.34353 -0.63519,1.717648 -1.874406,2.592 -3.707191,2.602458 -2.072261,0 -4.134171,0 -6.206538,0 -0.114509,0 -0.239476,0 -0.353986,-0.01046 -0.531138,-0.06243 -0.958118,-0.489202 -1.02055,-1.02013 -0.06254,-0.541282 0.281204,-1.082668 0.801884,-1.238798 0.197856,-0.05198 0.406064,-0.07278 0.614378,-0.07278 2.08272,0 4.165439,0 6.248159,0 0.728889,0 1.249569,-0.385255 1.395347,-1.009779 0.197856,-0.884914 -0.416524,-1.634406 -1.384994,-1.644758 -1.06217,-0.01046 -2.134798,-0.0208 -3.196969,0 -0.572758,0.01036 -1.010091,-0.166588 -1.426614,-0.57255 -2.728367,-2.664889 -7.268708,-2.331817 -9.465937,0.749492 -0.666458,0.947346 -1.270484,1.873777 -2.4368115,2.269383 z m -6.9979104,0.645334 c 1.0621911,3.102118 2.1035404,6.152263 3.1553054,9.21276 C 7.2582713,36.82024 8.6432756,36.34139 10.069964,35.86254 9.0181672,32.770879 7.9663917,29.720734 6.9146162,26.649883 5.477544,27.139086 4.0925501,27.607583 2.6658831,28.096786 Z"
     fill="white"
     id="path1119"
     style="fill:#000000;stroke-width:1.04576" />
  <path
     d="M 26.794151,6.7360595e-4 C 27.294021,0.09436252 27.79389,0.16723052 28.283302,0.29214559 32.740297,1.3955916 35.895644,5.445015 35.822755,9.9524672 35.749866,14.657724 32.511172,18.613489 27.92921,19.581542 22.191378,20.789072 16.57841,16.625201 16.07854,10.795657 15.63075,5.5282986 19.275509,0.89592091 24.503118,0.10477194 24.690621,0.07354265 24.888477,0.04231336 25.075876,0.01108302 25.648635,6.7360595e-4 26.221393,6.7360595e-4 26.794151,6.7360595e-4 Z M 33.479643,9.8692253 C 33.458833,5.6844399 30.064008,2.322065 25.867406,2.342886 c -4.144629,0.020821 -7.529101,3.4456585 -7.497833,7.5992282 0.02082,4.1535178 3.446903,7.5158188 7.612342,7.4846548 4.144629,-0.03126 7.518538,-3.424837 7.497728,-7.5575437 z"
     fill="white"
     id="path1121"
     style="fill:#000000;stroke-width:1.04576" />
  <path
     d="m 29.084975,7.3500089 c 0.03126,0.8223794 -0.406065,1.342871 -1.020549,1.415739 -0.656001,0.072868 -1.197491,-0.3435295 -1.280837,-1.0201623 -0.05208,-0.4059819 -0.249934,-0.5725388 -0.645648,-0.5413127 -0.177045,0.010405 -0.374901,-0.041642 -0.54149,0.010405 -0.177045,0.052058 -0.406065,0.1665569 -0.458144,0.3123033 -0.04172,0.1144994 0.0937,0.36434 0.218667,0.4684342 0.885125,0.6870485 1.801517,1.3324657 2.686641,2.0091306 0.989282,0.759843 1.322563,2.050719 0.864314,3.18536 -0.281098,0.70787 -0.791424,1.217988 -1.499504,1.509438 -0.197856,0.08324 -0.302012,0.166588 -0.343634,0.395608 -0.124966,0.603713 -0.593568,0.9577 -1.166326,0.947242 -0.572759,-0.01036 -0.989282,-0.395503 -1.145517,-0.988863 -0.03126,-0.114509 -0.156236,-0.260287 -0.260392,-0.312366 -1.010092,-0.447581 -1.593204,-1.217883 -1.728628,-2.32136 -0.08324,-0.697412 0.343634,-1.290876 0.999738,-1.394928 0.645648,-0.104052 1.218406,0.36434 1.312106,1.082667 0.04162,0.333072 0.197856,0.489202 0.54149,0.468392 0.124967,-0.01036 0.260392,0 0.385359,0 0.270746,-0.02082 0.603922,0.08324 0.718536,-0.291451 0.104158,-0.353987 -0.187502,-0.47885 -0.395712,-0.634981 C 25.523563,11.045487 24.72168,10.452127 23.909444,9.8587675 23.336686,9.4319752 22.940974,8.8802574 22.805654,8.172388 22.534908,6.8503379 23.201366,5.6011559 24.461392,5.070259 24.638438,4.997391 24.74249,4.924523 24.784216,4.7059085 c 0.0937,-0.5725387 0.562301,-0.9472943 1.114249,-0.9576996 0.5623,-0.010416 1.030902,0.3331139 1.15587,0.9056526 0.05208,0.2498406 0.177045,0.3435295 0.395712,0.4476237 1.020549,0.4684445 1.562039,1.2804081 1.634928,2.2485237 z"
     fill="white"
     id="path1123"
     style="fill:#000000;stroke-width:1.04576" />
</svg>
