<svg width="40" height="40" viewBox="0 0 40 40" fill="none" xmlns="http://www.w3.org/2000/svg">
<path d="M0.884968 26.7863C1.08413 26.2886 1.47249 26.0397 1.98035 25.8705C3.84249 25.2533 5.69467 24.6063 7.55682 23.9692C8.51278 23.6407 8.9808 23.8697 9.33928 24.8253C9.3592 24.8751 9.37912 24.9149 9.45879 25.0642C9.71769 24.7855 9.99652 24.5764 10.1658 24.3077C12.7947 19.9178 18.7595 18.9721 22.7427 22.3168C22.8921 22.4462 23.1311 22.5358 23.3302 22.5358C24.1966 22.5557 25.0729 22.5358 25.9392 22.5457C27.2537 22.5557 28.2893 23.1032 29.0063 24.2181C29.0362 24.2678 29.076 24.3176 29.1258 24.3973C29.5938 24.0787 30.0618 23.7701 30.5199 23.4715C31.5257 22.8046 32.5115 22.1177 33.5372 21.4707C35.6483 20.1467 38.4365 21.2716 39.0041 23.7004C39.3626 25.2036 38.9245 26.5175 37.6797 27.4433C35.6284 28.9763 33.5173 30.4296 31.4261 31.9128C30.3108 32.7092 29.2154 33.5254 27.9508 34.0729C26.4073 34.7399 24.7941 35.1082 23.1112 35.158C19.845 35.2476 16.5688 35.3571 13.3026 35.4566C13.203 35.4566 13.1134 35.4765 13.0138 35.4865C13.0735 36.4222 12.8644 36.7308 11.9682 37.0393C10.0662 37.6864 8.16424 38.3434 6.25231 38.9904C5.44571 39.2691 4.88808 38.9904 4.61921 38.1941C3.40434 34.6304 2.1795 31.0767 0.964624 27.513C0.944708 27.4433 0.904874 27.3836 0.875 27.3139C0.884958 27.1347 0.884968 26.9555 0.884968 26.7863ZM10.116 27.1248C10.8131 29.1455 11.4802 31.0866 12.1275 33.0277C12.2171 33.2865 12.3765 33.2567 12.5557 33.2467C16.0211 33.1372 19.4964 33.0178 22.9618 32.9182C24.9932 32.8585 26.8753 32.3309 28.5482 31.1762C31.1373 29.3844 33.6865 27.5528 36.2457 25.7212C36.9229 25.2334 37.0623 24.3973 36.6142 23.7502C36.1661 23.1032 35.3197 22.9439 34.6326 23.4018C32.9596 24.5068 31.2966 25.6216 29.6436 26.7465C29.5341 26.8261 29.4245 26.9456 29.3747 27.075C28.7673 28.7175 27.5823 29.5536 25.8297 29.5636C23.8481 29.5636 21.8764 29.5636 19.8947 29.5636C19.7852 29.5636 19.6657 29.5636 19.5562 29.5536C19.0483 29.4939 18.64 29.0858 18.5803 28.5781C18.5205 28.0605 18.8492 27.5428 19.3471 27.3935C19.5363 27.3438 19.7354 27.3239 19.9346 27.3239C21.9262 27.3239 23.9178 27.3239 25.9094 27.3239C26.6064 27.3239 27.1043 26.9555 27.2437 26.3583C27.4329 25.5121 26.8454 24.7954 25.9193 24.7855C24.9036 24.7755 23.8779 24.7656 22.8622 24.7855C22.3145 24.7954 21.8963 24.6262 21.498 24.238C18.889 21.6897 14.5473 22.0082 12.4462 24.9547C11.8089 25.8606 11.2313 26.7465 10.116 27.1248ZM3.42425 27.7419C4.43997 30.7083 5.43576 33.625 6.44151 36.5516C7.81572 36.0837 9.14013 35.6258 10.5044 35.1679C9.49862 32.2115 8.49286 29.2948 7.4871 26.3583C6.1129 26.8261 4.7885 27.2741 3.42425 27.7419Z" fill="white"/>
<path d="M26.4969 0.875C26.9749 0.96459 27.4529 1.03427 27.9209 1.15372C32.1829 2.20889 35.2002 6.08115 35.1305 10.3914C35.0608 14.8908 31.9638 18.6735 27.5823 19.5992C22.0955 20.7539 16.7281 16.7722 16.2501 11.1977C15.8219 6.16079 19.3072 1.73108 24.3061 0.974544C24.4854 0.944681 24.6746 0.914818 24.8538 0.884954C25.4015 0.875 25.9492 0.875 26.4969 0.875ZM32.8899 10.3118C32.87 6.3101 29.6237 3.09483 25.6107 3.11474C21.6474 3.13465 18.411 6.40965 18.4409 10.3815C18.4608 14.3533 21.737 17.5685 25.7202 17.5387C29.6835 17.5088 32.9098 14.2637 32.8899 10.3118Z" fill="white"/>
<path d="M28.6875 7.9028C28.7174 8.6892 28.2992 9.18692 27.7116 9.2566C27.0843 9.32628 26.5665 8.9281 26.4868 8.28107C26.437 7.89285 26.2478 7.73358 25.8694 7.76344C25.7001 7.77339 25.5109 7.72362 25.3516 7.77339C25.1823 7.82317 24.9633 7.93266 24.9135 8.07203C24.8736 8.18152 25.0031 8.42043 25.1226 8.51997C25.969 9.17696 26.8453 9.79414 27.6917 10.4412C28.6377 11.1678 28.9564 12.4022 28.5182 13.4872C28.2494 14.1641 27.7614 14.6519 27.0843 14.9306C26.8951 15.0102 26.7955 15.0899 26.7557 15.3089C26.6362 15.8862 26.1881 16.2247 25.6404 16.2147C25.0927 16.2048 24.6944 15.8365 24.545 15.2691C24.5151 15.1596 24.3956 15.0202 24.296 14.9704C23.3301 14.5424 22.7725 13.8058 22.643 12.7506C22.5634 12.0837 22.9716 11.5162 23.599 11.4167C24.2164 11.3172 24.7641 11.7651 24.8537 12.452C24.8935 12.7705 25.0429 12.9198 25.3715 12.8999C25.491 12.89 25.6205 12.8999 25.74 12.8999C25.9989 12.88 26.3175 12.9795 26.4271 12.6212C26.5267 12.2827 26.2478 12.1633 26.0487 12.014C25.2819 11.4366 24.5151 10.8692 23.7384 10.3018C23.1907 9.89368 22.8123 9.3661 22.6829 8.6892C22.424 7.42499 23.0613 6.23046 24.2662 5.72279C24.4355 5.65311 24.535 5.58343 24.5749 5.37438C24.6645 4.82689 25.1126 4.46853 25.6404 4.45858C26.1781 4.44862 26.6262 4.77712 26.7457 5.32461C26.7955 5.56352 26.915 5.65311 27.1241 5.75265C28.1 6.2006 28.6178 6.97704 28.6875 7.9028Z" fill="white"/>
</svg>
