<?xml version="1.0" encoding="UTF-8" standalone="no"?>
<svg
   id="Layer_1"
   data-name="Layer 1"
   viewBox="0 0 40 40"
   version="1.1"
   sodipodi:docname="Geografie.svg"
   inkscape:version="1.2.2 (732a01da63, 2022-12-09)"
   width="40"
   height="40"
   xmlns:inkscape="http://www.inkscape.org/namespaces/inkscape"
   xmlns:sodipodi="http://sodipodi.sourceforge.net/DTD/sodipodi-0.dtd"
   xmlns="http://www.w3.org/2000/svg"
   xmlns:svg="http://www.w3.org/2000/svg"
   xmlns:rdf="http://www.w3.org/1999/02/22-rdf-syntax-ns#"
   xmlns:cc="http://creativecommons.org/ns#"
   xmlns:dc="http://purl.org/dc/elements/1.1/">
  <defs
     id="defs11" />
  <sodipodi:namedview
     id="namedview9"
     pagecolor="#ffffff"
     bordercolor="#000000"
     borderopacity="0.25"
     inkscape:showpageshadow="2"
     inkscape:pageopacity="0.0"
     inkscape:pagecheckerboard="0"
     inkscape:deskcolor="#d1d1d1"
     showgrid="false"
     inkscape:zoom="6.6171876"
     inkscape:cx="14.280992"
     inkscape:cy="18.739079"
     inkscape:window-width="1920"
     inkscape:window-height="1027"
     inkscape:window-x="-8"
     inkscape:window-y="-8"
     inkscape:window-maximized="1"
     inkscape:current-layer="Layer_1" />
  <title
     id="title2">Earth</title>
  <path
     d="M 34.120703,5.8791018 A 19.969898,19.969898 0 1 0 5.8790243,34.120697 19.969898,19.969898 0 1 0 34.120703,5.8791018 Z m 1.596966,5.0435562 H 34.514881 A 0.63679491,0.63679491 0 0 1 34.067517,10.737312 L 33.880299,10.550095 A 2.4652294,2.4652294 0 0 0 32.149218,9.8331368 h -1.176322 a 2.4631019,2.4631019 0 0 0 -1.096159,0.2584452 l -1.525227,0.763507 a 0.63466743,0.63466743 0 0 1 -0.285081,0.06723 h -0.274104 a 0.63347605,0.63347605 0 0 1 -0.63271,-0.63271 0.63253996,0.63253996 0 0 1 0.185345,-0.4473652 l 1.551353,-1.551437 a 0.63824159,0.63824159 0 0 1 0.163135,-0.118458 l 1.629558,-0.814311 a 0.63824159,0.63824159 0 0 1 0.28389,-0.06663 h 1.978208 a 18.266389,18.266389 0 0 1 2.766565,3.6312552 z m -25.118296,-6.4487932 2.167894,1.505654 a 0.75738002,0.75738002 0 0 1 0.244575,0.282784 l 0.258104,0.515273 a 2.5550938,2.5550938 0 0 0 2.299032,1.421832 h 1.848092 a 0.75610353,0.75610353 0 0 1 0.755253,0.755168 v 0.03268 a 0.75023171,0.75023171 0 0 1 -0.417751,0.675004 L 13.32041,11.879767 a 2.5803682,2.5803682 0 0 0 -0.276486,0.160156 l -2.269928,1.513568 a 2.5846231,2.5846231 0 0 0 -0.8735397,0.989615 l -0.337417,0.676366 a 2.5653057,2.5653057 0 0 0 0,2.298265 0.75542274,0.75542274 0 0 1 -0.142285,0.872775 l -0.04953,0.04961 a 0.75252938,0.75252938 0 0 1 -0.922131,0.113097 l -2.898298,-1.737975 a 0.75474195,0.75474195 0 0 1 -0.32746,-0.409325 L 4.5098683,14.266448 A 0.90766463,0.90766463 0 0 0 3.6487523,13.645907 1.2764832,1.2764832 0 0 1 3.0439553,13.514514 18.259071,18.259071 0 0 1 10.599373,4.4738648 Z M 1.8454223,19.9999 a 18.113381,18.113381 0 0 1 0.631434,-4.748518 2.9280822,2.9280822 0 0 0 0.496211,0.145689 l 0.527613,1.58284 a 2.5705818,2.5705818 0 0 0 1.116072,1.392643 l 2.897532,1.737719 a 2.5645398,2.5645398 0 0 0 3.1401477,-0.385924 l 0.04961,-0.04961 a 2.5687096,2.5687096 0 0 0 0.482255,-2.967653 0.74972112,0.74972112 0 0 1 4.26e-4,-0.675771 l 0.336736,-0.675259 a 0.76410283,0.76410283 0 0 1 0.25768,-0.291804 l 2.269249,-1.513145 a 0.7584012,0.7584012 0 0 1 0.08127,-0.04689 l 4.433651,-2.217251 a 2.5553491,2.5553491 0 0 0 1.421747,-2.2990312 v -0.03268 A 2.5735603,2.5735603 0 0 0 17.41707,6.3840788 h -1.848092 a 0.75040191,0.75040191 0 0 1 -0.675005,-0.418346 l -0.25836,-0.515869 a 2.5771344,2.5771344 0 0 0 -0.832352,-0.961618 l -1.402685,-0.973531 a 18.123678,18.123678 0 0 1 18.483477,1.964252 2.4614,2.4614 0 0 0 -1.00655,0.255297 l -1.631516,0.815673 a 2.4550175,2.4550175 0 0 0 -0.633135,0.457662 l -1.551183,1.551182 a 2.4483798,2.4483798 0 0 0 -0.717553,1.7313372 2.4508477,2.4508477 0 0 0 2.448209,2.448124 h 0.274104 a 2.4699949,2.4699949 0 0 0 1.096158,-0.258445 l 1.526334,-0.764103 a 0.63824159,0.63824159 0 0 1 0.28389,-0.06663 h 1.176492 a 0.6370502,0.6370502 0 0 1 0.447365,0.185345 l 0.187217,0.187217 a 2.464889,2.464889 0 0 0 1.731167,0.717129 h 2.121685 a 18.014752,18.014752 0 0 1 0.710916,1.906215 h -3.449058 a 0.90809013,0.90809013 0 0 1 -0.287549,-0.04689 l -1.942382,-0.647517 a 2.7249512,2.7249512 0 0 0 -1.521312,-0.05821 l -2.814731,0.703938 a 2.7167817,2.7167817 0 0 0 -0.84801,0.375371 l -1.65262,1.101775 a 2.7167817,2.7167817 0 0 0 -1.21334,2.265928 v 1.456297 a 2.7168668,2.7168668 0 0 0 0.140073,0.861456 l 0.399964,1.201681 a 2.7195899,2.7195899 0 0 0 2.584113,1.862815 h 0.07812 a 2.7277594,2.7277594 0 0 0 1.217339,-0.287379 l 0.621222,-0.310441 a 0.90774973,0.90774973 0 0 1 1.313331,0.812099 v 0.265083 a 2.7277594,2.7277594 0 0 0 0.287379,1.217339 l 1.433065,2.866216 a 0.90519677,0.90519677 0 0 1 0.09506,0.404134 v 1.999824 a 2.7189943,2.7189943 0 0 0 0.140158,0.861881 q 0.0085,0.02655 0.0194,0.05268 l 0.605563,1.499358 a 18.091256,18.091256 0 0 1 -12.553531,5.051895 c -10.0104357,0 -18.1544837,-8.144048 -18.1544837,-18.154399 z M 33.920381,31.639469 33.643384,30.953487 a 0.90494147,0.90494147 0 0 1 -0.03983,-0.265168 V 28.688495 A 2.7277594,2.7277594 0 0 0 33.316176,27.471581 L 31.88311,24.605366 a 0.90519677,0.90519677 0 0 1 -0.09506,-0.404135 v -0.265083 a 2.7087824,2.7087824 0 0 0 -1.50574,-2.43587 2.7231641,2.7231641 0 0 0 -2.434934,0 l -0.622243,0.311121 a 0.90519677,0.90519677 0 0 1 -0.404134,0.09506 h -0.07812 a 0.90664345,0.90664345 0 0 1 -0.861626,-0.621222 l -0.40039,-1.202277 a 0.90545206,0.90545206 0 0 1 -0.04689,-0.287294 v -1.456893 a 0.90553716,0.90553716 0 0 1 0.40456,-0.755167 l 1.653982,-1.102626 a 0.90579246,0.90579246 0 0 1 0.282103,-0.1245 l 2.812347,-0.703342 a 0.91115369,0.91115369 0 0 1 0.508296,0.0194 l 1.941701,0.647262 a 2.7212068,2.7212068 0 0 0 0.861541,0.139987 h 3.908166 A 18.134571,18.134571 0 0 1 33.920374,31.63947 Z"
     id="path4"
     style="fill:#000000;stroke-width:0.0850989" />
  <path
     d="M 21.588957,23.416534 19.198445,22.22098 A 0.2127472,0.2127472 0 0 1 19.079987,22.029338 2.0320761,2.0320761 0 0 0 17.050294,19.9999 H 16.821633 A 0.21572566,0.21572566 0 0 1 16.670157,19.9371 L 16.419626,19.686565 A 2.0168434,2.0168434 0 0 0 14.984348,19.09215 H 13.41938 a 2.0187156,2.0187156 0 0 0 -1.815414,1.121943 l -0.430345,0.860776 a 0.21547036,0.21547036 0 0 1 -0.09582,0.09582 v 0 l -0.86052,0.430345 a 2.0186305,2.0186305 0 0 0 -1.1220277,1.815414 v 0.782314 a 2.0233109,2.0233109 0 0 0 0.340906,1.125858 l 1.4616577,2.192573 a 2.0324165,2.0324165 0 0 0 0.781038,0.689301 l 0.928854,0.464385 a 0.2127472,0.2127472 0 0 1 0.118458,0.191642 v 3.58028 a 2.041437,2.041437 0 0 0 0.214279,0.90775 l 0.708022,1.41596 a 2.0260341,2.0260341 0 0 0 0.38005,0.527614 l 1.114795,1.114796 a 2.0271404,2.0271404 0 0 0 2.343028,0.380221 l 0.601053,-0.300569 a 2.0161626,2.0161626 0 0 0 1.082628,-1.417662 l 0.733467,-3.667762 a 0.21376838,0.21376838 0 0 1 0.05872,-0.109437 l 1.387878,-1.387878 a 2.0410966,2.0410966 0 0 0 0.49034,-0.793461 l 0.76589,-2.298606 a 2.0247576,2.0247576 0 0 0 0.104331,-0.642327 v -0.939491 a 2.0187156,2.0187156 0 0 0 -1.121689,-1.815415 z m -0.69347,2.755332 a 0.21104522,0.21104522 0 0 1 -0.01106,0.06808 l -0.766316,2.299201 a 0.21512996,0.21512996 0 0 1 -0.05174,0.08365 l -1.387877,1.387877 a 2.0237364,2.0237364 0 0 0 -0.5551,1.037271 l -0.733468,3.667761 a 0.2127472,0.2127472 0 0 1 -0.114372,0.149519 l -0.601309,0.300654 a 0.21351309,0.21351309 0 0 1 -0.247297,-0.04017 l -1.114796,-1.114796 a 0.21530016,0.21530016 0 0 1 -0.04017,-0.05557 l -0.707683,-1.41528 a 0.21683194,0.21683194 0 0 1 -0.02281,-0.09625 v -3.58096 a 2.0187156,2.0187156 0 0 0 -1.121944,-1.815415 l -0.928854,-0.464384 a 0.21538526,0.21538526 0 0 1 -0.08246,-0.07276 l -1.461658,-2.192572 a 0.21342799,0.21342799 0 0 1 -0.036,-0.119139 v -0.782314 a 0.2127472,0.2127472 0 0 1 0.118543,-0.191643 l 0.86086,-0.430089 a 2.0423731,2.0423731 0 0 0 0.907835,-0.90775 l 0.430345,-0.860775 a 0.2127472,0.2127472 0 0 1 0.191643,-0.118458 h 1.564968 a 0.21572566,0.21572566 0 0 1 0.151476,0.0628 l 0.250531,0.250531 a 2.0168434,2.0168434 0 0 0 1.435278,0.594416 h 0.228745 a 0.21444917,0.21444917 0 0 1 0.214279,0.214279 2.0187156,2.0187156 0 0 0 1.121944,1.815414 l 2.390513,1.195299 a 0.2127472,0.2127472 0 0 1 0.118457,0.191643 z"
     id="path6"
     style="fill:#000000;stroke-width:0.0850989" />
  <metadata
     id="metadata13">
    <rdf:RDF>
      <cc:Work
         rdf:about="">
        <dc:title>Earth</dc:title>
      </cc:Work>
    </rdf:RDF>
  </metadata>
</svg>
