<svg width="16" height="16" fill="none" xmlns="http://www.w3.org/2000/svg"><g clip-path="url(#a)"><path d="M8 0c.553 0 1 .447 1 1v1.084A5.995 5.995 0 0 1 13.916 7H15a.999.999 0 1 1 0 2h-1.084A5.995 5.995 0 0 1 9 13.916V15a.999.999 0 1 1-2 0v-1.084A5.995 5.995 0 0 1 2.084 9H1a.999.999 0 1 1 0-2h1.084A5.996 5.996 0 0 1 7 2.084V1c0-.553.447-1 1-1zM4 8a4 4 0 1 0 8 0 4 4 0 0 0-8 0zm4 2.5a2.5 2.5 0 1 1-.001-4.999A2.5 2.5 0 0 1 8 10.5z" fill="#6E6CFF"/></g><defs><clipPath id="a"><path fill="#fff" d="M0 0h16v16H0z"/></clipPath></defs></svg>