<svg width="16" height="16" fill="none" xmlns="http://www.w3.org/2000/svg"><g clip-path="url(#a)"><path d="M7.75 0h.5c.416 0 .75.334.75.75v.334A5.995 5.995 0 0 1 13.916 6H14a.999.999 0 1 1 0 2H2a.999.999 0 1 1 0-2h.084A5.996 5.996 0 0 1 7 1.084V.75c0-.416.334-.75.75-.75zM2 9h2v4h1.25V9h2v4h1.5V9h2v4H12V9h2v4.134c.019.01.037.022.053.035l1.5 1A1 1 0 0 1 15 16H1a.998.998 0 0 1-.553-1.831l1.5-1 .056-.035V9H2z" fill="#6E6CFF"/></g><defs><clipPath id="a"><path fill="#fff" d="M0 0h16v16H0z"/></clipPath></defs></svg>