<?xml version="1.0" encoding="UTF-8" standalone="no"?>
<svg
   width="40"
   height="40"
   viewBox="0 0 40 40"
   fill="none"
   version="1.1"
   id="svg4"
   sodipodi:docname="Geschichte.svg"
   inkscape:version="1.2.2 (732a01da63, 2022-12-09)"
   xmlns:inkscape="http://www.inkscape.org/namespaces/inkscape"
   xmlns:sodipodi="http://sodipodi.sourceforge.net/DTD/sodipodi-0.dtd"
   xmlns="http://www.w3.org/2000/svg"
   xmlns:svg="http://www.w3.org/2000/svg">
  <defs
     id="defs8" />
  <sodipodi:namedview
     id="namedview6"
     pagecolor="#ffffff"
     bordercolor="#000000"
     borderopacity="0.25"
     inkscape:showpageshadow="2"
     inkscape:pageopacity="0.0"
     inkscape:pagecheckerboard="0"
     inkscape:deskcolor="#d1d1d1"
     showgrid="false"
     inkscape:zoom="10.858974"
     inkscape:cx="19.384888"
     inkscape:cy="23.66706"
     inkscape:window-width="1920"
     inkscape:window-height="1027"
     inkscape:window-x="-8"
     inkscape:window-y="-8"
     inkscape:window-maximized="1"
     inkscape:current-layer="svg4" />
  <path
     d="m 30.176006,-5e-7 c 0.489752,0.11458267 0.98998,0.1979188 1.469256,0.35416953 3.188678,1.03124617 5.179009,3.98958867 5.012231,7.40625337 -0.156302,3.1250576 -2.573843,5.8854676 -5.762521,6.5520506 -0.104131,0.02085 -0.197996,0.05217 -0.322974,0.08339 0,6.26042 0,12.520842 0,18.791634 1.021198,0.447952 1.740164,1.187553 1.969484,2.302087 0.104131,0.500017 0.07291,1.031253 0.08328,1.552116 0.01048,0.562453 0.01048,1.114535 0,1.677093 C 32.614392,39.531307 32.145487,40 31.332656,40 23.777905,40 16.223049,40 8.6682461,40 7.9075539,40 7.4073679,39.562525 7.3865312,38.8334 c -0.020837,-0.937492 -0.03126,-1.874983 0.010413,-2.812475 0.062531,-1.375073 0.8023866,-2.291717 2.0424176,-2.854276 0,-6.249944 0,-12.489518 0,-18.760416 C 9.0642306,14.302102 8.6890858,14.218819 8.3243751,14.093736 5.0940447,13.020895 3.0516396,9.9062615 3.3642524,6.5416726 3.6872854,3.208344 6.2715551,0.531249 9.6165031,0.06249683 9.6894473,0.05207955 9.7623916,0.020833 9.8353358,-5e-7 c 6.7940792,0 13.5674272,0 20.3406702,0 z M 11.836059,14.468775 c 0,6.177032 0,12.333323 0,18.468765 0.833636,0 1.625588,0 2.459204,0 0,-0.177149 0,-0.333344 0,-0.48954 0,-3.666684 0,-7.343844 0,-11.010527 0,-0.145825 0,-0.29165 0.01048,-0.426999 0.04159,-0.562557 0.489752,-1.02088 1.052416,-1.083317 0.510599,-0.05217 1.052416,0.281174 1.208718,0.802038 0.06254,0.208367 0.07302,0.437475 0.07302,0.656212 0,3.697902 0,7.395909 0,11.093812 0,0.156196 0,0.302021 0,0.458322 0.802355,0 1.563016,0 2.344629,0 0,-0.187519 0,-0.343716 0,-0.48954 0,-3.666684 0,-7.343844 0,-11.010527 0,-0.145825 -0.01048,-0.29165 0.01037,-0.426999 0.04169,-0.552082 0.479381,-0.989663 1.031675,-1.062575 0.510599,-0.06244 1.062787,0.270908 1.219088,0.770925 0.06254,0.208261 0.08339,0.437475 0.08339,0.656213 0,3.708272 0,7.41665 0,11.135399 0,0.145825 0,0.302127 0,0.447952 0.802355,0 1.552645,0 2.344629,0 0,-0.177149 0,-0.322974 0,-0.47917 0,-3.750073 0,-7.50004 0,-11.250006 0,-0.760449 0.489752,-1.291684 1.167023,-1.291684 0.677377,0 1.167129,0.541711 1.177606,1.291684 0,0.10413 0,0.208261 0,0.312497 0,3.645836 0,7.291673 0,10.937509 0,0.156196 0,0.302021 0,0.47917 0.750184,0 1.458779,0 2.167374,0 0,-6.166662 0,-12.322953 0,-18.479244 -5.460289,-0.01037 -10.88936,-0.01037 -16.349616,-0.01037 z m 14.109223,-2.36463 c -0.06254,-0.135348 -0.10413,-0.218737 -0.145825,-0.29165 -0.781507,-1.708311 -0.65653,-3.3645787 0.479276,-4.864576 1.135911,-1.4895843 2.68845,-2.072916 4.553803,-1.7916685 0.791878,0.1249989 1.250412,0.6979176 1.135805,1.4062587 -0.114607,0.6770809 -0.729442,1.0312515 -1.521426,0.9270787 -0.343821,-0.041663 -0.708596,-0.052086 -1.042046,0.020837 -1.167023,0.2708345 -1.93816,1.4895843 -1.698469,2.6563011 0.250061,1.249989 1.375495,2.052026 2.60506,1.864507 2.417542,-0.374934 4.168182,-2.6562166 4.001404,-5.2291387 -0.156301,-2.4374996 -2.302828,-4.4479268 -4.803759,-4.4583398 -6.325185,-0.010424 -12.660847,-0.010424 -18.986021,0 -2.4488019,0 -4.5328929,1.9166568 -4.7933989,4.3437434 -0.2709297,2.489586 1.4067561,4.8021291 3.834721,5.3228871 1.4588529,0.312498 2.8030989,-0.78119 2.7926759,-2.2707955 0,-1.4479109 -1.302552,-2.5208358 -2.7405789,-2.270838 C 8.8037139,7.6145868 8.168063,7.2395901 8.0638585,6.5520962 7.9492409,5.833342 8.4181561,5.2708363 9.2413794,5.1458375 12.513383,4.6458419 15.201854,7.3750021 14.618342,10.625048 c -0.09386,0.499911 -0.302232,0.97908 -0.468904,1.479097 3.907644,0 7.825658,0 11.795844,0 z M 9.7623916,37.645847 c 6.8358054,0 13.6612194,0 20.5282214,0 0,-0.38541 0,-0.760343 0,-1.135382 0,-0.916644 -0.270908,-1.187553 -1.1775,-1.187553 -6.064647,0 -12.139771,0 -18.204471,0 -0.125042,0 -0.260517,-0.01037 -0.385558,0.01048 -0.375145,0.06244 -0.6981718,0.249955 -0.7398558,0.645841 -0.052097,0.541606 -0.020837,1.093688 -0.020837,1.666617 z"
     fill="white"
     id="path2"
     style="fill:#000000;stroke-width:1.05824" />
</svg>
