<svg width="32" height="39" viewBox="0 0 32 39" fill="none" xmlns="http://www.w3.org/2000/svg">
<path d="M25.616 0.549866C26.0788 0.658143 26.5515 0.736893 27.0044 0.884545C30.0176 1.85904 31.8984 4.65458 31.7408 7.88322C31.5931 10.8363 29.3086 13.4448 26.2954 14.0747C26.197 14.0944 26.1083 14.124 25.9902 14.1535C25.9902 20.0694 25.9902 25.9853 25.9902 31.911C26.9552 32.3343 27.6346 33.0332 27.8513 34.0864C27.9497 34.5589 27.9202 35.0609 27.93 35.5531C27.9399 36.0846 27.9399 36.6063 27.93 37.1379C27.9202 37.9057 27.4771 38.3486 26.709 38.3486C19.57 38.3486 12.4309 38.3486 5.29185 38.3486C4.57302 38.3486 4.10036 37.9352 4.08067 37.2462C4.06098 36.3603 4.05113 35.4744 4.09051 34.5885C4.1496 33.2891 4.84874 32.4229 6.02053 31.8913C6.02053 25.9853 6.02053 20.0891 6.02053 14.1633C5.66604 14.0649 5.31154 13.9862 4.9669 13.868C1.91434 12.8542 -0.0156682 9.91097 0.279741 6.73154C0.584997 3.58165 3.02705 1.05188 6.18792 0.608924C6.25685 0.59908 6.32578 0.569553 6.39471 0.549866C12.8149 0.549866 19.2155 0.549866 25.616 0.549866ZM8.28533 14.2224C8.28533 20.0595 8.28533 25.877 8.28533 31.6748C9.07309 31.6748 9.82146 31.6748 10.6092 31.6748C10.6092 31.5074 10.6092 31.3598 10.6092 31.2122C10.6092 27.7473 10.6092 24.2725 10.6092 20.8076C10.6092 20.6698 10.6092 20.532 10.6191 20.4041C10.6584 19.8725 11.0819 19.4394 11.6136 19.3804C12.0961 19.3311 12.6081 19.6461 12.7558 20.1383C12.8149 20.3352 12.8248 20.5517 12.8248 20.7584C12.8248 24.2528 12.8248 27.7473 12.8248 31.2417C12.8248 31.3893 12.8248 31.5271 12.8248 31.6748C13.583 31.6748 14.3018 31.6748 15.0404 31.6748C15.0404 31.4976 15.0404 31.35 15.0404 31.2122C15.0404 27.7473 15.0404 24.2725 15.0404 20.8076C15.0404 20.6698 15.0305 20.532 15.0502 20.4041C15.0896 19.8824 15.5032 19.4689 16.0251 19.4C16.5076 19.341 17.0294 19.656 17.1771 20.1285C17.2362 20.3253 17.2559 20.5419 17.2559 20.7486C17.2559 24.2528 17.2559 27.7571 17.2559 31.2712C17.2559 31.409 17.2559 31.5567 17.2559 31.6945C18.0141 31.6945 18.7231 31.6945 19.4715 31.6945C19.4715 31.5271 19.4715 31.3893 19.4715 31.2417C19.4715 27.698 19.4715 24.1544 19.4715 20.6108C19.4715 19.8922 19.9343 19.3902 20.5743 19.3902C21.2144 19.3902 21.6772 19.9021 21.6871 20.6108C21.6871 20.7092 21.6871 20.8076 21.6871 20.9061C21.6871 24.3513 21.6871 27.7965 21.6871 31.2417C21.6871 31.3893 21.6871 31.5271 21.6871 31.6945C22.396 31.6945 23.0656 31.6945 23.7352 31.6945C23.7352 25.8672 23.7352 20.0497 23.7352 14.2322C18.5754 14.2224 13.4451 14.2224 8.28533 14.2224ZM21.6181 11.9879C21.559 11.86 21.5197 11.7812 21.4803 11.7123C20.7418 10.098 20.8599 8.53288 21.9332 7.11543C23.0066 5.70782 24.4737 5.15659 26.2364 5.42236C26.9847 5.54048 27.418 6.08187 27.3097 6.75123C27.2014 7.39105 26.6204 7.72573 25.872 7.62729C25.5471 7.58792 25.2024 7.57807 24.8873 7.64698C23.7845 7.90291 23.0558 9.05459 23.2823 10.1571C23.5186 11.3383 24.5821 12.0962 25.744 11.919C28.0285 11.5647 29.6828 9.40896 29.5252 6.97763C29.3775 4.67427 27.3491 2.77448 24.9858 2.76464C19.0087 2.75479 13.0217 2.75479 7.04461 2.76464C4.73057 2.76464 2.76117 4.57582 2.515 6.86934C2.25898 9.22192 3.84434 11.4072 6.13869 11.8993C7.51726 12.1946 8.78753 11.1611 8.77768 9.75347C8.77768 8.38524 7.54681 7.37136 6.18792 7.6076C5.41986 7.74541 4.81919 7.39105 4.72072 6.74139C4.61241 6.06219 5.05552 5.53064 5.83344 5.41252C8.92538 4.94004 11.4659 7.51901 10.9145 10.5902C10.8258 11.0626 10.6289 11.5154 10.4714 11.9879C14.164 11.9879 17.8664 11.9879 21.6181 11.9879ZM6.32578 36.124C12.7854 36.124 19.2352 36.124 25.7243 36.124C25.7243 35.7598 25.7243 35.4055 25.7243 35.0511C25.7243 34.1849 25.4683 33.9289 24.6116 33.9289C18.8807 33.9289 13.1399 33.9289 7.40895 33.9289C7.29079 33.9289 7.16277 33.9191 7.04461 33.9388C6.69011 33.9978 6.38486 34.175 6.34547 34.5491C6.29624 35.0609 6.32578 35.5826 6.32578 36.124Z" fill="white"/>
</svg>
