<svg width="16" height="16" fill="none" xmlns="http://www.w3.org/2000/svg"><path d="M6.376 8.132a.42.42 0 0 0 .565 0l.283-.265a.359.359 0 0 0 0-.53L6.331 6.5l.893-.837a.359.359 0 0 0 0-.53l-.283-.266a.42.42 0 0 0-.566 0L4.917 6.235a.359.359 0 0 0 0 .53l1.459 1.367zm2.4-.264.283.265a.42.42 0 0 0 .566 0l1.458-1.368a.359.359 0 0 0 0-.53L9.624 4.868a.42.42 0 0 0-.565 0l-.283.265a.359.359 0 0 0 0 .53l.893.837-.893.837a.359.359 0 0 0 0 .53zM15.6 11.75H9.539c-.019.464-.368.75-.819.75H7.2c-.467 0-.825-.41-.82-.75H.4c-.22 0-.4.169-.4.375v.375c0 .825.72 1.5 1.6 1.5h12.8c.88 0 1.6-.675 1.6-1.5v-.375c0-.206-.18-.375-.4-.375zm-1.2-8.625C14.4 2.506 13.86 2 13.2 2H2.8c-.66 0-1.2.506-1.2 1.125V11h12.8V3.125zM12.8 9.5H3.2v-6h9.6v6z" fill="#6E6CFF"/></svg>