<?xml version="1.0" encoding="UTF-8" standalone="no"?>
<svg
   width="40"
   height="40"
   viewBox="0 0 40 40"
   fill="none"
   version="1.1"
   id="svg10"
   sodipodi:docname="Informatik.svg"
   inkscape:version="1.2.2 (732a01da63, 2022-12-09)"
   xmlns:inkscape="http://www.inkscape.org/namespaces/inkscape"
   xmlns:sodipodi="http://sodipodi.sourceforge.net/DTD/sodipodi-0.dtd"
   xmlns="http://www.w3.org/2000/svg"
   xmlns:svg="http://www.w3.org/2000/svg">
  <defs
     id="defs14" />
  <sodipodi:namedview
     id="namedview12"
     pagecolor="#ffffff"
     bordercolor="#000000"
     borderopacity="0.25"
     inkscape:showpageshadow="2"
     inkscape:pageopacity="0.0"
     inkscape:pagecheckerboard="0"
     inkscape:deskcolor="#d1d1d1"
     showgrid="false"
     inkscape:zoom="12.455882"
     inkscape:cx="30.387249"
     inkscape:cy="10.276269"
     inkscape:window-width="1920"
     inkscape:window-height="1027"
     inkscape:window-x="-8"
     inkscape:window-y="-8"
     inkscape:window-maximized="1"
     inkscape:current-layer="svg10" />
  <path
     d="m 39.999998,4.5200504 c 0,7.9679576 0,15.9359266 0,23.9039266 -0.06254,0.166588 -0.114614,0.343634 -0.17715,0.510327 -0.416732,1.062379 -1.344105,1.645699 -2.667294,1.645699 -3.771817,0 -7.554092,0 -11.325909,0 -0.145882,0 -0.302118,0 -0.458457,0 0.01046,0.0937 0.01046,0.13532 0.02081,0.177046 0.479373,1.447739 0.948183,2.885124 1.448366,4.32251 0.03127,0.0937 0.218771,0.197856 0.333386,0.208314 0.718954,0.02081 1.427451,0.01035 2.146405,0.01035 0.739765,0 1.250301,0.479164 1.260758,1.145726 0.01035,0.687477 -0.510536,1.187451 -1.260758,1.197804 -0.510536,0.01046 -1.010719,0 -1.521255,0 -5.688994,0 -11.377987,0 -17.077333,0 -0.781491,0 -1.312868,-0.499974 -1.302453,-1.197804 0.01043,-0.687373 0.53142,-1.145726 1.302453,-1.145726 0.687686,0 1.385725,-0.01035 2.073411,0 0.229229,0 0.343844,-0.06243 0.416837,-0.29166 0.448,-1.374849 0.906458,-2.739242 1.364915,-4.103738 0.03127,-0.0937 0.04162,-0.187504 0.06254,-0.322824 -0.187608,0 -0.343843,0 -0.500183,0 -3.771817,0 -7.5540392,0 -11.3258562,0 -1.760868,0 -2.8132288,-1.062379 -2.8132288,-2.833046 0,-7.520104 0,-15.050666 0,-22.5707184 0,-0.2187294 0,-0.4478745 0.0312586,-0.6561882 C 0.2709,3.176432 1.3128451,2.3535981 2.7611379,2.3535981 c 11.4821021,0 22.9747031,0 34.4568471,0 0.104261,0 0.208418,0 0.312575,0 0.969098,0.07291 1.708863,0.5207801 2.16732,1.3852758 0.135425,0.2395608 0.197961,0.5103686 0.302118,0.7811765 z M 37.655632,23.497337 c 0,-0.166693 0,-0.302014 0,-0.427085 0,-5.947295 0,-11.89461 0,-17.8419349 0,-0.5416157 -0.01046,-0.5520314 -0.552261,-0.5520314 -11.409151,0 -22.818406,0 -34.2172031,0 -0.5418143,0 -0.55223,0.010405 -0.55223,0.5416052 0,5.9577411 0,11.9258771 0,17.8836291 0,0.124967 0.010416,0.250039 0.020842,0.395817 11.7634931,0 23.5061331,0 35.3008521,0 z m -35.3216941,2.38515 c 0,0.69783 -0.010416,1.37485 0.010416,2.041516 0,0.104157 0.156298,0.239582 0.2709124,0.29166 0.1041882,0.05208 0.2604758,0.02081 0.3855163,0.02081 11.3259084,0 22.6517124,0 33.9776204,0 0.124968,0 0.27085,0.03127 0.385464,-0.02081 0.114615,-0.04172 0.260497,-0.166692 0.270955,-0.260392 0.02081,-0.687477 0.01035,-1.374954 0.01035,-2.083137 -11.763451,0.01035 -23.506091,0.01035 -35.3112358,0.01035 z m 22.0369881,9.394928 c -0.01046,-0.07289 0,-0.145778 -0.02081,-0.197856 -0.468915,-1.416575 -0.948183,-2.833046 -1.406641,-4.249621 -0.07289,-0.229124 -0.208418,-0.249935 -0.406379,-0.249935 -1.67749,0 -3.35498,0.01035 -5.032575,0 -0.27085,0 -0.385464,0.0937 -0.458458,0.343634 -0.427189,1.333229 -0.885647,2.666458 -1.323189,3.989229 -0.04173,0.114614 -0.06254,0.239582 -0.0938,0.375007 2.917438,-0.01046 5.824418,-0.01046 8.741856,-0.01046 z"
     fill="#ffffff"
     id="path2"
     style="fill:#000000;stroke-width:1.04575" />
  <path
     d="m 12.242822,14.217023 c 0.750222,0.749908 1.479634,1.479006 2.219398,2.208104 0.312575,0.312471 0.489726,0.666563 0.406275,1.124915 -0.177046,0.895687 -1.239843,1.301857 -1.896262,0.676915 -1.114876,-1.051921 -2.18813,-2.156026 -3.261281,-3.249673 -0.4272,-0.437438 -0.406358,-1.114457 0.02081,-1.551895 1.05234,-1.083211 2.125594,-2.1456 3.209202,-3.197584 0.458458,-0.4478644 1.187765,-0.4062121 1.625412,0.03125 0.448,0.458279 0.458458,1.166546 -0.01046,1.645668 -0.656419,0.677019 -1.344105,1.343623 -2.010876,2.020643 -0.104262,0.07289 -0.187608,0.166588 -0.302222,0.29166 z"
     fill="#ffffff"
     id="path4"
     style="fill:#000000;stroke-width:1.04575" />
  <path
     d="m 27.757279,14.206565 c -0.781386,-0.781176 -1.542065,-1.520732 -2.28183,-2.281024 -0.645961,-0.666594 -0.42719,-1.666489 0.42719,-1.9581285 0.427189,-0.1458196 0.833568,-0.062505 1.156601,0.2499655 1.062797,1.051974 2.135948,2.103959 3.177934,3.16639 0.479268,0.489516 0.468811,1.156078 -0.01046,1.645595 -1.041987,1.062483 -2.094327,2.103947 -3.146667,3.145516 -0.479268,0.468706 -1.198222,0.437543 -1.646222,-0.02081 -0.448105,-0.458249 -0.448105,-1.166536 0.02081,-1.645595 0.739764,-0.760366 1.500339,-1.510275 2.30264,-2.301909 z"
     fill="#ffffff"
     id="path6"
     style="fill:#000000;stroke-width:1.04575" />
  <path
     d="m 21.567998,9.9049288 c 0.791843,0 1.344105,0.7603452 1.104418,1.5102742 -0.03127,0.08332 -0.06254,0.166651 -0.104157,0.249977 -1.021176,2.031059 -2.03179,4.07247 -3.052967,6.103529 -0.197961,0.395817 -0.500078,0.666667 -0.948078,0.718745 -0.448105,0.05208 -0.823216,-0.104157 -1.083608,-0.468706 -0.270954,-0.385464 -0.302222,-0.791634 -0.0938,-1.218614 0.552261,-1.104105 1.104418,-2.208209 1.65668,-3.312209 0.479268,-0.958254 0.948183,-1.906071 1.427451,-2.864314 0.250035,-0.489537 0.614688,-0.7186822 1.094061,-0.7186822 z"
     fill="#ffffff"
     id="path8"
     style="fill:#000000;stroke-width:1.04575" />
</svg>
