<svg width="40" height="34" viewBox="0 0 40 34" fill="none" xmlns="http://www.w3.org/2000/svg">
<path d="M39.125 2.19667C39.125 9.81603 39.125 17.4354 39.125 25.0548C39.0652 25.2141 39.0154 25.3834 38.9556 25.5428C38.5571 26.5587 37.6703 27.1165 36.405 27.1165C32.7982 27.1165 29.1814 27.1165 25.5746 27.1165C25.4351 27.1165 25.2857 27.1165 25.1362 27.1165C25.1462 27.2061 25.1462 27.2459 25.1561 27.2858C25.6145 28.6702 26.0628 30.0447 26.5411 31.4192C26.571 31.5088 26.7503 31.6084 26.8599 31.6184C27.5474 31.6383 28.2249 31.6283 28.9124 31.6283C29.6198 31.6283 30.108 32.0865 30.118 32.7239C30.1279 33.3813 29.6298 33.8594 28.9124 33.8693C28.4242 33.8793 27.9459 33.8693 27.4577 33.8693C22.0176 33.8693 16.5775 33.8693 11.1275 33.8693C10.3802 33.8693 9.87207 33.3912 9.88203 32.7239C9.892 32.0666 10.3902 31.6283 11.1275 31.6283C11.7851 31.6283 12.4526 31.6184 13.1102 31.6283C13.3294 31.6283 13.439 31.5686 13.5088 31.3494C13.9372 30.0347 14.3756 28.73 14.814 27.4252C14.8439 27.3356 14.8538 27.2459 14.8738 27.1165C14.6944 27.1165 14.545 27.1165 14.3955 27.1165C10.7887 27.1165 7.17195 27.1165 3.56515 27.1165C1.88132 27.1165 0.875 26.1006 0.875 24.4074C0.875 17.2163 0.875 10.0152 0.875 2.82415C0.875 2.61499 0.875 2.39587 0.904891 2.19667C1.13405 0.911835 2.13041 0.125 3.51534 0.125C14.4951 0.125 25.4849 0.125 36.4647 0.125C36.5644 0.125 36.664 0.125 36.7636 0.125C37.6903 0.19472 38.3977 0.622996 38.8361 1.44967C38.9656 1.67875 39.0254 1.93771 39.125 2.19667ZM36.8832 20.3437C36.8832 20.1843 36.8832 20.0549 36.8832 19.9353C36.8832 14.2482 36.8832 8.56108 36.8832 2.87395C36.8832 2.35603 36.8732 2.34607 36.3551 2.34607C25.4451 2.34607 14.535 2.34607 3.6349 2.34607C3.11679 2.34607 3.10683 2.35602 3.10683 2.86398C3.10683 8.56107 3.10683 14.2681 3.10683 19.9652C3.10683 20.0847 3.11679 20.2043 3.12676 20.3437C14.3756 20.3437 25.6045 20.3437 36.8832 20.3437ZM3.10683 22.6245C3.10683 23.2918 3.09687 23.9392 3.11679 24.5767C3.11679 24.6763 3.26625 24.8058 3.37585 24.8556C3.47548 24.9054 3.62493 24.8755 3.7445 24.8755C14.5749 24.8755 25.4052 24.8755 36.2356 24.8755C36.3551 24.8755 36.4946 24.9054 36.6042 24.8556C36.7138 24.8157 36.8533 24.6962 36.8633 24.6066C36.8832 23.9492 36.8732 23.2918 36.8732 22.6146C25.6244 22.6245 14.3955 22.6245 3.10683 22.6245ZM24.1797 31.6084C24.1697 31.5387 24.1797 31.469 24.1598 31.4192C23.7114 30.0646 23.2531 28.7101 22.8147 27.3555C22.745 27.1364 22.6154 27.1165 22.4261 27.1165C20.822 27.1165 19.2179 27.1264 17.6137 27.1165C17.3547 27.1165 17.2451 27.2061 17.1753 27.4451C16.7668 28.72 16.3284 29.9949 15.91 31.2598C15.8701 31.3694 15.8502 31.4889 15.8203 31.6184C18.6101 31.6084 21.3899 31.6084 24.1797 31.6084Z" fill="white"/>
<path d="M12.5822 11.4694C13.2996 12.1865 13.9971 12.8837 14.7045 13.5809C15.0034 13.8797 15.1728 14.2183 15.093 14.6566C14.9237 15.5131 13.9074 15.9015 13.2797 15.3039C12.2136 14.298 11.1873 13.2422 10.1611 12.1964C9.75259 11.7781 9.77252 11.1307 10.181 10.7124C11.1873 9.67658 12.2136 8.66067 13.2498 7.65471C13.6882 7.22644 14.3856 7.26627 14.8041 7.68459C15.2325 8.12282 15.2425 8.8001 14.7941 9.25826C14.1664 9.90566 13.5088 10.5431 12.8712 11.1905C12.7715 11.2602 12.6918 11.3498 12.5822 11.4694Z" fill="white"/>
<path d="M27.4179 11.4594C26.6707 10.7124 25.9433 10.0052 25.2359 9.27817C24.6182 8.64074 24.8274 7.68459 25.6444 7.40571C26.0529 7.26627 26.4415 7.34594 26.7504 7.64474C27.7667 8.65069 28.7929 9.65665 29.7893 10.6726C30.2476 11.1407 30.2376 11.7781 29.7793 12.2462C28.7829 13.2622 27.7766 14.2581 26.7703 15.2541C26.312 15.7023 25.6245 15.6725 25.1961 15.2342C24.7676 14.796 24.7676 14.1187 25.216 13.6606C25.9234 12.9335 26.6507 12.2164 27.4179 11.4594Z" fill="white"/>
<path d="M21.4994 7.34596C22.2566 7.34596 22.7847 8.07304 22.5555 8.79016C22.5256 8.86983 22.4957 8.94952 22.4559 9.0292C21.4794 10.9714 20.513 12.9235 19.5365 14.8657C19.3472 15.2442 19.0583 15.5032 18.6299 15.553C18.2014 15.6028 17.8427 15.4534 17.5937 15.1048C17.3346 14.7362 17.3047 14.3478 17.504 13.9395C18.0321 12.8837 18.5601 11.8279 19.0882 10.7722C19.5465 9.85587 19.9949 8.94952 20.4532 8.0332C20.6923 7.56508 21.041 7.34596 21.4994 7.34596Z" fill="white"/>
</svg>
