<svg width="16" height="16" fill="none" xmlns="http://www.w3.org/2000/svg"><g clip-path="url(#a)"><path d="m15.78 6.23-.707-.707a.75.75 0 0 0-1.06 0l-.177.177L10.3 2.164l.177-.177a.75.75 0 0 0 0-1.06L9.77.22a.75.75 0 0 0-1.06 0L4.82 4.109a.75.75 0 0 0 0 1.06l.707.708a.75.75 0 0 0 1.06 0l.178-.177 1.237 1.237L5.47 9.47l-.177-.177a1 1 0 0 0-1.414 0L.293 12.879a1 1 0 0 0 0 1.414l1.414 1.414a1 1 0 0 0 1.414 0l3.586-3.586a1 1 0 0 0 0-1.414l-.177-.177 2.533-2.532L10.3 9.235l-.177.177a.75.75 0 0 0 0 1.06l.708.708a.75.75 0 0 0 1.06 0l3.89-3.89a.75.75 0 0 0 0-1.06z" fill="#6E6CFF"/></g><defs><clipPath id="a"><path fill="#fff" d="M0 0h16v16H0z"/></clipPath></defs></svg>