<svg width="40" height="40" viewBox="0 0 40 40" fill="none" xmlns="http://www.w3.org/2000/svg">
<path d="M19.9885 39.0128C18.2258 39.0128 16.4743 39.0128 14.7115 39.0128C13.9705 39.0128 13.4653 38.5639 13.4653 37.9017C13.4653 37.5986 13.5663 37.3293 13.7684 37.1272C13.993 36.8915 14.341 36.7681 14.734 36.7681C15.2505 36.7681 15.7557 36.7681 16.2722 36.7681C16.6539 36.7681 18.2146 36.7681 18.6075 36.7681C18.731 36.7681 18.8321 36.6671 18.8321 36.5436V7.1041C18.8321 7.03676 18.7984 6.96942 18.7535 6.93575C18.7086 6.90207 18.6637 6.87963 18.6075 6.87963C18.5963 6.87963 18.5851 6.87963 18.5738 6.87963C17.6195 7.04798 16.7325 7.40715 15.8455 7.96833C13.8807 9.22537 13.2519 9.50595 11.0176 10.0896C10.9615 10.1008 10.9054 10.1457 10.8829 10.2018C10.8492 10.2579 10.8492 10.3141 10.8605 10.3814C10.8717 10.4263 10.8941 10.4824 10.9054 10.5273C10.939 10.6283 10.9727 10.7406 11.0064 10.8528C11.4106 11.919 11.8036 12.9853 12.1965 14.0515C13.2183 16.8013 14.2737 19.6409 15.374 22.4131C15.8231 23.5355 15.7669 24.6241 15.1831 26.0608C14.2063 28.4851 11.8372 30.0564 9.15383 30.0564C8.85069 30.0564 8.54754 30.0339 8.25562 30.0002C5.44871 29.6299 3.12461 27.2841 2.74287 24.4333C2.65305 23.7712 2.70919 23.2436 2.91128 22.7049C4.06773 19.6858 5.21295 16.6105 6.33571 13.6362C6.695 12.671 7.05427 11.717 7.41355 10.7518C7.42478 10.7069 7.44724 10.662 7.44724 10.6283L7.45848 10.6059C7.48093 10.5498 7.46971 10.4824 7.43603 10.4263C7.40234 10.3702 7.35743 10.3365 7.29006 10.3253C6.99814 10.2579 6.69498 10.1906 6.40306 10.1345C5.7294 9.98857 5.08945 9.86511 4.4607 9.65187C3.42776 9.30393 2.41726 8.84376 1.55273 8.42849C1.23835 8.28258 1.02505 8.03567 0.923997 7.74385C0.834176 7.45204 0.867847 7.149 1.02503 6.85719C1.22713 6.49803 1.57519 6.28478 1.97938 6.28478C2.19271 6.28478 2.40603 6.3409 2.61935 6.45314C4.58419 7.5306 6.65008 8.06933 8.77211 8.06933H8.85069C10.692 8.0581 12.3874 7.54182 13.9031 6.54292C15.576 5.43178 17.0918 4.81448 18.6637 4.57879C18.7759 4.56757 18.8545 4.46655 18.8545 4.35432C18.8545 4.11862 18.8545 3.8717 18.8545 3.636C18.8545 3.09727 18.8545 2.53609 18.8545 1.99736C18.8658 1.50352 19.1689 1.08825 19.6292 0.931118C19.7415 0.897447 19.865 0.875 19.9885 0.875C20.3478 0.875 20.6734 1.04335 20.8531 1.33516C20.9878 1.54841 21.0776 1.82901 21.0888 2.08715C21.1113 2.61466 21.1113 3.14217 21.1001 3.65846C21.1001 3.86048 21.1001 4.06251 21.1001 4.26454C21.1001 4.36555 21.1674 4.45533 21.2572 4.47777C21.5155 4.55634 21.7737 4.62368 22.032 4.69103C22.6158 4.84816 23.1547 4.99406 23.6824 5.20731C24.401 5.4879 25.0297 5.81339 25.5687 6.18377C27.3651 7.42959 29.3187 8.06933 31.3734 8.06933C32.7207 8.06933 34.1578 7.79997 35.6399 7.25001C36.1788 7.04799 36.6953 6.78984 37.1893 6.54292L37.3352 6.46436C37.571 6.3409 37.8068 6.28478 38.0313 6.28478C38.4355 6.28478 38.7724 6.48681 38.9745 6.84596C39.1204 7.11533 39.1653 7.39591 39.0867 7.66528C38.9969 7.97954 38.7611 8.24891 38.4131 8.43971C36.6503 9.41616 34.7641 9.99979 32.6645 10.2467C32.5972 10.2579 32.541 10.2916 32.4961 10.3477C32.4624 10.4038 32.4512 10.4712 32.4737 10.5385C32.4961 10.5946 32.5073 10.6395 32.5186 10.6844C32.5522 10.7854 32.5859 10.8752 32.6196 10.9762C33.0238 12.0425 33.4168 13.1087 33.8097 14.1862C34.809 16.8911 35.8532 19.6858 36.931 22.4243C37.3689 23.5355 37.3128 24.6129 36.7514 26.0383C35.7858 28.4851 33.4168 30.0676 30.7109 30.0676C30.4078 30.0676 30.1046 30.0451 29.8015 30.0115C27.017 29.6411 24.6929 27.3066 24.2887 24.4782C24.1876 23.816 24.255 23.2436 24.4908 22.6376C25.6472 19.6296 26.7925 16.5544 27.904 13.5913C28.252 12.6486 28.6113 11.7058 28.9594 10.763C28.9931 10.6844 29.0155 10.6171 29.038 10.5273C29.0492 10.4824 29.0605 10.4487 29.0717 10.4038C29.0941 10.3477 29.0829 10.2804 29.0492 10.2243C29.0156 10.1681 28.9594 10.1345 28.9033 10.112C27.3988 9.78655 26.0178 9.21414 24.6705 8.37237C23.9631 7.92343 23.1996 7.55305 22.5484 7.23879C22.3014 7.11533 22.0432 7.04798 21.7625 6.98064C21.639 6.94697 21.5155 6.9133 21.392 6.87963C21.3695 6.8684 21.3471 6.86841 21.3246 6.86841C21.2797 6.86841 21.2348 6.87963 21.1899 6.9133C21.1337 6.9582 21.1001 7.02554 21.1001 7.09288V36.5548C21.1001 36.6783 21.1899 36.7681 21.3134 36.7793C21.3583 36.7793 21.4144 36.7793 21.4593 36.7905C21.5604 36.8018 21.6727 36.8018 21.7737 36.8018H22.279H23.8396C24.2887 36.8018 24.7378 36.8018 25.1869 36.8018C25.5686 36.8018 25.8943 36.914 26.1188 37.1272C26.3434 37.3293 26.4556 37.6099 26.4556 37.9353C26.4556 38.5975 25.9504 39.0465 25.2094 39.0465C23.4803 39.0128 21.74 39.0128 19.9885 39.0128ZM26.9833 24.7027C26.916 24.7027 26.8486 24.7364 26.8037 24.7925C26.7588 24.8486 26.7476 24.9272 26.77 24.9945C27.2977 26.6219 28.9594 27.8116 30.7334 27.8116H30.7783C32.5747 27.7892 34.2364 26.6107 34.7304 24.9945C34.7529 24.9272 34.7416 24.8486 34.6967 24.7925C34.6518 24.7364 34.5845 24.7027 34.5171 24.7027H26.9833ZM5.4375 24.6915C5.37014 24.6915 5.30276 24.7252 5.25785 24.7813C5.21294 24.8374 5.20172 24.9047 5.21295 24.9721C5.60592 26.5322 7.3911 27.8116 9.18752 27.8116C10.9727 27.8116 12.7579 26.5434 13.1621 24.9721C13.1846 24.9047 13.1621 24.8374 13.1172 24.7813C13.0723 24.7252 13.0049 24.6915 12.9376 24.6915H5.4375ZM30.8007 12.9067C30.7895 12.9067 30.7895 12.9067 30.7783 12.9067L30.6772 12.9179C30.5874 12.9292 30.52 12.9853 30.4864 13.0638L27.0956 22.0988C27.0732 22.1662 27.0844 22.2447 27.1181 22.3009C27.163 22.357 27.2303 22.4019 27.2977 22.4019H34.1915C34.2701 22.4019 34.3374 22.3682 34.3711 22.3009C34.416 22.2447 34.4273 22.1662 34.3936 22.0988L30.9916 13.0526C30.9691 12.974 30.8906 12.9067 30.8007 12.9067ZM9.14262 12.9292C9.0528 12.9292 8.9742 12.9853 8.94052 13.0751L5.54978 22.0876C5.52732 22.155 5.53855 22.2335 5.57223 22.2896C5.61714 22.3458 5.68452 22.3907 5.75188 22.3907H12.6344C12.713 22.3907 12.7804 22.357 12.8141 22.2896C12.8477 22.2223 12.8702 22.155 12.8365 22.0876L9.44576 13.0638C9.41208 12.974 9.3335 12.9179 9.23245 12.9179C9.24368 12.9179 9.14262 12.9292 9.14262 12.9292Z" fill="white"/>
</svg>
