<?xml version="1.0" encoding="UTF-8" standalone="no"?>
<svg
   width="40"
   height="40"
   viewBox="0 0 40 40"
   fill="none"
   version="1.1"
   id="svg4"
   sodipodi:docname="Jura.svg"
   inkscape:version="1.2.2 (732a01da63, 2022-12-09)"
   xmlns:inkscape="http://www.inkscape.org/namespaces/inkscape"
   xmlns:sodipodi="http://sodipodi.sourceforge.net/DTD/sodipodi-0.dtd"
   xmlns="http://www.w3.org/2000/svg"
   xmlns:svg="http://www.w3.org/2000/svg">
  <defs
     id="defs8" />
  <sodipodi:namedview
     id="namedview6"
     pagecolor="#ffffff"
     bordercolor="#000000"
     borderopacity="0.25"
     inkscape:showpageshadow="2"
     inkscape:pageopacity="0.0"
     inkscape:pagecheckerboard="0"
     inkscape:deskcolor="#d1d1d1"
     showgrid="false"
     inkscape:zoom="10.5875"
     inkscape:cx="35.27745"
     inkscape:cy="26.257379"
     inkscape:window-width="1920"
     inkscape:window-height="1027"
     inkscape:window-x="-8"
     inkscape:window-y="-8"
     inkscape:window-maximized="1"
     inkscape:current-layer="svg4" />
  <path
     d="m 19.987984,39.964686 c -1.843347,0 -3.674982,0 -5.518434,0 -0.774903,0 -1.303217,-0.470405 -1.303217,-1.164326 0,-0.317618 0.105621,-0.599819 0.316968,-0.811601 0.234875,-0.246989 0.598797,-0.3763 1.009778,-0.3763 0.540131,0 1.068445,0 1.608575,0 0.399165,0 2.031271,0 2.442146,0 0.129151,0 0.234876,-0.105839 0.234876,-0.235254 V 6.5274872 c 0,-0.070566 -0.03524,-0.1411314 -0.0822,-0.1764144 -0.04695,-0.035293 -0.09391,-0.058809 -0.15268,-0.058809 -0.01171,0 -0.02342,0 -0.03524,0 -0.997962,0.1764147 -1.925544,0.5527897 -2.853127,1.1408515 -2.054694,1.3172551 -2.712262,1.6112755 -5.048787,2.2228842 -0.05867,0.01173 -0.117334,0.05879 -0.140863,0.117574 -0.03524,0.05879 -0.03524,0.11768 -0.02342,0.188203 0.01171,0.04706 0.03514,0.1058385 0.04695,0.1528895 0.03514,0.105837 0.07038,0.223517 0.105621,0.341092 0.422693,1.117273 0.833675,2.234651 1.24455,3.351924 1.068551,2.881522 2.172237,5.857146 3.322878,8.762139 0.469647,1.176166 0.410876,2.316912 -0.199634,3.822434 -1.021491,2.540429 -3.498982,4.186998 -6.3051223,4.186998 -0.3170093,0 -0.6340291,-0.02358 -0.9393051,-0.05889 C 4.782966,30.132323 2.3525332,27.674154 1.9533278,24.686794 1.8593978,23.992978 1.9181068,23.440105 2.1294429,22.8756 3.3388031,19.711878 4.5364195,16.489265 5.7105484,13.372489 6.0862767,12.361053 6.4619841,11.361355 6.8377019,10.34992 c 0.011744,-0.04705 0.035231,-0.0941 0.035231,-0.129417 l 0.011754,-0.02347 c 0.023478,-0.05879 0.011744,-0.12942 -0.023477,-0.188207 C 6.8259789,9.9500365 6.7790139,9.9147265 6.7085616,9.9029885 6.403286,9.8323615 6.0862558,9.7618375 5.7809797,9.7030495 5.0764983,9.5501295 4.4072691,9.4207555 3.7497523,9.1973005 2.669553,8.8326939 1.6128204,8.3504808 0.70873615,7.9153184 0.37997255,7.762419 0.15691358,7.5036815 0.05123718,7.1978826 -0.04269333,6.8920943 -0.00748181,6.5745381 0.15689266,6.2687497 0.3682392,5.8923851 0.73222374,5.66892 1.1549063,5.66892 c 0.2230903,0 0.4461703,0.058809 0.6692501,0.1764248 2.0547359,1.1290727 4.2151451,1.6936091 6.4342628,1.6936091 h 0.082175 C 10.266148,7.5271858 12.039116,6.986175 13.624163,5.9394254 c 1.749439,-1.1643661 3.334591,-1.811236 4.978409,-2.0582161 0.117333,-0.011757 0.199529,-0.1176166 0.199529,-0.2352226 0,-0.2469906 0,-0.5057386 0,-0.7527291 0,-0.5645364 0,-1.1525982 0,-1.7171346 0.01182,-0.517496 0.328784,-0.9526584 0.810145,-1.11731732 C 19.729684,0.02352176 19.858834,-5e-7 19.987984,-5e-7 c 0.375739,0 0.716236,0.1764144 0.904157,0.4822027 0.140863,0.2234651 0.234772,0.5175065 0.246484,0.7880119 0.02353,0.552779 0.02353,1.1055578 0.01182,1.6465793 0,0.2116972 0,0.4234049 0,0.6351126 0,0.1058486 0.07038,0.1999293 0.164289,0.2234442 0.270117,0.082334 0.54013,0.1528993 0.810248,0.2234756 0.61051,0.1646569 1.174066,0.3175458 1.725909,0.541011 0.751478,0.2940308 1.408943,0.6351125 1.972603,1.0232346 1.878589,1.3054975 3.921571,1.9758825 6.070279,1.9758825 1.408942,0 2.911791,-0.282263 4.461701,-0.8585673 0.563557,-0.2116972 1.103687,-0.4822131 1.620289,-0.7409612 l 0.152575,-0.082323 c 0.246589,-0.129374 0.493177,-0.1881823 0.727949,-0.1881823 0.422692,0 0.775006,0.2117077 0.986352,0.5880617 0.152576,0.2822735 0.199531,0.5762939 0.117334,0.8585673 -0.09391,0.3293137 -0.340497,0.6115871 -0.704418,0.8115269 -1.843453,1.0232241 -3.81595,1.6348114 -6.011611,1.8935494 -0.07038,0.01173 -0.129152,0.04705 -0.176106,0.105838 -0.03524,0.05879 -0.04695,0.1294145 -0.02342,0.1999385 0.02342,0.05879 0.03514,0.105838 0.04695,0.152889 0.03514,0.105838 0.07038,0.19994 0.105622,0.305777 0.422693,1.117379 0.833673,2.234653 1.244549,3.363767 1.045021,2.834471 2.136995,5.763043 3.264107,8.632724 0.457935,1.164428 0.399268,2.293438 -0.187817,3.787118 -1.009779,2.564007 -3.487166,4.222312 -6.316867,4.222312 -0.316967,0 -0.634039,-0.02358 -0.951006,-0.05879 -2.911898,-0.388143 -5.34233,-2.834471 -5.765024,-5.798357 -0.105726,-0.693921 -0.03524,-1.29374 0.211347,-1.928769 1.209307,-3.15209 2.407008,-6.374599 3.569362,-9.479638 0.363921,-0.987857 0.73966,-1.975818 1.103686,-2.963782 0.03524,-0.08237 0.05867,-0.152889 0.0822,-0.24699 0.01171,-0.04706 0.02353,-0.08237 0.03524,-0.1294165 0.02342,-0.05879 0.01171,-0.129311 -0.02353,-0.188098 -0.03514,-0.05889 -0.09391,-0.0941 -0.152576,-0.117679 C 27.737322,9.3384325 26.293138,8.7386028 24.884197,7.8565101 24.144431,7.3860649 23.346,6.9979429 22.665005,6.6686292 22.406704,6.5392552 22.136691,6.4686789 21.843149,6.3981132 c -0.12915,-0.035283 -0.258301,-0.070566 -0.387451,-0.1058486 -0.02353,-0.011768 -0.04695,-0.011757 -0.07048,-0.011757 -0.04695,0 -0.09391,0.011757 -0.140864,0.047041 -0.05877,0.047051 -0.09391,0.1176166 -0.09391,0.1881823 V 37.388941 c 0,0.129416 0.09391,0.223518 0.22306,0.235254 0.04695,0 0.105621,0 0.152575,0.01173 0.105725,0.01185 0.223163,0.01185 0.328784,0.01185 h 0.528419 1.632001 c 0.469647,0 0.939295,0 1.408942,0 0.399163,0 0.739765,0.117575 0.974537,0.340986 0.234876,0.211782 0.352209,0.505824 0.352209,0.846811 0,0.693921 -0.528315,1.164429 -1.303217,1.164429 -1.80821,-0.03531 -3.628133,-0.03531 -5.459768,-0.03531 z m 7.314828,-14.995588 c -0.07038,0 -0.140863,0.03531 -0.187817,0.0941 -0.04695,0.05879 -0.05867,0.141151 -0.03524,0.211676 0.551843,1.705356 2.28957,2.952045 4.144734,2.952045 h 0.04696 c 1.878589,-0.02348 3.616317,-1.258426 4.132918,-2.952045 0.02353,-0.07052 0.01171,-0.15289 -0.03524,-0.211676 -0.04695,-0.05879 -0.117333,-0.0941 -0.187817,-0.0941 z M 4.7712432,24.957362 c -0.070442,0 -0.1409047,0.03531 -0.1878694,0.0941 -0.046965,0.05879 -0.058698,0.129312 -0.046954,0.199941 0.4109493,1.634832 2.2778053,2.975518 4.1564156,2.975518 1.8668556,0 3.7337316,-1.32895 4.1564256,-2.975518 0.02353,-0.07062 0,-0.141153 -0.04695,-0.199941 -0.04695,-0.05879 -0.117439,-0.0941 -0.187818,-0.0941 z M 31.294867,12.608044 c -0.01171,0 -0.01171,0 -0.02342,0 l -0.105726,0.01173 c -0.09391,0.01185 -0.164392,0.07062 -0.199529,0.15289 l -3.545937,9.467797 c -0.02343,0.07062 -0.01171,0.152888 0.02353,0.21178 0.04695,0.05879 0.117334,0.105838 0.187817,0.105838 h 7.209207 c 0.0822,0 0.152576,-0.03531 0.187818,-0.105838 0.04695,-0.05889 0.05877,-0.141153 0.02353,-0.21178 l -3.557649,-9.47953 c -0.02353,-0.08237 -0.105622,-0.152889 -0.199635,-0.152889 z m -22.6489861,0.02358 c -0.093929,0 -0.1761256,0.05879 -0.2113465,0.152889 l -3.5458741,9.444218 c -0.023488,0.07062 -0.011744,0.152889 0.023477,0.211677 0.046965,0.05889 0.1174275,0.105942 0.1878694,0.105942 h 7.1974103 c 0.0822,0 0.15268,-0.03531 0.187922,-0.105942 0.03514,-0.07052 0.05867,-0.141048 0.02342,-0.211677 l -3.5458688,-9.45606 c -0.035221,-0.0941 -0.1173962,-0.15289 -0.2230694,-0.15289 0.011744,0 -0.09394,0.01185 -0.09394,0.01185 z"
     fill="white"
     id="path2"
     style="fill:#000000;stroke-width:1.04682" />
</svg>
