<?xml version="1.0" encoding="UTF-8" standalone="no"?>
<!-- Uploaded to: SVG Repo, www.svgrepo.com, Generator: SVG Repo Mixer Tools -->

<svg
   fill="#000000"
   height="40"
   width="40"
   version="1.1"
   id="Layer_1"
   viewBox="0 0 25.6 25.6"
   xml:space="preserve"
   sodipodi:docname="Kommunikation.svg"
   inkscape:version="1.2.2 (732a01da63, 2022-12-09)"
   xmlns:inkscape="http://www.inkscape.org/namespaces/inkscape"
   xmlns:sodipodi="http://sodipodi.sourceforge.net/DTD/sodipodi-0.dtd"
   xmlns="http://www.w3.org/2000/svg"
   xmlns:svg="http://www.w3.org/2000/svg"><defs
   id="defs17">
	
</defs><sodipodi:namedview
   id="namedview15"
   pagecolor="#ffffff"
   bordercolor="#000000"
   borderopacity="0.25"
   inkscape:showpageshadow="2"
   inkscape:pageopacity="0.0"
   inkscape:pagecheckerboard="0"
   inkscape:deskcolor="#d1d1d1"
   showgrid="false"
   inkscape:zoom="16.94"
   inkscape:cx="5.1062573"
   inkscape:cy="20.484061"
   inkscape:window-width="1920"
   inkscape:window-height="1027"
   inkscape:window-x="-8"
   inkscape:window-y="-8"
   inkscape:window-maximized="1"
   inkscape:current-layer="Layer_1" />
<g
   id="g10"
   style="fill:#000000;stroke-width:6.11839205;stroke-dasharray:none"
   transform="matrix(0.05000013,0,0,0.05,-7.4289268e-5,0)">
		<g
   id="g8"
   style="fill:#000000;stroke-width:6.11839205;stroke-dasharray:none">
			<path
   d="m 170.624,314.906 c -1.399,-14.353 -12.143,-24.772 -25.557,-24.772 h -102.4 c -13.201,0 -23.697,10.086 -25.566,24.832 L 6.263,434.142 c -0.418,4.693 3.038,8.849 7.731,9.276 4.668,0.375 8.841,-3.038 9.276,-7.731 L 34.065,316.809 c 0.563,-4.437 3.149,-9.609 8.602,-9.609 h 102.4 c 5.299,0 8.124,4.702 8.568,9.301 l 16.222,178.432 H 17.834 l 1.468,-17.067 h 125.764 c 4.71,0 8.533,-3.823 8.533,-8.533 0,-4.71 -3.823,-8.533 -8.533,-8.533 H 11.469 c -4.429,0 -8.124,3.388 -8.499,7.808 l -2.935,34.133 c -0.213,2.372 0.597,4.736 2.21,6.494 1.621,1.758 3.9,2.765 6.289,2.765 H 179.2 c 2.398,0 4.685,-1.007 6.298,-2.782 1.621,-1.766 2.415,-4.139 2.202,-6.519 z"
   id="path2"
   style="fill:#000000;stroke-width:6.11839205;stroke-dasharray:none" />
			<path
   d="M 509.798,2.816 C 508.185,1.024 505.881,0 503.466,0 H 332.8 c -2.398,0 -4.685,1.007 -6.298,2.782 -1.621,1.766 -2.423,4.13 -2.202,6.519 l 17.075,187.793 c 1.391,14.353 12.143,24.772 25.557,24.772 h 102.4 c 13.193,0 23.936,-10.359 25.566,-24.832 L 505.736,77.85 c 0.418,-4.685 -3.038,-8.841 -7.731,-9.267 -4.753,-0.384 -8.841,3.038 -9.276,7.731 l -10.812,118.997 c -0.529,4.719 -3.396,9.489 -8.585,9.489 h -102.4 c -5.291,0 -8.115,-4.702 -8.567,-9.301 L 342.144,17.067 h 151.885 l -1.741,17.067 H 366.933 c -4.719,0 -8.533,3.823 -8.533,8.533 0,4.71 3.814,8.533 8.533,8.533 h 133.069 c 4.369,0 8.047,-3.311 8.491,-7.671 l 3.465,-34.133 c 0.238,-2.399 -0.538,-4.788 -2.16,-6.58 z"
   id="path4"
   style="fill:#000000;stroke-width:6.11839205;stroke-dasharray:none" />
			<path
   d="m 418.133,238.933 c -4.719,0 -8.533,3.823 -8.533,8.533 v 128 c 0,28.237 -22.963,51.2 -51.2,51.2 -28.237,0 -51.2,-22.963 -51.2,-51.2 V 230.4 c 0,-14.114 -11.486,-25.6 -25.6,-25.6 -14.114,0 -25.6,11.486 -25.6,25.6 v 51.2 c 0,4.702 -3.831,8.533 -8.533,8.533 -4.702,0 -8.533,-3.831 -8.533,-8.533 V 145.067 c 0,-42.342 -34.458,-76.8 -76.8,-76.8 -42.342,0 -76.8,34.458 -76.8,76.8 v 119.467 c 0,4.71 3.823,8.533 8.533,8.533 4.71,0 8.533,-3.823 8.533,-8.533 V 145.067 c 0,-32.939 26.795,-59.733 59.733,-59.733 32.938,0 59.733,26.795 59.733,59.733 V 281.6 c 0,14.114 11.486,25.6 25.6,25.6 14.114,0 25.6,-11.486 25.6,-25.6 v -51.2 c 0,-4.702 3.823,-8.533 8.533,-8.533 4.71,0 8.533,3.831 8.533,8.533 v 145.067 c 0,37.641 30.626,68.267 68.267,68.267 37.641,0 68.267,-30.626 68.267,-68.267 v -128 c 10e-4,-4.711 -3.814,-8.534 -8.533,-8.534 z"
   id="path6"
   style="fill:#000000;stroke-width:6.11839205;stroke-dasharray:none" />
		</g>
	</g>
</svg>
