<svg width="16" height="16" fill="none" xmlns="http://www.w3.org/2000/svg"><path d="M2.4 7.143c.883 0 1.6-.769 1.6-1.714 0-.946-.717-1.715-1.6-1.715-.882 0-1.6.769-1.6 1.715 0 .945.718 1.714 1.6 1.714zm11.2 0c.883 0 1.6-.769 1.6-1.714 0-.946-.717-1.715-1.6-1.715-.883 0-1.6.769-1.6 1.715 0 .945.717 1.714 1.6 1.714zm.8.857h-1.6c-.44 0-.838.19-1.128.498 1.008.592 1.723 1.66 1.878 2.93h1.65c.443 0 .8-.383.8-.857v-.857C16 8.77 15.283 8 14.4 8zM8 8c1.547 0 2.8-1.342 2.8-3S9.547 2 8 2C6.452 2 5.2 3.342 5.2 5S6.452 8 8 8zm1.92.857h-.207A3.724 3.724 0 0 1 8 9.286c-.615 0-1.19-.161-1.713-.429H6.08c-1.59 0-2.88 1.382-2.88 3.086v.771c0 .71.537 1.286 1.2 1.286h7.2c.662 0 1.2-.576 1.2-1.286v-.771c0-1.704-1.29-3.086-2.88-3.086zm-5.593-.359A1.543 1.543 0 0 0 3.2 8H1.6C.717 8 0 8.769 0 9.714v.857c0 .475.357.858.8.858h1.647c.158-1.27.873-2.339 1.88-2.93z" fill="#6E6CFF"/></svg>