<?xml version="1.0" encoding="UTF-8" standalone="no"?>
<svg
   width="40"
   height="40"
   viewBox="0 0 40 40"
   fill="none"
   version="1.1"
   id="svg6"
   sodipodi:docname="Literatur.svg"
   inkscape:version="1.2.2 (732a01da63, 2022-12-09)"
   xmlns:inkscape="http://www.inkscape.org/namespaces/inkscape"
   xmlns:sodipodi="http://sodipodi.sourceforge.net/DTD/sodipodi-0.dtd"
   xmlns="http://www.w3.org/2000/svg"
   xmlns:svg="http://www.w3.org/2000/svg">
  <defs
     id="defs10" />
  <sodipodi:namedview
     id="namedview8"
     pagecolor="#ffffff"
     bordercolor="#000000"
     borderopacity="0.25"
     inkscape:showpageshadow="2"
     inkscape:pageopacity="0.0"
     inkscape:pagecheckerboard="0"
     inkscape:deskcolor="#d1d1d1"
     showgrid="false"
     inkscape:zoom="14.972986"
     inkscape:cx="11.787896"
     inkscape:cy="22.5072"
     inkscape:window-width="1920"
     inkscape:window-height="1027"
     inkscape:window-x="-8"
     inkscape:window-y="-8"
     inkscape:window-maximized="1"
     inkscape:current-layer="svg6" />
  <path
     d="M 0,36.529958 C 0.10402514,35.780683 0.2184576,35.041664 0.3120733,34.292389 0.6761624,31.336631 1.0298462,28.380977 1.38353,25.425218 1.6748033,22.989944 1.9660766,20.544202 2.2677447,18.108824 2.4029814,17.016048 3.21437,16.20429 4.3066371,16.0586 c 0.4889205,-0.06248 0.9778514,-0.1145 1.4771667,-0.14569 0.260068,-0.01047 0.364089,-0.1145 0.384889,-0.364224 0.04161,-0.582862 0.104021,-1.165724 0.1560367,-1.748482 0.04161,-0.468362 0.3016681,-0.780569 0.7385728,-0.905431 3.4432647,-1.040758 6.9384817,-1.581965 10.5273977,-0.86388 0.696889,0.135328 1.373073,0.395518 2.059609,0.572501 0.208105,0.05201 0.447373,0.06238 0.655373,0.01036 0.655373,-0.166517 1.289935,-0.395517 1.945308,-0.551568 0.582588,-0.14569 1.113098,0.187345 1.248314,0.718086 0.145569,0.593224 -0.187294,1.092775 -0.811399,1.259292 -0.468079,0.124863 -0.925804,0.26019 -1.38353,0.374691 -0.249726,0.06238 -0.301699,0.197706 -0.301699,0.447534 0.01046,2.799604 0.01046,5.58874 0.01046,8.388343 0,3.090982 0,6.19243 0,9.283412 0,0.07284 0.01035,0.15605 0.02081,0.249723 4.15059,-1.42581 8.249101,-1.01993 12.399796,0.176984 -0.07289,-0.770208 -0.135321,-1.498654 -0.208105,-2.237568 -0.145673,-1.529949 -0.291242,-3.049432 -0.426458,-4.579275 -0.05208,-0.614052 0.249621,-1.040759 0.748968,-1.15526 0.634562,-0.145689 1.185883,0.249828 1.258667,0.936725 0.166484,1.706723 0.32251,3.41355 0.478536,5.130844 0.0936,1.019931 0.187294,2.039757 0.3017,3.070154 0.114405,1.009465 -0.561778,1.529844 -1.529204,1.19681 -2.871112,-0.999103 -5.815009,-1.592328 -8.87331,-1.3425 -1.643609,0.135224 -3.235244,0.478724 -4.681205,1.321672 -0.759321,0.437173 -1.529099,-0.06238 -1.529099,-0.967809 0,-6.442259 0,-12.873945 0.01035,-19.316204 0,-0.385051 -0.114405,-0.530741 -0.468078,-0.645241 -1.674772,-0.530741 -3.380812,-0.666069 -5.118016,-0.582863 -1.612445,0.08331 -3.193622,0.374691 -4.7643938,0.780569 -0.2808681,0.07284 -0.3744943,0.197812 -0.3952943,0.468363 -0.1872524,2.050223 -0.3744943,4.090085 -0.5721415,6.140413 -0.2496628,2.653809 -0.4993152,5.307723 -0.748978,7.961636 -0.1144262,1.269654 -0.2392577,2.528947 -0.3536839,3.809067 0.93622,-0.218534 1.8412453,-0.457895 2.7462605,-0.634774 2.246976,-0.437173 4.504336,-0.572397 6.782402,-0.208173 0.665831,0.104034 1.029857,0.582757 0.925909,1.19681 -0.0937,0.551569 -0.603399,0.884707 -1.227504,0.791035 -3.006328,-0.426707 -5.929518,0.01036 -8.8109732,0.884603 -0.3744838,0.1145 -0.7385728,0.239362 -1.1026619,0.364223 -0.8634043,0.312207 -1.5707823,-0.197706 -1.4875614,-1.113603 0.104021,-1.16562 0.2184472,-2.33124 0.3328734,-3.49686 0.2496628,-2.62262 0.4993257,-5.255706 0.7489885,-7.87843 0.1456314,-1.529845 0.2808681,-3.059793 0.4264995,-4.579275 0.010405,-0.08321 0.010395,-0.176879 0.0208,-0.312207 -0.4681101,0.04165 -0.9154096,0.05201 -1.3315143,0.14569 -0.1352367,0.0313 -0.3016681,0.281017 -0.3224786,0.447534 -0.1560367,1.144793 -0.2808786,2.300051 -0.42651,3.444844 -0.3224786,2.726758 -0.6553519,5.443154 -0.9778305,8.169809 -0.2704628,2.216844 -0.5409361,4.433585 -0.8010042,6.660791 -0.072816,0.603587 0.2704733,0.947087 0.8842147,0.874242 2.3717762,-0.26019 4.7539576,-0.541207 7.125744,-0.811863 1.882877,-0.218534 3.765754,-0.437068 5.658983,-0.624413 0.842563,-0.08321 1.622798,0.176983 2.21574,0.780568 1.154614,1.186449 2.943896,1.186449 4.140132,-0.01036 0.801046,-0.811863 1.841256,-0.843053 2.912733,-0.707725 3.640891,0.426707 7.281781,0.832586 10.922672,1.248826 0.384836,0.04165 0.769778,0.10414 1.165072,0.135329 0.582588,0.05201 0.925804,-0.281017 0.863373,-0.863776 -0.260079,-2.237567 -0.540863,-4.464775 -0.800942,-6.702448 -0.280889,-2.33124 -0.561778,-4.672842 -0.832209,-7.004188 -0.05197,-0.457895 0.0936,-0.822119 0.499346,-1.061482 0.343216,-0.197811 0.69689,-0.176982 1.04021,0.03119 0.332863,0.208173 0.447373,0.530741 0.488889,0.884602 0.135321,1.165622 0.270536,2.32088 0.416105,3.486501 0.32251,2.70593 0.655373,5.422327 0.977883,8.128258 0.08324,0.707619 0.187189,1.415343 0.249621,2.133429 0.166483,1.8005 -1.321099,3.195121 -3.141544,2.986947 -3.859348,-0.447534 -7.718696,-0.87424 -11.578044,-1.321775 -0.06233,-0.01036 -0.124758,-0.01036 -0.197543,-0.03119 -0.790693,-0.176879 -1.425151,-0.04165 -2.101334,0.530741 -1.799635,1.54031 -4.410669,1.415448 -6.158329,-0.197707 -0.374484,-0.343396 -0.759426,-0.468362 -1.269125,-0.40588 -4.12978,0.489191 -8.2595802,0.947086 -12.3893806,1.415449 C 1.7372232,39.881127 0.5201246,39.059008 0.1352356,37.685215 0.1144251,37.612374 0.0832188,37.549886 0.0520115,37.477042 0,37.154371 0,36.842164 0,36.529958 Z"
     fill="white"
     id="path2"
     style="fill:#000000;stroke-width:1.04618" />
  <path
     d="m 35.64927,0 c 0.499242,0.2809964 1.029857,0.5099654 1.477125,0.8325964 1.664419,1.2072549 2.330145,2.9140719 2.267713,4.9227024 -0.03116,0.9366619 -0.208,1.8733342 -0.322405,2.862034 0.842562,0.1873344 0.894536,0.8846242 0.842562,1.6443552 -0.145673,2.206379 -1.029856,4.090084 -2.496628,5.703239 -0.551321,0.603691 -1.175426,1.134432 -1.768367,1.706827 0.01035,0.01047 0.02081,0.04165 0.04162,0.07284 0.790588,0.811758 0.821752,1.009569 0.322405,2.008672 -1.341909,2.705931 -3.599269,4.225413 -6.449571,4.974688 -0.384837,0.104139 -0.790589,0.135328 -1.175425,0.249828 -0.145674,0.04165 -0.32251,0.166518 -0.374484,0.301845 -0.384942,0.894965 -0.728157,1.800395 -1.113099,2.705931 -0.187294,0.437068 -0.592941,0.666068 -1.029856,0.613947 -0.447269,-0.05201 -0.821752,-0.364224 -0.884184,-0.811758 -0.03127,-0.218534 0.02081,-0.468362 0.0936,-0.676431 0.312052,-0.832586 0.655373,-1.665172 0.998693,-2.497757 0.114406,-0.270657 0.103948,-0.458001 -0.06243,-0.707725 C 24.580925,21.720289 24.1232,19.305738 24.44571,16.755962 24.903435,13.082118 26.557397,10.001498 29.137267,7.3788467 30.260719,6.244447 31.38417,5.0996335 32.455648,3.9235888 33.246236,3.0493683 33.828825,2.0294479 34.28655,0.9470757 34.45293,0.5307827 34.681845,0.1977378 35.087492,0 c 0.197647,0 0.384941,0 0.561778,0 z m -6.626408,22.750581 c 1.768367,-0.260189 3.744838,-1.561138 4.764342,-3.122171 0.364026,-0.562035 0.384837,-0.593224 -0.124863,-1.030397 -1.019399,-0.863775 -0.759321,-1.613155 0.197647,-2.216741 1.622798,-1.030397 2.902276,-2.393723 3.62008,-4.225412 0.145673,-0.364224 0.239268,-0.74938 0.364131,-1.16562 -0.176837,0.01036 -0.260079,0.01036 -0.353673,0.02083 -0.749073,0 -1.217151,-0.63488 -0.988341,-1.352965 0.06243,-0.19777 0.145674,-0.385104 0.218563,-0.5828417 0.447268,-1.2801101 0.780131,-2.5914514 0.655268,-3.9652235 -0.103948,-1.0927755 -0.53051,-2.019034 -1.477125,-2.6746993 -0.04162,0.062442 -0.07278,0.1040654 -0.104052,0.1456999 -0.69689,1.3841859 -1.612341,2.6018547 -2.683818,3.7154476 -1.15472,1.1968514 -2.392577,2.3312511 -3.453597,3.600979 -2.23655,2.664275 -3.464053,5.713601 -3.203975,9.262584 0.07278,0.926259 0.312053,1.821328 0.73851,2.70593 0.06243,-0.135327 0.0937,-0.208172 0.135216,-0.291378 0.769778,-1.915001 1.550014,-3.83 2.319792,-5.744896 0.624209,-1.550776 1.248314,-3.111809 1.882876,-4.662586 0.270432,-0.655602 0.83221,-0.926259 1.393988,-0.676431 0.520052,0.228896 0.728157,0.790931 0.499242,1.384155 -0.5097,1.280121 -1.019399,2.560241 -1.539556,3.829896 -0.957073,2.331345 -1.903687,4.662586 -2.860655,7.045843 z"
     fill="white"
     id="path4"
     style="fill:#000000;stroke-width:1.04618" />
</svg>
