<svg width="40" height="40" viewBox="0 0 40 40" fill="none" xmlns="http://www.w3.org/2000/svg">
<path d="M0.875 35.7778C0.974474 35.0619 1.0839 34.3558 1.17342 33.6399C1.52158 30.8158 1.85979 27.9918 2.198 25.1677C2.47653 22.8409 2.75506 20.5041 3.04353 18.1772C3.17285 17.1331 3.94874 16.3575 4.99322 16.2183C5.46075 16.1586 5.92829 16.1089 6.40576 16.0791C6.65445 16.0691 6.75392 15.9697 6.77381 15.7311C6.8136 15.1742 6.87328 14.6173 6.92302 14.0605C6.96281 13.613 7.21149 13.3147 7.62928 13.1954C10.9219 12.201 14.2642 11.6839 17.6961 12.37C18.3625 12.4993 19.0091 12.7479 19.6656 12.917C19.8646 12.9667 20.0934 12.9766 20.2923 12.9269C20.919 12.7678 21.5258 12.549 22.1525 12.3999C22.7096 12.2607 23.2169 12.5789 23.3462 13.086C23.4854 13.6528 23.1671 14.1301 22.5703 14.2892C22.1227 14.4085 21.685 14.5378 21.2473 14.6472C21.0085 14.7068 20.9588 14.8361 20.9588 15.0748C20.9688 17.7497 20.9688 20.4146 20.9688 23.0895C20.9688 26.0428 20.9688 29.0061 20.9688 31.9594C20.9688 32.029 20.9787 32.1085 20.9887 32.198C24.9577 30.8357 28.8769 31.2235 32.846 32.3671C32.7763 31.6312 32.7166 30.9352 32.647 30.2292C32.5077 28.7674 32.3685 27.3156 32.2392 25.8539C32.1894 25.2672 32.4779 24.8595 32.9554 24.7501C33.5622 24.6109 34.0894 24.9888 34.159 25.6451C34.3182 27.2758 34.4674 28.9066 34.6166 30.5474C34.7061 31.5219 34.7957 32.4963 34.9051 33.4808C35.0145 34.4453 34.3679 34.9425 33.4428 34.6243C30.6973 33.6697 27.8822 33.1029 24.9577 33.3416C23.386 33.4708 21.864 33.799 20.4813 34.6044C19.7552 35.0221 19.0191 34.5448 19.0191 33.6797C19.0191 27.5244 19.0191 21.3792 19.029 15.2239C19.029 14.856 18.9196 14.7168 18.5814 14.6074C16.9799 14.1003 15.3485 13.971 13.6873 14.0505C12.1454 14.1301 10.6334 14.4085 9.13135 14.7963C8.86277 14.8659 8.77324 14.9853 8.75335 15.2438C8.57429 17.2027 8.39524 19.1517 8.20624 21.1107C7.9675 23.6463 7.72877 26.182 7.49003 28.7177C7.38061 29.9308 7.26124 31.134 7.15182 32.3571C8.04708 32.1483 8.91251 31.9196 9.77793 31.7506C11.9266 31.3329 14.0852 31.2037 16.2636 31.5517C16.9003 31.6511 17.2484 32.1085 17.149 32.6952C17.0594 33.2222 16.572 33.5405 15.9752 33.451C13.1004 33.0433 10.3051 33.4609 7.54971 34.2962C7.19161 34.4056 6.84345 34.5249 6.49529 34.6442C5.66966 34.9425 4.99323 34.4553 5.07281 33.5802C5.17228 32.4665 5.2817 31.3528 5.39112 30.2391C5.62986 27.7333 5.8686 25.2175 6.10734 22.7116C6.2466 21.2499 6.37592 19.7881 6.51518 18.3363C6.52513 18.2568 6.52512 18.1673 6.53507 18.038C6.08744 18.0778 5.65971 18.0877 5.26181 18.1772C5.13249 18.2071 4.97334 18.4457 4.95344 18.6048C4.80423 19.6986 4.68485 20.8024 4.54559 21.8962C4.23722 24.5015 3.91891 27.0969 3.61054 29.7021C3.35191 31.8202 3.09327 33.9382 2.84458 36.0662C2.77495 36.6429 3.10322 36.9711 3.69011 36.9015C5.95812 36.6529 8.23608 36.3844 10.5041 36.1258C12.3046 35.917 14.1051 35.7082 15.9155 35.5292C16.7212 35.4497 17.4673 35.6983 18.0343 36.275C19.1384 37.4086 20.8494 37.4086 21.9933 36.2651C22.7593 35.4894 23.754 35.4596 24.7786 35.5889C28.2602 35.9966 31.7418 36.3844 35.2234 36.7821C35.5914 36.8219 35.9595 36.8816 36.3375 36.9114C36.8946 36.9611 37.2228 36.6429 37.1631 36.0861C36.9144 33.9482 36.6459 31.8202 36.3972 29.6822C36.1286 27.4548 35.86 25.2175 35.6014 22.99C35.5517 22.5525 35.6909 22.2045 36.0789 21.9758C36.4071 21.7868 36.7453 21.8067 37.0736 22.0056C37.3919 22.2045 37.5014 22.5127 37.5411 22.8508C37.6705 23.9645 37.7998 25.0683 37.939 26.182C38.2474 28.7674 38.5657 31.3628 38.8741 33.9482C38.9537 34.6243 39.0531 35.3005 39.1128 35.9866C39.272 37.7069 37.8495 39.0394 36.1087 38.8405C32.4182 38.4129 28.7277 38.0052 25.0372 37.5776C24.9776 37.5677 24.9179 37.5677 24.8483 37.5478C24.0922 37.3788 23.4855 37.508 22.8389 38.0549C21.118 39.5266 18.6212 39.4073 16.95 37.866C16.5919 37.5379 16.2238 37.4185 15.7364 37.4782C11.7873 37.9456 7.83818 38.3831 3.88906 38.8306C2.53622 38.9797 1.37237 38.1942 1.00432 36.8816C0.98442 36.812 0.954579 36.7523 0.924737 36.6827C0.875 36.3744 0.875 36.0761 0.875 35.7778Z" fill="white"/>
<path d="M34.9646 0.875C35.442 1.14348 35.9494 1.36225 36.3771 1.67051C37.9687 2.82399 38.6053 4.45478 38.5456 6.37394C38.5158 7.26888 38.3467 8.16383 38.2373 9.10849C39.043 9.28748 39.0927 9.95371 39.043 10.6796C38.9037 12.7877 38.0582 14.5875 36.6556 16.1288C36.1284 16.7056 35.5316 17.2127 34.9646 17.7596C34.9745 17.7696 34.9845 17.7994 35.0044 17.8292C35.7604 18.6048 35.7902 18.7938 35.3127 19.7484C34.0295 22.3338 31.8709 23.7856 29.1453 24.5015C28.7773 24.601 28.3893 24.6308 28.0213 24.7402C27.882 24.78 27.7129 24.8993 27.6632 25.0286C27.2951 25.8837 26.9669 26.7488 26.5988 27.614C26.4197 28.0316 26.0318 28.2504 25.614 28.2006C25.1863 28.1509 24.8282 27.8526 24.7685 27.425C24.7386 27.2162 24.7884 26.9775 24.858 26.7787C25.1564 25.9832 25.4847 25.1877 25.813 24.3922C25.9224 24.1336 25.9124 23.9546 25.7533 23.716C24.3805 21.6278 23.9428 19.3208 24.2512 16.8846C24.6889 13.3744 26.2705 10.431 28.7375 7.92517C29.8118 6.8413 30.8861 5.74748 31.9107 4.62382C32.6667 3.78854 33.2238 2.81405 33.6615 1.77989C33.8206 1.38214 34.0395 1.06393 34.4274 0.875C34.6164 0.875 34.7955 0.875 34.9646 0.875ZM28.6281 22.6122C30.3191 22.3636 32.2091 21.1206 33.184 19.6291C33.5321 19.0921 33.552 19.0623 33.0646 18.6446C32.0898 17.8193 32.3385 17.1033 33.2536 16.5266C34.8054 15.5421 36.0289 14.2395 36.7153 12.4894C36.8546 12.1414 36.9441 11.7734 37.0635 11.3757C36.8944 11.3856 36.8148 11.3856 36.7253 11.3956C36.009 11.3956 35.5614 10.789 35.7802 10.1029C35.8399 9.91394 35.9195 9.73495 35.9892 9.54602C36.4169 8.32293 36.7352 7.07 36.6158 5.75742C36.5164 4.71332 36.1085 3.82832 35.2033 3.20186C35.1635 3.26152 35.1337 3.30129 35.1038 3.34107C34.4374 4.6636 33.562 5.82703 32.5374 6.89102C31.4332 8.03456 30.2495 9.11843 29.2349 10.3316C27.0962 12.8772 25.9224 15.7907 26.1711 19.1816C26.2407 20.0666 26.4695 20.9218 26.8773 21.767C26.937 21.6377 26.9669 21.5681 27.0066 21.4886C27.7427 19.6589 28.4888 17.8292 29.2249 15.9996C29.8218 14.5179 30.4186 13.0264 31.0254 11.5447C31.284 10.9183 31.8212 10.6597 32.3584 10.8984C32.8557 11.1171 33.0547 11.6541 32.8358 12.2209C32.3484 13.444 31.861 14.6671 31.3636 15.8802C30.4484 18.1077 29.5432 20.3351 28.6281 22.6122Z" fill="white"/>
</svg>
