<?xml version="1.0" encoding="UTF-8" standalone="no"?>
<!-- Uploaded to: SVG Repo, www.svgrepo.com, Generator: SVG Repo Mixer Tools -->

<svg
   fill="#000000"
   version="1.1"
   id="Capa_1"
   width="40"
   height="40"
   viewBox="0 0 30.60005 30.60005"
   xml:space="preserve"
   sodipodi:docname="Logistik.svg"
   inkscape:version="1.2.2 (732a01da63, 2022-12-09)"
   xmlns:inkscape="http://www.inkscape.org/namespaces/inkscape"
   xmlns:sodipodi="http://sodipodi.sourceforge.net/DTD/sodipodi-0.dtd"
   xmlns="http://www.w3.org/2000/svg"
   xmlns:svg="http://www.w3.org/2000/svg"><defs
   id="defs9" /><sodipodi:namedview
   id="namedview7"
   pagecolor="#ffffff"
   bordercolor="#000000"
   borderopacity="0.25"
   inkscape:showpageshadow="2"
   inkscape:pageopacity="0.0"
   inkscape:pagecheckerboard="0"
   inkscape:deskcolor="#d1d1d1"
   showgrid="false"
   inkscape:zoom="11.978389"
   inkscape:cx="9.6423652"
   inkscape:cy="25.796458"
   inkscape:window-width="1920"
   inkscape:window-height="1027"
   inkscape:window-x="-8"
   inkscape:window-y="-8"
   inkscape:window-maximized="1"
   inkscape:current-layer="Capa_1" />
<g
   id="g4"
   style="fill:#000000"
   transform="matrix(0.05000005,0,0,0.05000005,-5.2534318e-5,-3.2118593e-5)">
	<path
   d="m 40.121,105.553 c -11.42,-34.613 7.447,-72.068 42.064,-83.49 34.617,-11.422 72.07,7.451 83.49,42.064 l 129.897,393.695 c -12.105,-3.196 -24.979,-3.781 -37.831,-1.431 L 131.984,75.244 C 126.692,59.204 109.341,50.463 93.302,55.755 77.262,61.047 68.521,78.398 73.813,94.437 c 3.069,9.303 -1.984,19.335 -11.288,22.404 -9.303,3.069 -19.334,-1.985 -22.404,-11.288 z m 511.792,308.84 -212.828,70.222 c 7.553,8.575 13.54,18.769 17.342,30.288 0.135,0.411 0.211,0.826 0.34,1.238 L 563.03,448.085 c 9.303,-3.069 14.357,-13.101 11.288,-22.403 -3.07,-9.305 -13.103,-14.359 -22.405,-11.289 z M 339.582,520.465 c 12.059,36.547 -7.794,75.949 -44.34,88.008 -36.547,12.059 -75.949,-7.793 -88.008,-44.34 -12.059,-36.548 7.794,-75.949 44.34,-88.008 36.547,-12.06 75.95,7.793 88.008,44.34 z m -33.087,10.916 c -6.029,-18.273 -25.729,-28.198 -44.004,-22.169 -18.273,6.028 -28.199,25.73 -22.17,44.003 6.029,18.273 25.73,28.199 44.004,22.171 18.273,-6.03 28.199,-25.732 22.17,-44.005 z m 191.632,-384.036 72.256,218.997 c 1.535,4.651 -0.992,9.667 -5.644,11.202 l -227.42,75.035 c -4.651,1.535 -9.667,-0.992 -11.201,-5.644 L 253.862,227.938 c -1.535,-4.652 0.992,-9.667 5.644,-11.202 L 486.925,141.7 c 4.652,-1.533 9.667,0.993 11.202,5.645 z m -30.083,127.214 -77.438,-42.605 -36.864,80.319 24.407,11.233 15.939,-34.747 28.781,87.232 27.545,-9.088 -28.777,-87.219 33.477,18.427 z M 400.472,143.908 354.276,3.896 c -0.981,-2.974 -4.188,-4.59 -7.162,-3.608 l -39.611,13.069 -0.194,0.356 -0.332,-0.182 -20.899,6.896 17.21,52.159 -23.573,7.778 -17.209,-52.159 -20.906,6.898 -0.158,0.344 -0.37,-0.17 -39.354,12.985 c -2.975,0.981 -4.589,4.188 -3.608,7.162 l 46.197,140.013 c 0.981,2.974 4.188,4.59 7.162,3.608 l 145.398,-47.974 c 2.971,-0.982 4.587,-4.189 3.605,-7.163 z"
   id="path2"
   style="fill:#000000" />
</g>
</svg>
