<svg width="32" height="34" viewBox="0 0 32 34" fill="none" xmlns="http://www.w3.org/2000/svg">
<path d="M27.9649 2.21041C19.9811 2.21041 12.0408 2.21041 4.04823 2.21041C4.04823 2.54977 4.04823 2.88913 4.04823 3.22849C4.04823 3.65039 4.05694 4.08147 4.03952 4.50337C4.0134 5.15457 3.55196 5.60399 2.95992 5.58565C2.38529 5.56731 1.95868 5.09954 1.95868 4.46669C1.94997 3.35689 1.94997 2.2471 1.95868 1.12814C1.96738 0.440248 2.39401 0 3.0557 0C11.6838 0 20.3119 0 28.94 0C29.6452 0 30.0544 0.440248 30.0544 1.21068C30.0544 8.54815 30.0544 15.8856 30.0544 23.2139C30.0544 23.9568 29.6452 24.4521 29.0271 24.4613C28.4176 24.4705 27.9649 23.9477 27.9649 23.2139C27.9649 16.3901 27.9649 9.5754 27.9649 2.75155C27.9649 2.58646 27.9649 2.42137 27.9649 2.21041Z" fill="white"/>
<path d="M27.9649 31.7712C27.9649 31.3585 27.9561 30.9733 27.9649 30.5881C27.9736 29.9002 28.435 29.3957 29.027 29.4049C29.6191 29.4141 30.0457 29.9002 30.0457 30.5881C30.0544 31.331 30.0544 32.0739 30.0457 32.826C30.037 33.5597 29.6278 34 28.9226 34C20.3032 34 11.6838 34 3.06438 34C2.35916 34 1.94995 33.5506 1.94995 32.7893C1.94995 25.8279 1.94995 18.8756 1.94995 11.9142C1.94995 11.1805 2.37657 10.6852 2.99473 10.6852C3.60418 10.6852 4.0395 11.1896 4.0395 11.9234C4.0395 18.3895 4.0395 24.8557 4.0395 31.3218C4.0395 31.4686 4.0395 31.6153 4.0395 31.7896C12.0146 31.7712 19.9636 31.7712 27.9649 31.7712Z" fill="white"/>
<path d="M21.2174 25.993C24.4039 25.993 27.5905 25.993 30.777 25.993C31.2472 25.993 31.6303 26.1214 31.8741 26.58C32.1962 27.2037 31.8741 27.9833 31.2124 28.1484C31.0905 28.1759 30.9512 28.1942 30.8293 28.1942C24.43 28.1942 18.0395 28.1942 11.6402 28.1942C10.9263 28.1942 10.4475 27.7448 10.4562 27.0753C10.4649 26.5066 10.8654 26.048 11.4052 26.0022C11.5445 25.993 11.6838 25.993 11.8318 25.993C14.9574 25.993 18.0917 25.993 21.2174 25.993Z" fill="white"/>
<path d="M7.71354 7.00731C9.90757 7.00731 12.1103 7.00731 14.3043 7.00731C14.9573 7.00731 15.4013 7.42922 15.4275 8.03456C15.4536 8.61238 15.1053 9.08015 14.5568 9.18104C14.4436 9.19938 14.3217 9.20855 14.1998 9.20855C9.87274 9.20855 5.54562 9.20855 1.21851 9.20855C1.02697 9.20855 0.826725 9.18104 0.64389 9.10766C0.182448 8.92423 -0.0700353 8.4106 0.0170293 7.91532C0.104094 7.41087 0.49588 7.044 0.992148 7.01648C1.11404 7.00731 1.22722 7.00731 1.34911 7.00731C3.46478 7.00731 5.58916 7.00731 7.71354 7.00731Z" fill="white"/>
<path d="M11.2136 13.3359C12.746 13.3359 14.2783 13.3359 15.8194 13.3359C16.4462 13.3359 16.8902 13.7578 16.9251 14.3539C16.9599 15.0235 16.5159 15.5279 15.8368 15.5371C15.0532 15.5463 14.2696 15.5371 13.486 15.5371C11.2049 15.5371 8.91514 15.5371 6.63404 15.5371C5.79822 15.5371 5.25842 14.7667 5.57185 14.0146C5.76339 13.5468 6.12906 13.3359 6.61662 13.345C8.14896 13.3359 9.6813 13.3359 11.2136 13.3359Z" fill="white"/>
<path d="M12.9202 19.6644C14.4177 19.6644 15.9239 19.6552 17.4214 19.6644C18.1005 19.6736 18.5533 20.2055 18.4836 20.8934C18.4314 21.4621 17.9786 21.8565 17.3605 21.8656C16.2199 21.8748 15.0794 21.8656 13.9301 21.8656C12.1018 21.8656 10.2734 21.8656 8.44506 21.8656C7.60924 21.8656 7.07815 21.086 7.39158 20.3339C7.59183 19.8662 7.94879 19.6644 8.43635 19.6644C9.93387 19.6644 11.4314 19.6644 12.9202 19.6644Z" fill="white"/>
<path d="M19.8327 8.32804C20.6337 7.57595 21.4086 6.8422 22.1922 6.11763C22.8191 5.5398 23.7245 5.81496 23.9248 6.64042C24.0293 7.05316 23.9248 7.42003 23.6288 7.70436C22.5579 8.71326 21.4957 9.73133 20.4074 10.7219C19.9633 11.1255 19.3626 11.0796 18.9708 10.621C18.3875 9.94229 17.8041 9.2544 17.2469 8.55734C16.8725 8.09875 16.9248 7.4292 17.3427 7.03481C17.778 6.62208 18.3875 6.6496 18.8054 7.10819C18.9795 7.3008 19.1362 7.50258 19.3016 7.69519C19.4758 7.89697 19.6412 8.09875 19.8327 8.32804Z" fill="white"/>
<path d="M21.6701 14.6566C22.4711 13.9045 23.2373 13.1799 24.0121 12.4645C24.6564 11.8683 25.5706 12.1435 25.7708 12.9781C25.8666 13.3817 25.7708 13.7394 25.4835 14.0146C24.4126 15.0326 23.333 16.0507 22.236 17.0504C21.792 17.454 21.1912 17.399 20.7994 16.9404C20.2248 16.2708 19.6502 15.5921 19.093 14.9042C18.7012 14.4273 18.7534 13.7577 19.18 13.3634C19.6154 12.9598 20.2248 12.9873 20.6427 13.4459C20.8169 13.6385 20.9736 13.8403 21.139 14.0329C21.3131 14.2347 21.4785 14.4273 21.6701 14.6566Z" fill="white"/>
<path d="M22.967 21.2603C23.7506 20.5266 24.5168 19.8112 25.2742 19.0958C25.5267 18.8573 25.814 18.7014 26.1623 18.7472C26.5976 18.8114 26.9023 19.0591 27.0416 19.5085C27.1896 19.9762 27.059 20.3706 26.7195 20.6917C25.9533 21.4162 25.1784 22.1408 24.4036 22.8654C24.1337 23.113 23.8725 23.3698 23.5939 23.6175C23.0889 24.0669 22.4969 24.0302 22.0615 23.5166C21.5043 22.8654 20.9645 22.2142 20.416 21.5538C20.0068 21.0585 20.0329 20.3982 20.4683 19.9854C20.9123 19.5543 21.5391 19.6002 21.9832 20.1047C22.1486 20.2881 22.2966 20.4807 22.462 20.6733C22.6187 20.8476 22.7842 21.031 22.967 21.2603Z" fill="white"/>
</svg>
