<svg width="16" height="16" fill="none" xmlns="http://www.w3.org/2000/svg"><path d="M12.2 6.5H8.4v1.312c0 .931-.807 1.688-1.8 1.688-.992 0-1.8-.757-1.8-1.688v-2.85l-1.622.914a1.48 1.48 0 0 0-.777 1.285V8.27l-2 1.082c-.383.207-.515.666-.293 1.025l2 3.248c.22.36.71.481 1.093.275l2.585-1.4H9.2c.882 0 1.6-.672 1.6-1.5h.4c.442 0 .8-.335.8-.75v-1.5h.2c.332 0 .6-.25.6-.562V7.062c0-.311-.268-.562-.6-.562zm3.693-.877-2-3.248c-.22-.36-.71-.481-1.093-.275l-2.584 1.4H7.66c-.3 0-.593.08-.848.227l-.837.49a.736.736 0 0 0-.375.635v2.96c0 .519.447.938 1 .938.552 0 1-.42 1-.938V5.75h4.6c.772 0 1.4.588 1.4 1.312v.668l2-1.082c.382-.21.512-.666.292-1.025z" fill="#6E6CFF"/></svg>