<?xml version="1.0" encoding="UTF-8" standalone="no"?>
<svg
   width="40"
   height="40"
   viewBox="0 0 40 40"
   fill="none"
   version="1.1"
   id="svg20"
   sodipodi:docname="Management.svg"
   inkscape:version="1.2.2 (732a01da63, 2022-12-09)"
   xmlns:inkscape="http://www.inkscape.org/namespaces/inkscape"
   xmlns:sodipodi="http://sodipodi.sourceforge.net/DTD/sodipodi-0.dtd"
   xmlns="http://www.w3.org/2000/svg"
   xmlns:svg="http://www.w3.org/2000/svg">
  <defs
     id="defs24" />
  <sodipodi:namedview
     id="namedview22"
     pagecolor="#ffffff"
     bordercolor="#000000"
     borderopacity="0.25"
     inkscape:showpageshadow="2"
     inkscape:pageopacity="0.0"
     inkscape:pagecheckerboard="0"
     inkscape:deskcolor="#d1d1d1"
     showgrid="false"
     inkscape:zoom="12.455882"
     inkscape:cx="5.6599764"
     inkscape:cy="20.632822"
     inkscape:window-width="1920"
     inkscape:window-height="1027"
     inkscape:window-x="-8"
     inkscape:window-y="-8"
     inkscape:window-maximized="1"
     inkscape:current-layer="svg20" />
  <path
     d="m 34.075072,2.600482 c -9.392706,0 -18.734236,0 -28.13726,0 0,0.3992474 0,0.7984945 0,1.1977414 0,0.496353 0.010247,1.0035059 -0.010247,1.4998589 C 5.896836,6.0641999 5.353965,6.5929294 4.6574473,6.5713529 3.9814117,6.5497769 3.4795177,5.9994587 3.4795177,5.2549293 c -0.01025,-1.305647 -0.01025,-2.6112823 0,-3.9277063 C 3.4897477,0.517939 3.9916707,0 4.7701297,0 14.920836,0 25.071543,0 35.222249,0 c 0.829647,0 1.311059,0.517939 1.311059,1.424329 0,8.632318 0,17.26461 0,25.88614 0,0.874 -0.481412,1.456705 -1.208589,1.467529 -0.717058,0.01082 -1.249647,-0.604235 -1.249647,-1.467529 0,-8.028 0,-16.045293 0,-24.0733514 0,-0.1942235 0,-0.388447 0,-0.6366356 z"
     fill="white"
     id="path2"
     style="fill:#000000;stroke-width:1.17647" />
  <path
     d="m 34.075072,37.37788 c 0,-0.485529 -0.01035,-0.938706 0,-1.391882 0.01024,-0.809294 0.553059,-1.402824 1.24953,-1.392 0.696588,0.01082 1.19847,0.582706 1.19847,1.392 0.01024,0.874 0.01024,1.748 0,2.632824 -0.01024,0.863176 -0.491647,1.381176 -1.321294,1.381176 -10.14047,0 -20.280942,0 -30.4214366,0 -0.8296707,0 -1.3110937,-0.528706 -1.3110937,-1.424353 0,-8.189882 0,-16.369059 0,-24.55894 0,-0.863177 0.501906,-1.445882 1.2291526,-1.445882 0.717,0 1.2291411,0.593411 1.2291411,1.456705 0,7.607176 0,15.21447 0,22.821646 0,0.172706 0,0.345295 0,0.550353 9.3824716,-0.02165 18.7342366,-0.02165 28.1475306,-0.02165 z"
     fill="white"
     id="path4"
     style="fill:#000000;stroke-width:1.17647" />
  <path
     d="m 26.136837,30.579998 c 3.748824,0 7.497765,0 11.246588,0 0.553177,0 1.003883,0.151059 1.290706,0.690588 0.378941,0.733765 0,1.650941 -0.77847,1.845177 -0.143412,0.03235 -0.307295,0.05388 -0.450706,0.05388 -7.528589,0 -15.046825,0 -22.575413,0 -0.839882,0 -1.403177,-0.528706 -1.392941,-1.316353 0.01024,-0.669059 0.481412,-1.208588 1.11647,-1.26247 C 14.756954,30.58 14.920836,30.58 15.094954,30.58 c 3.677176,0 7.364588,0 11.041883,0 z"
     fill="white"
     id="path6"
     style="fill:#000000;stroke-width:1.17647" />
  <path
     d="m 10.249941,8.2438941 c 2.581213,0 5.17266,0 7.753836,0 0.768236,0 1.290588,0.4963648 1.321412,1.2085298 0.03071,0.6797881 -0.379059,1.2301051 -1.024353,1.3488001 -0.133176,0.02158 -0.276588,0.03236 -0.42,0.03236 -5.090659,0 -10.1813886,0 -15.2721063,0 -0.225341,0 -0.460924,-0.03236 -0.676024,-0.118694 -0.542872,-0.215796 -0.839912,-0.8200661 -0.737483,-1.4027491 0.102429,-0.59347 0.563354,-1.0250821 1.147199,-1.0574585 0.143402,-0.010788 0.276555,-0.010788 0.419955,-0.010788 2.4890236,0 4.9882947,0 7.4875643,-3e-7 z"
     fill="white"
     id="path8"
     style="fill:#000000;stroke-width:1.17647" />
  <path
     d="m 14.36766,15.689292 c 1.802823,0 3.605529,0 5.418588,0 0.737412,0 1.259765,0.496353 1.300823,1.197647 0.04094,0.787765 -0.481411,1.381177 -1.280353,1.392 -0.921882,0.01082 -1.843764,0 -2.765647,0 -2.683647,0 -5.377482,0 -8.0611296,0 -0.983318,0 -1.618376,-0.906353 -1.249635,-1.791176 0.225341,-0.550353 0.655541,-0.798471 1.229141,-0.787765 1.8027526,-0.01071 3.6055066,-0.01071 5.4082126,-0.01071 z"
     fill="white"
     id="path10"
     style="fill:#000000;stroke-width:1.17647" />
  <path
     d="m 16.375424,23.134586 c 1.761765,0 3.533765,-0.01082 5.29553,0 0.798941,0.01082 1.331647,0.636588 1.249647,1.445883 -0.06141,0.669058 -0.594118,1.133058 -1.321294,1.143764 -1.341883,0.01082 -2.683647,0 -4.035765,0 -2.150941,0 -4.302,0 -6.452989,0 -0.983318,0 -1.6081296,-0.917176 -1.2393886,-1.802 0.2355876,-0.550235 0.6555416,-0.787647 1.2291416,-0.787647 1.761789,0 3.523589,0 5.275118,0 z"
     fill="white"
     id="path12"
     style="fill:#000000;stroke-width:1.17647" />
  <path
     d="m 24.507778,9.7976949 c 0.942353,-0.884812 1.854,-1.7480478 2.775883,-2.6004831 0.737529,-0.6798 1.802705,-0.3560824 2.038353,0.615047 0.122941,0.4855765 0,0.9171881 -0.348236,1.2516941 -1.259882,1.1869411 -2.509529,2.3846711 -3.789882,3.5500461 -0.522471,0.474824 -1.229178,0.420824 -1.690119,-0.118706 -0.686235,-0.798481 -1.372588,-1.607764 -2.028117,-2.427834 -0.440471,-0.5395171 -0.378942,-1.3272241 0.112705,-1.7912119 0.512118,-0.4855647 1.229177,-0.4531883 1.720824,0.086329 0.204824,0.2266 0.389176,0.4639878 0.583765,0.6905878 0.204941,0.237389 0.39953,0.474777 0.624824,0.744531 z"
     fill="white"
     id="path14"
     style="fill:#000000;stroke-width:1.17647" />
  <path
     d="m 26.669425,17.243057 c 0.942353,-0.884824 1.843765,-1.737294 2.755294,-2.57894 0.758,-0.701412 1.83353,-0.377647 2.069059,0.604235 0.112706,0.474822 0,0.895646 -0.338,1.219411 -1.259882,1.197647 -2.53,2.395411 -3.820588,3.571529 -0.522353,0.474824 -1.229176,0.410118 -1.690118,-0.129412 -0.676,-0.787764 -1.352,-1.586235 -2.00753,-2.395529 -0.460941,-0.561059 -0.399529,-1.348824 0.102353,-1.812706 0.512236,-0.474822 1.229177,-0.44247 1.720824,0.09706 0.204942,0.226588 0.389295,0.464 0.583883,0.690588 0.204823,0.237412 0.399412,0.464 0.624823,0.733764 z"
     fill="white"
     id="path16"
     style="fill:#000000;stroke-width:1.17647" />
  <path
     d="m 28.19519,25.012116 c 0.921882,-0.863177 1.823294,-1.704824 2.714353,-2.546471 0.297059,-0.280588 0.635059,-0.464 1.044823,-0.410118 0.512118,0.07553 0.870589,0.366942 1.034471,0.895647 0.174118,0.550236 0.02047,1.014236 -0.378941,1.392 -0.901412,0.852353 -1.813059,1.704824 -2.724588,2.557295 -0.31753,0.291294 -0.624824,0.593411 -0.952589,0.884823 -0.594117,0.528706 -1.290588,0.48553 -1.802823,-0.118706 -0.65553,-0.766117 -1.290588,-1.532235 -1.935882,-2.309176 -0.481412,-0.582706 -0.450706,-1.35953 0.06153,-1.845177 0.522353,-0.507176 1.259765,-0.453176 1.782235,0.140353 0.194588,0.215765 0.368706,0.442353 0.563294,0.668941 0.184353,0.205059 0.379059,0.420824 0.594118,0.690589 z"
     fill="white"
     id="path18"
     style="fill:#000000;stroke-width:1.17647" />
</svg>
