<svg width="34" height="39" viewBox="0 0 34 39" fill="none" xmlns="http://www.w3.org/2000/svg">
<path d="M17.3134 39C16.2359 38.7766 15.4806 38.0859 14.7354 37.3141C13.2148 35.7399 11.664 34.2063 10.1232 32.6524C10.0225 32.5508 9.92181 32.4594 9.78082 32.3172C9.53913 32.5813 9.31758 32.8352 9.0759 33.0789C7.62577 34.511 5.59156 34.511 4.1515 33.0789C3.12432 32.0531 2.09715 31.0172 1.08004 29.9813C-0.360015 28.5086 -0.360015 26.457 1.08004 24.9844C3.13439 22.8922 5.22902 20.8406 7.25316 18.718C10.4052 15.4172 12.4092 11.4969 13.3357 7.01798C13.3659 6.85548 13.2954 6.65236 13.2148 6.48986C11.9862 4.15392 13.7083 1.35079 16.3265 1.43204C17.2228 1.46251 17.9881 1.80782 18.6226 2.43751C22.8924 6.73361 27.1522 11.0297 31.4119 15.3359C32.419 16.3516 32.6909 17.6008 32.1974 18.9516C31.714 20.2922 30.707 21.0234 29.3072 21.1758C28.6426 21.2469 28.0182 21.0844 27.414 20.7899C27.2327 20.6984 26.981 20.6477 26.7896 20.6883C23.7081 21.3281 20.8783 22.557 18.2802 24.3445C18.2298 24.375 18.1795 24.4258 18.0889 24.4969C18.2399 24.6492 18.3708 24.7914 18.5118 24.9336C19.9821 26.4469 19.9921 28.4781 18.5219 29.9914C18.2903 30.225 18.0385 30.4281 17.7465 30.6922C18.6528 31.5758 19.5188 32.368 20.3144 33.2414C21.9257 34.9984 21.2912 37.8016 19.116 38.7156C18.8542 38.8274 18.5722 38.8883 18.3003 38.9797C17.968 39 17.6357 39 17.3134 39ZM15.249 8.86642C14.2218 12.7766 12.389 16.2805 9.83117 19.2867C11.4928 20.9625 13.1141 22.5977 14.7455 24.243C17.7465 21.6328 21.2207 19.8149 25.0777 18.7688C21.7847 15.4578 18.5219 12.1672 15.249 8.86642ZM12.963 25.9086C11.3619 24.2938 9.78082 22.6891 8.17964 21.0742C8.14943 21.1047 8.09907 21.1352 8.04872 21.1859C6.24613 23.0039 4.43347 24.8219 2.63088 26.65C2.11729 27.1781 2.12736 27.8281 2.66109 28.3664C3.66812 29.3922 4.68523 30.418 5.70233 31.4336C6.27634 32.0125 6.91077 32.0125 7.49485 31.4336C9.26723 29.6461 11.0396 27.8586 12.8019 26.0813C12.8724 26.0203 12.9228 25.9492 12.963 25.9086ZM30.1531 17.9359C30.1632 17.418 29.9618 17.1234 29.7 16.8492C25.5107 12.6344 21.3315 8.41954 17.1523 4.19454C17.0718 4.11329 16.9912 4.03204 16.9006 3.96095C16.528 3.69689 16.1352 3.64611 15.7223 3.84923C15.3296 4.0422 15.1181 4.37736 15.098 4.81407C15.0778 5.23048 15.2792 5.53517 15.5511 5.80939C19.7404 10.0242 23.9196 14.2391 28.0988 18.4641C28.1793 18.5453 28.2599 18.6367 28.3505 18.6977C28.7231 18.9617 29.1159 19.0125 29.5288 18.8094C29.9316 18.6164 30.1229 18.2711 30.1531 17.9359ZM11.4424 30.7836C12.1171 31.4539 12.812 32.1547 13.5068 32.8555C14.6649 34.0234 15.813 35.1914 16.971 36.3492C17.3134 36.6945 17.7163 36.8164 18.1795 36.6438C18.6226 36.4813 18.8743 36.1461 18.9247 35.6789C18.975 35.2727 18.7938 34.9477 18.5118 34.6633C16.7394 32.8859 14.9771 31.0984 13.2047 29.3109C13.1443 29.25 13.0738 29.1992 13.0335 29.1586C12.5099 29.6969 11.9963 30.225 11.4424 30.7836ZM16.2359 25.9492C15.7022 26.4469 15.1685 26.9547 14.6549 27.4422C15.2087 28.0008 15.7324 28.5188 16.2561 29.0469C17.7062 27.818 17.7163 27.1274 16.2359 25.9492Z" fill="white"/>
<path d="M24.1111 0C24.7556 0.284375 25.0073 0.782031 24.957 1.48281C24.9167 2.10234 24.957 2.72187 24.9469 3.35156C24.9369 4.0625 24.4736 4.57031 23.819 4.57031C23.1745 4.57031 22.6912 4.0625 22.6811 3.35156C22.671 2.72187 22.7012 2.08203 22.671 1.45234C22.6408 0.741406 22.9026 0.253906 23.5774 0C23.7586 0 23.9298 0 24.1111 0Z" fill="white"/>
<path d="M31.8146 3.47343C31.6636 3.73749 31.5629 4.05234 31.3614 4.26562C30.6565 5.01718 29.9113 5.74843 29.1762 6.47968C28.6827 6.96718 28.008 6.97734 27.5549 6.53046C27.0816 6.07343 27.0916 5.37265 27.5851 4.86484C28.3202 4.11327 29.0553 3.37187 29.8005 2.63046C30.153 2.27499 30.586 2.18359 31.0493 2.37655C31.4823 2.54921 31.7341 2.96562 31.8146 3.47343Z" fill="white"/>
<path d="M31.7743 9.14062C32.1368 9.14062 32.5094 9.13046 32.872 9.14062C33.5265 9.16093 33.9999 9.63827 33.9999 10.2781C33.9999 10.9078 33.5265 11.4055 32.882 11.4258C32.1268 11.4359 31.3715 11.4359 30.6162 11.4258C29.9818 11.4156 29.4783 10.9078 29.4783 10.2883C29.4783 9.66874 29.9717 9.16093 30.6061 9.14062C30.9989 9.13046 31.3916 9.14062 31.7743 9.14062Z" fill="white"/>
<path d="M8.05904 24.7406C8.6834 24.7609 9.03587 24.9742 9.2272 25.4008C9.41854 25.8273 9.37826 26.2641 9.06608 26.6094C8.51221 27.2086 7.92813 27.7977 7.33398 28.3562C6.88081 28.7727 6.21617 28.7117 5.80329 28.275C5.3904 27.8484 5.36019 27.168 5.78315 26.7211C6.32694 26.1422 6.88081 25.5734 7.46489 25.0352C7.64616 24.8727 7.92813 24.8016 8.05904 24.7406Z" fill="white"/>
</svg>
