<?xml version="1.0" encoding="UTF-8" standalone="no"?>
<svg
   width="40"
   height="40"
   viewBox="0 0 40 40"
   fill="none"
   version="1.1"
   id="svg12"
   sodipodi:docname="Marketing.svg"
   inkscape:version="1.2.2 (732a01da63, 2022-12-09)"
   xmlns:inkscape="http://www.inkscape.org/namespaces/inkscape"
   xmlns:sodipodi="http://sodipodi.sourceforge.net/DTD/sodipodi-0.dtd"
   xmlns="http://www.w3.org/2000/svg"
   xmlns:svg="http://www.w3.org/2000/svg">
  <defs
     id="defs16" />
  <sodipodi:namedview
     id="namedview14"
     pagecolor="#ffffff"
     bordercolor="#000000"
     borderopacity="0.25"
     inkscape:showpageshadow="2"
     inkscape:pageopacity="0.0"
     inkscape:pagecheckerboard="0"
     inkscape:deskcolor="#d1d1d1"
     showgrid="false"
     inkscape:zoom="10.858974"
     inkscape:cx="-3.3612751"
     inkscape:cy="25.785124"
     inkscape:window-width="1920"
     inkscape:window-height="1027"
     inkscape:window-x="-8"
     inkscape:window-y="-8"
     inkscape:window-maximized="1"
     inkscape:current-layer="svg12" />
  <path
     d="m 21.122942,40.000002 c -1.105128,-0.229128 -1.879795,-0.937538 -2.644102,-1.729128 -1.55959,-1.614564 -3.150154,-3.187487 -4.730462,-4.781231 -0.103282,-0.104205 -0.206554,-0.197949 -0.351159,-0.343795 -0.247887,0.270872 -0.475118,0.531282 -0.722994,0.781231 -1.487313,1.46882 -3.5736821,1.46882 -5.0506671,0 -1.053518,-1.052103 -2.1070257,-2.114564 -3.1502154,-3.177026 -1.4769795,-1.510461 -1.4769795,-3.614666 0,-5.125025 2.1070256,-2.145847 4.2553641,-4.250052 6.3314055,-6.427077 3.232861,-3.385436 5.288246,-7.406257 6.238502,-12.0000229 0.03097,-0.1666667 -0.04133,-0.3749949 -0.124,-0.5416615 -1.260103,-2.3958359 0.506154,-5.2708412 3.191487,-5.1875078 0.919282,0.031251 1.704205,0.3854155 2.354975,1.0312514 4.379282,4.4062564 8.748307,8.8125038 13.11723,13.2291198 1.032923,1.041744 1.311795,2.322975 0.805641,3.70841 -0.495794,1.374975 -1.528615,2.124924 -2.964307,2.281231 -0.681641,0.07292 -1.322052,-0.09374 -1.941744,-0.395795 -0.185949,-0.09385 -0.444102,-0.145846 -0.64041,-0.104205 -3.160513,0.656205 -6.062872,1.916616 -8.72759,3.749949 -0.05169,0.03128 -0.103282,0.08338 -0.196205,0.156308 0.154872,0.156205 0.289128,0.302051 0.433744,0.447897 1.508,1.552103 1.518256,3.635385 0.01036,5.187487 -0.237539,0.23959 -0.495795,0.447898 -0.795283,0.718769 0.929539,0.906257 1.817744,1.71877 2.633744,2.614565 1.652615,1.802051 1.001846,4.677128 -1.229128,5.614564 -0.268513,0.114666 -0.557744,0.177128 -0.836616,0.270871 -0.340821,0.02082 -0.681642,0.02082 -1.012206,0.02082 z M 19.005609,9.093764 c -1.053538,4.010443 -2.933333,7.604187 -5.556749,10.687469 1.704236,1.718769 3.367108,3.395897 5.040339,5.083384 3.077948,-2.677128 6.641231,-4.541641 10.597128,-5.614564 C 25.708891,15.854156 22.36243,12.479181 19.005609,9.093764 Z m -2.344615,17.479161 c -1.642154,-1.656205 -3.263775,-3.302051 -4.90601,-4.958359 -0.03099,0.03128 -0.08264,0.06256 -0.134277,0.114564 -1.8488107,1.864616 -3.7079492,3.729231 -5.5567594,5.604205 -0.526759,0.541641 -0.5164308,1.208308 0.030985,1.760411 1.0328513,1.052102 2.076041,2.104205 3.1192207,3.145846 0.588728,0.593743 1.2394257,0.593743 1.8384817,0 1.817826,-1.833334 3.635641,-3.666667 5.443128,-5.489539 0.07231,-0.06256 0.124,-0.135487 0.165231,-0.177128 z M 34.291865,18.395797 C 34.302225,17.864617 34.09566,17.562464 33.827147,17.281233 29.53043,12.958361 25.244071,8.6354255 20.957712,4.3020922 20.875147,4.2187589 20.792481,4.1354255 20.699558,4.0625127 20.317404,3.791682 19.914532,3.7395999 19.491045,3.9479281 c -0.402769,0.197918 -0.619692,0.5416718 -0.640308,0.9895795 -0.02072,0.4270872 0.185846,0.7395897 0.464718,1.020841 4.296718,4.3228844 8.583077,8.6458584 12.869436,12.9791914 0.08256,0.08328 0.165231,0.177026 0.258154,0.23959 0.382154,0.270769 0.785026,0.322872 1.208513,0.114564 0.413128,-0.197948 0.609333,-0.552102 0.640307,-0.895897 z M 15.101404,31.572925 c 0.692,0.687487 1.404718,1.406256 2.117333,2.125026 1.187795,1.197846 2.365334,2.395795 3.553026,3.583282 0.351179,0.354154 0.76441,0.479179 1.239487,0.302154 0.454462,-0.166667 0.712615,-0.510462 0.764308,-0.989641 0.05159,-0.416616 -0.134257,-0.749949 -0.423487,-1.041641 -1.817847,-1.822975 -3.625334,-3.656308 -5.44318,-5.489641 -0.06195,-0.06246 -0.134256,-0.114565 -0.17559,-0.156206 -0.537025,0.552103 -1.063795,1.093744 -1.631897,1.666667 z m 4.91641,-4.958359 c -0.547384,0.510462 -1.094769,1.031282 -1.621538,1.531282 0.568,0.572923 1.105128,1.104205 1.642256,1.645846 1.487282,-1.26041 1.497641,-1.968718 -0.02072,-3.177128 z"
     fill="white"
     id="path2"
     style="fill:#000000;stroke-width:1.02564" />
  <path
     d="m 28.094942,0 c 0.661026,0.29166673 0.91918,0.802083 0.86759,1.5208306 -0.04133,0.6354155 0,1.2708308 -0.01036,1.9166667 -0.01026,0.7291693 -0.485436,1.25 -1.15682,1.25 -0.661026,0 -1.156718,-0.5208307 -1.167077,-1.25 -0.01036,-0.6458359 0.02061,-1.302082 -0.01036,-1.947918 C 26.586945,0.7604164 26.855455,0.26041643 27.547558,0 c 0.185846,0 0.361436,0 0.547384,0 z"
     fill="white"
     id="path4"
     style="fill:#000000;stroke-width:1.02564" />
  <path
     d="m 35.995968,3.5624922 c -0.154872,0.2708308 -0.258154,0.5937539 -0.464821,0.8125026 -0.722974,0.7708307 -1.487282,1.5208307 -2.24123,2.2708307 -0.506154,0.5 -1.198154,0.5104206 -1.662872,0.052082 -0.485436,-0.4687486 -0.47518,-1.1874973 0.03097,-1.7083281 0.753949,-0.770841 1.507898,-1.5312513 2.272205,-2.2916718 0.361539,-0.3645846 0.805641,-0.4583282 1.280821,-0.2604205 0.444102,0.1770872 0.702359,0.6041743 0.784923,1.1250051 z"
     fill="white"
     id="path6"
     style="fill:#000000;stroke-width:1.02564" />
  <path
     d="m 35.954635,9.3749944 c 0.371795,0 0.753948,-0.01042 1.125846,0 0.671282,0.02083 1.15682,0.5104114 1.15682,1.1666486 0,0.645845 -0.485538,1.156308 -1.146564,1.177128 -0.774564,0.01036 -1.549231,0.01036 -2.323897,0 -0.650667,-0.01046 -1.167077,-0.531283 -1.167077,-1.166666 0,-0.6354482 0.506051,-1.1562796 1.156718,-1.1771106 0.402872,-0.01042 0.805641,0 1.198154,0 z"
     fill="white"
     id="path8"
     style="fill:#000000;stroke-width:1.02564" />
  <path
     d="m 11.631291,25.374976 c 0.640369,0.02082 1.001877,0.23959 1.198113,0.677129 0.196246,0.437435 0.154933,0.885435 -0.165251,1.239589 -0.568072,0.614564 -1.167128,1.21877 -1.776513,1.79159 -0.46479,0.42718 -1.1464717,0.364615 -1.5699387,-0.08328 -0.4234768,-0.437538 -0.4544614,-1.135385 -0.02066,-1.593744 0.557734,-0.593743 1.1258047,-1.177128 1.7248617,-1.729128 0.185918,-0.166666 0.475118,-0.23959 0.609384,-0.302154 z"
     fill="white"
     id="path10"
     style="fill:#000000;stroke-width:1.02564" />
</svg>
