<svg width="16" height="16" fill="none" xmlns="http://www.w3.org/2000/svg"><path d="M3.25 14c1.015 0 2.01-.275 2.88-.797L8.8 11.6H3.2V14h.05zM8.8 5.2 6.13 3.598A5.591 5.591 0 0 0 3.25 2.8H3.2v2.4h5.6zm-6.4 0V2.8H2A1.2 1.2 0 0 0 .8 4v1.2H1a1 1 0 0 0-1 1v4.4a1 1 0 0 0 1 1H.8v1.2A1.2 1.2 0 0 0 2 14h.4v-2.4h.2c.655 0 1.235-.315 1.6-.8h7.2c1.732 0 3.375-.568 4.48-2.04a.6.6 0 0 0 0-.72C14.775 6.568 13.132 6 11.4 6H4.2a1.998 1.998 0 0 0-1.6-.8h-.2zm10.4 2.89v.623a.89.89 0 0 1-.89.89.11.11 0 0 1-.11-.11V7.31c0-.062.05-.11.11-.11.49 0 .89.398.89.89z" fill="#6E6CFF"/></svg>