<?xml version="1.0" encoding="UTF-8" standalone="no"?>
<svg
   width="40"
   height="40"
   viewBox="0 0 40 40"
   fill="none"
   version="1.1"
   id="svg6"
   sodipodi:docname="Mathematik.svg"
   inkscape:version="1.2.2 (732a01da63, 2022-12-09)"
   xmlns:inkscape="http://www.inkscape.org/namespaces/inkscape"
   xmlns:sodipodi="http://sodipodi.sourceforge.net/DTD/sodipodi-0.dtd"
   xmlns="http://www.w3.org/2000/svg"
   xmlns:svg="http://www.w3.org/2000/svg">
  <defs
     id="defs10" />
  <sodipodi:namedview
     id="namedview8"
     pagecolor="#ffffff"
     bordercolor="#000000"
     borderopacity="0.25"
     inkscape:showpageshadow="2"
     inkscape:pageopacity="0.0"
     inkscape:pagecheckerboard="0"
     inkscape:deskcolor="#d1d1d1"
     showgrid="false"
     inkscape:zoom="7.3017241"
     inkscape:cx="67.860685"
     inkscape:cy="3.5608028"
     inkscape:window-width="1920"
     inkscape:window-height="1027"
     inkscape:window-x="-8"
     inkscape:window-y="-8"
     inkscape:window-maximized="1"
     inkscape:current-layer="svg6" />
  <path
     d="m 9.8025617,34.45647 c -0.631749,0 -1.1265881,-0.410457 -1.3477019,-1.115712 L 8.0758062,32.161987 C 7.0018298,28.825411 5.8857513,25.373176 4.8117853,21.973438 4.706499,21.647163 4.538018,21.331451 4.0115657,21.331451 c -0.031592,0 -0.063163,0 -0.094755,0 -0.1789909,0.01056 -0.3579922,0.01056 -0.5896366,0.01056 -0.1684602,0 -0.3264,0 -0.4948602,0 -0.1684706,0 -0.3264,0 -0.4948601,0 -0.2316444,0 -0.4211765,0 -0.5896366,0.01046 -0.052654,0 -0.1052967,0 -0.1579399,0 -0.82127055,0 -1.32665095,-0.347294 -1.58987705,-1.094588 v -0.557908 c 0.2632261,-0.757752 0.7686065,-1.094589 1.64252025,-1.094589 0.042112,0 0.073715,0 0.1158274,0 0.421166,0.01056 0.8739137,0.02102 1.4214275,0.02102 0.3579921,0 0.705464,0 1.0634457,0 0.3474615,0 0.7054536,0 1.052915,0 h 0.094745 c 0.8528628,0 1.2950902,0.315817 1.5583164,1.126274 0.4316863,1.33668 0.863383,2.67336 1.2950797,4.010144 l 0.7264941,2.241884 c 0.021062,0.0526 0.042112,0.115763 0.073705,0.199947 0.021051,0.04214 0.042123,0.105203 0.063184,0.178928 0.031582,0.08418 0.1052764,0.136785 0.2000424,0.136785 0.01052,0 0.01052,0 0.02105,0 0.09477,-0.01046 0.168471,-0.08418 0.189532,-0.178928 l 0.168512,-1.041987 c 0.115764,-0.705151 0.221071,-1.389281 0.3368363,-2.062955 l 1.947923,-12.061972 c 0.06316,-0.399959 0.126326,-0.789396 0.18949,-1.1893546 0.16847,-1.0735791 0.347503,-2.1892706 0.536993,-3.2839006 0.126327,-0.7472921 0.652863,-1.1683033 1.42149,-1.1683033 4.116811,0 8.244183,0 12.361098,0 4.022066,0 8.044236,0 12.076863,0 0.421124,0 0.800209,0.1473548 1.063425,0.4104868 C 39.863111,6.1960577 40,6.5328734 40,6.9012603 c 0,0.7999164 -0.621281,1.3577621 -1.505673,1.3577621 -4.001046,0 -8.002092,0 -11.99268,0 h -11.11864 c -0.105308,0 -0.189595,0.073673 -0.210615,0.1789281 L 12.39268,25.678431 c -0.400105,2.483974 -0.800105,4.967843 -1.200209,7.451817 -0.126432,0.800001 -0.5897,1.284079 -1.2635823,1.336785 -0.04204,-0.02112 -0.08418,-0.01056 -0.126327,-0.01056 z"
     fill="white"
     id="path2"
     style="fill:#000000;stroke-width:1.04575" />
  <path
     d="m 20.837124,30.025307 c -0.147451,0 -0.315921,-0.03158 -0.47383,-0.08418 -0.515869,-0.178928 -0.821229,-0.557804 -0.905516,-1.10515 -0.07362,-0.452602 0.08429,-0.863059 0.494849,-1.263059 0.842353,-0.831477 1.684706,-1.673517 2.516497,-2.515556 0.747608,-0.747294 1.484549,-1.484026 2.232157,-2.23132 0.0526,-0.0526 0.126327,-0.09474 0.200052,-0.147347 0.04214,-0.03158 0.09474,-0.06316 0.147451,-0.09474 0.0526,-0.03158 0.08418,-0.09474 0.09474,-0.147346 0.01056,-0.06316 -0.01056,-0.126327 -0.0526,-0.168471 -0.06327,-0.06306 -0.115869,-0.115764 -0.158013,-0.168366 -0.08418,-0.09474 -0.147346,-0.157908 -0.21051,-0.221072 -0.716026,-0.715712 -1.432052,-1.431424 -2.147974,-2.147137 -0.894954,-0.89464 -1.790013,-1.789281 -2.684967,-2.68392 -0.421124,-0.421021 -0.558013,-0.884183 -0.389542,-1.410406 0.157908,-0.515734 0.505411,-0.831488 1.031843,-0.947263 0.105307,-0.02105 0.200052,-0.03158 0.294797,-0.03158 0.368523,0 0.705464,0.157877 1.042405,0.494694 1.263477,1.263026 2.526955,2.526085 3.790432,3.789144 l 0.989804,0.989386 c 0.07362,0.07362 0.136889,0.136784 0.221072,0.210405 l 0.115869,0.105307 c 0.04204,0.04214 0.09474,0.0526 0.147346,0.0526 0.05271,0 0.105307,-0.02102 0.147451,-0.0526 l 0.105203,-0.105307 c 0.07372,-0.07362 0.147451,-0.136785 0.221176,-0.210405 0.505412,-0.505308 1.000262,-0.999948 1.505673,-1.505151 1.084445,-1.094693 2.211033,-2.220863 3.327164,-3.315481 0.294797,-0.284184 0.66332,-0.442061 1.042405,-0.442061 0.610614,0 1.116026,0.389428 1.284497,0.989334 0.147451,0.526327 0.01056,0.989385 -0.421124,1.410404 -1.305621,1.294642 -2.60068,2.599739 -3.906301,3.89438 l -0.894954,0.894641 c -0.07373,0.07372 -0.136889,0.136889 -0.210615,0.221071 -0.03158,0.03158 -0.06316,0.07362 -0.105307,0.105202 -0.07372,0.08418 -0.07372,0.21051 0,0.294693 l 0.105307,0.115869 c 0.07373,0.07362 0.136889,0.147347 0.210615,0.220968 1.042405,1.041987 4.832836,4.831163 4.832836,4.831163 0.410562,0.410458 0.536994,0.873517 0.368523,1.410301 -0.158013,0.515765 -0.515869,0.831582 -1.073987,0.936784 -0.08418,0.01056 -0.16847,0.02102 -0.252653,0.02102 -0.368523,0 -0.694902,-0.157804 -1.021386,-0.484079 -0.779085,-0.778875 -1.558274,-1.568313 -2.347921,-2.347189 -0.77919,-0.778876 -1.55838,-1.557752 -2.348027,-2.347085 -0.07372,-0.07373 -0.147346,-0.168471 -0.231634,-0.273673 -0.04204,-0.05271 -0.08429,-0.115765 -0.136889,-0.168471 -0.04214,-0.04204 -0.09474,-0.07362 -0.147346,-0.07362 h -0.01056 c -0.05271,0 -0.105307,0.02102 -0.147451,0.0526 -0.0526,0.0526 -0.105203,0.09475 -0.147346,0.136785 -0.08429,0.07372 -0.158013,0.136889 -0.221177,0.21051 -0.842248,0.831581 -4.832836,4.820601 -4.832836,4.820601 -0.294798,0.326275 -0.631739,0.484184 -0.9897,0.484184 z"
     fill="white"
     id="path4"
     style="fill:#000000;stroke-width:1.04575" />
</svg>
