<svg width="40" height="29" viewBox="0 0 40 29" fill="none" xmlns="http://www.w3.org/2000/svg">
<path d="M10.2487 28.1581C9.64459 28.1581 9.1714 27.7656 8.95996 27.0912L8.59749 25.964C7.5705 22.7734 6.50325 19.4722 5.47627 16.2212C5.37559 15.9092 5.21448 15.6073 4.71106 15.6073C4.68085 15.6073 4.65066 15.6073 4.62045 15.6073C4.44929 15.6174 4.27812 15.6174 4.05661 15.6174C3.89552 15.6174 3.74449 15.6174 3.5834 15.6174C3.4223 15.6174 3.27128 15.6174 3.11019 15.6174C2.88868 15.6174 2.70744 15.6174 2.54635 15.6274C2.496 15.6274 2.44566 15.6274 2.39532 15.6274C1.60998 15.6274 1.12671 15.2953 0.875 14.5807V14.0472C1.12671 13.3226 1.60998 13.0005 2.44566 13.0005C2.48593 13.0005 2.51615 13.0005 2.55642 13.0005C2.95916 13.0106 3.3921 13.0206 3.91566 13.0206C4.25799 13.0206 4.59026 13.0206 4.93258 13.0206C5.26484 13.0206 5.60717 13.0206 5.93943 13.0206H6.03003C6.84558 13.0206 7.26846 13.3226 7.52017 14.0976C7.93297 15.3758 8.34578 16.654 8.75859 17.9323L9.4533 20.0761C9.47344 20.1264 9.49357 20.1868 9.52378 20.2673C9.54391 20.3076 9.56406 20.3679 9.5842 20.4384C9.6144 20.5189 9.68487 20.5692 9.77549 20.5692C9.78555 20.5692 9.78555 20.5692 9.79562 20.5692C9.88624 20.5592 9.95672 20.4887 9.97686 20.3981L10.138 19.4017C10.2487 18.7274 10.3494 18.0732 10.4601 17.429L12.3228 5.89474C12.3832 5.51228 12.4436 5.13988 12.504 4.75742C12.6651 3.73081 12.8363 2.66393 13.0175 1.61719C13.1383 0.902592 13.6418 0.5 14.3768 0.5C18.3135 0.5 22.2603 0.5 26.1971 0.5C30.0432 0.5 33.8894 0.5 37.7456 0.5C38.1483 0.5 38.5108 0.640908 38.7625 0.892528C38.9941 1.13408 39.125 1.45616 39.125 1.80843C39.125 2.57335 38.5309 3.10679 37.6852 3.10679C33.8592 3.10679 30.0332 3.10679 26.2172 3.10679H15.585C15.4843 3.10679 15.4037 3.17724 15.3836 3.27789L12.7255 19.7641C12.3429 22.1394 11.9604 24.5146 11.5778 26.8899C11.4569 27.6549 11.0139 28.1178 10.3695 28.1682C10.3293 28.148 10.289 28.1581 10.2487 28.1581Z" fill="white"/>
<path d="M20.8005 23.9208C20.6595 23.9208 20.4984 23.8906 20.3474 23.8403C19.8541 23.6692 19.5621 23.3069 19.4815 22.7835C19.4111 22.3507 19.5621 21.9582 19.9547 21.5757C20.7602 20.7806 21.5657 19.9754 22.3611 19.1702C23.076 18.4556 23.7807 17.7511 24.4956 17.0365C24.5459 16.9862 24.6164 16.9459 24.6869 16.8956C24.7272 16.8654 24.7775 16.8352 24.8279 16.805C24.8782 16.7748 24.9084 16.7144 24.9185 16.6641C24.9286 16.6037 24.9084 16.5433 24.8682 16.503C24.8077 16.4427 24.7574 16.3923 24.7171 16.342C24.6366 16.2514 24.5762 16.191 24.5158 16.1306C23.8311 15.4462 23.1464 14.7618 22.4618 14.0774C21.606 13.2219 20.7501 12.3664 19.8943 11.5109C19.4916 11.1083 19.3607 10.6654 19.5218 10.1622C19.6728 9.66903 20.0051 9.36709 20.5085 9.25638C20.6092 9.23625 20.6998 9.22618 20.7904 9.22618C21.1428 9.22618 21.465 9.37715 21.7872 9.69923C22.9954 10.907 24.2036 12.1148 25.4118 13.3226L26.3583 14.2687C26.4287 14.3391 26.4892 14.3995 26.5697 14.4699L26.6805 14.5706C26.7207 14.6109 26.7711 14.6209 26.8214 14.6209C26.8718 14.6209 26.9221 14.6008 26.9624 14.5706L27.063 14.4699C27.1335 14.3995 27.204 14.3391 27.2745 14.2687C27.7578 13.7855 28.231 13.3125 28.7143 12.8294C29.7513 11.7826 30.8286 10.7057 31.8959 9.65897C32.1778 9.38722 32.5302 9.23625 32.8927 9.23625C33.4766 9.23625 33.9599 9.60864 34.121 10.1823C34.262 10.6856 34.1311 11.1284 33.7183 11.531C32.4698 12.769 31.2314 14.017 29.9829 15.255L29.1271 16.1105C29.0566 16.181 28.9962 16.2414 28.9257 16.3219C28.8955 16.3521 28.8653 16.3923 28.825 16.4225C28.7545 16.503 28.7545 16.6238 28.825 16.7043L28.9257 16.8151C28.9962 16.8855 29.0566 16.956 29.1271 17.0264C30.1239 18.0228 33.7485 21.6462 33.7485 21.6462C34.1411 22.0387 34.262 22.4815 34.1009 22.9948C33.9498 23.488 33.6076 23.79 33.0739 23.8906C32.9934 23.9007 32.9128 23.9107 32.8323 23.9107C32.4799 23.9107 32.1678 23.7598 31.8556 23.4478C31.1106 22.703 30.3655 21.9481 29.6104 21.2033C28.8653 20.4585 28.1202 19.7137 27.3651 18.9589C27.2946 18.8884 27.2242 18.7978 27.1436 18.6972C27.1034 18.6468 27.063 18.5865 27.0127 18.5361C26.9724 18.4959 26.9221 18.4657 26.8718 18.4657H26.8617C26.8113 18.4657 26.761 18.4858 26.7207 18.516C26.6704 18.5663 26.6201 18.6066 26.5798 18.6468C26.4992 18.7173 26.4287 18.7777 26.3683 18.8481C25.5629 19.6433 21.7469 23.4578 21.7469 23.4578C21.465 23.7698 21.1428 23.9208 20.8005 23.9208Z" fill="white"/>
</svg>
