<svg width="16" height="16" fill="none" xmlns="http://www.w3.org/2000/svg"><g clip-path="url(#a)"><path d="M8.028 1.672A.886.886 0 0 1 8.888 1h6.223a.888.888 0 1 1 0 1.778H9.583L6.64 14.55a.882.882 0 0 1-.767.667.888.888 0 0 1-.891-.486L2.117 9H.889a.888.888 0 1 1 0-1.778h1.778c.336 0 .644.19.794.492l2.036 4.072 2.53-10.114zm2.9 5.811a.89.89 0 0 1 1.258 0l1.147 1.148 1.15-1.15a.89.89 0 0 1 1.259 1.258l-1.15 1.15 1.15 1.15a.89.89 0 0 1-1.259 1.258l-1.15-1.15-1.15 1.15a.89.89 0 0 1-1.258-1.258l1.15-1.15-1.15-1.15a.89.89 0 0 1 0-1.258l.003.002z" fill="#6E6CFF"/></g><defs><clipPath id="a"><path fill="#fff" d="M0 0h16v16H0z"/></clipPath></defs></svg>