<svg width="16" height="16" fill="none" xmlns="http://www.w3.org/2000/svg"><path d="M15.2 2H4a.828.828 0 0 0-.566.22.727.727 0 0 0-.234.53V5h4V3.5H12V11h3.2a.828.828 0 0 0 .566-.22.727.727 0 0 0 .234-.53v-7.5a.727.727 0 0 0-.234-.53A.828.828 0 0 0 15.2 2zM5.8 4.414c0 .056-.024.11-.066.15a.233.233 0 0 1-.159.061h-.75a.233.233 0 0 1-.16-.062.204.204 0 0 1-.065-.149v-.703c0-.056.024-.11.066-.15.042-.039.1-.061.159-.061h.75c.06 0 .117.022.16.062.041.04.065.093.065.149v.703zm8.8 4.875c0 .056-.024.11-.066.15a.233.233 0 0 1-.159.061h-.75a.233.233 0 0 1-.16-.062.204.204 0 0 1-.065-.149v-.703c0-.056.024-.11.066-.15.042-.039.1-.061.159-.061h.75c.06 0 .117.022.16.062.041.04.065.093.065.149v.703zm0-2.437c0 .056-.024.11-.066.149a.233.233 0 0 1-.159.061h-.75a.233.233 0 0 1-.16-.061.204.204 0 0 1-.065-.15v-.703c0-.056.024-.11.066-.149.042-.04.1-.061.159-.061h.75c.06 0 .117.022.16.061.041.04.065.093.065.15v.703zm0-2.438c0 .056-.024.11-.066.15a.233.233 0 0 1-.159.061h-.75a.233.233 0 0 1-.16-.062.204.204 0 0 1-.065-.149v-.703c0-.056.024-.11.066-.15.042-.039.1-.061.159-.061h.75c.06 0 .117.022.16.062.041.04.065.093.065.149v.703zM10.4 5.75H.8a.828.828 0 0 0-.566.22A.727.727 0 0 0 0 6.5v6.75c0 .199.084.39.234.53.15.141.354.22.566.22h9.6a.828.828 0 0 0 .566-.22.727.727 0 0 0 .234-.53V6.5a.727.727 0 0 0-.234-.53.828.828 0 0 0-.566-.22zm-8 1.5c.158 0 .313.044.444.126.132.083.235.2.295.337s.077.288.046.433a.737.737 0 0 1-.22.384.818.818 0 0 1-.409.206.85.85 0 0 1-.462-.043.791.791 0 0 1-.36-.276.717.717 0 0 1 .1-.947c.15-.141.354-.22.566-.22zm7.2 5.25h-8v-.75l1.6-1.5.8.75 3.2-3 2.4 2.25v2.25z" fill="#6E6CFF"/></svg>