<?xml version="1.0" encoding="UTF-8" standalone="no"?>
<svg
   width="40"
   height="40"
   viewBox="0 0 40 40"
   fill="none"
   version="1.1"
   id="svg10"
   sodipodi:docname="Medienwissenschaften.svg"
   inkscape:version="1.2.2 (732a01da63, 2022-12-09)"
   xmlns:inkscape="http://www.inkscape.org/namespaces/inkscape"
   xmlns:sodipodi="http://sodipodi.sourceforge.net/DTD/sodipodi-0.dtd"
   xmlns="http://www.w3.org/2000/svg"
   xmlns:svg="http://www.w3.org/2000/svg">
  <defs
     id="defs14" />
  <sodipodi:namedview
     id="namedview12"
     pagecolor="#ffffff"
     bordercolor="#000000"
     borderopacity="0.25"
     inkscape:showpageshadow="2"
     inkscape:pageopacity="0.0"
     inkscape:pagecheckerboard="0"
     inkscape:deskcolor="#d1d1d1"
     showgrid="false"
     inkscape:zoom="10.5875"
     inkscape:cx="30.932704"
     inkscape:cy="19.456907"
     inkscape:window-width="1920"
     inkscape:window-height="1027"
     inkscape:window-x="-8"
     inkscape:window-y="-8"
     inkscape:window-maximized="1"
     inkscape:current-layer="svg10" />
  <path
     d="m 19.565908,28.007359 c -4.229856,0 -8.144104,0 -11.9636387,-0.01047 -4.1667765,-0.01057 -7.56544211,-3.422042 -7.58648577,-7.591512 -0.02104471,-4.001036 -0.02104471,-8.181078 0,-12.7928476 C 0.02630588,5.7594155 0.7102222,3.9799954 1.9413229,2.5901479 3.1724131,1.2108419 4.866468,0.30534578 6.7183686,0.0631722 6.7920206,0.0526433 6.8551948,0.0315846 6.9183268,0.0105268 6.9288578,0.0105268 6.9393568,0 6.9498768,0 H 33.076392 c 0.01056,0 0.02102,0.0105268 0.03158,0.0105268 0.0526,0.0210577 0.126222,0.0421165 0.199948,0.0526454 3.188183,0.42115828 5.734588,2.7165018 6.481673,5.8436455 0.0526,0.2316395 0.105202,0.4632895 0.147242,0.694929 0.02102,0.1052888 0.04214,0.2000361 0.06316,0.3053353 v 14.172134 c -0.02102,0.105309 -0.04214,0.200046 -0.06316,0.305356 -0.04204,0.23166 -0.09464,0.473789 -0.147242,0.694981 -0.831268,3.474593 -3.872209,5.896192 -7.397124,5.906765 -4.671896,0.01057 -8.87017,0.02104 -12.826563,0.02104 z m 7.681255,-2.748101 c 1.63085,0 3.272366,0 4.903321,0 2.956653,0 5.103268,-2.158431 5.103268,-5.117152 0,-4.095774 0,-8.181079 0,-12.2768731 0,-2.979731 -2.157072,-5.1381928 -5.13485,-5.1381928 -4.040471,0 -8.091608,0 -12.132078,0 -4.040471,0 -8.091504,0 -12.1320266,0 -2.9672575,0 -5.124319,2.1584618 -5.124319,5.1381928 0,4.0747531 0,8.1600581 0,12.2347911 0,3.032417 2.1149491,5.148765 5.1453281,5.159234 1.6309335,0 3.2514095,0 4.8823635,0 h 7.228654 z"
     fill="white"
     id="path2"
     style="fill:#000000;stroke-width:1.04628" />
  <path
     d="m 38.232157,36.851805 c -4.661333,-0.01057 -9.259503,-0.01057 -13.14217,-0.01057 H 14.283712 14.104784 c -0.11566,0 -0.231425,0 -0.336627,-0.02104 -0.694484,-0.12635 -1.178562,-0.747531 -1.136418,-1.452981 0.0526,-0.694981 0.620862,-1.242466 1.336366,-1.263507 0.157803,0 0.336627,-0.01057 0.547137,-0.01057 0.136784,0 0.273464,0 0.410353,0 0.136784,0 0.273568,0 0.42081,0 0,0 8.996497,0 10.785255,0 3.31451,0 7.68115,0 12.100497,-0.01047 h 0.01056 c 0.95749,0 1.473046,0.326397 1.746614,1.09497 v 0.558057 c -0.273568,0.789718 -0.799686,1.116116 -1.757176,1.116116 z"
     fill="white"
     id="path4"
     style="fill:#000000;stroke-width:1.04628" />
  <path
     d="m 4.5296314,40 c -2.4937517,0 -4.52452499,-2.03208 -4.52452499,-4.52748 0,-2.484933 2.02027399,-4.517012 4.49298509,-4.52748 h 0.021009 c 2.4937516,0 4.5245385,2.021507 4.5350692,4.506439 0,1.210853 -0.4629856,2.347904 -1.3258039,3.211318 C 6.8760678,39.526211 5.7396808,40 4.5296314,40 Z m 0,-6.812261 c -1.2521307,0 -2.2727634,1.010701 -2.2938039,2.26374 -0.01052,1.263402 0.9996026,2.305822 2.262264,2.316395 h 0.021009 c 1.2521411,0 2.2728156,-1.010806 2.2938666,-2.26374 0.01052,-1.263507 -0.9996026,-2.305927 -2.262264,-2.316395 z"
     fill="white"
     id="path6"
     style="fill:#000000;stroke-width:1.04628" />
  <path
     d="m 18.440157,21.689928 c -0.431477,0 -0.873412,-0.105309 -1.315347,-0.326397 -1.094274,-0.547485 -1.651973,-1.463554 -1.651973,-2.748102 0,-1.084502 0,-2.169004 0,-3.253505 v -2.821798 c 0,-1.052887 0,-2.116349 0,-3.169247 0,-1.284548 0.557699,-2.2110955 1.641516,-2.7586118 0.44183,-0.2211086 0.894327,-0.3369388 1.325804,-0.3369388 0.620758,0 1.231059,0.221119 1.820235,0.663336 l 0.189386,0.1474127 c 1.946666,1.4530123 3.956392,2.9586479 5.934536,4.4538159 0.820706,0.621181 1.294222,1.516209 1.294222,2.442745 0,0.926538 -0.462954,1.810993 -1.283765,2.432174 -1.746614,1.326734 -3.535372,2.653364 -5.261072,3.948485 l -0.862745,0.642223 c -0.589281,0.463321 -1.210039,0.684408 -1.830797,0.684408 z m 0,-12.6243947 c -0.03158,0 -0.06327,0.010542 -0.09474,0.021072 -0.07373,0.031582 -0.115765,0.1052777 -0.115765,0.1895157 v 9.444616 c 0,0.08417 0.04204,0.157861 0.115765,0.189474 0.03148,0.01057 0.06316,0.02104 0.09474,0.02104 0.04204,0 0.08408,-0.01047 0.126222,-0.04208 l 6.292288,-4.717058 c 0.0526,-0.04208 0.08408,-0.105205 0.08408,-0.168432 0,-0.06312 -0.03148,-0.126351 -0.08408,-0.168434 L 18.566379,9.1181882 c -0.03158,-0.042124 -0.07362,-0.052655 -0.126222,-0.052655 z"
     fill="white"
     id="path8"
     style="fill:#000000;stroke-width:1.04628" />
</svg>
