<svg width="40" height="40" viewBox="0 0 40 40" fill="none" xmlns="http://www.w3.org/2000/svg">
<path d="M19.5849 27.6298C15.5401 27.6298 11.7971 27.6298 8.14467 27.6198C4.16019 27.6097 0.910216 24.3508 0.890093 20.3678C0.869969 16.5457 0.869969 12.5526 0.890093 8.14708C0.900155 6.37684 1.55415 4.677 2.73139 3.34931C3.90862 2.03169 5.52856 1.16669 7.29944 0.935347C7.36987 0.925289 7.43028 0.905172 7.49065 0.885056C7.50072 0.885056 7.51076 0.875 7.52082 0.875H32.5043C32.5144 0.875 32.5244 0.885056 32.5345 0.885056C32.5848 0.905172 32.6552 0.925289 32.7257 0.935347C35.7744 1.33767 38.2094 3.53036 38.9238 6.51765C38.9741 6.73893 39.0244 6.96022 39.0646 7.1815C39.0847 7.28208 39.1049 7.37259 39.125 7.47318V21.0115C39.1049 21.1121 39.0847 21.2026 39.0646 21.3032C39.0244 21.5245 38.9741 21.7558 38.9238 21.9671C38.1289 25.2863 35.221 27.5996 31.8503 27.6097C27.3828 27.6198 23.3682 27.6298 19.5849 27.6298ZM26.9301 25.0046C28.4896 25.0046 30.0593 25.0046 31.6189 25.0046C34.4462 25.0046 36.4989 22.9427 36.4989 20.1163C36.4989 16.2037 36.4989 12.3011 36.4989 8.38848C36.4989 5.54201 34.4362 3.48008 31.5887 3.48008C27.725 3.48008 23.8511 3.48008 19.9874 3.48008C16.1237 3.48008 12.2499 3.48008 8.38615 3.48008C5.54871 3.48008 3.48602 5.54201 3.48602 8.38848C3.48602 12.281 3.48602 16.1836 3.48602 20.0761C3.48602 22.9729 5.50844 24.9946 8.40624 25.0046C9.96582 25.0046 11.5154 25.0046 13.075 25.0046H19.9874H26.9301Z" fill="white"/>
<path d="M37.4345 36.0787C32.9771 36.0686 28.5801 36.0686 24.8673 36.0686H14.5338H14.3627C14.2521 36.0686 14.1414 36.0686 14.0408 36.0485C13.3767 35.9278 12.9138 35.3344 12.9541 34.6605C13.0044 33.9966 13.5478 33.4736 14.232 33.4535C14.3829 33.4535 14.5539 33.4434 14.7552 33.4434C14.886 33.4434 15.0167 33.4434 15.1476 33.4434C15.2784 33.4434 15.4092 33.4434 15.55 33.4434C15.55 33.4434 24.1529 33.4434 25.8634 33.4434C29.0329 33.4434 33.2085 33.4434 37.4345 33.4334H37.4446C38.3602 33.4334 38.8532 33.7452 39.1148 34.4794V35.0125C38.8532 35.7669 38.3501 36.0787 37.4345 36.0787Z" fill="white"/>
<path d="M5.20646 39.0861C2.82181 39.0861 0.879883 37.1449 0.879883 34.7611C0.879883 32.3873 2.81177 30.4461 5.1763 30.4361H5.19639C7.58104 30.4361 9.52298 32.3672 9.53305 34.741C9.53305 35.8977 9.09032 36.9839 8.26525 37.8087C7.45024 38.6335 6.36357 39.0861 5.20646 39.0861ZM5.20646 32.5785C4.00911 32.5785 3.03313 33.544 3.01301 34.741C3.00295 35.9479 3.96888 36.9437 5.1763 36.9538H5.19639C6.39375 36.9538 7.36977 35.9882 7.3899 34.7913C7.39996 33.5843 6.43403 32.5885 5.22661 32.5785H5.20646Z" fill="white"/>
<path d="M18.5084 21.5949C18.0958 21.5949 17.6732 21.4943 17.2506 21.2831C16.2042 20.7601 15.6709 19.885 15.6709 18.6579C15.6709 17.6219 15.6709 16.5859 15.6709 15.5499V12.8543C15.6709 11.8485 15.6709 10.8326 15.6709 9.82679C15.6709 8.59969 16.2042 7.71458 17.2406 7.19155C17.6631 6.98033 18.0958 6.86968 18.5084 6.86968C19.102 6.86968 19.6856 7.08091 20.249 7.50335L20.4301 7.64417C22.2916 9.0322 24.2134 10.4705 26.105 11.8988C26.8898 12.4922 27.3426 13.3472 27.3426 14.2323C27.3426 15.1174 26.8999 15.9623 26.115 16.5557C24.4448 17.8231 22.7343 19.0904 21.0841 20.3276L20.2591 20.9411C19.6956 21.3837 19.102 21.5949 18.5084 21.5949ZM18.5084 9.5351C18.4782 9.5351 18.4479 9.54517 18.4178 9.55523C18.3473 9.5854 18.3071 9.6558 18.3071 9.73627V18.7585C18.3071 18.8389 18.3473 18.9093 18.4178 18.9395C18.4479 18.9496 18.4782 18.9596 18.5084 18.9596C18.5486 18.9596 18.5888 18.9496 18.6291 18.9194L24.6461 14.4133C24.6964 14.3731 24.7265 14.3128 24.7265 14.2524C24.7265 14.1921 24.6964 14.1317 24.6461 14.0915L18.6291 9.5854C18.5989 9.54516 18.5587 9.5351 18.5084 9.5351Z" fill="white"/>
</svg>
