<svg width="16" height="16" fill="none" xmlns="http://www.w3.org/2000/svg"><g clip-path="url(#a)"><path d="M13.972 3.5a2.008 2.008 0 0 0-1.969 1.956c-.015.76.39 1.425 1 1.775v3.519c0 1.79-1.569 3.25-3.5 3.25-1.875 0-3.412-1.378-3.497-3.1A5.013 5.013 0 0 0 10 6V1.144a.75.75 0 0 0-.603-.735L7.43.016a.748.748 0 0 0-.881.587l-.1.49c-.081.407.181.8.587.882l.96.19V5.96c0 1.653-1.319 3.022-2.972 3.038a3 3 0 0 1-3.028-3V2.169l.96-.19a.748.748 0 0 0 .587-.882l-.097-.49a.748.748 0 0 0-.881-.588L.603.406A.753.753 0 0 0 0 1.144V6a5.008 5.008 0 0 0 4.003 4.9C4.084 13.725 6.52 16 9.5 16c3.031 0 5.5-2.356 5.5-5.25V7.231A2 2 0 0 0 13.972 3.5zM14 6a.501.501 0 0 1-.5-.5c0-.275.225-.5.5-.5s.5.225.5.5-.225.5-.5.5z" fill="#6E6CFF"/></g><defs><clipPath id="a"><path fill="#fff" d="M0 0h16v16H0z"/></clipPath></defs></svg>