<?xml version="1.0" encoding="UTF-8" standalone="no"?>
<svg
   width="40"
   height="40"
   viewBox="0 0 40 40"
   fill="none"
   version="1.1"
   id="svg6"
   sodipodi:docname="Medizin.svg"
   inkscape:version="1.2.2 (732a01da63, 2022-12-09)"
   xmlns:inkscape="http://www.inkscape.org/namespaces/inkscape"
   xmlns:sodipodi="http://sodipodi.sourceforge.net/DTD/sodipodi-0.dtd"
   xmlns="http://www.w3.org/2000/svg"
   xmlns:svg="http://www.w3.org/2000/svg">
  <defs
     id="defs10" />
  <sodipodi:namedview
     id="namedview8"
     pagecolor="#ffffff"
     bordercolor="#000000"
     borderopacity="0.25"
     inkscape:showpageshadow="2"
     inkscape:pageopacity="0.0"
     inkscape:pagecheckerboard="0"
     inkscape:deskcolor="#d1d1d1"
     showgrid="false"
     inkscape:zoom="7.4864931"
     inkscape:cx="50.557717"
     inkscape:cy="2.40433"
     inkscape:window-width="1920"
     inkscape:window-height="1027"
     inkscape:window-x="-8"
     inkscape:window-y="-8"
     inkscape:window-maximized="1"
     inkscape:current-layer="svg6" />
  <path
     d="m 3.9356102,0 c 6.5590278,0 13.1180858,0 19.6771448,0 0.03127,0.020829 0.06243,0.0520705 0.0937,0.062485 1.186929,0.3853434 1.853177,1.3018354 1.853177,2.5411753 0,1.4268054 0,2.8640232 0,4.2908286 0,1.3330831 -1.041046,2.3745451 -2.373752,2.3953701 -0.239477,0 -0.489307,0 -0.749594,0 0,0.479086 0,0.906048 0,1.333114 0,0.437427 0,0.874749 0,1.32264 0.551843,0 1.051607,-0.01046 1.540915,0 1.842719,0.04165 3.498143,1.593467 3.466875,3.540956 -0.05197,3.499306 -0.01035,6.998613 -0.01035,10.508384 0,0.135414 0,0.270828 0,0.489541 0.156131,-0.145878 0.249831,-0.229178 0.333072,-0.312477 1.02034,-1.020627 2.04068,-2.051718 3.071373,-3.06188 0.947346,-0.937328 2.113464,-1.395579 3.435712,-1.458053 2.800523,-0.135414 5.111843,2.312081 5.569987,4.311684 0.05197,0.229074 0.104053,0.447787 0.156131,0.67686 0,0.395777 0,0.781193 0,1.176866 -0.02081,0.07294 -0.05208,0.145878 -0.07289,0.218713 -0.176941,1.135215 -0.687163,2.093368 -1.488837,2.895281 -2.498614,2.489145 -4.976522,4.999009 -7.485594,7.477794 -1.509647,1.499703 -3.310745,1.926664 -5.351321,1.332999 -0.135424,-0.04165 -0.301908,-0.02082 -0.447686,0 -0.510222,0.0833 -1.02034,0.239538 -1.530457,0.239538 -6.288419,0.02082 -12.566379,0.01046 -18.8547035,0.01046 -0.3852131,0 -0.7808314,0.01036 -1.1660549,-0.01046 C 1.8013282,39.919349 -0.02064517,38.221754 1.7678982e-4,36.274264 0.05223329,29.348486 0.02099459,22.422707 0.02099459,15.497034 c 0,-0.218714 1.464e-5,-0.447892 0.0416596,-0.65614 C 0.31252295,13.46614 1.561872,12.26845 3.0610825,12.028912 c 0.6038483,-0.09376 1.2389228,-0.0833 1.8635921,-0.114589 0,-0.874748 0,-1.739241 0,-2.624464 -0.1978039,0 -0.3644026,0 -0.5309804,0 C 3.0194167,9.269029 1.9887134,8.2379949 1.9782978,6.8528392 c 0,-1.4268054 0,-2.8640337 0,-4.2908391 0,-0.1666301 0.010426,-0.3436832 0.041663,-0.4999009 C 2.2490115,0.9998019 2.9257278,0.3436832 3.9356102,0 Z M 22.779919,37.648913 c -0.07289,-0.124949 -0.104157,-0.176958 -0.145778,-0.229073 -1.488837,-2.145377 -1.24936,-4.853235 0.593464,-6.707065 0.541385,-0.541551 1.093124,-1.072637 1.624052,-1.635117 0.124967,-0.135309 0.229124,-0.354022 0.229124,-0.531086 0.01035,-4.374159 0.01035,-8.748318 0.01035,-13.122478 0,-0.364487 -0.124863,-0.666499 -0.416418,-0.822738 -0.312366,-0.156239 -0.676706,-0.302013 -1.009882,-0.302013 -6.569517,-0.02082 -13.138929,-0.01046 -19.7084029,-0.01046 -0.093699,0 -0.1873883,0 -0.2706824,0 -0.8016523,0.05211 -1.3118117,0.593665 -1.3118117,1.374753 0,6.863304 -1.05e-5,13.716144 -0.010426,20.579343 0,0.416601 0.1457569,0.729079 0.4476863,0.989442 0.3227503,0.281187 0.6975477,0.416496 1.145234,0.416496 6.1425987,-0.01036 12.2852387,0 18.4174217,0 0.11451,0 0.22902,0 0.406066,0 z m 9.432575,-3.822144 c -1.468026,-1.468413 -2.925595,-2.926466 -4.372706,-4.374159 -0.99953,0.989442 -2.051033,1.989244 -3.060915,3.041055 -1.051608,1.104031 -1.02034,2.739043 0.01035,3.853434 0.166588,0.177064 0.343634,0.354127 0.520575,0.520726 1.114039,1.020627 2.759006,1.051916 3.852131,0 1.051503,-0.989337 2.06149,-2.041254 3.050562,-3.041056 z m 1.76983,-1.801715 c 0.978719,-0.968617 1.998954,-1.947594 2.988026,-2.957756 0.520575,-0.53119 0.728784,-1.218515 0.697516,-1.968419 -0.06243,-1.23934 -0.812026,-2.062078 -1.76983,-2.686928 -1.009882,-0.6665 -2.373751,-0.57284 -3.258771,0.260363 -1.04115,0.978977 -2.009307,2.030893 -2.977569,3.030695 1.415948,1.416299 2.873517,2.884817 4.320628,4.322045 z M 7.3088285,11.924788 c 4.2685805,0 8.5163185,0 12.7537045,0 0,-0.885213 0,-1.749706 0,-2.614094 -4.268549,0 -8.505935,0 -12.7537045,0 0,0.874853 0,1.728881 0,2.614094 z M 9.5784751,2.3537098 c 0,1.5517859 0,3.0619116 0,4.5720373 1.0203189,0 2.0093909,0 2.9984629,0 0,-1.5413735 0,-3.0514992 0,-4.5720373 -1.009882,0 -1.998954,0 -2.9984629,0 z M 23.227605,6.9465614 c 0,-0.1666301 0,-0.2916001 0,-0.4165806 0,-1.1039575 0,-2.2079045 0,-3.3222744 0,-0.864409 0,-0.864409 -0.864209,-0.864409 -0.718327,0 -1.447111,0 -2.165543,0 0,1.5621983 0,3.0827259 0,4.603264 1.009883,0 1.988601,0 3.029752,0 z M 17.803291,6.936149 c 0,-1.5517754 0,-3.0514886 0,-4.5616143 -0.968157,0 -1.905255,0 -2.831791,0 0,1.5413734 0,3.0410762 0,4.5616143 0.947451,0 1.884445,0 2.831791,0 z M 7.183903,2.3432974 c -0.8328994,0 -1.6449673,0.010412 -2.467451,-0.010412 -0.3123346,-0.010412 -0.3956288,0.1041451 -0.3956288,0.4061682 0.010405,1.3018249 1.05e-5,2.6036603 0.010416,3.8950728 0,0.093733 0.020831,0.1978883 0.031247,0.2812086 0.9578248,0 1.8948183,0 2.821417,0 0,-1.5205485 0,-3.0306742 -2e-7,-4.5720376 z"
     fill="white"
     id="path2"
     style="fill:#000000;stroke-width:1.04611" />
  <path
     d="m 12.608311,24.807728 c 0,-1.343569 -0.01046,-2.614094 0,-3.884723 0.01035,-0.833099 0.759947,-1.385114 1.52,-1.145576 0.489307,0.156239 0.812026,0.593665 0.812026,1.15604 0.01046,1.135216 0,2.259967 0,3.395183 0,0.145774 0,0.281187 0,0.479076 0.166588,0 0.301908,0 0.437333,0 1.113935,0 2.238432,0 3.352366,0 0.749595,0 1.259817,0.458251 1.280628,1.124751 0.02081,0.687324 -0.478955,1.19769 -1.239007,1.20805 -1.103582,0.02082 -2.207163,0.01046 -3.321098,0.01046 -0.156235,0 -0.312366,0 -0.520575,0 0,0.166599 0,0.302012 0,0.437426 0,1.114391 0,2.239142 0,3.353533 0,0.749799 -0.499765,1.29135 -1.176471,1.280989 -0.676706,0 -1.166013,-0.54155 -1.166013,-1.291454 0,-1.103926 0,-2.207852 0,-3.322243 0,-0.145774 0,-0.281188 0,-0.468716 -0.187398,0 -0.333176,0 -0.489412,0 -1.134745,0 -2.2591889,0.01046 -3.3940072,-0.01036 -0.5934432,-0.01046 -0.9786563,-0.322837 -1.145234,-0.833203 -0.1353412,-0.447787 -0.020842,-0.958152 0.3747869,-1.218515 0.2498719,-0.156239 0.5726222,-0.260363 0.8641359,-0.270723 1.1035815,-0.03129 2.2071944,-0.01046 3.3212344,-0.01046 0.15613,0.01046 0.301908,0.01046 0.489307,0.01046 z"
     fill="white"
     id="path4"
     style="fill:#000000;stroke-width:1.04611" />
</svg>
