<svg width="39" height="40" viewBox="0 0 39 40" fill="none" xmlns="http://www.w3.org/2000/svg">
<path d="M4.26343 0.875C10.5355 0.875 16.8076 0.875 23.0797 0.875C23.1096 0.894904 23.1394 0.924758 23.1693 0.93471C24.3043 1.30294 24.9414 2.17873 24.9414 3.36303C24.9414 4.72647 24.9414 6.09986 24.9414 7.4633C24.9414 8.73718 23.9459 9.73239 22.6715 9.75229C22.4425 9.75229 22.2036 9.75229 21.9547 9.75229C21.9547 10.2101 21.9547 10.6181 21.9547 11.0262C21.9547 11.4442 21.9547 11.8621 21.9547 12.2901C22.4824 12.2901 22.9603 12.2801 23.4282 12.2901C25.1903 12.3299 26.7733 13.8128 26.7434 15.6738C26.6937 19.0177 26.7335 22.3616 26.7335 25.7155C26.7335 25.8449 26.7335 25.9743 26.7335 26.1833C26.8828 26.0439 26.9724 25.9643 27.052 25.8847C28.0277 24.9094 29.0034 23.9241 29.989 22.9588C30.8949 22.0631 32.01 21.6252 33.2744 21.5655C35.9524 21.4361 38.1626 23.7749 38.6007 25.6857C38.6504 25.9046 38.7002 26.1136 38.75 26.3325C38.75 26.7107 38.75 27.079 38.75 27.4571C38.7301 27.5268 38.7002 27.5965 38.6803 27.6661C38.5111 28.7509 38.0232 29.6665 37.2566 30.4328C34.8673 32.8114 32.4978 35.2098 30.0985 37.5785C28.6549 39.0116 26.9326 39.4196 24.9813 38.8523C24.8518 38.8125 24.6926 38.8324 24.5532 38.8523C24.0653 38.9319 23.5775 39.0812 23.0897 39.0812C17.0764 39.1011 11.0731 39.0912 5.05989 39.0912C4.69153 39.0912 4.31322 39.1011 3.94485 39.0812C2.22252 39.0215 0.480258 37.3993 0.500169 35.5383C0.549948 28.9201 0.520076 22.3019 0.520076 15.6838C0.520076 15.4748 0.52009 15.2558 0.559913 15.0568C0.79885 13.7431 1.99354 12.5986 3.42716 12.3697C4.00459 12.2801 4.61188 12.2901 5.20922 12.2602C5.20922 11.4243 5.20922 10.5982 5.20922 9.75229C5.02007 9.75229 4.86076 9.75229 4.70147 9.75229C3.38732 9.73239 2.40171 8.74714 2.39175 7.4235C2.39175 6.06006 2.39175 4.68666 2.39175 3.32322C2.39175 3.16399 2.40172 2.9948 2.43159 2.84552C2.65062 1.8304 3.29773 1.20342 4.26343 0.875ZM22.2833 36.8519C22.2136 36.7325 22.1837 36.6828 22.1439 36.633C20.7202 34.5829 20.9492 31.9953 22.7114 30.2238C23.2291 29.7063 23.7567 29.1988 24.2644 28.6613C24.3839 28.532 24.4835 28.323 24.4835 28.1538C24.4934 23.9739 24.4934 19.794 24.4934 15.6141C24.4934 15.2658 24.374 14.9772 24.0952 14.8279C23.7965 14.6786 23.4481 14.5393 23.1295 14.5393C16.8474 14.5194 10.5654 14.5293 4.28334 14.5293C4.19374 14.5293 4.10415 14.5293 4.0245 14.5293C3.25792 14.5791 2.77008 15.0966 2.77008 15.843C2.77008 22.4015 2.77007 28.95 2.76011 35.5084C2.76011 35.9065 2.89949 36.2051 3.18821 36.4539C3.49684 36.7226 3.85524 36.8519 4.28334 36.8519C10.1572 36.842 16.0311 36.8519 21.895 36.8519C22.0045 36.8519 22.114 36.8519 22.2833 36.8519ZM31.3032 33.1995C29.8994 31.7963 28.5056 30.403 27.1218 29.0196C26.166 29.9651 25.1605 30.9205 24.1948 31.9256C23.1892 32.9806 23.2191 34.543 24.2047 35.6079C24.364 35.7771 24.5333 35.9463 24.7025 36.1055C25.7678 37.0808 27.3408 37.1107 28.3861 36.1055C29.3916 35.1601 30.3574 34.1549 31.3032 33.1995ZM32.9956 31.4778C33.9315 30.5522 34.9071 29.6167 35.8529 28.6514C36.3507 28.1438 36.5498 27.487 36.5199 26.7704C36.4602 25.5861 35.7434 24.7999 34.8275 24.2028C33.8618 23.5659 32.5576 23.6554 31.7113 24.4516C30.7157 25.3871 29.7899 26.3923 28.864 27.3477C30.218 28.7011 31.6118 30.1044 32.9956 31.4778ZM7.48907 12.2702C11.5709 12.2702 15.6328 12.2702 19.6848 12.2702C19.6848 11.4243 19.6848 10.5982 19.6848 9.7722C15.603 9.7722 11.551 9.7722 7.48907 9.7722C7.48907 10.6082 7.48907 11.4243 7.48907 12.2702ZM9.65942 3.12418C9.65942 4.60705 9.65942 6.05011 9.65942 7.49317C10.6351 7.49317 11.5809 7.49317 12.5267 7.49317C12.5267 6.02025 12.5267 4.57719 12.5267 3.12418C11.561 3.12418 10.6152 3.12418 9.65942 3.12418ZM22.7114 7.51306C22.7114 7.35383 22.7114 7.23441 22.7114 7.11498C22.7114 6.06005 22.7114 5.00513 22.7114 3.94025C22.7114 3.11423 22.7114 3.11423 21.885 3.11423C21.1981 3.11423 20.5012 3.11423 19.8142 3.11423C19.8142 4.60705 19.8142 6.06005 19.8142 7.51306C20.7799 7.51306 21.7158 7.51306 22.7114 7.51306ZM17.5244 7.50311C17.5244 6.02025 17.5244 4.58714 17.5244 3.14408C16.5986 3.14408 15.7025 3.14408 14.8165 3.14408C14.8165 4.617 14.8165 6.0501 14.8165 7.50311C15.7225 7.50311 16.6185 7.50311 17.5244 7.50311ZM7.36961 3.11423C6.57315 3.11423 5.79661 3.12418 5.01011 3.10428C4.71144 3.09433 4.63179 3.2038 4.63179 3.49241C4.64174 4.73642 4.6318 5.98044 4.64175 7.2145C4.64175 7.30407 4.66167 7.4036 4.67163 7.48322C5.58755 7.48322 6.48355 7.48322 7.36961 7.48322C7.36961 6.0302 7.36961 4.58714 7.36961 3.11423Z" fill="white"/>
<path d="M12.5567 24.581C12.5567 23.2971 12.5467 22.083 12.5567 20.8688C12.5666 20.0727 13.2834 19.5452 14.0102 19.7741C14.4781 19.9234 14.7867 20.3414 14.7867 20.8788C14.7967 21.9636 14.7867 23.0384 14.7867 24.1232C14.7867 24.2625 14.7867 24.3919 14.7867 24.581C14.946 24.581 15.0754 24.581 15.2049 24.581C16.2701 24.581 17.3454 24.581 18.4106 24.581C19.1274 24.581 19.6153 25.0189 19.6352 25.6558C19.6551 26.3126 19.1772 26.8003 18.4504 26.8102C17.3951 26.8301 16.3398 26.8202 15.2746 26.8202C15.1252 26.8202 14.9759 26.8202 14.7768 26.8202C14.7768 26.9794 14.7768 27.1088 14.7768 27.2382C14.7768 28.3031 14.7768 29.3779 14.7768 30.4428C14.7768 31.1593 14.2989 31.6768 13.6518 31.6669C13.0047 31.6669 12.5368 31.1494 12.5368 30.4328C12.5368 29.3779 12.5368 28.323 12.5368 27.2581C12.5368 27.1188 12.5368 26.9894 12.5368 26.8102C12.3576 26.8102 12.2182 26.8102 12.0688 26.8102C10.9837 26.8102 9.90845 26.8202 8.82328 26.8003C8.2558 26.7903 7.88744 26.4918 7.72815 26.0041C7.59873 25.5762 7.70822 25.0885 8.08654 24.8397C8.32548 24.6904 8.63411 24.5909 8.91287 24.581C9.96817 24.5511 11.0235 24.571 12.0888 24.571C12.2381 24.581 12.3775 24.581 12.5567 24.581Z" fill="white"/>
</svg>
