<?xml version="1.0" encoding="UTF-8" standalone="no"?>
<!-- Uploaded to: SVG Repo, www.svgrepo.com, Generator: SVG Repo Mixer Tools -->

<svg
   width="40"
   height="40"
   viewBox="0 0 2.4 2.4"
   fill="none"
   version="1.1"
   id="svg10"
   sodipodi:docname="Nutrition.svg"
   inkscape:version="1.2.2 (732a01da63, 2022-12-09)"
   xmlns:inkscape="http://www.inkscape.org/namespaces/inkscape"
   xmlns:sodipodi="http://sodipodi.sourceforge.net/DTD/sodipodi-0.dtd"
   xmlns="http://www.w3.org/2000/svg"
   xmlns:svg="http://www.w3.org/2000/svg">
  <defs
     id="defs14" />
  <sodipodi:namedview
     id="namedview12"
     pagecolor="#ffffff"
     bordercolor="#000000"
     borderopacity="0.25"
     inkscape:showpageshadow="2"
     inkscape:pageopacity="0.0"
     inkscape:pagecheckerboard="0"
     inkscape:deskcolor="#d1d1d1"
     showgrid="false"
     inkscape:zoom="11.978389"
     inkscape:cx="-1.9618665"
     inkscape:cy="20.036084"
     inkscape:window-width="1920"
     inkscape:window-height="1027"
     inkscape:window-x="-8"
     inkscape:window-y="-8"
     inkscape:window-maximized="1"
     inkscape:current-layer="svg10" />
  <path
     fill-rule="evenodd"
     clip-rule="evenodd"
     d="M 0.13920908,0.5880102 C 0.12577663,0.5764453 0.11368769,0.56423535 0.10327414,0.5514854 -0.00316914,0.42113616 -0.03203465,0.24490967 0.03880092,0.15788016 0.07391749,0.11473516 0.1269442,0.10160948 0.18446128,0.1152234 c 0.037529,0.008884 0.07697,0.0291493 0.11459566,0.0598917 C 0.31547764,0.1272804 0.33908244,0.08648885 0.36760534,0.05633977 0.40123312,0.02079069 0.4416784,3.9808372e-5 0.4852159,5.8598094e-8 0.53309849,-4.419115e-5 0.57728909,0.02497492 0.61279619,0.06719968 c 0.0213855,0.0254301 0.0396189,0.05710317 0.0536139,0.09329797 0.0310686,-0.0223199 0.0629504,-0.0375673 0.0936192,-0.0452495 0.0583788,-0.0146204 0.1123658,-0.001823 0.14801285,0.0418295 0.0709608,0.086902 0.0423512,0.26317351 -0.0639035,0.39372524 -0.0103828,0.0127575 -0.0224984,0.0249824 -0.0359269,0.0365623 0.0711741,0.0405223 0.11548465,0.1296593 0.1008233,0.22482626 L 0.69660564,2.1911336 C 0.67802574,2.3117404 0.58451309,2.3998949 0.47505288,2.3999999 0.36559269,2.4000999 0.27194675,2.3121079 0.25319424,2.1915386 L 0.03875694,0.81299391 C 0.02396166,0.71787945 0.06812359,0.62867495 0.13920908,0.5880102 Z m 0.41129641,-0.37149537 0.0590186,0.15264663 0.1251411,-0.0898945 c 0.0300891,-0.0216149 0.0546002,-0.0282448 0.0688749,-0.0286123 0.006724,-1.72e-4 0.0100364,0.001035 0.0108761,0.001395 2.5e-4,1.125e-4 3.6e-4,1.65e-4 3.6e-4,1.65e-4 1.6e-4,1.95e-4 0.002679,0.003308 0.004451,0.0129974 0.001866,0.0101924 0.002513,0.0260099 -9.2e-4,0.0471522 -0.006964,0.0428923 -0.0288828,0.095902 -0.0675554,0.14342168 -0.020226,0.0248474 -0.0632704,0.0554322 -0.12082945,0.0789896 -0.0504416,0.0206399 -0.0965715,0.0295798 -0.12580755,0.0299098 h -0.003039 c -0.002766,-2.25e-5 -0.005365,-1.35e-4 -0.007784,-3.2e-4 l -0.008117,-6.375e-4 -0.008124,5.325e-4 c -0.004485,2.9e-4 -0.009143,4.5e-4 -0.0139483,4.65e-4 h -0.001472 C 0.42043279,0.56464035 0.3686583,0.5545604 0.31782345,0.5345505 0.25910214,0.51144315 0.21679019,0.48111332 0.19652623,0.45629597 0.15778298,0.40885124 0.13578499,0.35587904 0.1287622,0.31300178 c -0.003463,-0.0211349 -0.002845,-0.0369523 -9.9364e-4,-0.0471522 0.001761,-0.00969 0.00426,-0.0127574 0.004419,-0.0129524 0,0 1.275e-4,-1.2e-4 5.9975e-4,-3.075e-4 0.001236,-4.945e-4 0.005445,-0.001793 0.0136017,-0.00117 0.0171891,0.001305 0.0453922,0.0109049 0.0781656,0.0376798 L 0.35780887,0.3979688 0.41694067,0.22569478 c 0.0117224,-0.0341398 0.0271768,-0.0570972 0.0407119,-0.0701021 0.0129153,-0.0124049 0.0222186,-0.0144149 0.0276633,-0.0144149 0.007844,-7.5e-6 0.0394323,0.008707 0.0651896,0.075337 z m 0.17182415,0.48914722 -0.49701988,4.55e-4 c -0.0391731,3.75e-5 -0.0688623,0.0395323 -0.0621501,0.0826795 l 0.0310634,0.19970141 0.18509801,-1.7e-4 c 0.0348673,-3e-5 0.063157,0.0315448 0.0631904,0.0705296 2.665e-5,0.038985 -0.0282164,0.070612 -0.0630837,0.070642 l -0.1632473,1.6e-4 0.0768521,0.4940372 0.0236181,-1.5e-5 c 0.0348673,-3.75e-5 0.063157,0.031545 0.0631837,0.07053 3.332e-5,0.038985 -0.0282097,0.070612 -0.0630837,0.070642 h -0.001766 l 0.0626106,0.4025003 c 0.00823,0.052905 0.0493221,0.091515 0.0973579,0.091469 0.0480292,-4.49e-5 0.089061,-0.03873 0.097218,-0.091649 l 0.11640435,-0.7555982 -0.1826736,1.65e-4 c -0.0348673,2.75e-5 -0.063157,-0.031547 -0.0631903,-0.070532 -2.666e-5,-0.038985 0.0282164,-0.070612 0.0630837,-0.07065 l 0.1894111,-1.7e-4 c 0.005098,0 0.0100631,6.675e-4 0.0148147,0.00194 l 0.0745795,-0.48409979 c 0.006651,-0.0431622 -0.0230982,-0.0826045 -0.062271,-0.0825671 z"
     fill="#333333"
     id="path2"
     style="fill:#000000;stroke-width:0.070698" />
  <path
     d="m 2.1372351,1.4720452 c -0.00436,-0.038677 -0.03594,-0.066082 -0.070541,-0.0612 -0.034594,0.00487 -0.059098,0.040185 -0.054733,0.07887 0.00385,0.034117 -3.6e-4,0.093337 -0.027863,0.1493466 -0.026231,0.053445 -0.075346,0.107677 -0.1685454,0.1342643 -0.033788,0.00964 -0.054187,0.048075 -0.04557,0.085852 0.00862,0.037777 0.042998,0.060585 0.076785,0.05094 0.1270272,-0.036232 0.2049455,-0.1153718 0.2480231,-0.2031213 0.041818,-0.085184 0.049215,-0.1749665 0.042444,-0.2349516 z"
     fill="#333333"
     id="path4"
     style="fill:#000000;stroke-width:0.070698" />
  <path
     fill-rule="evenodd"
     clip-rule="evenodd"
     d="m 1.7758865,0.58333775 c 0.02721,-0.0243823 0.031595,-0.0688046 0.00979,-0.0992244 -0.021805,-0.0304198 -0.061538,-0.0353248 -0.088748,-0.0109424 -0.082943,0.0743096 -0.1174707,0.19727138 -0.125861,0.31605568 -0.00462,0.0653021 -0.00172,0.13367926 0.00733,0.20005391 l -0.014134,-0.009465 C 1.5026195,0.93853571 1.4320915,0.91676331 1.3602377,0.91683086 1.2397948,0.91694586 1.1259229,0.97826301 1.0507635,1.0834799 l -0.00338,0.00473 c -0.01792,0.025087 -0.033421,0.052222 -0.046243,0.080947 l -0.009756,0.021855 C 0.9640611,1.252244 0.9450813,1.3176886 0.935065,1.3851957 l -0.001259,0.00851 C 0.9003182,1.6194569 0.9616425,1.8498631 1.1000655,2.0184246 l 0.0358,0.04359 c 0.08153,0.099277 0.184353,0.1736915 0.2987514,0.2162087 0.1561898,0.05805 0.3261347,0.053272 0.4795855,-0.012877 C 2.0517325,2.2060586 2.1700627,2.1003017 2.251793,1.9629925 L 2.281962,1.9123152 C 2.359041,1.7828134 2.4001124,1.6307069 2.3999991,1.4751577 l -2.66e-5,-0.03318 C 2.3999398,1.390783 2.3935154,1.3398433 2.3809,1.2906286 L 2.373136,1.2603214 C 2.34368,1.1454296 2.2762779,1.0473526 2.1845712,0.98595046 2.0448753,0.89241096 1.8694725,0.89724096 1.7340617,0.99834791 l -0.023052,0.0172124 c -0.013502,-0.0704696 -0.01898,-0.14568668 -0.014068,-0.21521879 0.00724,-0.10238945 0.035694,-0.178259 0.078945,-0.21700376 z M 1.636997,1.1857494 c 0.016134,0.012862 0.037413,0.017055 0.057539,0.00919 0.00847,-0.00332 0.015907,-0.00844 0.022092,-0.01485 0.00371,-0.00208 0.00733,-0.00444 0.010836,-0.00706 l 0.076719,-0.057285 c 0.094839,-0.070815 0.2176741,-0.074197 0.3155119,-0.00868 0.064223,0.043005 0.1114328,0.1116893 0.132052,0.1921489 l 0.00777,0.030307 c 0.00938,0.036607 0.014161,0.07449 0.014188,0.1125669 l 1.99e-5,0.033187 c 9e-5,0.1276718 -0.033614,0.252531 -0.096885,0.3588204 l -0.030169,0.050685 C 2.0794818,1.9976647 1.9820506,2.0847917 1.8687785,2.1336239 1.7425244,2.1880511 1.6027219,2.1919286 1.4744485,2.1442589 1.3804095,2.1093091 1.2958935,2.0481394 1.2288779,1.9665324 l -0.0358,-0.04359 C 1.0809259,1.7863759 1.031244,1.599702 1.0583741,1.4168005 l 0.00126,-0.00851 c 0.00796,-0.053617 0.023032,-0.1056068 0.044737,-0.1542441 l 0.00976,-0.021847 c 0.00885,-0.019837 0.019553,-0.038565 0.031922,-0.055882 l 0.00338,-0.00473 c 0.051221,-0.071707 0.1288265,-0.1134969 0.21091,-0.1135719 0.048976,-4.49e-5 0.097038,0.01479 0.1390494,0.042922 l 0.080784,0.05409 0.045197,0.025215 c 0.0038,0.00212 0.00768,0.00396 0.011629,0.00551 z"
     fill="#333333"
     id="path6"
     style="fill:#000000;stroke-width:0.070698" />
  <path
     d="m 1.768196,0.84586626 c -1.35e-4,-0.19491641 0.1410754,-0.353068 0.3154186,-0.3532255 1.35e-4,0.19492389 -0.1410754,0.353068 -0.3154186,0.3532255 z"
     fill="#333333"
     id="path8"
     style="fill:#000000;stroke-width:0.070698" />
</svg>
