<?xml version="1.0" encoding="UTF-8" standalone="no"?>
<svg
   width="40"
   height="40"
   viewBox="0 0 40 40"
   fill="none"
   version="1.1"
   id="svg18"
   sodipodi:docname="Pflegewissenschaften.svg"
   inkscape:version="1.2.2 (732a01da63, 2022-12-09)"
   xmlns:inkscape="http://www.inkscape.org/namespaces/inkscape"
   xmlns:sodipodi="http://sodipodi.sourceforge.net/DTD/sodipodi-0.dtd"
   xmlns="http://www.w3.org/2000/svg"
   xmlns:svg="http://www.w3.org/2000/svg">
  <defs
     id="defs22" />
  <sodipodi:namedview
     id="namedview20"
     pagecolor="#ffffff"
     bordercolor="#000000"
     borderopacity="0.25"
     inkscape:showpageshadow="2"
     inkscape:pageopacity="0.0"
     inkscape:pagecheckerboard="0"
     inkscape:deskcolor="#d1d1d1"
     showgrid="false"
     inkscape:zoom="11.144737"
     inkscape:cx="28.668241"
     inkscape:cy="14.356553"
     inkscape:window-width="1920"
     inkscape:window-height="1027"
     inkscape:window-x="-8"
     inkscape:window-y="-8"
     inkscape:window-maximized="1"
     inkscape:current-layer="svg18" />
  <path
     d="m 40,19.675331 v 16.56226 c 0,0.388353 -0.12,0.790027 -0.373368,1.084517 -0.02663,0.02685 -0.05326,0.05359 -0.06663,0.08033 C 38.85337,38.138879 38.13337,38.848467 37.41337,39.571584 37.12,39.866074 36.786632,40 36.36,40 25.453368,40 14.56,40 3.6533263,40 3.2133263,40 2.88,39.839331 2.5733368,39.544735 1.9733368,38.928907 1.3466737,38.326292 0.76000211,37.710462 0.28000211,37.201606 0,36.518867 0,35.822598 0,30.440176 0,25.057754 0,19.688651 c 0.48,-1.138005 1.5066737,-0.816666 2.4266737,-0.870257 0,-0.16067 0,-0.307915 0,-0.441841 0,-2.18246 -0.026674,-4.364815 0,-6.547275 C 2.4533368,9.4728092 3.52,7.7054467 5.5733368,6.5673688 c 0.4666632,-0.254386 1,-0.4150553 1.5333264,-0.6158919 0,-1.5397511 0,-3.0928844 0,-4.6460282 0,-0.95062425 0.64,-1.44602167 1.6933368,-1.25857406 2.76,0.48200753 5.573368,0.40167287 8.346632,-0.01338915 1.066736,-0.16066899 1.666736,0.33472736 1.68,1.29874851 0,1.4058565 0,2.8250951 0,4.2309516 0,0.1472873 0,0.2811713 0,0.3481239 C 19.64,6.2728155 20.4,6.6209289 21.173368,6.9556601 c 0,-1.0577432 0,-2.1288685 0,-3.2000043 0,-2.3564797 1.613264,-3.8694509 4.026632,-3.7489485 2.8,0.1472805 5.6,0.10711317 8.4,0 2.413368,-0.09372379 3.973368,1.4058614 3.986632,3.7757338 0,4.8468542 0,9.6936979 0,14.5539449 0,0.147245 0,0.307914 0,0.495432 0.306736,0 0.586736,0.02674 0.853368,0 0.706632,-0.09376 1.24,0.160669 1.56,0.843513 z M 2.3333368,21.174842 c 0,0.174093 0,0.321339 0,0.482008 0,4.137235 0,8.26115 0,12.398385 0,0.642678 -0.16,1.352266 0.066663,1.901184 0.2266632,0.549023 0.8533368,0.923954 1.2933368,1.392537 0.2133369,0.22758 0.44,0.294491 0.7466632,0.294491 C 14.293368,37.630132 24.146632,37.643552 34,37.630132 c 0.666632,0 1.4,0.160669 1.96,-0.08034 0.573368,-0.241004 0.973368,-0.870362 1.426632,-1.365689 0.133368,-0.147249 0.226736,-0.374934 0.226736,-0.575771 0.01326,-4.699577 0.01326,-9.385731 0.01326,-14.085308 0,-0.120502 0,-0.254428 0,-0.361506 H 2.3333368 Z M 35.226632,18.79165 c 0,-0.160669 0,-0.267852 0,-0.388354 0,-4.900414 0,-9.8007754 0,-14.7011896 0,-0.9104665 -0.453264,-1.3656892 -1.373264,-1.3656892 -2.986736,0 -5.96,0 -8.946736,0 -0.973264,0 -1.413264,0.4418407 -1.413264,1.4058566 0,4.8736288 0,9.7472892 0,14.6208552 0,0.133926 0,0.281171 0,0.428521 3.933264,0 7.813264,0 11.733264,0 z M 21.173368,14.13224 c -5.506736,0 -10.946705,0 -16.3867048,0 0,1.566526 0,3.106204 0,4.65941 5.4666628,0 10.9067048,0 16.3867048,0 0,-0.14735 0,-0.281171 0,-0.401673 0,-1.41928 0,-2.838561 0,-4.257737 z m -0.02674,-2.39672 c 0,-0.133822 0.01337,-0.254324 0,-0.361506 C 20.933368,9.5799185 19.48,8.2410146 17.68,8.227622 14.533368,8.214229 11.386632,8.200847 8.24,8.241015 c -0.52,0 -1.08,0.1740514 -1.5733368,0.3882807 -1.1866632,0.5489499 -2,1.9413713 -1.88,3.1062243 5.4533368,0 10.9067048,0 16.3599688,0 z M 9.4533263,5.8443569 c 2.3600417,0 4.6800417,0 7.0000417,0 0,-1.1782346 0,-2.3297051 0,-3.4677723 -2.346736,0 -4.666736,0 -7.0000417,0 0,1.1514599 0,2.2895377 0,3.4677723 z"
     fill="white"
     id="path2"
     style="fill:#000000;stroke-width:1.05483" />
  <path
     d="m 23.506737,32.93055 c 0,0.401673 0,0.763179 0,1.111261 -0.01337,0.736436 -0.493369,1.231869 -1.226632,1.245188 -1.52,0.01342 -3.04,0.01342 -4.573368,0 -0.746632,0 -1.226632,-0.495327 -1.24,-1.258506 0,-0.348188 0,-0.69627 0,-1.084518 -0.4,0 -0.76,0 -1.12,0 -0.733369,-0.01343 -1.226632,-0.495433 -1.226632,-1.231869 0,-1.526358 0,-3.052717 0,-4.592394 0,-0.736437 0.493263,-1.218445 1.226632,-1.231868 0.346631,0 0.706631,0 1.12,0 0,-0.361506 0,-0.709588 0,-1.057669 0,-0.816772 0.48,-1.29878 1.28,-1.29878 1.48,0 2.973368,0 4.453368,0 0.826632,0 1.293263,0.482008 1.293263,1.325522 0,0.321339 0,0.656102 0,1.030927 0.36,0 0.706737,0 1.053369,0 0.813368,0 1.28,0.482008 1.28,1.298778 0,1.486191 0,2.985807 0,4.471998 0,0.816666 -0.48,1.285355 -1.293369,1.298673 -0.306631,-0.02674 -0.64,-0.02674 -1.026631,-0.02674 z m -4.68,-7.056025 c 0,0.254323 -0.01337,0.468583 0,0.696163 0.106631,1.20502 -0.506632,1.754044 -1.626632,1.660285 -0.226737,-0.01343 -0.453368,0 -0.68,0 0,0.816771 0,1.566525 0,2.356448 0.226632,0 0.413263,0.01343 0.613263,0 1.293369,-0.107078 1.813369,0.495432 1.706737,1.700452 -0.01337,0.214261 0,0.428416 0,0.642677 0.813263,0 1.56,0 2.346632,0 0,-0.241004 0.01337,-0.455264 0,-0.682845 -0.106632,-1.218443 0.506631,-1.753937 1.626631,-1.660284 0.226737,0.01343 0.453369,0 0.693369,0 0,-0.816665 0,-1.566526 0,-2.356448 -0.226632,0 -0.413369,-0.01343 -0.613369,0 -1.28,0.107078 -1.813263,-0.482008 -1.706631,-1.700452 0.01337,-0.214155 0,-0.428417 0,-0.655996 -0.826632,0 -1.56,0 -2.36,0 z"
     fill="white"
     id="path4"
     style="fill:#000000;stroke-width:1.05483" />
  <path
     d="m 27.026842,7.0359947 c -0.626631,0 -1.16,-0.5355573 -1.16,-1.1648525 0,-0.6560593 0.546632,-1.1916272 1.2,-1.1782346 0.64,0.013382 1.16,0.54895 1.146632,1.1916273 -0.02663,0.6292846 -0.56,1.1514598 -1.186632,1.1514598 z"
     fill="white"
     id="path6"
     style="fill:#000000;stroke-width:1.05483" />
  <path
     d="m 31.733263,7.0359947 c -0.626631,0.013393 -1.173368,-0.5221752 -1.186631,-1.1514598 -0.01337,-0.65607 0.533263,-1.2050199 1.173263,-1.2050199 0.626737,0 1.16,0.5355573 1.16,1.1648526 0,0.6560593 -0.52,1.1916271 -1.146632,1.1916271 z"
     fill="white"
     id="path8"
     style="fill:#000000;stroke-width:1.05483" />
  <path
     d="m 27.026842,11.748944 c -0.626631,0 -1.16,-0.535494 -1.16,-1.178171 0,-0.6561232 0.546632,-1.1916805 1.2,-1.1782984 0.626632,0.013393 1.16,0.5623426 1.146632,1.1916164 -0.02663,0.642677 -0.56,1.164853 -1.186632,1.164853 z"
     fill="white"
     id="path10"
     style="fill:#000000;stroke-width:1.05483" />
  <path
     d="m 32.880211,10.584091 c 0,0.629254 -0.533369,1.164853 -1.173369,1.164853 -0.653368,0 -1.186631,-0.548919 -1.173368,-1.205009 0.01337,-0.6292852 0.56,-1.1514604 1.186737,-1.1514604 0.653263,0.013393 1.173263,0.5489499 1.16,1.1916164 z"
     fill="white"
     id="path12"
     style="fill:#000000;stroke-width:1.05483" />
  <path
     d="m 27.040105,14.105392 c 0.626737,0.01343 1.16,0.549023 1.16,1.178277 0,0.656101 -0.56,1.191596 -1.2,1.164852 -0.626631,-0.01343 -1.146631,-0.562342 -1.133263,-1.20502 0,-0.629253 0.546632,-1.151428 1.173263,-1.138109 z"
     fill="white"
     id="path14"
     style="fill:#000000;stroke-width:1.05483" />
  <path
     d="m 31.720211,14.105392 c 0.626631,0 1.16,0.535599 1.16,1.164853 0,0.656101 -0.546737,1.1917 -1.2,1.178276 -0.626737,-0.01343 -1.16,-0.562342 -1.146737,-1.191596 0.01337,-0.629357 0.546737,-1.151533 1.186737,-1.151533 z"
     fill="white"
     id="path16"
     style="fill:#000000;stroke-width:1.05483" />
</svg>
