<svg width="16" height="16" fill="none" xmlns="http://www.w3.org/2000/svg"><g clip-path="url(#a)"><path d="m15.503 12.052.445.896a.5.5 0 0 1-.226.67l-2.046 1.028a1 1 0 0 1-1.35-.47L10.366 10H6a1 1 0 0 1-.99-.859C3.951 1.728 4.012 2.19 4 2A2 2 0 0 1 6.095.002 2.007 2.007 0 0 1 8 1.946a2 2 0 0 1-1.706 2.032L6.439 5H10.5a.5.5 0 0 1 .5.5v1a.5.5 0 0 1-.5.5H6.724l.143 1H11a1 1 0 0 1 .905.575l1.797 3.825 1.131-.573a.5.5 0 0 1 .67.225zM9.73 11h-.766A3.505 3.505 0 0 1 5.5 14C3.57 14 2 12.43 2 10.5c0-1.297.71-2.432 1.76-3.036L3.464 5.39A5.509 5.509 0 0 0 0 10.5C0 13.533 2.467 16 5.5 16a5.508 5.508 0 0 0 5.035-3.287L9.73 11z" fill="#6E6CFF"/></g><defs><clipPath id="a"><path fill="#fff" d="M0 0h16v16H0z"/></clipPath></defs></svg>