<svg width="38" height="38" viewBox="0 0 38 38" fill="none" xmlns="http://www.w3.org/2000/svg">
<path d="M38 18.6137V34.2823C38 34.6497 37.886 35.0297 37.6453 35.3083C37.62 35.3337 37.5947 35.359 37.582 35.3843C36.9107 36.081 36.2267 36.7523 35.5427 37.4364C35.264 37.715 34.9473 37.8417 34.542 37.8417C24.1807 37.8417 13.832 37.8417 3.47066 37.8417C3.05266 37.8417 2.736 37.6897 2.44467 37.411C1.87467 36.8284 1.27934 36.2583 0.722002 35.6757C0.266002 35.1943 0 34.5484 0 33.8897C0 28.7977 0 23.7057 0 18.6263C0.456 17.5497 1.43134 17.8537 2.30534 17.803C2.30534 17.651 2.30534 17.5117 2.30534 17.385C2.30534 15.3203 2.28 13.2557 2.30534 11.191C2.33067 8.96168 3.344 7.28968 5.29467 6.21301C5.738 5.97235 6.24467 5.82035 6.75133 5.63035C6.75133 4.17368 6.75133 2.70435 6.75133 1.23501C6.75133 0.335679 7.35933 -0.132988 8.36 0.0443454C10.982 0.500345 13.6547 0.424345 16.2893 0.0316787C17.3027 -0.120321 17.8727 0.348345 17.8853 1.26035C17.8853 2.59035 17.8853 3.93301 17.8853 5.26301C17.8853 5.40235 17.8853 5.52901 17.8853 5.59235C18.658 5.93435 19.38 6.26368 20.1147 6.58035C20.1147 5.57968 20.1147 4.56635 20.1147 3.55301C20.1147 1.32368 21.6473 -0.107655 23.94 0.00634539C26.6 0.145679 29.26 0.107679 31.92 0.00634539C34.2127 -0.0823213 35.6947 1.33635 35.7073 3.57835C35.7073 8.16368 35.7073 12.749 35.7073 17.347C35.7073 17.4863 35.7073 17.6383 35.7073 17.8157C35.9987 17.8157 36.2647 17.841 36.518 17.8157C37.1893 17.727 37.696 17.9677 38 18.6137ZM2.21667 20.0323C2.21667 20.197 2.21667 20.3363 2.21667 20.4883C2.21667 24.4023 2.21667 28.3037 2.21667 32.2177C2.21667 32.8257 2.06467 33.497 2.28 34.0163C2.49533 34.5357 3.09067 34.8904 3.50867 35.3337C3.71134 35.549 3.92667 35.6123 4.218 35.6123C13.5787 35.5997 22.9393 35.6124 32.3 35.5997C32.9333 35.5997 33.63 35.7517 34.162 35.5237C34.7067 35.2957 35.0867 34.7003 35.5173 34.2317C35.644 34.0924 35.7327 33.877 35.7327 33.687C35.7453 29.241 35.7453 24.8077 35.7453 20.3617C35.7453 20.2477 35.7453 20.121 35.7453 20.0197H2.21667V20.0323ZM33.4653 17.7777C33.4653 17.6257 33.4653 17.5243 33.4653 17.4103C33.4653 12.7743 33.4653 8.13835 33.4653 3.50235C33.4653 2.64101 33.0347 2.21035 32.1607 2.21035C29.3233 2.21035 26.4987 2.21035 23.6613 2.21035C22.7367 2.21035 22.3187 2.62835 22.3187 3.54035C22.3187 8.15101 22.3187 12.7617 22.3187 17.3723C22.3187 17.499 22.3187 17.6383 22.3187 17.7777C26.0553 17.7777 29.7413 17.7777 33.4653 17.7777ZM20.1147 13.3697C14.8833 13.3697 9.71533 13.3697 4.54733 13.3697C4.54733 14.8517 4.54733 16.3083 4.54733 17.7777C9.74066 17.7777 14.9087 17.7777 20.1147 17.7777C20.1147 17.6383 20.1147 17.5117 20.1147 17.3977C20.1147 16.055 20.1147 14.7123 20.1147 13.3697ZM20.0893 11.1023C20.0893 10.9757 20.102 10.8617 20.0893 10.7603C19.8867 9.06301 18.506 7.79635 16.796 7.78368C13.8067 7.77101 10.8173 7.75835 7.828 7.79635C7.334 7.79635 6.802 7.96101 6.33333 8.16368C5.206 8.68301 4.43333 10.0003 4.54733 11.1023C9.728 11.1023 14.9087 11.1023 20.0893 11.1023ZM8.98066 5.52901C11.2227 5.52901 13.4267 5.52901 15.6307 5.52901C15.6307 4.41435 15.6307 3.32501 15.6307 2.24835C13.4013 2.24835 11.1973 2.24835 8.98066 2.24835C8.98066 3.33768 8.98066 4.41435 8.98066 5.52901Z" fill="white"/>
<path d="M22.3314 31.1537C22.3314 31.5337 22.3314 31.8757 22.3314 32.205C22.3187 32.9017 21.8627 33.3704 21.1661 33.383C19.7221 33.3957 18.2781 33.3957 16.8214 33.383C16.1121 33.383 15.6561 32.9144 15.6434 32.1924C15.6434 31.863 15.6434 31.5337 15.6434 31.1664C15.2634 31.1664 14.9214 31.1664 14.5794 31.1664C13.8827 31.1537 13.4141 30.6977 13.4141 30.001C13.4141 28.557 13.4141 27.113 13.4141 25.6564C13.4141 24.9597 13.8827 24.5037 14.5794 24.491C14.9087 24.491 15.2507 24.491 15.6434 24.491C15.6434 24.149 15.6434 23.8197 15.6434 23.4904C15.6434 22.7177 16.0994 22.2617 16.8594 22.2617C18.2654 22.2617 19.6841 22.2617 21.0901 22.2617C21.8754 22.2617 22.3187 22.7177 22.3187 23.5157C22.3187 23.8197 22.3187 24.1364 22.3187 24.491C22.6607 24.491 22.9901 24.491 23.3194 24.491C24.0921 24.491 24.5354 24.947 24.5354 25.7197C24.5354 27.1257 24.5354 28.5444 24.5354 29.9504C24.5354 30.723 24.0794 31.1664 23.3067 31.179C23.0154 31.1537 22.6987 31.1537 22.3314 31.1537ZM17.8854 24.4784C17.8854 24.719 17.8727 24.9217 17.8854 25.137C17.9867 26.277 17.4041 26.7964 16.3401 26.7077C16.1247 26.695 15.9094 26.7077 15.6941 26.7077C15.6941 27.4804 15.6941 28.1897 15.6941 28.937C15.9094 28.937 16.0867 28.9497 16.2767 28.937C17.5054 28.8357 17.9994 29.4057 17.8981 30.5457C17.8854 30.7484 17.8981 30.951 17.8981 31.1537C18.6707 31.1537 19.3801 31.1537 20.1274 31.1537C20.1274 30.9257 20.1401 30.723 20.1274 30.5077C20.0261 29.355 20.6087 28.8484 21.6727 28.937C21.8881 28.9497 22.1034 28.937 22.3314 28.937C22.3314 28.1644 22.3314 27.455 22.3314 26.7077C22.1161 26.7077 21.9387 26.695 21.7487 26.7077C20.5327 26.809 20.0261 26.2517 20.1274 25.099C20.1401 24.8964 20.1274 24.6937 20.1274 24.4784C19.3421 24.4784 18.6454 24.4784 17.8854 24.4784Z" fill="white"/>
<path d="M25.6755 6.65635C25.0802 6.65635 24.5735 6.14969 24.5735 5.55435C24.5735 4.93369 25.0928 4.42702 25.7135 4.43969C26.3215 4.45235 26.8155 4.95902 26.8028 5.56702C26.7775 6.16235 26.2708 6.65635 25.6755 6.65635Z" fill="white"/>
<path d="M30.1466 6.65635C29.5513 6.66902 29.0319 6.16235 29.0193 5.56702C29.0066 4.94635 29.5259 4.42702 30.1339 4.42702C30.7293 4.42702 31.2359 4.93368 31.2359 5.52902C31.2359 6.14968 30.7419 6.65635 30.1466 6.65635Z" fill="white"/>
<path d="M25.6755 11.115C25.0802 11.115 24.5735 10.6084 24.5735 10.0004C24.5735 9.37968 25.0928 8.87302 25.7135 8.88568C26.3088 8.89835 26.8155 9.41768 26.8028 10.013C26.7775 10.621 26.2708 11.115 25.6755 11.115Z" fill="white"/>
<path d="M31.2362 10.013C31.2362 10.6083 30.7295 11.115 30.1215 11.115C29.5008 11.115 28.9942 10.5957 29.0068 9.97501C29.0195 9.37968 29.5388 8.88568 30.1342 8.88568C30.7548 8.89835 31.2488 9.40501 31.2362 10.013Z" fill="white"/>
<path d="M25.6881 13.3443C26.2835 13.357 26.7901 13.8637 26.7901 14.459C26.7901 15.0797 26.2581 15.5863 25.6501 15.561C25.0548 15.5483 24.5608 15.029 24.5735 14.421C24.5735 13.8257 25.0928 13.3317 25.6881 13.3443Z" fill="white"/>
<path d="M30.1342 13.3443C30.7295 13.3443 31.2362 13.851 31.2362 14.4463C31.2362 15.067 30.7168 15.5737 30.0962 15.561C29.5008 15.5483 28.9942 15.029 29.0068 14.4337C29.0195 13.8383 29.5262 13.3443 30.1342 13.3443Z" fill="white"/>
</svg>
