<?xml version="1.0" encoding="UTF-8" standalone="no"?>
<svg
   width="40"
   height="40"
   viewBox="0 0 40 40"
   fill="none"
   version="1.1"
   id="svg8"
   sodipodi:docname="Philosophie.svg"
   inkscape:version="1.2.2 (732a01da63, 2022-12-09)"
   xmlns:inkscape="http://www.inkscape.org/namespaces/inkscape"
   xmlns:sodipodi="http://sodipodi.sourceforge.net/DTD/sodipodi-0.dtd"
   xmlns="http://www.w3.org/2000/svg"
   xmlns:svg="http://www.w3.org/2000/svg">
  <defs
     id="defs12" />
  <sodipodi:namedview
     id="namedview10"
     pagecolor="#ffffff"
     bordercolor="#000000"
     borderopacity="0.25"
     inkscape:showpageshadow="2"
     inkscape:pageopacity="0.0"
     inkscape:pagecheckerboard="0"
     inkscape:deskcolor="#d1d1d1"
     showgrid="false"
     inkscape:zoom="11.763889"
     inkscape:cx="28.094451"
     inkscape:cy="22.356553"
     inkscape:window-width="1920"
     inkscape:window-height="1027"
     inkscape:window-x="-8"
     inkscape:window-y="-8"
     inkscape:window-maximized="1"
     inkscape:current-layer="svg8" />
  <path
     d="M -1.3292244e-7,19.214986 C 0.06664416,18.921828 0.11995897,18.641933 0.19993275,18.34867 1.0129959,14.989823 4.0786208,12.723926 7.5307936,12.923821 c 0.053305,0 0.1066211,0 0.2132529,0 C 6.3311921,10.737891 6.051297,8.4453305 7.0376245,6.046138 7.7040675,4.4466834 8.8503426,3.2870714 10.383197,2.4873441 c 3.065583,-1.59945994 7.690641,-0.6664419 9.636749,3.3455305 1.132949,-2.2125817 2.878951,-3.5721213 5.318112,-3.9853145 1.772739,-0.3065635 3.438847,0.066643 4.958427,1.0263213 3.052215,1.9193498 4.438427,6.3445238 1.985898,10.0499396 2.385897,-0.120001 4.4119,0.653158 5.984639,2.452529 1.199685,1.372844 1.746107,2.985583 1.732739,4.798322 -0.01326,3.398846 -3.038951,7.264219 -7.690642,6.944324 2.505793,3.785374 0.906317,8.197274 -2.092634,10.089908 -3.039056,1.906107 -8.130641,1.306317 -10.209907,-2.985583 -1.986003,4.145268 -6.957693,5.011585 -10.1965601,2.985583 C 6.7177294,35.27627 5.2515486,30.824475 7.6907306,27.158996 6.9576455,27.065733 6.1979077,27.052365 5.4648225,26.879101 2.6257769,26.225943 0.50648893,23.88015 0.09329472,21.001094 0.07996629,20.934462 0.03997992,20.854462 0.02665148,20.787831 -6.452921e-6,20.254672 -1.3292244e-7,19.734882 -1.3292244e-7,19.214986 Z M 26.32448,27.238997 c 2.345793,-1.839371 3.718742,-5.491481 3.238847,-8.517169 -0.693054,-4.438427 -3.838637,-7.597399 -8.290537,-8.290505 -1.159581,-0.186601 -2.305898,-0.146611 -3.372215,0.466516 -1.652739,0.959675 -2.492424,2.865667 -2.025897,4.705038 0.466421,1.866107 2.105897,3.172319 4.065268,3.225583 2.852319,0.08 4.904954,1.412844 6.104639,3.985373 0.639685,1.399475 0.679685,2.879056 0.279895,4.425164 z M 13.662043,12.710557 c -0.146631,0.133264 -0.239895,0.199895 -0.319895,0.279895 -1.75937,1.706108 -2.772424,3.77211 -2.972319,6.224534 -0.4265171,5.58485 3.892005,10.31654 9.476749,10.423171 2.785793,0.05337 4.865058,-2.452529 4.278636,-5.171585 -0.426526,-1.946002 -2.119265,-3.252215 -4.225268,-3.332215 -2.799056,-0.106631 -4.798427,-1.466107 -5.971271,-3.998636 -0.626527,-1.386213 -0.666527,-2.85232 -0.266632,-4.425164 z m -3.052319,14.768335 c -1.6527497,1.11958 -2.2658768,3.598741 -1.4128336,5.584743 0.8930436,2.066003 3.1589406,3.225583 5.3448386,2.732425 1.959371,-0.43979 3.69211,-2.305898 3.638846,-3.932005 -3.065688,-0.51979 -5.598112,-1.986003 -7.570851,-4.385163 z M 18.193839,8.1254354 C 18.073944,6.2594015 16.327836,4.4733361 14.355097,4.1534514 12.129199,3.7935668 10.009944,4.9665051 9.1435745,7.0324761 8.3438472,8.9651522 8.983627,11.377671 10.596461,12.523925 12.582463,10.111438 15.101519,8.6319307 18.193839,8.1254354 Z m 3.612109,-0.013326 c 3.078952,0.5064954 5.611481,1.9859916 7.584115,4.3985526 1.719476,-1.319591 2.279266,-3.73211 1.346212,-5.7314388 C 29.81659,4.8065575 27.604061,3.7135983 25.498058,4.1534514 23.138897,4.6599468 21.87258,6.6992546 21.805948,8.1121094 Z m -0.02663,23.7519456 c 0.186632,2.052634 1.972634,3.73211 4.2119,4.025373 2.052634,0.266527 4.158637,-1.066317 4.905059,-3.078951 0.706422,-1.919371 0.02663,-4.318637 -1.519581,-5.331585 -0.946317,1.15958 -2.065898,2.145897 -3.37211,2.905687 -1.306317,0.746422 -2.719161,1.226212 -4.225268,1.479476 z M 8.8236794,24.386572 c -1.1062961,-2.945583 -1.0929698,-5.878008 0,-8.796959 -1.9326761,-0.79979 -4.2119,-0.16 -5.4914701,1.519476 -1.3062226,1.719371 -1.3062226,4.0519 0,5.758007 1.2795701,1.679476 3.5454571,2.319266 5.4914701,1.519476 z m 22.3391226,0 c 1.906003,0.826422 4.238532,0.16 5.504849,-1.532739 1.319476,-1.759476 1.279581,-4.172005 -0.106631,-5.851376 -1.319581,-1.612844 -3.678742,-2.225897 -5.398218,-1.386212 1.106317,2.905688 1.106317,5.824744 0,8.770327 z"
     fill="#ffffff"
     id="path2"
     style="fill:#000000;stroke-width:1.05263" />
  <path
     d="m 18.847208,13.846839 c 0,-0.786422 0,-1.532844 0,-2.292634 0.773053,0 1.519475,0 2.292529,0 0,0.75979 0,1.506212 0,2.292634 -0.75979,0 -1.519476,0 -2.292529,0 z"
     fill="#ffffff"
     id="path4"
     style="fill:#000000;stroke-width:1.05263" />
  <path
     d="m 21.139737,24.963064 c -0.773054,0 -1.519476,0 -2.292529,0 0,-0.75979 0,-1.519476 0,-2.305898 0.746422,0 1.506107,0 2.292529,0 0,0.746422 0,1.506107 0,2.305898 z"
     fill="#ffffff"
     id="path6"
     style="fill:#000000;stroke-width:1.05263" />
</svg>
