<svg width="39" height="36" viewBox="0 0 39 36" fill="none" xmlns="http://www.w3.org/2000/svg">
<path d="M0.421875 16.947C0.485187 16.6685 0.535836 16.4026 0.611811 16.124C1.38422 12.9331 4.29656 10.7805 7.57612 10.9704C7.62676 10.9704 7.67741 10.9704 7.77871 10.9704C6.4365 8.89377 6.1706 6.71584 7.10761 4.43661C7.74073 2.91713 8.82969 1.8155 10.2859 1.05576C13.1982 -0.463725 17.592 0.422641 19.4408 4.23401C20.5171 2.13206 22.1758 0.840499 24.493 0.447966C26.1771 0.156731 27.7599 0.511277 29.2035 1.42297C32.1031 3.24635 33.42 7.45026 31.0901 10.9704C33.3567 10.8564 35.2814 11.5909 36.7755 13.3003C37.9152 14.6045 38.4343 16.1366 38.4216 17.8587C38.409 21.0876 35.5346 24.7597 31.1155 24.4558C33.496 28.0519 31.9765 32.2432 29.1275 34.0412C26.2404 35.852 21.4034 35.2822 19.4281 31.2049C17.5414 35.1429 12.8183 35.9659 9.74138 34.0412C6.80371 32.2052 5.41084 27.976 7.72806 24.4938C7.03163 24.4052 6.30988 24.3925 5.61345 24.2279C2.91636 23.6074 0.903039 21.3789 0.510505 18.6438C0.497843 18.5805 0.459856 18.5045 0.447194 18.4412C0.421869 17.9347 0.421875 17.4409 0.421875 16.947ZM25.4301 24.5698C27.6586 22.8224 28.9629 19.3529 28.507 16.4785C27.8486 12.262 24.8603 9.26098 20.631 8.60253C19.5294 8.42526 18.4404 8.46325 17.4274 9.04572C15.8573 9.95741 15.0596 11.7681 15.5028 13.5155C15.9459 15.2883 17.5034 16.5292 19.3648 16.5798C22.0745 16.6558 24.0245 17.922 25.1642 20.3659C25.7719 21.6954 25.8099 23.101 25.4301 24.5698ZM13.4008 10.7678C13.2615 10.8944 13.1729 10.9577 13.0969 11.0337C11.4255 12.6545 10.4631 14.6172 10.2732 16.947C9.86801 22.2526 13.9706 26.7477 19.2761 26.849C21.9226 26.8997 23.8979 24.5191 23.3408 21.936C22.9356 20.0873 21.3275 18.8464 19.3268 18.7704C16.6677 18.6691 14.7683 17.3776 13.6541 14.9717C13.0589 13.6548 13.0209 12.262 13.4008 10.7678ZM10.5011 24.7977C8.93099 25.8613 8.34852 28.2165 9.15891 30.1032C10.0073 32.0659 12.1599 33.1675 14.2365 32.699C16.0979 32.2812 17.744 30.5084 17.6934 28.9636C14.781 28.4698 12.3752 27.0769 10.5011 24.7977ZM17.706 6.41194C17.5921 4.63921 15.9333 2.94245 14.0592 2.63856C11.9446 2.29667 9.93131 3.41096 9.10826 5.37363C8.34852 7.20967 8.95631 9.50156 10.4885 10.5905C12.3752 8.29864 14.7683 6.89311 17.706 6.41194ZM21.1375 6.39928C24.0625 6.88045 26.4684 8.28597 28.3424 10.5779C29.9759 9.32429 30.5077 7.0324 29.6213 5.13304C28.7476 3.25901 26.6457 2.2207 24.645 2.63856C22.4038 3.11973 21.2008 5.05707 21.1375 6.39928ZM21.1122 28.9636C21.2895 30.9136 22.9862 32.5091 25.1135 32.7877C27.0635 33.0409 29.0642 31.7747 29.7733 29.8627C30.4444 28.0393 29.7986 25.76 28.3297 24.7977C27.4307 25.8993 26.3671 26.8363 25.1262 27.5581C23.8852 28.2672 22.543 28.723 21.1122 28.9636ZM8.80436 21.86C7.75338 19.0617 7.76604 16.2759 8.80436 13.5029C6.96832 12.7431 4.80306 13.3509 3.58747 14.9464C2.34656 16.5798 2.34656 18.7957 3.58747 20.4165C4.80306 22.012 6.95565 22.6198 8.80436 21.86ZM30.0265 21.86C31.8372 22.6451 34.0531 22.012 35.2561 20.4039C36.5096 18.7324 36.4717 16.4405 35.1548 14.8451C33.9012 13.3129 31.66 12.7305 30.0265 13.5282C31.0775 16.2886 31.0775 19.0617 30.0265 21.86Z" fill="white"/>
<path d="M18.3267 13.5029C18.3267 12.7558 18.3267 12.0467 18.3267 11.3249C19.0611 11.3249 19.7702 11.3249 20.5046 11.3249C20.5046 12.0467 20.5046 12.7558 20.5046 13.5029C19.7828 13.5029 19.0611 13.5029 18.3267 13.5029Z" fill="white"/>
<path d="M20.5046 24.0633C19.7702 24.0633 19.0611 24.0633 18.3267 24.0633C18.3267 23.3415 18.3267 22.6198 18.3267 21.8727C19.0358 21.8727 19.7575 21.8727 20.5046 21.8727C20.5046 22.5818 20.5046 23.3035 20.5046 24.0633Z" fill="white"/>
</svg>
