<svg width="16" height="16" fill="none" xmlns="http://www.w3.org/2000/svg"><g clip-path="url(#a)"><path d="M1.081 9H2.5c.275 0 .5-.225.5-.5V2.25a1.25 1.25 0 1 1 2.5 0v4.125c0 .344.281.625.625.625a.627.627 0 0 0 .625-.625V1.25a1.25 1.25 0 1 1 2.5 0v5.125c0 .344.281.625.625.625a.627.627 0 0 0 .625-.625V2.25a1.25 1.25 0 1 1 2.5 0V8.5c0 .275.225.5.5.5h1.419a1.082 1.082 0 0 1 .8 1.81l-2.7 2.971a6.782 6.782 0 0 1-10.038 0l-2.7-2.972a1.082 1.082 0 0 1 .8-1.81zM8 9c-1.2 0-2.4 1.119-2.831 1.569A.615.615 0 0 0 5 11c0 .16.056.316.169.431C5.6 11.881 6.8 13 8 13s2.4-1.119 2.831-1.569A.615.615 0 0 0 11 11a.615.615 0 0 0-.169-.431C10.4 10.119 9.2 9 8 9zm0 3a.999.999 0 1 1 0-2 .999.999 0 1 1 0 2z" fill="#6E6CFF"/></g><defs><clipPath id="a"><path fill="#fff" d="M0 0h16v16H0z"/></clipPath></defs></svg>