<svg width="39" height="39" viewBox="0 0 39 39" fill="none" xmlns="http://www.w3.org/2000/svg">
<path d="M24.3994 38.6999H23.259C23.2337 38.6999 23.221 38.7 23.1957 38.6873C23.1323 38.6619 23.0817 38.6366 23.0183 38.6366C22.0426 38.4972 21.1683 38.1298 20.3954 37.5089C20.0786 37.2555 19.7872 36.9514 19.4705 36.6473C19.3944 36.5712 19.2677 36.5839 19.2044 36.6599C18.6342 37.3188 17.9753 37.8763 17.1517 38.2058C16.6322 38.4085 16.062 38.5352 15.5171 38.6873C15.5044 38.6873 15.4791 38.6999 15.4664 38.6999H14.3387C14.3134 38.6999 14.3007 38.7 14.2754 38.6873C14.212 38.6619 14.1613 38.6493 14.098 38.6366C11.7792 38.2311 10.2587 36.888 9.54914 34.6833C9.46044 34.4299 9.24502 34.2398 8.96626 34.2145C5.95059 33.999 3.66985 31.5282 3.75854 28.4872C3.78389 27.7903 3.97392 27.1061 4.1133 26.3712C4.12597 26.2951 4.10065 26.2318 4.0373 26.1811C4.01196 26.1684 3.99928 26.1558 3.97394 26.1431C2.50412 25.2181 1.41441 23.951 0.85689 22.3038C0.603473 21.5689 0.514776 20.7706 0.350055 19.9977C0.350055 19.833 0.337402 19.5669 0.337402 19.3895C0.362744 19.2755 0.375403 19.1614 0.388074 19.0474C0.565466 17.0707 1.37641 15.4108 2.83356 14.0677C3.26437 13.6749 3.74587 13.3455 4.20202 12.9907C4.18935 12.9527 4.18935 12.902 4.16401 12.864C2.6435 9.20211 5.24102 5.24879 9.15633 5.12208C9.3844 5.10941 9.42243 4.99537 9.48578 4.81798C10.094 2.73995 11.4371 1.34615 13.5405 0.826647C15.7072 0.294469 17.5698 0.928013 19.0903 2.56256C19.1283 2.61324 19.179 2.65125 19.217 2.70194C19.2931 2.79063 19.4198 2.79063 19.4958 2.70194C19.5591 2.62591 19.6225 2.56256 19.6859 2.4992C21.1937 0.915342 23.0309 0.30714 25.147 0.826647C27.225 1.33348 28.5681 2.68927 29.189 4.72928C29.2777 5.00804 29.3538 5.12208 29.6705 5.13475C32.7115 5.29947 35.043 7.79564 34.9543 10.8367C34.9289 11.5336 34.7389 12.2304 34.5995 12.9654C34.5868 13.0414 34.6248 13.1174 34.6882 13.1554C36.9943 14.6379 38.3374 16.8046 38.3374 19.6683C38.3374 22.5446 36.9943 24.7113 34.6122 26.2571C34.5361 26.3078 34.5108 26.3838 34.5361 26.4725C34.5488 26.4979 34.5488 26.5105 34.5615 26.5359C35.9806 30.2485 33.5478 34.0117 29.5818 34.2398C29.3411 34.2525 29.2777 34.3412 29.227 34.5566C28.6569 36.5332 27.3898 37.851 25.4258 38.4845C25.109 38.5859 24.7669 38.6366 24.4374 38.7126C24.4248 38.6999 24.4121 38.6999 24.3994 38.6999ZM35.9806 18.3632C35.1063 15.6896 33.2817 14.3592 30.5195 14.2578C30.4181 14.2578 30.3421 14.1691 30.3421 14.0677V12.2178C30.3421 12.1037 30.4308 12.0277 30.5448 12.0277C31.1783 12.0784 31.7865 12.1291 32.4074 12.1798C32.4201 12.1671 32.4454 12.1164 32.4708 12.0784C33.3831 10.1398 32.1287 7.71961 30.0126 7.41551C29.2524 7.30147 28.4541 7.35216 27.6812 7.33949C27.5798 7.33949 27.4784 7.33949 27.3771 7.33949C27.2757 7.33949 27.187 7.25079 27.187 7.14942C27.187 6.78197 27.1997 6.45252 27.187 6.12308C27.1363 4.45052 25.9453 3.14542 24.26 2.892C22.7522 2.66393 21.1937 3.62691 20.6868 5.13475C20.5855 5.43885 20.5475 5.75562 20.4841 6.0724C20.4715 6.17376 20.5475 6.27513 20.6488 6.2878C22.5368 6.50321 23.7532 7.44085 24.1713 8.94869C24.5261 10.2284 24.184 11.6096 23.2717 12.5599C22.5875 13.2695 21.7132 13.6242 20.6995 13.6749C20.5982 13.6749 20.5221 13.7636 20.5221 13.865V18.4392C20.5221 18.5406 20.6108 18.6293 20.7122 18.6293H24.7922C24.8936 18.6293 24.9823 18.7179 24.9823 18.8193C24.9823 18.8953 24.9823 18.9714 24.9823 19.0474C24.9823 19.719 24.9696 20.3905 24.9823 21.0494C24.995 21.8857 25.6412 22.5192 26.4521 22.5065C27.2377 22.4939 27.8712 21.873 27.8839 21.0494C27.8966 20.4919 27.8839 19.9344 27.8839 19.3768C27.8839 19.1868 27.8839 18.9967 27.8839 18.794C27.8839 18.6926 27.9726 18.6039 28.074 18.6039H35.8412C35.9299 18.6039 36.0186 18.4772 35.9806 18.3632ZM18.4314 8.53055C18.33 8.53055 18.2414 8.44185 18.2414 8.34049C18.2414 7.55489 18.254 6.81998 18.2414 6.08507C18.1907 4.33648 16.7209 2.90467 14.9723 2.86666C13.1097 2.82865 11.6018 4.27313 11.5385 6.13575C11.5258 6.46519 11.5385 6.79464 11.5385 7.14942C11.5385 7.25079 11.4498 7.33949 11.3484 7.33949C10.6008 7.33949 9.90393 7.31414 9.20703 7.33949C6.87558 7.42818 5.34239 9.7723 6.17867 11.9263C6.26736 12.1544 6.35608 12.2178 6.60949 12.1798C7.10366 12.1037 7.62317 12.0784 8.13 12.0531C8.2187 12.0531 8.3834 12.1544 8.39607 12.2051C8.40874 12.826 8.40876 13.4342 8.40876 14.0804C8.40876 14.1818 8.32006 14.2705 8.21869 14.2705C6.92626 14.2705 5.76052 14.5872 4.74685 15.3728C3.73318 16.1458 3.07431 17.1341 2.77021 18.3505C2.74487 18.4645 2.82088 18.5786 2.94759 18.5786H8.45943C8.54812 18.5786 8.63684 18.5025 8.63684 18.4138C8.9156 16.1838 10.094 14.9167 12.0326 14.7393C12.8309 14.6633 13.6292 14.8533 14.288 15.2968C15.4284 16.0444 15.9606 17.1214 16.0113 18.4138C16.0113 18.5152 16.1 18.5912 16.2014 18.5912H18.064C18.1653 18.5912 18.254 18.5025 18.254 18.4012V11.6096C18.254 11.5082 18.3427 11.4195 18.4441 11.4195C19.217 11.4195 19.9393 11.4322 20.6742 11.4195C21.3457 11.4068 21.8906 10.9507 22.0426 10.3171C22.258 9.39217 21.5865 8.54322 20.6235 8.51788C19.9012 8.51788 19.179 8.53055 18.4314 8.53055ZM11.3611 31.997C11.4624 31.997 11.5511 32.0857 11.5511 32.1871C11.5511 32.5546 11.5385 32.884 11.5511 33.2135C11.6018 34.8733 12.7929 36.1784 14.4781 36.4445C15.9859 36.6726 17.5445 35.7096 18.0513 34.2018C18.1527 33.8977 18.1907 33.5809 18.2414 33.2641C18.254 33.1628 18.178 33.0614 18.0767 33.0487C15.6438 32.884 14.4781 31.0721 14.4147 29.5516C14.3767 28.6773 14.5922 27.879 15.1243 27.1821C15.8592 26.1938 16.8476 25.7123 18.0386 25.6616C18.14 25.6616 18.216 25.5729 18.216 25.4715V20.9987C18.216 20.8973 18.1273 20.8086 18.026 20.8086H13.9586C13.8572 20.8086 13.7685 20.72 13.7685 20.6186C13.7685 20.5426 13.7685 20.4792 13.7685 20.4032C13.7685 19.7316 13.7812 19.0601 13.7685 18.4012C13.7559 17.5649 13.1223 16.9314 12.3114 16.9187C11.5005 16.9187 10.8669 17.5522 10.8542 18.3885C10.8416 19.0727 10.8542 19.7443 10.8542 20.4285C10.8542 20.4919 10.8542 20.5679 10.8416 20.6439C10.8289 20.7453 10.7529 20.8213 10.6515 20.8213H2.92225C2.79554 20.8213 2.70686 20.948 2.74487 21.0747C3.64451 23.6849 5.4691 24.9774 8.18067 25.0661C8.28204 25.0661 8.35805 25.1548 8.35805 25.2561V27.1314C8.35805 27.2455 8.26938 27.3215 8.15534 27.3215C7.57248 27.2708 7.00229 27.2201 6.41943 27.1821C6.34341 27.1821 6.28003 27.2074 6.24202 27.2708C5.95059 27.803 5.84924 28.5632 5.97595 29.2348C6.28005 30.844 7.59782 31.9717 9.23236 32.0097C9.95461 32.0224 10.6388 32.0097 11.3611 31.997ZM20.4714 27.727C20.4714 27.8283 20.3827 27.917 20.2814 27.917C19.4958 27.917 18.7609 27.9043 18.0386 27.917C17.3671 27.9297 16.8222 28.3858 16.6829 29.0194C16.4801 29.9444 17.139 30.7933 18.1146 30.806C18.8369 30.8187 19.5465 30.806 20.2941 30.806C20.3954 30.806 20.4841 30.8947 20.4841 30.996C20.4841 31.6296 20.4588 32.2378 20.4968 32.846C20.5221 33.3022 20.5475 33.771 20.6868 34.2018C21.1683 35.7096 22.7395 36.6726 24.2474 36.4572C25.9326 36.2038 27.1363 34.8987 27.187 33.2388C27.1997 32.8967 27.187 32.5672 27.187 32.1998C27.187 32.0984 27.2757 32.0097 27.3771 32.0097C27.4658 32.0097 27.5545 32.0097 27.6305 32.0097C28.264 32.0097 28.8976 32.0224 29.5311 31.997C31.8499 31.8957 33.3704 29.5769 32.5468 27.4355C32.4581 27.2074 32.3694 27.1188 32.1033 27.1568C31.6218 27.2328 31.115 27.2581 30.6208 27.2835C30.5195 27.2835 30.3421 27.1948 30.3421 27.1568C30.3294 26.5359 30.3294 25.9023 30.3294 25.2561C30.3294 25.1548 30.4181 25.0661 30.5195 25.0661C31.7992 25.0661 32.9396 24.762 33.9406 24.0017C34.9416 23.2541 35.6005 22.3038 35.9426 21.1001C35.9806 20.986 35.8919 20.8593 35.7652 20.8593H30.2914C30.2027 20.8593 30.1267 20.9227 30.114 21.0114C29.6959 23.4315 28.4541 24.6859 26.4268 24.7113C25.7552 24.724 25.0836 24.5339 24.5134 24.1791C23.3224 23.4315 22.7775 22.3418 22.7142 21.0367C22.7142 20.9354 22.6255 20.8593 22.5241 20.8593H20.6615C20.5601 20.8593 20.4714 20.948 20.4714 21.0494V27.727Z" fill="white"/>
</svg>
