<?xml version="1.0" encoding="UTF-8" standalone="no"?>
<svg
   width="40"
   height="40"
   viewBox="0 0 40 40"
   fill="none"
   version="1.1"
   id="svg4"
   sodipodi:docname="Psychologie.svg"
   inkscape:version="1.2.2 (732a01da63, 2022-12-09)"
   xmlns:inkscape="http://www.inkscape.org/namespaces/inkscape"
   xmlns:sodipodi="http://sodipodi.sourceforge.net/DTD/sodipodi-0.dtd"
   xmlns="http://www.w3.org/2000/svg"
   xmlns:svg="http://www.w3.org/2000/svg">
  <defs
     id="defs8" />
  <sodipodi:namedview
     id="namedview6"
     pagecolor="#ffffff"
     bordercolor="#000000"
     borderopacity="0.25"
     inkscape:showpageshadow="2"
     inkscape:pageopacity="0.0"
     inkscape:pagecheckerboard="0"
     inkscape:deskcolor="#d1d1d1"
     showgrid="false"
     inkscape:zoom="15.356909"
     inkscape:cx="18.590981"
     inkscape:cy="22.465459"
     inkscape:window-width="1920"
     inkscape:window-height="1027"
     inkscape:window-x="-8"
     inkscape:window-y="-8"
     inkscape:window-maximized="1"
     inkscape:current-layer="svg4" />
  <path
     d="m 25.32842,39.986656 h -1.200421 c -0.02663,0 -0.04,1.05e-4 -0.06663,-0.01324 -0.06674,-0.02669 -0.12,-0.05327 -0.186737,-0.05327 -1.027053,-0.146466 -1.947369,-0.53249 -2.760948,-1.184864 -0.333473,-0.266245 -0.64021,-0.58576 -0.973579,-0.905276 -0.0801,-0.07996 -0.213473,-0.06661 -0.280105,0.01324 -0.600211,0.6923 -1.29379,1.278061 -2.160737,1.624264 -0.546842,0.212975 -1.147053,0.346097 -1.720632,0.505908 -0.01337,0 -0.04,0.01324 -0.05337,0.01324 h -1.187053 c -0.02663,0 -0.04,1.05e-4 -0.06663,-0.01324 -0.06674,-0.02669 -0.120106,-0.03993 -0.186737,-0.05327 C 12.043999,39.494092 10.443472,38.082909 9.6965668,35.76645 9.6031988,35.500204 9.3764405,35.300468 9.0830089,35.273886 5.9086193,35.047462 3.5078402,32.451414 3.6011981,29.256261 c 0.026684,-0.732226 0.2267158,-1.451109 0.3734316,-2.223262 0.013337,-0.07996 -0.013316,-0.146467 -0.08,-0.199737 -0.026674,-0.01334 -0.040021,-0.02658 -0.066695,-0.03993 C 2.2807557,25.821446 1.1336925,24.490116 0.5468293,22.759417 0.28007455,21.987264 0.18670928,21.148497 0.01331875,20.336418 0.01331895,20.163369 0,19.88378 0,19.697387 0.02667579,19.577608 0.04000105,19.457725 0.05333895,19.337946 0.24006738,17.261044 1.0936927,15.517002 2.6275349,14.105818 3.0810191,13.693107 3.5878612,13.347009 4.0680192,12.974224 4.0546822,12.934298 4.0546822,12.881028 4.0280082,12.841101 2.4274713,8.9935857 5.161703,4.8398668 9.2830822,4.7067337 9.5231559,4.6934215 9.5631875,4.5736006 9.6298717,4.3872185 10.270104,2.2038505 11.683893,0.739397 13.897999,0.19355972 c 2.280737,-0.55915478 4.241368,0.10650438 5.841895,1.82390868 0.04,0.053249 0.09337,0.093186 0.133368,0.1464453 0.0801,0.093186 0.213474,0.093186 0.293474,0 0.06663,-0.079884 0.133368,-0.1464453 0.200105,-0.2130171 1.587158,-1.66414581 3.521053,-2.30317835 5.748527,-1.75733688 2.187368,0.53252502 3.601158,1.95704178 4.254737,4.10046248 0.09337,0.2928907 0.173473,0.4127115 0.506842,0.4260238 3.201053,0.1730699 5.655263,2.7957739 5.561895,5.990989 -0.02674,0.732227 -0.226737,1.464348 -0.373474,2.236606 -0.01337,0.07985 0.02663,0.159705 0.09337,0.199632 2.427473,1.55765 3.841263,3.834182 3.841263,6.843047 0,3.022103 -1.41379,5.298636 -3.921263,6.922795 -0.08011,0.05327 -0.106737,0.133122 -0.08011,0.226319 0.01337,0.02669 0.01337,0.03993 0.02674,0.06661 1.49379,3.900797 -1.067052,7.854758 -5.24179,8.094421 -0.253368,0.01334 -0.320105,0.10654 -0.373473,0.332859 -0.600106,2.076796 -1.933895,3.461397 -4.001264,4.12701 -0.333473,0.10654 -0.693579,0.15981 -1.040421,0.239663 -0.01326,-0.01334 -0.02663,-0.01334 -0.04,-0.01334 z M 37.519158,18.619063 c -0.920316,-2.809128 -2.840948,-4.206968 -5.748527,-4.313508 -0.106737,0 -0.186737,-0.0932 -0.186737,-0.199737 v -1.943673 c 0,-0.119884 0.09337,-0.199737 0.213369,-0.199737 0.666842,0.05327 1.307052,0.10654 1.960631,0.15981 0.01337,-0.01334 0.04,-0.06661 0.06674,-0.10654 0.960316,-2.0368696 -0.360105,-4.5797421 -2.587579,-4.8992574 -0.80021,-0.1198208 -1.640526,-0.066561 -2.454105,-0.079873 -0.106737,0 -0.213474,0 -0.320106,0 -0.106736,0 -0.200105,-0.093196 -0.200105,-0.1997049 0,-0.3860765 0.01337,-0.7322268 0,-1.0783665 -0.05337,-1.7573442 -1.307052,-3.1286014 -3.081053,-3.3948676 -1.587158,-0.2396312 -3.227684,0.7721635 -3.761263,2.3564379 -0.106632,0.3195152 -0.146632,0.6523427 -0.213368,0.9851807 -0.01326,0.106498 0.06674,0.2130066 0.173368,0.2263189 1.987369,0.2263294 3.26779,1.2114996 3.707895,2.7957739 0.373474,1.34458 0.01337,2.795794 -0.946947,3.794266 -0.720211,0.745571 -1.640527,1.118251 -2.70758,1.171521 -0.106631,0 -0.186736,0.0932 -0.186736,0.199736 v 4.806072 c 0,0.10654 0.09337,0.199737 0.200105,0.199737 h 4.294737 c 0.106737,0 0.200105,0.09309 0.200105,0.199631 0,0.07985 0,0.15981 0,0.239663 0,0.705644 -0.01337,1.411183 0,2.103484 0.01337,0.878693 0.693579,1.544306 1.547158,1.530962 0.826948,-0.01324 1.49379,-0.665613 1.507158,-1.530962 0.01337,-0.585761 0,-1.171521 0,-1.757387 0,-0.199631 0,-0.399367 0,-0.612342 0,-0.106541 0.09337,-0.199737 0.200105,-0.199737 h 8.176001 c 0.09337,0 0.186737,-0.133122 0.146737,-0.252901 z M 19.046315,8.2879834 c -0.106737,0 -0.2,-0.093196 -0.2,-0.1996943 0,-0.8254231 0.01326,-1.5975866 0,-2.3697502 -0.05337,-1.8372282 -1.600527,-3.3416185 -3.441158,-3.3815553 -1.960632,-0.039937 -3.547895,1.4777658 -3.614527,3.4348044 -0.01337,0.3461397 0,0.6922899 0,1.0650542 0,0.1065086 -0.09337,0.1997049 -0.200105,0.1997049 -0.786948,0 -1.520495,-0.026635 -2.254074,0 -2.454158,0.093186 -4.0680423,2.5561322 -3.1877475,4.8193209 0.093358,0.239663 0.1867474,0.306277 0.4534947,0.26635 0.520179,-0.07996 1.0670317,-0.10654 1.600537,-0.133122 0.093368,0 0.2667368,0.106435 0.2800737,0.159705 0.013337,0.652374 0.013358,1.291404 0.013358,1.970361 0,0.10654 -0.093368,0.199737 -0.2000737,0.199737 -1.3604527,0 -2.5875475,0.332753 -3.6545686,1.158177 -1.0670212,0.812184 -1.7605686,1.850582 -2.0806738,3.128643 -0.026674,0.119779 0.053337,0.239663 0.1867158,0.239663 h 5.8019371 c 0.093358,0 0.1867474,-0.07996 0.1867474,-0.173154 0.2934316,-2.343042 1.5338529,-3.674373 3.5744839,-3.860765 0.840316,-0.07985 1.680632,0.119778 2.374106,0.58576 1.200421,0.785497 1.760631,1.917091 1.814,3.275005 0,0.10654 0.09337,0.186392 0.200105,0.186392 h 1.960632 c 0.106631,0 0.2,-0.0932 0.2,-0.199631 v -7.135875 c 0,-0.10654 0.09337,-0.199736 0.200105,-0.199736 0.813579,0 1.573895,0.01334 2.347474,0 0.706842,-0.01334 1.280421,-0.492564 1.440421,-1.158282 0.226737,-0.9718159 -0.480105,-1.8638003 -1.49379,-1.8904248 -0.760315,0 -1.520526,0.013312 -2.307473,0.013312 z M 11.603893,32.943978 c 0.106632,0 0.2,0.0932 0.2,0.199736 0,0.386129 -0.01326,0.732227 0,1.07843 0.05337,1.743937 1.307158,3.115194 3.081053,3.394783 1.587158,0.239663 3.22779,-0.772153 3.761263,-2.356385 0.106737,-0.319515 0.146737,-0.652374 0.200106,-0.985233 0.01326,-0.106435 -0.06674,-0.212976 -0.173369,-0.226319 -2.560947,-0.173049 -3.788,-2.076797 -3.854737,-3.674373 -0.04,-0.918619 0.186842,-1.757386 0.746948,-2.489613 0.773579,-1.038398 1.814,-1.544306 3.067684,-1.597576 0.106737,0 0.186737,-0.0932 0.186737,-0.199736 V 21.38816 c 0,-0.10654 -0.09337,-0.199737 -0.2,-0.199737 h -4.281474 c -0.106737,0 -0.200105,-0.09309 -0.200105,-0.199631 0,-0.07985 0,-0.146466 0,-0.226319 0,-0.705644 0.01337,-1.411183 0,-2.103484 -0.01326,-0.878693 -0.680211,-1.544306 -1.53379,-1.55765 -0.853579,0 -1.520526,0.665613 -1.533895,1.544306 -0.01326,0.718883 0,1.424528 0,2.14341 0,0.06661 0,0.146467 -0.01326,0.226319 -0.01337,0.10654 -0.09337,0.186393 -0.200105,0.186393 H 2.7208928 c -0.133379,0 -0.2267264,0.133123 -0.1867158,0.266245 0.9469895,2.742515 2.8676107,4.100533 5.721895,4.193729 0.1067053,0 0.1867158,0.0932 0.1867158,0.199632 v 1.970361 c 0,0.119884 -0.093337,0.199737 -0.2133789,0.199737 C 7.615872,27.9782 7.0156719,27.92493 6.4021351,27.885004 c -0.080021,0 -0.1467369,0.02658 -0.1867474,0.0932 -0.3067684,0.559178 -0.4134527,1.357914 -0.2800737,2.063558 0.3201053,1.690773 1.7072317,2.875637 3.4278002,2.915563 0.7602628,0.01334 1.4804628,0 2.2407788,-0.01334 z m 9.58979,-4.486452 c 0,0.106435 -0.09337,0.199631 -0.2,0.199631 -0.826947,0 -1.600526,-0.01334 -2.360842,0 -0.706842,0.01334 -1.280421,0.492564 -1.427053,1.158282 -0.213473,0.97189 0.480106,1.863822 1.507053,1.877165 0.760316,0.01334 1.507263,0 2.294211,0 0.106631,0 0.2,0.0932 0.2,0.199632 0,0.665718 -0.02663,1.304748 0.01337,1.943779 0.02663,0.479325 0.05337,0.971889 0.2,1.424527 0.506842,1.584232 2.160737,2.596048 3.748,2.369729 1.773895,-0.266245 3.040948,-1.637502 3.094316,-3.381545 0.01337,-0.359441 0,-0.705644 0,-1.091668 0,-0.10654 0.09337,-0.199737 0.200105,-0.199737 0.09337,0 0.186737,0 0.266737,0 0.666842,0 1.33379,0.01334 2.000632,-0.01334 2.440842,-0.106435 4.041369,-2.542778 3.174421,-4.792729 -0.09337,-0.239662 -0.186737,-0.332754 -0.466842,-0.292827 -0.506842,0.07985 -1.040316,0.106435 -1.560526,0.133122 -0.106632,0 -0.293369,-0.0932 -0.293369,-0.133122 -0.01337,-0.652375 -0.01337,-1.318093 -0.01337,-1.997049 0,-0.106435 0.09337,-0.199632 0.200105,-0.199632 1.347053,0 2.547474,-0.319515 3.601158,-1.118355 1.053684,-0.785497 1.747263,-1.783969 2.107369,-3.048686 0.04,-0.119884 -0.05337,-0.253007 -0.186737,-0.253007 h -5.761895 c -0.09337,0 -0.173369,0.06661 -0.186737,0.15981 -0.440105,2.542778 -1.747263,3.860766 -3.881263,3.887453 -0.706948,0.01334 -1.413895,-0.186393 -2.014106,-0.559178 -1.253684,-0.785497 -1.827263,-1.930435 -1.893895,-3.301692 0,-0.106435 -0.09337,-0.186393 -0.200105,-0.186393 h -1.960632 c -0.106736,0 -0.200105,0.0932 -0.200105,0.199737 z"
     fill="white"
     id="path2"
     style="fill:#000000;stroke-width:1.05166" />
</svg>
