<svg width="16" height="16" fill="none" xmlns="http://www.w3.org/2000/svg"><g clip-path="url(#a)"><path d="M5.75 0C6.716 0 7.5.784 7.5 1.75v12.5a1.751 1.751 0 0 1-3.49.184 2.002 2.002 0 0 1-2.397-2.597 2.498 2.498 0 0 1-.181-4.597 2.004 2.004 0 0 1 1.144-3.197A2.005 2.005 0 0 1 4.009 1.56 1.75 1.75 0 0 1 5.75 0zm4.5 0c.903 0 1.644.684 1.74 1.56a1.999 1.999 0 0 1 1.435 2.484 2.001 2.001 0 0 1 1.144 3.197 2.498 2.498 0 0 1-.182 4.597 2.002 2.002 0 0 1-2.397 2.597 1.751 1.751 0 0 1-3.49-.185V1.75C8.5.784 9.284 0 10.25 0z" fill="#6E6CFF"/></g><defs><clipPath id="a"><path fill="#fff" d="M0 0h16v16H0z"/></clipPath></defs></svg>