<svg width="16" height="16" fill="none" xmlns="http://www.w3.org/2000/svg"><g clip-path="url(#a)"><path d="M11.535.517 9.781 2.275l3.943 3.943 1.754-1.755c.69-.69.69-1.804 0-2.494L14.03.517a1.762 1.762 0 0 0-2.495 0zM9.003 2.92l-.29.088L4.175 4.37A2.014 2.014 0 0 0 2.843 5.66l-2.79 8.32c-.12.357-.032.754.23 1.021l4.837-4.834a1.511 1.511 0 1 1 .712.712L.994 15.716a1 1 0 0 0 1.02.23l8.324-2.79a2.02 2.02 0 0 0 1.292-1.333l1.36-4.538.088-.29L9.003 2.92z" fill="#6E6CFF"/></g><defs><clipPath id="a"><path fill="#fff" d="M0 0h16v16H0z"/></clipPath></defs></svg>