<svg width="39" height="34" viewBox="0 0 39 34" fill="none" xmlns="http://www.w3.org/2000/svg">
<path d="M31.5837 5.9649C32.5589 5.9649 33.4834 5.95224 34.4079 5.9649C34.8259 5.9649 35.2691 5.95224 35.6744 6.04089C37.0675 6.31952 38.0427 7.47201 38.1314 8.89047C38.144 9.01712 38.144 9.15643 38.144 9.28308C38.144 15.6661 38.144 22.0619 38.144 28.4449C38.144 30.5726 37.0169 32.2443 35.1298 32.8396C34.5979 33.0042 34.0153 33.0802 33.4454 33.0802C24.3521 33.0929 15.2588 33.0929 6.15277 33.0929C2.72061 33.0929 0.162337 30.5346 0.149672 27.1024C0.137007 19.4402 0.149672 11.778 0.149672 4.11584C0.149672 2.11481 1.44148 0.835663 3.44252 0.835663C11.7253 0.835663 20.0207 0.835663 28.3035 0.835663C30.2919 0.835663 31.5837 2.14014 31.5837 4.14117C31.5837 4.73642 31.5837 5.319 31.5837 5.9649ZM29.8359 30.8259C29.3673 29.952 29.2787 29.0781 29.2787 28.1789C29.2914 20.2128 29.2787 12.2466 29.2787 4.28049C29.2787 3.38129 29.0507 3.14066 28.1515 3.14066C19.9574 3.14066 11.7633 3.14066 3.56917 3.14066C2.68263 3.14066 2.41666 3.39395 2.41666 4.26782C2.41666 11.8414 2.41666 19.4022 2.41666 26.9758C2.41666 27.3177 2.42932 27.6724 2.5053 28.0016C2.89791 29.7494 4.3417 30.8385 6.24142 30.8385C13.9416 30.8385 21.6418 30.8385 29.342 30.8385C29.5067 30.8259 29.6333 30.8259 29.8359 30.8259ZM31.5837 8.26989C31.5837 8.45987 31.5837 8.58651 31.5837 8.71316C31.5837 15.2862 31.5837 21.8592 31.5837 28.4322C31.5837 28.5462 31.5837 28.6729 31.5837 28.7869C31.647 29.724 32.3056 30.5219 33.1921 30.7372C34.1166 30.9652 35.1045 30.5726 35.5351 29.724C35.7377 29.3314 35.8391 28.8375 35.8391 28.3942C35.8517 22.0492 35.8517 15.7041 35.8517 9.35907C35.8517 9.19442 35.8517 9.04245 35.8137 8.89047C35.7377 8.52319 35.4971 8.28256 35.1298 8.26989C33.9647 8.26989 32.7995 8.26989 31.5837 8.26989Z" fill="white"/>
<path d="M9.81303 7.72531C10.5983 7.72531 11.3835 7.72531 12.156 7.72531C13.2579 7.73797 14.0304 8.49786 14.0304 9.61236C14.043 10.9295 14.043 12.234 14.0304 13.5511C14.0177 14.615 13.2705 15.4002 12.2067 15.4128C10.5856 15.4382 8.96447 15.4382 7.35605 15.4128C6.31753 15.4002 5.57031 14.6656 5.54498 13.6271C5.50698 12.2593 5.51965 10.8915 5.54498 9.52371C5.57031 8.45987 6.35553 7.72531 7.41937 7.72531C8.21725 7.71264 9.01515 7.72531 9.81303 7.72531ZM7.86264 13.1078C9.16711 13.1078 10.4336 13.1078 11.7128 13.1078C11.7128 12.0693 11.7128 11.0561 11.7128 10.0303C10.4209 10.0303 9.15445 10.0303 7.86264 10.0303C7.86264 11.0561 7.86264 12.0693 7.86264 13.1078Z" fill="white"/>
<path d="M15.8413 26.2286C12.8144 26.2286 9.78756 26.2286 6.76068 26.2286C5.91214 26.2286 5.36756 25.5447 5.59553 24.7721C5.72217 24.3415 6.01347 24.0629 6.45674 23.9742C6.64671 23.9362 6.84934 23.9236 7.05198 23.9236C12.9284 23.9236 18.8176 23.9236 24.694 23.9236C24.8967 23.9236 25.0993 23.9362 25.2893 23.9742C25.8465 24.0755 26.2264 24.5821 26.1885 25.1647C26.1505 25.722 25.7325 26.1652 25.1753 26.2159C25.036 26.2286 24.884 26.2286 24.732 26.2286C21.7684 26.2286 18.8049 26.2286 15.8413 26.2286Z" fill="white"/>
<path d="M15.8793 20.8207C12.8524 20.8207 9.82557 20.8207 6.79868 20.8207C5.93748 20.8207 5.39288 20.1748 5.58285 19.4023C5.69683 18.9463 6.06411 18.617 6.53271 18.5537C6.69735 18.5284 6.87467 18.5284 7.05198 18.5284C12.9284 18.5284 18.8176 18.5284 24.694 18.5284C24.8713 18.5284 25.036 18.5284 25.2133 18.5537C25.7959 18.6297 26.2011 19.1236 26.1885 19.7189C26.1758 20.2888 25.7452 20.7574 25.1753 20.808C25.0233 20.8207 24.8587 20.8207 24.694 20.8207C21.7431 20.8207 18.8176 20.8207 15.8793 20.8207Z" fill="white"/>
<path d="M21.2112 7.72531C22.4396 7.72531 23.6808 7.72531 24.9093 7.72531C25.6692 7.72531 26.1631 8.18124 26.1631 8.86514C26.1631 9.53638 25.6692 10.0176 24.9093 10.0176C22.4143 10.0303 19.9193 10.0303 17.4244 10.0176C16.6898 10.0176 16.1705 9.51105 16.1832 8.85248C16.1959 8.18124 16.7025 7.73798 17.4624 7.72531C18.7162 7.72531 19.97 7.72531 21.2112 7.72531Z" fill="white"/>
<path d="M21.2113 13.1332C22.4525 13.1332 23.7063 13.1332 24.9474 13.1332C25.53 13.1332 25.9226 13.3991 26.0999 13.8804C26.3405 14.5516 25.9353 15.2735 25.2387 15.3875C25.1247 15.4128 24.9981 15.4128 24.8841 15.4128C22.4145 15.4128 19.9448 15.4128 17.4879 15.4128C16.5507 15.4128 15.9807 14.6656 16.2847 13.8677C16.462 13.3991 16.8546 13.1332 17.4499 13.1332C18.691 13.1205 19.9575 13.1332 21.2113 13.1332Z" fill="white"/>
</svg>
