<?xml version="1.0" encoding="UTF-8" standalone="no"?>
<svg
   width="40"
   height="40"
   viewBox="0 0 40 40"
   fill="none"
   version="1.1"
   id="svg14"
   sodipodi:docname="Publizistik.svg"
   inkscape:version="1.2.2 (732a01da63, 2022-12-09)"
   xmlns:inkscape="http://www.inkscape.org/namespaces/inkscape"
   xmlns:sodipodi="http://sodipodi.sourceforge.net/DTD/sodipodi-0.dtd"
   xmlns="http://www.w3.org/2000/svg"
   xmlns:svg="http://www.w3.org/2000/svg">
  <defs
     id="defs18" />
  <sodipodi:namedview
     id="namedview16"
     pagecolor="#ffffff"
     bordercolor="#000000"
     borderopacity="0.25"
     inkscape:showpageshadow="2"
     inkscape:pageopacity="0.0"
     inkscape:pagecheckerboard="0"
     inkscape:deskcolor="#d1d1d1"
     showgrid="false"
     inkscape:zoom="12.455882"
     inkscape:cx="32.635183"
     inkscape:cy="13.88902"
     inkscape:window-width="1920"
     inkscape:window-height="1027"
     inkscape:window-x="-8"
     inkscape:window-y="-8"
     inkscape:window-maximized="1"
     inkscape:current-layer="svg14" />
  <path
     d="m 33.094413,8.42169 c 1.026528,0 1.999687,-0.013326 2.972846,0 0.44,0 0.906527,-0.013326 1.333159,0.079989 1.466423,0.2932951 2.49295,1.506444 2.586319,2.999561 C 40,11.634557 40,11.781199 40,11.914515 c 0,6.718976 0,13.451405 0,20.17036 0,2.239686 -1.186422,3.999373 -3.172846,4.626005 -0.559895,0.173263 -1.173159,0.253263 -1.773054,0.253263 -9.571906,0.01337 -19.143811,0.01337 -28.7291172,0.01337 -3.612804,0 -6.30572605,-2.692951 -6.31905765,-6.305797 -0.01333159,-8.065483 0,-16.130965 0,-24.1964062 0,-2.1063508 1.35979945,-3.4528228 3.46615975,-3.4528228 8.7187261,0 17.4507361,0 26.1694821,0 2.093055,0 3.452846,1.3731352 3.452846,3.479485 0,0.6265796 0,1.2398224 0,1.919718 z m -1.839791,26.169503 c -0.493264,-0.919896 -0.586527,-1.839791 -0.586527,-2.786319 0.01337,-8.385378 0,-16.770861 0,-25.1562492 0,-0.9465274 -0.240001,-1.1998224 -1.186528,-1.1998224 -8.625378,0 -17.250756,0 -25.8761662,0 -0.933201,0 -1.2131698,0.2666213 -1.2131698,1.1864855 0,7.9721981 0,15.9309441 0,23.9031641 0,0.359895 0.013326,0.733264 0.093305,1.079791 0.4132741,1.839791 1.9330548,2.986213 3.9327623,2.986213 8.1054627,0 16.2109457,0 24.3164277,0 0.173369,-0.01326 0.306632,-0.01326 0.519896,-0.01326 z m 1.839791,-23.743195 c 0,0.199979 0,0.333285 0,0.466601 0,6.918997 0,13.837952 0,20.756907 0,0.12 0,0.253369 0,0.373369 0.06663,0.986422 0.759896,1.826318 1.693055,2.05295 0.973159,0.24 2.013055,-0.173264 2.466318,-1.066528 0.213264,-0.413263 0.320001,-0.933159 0.320001,-1.399791 0.01326,-6.678955 0.01326,-13.358015 0.01326,-20.037001 0,-0.173316 0,-0.333285 -0.04,-0.493264 -0.08,-0.386611 -0.333264,-0.639906 -0.719896,-0.653243 -1.226422,0 -2.45295,0 -3.732741,0 z"
     fill="white"
     id="path2"
     style="fill:#000000;stroke-width:1.05263" />
  <path
     d="m 10.177892,10.274755 c 0.826602,0 1.653129,0 2.466288,0 1.159896,0.01333 1.973054,0.813212 1.973054,1.986371 0.01326,1.386465 0.01326,2.759624 0,4.146047 -0.01337,1.119896 -0.799895,1.946423 -1.919686,1.959686 -1.706423,0.02674 -3.4128776,0.02674 -5.1059532,0 -1.0931802,-0.01326 -1.8797284,-0.786527 -1.9063916,-1.879686 -0.04,-1.439791 -0.026663,-2.879582 0,-4.319363 0.026663,-1.119833 0.8532115,-1.893055 1.9730443,-1.893055 0.8398746,-0.01334 1.6797703,0 2.5196445,0 z m -2.053044,5.665786 c 1.3731279,0 2.706277,0 4.052805,0 0,-1.09316 0,-2.159687 0,-3.239478 -1.359897,0 -2.6930034,0 -4.052805,0 0,1.079791 0,2.146318 0,3.239478 z"
     fill="white"
     id="path4"
     style="fill:#000000;stroke-width:1.05263" />
  <path
     d="m 16.523447,29.751925 c -3.186214,0 -6.372365,0 -9.5585582,0 -0.893201,0 -1.4664437,-0.719896 -1.226475,-1.53316 0.1333054,-0.453264 0.4399373,-0.746527 0.9065378,-0.839896 0.1999687,-0.04 0.4132637,-0.05326 0.6265692,-0.05326 6.1857122,0 12.3848772,0 18.5705682,0 0.213369,0 0.426632,0.01326 0.626633,0.05326 0.586527,0.106632 0.986422,0.639896 0.946527,1.25316 -0.04,0.586632 -0.480001,1.053159 -1.066528,1.106527 -0.146631,0.01337 -0.306632,0.01337 -0.466632,0.01337 -3.119582,0 -6.239059,0 -9.358642,0 z"
     fill="white"
     id="path6"
     style="fill:#000000;stroke-width:1.05263" />
  <path
     d="m 16.563447,24.059392 c -3.186214,0 -6.372355,0 -9.5585581,0 -0.9065274,0 -1.4797912,-0.679896 -1.2798225,-1.493054 0.1199791,-0.480001 0.50659,-0.826633 0.9998537,-0.893265 0.1733055,-0.02663 0.3599583,-0.02663 0.5466007,-0.02663 6.1857122,0 12.3848772,0 18.5705682,0 0.186632,0 0.360001,0 0.546632,0.02663 0.613264,0.08 1.039791,0.599896 1.026528,1.226528 -0.01337,0.599895 -0.466632,1.093159 -1.066528,1.146422 -0.16,0.01337 -0.333263,0.01337 -0.506632,0.01337 -3.106214,0 -6.185691,0 -9.278642,-1e-6 z"
     fill="white"
     id="path8"
     style="fill:#000000;stroke-width:1.05263" />
  <path
     d="m 22.17598,10.274755 c 1.293054,0 2.599582,0 3.892741,0 0.799896,0 1.319791,0.479927 1.319791,1.199823 0,0.706569 -0.519895,1.213117 -1.319791,1.213117 -2.626319,0.01337 -5.252637,0.01337 -7.878851,0 -0.773264,0 -1.319896,-0.533211 -1.306528,-1.226444 0.01337,-0.706569 0.546632,-1.173159 1.346528,-1.186496 1.319791,0 2.639582,0 3.94611,0 z"
     fill="white"
     id="path10"
     style="fill:#000000;stroke-width:1.05263" />
  <path
     d="m 22.176085,15.967277 c 1.306528,0 2.626319,0 3.932741,0 0.613264,0 1.026528,0.279895 1.21316,0.786528 0.253263,0.706527 -0.173264,1.466422 -0.906528,1.586422 -0.12,0.02663 -0.253263,0.02663 -0.373263,0.02663 -2.599582,0 -5.199269,0 -7.785483,0 -0.986527,0 -1.586528,-0.786527 -1.266528,-1.626423 0.186632,-0.493264 0.599896,-0.773159 1.226528,-0.773159 1.306423,-0.01337 2.639582,0 3.959373,0 z"
     fill="white"
     id="path12"
     style="fill:#000000;stroke-width:1.05263" />
</svg>
