<?xml version="1.0" encoding="UTF-8" standalone="no"?>
<!-- Uploaded to: SVG Repo, www.svgrepo.com, Generator: SVG Repo Mixer Tools -->

<svg
   fill="#000000"
   width="40"
   height="40"
   viewBox="0 0 1.6 1.6"
   version="1.1"
   id="svg6"
   sodipodi:docname="Romanistik.svg"
   inkscape:version="1.2.2 (732a01da63, 2022-12-09)"
   xmlns:inkscape="http://www.inkscape.org/namespaces/inkscape"
   xmlns:sodipodi="http://sodipodi.sourceforge.net/DTD/sodipodi-0.dtd"
   xmlns="http://www.w3.org/2000/svg"
   xmlns:svg="http://www.w3.org/2000/svg"
   xmlns:rdf="http://www.w3.org/1999/02/22-rdf-syntax-ns#"
   xmlns:cc="http://creativecommons.org/ns#"
   xmlns:dc="http://purl.org/dc/elements/1.1/">
  <defs
     id="defs10" />
  <sodipodi:namedview
     id="namedview8"
     pagecolor="#ffffff"
     bordercolor="#000000"
     borderopacity="0.25"
     inkscape:showpageshadow="2"
     inkscape:pageopacity="0.0"
     inkscape:pagecheckerboard="0"
     inkscape:deskcolor="#d1d1d1"
     showgrid="false"
     inkscape:zoom="4.235"
     inkscape:cx="16.646989"
     inkscape:cy="53.12869"
     inkscape:window-width="1920"
     inkscape:window-height="1027"
     inkscape:window-x="-8"
     inkscape:window-y="-8"
     inkscape:window-maximized="1"
     inkscape:current-layer="svg6" />
  <title
     id="title2">bleeding-hearts</title>
  <path
     d="M 1.2855352,1.0985608 C 1.2996722,1.0141444 1.3069602,0.93626525 1.3534802,0.86270645 1.4764945,0.6681224 1.6507414,0.47882494 1.586029,0.22824747 1.5463028,0.07436515 1.4201108,-0.00493512 1.2993434,2.3787613e-4 1.1961652,0.00467187 1.1061376,0.08317629 1.0540827,0.19851697 0.95342494,0.12643615 0.83594529,0.10676741 0.74191769,0.15554134 c -0.0952331,0.0494561 -0.1587401,0.15791839 -0.147562,0.28843697 -0.0164384,0.008641 -0.0326576,0.0186455 -0.0484385,0.0299579 C 0.49386238,0.35859551 0.40378001,0.28009109 0.30065652,0.27565709 0.17988915,0.2704841 0.05369712,0.34978436 0.01397101,0.5036667 -0.05074145,0.754301 0.12350548,0.9435416 0.24651942,1.1381257 0.29304002,1.2116845 0.30032772,1.2896205 0.31446472,1.37398 0.36147852,1.3015582 0.42635536,1.235503 0.48542397,1.2008837 0.65583525,1.1011189 0.88071245,1.0366554 0.97002765,0.8500298 c -5.5e-5,0 -1.1e-4,-5.5e-5 -1.65e-4,-5.5e-5 0.0496986,0.0246143 0.0991783,0.0487739 0.14476745,0.0754915 0.059069,0.0345625 0.1239454,0.1006744 0.1709593,0.1730962 z M 0.96684964,0.69796655 c -0.020548,-0.00847 -0.040822,-0.0169401 -0.0604932,-0.0257513 0.0196713,0.008811 0.0399453,0.0172812 0.0604932,0.0257513 h -5.5e-5 z m -0.2536444,-0.1928219 c 0.0359453,-0.001762 0.0705208,0.006253 0.10021945,0.0216584 0.053096,0.0275703 0.089644,0.0749799 0.0923837,0.1451848 -0.0857536,-0.0384848 -0.15950715,-0.083848 -0.1926579,-0.1668432 z m 0.0733153,-0.25376083 c 0.0711234,-0.0368931 0.17019215,-0.0316064 0.24843876,0.0495698 l 0.063726,0.066112 0.022301,-0.0892483 c 0.029809,-0.11551121 0.1051515,-0.16860545 0.18159,-0.17184567 v 0 C 1.37896,0.10267452 1.4597821,0.14735551 1.4905219,0.26127503 1.534248,0.42345687 1.3906313,0.55369125 1.2924941,0.69796655 H 1.0068497 C 1.009699,0.5771118 0.94816469,0.47763118 0.85813709,0.43096056 0.80805479,0.4049819 0.75134239,0.3984446 0.69408199,0.40884744 c 1.1e-4,0.007333 6.03e-4,0.0148368 0.001424,0.0226247 -0.009644,-0.0897031 0.0296439,-0.14819771 0.0910686,-0.18008835 z m -0.075507,0.24807625 c -2.2e-4,-5.685e-4 -4.35e-4,-0.001137 -6.575e-4,-0.001762 2.2e-4,5.685e-4 4.35e-4,0.001194 6.575e-4,0.001762 z m -0.003672,-0.0106871 c -2.75e-4,-9.0955e-4 -5.48e-4,-0.001819 -8.22e-4,-0.002729 2.75e-4,9.0955e-4 5.48e-4,0.001819 8.22e-4,0.002729 z m -0.003671,-0.0126767 c 0,0 0,0 0,0 0,0 0,-5.65e-5 0,-5.65e-5 0,0 0,5.65e-5 0,5.65e-5 0,0 0,0 0,0 z m -0.002356,-0.009891 c -2.75e-4,-0.001251 -5.48e-4,-0.002444 -7.675e-4,-0.003695 2.75e-4,0.001251 4.95e-4,0.002444 7.675e-4,0.003695 z m -0.002027,-0.009493 c -2.75e-4,-0.001535 -6.03e-4,-0.003013 -8.765e-4,-0.004548 2.75e-4,0.001535 5.48e-4,0.003013 8.765e-4,0.004548 z m -0.001644,-0.009209 c -2.75e-4,-0.001705 -5.48e-4,-0.003411 -8.22e-4,-0.005116 2.75e-4,0.001705 5.48e-4,0.003411 8.22e-4,0.005116 z m -0.001315,-0.008641 c -2.75e-4,-0.001933 -4.95e-4,-0.003866 -7.12e-4,-0.005798 2.2e-4,0.001933 4.95e-4,0.003866 7.12e-4,0.005798 z m -0.0913974,0.0669647 c 0,0 0,0 0,0 -0.001151,-0.004491 -0.002192,-0.008925 -0.003178,-0.0133589 9.865e-4,0.004434 0.002027,0.008868 0.003178,0.0133589 0,0 0,0 0,0 z m 0.004822,0.0168832 c -2.75e-4,-7.955e-4 -4.95e-4,-0.001649 -7.675e-4,-0.002444 2.75e-4,8.525e-4 4.95e-4,0.001649 7.675e-4,0.002444 z m -0.011452,-0.0478644 c -5.48e-4,-0.003127 -0.001041,-0.006253 -0.001479,-0.009323 4.35e-4,0.003127 9.315e-4,0.006196 0.001479,0.009323 z m 0.003014,0.0156327 c -8.22e-4,-0.003809 -0.001534,-0.007617 -0.002246,-0.0113692 7.125e-4,0.003752 0.001425,0.007561 0.002246,0.0113692 z M 0.10953284,0.5367511 C 0.14027263,0.42283156 0.22103992,0.37815055 0.29747843,0.38144763 v 0 c 0.0763837,0.00324 0.15172633,0.0563345 0.1815894,0.17184567 l 0.0223014,0.0892483 0.0637261,-0.066112 c 0.0157261,-0.0163148 0.0322193,-0.0294463 0.0492056,-0.0399059 0.0440549,0.1264825 0.14542495,0.201633 0.2583019,0.26348155 H 0.18010833 C 0.1232315,0.71706685 0.08377937,0.63247985 0.10958764,0.5367511 Z M 0.31156065,1.2156637 0.93545234,0.83286225 c 0,0 0,0 0,0 z M 1.1846583,1.5004057 C 1.1839457,1.5549211 1.2332063,1.6 1.2942476,1.6 c 0.061041,0 0.111507,-0.045022 0.111507,-0.099594 0,-0.1209116 -0.09074,-0.09607 -0.1152331,-0.2863337 -0.022192,0.190946 -0.1041646,0.1659906 -0.1058084,0.2863337 z"
     id="path4"
     style="fill:#000000;stroke-width:0.0558109" />
  <metadata
     id="metadata12">
    <rdf:RDF>
      <cc:Work
         rdf:about="">
        <dc:title>bleeding-hearts</dc:title>
      </cc:Work>
    </rdf:RDF>
  </metadata>
</svg>
