<svg width="16" height="16" fill="none" xmlns="http://www.w3.org/2000/svg"><path d="m1.322 9.344 5.02 4.687a1.128 1.128 0 0 0 1.539 0l.072-.067a4.889 4.889 0 0 1 6.233-7.117c.025-.18.036-.36.036-.544v-.161a3.97 3.97 0 0 0-6.778-2.809l-.333.334-.333-.334A3.971 3.971 0 0 0 0 6.142v.16c0 1.154.478 2.256 1.322 3.042zM16 11.222a4.001 4.001 0 0 0-8 0 4.001 4.001 0 0 0 8 0zm-2.13-1.202a.446.446 0 0 1 0 .627l-2 2a.446.446 0 0 1-.628 0l-1.111-1.11a.446.446 0 0 1 0-.629.446.446 0 0 1 .627 0l.798.798 1.686-1.686a.446.446 0 0 1 .627 0z" fill="#6E6CFF"/></svg>