<svg width="16" height="16" fill="none" xmlns="http://www.w3.org/2000/svg"><g clip-path="url(#a)"><path d="M11.497 10.305a2.002 2.002 0 0 1-.497.427v.716c2.079.292 3.5.877 3.5 1.552 0 .967-2.91 1.75-6.5 1.75S1.5 13.967 1.5 13c0-.675 1.421-1.26 3.5-1.552v-.716a2 2 0 0 1-.497-.427C1.84 10.792 0 11.815 0 13c0 1.657 3.582 3 8 3s8-1.343 8-3c0-1.186-1.84-2.208-4.503-2.695zM8 4a2 2 0 1 0 0-4 2 2 0 0 0 0 4zm-2 6v3a1 1 0 0 0 1 1h2a1 1 0 0 0 1-1v-3a1 1 0 0 0 1-1V6a1.5 1.5 0 0 0-1.5-1.5h-.369c-.346.157-.727.25-1.131.25s-.785-.093-1.131-.25H6.5A1.5 1.5 0 0 0 5 6v3a1 1 0 0 0 1 1z" fill="#6E6CFF"/></g><defs><clipPath id="a"><path fill="#fff" d="M0 0h16v16H0z"/></clipPath></defs></svg>