<svg width="16" height="16" fill="none" xmlns="http://www.w3.org/2000/svg"><path d="M3.6 6a2 2 0 1 0 .001-3.999A2 2 0 0 0 3.6 6zm9.2 0a2 2 0 1 0 .001-3.999A2 2 0 0 0 12.8 6zM0 9.467C0 9.76.24 10 .532 10h5.353A3.192 3.192 0 0 1 4.85 7.043 2.643 2.643 0 0 0 3.735 6.8H2.668A2.668 2.668 0 0 0 0 9.467zM8 10c.6 0 1.148-.22 1.568-.582.062-.093.13-.183.2-.268.067-.082.142-.152.224-.207A2.403 2.403 0 0 0 8 5.2 2.4 2.4 0 0 0 8 10zm1.635 1.505a1.096 1.096 0 0 1-.52-.705H6.532A3.333 3.333 0 0 0 3.2 14.132c0 .368.297.668.667.668h7.513a1.108 1.108 0 0 1-.08-.41v-.075a2.047 2.047 0 0 1-.1-.057l-.065.037c-.42.242-1.012.2-1.367-.242a4.494 4.494 0 0 1-.31-.44l-.003-.005-.002-.006-.06-.102-.003-.005-.003-.005a4.04 4.04 0 0 1-.225-.482c-.205-.53.055-1.065.475-1.308l.068-.037v-.116l-.068-.037-.002-.005zM13.332 6.8h-1.065c-.397 0-.774.088-1.114.243a3.215 3.215 0 0 1-.195 1.782c.062.023.122.05.177.083l.065.037c.033-.02.065-.04.1-.058v-.075c0-.484.332-.977.895-1.064.197-.03.4-.048.605-.048.205 0 .407.015.605.047.563.088.895.58.895 1.066v.074l.1.058.065-.037c.42-.243 1.012-.2 1.367.242.058.07.113.145.165.217A2.666 2.666 0 0 0 13.332 6.8zm2.283 4.098a.367.367 0 0 0 .17-.45 3.194 3.194 0 0 0-.185-.398l-.057-.1a3.368 3.368 0 0 0-.255-.362.368.368 0 0 0-.476-.075l-.452.262a2.401 2.401 0 0 0-.76-.44V8.81a.368.368 0 0 0-.303-.373 3.26 3.26 0 0 0-.995 0A.368.368 0 0 0 12 8.81v.525c-.28.1-.537.25-.76.44l-.455-.263a.373.373 0 0 0-.475.075 3.4 3.4 0 0 0-.255.366l-.057.097c-.07.127-.133.26-.185.397a.367.367 0 0 0 .17.448l.454.263a2.497 2.497 0 0 0 0 .877l-.454.262a.365.365 0 0 0-.17.448c.052.138.114.268.184.395l.06.102c.075.128.16.248.253.363a.368.368 0 0 0 .475.075l.455-.255c.223.19.48.34.76.44v.525c0 .182.123.345.303.372a3.26 3.26 0 0 0 .994 0 .368.368 0 0 0 .303-.372v-.525c.28-.1.537-.25.76-.44l.455.262c.158.09.36.066.475-.074a3.03 3.03 0 0 0 .253-.363l.06-.105a3.16 3.16 0 0 0 .184-.395.367.367 0 0 0-.17-.447l-.455-.263c.025-.142.04-.29.04-.438 0-.147-.014-.297-.04-.44l.455-.262-.002-.002zM13.8 11.6a1 1 0 1 1-2 0 1 1 0 0 1 2 0z" fill="#6E6CFF"/></svg>