<svg width="16" height="16" fill="none" xmlns="http://www.w3.org/2000/svg"><g clip-path="url(#a)"><path d="M4.569 3.716c0 .946-.77 1.715-1.716 1.715s-1.716-.77-1.716-1.715c0-.947.77-1.716 1.716-1.716s1.716.77 1.716 1.716zM.116 8.256A2.143 2.143 0 0 1 2.253 6.29h1.2c.724 0 1.368.36 1.756.914-.072.051-.139.107-.2.17L3.292 9.087a1.5 1.5 0 0 0 0 2.123l1.276 1.276v1.951c0 .71-.577 1.287-1.287 1.287h-.858c-.71 0-1.287-.576-1.287-1.287v-3.101a1.715 1.715 0 0 1-1.13-1.759l.11-1.321zm14.747-4.54c0 .946-.77 1.715-1.716 1.715s-1.716-.77-1.716-1.715c0-.947.77-1.716 1.716-1.716s1.716.77 1.716 1.716zm-3.871 3.656a1.724 1.724 0 0 0-.201-.169 2.144 2.144 0 0 1 1.755-.914h1.201c1.116 0 2.046.855 2.137 1.968l.11 1.321a1.715 1.715 0 0 1-1.131 1.759v3.101c0 .71-.577 1.287-1.287 1.287h-.858c-.71 0-1.287-.576-1.287-1.287v-1.951l1.276-1.276a1.5 1.5 0 0 0 0-2.123l-1.715-1.716zM6.713 8.434v.858h2.574v-.858a.642.642 0 0 1 1.099-.456l1.716 1.716a.64.64 0 0 1 0 .908l-1.716 1.716a.644.644 0 0 1-1.1-.456v-.855H6.714v.858a.642.642 0 0 1-1.099.456L3.9 10.605a.64.64 0 0 1 0-.909l1.715-1.715a.644.644 0 0 1 1.1.455v-.002z" fill="#6E6CFF"/></g><defs><clipPath id="a"><path fill="#fff" d="M0 0h16v16H0z"/></clipPath></defs></svg>