<svg width="39" height="39" viewBox="0 0 39 39" fill="none" xmlns="http://www.w3.org/2000/svg">
<path d="M4.87121 38.805C4.55466 38.7163 4.22545 38.6403 3.92156 38.5391C1.68037 37.754 0.464798 35.3735 1.12323 33.107C1.78165 30.8405 4.08612 29.4857 6.40328 30.0175C6.63119 30.0681 6.75784 30.0301 6.8718 29.8149C10.6198 23.0787 14.3677 16.3424 18.1157 9.61886C18.1537 9.55555 18.1791 9.49224 18.2297 9.39094C17.0015 8.82115 16.1278 7.90948 15.7099 6.61794C15.4187 5.70627 15.4187 4.7946 15.7226 3.88293C16.343 2.02161 18.0904 0.768062 20.0404 0.818711C21.965 0.856697 23.6871 2.17355 24.2315 4.02222C24.852 6.14945 24.0289 7.88415 21.6864 9.41626C21.7371 9.51756 21.7877 9.63152 21.851 9.73282C25.561 16.4057 29.2837 23.066 32.981 29.7389C33.133 30.0048 33.2596 30.0681 33.5508 29.9921C35.9693 29.435 38.4131 31.0684 38.8689 33.5122C38.8816 33.5882 38.9195 33.6642 38.9448 33.7528C38.9448 34.12 38.9448 34.4998 38.9448 34.867C38.9195 34.9304 38.8942 35.0063 38.8815 35.0696C38.527 36.8677 37.4634 38.0452 35.716 38.615C35.4881 38.691 35.2475 38.7416 35.0196 38.805C34.7537 38.805 34.4751 38.805 34.2092 38.805C34.1586 38.7923 34.1206 38.767 34.0699 38.7543C32.12 38.5011 30.8538 37.4375 30.246 35.5761C30.17 35.3482 30.0434 35.3102 29.8408 35.3102C28.1061 35.3102 26.3588 35.3229 24.6241 35.3102C24.3582 35.3102 24.2695 35.4115 24.1935 35.6394C23.801 36.9183 22.9907 37.8426 21.7751 38.3744C21.2939 38.577 20.7621 38.6657 20.2556 38.805C20.0531 38.805 19.8631 38.805 19.6605 38.805C19.5845 38.7796 19.5212 38.7543 19.4452 38.7543C18.4829 38.653 17.6472 38.2605 16.9382 37.6021C16.305 37.0196 15.8998 36.2979 15.6466 35.4748C13.6713 35.4748 11.7087 35.4748 9.74612 35.4748C9.70813 35.5635 9.67011 35.6394 9.64478 35.7281C9.20161 37.0196 8.3659 37.9439 7.09969 38.4504C6.65652 38.6277 6.17537 38.691 5.71954 38.8176C5.41565 38.805 5.14978 38.805 4.87121 38.805ZM18.8121 13.0629C18.7868 13.0629 18.7741 13.0629 18.7488 13.0503C18.6728 13.1769 18.6096 13.3035 18.5336 13.4301C16.7229 16.6716 14.9122 19.9258 13.1142 23.1673C11.6707 25.763 10.2273 28.3461 8.79646 30.9418C8.73315 31.0558 8.68245 31.2584 8.74576 31.3596C9.08764 31.9674 9.46754 32.5499 9.86006 33.2083C11.6961 33.2083 13.646 33.2083 15.6213 33.2083C16.1151 31.5749 17.1787 30.4986 18.8121 30.0048C18.8121 24.3449 18.8121 18.7102 18.8121 13.0629ZM21.1293 13.0503C21.104 13.0629 21.0913 13.0629 21.066 13.0756C21.066 18.7229 21.066 24.3702 21.066 30.0048C21.0913 30.0301 21.104 30.0428 21.1293 30.0555C22.5981 30.524 23.6237 31.4736 24.1682 32.9171C24.2062 33.0057 24.3581 33.0944 24.4721 33.0944C26.2954 33.107 28.1314 33.107 29.9547 33.0944C30.0687 33.0944 30.2207 32.9677 30.284 32.8664C30.5372 32.4613 30.7018 31.9928 30.9931 31.6256C31.221 31.3343 31.2083 31.1444 31.0437 30.8532C28.448 26.2188 25.8776 21.5845 23.2945 16.9502C22.5728 15.6333 21.8511 14.3418 21.1293 13.0503ZM19.9391 7.49163C21.1547 7.49163 22.155 6.49132 22.155 5.27576C22.155 4.0602 21.1547 3.0599 19.9391 3.04724C18.7235 3.03457 17.6979 4.07287 17.6979 5.28843C17.7232 6.50399 18.7235 7.49163 19.9391 7.49163ZM5.39031 32.1194C4.17475 32.1194 3.17445 33.1323 3.17445 34.3352C3.17445 35.5381 4.18741 36.5511 5.39031 36.5638C6.60587 36.5638 7.63151 35.5381 7.61885 34.3099C7.60619 33.0944 6.60587 32.1067 5.39031 32.1194ZM17.7106 34.2973C17.6852 35.5128 18.6982 36.5511 19.9137 36.5638C21.104 36.5764 22.117 35.5888 22.155 34.3985C22.1929 33.183 21.218 32.1574 20.0024 32.1194C18.7615 32.0814 17.7359 33.0564 17.7106 34.2973ZM34.4878 32.1194C33.2723 32.1194 32.2593 33.107 32.2593 34.3226C32.2466 35.5508 33.2723 36.5764 34.4878 36.5638C35.6907 36.5511 36.7037 35.5381 36.7037 34.3352C36.7037 33.1197 35.7034 32.1194 34.4878 32.1194Z" fill="white"/>
</svg>
