<?xml version="1.0" encoding="UTF-8" standalone="no"?>
<svg
   width="40"
   height="40"
   viewBox="0 0 40 40"
   fill="none"
   version="1.1"
   id="svg8"
   sodipodi:docname="Sozialarbeit.svg"
   inkscape:version="1.2.2 (732a01da63, 2022-12-09)"
   xmlns:inkscape="http://www.inkscape.org/namespaces/inkscape"
   xmlns:sodipodi="http://sodipodi.sourceforge.net/DTD/sodipodi-0.dtd"
   xmlns="http://www.w3.org/2000/svg"
   xmlns:svg="http://www.w3.org/2000/svg">
  <defs
     id="defs12" />
  <sodipodi:namedview
     id="namedview10"
     pagecolor="#ffffff"
     bordercolor="#000000"
     borderopacity="0.25"
     inkscape:showpageshadow="2"
     inkscape:pageopacity="0.0"
     inkscape:pagecheckerboard="0"
     inkscape:deskcolor="#d1d1d1"
     showgrid="false"
     inkscape:zoom="15.356909"
     inkscape:cx="23.474776"
     inkscape:cy="21.097996"
     inkscape:window-width="1920"
     inkscape:window-height="1027"
     inkscape:window-x="-8"
     inkscape:window-y="-8"
     inkscape:window-maximized="1"
     inkscape:current-layer="svg8" />
  <path
     d="M 0,12.574391 C 0.0533257,12.374377 0.1066575,12.174259 0.17331462,11.987517 0.69323994,10.386779 2.3463384,9.3196526 3.9727662,9.546429 c 1.7864074,0.2534765 3.1195498,1.680743 3.1328867,3.441575 0.026663,2.521072 0.013305,5.05552 0.013305,7.576697 0,0.146719 0,0.280061 0,0.466803 0.2266326,-0.02665 0.4132754,-0.06667 0.5999183,-0.08005 1.8130707,-0.15999 3.4395298,0.320189 4.7726938,1.587361 1.666428,1.600737 3.292856,3.228122 4.905915,4.868883 0.959899,0.973734 1.426427,2.187611 1.426427,3.561583 0,2.481048 -0.01326,4.975578 0.01337,7.456626 0.01337,0.720321 -0.2,1.267277 -0.866529,1.57409 -3.172856,0 -6.35908,0 -9.531956,0 -0.6932345,-0.253516 -0.9598672,-0.773718 -0.9332039,-1.49404 0.026663,-0.680297 -2.1e-5,-1.360595 0.013316,-2.027621 C 7.5322351,36.211651 7.4389401,36.024804 7.2389605,35.838062 5.5058796,34.13063 3.7727988,32.423303 2.0397179,30.715871 1.1331772,29.822078 0.5065957,28.75492 0.19997337,27.514396 0.13331445,27.220959 0.06665733,26.940793 0,26.647356 0,21.951944 0,17.256532 0,12.574391 Z m 6.7190197,11.058338 c 0.1333164,0.146718 0.2133062,0.240036 0.3066329,0.33346 1.2931422,1.293924 2.5996108,2.60112 3.8927524,3.895044 0.546634,0.560226 0.586634,1.280547 0.09337,1.774103 -0.479897,0.480179 -1.2131836,0.440155 -1.7731017,-0.120071 -1.6797543,-1.68068 -3.3728666,-3.361464 -5.052621,-5.05552 -0.6132447,-0.613627 -0.5999078,-1.307301 0.04,-1.894175 0.1199794,-0.106694 0.2533063,-0.186742 0.346633,-0.306813 0.07999,-0.106695 0.1599796,-0.240142 0.173306,-0.360213 0.013337,-2.93458 0.013337,-5.855889 0,-8.790574 0,-0.626898 -0.4666125,-1.13383 -1.0531939,-1.213877 -0.5999183,-0.08005 -1.1731522,0.32019 -1.3197949,0.92044 -0.04,0.173471 -0.04,0.360213 -0.04,0.546955 0,4.095162 0.013316,8.203595 -0.013347,12.298757 0,1.400619 0.4666019,2.547825 1.4664587,3.521559 1.8263971,1.774103 3.6261624,3.58823 5.4525595,5.362439 0.4266123,0.413508 0.6399079,0.853663 0.5999183,1.453913 -0.04,0.546956 -0.013347,1.107182 -0.013347,1.654033 2.239693,0 4.426018,0 6.612343,0 0,-2.347706 0.01337,-4.655389 -0.01326,-6.976342 0,-0.586979 -0.253369,-1.120559 -0.666634,-1.547443 -1.639691,-1.654032 -3.266119,-3.32144 -4.972547,-4.908802 -1.1332155,-1.107182 -2.5330108,-1.2005 -4.0661225,-0.586873 z"
     fill="white"
     id="path2"
     style="fill:#000000;stroke-width:1.05295" />
  <path
     d="m 22.036662,39.999895 c -0.679897,-0.306708 -0.879898,-0.853664 -0.86653,-1.573985 0.02663,-2.454401 0.01337,-4.895531 0.01337,-7.349932 0,-1.507313 0.519897,-2.787861 1.586427,-3.855019 1.519796,-1.507314 3.026223,-3.014733 4.546019,-4.50867 1.466427,-1.440643 3.239487,-2.014246 5.27918,-1.720809 0.08,0.01338 0.160001,0.01338 0.29337,0.02665 0,-0.146719 0,-0.280061 0,-0.413508 0,-2.507696 -0.01337,-5.028873 0,-7.536674 0.01326,-1.974222 1.613059,-3.5482065 3.572751,-3.5348722 1.959693,0.013345 3.519489,1.5740272 3.532857,3.5748962 0.01326,2.854638 0,5.709275 0,8.550537 0,1.373866 0,2.734461 0,4.108433 0,1.947574 -0.679897,3.601606 -2.066429,4.975578 -1.706429,1.680679 -3.399488,3.374841 -5.11918,5.042249 -0.240001,0.240037 -0.346633,0.480179 -0.333264,0.81364 0.02663,0.640274 -0.01337,1.280547 0.01326,1.90755 0.02674,0.720322 -0.239896,1.240524 -0.933162,1.493938 -3.172855,0 -6.345816,0 -9.518671,0 z M 33.328393,23.766071 c -0.02663,-0.0534 -0.06674,-0.09342 -0.09337,-0.146719 -0.146633,-0.06667 -0.293265,-0.133447 -0.453266,-0.173471 -1.453058,-0.413508 -2.732958,-0.119966 -3.812752,0.947087 -1.519796,1.494043 -3.026223,3.014733 -4.546019,4.50867 -0.613161,0.613627 -0.90653,1.333948 -0.90653,2.200988 0.01337,2.040893 0,4.081891 0,6.136055 0,0.133447 0,0.280165 0,0.400237 2.239693,0 4.412755,0 6.625712,0 0,-0.627003 0.01337,-1.213877 0,-1.814127 -0.01326,-0.480285 0.16,-0.840393 0.493265,-1.173853 1.839692,-1.800856 3.652857,-3.62836 5.505917,-5.42911 1.026531,-1.000487 1.533059,-2.187611 1.519691,-3.628254 -0.02663,-2.094293 -0.01326,-4.188586 -0.01326,-6.282773 0,-2.040998 0,-4.081891 0,-6.136055 0,-0.546955 -0.226633,-0.960463 -0.719898,-1.187229 -0.813267,-0.386861 -1.693165,0.240142 -1.693165,1.2005 0,2.787967 1.05e-4,5.575828 -0.01326,8.36369 0,0.400237 0.09326,0.667026 0.413265,0.92044 0.813161,0.666921 0.813161,1.347324 0.08,2.080916 -1.639796,1.654138 -3.292856,3.294793 -4.946021,4.948931 -0.08,0.07994 -0.159895,0.173366 -0.253264,0.240037 -0.413265,0.293437 -0.853266,0.320189 -1.279795,0.08005 -0.440001,-0.240142 -0.666529,-0.65365 -0.559897,-1.147206 0.06663,-0.293437 0.239896,-0.613521 0.453265,-0.827016 1.266427,-1.293924 2.546327,-2.574472 3.826122,-3.841643 0.09337,-0.120071 0.239895,-0.173471 0.373264,-0.240142 z"
     fill="white"
     id="path4"
     style="fill:#000000;stroke-width:1.05295" />
  <path
     d="m 22.516875,8.6526998 c 1.146531,0.4802107 2.093061,1.1338293 2.866222,2.0542692 1.026531,1.227148 1.586533,2.654519 1.639796,4.255151 0.04,1.253901 0.01326,2.49453 0.01326,3.748325 0,0.707051 -0.506529,1.200606 -1.213058,1.200606 -3.87949,0 -7.75898,0 -11.638364,0 -0.639898,0 -1.186531,-0.440261 -1.186531,-1.053782 -0.01326,-1.494043 -0.09326,-3.001356 0.06674,-4.482023 0.279896,-2.627871 1.759691,-4.4686458 4.146017,-5.589162 0.08,-0.040013 0.160001,-0.080026 0.280001,-0.1333842 -1.453164,-1.0404688 -2.226325,-2.4144087 -2.159693,-4.188533 0.05326,-1.2939031 0.586529,-2.3877298 1.546427,-3.2547801 1.946429,-1.774118 4.959284,-1.57403004 6.692344,0.4535423 1.679796,1.9475217 1.559796,5.1489438 -1.053162,6.9897708 z m 2.173061,8.9106452 c 0,-0.840392 0.01337,-1.640761 0,-2.44113 -0.04,-2.347706 -1.839797,-4.281904 -4.212754,-4.561965 -2.239694,-0.253518 -4.506019,1.267172 -4.959284,3.494807 -0.226632,1.120558 -0.133264,2.294411 -0.173264,3.454888 0,0.01338 0.02663,0.04002 0.05326,0.06667 3.066223,-0.01327 6.145815,-0.01327 9.292038,-0.01327 z M 22.343611,4.6775984 c 0,-1.2805688 -1.053162,-2.3343718 -2.333063,-2.3343718 -1.279794,0 -2.346325,1.0404582 -2.346325,2.3210271 -0.01326,1.3072478 1.053162,2.3610508 2.359694,2.3610508 1.266426,-0.013334 2.319694,-1.0671372 2.319694,-2.3477061 z"
     fill="white"
     id="path6"
     style="fill:#000000;stroke-width:1.05295" />
</svg>
