<?xml version="1.0" encoding="UTF-8" standalone="no"?>
<svg
   width="40"
   height="40"
   viewBox="0 0 40 40"
   fill="none"
   version="1.1"
   id="svg4"
   sodipodi:docname="Soziologie.svg"
   inkscape:version="1.2.2 (732a01da63, 2022-12-09)"
   xmlns:inkscape="http://www.inkscape.org/namespaces/inkscape"
   xmlns:sodipodi="http://sodipodi.sourceforge.net/DTD/sodipodi-0.dtd"
   xmlns="http://www.w3.org/2000/svg"
   xmlns:svg="http://www.w3.org/2000/svg">
  <defs
     id="defs8" />
  <sodipodi:namedview
     id="namedview6"
     pagecolor="#ffffff"
     bordercolor="#000000"
     borderopacity="0.25"
     inkscape:showpageshadow="2"
     inkscape:pageopacity="0.0"
     inkscape:pagecheckerboard="0"
     inkscape:deskcolor="#d1d1d1"
     showgrid="false"
     inkscape:zoom="21.717949"
     inkscape:cx="14.941558"
     inkscape:cy="19.523022"
     inkscape:window-width="1920"
     inkscape:window-height="1027"
     inkscape:window-x="-8"
     inkscape:window-y="-8"
     inkscape:window-maximized="1"
     inkscape:current-layer="svg4" />
  <path
     d="M 4.133038,39.986737 C 3.7998272,39.893369 3.4532901,39.81337 3.1334057,39.706845 0.77425669,38.880432 -0.5052937,36.374667 0.18779311,33.9889 0.88086729,31.603134 3.3066269,30.177043 5.7457444,30.736827 5.9856498,30.790089 6.1189657,30.75009 6.2389237,30.523566 10.18419,23.432898 14.12935,16.342124 18.074616,9.2647831 c 0.04,-0.066642 0.06674,-0.1332829 0.12,-0.2399135 -1.292843,-0.5997731 -2.212528,-1.5594164 -2.652423,-2.918919 -0.306526,-0.9596433 -0.306526,-1.9192866 0.01337,-2.8789299 0.653053,-1.9592652 2.492422,-3.27877665 4.545055,-3.22546243 2.025897,0.03998487 3.838635,1.42613253 4.411688,3.37208203 0.653158,2.2391677 -0.213264,4.06515 -2.679055,5.6778817 0.05337,0.1066305 0.106632,0.2265873 0.173264,0.3332178 3.905265,7.0240152 7.8239,14.0347892 11.715797,21.0588262 0.16,0.279893 0.293264,0.346523 0.59979,0.266524 2.545792,-0.586415 5.118214,1.132937 5.598004,3.705333 0.01337,0.08 0.05326,0.159998 0.0799,0.25326 0,0.386523 0,0.786309 0,1.172831 -0.02663,0.06674 -0.05326,0.14663 -0.06663,0.213261 -0.373158,1.892719 -1.492738,3.13218 -3.332107,3.731964 -0.239895,0.08 -0.493159,0.133262 -0.733053,0.199998 -0.279895,0 -0.573159,0 -0.853054,0 -0.05326,-0.01337 -0.09326,-0.04 -0.146631,-0.05337 -2.052528,-0.266524 -3.385371,-1.386092 -4.025161,-3.345441 -0.08,-0.239893 -0.213263,-0.279892 -0.426527,-0.279892 -1.826001,0 -3.665265,0.01337 -5.491267,0 -0.279895,0 -0.373263,0.10663 -0.453263,0.346523 -0.413158,1.346197 -1.266106,2.319135 -2.545686,2.878919 -0.506527,0.213261 -1.066317,0.306629 -1.599475,0.453259 -0.213158,0 -0.413158,0 -0.626422,0 -0.08,-0.02674 -0.146631,-0.05337 -0.226631,-0.05337 -1.012948,-0.10663 -1.892633,-0.519784 -2.63895,-1.21283 -0.666526,-0.613152 -1.093053,-1.372829 -1.359579,-2.239242 -2.079265,0 -4.145161,0 -6.2110362,0 -0.039989,0.09337 -0.080011,0.173262 -0.1066737,0.266629 C 8.691365,38.107387 7.8116697,39.080325 6.4788161,39.613477 6.012321,39.800107 5.505847,39.866738 5.0260256,40 4.7061411,39.986737 4.4262778,39.986737 4.133046,39.986737 Z M 18.807669,12.890053 c -0.02663,0 -0.04,0 -0.06663,-0.01326 -0.08,0.133262 -0.146527,0.266523 -0.226527,0.399785 -1.906001,3.412072 -3.812003,6.837513 -5.704636,10.249585 -1.519474,2.732289 -3.0388435,5.451315 -4.544992,8.183605 -0.066642,0.119999 -0.1200106,0.33326 -0.053368,0.439785 0.3598739,0.639783 0.7597689,1.252935 1.1729482,1.945981 1.9326748,0 3.9852018,0 6.0644668,0 0.51979,-1.719352 1.63937,-2.852288 3.358739,-3.372072 0,-5.957732 0,-11.888938 -1e-6,-17.833406 z m 2.43916,-0.01326 c -0.02663,0.01326 -0.04,0.01326 -0.06663,0.02663 0,5.944469 0,11.888937 0,17.820038 0.02663,0.02663 0.04,0.04 0.06663,0.05337 1.546106,0.493154 2.625686,1.492723 3.198844,3.012182 0.04,0.09326 0.199895,0.186629 0.319895,0.186629 1.919265,0.01326 3.851898,0.01326 5.771162,0 0.12,0 0.28,-0.133367 0.346632,-0.239997 0.266526,-0.426417 0.43979,-0.91957 0.746422,-1.306093 0.239894,-0.306628 0.226526,-0.506521 0.05326,-0.813045 C 28.950726,26.738234 26.24504,21.860071 23.525985,16.981908 22.766301,15.595711 22.006616,14.23625 21.246826,12.87679 Z M 19.993986,7.0256154 c 1.27958,0 2.332528,-1.0529477 2.332528,-2.3324721 0,-1.2795244 -1.052948,-2.3324616 -2.332528,-2.3457878 -1.27958,-0.013337 -2.35916,1.0796001 -2.35916,2.3591245 0.02663,1.2795244 1.07958,2.3191354 2.35916,2.3191354 z M 4.6794594,32.949332 c -1.2795377,0 -2.3324858,1.0662 -2.3324858,2.332398 0,1.266198 1.0662744,2.332504 2.3324858,2.345872 1.2795378,0 2.3591596,-1.079674 2.3458333,-2.372503 -0.013326,-1.279462 -1.0662955,-2.319136 -2.3458333,-2.305767 z m 12.9687356,2.292504 c -0.02674,1.279461 1.039579,2.372398 2.319054,2.385766 1.252948,0.01326 2.319265,-1.026306 2.359265,-2.279241 0.0399,-1.279461 -0.986317,-2.35903 -2.265897,-2.399029 -1.306211,-0.04 -2.385791,0.986306 -2.412422,2.292504 z m 17.660223,-2.292504 c -1.279475,0 -2.345791,1.039568 -2.345791,2.319135 -0.01337,1.29283 1.066316,2.372398 2.345791,2.359135 1.266211,-0.01337 2.332528,-1.079674 2.332528,-2.345872 0,-1.279461 -1.052948,-2.332398 -2.332528,-2.332398 z"
     fill="white"
     id="path2"
     style="fill:#000000;stroke-width:1.05263" />
</svg>
