<svg width="39" height="39" viewBox="0 0 39 39" fill="none" xmlns="http://www.w3.org/2000/svg">
<path d="M0.0517578 12.6593C0.102417 12.4694 0.153082 12.2794 0.216406 12.1021C0.710333 10.5823 2.28077 9.56913 3.82587 9.78444C5.52295 10.0251 6.78943 11.3802 6.8021 13.052C6.82743 15.4456 6.81474 17.8519 6.81474 20.2456C6.81474 20.3849 6.81474 20.5115 6.81474 20.6888C7.03004 20.6635 7.20735 20.6255 7.38466 20.6128C9.10707 20.4609 10.6522 20.9168 11.9187 22.1199C13.5018 23.6397 15.0469 25.1848 16.5793 26.7426C17.4912 27.6671 17.9344 28.8196 17.9344 30.1241C17.9344 32.4797 17.9218 34.8481 17.9471 37.2037C17.9598 37.8876 17.7571 38.4069 17.1239 38.6982C14.1097 38.6982 11.0828 38.6982 8.06858 38.6982C7.41001 38.4575 7.15671 37.9636 7.18204 37.2797C7.20737 36.6338 7.18202 35.9879 7.19469 35.3546C7.20735 35.1014 7.11872 34.924 6.92874 34.7467C5.28232 33.1256 3.6359 31.5046 1.98948 29.8835C1.12827 29.0349 0.53302 28.0217 0.24173 26.8439C0.178406 26.5653 0.115082 26.2993 0.0517578 26.0207C0.0517578 21.5627 0.0517578 17.1047 0.0517578 12.6593ZM6.4348 23.1585C6.56145 23.2978 6.63744 23.3864 6.7261 23.4751C7.95458 24.7036 9.19572 25.9447 10.4242 27.1732C10.9435 27.7051 10.9815 28.389 10.5129 28.8576C10.057 29.3135 9.36038 29.2755 8.82846 28.7436C7.2327 27.1479 5.62425 25.5521 4.02849 23.9437C3.44591 23.3611 3.45858 22.7025 4.06649 22.1453C4.18047 22.044 4.30713 21.968 4.39579 21.854C4.47178 21.7527 4.54777 21.626 4.56043 21.512C4.5731 18.7258 4.5731 15.9522 4.56043 13.1659C4.56043 12.5707 4.11715 12.0894 3.5599 12.0134C2.98998 11.9374 2.44541 12.3174 2.3061 12.8873C2.2681 13.052 2.2681 13.2293 2.2681 13.4066C2.2681 17.2947 2.28075 21.1954 2.25542 25.0835C2.25542 26.4133 2.69869 27.5025 3.64855 28.427C5.38362 30.1114 7.09339 31.8338 8.82846 33.5183C9.23374 33.9109 9.43637 34.3288 9.39838 34.8987C9.36038 35.418 9.3857 35.9499 9.3857 36.4691C11.5134 36.4691 13.5904 36.4691 15.6674 36.4691C15.6674 34.2401 15.6801 32.0491 15.6548 29.8455C15.6548 29.2882 15.4141 28.7816 15.0215 28.3763C13.4638 26.8059 11.9187 25.2228 10.2976 23.7157C9.22105 22.6645 7.89125 22.5759 6.4348 23.1585Z" fill="white"/>
<path d="M20.9865 38.6981C20.3406 38.4069 20.1506 37.8876 20.1633 37.2037C20.1886 34.8734 20.176 32.5557 20.176 30.2254C20.176 28.7943 20.6699 27.5785 21.6831 26.5653C23.1269 25.1342 24.558 23.703 26.0018 22.2846C27.3949 20.9168 29.0793 20.3722 31.017 20.6508C31.093 20.6635 31.169 20.6635 31.2957 20.6761C31.2957 20.5368 31.2957 20.4102 31.2957 20.2835C31.2957 17.9026 31.283 15.5089 31.2957 13.1279C31.3083 11.2535 32.8281 9.7591 34.6898 9.77176C36.5515 9.78443 38.0333 11.2662 38.046 13.1659C38.0586 15.8762 38.046 18.5865 38.046 21.2841C38.046 22.5885 38.046 23.8803 38.046 25.1848C38.046 27.0339 37.4001 28.6043 36.0829 29.9088C34.4618 31.5045 32.8534 33.113 31.2197 34.6961C30.9917 34.924 30.8904 35.152 30.9031 35.4686C30.9284 36.0765 30.8904 36.6844 30.9157 37.2797C30.9411 37.9636 30.6878 38.4575 30.0292 38.6981C27.015 38.6981 24.0007 38.6981 20.9865 38.6981ZM31.7136 23.2851C31.6883 23.2344 31.6502 23.1964 31.6249 23.1458C31.4856 23.0825 31.3463 23.0191 31.1943 22.9811C29.8139 22.5885 28.598 22.8672 27.5722 23.8803C26.1284 25.2988 24.6973 26.7426 23.2535 28.161C22.671 28.7436 22.3923 29.4275 22.3923 30.2507C22.405 32.1884 22.3923 34.1262 22.3923 36.0765C22.3923 36.2032 22.3923 36.3425 22.3923 36.4565C24.52 36.4565 26.5844 36.4565 28.6867 36.4565C28.6867 35.8612 28.6994 35.304 28.6867 34.7341C28.6741 34.2781 28.8387 33.9362 29.1553 33.6196C30.903 31.9098 32.6255 30.1747 34.3859 28.465C35.3611 27.5151 35.8423 26.388 35.8296 25.0202C35.8043 23.0318 35.817 21.0434 35.817 19.0551C35.817 17.1173 35.817 15.1796 35.817 13.2293C35.817 12.71 35.6017 12.3174 35.1331 12.1021C34.3605 11.7348 33.5246 12.3301 33.5246 13.2419C33.5246 15.8889 33.5247 18.5358 33.512 21.1827C33.512 21.5627 33.6006 21.816 33.9046 22.0566C34.6771 22.6898 34.6771 23.3358 33.9806 24.0323C32.4228 25.6028 30.8524 27.1605 29.2819 28.731C29.2059 28.8069 29.13 28.8956 29.0413 28.9589C28.6487 29.2375 28.2307 29.2629 27.8255 29.0349C27.4075 28.8069 27.1923 28.4143 27.2936 27.9457C27.3569 27.6671 27.5215 27.3632 27.7242 27.1605C28.9273 25.932 30.1432 24.7162 31.359 23.5131C31.4477 23.3991 31.5869 23.3484 31.7136 23.2851Z" fill="white"/>
<path d="M21.4427 8.9359C22.5319 9.39183 23.4311 10.0124 24.1656 10.8863C25.1408 12.0514 25.6728 13.4066 25.7234 14.9263C25.7614 16.1168 25.736 17.2947 25.736 18.4851C25.736 19.1564 25.2548 19.625 24.5836 19.625C20.8981 19.625 17.2126 19.625 13.5272 19.625C12.9193 19.625 12.4 19.207 12.4 18.6245C12.3874 17.206 12.3114 15.7749 12.4634 14.3691C12.7293 11.8741 14.1351 10.1264 16.4021 9.06254C16.4781 9.02455 16.5541 8.98656 16.6681 8.9359C15.2876 7.94804 14.5531 6.64357 14.6164 4.95915C14.667 3.73067 15.1736 2.69215 16.0855 1.86894C17.9346 0.184526 20.7968 0.374497 22.4432 2.29955C24.039 4.1486 23.925 7.18815 21.4427 8.9359ZM23.5071 17.396C23.5071 16.5981 23.5198 15.8382 23.5071 15.0783C23.4691 12.8493 21.7593 11.0129 19.505 10.747C17.3773 10.5063 15.2243 11.9501 14.7937 14.0651C14.5784 15.129 14.6671 16.2435 14.6291 17.3453C14.6291 17.358 14.6544 17.3833 14.6797 17.4086C17.5926 17.396 20.5182 17.396 23.5071 17.396ZM21.2781 5.16179C21.2781 3.94597 20.2776 2.94545 19.0617 2.94545C17.8459 2.94545 16.8327 3.9333 16.8327 5.14912C16.8201 6.39027 17.8332 7.39079 19.0744 7.39079C20.2775 7.37813 21.2781 6.37761 21.2781 5.16179Z" fill="white"/>
</svg>
