<?xml version="1.0" encoding="UTF-8" standalone="no"?>
<!-- Uploaded to: SVG Repo, www.svgrepo.com, Generator: SVG Repo Mixer Tools -->

<svg
   fill="#000000"
   height="40"
   width="40"
   version="1.1"
   id="Capa_1"
   viewBox="0 0 16.34225 16.34225"
   xml:space="preserve"
   sodipodi:docname="Sport.svg"
   inkscape:version="1.2.2 (732a01da63, 2022-12-09)"
   xmlns:inkscape="http://www.inkscape.org/namespaces/inkscape"
   xmlns:sodipodi="http://sodipodi.sourceforge.net/DTD/sodipodi-0.dtd"
   xmlns="http://www.w3.org/2000/svg"
   xmlns:svg="http://www.w3.org/2000/svg"><defs
   id="defs7" /><sodipodi:namedview
   id="namedview5"
   pagecolor="#ffffff"
   bordercolor="#000000"
   borderopacity="0.25"
   inkscape:showpageshadow="2"
   inkscape:pageopacity="0.0"
   inkscape:pagecheckerboard="0"
   inkscape:deskcolor="#d1d1d1"
   showgrid="false"
   inkscape:zoom="8.47"
   inkscape:cx="16.469894"
   inkscape:cy="26.800472"
   inkscape:window-width="1920"
   inkscape:window-height="1027"
   inkscape:window-x="-8"
   inkscape:window-y="-8"
   inkscape:window-maximized="1"
   inkscape:current-layer="Capa_1" />
<path
   d="m 13.234675,16.34225 h -1.90395 c -0.2209,0 -0.4,-0.1791 -0.4,-0.4 v -1.5232 h -5.51915 v 1.5232 c 0,0.2209 -0.1791,0.4 -0.4,0.4 h -1.90395 c -0.2209,0 -0.4,-0.1791 -0.4,-0.4 V 15.5953 h -1.5039 c -0.2209,0 -0.4,-0.1791 -0.4,-0.4 v -3.9938 c 0,-0.2209 0.1791,-0.4 0.4,-0.4 h 1.50385 v -0.3469 c 0,-0.2209 0.1791,-0.4 0.4,-0.4 h 1.90395 c 0.2209,0 0.4,0.1791 0.4,0.4 v 1.5232 h 5.5192 v -1.5232 c 0,-0.2209 0.1791,-0.4 0.4,-0.4 h 1.90395 c 0.2209,0 0.4,0.1791 0.4,0.4 v 0.3469 h 1.50385 c 0.2209,0 0.4,0.1791 0.4,0.4 v 3.99375 c 0,0.2209 -0.1791,0.4 -0.4,0.4 h -1.50385 v 0.34695 c 0,0.22095 -0.17905,0.40005 -0.4,0.40005 z m -1.5039,-0.8 h 1.10395 V 10.8546 h -1.10395 z m -8.22315,0 h 1.10395 V 10.8546 h -1.10395 z m 10.12705,-0.747 h 1.10385 V 11.6015 h -1.10385 z m -12.03095,0 h 1.10385 V 11.6015 h -1.10385 z m 3.80785,-1.1762 h 5.5192 V 12.7778 h -5.5192 z m 1.8606,-2.45025 c -0.06655,0 -0.134,-0.0166 -0.1961,-0.0516 -0.19245,-0.1085 -0.26045,-0.3525 -0.152,-0.5449 0.71365,-1.2656 1.67715,-2.3356 2.8107,-3.15905 C 9.240075,6.7281 8.674925,6.1046 8.050725,5.5519 c -1.55095,1.67015 -3.66775,2.7948 -6.01975,3.07995 0.0521,0.21045 0.11515,0.4184 0.1892,0.6234 0.07505,0.20775 -0.0325,0.43705 -0.2403,0.5121 C 1.771975,9.84245 1.542825,9.7348 1.467775,9.527 1.189225,8.7558 1.047975,7.94705 1.047975,7.12315 1.047975,3.1954 4.243425,0 8.171175,0 c 3.9277,0 7.1231,3.1954 7.1231,7.12315 0,0.70895 -0.1052,1.41005 -0.31275,2.084 -0.06505,0.21115 -0.289,0.32945 -0.5,0.26455 -0.21115,-0.065 -0.32955,-0.28885 -0.26455,-0.5 0.184,-0.59755 0.2773,-1.2195 0.2773,-1.84855 0,-0.24345 -0.0138,-0.48365 -0.0407,-0.72 -1.29355,0.14985 -2.52015,0.57605 -3.6086,1.2331 0.23565,0.3752 0.45085,0.76265 0.64365,1.1601 0.0964,0.19875 0.01345,0.43805 -0.1853,0.53445 -0.19875,0.09625 -0.4381,0.01345 -0.53445,-0.18535 -0.17865,-0.3683 -0.37505,-0.7243 -0.58805,-1.06705 -1.03145,0.75455 -1.90875,1.7321 -2.5598,2.8868 -0.0736,0.13035 -0.2092,0.2036 -0.34885,0.2036 z m -3.9421,-8.10915 c -0.9246,1.0997 -1.4821,2.5177 -1.4821,4.0635 0,0.2417 0.0137,0.48195 0.04095,0.71995 2.16285,-0.25095 4.11165,-1.2742 5.54365,-2.8006 -1.2048,-0.92295 -2.59455,-1.6018 -4.1025,-1.98285 z m 5.2364,1.89025 c 0.68125,0.6024 1.2968,1.2832 1.83055,2.0221 1.1799,-0.7189 2.5109,-1.1879 3.91535,-1.35775 -0.49935,-2.03175 -1.98335,-3.68075 -3.91495,-4.4097 -0.34115,1.3923 -0.97575,2.6621 -1.83095,3.74535 z m -4.6004,-2.5451 c 1.4341,0.4229 2.7957,1.11785 3.98405,2.03545 0.78855,-1.00325 1.37175,-2.1803 1.681,-3.4701 C 9.162425,0.85895 8.673425,0.8 8.171175,0.8 c -1.61305,0 -3.08685,0.607 -4.2051,1.6048 z"
   id="path2"
   style="fill:#000000;stroke-width:0.05" />
</svg>
