<svg width="16" height="16" fill="none" xmlns="http://www.w3.org/2000/svg"><g clip-path="url(#a)"><path d="M8.155.378c-.446.11-.872.238-1.276.387-2.181.81-3.708 2.198-4.723 3.85C1.551 5.6 1.135 6.675.86 7.77l7.857 7.853c.446-.11.873-.238 1.276-.387 2.181-.81 3.708-2.198 4.723-3.85.605-.985 1.022-2.06 1.293-3.15L8.155.378zm8.187 5.946a17.137 17.137 0 0 0-.254-5.17 1.06 1.06 0 0 0-.863-.829c-1.923-.32-3.632-.396-5.143-.26l6.26 6.26zm-9.555 9.609L.53 9.676a17.14 17.14 0 0 0 .254 5.17c.09.426.43.756.863.829 1.924.32 3.633.396 5.143.26l-.003-.002zM8.59 4.983a.53.53 0 0 1 .747 0l2.116 2.115a.53.53 0 0 1 0 .747.53.53 0 0 1-.747 0L8.59 5.729a.53.53 0 0 1 0-.747zM7.005 6.568a.53.53 0 0 1 .747 0l2.115 2.115a.53.53 0 0 1 0 .747.53.53 0 0 1-.747 0L7.005 7.316a.53.53 0 0 1 0-.747zM5.418 8.155a.53.53 0 0 1 .747 0l2.116 2.116a.53.53 0 0 1 0 .747.53.53 0 0 1-.747 0L5.418 8.902a.53.53 0 0 1 0-.747z" fill="#6E6CFF"/></g><defs><clipPath id="a"><path fill="#fff" d="M0 0h16v16H0z"/></clipPath></defs></svg>