<svg width="16" height="16" fill="none" xmlns="http://www.w3.org/2000/svg"><g clip-path="url(#a)"><path d="M16 0C14.382.111 3.014 1.194 2.22 8.988c-.098.833-.152 1.67-.188 2.507l5.59-5.584a.5.5 0 0 1 .707.707L.22 14.72a.75.75 0 1 0 1.062 1.06l1.785-1.783c1.316-.005 2.63-.08 3.936-.23A7.455 7.455 0 0 0 11.147 12H7.992l4.587-1.527A12.4 12.4 0 0 0 13.531 9h-2.536l3.33-1.663C15.634 4.152 15.942.821 16 0z" fill="#6E6CFF"/></g><defs><clipPath id="a"><path fill="#fff" d="M0 0h16v16H0z"/></clipPath></defs></svg>