<svg width="16" height="16" viewBox="0 0 16 16" fill="none" xmlns="http://www.w3.org/2000/svg">
<g clip-path="url(#clip0_111_180)">
<path d="M16 0C14.3819 0.11125 3.01375 1.19375 2.21906 8.98781C2.1225 9.82094 2.06781 10.6578 2.03188 11.4953L7.62156 5.91125C7.81687 5.71594 8.13406 5.71594 8.32938 5.91125C8.52469 6.10656 8.52469 6.42312 8.32938 6.61844L0.22 14.7197C-0.0731249 15.0125 -0.0731249 15.4875 0.22 15.7803C0.513125 16.0731 0.988438 16.0731 1.28188 15.7803L3.06719 13.9969C4.3825 13.9925 5.69688 13.9178 7.00344 13.7669C8.67469 13.5969 10.0353 12.9397 11.1466 12H7.99188L12.5791 10.4725C12.9306 10.0072 13.2469 9.51281 13.5306 9H10.995L14.3244 7.33719C15.6341 4.15187 15.9434 0.820625 16 0Z" fill="#6E6CFF"/>
</g>
<defs>
<clipPath id="clip0_111_180">
<rect width="16" height="16" fill="white"/>
</clipPath>
</defs>
</svg>
