<svg width="39" height="39" viewBox="0 0 39 39" fill="none" xmlns="http://www.w3.org/2000/svg">
<path d="M0.0322266 29.057C0.0322266 20.625 0.0322266 12.1931 0.0322266 3.76117C0.0448871 3.71052 0.0828565 3.67254 0.0828565 3.6219C0.399371 1.93804 1.6528 0.811253 3.34932 0.798593C7.18547 0.773272 11.0089 0.773272 14.8451 0.798593C16.2631 0.811253 17.3645 1.50759 17.871 2.84961C18.1621 3.64722 18.2128 4.53346 18.3521 5.38172C18.466 6.09071 18.5293 6.7997 18.6306 7.53402C18.8078 7.53402 18.9471 7.53402 19.0991 7.53402C24.2013 7.53402 29.3035 7.52135 34.4183 7.54668C34.9881 7.54668 35.5957 7.64796 36.1022 7.87585C37.4062 8.4709 38.0139 9.57237 38.0266 11.003C38.0393 13.2186 38.0266 15.4342 38.0266 17.6371C38.0266 23.499 38.0266 29.3608 38.0266 35.21C38.0266 36.4001 37.6341 37.413 36.6339 38.084C36.1655 38.4005 35.5831 38.5397 35.0514 38.755C28.7464 38.755 22.4415 38.755 16.1365 38.755C16.0732 38.7297 15.9972 38.7043 15.9339 38.6917C14.7691 38.4385 13.8703 37.7928 13.4904 36.6533C13.2246 35.843 13.1613 34.9695 13.0347 34.1212C12.9334 33.4249 12.8574 32.7285 12.7688 32.0069C12.5915 32.0069 12.4522 32.0069 12.3003 32.0069C9.38837 32.0069 6.46383 32.0069 3.5519 32.0069C2.37447 32.0069 1.37423 31.6018 0.715885 30.6269C0.38671 30.1711 0.247456 29.5887 0.0322266 29.057ZM18.9218 9.76228C18.9345 9.87622 18.9344 9.96484 18.9471 10.0408C19.2003 12.1298 19.4535 14.2061 19.7194 16.2951C20.3145 21.0428 20.8969 25.7779 21.5046 30.5256C21.5679 31.0573 21.4412 31.4625 21.0994 31.8423C20.2258 32.8172 19.3776 33.8174 18.5293 34.8049C18.0482 35.3619 17.5672 35.919 17.0354 36.5394C17.238 36.5394 17.3519 36.5394 17.4785 36.5394C23.1251 36.5394 28.7717 36.5394 34.4183 36.5394C35.4059 36.5394 35.811 36.1469 35.811 35.1467C35.811 27.1452 35.811 19.1564 35.811 11.1549C35.811 10.1548 35.4185 9.76228 34.4183 9.76228C29.4048 9.76228 24.3785 9.76228 19.3649 9.76228C19.213 9.76228 19.0737 9.76228 18.9218 9.76228ZM19.1497 29.7913C18.9851 28.4493 18.8205 27.1579 18.6559 25.8539C18.2508 22.5748 17.8456 19.3083 17.4405 16.0293C16.9467 12.0918 16.453 8.15438 15.9719 4.22961C15.8706 3.38135 15.4528 3.00153 14.6046 3.00153C10.9456 3.00153 7.28672 3.00153 3.62782 3.00153C2.65295 3.00153 2.2605 3.40667 2.2605 4.36887C2.2605 12.383 2.2605 20.3845 2.2605 28.3986C2.2605 29.3735 2.66561 29.766 3.62782 29.7786C8.65406 29.7786 13.693 29.7786 18.7192 29.7786C18.8585 29.7913 18.9978 29.7913 19.1497 29.7913ZM15.3769 35.0454C16.2758 34.0073 17.1113 33.0451 17.9596 32.0575C16.9341 32.0575 15.9846 32.0575 15.0097 32.0575C15.1237 33.0324 15.2376 33.9819 15.3769 35.0454Z" fill="white"/>
<path d="M29.5061 24.7144C30.2784 25.3475 31.076 25.9931 31.8736 26.6262C32.2534 26.93 32.456 27.2972 32.3547 27.7909C32.1775 28.6139 31.2532 28.9431 30.5569 28.4113C29.8352 27.8542 29.1389 27.2592 28.4299 26.6768C28.278 26.5502 28.126 26.4236 27.9488 26.2717C27.8349 26.3603 27.7209 26.4489 27.607 26.5375C26.8854 27.1326 26.1637 27.7403 25.4294 28.3227C24.809 28.8164 24.138 28.7785 23.7202 28.2467C23.315 27.715 23.429 27.0819 24.024 26.6008C24.809 25.9678 25.5939 25.3221 26.3789 24.6891C26.0244 24.1827 25.6826 23.7142 25.3534 23.2331C24.695 22.2583 24.2013 21.1948 23.8468 20.068C23.7835 19.8654 23.6949 19.7768 23.467 19.7768C22.8213 19.7515 22.3655 19.2704 22.3655 18.6627C22.3655 18.0423 22.8593 17.5739 23.5176 17.5612C24.4798 17.5485 25.442 17.5612 26.4042 17.5612C26.5309 17.5612 26.6448 17.5612 26.7967 17.5612C26.7967 17.1814 26.7967 16.8395 26.7967 16.4977C26.8093 15.8267 27.2778 15.3456 27.8982 15.3329C28.5312 15.3203 29.0123 15.814 29.0249 16.5104C29.0376 16.8395 29.0249 17.1814 29.0249 17.5485C29.1642 17.5612 29.2781 17.5612 29.3921 17.5612C30.3416 17.5612 31.2912 17.5612 32.2534 17.5612C32.9624 17.5612 33.4562 18.0043 33.4688 18.6373C33.4941 19.2704 33.0257 19.7262 32.3167 19.7895C32.2154 19.8021 32.0635 19.8907 32.0255 19.9794C31.6584 20.7896 31.3672 21.6379 30.9494 22.4102C30.5569 23.1952 30.0252 23.9041 29.5061 24.7144ZM26.113 19.7895C26.5561 20.9796 27.1385 22.0304 27.9361 23.0179C28.7084 22.0177 29.3162 20.9796 29.734 19.7895C28.5185 19.7895 27.3411 19.7895 26.113 19.7895Z" fill="white"/>
<path d="M11.642 17.5738C10.6165 17.5738 9.61632 17.5738 8.57816 17.5738C8.35027 18.7259 8.12238 19.8781 7.88183 21.0302C7.75522 21.6252 7.33741 22.005 6.793 22.005C6.27392 22.0177 5.80552 21.6632 5.69157 21.1315C5.65359 20.9669 5.65359 20.7896 5.69157 20.625C6.41322 16.9788 7.14751 13.3452 7.88183 9.69896C8.02109 8.98997 8.42623 8.6608 9.14788 8.6608C9.79357 8.6608 10.4266 8.6608 11.0723 8.6608C11.794 8.67346 12.1991 8.98997 12.3384 9.71162C13.0727 13.3579 13.7943 16.9915 14.5286 20.6377C14.6552 21.296 14.2754 21.8784 13.6424 22.005C13.0473 22.119 12.4776 21.7265 12.3384 21.0682C12.1105 19.954 11.8952 18.8399 11.6673 17.7258C11.68 17.6751 11.6674 17.6245 11.642 17.5738ZM11.2116 15.3203C10.9077 13.8136 10.6165 12.3577 10.3254 10.9017C10.1734 10.9017 10.0595 10.9017 9.92019 10.9017C9.629 12.383 9.3378 13.839 9.03395 15.3203C9.79358 15.3203 10.4773 15.3203 11.2116 15.3203Z" fill="white"/>
</svg>
