<?xml version="1.0" encoding="UTF-8" standalone="no"?>
<svg
   width="40"
   height="40"
   viewBox="0 0 40 40"
   fill="none"
   version="1.1"
   id="svg8"
   sodipodi:docname="Sprachwissenschaften.svg"
   inkscape:version="1.2.2 (732a01da63, 2022-12-09)"
   xmlns:inkscape="http://www.inkscape.org/namespaces/inkscape"
   xmlns:sodipodi="http://sodipodi.sourceforge.net/DTD/sodipodi-0.dtd"
   xmlns="http://www.w3.org/2000/svg"
   xmlns:svg="http://www.w3.org/2000/svg">
  <defs
     id="defs12" />
  <sodipodi:namedview
     id="namedview10"
     pagecolor="#ffffff"
     bordercolor="#000000"
     borderopacity="0.25"
     inkscape:showpageshadow="2"
     inkscape:pageopacity="0.0"
     inkscape:pagecheckerboard="0"
     inkscape:deskcolor="#d1d1d1"
     showgrid="false"
     inkscape:zoom="10.858974"
     inkscape:cx="35.316411"
     inkscape:cy="25.232586"
     inkscape:window-width="1920"
     inkscape:window-height="1027"
     inkscape:window-x="-8"
     inkscape:window-y="-8"
     inkscape:window-maximized="1"
     inkscape:current-layer="svg8" />
  <path
     d="M 0,29.784966 C 0,20.903426 0,12.021992 0,3.1405257 0.01332684,3.0871753 0.05329461,3.0471705 0.05329461,2.9938307 0.38646761,1.2201981 1.705866,0.03333816 3.4916757,0.02000321 c 4.0380507,-0.02667095 8.0627113,-0.02667095 12.1008153,0 1.492631,0.01333495 2.651999,0.74679613 3.185156,2.16036389 0.306421,0.8401335 0.359789,1.7736221 0.506421,2.6671057 0.119895,0.7467887 0.186526,1.4935775 0.293158,2.2670467 0.186526,0 0.333157,0 0.493157,0 5.370735,0 10.741469,-0.013345 16.125467,0.013335 0.599789,0 1.239368,0.1066796 1.772525,0.3467192 1.372631,0.6267742 2.012315,1.7869675 2.025683,3.2938693 0.01337,2.333722 0,4.667443 0,6.987787 0,6.174419 0,12.348732 0,18.509774 0,1.253548 -0.413157,2.320449 -1.465999,3.027223 C 38.035007,39.6266 37.421954,39.773222 36.86227,40 c -6.636839,0 -13.273572,0 -19.910411,0 -0.06663,-0.02665 -0.146632,-0.0534 -0.213264,-0.06667 -1.226104,-0.266699 -2.172209,-0.946823 -2.572104,-2.147074 -0.279789,-0.8535 -0.346421,-1.773569 -0.479684,-2.667095 -0.106631,-0.733422 -0.186631,-1.46695 -0.279894,-2.227021 -0.186632,0 -0.333263,0 -0.493158,0 -3.0651875,0 -6.1436493,0 -9.2088373,0 -1.2393995,0 -2.2922832,-0.426697 -2.98527761,-1.453573 C 0.37314025,30.958462 0.22655716,30.345012 0,29.784966 Z M 19.883752,9.4615759 c 0.01337,0.1200146 0.01326,0.2133592 0.02663,0.2933689 0.266527,2.2003722 0.533053,4.3873672 0.812947,6.5877392 0.626421,5.000816 1.239474,9.988361 1.879158,14.989178 0.06663,0.560047 -0.06674,0.986849 -0.426527,1.386898 -0.919578,1.026875 -1.81242,2.080399 -2.705367,3.120546 -0.506421,0.586696 -1.012736,1.173497 -1.572525,1.826973 0.213263,0 0.333157,0 0.46642,0 5.943787,0 11.887574,0 17.831361,0 1.039578,0 1.465999,-0.413426 1.465999,-1.46695 0,-8.428088 0,-16.842799 0,-25.270887 0,-1.0534194 -0.413158,-1.4668661 -1.465999,-1.4668661 -5.277366,0 -10.568206,0 -15.845677,0 -0.159895,0 -0.306526,0 -0.46642,0 z M 20.123647,30.558414 C 19.950383,29.144867 19.77712,27.784618 19.603857,26.411097 19.177436,22.957177 18.75091,19.516528 18.324489,16.062713 17.8047,11.915291 17.285016,7.767953 16.778595,3.6339397 16.671964,2.740456 16.232175,2.3403865 15.339333,2.3403865 c -3.851577,0 -7.7030277,0 -11.5544996,0 -1.0261785,0 -1.4392835,0.4267394 -1.4392835,1.4402377 0,8.4413918 0,16.8694798 0,25.3108398 0,1.026875 0.4264314,1.440301 1.4392835,1.453573 5.2907765,0 10.5949206,0 15.8856556,0 0.146631,0.01338 0.293263,0.01338 0.453158,0.01338 z m -3.971367,5.534214 c 0.94621,-1.093445 1.825683,-2.106943 2.71863,-3.147195 -1.079473,0 -2.078946,0 -3.105156,0 0.12,1.026875 0.239894,2.026996 0.386526,3.147195 z"
     fill="white"
     id="path2"
     style="fill:#000000;stroke-width:1.05297" />
  <path
     d="m 31.025115,25.210846 c 0.812947,0.666853 1.652526,1.346872 2.492104,2.013725 0.39979,0.319997 0.613053,0.706773 0.506421,1.226794 -0.186526,0.866877 -1.159473,1.213628 -1.89242,0.653476 -0.759684,-0.586801 -1.492631,-1.213523 -2.238946,-1.826972 -0.159895,-0.13335 -0.319895,-0.266699 -0.506421,-0.426698 -0.119895,0.09332 -0.239895,0.186648 -0.359789,0.279971 -0.759579,0.626827 -1.519263,1.266926 -2.29221,1.880375 -0.653052,0.520021 -1.359368,0.480101 -1.799157,-0.08005 -0.426526,-0.560047 -0.306526,-1.2269 0.319789,-1.733649 0.826316,-0.666748 1.652526,-1.346872 2.478841,-2.01362 C 27.36017,24.6508 27.00038,24.157323 26.653854,23.650574 25.960802,22.623804 25.441118,21.503605 25.06796,20.316731 25.00133,20.10333 24.908065,20.010006 24.668171,20.010006 c -0.679684,-0.02665 -1.159473,-0.533398 -1.159473,-1.173496 0,-0.653476 0.519789,-1.146848 1.212736,-1.160225 1.012842,-0.01338 2.025683,0 3.038525,0 0.133368,0 0.253263,0 0.413158,0 0,-0.400048 0,-0.760176 0,-1.120199 0.01326,-0.706773 0.50642,-1.213522 1.159473,-1.2269 0.666315,-0.01327 1.172736,0.50675 1.185999,1.240277 0.01337,0.346646 0,0.706774 0,1.093445 0.146632,0.01338 0.266526,0.01338 0.386526,0.01338 0.999474,0 1.999052,0 3.011894,0 0.746315,0 1.266104,0.466723 1.279367,1.133471 0.02663,0.666852 -0.46642,1.146953 -1.212736,1.213628 -0.106631,0.01327 -0.266526,0.106595 -0.306526,0.200024 -0.386421,0.853394 -0.692947,1.74692 -1.132736,2.560394 -0.413158,0.826851 -0.972842,1.573545 -1.519263,2.427045 z m -3.571682,-5.187463 c 0.46642,1.253548 1.079473,2.36037 1.919051,3.400517 0.812947,-1.053524 1.452737,-2.146969 1.892526,-3.400517 -1.279473,0 -2.518841,0 -3.811577,0 z"
     fill="white"
     id="path4"
     style="fill:#000000;stroke-width:1.05297" />
  <path
     d="m 12.220808,17.689556 c -1.079473,0 -2.132293,0 -3.2250928,0 -0.2398841,1.213522 -0.4797682,2.42715 -0.7329786,3.640673 -0.1332736,0.626721 -0.5730734,1.02677 -1.1461363,1.02677 -0.5463997,0.01338 -1.0394521,-0.360023 -1.1593995,-0.92007 -0.039979,-0.173375 -0.039979,-0.360128 0,-0.533503 C 6.7168321,17.062834 7.4897686,13.235514 8.2627366,9.39488 8.409326,8.6480913 8.835789,8.3013721 9.5954202,8.3013721 c 0.6796738,0 1.3460198,0 2.0257038,0 0.759684,0.013335 1.186105,0.3467192 1.332736,1.1068429 0.772947,3.840676 1.532526,7.667996 2.305473,11.508588 0.133263,0.693396 -0.266526,1.306846 -0.932842,1.440196 -0.62642,0.120077 -1.226104,-0.293348 -1.372631,-0.986744 -0.239894,-1.173602 -0.466526,-2.347099 -0.70642,-3.520596 0.01337,-0.0534 1.05e-4,-0.1067 -0.02663,-0.160103 z m -0.453052,-2.373642 c -0.319895,-1.587028 -0.626421,-3.120547 -0.932842,-4.654171 -0.16,0 -0.279895,0 -0.426536,0 -0.306516,1.560273 -0.6130421,3.093897 -0.932884,4.654171 0.79961,0 1.519315,0 2.292262,0 z"
     fill="white"
     id="path6"
     style="fill:#000000;stroke-width:1.05297" />
</svg>
