<?xml version="1.0" encoding="UTF-8" standalone="no"?>
<!-- Svg Vector Icons : http://www.onlinewebfonts.com/icon -->

<svg
   version="1.1"
   x="0px"
   y="0px"
   viewBox="0 0 40 40"
   enable-background="new 0 0 1000 1000"
   xml:space="preserve"
   id="svg38"
   sodipodi:docname="Statistik.svg"
   inkscape:version="1.2.2 (732a01da63, 2022-12-09)"
   width="40"
   height="40"
   xmlns:inkscape="http://www.inkscape.org/namespaces/inkscape"
   xmlns:sodipodi="http://sodipodi.sourceforge.net/DTD/sodipodi-0.dtd"
   xmlns="http://www.w3.org/2000/svg"
   xmlns:svg="http://www.w3.org/2000/svg"><defs
   id="defs42" /><sodipodi:namedview
   id="namedview40"
   pagecolor="#ffffff"
   bordercolor="#000000"
   borderopacity="0.25"
   inkscape:showpageshadow="2"
   inkscape:pageopacity="0.0"
   inkscape:pagecheckerboard="0"
   inkscape:deskcolor="#d1d1d1"
   showgrid="false"
   inkscape:zoom="13.552"
   inkscape:cx="37.817296"
   inkscape:cy="28.409091"
   inkscape:window-width="1920"
   inkscape:window-height="1027"
   inkscape:window-x="-8"
   inkscape:window-y="-8"
   inkscape:window-maximized="1"
   inkscape:current-layer="svg38" />
<metadata
   id="metadata2"> Svg Vector Icons : http://www.onlinewebfonts.com/icon </metadata>
<g
   id="g36"
   style="fill:#000000"
   transform="matrix(0.04081633,0,0,0.04081633,-0.408165,-0.41020582)"><path
     d="M 968.4,855.8 H 837.9 V 306.1 l 51,-50.5 v 78.5 c 0,11.9 9.7,21.6 21.6,21.6 11.9,0 21.6,-9.7 21.6,-21.6 V 201.3 c 0,-11.9 -9.7,-21.6 -21.6,-21.6 H 777.7 c -11.9,0 -21.6,9.7 -21.6,21.6 0,11.9 9.7,21.6 21.6,21.6 h 82.9 L 538.8,541.4 386.1,387.7 c -4.1,-4.1 -9.6,-6.4 -15.3,-6.4 0,0 0,0 0,0 -5.8,0 -11.3,2.3 -15.3,6.4 l -291,293.4 c -8.4,8.5 -8.3,22.1 0.1,30.5 4.2,4.2 9.7,6.3 15.2,6.3 5.6,0 11.1,-2.1 15.3,-6.4 L 121,685.4 V 855.8 H 53.2 V 122.7 c 0,-11.9 -9.7,-21.6 -21.6,-21.6 -11.9,0 -21.6,9.6 -21.6,21.6 v 754.7 c 0,11.9 9.7,21.6 21.6,21.6 h 936.8 c 11.9,0 21.6,-9.7 21.6,-21.6 0,-12 -9.7,-21.6 -21.6,-21.6 z m -173.7,0 H 560.2 V 580.9 L 794.7,348.8 Z M 392.4,455.3 517,580.8 v 275 H 392.4 Z m -228.2,186.5 185,-186.5 v 400.5 h -185 z"
     id="path4"
     style="fill:#000000" /><g
     id="g6"
     style="fill:#000000" /><g
     id="g8"
     style="fill:#000000" /><g
     id="g10"
     style="fill:#000000" /><g
     id="g12"
     style="fill:#000000" /><g
     id="g14"
     style="fill:#000000" /><g
     id="g16"
     style="fill:#000000" /><g
     id="g18"
     style="fill:#000000" /><g
     id="g20"
     style="fill:#000000" /><g
     id="g22"
     style="fill:#000000" /><g
     id="g24"
     style="fill:#000000" /><g
     id="g26"
     style="fill:#000000" /><g
     id="g28"
     style="fill:#000000" /><g
     id="g30"
     style="fill:#000000" /><g
     id="g32"
     style="fill:#000000" /><g
     id="g34"
     style="fill:#000000" /></g>
</svg>
