<?xml version="1.0" encoding="UTF-8" standalone="no"?>
<!-- Svg Vector Icons : http://www.onlinewebfonts.com/icon -->

<svg
   version="1.1"
   x="0px"
   y="0px"
   viewBox="0 0 1000 1000"
   enable-background="new 0 0 1000 1000"
   xml:space="preserve"
   id="svg38"
   sodipodi:docname="Statistik.svg"
   inkscape:version="1.2.2 (732a01da63, 2022-12-09)"
   xmlns:inkscape="http://www.inkscape.org/namespaces/inkscape"
   xmlns:sodipodi="http://sodipodi.sourceforge.net/DTD/sodipodi-0.dtd"
   xmlns="http://www.w3.org/2000/svg"
   xmlns:svg="http://www.w3.org/2000/svg"><defs
   id="defs42" /><sodipodi:namedview
   id="namedview40"
   pagecolor="#ffffff"
   bordercolor="#000000"
   borderopacity="0.25"
   inkscape:showpageshadow="2"
   inkscape:pageopacity="0.0"
   inkscape:pagecheckerboard="0"
   inkscape:deskcolor="#d1d1d1"
   showgrid="false"
   inkscape:zoom="0.847"
   inkscape:cx="500.59032"
   inkscape:cy="492.32586"
   inkscape:window-width="1920"
   inkscape:window-height="1027"
   inkscape:window-x="-8"
   inkscape:window-y="-8"
   inkscape:window-maximized="1"
   inkscape:current-layer="svg38" />
<metadata
   id="metadata2"> Svg Vector Icons : http://www.onlinewebfonts.com/icon </metadata>
<g
   id="g36"
   style="fill:#ffffff"><path
     d="M968.4,855.8H837.9V306.1l51-50.5l0,78.5c0,11.9,9.7,21.6,21.6,21.6c11.9,0,21.6-9.7,21.6-21.6l0-132.8c0-11.9-9.7-21.6-21.6-21.6H777.7c-11.9,0-21.6,9.7-21.6,21.6c0,11.9,9.7,21.6,21.6,21.6h82.9L538.8,541.4L386.1,387.7c-4.1-4.1-9.6-6.4-15.3-6.4c0,0,0,0,0,0c-5.8,0-11.3,2.3-15.3,6.4l-291,293.4c-8.4,8.5-8.3,22.1,0.1,30.5c4.2,4.2,9.7,6.3,15.2,6.3c5.6,0,11.1-2.1,15.3-6.4l25.9-26.1v170.4H53.2V122.7c0-11.9-9.7-21.6-21.6-21.6S10,110.7,10,122.7v754.7c0,11.9,9.7,21.6,21.6,21.6h936.8c11.9,0,21.6-9.7,21.6-21.6C990,865.4,980.3,855.8,968.4,855.8z M794.7,855.8H560.2V580.9l234.5-232.1V855.8z M392.4,455.3L517,580.8v275H392.4V455.3z M164.2,641.8l185-186.5v400.5h-185V641.8z"
     id="path4"
     style="fill:#ffffff" /><g
     id="g6"
     style="fill:#ffffff" /><g
     id="g8"
     style="fill:#ffffff" /><g
     id="g10"
     style="fill:#ffffff" /><g
     id="g12"
     style="fill:#ffffff" /><g
     id="g14"
     style="fill:#ffffff" /><g
     id="g16"
     style="fill:#ffffff" /><g
     id="g18"
     style="fill:#ffffff" /><g
     id="g20"
     style="fill:#ffffff" /><g
     id="g22"
     style="fill:#ffffff" /><g
     id="g24"
     style="fill:#ffffff" /><g
     id="g26"
     style="fill:#ffffff" /><g
     id="g28"
     style="fill:#ffffff" /><g
     id="g30"
     style="fill:#ffffff" /><g
     id="g32"
     style="fill:#ffffff" /><g
     id="g34"
     style="fill:#ffffff" /></g>
</svg>
