<svg width="16" height="16" fill="none" xmlns="http://www.w3.org/2000/svg"><g clip-path="url(#a)"><path d="M5.714 1.714C5.714.768 6.482 0 7.43 0H8.57c.947 0 1.715.768 1.715 1.714v12.572c0 .946-.768 1.714-1.715 1.714H7.43a1.715 1.715 0 0 1-1.715-1.714V1.714zM0 8.571c0-.946.768-1.714 1.714-1.714h1.143c.947 0 1.714.768 1.714 1.714v5.715c0 .946-.767 1.714-1.714 1.714H1.714A1.715 1.715 0 0 1 0 14.286V8.57zm13.143-6.285h1.143C15.232 2.286 16 3.054 16 4v10.286c0 .946-.768 1.714-1.714 1.714h-1.143a1.715 1.715 0 0 1-1.714-1.714V4c0-.946.767-1.714 1.714-1.714z" fill="#6E6CFF"/></g><defs><clipPath id="a"><path fill="#fff" d="M0 0h16v16H0z"/></clipPath></defs></svg>