<svg width="16" height="16" fill="none" xmlns="http://www.w3.org/2000/svg"><g clip-path="url(#a)"><path d="M12.559 2.386a2.008 2.008 0 0 0-2.839 0L3.813 8.294a3.46 3.46 0 1 0 4.893 4.893l4.88-4.88a.901.901 0 0 1 1.272 0c.35.35.35.922 0 1.271l-4.88 4.88a5.255 5.255 0 0 1-7.437 0 5.255 5.255 0 0 1 0-7.435L8.45 1.115a3.804 3.804 0 0 1 5.381 0 3.804 3.804 0 0 1 0 5.381l-5.65 5.651a2.353 2.353 0 0 1-3.327-3.326l4.623-4.624a.901.901 0 0 1 1.272 0c.35.35.35.922 0 1.272l-4.624 4.623a.556.556 0 0 0 0 .784.556.556 0 0 0 .784 0l5.65-5.651a2.008 2.008 0 0 0 0-2.839z" fill="#6E6CFF"/></g><defs><clipPath id="a"><path fill="#fff" d="M0 0h16v16H0z"/></clipPath></defs></svg>