<svg width="16" height="16" fill="none" xmlns="http://www.w3.org/2000/svg"><g clip-path="url(#a)"><path d="M4.552 4.552A2.667 2.667 0 1 0 .78.781a2.667 2.667 0 0 0 3.772 3.771zm10.667 6.896a2.667 2.667 0 1 0-3.771 3.772 2.667 2.667 0 0 0 3.771-3.772zm-.08-9.643-.943-.943a1.333 1.333 0 0 0-1.886 0L.862 12.31c-.52.521-.52 1.365 0 1.886l.943.942c.52.521 1.365.521 1.885 0L15.138 3.69c.521-.52.521-1.364 0-1.885z" fill="#6E6CFF"/></g><defs><clipPath id="a"><path fill="#fff" d="M0 0h16v16H0z"/></clipPath></defs></svg>