<svg width="16" height="16" fill="none" xmlns="http://www.w3.org/2000/svg"><g clip-path="url(#a)"><path d="M8.03 7.086V.49c0-.266.207-.49.473-.49a6.614 6.614 0 0 1 6.613 6.613.482.482 0 0 1-.49.473H8.031zM0 8.03a7.086 7.086 0 0 1 6.112-7.018.447.447 0 0 1 .501.454v7.036l4.62 4.62a.445.445 0 0 1-.043.683A7.086 7.086 0 0 1 0 8.03zm15.541.472c.275 0 .49.23.455.502a7.062 7.062 0 0 1-2.182 4.201.449.449 0 0 1-.626-.02L8.503 8.502h7.038z" fill="#6E6CFF"/></g><defs><clipPath id="a"><path fill="#fff" d="M0 0h16v16H0z"/></clipPath></defs></svg>