<svg width="39" height="33" viewBox="0 0 39 33" fill="none" xmlns="http://www.w3.org/2000/svg">
<path d="M38.9342 31.1791C38.6557 31.9006 38.1241 32.1411 37.3646 32.1411C31.8203 32.1285 26.2634 32.1285 20.7191 32.1285C19.9089 32.1285 19.3647 31.6601 19.3393 30.9386C19.3267 30.2171 19.833 29.6854 20.5925 29.6728C22.1621 29.6601 23.7317 29.6728 25.3013 29.6728C25.4405 29.6728 25.5671 29.6728 25.7443 29.6728C25.757 29.4829 25.7697 29.331 25.7697 29.1791C25.7697 24.3563 25.7697 19.5336 25.7697 14.7235C25.7697 14.5336 25.7697 14.3564 25.795 14.1665C25.8836 13.5589 26.3899 13.1412 27.0102 13.1412C27.6177 13.1412 28.1241 13.5842 28.2001 14.1918C28.2254 14.369 28.2254 14.5336 28.2254 14.7108C28.2254 19.5336 28.2254 24.3563 28.2254 29.1665C28.2254 29.3184 28.2254 29.4829 28.2254 29.6475C30.314 29.6475 32.3393 29.6475 34.4279 29.6475C34.4279 29.4702 34.4279 29.3184 34.4279 29.1665C34.4279 22.6728 34.4279 16.1918 34.4279 9.69817C34.4279 9.50829 34.4405 9.30576 34.4912 9.11589C34.6557 8.52096 35.1874 8.17919 35.8203 8.24248C36.3899 8.30577 36.8456 8.79944 36.8835 9.39437C36.8962 9.53361 36.8835 9.66019 36.8835 9.79943C36.8835 16.2551 36.8835 22.6981 36.8835 29.1538C36.8835 29.3057 36.8835 29.4703 36.8835 29.6728C37.757 29.6095 38.5798 29.6095 38.9595 30.5715C38.9342 30.7867 38.9342 30.9766 38.9342 31.1791Z" fill="white"/>
<path d="M21.1747 22.0273C21.1494 27.6222 16.6051 32.1538 11.0355 32.1285C5.45325 32.1032 0.934262 27.5462 0.959579 21.964C0.984895 16.407 5.55451 11.8754 11.0988 11.9007C16.6684 11.9387 21.1874 16.483 21.1747 22.0273ZM18.719 22.0146C18.7063 17.7868 15.2634 14.3437 11.0482 14.3564C6.833 14.3691 3.40258 17.8247 3.40258 22.0399C3.41524 26.2424 6.85827 29.6728 11.0608 29.6728C15.276 29.6855 18.719 26.2298 18.719 22.0146Z" fill="white"/>
<path d="M32.5798 2.55895C32.4025 2.55895 32.2127 2.57161 32.0355 2.55895C31.4279 2.52098 30.9595 2.06528 30.9089 1.48301C30.8583 0.837439 31.2254 0.305795 31.8456 0.166555C31.9595 0.141239 32.0861 0.128581 32.2127 0.128581C33.2886 0.128581 34.3646 0.115923 35.4405 0.128581C36.4152 0.141239 36.8583 0.596933 36.8583 1.57161C36.8583 2.6349 36.8583 3.69819 36.8583 4.76148C36.8583 5.55894 36.3519 6.10324 35.6431 6.10324C34.9342 6.10324 34.4278 5.53363 34.4152 4.76148C34.4152 4.64755 34.4152 4.54629 34.4152 4.3311C34.276 4.45768 34.1747 4.54629 34.0987 4.63489C32.0987 6.63489 30.0988 8.63488 28.0988 10.6349C27.3013 11.4323 26.7064 11.4323 25.9216 10.6475C25.3646 10.0906 24.8076 9.52095 24.2254 8.93867C24.1114 9.03994 24.0102 9.12855 23.9216 9.22981C22.5798 10.5716 21.238 11.926 19.8836 13.2678C19.1494 13.9893 18.0229 13.7108 17.7823 12.7361C17.6684 12.3058 17.7823 11.9133 18.0861 11.6096C19.8456 9.83741 21.6052 8.06526 23.39 6.31843C23.8836 5.83742 24.5798 5.86274 25.0861 6.35641C25.7191 6.97666 26.3393 7.62222 27.0228 8.31843C28.9216 6.4197 30.795 4.55895 32.6684 2.68553C32.6304 2.64756 32.6051 2.59693 32.5798 2.55895Z" fill="white"/>
<path d="M7.7063 24.3563C7.69364 23.5968 8.16204 23.0525 8.83292 23.0146C9.55444 22.9766 10.0734 23.4576 10.1494 24.2297C10.1873 24.6095 10.3519 24.888 10.7063 25.0272C11.0607 25.1538 11.4152 25.1285 11.7063 24.8627C11.9595 24.6221 12.0734 24.293 11.9215 23.9892C11.8076 23.7614 11.5671 23.5462 11.3392 23.4323C10.9215 23.2297 10.4531 23.1158 10.0101 22.9639C8.65568 22.4829 7.76959 21.3943 7.7063 20.0779C7.63035 18.5842 8.26327 17.4829 9.61769 16.8121C9.71896 16.7614 9.82026 16.6095 9.84558 16.4956C9.98482 15.8753 10.4278 15.4703 11.0228 15.4576C11.643 15.445 12.1114 15.8121 12.238 16.4323C12.2886 16.6475 12.3646 16.7614 12.5671 16.8627C13.719 17.445 14.3265 18.407 14.4278 19.6855C14.4784 20.3943 13.9848 20.9766 13.3266 21.0272C12.6304 21.0905 12.0734 20.6222 11.9975 19.888C11.9215 19.2298 11.5544 18.9007 10.9468 18.9639C10.5291 19.0019 10.2253 19.2804 10.162 19.6728C10.0987 20.0779 10.2759 20.4323 10.681 20.5842C11.2379 20.7994 11.8076 20.9639 12.3519 21.1791C14.6177 22.0779 15.1493 25.0778 13.3392 26.6981C13.2759 26.7614 13.2127 26.8247 13.1367 26.8626C12.6557 27.1285 12.2506 27.4069 12.0734 28.0145C11.9341 28.4829 11.3519 28.6728 10.8329 28.5842C10.3645 28.5082 9.94681 28.1158 9.87086 27.6221C9.83288 27.3943 9.74426 27.293 9.54173 27.1918C8.44047 26.6475 7.73161 25.5462 7.7063 24.3563Z" fill="white"/>
</svg>
