<?xml version="1.0" encoding="UTF-8" standalone="no"?>
<svg
   width="40"
   height="40"
   viewBox="0 0 40 40"
   fill="none"
   version="1.1"
   id="svg10"
   sodipodi:docname="VWL.svg"
   inkscape:version="1.2.2 (732a01da63, 2022-12-09)"
   xmlns:inkscape="http://www.inkscape.org/namespaces/inkscape"
   xmlns:sodipodi="http://sodipodi.sourceforge.net/DTD/sodipodi-0.dtd"
   xmlns="http://www.w3.org/2000/svg"
   xmlns:svg="http://www.w3.org/2000/svg">
  <defs
     id="defs14" />
  <sodipodi:namedview
     id="namedview12"
     pagecolor="#ffffff"
     bordercolor="#000000"
     borderopacity="0.25"
     inkscape:showpageshadow="2"
     inkscape:pageopacity="0.0"
     inkscape:pagecheckerboard="0"
     inkscape:deskcolor="#d1d1d1"
     showgrid="false"
     inkscape:zoom="18.149074"
     inkscape:cx="23.334524"
     inkscape:cy="18.513341"
     inkscape:window-width="1920"
     inkscape:window-height="1027"
     inkscape:window-x="-8"
     inkscape:window-y="-8"
     inkscape:window-maximized="1"
     inkscape:current-layer="svg10" />
  <path
     d="m 39.973368,35.839013 c -0.293157,0.759473 -0.852736,1.012631 -1.652209,1.012631 -5.836101,-0.01326 -11.685465,-0.01326 -17.521566,-0.01326 -0.852842,0 -1.425684,-0.493052 -1.45242,-1.252525 -0.01326,-0.759473 0.519683,-1.319157 1.319157,-1.33242 1.652209,-0.01337 3.304418,0 4.956628,0 0.146526,0 0.279789,0 0.466315,0 0.01337,-0.199895 0.02674,-0.359789 0.02674,-0.519684 0,-5.076628 0,-10.153151 0,-15.21641 0,-0.199895 0,-0.386421 0.02663,-0.586316 0.09326,-0.639578 0.626211,-1.079262 1.279157,-1.079262 0.639474,0 1.172526,0.466316 1.252526,1.105894 0.02663,0.186526 0.02663,0.359789 0.02663,0.546315 0,5.076628 0,10.153151 0,15.216516 0,0.159895 0,0.333052 0,0.506315 2.198525,0 4.330418,0 6.528943,0 0,-0.186631 0,-0.34642 0,-0.506315 0,-6.835469 0,-13.657569 0,-20.492965 0,-0.199874 0.01326,-0.413063 0.06663,-0.612926 0.173157,-0.626242 0.732841,-0.985999 1.399051,-0.919378 0.599579,0.06662 1.079263,0.586273 1.119157,1.212515 0.01337,0.146568 0,0.27981 0,0.426379 0,6.795437 0,13.577538 0,20.373006 0,0.159895 0,0.333158 0,0.546316 0.919473,-0.06663 1.785578,-0.06663 2.185262,0.945999 -0.02663,0.226526 -0.02663,0.426421 -0.02663,0.639579 z"
     fill="white"
     id="path2"
     style="fill:#000000;stroke-width:1.05263" />
  <path
     d="M 21.279171,26.205546 C 21.25254,32.09491 16.469069,36.865012 10.606337,36.83838 4.7302886,36.811749 -0.02653752,32.01491 1.1193037e-4,26.138914 0.02676033,20.289445 4.836878,15.519343 10.672968,15.545975 c 5.862733,0.04 10.619572,4.82347 10.606203,10.659571 z m -2.584945,-0.01337 c -0.01337,-4.450312 -3.637471,-8.074625 -8.074521,-8.061257 -4.437049,0.01337 -8.0480149,3.65084 -8.0480149,8.087889 0.013326,4.423681 3.6375659,8.034626 8.0612779,8.034626 4.43705,0.01337 8.061258,-3.624208 8.061258,-8.061258 z"
     fill="white"
     id="path4"
     style="fill:#000000;stroke-width:1.05263" />
  <path
     d="m 33.284531,5.7125597 c -0.186631,0 -0.386421,0.013326 -0.572947,0 -0.639578,-0.039968 -1.132631,-0.5196522 -1.185894,-1.1325676 -0.05326,-0.679548 0.333158,-1.2391729 0.986,-1.3857412 0.119894,-0.026648 0.253157,-0.039973 0.38642,-0.039973 1.132526,0 2.265157,-0.013324 3.397682,0 1.025999,0.013324 1.49242,0.4930018 1.49242,1.5189769 0,1.1192518 0,2.2385037 0,3.3577555 0,0.839431 -0.533052,1.4123786 -1.279157,1.4123786 -0.74621,0 -1.279262,-0.5995897 -1.292525,-1.4123786 0,-0.1199262 0,-0.2265156 0,-0.4530312 -0.146526,0.133242 -0.253158,0.2265156 -0.333158,0.3197787 -2.105262,2.1052622 -4.210418,4.2105132 -6.31568,6.3157962 -0.839473,0.839368 -1.465683,0.839368 -2.291788,0.01326 -0.586315,-0.586211 -1.17263,-1.185842 -1.785472,-1.798768 -0.12,0.1066 -0.226526,0.199873 -0.319789,0.306463 -1.41242,1.41241 -2.82484,2.838093 -4.250523,4.250513 -0.772842,0.759473 -1.958631,0.466316 -2.211894,-0.559684 -0.119894,-0.452947 0,-0.866104 0.31979,-1.185788 1.852104,-1.865462 3.704313,-3.730883 5.583048,-5.5696501 0.519579,-0.506326 1.25242,-0.4796734 1.785367,0.03998 0.666316,0.6528951 1.319157,1.3324311 2.038631,2.0652831 1.998735,-1.9986621 3.970734,-3.9573449 5.942732,-5.9293646 -0.04,-0.039968 -0.06663,-0.093263 -0.09326,-0.133242 z"
     fill="white"
     id="path6"
     style="fill:#000000;stroke-width:1.05263" />
  <path
     d="m 7.1019185,28.657123 c -0.013326,-0.799473 0.479726,-1.37242 1.185915,-1.412315 0.7594942,-0.04 1.3057674,0.466316 1.3857674,1.279052 0.039895,0.399789 0.2131577,0.692947 0.5862091,0.839473 0.373053,0.133263 0.746211,0.106632 1.052631,-0.173158 0.266527,-0.253263 0.386421,-0.599683 0.226527,-0.919473 -0.119895,-0.239789 -0.373053,-0.466315 -0.612947,-0.58621 C 10.486337,27.471229 9.9932849,27.351335 9.5269694,27.19144 8.1012652,26.685124 7.1685395,25.539231 7.1019185,24.153547 7.0219712,22.581233 7.6882023,21.42197 9.1139066,20.715866 c 0.1065999,-0.05337 0.2132314,-0.213263 0.239884,-0.333158 0.1465683,-0.652947 0.6128627,-1.079262 1.2391774,-1.092631 0.652842,-0.01326 1.145894,0.373158 1.279157,1.025999 0.05326,0.226527 0.133263,0.346421 0.346421,0.453053 1.212526,0.612947 1.851999,1.625577 1.95863,2.971366 0.05326,0.746105 -0.466315,1.359052 -1.159157,1.412315 -0.732841,0.06663 -1.319157,-0.426316 -1.399051,-1.199157 -0.08,-0.692842 -0.466421,-1.039263 -1.106,-0.972736 -0.439684,0.04 -0.7594724,0.333157 -0.826104,0.74621 -0.066631,0.42642 0.1198947,0.799473 0.546315,0.959367 0.58621,0.226526 1.185894,0.399684 1.758841,0.62621 2.385051,0.946105 2.944629,4.103892 1.039262,5.80947 -0.06663,0.06663 -0.133157,0.133263 -0.213157,0.173158 -0.506316,0.279894 -0.932737,0.572947 -1.119263,1.212525 -0.146631,0.493052 -0.759473,0.692947 -1.305788,0.599684 -0.4930522,-0.08 -0.9327256,-0.493052 -1.0126729,-1.012736 C 9.3404222,31.855016 9.247138,31.748384 9.0339487,31.641858 7.8747285,31.068911 7.1285606,29.909649 7.1019185,28.657123 Z"
     fill="white"
     id="path8"
     style="fill:#000000;stroke-width:1.05263" />
</svg>
