<?xml version="1.0" encoding="UTF-8" standalone="no"?>
<svg
   width="40"
   height="40"
   viewBox="0 0 40 40"
   fill="none"
   version="1.1"
   id="svg4"
   sodipodi:docname="Wirtschaftswissenschaften.svg"
   inkscape:version="1.2.2 (732a01da63, 2022-12-09)"
   xmlns:inkscape="http://www.inkscape.org/namespaces/inkscape"
   xmlns:sodipodi="http://sodipodi.sourceforge.net/DTD/sodipodi-0.dtd"
   xmlns="http://www.w3.org/2000/svg"
   xmlns:svg="http://www.w3.org/2000/svg">
  <defs
     id="defs8" />
  <sodipodi:namedview
     id="namedview6"
     pagecolor="#ffffff"
     bordercolor="#000000"
     borderopacity="0.25"
     inkscape:showpageshadow="2"
     inkscape:pageopacity="0.0"
     inkscape:pagecheckerboard="0"
     inkscape:deskcolor="#d1d1d1"
     showgrid="false"
     inkscape:zoom="15.356909"
     inkscape:cx="23.344542"
     inkscape:cy="22.074755"
     inkscape:window-width="1920"
     inkscape:window-height="1027"
     inkscape:window-x="-8"
     inkscape:window-y="-8"
     inkscape:window-maximized="1"
     inkscape:current-layer="svg4" />
  <path
     d="m 18.740413,0 c 0.839789,0 1.666106,0 2.50579,0 0.106632,0.02666676 0.2,0.05333246 0.306632,0.06666321 2.70579,0.20000332 5.264949,0.93333129 7.664108,2.18666369 0.413158,0.2133341 0.813053,0.4399989 1.252948,0.680005 0.653053,-0.653333 1.266211,-1.3066659 1.906001,-1.9333374 0.359895,-0.35999335 0.786316,-0.43999889 1.252842,-0.25332631 0.453264,0.1733313 0.693158,0.53333521 0.733159,1.01332631 0.04,0.3466731 0.05326,0.7066665 0.08,1.0533396 0.06663,0.8266642 0.146631,1.6533285 0.213263,2.4933235 0.213263,0.026672 0.386526,0.053333 0.559789,0.066675 0.986317,0.079995 1.972633,0.15999 2.958949,0.2399955 0.63979,0.053334 1.093053,0.4800017 1.146316,1.0800011 0.04,0.3999962 -0.133263,0.733328 -0.413158,1.0133263 -0.613158,0.6133407 -1.226211,1.2266709 -1.839369,1.839959 0.05326,0.106667 0.0799,0.1734261 0.119895,0.2400798 1.279579,2.1466077 2.119369,4.4532697 2.532527,6.9199837 0.106632,0.680016 0.186632,1.359926 0.279895,2.039942 0,0.840068 0,1.666659 0,2.506728 -0.02663,0.106667 -0.05326,0.199961 -0.06663,0.306628 -0.133263,0.91999 -0.226631,1.86662 -0.413158,2.773343 -1.599474,7.74668 -8.237266,14.093316 -16.034638,15.359947 -0.746421,0.12004 -1.492948,0.200067 -2.239369,0.306734 -0.839684,0 -1.666001,0 -2.50579,0 -0.09326,-0.02675 -0.173264,-0.05339 -0.266527,-0.06676 C 17.567467,39.799933 16.634519,39.706639 15.741466,39.533319 7.9973473,37.986594 1.5727868,31.319957 0.30654002,23.533263 0.18657797,22.773327 0.09330214,22.013284 0,21.253348 0,20.413279 0,19.586688 0,18.74662 0.13328847,17.866643 0.22657798,16.973293 0.38652436,16.093317 1.8793639,8.1199927 8.5171349,1.626666 16.501149,0.3066693 17.24757,0.18667152 17.993991,0.10666598 18.740413,0 Z m 9.956635,4.6799967 C 22.499151,0.94666098 12.62241,1.2933341 6.3978709,8.7466537 0.51982652,15.786688 1.0129741,26.466659 8.0372926,32.999989 14.821674,39.306612 25.484836,39.213317 32.242523,32.706628 38.933684,26.266593 38.733789,16.826613 35.281577,11.2933 c -0.399895,0.413401 -0.786421,0.813323 -1.172948,1.213351 -0.333263,0.346641 -0.71979,0.479949 -1.199579,0.413295 -0.533158,-0.06665 -1.066316,-0.07992 -1.639474,-0.133307 4.052001,6.506689 1.719474,14.106689 -3.185581,17.840035 -4.825054,3.67996 -11.63611,3.613306 -16.474533,-0.253348 C 6.8110711,26.533313 5.2649231,19.826663 7.9440295,14.253337 9.676788,10.666671 12.475779,8.2666625 16.314517,7.1599894 c 3.825475,-1.1066626 7.437582,-0.5066631 10.889794,1.5600028 -0.04,-0.5999995 -0.06663,-1.1200039 -0.133369,-1.6399978 -0.06663,-0.5066737 0.08,-0.9200005 0.453264,-1.2666631 0.399789,-0.3466732 0.773053,-0.7333385 1.172842,-1.1333346 z M 26.831047,11.426608 C 23.312204,8.3599883 16.874412,7.7866609 12.409252,12.039969 7.9307031,16.306651 7.8373768,23.333302 12.182621,27.759931 c 4.251896,4.333336 11.329583,4.346708 15.608111,0.01337 4.398528,-4.466642 3.90537,-10.986704 0.773053,-14.613278 -1.106316,1.106578 -2.199264,2.213262 -3.30558,3.319946 2.066001,3.226651 0.893053,6.879971 -1.532738,8.640029 -2.545895,1.83998 -6.024634,1.559993 -8.237266,-0.680015 -2.185896,-2.226635 -2.425896,-5.73338 -0.55979,-8.226629 1.866001,-2.493355 5.504739,-3.466732 8.597056,-1.480071 1.106316,-1.106684 2.199264,-2.199995 3.30558,-3.306678 z m -4.998317,5.093377 c -1.586211,-0.973376 -3.86537,-0.453309 -5.02495,1.106683 -1.239579,1.653287 -0.999684,3.959948 0.533158,5.333352 1.546106,1.386672 3.852002,1.359926 5.384845,-0.06676 1.479474,-1.373298 1.532842,-3.586666 0.759789,-4.706617 -0.09337,0.09329 -0.186631,0.173321 -0.28,0.266615 -0.759684,0.760042 -1.532842,1.520084 -2.292527,2.293394 -0.319895,0.320001 -0.706421,0.493322 -1.159579,0.386655 -0.439895,-0.106667 -0.733158,-0.373282 -0.866422,-0.813323 -0.146631,-0.480055 0,-0.866709 0.333264,-1.213351 0.853053,-0.839963 1.719369,-1.706672 2.612422,-2.586648 z M 32.242523,4.5333269 c -0.06663,0.013331 -0.09326,0.013331 -0.106526,0.026672 -0.853053,0.8533257 -1.719474,1.706662 -2.559159,2.5599983 -0.06674,0.066664 -0.12,0.186662 -0.12,0.266657 0.08,0.9733341 0.159895,1.9333374 0.239895,2.9200018 0.986316,0.08003 1.919369,0.173321 2.865685,0.239975 0.12,0.01337 0.266632,-0.08003 0.359895,-0.159948 0.813158,-0.7866825 1.599474,-1.6000266 2.399264,-2.4000293 0.05326,-0.053333 0.09326,-0.1333286 0.16,-0.2133236 C 35.121682,7.7333274 34.815051,7.7066553 34.508524,7.6799938 34.201892,7.6533218 33.881998,7.6266603 33.575471,7.5999883 32.86905,7.5466548 32.455892,7.1333279 32.402523,6.4266615 32.349263,5.79999 32.295892,5.1733291 32.242523,4.5333269 Z"
     fill="white"
     id="path2"
     style="fill:#000000;stroke-width:1.05281" />
</svg>
