<svg width="16" height="16" viewBox="0 0 16 16" fill="none" xmlns="http://www.w3.org/2000/svg">
<path d="M1.54839 4.09677C2.40323 4.09677 3.09677 3.40323 3.09677 2.54839C3.09677 1.69355 2.40323 1 1.54839 1C0.693548 1 0 1.69355 0 2.54839C0 3.40323 0.693548 4.09677 1.54839 4.09677ZM5.67742 1.51613C5.10645 1.51613 4.64516 1.97742 4.64516 2.54839C4.64516 3.11935 5.10645 3.58065 5.67742 3.58065H14.9677C15.5387 3.58065 16 3.11935 16 2.54839C16 1.97742 15.5387 1.51613 14.9677 1.51613H5.67742ZM5.67742 6.67742C5.10645 6.67742 4.64516 7.13871 4.64516 7.70968C4.64516 8.28064 5.10645 8.74194 5.67742 8.74194H14.9677C15.5387 8.74194 16 8.28064 16 7.70968C16 7.13871 15.5387 6.67742 14.9677 6.67742H5.67742ZM5.67742 11.8387C5.10645 11.8387 4.64516 12.3 4.64516 12.871C4.64516 13.4419 5.10645 13.9032 5.67742 13.9032H14.9677C15.5387 13.9032 16 13.4419 16 12.871C16 12.3 15.5387 11.8387 14.9677 11.8387H5.67742ZM1.54839 14.4194C2.40323 14.4194 3.09677 13.7258 3.09677 12.871C3.09677 12.0161 2.40323 11.3226 1.54839 11.3226C0.693548 11.3226 0 12.0161 0 12.871C0 13.7258 0.693548 14.4194 1.54839 14.4194ZM3.09677 7.70968C3.09677 6.85484 2.40323 6.16129 1.54839 6.16129C0.693548 6.16129 0 6.85484 0 7.70968C0 8.56452 0.693548 9.25806 1.54839 9.25806C2.40323 9.25806 3.09677 8.56452 3.09677 7.70968Z" fill="#6E6CFF"/>
</svg>
