<svg width="39" height="39" viewBox="0 0 39 39" fill="none" xmlns="http://www.w3.org/2000/svg">
<path d="M18.1486 0.950531C18.9464 0.950531 19.7314 0.950531 20.5291 0.950531C20.6304 0.975856 20.7191 1.00118 20.8204 1.01384C23.3909 1.20378 25.8221 1.90021 28.1013 3.09048C28.4938 3.29308 28.8737 3.50834 29.2916 3.73627C29.912 3.11581 30.4945 2.49535 31.1023 1.90021C31.4442 1.55833 31.8493 1.48235 32.2925 1.65963C32.7231 1.82424 32.951 2.16613 32.989 2.62197C33.027 2.9512 33.0396 3.29308 33.065 3.62231C33.1283 4.40738 33.2043 5.19245 33.2676 5.99018C33.4702 6.01551 33.6348 6.04083 33.7994 6.0535C34.7364 6.12947 35.6734 6.20544 36.6104 6.28142C37.2182 6.33207 37.6488 6.73727 37.6994 7.30708C37.7374 7.68695 37.5728 8.00351 37.3069 8.26942C36.7244 8.8519 36.142 9.43437 35.5595 10.0168C35.6101 10.1181 35.6354 10.1815 35.6734 10.2448C36.889 12.2834 37.6868 14.474 38.0793 16.8166C38.1806 17.4624 38.2566 18.1081 38.3452 18.7539C38.3452 19.5517 38.3452 20.3367 38.3452 21.1345C38.3199 21.2358 38.2946 21.3244 38.2819 21.4257C38.1553 22.2994 38.0666 23.1984 37.8894 24.0595C36.3699 31.4164 30.064 37.4437 22.6565 38.6466C21.9474 38.7606 21.2382 38.8366 20.5291 38.9379C19.7314 38.9379 18.9464 38.9379 18.1486 38.9379C18.06 38.9125 17.984 38.8872 17.8954 38.8745C17.0343 38.7479 16.148 38.6593 15.2996 38.4947C7.94269 37.0258 1.83936 30.6946 0.636426 23.2997C0.522464 22.578 0.433852 21.8562 0.345215 21.1345C0.345215 20.3367 0.345215 19.5517 0.345215 18.7539C0.471839 17.9182 0.560464 17.0698 0.712413 16.2341C2.13061 8.66196 8.43649 2.49535 16.0213 1.24177C16.7304 1.12781 17.4395 1.05183 18.1486 0.950531ZM27.6074 5.39505C21.7194 1.84956 12.3365 2.17879 6.42319 9.25709C0.83905 15.9429 1.30754 26.0855 7.98064 32.2901C14.4258 38.2794 24.5558 38.1908 30.9756 32.0115C37.3322 25.8955 37.1423 16.9305 33.8627 11.6756C33.4828 12.0682 33.1156 12.448 32.7484 12.8279C32.4318 13.1571 32.0646 13.2837 31.6088 13.2204C31.1023 13.1571 30.5958 13.1445 30.0513 13.0938C33.9007 19.2731 31.6848 26.4907 27.025 30.0362C22.4412 33.531 15.9707 33.4677 11.3742 29.7956C6.81573 26.1488 5.34689 19.7796 7.89204 14.4867C9.53816 11.0805 12.1972 8.80125 15.844 7.75026C19.4782 6.69928 22.9097 7.26909 26.1893 9.23177C26.1513 8.66196 26.126 8.16812 26.0626 7.67429C25.9993 7.19311 26.1386 6.80058 26.4932 6.47136C26.873 6.14213 27.2276 5.77492 27.6074 5.39505ZM25.8347 11.8022C22.4918 8.88988 16.3759 8.3454 12.134 12.3847C7.87938 16.4367 7.79072 23.1098 11.9187 27.3137C15.958 31.429 22.6818 31.4417 26.7464 27.3264C30.925 23.0845 30.4565 16.8925 27.4808 13.4484C26.4298 14.4993 25.3915 15.5503 24.3405 16.6013C26.3032 19.6656 25.1889 23.1351 22.8844 24.8066C20.4658 26.554 17.161 26.2881 15.059 24.1608C12.9824 22.0462 12.7544 18.7159 14.5272 16.3481C16.2999 13.9802 19.7567 13.0558 22.6944 14.9425C23.7454 13.8915 24.7837 12.8532 25.8347 11.8022ZM21.0863 16.6393C19.5794 15.7149 17.4142 16.2088 16.3126 17.6903C15.135 19.2604 15.3629 21.451 16.8191 22.7553C18.2879 24.0722 20.4785 24.0468 21.9347 22.6919C23.3402 21.3877 23.3909 19.2857 22.6565 18.2221C22.5678 18.3107 22.4792 18.3867 22.3905 18.4753C21.6688 19.1971 20.9343 19.9189 20.2126 20.6533C19.9087 20.9572 19.5415 21.1218 19.111 21.0205C18.6931 20.9192 18.4145 20.666 18.2879 20.2481C18.1486 19.7922 18.2879 19.425 18.6045 19.0958C19.4149 18.2981 20.2379 17.475 21.0863 16.6393ZM30.9756 5.25576C30.9123 5.26842 30.887 5.26842 30.8744 5.28109C30.064 6.09148 29.2409 6.90188 28.4432 7.71228C28.3798 7.77559 28.3292 7.88955 28.3292 7.96552C28.4052 8.88988 28.4811 9.80158 28.5571 10.7386C29.4941 10.8146 30.3805 10.9032 31.2795 10.9665C31.3935 10.9792 31.5328 10.8905 31.6214 10.8146C32.3939 10.0675 33.1409 9.29508 33.9007 8.53533C33.9513 8.48468 33.9893 8.40871 34.0527 8.33274C33.7108 8.29475 33.4195 8.26942 33.1283 8.2441C32.837 8.21877 32.5331 8.19345 32.2419 8.16812C31.5708 8.11747 31.1783 7.72494 31.1276 7.05383C31.077 6.45869 31.0263 5.86356 30.9756 5.25576Z" fill="white"/>
</svg>
