<svg width="16" height="16" fill="none" xmlns="http://www.w3.org/2000/svg"><path d="M1.548 4.097a1.549 1.549 0 1 0 0-3.098 1.549 1.549 0 0 0 0 3.098zm4.13-2.58a1.031 1.031 0 1 0 0 2.064h9.29a1.031 1.031 0 1 0 0-2.065h-9.29zm0 5.16a1.031 1.031 0 1 0 0 2.065h9.29a1.031 1.031 0 1 0 0-2.065h-9.29zm0 5.162a1.031 1.031 0 1 0 0 2.064h9.29a1.031 1.031 0 1 0 0-2.064h-9.29zm-4.13 2.58a1.549 1.549 0 1 0 0-3.097 1.549 1.549 0 0 0 0 3.097zm1.549-6.71a1.549 1.549 0 1 0-3.098.001 1.549 1.549 0 0 0 3.098 0z" fill="#6E6CFF"/></svg>