<?xml version="1.0" encoding="UTF-8" standalone="no"?>
<svg
   width="40"
   height="40"
   viewBox="0 0 40 40"
   fill="none"
   version="1.1"
   id="svg4"
   sodipodi:docname="Zahnmedizin.svg"
   inkscape:version="1.2.2 (732a01da63, 2022-12-09)"
   xmlns:inkscape="http://www.inkscape.org/namespaces/inkscape"
   xmlns:sodipodi="http://sodipodi.sourceforge.net/DTD/sodipodi-0.dtd"
   xmlns="http://www.w3.org/2000/svg"
   xmlns:svg="http://www.w3.org/2000/svg">
  <defs
     id="defs8" />
  <sodipodi:namedview
     id="namedview6"
     pagecolor="#ffffff"
     bordercolor="#000000"
     borderopacity="0.25"
     inkscape:showpageshadow="2"
     inkscape:pageopacity="0.0"
     inkscape:pagecheckerboard="0"
     inkscape:deskcolor="#d1d1d1"
     showgrid="false"
     inkscape:zoom="7.6784544"
     inkscape:cx="44.214627"
     inkscape:cy="26.177143"
     inkscape:window-width="1920"
     inkscape:window-height="1027"
     inkscape:window-x="-8"
     inkscape:window-y="-8"
     inkscape:window-maximized="1"
     inkscape:current-layer="svg4" />
  <path
     d="m 27.981773,40 c -0.257263,0 -0.514421,0 -0.785999,0 -1.457684,-0.285606 -2.272209,-1.271079 -2.743893,-2.599279 -0.242948,-0.714068 -0.457263,-1.442442 -0.614526,-2.170817 -0.442948,-2.028066 -0.814526,-4.070334 -1.271894,-6.098401 -0.228632,-0.999674 -0.557263,-1.985147 -1.243263,-2.784949 -0.771684,-0.885432 -1.900736,-0.899738 -2.629577,0.01431 -0.371579,0.471276 -0.70021,1.028287 -0.871684,1.599499 -0.428737,1.471056 -0.757473,2.970619 -1.10042,4.455982 -0.357263,1.542483 -0.628842,3.113475 -1.043263,4.627345 -0.40021,1.470948 -1.229052,2.642091 -2.872525,2.95631 -0.257263,0 -0.51442,0 -0.785999,0 C 10.746836,39.714394 9.7607628,39.000221 8.9175843,38.043361 7.7171429,36.672347 6.873975,35.101355 6.0879649,33.473242 4.5874079,30.316953 3.458419,27.032114 2.4866301,23.675847 1.5863043,20.44813 0.77171429,17.191904 0.28581983,13.878452 0.18578305,13.207304 0.10003699,12.550252 0,11.878999 0,11.307787 0,10.736469 0,10.165257 0.10003699,9.6082252 0.17149253,9.0369498 0.3001114,8.47996 0.94320682,5.7378465 2.4294723,3.5384373 4.7446183,1.9531602 7.6313956,-0.01773878 10.761152,-0.5033215 14.119465,0.52497179 c 1.543473,0.47129746 2.886841,1.35677111 4.315893,2.07087061 0.728841,0.3713301 1.529157,0.6283966 2.315156,0.8997488 0.157263,0.057132 0.428737,-0.057121 0.586,-0.1713742 0.743052,-0.5141542 1.457683,-1.0997046 2.215051,-1.5852877 1.586315,-1.02829774 3.329788,-1.68525813 5.230524,-1.72810431 3.08684,-0.0714089 5.773575,0.99972981 7.974416,3.17056781 1.90063,1.8709254 2.972525,4.170302 3.201156,6.8410082 0.142947,1.599605 -0.1,3.170596 -0.371579,4.727281 -0.800315,4.613039 -2.015051,9.126142 -3.572734,13.553511 -0.957474,2.727828 -2.043578,5.398534 -3.572735,7.869264 C 31.368719,37.914812 30.139772,39.50011 27.981773,40 Z M 12.404624,36.957953 c 0.214316,-0.671254 0.442948,-1.185345 0.557368,-1.713847 0.38579,-1.842292 0.728842,-3.698994 1.114631,-5.541285 0.385895,-1.813784 0.900316,-3.570445 2.015052,-5.112929 1.957893,-2.685013 5.902207,-2.685013 7.845785,0.01431 1.028947,1.428136 1.557683,3.056248 1.929262,4.727281 0.443052,2.027961 0.814631,4.070334 1.257578,6.112602 0.100105,0.471277 0.314421,0.914045 0.514526,1.499564 0.414421,-0.357034 0.757368,-0.614132 1.043263,-0.928246 0.885999,-0.956965 1.514841,-2.070881 2.100735,-3.227718 1.600631,-3.199104 2.743893,-6.569677 3.729998,-9.997266 C 35.541769,19.205667 36.442084,15.577996 36.842189,11.8648 37.185242,8.6656303 35.6704,5.6378686 32.826402,4.0954377 30.811456,2.9957331 28.710615,2.7529416 26.552721,3.6812614 c -1.143262,0.4855831 -2.129367,1.1853865 -3.08684,1.9708928 -1.400525,1.1425508 -2.78684,2.3136622 -4.215892,3.4133668 -1.157578,0.8854737 -2.458104,1.571012 -3.901472,1.885232 -0.01431,0 -0.02853,0 -0.04284,0.0142 -0.957473,0.199977 -1.872104,-0.542704 -1.872104,-1.5281135 0,-0.714089 0.50021,-1.3567712 1.200421,-1.5138703 C 15.94873,7.6087719 17.077782,6.8518262 18.163886,5.9806381 16.720519,5.2379779 15.362835,4.4381966 13.933783,3.7955144 10.932627,2.4387433 7.431324,3.224239 5.21622,5.6521542 3.4441368,7.5944863 2.8867898,9.8795774 3.2440633,12.450316 c 0.428726,3.184798 1.143273,6.31258 2.0150304,9.411748 1.0432415,3.741809 2.2579776,7.440803 4.0014819,10.925618 0.5716418,1.156837 1.2147364,2.28506 2.0864724,3.227718 0.285789,0.314114 0.643158,0.571212 1.057578,0.942553 z"
     fill="#ffffff"
     id="path2"
     style="fill:#000000;stroke-width:1.0523" />
</svg>
