<svg width="38" height="39" viewBox="0 0 38 39" fill="none" xmlns="http://www.w3.org/2000/svg">
<path d="M26.5827 38.546C26.3383 38.546 26.094 38.546 25.836 38.546C24.4512 38.2745 23.6774 37.3377 23.2293 36.0751C22.9985 35.3963 22.7949 34.7039 22.6455 34.0115C22.2247 32.0836 21.8717 30.1422 21.4372 28.2143C21.22 27.264 20.9078 26.3272 20.2561 25.5669C19.523 24.7252 18.4504 24.7116 17.758 25.5805C17.405 26.0285 17.0928 26.558 16.9299 27.101C16.5226 28.4994 16.2103 29.9249 15.8845 31.3369C15.5451 32.8032 15.2871 34.2966 14.8934 35.7357C14.5132 37.134 13.7258 38.2473 12.1645 38.546C11.9201 38.546 11.6758 38.546 11.4178 38.546C10.2095 38.2745 9.27273 37.5956 8.47171 36.686C7.33129 35.3827 6.53028 33.8893 5.78357 32.3416C4.35804 29.3412 3.2855 26.2186 2.3623 23.0281C1.50699 19.9598 0.733129 16.8644 0.271529 13.7146C0.176494 13.0766 0.0950352 12.452 0 11.8139C0 11.2709 0 10.7278 0 10.1848C0.0950352 9.65528 0.162918 9.11222 0.285106 8.58274C0.896047 5.97606 2.308 3.88528 4.50739 2.3783C7.24983 0.504744 10.2231 0.0431443 13.4135 1.02065C14.8798 1.46867 16.156 2.31041 17.5136 2.98924C18.206 3.34223 18.9663 3.5866 19.713 3.84455C19.8624 3.89886 20.1203 3.79025 20.2697 3.68164C20.9756 3.19288 21.6545 2.63625 22.374 2.17465C23.881 1.19714 25.5373 0.572627 27.343 0.531897C30.2755 0.464015 32.8279 1.48225 34.9187 3.54587C36.7243 5.32439 37.7426 7.5102 37.9598 10.049C38.0956 11.5696 37.8648 13.063 37.6068 14.5428C36.8465 18.928 35.6925 23.2182 34.2127 27.4269C33.3031 30.02 32.2713 32.5588 30.8186 34.9075C29.8003 36.5638 28.6328 38.0708 26.5827 38.546ZM11.7844 35.6542C11.988 35.0161 12.2052 34.5274 12.3139 34.025C12.6804 32.2737 13.0063 30.5087 13.3728 28.7574C13.7394 27.0332 14.2281 25.3633 15.2871 23.897C17.1471 21.3446 20.8942 21.3446 22.7406 23.9106C23.7181 25.2682 24.2204 26.8159 24.5734 28.4044C24.9943 30.3322 25.3473 32.2737 25.7681 34.2151C25.8632 34.6631 26.0668 35.084 26.2569 35.6406C26.6506 35.3012 26.9764 35.0568 27.248 34.7582C28.0897 33.8485 28.6871 32.7896 29.2437 31.6899C30.7643 28.6488 31.8504 25.4447 32.7872 22.1864C33.7647 18.7787 34.62 15.3302 35.0001 11.8004C35.326 8.75924 33.8869 5.88102 31.1851 4.41477C29.2709 3.36938 27.2751 3.13858 25.2251 4.02105C24.139 4.48265 23.2022 5.14789 22.2926 5.8946C20.9621 6.98072 19.6451 8.09399 18.2875 9.13938C17.1878 9.98112 15.9523 10.6328 14.5811 10.9315C14.5675 10.9315 14.554 10.9315 14.5404 10.945C13.6308 11.1351 12.7619 10.4291 12.7619 9.49236C12.7619 8.81354 13.2371 8.2026 13.9023 8.05326C15.1513 7.75458 16.2239 7.03502 17.2557 6.20686C15.8845 5.50088 14.5947 4.7406 13.2371 4.12966C10.386 2.8399 7.05976 3.5866 4.95541 5.8946C3.27193 7.741 2.74245 9.91323 3.08186 12.357C3.48915 15.3845 4.16797 18.3578 4.99614 21.3039C5.98722 24.8609 7.14122 28.3772 8.79755 31.6899C9.34061 32.7896 9.95155 33.8621 10.7797 34.7582C11.0512 35.0568 11.3907 35.3012 11.7844 35.6542Z" fill="white"/>
</svg>
