<svg width="480" height="480" viewBox="0 0 480 480" fill="none" xmlns="http://www.w3.org/2000/svg">
<g clip-path="url(#clip0_6_1436)">
<path d="M451.227 240.137C458.844 279.603 474.285 359.591 437.337 413.101C370.278 510.216 142.224 503.373 45.8949 380.931C37.5661 370.345 -4.21042 315.135 0.346812 239.516C8.25367 108.365 150.968 -7.87934 265.344 14.9521C332.283 28.3134 376.774 86.7685 395.09 110.835C402.638 120.753 437.207 167.509 451.227 240.137Z" fill="#F4F7FA"/>
<path d="M305.329 258.278C317.224 247.174 332.926 229.128 340.077 203.575C349.453 170.063 335.873 153.08 337.558 96.3066C338.618 60.4177 339.721 35.3683 357.853 22.0183C372.063 11.5572 395.035 9.52836 408.938 19.2927C420.503 27.413 427.164 44.6364 429.178 56.9242C430.82 66.9375 429.462 74.2026 435.219 79.4905C441.104 84.8949 447.476 81.8589 452.981 85.8648C464.136 93.9867 457.6 120.784 456.537 125.115C444.775 173.29 400.279 205.688 380.697 219.586C364.517 231.076 339.477 246.38 305.329 258.278Z" fill="url(#paint0_linear_6_1436)"/>
<mask id="mask0_6_1436" style="mask-type:luminance" maskUnits="userSpaceOnUse" x="305" y="12" width="155" height="247">
<path d="M305.329 258.278C317.224 247.174 332.926 229.128 340.077 203.575C349.453 170.063 335.873 153.08 337.558 96.3066C338.618 60.4177 339.721 35.3683 357.853 22.0183C372.063 11.5572 395.035 9.52836 408.938 19.2927C420.503 27.413 427.164 44.6364 429.178 56.9242C430.82 66.9375 429.462 74.2026 435.219 79.4905C441.104 84.8949 447.476 81.8589 452.981 85.8648C464.136 93.9867 457.6 120.784 456.537 125.115C444.775 173.29 400.279 205.688 380.697 219.586C364.517 231.076 339.477 246.38 305.329 258.278Z" fill="white"/>
</mask>
<g mask="url(#mask0_6_1436)">
<g style="mix-blend-mode:soft-light" opacity="0.5">
<path d="M291.772 267.218L291.371 266.154C311.991 258.379 329.738 249.089 344.118 238.548C365.317 223.009 378.534 205.156 383.402 185.487C387.215 170.081 385.916 154.099 384.119 131.977C382.684 114.316 380.078 101.928 377.771 90.9976C374.759 76.7051 372.38 65.4163 374.098 49.0465C375.841 32.4374 381.36 15.935 390.502 6.10352e-05L391.488 0.565876C382.425 16.3634 376.955 32.7155 375.23 49.1677C373.529 65.3597 375.892 76.571 378.883 90.7648C381.193 101.727 383.811 114.152 385.251 131.883C386.991 153.278 388.363 170.173 384.506 185.76C379.572 205.695 366.209 223.764 344.79 239.464C330.327 250.068 312.492 259.41 291.772 267.218Z" fill="white"/>
<path d="M383.668 119.608L383.081 119.35C382.963 119.298 371.209 114.055 359.479 101.926C348.657 90.7325 335.627 71.2103 335.005 41.7701L336.137 41.7459C336.751 70.8174 349.611 90.0826 360.292 101.137C370.384 111.576 380.459 116.828 382.947 118.035C392.686 86.13 409.882 66.1422 422.633 54.9876C436.556 42.7967 448.363 38.1748 448.48 38.1328L448.889 39.1932C448.772 39.2385 437.118 43.8038 423.346 55.8783C410.637 67.0168 393.468 87.0094 383.851 118.997L383.668 119.608Z" fill="white"/>
<path d="M386.124 167.425L385.886 167.085C385.771 166.923 374.198 149.965 359.27 135.238C344.436 120.611 309.602 115.452 309.259 115.402L309.42 114.27C309.773 114.32 344.978 119.536 360.08 134.43C373.91 148.067 384.874 163.606 386.601 166.097C423.173 154.943 462.396 69.5015 462.789 68.6366L463.823 69.107C463.725 69.3253 453.745 91.1641 439.327 114.049C419.927 144.845 402.156 162.764 386.526 167.31L386.124 167.425Z" fill="white"/>
<path d="M350.336 235.17L350.903 234.191C360.279 217.996 358.965 200.961 346.996 183.557C338.035 170.519 326.112 162.167 325.993 162.09L326.639 161.155C326.761 161.239 338.825 169.691 347.912 182.892C359.751 200.09 361.309 217.65 352.45 233.766C356.653 233.169 372.252 230.658 391.774 223.904C412.819 216.629 442.869 202.777 466.509 178.169L512.438 130.354L513.258 131.143L467.33 178.951C443.525 203.731 413.291 217.661 392.12 224.984C369.187 232.915 351.635 235.02 351.461 235.039L350.336 235.17Z" fill="white"/>
</g>
</g>
<path d="M246.219 398.945C280.006 405.03 323.927 407.962 368.469 396.429C379.837 393.487 450.061 375.305 447.504 344.313C446.603 333.396 437.434 330.109 435.974 315.537C434.246 298.267 446.015 291.826 456.741 272.535C463.14 261.023 481.87 227.331 463.824 203.756C453.039 189.669 429.611 179.83 410.288 180.952C381.945 182.597 367.987 207.491 345.101 250.022C324.814 287.726 326.546 298.142 311.463 325.033C300.269 344.992 281.054 371.815 246.219 398.945Z" fill="url(#paint1_linear_6_1436)"/>
<mask id="mask1_6_1436" style="mask-type:luminance" maskUnits="userSpaceOnUse" x="246" y="180" width="226" height="225">
<path d="M246.219 398.945C280.006 405.03 323.927 407.962 368.469 396.429C379.837 393.487 450.061 375.305 447.504 344.313C446.603 333.396 437.434 330.109 435.974 315.537C434.246 298.267 446.015 291.826 456.741 272.535C463.14 261.023 481.87 227.331 463.824 203.756C453.039 189.669 429.611 179.83 410.288 180.952C381.945 182.597 367.987 207.491 345.101 250.022C324.814 287.726 326.546 298.142 311.463 325.033C300.269 344.992 281.054 371.815 246.219 398.945Z" fill="white"/>
</mask>
<g mask="url(#mask1_6_1436)">
<g style="mix-blend-mode:soft-light" opacity="0.5">
<path d="M193.61 405.552C162.265 405.552 130.688 398.314 99.5537 383.973L100.039 382.942C131.019 397.212 162.44 404.414 193.62 404.414C198.02 404.414 202.413 404.27 206.798 403.984C254.074 400.893 298.137 380.523 337.779 343.445C379.055 304.833 405.192 257.777 419.837 225.109C429.988 202.476 433.36 176.049 429.86 146.572L430.992 146.438C434.516 176.122 431.111 202.748 420.877 225.574C406.18 258.346 379.976 305.543 338.559 344.284C298.725 381.547 254.42 402.018 206.874 405.127C202.457 405.404 198.035 405.545 193.61 405.552Z" fill="white"/>
<path d="M385.025 288.994L384.776 288.548C384.702 288.413 377.264 274.957 372.724 255.587C368.532 237.692 366.017 210.937 377.849 185.086L378.883 185.56C367.19 211.102 369.678 237.582 373.823 255.294C377.865 272.546 384.213 285.062 385.526 287.544C465.548 253.272 474.076 199.673 474.786 184.037C474.789 183.784 474.806 183.531 474.836 183.28L475.955 183.484L475.395 183.382L475.955 183.481C475.942 183.565 475.935 183.77 475.921 184.089C475.203 199.922 466.557 254.267 385.495 288.793L385.025 288.994Z" fill="white"/>
<path d="M391.647 352.895C376.774 352.895 359.116 350.461 338.67 343.744L338.383 343.65L338.3 343.357C338.176 342.911 326.043 298.092 340.044 242.426L354.174 186.263L355.275 186.541L341.147 242.704C327.808 295.729 338.297 338.811 339.319 342.761C362.96 350.487 397.851 357.149 430.395 345.347C449.929 338.262 459.47 327.715 459.564 327.61L460.414 328.365C460.317 328.473 450.63 339.196 430.853 346.39C421.26 349.882 408.185 352.895 391.647 352.895Z" fill="white"/>
</g>
</g>
<path d="M462.385 434.924L9.30762 430.978V442.653C9.30762 445.822 11.2831 448.516 13.9602 448.997L142.077 471.994C143.593 472.268 145.138 472.34 146.673 472.211L457.46 445.996C460.234 445.763 462.385 443.06 462.385 439.804V434.924Z" fill="url(#paint2_linear_6_1436)"/>
<path d="M316.534 415.997L14.2935 437.357C8.89242 437.739 4.48877 433.681 4.48877 428.285V212.219C4.49519 209.624 5.53149 207.138 7.36996 205.307C9.20843 203.476 11.6987 202.45 14.2935 202.453H316.534C320.991 202.453 324.593 206.406 324.593 211.282V406.601C324.591 411.475 320.989 415.683 316.534 415.997Z" fill="url(#paint3_linear_6_1436)"/>
<path d="M321.353 415.997L19.1124 437.357C13.7048 437.739 9.30762 433.678 9.30762 428.285V212.219C9.31404 209.624 10.3503 207.138 12.1888 205.307C14.0273 203.476 16.5175 202.45 19.1124 202.453H321.353C325.808 202.453 329.41 206.406 329.41 211.282V406.601C329.41 411.475 325.808 415.683 321.353 415.997Z" fill="url(#paint4_linear_6_1436)"/>
<path d="M311.936 402.226L30.4321 420.78C26.0317 421.07 22.4541 417.736 22.4541 413.334V224.168C22.4575 222.05 23.2982 220.02 24.7929 218.52C26.2875 217.021 28.3147 216.173 30.4321 216.162L311.936 214.997C315.612 214.982 318.585 218.22 318.585 222.231V394.528C318.585 398.537 315.612 401.985 311.936 402.226Z" fill="#E5ECFE"/>
<path d="M180.9 208.364C180.9 210.372 179.345 212.004 177.424 212.009C175.504 212.014 173.939 210.393 173.939 208.377C173.939 206.361 175.501 204.733 177.424 204.731C179.348 204.73 180.9 206.356 180.9 208.364Z" fill="white"/>
<path d="M313.811 415.028L9.30762 437.511L142.077 461.336C143.593 461.609 145.138 461.682 146.673 461.553L462.385 434.924L318.655 415.182C317.05 414.96 315.427 414.909 313.811 415.028Z" fill="url(#paint5_linear_6_1436)"/>
<path style="mix-blend-mode:multiply" opacity="0.3" d="M53.7388 438.076L307.248 419.081L385.706 429.77L134.382 450.077L53.7388 438.076Z" fill="url(#paint6_linear_6_1436)"/>
<g style="mix-blend-mode:soft-light" opacity="0.48">
<path d="M248.532 356.738C225.232 344.201 206.911 360.086 189.23 344.413C178.512 334.911 183.774 327.825 170.584 313.626C155.976 297.898 146.464 303.185 131.785 289.029C113.222 271.132 122.506 257.208 106.516 244.358C87.1168 228.769 66.1962 243.197 47.7313 228.246C39.7662 221.798 35.3965 212.423 33.1139 202.453H15.045C13.524 202.453 12.0652 203.057 10.9893 204.132C9.91338 205.207 9.30847 206.665 9.30762 208.186V432.156C9.30762 435.322 11.878 437.705 15.045 437.48L323.076 415.615C324.588 415.508 325.928 414.626 326.794 413.352C304.246 412.529 290.393 404.97 281.529 397.157C264.209 381.864 267.212 366.789 248.532 356.738Z" fill="white"/>
</g>
<path d="M213.717 55.3157L38.153 48.2026C34.084 48.0409 30.7764 50.8894 30.7764 54.5737V350.298C30.7764 353.982 34.084 356.749 38.153 356.483L213.717 344.953C217.3 344.717 220.197 341.736 220.197 338.293V61.8129C220.2 58.3695 217.303 55.4596 213.717 55.3157Z" fill="url(#paint7_linear_6_1436)"/>
<path d="M211.467 60.0637L38.153 48.2026C34.084 48.0409 30.7764 50.8894 30.7764 54.5737V350.298C30.7764 353.982 34.084 356.749 38.153 356.483L213.717 344.953C217.3 344.717 220.197 341.736 220.197 338.293V61.8129C220.2 58.3695 215.049 60.2092 211.467 60.0637Z" fill="url(#paint8_linear_6_1436)"/>
<path d="M217.29 55.3157L41.7257 48.2026C37.6567 48.0409 34.3491 50.8894 34.3491 54.5737V350.298C34.3491 353.982 37.6567 356.749 41.7257 356.483L217.29 344.953C220.872 344.717 223.769 341.736 223.769 338.293V61.8129C223.769 58.3695 220.872 55.4596 217.29 55.3157Z" fill="#D8DEE8"/>
<g style="mix-blend-mode:multiply" opacity="0.3">
<path d="M145.819 271.198C142.84 237.683 165.157 223.757 156.651 193.439C146.127 155.905 105.493 154.23 91.5966 117.234C86.2618 103.038 84.1602 81.5986 99.413 50.5435L41.7257 48.2026C37.6567 48.0409 34.3491 50.8894 34.3491 54.5737V350.298C34.3491 353.982 37.6567 356.749 41.7257 356.483L198.495 346.188C158.961 318.376 147.651 291.791 145.819 271.198Z" fill="#D8DEE8"/>
</g>
<path d="M217.29 58.9967L41.7255 52.1228C40.0572 52.0566 38.6992 53.2318 38.6992 54.7401V350.021C38.6992 351.531 40.0572 352.671 41.7255 352.562L217.29 341.27C218.761 341.177 219.956 339.948 219.956 338.533V61.6673C219.956 60.2528 218.761 59.0549 217.29 58.9967Z" fill="url(#paint9_linear_6_1436)"/>
<path d="M132.24 188.492C99.3338 188.764 71.9839 163.748 71.9839 132.737C71.9839 101.725 99.3338 77.3453 132.24 78.3686C164.399 79.3693 190.024 104.359 190.024 134.097C190.024 163.834 164.411 188.234 132.24 188.492Z" fill="#D8DEE8"/>
<path d="M186.12 134.051C186.12 161.821 162.257 184.49 132.245 184.696C101.578 184.902 76.2227 161.663 76.2227 132.785C76.2227 103.908 101.578 81.2591 132.24 82.166C162.257 83.0584 186.12 106.281 186.12 134.051Z" fill="white"/>
<path opacity="0.74" d="M197.813 208.031L63.4691 210.103C59.691 210.161 56.6211 213.002 56.6211 216.448C56.6211 219.893 59.6927 222.627 63.4691 222.553L197.81 219.908C201.235 219.84 204.006 217.134 204.006 213.865C204.017 210.588 201.238 207.979 197.813 208.031Z" fill="url(#paint10_linear_6_1436)"/>
<path d="M197.813 231.397L87.8831 234.021C84.1649 234.11 81.1499 236.952 81.1499 240.368C81.1499 243.784 84.1681 246.469 87.8831 246.364L197.813 243.265C201.238 243.169 204.009 240.439 204.009 237.17C204.017 233.9 201.238 231.315 197.813 231.397Z" fill="#D8DEE8"/>
<path d="M63.5335 247.051H63.4075C59.665 247.156 56.6177 244.571 56.6177 241.276V240.73C56.6177 237.435 59.6601 234.692 63.4075 234.603H63.5335C67.2663 234.514 70.2861 237.099 70.2861 240.379V240.924C70.2845 244.202 67.2647 246.946 63.5335 247.051Z" fill="#6165D7"/>
<path d="M63.4689 248.22C58.9893 248.347 55.3325 245.127 55.3325 241.04C55.3325 236.954 58.9893 233.542 63.4689 233.442C67.9486 233.342 71.552 236.559 71.552 240.623C71.552 244.687 67.9356 248.094 63.4689 248.22ZM63.4689 235.772C60.3974 235.848 57.9078 238.181 57.9078 240.974C57.9078 243.768 60.4055 245.973 63.4689 245.887C66.5324 245.801 69.0091 243.462 69.0091 240.686C69.0091 237.911 66.5276 235.697 63.4689 235.77V235.772Z" fill="#D8DEE8"/>
<path d="M197.813 252.538L87.8831 256.007C84.1649 256.125 81.1499 258.99 81.1499 262.407C81.1499 265.823 84.1681 268.484 87.8831 268.351L197.813 264.405C201.238 264.282 204.009 261.533 204.009 258.262C204.017 254.993 201.238 252.429 197.813 252.538Z" fill="#D8DEE8"/>
<path d="M63.5335 269.224H63.4075C59.665 269.359 56.6177 266.799 56.6177 263.502V262.966C56.6177 259.672 59.6601 256.904 63.4075 256.786H63.5335C67.2663 256.668 70.2861 259.23 70.2861 262.511V263.055C70.2845 266.324 67.2647 269.09 63.5335 269.224Z" fill="#6165D7"/>
<path d="M63.4689 270.393C58.9893 270.555 55.3325 267.364 55.3325 263.28C55.3325 259.196 58.9893 255.755 63.4689 255.614C67.9486 255.473 71.552 258.669 71.552 262.727C71.552 266.785 67.9356 270.231 63.4689 270.393ZM63.4689 257.945C60.3974 258.044 57.9078 260.396 57.9078 263.19C57.9078 265.983 60.4055 268.169 63.4689 268.06C66.5324 267.952 69.0091 265.598 69.0091 262.816C69.0091 260.034 66.5276 257.848 63.4689 257.945Z" fill="#D8DEE8"/>
<path d="M197.813 273.678L87.8831 277.995C84.1649 278.14 81.1499 281.027 81.1499 284.445C81.1499 287.861 84.1681 290.499 87.8831 290.337L197.813 285.546C201.238 285.397 204.009 282.626 204.009 279.356C204.017 276.085 201.238 273.544 197.813 273.678Z" fill="#D8DEE8"/>
<path d="M63.4689 292.568C58.9893 292.765 55.3325 289.602 55.3325 285.513C55.3325 281.425 58.9893 277.959 63.4689 277.786C67.9486 277.613 71.552 280.778 71.552 284.842C71.552 288.907 67.9356 292.371 63.4689 292.568ZM63.4689 280.12C60.3974 280.242 57.9078 282.613 57.9078 285.407C57.9078 288.2 60.4055 290.366 63.4689 290.234C66.5324 290.101 69.0091 287.73 69.0091 284.948C69.0091 282.165 66.5276 279.997 63.4689 280.12Z" fill="#D8DEE8"/>
<path d="M197.813 294.814L87.8831 299.976C84.1649 300.15 81.1499 303.062 81.1499 306.478C81.1499 309.895 84.1681 312.509 87.8831 312.318L197.813 306.681C201.238 306.507 204.009 303.713 204.009 300.443C204.017 297.179 201.238 294.652 197.813 294.814Z" fill="#D8DEE8"/>
<path d="M63.5335 313.567H63.4075C59.665 313.757 56.6177 311.243 56.6177 307.949V307.401C56.6177 304.106 59.6601 301.293 63.4075 301.117H63.5335C67.2663 300.942 70.2861 303.458 70.2861 306.738V307.283C70.2845 310.568 67.2647 313.381 63.5335 313.567Z" fill="#6165D7"/>
<path d="M63.4689 314.743C58.9893 314.975 55.3325 311.833 55.3325 307.751C55.3325 303.67 58.9893 300.168 63.4689 299.959C67.9486 299.751 71.552 302.89 71.552 306.954C71.552 311.019 67.9356 314.512 63.4689 314.743ZM63.4689 302.295C60.3974 302.441 57.9078 304.832 57.9078 307.63C57.9078 310.429 60.4055 312.571 63.4689 312.415C66.5324 312.26 69.0091 309.869 69.0091 307.081C69.0091 304.292 66.5276 302.148 63.4689 302.294V302.295Z" fill="#D8DEE8"/>
<mask id="mask2_6_1436" style="mask-type:luminance" maskUnits="userSpaceOnUse" x="80" y="85" width="103" height="96">
<path d="M182.193 134.006C182.193 159.755 160.045 180.749 132.24 180.899C103.868 181.051 80.4434 159.532 80.4434 132.836C80.4434 106.139 103.873 85.1584 132.24 85.9635C160.055 86.7556 182.193 108.257 182.193 134.006Z" fill="white"/>
</mask>
<g mask="url(#mask2_6_1436)">
<path d="M125.639 97.8068C115.903 97.5271 106.663 102.548 102.56 109.53C97.6131 117.937 104.217 122.14 100.992 135.82C98.0221 148.415 91.0836 150.567 92.2314 158.836C93.4875 167.889 102.964 173.634 106.708 175.904C123.542 186.105 149.818 185.678 163.149 172.509C164.263 171.41 173.46 162.324 170.977 153.971C168.755 146.493 159.23 146.441 157.256 138.67C155.557 131.976 162.066 129.812 161.447 120.11C161.325 118.212 160.752 109.225 153.507 105.075C148.68 102.307 143.376 103.101 141.433 103.488C139.099 101.753 133.413 98.0299 125.639 97.8068Z" fill="url(#paint11_linear_6_1436)"/>
<path d="M76.2222 168.071C76.2222 168.071 125.45 141.386 186.12 167.984C186.12 167.984 178.403 190.778 132.244 192.33C84.5186 193.937 76.2222 168.071 76.2222 168.071Z" fill="url(#paint12_linear_6_1436)"/>
<path d="M123.534 133.33L121.691 146.071C121.062 150.418 117.839 154.052 113.353 155.46L98.3521 160.166C98.3521 160.166 127.05 173.005 163.233 160.166L146.744 154.817C142.056 153.176 138.869 149.052 138.661 144.367L138.187 133.494L123.534 133.33Z" fill="url(#paint13_linear_6_1436)"/>
<path d="M145.872 122.35C145.872 133.097 138.909 144.593 130.272 144.527C121.583 144.462 114.499 132.726 114.499 121.862C114.499 110.998 121.583 105.201 130.272 105.387C138.909 105.573 145.872 111.601 145.872 122.35Z" fill="url(#paint14_linear_6_1436)"/>
<path d="M137.182 112.489C132.493 112.626 125.38 113.546 120.459 118.273C112.194 126.211 116.117 139.022 112.436 139.743C109.158 140.39 104.078 131.24 104.161 121.259C104.229 112.898 107.308 103.104 115.315 100.804C120.021 99.4541 121.405 101.848 136.567 103.567C145.396 104.567 141.933 108.181 143.918 109.592C152.737 115.855 151.623 135.889 146.88 136.095C144.629 136.192 141.521 130.917 137.182 112.489Z" fill="url(#paint15_linear_6_1436)"/>
</g>
<g style="mix-blend-mode:soft-light" opacity="0.35">
<path d="M145.819 271.198C142.84 237.683 165.157 223.757 156.651 193.439C146.126 155.905 105.493 154.23 91.5964 117.234C86.4847 103.625 84.3362 83.3542 97.6232 54.315L41.7255 52.1228C40.0572 52.0566 38.6992 53.2318 38.6992 54.7401V350.021C38.6992 351.531 40.0572 352.671 41.7255 352.562L193.787 342.782C158.044 316.192 147.575 290.934 145.819 271.198Z" fill="white"/>
</g>
<g style="mix-blend-mode:multiply" opacity="0.3">
<path d="M145.819 271.198C142.84 237.683 165.157 223.757 156.651 193.439C146.127 155.905 105.493 154.23 91.5966 117.234C86.2618 103.038 84.1602 81.5986 99.413 50.5435L41.7257 48.2026C37.6567 48.0409 34.3491 50.8894 34.3491 54.5737V350.298C34.3491 353.982 37.6567 356.749 41.7257 356.483L198.495 346.188C158.961 318.376 147.651 291.791 145.819 271.198Z" fill="#D8DEE8"/>
</g>
<path d="M217.29 58.9967L41.7255 52.1228C40.0572 52.0566 38.6992 53.2318 38.6992 54.7401V350.021C38.6992 351.531 40.0572 352.671 41.7255 352.562L217.29 341.27C218.761 341.177 219.956 339.948 219.956 338.533V61.6673C219.956 60.2528 218.761 59.0549 217.29 58.9967Z" fill="url(#paint16_linear_6_1436)"/>
<path d="M132.24 188.492C99.3338 188.764 71.9839 163.748 71.9839 132.737C71.9839 101.725 99.3338 77.3453 132.24 78.3686C164.399 79.3693 190.024 104.359 190.024 134.097C190.024 163.834 164.411 188.234 132.24 188.492Z" fill="#D8DEE8"/>
<path d="M186.12 134.051C186.12 161.821 162.257 184.49 132.245 184.696C101.578 184.902 76.2227 161.663 76.2227 132.785C76.2227 103.908 101.578 81.2591 132.24 82.166C162.257 83.0584 186.12 106.281 186.12 134.051Z" fill="white"/>
<path opacity="0.74" d="M197.813 208.031L63.4691 210.103C59.691 210.161 56.6211 213.002 56.6211 216.448C56.6211 219.893 59.6927 222.627 63.4691 222.553L197.81 219.908C201.235 219.84 204.006 217.134 204.006 213.865C204.017 210.588 201.238 207.979 197.813 208.031Z" fill="url(#paint17_linear_6_1436)"/>
<path d="M197.813 231.397L87.8831 234.021C84.1649 234.11 81.1499 236.952 81.1499 240.368C81.1499 243.784 84.1681 246.469 87.8831 246.364L197.813 243.265C201.238 243.169 204.009 240.439 204.009 237.17C204.017 233.9 201.238 231.315 197.813 231.397Z" fill="#D8DEE8"/>
<path d="M63.5335 247.051H63.4075C59.665 247.156 56.6177 244.571 56.6177 241.276V240.73C56.6177 237.435 59.6601 234.692 63.4075 234.603H63.5335C67.2663 234.514 70.2861 237.099 70.2861 240.379V240.924C70.2845 244.202 67.2647 246.946 63.5335 247.051Z" fill="#6165D7"/>
<path d="M63.4689 248.22C58.9893 248.347 55.3325 245.127 55.3325 241.04C55.3325 236.954 58.9893 233.542 63.4689 233.442C67.9486 233.342 71.552 236.559 71.552 240.623C71.552 244.687 67.9356 248.094 63.4689 248.22ZM63.4689 235.772C60.3974 235.848 57.9078 238.181 57.9078 240.974C57.9078 243.768 60.4055 245.973 63.4689 245.887C66.5324 245.801 69.0091 243.462 69.0091 240.686C69.0091 237.911 66.5276 235.697 63.4689 235.77V235.772Z" fill="#D8DEE8"/>
<path d="M197.813 252.538L87.8831 256.007C84.1649 256.125 81.1499 258.99 81.1499 262.407C81.1499 265.823 84.1681 268.484 87.8831 268.351L197.813 264.405C201.238 264.282 204.009 261.533 204.009 258.262C204.017 254.993 201.238 252.429 197.813 252.538Z" fill="#D8DEE8"/>
<path d="M63.5335 269.224H63.4075C59.665 269.359 56.6177 266.799 56.6177 263.502V262.966C56.6177 259.672 59.6601 256.904 63.4075 256.786H63.5335C67.2663 256.668 70.2861 259.23 70.2861 262.511V263.055C70.2845 266.324 67.2647 269.09 63.5335 269.224Z" fill="#6165D7"/>
<path d="M63.4689 270.393C58.9893 270.555 55.3325 267.364 55.3325 263.28C55.3325 259.196 58.9893 255.755 63.4689 255.614C67.9486 255.473 71.552 258.669 71.552 262.727C71.552 266.785 67.9356 270.231 63.4689 270.393ZM63.4689 257.945C60.3974 258.044 57.9078 260.396 57.9078 263.19C57.9078 265.983 60.4055 268.169 63.4689 268.06C66.5324 267.952 69.0091 265.598 69.0091 262.816C69.0091 260.034 66.5276 257.848 63.4689 257.945Z" fill="#D8DEE8"/>
<path d="M197.813 273.678L87.8831 277.995C84.1649 278.14 81.1499 281.027 81.1499 284.445C81.1499 287.861 84.1681 290.499 87.8831 290.337L197.813 285.546C201.238 285.397 204.009 282.626 204.009 279.356C204.017 276.085 201.238 273.544 197.813 273.678Z" fill="#D8DEE8"/>
<path d="M63.4689 292.568C58.9893 292.765 55.3325 289.602 55.3325 285.513C55.3325 281.425 58.9893 277.959 63.4689 277.786C67.9486 277.613 71.552 280.778 71.552 284.842C71.552 288.907 67.9356 292.371 63.4689 292.568ZM63.4689 280.12C60.3974 280.242 57.9078 282.613 57.9078 285.407C57.9078 288.2 60.4055 290.366 63.4689 290.234C66.5324 290.101 69.0091 287.73 69.0091 284.948C69.0091 282.165 66.5276 279.997 63.4689 280.12Z" fill="#D8DEE8"/>
<path d="M197.813 294.814L87.8831 299.976C84.1649 300.15 81.1499 303.062 81.1499 306.478C81.1499 309.895 84.1681 312.509 87.8831 312.318L197.813 306.681C201.238 306.507 204.009 303.713 204.009 300.443C204.017 297.179 201.238 294.652 197.813 294.814Z" fill="#D8DEE8"/>
<path d="M63.5335 313.567H63.4075C59.665 313.757 56.6177 311.243 56.6177 307.949V307.401C56.6177 304.106 59.6601 301.293 63.4075 301.117H63.5335C67.2663 300.942 70.2861 303.458 70.2861 306.738V307.283C70.2845 310.568 67.2647 313.381 63.5335 313.567Z" fill="#6165D7"/>
<path d="M63.4689 314.743C58.9893 314.975 55.3325 311.833 55.3325 307.751C55.3325 303.67 58.9893 300.168 63.4689 299.959C67.9486 299.751 71.552 302.89 71.552 306.954C71.552 311.019 67.9356 314.512 63.4689 314.743ZM63.4689 302.295C60.3974 302.441 57.9078 304.832 57.9078 307.63C57.9078 310.429 60.4055 312.571 63.4689 312.415C66.5324 312.26 69.0091 309.869 69.0091 307.081C69.0091 304.292 66.5276 302.148 63.4689 302.294V302.295Z" fill="#D8DEE8"/>
<mask id="mask3_6_1436" style="mask-type:luminance" maskUnits="userSpaceOnUse" x="80" y="85" width="103" height="96">
<path d="M182.193 134.006C182.193 159.755 160.045 180.749 132.24 180.899C103.868 181.051 80.4434 159.532 80.4434 132.836C80.4434 106.139 103.873 85.1584 132.24 85.9635C160.055 86.7556 182.193 108.257 182.193 134.006Z" fill="white"/>
</mask>
<g mask="url(#mask3_6_1436)">
<path d="M125.639 97.8068C115.903 97.5271 106.663 102.548 102.56 109.53C97.6131 117.937 104.217 122.14 100.992 135.82C98.0221 148.415 91.0836 150.567 92.2314 158.836C93.4875 167.889 102.964 173.634 106.708 175.904C123.542 186.105 149.818 185.678 163.149 172.509C164.263 171.41 173.46 162.324 170.977 153.971C168.755 146.493 159.23 146.441 157.256 138.67C155.557 131.976 162.066 129.812 161.447 120.11C161.325 118.212 160.752 109.225 153.507 105.075C148.68 102.307 143.376 103.101 141.433 103.488C139.099 101.753 133.413 98.0299 125.639 97.8068Z" fill="url(#paint18_linear_6_1436)"/>
<path d="M76.2222 168.071C76.2222 168.071 125.45 141.386 186.12 167.984C186.12 167.984 178.403 190.778 132.244 192.33C84.5186 193.937 76.2222 168.071 76.2222 168.071Z" fill="url(#paint19_linear_6_1436)"/>
<path d="M123.534 133.33L121.691 146.071C121.062 150.418 117.839 154.052 113.353 155.46L98.3521 160.166C98.3521 160.166 127.05 173.005 163.233 160.166L146.744 154.817C142.056 153.176 138.869 149.052 138.661 144.367L138.187 133.494L123.534 133.33Z" fill="url(#paint20_linear_6_1436)"/>
<path d="M145.872 122.35C145.872 133.097 138.909 144.593 130.272 144.527C121.583 144.462 114.499 132.726 114.499 121.862C114.499 110.998 121.583 105.201 130.272 105.387C138.909 105.573 145.872 111.601 145.872 122.35Z" fill="url(#paint21_linear_6_1436)"/>
<path d="M137.182 112.489C132.493 112.626 125.38 113.546 120.459 118.273C112.194 126.211 116.117 139.022 112.436 139.743C109.158 140.39 104.078 131.24 104.161 121.259C104.229 112.898 107.308 103.104 115.315 100.804C120.021 99.4541 121.405 101.848 136.567 103.567C145.396 104.567 141.933 108.181 143.918 109.592C152.737 115.855 151.623 135.889 146.88 136.095C144.629 136.192 141.521 130.917 137.182 112.489Z" fill="url(#paint22_linear_6_1436)"/>
</g>
<g style="mix-blend-mode:soft-light" opacity="0.35">
<path d="M145.819 271.198C142.84 237.683 165.157 223.757 156.651 193.439C146.126 155.905 105.493 154.23 91.5964 117.234C86.4847 103.625 84.3362 83.3542 97.6232 54.315L41.7255 52.1228C40.0572 52.0566 38.6992 53.2318 38.6992 54.7401V350.021C38.6992 351.531 40.0572 352.671 41.7255 352.562L193.787 342.782C158.044 316.192 147.575 290.934 145.819 271.198Z" fill="white"/>
</g>
<path d="M393.548 62.6002L241.015 56.4215C237.496 56.2776 234.636 58.9385 234.636 62.3641V337.378C234.636 340.803 237.496 343.391 241.015 343.16L393.548 333.137C396.674 332.932 399.206 330.158 399.206 326.941V68.6495C399.203 65.4373 396.674 62.7263 393.548 62.6002Z" fill="url(#paint23_linear_6_1436)"/>
<path d="M391.918 72.1301L241.015 56.4215C237.496 56.2776 234.636 58.9385 234.636 62.3641V337.378C234.636 340.803 237.496 343.391 241.015 343.16L393.548 333.137C396.674 332.932 399.206 330.158 399.206 326.941V68.6495C399.203 65.4373 395.045 72.2562 391.918 72.1301Z" fill="url(#paint24_linear_6_1436)"/>
<path d="M397.117 62.6002L244.585 56.4215C241.065 56.2776 238.206 58.9385 238.206 62.3641V337.378C238.206 340.803 241.065 343.391 244.585 343.16L397.117 333.137C400.244 332.932 402.775 330.158 402.775 326.941V68.6495C402.772 65.4373 400.244 62.7263 397.117 62.6002Z" fill="#D8DEE8"/>
<g style="mix-blend-mode:multiply" opacity="0.3">
<path d="M334.868 264.082C332.281 232.825 351.692 219.869 344.294 191.577C335.141 156.571 299.837 155.02 287.789 120.572C283.165 107.359 281.338 87.399 294.569 58.4455L244.585 56.4215C241.065 56.2776 238.206 58.9385 238.206 62.3641V337.378C238.206 340.803 241.065 343.391 244.585 343.16L380.726 334.22C346.297 308.117 336.46 283.289 334.868 264.082Z" fill="#D8DEE8"/>
</g>
<path d="M397.117 66.0403L244.585 60.0669C244.25 60.0462 243.915 60.0939 243.6 60.207C243.285 60.3201 242.996 60.4962 242.751 60.7246C242.506 60.9531 242.31 61.229 242.176 61.5356C242.041 61.8422 241.97 62.1731 241.967 62.508V337.138C241.967 338.542 243.143 339.607 244.585 339.515L397.117 329.703C398.4 329.621 399.443 328.478 399.443 327.157V68.5266C399.446 67.8935 399.207 67.2831 398.775 66.8207C398.342 66.3583 397.749 66.0791 397.117 66.0403Z" fill="url(#paint25_linear_6_1436)"/>
<g style="mix-blend-mode:soft-light" opacity="0.35">
<path d="M334.868 264.082C332.281 232.825 351.692 219.869 344.294 191.577C335.141 156.571 299.837 155.02 287.789 120.572C283.356 107.904 281.493 89.0334 293.015 61.9632L244.585 60.0669C244.25 60.0462 243.915 60.0939 243.6 60.207C243.285 60.3201 242.996 60.4962 242.751 60.7246C242.506 60.9531 242.31 61.229 242.176 61.5356C242.041 61.8422 241.97 62.1731 241.967 62.508V337.138C241.967 338.542 243.143 339.607 244.585 339.515L376.623 331.026C345.5 306.077 336.394 282.494 334.868 264.082Z" fill="white"/>
</g>
<path d="M323.068 186.955C294.493 187.184 270.783 163.892 270.783 135.026C270.765 128.227 272.116 121.494 274.757 115.229C277.398 108.963 281.274 103.294 286.154 98.5602C291.034 93.8259 296.818 90.1234 303.161 87.6736C309.503 85.2238 316.274 84.077 323.07 84.3015C351.037 85.1713 373.346 108.449 373.346 136.206C373.346 163.963 351.034 186.729 323.068 186.955Z" fill="#D8DEE8"/>
<path d="M369.942 136.167C369.942 162.088 349.165 183.24 323.068 183.415C296.441 183.594 274.455 161.949 274.455 135.068C274.455 108.187 296.441 87.0547 323.068 87.842C349.165 88.618 369.942 110.248 369.942 136.167Z" fill="white"/>
<path opacity="0.74" d="M380.133 205.229L263.414 207.024C260.142 207.074 257.484 209.714 257.484 212.919C257.484 216.125 260.142 218.673 263.414 218.608L380.133 216.309C383.119 216.251 385.534 213.723 385.534 210.676C385.534 207.622 383.119 205.184 380.133 205.229Z" fill="url(#paint26_linear_6_1436)"/>
<path d="M380.133 227.045L284.561 229.326C281.34 229.402 278.725 232.044 278.725 235.225C278.725 238.405 281.34 240.911 284.561 240.819L380.133 238.126C383.119 238.041 385.534 235.497 385.534 232.445C385.534 229.391 383.119 226.973 380.133 227.045Z" fill="#D8DEE8"/>
<path d="M263.46 241.414H263.352C260.119 241.506 257.477 239.096 257.477 236.029V235.52C257.477 232.448 260.111 229.907 263.352 229.829H263.46C266.693 229.753 269.311 232.164 269.311 235.216V235.723C269.311 238.775 266.695 241.323 263.46 241.414Z" fill="#6165D7"/>
<path d="M263.407 242.502C259.527 242.613 256.362 239.61 256.362 235.807C256.362 232.005 259.527 228.837 263.407 228.744C267.287 228.652 270.415 231.654 270.415 235.44C270.415 239.226 267.276 242.392 263.407 242.502ZM263.407 230.917C260.753 230.982 258.591 233.15 258.591 235.749C258.591 238.349 260.753 240.403 263.407 240.331C266.061 240.258 268.205 238.088 268.205 235.499C268.205 232.909 266.055 230.852 263.407 230.917Z" fill="#D8DEE8"/>
<path d="M380.133 246.783L284.561 249.799C281.34 249.901 278.725 252.562 278.725 255.743C278.725 258.923 281.34 261.402 284.561 261.293L380.133 257.863C383.119 257.756 385.534 255.194 385.534 252.14C385.534 249.086 383.119 246.687 380.133 246.783Z" fill="#D8DEE8"/>
<path d="M263.46 262.05H263.352C260.119 262.166 257.477 259.777 257.477 256.715V256.206C257.477 253.134 260.111 250.572 263.352 250.47H263.46C266.693 250.368 269.311 252.759 269.311 255.805V256.312C269.311 259.366 266.695 261.933 263.46 262.05Z" fill="#6165D7"/>
<path d="M263.407 263.138C259.527 263.278 256.362 260.299 256.362 256.497C256.362 252.694 259.527 249.502 263.407 249.384C267.287 249.266 270.415 252.243 270.415 256.026C270.415 259.809 267.276 262.997 263.407 263.138ZM263.407 251.553C260.753 251.637 258.591 253.816 258.591 256.422C258.591 259.028 260.753 261.06 263.407 260.965C266.061 260.87 268.205 258.687 268.205 256.097C268.205 253.508 266.055 251.467 263.407 251.553Z" fill="#D8DEE8"/>
<path d="M380.133 266.523L284.561 270.275C281.34 270.401 278.725 273.083 278.725 276.257C278.725 279.438 281.34 281.902 284.561 281.763L380.133 277.597C383.119 277.468 385.534 274.886 385.534 271.834C385.534 268.786 383.119 266.402 380.133 266.523Z" fill="#D8DEE8"/>
<path d="M263.46 282.689H263.352C260.119 282.831 257.477 280.461 257.477 277.395V276.886C257.477 273.814 260.111 271.227 263.352 271.105H263.46C266.693 270.978 269.311 273.35 269.311 276.402V276.908C269.311 279.955 266.695 282.544 263.46 282.689Z" fill="#6165D7"/>
<path d="M263.407 283.774C259.527 283.936 256.362 280.99 256.362 277.186C256.362 273.382 259.527 270.167 263.407 270.016C267.287 269.866 270.415 272.821 270.415 276.604C270.415 280.387 267.276 283.604 263.407 283.774ZM263.407 272.189C260.753 272.294 258.591 274.495 258.591 277.094C258.591 279.694 260.753 281.716 263.407 281.601C266.061 281.486 268.205 279.286 268.205 276.696C268.205 274.107 266.055 272.084 263.407 272.189Z" fill="#D8DEE8"/>
<path d="M380.133 286.257L284.561 290.745C281.34 290.897 278.725 293.598 278.725 296.778C278.725 299.959 281.34 302.404 284.561 302.239L380.133 297.337C383.119 297.185 385.534 294.589 385.534 291.532C385.534 288.478 383.119 286.116 380.133 286.257Z" fill="#D8DEE8"/>
<path d="M263.46 303.32H263.352C260.119 303.482 257.477 301.138 257.477 298.071V297.562C257.477 294.49 260.111 291.888 263.352 291.742H263.46C266.693 291.59 269.311 293.942 269.311 296.993V297.501C269.311 300.546 266.695 303.154 263.46 303.32Z" fill="#6165D7"/>
<path d="M263.407 304.41C259.527 304.61 256.362 301.68 256.362 297.877C256.362 294.075 259.527 290.832 263.407 290.653C267.287 290.473 270.415 293.401 270.415 297.187C270.415 300.973 267.276 304.21 263.407 304.41ZM263.407 292.824C260.753 292.95 258.591 295.168 258.591 297.767C258.591 300.367 260.753 302.371 263.407 302.237C266.061 302.103 268.205 299.885 268.205 297.295C268.205 294.705 266.055 292.699 263.407 292.824Z" fill="#D8DEE8"/>
<mask id="mask4_6_1436" style="mask-type:luminance" maskUnits="userSpaceOnUse" x="278" y="91" width="89" height="89">
<path d="M366.528 136.129C366.528 160.16 347.249 179.745 323.068 179.876C298.433 180.007 278.118 159.967 278.118 135.11C278.118 110.253 298.428 90.6824 323.068 91.3807C347.249 92.0678 366.528 112.096 366.528 136.129Z" fill="white"/>
</mask>
<g mask="url(#mask4_6_1436)">
<path d="M274.455 168.036C274.455 168.036 317.166 143.166 369.942 167.956C369.942 167.956 363.222 189.223 323.068 190.649C281.646 192.12 274.455 168.036 274.455 168.036Z" fill="url(#paint27_linear_6_1436)"/>
<path d="M315.501 135.542L313.901 147.414C313.437 154.977 305.936 157.796 305.936 157.796C314.741 168.238 331.57 167.853 337.46 157.984C333.394 156.461 328.835 150.193 328.659 145.825L328.246 135.687L315.501 135.542Z" fill="url(#paint28_linear_6_1436)"/>
<path d="M334.913 125.284C334.913 135.307 328.86 146.03 321.354 145.977C313.806 145.92 307.655 134.994 307.655 124.867C307.655 114.741 313.806 109.332 321.354 109.495C328.86 109.65 334.913 115.263 334.913 125.284Z" fill="url(#paint29_linear_6_1436)"/>
<path d="M307.248 127.412L309.512 127.089C309.166 126.254 307.733 122.562 309.512 119.379C311.215 116.327 315.229 114.899 318.293 115.161C321.772 115.457 323.861 117.101 325.607 115.89C326.586 115.213 326.9 113.95 327.016 112.972C327.125 113.87 327.362 114.748 327.721 115.578C329.014 118.561 331.215 119.217 332.409 121.194C333.218 122.525 333.738 124.738 332.409 128.6L334.398 128.511C335.345 125.569 336.033 122.55 336.456 119.489C337.23 113.884 337.763 110.027 335.565 108.095C335.127 107.71 333.19 106.179 328.552 107.477C326.661 105.453 324.287 103.941 321.652 103.083C320.433 102.694 314.378 100.767 309.018 104.501C305.368 107.043 302.507 111.875 303.427 115.942C303.912 118.092 305.244 119.08 306.414 123.241C306.798 124.608 307.077 126.002 307.248 127.412Z" fill="url(#paint30_linear_6_1436)"/>
<path d="M333.023 128.957C333.023 128.957 333.893 124.578 336.536 125.055C339.179 125.532 335.395 132.669 333.023 133.503V128.957Z" fill="url(#paint31_linear_6_1436)"/>
<path d="M309.353 128.626C309.353 128.626 308.467 124.18 305.767 124.584C303.067 124.989 306.934 132.317 309.353 133.22V128.626Z" fill="url(#paint32_linear_6_1436)"/>
</g>
<g style="mix-blend-mode:multiply" opacity="0.3">
<path d="M334.868 264.082C332.281 232.825 351.692 219.869 344.294 191.577C335.141 156.571 299.837 155.02 287.789 120.572C283.165 107.359 281.338 87.399 294.569 58.4455L244.585 56.4215C241.065 56.2776 238.206 58.9385 238.206 62.3641V337.378C238.206 340.803 241.065 343.391 244.585 343.16L380.726 334.22C346.297 308.117 336.46 283.289 334.868 264.082Z" fill="#D8DEE8"/>
</g>
<path d="M397.117 66.0403L244.585 60.0669C244.25 60.0462 243.915 60.0939 243.6 60.207C243.285 60.3201 242.996 60.4962 242.751 60.7246C242.506 60.9531 242.31 61.229 242.176 61.5356C242.041 61.8422 241.97 62.1731 241.967 62.508V337.138C241.967 338.542 243.143 339.607 244.585 339.515L397.117 329.703C398.4 329.621 399.443 328.478 399.443 327.157V68.5266C399.446 67.8935 399.207 67.2831 398.775 66.8207C398.342 66.3583 397.749 66.0791 397.117 66.0403Z" fill="url(#paint33_linear_6_1436)"/>
<g style="mix-blend-mode:soft-light" opacity="0.35">
<path d="M334.868 264.082C332.281 232.825 351.692 219.869 344.294 191.577C335.141 156.571 299.837 155.02 287.789 120.572C283.356 107.904 281.493 89.0334 293.015 61.9632L244.585 60.0669C244.25 60.0462 243.915 60.0939 243.6 60.207C243.285 60.3201 242.996 60.4962 242.751 60.7246C242.506 60.9531 242.31 61.229 242.176 61.5356C242.041 61.8422 241.97 62.1731 241.967 62.508V337.138C241.967 338.542 243.143 339.607 244.585 339.515L376.623 331.026C345.5 306.077 336.394 282.494 334.868 264.082Z" fill="white"/>
</g>
<path d="M323.068 186.955C294.493 187.184 270.783 163.892 270.783 135.026C270.765 128.227 272.116 121.494 274.757 115.229C277.398 108.963 281.274 103.294 286.154 98.5602C291.034 93.8259 296.818 90.1234 303.161 87.6736C309.503 85.2238 316.274 84.077 323.07 84.3015C351.037 85.1713 373.346 108.449 373.346 136.206C373.346 163.963 351.034 186.729 323.068 186.955Z" fill="#D8DEE8"/>
<path d="M369.942 136.167C369.942 162.088 349.165 183.24 323.068 183.415C296.441 183.594 274.455 161.949 274.455 135.068C274.455 108.187 296.441 87.0547 323.068 87.842C349.165 88.618 369.942 110.248 369.942 136.167Z" fill="white"/>
<path opacity="0.74" d="M380.133 205.229L263.414 207.024C260.142 207.074 257.484 209.714 257.484 212.919C257.484 216.125 260.142 218.673 263.414 218.608L380.133 216.309C383.119 216.251 385.534 213.723 385.534 210.676C385.534 207.622 383.119 205.184 380.133 205.229Z" fill="url(#paint34_linear_6_1436)"/>
<path d="M380.133 227.045L284.561 229.326C281.34 229.402 278.725 232.044 278.725 235.225C278.725 238.405 281.34 240.911 284.561 240.819L380.133 238.126C383.119 238.041 385.534 235.497 385.534 232.445C385.534 229.391 383.119 226.973 380.133 227.045Z" fill="#D8DEE8"/>
<path d="M263.46 241.414H263.352C260.119 241.506 257.477 239.096 257.477 236.029V235.52C257.477 232.448 260.111 229.907 263.352 229.829H263.46C266.693 229.753 269.311 232.164 269.311 235.216V235.723C269.311 238.775 266.695 241.323 263.46 241.414Z" fill="#6165D7"/>
<path d="M263.407 242.502C259.527 242.613 256.362 239.61 256.362 235.807C256.362 232.005 259.527 228.837 263.407 228.744C267.287 228.652 270.415 231.654 270.415 235.44C270.415 239.226 267.276 242.392 263.407 242.502ZM263.407 230.917C260.753 230.982 258.591 233.15 258.591 235.749C258.591 238.349 260.753 240.403 263.407 240.331C266.061 240.258 268.205 238.088 268.205 235.499C268.205 232.909 266.055 230.852 263.407 230.917Z" fill="#D8DEE8"/>
<path d="M380.133 246.783L284.561 249.799C281.34 249.901 278.725 252.562 278.725 255.743C278.725 258.923 281.34 261.402 284.561 261.293L380.133 257.863C383.119 257.756 385.534 255.194 385.534 252.14C385.534 249.086 383.119 246.687 380.133 246.783Z" fill="#D8DEE8"/>
<path d="M263.46 262.05H263.352C260.119 262.166 257.477 259.777 257.477 256.715V256.206C257.477 253.134 260.111 250.572 263.352 250.47H263.46C266.693 250.368 269.311 252.759 269.311 255.805V256.312C269.311 259.366 266.695 261.933 263.46 262.05Z" fill="#6165D7"/>
<path d="M263.407 263.138C259.527 263.278 256.362 260.299 256.362 256.497C256.362 252.694 259.527 249.502 263.407 249.384C267.287 249.266 270.415 252.243 270.415 256.026C270.415 259.809 267.276 262.997 263.407 263.138ZM263.407 251.553C260.753 251.637 258.591 253.816 258.591 256.422C258.591 259.028 260.753 261.06 263.407 260.965C266.061 260.87 268.205 258.687 268.205 256.097C268.205 253.508 266.055 251.467 263.407 251.553Z" fill="#D8DEE8"/>
<path d="M380.133 266.523L284.561 270.275C281.34 270.401 278.725 273.083 278.725 276.257C278.725 279.438 281.34 281.902 284.561 281.763L380.133 277.597C383.119 277.468 385.534 274.886 385.534 271.834C385.534 268.786 383.119 266.402 380.133 266.523Z" fill="#D8DEE8"/>
<path d="M263.46 282.689H263.352C260.119 282.831 257.477 280.461 257.477 277.395V276.886C257.477 273.814 260.111 271.227 263.352 271.105H263.46C266.693 270.978 269.311 273.35 269.311 276.402V276.908C269.311 279.955 266.695 282.544 263.46 282.689Z" fill="#6165D7"/>
<path d="M263.407 283.774C259.527 283.936 256.362 280.99 256.362 277.186C256.362 273.382 259.527 270.167 263.407 270.016C267.287 269.866 270.415 272.821 270.415 276.604C270.415 280.387 267.276 283.604 263.407 283.774ZM263.407 272.189C260.753 272.294 258.591 274.495 258.591 277.094C258.591 279.694 260.753 281.716 263.407 281.601C266.061 281.486 268.205 279.286 268.205 276.696C268.205 274.107 266.055 272.084 263.407 272.189Z" fill="#D8DEE8"/>
<path d="M380.133 286.257L284.561 290.745C281.34 290.897 278.725 293.598 278.725 296.778C278.725 299.959 281.34 302.404 284.561 302.239L380.133 297.337C383.119 297.185 385.534 294.589 385.534 291.532C385.534 288.478 383.119 286.116 380.133 286.257Z" fill="#D8DEE8"/>
<path d="M263.46 303.32H263.352C260.119 303.482 257.477 301.138 257.477 298.071V297.562C257.477 294.49 260.111 291.888 263.352 291.742H263.46C266.693 291.59 269.311 293.942 269.311 296.993V297.501C269.311 300.546 266.695 303.154 263.46 303.32Z" fill="#6165D7"/>
<path d="M263.407 304.41C259.527 304.61 256.362 301.68 256.362 297.877C256.362 294.075 259.527 290.832 263.407 290.653C267.287 290.473 270.415 293.401 270.415 297.187C270.415 300.973 267.276 304.21 263.407 304.41ZM263.407 292.824C260.753 292.95 258.591 295.168 258.591 297.767C258.591 300.367 260.753 302.371 263.407 302.237C266.061 302.103 268.205 299.885 268.205 297.295C268.205 294.705 266.055 292.699 263.407 292.824Z" fill="#D8DEE8"/>
<mask id="mask5_6_1436" style="mask-type:luminance" maskUnits="userSpaceOnUse" x="278" y="91" width="89" height="89">
<path d="M366.528 136.129C366.528 160.16 347.249 179.745 323.068 179.876C298.433 180.007 278.118 159.967 278.118 135.11C278.118 110.253 298.428 90.6824 323.068 91.3807C347.249 92.0678 366.528 112.096 366.528 136.129Z" fill="white"/>
</mask>
<g mask="url(#mask5_6_1436)">
<path d="M274.455 168.036C274.455 168.036 317.166 143.166 369.942 167.956C369.942 167.956 363.222 189.223 323.068 190.649C281.646 192.12 274.455 168.036 274.455 168.036Z" fill="url(#paint35_linear_6_1436)"/>
<path d="M315.501 135.542L313.901 147.414C313.437 154.977 305.936 157.796 305.936 157.796C314.741 168.238 331.57 167.853 337.46 157.984C333.394 156.461 328.835 150.193 328.659 145.825L328.246 135.687L315.501 135.542Z" fill="url(#paint36_linear_6_1436)"/>
<path d="M334.913 125.284C334.913 135.307 328.86 146.03 321.354 145.977C313.806 145.92 307.655 134.994 307.655 124.867C307.655 114.741 313.806 109.332 321.354 109.495C328.86 109.65 334.913 115.263 334.913 125.284Z" fill="url(#paint37_linear_6_1436)"/>
<path d="M307.248 127.412L309.512 127.089C309.166 126.254 307.733 122.562 309.512 119.379C311.215 116.327 315.229 114.899 318.293 115.161C321.772 115.457 323.861 117.101 325.607 115.89C326.586 115.213 326.9 113.95 327.016 112.972C327.125 113.87 327.362 114.748 327.721 115.578C329.014 118.561 331.215 119.217 332.409 121.194C333.218 122.525 333.738 124.738 332.409 128.6L334.398 128.511C335.345 125.569 336.033 122.55 336.456 119.489C337.23 113.884 337.763 110.027 335.565 108.095C335.127 107.71 333.19 106.179 328.552 107.477C326.661 105.453 324.287 103.941 321.652 103.083C320.433 102.694 314.378 100.767 309.018 104.501C305.368 107.043 302.507 111.875 303.427 115.942C303.912 118.092 305.244 119.08 306.414 123.241C306.798 124.608 307.077 126.002 307.248 127.412Z" fill="url(#paint38_linear_6_1436)"/>
<path d="M333.023 128.957C333.023 128.957 333.893 124.578 336.536 125.055C339.179 125.532 335.395 132.669 333.023 133.503V128.957Z" fill="url(#paint39_linear_6_1436)"/>
<path d="M309.353 128.626C309.353 128.626 308.467 124.18 305.767 124.584C303.067 124.989 306.934 132.317 309.353 133.22V128.626Z" fill="url(#paint40_linear_6_1436)"/>
</g>
<path d="M308.578 37.7964L138.485 23.2227C134.534 23.061 131.325 26.2667 131.325 30.3794V360.61C131.325 364.723 134.534 367.846 138.485 367.587L310.331 356.302C313.866 356.069 316.726 352.737 316.726 348.865V37.4682C316.731 33.59 312.112 37.9338 308.578 37.7964Z" fill="url(#paint41_linear_6_1436)"/>
<path d="M269.426 29.4741C269.426 27.1785 271.204 25.3307 273.359 25.3728L274.833 25.2952L281.9 28.1145V30.6914L269.426 29.4741Z" fill="url(#paint42_linear_6_1436)"/>
<path d="M314.917 30.187L143.071 23.2227C139.12 23.061 135.911 26.2667 135.911 30.3794V360.61C135.911 364.723 139.12 367.846 143.071 367.587L314.917 356.302C318.453 356.069 321.312 352.737 321.312 348.865V37.4682C321.317 33.59 318.458 30.3358 314.917 30.187Z" fill="#D8DEE8"/>
<g style="mix-blend-mode:multiply" opacity="0.3">
<path d="M244.635 272.868C241.715 235.245 263.609 219.682 255.264 185.613C244.942 143.473 205.181 141.619 191.618 100.209C186.417 84.3339 184.363 60.3449 199.245 25.5005L143.071 23.2227C139.12 23.061 135.911 26.2667 135.911 30.3794V360.61C135.911 364.723 139.12 367.846 143.071 367.587L296.394 357.519C257.527 325.916 246.429 295.991 244.635 272.868Z" fill="#D8DEE8"/>
</g>
<path d="M314.917 34.3336L143.071 27.6037C141.455 27.5406 140.134 28.8598 140.134 30.5443V360.333C140.134 362.018 141.451 363.303 143.071 363.2L314.917 352.145C316.372 352.052 317.547 350.681 317.547 349.088V37.3244C317.552 35.732 316.372 34.3902 314.917 34.3336Z" fill="url(#paint43_linear_6_1436)"/>
<path d="M231.338 180.034C199.168 180.293 172.494 152.288 172.494 117.599C172.494 82.9097 199.168 55.521 231.338 56.5249C262.862 57.5062 288.062 85.4946 288.062 118.926C288.062 152.358 262.862 179.782 231.338 180.034Z" fill="#D8DEE8"/>
<path d="M284.213 118.887C284.213 150.111 260.759 175.579 231.335 175.776C201.352 175.978 176.624 149.954 176.624 117.649C176.624 85.3443 201.358 59.8891 231.335 60.7814C260.761 61.656 284.213 87.6641 284.213 118.887Z" fill="white"/>
<path opacity="0.74" d="M295.723 202.09L164.208 204.11C160.532 204.167 157.546 207.344 157.546 211.186C157.546 215.039 160.532 218.102 164.208 218.029L295.723 215.443C299.097 215.377 301.828 212.341 301.828 208.653C301.823 204.979 299.097 202.038 295.723 202.09Z" fill="url(#paint44_linear_6_1436)"/>
<path d="M295.723 228.371L187.987 230.943C184.366 231.029 181.424 234.199 181.424 238.022C181.424 241.845 184.366 244.86 187.987 244.759L295.723 241.723C299.097 241.627 301.828 238.567 301.828 234.887C301.823 231.211 299.097 228.293 295.723 228.371Z" fill="#D8DEE8"/>
<path d="M164.268 245.431H164.147C163.283 245.456 162.424 245.306 161.619 244.991C160.815 244.675 160.083 244.201 159.466 243.595C158.85 242.99 158.362 242.266 158.032 241.468C157.702 240.669 157.537 239.812 157.546 238.948V238.337C157.546 234.655 160.505 231.599 164.147 231.512H164.268C165.13 231.491 165.986 231.644 166.787 231.961C167.588 232.279 168.317 232.754 168.931 233.359C169.544 233.964 170.03 234.687 170.358 235.483C170.686 236.28 170.85 237.135 170.841 237.996V238.606C170.841 242.274 167.902 245.329 164.268 245.431Z" fill="#6165D7"/>
<path d="M164.209 246.737C159.844 246.862 156.287 243.247 156.287 238.678C156.287 234.11 159.844 230.311 164.209 230.209C168.573 230.107 172.083 233.722 172.083 238.268C172.083 242.814 168.556 246.613 164.209 246.737ZM164.209 232.818C161.227 232.891 158.798 235.49 158.798 238.614C158.798 241.737 161.223 244.21 164.209 244.128C167.194 244.046 169.6 241.446 169.6 238.332C169.6 235.219 167.183 232.747 164.209 232.818Z" fill="#D8DEE8"/>
<path d="M295.723 252.156L187.987 255.551C184.366 255.666 181.424 258.859 181.424 262.68C181.424 266.504 184.366 269.498 187.987 269.368L295.723 265.501C299.097 265.38 301.828 262.299 301.828 258.619C301.823 254.945 299.097 252.049 295.723 252.156Z" fill="#D8DEE8"/>
<path d="M164.268 270.223H164.147C160.505 270.354 157.546 267.475 157.546 263.793V263.18C157.546 259.497 160.505 256.419 164.147 256.304H164.268C167.902 256.19 170.841 259.07 170.841 262.739V263.348C170.841 267.008 167.902 270.094 164.268 270.223Z" fill="#6165D7"/>
<path d="M164.209 271.535C159.844 271.696 156.287 268.104 156.287 263.537C156.287 258.97 159.844 255.14 164.209 255.005C168.573 254.869 172.083 258.458 172.083 263.004C172.083 267.55 168.556 271.373 164.209 271.535ZM164.209 257.615C161.227 257.711 158.798 260.33 158.798 263.451C158.798 266.573 161.223 269.03 164.209 268.924C167.194 268.817 169.6 266.201 169.6 263.088C169.6 259.974 167.183 257.517 164.209 257.612V257.615Z" fill="#D8DEE8"/>
<path d="M295.723 275.937L187.987 280.167C184.366 280.309 181.424 283.523 181.424 287.347C181.424 291.17 184.366 294.136 187.987 293.975L295.723 289.287C299.097 289.139 301.828 286.037 301.828 282.358C301.823 278.68 299.097 275.804 295.723 275.937Z" fill="#D8DEE8"/>
<path d="M164.209 296.324C159.844 296.516 156.287 292.956 156.287 288.388C156.287 283.819 159.844 279.965 164.209 279.795C168.573 279.626 172.083 283.19 172.083 287.733C172.083 292.276 168.556 296.133 164.209 296.324ZM164.209 282.405C161.227 282.524 158.798 285.153 158.798 288.284C158.798 291.416 161.223 293.844 164.209 293.714C167.194 293.585 169.6 290.948 169.6 287.836C169.6 284.724 167.183 282.287 164.209 282.405Z" fill="#D8DEE8"/>
<path d="M295.723 299.719L187.987 304.777C184.366 304.939 181.424 308.185 181.424 312.008C181.424 315.831 184.366 318.778 187.987 318.594L295.723 313.069C299.097 312.896 301.828 309.774 301.828 306.093C301.823 302.412 299.097 299.56 295.723 299.719Z" fill="#D8DEE8"/>
<path d="M164.268 319.81H164.147C160.505 319.996 157.546 317.162 157.546 313.479V312.868C157.546 309.185 160.505 306.061 164.147 305.891H164.268C167.902 305.719 170.841 308.555 170.841 312.223V312.833C170.841 316.499 167.902 319.624 164.268 319.81Z" fill="#6165D7"/>
<path d="M164.209 321.118C159.844 321.342 156.287 317.81 156.287 313.242C156.287 308.673 159.844 304.792 164.209 304.589C168.573 304.387 172.083 307.921 172.083 312.467C172.083 317.013 168.556 320.893 164.209 321.118ZM164.209 307.199C161.227 307.339 158.798 309.995 158.798 313.119C158.798 316.242 161.223 318.659 164.209 318.508C167.194 318.358 169.6 315.7 169.6 312.588C169.6 309.476 167.183 307.058 164.209 307.199Z" fill="#D8DEE8"/>
<mask id="mask6_6_1436" style="mask-type:luminance" maskUnits="userSpaceOnUse" x="180" y="65" width="101" height="107">
<path d="M280.355 118.844C280.355 147.781 258.599 171.371 231.335 171.518C203.592 171.667 180.735 147.571 180.735 117.696C180.735 87.8209 203.584 64.2523 231.335 65.0396C258.599 65.814 280.355 89.8967 280.355 118.844Z" fill="white"/>
</mask>
<g mask="url(#mask6_6_1436)">
<path d="M242.629 82.2775C243.073 79.1882 249.178 76.9427 254.351 77.3679C268.501 78.5367 283.472 100.355 279.788 114.687C276.555 127.247 260.272 129.256 260.748 139.3C261.11 146.936 270.782 150.832 269.616 153.333C268.393 155.961 256.119 155.096 249.533 146.903C243.316 139.166 244.756 128.113 245.241 124.352C247.288 108.575 257.002 103.706 254.356 95.3721C251.924 87.7255 242.04 86.3611 242.629 82.2775Z" fill="url(#paint45_linear_6_1436)"/>
<path d="M176.624 157.123C176.624 157.123 224.686 127.216 284.213 157.039C284.213 157.039 276.615 182.653 231.335 184.339C184.709 186.075 176.624 157.123 176.624 157.123Z" fill="url(#paint46_linear_6_1436)"/>
<path d="M222.811 118.181L221.008 132.465C220.394 137.339 217.24 141.415 212.856 142.996L198.198 148.274C198.198 148.274 226.248 162.662 261.713 148.263L245.539 142.264C240.949 140.426 237.823 135.797 237.617 130.543L237.158 118.346L222.811 118.181Z" fill="url(#paint47_linear_6_1436)"/>
<path d="M224.71 127.85C217.34 125.748 213.394 119.325 211.05 115.518C207.125 109.138 201.709 95.9298 206.808 88.4255C209.071 85.0937 210.921 86.5551 224.51 80.2568C232.496 76.5547 233.518 75.276 236.473 75.6478C244.811 76.7002 249.658 88.5807 250.309 90.1763C251.166 92.2779 256.073 104.304 249.917 115.573C244.966 124.607 234.326 130.598 224.71 127.85Z" fill="url(#paint48_linear_6_1436)"/>
<path d="M244.687 105.82C244.687 117.882 237.863 130.79 229.405 130.726C220.901 130.663 213.974 117.523 213.974 105.345C213.974 93.167 220.901 86.6505 229.405 86.8331C237.863 87.0126 244.687 93.7571 244.687 105.82Z" fill="url(#paint49_linear_6_1436)"/>
<path d="M213.463 113.192C214.928 113.126 212.817 100.45 218.491 97.0065C222.261 94.7206 228.805 96.9176 232.484 101.093C238.286 107.676 235.04 117.009 239.436 119.054C242.226 120.347 245.951 117.704 247.735 115.758C253.311 109.677 252.551 96.6637 245.957 89.2451C240.706 83.3283 233.579 83.0098 231.893 82.9904C222.193 82.8756 213.29 90.4268 211.25 99.4524C209.675 106.381 212.378 113.241 213.463 113.192Z" fill="url(#paint50_linear_6_1436)"/>
</g>
<g style="mix-blend-mode:soft-light" opacity="0.35">
<path d="M244.635 272.868C241.715 235.245 263.609 219.682 255.264 185.613C244.942 143.473 205.181 141.619 191.618 100.209C186.632 84.9886 184.537 62.3091 197.498 29.7344L143.071 27.6037C141.455 27.5406 140.134 28.8598 140.134 30.5443V360.333C140.134 362.018 141.451 363.303 143.071 363.2L291.758 353.636C256.625 323.457 246.357 295.034 244.635 272.868Z" fill="white"/>
</g>
<path d="M314.917 30.187L143.071 23.2227C139.12 23.061 135.911 26.2667 135.911 30.3794V360.61C135.911 364.723 139.12 367.846 143.071 367.587L314.917 356.302C318.453 356.069 321.312 352.737 321.312 348.865V37.4682C321.317 33.59 318.458 30.3358 314.917 30.187Z" fill="#D8DEE8"/>
<g style="mix-blend-mode:multiply" opacity="0.3">
<path d="M244.635 272.868C241.715 235.245 263.609 219.682 255.264 185.613C244.942 143.473 205.181 141.619 191.618 100.209C186.417 84.3339 184.363 60.3449 199.245 25.5005L143.071 23.2227C139.12 23.061 135.911 26.2667 135.911 30.3794V360.61C135.911 364.723 139.12 367.846 143.071 367.587L296.394 357.519C257.527 325.916 246.429 295.991 244.635 272.868Z" fill="#D8DEE8"/>
</g>
<path d="M314.917 34.3336L143.071 27.6037C141.455 27.5406 140.134 28.8598 140.134 30.5443V360.333C140.134 362.018 141.451 363.303 143.071 363.2L314.917 352.145C316.372 352.052 317.547 350.681 317.547 349.088V37.3244C317.552 35.732 316.372 34.3902 314.917 34.3336Z" fill="url(#paint51_linear_6_1436)"/>
<path d="M231.338 180.034C199.168 180.293 172.494 152.288 172.494 117.599C172.494 82.9097 199.168 55.521 231.338 56.5249C262.862 57.5062 288.062 85.4946 288.062 118.926C288.062 152.358 262.862 179.782 231.338 180.034Z" fill="#D8DEE8"/>
<path d="M284.213 118.887C284.213 150.111 260.759 175.579 231.335 175.776C201.352 175.978 176.624 149.954 176.624 117.649C176.624 85.3443 201.358 59.8891 231.335 60.7814C260.761 61.656 284.213 87.6641 284.213 118.887Z" fill="white"/>
<path opacity="0.74" d="M295.723 202.09L164.208 204.11C160.532 204.167 157.546 207.344 157.546 211.186C157.546 215.039 160.532 218.102 164.208 218.029L295.723 215.443C299.097 215.377 301.828 212.341 301.828 208.653C301.823 204.979 299.097 202.038 295.723 202.09Z" fill="url(#paint52_linear_6_1436)"/>
<path d="M295.723 228.371L187.987 230.943C184.366 231.029 181.424 234.199 181.424 238.022C181.424 241.845 184.366 244.86 187.987 244.759L295.723 241.723C299.097 241.627 301.828 238.567 301.828 234.887C301.823 231.211 299.097 228.293 295.723 228.371Z" fill="#D8DEE8"/>
<path d="M164.268 245.431H164.147C163.283 245.456 162.424 245.306 161.619 244.991C160.815 244.675 160.083 244.201 159.466 243.595C158.85 242.99 158.362 242.266 158.032 241.468C157.702 240.669 157.537 239.812 157.546 238.948V238.337C157.546 234.655 160.505 231.599 164.147 231.512H164.268C165.13 231.491 165.986 231.644 166.787 231.961C167.588 232.279 168.317 232.754 168.931 233.359C169.544 233.964 170.03 234.687 170.358 235.483C170.686 236.28 170.85 237.135 170.841 237.996V238.606C170.841 242.274 167.902 245.329 164.268 245.431Z" fill="#6165D7"/>
<path d="M164.209 246.737C159.844 246.862 156.287 243.247 156.287 238.678C156.287 234.11 159.844 230.311 164.209 230.209C168.573 230.107 172.083 233.722 172.083 238.268C172.083 242.814 168.556 246.613 164.209 246.737ZM164.209 232.818C161.227 232.891 158.798 235.49 158.798 238.614C158.798 241.737 161.223 244.21 164.209 244.128C167.194 244.046 169.6 241.446 169.6 238.332C169.6 235.219 167.183 232.747 164.209 232.818Z" fill="#D8DEE8"/>
<path d="M295.723 252.156L187.987 255.551C184.366 255.666 181.424 258.859 181.424 262.68C181.424 266.504 184.366 269.498 187.987 269.368L295.723 265.501C299.097 265.38 301.828 262.299 301.828 258.619C301.823 254.945 299.097 252.049 295.723 252.156Z" fill="#D8DEE8"/>
<path d="M164.268 270.223H164.147C160.505 270.354 157.546 267.475 157.546 263.793V263.18C157.546 259.497 160.505 256.419 164.147 256.304H164.268C167.902 256.19 170.841 259.07 170.841 262.739V263.348C170.841 267.008 167.902 270.094 164.268 270.223Z" fill="#6165D7"/>
<path d="M164.209 271.535C159.844 271.696 156.287 268.104 156.287 263.537C156.287 258.97 159.844 255.14 164.209 255.005C168.573 254.869 172.083 258.458 172.083 263.004C172.083 267.55 168.556 271.373 164.209 271.535ZM164.209 257.615C161.227 257.711 158.798 260.33 158.798 263.451C158.798 266.573 161.223 269.03 164.209 268.924C167.194 268.817 169.6 266.201 169.6 263.088C169.6 259.974 167.183 257.517 164.209 257.612V257.615Z" fill="#D8DEE8"/>
<path d="M295.723 275.937L187.987 280.167C184.366 280.309 181.424 283.523 181.424 287.347C181.424 291.17 184.366 294.136 187.987 293.975L295.723 289.287C299.097 289.139 301.828 286.037 301.828 282.358C301.823 278.68 299.097 275.804 295.723 275.937Z" fill="#D8DEE8"/>
<path d="M164.209 296.324C159.844 296.516 156.287 292.956 156.287 288.388C156.287 283.819 159.844 279.965 164.209 279.795C168.573 279.626 172.083 283.19 172.083 287.733C172.083 292.276 168.556 296.133 164.209 296.324ZM164.209 282.405C161.227 282.524 158.798 285.153 158.798 288.284C158.798 291.416 161.223 293.844 164.209 293.714C167.194 293.585 169.6 290.948 169.6 287.836C169.6 284.724 167.183 282.287 164.209 282.405Z" fill="#D8DEE8"/>
<path d="M295.723 299.719L187.987 304.777C184.366 304.939 181.424 308.185 181.424 312.008C181.424 315.831 184.366 318.778 187.987 318.594L295.723 313.069C299.097 312.896 301.828 309.774 301.828 306.093C301.823 302.412 299.097 299.56 295.723 299.719Z" fill="#D8DEE8"/>
<path d="M164.268 319.81H164.147C160.505 319.996 157.546 317.162 157.546 313.479V312.868C157.546 309.185 160.505 306.061 164.147 305.891H164.268C167.902 305.719 170.841 308.555 170.841 312.223V312.833C170.841 316.499 167.902 319.624 164.268 319.81Z" fill="#6165D7"/>
<path d="M164.209 321.118C159.844 321.342 156.287 317.81 156.287 313.242C156.287 308.673 159.844 304.792 164.209 304.589C168.573 304.387 172.083 307.921 172.083 312.467C172.083 317.013 168.556 320.893 164.209 321.118ZM164.209 307.199C161.227 307.339 158.798 309.995 158.798 313.119C158.798 316.242 161.223 318.659 164.209 318.508C167.194 318.358 169.6 315.7 169.6 312.588C169.6 309.476 167.183 307.058 164.209 307.199Z" fill="#D8DEE8"/>
<mask id="mask7_6_1436" style="mask-type:luminance" maskUnits="userSpaceOnUse" x="180" y="65" width="101" height="107">
<path d="M280.355 118.844C280.355 147.781 258.599 171.371 231.335 171.518C203.592 171.667 180.735 147.571 180.735 117.696C180.735 87.8209 203.584 64.2523 231.335 65.0396C258.599 65.814 280.355 89.8967 280.355 118.844Z" fill="white"/>
</mask>
<g mask="url(#mask7_6_1436)">
<path d="M206.801 88.4255C215.505 81.0586 238.164 95.7649 240.361 97.215C241.581 98.0233 270.234 117.284 265.798 134.535C262.565 147.092 246.284 149.102 246.759 159.147C247.121 166.783 256.793 170.677 255.628 173.18C254.739 175.089 245.366 170.262 235.545 166.749C209.318 157.372 194.979 162.424 191.896 155.001C189.329 148.812 199.139 144.934 204.126 129.521C210.928 108.51 199.541 94.5703 206.801 88.4255Z" fill="url(#paint53_linear_6_1436)"/>
<path d="M176.624 157.123C176.624 157.123 224.686 127.216 284.213 157.039C284.213 157.039 276.615 182.653 231.335 184.339C184.709 186.075 176.624 157.123 176.624 157.123Z" fill="url(#paint54_linear_6_1436)"/>
<path d="M222.811 118.181L221.008 132.465C220.394 137.339 217.24 141.415 212.856 142.996L198.198 148.274C198.198 148.274 226.248 162.662 261.713 148.263L245.539 142.264C240.949 140.426 237.823 135.797 237.617 130.543L237.158 118.346L222.811 118.181Z" fill="url(#paint55_linear_6_1436)"/>
<path d="M224.71 127.85C217.34 125.748 213.394 119.325 211.05 115.518C207.125 109.138 201.709 95.9298 206.808 88.4255C209.071 85.0937 210.921 86.5551 224.51 80.2568C232.496 76.5547 233.518 75.276 236.473 75.6478C244.811 76.7002 249.658 88.5807 250.309 90.1763C251.166 92.2779 256.073 104.304 249.917 115.573C244.966 124.607 234.326 130.598 224.71 127.85Z" fill="url(#paint56_linear_6_1436)"/>
<path d="M244.687 105.82C244.687 117.882 237.863 130.79 229.405 130.726C220.901 130.663 213.974 117.523 213.974 105.345C213.974 93.167 220.901 86.6505 229.405 86.8331C237.863 87.0126 244.687 93.7571 244.687 105.82Z" fill="url(#paint57_linear_6_1436)"/>
<path d="M213.463 113.192C214.928 113.126 212.817 100.45 218.491 97.0065C222.261 94.7206 228.805 96.9176 232.484 101.093C238.286 107.676 235.04 117.009 239.436 119.054C242.226 120.347 245.951 117.704 247.735 115.758C253.311 109.678 252.551 96.6638 245.957 89.2452C240.706 83.3284 233.579 83.0099 231.893 82.9905C222.193 82.8757 213.29 90.4269 211.25 99.4525C209.675 106.381 212.378 113.241 213.463 113.192Z" fill="url(#paint58_linear_6_1436)"/>
</g>
<g style="mix-blend-mode:soft-light" opacity="0.35">
<path d="M244.635 272.868C241.715 235.245 263.609 219.682 255.264 185.613C244.942 143.473 205.181 141.619 191.618 100.209C186.632 84.9886 184.537 62.3091 197.498 29.7344L143.071 27.6037C141.455 27.5406 140.134 28.8598 140.134 30.5443V360.333C140.134 362.018 141.451 363.303 143.071 363.2L291.758 353.636C256.625 323.457 246.357 295.034 244.635 272.868Z" fill="white"/>
</g>
<g style="mix-blend-mode:multiply">
<path d="M307.448 76.3236L291.717 63.853L275.824 75.5622V36.2122C275.82 34.6869 275.482 33.181 274.835 31.7999C274.188 30.4187 273.246 29.1957 272.077 28.2164L271.954 28.1146L301.949 29.2915C304.988 29.4111 307.445 32.0543 307.445 35.1969L307.448 76.3236Z" fill="#D8DEE8"/>
</g>
<path d="M310.328 76.3236L294.596 63.1239L278.705 75.5185V33.8664C278.71 32.2717 278.379 30.6938 277.733 29.2357C277.088 27.7775 276.142 26.4717 274.958 25.4035L274.835 25.2952L304.828 26.5416C307.869 26.6677 310.324 29.466 310.324 32.7914L310.328 76.3236Z" fill="url(#paint59_linear_6_1436)"/>
<path d="M363.516 434.295C363.516 434.295 363.917 437.488 363.648 438.557C363.38 439.625 354.096 440.399 350.945 440.028C347.794 439.656 352.822 436.437 354.825 435.824C356.828 435.212 363.516 434.295 363.516 434.295Z" fill="url(#paint60_linear_6_1436)"/>
<path d="M358.844 428.968L359.822 435.373C359.822 435.373 362.316 436.495 363.516 435.386L363.648 428.682L358.844 428.968Z" fill="url(#paint61_linear_6_1436)"/>
<path d="M411.173 428.682C411.173 428.682 409.203 430.137 409.728 431.894C410.254 433.652 414.85 440.658 418.125 442.65C421.4 444.641 420.374 440.492 419.418 437.91C418.463 435.328 416.023 429.636 415.079 428.682C414.135 427.728 411.173 428.682 411.173 428.682Z" fill="url(#paint62_linear_6_1436)"/>
<path d="M407.63 421.645C408.582 424.3 409.497 426.48 410.216 428.091C411.802 431.647 412.669 432.987 413.649 434.145C414.505 435.154 416.529 437.307 417.074 436.948C417.619 436.589 416.146 433.967 413.29 426.303C412.874 425.19 411.565 421.645 411.565 421.645H407.63Z" fill="url(#paint63_linear_6_1436)"/>
<path d="M339.403 310.749C338.403 320.58 338.284 330.48 339.047 340.333C340.318 356.704 343.591 367.065 347.696 384.521C350.205 395.191 353.585 410.89 356.645 430.527C357.355 430.933 359.444 432.001 362.132 431.602C363.308 431.425 364.432 430.998 365.428 430.351C373.455 405.822 371.087 390.622 367.207 381.152C365.555 377.111 363.553 373.931 362.483 367.726C361.067 359.515 362.818 354.928 365.314 335.91C367.092 322.356 366.786 320.261 365.601 318.229C360.874 310.109 346.398 310.267 339.403 310.749Z" fill="url(#paint64_linear_6_1436)"/>
<path d="M367.032 313.6C371.949 338.996 376.777 352.334 380.429 359.878C383.062 365.202 385.318 370.705 387.18 376.346C389.695 383.964 390.736 389.567 391.279 392.027C392.975 399.813 397.165 411.178 408.44 426.086C408.58 426.168 410.502 427.255 412.341 426.286C413.022 425.915 413.573 425.344 413.918 424.649C412.444 410.395 410.751 398.419 409.284 389.175C408.975 387.236 407.618 378.755 405.489 367.548C404.657 363.163 403.436 356.738 401.975 350.137C400.155 341.919 397.364 330.738 393.062 317.34L367.032 313.6Z" fill="url(#paint65_linear_6_1436)"/>
<path d="M362.843 213.154C360.055 210.577 354.72 207.606 352.044 200.696C351.236 198.617 348.384 191.25 352.594 185.613C355.092 182.268 359.733 179.997 363.825 180.8C367.32 181.488 367.866 183.922 373.806 188.822C376.119 190.73 379.834 193.795 383.971 195.5C391.056 198.42 395.315 195.672 402.429 195.985C411.169 196.37 421.321 201.247 426.213 208.341C434.896 220.93 422.319 233.701 431.827 248.449C434.944 253.28 436.48 252.197 443.86 261.544C451.24 270.891 454.945 275.592 454.289 281.33C453.375 289.295 444.798 296.902 436.719 297.418C428.829 297.924 423.812 291.716 419.797 294.432C416.937 296.372 418.571 300.123 415.535 304.64C411.62 310.459 403.926 311.625 402.683 311.811C391.15 313.552 375.598 300.027 368.993 284.005C357.083 255.116 378.006 227.168 362.843 213.154Z" fill="url(#paint66_linear_6_1436)"/>
<path d="M315.517 221.175C315.439 213.11 333.76 206.665 342.142 204.589C355.182 201.356 365.625 203.386 368.16 203.923C384.423 207.37 394.551 217.127 398.363 221.221C395.243 223.253 386.628 229.456 382.359 241.221C381.032 244.881 377.11 257.397 382.718 269.119C385.951 275.874 391.666 280.945 396.008 284.8C402.52 290.578 405.892 291.466 408.074 296.641C410.452 302.276 408.057 305.024 411.009 308.883C414.179 313.027 417.894 311.101 423.269 315.291C428.765 319.582 426.814 323.114 431.824 327.857C439.099 334.749 448.755 332.512 449.204 335.617C449.591 338.285 442.738 341.902 436.905 343.377C425.364 346.287 415.299 341.405 412.305 339.901C404.018 335.738 405.451 333.043 399.131 329.868C388.552 324.555 381.323 330.468 357.225 331.078C344.176 331.401 337.577 331.482 333.962 327.067C330.661 323.025 332.398 318.61 334.378 299.547C335.32 290.475 335.661 281.347 336.357 272.252C338.322 246.524 338.382 244.261 336.636 240.702C330.388 227.952 315.586 228.415 315.517 221.175Z" fill="url(#paint67_linear_6_1436)"/>
<g style="mix-blend-mode:multiply" opacity="0.3">
<path d="M431.827 327.861C426.816 323.117 428.777 319.585 423.272 315.295C417.897 311.104 414.182 313.031 411.012 308.886C408.06 305.027 410.456 302.279 408.078 296.644C405.895 291.471 402.523 290.581 396.011 284.804C391.669 280.953 385.953 275.882 382.721 269.122C377.113 257.4 381.035 244.885 382.362 241.225C386.628 229.459 395.243 223.256 398.367 221.224C398.068 220.901 397.72 220.532 397.334 220.142C376.767 222.97 364.775 234.854 363.293 238.371C359.864 246.506 365.291 249.495 365.431 272.954C365.498 284.167 364.289 288.595 367.927 293.275C372.089 298.627 376.884 296.972 382.901 303.97C387.524 309.347 386.78 312.757 391.1 315.021C395.741 317.458 398.698 314.619 403.934 315.736C412.682 317.6 414.551 327.686 420.333 333.195C424.706 337.368 432.791 340.286 448.736 337.154C449.104 336.618 449.282 336.092 449.211 335.602C448.758 332.515 439.107 334.752 431.827 327.861Z" fill="url(#paint68_linear_6_1436)"/>
</g>
<path d="M369.528 244.699C367.342 249.342 377.388 260.155 388.554 265.29C390.828 266.336 407.166 273.848 414.449 266.625C420.464 260.655 416.581 248.312 415.196 243.907C408.388 222.268 387.482 211.262 378.722 207.292C372.182 223.641 376.033 230.927 377.55 233.201C379.132 235.578 383.552 240.568 388.245 244.965C391.546 248.058 393.601 249.563 393.324 250.047C392.982 250.646 389.112 249.513 374.087 242.198C372.339 242.486 370.275 243.119 369.528 244.699Z" fill="url(#paint69_linear_6_1436)"/>
<path d="M306.64 218.033L314.015 254.757C314.131 255.333 314.412 255.863 314.824 256.281C315.237 256.699 315.762 256.988 316.337 257.111L371.324 268.912C371.783 269.011 372.258 269.001 372.712 268.883C373.166 268.766 373.587 268.544 373.94 268.235C374.293 267.927 374.569 267.54 374.747 267.106C374.924 266.671 374.998 266.202 374.961 265.734L372.052 228.39C372.003 227.759 371.756 227.159 371.347 226.675C370.937 226.192 370.386 225.85 369.771 225.699C361.049 223.545 327.475 215.483 309.768 214.436C309.309 214.41 308.85 214.489 308.426 214.668C308.002 214.847 307.624 215.12 307.322 215.467C307.021 215.815 306.802 216.226 306.684 216.671C306.566 217.116 306.551 217.581 306.64 218.033Z" fill="url(#paint70_linear_6_1436)"/>
<path d="M361.485 191.21C361.485 191.21 362.523 199.501 365.584 201.395C368.644 203.288 373.591 205.774 374.137 206.448C374.684 207.122 355.177 209.217 345.512 204.346C348.698 203.682 349.563 203.438 349.563 203.438C350.428 203.194 352.041 202.74 353.658 201.821C355.448 200.785 356.986 199.363 358.158 197.659L358.123 193.067L361.485 191.21Z" fill="url(#paint71_linear_6_1436)"/>
<path d="M361.951 194.147C361.951 194.147 359.956 196.886 356.826 195.744C354.025 194.723 355.695 187.485 357.919 186.661C358.661 186.384 360.021 186.499 360.933 187.075C361.579 187.474 363.282 189.596 362.302 191.976C363.01 191.771 363.632 191.957 363.789 192.307C363.986 192.752 363.387 193.358 363.251 193.494C362.897 193.843 362.442 194.071 361.951 194.147Z" fill="url(#paint72_linear_6_1436)"/>
<path style="mix-blend-mode:multiply" opacity="0.3" d="M356.159 249.786C350.253 248.121 345.357 252.255 340.651 248.978C335.831 245.627 338.977 239.902 333.966 234.267C328.608 228.246 321.812 231.195 316.854 225.71C315.013 223.673 313.357 220.354 313.331 214.698C312.09 214.576 310.907 214.481 309.775 214.415C309.314 214.387 308.853 214.466 308.427 214.644C308.002 214.823 307.623 215.097 307.32 215.445C307.017 215.794 306.798 216.207 306.68 216.653C306.563 217.1 306.549 217.567 306.64 218.02L314.015 254.746C314.13 255.322 314.412 255.851 314.824 256.269C315.237 256.687 315.762 256.975 316.337 257.098L369.182 268.44C365.451 255.368 360.472 251.004 356.159 249.786Z" fill="url(#paint73_linear_6_1436)"/>
<path d="M310.505 237.569C310.505 237.569 306.999 234.328 306.625 230.561C306.252 226.795 308.889 223.781 311.454 223.013C314.02 222.246 315.387 223.377 313.666 227.086C311.944 230.794 309.205 233.201 310.505 237.569Z" fill="url(#paint74_linear_6_1436)"/>
</g>
<defs>
<linearGradient id="paint0_linear_6_1436" x1="305.329" y1="135.619" x2="459.412" y2="135.619" gradientUnits="userSpaceOnUse">
<stop stop-color="#6165D7"/>
<stop offset="1" stop-color="#30ABBA"/>
</linearGradient>
<linearGradient id="paint1_linear_6_1436" x1="534.521" y1="228.319" x2="350.707" y2="305.146" gradientUnits="userSpaceOnUse">
<stop stop-color="#30ABBA"/>
<stop offset="1" stop-color="#6165D7"/>
</linearGradient>
<linearGradient id="paint2_linear_6_1436" x1="200.686" y1="452.34" x2="168.858" y2="465.707" gradientUnits="userSpaceOnUse">
<stop stop-color="#40447E"/>
<stop offset="1" stop-color="#3C3B6B"/>
</linearGradient>
<linearGradient id="paint3_linear_6_1436" x1="158.185" y1="312.065" x2="123.644" y2="326.572" gradientUnits="userSpaceOnUse">
<stop stop-color="#40447E"/>
<stop offset="1" stop-color="#3C3B6B"/>
</linearGradient>
<linearGradient id="paint4_linear_6_1436" x1="9.30762" y1="319.918" x2="329.41" y2="319.918" gradientUnits="userSpaceOnUse">
<stop stop-color="#40447E"/>
<stop offset="1" stop-color="#3C3B6B"/>
</linearGradient>
<linearGradient id="paint5_linear_6_1436" x1="9.30762" y1="438.29" x2="462.385" y2="438.29" gradientUnits="userSpaceOnUse">
<stop stop-color="#40447E"/>
<stop offset="1" stop-color="#3C3B6B"/>
</linearGradient>
<linearGradient id="paint6_linear_6_1436" x1="53.7388" y1="434.578" x2="385.706" y2="434.578" gradientUnits="userSpaceOnUse">
<stop stop-color="#40447E"/>
<stop offset="1" stop-color="#3C3B6B"/>
</linearGradient>
<linearGradient id="paint7_linear_6_1436" x1="30.7796" y1="202.348" x2="220.2" y2="202.348" gradientUnits="userSpaceOnUse">
<stop stop-color="#444B8C"/>
<stop offset="1" stop-color="#26264F"/>
</linearGradient>
<linearGradient id="paint8_linear_6_1436" x1="30.7796" y1="202.348" x2="220.2" y2="202.348" gradientUnits="userSpaceOnUse">
<stop stop-color="#444B8C"/>
<stop offset="1" stop-color="#26264F"/>
</linearGradient>
<linearGradient id="paint9_linear_6_1436" x1="210.138" y1="64.4172" x2="88.0803" y2="264.147" gradientUnits="userSpaceOnUse">
<stop stop-color="white"/>
<stop offset="1" stop-color="#EBEFF2"/>
</linearGradient>
<linearGradient id="paint10_linear_6_1436" x1="56.6211" y1="215.288" x2="204.009" y2="215.288" gradientUnits="userSpaceOnUse">
<stop stop-color="#AA80F9"/>
<stop offset="1" stop-color="#6165D7"/>
</linearGradient>
<linearGradient id="paint11_linear_6_1436" x1="148.879" y1="96.7463" x2="133.946" y2="143.04" gradientUnits="userSpaceOnUse">
<stop stop-color="#AB316D"/>
<stop offset="1" stop-color="#792D3D"/>
</linearGradient>
<linearGradient id="paint12_linear_6_1436" x1="76.2222" y1="174.294" x2="186.12" y2="174.294" gradientUnits="userSpaceOnUse">
<stop stop-color="#FC9D8A"/>
<stop offset="1" stop-color="#FC9D8A"/>
</linearGradient>
<linearGradient id="paint13_linear_6_1436" x1="130.676" y1="137.666" x2="130.87" y2="175.362" gradientUnits="userSpaceOnUse">
<stop stop-color="#F36F56"/>
<stop offset="1" stop-color="#FFC444"/>
</linearGradient>
<linearGradient id="paint14_linear_6_1436" x1="136.016" y1="82.9113" x2="127.281" y2="141.775" gradientUnits="userSpaceOnUse">
<stop stop-color="#F36F56"/>
<stop offset="1" stop-color="#FFC444"/>
</linearGradient>
<linearGradient id="paint15_linear_6_1436" x1="137.235" y1="92.4703" x2="121.945" y2="139.866" gradientUnits="userSpaceOnUse">
<stop stop-color="#AB316D"/>
<stop offset="1" stop-color="#792D3D"/>
</linearGradient>
<linearGradient id="paint16_linear_6_1436" x1="210.138" y1="64.4172" x2="88.0803" y2="264.147" gradientUnits="userSpaceOnUse">
<stop stop-color="white"/>
<stop offset="1" stop-color="#EBEFF2"/>
</linearGradient>
<linearGradient id="paint17_linear_6_1436" x1="56.6211" y1="215.288" x2="204.009" y2="215.288" gradientUnits="userSpaceOnUse">
<stop stop-color="#AA80F9"/>
<stop offset="1" stop-color="#6165D7"/>
</linearGradient>
<linearGradient id="paint18_linear_6_1436" x1="148.879" y1="96.7463" x2="133.946" y2="143.04" gradientUnits="userSpaceOnUse">
<stop stop-color="#AB316D"/>
<stop offset="1" stop-color="#792D3D"/>
</linearGradient>
<linearGradient id="paint19_linear_6_1436" x1="76.2222" y1="174.294" x2="186.12" y2="174.294" gradientUnits="userSpaceOnUse">
<stop stop-color="#FC9D8A"/>
<stop offset="1" stop-color="#FC9D8A"/>
</linearGradient>
<linearGradient id="paint20_linear_6_1436" x1="130.676" y1="137.666" x2="130.87" y2="175.362" gradientUnits="userSpaceOnUse">
<stop stop-color="#F36F56"/>
<stop offset="1" stop-color="#FFC444"/>
</linearGradient>
<linearGradient id="paint21_linear_6_1436" x1="136.016" y1="82.9113" x2="127.281" y2="141.775" gradientUnits="userSpaceOnUse">
<stop stop-color="#F36F56"/>
<stop offset="1" stop-color="#FFC444"/>
</linearGradient>
<linearGradient id="paint22_linear_6_1436" x1="137.235" y1="92.4703" x2="121.945" y2="139.866" gradientUnits="userSpaceOnUse">
<stop stop-color="#AB316D"/>
<stop offset="1" stop-color="#792D3D"/>
</linearGradient>
<linearGradient id="paint23_linear_6_1436" x1="234.636" y1="199.796" x2="399.203" y2="199.796" gradientUnits="userSpaceOnUse">
<stop stop-color="#444B8C"/>
<stop offset="1" stop-color="#26264F"/>
</linearGradient>
<linearGradient id="paint24_linear_6_1436" x1="234.636" y1="199.796" x2="399.203" y2="199.796" gradientUnits="userSpaceOnUse">
<stop stop-color="#444B8C"/>
<stop offset="1" stop-color="#26264F"/>
</linearGradient>
<linearGradient id="paint25_linear_6_1436" x1="394.795" y1="73.6109" x2="283.173" y2="256.266" gradientUnits="userSpaceOnUse">
<stop stop-color="white"/>
<stop offset="1" stop-color="#EBEFF2"/>
</linearGradient>
<linearGradient id="paint26_linear_6_1436" x1="257.477" y1="211.919" x2="385.534" y2="211.919" gradientUnits="userSpaceOnUse">
<stop stop-color="#AA80F9"/>
<stop offset="1" stop-color="#6165D7"/>
</linearGradient>
<linearGradient id="paint27_linear_6_1436" x1="274.455" y1="173.836" x2="369.942" y2="173.836" gradientUnits="userSpaceOnUse">
<stop stop-color="#AB316D"/>
<stop offset="1" stop-color="#792D3D"/>
</linearGradient>
<linearGradient id="paint28_linear_6_1436" x1="321.601" y1="139.536" x2="321.778" y2="174.25" gradientUnits="userSpaceOnUse">
<stop stop-color="#F36F56"/>
<stop offset="1" stop-color="#FFC444"/>
</linearGradient>
<linearGradient id="paint29_linear_6_1436" x1="326.678" y1="91.8835" x2="317.955" y2="145.757" gradientUnits="userSpaceOnUse">
<stop stop-color="#F36F56"/>
<stop offset="1" stop-color="#FFC444"/>
</linearGradient>
<linearGradient id="paint30_linear_6_1436" x1="322.073" y1="102.943" x2="317.832" y2="129.125" gradientUnits="userSpaceOnUse">
<stop stop-color="#444B8C"/>
<stop offset="1" stop-color="#26264F"/>
</linearGradient>
<linearGradient id="paint31_linear_6_1436" x1="340.604" y1="94.656" x2="331.961" y2="148.028" gradientUnits="userSpaceOnUse">
<stop stop-color="#F36F56"/>
<stop offset="1" stop-color="#FFC444"/>
</linearGradient>
<linearGradient id="paint32_linear_6_1436" x1="313.63" y1="89.1159" x2="304.807" y2="143.607" gradientUnits="userSpaceOnUse">
<stop stop-color="#F36F56"/>
<stop offset="1" stop-color="#FFC444"/>
</linearGradient>
<linearGradient id="paint33_linear_6_1436" x1="394.795" y1="73.6109" x2="283.173" y2="256.266" gradientUnits="userSpaceOnUse">
<stop stop-color="white"/>
<stop offset="1" stop-color="#EBEFF2"/>
</linearGradient>
<linearGradient id="paint34_linear_6_1436" x1="257.477" y1="211.919" x2="385.534" y2="211.919" gradientUnits="userSpaceOnUse">
<stop stop-color="#AA80F9"/>
<stop offset="1" stop-color="#6165D7"/>
</linearGradient>
<linearGradient id="paint35_linear_6_1436" x1="274.455" y1="173.836" x2="369.942" y2="173.836" gradientUnits="userSpaceOnUse">
<stop stop-color="#AB316D"/>
<stop offset="1" stop-color="#792D3D"/>
</linearGradient>
<linearGradient id="paint36_linear_6_1436" x1="321.601" y1="139.536" x2="321.778" y2="174.25" gradientUnits="userSpaceOnUse">
<stop stop-color="#F36F56"/>
<stop offset="1" stop-color="#FFC444"/>
</linearGradient>
<linearGradient id="paint37_linear_6_1436" x1="326.678" y1="91.8835" x2="317.955" y2="145.757" gradientUnits="userSpaceOnUse">
<stop stop-color="#F36F56"/>
<stop offset="1" stop-color="#FFC444"/>
</linearGradient>
<linearGradient id="paint38_linear_6_1436" x1="322.073" y1="102.943" x2="317.832" y2="129.125" gradientUnits="userSpaceOnUse">
<stop stop-color="#444B8C"/>
<stop offset="1" stop-color="#26264F"/>
</linearGradient>
<linearGradient id="paint39_linear_6_1436" x1="340.604" y1="94.656" x2="331.961" y2="148.028" gradientUnits="userSpaceOnUse">
<stop stop-color="#F36F56"/>
<stop offset="1" stop-color="#FFC444"/>
</linearGradient>
<linearGradient id="paint40_linear_6_1436" x1="313.63" y1="89.1159" x2="304.807" y2="143.607" gradientUnits="userSpaceOnUse">
<stop stop-color="#F36F56"/>
<stop offset="1" stop-color="#FFC444"/>
</linearGradient>
<linearGradient id="paint41_linear_6_1436" x1="131.325" y1="195.407" x2="316.731" y2="195.407" gradientUnits="userSpaceOnUse">
<stop stop-color="#444B8C"/>
<stop offset="1" stop-color="#26264F"/>
</linearGradient>
<linearGradient id="paint42_linear_6_1436" x1="269.426" y1="27.9933" x2="281.9" y2="27.9933" gradientUnits="userSpaceOnUse">
<stop stop-color="#AB316D"/>
<stop offset="1" stop-color="#792D3D"/>
</linearGradient>
<linearGradient id="paint43_linear_6_1436" x1="316.689" y1="46.088" x2="184.644" y2="262.161" gradientUnits="userSpaceOnUse">
<stop stop-color="white"/>
<stop offset="1" stop-color="#EBEFF2"/>
</linearGradient>
<linearGradient id="paint44_linear_6_1436" x1="157.546" y1="210.06" x2="301.828" y2="210.06" gradientUnits="userSpaceOnUse">
<stop stop-color="#AA80F9"/>
<stop offset="1" stop-color="#6165D7"/>
</linearGradient>
<linearGradient id="paint45_linear_6_1436" x1="272.77" y1="73.4411" x2="256.362" y2="117.085" gradientUnits="userSpaceOnUse">
<stop stop-color="#AB316D"/>
<stop offset="1" stop-color="#792D3D"/>
</linearGradient>
<linearGradient id="paint46_linear_6_1436" x1="238.275" y1="120.85" x2="226.91" y2="173.262" gradientUnits="userSpaceOnUse">
<stop stop-color="#AA80F9"/>
<stop offset="1" stop-color="#6165D7"/>
</linearGradient>
<linearGradient id="paint47_linear_6_1436" x1="229.83" y1="123.045" x2="230.048" y2="165.3" gradientUnits="userSpaceOnUse">
<stop stop-color="#F36F56"/>
<stop offset="1" stop-color="#FFC444"/>
</linearGradient>
<linearGradient id="paint48_linear_6_1436" x1="266.414" y1="29.8492" x2="189.669" y2="175.192" gradientUnits="userSpaceOnUse">
<stop stop-color="#AB316D"/>
<stop offset="1" stop-color="#792D3D"/>
</linearGradient>
<linearGradient id="paint49_linear_6_1436" x1="235.863" y1="61.7045" x2="226.081" y2="127.624" gradientUnits="userSpaceOnUse">
<stop stop-color="#F36F56"/>
<stop offset="1" stop-color="#FFC444"/>
</linearGradient>
<linearGradient id="paint50_linear_6_1436" x1="259.003" y1="51.4147" x2="204.286" y2="155.038" gradientUnits="userSpaceOnUse">
<stop stop-color="#AB316D"/>
<stop offset="1" stop-color="#792D3D"/>
</linearGradient>
<linearGradient id="paint51_linear_6_1436" x1="316.689" y1="46.088" x2="184.644" y2="262.161" gradientUnits="userSpaceOnUse">
<stop stop-color="white"/>
<stop offset="1" stop-color="#EBEFF2"/>
</linearGradient>
<linearGradient id="paint52_linear_6_1436" x1="157.546" y1="210.06" x2="301.828" y2="210.06" gradientUnits="userSpaceOnUse">
<stop stop-color="#AA80F9"/>
<stop offset="1" stop-color="#6165D7"/>
</linearGradient>
<linearGradient id="paint53_linear_6_1436" x1="284.092" y1="75.8337" x2="206.971" y2="155.998" gradientUnits="userSpaceOnUse">
<stop stop-color="#AB316D"/>
<stop offset="1" stop-color="#792D3D"/>
</linearGradient>
<linearGradient id="paint54_linear_6_1436" x1="238.275" y1="120.85" x2="226.91" y2="173.262" gradientUnits="userSpaceOnUse">
<stop stop-color="#AA80F9"/>
<stop offset="1" stop-color="#6165D7"/>
</linearGradient>
<linearGradient id="paint55_linear_6_1436" x1="229.83" y1="123.045" x2="230.048" y2="165.3" gradientUnits="userSpaceOnUse">
<stop stop-color="#F36F56"/>
<stop offset="1" stop-color="#FFC444"/>
</linearGradient>
<linearGradient id="paint56_linear_6_1436" x1="249.197" y1="87.7514" x2="204.355" y2="121.042" gradientUnits="userSpaceOnUse">
<stop stop-color="#AB316D"/>
<stop offset="1" stop-color="#792D3D"/>
</linearGradient>
<linearGradient id="paint57_linear_6_1436" x1="235.863" y1="61.7045" x2="226.081" y2="127.624" gradientUnits="userSpaceOnUse">
<stop stop-color="#F36F56"/>
<stop offset="1" stop-color="#FFC444"/>
</linearGradient>
<linearGradient id="paint58_linear_6_1436" x1="250.293" y1="89.2274" x2="205.451" y2="122.52" gradientUnits="userSpaceOnUse">
<stop stop-color="#AB316D"/>
<stop offset="1" stop-color="#792D3D"/>
</linearGradient>
<linearGradient id="paint59_linear_6_1436" x1="313.98" y1="12.8828" x2="266.277" y2="97.4268" gradientUnits="userSpaceOnUse">
<stop stop-color="#FF9085"/>
<stop offset="1" stop-color="#FB6FBB"/>
</linearGradient>
<linearGradient id="paint60_linear_6_1436" x1="349.931" y1="437.208" x2="363.741" y2="437.208" gradientUnits="userSpaceOnUse">
<stop stop-color="#AA80F9"/>
<stop offset="1" stop-color="#6165D7"/>
</linearGradient>
<linearGradient id="paint61_linear_6_1436" x1="358.844" y1="432.279" x2="363.648" y2="432.279" gradientUnits="userSpaceOnUse">
<stop stop-color="#F36F56"/>
<stop offset="1" stop-color="#FFC444"/>
</linearGradient>
<linearGradient id="paint62_linear_6_1436" x1="409.639" y1="435.716" x2="420.359" y2="435.716" gradientUnits="userSpaceOnUse">
<stop stop-color="#AA80F9"/>
<stop offset="1" stop-color="#6165D7"/>
</linearGradient>
<linearGradient id="paint63_linear_6_1436" x1="407.63" y1="429.316" x2="417.186" y2="429.316" gradientUnits="userSpaceOnUse">
<stop stop-color="#F36F56"/>
<stop offset="1" stop-color="#FFC444"/>
</linearGradient>
<linearGradient id="paint64_linear_6_1436" x1="444.545" y1="316.147" x2="392.251" y2="347.032" gradientUnits="userSpaceOnUse">
<stop stop-color="#311944"/>
<stop offset="1" stop-color="#893976"/>
</linearGradient>
<linearGradient id="paint65_linear_6_1436" x1="453.917" y1="332.014" x2="401.621" y2="362.899" gradientUnits="userSpaceOnUse">
<stop stop-color="#311944"/>
<stop offset="1" stop-color="#893976"/>
</linearGradient>
<linearGradient id="paint66_linear_6_1436" x1="413.83" y1="270.291" x2="391.369" y2="238.473" gradientUnits="userSpaceOnUse">
<stop stop-color="#010648"/>
<stop offset="1" stop-color="#010863"/>
</linearGradient>
<linearGradient id="paint67_linear_6_1436" x1="370.496" y1="206.015" x2="389.036" y2="319.385" gradientUnits="userSpaceOnUse">
<stop stop-color="#FC9D8A"/>
<stop offset="1" stop-color="#FC9D8A"/>
</linearGradient>
<linearGradient id="paint68_linear_6_1436" x1="389.59" y1="202.891" x2="408.129" y2="316.261" gradientUnits="userSpaceOnUse">
<stop stop-color="#FF9085"/>
<stop offset="1" stop-color="#FB6FBB"/>
</linearGradient>
<linearGradient id="paint69_linear_6_1436" x1="385.755" y1="203.519" x2="404.295" y2="316.889" gradientUnits="userSpaceOnUse">
<stop stop-color="#FF9085"/>
<stop offset="1" stop-color="#FB6FBB"/>
</linearGradient>
<linearGradient id="paint70_linear_6_1436" x1="349.419" y1="223.254" x2="290.92" y2="348.097" gradientUnits="userSpaceOnUse">
<stop stop-color="#444B8C"/>
<stop offset="1" stop-color="#26264F"/>
</linearGradient>
<linearGradient id="paint71_linear_6_1436" x1="370.026" y1="195.02" x2="361.817" y2="201.733" gradientUnits="userSpaceOnUse">
<stop stop-color="#F36F56"/>
<stop offset="1" stop-color="#FFC444"/>
</linearGradient>
<linearGradient id="paint72_linear_6_1436" x1="375.248" y1="183.517" x2="356.52" y2="190.679" gradientUnits="userSpaceOnUse">
<stop stop-color="#F36F56"/>
<stop offset="1" stop-color="#FFC444"/>
</linearGradient>
<linearGradient id="paint73_linear_6_1436" x1="306.581" y1="241.436" x2="369.182" y2="241.436" gradientUnits="userSpaceOnUse">
<stop stop-color="#444B8C"/>
<stop offset="1" stop-color="#26264F"/>
</linearGradient>
<linearGradient id="paint74_linear_6_1436" x1="315.725" y1="253.217" x2="312.783" y2="238.636" gradientUnits="userSpaceOnUse">
<stop stop-color="#F36F56"/>
<stop offset="1" stop-color="#FFC444"/>
</linearGradient>
<clipPath id="clip0_6_1436">
<rect width="480" height="480" fill="white" transform="translate(0.000976562)"/>
</clipPath>
</defs>
</svg>
