<svg width="480" height="480" viewBox="0 0 480 480" fill="none" xmlns="http://www.w3.org/2000/svg">
<g clip-path="url(#clip0_6_1233)">
<path d="M422.312 405.394C412.669 415.544 403.546 422.091 396.339 427.262C311.61 488.055 211.354 470.335 190.045 466.004C158.581 459.617 97.7618 447.257 53.7903 395.554C-12.7342 317.323 -2.37653 194.069 49.2252 112.709C58.664 97.8255 108.522 15.226 209.854 1.97976C271.181 -6.03796 342.67 10.1312 394.439 53.5043C503.115 144.548 495.378 328.472 422.312 405.394Z" fill="url(#paint0_linear_6_1233)"/>
<path d="M346.704 280.176C346.704 280.176 345.38 224.593 370.981 209.719C396.582 194.844 445.26 185.547 447.084 105.73C448.152 59.0038 449.312 38.5746 450.082 29.6672C450.154 28.8579 450.037 28.043 449.741 27.2864C449.445 26.5298 448.978 25.852 448.376 25.3063C447.774 24.7606 447.054 24.3617 446.272 24.141C445.49 23.9202 444.668 23.8836 443.869 24.034C419.622 28.6009 340.858 47.4015 324.344 101.161C304.767 164.895 346.704 280.176 346.704 280.176Z" fill="#B4D7E3"/>
<path opacity="0.5" d="M425.118 46.2375C398.502 69.9752 367.727 111.984 351.323 153.994C349.218 160.916 343.059 175.64 340.385 201.8C337.997 223.616 339.185 246.672 342.08 261.932C342.168 262.396 342.437 262.805 342.827 263.071C343.217 263.336 343.696 263.436 344.159 263.348C345.817 263.033 345.598 261.248 345.582 261.305C342.274 235.231 343.647 202.779 351.227 173.496C360.911 137.542 382.511 102.685 404.855 73.1158L407.154 70.2015C424.469 47.9723 428.108 47.8078 426.49 46.258C426.305 46.0837 426.062 45.9848 425.808 45.981C425.554 45.9772 425.308 46.0687 425.118 46.2375Z" fill="white"/>
<path d="M304.186 397.872C300.37 399.742 340.299 349.529 352.806 270.672C358.7 233.511 358.777 186.953 379.947 169.015C397.565 154.083 457.515 163.51 477.13 167.093C477.679 167.193 478.188 167.446 478.599 167.825C479.009 168.203 479.303 168.69 479.447 169.229C479.591 169.769 479.578 170.338 479.411 170.87C479.243 171.402 478.928 171.876 478.501 172.236C469.093 180.137 448.971 198.771 443.727 217.551C436.817 242.305 413.283 258.049 392.214 262.311C371.146 266.573 359.425 270.711 349.16 304.4C338.895 338.089 315.027 392.557 304.186 397.872Z" fill="#FC9D8A"/>
<path opacity="0.5" d="M449.542 177.547C424.513 178.596 397.65 190.011 384.018 211.426L382.731 213.469C379.76 218.269 362.917 252.324 353.562 280.558C353.533 280.642 353.521 280.732 353.527 280.821C353.532 280.91 353.556 280.997 353.596 281.076C353.635 281.156 353.691 281.227 353.758 281.285C353.826 281.344 353.904 281.388 353.989 281.415C354.154 281.466 354.332 281.453 354.488 281.379C354.643 281.305 354.765 281.174 354.829 281.014C361.343 265.071 370.707 244.843 378.162 229.716C386.158 213.214 391.751 202.039 409.988 191.333C430.285 179.804 449.677 178.618 449.619 178.63C449.761 178.62 449.894 178.553 449.988 178.445C450.081 178.337 450.128 178.197 450.118 178.054C450.108 177.912 450.041 177.779 449.933 177.685C449.825 177.592 449.684 177.545 449.542 177.555V177.547Z" fill="white"/>
<path d="M321.303 404.477C319.038 405.677 334.054 379.827 335.206 357.058C336.358 334.289 341.494 295.428 361.129 272.18C380.765 248.933 402.272 246.809 429.358 267.946C451.937 285.557 466.02 294.445 474.272 296.098C476.317 296.506 477.358 298.815 476.367 300.648C471.068 310.404 456.09 332.813 430.938 331.236C398.861 329.223 359.984 308.371 348.138 325.765C336.293 343.16 337.81 352.894 337.446 361.138C337.083 369.382 336.284 396.577 321.303 404.477Z" fill="#30ABBA"/>
<path opacity="0.5" d="M420.258 295.86C410.43 286.431 394.426 277.174 380.439 278.907C362.24 281.839 350.118 293.993 343.505 312.082C340.919 319.762 339.857 323.863 338.327 333.279C338.206 334.03 339.315 334.255 339.5 333.521C340.611 329.098 341.713 324.468 343.361 319.678C352.961 288.778 373.429 284.616 374.218 283.983C375.761 284.137 385.15 277.111 407.418 289.093C411.598 291.367 415.609 293.939 419.418 296.791L419.441 296.806C419.567 296.9 419.725 296.942 419.882 296.924C420.039 296.906 420.183 296.829 420.285 296.709C420.387 296.588 420.44 296.434 420.432 296.276C420.425 296.119 420.358 295.97 420.245 295.86H420.258Z" fill="white"/>
<path d="M40.1994 378.101L52.0674 397.815C54.0061 401.037 56.9018 403.574 60.351 405.072C63.8001 406.569 67.6307 406.954 71.3085 406.171L89.1782 402.367C91.5585 401.869 94.0237 401.954 96.3643 402.613C98.7048 403.273 100.851 404.488 102.622 406.155C111.623 414.546 121.556 421.878 132.226 428.009C134.343 429.212 136.138 430.908 137.459 432.954C138.779 435 139.587 437.334 139.811 439.759L141.428 457.975C141.759 461.721 143.251 465.271 145.696 468.129C148.141 470.987 151.417 473.01 155.067 473.917L177.399 479.468C181.048 480.375 184.889 480.121 188.387 478.741C191.885 477.362 194.865 474.925 196.913 471.771L206.867 456.43C208.201 454.392 210.007 452.707 212.133 451.518C214.258 450.328 216.639 449.67 219.073 449.599C231.371 449.175 243.58 447.346 255.462 444.147C257.807 443.503 260.273 443.435 262.65 443.948C265.028 444.461 267.246 445.54 269.117 447.094L283.126 458.821C286.009 461.235 289.574 462.689 293.323 462.98C297.072 463.271 300.818 462.386 304.04 460.447L323.754 448.58C326.976 446.641 329.513 443.745 331.011 440.296C332.508 436.846 332.893 433.016 332.11 429.337L328.306 411.469C327.809 409.089 327.893 406.624 328.553 404.283C329.213 401.942 330.427 399.795 332.094 398.024C340.482 389.021 347.812 379.088 353.941 368.419C355.144 366.301 356.84 364.505 358.886 363.184C360.931 361.863 363.266 361.056 365.691 360.831L383.907 359.216C387.653 358.885 391.203 357.393 394.061 354.949C396.919 352.504 398.943 349.228 399.85 345.577L405.401 323.245C406.308 319.596 406.054 315.755 404.674 312.257C403.295 308.759 400.858 305.779 397.703 303.732L382.362 293.775C380.325 292.441 378.64 290.635 377.451 288.509C376.262 286.384 375.604 284.004 375.533 281.569C375.108 269.272 373.278 257.063 370.079 245.18C369.435 242.835 369.367 240.37 369.88 237.993C370.393 235.616 371.472 233.398 373.026 231.528L384.754 217.519C387.167 214.635 388.62 211.07 388.912 207.321C389.203 203.573 388.318 199.826 386.379 196.604L374.511 176.89C372.572 173.669 369.676 171.132 366.228 169.635C362.779 168.138 358.949 167.753 355.271 168.536L337.402 172.34C335.021 172.837 332.556 172.753 330.215 172.093C327.874 171.433 325.727 170.219 323.957 168.552C314.955 160.161 305.023 152.829 294.354 146.698C292.237 145.495 290.441 143.799 289.12 141.753C287.799 139.707 286.992 137.373 286.767 134.948L285.152 116.732C284.821 112.986 283.329 109.436 280.884 106.578C278.439 103.72 275.163 101.696 271.513 100.789L249.181 95.2386C245.532 94.3315 241.69 94.5857 238.192 95.9658C234.694 97.3459 231.714 99.783 229.667 102.937L219.713 118.285C218.379 120.323 216.573 122.008 214.448 123.197C212.323 124.387 209.943 125.045 207.509 125.117C195.211 125.54 183.001 127.369 171.119 130.568C168.774 131.212 166.308 131.281 163.931 130.768C161.554 130.255 159.336 129.175 157.465 127.621L143.456 115.885C140.573 113.472 137.008 112.018 133.259 111.727C129.51 111.435 125.763 112.321 122.542 114.26L102.827 126.127C99.6045 128.065 97.0672 130.962 95.5694 134.411C94.0715 137.861 93.6879 141.693 94.472 145.371L98.276 163.241C98.7731 165.621 98.6882 168.087 98.0287 170.428C97.3691 172.768 96.1543 174.915 94.4874 176.686C86.0957 185.687 78.7612 195.618 72.6268 206.287C71.4242 208.404 69.7279 210.2 67.6821 211.521C65.6364 212.842 63.3019 213.649 60.8771 213.874L42.6663 215.485C38.9198 215.817 35.3701 217.309 32.5122 219.754C29.6543 222.198 27.6306 225.474 26.7234 229.124L21.1725 251.458C20.2656 255.107 20.5199 258.948 21.9 262.446C23.28 265.944 25.7171 268.923 28.8714 270.97L44.2108 280.927C46.2485 282.26 47.9338 284.067 49.1232 286.192C50.3126 288.317 50.971 290.698 51.0423 293.132C51.4657 305.43 53.2947 317.638 56.4937 329.52C57.1381 331.865 57.2068 334.331 56.6941 336.708C56.1813 339.085 55.1023 341.303 53.5485 343.174L41.8211 357.183C39.4077 360.068 37.9543 363.633 37.6636 367.383C37.3729 371.132 38.2594 374.879 40.1994 378.101ZM92.18 344.501C60.6268 277.606 89.2554 197.799 156.15 166.241C223.045 134.683 302.843 163.327 334.402 230.211C365.96 297.096 337.316 376.906 270.431 408.464C203.547 440.023 123.737 411.382 92.18 344.494V344.501Z" fill="url(#paint1_linear_6_1233)"/>
<path d="M288.918 252.253C274.64 249.185 225.941 240.183 174.948 247.484C157.87 249.931 142.75 259.853 133.532 274.436C116.924 300.715 93.4332 347.559 98.3995 396.416L124.467 402.857C124.467 402.857 142.482 344.89 162.757 321.298C162.757 321.298 186.771 376.033 185.557 406.09C185.523 406.947 185.47 407.768 185.386 408.577C182.631 437.984 300.654 414.063 300.654 414.063L293.302 257.429C293.245 256.203 292.784 255.031 291.991 254.095C291.198 253.159 290.118 252.512 288.918 252.253Z" fill="url(#paint2_linear_6_1233)"/>
<path d="M248.312 197.247L251.741 237.941C252.06 241.726 250.107 245.268 246.857 246.783C239.367 250.275 224.984 255.284 209.605 251.607C206.79 250.935 204.956 247.995 205.421 244.993L215.394 180.492L248.312 197.247Z" fill="url(#paint3_linear_6_1233)"/>
<path d="M202.517 147.927C202.517 147.927 194.77 177.996 196.304 192.883C197.838 207.769 196.191 217.853 213.726 218.098C231.262 218.343 244.278 207.548 249.713 191.605C249.713 191.605 258.294 167.009 254.076 158.177C249.857 149.345 202.517 147.927 202.517 147.927Z" fill="url(#paint4_linear_6_1233)"/>
<path d="M242.197 181.969L240.041 182.312C240.041 182.312 246.015 162.663 237.695 160.712C229.376 158.762 197.435 157.392 189.01 147.482C180.886 137.93 184.439 123.346 192.413 118.15C192.661 117.998 192.958 117.946 193.243 118.002C193.529 118.059 193.783 118.22 193.955 118.455L194.881 119.688C195.022 119.875 195.215 120.016 195.436 120.092C195.657 120.168 195.896 120.177 196.122 120.117C196.348 120.056 196.551 119.929 196.704 119.753C196.857 119.576 196.955 119.358 196.983 119.126C197.106 118.133 198.354 117.722 199.011 118.478C201.582 121.433 207.961 125.885 223.235 126.254C244.907 126.768 260.185 133.073 262.853 147.566C262.889 147.772 262.981 147.965 263.117 148.124C263.254 148.284 263.431 148.403 263.63 148.471C263.828 148.539 264.041 148.552 264.247 148.51C264.453 148.467 264.643 148.37 264.798 148.229C266.201 147.029 268.618 146.192 272.387 148.457C278.945 152.4 278.593 165.379 267.587 177.771C267.462 177.905 267.37 178.066 267.318 178.242C267.267 178.417 267.257 178.603 267.291 178.783C267.324 178.963 267.399 179.133 267.511 179.278C267.622 179.424 267.765 179.541 267.93 179.621C270.466 180.749 274.458 183.761 266.343 189.92C258.042 196.224 252.586 196.553 250.475 196.358C250.201 196.334 249.944 196.216 249.749 196.022C249.553 195.829 249.432 195.573 249.406 195.3L248.142 182.271C248.127 182.112 248.079 181.957 248.002 181.817C247.924 181.677 247.819 181.554 247.692 181.456C247.565 181.358 247.42 181.287 247.265 181.247C247.11 181.208 246.948 181.2 246.79 181.226L242.197 181.969Z" fill="url(#paint5_linear_6_1233)"/>
<path d="M242.098 184.752C242.098 184.752 243.898 166.047 252.754 169.796C261.61 173.545 251.79 190.585 245.425 192.291L242.098 184.752Z" fill="url(#paint6_linear_6_1233)"/>
<path d="M292.753 367.333C295.297 349.363 276.687 322.944 268.988 312.92C266.779 310.055 265.563 306.549 265.524 302.931C265.299 277.479 273.924 264.188 291.039 253.207C291.039 253.207 355.258 322.561 339.433 378.253C337.86 383.893 335.243 389.188 331.719 393.864C329.23 372.879 304.976 368.302 292.753 367.333Z" fill="url(#paint7_linear_6_1233)"/>
<path d="M291.594 360.382L293.962 360.113C291.954 342.488 276.49 320.731 269.933 312.193L268.047 313.645C274.477 322.025 289.655 343.351 291.594 360.382Z" fill="url(#paint8_linear_6_1233)"/>
<path d="M292.265 369.823C292.478 369.004 292.641 368.172 292.753 367.333C304.976 368.302 329.23 372.879 331.724 393.864C303.99 430.549 227.543 417.312 227.543 417.312V403.039C227.543 403.039 286.254 392.131 292.265 369.823Z" fill="url(#paint9_linear_6_1233)"/>
<path d="M234.893 413.371C234.893 413.371 223.606 386.738 203.717 396.185C183.827 405.632 185.391 411.814 185.391 411.814L234.893 413.371Z" fill="url(#paint10_linear_6_1233)"/>
<path d="M237.428 418.897C237.353 419.867 236.905 420.771 236.179 421.419C235.454 422.066 234.505 422.409 233.533 422.374L130.47 418.774C129.689 418.747 128.935 418.478 128.313 418.004C127.691 417.53 127.232 416.874 126.999 416.127L124.007 406.555C123.835 406.005 123.79 405.424 123.877 404.855C123.964 404.286 124.179 403.744 124.508 403.271C124.836 402.799 125.269 402.407 125.772 402.127C126.275 401.848 126.835 401.687 127.41 401.657L164.994 399.661C165.335 399.642 165.678 399.671 166.011 399.745L234.481 414.908C235.372 415.105 236.161 415.617 236.703 416.35C237.244 417.084 237.502 417.989 237.428 418.897Z" fill="#6165D7"/>
<path d="M168.344 415.136L165.509 401.923L126.903 403.764L129.443 414.728L168.344 415.136Z" fill="#6165D7"/>
<path d="M188.136 272.581C190.32 290.434 200.149 362.969 202.962 383.695C203.055 384.379 202.997 385.076 202.794 385.736C202.59 386.396 202.245 387.004 201.782 387.517C201.32 388.031 200.751 388.437 200.115 388.708C199.48 388.979 198.793 389.109 198.102 389.088L31.3675 384.317C30.3075 384.286 29.2882 383.902 28.4709 383.227C27.6536 382.551 27.0851 381.622 26.8555 380.587L0.913223 263.779C0.753736 263.059 0.763296 262.312 0.941151 261.597C1.11901 260.881 1.46031 260.217 1.93825 259.656C2.4162 259.095 3.01775 258.652 3.69566 258.363C4.37357 258.073 5.10936 257.945 5.84522 257.988L183.685 268.405C184.799 268.47 185.854 268.923 186.668 269.686C187.481 270.449 188.001 271.474 188.136 272.581Z" fill="url(#paint11_linear_6_1233)"/>
<path d="M121.114 346.153L145.757 416.096L88.4566 417.312L83.684 346.573C83.6315 345.792 83.7467 345.007 84.022 344.274C84.2973 343.54 84.7263 342.874 85.2802 342.319C85.8341 341.765 86.5001 341.335 87.2336 341.059C87.9671 340.783 88.7512 340.667 89.5331 340.719L116.293 342.495C117.366 342.566 118.395 342.951 119.252 343.601C120.109 344.251 120.756 345.139 121.114 346.153Z" fill="#6165D7"/>
<path d="M168.987 417.086C169.133 417.533 169.172 418.008 169.099 418.473C169.027 418.938 168.845 419.379 168.569 419.76C168.293 420.141 167.93 420.451 167.511 420.665C167.092 420.879 166.629 420.99 166.158 420.991H76.424C75.6347 420.991 74.8778 420.677 74.3196 420.119C73.7615 419.561 73.448 418.804 73.448 418.015V414.171C73.4479 413.77 73.529 413.372 73.6865 413.003C73.8441 412.633 74.0747 412.3 74.3646 412.022C74.6545 411.744 74.9977 411.528 75.3734 411.386C75.7491 411.244 76.1496 411.18 76.5509 411.197L166.287 415.046C166.891 415.072 167.472 415.281 167.955 415.645C168.437 416.009 168.797 416.512 168.987 417.086Z" fill="#6165D7"/>
<path d="M213.75 203.352C233.842 208.618 249.538 189.718 249.694 189.526L248.466 188.527C248.317 188.71 233.25 206.827 214.151 201.821L213.75 203.352Z" fill="url(#paint12_linear_6_1233)"/>
<path d="M208.9 200.001L208.664 200.645C208.244 201.795 208.835 203.068 209.984 203.488L213.833 204.897C214.983 205.318 216.256 204.727 216.677 203.577L216.912 202.933C217.333 201.784 216.742 200.511 215.593 200.09L211.743 198.681C210.594 198.261 209.321 198.852 208.9 200.001Z" fill="url(#paint13_linear_6_1233)"/>
<mask id="mask0_6_1233" style="mask-type:luminance" maskUnits="userSpaceOnUse" x="208" y="198" width="10" height="8">
<path d="M208.9 200.001L208.664 200.645C208.244 201.795 208.835 203.068 209.984 203.488L213.833 204.897C214.983 205.318 216.256 204.727 216.677 203.577L216.912 202.933C217.333 201.784 216.742 200.511 215.593 200.09L211.743 198.681C210.594 198.261 209.321 198.852 208.9 200.001Z" fill="white"/>
</mask>
<g mask="url(#mask0_6_1233)">
<path d="M216.209 203.854L215.159 206.343L215.281 206.388L216.209 203.854Z" fill="url(#paint14_linear_6_1233)"/>
<path d="M217.242 200.712L214.822 207.094L214.878 207.113L216.548 203.979L217.684 200.873L217.242 200.712Z" fill="url(#paint15_linear_6_1233)"/>
<path d="M217.187 200.691L214.767 207.073L214.822 207.094L217.242 200.712L217.187 200.691Z" fill="url(#paint16_linear_6_1233)"/>
<path d="M217.131 200.671L214.712 207.053L214.767 207.073L217.187 200.691L217.131 200.671Z" fill="url(#paint17_linear_6_1233)"/>
<path d="M217.076 200.65L214.655 207.032L214.712 207.053L217.131 200.671L217.076 200.65Z" fill="url(#paint18_linear_6_1233)"/>
<path d="M217.021 200.629L214.601 207.012L214.655 207.032L217.076 200.65L217.021 200.629Z" fill="url(#paint19_linear_6_1233)"/>
<path d="M216.965 200.609L214.546 206.991L214.601 207.012L217.021 200.629L216.965 200.609Z" fill="url(#paint20_linear_6_1233)"/>
<path d="M216.91 200.59L214.489 206.972L214.546 206.991L216.964 200.609L216.91 200.59Z" fill="url(#paint21_linear_6_1233)"/>
<path d="M216.855 200.569L214.434 206.952L214.489 206.972L216.91 200.59L216.855 200.569Z" fill="url(#paint22_linear_6_1233)"/>
<path d="M216.798 200.549L214.378 206.931L214.434 206.952L216.855 200.569L216.798 200.549Z" fill="url(#paint23_linear_6_1233)"/>
<path d="M216.743 200.528L214.323 206.911L214.378 206.931L216.798 200.549L216.743 200.528Z" fill="url(#paint24_linear_6_1233)"/>
<path d="M216.688 200.508L214.268 206.89L214.323 206.911L216.743 200.528L216.688 200.508Z" fill="url(#paint25_linear_6_1233)"/>
<path d="M216.632 200.487L214.211 206.869L214.268 206.89L216.689 200.508L216.632 200.487Z" fill="url(#paint26_linear_6_1233)"/>
<path d="M216.577 200.468L214.156 206.849L214.211 206.869L216.632 200.487L216.577 200.468Z" fill="url(#paint27_linear_6_1233)"/>
<path d="M216.522 200.448L214.102 206.83L214.156 206.849L216.577 200.468L216.522 200.448Z" fill="url(#paint28_linear_6_1233)"/>
<path d="M216.466 200.427L214.045 206.809L214.102 206.83L216.522 200.448L216.466 200.427Z" fill="url(#paint29_linear_6_1233)"/>
<path d="M216.411 200.407L213.99 206.789L214.045 206.809L216.466 200.427L216.411 200.407Z" fill="url(#paint30_linear_6_1233)"/>
<path d="M216.354 200.386L213.935 206.768L213.99 206.789L216.411 200.407L216.354 200.386Z" fill="url(#paint31_linear_6_1233)"/>
<path d="M216.299 200.365L213.879 206.748L213.935 206.768L216.354 200.386L216.299 200.365Z" fill="url(#paint32_linear_6_1233)"/>
<path d="M216.245 200.345L213.824 206.727L213.879 206.748L216.299 200.365L216.245 200.345Z" fill="url(#paint33_linear_6_1233)"/>
<path d="M216.188 200.326L213.769 206.708L213.824 206.727L216.244 200.345L216.188 200.326Z" fill="url(#paint34_linear_6_1233)"/>
<path d="M216.133 200.305L213.712 206.688L213.769 206.708L216.188 200.326L216.133 200.305Z" fill="url(#paint35_linear_6_1233)"/>
<path d="M216.078 200.285L213.658 206.667L213.713 206.688L216.133 200.305L216.078 200.285Z" fill="url(#paint36_linear_6_1233)"/>
<path d="M216.022 200.264L213.603 206.647L213.658 206.667L216.078 200.285L216.022 200.264Z" fill="url(#paint37_linear_6_1233)"/>
<path d="M215.967 200.244L213.546 206.626L213.603 206.647L216.022 200.264L215.967 200.244Z" fill="url(#paint38_linear_6_1233)"/>
<path d="M215.912 200.223L213.491 206.605L213.546 206.626L215.967 200.244L215.912 200.223Z" fill="url(#paint39_linear_6_1233)"/>
<path d="M215.855 200.204L213.435 206.585L213.491 206.605L215.912 200.223L215.855 200.204Z" fill="url(#paint40_linear_6_1233)"/>
<path d="M215.8 200.184L213.38 206.566L213.435 206.585L215.855 200.204L215.8 200.184Z" fill="url(#paint41_linear_6_1233)"/>
<path d="M215.746 200.163L213.325 206.545L213.38 206.566L215.8 200.184L215.746 200.163Z" fill="url(#paint42_linear_6_1233)"/>
<path d="M215.689 200.143L213.269 206.525L213.325 206.545L215.746 200.163L215.689 200.143Z" fill="url(#paint43_linear_6_1233)"/>
<path d="M215.634 200.122L213.214 206.504L213.268 206.525L215.689 200.143L215.634 200.122Z" fill="url(#paint44_linear_6_1233)"/>
<path d="M215.578 200.101L213.159 206.484L213.214 206.504L215.634 200.122L215.578 200.101Z" fill="url(#paint45_linear_6_1233)"/>
<path d="M215.523 200.083L213.102 206.463L213.159 206.484L215.578 200.101L215.523 200.083Z" fill="url(#paint46_linear_6_1233)"/>
<path d="M215.468 200.062L213.047 206.444L213.102 206.463L215.523 200.083L215.468 200.062Z" fill="url(#paint47_linear_6_1233)"/>
<path d="M215.411 200.041L212.992 206.424L213.047 206.444L215.468 200.062L215.411 200.041Z" fill="url(#paint48_linear_6_1233)"/>
<path d="M215.357 200.021L212.936 206.403L212.993 206.424L215.411 200.041L215.357 200.021Z" fill="url(#paint49_linear_6_1233)"/>
<path d="M215.302 200L212.881 206.383L212.936 206.403L215.357 200.021L215.302 200Z" fill="url(#paint50_linear_6_1233)"/>
<path d="M215.245 199.98L212.826 206.362L212.881 206.383L215.302 200L215.245 199.98Z" fill="url(#paint51_linear_6_1233)"/>
<path d="M215.19 199.959L212.77 206.341L212.826 206.362L215.245 199.98L215.19 199.959Z" fill="url(#paint52_linear_6_1233)"/>
<path d="M215.135 199.94L212.715 206.321L212.77 206.341L215.19 199.959L215.135 199.94Z" fill="url(#paint53_linear_6_1233)"/>
<path d="M215.079 199.92L212.658 206.302L212.715 206.321L215.135 199.94L215.079 199.92Z" fill="url(#paint54_linear_6_1233)"/>
<path d="M215.024 199.899L212.603 206.281L212.658 206.302L215.079 199.92L215.024 199.899Z" fill="url(#paint55_linear_6_1233)"/>
<path d="M214.969 199.879L212.549 206.261L212.603 206.281L215.024 199.899L214.969 199.879Z" fill="url(#paint56_linear_6_1233)"/>
<path d="M214.913 199.858L212.492 206.24L212.549 206.261L214.969 199.879L214.913 199.858Z" fill="url(#paint57_linear_6_1233)"/>
<path d="M214.858 199.837L212.437 206.22L212.492 206.24L214.912 199.858L214.858 199.837Z" fill="url(#paint58_linear_6_1233)"/>
<path d="M214.803 199.819L212.382 206.199L212.437 206.22L214.858 199.837L214.803 199.819Z" fill="url(#paint59_linear_6_1233)"/>
<path d="M214.746 199.798L212.326 206.18L212.382 206.199L214.803 199.819L214.746 199.798Z" fill="url(#paint60_linear_6_1233)"/>
<path d="M214.691 199.777L212.271 206.16L212.326 206.18L214.746 199.798L214.691 199.777Z" fill="url(#paint61_linear_6_1233)"/>
<path d="M214.635 199.757L212.216 206.139L212.271 206.16L214.691 199.777L214.635 199.757Z" fill="url(#paint62_linear_6_1233)"/>
<path d="M214.58 199.736L212.159 206.119L212.216 206.139L214.635 199.757L214.58 199.736Z" fill="url(#paint63_linear_6_1233)"/>
<path d="M214.525 199.716L212.104 206.098L212.159 206.119L214.58 199.736L214.525 199.716Z" fill="url(#paint64_linear_6_1233)"/>
<path d="M214.468 199.695L212.05 206.077L212.104 206.098L214.525 199.716L214.468 199.695Z" fill="url(#paint65_linear_6_1233)"/>
<path d="M214.414 199.676L211.993 206.059L212.05 206.077L214.469 199.695L214.414 199.676Z" fill="url(#paint66_linear_6_1233)"/>
<path d="M214.359 199.656L211.938 206.038L211.993 206.059L214.414 199.676L214.359 199.656Z" fill="url(#paint67_linear_6_1233)"/>
<path d="M214.302 199.635L211.883 206.017L211.938 206.038L214.359 199.656L214.302 199.635Z" fill="url(#paint68_linear_6_1233)"/>
<path d="M214.247 199.615L211.827 205.997L211.883 206.017L214.302 199.635L214.247 199.615Z" fill="url(#paint69_linear_6_1233)"/>
<path d="M214.193 199.594L211.772 205.976L211.827 205.997L214.247 199.615L214.193 199.594Z" fill="url(#paint70_linear_6_1233)"/>
<path d="M214.136 199.573L211.715 205.956L211.772 205.976L214.192 199.594L214.136 199.573Z" fill="url(#paint71_linear_6_1233)"/>
<path d="M214.081 199.555L211.66 205.937L211.715 205.956L214.136 199.573L214.081 199.555Z" fill="url(#paint72_linear_6_1233)"/>
<path d="M214.026 199.534L211.606 205.916L211.661 205.937L214.081 199.555L214.026 199.534Z" fill="url(#paint73_linear_6_1233)"/>
<path d="M213.97 199.513L211.549 205.896L211.606 205.916L214.026 199.534L213.97 199.513Z" fill="url(#paint74_linear_6_1233)"/>
<path d="M213.915 199.493L211.494 205.875L211.549 205.896L213.97 199.513L213.915 199.493Z" fill="url(#paint75_linear_6_1233)"/>
<path d="M213.86 199.472L211.439 205.855L211.494 205.875L213.915 199.493L213.86 199.472Z" fill="url(#paint76_linear_6_1233)"/>
<path d="M213.803 199.452L211.383 205.834L211.439 205.855L213.86 199.472L213.803 199.452Z" fill="url(#paint77_linear_6_1233)"/>
<path d="M213.748 199.433L211.328 205.813L211.383 205.834L213.803 199.452L213.748 199.433Z" fill="url(#paint78_linear_6_1233)"/>
<path d="M213.692 199.412L211.273 205.793L211.328 205.813L213.748 199.433L213.692 199.412Z" fill="url(#paint79_linear_6_1233)"/>
<path d="M213.637 199.392L211.217 205.774L211.273 205.793L213.692 199.412L213.637 199.392Z" fill="url(#paint80_linear_6_1233)"/>
<path d="M213.582 199.371L211.162 205.753L211.216 205.774L213.637 199.392L213.582 199.371Z" fill="url(#paint81_linear_6_1233)"/>
<path d="M213.526 199.351L211.107 205.733L211.162 205.753L213.582 199.371L213.526 199.351Z" fill="url(#paint82_linear_6_1233)"/>
<path d="M213.471 199.33L211.05 205.712L211.107 205.733L213.526 199.351L213.471 199.33Z" fill="url(#paint83_linear_6_1233)"/>
<path d="M213.416 199.309L210.995 205.692L211.05 205.712L213.471 199.33L213.416 199.309Z" fill="url(#paint84_linear_6_1233)"/>
<path d="M213.359 199.291L210.939 205.673L210.995 205.692L213.416 199.309L213.359 199.291Z" fill="url(#paint85_linear_6_1233)"/>
<path d="M213.305 199.27L210.884 205.652L210.939 205.673L213.359 199.291L213.305 199.27Z" fill="url(#paint86_linear_6_1233)"/>
<path d="M213.25 199.249L210.829 205.632L210.884 205.652L213.305 199.27L213.25 199.249Z" fill="url(#paint87_linear_6_1233)"/>
<path d="M213.193 199.229L210.772 205.611L210.829 205.632L213.25 199.249L213.193 199.229Z" fill="url(#paint88_linear_6_1233)"/>
<path d="M213.138 199.208L210.718 205.591L210.772 205.611L213.193 199.229L213.138 199.208Z" fill="url(#paint89_linear_6_1233)"/>
<path d="M213.083 199.188L210.663 205.57L210.718 205.591L213.138 199.208L213.083 199.188Z" fill="url(#paint90_linear_6_1233)"/>
<path d="M213.027 199.169L210.606 205.549L210.663 205.57L213.083 199.188L213.027 199.169Z" fill="url(#paint91_linear_6_1233)"/>
<path d="M212.972 199.148L210.551 205.529L210.606 205.549L213.027 199.169L212.972 199.148Z" fill="url(#paint92_linear_6_1233)"/>
<path d="M212.915 199.128L210.495 205.51L210.551 205.529L212.972 199.148L212.915 199.128Z" fill="url(#paint93_linear_6_1233)"/>
<path d="M212.861 199.107L210.44 205.489L210.495 205.51L212.915 199.128L212.861 199.107Z" fill="url(#paint94_linear_6_1233)"/>
<path d="M212.806 199.087L210.385 205.469L210.44 205.489L212.86 199.107L212.806 199.087Z" fill="url(#paint95_linear_6_1233)"/>
<path d="M212.749 199.066L210.33 205.448L210.385 205.469L212.806 199.087L212.749 199.066Z" fill="url(#paint96_linear_6_1233)"/>
<path d="M212.694 199.047L210.274 205.428L210.33 205.448L212.749 199.066L212.694 199.047Z" fill="url(#paint97_linear_6_1233)"/>
<path d="M212.639 199.027L210.219 205.407L210.274 205.428L212.694 199.047L212.639 199.027Z" fill="url(#paint98_linear_6_1233)"/>
<path d="M212.583 199.006L210.162 205.388L210.219 205.407L212.639 199.027L212.583 199.006Z" fill="url(#paint99_linear_6_1233)"/>
<path d="M212.528 198.985L210.107 205.368L210.162 205.388L212.583 199.006L212.528 198.985Z" fill="url(#paint100_linear_6_1233)"/>
<path d="M212.473 198.965L210.052 205.347L210.107 205.368L212.528 198.985L212.473 198.965Z" fill="url(#paint101_linear_6_1233)"/>
<path d="M212.416 198.944L209.996 205.327L210.052 205.347L212.473 198.965L212.416 198.944Z" fill="url(#paint102_linear_6_1233)"/>
<path d="M212.362 198.924L209.941 205.306L209.996 205.327L212.417 198.944L212.362 198.924Z" fill="url(#paint103_linear_6_1233)"/>
<path d="M212.307 198.905L209.886 205.287L209.941 205.306L212.362 198.924L212.307 198.905Z" fill="url(#paint104_linear_6_1233)"/>
<path d="M212.25 198.884L209.83 205.267L209.886 205.287L212.307 198.905L212.25 198.884Z" fill="url(#paint105_linear_6_1233)"/>
<path d="M212.195 198.864L209.775 205.246L209.83 205.267L212.25 198.884L212.195 198.864Z" fill="url(#paint106_linear_6_1233)"/>
<path d="M212.139 198.843L209.72 205.225L209.775 205.246L212.195 198.864L212.139 198.843Z" fill="url(#paint107_linear_6_1233)"/>
<path d="M212.084 198.823L209.663 205.205L209.72 205.225L212.139 198.843L212.084 198.823Z" fill="url(#paint108_linear_6_1233)"/>
<path d="M212.029 198.802L209.608 205.184L209.663 205.205L212.084 198.823L212.029 198.802Z" fill="url(#paint109_linear_6_1233)"/>
<path d="M211.973 198.783L209.552 205.164L209.609 205.184L212.029 198.802L211.973 198.783Z" fill="url(#paint110_linear_6_1233)"/>
<path d="M211.918 198.763L209.497 205.143L209.552 205.164L211.972 198.783L211.918 198.763Z" fill="url(#paint111_linear_6_1233)"/>
<path d="M211.863 198.742L209.442 205.124L209.497 205.143L211.918 198.763L211.863 198.742Z" fill="url(#paint112_linear_6_1233)"/>
<path d="M211.806 198.721L209.387 205.104L209.442 205.124L211.863 198.742L211.806 198.721Z" fill="url(#paint113_linear_6_1233)"/>
<path d="M211.751 198.701L209.331 205.083L209.387 205.104L211.806 198.721L211.751 198.701Z" fill="url(#paint114_linear_6_1233)"/>
<path d="M211.696 198.68L209.276 205.063L209.331 205.083L211.751 198.701L211.696 198.68Z" fill="url(#paint115_linear_6_1233)"/>
<path d="M211.64 198.661L209.219 205.042L209.276 205.063L211.696 198.68L211.64 198.661Z" fill="url(#paint116_linear_6_1233)"/>
<path d="M211.585 198.641L209.165 205.021L209.219 205.042L211.64 198.661L211.585 198.641Z" fill="url(#paint117_linear_6_1233)"/>
<path d="M211.53 198.62L209.11 205.003L209.164 205.021L211.585 198.641L211.53 198.62Z" fill="url(#paint118_linear_6_1233)"/>
<path d="M211.474 198.6L209.053 204.982L209.11 205.003L211.53 198.62L211.474 198.6Z" fill="url(#paint119_linear_6_1233)"/>
<path d="M211.419 198.579L208.998 204.961L209.053 204.982L211.474 198.6L211.419 198.579Z" fill="url(#paint120_linear_6_1233)"/>
<path d="M211.362 198.559L208.943 204.941L208.998 204.961L211.419 198.579L211.362 198.559Z" fill="url(#paint121_linear_6_1233)"/>
<path d="M211.307 198.538L208.887 204.92L208.943 204.941L211.362 198.559L211.307 198.538Z" fill="url(#paint122_linear_6_1233)"/>
<path d="M211.253 198.519L208.832 204.9L208.887 204.92L211.307 198.538L211.253 198.519Z" fill="url(#paint123_linear_6_1233)"/>
<path d="M211.196 198.499L208.775 204.879L208.832 204.9L211.253 198.519L211.196 198.499Z" fill="url(#paint124_linear_6_1233)"/>
<path d="M211.141 198.478L208.72 204.86L208.775 204.879L211.196 198.499L211.141 198.478Z" fill="url(#paint125_linear_6_1233)"/>
<path d="M211.086 198.457L208.666 204.84L208.72 204.86L211.141 198.478L211.086 198.457Z" fill="url(#paint126_linear_6_1233)"/>
<path d="M211.03 198.437L208.609 204.819L208.666 204.84L211.086 198.457L211.03 198.437Z" fill="url(#paint127_linear_6_1233)"/>
<path d="M210.975 198.416L208.554 204.799L208.609 204.819L211.03 198.437L210.975 198.416Z" fill="url(#paint128_linear_6_1233)"/>
<path d="M210.92 198.397L208.499 204.778L208.554 204.799L210.975 198.416L210.92 198.397Z" fill="url(#paint129_linear_6_1233)"/>
<path d="M210.863 198.377L208.443 204.757L208.499 204.778L210.92 198.397L210.863 198.377Z" fill="url(#paint130_linear_6_1233)"/>
<path d="M210.809 198.356L208.388 204.739L208.443 204.757L210.863 198.377L210.809 198.356Z" fill="url(#paint131_linear_6_1233)"/>
<path d="M210.752 198.336L208.333 204.718L208.388 204.739L210.808 198.356L210.752 198.336Z" fill="url(#paint132_linear_6_1233)"/>
<path d="M210.697 198.315L208.277 204.697L208.333 204.718L210.752 198.336L210.697 198.315Z" fill="url(#paint133_linear_6_1233)"/>
<path d="M210.642 198.295L208.222 204.677L208.277 204.697L210.697 198.315L210.642 198.295Z" fill="url(#paint134_linear_6_1233)"/>
<path d="M210.587 198.274L208.167 204.656L208.222 204.677L210.642 198.295L210.587 198.274Z" fill="url(#paint135_linear_6_1233)"/>
<path d="M210.531 198.255L208.11 204.636L208.167 204.656L210.587 198.274L210.531 198.255Z" fill="url(#paint136_linear_6_1233)"/>
<path d="M210.476 198.235L208.055 204.617L208.11 204.636L210.531 198.255L210.476 198.235Z" fill="url(#paint137_linear_6_1233)"/>
<path d="M210.419 198.214L207.999 204.596L208.055 204.617L210.476 198.235L210.419 198.214Z" fill="url(#paint138_linear_6_1233)"/>
<path d="M210.364 198.193L207.944 204.576L207.999 204.596L210.419 198.214L210.364 198.193Z" fill="url(#paint139_linear_6_1233)"/>
<path d="M210.31 198.173L207.889 204.555L207.944 204.576L210.365 198.193L210.31 198.173Z" fill="url(#paint140_linear_6_1233)"/>
<path d="M210.253 198.152L207.833 204.535L207.889 204.555L210.31 198.173L210.253 198.152Z" fill="url(#paint141_linear_6_1233)"/>
<path d="M210.198 198.133L207.778 204.514L207.832 204.535L210.253 198.152L210.198 198.133Z" fill="url(#paint142_linear_6_1233)"/>
<path d="M210.143 198.113L207.723 204.495L207.778 204.514L210.198 198.133L210.143 198.113Z" fill="url(#paint143_linear_6_1233)"/>
<path d="M210.087 198.092L207.666 204.475L207.723 204.495L210.143 198.113L210.087 198.092Z" fill="url(#paint144_linear_6_1233)"/>
<path d="M210.032 198.072L207.611 204.454L207.666 204.475L210.087 198.092L210.032 198.072Z" fill="url(#paint145_linear_6_1233)"/>
<path d="M209.977 198.051L207.556 204.433L207.611 204.454L210.032 198.072L209.977 198.051Z" fill="url(#paint146_linear_6_1233)"/>
<path d="M209.921 198.031L207.5 204.413L207.557 204.433L209.977 198.051L209.921 198.031Z" fill="url(#paint147_linear_6_1233)"/>
<path d="M209.866 198.012L207.445 204.392L207.5 204.413L209.921 198.031L209.866 198.012Z" fill="url(#paint148_linear_6_1233)"/>
<path d="M209.809 197.991L207.39 204.372L207.445 204.392L209.866 198.012L209.809 197.991Z" fill="url(#paint149_linear_6_1233)"/>
<path d="M209.754 197.971L207.334 204.353L207.39 204.372L209.809 197.991L209.754 197.971Z" fill="url(#paint150_linear_6_1233)"/>
<path d="M209.699 197.95L207.279 204.332L207.334 204.353L209.754 197.971L209.699 197.95Z" fill="url(#paint151_linear_6_1233)"/>
<path d="M209.643 197.929L207.222 204.312L207.279 204.332L209.699 197.95L209.643 197.929Z" fill="url(#paint152_linear_6_1233)"/>
<path d="M209.588 197.909L207.167 204.291L207.222 204.312L209.643 197.929L209.588 197.909Z" fill="url(#paint153_linear_6_1233)"/>
<path d="M209.533 197.888L207.113 204.271L207.167 204.291L209.588 197.909L209.533 197.888Z" fill="url(#paint154_linear_6_1233)"/>
<path d="M209.476 197.869L207.056 204.25L207.112 204.271L209.533 197.888L209.476 197.869Z" fill="url(#paint155_linear_6_1233)"/>
<path d="M209.422 197.849L207.001 204.231L207.056 204.25L209.476 197.869L209.422 197.849Z" fill="url(#paint156_linear_6_1233)"/>
<path d="M209.367 197.828L206.946 204.211L207.001 204.231L209.422 197.849L209.367 197.828Z" fill="url(#paint157_linear_6_1233)"/>
<path d="M209.31 197.808L206.89 204.19L206.946 204.211L209.367 197.828L209.31 197.808Z" fill="url(#paint158_linear_6_1233)"/>
<path d="M209.255 197.787L206.835 204.169L206.89 204.19L209.31 197.808L209.255 197.787Z" fill="url(#paint159_linear_6_1233)"/>
<path d="M209.199 197.767L206.78 204.149L206.835 204.169L209.255 197.787L209.199 197.767Z" fill="url(#paint160_linear_6_1233)"/>
<path d="M209.144 197.748L206.723 204.128L206.78 204.149L209.199 197.767L209.144 197.748Z" fill="url(#paint161_linear_6_1233)"/>
<path d="M209.089 197.727L206.668 204.108L206.723 204.128L209.144 197.748L209.089 197.727Z" fill="url(#paint162_linear_6_1233)"/>
<path d="M209.032 197.707L206.614 204.089L206.668 204.108L209.089 197.727L209.032 197.707Z" fill="url(#paint163_linear_6_1233)"/>
<path d="M208.978 197.686L206.557 204.068L206.614 204.089L209.033 197.707L208.978 197.686Z" fill="url(#paint164_linear_6_1233)"/>
<path d="M208.923 197.665L206.502 204.048L206.557 204.068L208.978 197.686L208.923 197.665Z" fill="url(#paint165_linear_6_1233)"/>
<path d="M208.866 197.645L208.64 200.763L207.327 204.349L206.502 204.048L208.923 197.665L208.866 197.645Z" fill="url(#paint166_linear_6_1233)"/>
<path d="M207.99 200.525L208.631 198.291L208.786 198.348L207.99 200.525Z" fill="url(#paint167_linear_6_1233)"/>
</g>
<path d="M252.821 166.147C252.821 166.147 251.413 132.257 231.735 125.203C231.735 125.203 237.898 123.66 243.373 127.733C248.849 131.806 261.262 150.61 257.727 167.945C253.407 168.502 252.821 166.147 252.821 166.147Z" fill="url(#paint168_linear_6_1233)"/>
<path d="M256.631 164.811C267.416 169.133 263.447 183.044 263.447 183.044C262.374 193.471 258.443 198.017 254.154 199.742C252.713 200.319 251.147 200.514 249.609 200.308C248.07 200.101 246.611 199.5 245.374 198.563C244.136 197.625 243.163 196.384 242.547 194.958C241.931 193.533 241.695 191.973 241.861 190.429C242.166 187.594 242.417 184.891 242.375 183.915C242.297 181.529 245.849 160.489 256.631 164.811Z" fill="url(#paint169_linear_6_1233)"/>
<path d="M254.948 168.204C256.112 168.212 257.239 168.613 258.147 169.341C259.055 170.069 259.691 171.083 259.952 172.217C263.809 188.948 253.746 197.532 249.666 197.004C245.381 196.448 249.202 176.005 251.064 170.926C251.852 168.797 253.405 168.19 254.948 168.204Z" fill="url(#paint170_linear_6_1233)"/>
<path d="M190.582 346.704L191.909 346.532L183.713 281.929C183.463 279.969 182.537 278.157 181.094 276.806C179.651 275.456 177.782 274.651 175.81 274.531L22.1274 265.248L22.0469 266.583L175.729 275.864C177.391 275.966 178.964 276.644 180.18 277.781C181.395 278.919 182.175 280.445 182.386 282.096L190.582 346.704Z" fill="#91B3FA"/>
<path d="M194.246 364.938L192.919 365.105L194.681 379.093L196.008 378.926L194.246 364.938Z" fill="#91B3FA"/>
<path d="M137.638 197.897C137.638 197.897 -12.1171 123.905 36.8583 69.4283C85.8337 14.9517 177.138 36.7249 181.763 94.0626C186.389 151.4 75.2583 137.948 137.638 197.897Z" fill="#B4D7E3"/>
<path d="M48.0166 83.4975C48.0166 83.6957 48.0557 83.892 48.1316 84.0752C48.2075 84.2583 48.3188 84.4247 48.4591 84.5648C48.5993 84.7049 48.7658 84.816 48.9491 84.8917C49.1323 84.9674 49.3286 85.0063 49.5269 85.006H115.618C115.82 85.0129 116.022 84.9789 116.211 84.9061C116.4 84.8333 116.573 84.7232 116.718 84.5824C116.864 84.4415 116.98 84.2728 117.059 84.0863C117.138 83.8998 117.179 83.6992 117.179 83.4966C117.179 83.294 117.138 83.0935 117.059 82.9069C116.98 82.7204 116.864 82.5517 116.718 82.4108C116.573 82.27 116.4 82.1599 116.211 82.0871C116.022 82.0144 115.82 81.9804 115.618 81.9872H49.5269C49.3285 81.987 49.132 82.0259 48.9487 82.1017C48.7653 82.1775 48.5987 82.2887 48.4585 82.429C48.3182 82.5693 48.2069 82.7359 48.1311 82.9192C48.0553 83.1026 48.0164 83.2991 48.0166 83.4975Z" fill="white"/>
<path d="M135.241 85.006H154.853C155.055 85.0129 155.257 84.9789 155.446 84.9061C155.635 84.8333 155.808 84.7232 155.953 84.5824C156.099 84.4415 156.215 84.2728 156.294 84.0863C156.373 83.8998 156.414 83.6992 156.414 83.4966C156.414 83.294 156.373 83.0935 156.294 82.9069C156.215 82.7204 156.099 82.5517 155.953 82.4108C155.808 82.27 155.635 82.1599 155.446 82.0871C155.257 82.0144 155.055 81.9804 154.853 81.9872H135.241C134.85 82.0004 134.479 82.1652 134.206 82.4468C133.934 82.7285 133.782 83.1049 133.782 83.4966C133.782 83.8884 133.934 84.2648 134.206 84.5464C134.479 84.828 134.85 84.9928 135.241 85.006Z" fill="white"/>
<path d="M45.7898 96.8758C45.7898 97.2763 45.9489 97.6605 46.2321 97.9437C46.5154 98.2269 46.8995 98.386 47.3001 98.386H72.1126C72.3151 98.3929 72.517 98.3589 72.706 98.2861C72.8951 98.2133 73.0677 98.1032 73.2133 97.9624C73.359 97.8216 73.4748 97.6528 73.5539 97.4663C73.633 97.2798 73.6738 97.0792 73.6738 96.8766C73.6738 96.674 73.633 96.4735 73.5539 96.2869C73.4748 96.1004 73.359 95.9317 73.2133 95.7908C73.0677 95.65 72.8951 95.5399 72.706 95.4671C72.517 95.3944 72.3151 95.3604 72.1126 95.3672H47.3001C46.8998 95.3672 46.5159 95.5261 46.2328 95.8089C45.9496 96.0918 45.7902 96.4755 45.7898 96.8758Z" fill="white"/>
<path d="M107.021 96.8758C107.021 97.0742 107.059 97.2706 107.135 97.454C107.211 97.6373 107.322 97.8039 107.463 97.9442C107.603 98.0845 107.769 98.1957 107.953 98.2715C108.136 98.3474 108.333 98.3863 108.531 98.386H152.626C152.828 98.3929 153.03 98.3589 153.219 98.2861C153.408 98.2133 153.581 98.1032 153.727 97.9624C153.872 97.8216 153.988 97.6528 154.067 97.4663C154.146 97.2798 154.187 97.0792 154.187 96.8766C154.187 96.674 154.146 96.4735 154.067 96.2869C153.988 96.1004 153.872 95.9317 153.727 95.7908C153.581 95.65 153.408 95.5399 153.219 95.4671C153.03 95.3944 152.828 95.3604 152.626 95.3672H108.531C108.333 95.367 108.136 95.4058 107.953 95.4815C107.77 95.5572 107.603 95.6683 107.463 95.8084C107.323 95.9485 107.212 96.1149 107.136 96.2981C107.06 96.4812 107.021 96.6775 107.021 96.8758Z" fill="white"/>
<path d="M45.0733 111.771H111.042C111.443 111.771 111.827 111.612 112.11 111.329C112.394 111.046 112.553 110.661 112.553 110.261C112.553 109.86 112.394 109.476 112.11 109.193C111.827 108.91 111.443 108.751 111.042 108.751H45.0733C44.6727 108.751 44.2886 108.91 44.0053 109.193C43.7221 109.476 43.563 109.86 43.563 110.261C43.563 110.661 43.7221 111.046 44.0053 111.329C44.2886 111.612 44.6727 111.771 45.0733 111.771Z" fill="white"/>
<path d="M127.561 111.771H150.401C150.801 111.771 151.185 111.612 151.469 111.329C151.752 111.046 151.911 110.661 151.911 110.261C151.911 109.86 151.752 109.476 151.469 109.193C151.185 108.91 150.801 108.751 150.401 108.751H127.561C127.161 108.751 126.777 108.91 126.493 109.193C126.21 109.476 126.051 109.86 126.051 110.261C126.051 110.661 126.21 111.046 126.493 111.329C126.777 111.612 127.161 111.771 127.561 111.771Z" fill="white"/>
<path d="M358.563 148.453C390.542 148.453 416.466 122.529 416.466 90.55C416.466 58.5709 390.542 32.6466 358.563 32.6466C326.584 32.6466 300.659 58.5709 300.659 90.55C300.659 122.529 326.584 148.453 358.563 148.453Z" fill="url(#paint171_linear_6_1233)"/>
<path d="M358.884 142.436C387.142 142.436 410.05 119.528 410.05 91.27C410.05 63.0117 387.142 40.1038 358.884 40.1038C330.625 40.1038 307.717 63.0117 307.717 91.27C307.717 119.528 330.625 142.436 358.884 142.436Z" fill="white"/>
<path d="M336.636 106.366H318.857V101.763L324.752 93.4181C326.37 91.1209 327.482 89.4164 328.086 88.3044C328.65 87.2917 329.098 86.2194 329.424 85.1072C329.713 84.0774 329.858 83.0124 329.856 81.9426C329.856 80.6729 329.57 79.7204 328.998 79.0849C328.722 78.7734 328.381 78.5267 327.999 78.3622C327.617 78.1977 327.203 78.1197 326.787 78.1335C325.994 78.1308 325.216 78.3505 324.541 78.7678C323.845 79.1906 322.999 79.9541 322.002 81.0581L318.555 77.4289C320.142 75.6301 321.617 74.3981 322.978 73.7329C324.355 73.0638 325.868 72.7224 327.399 72.7352C330.074 72.7352 332.165 73.5215 333.67 75.0941C335.175 76.6666 335.932 78.8518 335.941 81.6495C335.947 82.8613 335.81 84.0696 335.533 85.2495C335.244 86.428 334.83 87.5723 334.297 88.6626C333.688 89.8994 332.992 91.091 332.213 92.2284C331.382 93.4615 329.236 96.2844 325.774 100.697V100.879H336.636V106.366Z" fill="url(#paint172_linear_6_1233)"/>
<path d="M359.494 99.4044H356.137V106.366H350.341V99.4044H339.524V94.3935L349.548 73.2135H356.146V94.2992H359.502L359.494 99.4044ZM350.341 94.3026V87.3186L350.454 84.2329L350.612 81.2844H350.43C349.954 82.8081 349.381 84.3002 348.716 85.7518L344.725 94.3009L350.341 94.3026Z" fill="url(#paint173_linear_6_1233)"/>
<path d="M378.701 73.2135L366.341 106.366H360.536L372.894 73.2135H378.701Z" fill="url(#paint174_linear_6_1233)"/>
<path d="M383.055 106.366L392.351 78.7232H380.787V73.2581H398.566V77.4306L389.427 106.366H383.055Z" fill="url(#paint175_linear_6_1233)"/>
</g>
<defs>
<linearGradient id="paint0_linear_6_1233" x1="537.793" y1="610.987" x2="118.023" y2="89.6586" gradientUnits="userSpaceOnUse">
<stop stop-color="#DAE3FE"/>
<stop offset="1" stop-color="#E9EFFD"/>
</linearGradient>
<linearGradient id="paint1_linear_6_1233" x1="505.8" y1="33" x2="-93.6864" y2="570.886" gradientUnits="userSpaceOnUse">
<stop stop-color="#010648"/>
<stop offset="1" stop-color="#6165D7"/>
</linearGradient>
<linearGradient id="paint2_linear_6_1233" x1="-2935.81" y1="3597.14" x2="-2791.52" y2="3448.24" gradientUnits="userSpaceOnUse">
<stop stop-color="#FC9D8A"/>
<stop offset="1" stop-color="#EF816B"/>
</linearGradient>
<linearGradient id="paint3_linear_6_1233" x1="246.309" y1="304.403" x2="222.231" y2="202.338" gradientUnits="userSpaceOnUse">
<stop stop-color="#FEBBBA"/>
<stop offset="1" stop-color="#FF928E"/>
</linearGradient>
<linearGradient id="paint4_linear_6_1233" x1="244.155" y1="189.312" x2="200.26" y2="177.903" gradientUnits="userSpaceOnUse">
<stop stop-color="#FEBBBA"/>
<stop offset="1" stop-color="#FF928E"/>
</linearGradient>
<linearGradient id="paint5_linear_6_1233" x1="283.811" y1="210.236" x2="201.377" y2="113.095" gradientUnits="userSpaceOnUse">
<stop stop-color="#010648"/>
<stop offset="1" stop-color="#010648"/>
</linearGradient>
<linearGradient id="paint6_linear_6_1233" x1="246.65" y1="179.715" x2="202.753" y2="168.307" gradientUnits="userSpaceOnUse">
<stop stop-color="#FEBBBA"/>
<stop offset="1" stop-color="#FF928E"/>
</linearGradient>
<linearGradient id="paint7_linear_6_1233" x1="-2778.27" y1="3510.66" x2="-2639.38" y2="3367.33" gradientUnits="userSpaceOnUse">
<stop stop-color="#FC9D8A"/>
<stop offset="1" stop-color="#F8937F"/>
</linearGradient>
<linearGradient id="paint8_linear_6_1233" x1="496.11" y1="113.96" x2="80.4561" y2="544.707" gradientUnits="userSpaceOnUse">
<stop stop-color="#E1473D"/>
<stop offset="1" stop-color="#E9605A"/>
</linearGradient>
<linearGradient id="paint9_linear_6_1233" x1="299.286" y1="346.731" x2="253.985" y2="465.946" gradientUnits="userSpaceOnUse">
<stop stop-color="#FEBBBA"/>
<stop offset="1" stop-color="#FF928E"/>
</linearGradient>
<linearGradient id="paint10_linear_6_1233" x1="243.08" y1="325.371" x2="197.777" y2="444.588" gradientUnits="userSpaceOnUse">
<stop stop-color="#FEBBBA"/>
<stop offset="1" stop-color="#FF928E"/>
</linearGradient>
<linearGradient id="paint11_linear_6_1233" x1="47.3905" y1="328.222" x2="56.7644" y2="282.063" gradientUnits="userSpaceOnUse">
<stop stop-color="#30ABBA"/>
<stop offset="1" stop-color="#6165D7"/>
</linearGradient>
<linearGradient id="paint12_linear_6_1233" x1="246.645" y1="213.192" x2="224.547" y2="182.754" gradientUnits="userSpaceOnUse">
<stop stop-color="#4F52FF"/>
<stop offset="1" stop-color="#4042E2"/>
</linearGradient>
<linearGradient id="paint13_linear_6_1233" x1="208.513" y1="201.807" x2="217.033" y2="201.807" gradientUnits="userSpaceOnUse">
<stop stop-color="#4F52FF"/>
<stop offset="1" stop-color="#4042E2"/>
</linearGradient>
<linearGradient id="paint14_linear_6_1233" x1="215.159" y1="205.121" x2="216.209" y2="205.121" gradientUnits="userSpaceOnUse">
<stop stop-color="#4F52FF"/>
<stop offset="1" stop-color="#4042E2"/>
</linearGradient>
<linearGradient id="paint15_linear_6_1233" x1="214.822" y1="203.912" x2="217.684" y2="203.912" gradientUnits="userSpaceOnUse">
<stop stop-color="#4F52FF"/>
<stop offset="1" stop-color="#4042E2"/>
</linearGradient>
<linearGradient id="paint16_linear_6_1233" x1="214.767" y1="203.892" x2="217.242" y2="203.892" gradientUnits="userSpaceOnUse">
<stop stop-color="#4F52FF"/>
<stop offset="1" stop-color="#4042E2"/>
</linearGradient>
<linearGradient id="paint17_linear_6_1233" x1="214.712" y1="203.871" x2="217.187" y2="203.871" gradientUnits="userSpaceOnUse">
<stop stop-color="#4F52FF"/>
<stop offset="1" stop-color="#4042E2"/>
</linearGradient>
<linearGradient id="paint18_linear_6_1233" x1="214.655" y1="203.851" x2="217.132" y2="203.851" gradientUnits="userSpaceOnUse">
<stop stop-color="#4F52FF"/>
<stop offset="1" stop-color="#4042E2"/>
</linearGradient>
<linearGradient id="paint19_linear_6_1233" x1="214.601" y1="203.832" x2="217.076" y2="203.832" gradientUnits="userSpaceOnUse">
<stop stop-color="#4F52FF"/>
<stop offset="1" stop-color="#4042E2"/>
</linearGradient>
<linearGradient id="paint20_linear_6_1233" x1="214.546" y1="203.811" x2="217.021" y2="203.811" gradientUnits="userSpaceOnUse">
<stop stop-color="#4F52FF"/>
<stop offset="1" stop-color="#4042E2"/>
</linearGradient>
<linearGradient id="paint21_linear_6_1233" x1="214.489" y1="203.791" x2="216.964" y2="203.791" gradientUnits="userSpaceOnUse">
<stop stop-color="#4F52FF"/>
<stop offset="1" stop-color="#4042E2"/>
</linearGradient>
<linearGradient id="paint22_linear_6_1233" x1="214.434" y1="203.77" x2="216.91" y2="203.77" gradientUnits="userSpaceOnUse">
<stop stop-color="#4F52FF"/>
<stop offset="1" stop-color="#4042E2"/>
</linearGradient>
<linearGradient id="paint23_linear_6_1233" x1="214.379" y1="203.749" x2="216.855" y2="203.749" gradientUnits="userSpaceOnUse">
<stop stop-color="#4F52FF"/>
<stop offset="1" stop-color="#4042E2"/>
</linearGradient>
<linearGradient id="paint24_linear_6_1233" x1="214.323" y1="203.729" x2="216.798" y2="203.729" gradientUnits="userSpaceOnUse">
<stop stop-color="#4F52FF"/>
<stop offset="1" stop-color="#4042E2"/>
</linearGradient>
<linearGradient id="paint25_linear_6_1233" x1="214.268" y1="203.71" x2="216.743" y2="203.71" gradientUnits="userSpaceOnUse">
<stop stop-color="#4F52FF"/>
<stop offset="1" stop-color="#4042E2"/>
</linearGradient>
<linearGradient id="paint26_linear_6_1233" x1="214.211" y1="203.689" x2="216.689" y2="203.689" gradientUnits="userSpaceOnUse">
<stop stop-color="#4F52FF"/>
<stop offset="1" stop-color="#4042E2"/>
</linearGradient>
<linearGradient id="paint27_linear_6_1233" x1="214.156" y1="203.669" x2="216.632" y2="203.669" gradientUnits="userSpaceOnUse">
<stop stop-color="#4F52FF"/>
<stop offset="1" stop-color="#4042E2"/>
</linearGradient>
<linearGradient id="paint28_linear_6_1233" x1="214.102" y1="203.648" x2="216.577" y2="203.648" gradientUnits="userSpaceOnUse">
<stop stop-color="#4F52FF"/>
<stop offset="1" stop-color="#4042E2"/>
</linearGradient>
<linearGradient id="paint29_linear_6_1233" x1="214.045" y1="203.628" x2="216.522" y2="203.628" gradientUnits="userSpaceOnUse">
<stop stop-color="#4F52FF"/>
<stop offset="1" stop-color="#4042E2"/>
</linearGradient>
<linearGradient id="paint30_linear_6_1233" x1="213.99" y1="203.607" x2="216.466" y2="203.607" gradientUnits="userSpaceOnUse">
<stop stop-color="#4F52FF"/>
<stop offset="1" stop-color="#4042E2"/>
</linearGradient>
<linearGradient id="paint31_linear_6_1233" x1="213.935" y1="203.588" x2="216.411" y2="203.588" gradientUnits="userSpaceOnUse">
<stop stop-color="#4F52FF"/>
<stop offset="1" stop-color="#4042E2"/>
</linearGradient>
<linearGradient id="paint32_linear_6_1233" x1="213.879" y1="203.568" x2="216.356" y2="203.568" gradientUnits="userSpaceOnUse">
<stop stop-color="#4F52FF"/>
<stop offset="1" stop-color="#4042E2"/>
</linearGradient>
<linearGradient id="paint33_linear_6_1233" x1="213.824" y1="203.547" x2="216.299" y2="203.547" gradientUnits="userSpaceOnUse">
<stop stop-color="#4F52FF"/>
<stop offset="1" stop-color="#4042E2"/>
</linearGradient>
<linearGradient id="paint34_linear_6_1233" x1="213.769" y1="203.527" x2="216.244" y2="203.527" gradientUnits="userSpaceOnUse">
<stop stop-color="#4F52FF"/>
<stop offset="1" stop-color="#4042E2"/>
</linearGradient>
<linearGradient id="paint35_linear_6_1233" x1="213.712" y1="203.506" x2="216.188" y2="203.506" gradientUnits="userSpaceOnUse">
<stop stop-color="#4F52FF"/>
<stop offset="1" stop-color="#4042E2"/>
</linearGradient>
<linearGradient id="paint36_linear_6_1233" x1="213.658" y1="203.485" x2="216.133" y2="203.485" gradientUnits="userSpaceOnUse">
<stop stop-color="#4F52FF"/>
<stop offset="1" stop-color="#4042E2"/>
</linearGradient>
<linearGradient id="paint37_linear_6_1233" x1="213.603" y1="203.465" x2="216.078" y2="203.465" gradientUnits="userSpaceOnUse">
<stop stop-color="#4F52FF"/>
<stop offset="1" stop-color="#4042E2"/>
</linearGradient>
<linearGradient id="paint38_linear_6_1233" x1="213.546" y1="203.446" x2="216.022" y2="203.446" gradientUnits="userSpaceOnUse">
<stop stop-color="#4F52FF"/>
<stop offset="1" stop-color="#4042E2"/>
</linearGradient>
<linearGradient id="paint39_linear_6_1233" x1="213.491" y1="203.425" x2="215.967" y2="203.425" gradientUnits="userSpaceOnUse">
<stop stop-color="#4F52FF"/>
<stop offset="1" stop-color="#4042E2"/>
</linearGradient>
<linearGradient id="paint40_linear_6_1233" x1="213.435" y1="203.405" x2="215.912" y2="203.405" gradientUnits="userSpaceOnUse">
<stop stop-color="#4F52FF"/>
<stop offset="1" stop-color="#4042E2"/>
</linearGradient>
<linearGradient id="paint41_linear_6_1233" x1="213.38" y1="203.384" x2="215.855" y2="203.384" gradientUnits="userSpaceOnUse">
<stop stop-color="#4F52FF"/>
<stop offset="1" stop-color="#4042E2"/>
</linearGradient>
<linearGradient id="paint42_linear_6_1233" x1="213.325" y1="203.364" x2="215.8" y2="203.364" gradientUnits="userSpaceOnUse">
<stop stop-color="#4F52FF"/>
<stop offset="1" stop-color="#4042E2"/>
</linearGradient>
<linearGradient id="paint43_linear_6_1233" x1="213.269" y1="203.343" x2="215.746" y2="203.343" gradientUnits="userSpaceOnUse">
<stop stop-color="#4F52FF"/>
<stop offset="1" stop-color="#4042E2"/>
</linearGradient>
<linearGradient id="paint44_linear_6_1233" x1="213.214" y1="203.324" x2="215.689" y2="203.324" gradientUnits="userSpaceOnUse">
<stop stop-color="#4F52FF"/>
<stop offset="1" stop-color="#4042E2"/>
</linearGradient>
<linearGradient id="paint45_linear_6_1233" x1="213.159" y1="203.304" x2="215.634" y2="203.304" gradientUnits="userSpaceOnUse">
<stop stop-color="#4F52FF"/>
<stop offset="1" stop-color="#4042E2"/>
</linearGradient>
<linearGradient id="paint46_linear_6_1233" x1="213.102" y1="203.283" x2="215.579" y2="203.283" gradientUnits="userSpaceOnUse">
<stop stop-color="#4F52FF"/>
<stop offset="1" stop-color="#4042E2"/>
</linearGradient>
<linearGradient id="paint47_linear_6_1233" x1="213.047" y1="203.263" x2="215.523" y2="203.263" gradientUnits="userSpaceOnUse">
<stop stop-color="#4F52FF"/>
<stop offset="1" stop-color="#4042E2"/>
</linearGradient>
<linearGradient id="paint48_linear_6_1233" x1="212.992" y1="203.242" x2="215.468" y2="203.242" gradientUnits="userSpaceOnUse">
<stop stop-color="#4F52FF"/>
<stop offset="1" stop-color="#4042E2"/>
</linearGradient>
<linearGradient id="paint49_linear_6_1233" x1="212.936" y1="203.221" x2="215.411" y2="203.221" gradientUnits="userSpaceOnUse">
<stop stop-color="#4F52FF"/>
<stop offset="1" stop-color="#4042E2"/>
</linearGradient>
<linearGradient id="paint50_linear_6_1233" x1="212.881" y1="203.201" x2="215.357" y2="203.201" gradientUnits="userSpaceOnUse">
<stop stop-color="#4F52FF"/>
<stop offset="1" stop-color="#4042E2"/>
</linearGradient>
<linearGradient id="paint51_linear_6_1233" x1="212.826" y1="203.182" x2="215.302" y2="203.182" gradientUnits="userSpaceOnUse">
<stop stop-color="#4F52FF"/>
<stop offset="1" stop-color="#4042E2"/>
</linearGradient>
<linearGradient id="paint52_linear_6_1233" x1="212.77" y1="203.161" x2="215.245" y2="203.161" gradientUnits="userSpaceOnUse">
<stop stop-color="#4F52FF"/>
<stop offset="1" stop-color="#4042E2"/>
</linearGradient>
<linearGradient id="paint53_linear_6_1233" x1="212.715" y1="203.141" x2="215.19" y2="203.141" gradientUnits="userSpaceOnUse">
<stop stop-color="#4F52FF"/>
<stop offset="1" stop-color="#4042E2"/>
</linearGradient>
<linearGradient id="paint54_linear_6_1233" x1="212.658" y1="203.12" x2="215.135" y2="203.12" gradientUnits="userSpaceOnUse">
<stop stop-color="#4F52FF"/>
<stop offset="1" stop-color="#4042E2"/>
</linearGradient>
<linearGradient id="paint55_linear_6_1233" x1="212.603" y1="203.1" x2="215.079" y2="203.1" gradientUnits="userSpaceOnUse">
<stop stop-color="#4F52FF"/>
<stop offset="1" stop-color="#4042E2"/>
</linearGradient>
<linearGradient id="paint56_linear_6_1233" x1="212.549" y1="203.079" x2="215.024" y2="203.079" gradientUnits="userSpaceOnUse">
<stop stop-color="#4F52FF"/>
<stop offset="1" stop-color="#4042E2"/>
</linearGradient>
<linearGradient id="paint57_linear_6_1233" x1="212.492" y1="203.06" x2="214.969" y2="203.06" gradientUnits="userSpaceOnUse">
<stop stop-color="#4F52FF"/>
<stop offset="1" stop-color="#4042E2"/>
</linearGradient>
<linearGradient id="paint58_linear_6_1233" x1="212.437" y1="203.04" x2="214.912" y2="203.04" gradientUnits="userSpaceOnUse">
<stop stop-color="#4F52FF"/>
<stop offset="1" stop-color="#4042E2"/>
</linearGradient>
<linearGradient id="paint59_linear_6_1233" x1="212.382" y1="203.019" x2="214.858" y2="203.019" gradientUnits="userSpaceOnUse">
<stop stop-color="#4F52FF"/>
<stop offset="1" stop-color="#4042E2"/>
</linearGradient>
<linearGradient id="paint60_linear_6_1233" x1="212.326" y1="202.999" x2="214.803" y2="202.999" gradientUnits="userSpaceOnUse">
<stop stop-color="#4F52FF"/>
<stop offset="1" stop-color="#4042E2"/>
</linearGradient>
<linearGradient id="paint61_linear_6_1233" x1="212.271" y1="202.978" x2="214.746" y2="202.978" gradientUnits="userSpaceOnUse">
<stop stop-color="#4F52FF"/>
<stop offset="1" stop-color="#4042E2"/>
</linearGradient>
<linearGradient id="paint62_linear_6_1233" x1="212.216" y1="202.957" x2="214.691" y2="202.957" gradientUnits="userSpaceOnUse">
<stop stop-color="#4F52FF"/>
<stop offset="1" stop-color="#4042E2"/>
</linearGradient>
<linearGradient id="paint63_linear_6_1233" x1="212.159" y1="202.937" x2="214.635" y2="202.937" gradientUnits="userSpaceOnUse">
<stop stop-color="#4F52FF"/>
<stop offset="1" stop-color="#4042E2"/>
</linearGradient>
<linearGradient id="paint64_linear_6_1233" x1="212.104" y1="202.918" x2="214.58" y2="202.918" gradientUnits="userSpaceOnUse">
<stop stop-color="#4F52FF"/>
<stop offset="1" stop-color="#4042E2"/>
</linearGradient>
<linearGradient id="paint65_linear_6_1233" x1="212.05" y1="202.897" x2="214.525" y2="202.897" gradientUnits="userSpaceOnUse">
<stop stop-color="#4F52FF"/>
<stop offset="1" stop-color="#4042E2"/>
</linearGradient>
<linearGradient id="paint66_linear_6_1233" x1="211.993" y1="202.877" x2="214.469" y2="202.877" gradientUnits="userSpaceOnUse">
<stop stop-color="#4F52FF"/>
<stop offset="1" stop-color="#4042E2"/>
</linearGradient>
<linearGradient id="paint67_linear_6_1233" x1="211.938" y1="202.856" x2="214.414" y2="202.856" gradientUnits="userSpaceOnUse">
<stop stop-color="#4F52FF"/>
<stop offset="1" stop-color="#4042E2"/>
</linearGradient>
<linearGradient id="paint68_linear_6_1233" x1="211.882" y1="202.836" x2="214.359" y2="202.836" gradientUnits="userSpaceOnUse">
<stop stop-color="#4F52FF"/>
<stop offset="1" stop-color="#4042E2"/>
</linearGradient>
<linearGradient id="paint69_linear_6_1233" x1="211.827" y1="202.815" x2="214.302" y2="202.815" gradientUnits="userSpaceOnUse">
<stop stop-color="#4F52FF"/>
<stop offset="1" stop-color="#4042E2"/>
</linearGradient>
<linearGradient id="paint70_linear_6_1233" x1="211.772" y1="202.796" x2="214.247" y2="202.796" gradientUnits="userSpaceOnUse">
<stop stop-color="#4F52FF"/>
<stop offset="1" stop-color="#4042E2"/>
</linearGradient>
<linearGradient id="paint71_linear_6_1233" x1="211.715" y1="202.776" x2="214.192" y2="202.776" gradientUnits="userSpaceOnUse">
<stop stop-color="#4F52FF"/>
<stop offset="1" stop-color="#4042E2"/>
</linearGradient>
<linearGradient id="paint72_linear_6_1233" x1="211.66" y1="202.755" x2="214.136" y2="202.755" gradientUnits="userSpaceOnUse">
<stop stop-color="#4F52FF"/>
<stop offset="1" stop-color="#4042E2"/>
</linearGradient>
<linearGradient id="paint73_linear_6_1233" x1="211.606" y1="202.735" x2="214.081" y2="202.735" gradientUnits="userSpaceOnUse">
<stop stop-color="#4F52FF"/>
<stop offset="1" stop-color="#4042E2"/>
</linearGradient>
<linearGradient id="paint74_linear_6_1233" x1="211.549" y1="202.714" x2="214.026" y2="202.714" gradientUnits="userSpaceOnUse">
<stop stop-color="#4F52FF"/>
<stop offset="1" stop-color="#4042E2"/>
</linearGradient>
<linearGradient id="paint75_linear_6_1233" x1="211.494" y1="202.693" x2="213.97" y2="202.693" gradientUnits="userSpaceOnUse">
<stop stop-color="#4F52FF"/>
<stop offset="1" stop-color="#4042E2"/>
</linearGradient>
<linearGradient id="paint76_linear_6_1233" x1="211.439" y1="202.675" x2="213.915" y2="202.675" gradientUnits="userSpaceOnUse">
<stop stop-color="#4F52FF"/>
<stop offset="1" stop-color="#4042E2"/>
</linearGradient>
<linearGradient id="paint77_linear_6_1233" x1="211.383" y1="202.654" x2="213.858" y2="202.654" gradientUnits="userSpaceOnUse">
<stop stop-color="#4F52FF"/>
<stop offset="1" stop-color="#4042E2"/>
</linearGradient>
<linearGradient id="paint78_linear_6_1233" x1="211.328" y1="202.633" x2="213.803" y2="202.633" gradientUnits="userSpaceOnUse">
<stop stop-color="#4F52FF"/>
<stop offset="1" stop-color="#4042E2"/>
</linearGradient>
<linearGradient id="paint79_linear_6_1233" x1="211.273" y1="202.613" x2="213.748" y2="202.613" gradientUnits="userSpaceOnUse">
<stop stop-color="#4F52FF"/>
<stop offset="1" stop-color="#4042E2"/>
</linearGradient>
<linearGradient id="paint80_linear_6_1233" x1="211.217" y1="202.592" x2="213.692" y2="202.592" gradientUnits="userSpaceOnUse">
<stop stop-color="#4F52FF"/>
<stop offset="1" stop-color="#4042E2"/>
</linearGradient>
<linearGradient id="paint81_linear_6_1233" x1="211.162" y1="202.572" x2="213.637" y2="202.572" gradientUnits="userSpaceOnUse">
<stop stop-color="#4F52FF"/>
<stop offset="1" stop-color="#4042E2"/>
</linearGradient>
<linearGradient id="paint82_linear_6_1233" x1="211.105" y1="202.551" x2="213.582" y2="202.551" gradientUnits="userSpaceOnUse">
<stop stop-color="#4F52FF"/>
<stop offset="1" stop-color="#4042E2"/>
</linearGradient>
<linearGradient id="paint83_linear_6_1233" x1="211.05" y1="202.532" x2="213.526" y2="202.532" gradientUnits="userSpaceOnUse">
<stop stop-color="#4F52FF"/>
<stop offset="1" stop-color="#4042E2"/>
</linearGradient>
<linearGradient id="paint84_linear_6_1233" x1="210.995" y1="202.512" x2="213.471" y2="202.512" gradientUnits="userSpaceOnUse">
<stop stop-color="#4F52FF"/>
<stop offset="1" stop-color="#4042E2"/>
</linearGradient>
<linearGradient id="paint85_linear_6_1233" x1="210.939" y1="202.491" x2="213.416" y2="202.491" gradientUnits="userSpaceOnUse">
<stop stop-color="#4F52FF"/>
<stop offset="1" stop-color="#4042E2"/>
</linearGradient>
<linearGradient id="paint86_linear_6_1233" x1="210.884" y1="202.471" x2="213.359" y2="202.471" gradientUnits="userSpaceOnUse">
<stop stop-color="#4F52FF"/>
<stop offset="1" stop-color="#4042E2"/>
</linearGradient>
<linearGradient id="paint87_linear_6_1233" x1="210.829" y1="202.45" x2="213.305" y2="202.45" gradientUnits="userSpaceOnUse">
<stop stop-color="#4F52FF"/>
<stop offset="1" stop-color="#4042E2"/>
</linearGradient>
<linearGradient id="paint88_linear_6_1233" x1="210.772" y1="202.429" x2="213.25" y2="202.429" gradientUnits="userSpaceOnUse">
<stop stop-color="#4F52FF"/>
<stop offset="1" stop-color="#4042E2"/>
</linearGradient>
<linearGradient id="paint89_linear_6_1233" x1="210.718" y1="202.411" x2="213.193" y2="202.411" gradientUnits="userSpaceOnUse">
<stop stop-color="#4F52FF"/>
<stop offset="1" stop-color="#4042E2"/>
</linearGradient>
<linearGradient id="paint90_linear_6_1233" x1="210.663" y1="202.39" x2="213.138" y2="202.39" gradientUnits="userSpaceOnUse">
<stop stop-color="#4F52FF"/>
<stop offset="1" stop-color="#4042E2"/>
</linearGradient>
<linearGradient id="paint91_linear_6_1233" x1="210.606" y1="202.369" x2="213.082" y2="202.369" gradientUnits="userSpaceOnUse">
<stop stop-color="#4F52FF"/>
<stop offset="1" stop-color="#4042E2"/>
</linearGradient>
<linearGradient id="paint92_linear_6_1233" x1="210.551" y1="202.349" x2="213.027" y2="202.349" gradientUnits="userSpaceOnUse">
<stop stop-color="#4F52FF"/>
<stop offset="1" stop-color="#4042E2"/>
</linearGradient>
<linearGradient id="paint93_linear_6_1233" x1="210.497" y1="202.328" x2="212.972" y2="202.328" gradientUnits="userSpaceOnUse">
<stop stop-color="#4F52FF"/>
<stop offset="1" stop-color="#4042E2"/>
</linearGradient>
<linearGradient id="paint94_linear_6_1233" x1="210.44" y1="202.308" x2="212.915" y2="202.308" gradientUnits="userSpaceOnUse">
<stop stop-color="#4F52FF"/>
<stop offset="1" stop-color="#4042E2"/>
</linearGradient>
<linearGradient id="paint95_linear_6_1233" x1="210.385" y1="202.289" x2="212.86" y2="202.289" gradientUnits="userSpaceOnUse">
<stop stop-color="#4F52FF"/>
<stop offset="1" stop-color="#4042E2"/>
</linearGradient>
<linearGradient id="paint96_linear_6_1233" x1="210.33" y1="202.268" x2="212.806" y2="202.268" gradientUnits="userSpaceOnUse">
<stop stop-color="#4F52FF"/>
<stop offset="1" stop-color="#4042E2"/>
</linearGradient>
<linearGradient id="paint97_linear_6_1233" x1="210.274" y1="202.248" x2="212.749" y2="202.248" gradientUnits="userSpaceOnUse">
<stop stop-color="#4F52FF"/>
<stop offset="1" stop-color="#4042E2"/>
</linearGradient>
<linearGradient id="paint98_linear_6_1233" x1="210.219" y1="202.227" x2="212.694" y2="202.227" gradientUnits="userSpaceOnUse">
<stop stop-color="#4F52FF"/>
<stop offset="1" stop-color="#4042E2"/>
</linearGradient>
<linearGradient id="paint99_linear_6_1233" x1="210.162" y1="202.207" x2="212.639" y2="202.207" gradientUnits="userSpaceOnUse">
<stop stop-color="#4F52FF"/>
<stop offset="1" stop-color="#4042E2"/>
</linearGradient>
<linearGradient id="paint100_linear_6_1233" x1="210.107" y1="202.186" x2="212.583" y2="202.186" gradientUnits="userSpaceOnUse">
<stop stop-color="#4F52FF"/>
<stop offset="1" stop-color="#4042E2"/>
</linearGradient>
<linearGradient id="paint101_linear_6_1233" x1="210.052" y1="202.165" x2="212.528" y2="202.165" gradientUnits="userSpaceOnUse">
<stop stop-color="#4F52FF"/>
<stop offset="1" stop-color="#4042E2"/>
</linearGradient>
<linearGradient id="paint102_linear_6_1233" x1="209.996" y1="202.147" x2="212.473" y2="202.147" gradientUnits="userSpaceOnUse">
<stop stop-color="#4F52FF"/>
<stop offset="1" stop-color="#4042E2"/>
</linearGradient>
<linearGradient id="paint103_linear_6_1233" x1="209.941" y1="202.126" x2="212.417" y2="202.126" gradientUnits="userSpaceOnUse">
<stop stop-color="#4F52FF"/>
<stop offset="1" stop-color="#4042E2"/>
</linearGradient>
<linearGradient id="paint104_linear_6_1233" x1="209.886" y1="202.105" x2="212.362" y2="202.105" gradientUnits="userSpaceOnUse">
<stop stop-color="#4F52FF"/>
<stop offset="1" stop-color="#4042E2"/>
</linearGradient>
<linearGradient id="paint105_linear_6_1233" x1="209.83" y1="202.085" x2="212.305" y2="202.085" gradientUnits="userSpaceOnUse">
<stop stop-color="#4F52FF"/>
<stop offset="1" stop-color="#4042E2"/>
</linearGradient>
<linearGradient id="paint106_linear_6_1233" x1="209.775" y1="202.064" x2="212.25" y2="202.064" gradientUnits="userSpaceOnUse">
<stop stop-color="#4F52FF"/>
<stop offset="1" stop-color="#4042E2"/>
</linearGradient>
<linearGradient id="paint107_linear_6_1233" x1="209.72" y1="202.044" x2="212.195" y2="202.044" gradientUnits="userSpaceOnUse">
<stop stop-color="#4F52FF"/>
<stop offset="1" stop-color="#4042E2"/>
</linearGradient>
<linearGradient id="paint108_linear_6_1233" x1="209.663" y1="202.025" x2="212.139" y2="202.025" gradientUnits="userSpaceOnUse">
<stop stop-color="#4F52FF"/>
<stop offset="1" stop-color="#4042E2"/>
</linearGradient>
<linearGradient id="paint109_linear_6_1233" x1="209.608" y1="202.004" x2="212.084" y2="202.004" gradientUnits="userSpaceOnUse">
<stop stop-color="#4F52FF"/>
<stop offset="1" stop-color="#4042E2"/>
</linearGradient>
<linearGradient id="paint110_linear_6_1233" x1="209.552" y1="201.984" x2="212.029" y2="201.984" gradientUnits="userSpaceOnUse">
<stop stop-color="#4F52FF"/>
<stop offset="1" stop-color="#4042E2"/>
</linearGradient>
<linearGradient id="paint111_linear_6_1233" x1="209.497" y1="201.963" x2="211.972" y2="201.963" gradientUnits="userSpaceOnUse">
<stop stop-color="#4F52FF"/>
<stop offset="1" stop-color="#4042E2"/>
</linearGradient>
<linearGradient id="paint112_linear_6_1233" x1="209.442" y1="201.943" x2="211.918" y2="201.943" gradientUnits="userSpaceOnUse">
<stop stop-color="#4F52FF"/>
<stop offset="1" stop-color="#4042E2"/>
</linearGradient>
<linearGradient id="paint113_linear_6_1233" x1="209.386" y1="201.922" x2="211.863" y2="201.922" gradientUnits="userSpaceOnUse">
<stop stop-color="#4F52FF"/>
<stop offset="1" stop-color="#4042E2"/>
</linearGradient>
<linearGradient id="paint114_linear_6_1233" x1="209.331" y1="201.901" x2="211.806" y2="201.901" gradientUnits="userSpaceOnUse">
<stop stop-color="#4F52FF"/>
<stop offset="1" stop-color="#4042E2"/>
</linearGradient>
<linearGradient id="paint115_linear_6_1233" x1="209.276" y1="201.883" x2="211.751" y2="201.883" gradientUnits="userSpaceOnUse">
<stop stop-color="#4F52FF"/>
<stop offset="1" stop-color="#4042E2"/>
</linearGradient>
<linearGradient id="paint116_linear_6_1233" x1="209.219" y1="201.862" x2="211.696" y2="201.862" gradientUnits="userSpaceOnUse">
<stop stop-color="#4F52FF"/>
<stop offset="1" stop-color="#4042E2"/>
</linearGradient>
<linearGradient id="paint117_linear_6_1233" x1="209.165" y1="201.841" x2="211.64" y2="201.841" gradientUnits="userSpaceOnUse">
<stop stop-color="#4F52FF"/>
<stop offset="1" stop-color="#4042E2"/>
</linearGradient>
<linearGradient id="paint118_linear_6_1233" x1="209.11" y1="201.821" x2="211.585" y2="201.821" gradientUnits="userSpaceOnUse">
<stop stop-color="#4F52FF"/>
<stop offset="1" stop-color="#4042E2"/>
</linearGradient>
<linearGradient id="paint119_linear_6_1233" x1="209.053" y1="201.8" x2="211.53" y2="201.8" gradientUnits="userSpaceOnUse">
<stop stop-color="#4F52FF"/>
<stop offset="1" stop-color="#4042E2"/>
</linearGradient>
<linearGradient id="paint120_linear_6_1233" x1="208.998" y1="201.78" x2="211.474" y2="201.78" gradientUnits="userSpaceOnUse">
<stop stop-color="#4F52FF"/>
<stop offset="1" stop-color="#4042E2"/>
</linearGradient>
<linearGradient id="paint121_linear_6_1233" x1="208.943" y1="201.761" x2="211.419" y2="201.761" gradientUnits="userSpaceOnUse">
<stop stop-color="#4F52FF"/>
<stop offset="1" stop-color="#4042E2"/>
</linearGradient>
<linearGradient id="paint122_linear_6_1233" x1="208.887" y1="201.74" x2="211.362" y2="201.74" gradientUnits="userSpaceOnUse">
<stop stop-color="#4F52FF"/>
<stop offset="1" stop-color="#4042E2"/>
</linearGradient>
<linearGradient id="paint123_linear_6_1233" x1="208.832" y1="201.72" x2="211.307" y2="201.72" gradientUnits="userSpaceOnUse">
<stop stop-color="#4F52FF"/>
<stop offset="1" stop-color="#4042E2"/>
</linearGradient>
<linearGradient id="paint124_linear_6_1233" x1="208.775" y1="201.699" x2="211.253" y2="201.699" gradientUnits="userSpaceOnUse">
<stop stop-color="#4F52FF"/>
<stop offset="1" stop-color="#4042E2"/>
</linearGradient>
<linearGradient id="paint125_linear_6_1233" x1="208.72" y1="201.679" x2="211.196" y2="201.679" gradientUnits="userSpaceOnUse">
<stop stop-color="#4F52FF"/>
<stop offset="1" stop-color="#4042E2"/>
</linearGradient>
<linearGradient id="paint126_linear_6_1233" x1="208.666" y1="201.658" x2="211.141" y2="201.658" gradientUnits="userSpaceOnUse">
<stop stop-color="#4F52FF"/>
<stop offset="1" stop-color="#4042E2"/>
</linearGradient>
<linearGradient id="paint127_linear_6_1233" x1="208.609" y1="201.639" x2="211.086" y2="201.639" gradientUnits="userSpaceOnUse">
<stop stop-color="#4F52FF"/>
<stop offset="1" stop-color="#4042E2"/>
</linearGradient>
<linearGradient id="paint128_linear_6_1233" x1="208.554" y1="201.619" x2="211.03" y2="201.619" gradientUnits="userSpaceOnUse">
<stop stop-color="#4F52FF"/>
<stop offset="1" stop-color="#4042E2"/>
</linearGradient>
<linearGradient id="paint129_linear_6_1233" x1="208.499" y1="201.598" x2="210.975" y2="201.598" gradientUnits="userSpaceOnUse">
<stop stop-color="#4F52FF"/>
<stop offset="1" stop-color="#4042E2"/>
</linearGradient>
<linearGradient id="paint130_linear_6_1233" x1="208.443" y1="201.577" x2="210.92" y2="201.577" gradientUnits="userSpaceOnUse">
<stop stop-color="#4F52FF"/>
<stop offset="1" stop-color="#4042E2"/>
</linearGradient>
<linearGradient id="paint131_linear_6_1233" x1="208.388" y1="201.557" x2="210.863" y2="201.557" gradientUnits="userSpaceOnUse">
<stop stop-color="#4F52FF"/>
<stop offset="1" stop-color="#4042E2"/>
</linearGradient>
<linearGradient id="paint132_linear_6_1233" x1="208.333" y1="201.536" x2="210.808" y2="201.536" gradientUnits="userSpaceOnUse">
<stop stop-color="#4F52FF"/>
<stop offset="1" stop-color="#4042E2"/>
</linearGradient>
<linearGradient id="paint133_linear_6_1233" x1="208.277" y1="201.516" x2="210.752" y2="201.516" gradientUnits="userSpaceOnUse">
<stop stop-color="#4F52FF"/>
<stop offset="1" stop-color="#4042E2"/>
</linearGradient>
<linearGradient id="paint134_linear_6_1233" x1="208.222" y1="201.497" x2="210.697" y2="201.497" gradientUnits="userSpaceOnUse">
<stop stop-color="#4F52FF"/>
<stop offset="1" stop-color="#4042E2"/>
</linearGradient>
<linearGradient id="paint135_linear_6_1233" x1="208.167" y1="201.476" x2="210.642" y2="201.476" gradientUnits="userSpaceOnUse">
<stop stop-color="#4F52FF"/>
<stop offset="1" stop-color="#4042E2"/>
</linearGradient>
<linearGradient id="paint136_linear_6_1233" x1="208.11" y1="201.456" x2="210.586" y2="201.456" gradientUnits="userSpaceOnUse">
<stop stop-color="#4F52FF"/>
<stop offset="1" stop-color="#4042E2"/>
</linearGradient>
<linearGradient id="paint137_linear_6_1233" x1="208.055" y1="201.435" x2="210.531" y2="201.435" gradientUnits="userSpaceOnUse">
<stop stop-color="#4F52FF"/>
<stop offset="1" stop-color="#4042E2"/>
</linearGradient>
<linearGradient id="paint138_linear_6_1233" x1="208" y1="201.415" x2="210.476" y2="201.415" gradientUnits="userSpaceOnUse">
<stop stop-color="#4F52FF"/>
<stop offset="1" stop-color="#4042E2"/>
</linearGradient>
<linearGradient id="paint139_linear_6_1233" x1="207.944" y1="201.394" x2="210.419" y2="201.394" gradientUnits="userSpaceOnUse">
<stop stop-color="#4F52FF"/>
<stop offset="1" stop-color="#4042E2"/>
</linearGradient>
<linearGradient id="paint140_linear_6_1233" x1="207.889" y1="201.375" x2="210.365" y2="201.375" gradientUnits="userSpaceOnUse">
<stop stop-color="#4F52FF"/>
<stop offset="1" stop-color="#4042E2"/>
</linearGradient>
<linearGradient id="paint141_linear_6_1233" x1="207.833" y1="201.355" x2="210.31" y2="201.355" gradientUnits="userSpaceOnUse">
<stop stop-color="#4F52FF"/>
<stop offset="1" stop-color="#4042E2"/>
</linearGradient>
<linearGradient id="paint142_linear_6_1233" x1="207.778" y1="201.334" x2="210.253" y2="201.334" gradientUnits="userSpaceOnUse">
<stop stop-color="#4F52FF"/>
<stop offset="1" stop-color="#4042E2"/>
</linearGradient>
<linearGradient id="paint143_linear_6_1233" x1="207.723" y1="201.313" x2="210.198" y2="201.313" gradientUnits="userSpaceOnUse">
<stop stop-color="#4F52FF"/>
<stop offset="1" stop-color="#4042E2"/>
</linearGradient>
<linearGradient id="paint144_linear_6_1233" x1="207.666" y1="201.293" x2="210.143" y2="201.293" gradientUnits="userSpaceOnUse">
<stop stop-color="#4F52FF"/>
<stop offset="1" stop-color="#4042E2"/>
</linearGradient>
<linearGradient id="paint145_linear_6_1233" x1="207.611" y1="201.272" x2="210.087" y2="201.272" gradientUnits="userSpaceOnUse">
<stop stop-color="#4F52FF"/>
<stop offset="1" stop-color="#4042E2"/>
</linearGradient>
<linearGradient id="paint146_linear_6_1233" x1="207.556" y1="201.253" x2="210.032" y2="201.253" gradientUnits="userSpaceOnUse">
<stop stop-color="#4F52FF"/>
<stop offset="1" stop-color="#4042E2"/>
</linearGradient>
<linearGradient id="paint147_linear_6_1233" x1="207.5" y1="201.233" x2="209.977" y2="201.233" gradientUnits="userSpaceOnUse">
<stop stop-color="#4F52FF"/>
<stop offset="1" stop-color="#4042E2"/>
</linearGradient>
<linearGradient id="paint148_linear_6_1233" x1="207.445" y1="201.212" x2="209.921" y2="201.212" gradientUnits="userSpaceOnUse">
<stop stop-color="#4F52FF"/>
<stop offset="1" stop-color="#4042E2"/>
</linearGradient>
<linearGradient id="paint149_linear_6_1233" x1="207.39" y1="201.192" x2="209.866" y2="201.192" gradientUnits="userSpaceOnUse">
<stop stop-color="#4F52FF"/>
<stop offset="1" stop-color="#4042E2"/>
</linearGradient>
<linearGradient id="paint150_linear_6_1233" x1="207.334" y1="201.171" x2="209.809" y2="201.171" gradientUnits="userSpaceOnUse">
<stop stop-color="#4F52FF"/>
<stop offset="1" stop-color="#4042E2"/>
</linearGradient>
<linearGradient id="paint151_linear_6_1233" x1="207.279" y1="201.151" x2="209.754" y2="201.151" gradientUnits="userSpaceOnUse">
<stop stop-color="#4F52FF"/>
<stop offset="1" stop-color="#4042E2"/>
</linearGradient>
<linearGradient id="paint152_linear_6_1233" x1="207.222" y1="201.13" x2="209.699" y2="201.13" gradientUnits="userSpaceOnUse">
<stop stop-color="#4F52FF"/>
<stop offset="1" stop-color="#4042E2"/>
</linearGradient>
<linearGradient id="paint153_linear_6_1233" x1="207.167" y1="201.111" x2="209.643" y2="201.111" gradientUnits="userSpaceOnUse">
<stop stop-color="#4F52FF"/>
<stop offset="1" stop-color="#4042E2"/>
</linearGradient>
<linearGradient id="paint154_linear_6_1233" x1="207.113" y1="201.091" x2="209.588" y2="201.091" gradientUnits="userSpaceOnUse">
<stop stop-color="#4F52FF"/>
<stop offset="1" stop-color="#4042E2"/>
</linearGradient>
<linearGradient id="paint155_linear_6_1233" x1="207.056" y1="201.07" x2="209.533" y2="201.07" gradientUnits="userSpaceOnUse">
<stop stop-color="#4F52FF"/>
<stop offset="1" stop-color="#4042E2"/>
</linearGradient>
<linearGradient id="paint156_linear_6_1233" x1="207.001" y1="201.049" x2="209.476" y2="201.049" gradientUnits="userSpaceOnUse">
<stop stop-color="#4F52FF"/>
<stop offset="1" stop-color="#4042E2"/>
</linearGradient>
<linearGradient id="paint157_linear_6_1233" x1="206.946" y1="201.029" x2="209.422" y2="201.029" gradientUnits="userSpaceOnUse">
<stop stop-color="#4F52FF"/>
<stop offset="1" stop-color="#4042E2"/>
</linearGradient>
<linearGradient id="paint158_linear_6_1233" x1="206.89" y1="201.008" x2="209.367" y2="201.008" gradientUnits="userSpaceOnUse">
<stop stop-color="#4F52FF"/>
<stop offset="1" stop-color="#4042E2"/>
</linearGradient>
<linearGradient id="paint159_linear_6_1233" x1="206.835" y1="200.989" x2="209.31" y2="200.989" gradientUnits="userSpaceOnUse">
<stop stop-color="#4F52FF"/>
<stop offset="1" stop-color="#4042E2"/>
</linearGradient>
<linearGradient id="paint160_linear_6_1233" x1="206.78" y1="200.969" x2="209.255" y2="200.969" gradientUnits="userSpaceOnUse">
<stop stop-color="#4F52FF"/>
<stop offset="1" stop-color="#4042E2"/>
</linearGradient>
<linearGradient id="paint161_linear_6_1233" x1="206.723" y1="200.948" x2="209.201" y2="200.948" gradientUnits="userSpaceOnUse">
<stop stop-color="#4F52FF"/>
<stop offset="1" stop-color="#4042E2"/>
</linearGradient>
<linearGradient id="paint162_linear_6_1233" x1="206.668" y1="200.928" x2="209.144" y2="200.928" gradientUnits="userSpaceOnUse">
<stop stop-color="#4F52FF"/>
<stop offset="1" stop-color="#4042E2"/>
</linearGradient>
<linearGradient id="paint163_linear_6_1233" x1="206.614" y1="200.907" x2="209.089" y2="200.907" gradientUnits="userSpaceOnUse">
<stop stop-color="#4F52FF"/>
<stop offset="1" stop-color="#4042E2"/>
</linearGradient>
<linearGradient id="paint164_linear_6_1233" x1="206.557" y1="200.887" x2="209.034" y2="200.887" gradientUnits="userSpaceOnUse">
<stop stop-color="#4F52FF"/>
<stop offset="1" stop-color="#4042E2"/>
</linearGradient>
<linearGradient id="paint165_linear_6_1233" x1="206.502" y1="200.866" x2="208.978" y2="200.866" gradientUnits="userSpaceOnUse">
<stop stop-color="#4F52FF"/>
<stop offset="1" stop-color="#4042E2"/>
</linearGradient>
<linearGradient id="paint166_linear_6_1233" x1="206.502" y1="200.998" x2="208.923" y2="200.998" gradientUnits="userSpaceOnUse">
<stop stop-color="#4F52FF"/>
<stop offset="1" stop-color="#4042E2"/>
</linearGradient>
<linearGradient id="paint167_linear_6_1233" x1="207.99" y1="199.407" x2="208.786" y2="199.407" gradientUnits="userSpaceOnUse">
<stop stop-color="#4F52FF"/>
<stop offset="1" stop-color="#4042E2"/>
</linearGradient>
<linearGradient id="paint168_linear_6_1233" x1="179.886" y1="105.976" x2="374.674" y2="215.137" gradientUnits="userSpaceOnUse">
<stop stop-color="#4F52FF"/>
<stop offset="1" stop-color="#4042E2"/>
</linearGradient>
<linearGradient id="paint169_linear_6_1233" x1="286.119" y1="124.375" x2="270.445" y2="151.949" gradientUnits="userSpaceOnUse">
<stop stop-color="#4F52FF"/>
<stop offset="1" stop-color="#4042E2"/>
</linearGradient>
<linearGradient id="paint170_linear_6_1233" x1="252.66" y1="182.657" x2="302.874" y2="139.697" gradientUnits="userSpaceOnUse">
<stop stop-color="#4F52FF"/>
<stop offset="1" stop-color="#4042E2"/>
</linearGradient>
<linearGradient id="paint171_linear_6_1233" x1="300.659" y1="90.55" x2="416.468" y2="90.55" gradientUnits="userSpaceOnUse">
<stop stop-color="#FF928E"/>
<stop offset="1" stop-color="#FE7062"/>
</linearGradient>
<linearGradient id="paint172_linear_6_1233" x1="534.612" y1="-143.865" x2="451.016" y2="-48.6601" gradientUnits="userSpaceOnUse">
<stop stop-color="#E1473D"/>
<stop offset="1" stop-color="#E9605A"/>
</linearGradient>
<linearGradient id="paint173_linear_6_1233" x1="547.817" y1="-132.269" x2="464.223" y2="-37.0648" gradientUnits="userSpaceOnUse">
<stop stop-color="#E1473D"/>
<stop offset="1" stop-color="#E9605A"/>
</linearGradient>
<linearGradient id="paint174_linear_6_1233" x1="557.293" y1="-123.95" x2="473.698" y2="-28.7454" gradientUnits="userSpaceOnUse">
<stop stop-color="#E1473D"/>
<stop offset="1" stop-color="#E9605A"/>
</linearGradient>
<linearGradient id="paint175_linear_6_1233" x1="566.05" y1="-116.261" x2="482.454" y2="-21.0568" gradientUnits="userSpaceOnUse">
<stop stop-color="#E1473D"/>
<stop offset="1" stop-color="#E9605A"/>
</linearGradient>
<clipPath id="clip0_6_1233">
<rect width="480" height="480" fill="white" transform="translate(0.000976562)"/>
</clipPath>
</defs>
</svg>
