<svg width="480" height="480" viewBox="0 0 480 480" fill="none" xmlns="http://www.w3.org/2000/svg">
<g clip-path="url(#clip0_6_210)">
<path d="M79.9106 111.895C45.0528 140.706 91.6511 177.686 67.5095 193.827C43.3679 209.968 -56.6084 241.456 44.0775 303.915C144.764 366.373 147.52 407.765 219.393 368.214C291.267 328.663 286.103 321.558 345.256 348.295C404.41 375.032 466.216 333.434 445.206 284.067C424.195 234.699 410.796 235.315 434.797 203.796C458.798 172.276 421.265 85.0179 338.646 152.439C256.027 219.861 204.316 169.527 195.245 144.312C186.173 119.097 134.998 66.3683 79.9106 111.895Z" fill="url(#paint0_linear_6_210)"/>
<path d="M375.133 382.905C375.133 382.905 392.038 310.284 435.163 258.769C443.083 249.305 458.446 254.819 458.506 267.16C458.671 303.044 447.236 361.745 375.133 382.905Z" fill="#30ABBA"/>
<path d="M447.64 266.417C446.359 271.875 444.695 277.195 442.905 282.484C441.115 287.773 439.111 292.986 436.929 298.132C432.6 308.447 427.581 318.457 421.905 328.096C419.04 332.901 416.061 337.643 412.838 342.225C411.263 344.537 409.56 346.764 407.909 349.022C406.184 351.229 404.49 353.459 402.664 355.585C395.554 364.235 387.53 372.091 378.733 379.017C378.611 379.114 378.457 379.16 378.302 379.145C378.147 379.131 378.004 379.057 377.902 378.94C377.801 378.822 377.748 378.67 377.756 378.515C377.764 378.36 377.832 378.213 377.945 378.107C385.999 370.541 393.446 362.353 400.216 353.619C401.937 351.466 403.526 349.207 405.188 347.012C406.768 344.751 408.397 342.528 409.904 340.216C410.656 339.063 411.466 337.938 412.193 336.773L414.425 333.296C415.161 332.131 415.869 330.946 416.592 329.772C417.315 328.598 418.02 327.411 418.71 326.217C420.127 323.852 421.477 321.444 422.834 319.043C424.15 316.617 425.467 314.191 426.728 311.734C429.299 306.847 431.684 301.864 434.021 296.854C436.357 291.844 438.533 286.758 440.606 281.627C442.68 276.497 444.668 271.317 446.462 266.095V266.08C446.513 265.935 446.618 265.816 446.754 265.745C446.891 265.675 447.049 265.66 447.197 265.702C447.344 265.745 447.47 265.842 447.548 265.974C447.626 266.106 447.651 266.263 447.618 266.412L447.64 266.417Z" fill="#DCE5FE"/>
<path d="M390.549 377.587C390.549 377.587 425.945 326.726 465.5 313.763C475.308 310.549 483.735 321.337 478.28 330.098C467.209 347.895 442.709 372.398 390.549 377.587Z" fill="#B6E3E9"/>
<path d="M474.525 321.562C471.49 324.325 468.379 326.967 465.23 329.578C463.641 330.866 462.052 332.154 460.45 333.421C458.848 334.689 457.236 335.95 455.607 337.186C449.107 342.147 442.439 346.879 435.603 351.381C432.213 353.669 428.719 355.793 425.262 357.98L419.988 361.124C419.109 361.647 418.234 362.175 417.346 362.686L414.668 364.175C407.572 368.245 400.205 371.823 392.798 375.279C392.737 375.309 392.671 375.326 392.603 375.329C392.536 375.333 392.468 375.323 392.404 375.301C392.34 375.279 392.281 375.244 392.231 375.198C392.18 375.153 392.139 375.098 392.11 375.037C392.081 374.976 392.064 374.91 392.06 374.842C392.056 374.775 392.066 374.707 392.088 374.643C392.111 374.579 392.146 374.52 392.191 374.47C392.236 374.419 392.291 374.378 392.352 374.349H392.366L397.844 371.642L400.573 370.274C401.479 369.81 402.359 369.317 403.271 368.841L408.667 365.978C410.453 364.992 412.211 363.97 413.985 362.97L416.641 361.461L419.263 359.899L424.501 356.759C427.935 354.568 431.419 352.441 434.782 350.151C438.189 347.92 441.535 345.597 444.882 343.274L449.847 339.703L454.757 336.068C456.393 334.854 458 333.613 459.622 332.37C461.244 331.127 462.829 329.857 464.427 328.592C467.607 326.052 470.769 323.459 473.824 320.797C473.926 320.706 474.06 320.659 474.197 320.667C474.333 320.674 474.461 320.736 474.552 320.838C474.644 320.94 474.691 321.074 474.683 321.211C474.675 321.348 474.613 321.476 474.511 321.567L474.525 321.562Z" fill="#DCE5FE"/>
<path d="M125.596 353.187C109.453 356.416 88.8393 338.815 82.198 319.59C75.3648 299.804 87.8953 291.516 87.7971 264.06C87.6878 232.871 71.4639 228.171 60.7321 186.13C58.3108 176.646 44.3007 121.757 61.6671 111.469C77.7348 101.956 122.825 129.257 130.729 164.198C136.366 189.114 118.942 199.576 125.596 228.595C131.441 254.058 146.781 254.426 152.661 279.001C159.818 308.905 146.79 348.949 125.596 353.187Z" fill="#BDD0FB"/>
<path d="M124.422 360.743C128.774 327.139 120.283 275.299 112.398 237.716C103.858 197.038 94.1661 163.85 94.0702 163.526L92.7312 163.921C92.8271 164.251 102.506 197.395 111.03 238.011C118.895 275.473 127.361 327.144 123.034 360.551L124.422 360.743Z" fill="#DCE5FE"/>
<path d="M109.95 365.422C131.124 354.389 138.372 316.503 126.335 304.191C118.203 295.872 106.54 304.622 95.2886 295.997C80.9237 284.986 91.4949 264.25 80.1962 237.354C70.5847 214.465 47.5321 192.807 34.0576 197.252C19.9538 201.903 12.527 236.417 24.571 257.189C32.404 270.697 44.3922 271.36 46.9943 283.924C50.0114 298.503 35.4301 305.151 35.3519 319.284C35.2091 344.671 81.9369 380.017 109.95 365.422Z" fill="#91B3FA"/>
<path d="M98.5245 375.125C98.6706 375.125 98.8143 375.087 98.9419 375.016C99.0696 374.945 99.1772 374.843 99.2546 374.719C99.3319 374.595 99.3766 374.453 99.3843 374.308C99.3921 374.162 99.3627 374.016 99.2989 373.885C71.2274 316.041 62.995 248.937 62.9235 248.265C62.9139 248.149 62.8811 248.037 62.827 247.934C62.7729 247.831 62.6987 247.741 62.6088 247.667C62.5189 247.594 62.4151 247.539 62.3037 247.507C62.1922 247.475 62.0754 247.465 61.9602 247.479C61.8449 247.493 61.7337 247.53 61.633 247.587C61.5324 247.645 61.4444 247.723 61.3743 247.815C61.3043 247.908 61.2536 248.013 61.2253 248.126C61.197 248.238 61.1917 248.356 61.2097 248.47C61.29 249.14 69.5559 316.534 97.7546 374.639C97.8244 374.784 97.9336 374.907 98.0698 374.993C98.2059 375.079 98.3635 375.125 98.5245 375.125Z" fill="#DCE5FE"/>
<path d="M40.931 265.642C41.0222 265.643 41.1111 265.614 41.1831 265.558C41.2695 265.49 41.3257 265.391 41.3395 265.283C41.3533 265.174 41.3236 265.064 41.2568 264.977C32.395 253.596 22.5737 236.518 26.1108 219.702C28.2152 209.687 34.1446 204.465 34.2004 204.414C34.2451 204.379 34.2823 204.336 34.3097 204.287C34.3371 204.238 34.3542 204.184 34.3599 204.128C34.3656 204.072 34.3597 204.015 34.3427 203.961C34.3257 203.908 34.2979 203.858 34.261 203.816C34.2241 203.773 34.1789 203.738 34.1282 203.714C34.0774 203.69 34.0222 203.676 33.966 203.674C33.9097 203.671 33.8536 203.681 33.801 203.701C33.7485 203.721 33.7006 203.752 33.6604 203.791C33.4104 204.014 27.4654 209.25 25.303 219.533C23.3168 228.984 24.359 244.634 40.6141 265.484C40.6518 265.532 40.6998 265.572 40.7547 265.599C40.8095 265.626 40.8697 265.641 40.931 265.642Z" fill="#DCE5FE"/>
<path d="M111.858 360.37C111.925 360.37 111.992 360.354 112.051 360.323C112.111 360.292 112.162 360.247 112.2 360.191C125.813 340.33 130.461 324.963 126 314.551C122.037 305.294 112.026 303.571 111.925 303.549C111.871 303.538 111.815 303.538 111.76 303.549C111.706 303.56 111.655 303.583 111.609 303.614C111.563 303.646 111.524 303.686 111.495 303.733C111.465 303.78 111.445 303.833 111.437 303.888C111.428 303.942 111.43 303.998 111.443 304.052C111.457 304.106 111.481 304.157 111.514 304.201C111.547 304.246 111.589 304.283 111.637 304.311C111.685 304.339 111.739 304.356 111.794 304.363C111.89 304.379 121.468 306.039 125.248 314.879C129.58 325.015 124.962 340.096 111.519 359.718C111.457 359.809 111.434 359.92 111.454 360.027C111.474 360.135 111.536 360.23 111.626 360.292C111.694 360.341 111.775 360.368 111.858 360.37Z" fill="#F0F0F0"/>
<path d="M402.428 371.305C402.423 372.733 401.852 374.101 400.842 375.111C399.831 376.12 398.462 376.688 397.034 376.692H105.425C103.997 376.688 102.628 376.12 101.618 375.111C100.607 374.101 100.038 372.733 100.033 371.305L97.6073 203.724C97.6073 200.76 101.098 194.976 107.496 195.411L392.488 188.047C394.329 187.998 396.16 188.324 397.871 189.005C399.581 189.686 401.136 190.707 402.44 192.007C403.744 193.307 404.77 194.858 405.456 196.566C406.142 198.275 406.474 200.105 406.431 201.945L402.428 371.305Z" fill="url(#paint1_linear_6_210)"/>
<path d="M397.103 366.136C397.099 367.488 396.56 368.783 395.605 369.739C394.649 370.695 393.354 371.234 392.002 371.238H112.459C111.107 371.234 109.811 370.696 108.855 369.74C107.898 368.784 107.359 367.489 107.355 366.136L105.065 214.005C105.335 204.856 113.362 201.559 118.232 201.754L391.381 194.427C392.675 194.393 393.963 194.622 395.165 195.101C396.368 195.579 397.461 196.297 398.377 197.211C399.294 198.125 400.015 199.216 400.497 200.417C400.978 201.619 401.211 202.905 401.18 204.199L397.103 366.136Z" fill="#6165D7"/>
<path d="M110.377 293.527C110.268 293.527 110.165 293.484 110.088 293.408C110.011 293.332 109.967 293.229 109.966 293.12L109.794 280.786C109.793 280.677 109.835 280.572 109.911 280.493C109.987 280.414 110.091 280.369 110.2 280.367C110.308 280.37 110.411 280.413 110.489 280.488C110.566 280.564 110.613 280.665 110.62 280.773L110.801 293.111C110.801 293.166 110.792 293.219 110.772 293.27C110.752 293.32 110.722 293.366 110.684 293.405C110.647 293.443 110.601 293.474 110.552 293.496C110.502 293.517 110.449 293.528 110.394 293.529L110.377 293.527Z" fill="#BDD0FB"/>
<path d="M109.932 263.295C109.824 263.295 109.721 263.252 109.644 263.176C109.567 263.1 109.523 262.997 109.522 262.889L108.828 215.634C108.841 212.479 109.814 209.959 111.718 208.134C115.179 204.818 120.597 204.983 120.827 204.992L208.052 202.653C208.106 202.65 208.161 202.659 208.211 202.678C208.262 202.697 208.309 202.726 208.349 202.763C208.388 202.8 208.42 202.845 208.442 202.895C208.464 202.944 208.475 202.998 208.476 203.052C208.479 203.162 208.438 203.268 208.362 203.347C208.287 203.426 208.184 203.473 208.074 203.476L120.818 205.817C120.575 205.817 115.494 205.65 112.28 208.73C110.544 210.392 109.658 212.715 109.645 215.632L110.339 262.875C110.34 262.985 110.298 263.09 110.222 263.168C110.146 263.247 110.042 263.292 109.932 263.295Z" fill="#BDD0FB"/>
<path d="M424.407 370.52H83.9632C83.0376 370.52 82.2872 371.27 82.2872 372.195V383.568C82.2872 384.493 83.0376 385.244 83.9632 385.244H424.407C425.333 385.244 426.083 384.493 426.083 383.568V372.195C426.083 371.27 425.333 370.52 424.407 370.52Z" fill="url(#paint2_linear_6_210)"/>
<path d="M317.158 133.475L156.417 132.491C155.166 132.483 153.926 132.731 152.773 133.218C151.621 133.706 150.58 134.424 149.715 135.328C148.849 136.232 148.177 137.303 147.74 138.475C147.303 139.648 147.109 140.897 147.171 142.147L158.231 370.519H337.104L347.037 166.481L317.158 133.475Z" fill="url(#paint3_linear_6_210)"/>
<path d="M323.842 165.503C322.601 165.459 321.383 165.165 320.259 164.637C319.135 164.11 318.13 163.361 317.304 162.435C316.477 161.509 315.846 160.426 315.449 159.25C315.052 158.074 314.897 156.83 314.993 155.593L316.716 133.785L347.066 166.367L323.842 165.503Z" fill="url(#paint4_linear_6_210)"/>
<path opacity="0.84" d="M307.841 162.511H221.29C220.686 162.497 220.086 162.605 219.524 162.826C218.962 163.048 218.45 163.38 218.019 163.802C217.587 164.225 217.244 164.729 217.01 165.286C216.775 165.842 216.655 166.44 216.655 167.044C216.655 167.648 216.775 168.246 217.01 168.803C217.244 169.359 217.587 169.864 218.019 170.286C218.45 170.708 218.962 171.04 219.524 171.262C220.086 171.484 220.686 171.591 221.29 171.578H307.841C308.445 171.591 309.045 171.484 309.607 171.262C310.169 171.04 310.68 170.708 311.112 170.286C311.544 169.864 311.887 169.359 312.121 168.803C312.356 168.246 312.476 167.648 312.476 167.044C312.476 166.44 312.356 165.842 312.121 165.286C311.887 164.729 311.544 164.225 311.112 163.802C310.68 163.38 310.169 163.048 309.607 162.826C309.045 162.605 308.445 162.497 307.841 162.511Z" fill="white"/>
<path opacity="0.84" d="M310.59 183.126H221.426C218.846 183.126 216.755 185.155 216.755 187.659C216.755 190.163 218.846 192.191 221.426 192.191H310.59C313.17 192.191 315.261 190.16 315.261 187.657C315.261 185.153 313.17 183.126 310.59 183.126Z" fill="white"/>
<path opacity="0.84" d="M310.59 200.848H221.426C218.846 200.848 216.755 202.878 216.755 205.382C216.755 207.886 218.846 209.915 221.426 209.915H310.59C313.17 209.915 315.261 207.886 315.261 205.382C315.261 202.878 313.17 200.848 310.59 200.848Z" fill="white"/>
<path opacity="0.84" d="M310.59 218.571H221.426C218.846 218.571 216.755 220.6 216.755 223.103C216.755 225.607 218.846 227.638 221.426 227.638H310.59C313.17 227.638 315.261 225.607 315.261 223.103C315.261 220.6 313.17 218.571 310.59 218.571Z" fill="white"/>
<path opacity="0.84" d="M308.459 246.196H178.633C174.877 246.196 171.833 248.205 171.833 250.717C171.833 253.23 174.879 255.252 178.635 255.252H308.461C312.217 255.252 315.263 253.221 315.263 250.717C315.263 248.214 312.215 246.196 308.459 246.196Z" fill="white"/>
<path opacity="0.84" d="M308.459 263.906H178.633C174.877 263.906 171.831 265.937 171.831 268.441C171.831 270.945 174.877 272.976 178.633 272.976H308.459C312.215 272.976 315.261 270.945 315.261 268.441C315.261 265.937 312.215 263.906 308.459 263.906Z" fill="white"/>
<path opacity="0.84" d="M308.459 281.63H178.633C174.877 281.63 171.831 283.661 171.831 286.164C171.831 288.668 174.877 290.697 178.633 290.697H308.459C312.215 290.697 315.261 288.668 315.261 286.164C315.261 283.661 312.215 281.63 308.459 281.63Z" fill="white"/>
<path opacity="0.84" d="M308.459 309.244H178.633C174.877 309.244 171.831 311.275 171.831 313.778C171.831 316.282 174.877 318.311 178.633 318.311H308.459C312.215 318.311 315.261 316.282 315.261 313.778C315.261 311.275 312.215 309.244 308.459 309.244Z" fill="white"/>
<path opacity="0.84" d="M308.459 326.967H178.633C174.877 326.967 171.831 328.996 171.831 331.5C171.831 334.003 174.877 336.034 178.633 336.034H308.459C312.215 336.034 315.261 334.003 315.261 331.5C315.261 328.996 312.215 326.967 308.459 326.967Z" fill="white"/>
<path opacity="0.84" d="M308.459 344.688H178.633C174.877 344.688 171.831 346.719 171.831 349.223C171.831 351.727 174.877 353.76 178.633 353.76H308.459C312.215 353.76 315.261 351.731 315.261 349.228C315.261 346.724 312.215 344.688 308.459 344.688Z" fill="white"/>
<path d="M199.037 154H133.033C128.06 154 124.029 158.047 124.029 163.04V223.218C124.029 228.211 128.06 232.258 133.033 232.258H199.037C204.01 232.258 208.041 228.211 208.041 223.218V163.04C208.041 158.047 204.01 154 199.037 154Z" fill="url(#paint5_linear_6_210)"/>
<path d="M130.219 205.788H129.783V169.447C129.786 167.182 130.691 165.01 132.299 163.409C133.908 161.807 136.088 160.907 138.363 160.905H153.951V161.351H138.363C136.204 161.353 134.134 162.208 132.607 163.728C131.081 165.248 130.222 167.309 130.219 169.459V205.788Z" fill="#BDD0FB"/>
<path opacity="0.76" d="M154.469 207.823L153.675 207.732C153.442 207.704 153.226 207.593 153.07 207.42C152.914 207.246 152.828 207.021 152.828 206.789L152.8 191.814C152.8 191.688 152.825 191.565 152.874 191.449C152.922 191.333 152.993 191.229 153.083 191.14C153.173 191.052 153.279 190.982 153.396 190.935C153.513 190.887 153.638 190.863 153.764 190.864C154.706 190.839 155.631 190.62 156.482 190.221C156.907 190.007 157.497 188.869 158.018 187.867C158.824 186.317 159.824 184.388 161.422 182.95C164.014 180.619 164.08 176.684 164.078 176.243C164.078 175.275 164.985 173.955 166.204 173.639C166.947 173.446 168.389 173.464 169.697 175.77C171.332 178.649 170.071 182.132 169.238 184.443C169.002 185.034 168.809 185.642 168.662 186.261C168.661 186.275 168.661 186.289 168.662 186.304C169.121 186.66 171.355 186.574 172.704 186.52C173.418 186.492 174.155 186.463 174.871 186.46C177.369 186.46 180.254 186.89 180.41 190.307C180.434 190.871 180.326 191.433 180.095 191.95C179.864 192.466 179.515 192.922 179.077 193.284C180.059 194.329 180.504 195.401 180.408 196.478C180.309 197.333 179.91 198.127 179.281 198.721C179.698 199.186 179.984 199.753 180.109 200.363C180.234 200.973 180.194 201.605 179.992 202.195C179.711 203.046 179.16 203.785 178.422 204.303C178.739 204.743 178.874 205.286 178.799 205.821C178.569 207.455 176.379 208.863 173.604 209.175C170.232 209.554 157.786 208.198 154.469 207.823ZM154.719 192.691L154.745 205.941C158.078 206.316 170.278 207.639 173.384 207.291C175.592 207.046 176.827 206.048 176.896 205.557C176.923 205.369 176.591 205.103 176.072 204.876C175.871 204.787 175.707 204.633 175.607 204.439C175.507 204.245 175.477 204.023 175.523 203.81C175.568 203.597 175.687 203.406 175.858 203.27C176.029 203.133 176.242 203.058 176.462 203.058C177.123 203.074 177.901 202.415 178.161 201.618C178.349 201.043 178.344 200.202 177.256 199.466C177.121 199.375 177.011 199.251 176.938 199.106C176.865 198.961 176.831 198.8 176.838 198.638C176.846 198.477 176.895 198.319 176.982 198.182C177.068 198.044 177.189 197.931 177.332 197.853C177.332 197.853 178.418 197.214 178.493 196.305C178.569 195.397 177.685 194.515 176.93 193.906C176.803 193.803 176.705 193.669 176.645 193.517C176.585 193.365 176.566 193.2 176.589 193.039C176.612 192.878 176.677 192.725 176.777 192.596C176.877 192.466 177.009 192.364 177.16 192.3C177.21 192.277 178.549 191.666 178.491 190.398C178.448 189.441 178.402 188.353 174.871 188.353C174.183 188.353 173.473 188.383 172.78 188.41C170.191 188.512 168.146 188.594 167.195 187.531C167.005 187.316 166.868 187.061 166.795 186.785C166.722 186.509 166.714 186.22 166.773 185.94C166.933 185.206 167.154 184.487 167.434 183.789C168.194 181.687 169.234 178.808 168.028 176.684C167.569 175.859 167.06 175.384 166.718 175.452C166.376 175.52 166.029 176.05 165.999 176.245C165.999 176.75 165.917 181.457 162.714 184.338C161.374 185.545 160.499 187.231 159.73 188.719C158.961 190.207 158.335 191.405 157.359 191.9C156.53 192.307 155.638 192.574 154.719 192.691Z" fill="white"/>
<path d="M122.619 482.049C122.175 482.067 121.739 481.93 121.384 481.662C121.03 481.393 120.78 481.01 120.677 480.578L89.951 317.935C89.7728 316.974 90.496 316.066 91.5722 315.905C92.6483 315.744 93.6685 316.387 93.8467 317.348L124.569 479.981C124.751 480.941 124.027 481.853 122.951 482.014C122.842 482.034 122.731 482.046 122.619 482.049Z" fill="url(#paint6_linear_6_210)"/>
<path d="M18.9749 482.049C18.8425 482.05 18.7104 482.038 18.5801 482.014C17.5109 481.822 16.8331 480.893 17.0358 479.935L53.2505 319.42C53.3869 318.934 53.7038 318.519 54.1364 318.259C54.569 317.999 55.0845 317.915 55.5775 318.022C56.6466 318.215 57.3245 319.144 57.1253 320.119L20.9071 480.634C20.791 481.053 20.5372 481.42 20.1867 481.677C19.8361 481.934 19.4092 482.065 18.9749 482.049Z" fill="url(#paint7_linear_6_210)"/>
<path d="M98.2246 358.14H47.6288C47.3877 358.155 47.1461 358.12 46.9189 358.039C46.6916 357.957 46.4835 357.829 46.3075 357.664C46.1314 357.499 45.9911 357.299 45.8951 357.077C45.7992 356.856 45.7497 356.617 45.7497 356.375C45.7497 356.134 45.7992 355.895 45.8951 355.673C45.9911 355.451 46.1314 355.252 46.3075 355.086C46.4835 354.921 46.6916 354.793 46.9189 354.712C47.1461 354.63 47.3877 354.595 47.6288 354.611H98.2246C98.4657 354.595 98.7073 354.63 98.9345 354.712C99.1618 354.793 99.3698 354.921 99.5459 355.086C99.722 355.252 99.8623 355.451 99.9582 355.673C100.054 355.895 100.104 356.134 100.104 356.375C100.104 356.617 100.054 356.856 99.9582 357.077C99.8623 357.299 99.722 357.499 99.5459 357.664C99.3698 357.829 99.1618 357.957 98.9345 358.039C98.7073 358.12 98.4657 358.155 98.2246 358.14Z" fill="url(#paint8_linear_6_210)"/>
<path d="M103.944 387.545H40.295C39.2049 387.545 38.3209 386.755 38.3209 385.798C38.3209 384.84 39.2049 384.051 40.295 384.051H103.944C105.034 384.051 105.922 384.84 105.922 385.798C105.922 386.755 105.034 387.545 103.944 387.545Z" fill="url(#paint9_linear_6_210)"/>
<path d="M110.024 416.95H33.8347C32.7445 416.95 31.8606 416.16 31.8606 415.185C31.8606 414.21 32.7445 413.438 33.8347 413.438H110.024C111.117 413.438 112.001 414.228 112.001 415.185C112.001 416.143 111.117 416.95 110.024 416.95Z" fill="url(#paint10_linear_6_210)"/>
<path d="M114.943 446.355H27.7097C26.6196 446.355 25.7357 445.565 25.7357 444.608C25.7357 443.651 26.6196 442.861 27.7097 442.861H114.943C116.033 442.861 116.917 443.651 116.917 444.608C116.917 445.565 116.033 446.355 114.943 446.355Z" fill="url(#paint11_linear_6_210)"/>
<path d="M51.9438 347.633C51.9438 347.633 50.665 349.653 50.3401 355.32C50.333 355.445 50.3513 355.57 50.3941 355.688C50.4368 355.805 50.503 355.913 50.5886 356.004C50.6742 356.095 50.7775 356.168 50.8921 356.218C51.0068 356.268 51.1304 356.294 51.2555 356.295H61.2761C61.3697 356.295 61.462 356.273 61.5455 356.231C61.6289 356.188 61.701 356.127 61.756 356.051C61.8109 355.975 61.8471 355.888 61.8614 355.795C61.8758 355.703 61.868 355.608 61.8387 355.519C61.2517 353.772 59.4768 349.545 55.5146 347.134L51.9438 347.633Z" fill="#010648"/>
<path d="M51.5106 343.79L52.0766 348.542C52.0988 348.741 52.1878 348.928 52.3293 349.07C52.4707 349.213 52.6562 349.304 52.8557 349.328C53.5604 349.416 54.2738 349.409 54.9766 349.307C55.3174 349.247 55.6258 349.068 55.8471 348.801C56.0684 348.535 56.1883 348.2 56.1855 347.853V343.276L51.5106 343.79Z" fill="url(#paint12_linear_6_210)"/>
<path d="M76.7369 347.113C75.4917 349.261 74.8394 351.702 74.8466 354.185C74.8531 354.652 75.044 355.098 75.3778 355.425C75.7115 355.752 76.1611 355.934 76.6285 355.932H92.1906C92.3496 355.933 92.5048 355.883 92.6335 355.79C92.7621 355.696 92.8575 355.564 92.9055 355.412C92.9536 355.261 92.9518 355.098 92.9005 354.947C92.8492 354.797 92.751 354.667 92.6203 354.576C89.6749 352.508 83.8855 348.636 79.6927 347.127L76.7369 347.113Z" fill="url(#paint13_linear_6_210)"/>
<path d="M75.1366 341.98L76.3455 347.85C76.3759 348.007 76.4373 348.156 76.5261 348.29C76.6149 348.423 76.7293 348.537 76.8626 348.625C76.9959 348.714 77.1456 348.775 77.3027 348.805C77.4599 348.835 77.6215 348.833 77.778 348.8C78.263 348.689 78.7251 348.495 79.1442 348.227C79.3755 348.079 79.5579 347.865 79.6686 347.614C79.7792 347.362 79.8131 347.083 79.7661 346.812L78.5153 339.698L75.1366 341.98Z" fill="url(#paint14_linear_6_210)"/>
<path d="M53.7293 260.376C53.7293 260.376 49.5365 264.079 48.7364 268.537C47.9363 272.996 50.976 345.464 50.976 345.464C50.976 345.464 55.1688 346.162 57.349 344.852C57.349 344.852 59.917 297.82 61.8702 286.954C61.8702 286.954 72.1144 335.67 74.955 344.471C74.955 344.471 79.0045 344.964 80.3077 344.195C80.3077 344.195 77.6244 281.042 74.2527 269.816L53.7293 260.376Z" fill="url(#paint15_linear_6_210)"/>
<path d="M61.7478 285.441C61.6423 285.442 61.5394 285.409 61.4548 285.345C61.3702 285.282 61.3087 285.193 61.2796 285.092L59.5327 278.425L55.8326 276.053C55.7735 276.021 55.7216 275.978 55.6801 275.925C55.6387 275.872 55.6086 275.812 55.5918 275.747C55.575 275.682 55.5718 275.614 55.5824 275.548C55.593 275.482 55.6173 275.418 55.6536 275.362C55.6899 275.306 55.7374 275.257 55.7933 275.22C55.8492 275.183 55.9121 275.158 55.9782 275.147C56.0442 275.135 56.1119 275.137 56.1771 275.153C56.2422 275.169 56.3034 275.198 56.3567 275.239L60.2 277.716C60.3022 277.781 60.376 277.882 60.4061 277.999L62.1915 284.847C62.2234 284.972 62.2045 285.104 62.139 285.215C62.0735 285.325 61.9667 285.406 61.8422 285.438C61.8109 285.442 61.7793 285.443 61.7478 285.441Z" fill="url(#paint16_linear_6_210)"/>
<path d="M95.2129 218.501C77.516 217.033 72.89 220.695 72.89 220.695L81.3943 234.119C81.3943 234.119 98.7837 233.769 111.24 224.171C109.219 221.949 107.538 219.44 106.25 216.726C102.768 218.2 98.9814 218.809 95.2129 218.501Z" fill="url(#paint17_linear_6_210)"/>
<path d="M122.923 192.527C122.927 192.399 122.885 192.273 122.805 192.173C122.725 192.073 122.612 192.005 122.486 191.98C122.361 191.955 122.23 191.976 122.118 192.038C122.006 192.101 121.92 192.201 121.875 192.32L119.618 197.139C119.181 198.069 119.041 199.11 119.216 200.122L120.009 202.918C120.124 203.592 120.096 204.283 119.925 204.945C119.755 205.607 119.447 206.226 119.021 206.761C116.945 209.353 112.529 214.098 106.236 216.705C107.524 219.419 109.205 221.928 111.226 224.15C115.799 220.628 119.705 215.859 121.847 209.402C122.347 209.249 122.781 208.935 123.084 208.509C123.386 208.083 123.54 207.57 123.521 207.047L122.923 192.527Z" fill="url(#paint18_linear_6_210)"/>
<path d="M101.051 226.285C94.8215 219.57 82.9561 216.541 76.087 215.293C74.6302 215.023 73.1247 215.276 71.8361 216.007C70.5474 216.738 69.5583 217.901 69.0432 219.29C65.9511 227.599 57.5411 249.219 55.9129 252.937C54.5748 255.984 53.1807 258.964 52.2932 260.823C52.0376 261.357 52.0044 261.971 52.2009 262.53C52.3974 263.089 52.8076 263.546 53.3414 263.803C59.1239 266.598 69.5219 269.743 73.7391 270.969C73.9554 271.032 74.1832 271.043 74.4046 271.002C74.6259 270.961 74.8347 270.869 75.0144 270.733C75.194 270.598 75.3397 270.422 75.4397 270.221C75.5398 270.019 75.5915 269.797 75.5909 269.572C75.5913 268.752 75.8135 267.948 76.2337 267.245L92.2046 240.635C102.155 251.669 110.873 252.678 117.567 250.264C116.46 246.867 115.718 243.361 115.352 239.807C105.44 238.119 101.051 226.285 101.051 226.285Z" fill="url(#paint19_linear_6_210)"/>
<path d="M131.679 237.962L129.897 235.579C124.115 239.548 119.286 240.491 115.331 239.814C115.697 243.368 116.439 246.873 117.546 250.271C126.368 247.088 131.679 237.962 131.679 237.962Z" fill="url(#paint20_linear_6_210)"/>
<path d="M130.421 238.004L140.48 238.395L149.739 233.224C148.408 232.392 140.882 234.08 140.882 234.08C140.882 234.08 133.024 232.892 130.9 232.889C129.132 232.889 129.384 235.425 129.502 236.288C129.53 236.463 129.555 236.568 129.555 236.568L130.421 238.004Z" fill="url(#paint21_linear_6_210)"/>
<path d="M85.5207 202.984L80.2133 215.912C80.2133 215.912 86.3103 220.132 91.2158 219.73L93.8642 208.085L85.5207 202.984Z" fill="url(#paint22_linear_6_210)"/>
<path d="M94.4826 194.137C94.6049 194.309 98.3259 207.739 98.3259 207.739L90.6148 209.699L85.1992 197.495C85.1992 197.495 92.4491 191.255 94.4826 194.137Z" fill="url(#paint23_linear_6_210)"/>
<path d="M88.0992 199.347L90.4471 205.985C90.4765 206.07 90.5177 206.15 90.5694 206.223C90.8873 206.677 92.0997 208.151 93.5323 206.824C94.8355 205.615 96.0409 204.535 97.1555 204.336C97.3957 204.294 97.6431 204.342 97.8501 204.471C98.0572 204.6 98.2092 204.801 98.277 205.035C98.8764 207.157 99.3098 209.323 99.5733 211.513C99.5946 211.756 99.5244 211.998 99.3764 212.192C99.2283 212.386 99.0132 212.517 98.7732 212.561C97.2673 212.847 94.0738 213.361 91.4079 213.172C91.2311 213.16 91.0607 213.101 90.9145 213.001C90.7682 212.901 90.6515 212.763 90.5764 212.603C89.8426 210.996 87.5925 206.125 86.754 204.864C85.9678 203.679 84.0427 203.714 83.2321 203.784C83.102 203.796 82.9707 203.782 82.8463 203.742C82.722 203.701 82.6071 203.636 82.5088 203.55C81.8101 202.928 80.4544 201.345 82.3481 199.452C82.4419 199.358 82.5158 199.247 82.5655 199.124C82.6152 199.001 82.6396 198.869 82.6373 198.737C82.6351 198.605 82.6061 198.474 82.5522 198.353C82.4983 198.232 82.4206 198.123 82.3237 198.033C81.5131 197.268 80.6431 195.912 81.9987 194.232C83.3544 192.551 85.1922 192.796 86.3033 193.183C86.521 193.262 86.7594 193.261 86.9766 193.181C87.1939 193.101 87.376 192.947 87.4912 192.747C87.5708 192.609 87.6904 192.5 87.834 192.432C87.9776 192.365 88.1384 192.343 88.2948 192.369C88.4306 192.381 88.5672 192.363 88.6958 192.318C88.8244 192.273 88.942 192.201 89.0409 192.108C89.1399 192.014 89.2179 191.901 89.27 191.775C89.322 191.649 89.3469 191.513 89.343 191.377C89.322 190.28 89.7134 188.9 91.6141 188.309C94.9822 187.261 97.0821 190.514 97.2917 192.942C97.5014 195.371 93.7978 196.3 91.5966 196.136C89.9335 196.013 88.7001 197.659 88.204 198.456C88.117 198.585 88.0621 198.734 88.0439 198.889C88.0256 199.044 88.0446 199.201 88.0992 199.347Z" fill="url(#paint24_linear_6_210)"/>
<path d="M87.6345 207.306C87.6345 207.306 87.0754 203.092 85.3285 202.883C83.5815 202.673 81.866 204.12 83.6094 206.485C85.7862 209.43 87.6345 207.306 87.6345 207.306Z" fill="url(#paint25_linear_6_210)"/>
<path d="M358.842 166.186C358.822 166.186 358.802 166.182 358.784 166.174C358.765 166.167 358.748 166.155 358.734 166.141C358.72 166.127 358.709 166.11 358.701 166.091C358.694 166.072 358.69 166.052 358.69 166.032C358.69 162.488 357.334 157.775 357.32 157.737C357.309 157.698 357.314 157.657 357.333 157.621C357.352 157.586 357.384 157.559 357.423 157.548C357.442 157.542 357.462 157.54 357.482 157.542C357.502 157.544 357.522 157.55 357.539 157.559C357.557 157.569 357.572 157.582 357.585 157.597C357.598 157.613 357.607 157.631 357.613 157.65C357.626 157.699 359.007 162.446 358.994 166.034C358.994 166.054 358.991 166.074 358.983 166.093C358.976 166.111 358.964 166.128 358.95 166.142C358.936 166.156 358.919 166.168 358.901 166.175C358.882 166.183 358.862 166.186 358.842 166.186Z" fill="url(#paint26_linear_6_210)"/>
<path d="M351.116 167.929C351.093 167.929 351.07 167.924 351.05 167.914C351.029 167.903 351.01 167.889 350.996 167.871C350.96 167.824 347.245 163.102 345.968 159.864C345.96 159.845 345.957 159.826 345.957 159.806C345.957 159.786 345.961 159.766 345.969 159.748C345.977 159.73 345.988 159.713 346.003 159.699C346.017 159.685 346.034 159.675 346.053 159.668C346.09 159.653 346.132 159.653 346.17 159.669C346.207 159.685 346.236 159.715 346.251 159.752C347.512 162.948 351.199 167.634 351.235 167.681C351.249 167.697 351.26 167.716 351.266 167.736C351.273 167.756 351.275 167.777 351.273 167.798C351.27 167.82 351.264 167.84 351.253 167.858C351.242 167.876 351.227 167.892 351.21 167.904C351.183 167.923 351.149 167.932 351.116 167.929Z" fill="url(#paint27_linear_6_210)"/>
<path d="M413.892 180C413.892 180 409.535 180.225 409 189.01C409 189.01 419.105 197.886 432.752 199.997C433.777 200.155 431.317 193.142 430.947 192.193C429.191 187.674 423.656 184.763 413.892 180Z" fill="url(#paint28_linear_6_210)"/>
<path d="M366.804 169.978H375.661C375.661 169.978 402.85 140.025 420.682 137C420.682 137 433.075 152.809 420.023 182.341C418.97 184.717 416.026 185.771 413.826 184.373C413.188 183.977 412.692 183.389 412.413 182.692L413.462 157.476C413.462 157.476 390.271 177.708 386.239 181.614C382.207 185.52 361.726 183.14 366.804 169.978Z" fill="url(#paint29_linear_6_210)"/>
<path d="M452.892 232.831C449.034 229.625 442.884 226.03 434.004 225L431 226.74C432.563 228.775 434.38 230.623 436.413 232.243C439.634 234.014 444.592 236.407 448.707 236.93C452.698 237.433 453.298 235.144 452.892 232.831Z" fill="url(#paint30_linear_6_210)"/>
<path d="M430.22 192.391C427.927 193.121 426.916 196.32 421.095 194.203C416.842 192.662 412.815 190.576 409.117 188C409.07 188.413 409.031 188.845 409 189.303C409 189.303 419.299 198.934 432.493 200.986C432.721 201.019 432.953 200.993 433.167 200.911C433.38 200.828 433.568 200.692 433.712 200.515C433.855 200.339 433.949 200.129 433.985 199.906C434.02 199.682 433.995 199.454 433.912 199.243C432.964 196.822 431.725 194.522 430.22 192.391Z" fill="#7D97F4"/>
<path d="M455.505 235.569C454.639 234.528 453.712 233.547 452.729 232.631C453.114 235.114 452.556 237.573 448.736 237.032C444.807 236.471 440.071 233.901 437 232C440.844 235.495 446.698 239.208 454.083 238.991C454.454 238.99 454.817 238.874 455.128 238.658C455.439 238.442 455.685 238.134 455.835 237.772C455.986 237.41 456.035 237.009 455.976 236.618C455.917 236.228 455.754 235.863 455.505 235.569Z" fill="#7D97F4"/>
<path d="M366.952 176L408.754 176.45C408.754 176.45 432.627 196.235 436.955 226.404C436.955 226.404 437.673 228.621 433.361 229C433.361 229 418.921 219.559 409.515 202.866C397.979 182.396 379.414 189.703 379.414 189.703C356.895 197.392 349.187 185.973 349 183.272L366.952 176Z" fill="url(#paint31_linear_6_210)"/>
<path d="M368.28 143C368.28 143 372.717 165.497 394.443 174.396L402.176 173.473L404 176.416L385.863 177C385.863 177 370.358 170.771 362.148 153.861C361.886 153.3 357.365 143.853 368.28 143Z" fill="url(#paint32_linear_6_210)"/>
<path d="M370.312 175.999C370.312 175.999 365.263 162.075 364.177 148.547C364.177 148.547 367.875 145.324 370.181 143.937C370.542 143.721 370.809 143.375 370.929 142.968C371.05 142.561 371.015 142.123 370.832 141.741C369.138 138.171 358.87 124.161 358.1 123.97C353.922 122.911 336.78 114.645 324.703 131.392C319.523 138.581 325.731 160.712 349.243 183.632L350.013 183.785C352.649 184.296 355.378 183.89 357.758 182.632L370.312 175.999Z" fill="url(#paint33_linear_6_210)"/>
<path d="M350.505 152C350.505 152 364.614 168.278 382.649 170.66C382.649 170.66 387.297 166.508 390.782 167.995C394.268 169.482 399 176 399 176H375.841C375.841 176 353.944 175.245 343 162.307C343.875 157.778 346.513 155.076 350.505 152Z" fill="url(#paint34_linear_6_210)"/>
<path d="M342.148 112L339.05 122.709C338.979 122.948 338.984 123.204 339.062 123.44C339.141 123.677 339.29 123.881 339.488 124.023C340.975 125.078 344.859 127.186 350.188 125.139C350.486 125.021 350.745 124.817 350.936 124.552C351.128 124.287 351.243 123.971 351.268 123.64L352 114.309L342.148 112Z" fill="url(#paint35_linear_6_210)"/>
<path d="M361 103.916C361 103.916 359.437 114.404 355.22 117.62C351.002 120.837 342.774 118.416 340 110.509L345.533 97L361 103.916Z" fill="url(#paint36_linear_6_210)"/>
<path d="M344.743 106.121C344.816 106.144 344.893 106.152 344.968 106.142C345.044 106.133 345.116 106.107 345.181 106.066C345.246 106.026 345.301 105.971 345.343 105.907C345.385 105.842 345.413 105.769 345.425 105.693C345.572 104.691 345.942 102.715 346.685 101.372C346.685 101.372 346.3 99.9539 350.203 102.099C354.106 104.243 359.986 107.394 363.446 105.516C366.813 103.689 370.231 94.4783 361.323 96.187C361.244 96.2019 361.162 96.1984 361.085 96.1767C361.007 96.1549 360.935 96.1156 360.875 96.0615C360.814 96.0074 360.767 95.9401 360.736 95.8645C360.704 95.7889 360.69 95.7071 360.695 95.6253C360.806 94.113 360.656 90.6288 357.2 89.5133C353.964 88.4645 352.191 89.9572 351.459 90.8567C351.41 90.9196 351.348 90.9705 351.278 91.0054C351.207 91.0404 351.129 91.0586 351.051 91.0586C350.972 91.0586 350.894 91.0404 350.824 91.0054C350.753 90.9705 350.691 90.9196 350.642 90.8567C349.671 89.5683 347.04 86.8187 343.164 88.5627C339.974 89.9964 339.477 91.9997 339.527 93.2488C339.531 93.3406 339.512 93.432 339.472 93.5142C339.431 93.5963 339.371 93.6665 339.296 93.7178C339.221 93.7691 339.135 93.7999 339.045 93.8072C338.955 93.8145 338.865 93.7981 338.783 93.7595C337.804 93.2999 336.232 93.0603 334.726 94.985C332.641 97.6482 335.62 99.9539 336.51 100.559C336.582 100.607 336.642 100.673 336.684 100.75C336.726 100.828 336.748 100.914 336.749 101.003C336.749 102.385 336.968 108.419 339.935 111.824C339.995 111.891 340.071 111.942 340.156 111.971C340.24 112 340.33 112.008 340.418 111.992C340.506 111.976 340.589 111.938 340.659 111.882C340.728 111.825 340.783 111.751 340.817 111.667L343.102 106.121C343.152 105.996 343.247 105.895 343.367 105.838C343.487 105.781 343.623 105.773 343.749 105.814L344.743 106.121Z" fill="url(#paint37_linear_6_210)"/>
<path d="M345 107.192C345 107.192 343.698 101.541 341.719 103.361C339.741 105.181 342.234 109.234 344.5 110L345 107.192Z" fill="url(#paint38_linear_6_210)"/>
<path d="M398 177.883L408.497 142.548C408.706 141.845 409.124 141.222 409.693 140.764C410.262 140.305 410.956 140.033 411.683 139.983L425.854 139.005C426.186 138.982 426.518 139.043 426.821 139.181C427.124 139.32 427.388 139.532 427.589 139.8C427.791 140.067 427.924 140.38 427.975 140.712C428.027 141.044 427.997 141.383 427.887 141.7L416.159 175.448C415.974 175.981 415.642 176.45 415.202 176.8C414.762 177.149 414.233 177.365 413.676 177.421L399.72 179L398 177.883Z" fill="url(#paint39_linear_6_210)"/>
<path d="M399.651 178.996H399.585L370.226 177.555C369.882 177.532 369.56 177.379 369.331 177.128C369.102 176.877 368.984 176.549 369.002 176.214C369.019 175.879 369.172 175.564 369.426 175.337C369.68 175.11 370.016 174.989 370.361 175.001L399.716 176.441C400.065 176.45 400.397 176.593 400.637 176.838C400.878 177.084 401.008 177.413 401 177.752C400.991 178.092 400.844 178.414 400.591 178.647C400.338 178.881 400 179.008 399.651 179V178.996Z" fill="url(#paint40_linear_6_210)"/>
<path d="M341.714 164L341.512 163.922C331.976 160.108 326.08 149.479 326.033 149.371C326.016 149.342 326.005 149.31 326.001 149.276C325.998 149.243 326.001 149.209 326.012 149.177C326.023 149.145 326.04 149.115 326.063 149.09C326.086 149.064 326.114 149.043 326.146 149.028C326.178 149.012 326.213 149.003 326.249 149.001C326.285 148.998 326.321 149.002 326.355 149.013C326.389 149.024 326.42 149.041 326.447 149.063C326.474 149.085 326.496 149.112 326.511 149.142C326.567 149.246 332.289 159.569 341.524 163.375L342.49 162.1C342.51 162.071 342.537 162.045 342.569 162.026C342.6 162.007 342.636 161.994 342.673 161.988C342.711 161.983 342.749 161.984 342.785 161.994C342.822 162.003 342.856 162.019 342.885 162.041C342.944 162.08 342.983 162.138 342.996 162.204C343.008 162.27 342.993 162.337 342.953 162.392L341.714 164Z" fill="url(#paint41_linear_6_210)"/>
<path d="M296.64 304.778C296.64 304.778 296.167 247.827 338.642 243.556C381.116 239.285 407.498 257.72 394.307 274.263C381.116 290.806 361.279 305.506 343.585 293.618C325.89 281.73 307.372 281.659 296.64 304.778Z" fill="#91B3FA"/>
<path d="M377.233 268.358C377.154 268.359 377.077 268.337 377.01 268.296C375.079 267.077 373.089 265.942 371.098 264.915C371.001 264.865 370.928 264.778 370.895 264.674C370.861 264.57 370.871 264.458 370.921 264.36C370.971 264.263 371.057 264.19 371.161 264.157C371.265 264.124 371.378 264.133 371.475 264.183C373.484 265.219 375.492 266.368 377.449 267.597C377.525 267.646 377.583 267.717 377.614 267.801C377.645 267.884 377.649 267.976 377.624 268.062C377.598 268.148 377.546 268.223 377.474 268.276C377.403 268.33 377.316 268.359 377.226 268.358H377.233Z" fill="url(#paint42_linear_6_210)"/>
<path d="M367.2 263.007C367.143 263.007 367.086 262.995 367.035 262.971C360.815 260.213 354.234 258.354 347.49 257.45C347.382 257.436 347.284 257.379 347.217 257.293C347.151 257.206 347.121 257.097 347.135 256.988C347.151 256.88 347.208 256.782 347.295 256.716C347.382 256.65 347.491 256.62 347.599 256.634C354.42 257.547 361.075 259.425 367.367 262.213C367.453 262.251 367.524 262.318 367.567 262.402C367.61 262.486 367.623 262.583 367.603 262.675C367.583 262.768 367.533 262.851 367.459 262.91C367.386 262.97 367.294 263.002 367.2 263.003V263.007Z" fill="url(#paint43_linear_6_210)"/>
<path d="M325.156 258.356C325.056 258.355 324.96 258.318 324.885 258.252C324.81 258.185 324.762 258.093 324.75 257.994C324.738 257.895 324.762 257.794 324.818 257.712C324.874 257.629 324.959 257.569 325.056 257.544C330.661 256.34 336.394 255.837 342.123 256.047C342.232 256.051 342.335 256.098 342.41 256.178C342.484 256.258 342.524 256.364 342.52 256.473C342.52 256.527 342.509 256.581 342.487 256.631C342.465 256.681 342.433 256.726 342.393 256.764C342.353 256.801 342.306 256.83 342.255 256.848C342.203 256.866 342.148 256.874 342.094 256.87C336.441 256.665 330.785 257.161 325.254 258.345C325.222 258.352 325.189 258.356 325.156 258.356Z" fill="url(#paint44_linear_6_210)"/>
<path d="M368.661 272.987C368.582 272.987 368.505 272.965 368.438 272.922C365.701 271.204 362.763 269.828 359.69 268.827C359.635 268.813 359.584 268.788 359.539 268.753C359.494 268.718 359.457 268.674 359.43 268.625C359.403 268.575 359.386 268.52 359.381 268.463C359.376 268.407 359.383 268.35 359.401 268.296C359.419 268.242 359.448 268.193 359.486 268.151C359.524 268.109 359.57 268.075 359.622 268.051C359.673 268.028 359.729 268.015 359.786 268.014C359.843 268.013 359.899 268.024 359.951 268.046C363.087 269.069 366.085 270.473 368.878 272.228C368.952 272.276 369.009 272.348 369.04 272.431C369.07 272.514 369.074 272.605 369.048 272.69C369.023 272.776 368.972 272.85 368.901 272.904C368.83 272.957 368.743 272.986 368.655 272.987H368.661Z" fill="url(#paint45_linear_6_210)"/>
<path d="M353.448 267.147C353.42 267.15 353.392 267.15 353.364 267.147C339.702 264.326 325.959 266.312 325.821 266.334C325.713 266.349 325.603 266.321 325.516 266.256C325.428 266.191 325.369 266.094 325.352 265.986C325.336 265.878 325.364 265.768 325.429 265.68C325.495 265.592 325.592 265.534 325.701 265.518C325.839 265.497 339.726 263.489 353.531 266.341C353.633 266.359 353.724 266.416 353.786 266.498C353.848 266.581 353.877 266.684 353.866 266.786C353.856 266.889 353.807 266.984 353.73 267.053C353.652 267.121 353.552 267.158 353.448 267.156V267.147Z" fill="url(#paint46_linear_6_210)"/>
<path d="M371.632 283.623C371.542 283.623 371.455 283.594 371.384 283.54C369.338 282.026 367.126 280.749 364.792 279.735C364.74 279.714 364.694 279.683 364.655 279.644C364.615 279.605 364.584 279.559 364.564 279.507C364.543 279.456 364.533 279.401 364.534 279.345C364.534 279.29 364.547 279.235 364.569 279.185C364.591 279.134 364.624 279.089 364.664 279.051C364.705 279.013 364.752 278.984 364.804 278.965C364.856 278.946 364.912 278.937 364.967 278.94C365.022 278.943 365.077 278.957 365.126 278.981C367.518 280.021 369.783 281.33 371.879 282.882C371.949 282.933 372.001 283.006 372.027 283.088C372.053 283.171 372.052 283.26 372.025 283.342C371.997 283.424 371.944 283.496 371.874 283.546C371.803 283.597 371.718 283.623 371.632 283.623Z" fill="url(#paint47_linear_6_210)"/>
<path d="M360.358 278.024C360.315 278.023 360.273 278.017 360.233 278.006C354.671 276.22 348.106 275.116 340.719 274.75C340.614 274.739 340.518 274.688 340.449 274.608C340.38 274.528 340.345 274.424 340.35 274.319C340.355 274.214 340.4 274.114 340.476 274.041C340.553 273.968 340.654 273.927 340.759 273.926C348.22 274.297 354.857 275.406 360.485 277.22C360.58 277.249 360.661 277.311 360.713 277.395C360.766 277.479 360.786 277.579 360.771 277.677C360.755 277.775 360.705 277.864 360.629 277.928C360.553 277.991 360.457 278.025 360.358 278.024Z" fill="url(#paint48_linear_6_210)"/>
<path d="M326.354 275C326.248 275 326.146 274.96 326.069 274.887C325.992 274.814 325.946 274.715 325.94 274.609C325.935 274.503 325.97 274.399 326.039 274.319C326.107 274.238 326.204 274.187 326.31 274.176C329.574 273.884 332.851 273.757 336.129 273.795C336.233 273.802 336.33 273.849 336.401 273.925C336.472 274.002 336.511 274.102 336.511 274.206C336.511 274.311 336.472 274.411 336.401 274.487C336.33 274.564 336.233 274.61 336.129 274.618C332.884 274.582 329.64 274.708 326.408 274.997L326.354 275Z" fill="url(#paint49_linear_6_210)"/>
<path d="M413.001 350.81C412.972 350.437 412.591 350.111 411.943 349.853C412.646 349.466 413.035 349.049 413.001 348.643C412.903 347.409 408.998 346.719 404.28 347.099C399.563 347.478 395.82 348.786 395.921 350.02C395.95 350.395 396.331 350.718 396.978 350.977C396.275 351.366 395.887 351.781 395.921 352.187C395.954 352.593 396.331 352.885 396.978 353.144C396.275 353.532 395.887 353.948 395.921 354.356C395.95 354.729 396.331 355.052 396.978 355.313C396.275 355.699 395.887 356.117 395.921 356.523C395.963 357.067 396.753 357.507 398.027 357.795C398.009 358.241 398.02 358.689 398.058 359.134C398.244 361.406 400.799 363.186 404.18 363.186C407.561 363.186 410.484 360.758 410.518 358.48C410.528 357.983 410.506 357.486 410.451 356.991C412.068 356.451 413.055 355.793 413.001 355.153C412.972 354.778 412.591 354.454 411.943 354.195C412.646 353.807 413.035 353.392 413.001 352.986C412.968 352.58 412.591 352.287 411.943 352.028C412.646 351.633 413.035 351.218 413.001 350.81Z" fill="#010648"/>
<path d="M402.098 358.286C400.843 358.299 399.591 358.197 398.355 357.98C398.327 357.973 398.303 357.955 398.287 357.931C398.272 357.906 398.266 357.877 398.272 357.849C398.277 357.82 398.293 357.795 398.317 357.778C398.34 357.761 398.369 357.753 398.398 357.757C400.056 358.074 402.269 358.145 404.633 357.953C406.4 357.83 408.151 357.531 409.859 357.061C409.874 357.056 409.889 357.055 409.904 357.057C409.919 357.059 409.934 357.064 409.947 357.071C409.96 357.079 409.972 357.089 409.982 357.101C409.991 357.113 409.998 357.126 410.002 357.141C410.006 357.156 410.007 357.171 410.005 357.186C410.004 357.201 409.999 357.216 409.991 357.229C409.984 357.242 409.974 357.254 409.962 357.263C409.95 357.273 409.936 357.28 409.922 357.284C408.199 357.76 406.433 358.065 404.651 358.194C403.774 358.25 402.914 358.286 402.098 358.286Z" fill="url(#paint50_linear_6_210)"/>
<path d="M402.122 356.117C400.301 356.117 398.674 355.945 397.527 355.619C397.513 355.615 397.499 355.608 397.487 355.598C397.475 355.589 397.465 355.577 397.458 355.564C397.45 355.551 397.445 355.536 397.443 355.521C397.442 355.506 397.443 355.491 397.447 355.476C397.451 355.461 397.458 355.448 397.467 355.436C397.477 355.424 397.488 355.414 397.502 355.406C397.515 355.399 397.53 355.394 397.545 355.392C397.56 355.39 397.575 355.392 397.59 355.396C399.223 355.86 401.857 356.005 404.633 355.782C407.409 355.559 409.937 355.003 411.479 354.291C411.507 354.278 411.538 354.277 411.567 354.288C411.595 354.298 411.618 354.319 411.631 354.347C411.644 354.374 411.645 354.406 411.635 354.434C411.624 354.463 411.603 354.486 411.575 354.499C410.013 355.219 407.42 355.784 404.657 356.007C403.785 356.081 402.934 356.117 402.122 356.117Z" fill="url(#paint51_linear_6_210)"/>
<path d="M402.098 353.95C400.134 353.95 398.413 353.749 397.255 353.367C397.225 353.358 397.201 353.337 397.187 353.309C397.172 353.282 397.17 353.25 397.179 353.22C397.189 353.19 397.209 353.166 397.237 353.152C397.265 353.137 397.297 353.135 397.326 353.144C398.938 353.675 401.669 353.852 404.633 353.613C407.375 353.39 409.937 352.834 411.479 352.122C411.493 352.116 411.507 352.112 411.522 352.112C411.537 352.111 411.552 352.113 411.566 352.118C411.58 352.124 411.592 352.132 411.603 352.142C411.614 352.152 411.623 352.164 411.629 352.178C411.635 352.191 411.639 352.206 411.64 352.22C411.64 352.235 411.638 352.25 411.633 352.264C411.628 352.278 411.621 352.29 411.611 352.301C411.601 352.312 411.589 352.321 411.575 352.327C410.013 353.05 407.42 353.615 404.657 353.838C403.771 353.914 402.914 353.95 402.098 353.95Z" fill="url(#paint52_linear_6_210)"/>
<path d="M402.113 351.781C400.744 351.801 399.377 351.676 398.034 351.41C398.005 351.403 397.979 351.385 397.963 351.36C397.948 351.334 397.942 351.303 397.949 351.274C397.952 351.26 397.958 351.246 397.967 351.234C397.975 351.222 397.986 351.212 397.998 351.204C398.011 351.196 398.025 351.19 398.039 351.188C398.054 351.185 398.069 351.186 398.083 351.189C399.741 351.557 402.129 351.653 404.633 351.45C407.351 351.227 409.899 350.68 411.444 349.977C411.457 349.969 411.473 349.963 411.489 349.961C411.505 349.959 411.521 349.96 411.537 349.965C411.552 349.97 411.567 349.977 411.579 349.988C411.591 349.999 411.601 350.012 411.608 350.027C411.614 350.041 411.618 350.057 411.618 350.074C411.618 350.09 411.614 350.106 411.608 350.121C411.601 350.135 411.591 350.149 411.579 350.159C411.567 350.17 411.553 350.178 411.537 350.183C409.975 350.897 407.395 351.455 404.651 351.676C403.783 351.752 402.928 351.781 402.113 351.781Z" fill="url(#paint53_linear_6_210)"/>
<path d="M392.763 339.868C392.188 337.838 391.217 335.942 389.906 334.289C387.097 330.75 382.515 323.553 381.953 313.729C381.132 299.447 393.805 292.286 405.369 293.256C416.933 294.227 428.355 302.839 427.094 316.133C426.326 324.312 421.738 330.515 418.339 334.079C416.182 336.345 414.621 339.111 413.796 342.129C412.771 345.822 410.337 350.426 404.552 350.707C397.056 351.069 393.946 344.09 392.763 339.868Z" fill="url(#paint54_linear_6_210)"/>
<path d="M406.456 347.857L410.502 321.54C410.584 320.996 410.852 320.632 411.1 320.723C411.348 320.815 411.477 321.335 411.394 321.877C411.394 321.893 411.394 321.91 411.394 321.924L406.786 347.998C406.75 348.192 406.652 348.317 406.563 348.273C406.474 348.228 406.427 348.047 406.456 347.857Z" fill="url(#paint55_linear_6_210)"/>
<path d="M402.256 348.065L398.208 321.748C398.125 321.205 397.858 320.839 397.612 320.933C397.367 321.027 397.233 321.542 397.315 322.087C397.315 322.1 397.315 322.118 397.315 322.134L401.924 348.206C401.959 348.402 402.057 348.525 402.147 348.482C402.236 348.44 402.285 348.257 402.256 348.065Z" fill="url(#paint56_linear_6_210)"/>
<path opacity="0.77" d="M410.473 319.279C410.415 319.197 410.33 319.139 410.233 319.113C410.135 319.088 410.032 319.098 409.942 319.141L407.688 320.194L406.907 317.963C406.883 317.9 406.846 317.843 406.799 317.795C406.751 317.748 406.695 317.711 406.632 317.686C406.509 317.634 406.372 317.628 406.245 317.669C406.118 317.71 406.01 317.795 405.94 317.909L404.088 321.288L402.359 316.492C402.311 316.366 402.218 316.262 402.098 316.2C401.959 316.122 401.797 316.097 401.642 316.127C401.486 316.158 401.346 316.243 401.247 316.367L398.656 319.938C398.632 319.972 398.614 320.012 398.605 320.054C398.596 320.096 398.596 320.139 398.605 320.181C398.613 320.223 398.63 320.262 398.655 320.297C398.68 320.332 398.711 320.362 398.748 320.384C398.833 320.438 398.934 320.461 399.034 320.451C399.134 320.44 399.227 320.396 399.299 320.326L401.58 317.782L403.633 322.357C403.67 322.436 403.734 322.5 403.814 322.535C403.906 322.579 404.01 322.589 404.108 322.563C404.207 322.538 404.293 322.478 404.352 322.395L406.333 319.215L407.079 320.824V320.839C407.084 320.851 407.09 320.862 407.096 320.873C407.154 320.955 407.24 321.013 407.337 321.039C407.434 321.064 407.537 321.054 407.628 321.011L410.305 319.761C410.353 319.746 410.396 319.72 410.431 319.686C410.466 319.651 410.493 319.609 410.51 319.562C410.526 319.515 410.531 319.465 410.525 319.416C410.518 319.367 410.5 319.32 410.473 319.279Z" fill="white"/>
<path opacity="0.84" d="M418.426 330.79C418.312 330.791 418.199 330.759 418.101 330.699C418.003 330.639 417.924 330.553 417.873 330.451C417.821 330.348 417.799 330.233 417.81 330.119C417.82 330.005 417.862 329.895 417.931 329.804C418.608 328.893 419.232 327.944 419.801 326.963C419.883 326.821 420.018 326.717 420.176 326.675C420.335 326.632 420.504 326.654 420.646 326.736C420.788 326.818 420.891 326.953 420.934 327.112C420.976 327.27 420.954 327.439 420.872 327.581C420.28 328.605 419.63 329.593 418.924 330.542C418.866 330.62 418.791 330.683 418.705 330.726C418.618 330.769 418.523 330.791 418.426 330.79Z" fill="white"/>
<path opacity="0.84" d="M421.747 325.077C421.662 325.078 421.579 325.06 421.501 325.026C421.351 324.961 421.233 324.838 421.173 324.686C421.112 324.534 421.115 324.364 421.18 324.213C425.438 314.41 421.769 306.186 421.731 306.104C421.683 305.959 421.689 305.802 421.749 305.662C421.81 305.522 421.92 305.409 422.058 305.345C422.196 305.281 422.353 305.271 422.499 305.316C422.645 305.361 422.769 305.458 422.847 305.588C423.01 305.945 426.781 314.401 422.305 324.707C422.258 324.816 422.18 324.909 422.081 324.974C421.982 325.04 421.866 325.076 421.747 325.077Z" fill="white"/>
</g>
<defs>
<linearGradient id="paint0_linear_6_210" x1="-0.00129531" y1="238.863" x2="449.392" y2="238.863" gradientUnits="userSpaceOnUse">
<stop stop-color="#DAE3FE"/>
<stop offset="1" stop-color="#E9EFFD"/>
</linearGradient>
<linearGradient id="paint1_linear_6_210" x1="224.595" y1="363.809" x2="293.467" y2="157.193" gradientUnits="userSpaceOnUse">
<stop stop-color="#09005D"/>
<stop offset="1" stop-color="#1A0F91"/>
</linearGradient>
<linearGradient id="paint2_linear_6_210" x1="384.742" y1="346.126" x2="78.3061" y2="420.664" gradientUnits="userSpaceOnUse">
<stop stop-color="#09005D"/>
<stop offset="1" stop-color="#1A0F91"/>
</linearGradient>
<linearGradient id="paint3_linear_6_210" x1="257.647" y1="154.537" x2="215.14" y2="431.822" gradientUnits="userSpaceOnUse">
<stop stop-color="#FC9D8A"/>
<stop offset="1" stop-color="#FF765B"/>
</linearGradient>
<linearGradient id="paint4_linear_6_210" x1="341.802" y1="136.988" x2="320.824" y2="164.66" gradientUnits="userSpaceOnUse">
<stop stop-color="#FE7062"/>
<stop offset="1" stop-color="#FF928E"/>
</linearGradient>
<linearGradient id="paint5_linear_6_210" x1="143.386" y1="195.927" x2="151.099" y2="169.489" gradientUnits="userSpaceOnUse">
<stop stop-color="#30ABBA"/>
<stop offset="1" stop-color="#6165D7"/>
</linearGradient>
<linearGradient id="paint6_linear_6_210" x1="89.923" y1="398.97" x2="124.597" y2="398.97" gradientUnits="userSpaceOnUse">
<stop stop-color="#FE7062"/>
<stop offset="1" stop-color="#FF928E"/>
</linearGradient>
<linearGradient id="paint7_linear_6_210" x1="16.9938" y1="400.029" x2="57.1637" y2="400.029" gradientUnits="userSpaceOnUse">
<stop stop-color="#FE7062"/>
<stop offset="1" stop-color="#FF928E"/>
</linearGradient>
<linearGradient id="paint8_linear_6_210" x1="45.7246" y1="356.375" x2="100.129" y2="356.375" gradientUnits="userSpaceOnUse">
<stop stop-color="#FE7062"/>
<stop offset="1" stop-color="#FF928E"/>
</linearGradient>
<linearGradient id="paint9_linear_6_210" x1="38.3174" y1="385.78" x2="105.918" y2="385.78" gradientUnits="userSpaceOnUse">
<stop stop-color="#FE7062"/>
<stop offset="1" stop-color="#FF928E"/>
</linearGradient>
<linearGradient id="paint10_linear_6_210" x1="31.8571" y1="415.185" x2="111.998" y2="415.185" gradientUnits="userSpaceOnUse">
<stop stop-color="#FE7062"/>
<stop offset="1" stop-color="#FF928E"/>
</linearGradient>
<linearGradient id="paint11_linear_6_210" x1="25.7322" y1="444.59" x2="116.917" y2="444.59" gradientUnits="userSpaceOnUse">
<stop stop-color="#FE7062"/>
<stop offset="1" stop-color="#FF928E"/>
</linearGradient>
<linearGradient id="paint12_linear_6_210" x1="51.5071" y1="346.341" x2="56.1855" y2="346.341" gradientUnits="userSpaceOnUse">
<stop stop-color="#FF928E"/>
<stop offset="1" stop-color="#FEB3B1"/>
</linearGradient>
<linearGradient id="paint13_linear_6_210" x1="74.8606" y1="351.515" x2="92.9523" y2="351.515" gradientUnits="userSpaceOnUse">
<stop stop-color="#09005D"/>
<stop offset="1" stop-color="#1A0F91"/>
</linearGradient>
<linearGradient id="paint14_linear_6_210" x1="75.1331" y1="344.265" x2="79.7836" y2="344.265" gradientUnits="userSpaceOnUse">
<stop stop-color="#FF928E"/>
<stop offset="1" stop-color="#FEB3B1"/>
</linearGradient>
<linearGradient id="paint15_linear_6_210" x1="63.2957" y1="407.233" x2="64.6933" y2="287.74" gradientUnits="userSpaceOnUse">
<stop stop-color="#09005D"/>
<stop offset="1" stop-color="#1A0F91"/>
</linearGradient>
<linearGradient id="paint16_linear_6_210" x1="55.6229" y1="280.305" x2="62.2335" y2="280.305" gradientUnits="userSpaceOnUse">
<stop stop-color="#4042E2"/>
<stop offset="1" stop-color="#4F52FF"/>
</linearGradient>
<linearGradient id="paint17_linear_6_210" x1="95.15" y1="209.287" x2="103.067" y2="175.511" gradientUnits="userSpaceOnUse">
<stop stop-color="#FE7062"/>
<stop offset="1" stop-color="#FF928E"/>
</linearGradient>
<linearGradient id="paint18_linear_6_210" x1="136.567" y1="164.68" x2="108.724" y2="225.726" gradientUnits="userSpaceOnUse">
<stop stop-color="#FF928E"/>
<stop offset="1" stop-color="#FEB3B1"/>
</linearGradient>
<linearGradient id="paint19_linear_6_210" x1="181.594" y1="149.719" x2="64.543" y2="261.892" gradientUnits="userSpaceOnUse">
<stop stop-color="#FC9D8A"/>
<stop offset="1" stop-color="#E9605A"/>
</linearGradient>
<linearGradient id="paint20_linear_6_210" x1="150.491" y1="211.9" x2="101.575" y2="261.864" gradientUnits="userSpaceOnUse">
<stop stop-color="#FF928E"/>
<stop offset="1" stop-color="#FEB3B1"/>
</linearGradient>
<linearGradient id="paint21_linear_6_210" x1="155.728" y1="217.03" x2="106.813" y2="266.993" gradientUnits="userSpaceOnUse">
<stop stop-color="#FF928E"/>
<stop offset="1" stop-color="#FEB3B1"/>
</linearGradient>
<linearGradient id="paint22_linear_6_210" x1="103.371" y1="183.778" x2="67.2019" y2="250.236" gradientUnits="userSpaceOnUse">
<stop stop-color="#FF928E"/>
<stop offset="1" stop-color="#FEB3B1"/>
</linearGradient>
<linearGradient id="paint23_linear_6_210" x1="91.9921" y1="195.958" x2="91.1283" y2="222.451" gradientUnits="userSpaceOnUse">
<stop stop-color="#FF928E"/>
<stop offset="1" stop-color="#FEB3B1"/>
</linearGradient>
<linearGradient id="paint24_linear_6_210" x1="91.1634" y1="176.849" x2="89.3779" y2="242.874" gradientUnits="userSpaceOnUse">
<stop stop-color="#E1473D"/>
<stop offset="1" stop-color="#E9605A"/>
</linearGradient>
<linearGradient id="paint25_linear_6_210" x1="82.523" y1="223.141" x2="85.412" y2="205" gradientUnits="userSpaceOnUse">
<stop stop-color="#FF928E"/>
<stop offset="1" stop-color="#FEB3B1"/>
</linearGradient>
<linearGradient id="paint26_linear_6_210" x1="369.536" y1="142.486" x2="349.146" y2="177.179" gradientUnits="userSpaceOnUse">
<stop stop-color="#4042E2"/>
<stop offset="1" stop-color="#4F52FF"/>
</linearGradient>
<linearGradient id="paint27_linear_6_210" x1="363.292" y1="138.818" x2="342.902" y2="173.51" gradientUnits="userSpaceOnUse">
<stop stop-color="#4042E2"/>
<stop offset="1" stop-color="#4F52FF"/>
</linearGradient>
<linearGradient id="paint28_linear_6_210" x1="418.293" y1="188.348" x2="433.759" y2="204.827" gradientUnits="userSpaceOnUse">
<stop stop-color="#09005D"/>
<stop offset="1" stop-color="#1A0F91"/>
</linearGradient>
<linearGradient id="paint29_linear_6_210" x1="394.833" y1="172.566" x2="410.604" y2="113.012" gradientUnits="userSpaceOnUse">
<stop stop-color="#4042E2"/>
<stop offset="1" stop-color="#4F52FF"/>
</linearGradient>
<linearGradient id="paint30_linear_6_210" x1="438.402" y1="228.118" x2="467.187" y2="250.409" gradientUnits="userSpaceOnUse">
<stop stop-color="#09005D"/>
<stop offset="1" stop-color="#1A0F91"/>
</linearGradient>
<linearGradient id="paint31_linear_6_210" x1="392.207" y1="214.484" x2="383.533" y2="317.546" gradientUnits="userSpaceOnUse">
<stop stop-color="#4042E2"/>
<stop offset="1" stop-color="#4F52FF"/>
</linearGradient>
<linearGradient id="paint32_linear_6_210" x1="380.727" y1="169.6" x2="371.141" y2="207.775" gradientUnits="userSpaceOnUse">
<stop stop-color="#FF928E"/>
<stop offset="1" stop-color="#FEB3B1"/>
</linearGradient>
<linearGradient id="paint33_linear_6_210" x1="369.427" y1="124.618" x2="269.085" y2="253.969" gradientUnits="userSpaceOnUse">
<stop stop-color="#09005D"/>
<stop offset="1" stop-color="#1A0F91"/>
</linearGradient>
<linearGradient id="paint34_linear_6_210" x1="368.789" y1="170.973" x2="406.543" y2="117.973" gradientUnits="userSpaceOnUse">
<stop stop-color="#FF928E"/>
<stop offset="1" stop-color="#FEB3B1"/>
</linearGradient>
<linearGradient id="paint35_linear_6_210" x1="348.306" y1="114.107" x2="330.587" y2="153.459" gradientUnits="userSpaceOnUse">
<stop stop-color="#FF928E"/>
<stop offset="1" stop-color="#FEB3B1"/>
</linearGradient>
<linearGradient id="paint36_linear_6_210" x1="350.5" y1="87.7768" x2="350.5" y2="121.784" gradientUnits="userSpaceOnUse">
<stop stop-color="#FF928E"/>
<stop offset="1" stop-color="#FEB3B1"/>
</linearGradient>
<linearGradient id="paint37_linear_6_210" x1="346.859" y1="76.7748" x2="352.946" y2="110.842" gradientUnits="userSpaceOnUse">
<stop stop-color="#09005D"/>
<stop offset="1" stop-color="#1A0F91"/>
</linearGradient>
<linearGradient id="paint38_linear_6_210" x1="343" y1="88.0068" x2="343" y2="122.232" gradientUnits="userSpaceOnUse">
<stop stop-color="#FF928E"/>
<stop offset="1" stop-color="#FEB3B1"/>
</linearGradient>
<linearGradient id="paint39_linear_6_210" x1="398" y1="158.989" x2="428.004" y2="158.989" gradientUnits="userSpaceOnUse">
<stop stop-color="#09005D"/>
<stop offset="1" stop-color="#1A0F91"/>
</linearGradient>
<linearGradient id="paint40_linear_6_210" x1="401.542" y1="172.574" x2="377.953" y2="179.225" gradientUnits="userSpaceOnUse">
<stop stop-color="#09005D"/>
<stop offset="1" stop-color="#1A0F91"/>
</linearGradient>
<linearGradient id="paint41_linear_6_210" x1="368.546" y1="101.627" x2="335.936" y2="161.034" gradientUnits="userSpaceOnUse">
<stop stop-color="#4042E2"/>
<stop offset="1" stop-color="#4F52FF"/>
</linearGradient>
<linearGradient id="paint42_linear_6_210" x1="370.88" y1="266.247" x2="377.646" y2="266.247" gradientUnits="userSpaceOnUse">
<stop stop-color="#DAE3FE"/>
<stop offset="1" stop-color="#E9EFFD"/>
</linearGradient>
<linearGradient id="paint43_linear_6_210" x1="347.133" y1="259.818" x2="367.612" y2="259.818" gradientUnits="userSpaceOnUse">
<stop stop-color="#DAE3FE"/>
<stop offset="1" stop-color="#E9EFFD"/>
</linearGradient>
<linearGradient id="paint44_linear_6_210" x1="324.743" y1="257.18" x2="342.52" y2="257.18" gradientUnits="userSpaceOnUse">
<stop stop-color="#DAE3FE"/>
<stop offset="1" stop-color="#E9EFFD"/>
</linearGradient>
<linearGradient id="paint45_linear_6_210" x1="359.409" y1="270.505" x2="369.072" y2="270.505" gradientUnits="userSpaceOnUse">
<stop stop-color="#DAE3FE"/>
<stop offset="1" stop-color="#E9EFFD"/>
</linearGradient>
<linearGradient id="paint46_linear_6_210" x1="325.348" y1="265.975" x2="353.859" y2="265.975" gradientUnits="userSpaceOnUse">
<stop stop-color="#DAE3FE"/>
<stop offset="1" stop-color="#E9EFFD"/>
</linearGradient>
<linearGradient id="paint47_linear_6_210" x1="364.546" y1="281.284" x2="372.044" y2="281.284" gradientUnits="userSpaceOnUse">
<stop stop-color="#DAE3FE"/>
<stop offset="1" stop-color="#E9EFFD"/>
</linearGradient>
<linearGradient id="paint48_linear_6_210" x1="340.329" y1="275.975" x2="360.77" y2="275.975" gradientUnits="userSpaceOnUse">
<stop stop-color="#DAE3FE"/>
<stop offset="1" stop-color="#E9EFFD"/>
</linearGradient>
<linearGradient id="paint49_linear_6_210" x1="325.942" y1="274.395" x2="336.533" y2="274.395" gradientUnits="userSpaceOnUse">
<stop stop-color="#DAE3FE"/>
<stop offset="1" stop-color="#E9EFFD"/>
</linearGradient>
<linearGradient id="paint50_linear_6_210" x1="403.624" y1="359.368" x2="396.224" y2="386.333" gradientUnits="userSpaceOnUse">
<stop stop-color="#4042E2"/>
<stop offset="1" stop-color="#4F52FF"/>
</linearGradient>
<linearGradient id="paint51_linear_6_210" x1="403.352" y1="359.294" x2="395.949" y2="386.259" gradientUnits="userSpaceOnUse">
<stop stop-color="#4042E2"/>
<stop offset="1" stop-color="#4F52FF"/>
</linearGradient>
<linearGradient id="paint52_linear_6_210" x1="402.662" y1="359.105" x2="395.262" y2="386.069" gradientUnits="userSpaceOnUse">
<stop stop-color="#4042E2"/>
<stop offset="1" stop-color="#4F52FF"/>
</linearGradient>
<linearGradient id="paint53_linear_6_210" x1="402.479" y1="359.053" x2="395.077" y2="386.018" gradientUnits="userSpaceOnUse">
<stop stop-color="#4042E2"/>
<stop offset="1" stop-color="#4F52FF"/>
</linearGradient>
<linearGradient id="paint54_linear_6_210" x1="394.332" y1="296.385" x2="444.735" y2="389.234" gradientUnits="userSpaceOnUse">
<stop stop-color="#FE7062"/>
<stop offset="1" stop-color="#FF928E"/>
</linearGradient>
<linearGradient id="paint55_linear_6_210" x1="408.754" y1="329.085" x2="410.415" y2="381.881" gradientUnits="userSpaceOnUse">
<stop stop-color="#E1473D"/>
<stop offset="1" stop-color="#E9605A"/>
</linearGradient>
<linearGradient id="paint56_linear_6_210" x1="399.6" y1="329.373" x2="401.263" y2="382.168" gradientUnits="userSpaceOnUse">
<stop stop-color="#E1473D"/>
<stop offset="1" stop-color="#E9605A"/>
</linearGradient>
<clipPath id="clip0_6_210">
<rect width="480" height="480" fill="white"/>
</clipPath>
</defs>
</svg>
