<?xml version="1.0" encoding="UTF-8" standalone="no"?>
<!-- Created with Inkscape (http://www.inkscape.org/) -->

<svg
   width="55mm"
   height="60mm"
   viewBox="0 0 55 60"
   version="1.1"
   id="svg1793"
   inkscape:version="1.1.2 (b8e25be833, 2022-02-05)"
   sodipodi:docname="hat.svg"
   xmlns:inkscape="http://www.inkscape.org/namespaces/inkscape"
   xmlns:sodipodi="http://sodipodi.sourceforge.net/DTD/sodipodi-0.dtd"
   xmlns="http://www.w3.org/2000/svg"
   xmlns:svg="http://www.w3.org/2000/svg">
  <sodipodi:namedview
     id="namedview1795"
     pagecolor="#505050"
     bordercolor="#ffffff"
     borderopacity="1"
     inkscape:pageshadow="0"
     inkscape:pageopacity="0"
     inkscape:pagecheckerboard="1"
     inkscape:document-units="mm"
     showgrid="false"
     inkscape:zoom="2.9968294"
     inkscape:cx="140.14812"
     inkscape:cy="135.47651"
     inkscape:window-width="1920"
     inkscape:window-height="1027"
     inkscape:window-x="-8"
     inkscape:window-y="-8"
     inkscape:window-maximized="1"
     inkscape:current-layer="layer1" />
  <defs
     id="defs1790">
    <linearGradient
       id="paint20_linear_8_1721"
       x1="181"
       y1="36.5"
       x2="322.03"
       y2="37.410301"
       gradientUnits="userSpaceOnUse"
       gradientTransform="matrix(0.2642763,0,0,0.26371992,-41.711598,2.8981717e-4)">
      <stop
         stop-color="#30ABBA"
         id="stop237" />
      <stop
         offset="1"
         stop-color="#6165D7"
         id="stop239" />
    </linearGradient>
    <linearGradient
       id="paint19_linear_8_1721"
       x1="211.53799"
       y1="98.032402"
       x2="218.455"
       y2="63.752499"
       gradientUnits="userSpaceOnUse"
       gradientTransform="matrix(0.2642763,0,0,0.26371992,-41.711598,2.8981717e-4)">
      <stop
         stop-color="#30ABBA"
         id="stop232" />
      <stop
         offset="1"
         stop-color="#6165D7"
         id="stop234" />
    </linearGradient>
  </defs>
  <g
     inkscape:label="Слой 1"
     inkscape:groupmode="layer"
     id="layer1">
    <path
       d="m 7.9889966,12.103373 -2.9939867,7.837041 c 0,0 2.8547135,12.554387 16.8161651,16.566362 13.961453,4.012234 19.564111,-2.829187 19.564111,-2.829187 L 44.914475,22.18647 Z"
       fill="url(#paint19_linear_8_1721)"
       id="path123"
       style="fill:url(#paint19_linear_8_1721);stroke-width:0.263997" />
    <path
       d="M 30.75825,0.17530483 C 30.364214,-0.00903664 29.917587,-0.04948123 29.496595,0.06102099 L 1.4008525,7.3468943 c -1.44717673,0.3753262 -1.88957577,2.2084955 -0.77221488,3.1995287 5.45149168,4.8328 17.83362838,16.08325 22.48224838,22.569445 0.242077,0.337026 0.589865,0.583868 0.988394,0.701493 0.398793,0.117356 0.825071,0.09868 1.211706,-0.05323 L 53.81213,22.615825 c 1.288872,-0.506054 1.601249,-2.183203 0.577968,-3.114344 C 48.993579,14.591465 35.258611,2.2927125 30.75825,0.17530483 Z"
       fill="url(#paint20_linear_8_1721)"
       id="path125"
       style="fill:url(#paint20_linear_8_1721);stroke-width:0.263997" />
    <path
       d="m 28.620783,14.457786 c 0,0 14.723097,9.659692 15.817994,11.823907 1.094896,2.164214 -1.37688,11.861994 -1.37688,11.861994 C 45.251956,46.4324 45.428491,55.391498 41.378721,60 c 0,0 -4.679804,-10.933305 -2.408878,-15.461639 2.27119,-4.528334 3.145152,-6.385444 3.145152,-6.385444 0,0 2.105754,-10.34837 1.53016,-11.844243 -5.28e-4,0 -16.300034,-11.281149 -15.024372,-11.850888 z"
       fill="#6165d7"
       id="path127"
       style="stroke-width:0.263997" />
    <path
       d="M 5.1305844,9.9872311 19.16392,24.341405 l 3.507475,3.588671 0.876869,0.897173 0.437906,0.44595 c 0.345673,0.345478 0.780408,0.589151 1.256105,0.703606 0.475433,0.114714 0.973594,0.09599 1.439249,-0.05402 l 9.587151,-3.001663 c 0.03806,-0.008 0.0777,-0.002 0.111525,0.01685 0.03383,0.01924 0.05893,0.05063 0.07083,0.08751 0.0119,0.03688 0.0095,0.07705 -0.0069,0.112343 -0.01612,0.03538 -0.04493,0.06329 -0.08087,0.07834 l -9.562045,3.078402 c -0.535424,0.176173 -1.109167,0.201749 -1.65807,0.07336 -0.549166,-0.12817 -1.05182,-0.405073 -1.453255,-0.80013 L 23.245377,29.121844 22.360845,28.232057 18.822978,24.672471 4.6728402,10.436367 c -0.057613,-0.06079 -0.089057,-0.141697 -0.087738,-0.225375 0.0013,-0.08371 0.035409,-0.16356 0.09488,-0.222501 0.059731,-0.058937 0.1400663,-0.092278 0.223842,-0.092906 0.083773,-6.329e-4 0.1646447,0.031517 0.2251634,0.089557 z"
       fill="#91b3fa"
       id="path129"
       style="stroke-width:0.263997" />
    <path
       d="m 41.895911,43.150405 c -0.0333,0.0314 -0.08457,0.09629 -0.129231,0.14347 l -0.131346,0.168778 c -0.08457,0.114186 -0.163587,0.240243 -0.24657,0.359971 l -0.218821,0.383983 c -0.06898,0.131071 -0.126853,0.267145 -0.194507,0.400589 -0.06502,0.133971 -0.122888,0.27163 -0.173101,0.411931 -0.05286,0.139503 -0.111261,0.277432 -0.159887,0.419048 l -0.130024,0.431188 c -0.04757,0.142673 -0.08748,0.287718 -0.119717,0.434607 l -0.09752,0.441734 c -0.03568,0.14662 -0.06396,0.294835 -0.08457,0.444365 -0.04228,0.299849 -0.08827,0.598909 -0.126852,0.899545 l -0.06211,0.909313 c -0.0045,0.07565 -0.01216,0.151375 -0.01374,0.227585 v 0.228123 0.457283 c -0.01744,0.609724 0.05392,1.217863 0.09065,1.828115 0.0074,0.152421 0.02881,0.304064 0.05074,0.455708 l 0.06211,0.454651 c 0.04228,0.303277 0.08034,0.607342 0.126852,0.910091 0.123417,0.599966 0.234148,1.203888 0.368136,1.802797 l 0.464862,1.7838 v 0.006 c 0.0071,0.02851 0.0029,0.05831 -0.01163,0.08363 -0.0148,0.02502 -0.03885,0.04356 -0.06686,0.05143 -0.02828,0.008 -0.0584,0.004 -0.08377,-0.01027 -0.02563,-0.01395 -0.04466,-0.03768 -0.05286,-0.06569 L 40.441864,55.43047 C 40.289641,54.830505 40.16041,54.223951 40.019287,53.620038 39.961677,53.315704 39.91569,53.008729 39.863363,52.702811 l -0.07664,-0.459655 c -0.02616,-0.15296 -0.05233,-0.306188 -0.06422,-0.46125 -0.05524,-0.619213 -0.144824,-1.236582 -0.145353,-1.861067 l -0.0148,-0.467579 -0.0071,-0.234184 c 0,-0.07804 0.0056,-0.155859 0.0077,-0.233924 l 0.03753,-0.93752 c 0.03012,-0.311979 0.06924,-0.62317 0.103861,-0.935418 0.01321,-0.156906 0.04915,-0.310394 0.07743,-0.463881 l 0.0888,-0.463881 c 0.02987,-0.155073 0.06739,-0.308291 0.112845,-0.459665 l 0.12421,-0.457822 c 0.04731,-0.151374 0.104918,-0.299848 0.156716,-0.450166 0.04968,-0.151115 0.107561,-0.299589 0.172837,-0.444893 0.06607,-0.145314 0.126853,-0.295104 0.197415,-0.437249 l 0.227805,-0.426433 c 0.08827,-0.136613 0.169138,-0.276645 0.264541,-0.411144 0.09752,-0.142404 0.205343,-0.277691 0.322946,-0.404277 0.05973,-0.05562 0.138745,-0.08652 0.220407,-0.08622 0.08192,5.29e-4 0.160415,0.0319 0.219877,0.08811 0.0592,0.05642 0.09487,0.133174 0.09936,0.214667 0.0045,0.08143 -0.02219,0.161661 -0.07479,0.224156 -0.0042,0.004 -0.0085,0.009 -0.01322,0.01296 z"
       fill="#91b3fa"
       id="path131"
       style="stroke-width:0.263997" />
    <path
       d="m 42.285189,46.984632 c 0.0032,0.0295 0.0032,0.05911 0,0.08861 l -0.0042,0.161132 -0.0069,0.324378 -0.0079,0.654019 -0.0093,1.310689 -0.0071,2.624278 v 5.249085 c 5.29e-4,0.04615 -0.01691,0.0907 -0.04915,0.123944 -0.03224,0.03299 -0.07637,0.05223 -0.122623,0.05273 -0.04625,7.88e-4 -0.09117,-0.01684 -0.12421,-0.04904 -0.0333,-0.0322 -0.05233,-0.07595 -0.05312,-0.12237 l -0.148787,-5.248556 -0.0658,-2.624537 -0.02749,-1.314118 -0.01031,-0.658245 -0.0024,-0.332023 V 47.05609 c 0,-0.07306 0.0085,-0.160345 0.01771,-0.239197 0.0082,-0.07436 0.04387,-0.142932 0.0999,-0.19251 0.05602,-0.04984 0.128438,-0.07705 0.203493,-0.07645 0.07505,5.28e-4 0.146937,0.02851 0.202436,0.07884 0.0555,0.05034 0.09011,0.119468 0.09752,0.193835 z"
       fill="#91b3fa"
       id="path133"
       style="stroke-width:0.263997" />
  </g>
</svg>
