<svg width="480" height="480" viewBox="0 0 480 480" fill="none" xmlns="http://www.w3.org/2000/svg">
<g clip-path="url(#clip0_8_1721)">
<path d="M222.952 32.8212C112.248 29.4631 16.3507 112.065 1.86616 220.456C-13.9744 338.966 73.2093 445.596 180.484 462.674C313.918 483.918 443.341 361.025 431.721 227.709C422.966 127.261 335.488 36.2384 222.952 32.8212Z" fill="#F4F7FA"/>
<path d="M257.181 305.981C250.687 287.221 243.923 258.53 250.784 226.445C258.66 189.6 277.299 181.955 293.509 142.446C319.506 79.0763 298.528 33.0035 313.395 28.3966C328.869 23.5993 367.866 68.4696 367.604 117.117C367.364 162.169 333.543 193.865 330.208 196.903C304.453 220.344 283.93 215.772 267.663 237.91C252.03 259.187 253.73 286.895 257.181 305.981Z" fill="#FAC0B5"/>
<mask id="mask0_8_1721" style="mask-type:luminance" maskUnits="userSpaceOnUse" x="247" y="28" width="121" height="278">
<path d="M257.181 305.981C250.687 287.221 243.923 258.53 250.784 226.445C258.66 189.6 277.299 181.955 293.509 142.446C319.506 79.0763 298.528 33.0035 313.395 28.3966C328.869 23.5993 367.866 68.4696 367.604 117.117C367.364 162.169 333.543 193.865 330.208 196.903C304.453 220.344 283.93 215.772 267.663 237.91C252.03 259.187 253.73 286.895 257.181 305.981Z" fill="white"/>
</mask>
<g mask="url(#mask0_8_1721)">
<path opacity="0.5" d="M257.814 348.12C245.06 296.971 247.429 252.903 264.85 217.144C275.38 195.539 289.185 181.382 301.366 168.892C316.118 153.765 328.859 140.699 333.857 118.459C340.929 86.9806 328.867 50.9964 298.008 11.5054L298.51 11.1121C329.494 50.7693 341.596 86.9246 334.48 118.598C329.443 141.015 316.644 154.14 301.824 169.338C289.671 181.793 275.909 195.912 265.424 217.424C248.063 253.045 245.709 296.966 258.426 347.965L257.814 348.12Z" fill="white"/>
<path opacity="0.5" d="M331.928 126.318L331.837 125.678C330.373 115.413 326.744 105.575 321.19 96.8181C312.442 83.1012 300.941 75.2785 292.834 71.1305L293.125 70.5628C301.302 74.746 312.904 82.6359 321.729 96.4679C327.215 105.119 330.841 114.817 332.376 124.946C340.286 116.86 346.374 107.175 350.231 96.5415C356.744 78.4031 355.137 62.0013 352.643 51.4329L353.265 51.2858C355.778 61.9373 357.398 78.4702 350.832 96.7574C346.956 107.551 340.574 117.616 332.381 125.861L331.928 126.318Z" fill="white"/>
<path opacity="0.5" d="M294.19 177.289L294.599 176.718C298.584 171.16 305.137 159.478 304.246 143.694C303.429 129.228 296.681 118.908 292.733 114.051L293.229 113.648C297.226 118.57 304.059 129.014 304.886 143.658C305.758 159.115 299.58 170.683 295.523 176.518C311.402 174.897 326.669 169.616 339.717 161.226C369.62 142.002 380.192 111.842 383.35 99.7668L383.967 99.9268C380.79 112.08 370.151 142.416 340.063 161.762C326.739 170.328 311.119 175.674 294.89 177.22L294.19 177.289Z" fill="white"/>
<path opacity="0.5" d="M262.098 224.574L262.082 224.254C261.716 216.836 261.716 209.318 262.082 201.915C262.886 185.866 265.383 169.946 269.532 154.422L270.149 154.582C266.012 170.064 263.521 185.94 262.72 201.945C262.36 209.223 262.354 216.609 262.704 223.902C280.311 223.061 297.185 218.963 312.862 211.717C348.317 195.328 367.693 167.042 376.087 151.638L376.646 151.945C368.216 167.416 348.752 195.83 313.129 212.296C297.284 219.621 280.22 223.745 262.414 224.555L262.098 224.574Z" fill="white"/>
</g>
<path d="M257.995 297.647C254.269 284.291 250.669 263.192 259.675 242.993C275.389 207.756 311.786 214.925 341.625 175.76C365.691 144.172 354.709 122.846 382.755 100.546C402.883 84.5387 429.346 78.9787 433.126 84.7946C437.196 91.0486 410.68 103.729 398.618 135.071C382.921 175.858 410.552 199.257 393.835 224.828C381.121 244.278 360.395 237.992 315.208 259.905C294.574 269.939 275.34 282.627 257.995 297.647Z" fill="#30ABBA"/>
<mask id="mask1_8_1721" style="mask-type:luminance" maskUnits="userSpaceOnUse" x="254" y="82" width="180" height="216">
<path d="M257.995 297.647C254.269 284.291 250.669 263.192 259.675 242.993C275.389 207.756 311.786 214.925 341.625 175.76C365.691 144.172 354.709 122.846 382.755 100.546C402.883 84.5387 429.346 78.9787 433.126 84.7946C437.196 91.0486 410.68 103.729 398.618 135.071C382.921 175.858 410.552 199.257 393.835 224.828C381.121 244.278 360.395 237.992 315.208 259.905C294.574 269.939 275.34 282.627 257.995 297.647Z" fill="white"/>
</mask>
<g mask="url(#mask1_8_1721)">
<path opacity="0.5" d="M251.814 344.139H251.174C251.226 295.367 263.24 260.347 286.88 240.062C298.125 230.418 309.021 226.47 319.559 222.652C332.512 217.96 344.743 213.527 356.004 198.923C366.069 185.869 367.946 174.267 369.934 161.984C371.764 150.666 373.658 138.957 381.891 124.872C394.238 103.739 415.033 87.4539 443.701 76.4618L443.93 77.0583C415.4 87.9944 394.713 104.19 382.442 125.191C374.269 139.179 372.387 150.822 370.564 162.083C368.563 174.447 366.675 186.129 356.509 199.31C345.135 214.061 332.817 218.524 319.777 223.25C309.293 227.047 298.453 230.975 287.296 240.545C263.804 260.7 251.865 295.554 251.814 344.139Z" fill="white"/>
<path opacity="0.5" d="M372.121 152.741L371.82 151.903C369.059 144.29 367.778 136.219 368.047 128.125C368.686 109.176 377.891 95.235 383.315 88.6116L383.809 89.0178C378.436 95.574 369.326 109.385 368.685 128.147C368.428 135.863 369.594 143.561 372.126 150.854C376.472 139.181 382.96 130.743 391.419 125.77C400.305 120.545 408.398 120.774 416.969 121.015C422.267 121.163 427.745 121.319 433.484 120.082C451.057 116.295 466.512 100.192 479.42 72.2226L480 72.4896C467.003 100.651 451.399 116.874 433.627 120.707C427.811 121.959 422.292 121.802 416.958 121.653C408.483 121.414 400.476 121.188 391.748 126.321C383.222 131.334 376.717 139.944 372.428 151.907L372.121 152.741Z" fill="white"/>
<path opacity="0.5" d="M352.278 203.93L352.228 203.595C348.733 180.723 349.57 157.398 354.696 134.835L355.32 134.975C350.235 157.35 349.384 180.478 352.809 203.165C363.292 200.961 373.217 196.647 381.979 190.486C395.338 181.103 403.055 169.463 407.178 161.349L407.747 161.639C403.589 169.818 395.812 181.55 382.347 191.009C373.418 197.285 363.294 201.659 352.604 203.861L352.278 203.93Z" fill="white"/>
<path opacity="0.5" d="M359.388 236.044C356.747 236.044 354.057 235.952 351.317 235.767C337.979 234.839 324.892 231.674 312.605 226.403L312.154 226.213L312.51 225.877C318.901 219.872 323.819 212.473 326.881 204.256C329.352 197.583 330.533 190.501 330.364 183.388L331.004 183.373C331.177 190.568 329.983 197.731 327.486 204.481C324.447 212.636 319.6 219.997 313.308 226.011C325.401 231.14 338.263 234.223 351.367 235.136C380.385 237.126 403.917 227.94 418.549 219.879L418.856 220.437C405.528 227.772 384.855 236.044 359.388 236.044Z" fill="white"/>
<path opacity="0.5" d="M331.907 264.328C328.402 260.067 320.741 252.506 308.813 249.777C287.913 244.98 271.569 259.079 269.773 260.702L269.195 261.228L269.241 260.446C269.688 252.961 271.097 245.565 273.434 238.441C277.38 226.448 283.828 215.552 292.589 206.074L293.059 206.507C284.357 215.918 277.959 226.728 274.041 238.649C271.801 245.471 270.418 252.546 269.925 259.71C273.467 256.696 289.196 244.61 308.953 249.147C321.064 251.926 328.84 259.598 332.397 263.922L331.907 264.328Z" fill="white"/>
</g>
<path d="M256.266 286.146C266.804 277.069 278.389 269.285 290.776 262.96C326.861 244.581 345.145 251.478 364.86 234.418C389.097 213.446 384.386 183.185 392.343 183.378C404.039 183.663 427.55 249.398 398.888 276.875C380.534 294.465 347.342 290.083 340.566 289.007C324.526 286.458 320.173 280.786 303.919 278.667C284.157 276.093 267.207 281.439 256.266 286.146Z" fill="#9FCED9"/>
<mask id="mask2_8_1721" style="mask-type:luminance" maskUnits="userSpaceOnUse" x="256" y="183" width="157" height="108">
<path d="M256.266 286.146C266.804 277.069 278.389 269.285 290.776 262.96C326.861 244.581 345.145 251.478 364.86 234.418C389.097 213.446 384.386 183.185 392.343 183.378C404.039 183.663 427.55 249.398 398.888 276.875C380.534 294.465 347.342 290.083 340.566 289.007C324.526 286.458 320.173 280.786 303.919 278.667C284.157 276.093 267.207 281.439 256.266 286.146Z" fill="white"/>
</mask>
<g mask="url(#mask2_8_1721)">
<path opacity="0.5" d="M247.378 291.804L246.986 291.299C268.387 274.747 289.763 266.513 310.531 266.861C321.724 267.042 330.427 269.61 338.102 271.876C348.204 274.857 356.928 277.43 367.477 273.09C380.95 267.546 391.24 253.212 396.453 232.726C404.806 199.905 386.313 172.504 380.447 164.888L380.953 164.499C386.869 172.175 405.496 199.782 397.072 232.884C391.807 253.57 381.383 268.064 367.722 273.68C356.962 278.108 348.138 275.503 337.921 272.489C330.284 270.234 321.628 267.68 310.521 267.499C289.914 267.156 268.667 275.341 247.378 291.804Z" fill="white"/>
<path opacity="0.5" d="M389.477 251.777L389.597 251.138C391.38 241.787 391.38 232.184 389.597 222.834C387.591 212.42 383.443 202.536 377.416 193.809L377.942 193.444C384.022 202.253 388.205 212.229 390.224 222.74C391.98 231.953 392.02 241.411 390.343 250.639C395.392 248.042 402.217 243.325 407.197 235.288C417.816 218.155 411.66 199.299 410.318 195.693L410.918 195.47C412.277 199.124 418.515 218.238 407.741 235.623C402.489 244.098 395.223 248.933 390.053 251.499L389.477 251.777Z" fill="white"/>
<path opacity="0.5" d="M375.981 287.571C368.83 287.588 361.721 286.479 354.915 284.285C345.992 281.396 337.768 276.705 330.473 270.349L329.742 269.709L330.702 269.788C344.716 270.907 357.843 264.671 364.954 253.488C372.546 241.55 370.037 228.722 369.089 225.076L369.706 224.916C370.666 228.626 373.224 241.676 365.493 253.834C358.418 264.955 345.504 271.286 331.613 270.491C338.66 276.474 346.56 280.908 355.107 283.676C379.437 291.556 401.416 283.153 409.738 279.173L410.013 279.75C404.136 282.558 391.481 287.571 375.981 287.571Z" fill="white"/>
<path opacity="0.5" d="M340.445 303.212C337.02 295.885 328.874 282.462 312.781 274.884C305.951 271.682 298.543 269.902 291.004 269.65L290.987 269.011C303.837 267.757 313.193 264.121 318.792 258.204C319.295 257.671 319.946 256.934 320.933 255.818C322.258 254.317 324.262 252.048 327.34 248.662C330.419 245.277 333.521 241.927 336.578 238.687L337.044 239.125C333.988 242.363 330.882 245.717 327.812 249.092C324.742 252.468 322.735 254.74 321.416 256.24C320.426 257.36 319.772 258.102 319.26 258.639C314.071 264.124 305.754 267.682 294.51 269.238C300.939 269.842 307.214 271.556 313.059 274.302C329.336 281.965 337.573 295.531 341.033 302.935L340.445 303.212Z" fill="white"/>
</g>
<path d="M38.0598 294.452L206.913 304.741L394.388 293.937L209.485 352.56L38.0598 294.452Z" fill="url(#paint0_linear_8_1721)"/>
<path d="M174.746 471.483L37.3482 417.901C23.8424 414.267 13.3476 400.89 13.3476 387.907V387.763C13.3476 374.787 23.8424 366.08 37.3482 368.462L184.477 409.489L174.746 471.483Z" fill="url(#paint1_linear_8_1721)"/>
<path d="M394.617 426.89L181.208 468.578C167.635 470.094 156.477 460.629 156.477 447.416V438.461C156.477 425.247 167.635 413.649 181.208 412.568L394.617 377.831C385.029 395.676 382.82 412.375 394.617 426.89Z" fill="url(#paint2_linear_8_1721)"/>
<path d="M396.504 429.293L183.026 471.359C165.323 473.367 150.653 460.965 150.653 443.682V443.491C150.653 426.205 165.323 411 183.026 409.618L396.504 375.223C397.807 375.123 398.863 376.208 398.863 377.649C398.863 379.09 397.807 380.345 396.504 380.451L183.026 415.587C168.783 416.747 157.025 428.999 157.025 442.882V443.071C157.025 456.954 168.783 466.956 183.026 465.391L396.504 424.066C397.807 423.922 398.863 424.974 398.863 426.416C398.863 427.859 397.807 429.144 396.504 429.293Z" fill="#FC9D8A"/>
<path d="M180.377 409.634L37.3482 368.462C23.8424 366.08 13.3476 348.375 13.3476 328.89V328.676C13.3476 309.189 23.8424 293.726 37.3482 294.228L188.877 317.223L180.377 409.634Z" fill="url(#paint3_linear_8_1721)"/>
<path d="M394.617 371.441L193.353 404.359C173.179 405.879 156.477 391.057 156.477 371.218V357.76C156.477 337.921 173.179 321.384 193.353 320.834L394.617 297.768C384.997 324.518 382.848 349.56 394.617 371.441Z" fill="url(#paint4_linear_8_1721)"/>
<path d="M396.504 375.223L183.026 409.618C165.323 411 150.653 391.027 150.653 365.074V364.788C150.653 338.833 165.323 317.354 183.026 316.914L396.504 294.038C397.807 294.006 398.863 295.734 398.863 297.898C398.863 300.062 397.807 301.848 396.504 301.896L183.026 325.882C168.783 326.309 157.025 343.622 157.025 364.468V364.751C157.025 385.597 168.783 401.699 183.026 400.662L396.504 367.381C397.807 367.287 398.863 368.964 398.863 371.128C398.863 373.292 397.807 375.123 396.504 375.223Z" fill="url(#paint5_linear_8_1721)"/>
<g style="mix-blend-mode:soft-light" opacity="0.5">
<path d="M137.041 390.106L103.883 381.13C96.9077 362.092 97.4322 344.602 103.883 323.699L137.041 329.571C130.923 351.574 131.851 371.497 137.041 390.106Z" fill="white"/>
</g>
<path d="M400.514 283.099L35.8195 279.581V289.989C35.8195 292.813 37.4106 295.215 39.5646 295.643L142.685 316.139C143.902 316.381 145.149 316.446 146.385 316.331L396.552 292.963C398.791 292.754 400.514 290.346 400.514 287.443V283.099Z" fill="url(#paint6_linear_8_1721)"/>
<path d="M283.113 266.227L39.8268 285.267C35.4725 285.607 31.9337 281.987 31.9337 277.179V84.5755C31.9337 79.7671 35.4725 75.8701 39.8268 75.8701H283.113C286.7 75.8701 289.599 79.3881 289.599 83.7392V257.851C289.594 262.195 286.7 265.945 283.113 266.227Z" fill="url(#paint7_linear_8_1721)"/>
<path d="M286.992 266.227L43.7062 285.267C39.3519 285.607 35.8131 281.987 35.8131 277.179V84.5755C35.8131 79.7671 39.3519 75.8701 43.7062 75.8701H286.992C290.577 75.8701 293.478 79.3881 293.478 83.7392V257.851C293.478 262.195 290.577 265.945 286.992 266.227Z" fill="url(#paint8_linear_8_1721)"/>
<path d="M279.413 253.952L52.8225 270.49C49.279 270.749 46.4006 267.771 46.4006 263.852V95.227C46.4006 91.3029 49.279 88.1079 52.8225 88.0919L279.413 87.0525C282.371 87.0397 284.765 89.9309 284.765 93.5016V247.089C284.765 250.663 282.371 253.736 279.413 253.952Z" fill="#DDF4F7"/>
<g clip-path="url(#clip1_8_1721)">
<path d="M170.509 217.479L193.69 187.333L142.892 191.337L170.509 217.479Z" fill="#FC9D8A"/>
<path d="M170.509 217.479L193.69 187.333L168.291 189.335L170.509 217.479Z" fill="#EF9482"/>
<path d="M170.509 217.479L182.1 202.406L156.7 204.408L170.509 217.479Z" fill="#010648"/>
<path d="M192.274 180.365L143.785 184.187L144.339 191.223L192.829 187.401L192.274 180.365Z" fill="#FAB680"/>
<path d="M192.274 180.365L169.184 182.185L169.739 189.221L192.829 187.401L192.274 180.365Z" fill="#D09668"/>
<path d="M187.499 138.264L178.263 138.992C175.712 139.193 173.81 141.456 174.014 144.047L177.342 186.262C177.546 188.852 179.779 190.789 182.33 190.588L191.566 189.86C194.116 189.659 196.018 187.396 195.814 184.806L192.486 142.591C192.282 140 190.049 138.063 187.499 138.264Z" fill="#6165D7"/>
<path d="M169.951 151.447L160.715 152.175C158.164 152.376 156.262 154.639 156.467 157.229L158.87 187.718C159.074 190.308 161.307 192.246 163.858 192.044L173.094 191.316C175.644 191.115 177.546 188.852 177.342 186.262L174.939 155.773C174.735 153.183 172.501 151.246 169.951 151.447Z" fill="#010961"/>
<path d="M138.919 170.412C138.714 167.821 140.616 165.558 143.167 165.357L152.403 164.629C154.954 164.428 157.187 166.365 157.391 168.956L158.87 187.718C159.074 190.309 157.172 192.571 154.622 192.773L145.385 193.501C142.835 193.702 140.602 191.765 140.398 189.174L138.919 170.412Z" fill="url(#paint9_linear_8_1721)"/>
<path fill-rule="evenodd" clip-rule="evenodd" d="M135.654 139.991L192.793 135.487C188.039 124.907 176.1 117.924 162.745 118.977C149.389 120.03 138.691 128.797 135.654 139.991Z" fill="url(#paint10_linear_8_1721)"/>
<path d="M135.654 139.991L134.984 139.802L134.721 140.773L135.709 140.695L135.654 139.991ZM192.793 135.487L192.849 136.191L193.837 136.113L193.425 135.195L192.793 135.487ZM135.709 140.695L192.849 136.191L192.738 134.783L135.598 139.288L135.709 140.695ZM162.8 119.681C175.898 118.648 187.542 125.499 192.161 135.779L193.425 135.195C188.536 124.315 176.302 117.2 162.689 118.273L162.8 119.681ZM136.324 140.18C139.275 129.304 149.702 120.713 162.8 119.681L162.689 118.273C149.076 119.346 138.108 128.29 134.984 139.802L136.324 140.18Z" fill="url(#paint11_linear_8_1721)"/>
<path d="M112.847 242.71L117.913 242.311L116.843 250.439C115.299 251.126 113.779 251.529 112.285 251.647C110.343 251.8 108.788 251.379 107.621 250.385C106.461 249.383 105.805 247.911 105.652 245.97C105.493 243.954 105.72 242.092 106.333 240.384C106.953 238.668 107.889 237.301 109.142 236.282C110.393 235.256 111.825 234.679 113.437 234.552C114.297 234.484 115.109 234.495 115.872 234.586C116.641 234.676 117.422 234.856 118.213 235.126L117.619 236.892C117.033 236.682 116.404 236.509 115.735 236.373C115.072 236.237 114.351 236.199 113.571 236.261C112.328 236.359 111.225 236.83 110.262 237.676C109.306 238.513 108.599 239.636 108.14 241.045C107.681 242.454 107.518 244.001 107.651 245.688C107.763 247.112 108.227 248.203 109.042 248.961C109.864 249.718 110.952 250.044 112.306 249.937C113.439 249.848 114.384 249.626 115.141 249.272L115.807 244.196L112.617 244.448L112.847 242.71ZM127.808 250.197L128.829 242.287C128.905 241.572 128.932 241.061 128.908 240.754C128.82 239.645 128.235 239.132 127.154 239.218C126.499 239.269 125.876 239.541 125.286 240.033C124.702 240.523 124.205 241.211 123.794 242.096C123.389 242.973 123.112 244.017 122.963 245.227L122.267 250.634L120.413 250.78L122.676 232.998L124.531 232.851C124.447 233.476 124.365 234.083 124.285 234.67C124.213 235.256 124.134 235.854 124.049 236.464C123.971 237.066 123.88 237.7 123.777 238.364C123.681 239.028 123.564 239.75 123.426 240.53L123.547 240.52C124.166 239.544 124.795 238.831 125.433 238.38C126.079 237.93 126.769 237.675 127.505 237.617C128.469 237.541 129.234 237.753 129.799 238.251C130.371 238.749 130.696 239.493 130.774 240.482C130.811 240.947 130.775 241.576 130.667 242.369C130.494 243.838 130.159 246.399 129.662 250.051L127.808 250.197ZM138.921 236.763C140.32 236.653 141.457 236.989 142.333 237.772C143.209 238.548 143.705 239.674 143.821 241.151C143.932 242.56 143.772 243.911 143.341 245.205C142.91 246.499 142.269 247.522 141.417 248.276C140.566 249.029 139.57 249.451 138.429 249.541C137.017 249.652 135.876 249.316 135.007 248.532C134.138 247.748 133.646 246.622 133.53 245.153C133.418 243.728 133.581 242.369 134.019 241.075C134.457 239.773 135.106 238.753 135.966 238.014C136.825 237.267 137.81 236.85 138.921 236.763ZM141.88 241.044C141.812 240.182 141.525 239.503 141.02 239.007C140.521 238.503 139.878 238.283 139.091 238.345C138.289 238.408 137.589 238.742 136.993 239.347C136.404 239.952 135.972 240.763 135.696 241.78C135.428 242.789 135.341 243.897 135.436 245.104C135.514 246.086 135.806 246.829 136.312 247.332C136.825 247.827 137.519 248.04 138.395 247.971C139.16 247.91 139.826 247.583 140.394 246.987C140.961 246.392 141.375 245.579 141.634 244.548C141.9 243.508 141.982 242.34 141.88 241.044ZM153.338 244.666C153.43 245.835 153.094 246.782 152.329 247.506C151.571 248.222 150.453 248.638 148.974 248.755C147.73 248.853 146.588 248.683 145.546 248.244L145.406 246.468C145.946 246.742 146.521 246.942 147.13 247.067C147.74 247.193 148.299 247.235 148.806 247.195C149.734 247.122 150.418 246.88 150.859 246.468C151.301 246.056 151.498 245.558 151.452 244.973C151.418 244.546 151.261 244.196 150.981 243.924C150.7 243.652 150.113 243.295 149.219 242.852C148.219 242.381 147.5 241.898 147.062 241.405C146.623 240.911 146.375 240.305 146.318 239.585C146.237 238.551 146.543 237.689 147.236 237.001C147.93 236.305 148.883 235.91 150.097 235.814C151.355 235.715 152.591 235.896 153.805 236.359L153.33 237.946L152.69 237.714C151.922 237.45 151.099 237.353 150.224 237.422C149.539 237.476 149.015 237.683 148.651 238.044C148.287 238.397 148.125 238.832 148.166 239.349C148.199 239.769 148.356 240.118 148.637 240.398C148.925 240.677 149.497 241.02 150.351 241.428C151.174 241.816 151.767 242.157 152.131 242.453C152.502 242.748 152.787 243.076 152.986 243.438C153.184 243.792 153.301 244.201 153.338 244.666ZM159.448 246.379C159.853 246.347 160.375 246.208 161.015 245.961L161.129 247.412C160.887 247.537 160.585 247.651 160.223 247.755C159.861 247.859 159.569 247.919 159.349 247.937C158.429 248.009 157.705 247.844 157.177 247.441C156.656 247.029 156.361 246.381 156.291 245.497C156.252 245.002 156.274 244.434 156.357 243.794L157.225 236.915L155.327 237.065L155.417 236.232L157.389 235.194L158.567 232.522L159.649 232.436L159.265 235.318L162.289 235.079L162.115 236.53L159.101 236.767L158.213 243.671C158.132 244.333 158.105 244.833 158.131 245.171C158.164 245.59 158.297 245.904 158.528 246.112C158.758 246.32 159.065 246.409 159.448 246.379Z" fill="#010648"/>
<path d="M185.595 245.642L181.709 245.948L178.849 237.485C178.744 237.184 178.555 236.561 178.281 235.617C178.014 234.665 177.853 234.026 177.797 233.698C177.785 234.106 177.727 234.767 177.621 235.681C177.516 236.587 177.43 237.234 177.364 237.624L175.875 246.408L172 246.713L166.598 230.599L169.955 230.334L172.722 239.144C173.211 240.772 173.585 242.187 173.842 243.389C173.853 242.958 173.9 242.291 173.983 241.387C174.074 240.474 174.17 239.765 174.27 239.26L175.889 229.866L179.115 229.612L182.186 238.636C182.321 239.04 182.499 239.659 182.72 240.494C182.941 241.329 183.116 242.047 183.244 242.648C183.271 242.057 183.331 241.321 183.425 240.439C183.517 239.549 183.607 238.829 183.697 238.279L185.037 229.145L188.395 228.88L185.595 245.642ZM197.313 231.832C197.768 231.796 198.149 231.8 198.454 231.844L198.455 235.079C198.178 235.026 197.844 235.014 197.455 235.045C196.384 235.129 195.57 235.476 195.012 236.086C194.462 236.695 194.226 237.506 194.306 238.518L194.811 244.915L191.453 245.18L190.462 232.609L193.005 232.409L193.667 234.484L193.832 234.471C194.158 233.736 194.627 233.13 195.239 232.651C195.859 232.165 196.549 231.892 197.313 231.832ZM200.301 228.564C200.213 227.447 200.778 226.841 201.996 226.745C203.214 226.649 203.868 227.159 203.956 228.276C203.998 228.808 203.877 229.237 203.592 229.561C203.314 229.877 202.871 230.059 202.261 230.107C201.043 230.203 200.39 229.689 200.301 228.564ZM205.049 244.108L201.691 244.373L200.701 231.802L204.058 231.538L205.049 244.108ZM213.57 240.914C214.158 240.867 214.852 240.68 215.653 240.353L215.854 242.906C215.048 243.354 214.036 243.626 212.817 243.722C211.474 243.828 210.467 243.56 209.796 242.919C209.132 242.27 208.745 241.252 208.636 239.866L208.158 233.805L206.55 233.932L206.436 232.482L208.195 231.189L208.955 228.459L211.101 228.29L211.312 230.966L214.759 230.694L214.962 233.269L211.515 233.541L211.993 239.601C212.032 240.088 212.192 240.438 212.475 240.649C212.765 240.86 213.13 240.948 213.57 240.914ZM222.66 232.289C221.949 232.345 221.409 232.621 221.042 233.118C220.675 233.607 220.495 234.277 220.503 235.129L225.215 234.757C225.133 233.912 224.865 233.276 224.411 232.852C223.956 232.42 223.372 232.233 222.66 232.289ZM223.969 242.843C221.987 242.999 220.395 242.563 219.191 241.534C217.987 240.505 217.305 238.967 217.144 236.921C216.978 234.815 217.363 233.147 218.301 231.92C219.244 230.684 220.626 229.994 222.446 229.851C224.186 229.713 225.58 230.113 226.628 231.048C227.677 231.984 228.272 233.344 228.412 235.128L228.544 236.792L220.606 237.417C220.72 238.389 221.062 239.127 221.634 239.633C222.205 240.139 222.968 240.354 223.922 240.278C224.663 240.22 225.358 240.086 226.006 239.877C226.654 239.667 227.324 239.362 228.016 238.96L228.225 241.614C227.662 241.96 227.052 242.23 226.395 242.425C225.739 242.628 224.93 242.767 223.969 242.843ZM237.561 228.659C238.017 228.623 238.397 228.627 238.704 228.671L238.704 231.907C238.426 231.853 238.093 231.842 237.704 231.872C236.633 231.957 235.818 232.304 235.261 232.913C234.71 233.522 234.475 234.333 234.555 235.345L235.059 241.742L231.701 242.007L230.711 229.437L233.253 229.236L233.916 231.311L234.081 231.298C234.407 230.563 234.876 229.957 235.489 229.479C236.107 228.992 236.799 228.719 237.561 228.659Z" fill="url(#paint12_linear_8_1721)"/>
</g>
<path d="M173.94 81.1391C173.94 82.9285 172.688 84.3836 171.142 84.3884C169.596 84.3932 168.337 82.9493 168.337 81.1503C168.337 79.3513 169.594 77.901 171.142 77.8994C172.69 77.8978 173.94 79.3481 173.94 81.1391Z" fill="white"/>
<g style="mix-blend-mode:soft-light" opacity="0.48">
<path d="M228.376 213.402C209.621 202.227 194.874 216.386 180.642 202.415C172.007 193.94 176.249 187.628 165.631 174.97C153.873 160.951 146.217 165.663 134.4 153.045C119.456 137.091 126.93 124.679 114.059 113.228C98.4444 99.3319 81.5981 112.193 66.741 98.8666C60.3287 93.1195 56.8123 84.7626 54.9749 75.8749H40.4233C37.8743 75.8749 35.8051 78.1632 35.8051 80.992V280.639C35.8051 283.46 37.8743 285.585 40.4233 285.385L288.379 265.886C289.596 265.792 290.675 265.005 291.367 263.863C273.216 263.131 262.066 256.392 254.939 249.427C240.995 235.799 243.412 222.362 228.376 213.402Z" fill="white"/>
</g>
<path d="M280.921 265.363L35.8195 285.404L142.691 306.643C143.909 306.886 145.155 306.951 146.391 306.835L400.521 283.099L284.827 265.499C283.535 265.302 282.224 265.257 280.921 265.363Z" fill="url(#paint13_linear_8_1721)"/>
<path style="mix-blend-mode:multiply" opacity="0.3" d="M71.5782 285.908L275.637 268.975L338.793 278.504L136.49 296.606L71.5782 285.908Z" fill="url(#paint14_linear_8_1721)"/>
<path d="M360.218 369.476C354.781 374.243 346.59 373.856 341.54 368.677C335.243 362.232 323.431 357.859 302.264 371.256C264.455 395.185 306.244 462.867 330.123 464.844C354.002 466.82 361.962 460.877 373.901 464.844C385.84 468.811 402.755 442.26 409.72 418.224C416.686 394.188 398.776 365.656 380.867 362.511C372.051 360.971 365.407 364.924 360.218 369.476Z" fill="url(#paint15_linear_8_1721)"/>
<path style="mix-blend-mode:multiply" opacity="0.3" d="M391.427 441.971L382.341 447.593C373.247 453.215 369.435 431.359 352.715 417.629C335.995 403.9 303.143 413.782 304.902 390.181C305.78 378.413 311.687 369.743 317.391 364.007C312.976 365.344 307.956 367.66 302.267 371.264C264.458 395.193 306.247 462.875 330.126 464.852C354.005 466.828 361.965 460.885 373.904 464.852C384.156 468.258 398.073 449.17 406.206 428.49L391.427 441.971Z" fill="url(#paint16_linear_8_1721)"/>
<path d="M354.074 373.517C354.074 373.517 371.165 345.679 342.314 337.72C313.463 329.761 301.192 319.083 301.192 319.083C301.192 319.083 308.487 342.284 313.795 359.733C319.102 377.182 344.602 381.125 354.074 373.517Z" fill="url(#paint17_linear_8_1721)"/>
<path d="M361.946 341.068C356.973 341.643 358.962 333.861 354.192 339.054C350.035 343.574 349.309 368.467 349.189 374.846C349.182 375.245 349.33 375.631 349.604 375.922C349.877 376.213 350.253 376.386 350.652 376.403C350.859 376.413 351.066 376.38 351.26 376.307C351.454 376.235 351.631 376.123 351.78 375.98C351.93 375.836 352.049 375.664 352.13 375.473C352.21 375.282 352.252 375.077 352.251 374.87C352.188 361.155 366.983 345.675 368.579 342.53C370.237 339.26 366.921 340.494 361.946 341.068Z" fill="#010648"/>
<path style="mix-blend-mode:multiply" opacity="0.3" d="M341.724 357.326C339.466 344.822 329.785 347.126 310.222 330.214C307.403 327.795 304.742 325.199 302.254 322.441C304.465 329.496 309.722 346.315 313.803 359.733C318.533 375.292 339.327 380.113 350.487 375.58C346.792 372.318 343.418 366.743 341.724 357.326Z" fill="url(#paint18_linear_8_1721)"/>
<path d="M188.063 45.8937L176.734 75.611C176.734 75.611 187.536 123.216 240.365 138.429C293.194 153.643 314.394 127.701 314.394 127.701L327.786 84.1278L188.063 45.8937Z" fill="url(#paint19_linear_8_1721)"/>
<path d="M274.22 0.663639C272.729 -0.035366 271.039 -0.188726 269.446 0.230287L163.134 27.8576C157.658 29.2808 155.984 36.232 160.212 39.9899C180.84 58.3154 227.693 100.976 245.283 125.571C246.199 126.849 247.515 127.785 249.023 128.231C250.532 128.676 252.145 128.605 253.608 128.029L361.454 85.7557C366.331 83.8368 367.513 77.4772 363.641 73.9464C343.221 55.3283 291.249 8.69264 274.22 0.663639Z" fill="url(#paint20_linear_8_1721)"/>
<path d="M266.132 54.8214C266.132 54.8214 321.843 91.45 325.986 99.6565C330.129 107.863 320.776 144.636 320.776 144.636C329.063 176.066 329.731 210.038 314.407 227.513C314.407 227.513 296.699 186.055 305.292 168.884C313.886 151.713 317.193 144.671 317.193 144.671C317.193 144.671 325.161 105.431 322.983 99.7588C322.981 99.7588 261.305 56.9818 266.132 54.8214Z" fill="#6165D7"/>
<path d="M177.247 37.8695L230.348 92.2991L243.62 105.907L246.938 109.309L248.595 111C249.903 112.31 251.548 113.234 253.348 113.668C255.147 114.103 257.032 114.032 258.794 113.463L295.071 102.081C295.215 102.049 295.365 102.072 295.493 102.145C295.621 102.218 295.716 102.337 295.761 102.477C295.806 102.617 295.797 102.769 295.735 102.903C295.674 103.037 295.565 103.143 295.429 103.2L259.247 114.873C257.221 115.541 255.05 115.638 252.973 115.151C250.895 114.665 248.993 113.615 247.474 112.117L245.792 110.426L242.445 107.052L229.058 93.5544L175.515 39.5725C175.297 39.342 175.178 39.0352 175.183 38.7179C175.188 38.4005 175.317 38.0977 175.542 37.8742C175.768 37.6507 176.072 37.5243 176.389 37.5219C176.706 37.5195 177.012 37.6414 177.241 37.8615L177.247 37.8695Z" fill="#91B3FA"/>
<path d="M316.364 163.621C316.238 163.74 316.044 163.986 315.875 164.165L315.378 164.805C315.058 165.238 314.759 165.716 314.445 166.17L313.617 167.626C313.356 168.123 313.137 168.639 312.881 169.145C312.635 169.653 312.416 170.175 312.226 170.707C312.026 171.236 311.805 171.759 311.621 172.296L311.129 173.931C310.949 174.472 310.798 175.022 310.676 175.579L310.307 177.254C310.172 177.81 310.065 178.372 309.987 178.939C309.827 180.076 309.653 181.21 309.507 182.35L309.272 185.798C309.255 186.085 309.226 186.372 309.22 186.661V187.526V189.26C309.154 191.572 309.424 193.878 309.563 196.192C309.591 196.77 309.672 197.345 309.755 197.92L309.99 199.644C310.15 200.794 310.294 201.947 310.47 203.095C310.937 205.37 311.356 207.66 311.863 209.931L313.622 216.695V216.717C313.649 216.825 313.633 216.938 313.578 217.034C313.522 217.129 313.431 217.199 313.325 217.229C313.218 217.258 313.104 217.244 313.008 217.19C312.911 217.137 312.839 217.047 312.808 216.941L310.862 210.185C310.286 207.91 309.797 205.61 309.263 203.32C309.045 202.166 308.871 201.002 308.673 199.842L308.383 198.099C308.284 197.519 308.185 196.938 308.14 196.35C307.931 194.002 307.592 191.661 307.59 189.293L307.534 187.52L307.507 186.632C307.507 186.336 307.528 186.041 307.536 185.745L307.678 182.19C307.792 181.007 307.94 179.827 308.071 178.643C308.121 178.048 308.257 177.466 308.364 176.884L308.7 175.125C308.813 174.537 308.955 173.956 309.127 173.382L309.597 171.646C309.776 171.072 309.994 170.509 310.19 169.939C310.378 169.366 310.597 168.803 310.844 168.252C311.094 167.701 311.324 167.133 311.591 166.594L312.453 164.977C312.787 164.459 313.093 163.928 313.454 163.418C313.823 162.878 314.231 162.365 314.676 161.885C314.902 161.674 315.201 161.557 315.51 161.558C315.82 161.56 316.117 161.679 316.342 161.892C316.566 162.106 316.701 162.397 316.718 162.706C316.735 163.015 316.634 163.319 316.435 163.556C316.419 163.572 316.403 163.589 316.385 163.605L316.364 163.621Z" fill="#91B3FA"/>
<path d="M317.837 178.16C317.849 178.272 317.849 178.384 317.837 178.496L317.821 179.107L317.795 180.337L317.765 182.817L317.73 187.787L317.703 197.738V217.642C317.705 217.817 317.639 217.986 317.517 218.112C317.395 218.237 317.228 218.31 317.053 218.312C316.878 218.315 316.708 218.248 316.583 218.126C316.457 218.004 316.385 217.838 316.382 217.662L315.819 197.76L315.57 187.808L315.466 182.825L315.427 180.329L315.418 179.07V178.431C315.418 178.154 315.45 177.823 315.485 177.524C315.516 177.242 315.651 176.982 315.863 176.794C316.075 176.605 316.349 176.502 316.633 176.504C316.917 176.506 317.189 176.612 317.399 176.803C317.609 176.994 317.74 177.256 317.768 177.538L317.837 178.16Z" fill="#91B3FA"/>
</g>
<defs>
<linearGradient id="paint0_linear_8_1721" x1="38.0598" y1="323.248" x2="394.388" y2="323.248" gradientUnits="userSpaceOnUse">
<stop stop-color="#AA80F9"/>
<stop offset="1" stop-color="#6165D7"/>
</linearGradient>
<linearGradient id="paint1_linear_8_1721" x1="83.2035" y1="451.976" x2="107.044" y2="397.75" gradientUnits="userSpaceOnUse">
<stop stop-color="#FC9D8A"/>
<stop offset="1" stop-color="#F36F56"/>
</linearGradient>
<linearGradient id="paint2_linear_8_1721" x1="156.477" y1="423.281" x2="394.617" y2="423.281" gradientUnits="userSpaceOnUse">
<stop offset="0.49" stop-color="#EAEDF3"/>
<stop offset="1" stop-color="white"/>
</linearGradient>
<linearGradient id="paint3_linear_8_1721" x1="118.839" y1="291.412" x2="75.3665" y2="437.847" gradientUnits="userSpaceOnUse">
<stop stop-color="#6165D7"/>
<stop offset="1" stop-color="#6165D7"/>
</linearGradient>
<linearGradient id="paint4_linear_8_1721" x1="156.477" y1="351.117" x2="394.617" y2="351.117" gradientUnits="userSpaceOnUse">
<stop offset="0.49" stop-color="#EAEDF3"/>
<stop offset="1" stop-color="white"/>
</linearGradient>
<linearGradient id="paint5_linear_8_1721" x1="150.651" y1="351.862" x2="398.863" y2="351.862" gradientUnits="userSpaceOnUse">
<stop stop-color="#30ABBA"/>
<stop offset="1" stop-color="#6165D7"/>
</linearGradient>
<linearGradient id="paint6_linear_8_1721" x1="189.773" y1="297.449" x2="164.125" y2="308.22" gradientUnits="userSpaceOnUse">
<stop stop-color="#40447E"/>
<stop offset="1" stop-color="#3C3B6B"/>
</linearGradient>
<linearGradient id="paint7_linear_8_1721" x1="155.277" y1="173.497" x2="126.79" y2="185.462" gradientUnits="userSpaceOnUse">
<stop stop-color="#40447E"/>
<stop offset="1" stop-color="#3C3B6B"/>
</linearGradient>
<linearGradient id="paint8_linear_8_1721" x1="35.8131" y1="180.58" x2="293.478" y2="180.58" gradientUnits="userSpaceOnUse">
<stop stop-color="#40447E"/>
<stop offset="1" stop-color="#3C3B6B"/>
</linearGradient>
<linearGradient id="paint9_linear_8_1721" x1="143.809" y1="193.576" x2="163.765" y2="179.307" gradientUnits="userSpaceOnUse">
<stop stop-color="#30ABBA"/>
<stop offset="1" stop-color="#6165D7"/>
</linearGradient>
<linearGradient id="paint10_linear_8_1721" x1="149.341" y1="138.861" x2="155.742" y2="110.542" gradientUnits="userSpaceOnUse">
<stop stop-color="#30ABBA"/>
<stop offset="1" stop-color="#6165D7"/>
</linearGradient>
<linearGradient id="paint11_linear_8_1721" x1="149.947" y1="131.912" x2="150.185" y2="123.346" gradientUnits="userSpaceOnUse">
<stop stop-color="#30ABBA"/>
<stop offset="1" stop-color="#6165D7"/>
</linearGradient>
<linearGradient id="paint12_linear_8_1721" x1="179.749" y1="246.298" x2="185.041" y2="217.872" gradientUnits="userSpaceOnUse">
<stop stop-color="#30ABBA"/>
<stop offset="1" stop-color="#6165D7"/>
</linearGradient>
<linearGradient id="paint13_linear_8_1721" x1="35.8131" y1="286.1" x2="400.514" y2="286.1" gradientUnits="userSpaceOnUse">
<stop stop-color="#40447E"/>
<stop offset="1" stop-color="#3C3B6B"/>
</linearGradient>
<linearGradient id="paint14_linear_8_1721" x1="71.5782" y1="282.79" x2="338.793" y2="282.79" gradientUnits="userSpaceOnUse">
<stop stop-color="#40447E"/>
<stop offset="1" stop-color="#3C3B6B"/>
</linearGradient>
<linearGradient id="paint15_linear_8_1721" x1="368.381" y1="381.976" x2="301.718" y2="472.52" gradientUnits="userSpaceOnUse">
<stop stop-color="#FC9D8A"/>
<stop offset="1" stop-color="#FB6FBB"/>
</linearGradient>
<linearGradient id="paint16_linear_8_1721" x1="368.381" y1="381.976" x2="301.718" y2="472.52" gradientUnits="userSpaceOnUse">
<stop stop-color="#FF9085"/>
<stop offset="1" stop-color="#FB6FBB"/>
</linearGradient>
<linearGradient id="paint17_linear_8_1721" x1="324.891" y1="311.717" x2="342.797" y2="396.945" gradientUnits="userSpaceOnUse">
<stop stop-color="#A1F094"/>
<stop offset="1" stop-color="#4FC3BA"/>
</linearGradient>
<linearGradient id="paint18_linear_8_1721" x1="318.796" y1="312.998" x2="336.703" y2="398.225" gradientUnits="userSpaceOnUse">
<stop stop-color="#38E8C7"/>
<stop offset="1" stop-color="#425F63"/>
</linearGradient>
<linearGradient id="paint19_linear_8_1721" x1="211.538" y1="98.0324" x2="218.455" y2="63.7525" gradientUnits="userSpaceOnUse">
<stop stop-color="#30ABBA"/>
<stop offset="1" stop-color="#6165D7"/>
</linearGradient>
<linearGradient id="paint20_linear_8_1721" x1="181" y1="36.5" x2="322.03" y2="37.4103" gradientUnits="userSpaceOnUse">
<stop stop-color="#30ABBA"/>
<stop offset="1" stop-color="#6165D7"/>
</linearGradient>
<clipPath id="clip0_8_1721">
<rect width="480" height="480" fill="white"/>
</clipPath>
<clipPath id="clip1_8_1721">
<rect width="134" height="129" fill="white" transform="translate(96 123.53) rotate(-4.50722)"/>
</clipPath>
</defs>
</svg>
