<svg width="480" height="480" viewBox="0 0 480 480" fill="none" xmlns="http://www.w3.org/2000/svg">
<g clip-path="url(#clip0_10_2)">
<path d="M267.785 1.21134C144.453 -12.4704 20.3201 93.0349 28.5206 152.076C33.2257 185.953 81.3112 203.184 74.5329 230.297C67.6888 257.676 16.0089 250.719 3.21381 276.31C-19.092 320.92 77.3741 463.205 210.269 478.591C321.773 491.5 458.726 415.049 480.593 278.61C503.596 135.092 384.996 14.2125 267.785 1.21134Z" fill="#E6F1FC"/>
<path d="M297.206 45.1933L301.59 43.7315C303.782 43.0014 305.974 45.1933 307.436 47.3851C308.897 49.577 306.706 50.307 305.244 49.577C303.782 48.8469 302.322 46.6534 300.86 48.1152C299.398 49.577 295.745 48.1218 297.206 45.1933Z" fill="url(#paint0_linear_10_2)"/>
<path d="M136.668 245.975C136.668 245.975 133.746 247.437 133.746 248.897C133.746 250.357 137.399 254.006 138.854 255.472C140.31 256.939 141.778 256.204 142.508 255.472C143.238 254.741 142.508 254.742 141.046 253.28C139.584 251.819 136.668 245.975 136.668 245.975Z" fill="url(#paint1_linear_10_2)"/>
<path d="M136.667 238.668C136.667 238.668 135.937 245.245 135.207 247.437C135.207 247.437 135.937 248.167 137.399 248.167C137.399 248.167 139.591 243.783 140.321 241.591L136.667 238.668Z" fill="url(#paint2_linear_10_2)"/>
<path d="M173.206 261.318C173.206 261.318 171.014 262.78 173.206 264.971C175.397 267.163 178.314 268.625 180.511 268.625C181.345 268.604 182.168 268.437 182.944 268.131C183.164 268.048 183.357 267.906 183.501 267.72C183.645 267.535 183.736 267.313 183.762 267.079C183.789 266.845 183.75 266.609 183.651 266.396C183.551 266.183 183.395 266.001 183.199 265.871C181.866 264.999 180.48 264.21 179.049 263.508C174.661 261.318 173.206 261.318 173.206 261.318Z" fill="url(#paint3_linear_10_2)"/>
<path d="M168.817 253.28C168.817 253.28 172.171 260.665 172.672 262.05C173.201 263.51 174.75 262.783 175.437 262.05C175.437 262.05 173.931 254.742 173.201 252.55L168.817 253.28Z" fill="url(#paint4_linear_10_2)"/>
<path d="M173.931 138.571C186.388 146.778 178.128 176.836 175.392 186.793C171.895 199.519 163.428 221.813 140.321 244.513L135.938 243.051C134.626 236.806 134.379 230.384 135.207 224.056C135.42 222.441 136.178 217.237 138.859 210.174C143.265 198.577 147.305 196.591 149.82 190.447C156.765 173.472 137.605 160.081 143.975 147.338C148.747 137.788 165.625 133.093 173.931 138.571Z" fill="url(#paint5_linear_10_2)"/>
<path d="M128.63 126.15C129.512 144.443 133.286 158.339 136.667 167.797C143.259 186.221 149.088 189.836 152.012 207.252C153.644 216.975 152.887 222.173 156.396 234.279C158.556 241.743 162.607 255.209 170.277 256.197C172.037 256.425 173.583 255.944 174.661 255.466C172.969 242.721 171.507 229.57 170.277 216.012C167.411 183.975 166.383 153.678 166.623 125.413L128.63 126.15Z" fill="url(#paint6_linear_10_2)"/>
<path d="M208.27 31.8972C213.532 31.1177 221.022 31.2116 229.459 33.359C240.375 36.1375 245.678 45.2856 255.762 50.1686C263.767 54.0414 276.88 55.1687 298.869 43.5931C299.113 45.541 299.357 47.4895 299.599 49.4386C286.415 66.9667 275.168 70.9005 267.452 71.357C254.508 72.125 248.51 63.2917 230.92 64.7815C218.844 65.8049 214.338 70.5907 209.732 67.7034C205.617 65.121 202.468 57.0771 208.27 31.8972Z" fill="#30ABBA"/>
<path d="M100.136 14.3624C92.6938 18.7676 93.002 21.35 87.7152 23.1298C77.9639 26.4143 72.6936 19.0527 64.3349 21.6697C56.5464 24.1071 50.724 33.7529 50.4521 42.1264C49.9956 56.235 65.3303 65.7901 78.9478 74.2757C88.1354 79.9992 94.2479 83.6875 101.598 82.3114C111.585 80.4442 112.056 71.4345 122.055 69.1603C133.615 66.5235 138.553 77.3014 150.55 75.7358C159.715 74.541 160.206 67.8155 174.661 56.0092C194.794 39.5522 207.484 41.482 210.462 30.4371C212.7 22.1591 208.095 11.7718 200.964 7.78688C194.602 4.23213 187.424 6.44211 178.314 9.24866C160.331 14.786 159.954 21.734 150.55 21.6697C137.19 21.5774 134.797 7.52815 119.863 7.78688C110.983 7.9418 102.312 13.0753 100.136 14.3624Z" fill="url(#paint7_linear_10_2)"/>
<path d="M163.701 45.78C170.349 40.2641 176.681 37.7592 180.511 36.2825C184.796 34.9477 205.915 28.5633 217.042 32.6289C220.075 33.7364 221.162 35.18 221.426 35.5508C224.183 39.4187 221.19 44.1946 220.696 53.0873C220.376 58.8388 221.476 59.587 221.426 64.0465C221.326 73.1929 216.602 78.7269 211.929 86.6951C206.401 96.1167 195.267 115.68 196.586 136.379C197.003 142.942 198.399 146.481 195.854 149.53C191.68 154.537 183.728 150.025 171.014 153.914C161.221 156.913 162.63 160.603 154.204 162.681C144.392 165.104 130.539 163.042 122.786 154.646C117.804 149.25 118.111 144.24 113.287 142.955C107.468 141.404 102.801 147.569 98.6744 145.147C96.3985 143.808 97.3791 141.673 94.2907 136.379C90.7261 130.268 87.6987 130.174 87.7152 127.612C87.7415 122.643 99.1095 122.854 107.442 112.999C112.298 107.256 110.581 104.648 115.479 99.1161C121.643 92.1565 127.19 93.0926 134.476 88.8869C151.033 79.3301 144.458 61.7492 163.701 45.78Z" fill="url(#paint8_linear_10_2)"/>
<path d="M181.968 36.2825C181.968 36.2825 195.849 30.4371 207.54 31.8972C207.54 31.8972 209.002 42.1264 206.81 47.9719C206.81 47.9719 192.197 37.7394 181.968 36.2825Z" fill="url(#paint9_linear_10_2)"/>
<path d="M197.311 23.8615C197.311 23.8615 196.581 28.2452 194.389 30.4371C192.197 32.6289 189.28 34.0907 187.812 34.8208C186.343 35.5508 190.005 37.0126 193.657 37.0126C197.309 37.0126 205.342 34.8208 205.342 32.6306C205.342 30.4404 202.418 31.8988 200.958 31.1688C197.69 29.5356 200.958 23.8632 200.958 23.8632L197.311 23.8615Z" fill="url(#paint10_linear_10_2)"/>
<g style="mix-blend-mode:multiply" opacity="0.3">
<path d="M298.869 43.5881C294.98 45.6576 290.962 47.4742 286.839 49.0266C281.468 60.0995 276.064 63.3428 271.842 64.0432C265.558 65.0847 263.752 60.2165 248.462 58.1977C241.181 57.2369 237.999 57.8681 232.389 55.2758C227.036 52.8038 225.053 49.9791 222.89 50.8921C219.923 52.1429 221.967 58.1713 219.236 66.9651C218.47 69.4371 215.678 78.427 208.277 83.0398C202.135 86.8681 198.816 83.9396 190.742 86.6917C180.359 90.235 181.752 96.4809 172.475 101.305C161.126 107.209 155.282 99.8033 133.022 104.228C124.833 105.855 120.27 106.827 116.212 110.804C109.228 117.656 111.857 125.489 106.713 132.722C104.736 135.499 101.542 138.284 96.1299 140.247C97.0808 142.839 97.0627 144.202 98.6761 145.143C102.796 147.567 107.47 141.401 113.289 142.951C118.113 144.237 117.806 149.247 122.788 154.642C130.534 163.047 144.393 165.101 154.206 162.678C162.627 160.6 161.218 156.91 171.015 153.911C183.73 150.018 191.681 154.534 195.856 149.527C198.399 146.478 197.009 142.935 196.587 136.376C195.269 115.677 206.403 96.1134 211.93 86.6917C216.154 79.4916 220.408 74.2674 221.263 66.5861C224.416 65.6637 227.654 65.0565 230.927 64.7733C248.516 63.2901 254.515 72.1168 267.458 71.3488C275.168 70.8956 286.424 66.9618 299.608 49.4402C299.36 47.4879 299.114 45.5372 298.869 43.5881Z" fill="#6165D7"/>
</g>
<path d="M197.63 26.1819C197.63 26.1819 199.305 28.9571 202.382 28.1282C205.137 27.3866 204.143 20.3512 202.093 19.3806C201.409 19.051 200.103 19.0608 199.188 19.5256C198.545 19.8552 196.741 21.7356 197.477 24.084C196.818 23.8302 196.21 23.9554 196.032 24.2768C195.806 24.6838 196.327 25.3101 196.446 25.4518C196.755 25.8127 197.169 26.0679 197.63 26.1819Z" fill="url(#paint11_linear_10_2)"/>
<path d="M277.885 59.5639L280.669 73.8307C274.519 76.2556 268.594 79.2158 262.962 82.6772L253.45 71.7542C252.829 71.0459 252.074 70.4675 251.229 70.0525C250.383 69.6375 249.464 69.394 248.524 69.3361C247.584 69.2781 246.641 69.407 245.751 69.7151C244.861 70.0232 244.041 70.5045 243.338 71.1313L224.623 87.6229C221.626 90.2597 221.296 94.8296 223.887 97.8207L233.481 108.895C229.35 114.086 225.67 119.62 222.481 125.436L208.585 120.712C204.837 119.438 200.74 121.483 199.432 125.28L191.231 149.077C189.913 152.889 191.891 157.022 195.65 158.306L209.593 163.07C208.556 169.655 208.089 176.318 208.196 182.983L193.608 185.949C189.692 186.749 187.116 190.61 187.856 194.575L192.487 219.44C192.653 220.38 193.005 221.276 193.523 222.077C194.041 222.879 194.713 223.568 195.501 224.106C196.289 224.643 197.177 225.017 198.112 225.207C199.046 225.396 200.01 225.397 200.945 225.208L215.576 222.225C217.902 228.48 220.77 234.521 224.145 240.278L212.896 250.278C209.862 252.974 209.524 257.646 212.143 260.715L228.552 279.94C229.173 280.671 229.935 281.27 230.792 281.701C231.649 282.132 232.583 282.386 233.541 282.449C234.498 282.512 235.458 282.382 236.364 282.067C237.269 281.752 238.103 281.258 238.814 280.614L250.064 270.586C255.216 274.822 260.731 278.598 266.544 281.87L261.703 296.257C260.385 300.153 262.417 304.382 266.226 305.702L290.074 313.967C293.892 315.285 298.044 313.197 299.347 309.291L304.11 295.015C310.726 296.056 317.421 296.501 324.117 296.344L327.001 311.122C327.792 315.168 331.643 317.795 335.605 316.987L360.381 311.935C364.336 311.127 366.904 307.192 366.103 303.149L363.198 288.497C369.482 286.036 375.534 283.017 381.279 279.476L390.93 290.614C391.556 291.348 392.323 291.949 393.185 292.381C394.048 292.814 394.988 293.069 395.95 293.132C396.913 293.196 397.878 293.066 398.789 292.75C399.701 292.434 400.54 291.939 401.257 291.293L420.139 274.319C423.155 271.608 423.422 266.903 420.739 263.829L411.12 252.788C415.319 247.441 419.042 241.738 422.247 235.742L435.942 240.423C436.852 240.733 437.814 240.859 438.773 240.792C439.732 240.726 440.668 240.469 441.527 240.036C442.385 239.603 443.148 239.003 443.772 238.272C444.395 237.54 444.867 236.691 445.158 235.775L453.029 211.599C453.632 209.745 453.483 207.727 452.615 205.981C451.747 204.235 450.228 202.899 448.385 202.261L434.82 197.647C435.79 190.908 436.164 184.097 435.939 177.293L449.93 174.44C453.858 173.639 456.376 169.771 455.555 165.803L450.428 141.045C450.044 139.154 448.927 137.492 447.321 136.423C445.715 135.354 443.751 134.964 441.859 135.339L427.908 138.185C425.451 131.893 422.442 125.83 418.918 120.067L429.515 110.621C430.947 109.337 431.812 107.538 431.922 105.618C432.032 103.698 431.377 101.813 430.102 100.373L413.521 81.6192C412.895 80.908 412.135 80.3274 411.285 79.9107C410.434 79.494 409.51 79.2495 408.564 79.1911C407.619 79.1328 406.671 79.2618 405.776 79.5707C404.88 79.8796 404.055 80.3624 403.346 80.9913L392.682 90.4756C387.467 86.3193 381.897 82.6285 376.037 79.4455L380.566 65.8758C381.172 64.0642 381.034 62.0864 380.184 60.376C379.333 58.6657 377.839 57.3625 376.029 56.7524L352.509 48.8601C350.701 48.2573 348.728 48.3962 347.022 49.2465C345.317 50.0968 344.018 51.5889 343.412 53.3954L338.83 67.0047C332.284 66.0445 325.666 65.6672 319.054 65.8774L316.252 51.7474C316.07 50.8246 315.707 49.947 315.184 49.1651C314.661 48.3832 313.989 47.7125 313.206 47.1916C312.423 46.6708 311.544 46.3101 310.621 46.1303C309.697 45.9505 308.748 45.9553 307.826 46.1442L283.541 51.0882C281.673 51.4733 280.032 52.5787 278.973 54.1652C277.915 55.7516 277.524 57.6912 277.885 59.5639ZM250.176 194.761C242.532 154.777 268.304 116.028 307.691 107.994C347.078 99.9598 385.526 125.614 393.602 165.509C401.725 205.646 376.06 244.943 336.236 253.07C296.412 261.196 257.864 234.988 250.176 194.761Z" fill="url(#paint12_linear_10_2)"/>
<path d="M66.7443 284.462L72.2981 294.921C68.2034 298.106 64.4083 301.658 60.9598 305.534L51.0883 299.093C48.3954 297.337 44.8835 298.082 43.2437 300.758L32.9833 317.515C31.3353 320.196 32.1939 323.8 34.8867 325.565L44.8588 332.096C42.9648 337.006 41.5014 342.072 40.485 347.235L28.7841 346.535C25.6282 346.345 23.0062 348.796 22.9288 352.011L22.4344 372.143C22.3569 375.368 24.8569 378.138 28.0211 378.331L39.7665 379.041C40.5702 384.356 41.8216 389.594 43.5074 394.698L33.1448 400.091C30.3629 401.54 29.3379 405.065 30.8573 407.967L40.3663 426.142C41.8907 429.054 45.3862 430.237 48.1729 428.778L58.5554 423.373C61.8242 427.697 65.4505 431.739 69.396 435.456L63.2654 445.542C61.6174 448.259 62.4793 451.926 65.2018 453.731L82.2553 465.033C84.9861 466.846 88.5408 466.099 90.1938 463.373L96.3161 453.274C101.221 455.44 106.303 457.181 111.506 458.475L111.278 470.559C111.217 473.828 113.762 476.648 116.962 476.854L136.991 478.141C140.198 478.347 142.841 475.859 142.895 472.584L143.098 460.608C148.341 460.008 153.517 458.93 158.563 457.386L164.265 468.126C165.826 471.065 169.374 472.264 172.176 470.804L189.722 461.671C192.523 460.211 193.532 456.646 191.965 453.711L186.286 443.068C190.459 439.844 194.324 436.239 197.83 432.3L207.779 438.816C210.539 440.629 214.111 439.879 215.754 437.15L226.019 420.095C227.667 417.369 226.749 413.699 223.989 411.898L214.086 405.438C216.001 400.417 217.468 395.236 218.47 389.956L229.951 390.657C233.16 390.853 235.792 388.376 235.828 385.126L236.062 364.829C236.098 361.587 233.532 358.806 230.33 358.613L218.959 357.931C218.091 352.512 216.757 347.178 214.973 341.988L224.903 336.82C227.692 335.368 228.684 331.849 227.118 328.959L217.351 310.918C215.792 308.037 212.272 306.877 209.49 308.326L199.574 313.476C196.211 309.133 192.485 305.084 188.436 301.373L194.229 291.814C195.859 289.126 194.966 285.52 192.233 283.757L175.175 272.757C172.451 271 168.922 271.75 167.294 274.429L161.455 284.032C156.512 281.926 151.396 280.25 146.165 279.024L146.359 267.546C146.414 264.352 143.887 261.613 140.725 261.436L120.949 260.314C120.203 260.269 119.456 260.376 118.753 260.629C118.05 260.882 117.406 261.276 116.861 261.786C116.315 262.296 115.879 262.913 115.58 263.597C115.281 264.282 115.124 265.02 115.12 265.767L114.904 277.284C109.709 277.926 104.584 279.039 99.5907 280.609L94.0584 270.243C92.5356 267.391 89.0616 266.245 86.2963 267.684L69.0087 276.682C66.2499 278.124 65.2298 281.605 66.7443 284.462ZM78.2161 394.879C62.7973 365.643 73.0562 330.221 101.067 315.641C129.079 301.061 164.417 312.754 180.061 341.871C195.777 371.12 185.676 406.84 157.437 421.537C129.199 436.234 93.7057 424.243 78.2194 394.876L78.2161 394.879Z" fill="#010648"/>
<path d="M71.9767 279.632L77.5305 290.092C73.4358 293.277 69.6406 296.828 66.1922 300.704L56.3223 294.263C53.6278 292.506 50.1159 293.251 48.4761 295.929L38.2156 312.685C36.5676 315.366 37.4262 318.97 40.1191 320.735L50.0895 327.266C48.1954 332.174 46.7314 337.237 45.714 342.398L34.0132 341.696C30.8573 341.506 28.2353 343.959 28.1578 347.174L27.6717 367.306C27.5942 370.53 30.0942 373.3 33.2584 373.493L45.0021 374.21C45.8048 379.528 47.0557 384.768 48.7414 389.875L38.3788 395.268C35.5969 396.716 34.5719 400.241 36.0913 403.144L45.6003 421.318C47.1247 424.23 50.6202 425.415 53.4069 423.955L63.7894 418.549C67.0582 422.873 70.6845 426.915 74.63 430.632L68.4994 440.718C66.8514 443.437 67.7133 447.104 70.4358 448.909L87.4894 460.209C90.2201 462.022 93.7748 461.275 95.4278 458.55L101.55 448.452C106.455 450.61 111.537 452.342 116.738 453.63L116.514 465.727C116.453 468.998 118.998 471.824 122.198 472.022L142.223 473.307C145.43 473.513 148.073 471.025 148.128 467.75L148.33 455.774C153.572 455.171 158.748 454.089 163.792 452.543L169.494 463.283C171.055 466.221 174.603 467.421 177.405 465.961L194.951 456.829C197.753 455.369 198.761 451.803 197.194 448.868L191.515 438.225C195.685 435.001 199.547 431.397 203.051 427.458L213 433.975C215.762 435.787 219.331 435.036 220.975 432.307L231.24 415.251C232.888 412.526 231.97 408.857 229.21 407.054L219.307 400.594C221.222 395.573 222.689 390.393 223.69 385.113L235.172 385.815C238.381 386.011 241.013 383.534 241.049 380.282L241.283 359.986C241.319 356.744 238.753 353.962 235.551 353.769L224.18 353.087C223.312 347.669 221.978 342.335 220.193 337.146L230.124 331.976C232.913 330.526 233.905 327.006 232.339 324.115L222.571 306.074C221.012 303.194 217.492 302.033 214.71 303.482L204.801 308.64C201.439 304.297 197.714 300.248 193.664 296.537L199.457 286.979C201.086 284.291 200.193 280.685 197.461 278.923L180.402 267.923C177.678 266.165 174.15 266.914 172.522 269.596L166.683 279.199C161.74 277.091 156.624 275.414 151.392 274.189L151.587 262.712C151.641 259.517 149.115 256.779 145.952 256.601L126.176 255.479C125.431 255.434 124.684 255.541 123.981 255.794C123.278 256.047 122.634 256.441 122.088 256.951C121.543 257.462 121.107 258.078 120.808 258.762C120.508 259.447 120.352 260.185 120.347 260.932L120.14 272.457C114.941 273.099 109.811 274.212 104.813 275.782L99.2808 265.418C97.7581 262.564 94.2841 261.418 91.5187 262.857L74.2311 271.855C71.4724 273.294 70.4589 276.774 71.9767 279.632ZM83.4484 390.049C68.0297 360.811 78.2885 325.387 106.296 310.814C134.304 296.241 169.647 307.925 185.292 337.044C201.007 366.291 190.907 402.011 162.668 416.708C134.43 431.405 98.9348 419.418 83.4484 390.047V390.049Z" fill="url(#paint13_linear_10_2)"/>
<path d="M283.208 54.6463L285.993 68.9065C279.843 71.3317 273.918 74.2919 268.285 77.753L258.775 66.83C258.154 66.1217 257.399 65.5433 256.553 65.1283C255.708 64.7133 254.789 64.4698 253.848 64.4118C252.908 64.3539 251.966 64.4827 251.076 64.7909C250.186 65.099 249.366 65.5803 248.663 66.207L229.941 82.7052C226.944 85.342 226.614 89.912 229.206 92.9031L238.801 103.978C234.668 109.168 230.986 114.702 227.796 120.519L213.9 115.794C210.154 114.52 206.055 116.565 204.747 120.364L196.546 144.159C195.228 147.973 197.205 152.104 200.964 153.388L214.908 158.153C213.871 164.738 213.404 171.4 213.512 178.065L198.924 181.032C195.007 181.831 192.433 185.692 193.171 189.659L197.807 214.518C197.973 215.457 198.325 216.354 198.842 217.155C199.36 217.956 200.032 218.646 200.82 219.184C201.608 219.721 202.496 220.095 203.431 220.285C204.366 220.474 205.329 220.474 206.264 220.286L220.895 217.303C223.221 223.558 226.089 229.599 229.465 235.355L218.214 245.355C215.18 248.051 214.842 252.725 217.461 255.794L233.87 275.018C234.491 275.749 235.253 276.348 236.11 276.779C236.966 277.21 237.901 277.464 238.858 277.527C239.815 277.591 240.775 277.461 241.681 277.146C242.587 276.831 243.421 276.337 244.132 275.693L255.382 265.665C260.535 269.9 266.049 273.675 271.862 276.947L267.02 291.336C265.701 295.23 267.733 299.461 271.544 300.781L295.39 309.046C299.209 310.364 303.362 308.274 304.664 304.37L309.428 290.094C316.043 291.135 322.738 291.579 329.433 291.422L332.319 306.201C333.108 310.245 336.96 312.872 340.923 312.065L365.693 307.014C369.648 306.206 372.215 302.271 371.414 298.228L368.511 283.576C374.797 281.117 380.849 278.099 386.596 274.558L396.247 285.697C396.873 286.43 397.64 287.031 398.502 287.463C399.364 287.895 400.304 288.15 401.267 288.213C402.229 288.276 403.195 288.146 404.106 287.83C405.017 287.514 405.856 287.019 406.573 286.374L425.454 269.4C428.47 266.687 428.739 261.984 426.056 258.908L416.436 247.867C420.635 242.521 424.358 236.818 427.562 230.823L441.259 235.502C442.168 235.812 443.13 235.937 444.089 235.871C445.048 235.805 445.984 235.547 446.842 235.115C447.7 234.682 448.463 234.083 449.086 233.351C449.71 232.62 450.181 231.772 450.473 230.856L458.343 206.68C458.947 204.825 458.799 202.808 457.931 201.062C457.063 199.316 455.544 197.98 453.701 197.342L440.135 192.728C441.105 185.988 441.48 179.177 441.254 172.372L455.245 169.519C456.183 169.323 457.072 168.944 457.863 168.404C458.653 167.863 459.329 167.172 459.852 166.37C460.374 165.567 460.733 164.67 460.908 163.728C461.083 162.787 461.07 161.82 460.87 160.883L455.745 136.125C455.361 134.234 454.244 132.573 452.638 131.503C451.032 130.434 449.067 130.045 447.175 130.42L433.225 133.264C430.768 126.972 427.76 120.91 424.235 115.148L434.831 105.702C436.263 104.417 437.128 102.618 437.238 100.698C437.348 98.7777 436.694 96.892 435.418 95.4526L418.846 76.7015C418.22 75.9905 417.46 75.41 416.609 74.9934C415.758 74.5769 414.833 74.3324 413.888 74.2741C412.942 74.2157 411.995 74.3447 411.099 74.6535C410.204 74.9623 409.378 75.4449 408.669 76.0737L398.007 85.5513C392.792 81.3955 387.222 77.7052 381.362 74.5229L385.89 60.9515C386.497 59.1394 386.359 57.1608 385.507 55.4502C384.656 53.7396 383.16 52.4369 381.349 51.8282L357.832 43.9441C356.023 43.3415 354.049 43.4812 352.344 44.3324C350.638 45.1837 349.34 46.6769 348.735 48.4844L344.158 62.087C337.612 61.1269 330.994 60.7497 324.382 60.9598L321.58 46.8215C321.398 45.8988 321.034 45.0212 320.511 44.2394C319.988 43.4576 319.316 42.787 318.532 42.2662C317.749 41.7454 316.87 41.3847 315.947 41.2049C315.024 41.025 314.074 41.0296 313.152 41.2183L288.867 46.1623C286.997 46.5466 285.354 47.653 284.294 49.2413C283.235 50.8297 282.844 52.7719 283.208 54.6463ZM255.499 189.85C247.855 149.866 273.627 111.117 313.014 103.083C352.401 95.0488 390.851 120.703 398.925 160.598C407.048 200.737 381.385 240.032 341.559 248.158C301.733 256.285 263.187 230.07 255.499 189.85Z" fill="url(#paint14_linear_10_2)"/>
<path d="M269.434 472.691C267.831 473.578 268.655 475.974 270.509 475.999C276.7 476.083 289.026 476.177 289.214 475.603C289.466 474.835 287.109 470.842 287.109 470.842H280.588C280.588 470.842 272.635 472.502 270.102 472.502C269.867 472.507 269.637 472.572 269.434 472.691Z" fill="#26264F"/>
<path d="M285.588 464.665L287.109 470.842C287.109 470.842 284.802 472.874 282 470.842L279.751 465.056L285.588 464.665Z" fill="url(#paint15_linear_10_2)"/>
<path d="M392.443 449.148L397.609 455.01C397.609 455.01 396.69 458.411 394.262 457.59L388.381 452.464L392.443 449.148Z" fill="url(#paint16_linear_10_2)"/>
<path d="M392.664 458.564L391.713 460.423C391.425 460.971 391.013 461.445 390.511 461.808C390.008 462.17 389.429 462.411 388.817 462.511C387.308 462.777 385.472 463.378 385.521 464.739C385.591 466.387 390.746 466.211 393.668 465.979C394.263 465.936 394.839 465.754 395.351 465.448C395.863 465.142 396.296 464.721 396.616 464.217L399.747 459.212C400.466 458.058 400.466 456.595 399.63 455.522C399.329 455.141 398.987 454.794 398.61 454.487C396.614 452.843 392.664 458.564 392.664 458.564Z" fill="#26264F"/>
<path d="M369.763 352.634C357.626 377.899 361.225 391.939 365.881 400.683C371.2 410.677 381.314 416.463 390.149 434.879C392.549 439.883 394.506 445.087 395.999 450.431L388.565 456.757C379.636 451.788 365.861 442.602 353.957 427.061C342.327 411.871 337.937 397.727 336.605 393.022C332.586 378.76 331.882 363.768 334.549 349.193C346.693 350.147 357.626 351.685 369.763 352.634Z" fill="url(#paint17_linear_10_2)"/>
<path style="mix-blend-mode:multiply" opacity="0.3" d="M379.613 438.945C375.216 432.943 377.965 428.922 373.203 422.526C366.233 413.177 355.618 415.431 353.346 407.985C352.047 403.734 355.429 402.741 355.847 395.007C356.403 384.696 350.691 380.872 352.563 374.992C353.478 372.118 356.261 368.643 364.417 365.983C365.876 361.41 367.662 356.949 369.763 352.634C357.626 351.678 346.691 350.147 334.555 349.193C331.889 363.768 332.593 378.76 336.612 393.022C337.944 397.722 342.334 411.871 353.964 427.061C365.861 442.602 379.636 451.781 388.572 456.757L396.006 450.431C395.782 449.631 395.512 448.721 395.21 447.744C388.827 446.432 383.162 443.795 379.613 438.945Z" fill="url(#paint18_linear_10_2)"/>
<path d="M325.331 341.216C314.003 348.746 295.679 363.346 283.567 387.346C275.476 403.378 273.501 416.974 273.033 420.571C270.301 441.572 275.069 458.54 278.457 467.759L286.099 466.74C288.109 460.792 291.107 451.363 294.009 439.548C298.965 419.381 297.551 417.064 301.562 408.516C303.045 405.344 310.929 388.555 328.94 378.323C339.158 372.515 345.313 372.99 352.731 365.459C358.664 359.44 361.253 352.517 362.515 347.624L325.331 341.216Z" fill="url(#paint19_linear_10_2)"/>
<path d="M277.551 276.348L265.913 262.834C265.913 262.834 264.401 268.221 266.539 270.25C268.676 272.279 272.289 273.651 273.228 275.089C274.167 276.526 275.886 279.242 275.886 279.242L277.551 276.348Z" fill="url(#paint20_linear_10_2)"/>
<path d="M276.512 271.318C274.864 273.015 273.216 274.712 271.568 276.407C272.93 282.376 276.265 292.243 285.138 300.331C300.196 314.059 324.871 316.897 347.972 307.803C343.827 315.338 339.138 319.929 335.668 322.711C330.109 327.161 325.987 328.339 322.436 333.804C320.844 336.251 317.671 341.131 319.225 345.531C321.444 351.81 332.019 353.527 343.857 355.447C351.798 356.732 359.844 357.246 367.884 356.98C370.223 354.404 373.746 350.587 378.15 346.066C395.774 327.973 400.952 325.842 408.198 316.388C413.292 309.741 426.326 292.742 420.339 282.74C415.743 275.056 401.912 274.83 384.071 274.531C375.984 274.398 366.466 274.24 354.929 277.816C342.569 281.646 342.36 285.276 329.3 289.542C319.995 292.58 310.058 295.825 299.408 292.658C285.237 288.444 278.455 275.454 276.512 271.318Z" fill="url(#paint21_linear_10_2)"/>
<path d="M398.676 265.37C398.676 265.37 398.138 270.271 398.676 272.264C399.213 274.256 405.103 275.997 405.103 275.997C405.103 275.997 392.44 282.01 381.738 274.497L387.591 273.923C390.459 273.643 392.751 271.532 393.138 268.815L393.42 266.829L398.676 265.37Z" fill="url(#paint22_linear_10_2)"/>
<path d="M394.177 270.229C393.73 269.996 390.1 269.569 389.6 267.722C388.92 265.202 391.303 262.135 391.599 261.642C392.842 259.576 393.153 259.297 393.732 258.948L394.533 258.5L394.628 258.468C395.139 258.304 396.87 258.304 397.219 258.374C398.333 258.625 399.422 262.989 398.936 269.11C398.977 269.344 399.017 269.579 399.053 269.818C399.147 270.438 394.144 270.448 394.177 270.229Z" fill="url(#paint23_linear_10_2)"/>
<path d="M392.338 257.058C391.907 258.706 393.107 260.654 393.58 260.993C393.856 261.208 394.094 261.467 394.286 261.759C394.332 261.83 394.368 261.907 394.394 261.987C394.803 263.193 392.768 264.558 393.142 265.103C393.414 265.497 394.79 265.006 394.94 265.345C395.09 265.685 393.938 266.295 394.103 266.677C394.226 266.965 394.927 266.718 395.357 267.171C395.569 267.394 395.502 267.565 395.718 268.236C395.828 268.592 395.973 268.936 396.149 269.264C396.809 270.395 398.76 270.843 399.146 270.405C399.254 270.283 399.167 270.177 399.284 269.762C399.378 269.47 399.513 269.192 399.686 268.938C400.105 268.309 401.092 267.872 402.094 267.219C403.948 266.008 404.469 264.955 404.627 264.599C404.643 264.558 404.66 264.521 404.673 264.487C404.699 264.428 404.722 264.367 404.742 264.306C405.162 263.017 404.083 261.628 403.511 260.98C403.292 260.738 403.035 260.464 402.735 260.171C401.016 258.486 400.169 258.503 399.249 257.486C397.982 256.085 398.636 255.118 397.674 254.543C396.194 253.656 392.903 254.894 392.338 257.058Z" fill="#26264F"/>
<path d="M393.874 264.67C394.379 264.04 395.225 264.66 395.21 265.494C395.195 266.328 394.332 267.163 393.518 266.977C392.703 266.791 393.191 265.519 393.874 264.67Z" fill="url(#paint24_linear_10_2)"/>
<path d="M390.047 264.34C390.047 264.34 391.617 266.43 393.414 264.411L393.874 264.67C393.874 264.67 392.226 269.243 391.308 269.335C390.39 269.428 389.541 269.765 388.882 269.355C388.223 268.945 388.687 265.912 390.047 264.34Z" fill="#26264F"/>
<path style="mix-blend-mode:multiply" opacity="0.3" d="M420.331 282.74C420.235 282.575 420.115 282.447 420.013 282.295C419.848 285.336 419.058 288.301 417.14 290.715C411.076 298.347 400.284 292.351 389.933 300.095C378.892 308.355 381.565 322.355 372.578 324.486C366.34 325.969 362.876 319.743 357.098 322.139C350.978 324.679 352.484 332.647 345.839 335.743C340.388 338.283 336.696 334.171 331.767 336.211C328.87 337.411 325.531 340.77 323.738 350.332C328.392 352.931 335.826 354.143 343.843 355.44C351.784 356.726 359.831 357.239 367.871 356.973C370.21 354.397 373.733 350.58 378.137 346.06C395.761 327.967 400.939 325.836 408.185 316.381C413.284 309.741 426.311 292.742 420.331 282.74Z" fill="url(#paint25_linear_10_2)"/>
<path d="M205.342 122.496L209.725 121.036C211.917 120.304 214.109 122.496 215.571 124.688C217.032 126.88 214.839 127.612 213.379 126.88C211.919 126.148 210.455 123.958 208.995 125.42C207.535 126.882 203.886 125.413 205.342 122.496Z" fill="url(#paint26_linear_10_2)"/>
<path d="M178.809 36.945C175.63 38.2337 148.635 49.4616 142.513 76.4675C141.668 80.1953 138.558 93.8952 145.435 106.423C154.86 123.599 179.521 132.162 206.082 126.15L207.543 122.496C202.487 119.739 187.558 110.723 181.971 93.2722C180.518 88.732 176.49 76.1478 181.24 63.3148C183.804 56.3931 188.061 51.7243 186.348 45.78C185.084 41.365 181.709 38.5386 178.809 36.945Z" fill="#30ABBA"/>
<path style="mix-blend-mode:multiply" opacity="0.3" d="M154.934 102.04C155.239 94.6846 159.972 91.2897 160.043 80.8512C160.112 71.4675 156.335 67.9325 155.659 61.8547C155.29 58.5323 155.864 54.5177 158.448 49.7468C151.683 55.9894 145.173 64.7304 142.513 76.4675C141.668 80.1953 138.558 93.8952 145.435 106.423C149.805 114.387 157.454 120.496 167.047 124.161C156.859 114.841 154.712 107.409 154.934 102.04Z" fill="#6165D7"/>
<path d="M300.226 148.164L295.175 159.662L319.87 195.254L349.012 187.659L358.262 177.542L300.226 148.164Z" fill="url(#paint27_linear_10_2)"/>
<path d="M315.322 183.448C315.118 183.423 314.922 183.358 314.744 183.257C314.566 183.155 314.41 183.019 314.285 182.857L295.499 158.82L289.8 174.081C289.005 176.216 289.391 178.511 290.785 179.925C303.549 192.876 317.339 201.424 333.041 201.81C333.793 201.805 334.536 201.646 335.223 201.342C335.911 201.038 336.528 200.596 337.038 200.043L349.274 187.385L315.322 183.448Z" fill="url(#paint28_linear_10_2)"/>
<path d="M291.222 143.007L338.273 147.097C338.684 147.135 339.062 147.334 339.325 147.651L369.571 183.137C370.695 184.455 369.452 186.805 367.732 186.605L316.751 180.686C316.546 180.663 316.348 180.599 316.168 180.498C315.988 180.397 315.829 180.261 315.702 180.098L289.386 146.426C288.35 145.1 289.549 142.862 291.222 143.007Z" fill="url(#paint29_linear_10_2)"/>
<path d="M365.056 183.771H365.025L317.736 178.337C317.701 178.333 317.667 178.323 317.636 178.305C317.605 178.288 317.578 178.264 317.557 178.236L293.453 147.009C293.431 146.982 293.414 146.95 293.405 146.917C293.395 146.883 293.393 146.848 293.397 146.814C293.401 146.779 293.413 146.746 293.43 146.715C293.448 146.685 293.471 146.659 293.499 146.638C293.526 146.616 293.558 146.6 293.591 146.591C293.625 146.582 293.66 146.579 293.695 146.584C293.729 146.589 293.763 146.6 293.793 146.618C293.823 146.636 293.849 146.659 293.87 146.687L317.912 177.827L365.085 183.246C365.153 183.249 365.218 183.28 365.264 183.332C365.31 183.383 365.333 183.45 365.33 183.519C365.326 183.588 365.295 183.652 365.244 183.698C365.192 183.744 365.125 183.767 365.056 183.764V183.771Z" fill="#7D97F4"/>
<path d="M325.923 159.566C325.923 159.566 354.618 180.736 355.773 184.875C356.353 186.947 353.882 199.955 353.882 199.955C358.609 214.388 359.858 230.214 353.188 238.787C353.188 238.787 343.788 219.936 347.321 211.691C350.854 203.447 352.206 200.069 352.206 200.069C352.206 200.069 354.454 187.188 353.281 184.6C353.281 184.6 323.729 160.706 325.923 159.566Z" fill="url(#paint30_linear_10_2)"/>
<path d="M352.31 208.902L352.26 208.956L352.206 209.028L352.092 209.174L351.877 209.49C351.735 209.702 351.618 209.932 351.478 210.155L351.131 210.852C351.025 211.09 350.932 211.339 350.831 211.582C350.731 211.827 350.645 212.077 350.572 212.331C350.494 212.59 350.406 212.836 350.336 213.093L350.152 213.87C350.083 214.125 350.027 214.385 349.986 214.647L349.859 215.439C349.821 215.698 349.766 215.957 349.753 216.237C349.712 216.771 349.663 217.307 349.626 217.843L349.613 219.459C349.613 219.594 349.613 219.718 349.613 219.863L349.639 220.267L349.691 221.076C349.725 222.158 349.916 223.228 350.046 224.303C350.074 224.562 350.129 224.837 350.183 225.103L350.341 225.901C350.45 226.432 350.548 226.968 350.665 227.497C350.945 228.546 351.206 229.602 351.507 230.649L352.517 233.757C352.532 233.803 352.529 233.853 352.508 233.896C352.486 233.939 352.449 233.972 352.403 233.988C352.357 234.003 352.307 234 352.264 233.978C352.221 233.957 352.188 233.919 352.172 233.874L351.074 230.766C350.745 229.729 350.455 228.66 350.142 227.608C350.01 227.074 349.898 226.536 349.774 226.002L349.593 225.197C349.53 224.938 349.468 224.66 349.432 224.388C349.271 223.301 349.049 222.218 348.984 221.114L348.911 220.288L348.875 219.876C348.875 219.739 348.875 219.599 348.875 219.462L348.844 217.802C348.867 217.247 348.904 216.693 348.932 216.139C348.932 215.861 348.986 215.587 349.02 215.31L349.129 214.481C349.157 214.204 349.227 213.932 349.282 213.657L349.455 212.836C349.523 212.577 349.608 212.297 349.683 212.028C349.755 211.756 349.842 211.488 349.942 211.225C350.043 210.966 350.137 210.694 350.245 210.432L350.603 209.655C350.745 209.396 350.862 209.15 351.025 208.904L351.263 208.536L351.398 208.355L351.465 208.264L351.551 208.163C351.595 208.111 351.648 208.067 351.709 208.035C351.77 208.003 351.836 207.984 351.905 207.977C351.973 207.971 352.042 207.978 352.107 207.999C352.173 208.019 352.234 208.052 352.286 208.096C352.339 208.14 352.383 208.194 352.415 208.254C352.447 208.315 352.466 208.382 352.472 208.45C352.479 208.518 352.471 208.587 352.451 208.653C352.431 208.718 352.398 208.779 352.354 208.832L352.31 208.902Z" fill="#7D97F4"/>
<path d="M353.385 215.665L353.423 216.701L353.48 217.846L353.602 220.177L353.861 224.818L354.418 234.102C354.423 234.176 354.399 234.249 354.35 234.305C354.302 234.361 354.233 234.396 354.159 234.402C354.085 234.407 354.012 234.382 353.955 234.334C353.899 234.285 353.863 234.217 353.856 234.143L353.061 224.875L352.675 220.239L352.494 217.908L352.408 216.745L352.369 216.159L352.351 215.864C352.351 215.737 352.351 215.587 352.351 215.45C352.374 215.331 352.437 215.224 352.53 215.147C352.623 215.07 352.739 215.028 352.86 215.028C352.981 215.028 353.098 215.07 353.19 215.147C353.283 215.224 353.347 215.331 353.369 215.45L353.385 215.665Z" fill="#7D97F4"/>
</g>
<defs>
<linearGradient id="paint0_linear_10_2" x1="307.439" y1="38.4645" x2="286.25" y2="75.9105" gradientUnits="userSpaceOnUse">
<stop stop-color="#FFC444"/>
<stop offset="1" stop-color="#F36F56"/>
</linearGradient>
<linearGradient id="paint1_linear_10_2" x1="133.746" y1="251.146" x2="142.8" y2="251.146" gradientUnits="userSpaceOnUse">
<stop stop-color="#444B8C"/>
<stop offset="1" stop-color="#26264F"/>
</linearGradient>
<linearGradient id="paint2_linear_10_2" x1="139.893" y1="261.964" x2="136.239" y2="232.006" gradientUnits="userSpaceOnUse">
<stop stop-color="#FFC444"/>
<stop offset="1" stop-color="#F36F56"/>
</linearGradient>
<linearGradient id="paint3_linear_10_2" x1="172.225" y1="264.971" x2="183.766" y2="264.971" gradientUnits="userSpaceOnUse">
<stop stop-color="#444B8C"/>
<stop offset="1" stop-color="#26264F"/>
</linearGradient>
<linearGradient id="paint4_linear_10_2" x1="174.425" y1="264.614" x2="164.196" y2="229.544" gradientUnits="userSpaceOnUse">
<stop stop-color="#FFC444"/>
<stop offset="1" stop-color="#F36F56"/>
</linearGradient>
<linearGradient id="paint5_linear_10_2" x1="132.821" y1="190.055" x2="155.288" y2="190.419" gradientUnits="userSpaceOnUse">
<stop stop-color="#AA80F9"/>
<stop offset="1" stop-color="#6165D7"/>
</linearGradient>
<linearGradient id="paint6_linear_10_2" x1="165.012" y1="180.472" x2="130.306" y2="207.323" gradientUnits="userSpaceOnUse">
<stop stop-color="#AA80F9"/>
<stop offset="1" stop-color="#6165D7"/>
</linearGradient>
<linearGradient id="paint7_linear_10_2" x1="160.127" y1="53.5866" x2="26.4192" y2="-29.7069" gradientUnits="userSpaceOnUse">
<stop stop-color="#010648"/>
<stop offset="1" stop-color="#6165D7"/>
</linearGradient>
<linearGradient id="paint8_linear_10_2" x1="235.541" y1="29.6394" x2="91.7511" y2="195.859" gradientUnits="userSpaceOnUse">
<stop stop-color="#389FBF"/>
<stop offset="1" stop-color="#30ABBA"/>
</linearGradient>
<linearGradient id="paint9_linear_10_2" x1="181.968" y1="39.8175" x2="208.016" y2="39.8175" gradientUnits="userSpaceOnUse">
<stop stop-color="#FF9085"/>
<stop offset="1" stop-color="#FB6FBB"/>
</linearGradient>
<linearGradient id="paint10_linear_10_2" x1="192.792" y1="55.6829" x2="201.193" y2="5.2687" gradientUnits="userSpaceOnUse">
<stop stop-color="#FFC444"/>
<stop offset="1" stop-color="#F36F56"/>
</linearGradient>
<linearGradient id="paint11_linear_10_2" x1="201.117" y1="21.5767" x2="208.329" y2="49.8805" gradientUnits="userSpaceOnUse">
<stop stop-color="#FFC444"/>
<stop offset="1" stop-color="#F36F56"/>
</linearGradient>
<linearGradient id="paint12_linear_10_2" x1="492.808" y1="32.9041" x2="333.842" y2="171.164" gradientUnits="userSpaceOnUse">
<stop stop-color="#311944"/>
<stop offset="1" stop-color="#893976"/>
</linearGradient>
<linearGradient id="paint13_linear_10_2" x1="76.8887" y1="372.182" x2="100.035" y2="299.715" gradientUnits="userSpaceOnUse">
<stop stop-color="#30ABBA"/>
<stop offset="1" stop-color="#6165D7"/>
</linearGradient>
<linearGradient id="paint14_linear_10_2" x1="386.013" y1="12.1863" x2="196.708" y2="541.502" gradientUnits="userSpaceOnUse">
<stop stop-color="#FC9D8A"/>
<stop offset="1" stop-color="#F7C479"/>
</linearGradient>
<linearGradient id="paint15_linear_10_2" x1="281.493" y1="460.379" x2="300.725" y2="533.555" gradientUnits="userSpaceOnUse">
<stop stop-color="#FFC444"/>
<stop offset="1" stop-color="#F36F56"/>
</linearGradient>
<linearGradient id="paint16_linear_10_2" x1="387.423" y1="432.537" x2="406.655" y2="505.714" gradientUnits="userSpaceOnUse">
<stop stop-color="#FFC444"/>
<stop offset="1" stop-color="#F36F56"/>
</linearGradient>
<linearGradient id="paint17_linear_10_2" x1="332.971" y1="402.974" x2="395.999" y2="402.974" gradientUnits="userSpaceOnUse">
<stop stop-color="#010648"/>
<stop offset="1" stop-color="#010648"/>
</linearGradient>
<linearGradient id="paint18_linear_10_2" x1="395.85" y1="380.114" x2="303.911" y2="441.409" gradientUnits="userSpaceOnUse">
<stop stop-color="#311944"/>
<stop offset="1" stop-color="#893976"/>
</linearGradient>
<linearGradient id="paint19_linear_10_2" x1="357.408" y1="468.204" x2="289.86" y2="357.5" gradientUnits="userSpaceOnUse">
<stop stop-color="#010648"/>
<stop offset="1" stop-color="#010648"/>
</linearGradient>
<linearGradient id="paint20_linear_10_2" x1="265.393" y1="271.048" x2="277.551" y2="271.048" gradientUnits="userSpaceOnUse">
<stop stop-color="#FFC444"/>
<stop offset="1" stop-color="#F36F56"/>
</linearGradient>
<linearGradient id="paint21_linear_10_2" x1="346.955" y1="282.809" x2="363.217" y2="352.235" gradientUnits="userSpaceOnUse">
<stop stop-color="#6165D7"/>
<stop offset="1" stop-color="#30ABBA"/>
</linearGradient>
<linearGradient id="paint22_linear_10_2" x1="387.486" y1="267.834" x2="404.686" y2="281.124" gradientUnits="userSpaceOnUse">
<stop stop-color="#FFC444"/>
<stop offset="1" stop-color="#F36F56"/>
</linearGradient>
<linearGradient id="paint23_linear_10_2" x1="391.917" y1="262.099" x2="409.118" y2="275.39" gradientUnits="userSpaceOnUse">
<stop stop-color="#FFC444"/>
<stop offset="1" stop-color="#F36F56"/>
</linearGradient>
<linearGradient id="paint24_linear_10_2" x1="390.955" y1="263.343" x2="408.155" y2="276.634" gradientUnits="userSpaceOnUse">
<stop stop-color="#FFC444"/>
<stop offset="1" stop-color="#F36F56"/>
</linearGradient>
<linearGradient id="paint25_linear_10_2" x1="363.479" y1="278.94" x2="379.74" y2="348.364" gradientUnits="userSpaceOnUse">
<stop stop-color="#E38DDD"/>
<stop offset="1" stop-color="#9571F6"/>
</linearGradient>
<linearGradient id="paint26_linear_10_2" x1="215.581" y1="115.769" x2="194.392" y2="153.214" gradientUnits="userSpaceOnUse">
<stop stop-color="#FFC444"/>
<stop offset="1" stop-color="#F36F56"/>
</linearGradient>
<linearGradient id="paint27_linear_10_2" x1="369.217" y1="115.37" x2="320.792" y2="172.901" gradientUnits="userSpaceOnUse">
<stop stop-color="#010648"/>
<stop offset="1" stop-color="#010648"/>
</linearGradient>
<linearGradient id="paint28_linear_10_2" x1="366.593" y1="103.279" x2="305.272" y2="200.131" gradientUnits="userSpaceOnUse">
<stop stop-color="#09005D"/>
<stop offset="1" stop-color="#1A0F91"/>
</linearGradient>
<linearGradient id="paint29_linear_10_2" x1="349.245" y1="98.0459" x2="313.838" y2="193.919" gradientUnits="userSpaceOnUse">
<stop stop-color="#6165D7"/>
<stop offset="1" stop-color="#010648"/>
</linearGradient>
<linearGradient id="paint30_linear_10_2" x1="336.732" y1="168.831" x2="364.188" y2="235.658" gradientUnits="userSpaceOnUse">
<stop stop-color="#09005D"/>
<stop offset="1" stop-color="#1A0F91"/>
</linearGradient>
<clipPath id="clip0_10_2">
<rect width="480" height="480" fill="white"/>
</clipPath>
</defs>
</svg>
