<svg width="480" height="480" viewBox="0 0 480 480" fill="none" xmlns="http://www.w3.org/2000/svg">
<path d="M444.314 323.763C397.334 432.156 273.323 478.714 176.156 470.775C149.626 468.609 96.2463 464.247 54.568 425.347C-25.4669 350.631 -13.1474 194.453 63.4749 102.506C73.3367 90.6583 141.641 11.3246 248.076 12.3874C326.001 13.164 380.696 56.616 387.347 62.028C395.749 68.8663 414.278 85.116 430.979 110.895C470.22 171.468 473.669 256.029 444.314 323.763Z" fill="url(#paint0_linear_2_101)"/>
<path d="M412.578 86.172C415.467 81.5983 422.567 84.1766 421.853 89.5354C418.138 117.153 413.725 165.362 422.428 196.869C435.211 243.194 458.226 379.462 328.492 413.961C328.492 413.961 340.847 199.743 412.578 86.172Z" fill="#30ABBA"/>
<path d="M401.624 143.426C401.624 143.426 401.504 143.685 401.306 144.178C401.109 144.672 400.815 145.426 400.482 146.417C399.795 148.392 398.936 151.349 398.077 155.16C397.054 159.743 396.286 164.378 395.776 169.046C395.094 175.093 394.736 181.172 394.704 187.257C394.603 190.598 394.802 194.083 394.849 197.683C394.924 199.483 395.051 201.312 395.153 203.169C395.206 204.095 395.264 205.031 395.324 205.975C395.395 206.916 395.496 207.861 395.585 208.817C395.765 210.723 395.949 212.655 396.137 214.613C396.231 215.541 396.379 216.569 396.496 217.553C396.612 218.537 396.727 219.557 396.875 220.541C397.416 224.484 398.065 228.578 398.764 232.723C399.463 236.868 400.193 241.095 400.872 245.393C401.203 247.545 401.547 249.706 401.851 251.892C402.008 252.985 402.164 254.079 402.32 255.175C402.475 256.271 402.617 257.374 402.746 258.485C403.048 260.691 403.261 262.925 403.512 265.159C403.762 267.393 403.912 269.652 404.114 271.905C404.243 274.167 404.393 276.434 404.458 278.707L404.533 282.122L404.568 283.836L404.547 285.55C404.492 294.669 403.711 303.819 401.99 312.663C400.286 321.315 397.722 329.775 394.335 337.918C393.926 338.907 393.52 339.893 393.116 340.875L391.742 343.733C390.823 345.619 389.973 347.525 388.942 349.311C387.944 351.11 387.006 352.911 385.99 354.65C384.936 356.364 383.896 358.052 382.869 359.714C378.889 365.878 374.492 371.765 369.71 377.333L366.464 381.125L363.188 384.583L360.076 387.862L357.007 390.826C353.108 394.725 349.411 397.797 346.457 400.414C344.997 401.745 343.573 402.792 342.386 403.762L339.343 406.19L336.81 408.211C336.751 408.256 336.677 408.277 336.603 408.27C336.529 408.262 336.46 408.227 336.412 408.17C336.363 408.114 336.338 408.041 336.342 407.967C336.346 407.893 336.378 407.823 336.432 407.772V407.763L338.817 405.579L341.677 402.958L343.491 401.297C343.81 400.999 344.152 400.704 344.487 400.382L345.517 399.377L350.154 394.822C350.576 394.407 351.006 393.985 351.446 393.555C351.882 393.122 352.305 392.652 352.737 392.184L355.458 389.304L358.354 386.234L361.273 382.853C362.271 381.697 363.294 380.511 364.344 379.296C365.338 378.039 366.357 376.755 367.4 375.446L368.975 373.459L369.775 372.451L370.532 371.397L373.624 367.08C374.708 365.642 375.656 364.073 376.669 362.517L378.198 360.165L378.972 358.977C379.219 358.572 379.451 358.157 379.693 357.746C380.65 356.095 381.62 354.423 382.605 352.73C383.549 351.015 384.413 349.234 385.337 347.46C386.294 345.701 387.068 343.833 387.913 341.974C388.329 341.044 388.747 340.11 389.167 339.171L390.295 336.286C393.435 328.367 395.774 320.155 397.277 311.772C398.835 303.11 399.607 294.325 399.584 285.525C399.584 276.665 398.897 267.794 397.852 259.075C397.718 257.985 397.586 256.899 397.454 255.818C397.322 254.737 397.175 253.651 397.011 252.561C396.724 250.402 396.394 248.251 396.08 246.115C395.441 241.828 394.811 237.599 394.191 233.429C393.572 229.248 392.988 225.135 392.514 221.038C392.265 218.981 392.09 217.049 391.913 215.011C391.786 213.015 391.66 211.045 391.536 209.1C391.479 208.128 391.403 207.165 391.364 206.205C391.324 205.245 391.312 204.291 391.286 203.345C391.242 201.459 391.171 199.589 391.151 197.757C391.197 194.088 391.195 190.557 391.429 187.15C391.475 186.301 391.52 185.461 391.565 184.63C391.588 184.215 391.61 183.803 391.632 183.393C391.668 182.981 391.704 182.575 391.74 182.169C391.888 180.548 392.032 178.966 392.174 177.422C392.322 175.879 392.566 174.386 392.75 172.93C392.849 172.203 392.948 171.487 393.045 170.782L393.406 168.706C393.655 167.347 393.842 166.025 394.12 164.763C394.399 163.502 394.649 162.285 394.898 161.115C395.481 158.796 395.998 156.658 396.592 154.773C397.436 151.823 398.469 148.93 399.683 146.112C400.104 145.135 400.454 144.398 400.705 143.906C400.956 143.414 401.09 143.165 401.09 143.165C401.128 143.102 401.188 143.056 401.259 143.036C401.33 143.016 401.406 143.023 401.471 143.057C401.537 143.09 401.587 143.148 401.612 143.217C401.637 143.286 401.634 143.362 401.605 143.429L401.624 143.426Z" fill="#AAE3EA"/>
<path d="M349.419 413.11C349.419 413.11 407.682 433.245 451.21 369.622C492.098 309.857 467.526 235.133 449.492 192.442C448.551 190.214 445.277 190.632 444.918 193.018C439.507 228.962 414.332 369.511 346.309 412.999L349.419 413.11Z" fill="#AAE3EA"/>
<path d="M355.504 413.919L356.002 413.822C356.327 413.76 356.811 413.65 357.443 413.505C358.704 413.198 360.55 412.737 362.859 411.999C364.021 411.665 365.284 411.214 366.668 410.758C368.042 410.244 369.528 409.73 371.08 409.082C374.578 407.68 377.999 406.096 381.33 404.335C385.014 402.449 388.846 400.121 392.786 397.507C394.713 396.135 396.722 394.773 398.658 393.221L400.137 392.078L400.882 391.502L401.6 390.885L404.511 388.395C408.32 384.936 412.123 381.204 415.582 377.057L416.901 375.514L417.561 374.743L418.179 373.932L420.654 370.675C421.513 369.61 422.244 368.446 423.012 367.32L425.308 363.912L427.412 360.381L428.465 358.618C428.637 358.323 428.822 358.037 428.98 357.735L429.452 356.825C430.081 355.614 430.711 354.405 431.342 353.199C431.654 352.596 431.967 351.994 432.281 351.394L433.111 349.543L434.756 345.862C435.022 345.247 435.319 344.649 435.556 344.026L436.261 342.165L437.662 338.475C437.894 337.865 438.141 337.262 438.349 336.651C438.557 336.041 438.742 335.417 438.94 334.805C439.331 333.578 439.721 332.362 440.108 331.159C440.486 329.959 440.906 328.769 441.186 327.559C441.824 325.159 442.448 322.816 443.057 320.53C443.582 318.226 444.018 315.965 444.494 313.79C444.719 312.699 444.991 311.637 445.169 310.575C445.348 309.514 445.513 308.472 445.676 307.452C446.006 305.41 446.327 303.454 446.651 301.593C446.9 299.722 447.089 297.941 447.294 296.278C447.498 294.615 447.699 293.04 447.881 291.591C448.063 290.143 448.106 288.802 448.225 287.595C448.426 285.18 448.587 283.281 448.714 281.985C448.841 280.689 448.9 279.994 448.9 279.994V279.982C448.907 279.909 448.943 279.842 448.998 279.794C449.054 279.746 449.126 279.72 449.199 279.723C449.273 279.726 449.343 279.757 449.395 279.809C449.446 279.861 449.476 279.931 449.478 280.005C449.478 280.005 449.489 280.699 449.508 282.003C449.526 283.308 449.545 285.221 449.554 287.661C449.554 288.879 449.587 290.232 449.523 291.701C449.459 293.17 449.351 294.758 449.269 296.455C449.186 298.152 449.073 299.962 448.925 301.865C448.719 303.763 448.482 305.758 448.23 307.839C448.104 308.882 447.976 309.945 447.845 311.028C447.708 312.11 447.481 313.2 447.297 314.318C446.89 316.546 446.488 318.85 446.018 321.211C445.445 323.553 444.862 325.953 444.267 328.411C443.991 329.647 443.58 330.857 443.197 332.093C442.814 333.329 442.426 334.574 442.035 335.83L441.446 337.716C441.229 338.342 440.982 338.962 440.759 339.59C440.281 340.839 439.801 342.096 439.319 343.361L438.589 345.266C438.342 345.9 438.036 346.514 437.762 347.141C437.197 348.39 436.63 349.647 436.06 350.913L435.201 352.798L434.229 354.646L432.291 358.373L431.802 359.304C431.63 359.613 431.445 359.907 431.266 360.209L430.179 362.014L427.994 365.625L425.59 369.096C424.786 370.248 424.015 371.424 423.122 372.507L420.537 375.813L419.893 376.635L419.206 377.421L417.832 378.986C414.239 383.206 410.241 386.943 406.265 390.398L403.232 392.88L402.483 393.494L401.708 394.066L400.162 395.203C398.156 396.756 396.051 398.076 394.046 399.417C393.033 400.073 391.998 400.659 390.996 401.27L389.502 402.166C389.002 402.454 388.494 402.718 387.997 402.993L385.057 404.583L382.163 405.994C378.711 407.636 375.175 409.097 371.57 410.369C369.971 410.966 368.437 411.415 367.037 411.876C365.617 412.279 364.325 412.682 363.135 412.97C360.765 413.583 358.874 413.943 357.584 414.182C356.938 414.295 356.442 414.375 356.102 414.422L355.587 414.492C355.513 414.501 355.438 414.481 355.378 414.437C355.318 414.392 355.277 414.326 355.265 414.253C355.253 414.179 355.269 414.103 355.311 414.042C355.353 413.98 355.417 413.937 355.491 413.921L355.504 413.919Z" fill="url(#paint1_linear_2_101)"/>
<path d="M100.289 52.5309L349.601 56.7703C356.224 56.883 362.551 59.5307 367.274 64.1663C371.996 68.8019 374.755 75.0712 374.979 81.6789L387.225 442.776C387.311 445.324 386.883 447.863 385.967 450.243C385.05 452.622 383.663 454.793 381.889 456.627C380.115 458.461 377.989 459.92 375.639 460.918C373.288 461.915 370.761 462.431 368.207 462.434L82.3741 462.758C79.972 462.76 77.5934 462.285 75.3772 461.36C73.1611 460.435 71.1518 459.079 69.4667 457.37C67.7817 455.661 66.4545 453.634 65.5629 451.408C64.6712 449.182 64.2329 446.8 64.2735 444.403L70.4719 81.2949C70.6047 73.5339 73.8207 66.1435 79.4125 60.7493C85.0043 55.355 92.5138 52.3988 100.289 52.5309Z" fill="url(#paint2_linear_2_101)"/>
<path d="M124.253 457.233H124.234L92.2686 456.276C81.6356 455.957 73.1323 447.062 73.3144 436.447L74.1371 388.262C74.1398 388.11 74.2021 387.965 74.3107 387.859C74.4193 387.752 74.5654 387.693 74.7176 387.693C74.8717 387.695 75.0185 387.759 75.1257 387.869C75.2329 387.98 75.2918 388.128 75.2895 388.282L74.4668 436.466C74.2951 446.451 82.2934 454.819 92.2961 455.117L124.262 456.074C124.338 456.075 124.413 456.091 124.483 456.121C124.553 456.151 124.617 456.195 124.67 456.25C124.723 456.304 124.765 456.369 124.793 456.439C124.821 456.51 124.835 456.586 124.834 456.662C124.833 456.738 124.817 456.813 124.786 456.883C124.756 456.953 124.712 457.016 124.658 457.069C124.603 457.122 124.538 457.164 124.468 457.192C124.397 457.22 124.321 457.234 124.245 457.233H124.253Z" fill="#30ABBA"/>
<path d="M74.9717 373.925H74.9614C74.8078 373.922 74.6615 373.859 74.5546 373.749C74.4477 373.639 74.3889 373.491 74.3912 373.337L74.5252 365.534C74.5301 365.381 74.5943 365.236 74.7043 365.13C74.8142 365.024 74.9613 364.965 75.1143 364.965C75.1905 364.966 75.2658 364.982 75.3357 365.013C75.4056 365.043 75.4688 365.087 75.5218 365.142C75.5747 365.196 75.6164 365.261 75.6443 365.332C75.6722 365.403 75.6859 365.478 75.6845 365.554L75.5523 373.356C75.5496 373.508 75.4872 373.653 75.3786 373.759C75.2701 373.866 75.1239 373.925 74.9717 373.925Z" fill="#30ABBA"/>
<path d="M101.105 49.62C135.073 54.8074 251.9 71.0486 348.828 65.28C349.877 65.216 350.928 65.3619 351.919 65.7093C352.91 66.0567 353.822 66.5985 354.6 67.3027C355.378 68.007 356.007 68.8596 356.451 69.8102C356.894 70.7609 357.142 71.7905 357.181 72.8383L370.29 435.557C370.377 437.946 369.514 440.272 367.888 442.027C366.263 443.782 364.008 444.824 361.615 444.926C320.863 446.64 153.044 453.082 93.3437 445.814C91.5896 445.598 89.9769 444.744 88.814 443.416C87.6511 442.087 87.0197 440.378 87.0405 438.614L91.3016 57.9326C91.3147 56.7153 91.5895 55.5151 92.1075 54.413C92.6254 53.3109 93.3745 52.3327 94.304 51.5446C95.2335 50.7565 96.3217 50.1768 97.495 49.8448C98.6683 49.5127 99.8995 49.4361 101.105 49.62Z" fill="#30ABBA"/>
<path d="M104.595 59.0829C137.284 64.0749 249.723 79.7058 342.982 74.1532C343.992 74.0907 345.004 74.2307 345.958 74.5647C346.913 74.8988 347.791 75.4202 348.541 76.0982C349.29 76.7762 349.896 77.5972 350.323 78.5126C350.75 79.4281 350.988 80.4196 351.025 81.4286L363.642 430.491C363.726 432.79 362.895 435.029 361.331 436.718C359.766 438.407 357.596 439.409 355.293 439.505C316.076 441.154 154.576 447.355 97.1291 440.362C95.4406 440.155 93.888 439.333 92.7688 438.054C91.6495 436.775 91.0421 435.129 91.0629 433.431L95.1574 67.0886C95.1689 65.9163 95.4328 64.7602 95.931 63.6986C96.4293 62.637 97.1503 61.6947 98.0453 60.9355C98.9403 60.1763 99.9883 59.6179 101.118 59.2983C102.248 58.9787 103.434 58.9052 104.595 59.0829Z" fill="#AAE3EA"/>
<g opacity="0.6">
<path d="M339.915 104.751C340.213 104.76 340.51 104.707 340.787 104.594C341.063 104.482 341.313 104.314 341.521 104.1C341.729 103.886 341.89 103.631 341.993 103.351C342.097 103.072 342.141 102.774 342.123 102.477L342.105 102.082C342.063 101.457 341.791 100.869 341.341 100.432C340.892 99.994 340.296 99.7376 339.669 99.7115L127.843 94.4418C126.567 94.4092 126.16 95.2098 126.938 96.2195L129.354 99.3566C130.132 100.368 131.812 101.211 133.09 101.234L339.915 104.751Z" fill="white"/>
</g>
<g opacity="0.6">
<path d="M127.609 108.379C126.331 108.348 125.924 109.149 126.702 110.158L129.119 113.295C129.897 114.307 131.578 115.15 132.854 115.181L339.679 118.697C339.978 118.706 340.275 118.653 340.551 118.541C340.828 118.429 341.078 118.26 341.285 118.047C341.493 117.833 341.654 117.578 341.757 117.299C341.861 117.019 341.905 116.721 341.886 116.424L341.867 116.03C341.826 115.404 341.555 114.815 341.105 114.377C340.655 113.939 340.058 113.683 339.43 113.657L127.609 108.379Z" fill="white"/>
</g>
<path d="M162.047 235.677H161.969L133.906 235.838C129.861 235.86 126.481 233.133 126.043 229.495L123.214 206.033C123.133 205.337 123.194 204.631 123.394 203.959C123.595 203.287 123.93 202.663 124.38 202.125C124.914 201.489 125.57 200.966 126.31 200.587C127.049 200.209 127.857 199.982 128.686 199.92C131.044 199.714 134.307 199.394 137.888 199.029C145.688 198.245 154.529 197.357 159.728 197.213H159.841C163.561 197.157 166.797 199.371 167.742 202.63C169.288 208.011 169.318 218.23 169.207 229.116C169.162 232.689 165.961 235.617 162.047 235.677ZM128.879 202.197C128.356 202.232 127.845 202.371 127.377 202.607C126.909 202.842 126.494 203.169 126.155 203.568C125.9 203.869 125.71 204.219 125.596 204.596C125.481 204.973 125.444 205.369 125.488 205.761L128.317 229.222C128.616 231.708 131.013 233.57 133.894 233.554L161.956 233.393H162.011C164.693 233.352 166.886 231.434 166.911 229.097C167.02 218.386 166.996 208.354 165.537 203.263C164.889 201.012 162.424 199.37 159.795 199.503C154.679 199.646 145.499 200.57 138.122 201.309C134.515 201.67 131.252 201.994 128.882 202.198L128.879 202.197Z" fill="white"/>
<path opacity="0.6" d="M131.929 204.514C137.816 204.022 150.608 202.527 156.683 202.359C159.259 202.287 161.538 203.806 162.179 206.025C163.417 210.334 163.395 218.964 163.314 226.929C163.29 229.315 161.124 231.252 158.445 231.267L136.018 231.396C133.262 231.411 130.943 229.57 130.649 227.129L128.389 208.382C128.154 206.436 129.746 204.686 131.929 204.514Z" fill="white"/>
<g opacity="0.6">
<path d="M186.32 210.914C185.042 210.903 184.279 211.898 184.625 213.125L187.285 222.602C187.629 223.829 188.956 224.817 190.232 224.798L331.478 222.636C331.781 222.632 332.079 222.567 332.357 222.446C332.634 222.324 332.883 222.149 333.092 221.93C333.3 221.711 333.462 221.452 333.568 221.169C333.674 220.887 333.723 220.586 333.711 220.284L333.495 214.471C333.465 213.85 333.2 213.264 332.754 212.83C332.307 212.397 331.713 212.149 331.09 212.136L186.32 210.914Z" fill="white"/>
</g>
<path d="M163.687 172.788H163.61L135.548 172.949C131.503 172.971 128.123 170.244 127.685 166.606L124.861 143.143C124.78 142.446 124.841 141.741 125.041 141.068C125.241 140.396 125.576 139.772 126.026 139.233C126.56 138.597 127.216 138.074 127.956 137.695C128.696 137.317 129.504 137.09 130.333 137.028C132.698 136.831 135.953 136.503 139.536 136.145C147.335 135.36 156.175 134.472 161.373 134.328H161.488C165.209 134.271 168.444 136.486 169.389 139.745C170.935 145.126 170.964 155.345 170.854 166.231C170.804 169.8 167.603 172.728 163.687 172.788ZM130.519 139.308C129.996 139.344 129.486 139.484 129.019 139.719C128.551 139.955 128.136 140.281 127.796 140.679C127.542 140.981 127.352 141.33 127.237 141.707C127.123 142.084 127.086 142.481 127.13 142.872L129.959 166.334C130.258 168.819 132.655 170.683 135.534 170.666L163.598 170.506H163.652C166.335 170.465 168.528 168.547 168.552 166.21C168.662 155.499 168.638 145.467 167.178 140.378C166.531 138.125 164.065 136.483 161.437 136.618C156.321 136.759 147.141 137.683 139.762 138.423C136.166 138.785 132.892 139.109 130.522 139.311L130.519 139.308Z" fill="white"/>
<path opacity="0.6" d="M133.569 141.621C139.458 141.127 152.248 139.634 158.325 139.464C160.901 139.394 163.18 140.911 163.821 143.131C165.059 147.441 165.037 156.069 164.956 164.035C164.93 166.419 162.766 168.357 160.087 168.372L137.66 168.501C134.9 168.514 132.59 166.675 132.289 164.229L130.029 145.486C129.796 143.547 131.388 141.802 133.569 141.621Z" fill="white"/>
<g opacity="0.6">
<path d="M187.962 148.027C186.684 148.015 185.921 149.011 186.267 150.238L188.924 159.715C189.267 160.941 190.595 161.93 191.871 161.909L333.117 159.747C333.419 159.743 333.718 159.678 333.995 159.557C334.271 159.436 334.521 159.261 334.729 159.042C334.937 158.823 335.099 158.564 335.206 158.282C335.312 158 335.361 157.699 335.35 157.397L335.133 151.582C335.102 150.962 334.837 150.376 334.391 149.943C333.945 149.51 333.351 149.261 332.729 149.247L187.962 148.027Z" fill="white"/>
</g>
<path d="M162.969 295.701H162.892L134.828 295.86C130.783 295.884 127.403 293.157 126.965 289.517L124.137 266.057C124.055 265.36 124.116 264.654 124.316 263.982C124.516 263.309 124.851 262.684 125.301 262.145C125.835 261.509 126.492 260.987 127.231 260.608C127.971 260.229 128.779 260.002 129.608 259.941C131.973 259.743 135.23 259.416 138.811 259.058C146.612 258.274 155.451 257.385 160.65 257.241H160.764C164.484 257.184 167.719 259.399 168.664 262.659C170.21 268.041 170.241 278.259 170.129 289.143C170.086 292.714 166.883 295.641 162.969 295.701ZM129.801 262.221C129.278 262.257 128.768 262.397 128.3 262.632C127.833 262.868 127.417 263.194 127.077 263.592C126.823 263.894 126.633 264.244 126.518 264.621C126.404 264.998 126.367 265.395 126.411 265.786L129.239 289.246C129.538 291.734 131.936 293.595 134.816 293.578L162.878 293.419H162.933C165.616 293.378 167.809 291.461 167.833 289.123C167.943 278.412 167.919 268.38 166.459 263.29C165.81 261.038 163.345 259.425 160.716 259.531C155.599 259.673 146.419 260.595 139.041 261.336C135.444 261.698 132.171 262.022 129.803 262.224L129.801 262.221Z" fill="white"/>
<path opacity="0.6" d="M132.851 264.533C138.739 264.041 151.53 262.546 157.605 262.378C160.181 262.306 162.461 263.825 163.101 266.043C164.339 270.353 164.317 278.983 164.236 286.947C164.212 289.334 162.047 291.271 159.367 291.286L136.942 291.413C134.184 291.43 131.865 289.587 131.572 287.148L129.31 268.401C129.076 266.46 130.668 264.717 132.851 264.533Z" fill="white"/>
<g opacity="0.6">
<path d="M187.242 270.939C185.966 270.929 185.203 271.923 185.547 273.151L188.207 282.627C188.551 283.855 189.878 284.842 191.155 284.823L332.402 282.66C332.705 282.656 333.003 282.591 333.28 282.47C333.557 282.349 333.807 282.173 334.015 281.954C334.223 281.735 334.385 281.477 334.492 281.195C334.598 280.912 334.647 280.611 334.635 280.31L334.417 274.497C334.387 273.876 334.122 273.289 333.676 272.856C333.23 272.423 332.635 272.174 332.013 272.162L187.242 270.939Z" fill="white"/>
</g>
<path d="M161.226 353.379H161.152L133.088 353.539C129.045 353.563 125.665 350.835 125.225 347.196L122.397 323.736C122.316 323.04 122.378 322.334 122.578 321.663C122.778 320.991 123.112 320.367 123.561 319.827C124.095 319.191 124.752 318.668 125.491 318.29C126.231 317.911 127.039 317.683 127.869 317.621C130.232 317.424 133.483 317.107 137.062 316.738C144.478 315.993 153.71 315.067 158.91 314.921C162.603 314.847 165.969 317.042 166.917 320.337C168.463 325.718 168.494 335.937 168.382 346.821C168.346 350.4 165.143 353.314 161.226 353.379ZM128.061 319.899C127.538 319.935 127.028 320.075 126.56 320.311C126.092 320.546 125.677 320.873 125.337 321.271C125.083 321.572 124.893 321.922 124.779 322.299C124.664 322.676 124.628 323.072 124.671 323.463L127.499 346.923C127.798 349.409 130.196 351.273 133.074 351.255L161.138 351.096C163.783 351.009 166.069 349.15 166.093 346.798C166.203 336.087 166.179 326.055 164.719 320.966C164.07 318.713 161.605 317.129 158.976 317.206C153.858 317.347 144.673 318.271 137.292 319.011C133.701 319.373 130.435 319.697 128.063 319.899H128.061Z" fill="white"/>
<path opacity="0.6" d="M131.111 322.212C136.999 321.72 149.791 320.225 155.865 320.057C158.442 319.985 160.721 321.502 161.361 323.722C162.6 328.032 162.577 336.662 162.497 344.626C162.473 347.013 160.307 348.948 157.628 348.963L135.202 349.092C132.444 349.109 130.125 347.266 129.832 344.827L127.572 326.078C127.336 324.139 128.928 322.394 131.111 322.212Z" fill="white"/>
<g opacity="0.6">
<path d="M185.502 328.618C184.226 328.608 183.464 329.602 183.807 330.83L186.468 340.306C186.811 341.534 188.139 342.521 189.415 342.502L330.663 340.339C330.965 340.335 331.263 340.27 331.54 340.149C331.817 340.028 332.067 339.852 332.275 339.633C332.483 339.414 332.645 339.156 332.752 338.873C332.858 338.591 332.907 338.29 332.895 337.989L332.677 332.175C332.647 331.555 332.382 330.968 331.936 330.535C331.49 330.101 330.895 329.853 330.273 329.841L185.502 328.618Z" fill="white"/>
</g>
<path d="M158.955 412.869H158.878L130.814 413.028C126.769 413.052 123.389 410.325 122.951 406.685L120.123 383.223C120.042 382.527 120.103 381.821 120.304 381.149C120.504 380.477 120.839 379.852 121.289 379.313C121.823 378.677 122.479 378.154 123.218 377.776C123.958 377.397 124.766 377.17 125.595 377.109C127.96 376.911 131.216 376.584 134.797 376.224C142.598 375.441 151.438 374.553 156.637 374.409C160.448 374.409 163.697 376.531 164.643 379.822C166.189 385.203 166.22 395.422 166.108 406.308C166.081 409.886 162.871 412.809 158.955 412.869ZM125.787 379.389C125.264 379.424 124.754 379.564 124.286 379.799C123.818 380.035 123.402 380.361 123.063 380.76C122.809 381.062 122.619 381.411 122.505 381.788C122.39 382.165 122.354 382.561 122.397 382.953L125.225 406.414C125.524 408.9 127.922 410.762 130.802 410.746L158.864 410.585H158.921C161.602 410.544 163.795 408.626 163.819 406.289C163.929 395.578 163.905 385.546 162.445 380.455C161.796 378.204 159.333 376.647 156.702 376.697C151.585 376.838 142.405 377.762 135.029 378.502C131.422 378.864 128.159 379.188 125.789 379.39L125.787 379.389Z" fill="white"/>
<path opacity="0.6" d="M128.837 381.701C134.725 381.207 147.517 379.714 153.591 379.545C156.168 379.474 158.448 380.991 159.087 383.211C160.327 387.521 160.303 396.149 160.223 404.115C160.199 406.5 158.033 408.437 155.354 408.453L132.928 408.581C130.17 408.597 127.851 406.755 127.558 404.316L125.298 385.567C125.062 383.628 126.654 381.883 128.837 381.701Z" fill="white"/>
<g opacity="0.6">
<path d="M183.228 388.114C181.952 388.102 181.19 389.098 181.533 390.326L184.194 399.802C184.537 401.028 185.865 402.017 187.141 401.997L328.383 399.828C328.686 399.823 328.984 399.759 329.261 399.637C329.538 399.516 329.787 399.341 329.995 399.122C330.203 398.903 330.365 398.645 330.472 398.362C330.579 398.08 330.628 397.779 330.616 397.478L330.4 391.663C330.369 391.042 330.103 390.457 329.657 390.024C329.211 389.59 328.617 389.342 327.995 389.328L183.228 388.114Z" fill="white"/>
</g>
<path d="M241.247 5.7223C232.349 -0.685701 224.517 -0.685701 218.98 0.836585C216.529 1.51919 214.392 3.02916 212.932 5.10898C211.472 7.18881 210.78 9.70969 210.974 12.2417L212.908 38.1806L241.154 41.1686C241.154 41.1686 258.7 18.2863 241.247 5.7223ZM228.452 26.4C227.056 26.3764 225.699 25.9403 224.552 25.147C223.405 24.3536 222.52 23.2385 222.008 21.9428C221.496 20.647 221.38 19.2288 221.676 17.8675C221.971 16.5062 222.664 15.2629 223.668 14.295C224.671 13.327 225.94 12.6777 227.313 12.4293C228.686 12.1809 230.102 12.3446 231.382 12.8995C232.662 13.4545 233.748 14.3758 234.504 15.547C235.259 16.7183 235.649 18.0868 235.626 19.4794C235.593 21.3467 234.82 23.1247 233.474 24.4225C232.129 25.7203 230.322 26.4317 228.452 26.4Z" fill="url(#paint3_linear_2_101)"/>
<path d="M215.426 27.9583C215.178 27.8633 214.963 27.7001 214.805 27.4877C214.646 27.2753 214.551 27.0223 214.531 26.7583L214.224 22.6269C214.205 22.441 214.224 22.2532 214.279 22.0746C214.334 21.8961 214.425 21.7304 214.545 21.5873C214.665 21.4442 214.813 21.3266 214.98 21.2415C215.147 21.1564 215.329 21.1055 215.515 21.0917C215.702 21.078 215.889 21.1017 216.067 21.1615C216.244 21.2213 216.408 21.3159 216.548 21.4398C216.688 21.5638 216.802 21.7144 216.882 21.883C216.963 22.0515 217.009 22.2345 217.018 22.4211L217.326 26.5526C217.339 26.7355 217.317 26.9194 217.26 27.0937C217.202 27.2679 217.111 27.4292 216.991 27.5682C216.871 27.7072 216.725 27.8212 216.56 27.9038C216.396 27.9863 216.217 28.0357 216.034 28.0491C215.827 28.0651 215.619 28.034 215.426 27.9583ZM214.822 19.8634C214.574 19.7684 214.359 19.6051 214.201 19.3927C214.043 19.1802 213.948 18.9273 213.928 18.6634L213.693 15.5263C213.502 12.9492 214.209 10.3853 215.695 8.26942C217.182 6.15352 219.355 4.61584 221.848 3.91714C225.338 2.9482 229.015 2.85984 232.548 3.66C232.911 3.7407 233.226 3.96195 233.426 4.27509C233.625 4.58822 233.692 4.96758 233.611 5.32971C233.53 5.69185 233.308 6.00709 232.995 6.20609C232.681 6.4051 232.301 6.47156 231.938 6.39086C228.856 5.69155 225.647 5.76754 222.602 6.612C220.734 7.13828 219.107 8.29244 217.994 9.87911C216.881 11.4658 216.352 13.3875 216.496 15.3189L216.73 18.456C216.747 18.6911 216.704 18.9267 216.606 19.1409C216.508 19.3552 216.356 19.5411 216.167 19.6815C215.977 19.822 215.755 19.9122 215.521 19.944C215.287 19.9758 215.049 19.9481 214.828 19.8634H214.822Z" fill="#30ABBA"/>
<path d="M174.012 54.2623L174.234 41.2337C174.252 40.1673 174.486 39.1156 174.92 38.1411C175.354 37.1665 175.98 36.2892 176.761 35.5612C177.542 34.8333 178.461 34.2696 179.465 33.9038C180.469 33.538 181.536 33.3776 182.603 33.432L272.493 38.0383C274.418 38.1373 276.238 38.9495 277.595 40.3163C278.952 41.683 279.75 43.5059 279.832 45.4286L280.369 57.9531L174.012 54.2623Z" fill="url(#paint4_linear_2_101)"/>
<path d="M207.835 38.6743H207.825L203.957 38.6091C203.803 38.6078 203.656 38.5454 203.548 38.4358C203.44 38.3262 203.38 38.1782 203.381 38.0246C203.383 37.8709 203.445 37.7241 203.555 37.6164C203.665 37.5087 203.813 37.4489 203.967 37.4503H203.976L207.845 37.5154C207.999 37.5168 208.146 37.5791 208.254 37.6888C208.362 37.7984 208.422 37.9463 208.42 38.1C208.419 38.2537 208.357 38.4005 208.247 38.5082C208.137 38.6159 207.989 38.6756 207.835 38.6743Z" fill="#30ABBA"/>
<path d="M178.457 50.88C178.189 50.7765 177.96 50.5935 177.799 50.3556C177.639 50.1177 177.556 49.8364 177.561 49.5497L177.652 44.2834C177.688 42.1367 178.577 40.0922 180.122 38.5994C181.668 37.1065 183.745 36.2875 185.896 36.3223L200.116 36.564C200.481 36.5814 200.824 36.7399 201.073 37.0057C201.323 37.2715 201.459 37.6238 201.452 37.9878C201.446 38.3519 201.297 38.6992 201.039 38.956C200.78 39.2128 200.431 39.3589 200.067 39.3634L185.848 39.12C184.44 39.0993 183.081 39.6361 182.069 40.6127C181.057 41.5894 180.473 42.9264 180.446 44.3314L180.357 49.5977C180.349 49.9678 180.194 50.3197 179.927 50.5767C179.66 50.8336 179.302 50.9747 178.931 50.9692C178.769 50.9664 178.609 50.9362 178.457 50.88Z" fill="#30ABBA"/>
<path d="M145.911 49.0166L303.191 51.6875C305.931 51.7338 308.566 52.7444 310.632 54.5409C312.698 56.3375 314.061 58.8046 314.482 61.5069L314.602 62.2766C314.826 63.7119 314.733 65.1786 314.329 66.5741C313.925 67.9696 313.221 69.2601 312.265 70.3553C311.309 71.4504 310.124 72.3238 308.795 72.9141C307.465 73.5044 306.022 73.7974 304.567 73.7726L143.206 71.0298C142.327 71.0149 141.461 70.8221 140.659 70.4631C139.857 70.1041 139.136 69.5864 138.541 68.9412C137.945 68.2961 137.487 67.537 137.195 66.7099C136.902 65.8829 136.78 65.0051 136.837 64.1298L137.308 56.9298C137.448 54.76 138.42 52.7276 140.022 51.2542C141.624 49.7808 143.733 48.9795 145.911 49.0166Z" fill="url(#paint5_linear_2_101)"/>
<path d="M249.084 260.835C248.076 296.772 244.805 420.729 246.367 464.654C246.538 469.308 250.753 473.043 256.021 473.194C282.065 473.949 377.545 475.857 420.147 474.278C429.02 473.949 436.075 467.592 436.261 459.751C437.145 422.037 439.098 315.943 434.456 267.343C433.899 261.514 428.728 256.886 422.148 256.301C393.784 253.793 297.893 247.665 261.087 249.775C254.449 250.155 249.249 254.961 249.084 260.835Z" fill="#6165D7"/>
<path d="M260.715 269.208C259.311 277.608 254.891 305.551 256.294 315.883C256.498 317.393 261.151 318.614 267.045 318.703C291.318 319.066 374.13 319.867 409.734 319.138C416.144 319.006 421.174 317.679 421.521 316.037C423.324 307.466 428.504 281.45 427.16 271.233C426.945 269.602 422.007 268.272 415.664 268.126C389.404 267.523 301.407 266.086 271.153 266.51C265.465 266.589 260.948 267.754 260.715 269.208Z" fill="url(#paint6_linear_2_101)"/>
<g style="mix-blend-mode:soft-light" opacity="0.2">
<path d="M416.092 276.514C415.454 275.856 414.692 275.329 413.85 274.965C413.007 274.6 412.101 274.405 411.184 274.39L274.781 272.229C273.022 272.2 271.318 272.835 270.008 274.007C268.699 275.178 267.88 276.8 267.717 278.547L264.883 308.753C264.649 311.225 268.727 313.308 273.924 313.371L408.027 314.993C413.217 315.055 417.506 313.08 417.549 310.608L418.064 281.481C418.078 280.564 417.912 279.654 417.574 278.801C417.235 277.949 416.732 277.172 416.092 276.514Z" fill="white"/>
</g>
<path d="M283.583 338.986H271.739C266.356 338.986 261.992 343.342 261.992 348.715V348.951C261.992 354.324 266.356 358.68 271.739 358.68H283.583C288.966 358.68 293.33 354.324 293.33 348.951V348.715C293.33 343.342 288.966 338.986 283.583 338.986Z" fill="#010648"/>
<path d="M327.686 338.986H315.842C310.459 338.986 306.096 343.342 306.096 348.715V348.951C306.096 354.324 310.459 358.68 315.842 358.68H327.686C333.069 358.68 337.433 354.324 337.433 348.951V348.715C337.433 343.342 333.069 338.986 327.686 338.986Z" fill="#010648"/>
<path d="M370.05 338.986H358.206C352.823 338.986 348.459 343.342 348.459 348.715V348.951C348.459 354.324 352.823 358.68 358.206 358.68H370.05C375.433 358.68 379.796 354.324 379.796 348.951V348.715C379.796 343.342 375.433 338.986 370.05 338.986Z" fill="#010648"/>
<path d="M422.412 350.014C422.412 352.636 421.369 355.151 419.511 357.005C417.654 358.859 415.135 359.901 412.508 359.901H401.033C399.733 359.901 398.445 359.645 397.243 359.148C396.041 358.651 394.949 357.923 394.03 357.005C393.11 356.087 392.38 354.997 391.882 353.798C391.385 352.598 391.128 351.313 391.128 350.014C391.128 348.716 391.385 347.43 391.882 346.231C392.38 345.032 393.11 343.942 394.03 343.024C394.949 342.106 396.041 341.377 397.243 340.881C398.445 340.384 399.733 340.128 401.033 340.128H412.501C413.802 340.128 415.09 340.384 416.291 340.881C417.493 341.377 418.585 342.106 419.505 343.024C420.424 343.942 421.154 345.032 421.652 346.231C422.149 347.43 422.406 348.716 422.406 350.014H422.412Z" fill="url(#paint7_linear_2_101)"/>
<path opacity="0.63" d="M283.583 369.686H271.739C266.356 369.686 261.992 374.041 261.992 379.414V379.651C261.992 385.024 266.356 389.379 271.739 389.379H283.583C288.966 389.379 293.33 385.024 293.33 379.651V379.414C293.33 374.041 288.966 369.686 283.583 369.686Z" fill="#010648"/>
<path opacity="0.63" d="M327.686 369.686H315.842C310.459 369.686 306.096 374.041 306.096 379.414V379.651C306.096 385.024 310.459 389.379 315.842 389.379H327.686C333.069 389.379 337.433 385.024 337.433 379.651V379.414C337.433 374.041 333.069 369.686 327.686 369.686Z" fill="#010648"/>
<path opacity="0.63" d="M370.05 369.686H358.206C352.823 369.686 348.459 374.041 348.459 379.414V379.651C348.459 385.024 352.823 389.379 358.206 389.379H370.05C375.433 389.379 379.796 385.024 379.796 379.651V379.414C379.796 374.041 375.433 369.686 370.05 369.686Z" fill="#010648"/>
<path d="M413.573 369.686H401.729C396.346 369.686 391.982 374.041 391.982 379.414V379.651C391.982 385.024 396.346 389.379 401.729 389.379H413.573C418.956 389.379 423.319 385.024 423.319 379.651V379.414C423.319 374.041 418.956 369.686 413.573 369.686Z" fill="#010648"/>
<path opacity="0.63" d="M283.583 398.067H271.739C266.356 398.067 261.992 402.423 261.992 407.796V408.033C261.992 413.405 266.356 417.761 271.739 417.761H283.583C288.966 417.761 293.33 413.405 293.33 408.033V407.796C293.33 402.423 288.966 398.067 283.583 398.067Z" fill="#010648"/>
<path opacity="0.63" d="M327.686 398.067H315.842C310.459 398.067 306.096 402.423 306.096 407.796V408.033C306.096 413.405 310.459 417.761 315.842 417.761H327.686C333.069 417.761 337.433 413.405 337.433 408.033V407.796C337.433 402.423 333.069 398.067 327.686 398.067Z" fill="#010648"/>
<path opacity="0.63" d="M370.05 398.067H358.206C352.823 398.067 348.459 402.423 348.459 407.796V408.033C348.459 413.405 352.823 417.761 358.206 417.761H370.05C375.433 417.761 379.796 413.405 379.796 408.033V407.796C379.796 402.423 375.433 398.067 370.05 398.067Z" fill="#010648"/>
<path opacity="0.63" d="M283.583 427.61H271.739C266.356 427.61 261.992 431.965 261.992 437.338V437.575C261.992 442.948 266.356 447.303 271.739 447.303H283.583C288.966 447.303 293.33 442.948 293.33 437.575V437.338C293.33 431.965 288.966 427.61 283.583 427.61Z" fill="#010648"/>
<path opacity="0.63" d="M327.686 427.61H315.842C310.459 427.61 306.096 431.965 306.096 437.338V437.575C306.096 442.948 310.459 447.303 315.842 447.303H327.686C333.069 447.303 337.433 442.948 337.433 437.575V437.338C337.433 431.965 333.069 427.61 327.686 427.61Z" fill="#010648"/>
<path opacity="0.63" d="M370.05 427.61H358.206C352.823 427.61 348.459 431.965 348.459 437.338V437.575C348.459 442.948 352.823 447.303 358.206 447.303H370.05C375.433 447.303 379.796 442.948 379.796 437.575V437.338C379.796 431.965 375.433 427.61 370.05 427.61Z" fill="#010648"/>
<path d="M406.921 399.226H406.06C399.247 399.226 393.724 404.739 393.724 411.54V434.988C393.724 441.789 399.247 447.302 406.06 447.302H406.921C413.734 447.302 419.257 441.789 419.257 434.988V411.54C419.257 404.739 413.734 399.226 406.921 399.226Z" fill="url(#paint8_linear_2_101)"/>
<g opacity="0.7">
<path d="M402.428 280.774C402.428 281.041 402.375 281.304 402.273 281.55C402.171 281.796 402.021 282.02 401.833 282.208C401.644 282.396 401.42 282.545 401.173 282.647C400.927 282.749 400.663 282.801 400.396 282.801H394.014C393.475 282.801 392.959 282.587 392.578 282.207C392.197 281.827 391.983 281.312 391.982 280.774C391.982 280.236 392.196 279.721 392.577 279.34C392.958 278.96 393.475 278.746 394.014 278.746H400.396C400.935 278.746 401.452 278.96 401.833 279.34C402.214 279.721 402.428 280.236 402.428 280.774Z" fill="#AAE3EA"/>
<path d="M402.428 309.735C402.428 310.273 402.214 310.789 401.833 311.169C401.452 311.55 400.935 311.763 400.396 311.763H394.014C393.475 311.763 392.958 311.55 392.577 311.169C392.196 310.789 391.982 310.273 391.982 309.735C391.982 309.198 392.196 308.682 392.577 308.301C392.958 307.921 393.475 307.707 394.014 307.707H400.396C400.935 307.707 401.452 307.921 401.833 308.301C402.214 308.682 402.428 309.198 402.428 309.735Z" fill="#AAE3EA"/>
<path d="M393.143 293.517C393.143 294.054 392.929 294.57 392.548 294.951C392.167 295.331 391.65 295.545 391.111 295.545C390.573 295.544 390.056 295.33 389.676 294.95C389.295 294.57 389.081 294.054 389.081 293.517V287.143C389.081 286.606 389.295 286.09 389.676 285.71C390.057 285.33 390.573 285.117 391.111 285.117C391.65 285.117 392.166 285.33 392.547 285.71C392.928 286.09 393.143 286.605 393.143 287.143V293.517Z" fill="#AAE3EA"/>
<path d="M393.143 305.102C393.143 305.639 392.928 306.155 392.547 306.535C392.166 306.915 391.65 307.128 391.111 307.128C390.573 307.128 390.057 306.915 389.676 306.535C389.295 306.155 389.081 305.639 389.081 305.102V298.73C389.081 298.192 389.295 297.677 389.676 297.297C390.057 296.917 390.573 296.703 391.111 296.703C391.65 296.703 392.166 296.917 392.547 297.297C392.928 297.677 393.143 298.192 393.143 298.73V305.102Z" fill="#AAE3EA"/>
<path d="M407.07 293.517C407.07 294.054 406.856 294.57 406.476 294.95C406.095 295.33 405.579 295.544 405.04 295.545C404.501 295.545 403.984 295.331 403.603 294.951C403.222 294.57 403.008 294.054 403.008 293.517V287.143C403.008 286.877 403.061 286.613 403.163 286.367C403.265 286.121 403.415 285.898 403.604 285.71C403.792 285.521 404.016 285.372 404.263 285.27C404.509 285.169 404.773 285.116 405.04 285.117C405.307 285.117 405.571 285.169 405.817 285.271C406.063 285.373 406.287 285.522 406.476 285.71C406.664 285.898 406.814 286.122 406.916 286.367C407.018 286.613 407.07 286.877 407.07 287.143V293.517Z" fill="#AAE3EA"/>
<path d="M407.07 305.102C407.07 305.368 407.018 305.631 406.916 305.877C406.814 306.123 406.664 306.346 406.476 306.535C406.287 306.723 406.063 306.872 405.817 306.974C405.571 307.076 405.307 307.128 405.04 307.128C404.773 307.128 404.509 307.076 404.263 306.974C404.016 306.873 403.792 306.723 403.604 306.535C403.415 306.347 403.265 306.124 403.163 305.878C403.061 305.632 403.008 305.368 403.008 305.102V298.73C403.008 298.464 403.061 298.2 403.163 297.954C403.265 297.708 403.415 297.485 403.604 297.296C403.792 297.108 404.016 296.959 404.263 296.857C404.509 296.756 404.773 296.703 405.04 296.703C405.307 296.703 405.571 296.756 405.817 296.858C406.063 296.96 406.287 297.109 406.476 297.297C406.664 297.485 406.814 297.709 406.916 297.954C407.018 298.2 407.07 298.464 407.07 298.73V305.102Z" fill="#AAE3EA"/>
</g>
<path d="M229.001 154.788C237.108 146.696 237.108 133.576 229.001 125.484C220.894 117.392 207.75 117.392 199.643 125.484C191.536 133.576 191.536 146.696 199.643 154.788C207.75 162.88 220.894 162.88 229.001 154.788Z" fill="url(#paint9_linear_2_101)"/>
<path d="M228.513 154.3C236.35 146.478 236.35 133.794 228.513 125.972C220.676 118.149 207.969 118.149 200.131 125.972C192.294 133.794 192.294 146.478 200.131 154.3C207.969 162.123 220.676 162.123 228.513 154.3Z" fill="url(#paint10_linear_2_101)"/>
<path opacity="0.78" d="M197.774 132.394C197.683 132.395 197.594 132.374 197.513 132.333C197.445 132.298 197.384 132.251 197.334 132.193C197.284 132.136 197.246 132.069 197.222 131.997C197.198 131.924 197.189 131.848 197.195 131.772C197.2 131.696 197.221 131.622 197.255 131.554C199.116 127.873 202.121 124.892 205.82 123.057C209.519 121.221 213.714 120.63 217.777 121.371C217.852 121.385 217.924 121.413 217.988 121.454C218.052 121.496 218.107 121.549 218.15 121.611C218.193 121.674 218.224 121.744 218.24 121.819C218.256 121.893 218.257 121.97 218.244 122.044C218.23 122.119 218.202 122.19 218.16 122.254C218.119 122.318 218.066 122.373 218.003 122.416C217.941 122.46 217.87 122.49 217.796 122.506C217.721 122.522 217.644 122.523 217.57 122.51C216.501 122.316 215.417 122.219 214.33 122.218C211.005 122.209 207.742 123.127 204.911 124.868C202.079 126.609 199.79 129.104 198.301 132.072C198.252 132.17 198.177 132.252 198.084 132.309C197.99 132.365 197.883 132.395 197.774 132.394Z" fill="white"/>
<path opacity="0.78" d="M231.284 144.459C233.439 135.346 227.785 126.215 218.654 124.064C209.524 121.913 200.376 127.557 198.221 136.67C196.066 145.784 201.721 154.915 210.851 157.066C219.981 159.217 229.129 153.573 231.284 144.459Z" fill="white"/>
<path d="M221.492 146.743L222.734 150.514C221.246 151.561 219.478 152.19 217.432 152.4C215.773 152.585 214.094 152.406 212.512 151.874C210.984 151.369 209.606 150.492 208.503 149.323C207.423 148.215 206.614 146.775 206.076 145.001L203.843 145.234L203.586 142.762L205.475 142.565L205.413 141.974C205.401 141.857 205.389 141.684 205.377 141.449C205.365 141.214 205.351 141.043 205.339 140.935L203.387 141.137L203.127 138.667L205.465 138.423C205.671 136.627 206.328 134.912 207.375 133.437C209.218 130.829 211.779 129.354 215.057 129.012C216.853 128.803 218.673 128.973 220.398 129.511L219.838 133.572C218.564 133.166 217.221 133.019 215.888 133.14C214.074 133.331 212.71 134.107 211.795 135.468C211.364 136.075 211.071 136.868 210.916 137.847L219.6 136.942L219.859 139.413L210.652 140.373C210.652 140.607 210.677 140.968 210.729 141.456L210.787 142.013L220.029 141.05L220.288 143.522L211.529 144.434C211.873 145.431 212.341 146.204 212.934 146.751C214.105 147.825 215.667 148.26 217.619 148.058C218.998 147.939 220.327 147.488 221.492 146.743Z" fill="url(#paint11_linear_2_101)"/>
<path d="M298.967 141.071C313.08 126.984 313.08 104.146 298.967 90.0597C284.855 75.9733 261.974 75.9733 247.861 90.0597C233.748 104.146 233.748 126.984 247.861 141.071C261.974 155.157 284.855 155.157 298.967 141.071Z" fill="url(#paint12_linear_2_101)"/>
<path d="M298.118 140.223C311.762 126.605 311.762 104.525 298.118 90.907C284.475 77.2886 262.354 77.2886 248.71 90.907C235.066 104.525 235.066 126.605 248.71 140.223C262.354 153.842 284.475 153.842 298.118 140.223Z" fill="url(#paint13_linear_2_101)"/>
<path opacity="0.78" d="M244.604 101.657C244.514 101.657 244.425 101.635 244.345 101.594C244.277 101.56 244.216 101.513 244.167 101.455C244.117 101.398 244.079 101.331 244.055 101.259C244.031 101.187 244.022 101.111 244.027 101.035C244.033 100.959 244.053 100.885 244.088 100.817C246.812 95.3879 251 90.8251 256.181 87.6421C261.362 84.4592 267.33 82.7822 273.414 82.8C275.4 82.7993 277.383 82.9771 279.337 83.3314C279.412 83.3452 279.484 83.3735 279.548 83.4148C279.612 83.4562 279.667 83.5097 279.71 83.5723C279.754 83.635 279.784 83.7055 279.8 83.7799C279.816 83.8543 279.817 83.9312 279.804 84.006C279.79 84.0809 279.761 84.1523 279.72 84.2162C279.679 84.2801 279.625 84.3352 279.562 84.3784C279.499 84.4216 279.429 84.4521 279.354 84.4681C279.28 84.484 279.203 84.4852 279.128 84.4714C277.242 84.1296 275.33 83.9575 273.414 83.9571C267.544 83.9408 261.787 85.5594 256.789 88.6309C251.791 91.7024 247.751 96.105 245.123 101.343C245.074 101.438 245 101.518 244.908 101.574C244.817 101.629 244.712 101.658 244.604 101.657Z" fill="white"/>
<path opacity="0.78" d="M295.085 137.194C306.632 125.667 306.632 106.98 295.085 95.4533C283.537 83.927 264.814 83.927 253.266 95.4533C241.719 106.98 241.719 125.667 253.266 137.194C264.814 148.72 283.537 148.72 295.085 137.194Z" fill="white"/>
<path d="M285.63 125.373L287.519 131.1C285.261 132.687 282.582 133.643 279.48 133.966C276.964 134.247 274.418 133.975 272.019 133.169C269.705 132.399 267.619 131.067 265.948 129.293C264.305 127.614 263.075 125.431 262.26 122.743L258.877 123.086L258.482 119.345L261.336 119.049L261.243 118.15C261.225 117.979 261.206 117.71 261.187 117.357C261.168 117.003 261.149 116.738 261.13 116.561L258.169 116.87L257.776 113.122L261.319 112.754C261.693 109.868 262.659 107.349 264.216 105.195C267.01 101.241 270.893 99.004 275.864 98.484C278.753 98.1846 281.453 98.4371 283.962 99.2417L283.104 105.413C281.006 104.778 279.002 104.559 277.092 104.758C274.344 105.044 272.276 106.22 270.887 108.286C270.235 109.209 269.79 110.409 269.553 111.886L282.721 110.515L283.112 114.262L269.153 115.718C269.153 116.074 269.192 116.622 269.271 117.36L269.359 118.205L283.385 116.743L283.777 120.49L270.504 121.886C271.018 123.398 271.729 124.569 272.636 125.398C274.409 127.027 276.777 127.687 279.739 127.378C281.999 127.145 283.963 126.477 285.63 125.373Z" fill="url(#paint14_linear_2_101)"/>
<path d="M324.632 222.374C339.154 207.879 339.154 184.379 324.632 169.884C310.11 155.39 286.566 155.39 272.044 169.884C257.522 184.379 257.522 207.879 272.044 222.374C286.566 236.869 310.11 236.869 324.632 222.374Z" fill="url(#paint15_linear_2_101)"/>
<path d="M323.758 221.501C337.796 207.489 337.796 184.77 323.758 170.757C309.719 156.744 286.957 156.744 272.918 170.757C258.88 184.77 258.88 207.489 272.918 221.501C286.957 235.514 309.719 235.514 323.758 221.501Z" fill="url(#paint16_linear_2_101)"/>
<path opacity="0.78" d="M268.694 181.803C268.603 181.804 268.514 181.783 268.433 181.742C268.365 181.708 268.304 181.66 268.254 181.603C268.204 181.545 268.166 181.478 268.143 181.406C268.119 181.334 268.109 181.257 268.115 181.181C268.12 181.106 268.141 181.031 268.175 180.963C270.977 175.379 275.285 170.685 280.613 167.411C285.942 164.136 292.08 162.411 298.338 162.429C300.38 162.428 302.418 162.611 304.428 162.975C304.579 163.003 304.713 163.089 304.801 163.215C304.888 163.342 304.922 163.497 304.894 163.648C304.867 163.799 304.78 163.933 304.654 164.02C304.527 164.108 304.371 164.141 304.22 164.114C302.279 163.762 300.31 163.586 298.338 163.586C292.295 163.568 286.367 165.234 281.221 168.396C276.076 171.559 271.917 176.092 269.213 181.486C269.164 181.582 269.09 181.662 268.998 181.718C268.907 181.774 268.801 181.804 268.694 181.803Z" fill="white"/>
<path opacity="0.78" d="M320.637 218.387C332.52 206.527 332.52 187.297 320.637 175.437C308.755 163.577 289.489 163.577 277.607 175.437C265.724 187.297 265.724 206.527 277.607 218.387C289.489 230.247 308.755 230.247 320.637 218.387Z" fill="white"/>
<path d="M309.043 207.525L310.611 213.854C308.047 215.383 305.079 216.197 301.706 216.297C298.97 216.397 296.245 215.899 293.723 214.836C291.289 213.819 289.146 212.213 287.487 210.165C285.856 208.222 284.711 205.765 284.052 202.793L280.373 202.901L280.253 198.826L283.356 198.735L283.329 197.76C283.329 197.57 283.329 197.282 283.329 196.903C283.329 196.524 283.329 196.233 283.329 196.046L280.108 196.14L279.99 192.065L283.84 191.954C284.479 188.868 285.725 186.228 287.578 184.034C290.911 179.993 295.28 177.893 300.684 177.734C303.827 177.641 306.719 178.131 309.359 179.203L307.94 185.791C305.729 184.937 303.589 184.541 301.519 184.601C298.53 184.688 296.204 185.79 294.539 187.906C293.76 188.849 293.184 190.11 292.809 191.69L307.124 191.271L307.243 195.345L292.067 195.79C292.04 196.174 292.04 196.767 292.067 197.57L292.093 198.489L307.329 198.043L307.447 202.116L293.02 202.539C293.451 204.211 294.122 205.531 295.035 206.499C296.818 208.401 299.318 209.305 302.537 209.21C304.987 209.137 307.156 208.575 309.043 207.525Z" fill="url(#paint17_linear_2_101)"/>
<path d="M373.009 149.333C375.095 134.458 364.706 120.712 349.803 118.629C334.901 116.547 321.129 126.917 319.043 141.791C316.956 156.666 327.345 170.412 342.248 172.495C357.15 174.577 370.922 164.207 373.009 149.333Z" fill="url(#paint18_linear_2_101)"/>
<path d="M371.285 153.034C375.419 139.113 367.464 124.483 353.516 120.357C339.569 116.23 324.912 124.171 320.778 138.092C316.644 152.013 324.599 166.643 338.546 170.769C352.493 174.896 367.151 166.955 371.285 153.034Z" fill="url(#paint19_linear_2_101)"/>
<path opacity="0.78" d="M324.322 135.228C324.231 135.228 324.141 135.207 324.061 135.166C323.923 135.097 323.819 134.976 323.771 134.83C323.723 134.684 323.735 134.525 323.805 134.388C325.87 130.27 329.046 126.81 332.974 124.396C336.902 121.981 341.428 120.709 346.041 120.722C347.547 120.722 349.05 120.857 350.532 121.126C350.607 121.14 350.679 121.168 350.743 121.209C350.806 121.25 350.862 121.304 350.905 121.366C350.948 121.429 350.979 121.499 350.995 121.573C351.011 121.648 351.012 121.724 350.999 121.799C350.985 121.874 350.957 121.945 350.915 122.009C350.874 122.073 350.821 122.128 350.758 122.171C350.695 122.214 350.625 122.245 350.551 122.261C350.476 122.277 350.399 122.278 350.324 122.265C348.911 122.009 347.477 121.881 346.041 121.881C341.643 121.868 337.328 123.08 333.582 125.382C329.837 127.684 326.809 130.983 324.84 134.909C324.792 135.005 324.718 135.086 324.626 135.142C324.535 135.198 324.429 135.228 324.322 135.228Z" fill="white"/>
<path opacity="0.78" d="M362.377 161.877C371.083 153.187 371.083 139.099 362.377 130.409C353.672 121.719 339.556 121.719 330.85 130.409C322.144 139.099 322.144 153.187 330.85 161.877C339.556 170.567 353.672 170.567 362.377 161.877Z" fill="white"/>
<path d="M352.085 156.05L352.126 160.968C349.978 161.643 347.658 161.723 345.165 161.206C343.138 160.804 341.225 159.963 339.559 158.743C337.951 157.572 336.659 156.021 335.8 154.229C334.944 152.515 334.533 150.515 334.566 148.229L331.848 147.667L332.473 144.657L334.767 145.131L334.917 144.41C334.946 144.269 334.998 144.058 335.07 143.779C335.142 143.499 335.195 143.289 335.224 143.148L332.849 142.649L333.474 139.641L336.32 140.229C337.326 138.079 338.7 136.359 340.442 135.069C343.595 132.686 347.168 131.907 351.161 132.734C353.356 133.16 355.437 134.043 357.268 135.324L355.075 139.911C353.723 138.952 352.192 138.274 350.572 137.918C348.363 137.461 346.463 137.863 344.871 139.126C344.136 139.682 343.492 140.506 342.939 141.6L353.516 143.789L352.89 146.799L341.677 144.478C341.589 144.756 341.485 145.19 341.361 145.785L341.22 146.47L352.48 148.8L351.855 151.81L341.193 149.604C341.217 150.907 341.478 151.993 341.977 152.861C342.953 154.565 344.63 155.664 347.008 156.158C348.82 156.527 350.513 156.491 352.085 156.05Z" fill="url(#paint20_linear_2_101)"/>
<path d="M68.04 462.475C68.04 462.475 66.9923 468.394 66.4788 474.254C66.4327 474.797 66.4973 475.344 66.6689 475.862C66.8404 476.38 67.1153 476.858 67.4769 477.267C67.8385 477.675 68.2794 478.007 68.7729 478.241C69.2664 478.475 69.8023 478.607 70.3483 478.629C78.1646 478.953 94.8877 479.585 100.887 479.314C101.096 479.304 101.3 479.244 101.482 479.139C101.663 479.035 101.817 478.888 101.931 478.712C102.044 478.536 102.114 478.335 102.134 478.127C102.154 477.919 102.124 477.709 102.046 477.514C101.766 476.813 101.226 476.246 100.538 475.93L72.9177 463.26L68.04 462.475Z" fill="url(#paint21_linear_2_101)"/>
<path d="M67.1812 458.998L68.0228 466.078C68.0228 466.078 72.8609 468.326 76.1654 465.794L74.1628 457.908L67.1812 458.998Z" fill="url(#paint22_linear_2_101)"/>
<path d="M67.8132 325.886C67.4508 327.735 65.8622 418.152 75.5419 458.671C75.6217 458.99 75.5841 459.327 75.436 459.62C75.2878 459.914 75.039 460.145 74.7347 460.27C72.2147 461.243 69.5484 461.784 66.848 461.87C66.3225 461.887 65.8062 461.729 65.3801 461.422C64.954 461.114 64.6421 460.674 64.4933 460.171C61.7265 450.77 48.4623 403.668 46.7328 358.673C44.7989 308.395 46.7328 356.959 46.7328 356.959L47.8663 325.881L67.8132 325.886Z" fill="#010648"/>
<path d="M36.2665 465.564C36.2665 465.564 34.5988 468.552 32.9844 476.493C32.9143 476.83 32.9162 477.179 32.9899 477.516C33.0635 477.853 33.2074 478.171 33.4121 478.449C33.6168 478.727 33.8778 478.959 34.1781 479.13C34.4784 479.301 34.8113 479.407 35.1553 479.441C37.7315 479.695 41.7109 480.021 44.8934 479.998C45.2401 479.997 45.5828 479.923 45.8988 479.781C46.2148 479.638 46.497 479.431 46.727 479.172C46.9569 478.913 47.1295 478.608 47.2332 478.278C47.3369 477.947 47.3695 477.599 47.3288 477.255C46.9767 474.358 45.8775 469.603 42.4855 465.897L36.2665 465.564Z" fill="url(#paint23_linear_2_101)"/>
<path d="M34.8015 456.456L36.768 467.163C36.768 467.163 38.7122 468.607 42.5576 467.561L41.6199 456.041L34.8015 456.456Z" fill="url(#paint24_linear_2_101)"/>
<path d="M29.4893 328.665C21.5699 376.368 31.2068 446.57 34.4562 460.31C34.5522 460.722 34.7681 461.096 35.0768 461.385C35.3855 461.675 35.7731 461.867 36.1909 461.937C37.6405 462.177 40.0295 462.374 42.3842 461.691C42.7798 461.575 43.1291 461.339 43.3829 461.014C43.6367 460.69 43.7824 460.294 43.7994 459.883C44.2356 448.774 43.4559 380.578 50.8291 353.628C51.2029 352.263 52.0385 351.069 53.194 350.249L67.5161 340.087L68.6153 323.659L29.4893 328.665Z" fill="#010648"/>
<path d="M79.9507 238.272C56.2185 237.881 30.032 244.493 30.032 244.493C22.9577 285.694 28.7954 333.216 28.7954 333.216C47.1725 338.016 67.894 330.276 67.894 330.276C70.9477 313.054 85.1959 264.588 85.1959 264.588C96.7924 263.153 106.343 259.814 114.211 255.398C108.21 248.455 105.382 239.626 104.154 234.399C95.7619 237.003 87.2707 238.394 79.9507 238.272Z" fill="url(#paint25_linear_2_101)"/>
<path d="M150.053 203.381C147.723 200.57 144.772 201.9 144.772 201.9C141.279 216.624 122.96 228.564 104.154 234.399C105.382 239.621 108.21 248.457 114.211 255.398C145.433 237.876 150.053 203.381 150.053 203.381Z" fill="url(#paint26_linear_2_101)"/>
<path d="M149.488 204.096C149.732 204.869 146.912 206.049 145.243 202.882C145.184 201.365 144.26 194.865 145.169 193.625C150.007 187.046 159.383 178.8 159.383 178.8C160.968 180.36 159.663 181.886 159.663 181.886L155.111 186.617C156.065 188.331 157.224 189.783 157.768 191.859C158.167 193.444 157.939 195.121 157.133 196.543C156.334 197.979 155.244 199.846 154.213 201.307C152.267 204.074 149.488 204.096 149.488 204.096Z" fill="url(#paint27_linear_2_101)"/>
<path d="M153.126 189.689L148.978 193.2L147.676 196.694L151.374 200.787C151.374 200.787 152.618 193.857 153.542 192.357C154.466 190.857 153.985 190.128 153.126 189.689Z" fill="url(#paint28_linear_2_101)"/>
<path d="M39.1347 267.429L30.032 244.491C30.032 244.491 7.86436 259.526 4.21814 278.587C8.40709 278.895 16.0293 279.982 23.4883 283.743C25.1285 274.742 39.1347 267.429 39.1347 267.429Z" fill="url(#paint29_linear_2_101)"/>
<path d="M58.5062 289.013C58.5062 289.013 33.6181 303.053 25.2196 291.07C23.4763 288.581 23.059 286.099 23.4883 283.749C16.0293 279.987 8.40709 278.901 4.21814 278.592C3.11895 284.34 3.70289 290.451 7.08291 296.628C21.7932 323.487 61.8003 295.143 61.8003 295.143L58.5062 289.013Z" fill="url(#paint30_linear_2_101)"/>
<path d="M55.516 306.775L69.0997 259.428C69.1732 259.165 69.3238 258.93 69.5322 258.752C69.7406 258.575 69.9973 258.464 70.2693 258.434C72.7304 258.146 79.8614 257.342 88.0951 256.647C98.0135 255.809 109.531 255.13 116.413 255.708C116.639 255.726 116.857 255.799 117.048 255.92C117.24 256.041 117.398 256.208 117.51 256.404C117.622 256.601 117.684 256.822 117.691 257.048C117.698 257.275 117.649 257.499 117.548 257.702C113.634 265.605 97.5361 297.754 89.4811 308.285C89.3501 308.458 89.1804 308.597 88.9856 308.693C88.7909 308.788 88.5764 308.836 88.3596 308.834L56.8454 308.542C56.6309 308.541 56.4196 308.491 56.228 308.395C56.0364 308.298 55.8697 308.159 55.741 307.988C55.6122 307.817 55.5249 307.618 55.4859 307.408C55.4469 307.197 55.4572 306.981 55.516 306.775Z" fill="#7D97F4"/>
<path d="M89.5051 252.542L99.3532 250.905C99.4732 250.885 99.5964 250.896 99.7109 250.937C99.8253 250.979 99.927 251.049 100.006 251.141C100.085 251.234 100.139 251.345 100.163 251.464C100.186 251.583 100.178 251.706 100.14 251.822L99.166 254.77C99.1241 254.896 99.0476 255.007 98.9453 255.092C98.8429 255.176 98.7188 255.23 98.5872 255.247L89.1101 256.512C88.997 256.527 88.8821 256.514 88.775 256.475C88.668 256.436 88.572 256.371 88.4952 256.287C88.4185 256.203 88.3633 256.101 88.3343 255.991C88.3052 255.881 88.3033 255.766 88.3286 255.655L88.9332 253.083C88.9633 252.946 89.0339 252.822 89.1358 252.725C89.2378 252.628 89.3664 252.565 89.5051 252.542Z" fill="#6165D7"/>
<path d="M82.1302 260.863L82.9426 256.646C82.982 256.44 83.0869 256.252 83.2415 256.11C83.3962 255.969 83.5925 255.881 83.8013 255.859L103.692 253.845C103.847 253.829 104.004 253.85 104.15 253.907C104.295 253.965 104.425 254.056 104.527 254.173C104.63 254.291 104.703 254.431 104.74 254.583C104.778 254.735 104.778 254.893 104.741 255.045L103.475 260.301C103.426 260.505 103.311 260.688 103.149 260.823C102.987 260.957 102.786 261.035 102.575 261.046L83.1367 262.023C82.9888 262.03 82.8413 262.003 82.7053 261.945C82.5693 261.887 82.4483 261.799 82.3514 261.687C82.2545 261.575 82.1843 261.443 82.146 261.3C82.1076 261.157 82.1023 261.008 82.1302 260.863Z" fill="#6165D7"/>
<path d="M58.7982 295.335C58.7982 295.335 56.909 287.57 57.6698 284.815C58.4306 282.06 59.9111 278.517 64.8403 279.303C69.7695 280.09 75.5849 282.171 75.5849 282.171C75.5849 282.171 75.2912 285.759 71.5437 284.602L73.8674 286.395C73.8674 286.395 73.5359 289.269 70.3706 287.734L72.5312 290.114C72.5312 290.114 71.1727 292.474 68.8438 290.961C66.5149 289.447 65.4002 296.271 58.7982 295.335Z" fill="url(#paint31_linear_2_101)"/>
<path d="M55.9111 219.041L48.3541 240.838C48.2929 241.013 48.2954 241.204 48.361 241.377C48.4267 241.55 48.5513 241.694 48.7131 241.785C50.7741 242.921 58.1885 246.204 67.1245 240.549C67.586 240.26 67.9782 239.874 68.2732 239.418C68.5683 238.961 68.759 238.445 68.8317 237.907L71.2774 219.05L55.9111 219.041Z" fill="url(#paint32_linear_2_101)"/>
<path d="M75.408 199.714C75.5797 200.057 78.4256 225.13 78.4256 225.13L64.0485 226.449L57.8106 203.078C57.8106 203.078 72.5793 193.975 75.408 199.714Z" fill="url(#paint33_linear_2_101)"/>
<path d="M62.489 207.218L64.8076 219.771C64.8363 219.931 64.8872 220.087 64.9588 220.233C65.4019 221.133 67.1503 224.115 70.0992 222.144C72.7751 220.354 75.2517 218.762 77.2972 218.726C77.7414 218.717 78.1728 218.875 78.507 219.167C78.8412 219.459 79.054 219.866 79.104 220.306C79.3616 222.585 79.8494 227.729 79.5883 232.263C79.5606 232.707 79.3675 233.124 79.047 233.432C78.7266 233.741 78.3021 233.918 77.8571 233.93C75.0765 234.015 69.2061 234.031 64.4813 232.939C64.1677 232.867 63.8791 232.713 63.6461 232.491C63.4131 232.27 63.2441 231.99 63.1571 231.681C62.2984 228.595 59.6449 219.249 58.5027 216.756C57.4293 214.418 53.9669 213.931 52.4915 213.83C52.2542 213.814 52.0226 213.75 51.8108 213.642C51.5991 213.534 51.4117 213.384 51.2601 213.201C50.1695 211.893 48.2064 208.682 52.136 205.829C52.3308 205.689 52.4952 205.51 52.6195 205.305C52.7437 205.099 52.8251 204.871 52.8589 204.633C52.8928 204.396 52.8783 204.154 52.8163 203.922C52.7544 203.69 52.6463 203.473 52.4984 203.283C51.2584 201.687 50.0939 199.017 52.9896 196.394C55.9402 193.728 59.1193 194.729 60.9982 195.771C61.3664 195.972 61.7933 196.037 62.2045 195.955C62.6157 195.873 62.985 195.65 63.2482 195.324C63.5642 194.943 64.0502 194.695 64.7939 194.88C65.033 194.934 65.2809 194.938 65.5217 194.891C65.7624 194.845 65.9907 194.748 66.192 194.608C66.3933 194.468 66.5631 194.288 66.6905 194.079C66.818 193.87 66.9003 193.636 66.9322 193.394C67.207 191.431 68.3062 189.069 71.8717 188.549C78.2075 187.629 81.0482 194.045 80.7322 198.449C80.4162 202.853 73.4895 203.46 69.6183 202.548C66.6763 201.862 63.997 204.451 62.8823 205.737C62.7095 205.938 62.5844 206.176 62.5163 206.432C62.4482 206.689 62.4389 206.957 62.489 207.218Z" fill="#010648"/>
<path d="M59.3924 221.314C59.3924 221.314 59.614 213.619 56.5294 212.743C53.4448 211.867 49.9755 213.972 52.4297 218.698C55.4748 224.592 59.3924 221.314 59.3924 221.314Z" fill="url(#paint34_linear_2_101)"/>
<defs>
<linearGradient id="paint0_linear_2_101" x1="490.449" y1="532.877" x2="151.251" y2="166.075" gradientUnits="userSpaceOnUse">
<stop stop-color="#DAE3FE"/>
<stop offset="1" stop-color="#E9EFFD"/>
</linearGradient>
<linearGradient id="paint1_linear_2_101" x1="355.262" y1="347.105" x2="449.569" y2="347.105" gradientUnits="userSpaceOnUse">
<stop stop-color="#DAE3FE"/>
<stop offset="1" stop-color="#E9EFFD"/>
</linearGradient>
<linearGradient id="paint2_linear_2_101" x1="49.3606" y1="488.937" x2="376.754" y2="71.3174" gradientUnits="userSpaceOnUse">
<stop stop-color="#09005D"/>
<stop offset="1" stop-color="#1A0F91"/>
</linearGradient>
<linearGradient id="paint3_linear_2_101" x1="270.195" y1="-30.5977" x2="151.817" y2="117.272" gradientUnits="userSpaceOnUse">
<stop stop-color="#09005D"/>
<stop offset="1" stop-color="#1A0F91"/>
</linearGradient>
<linearGradient id="paint4_linear_2_101" x1="280.66" y1="-20.5666" x2="163.23" y2="127.938" gradientUnits="userSpaceOnUse">
<stop stop-color="#09005D"/>
<stop offset="1" stop-color="#1A0F91"/>
</linearGradient>
<linearGradient id="paint5_linear_2_101" x1="266.022" y1="-11.6425" x2="184.161" y2="132.038" gradientUnits="userSpaceOnUse">
<stop stop-color="#09005D"/>
<stop offset="1" stop-color="#1A0F91"/>
</linearGradient>
<linearGradient id="paint6_linear_2_101" x1="328.267" y1="345.749" x2="346.244" y2="271.099" gradientUnits="userSpaceOnUse">
<stop stop-color="#09005D"/>
<stop offset="1" stop-color="#1A0F91"/>
</linearGradient>
<linearGradient id="paint7_linear_2_101" x1="410.825" y1="229.202" x2="405.621" y2="385.016" gradientUnits="userSpaceOnUse">
<stop stop-color="#FC9D8A"/>
<stop offset="1" stop-color="#FC9D8A"/>
</linearGradient>
<linearGradient id="paint8_linear_2_101" x1="393.724" y1="423.264" x2="419.257" y2="423.264" gradientUnits="userSpaceOnUse">
<stop stop-color="#09005D"/>
<stop offset="1" stop-color="#1A0F91"/>
</linearGradient>
<linearGradient id="paint9_linear_2_101" x1="185.915" y1="173.047" x2="213.7" y2="140.737" gradientUnits="userSpaceOnUse">
<stop stop-color="#E1473D"/>
<stop offset="1" stop-color="#E9605A"/>
</linearGradient>
<linearGradient id="paint10_linear_2_101" x1="203.358" y1="125.133" x2="244.973" y2="178.936" gradientUnits="userSpaceOnUse">
<stop stop-color="#FC9D8A"/>
<stop offset="1" stop-color="#FF8F79"/>
</linearGradient>
<linearGradient id="paint11_linear_2_101" x1="214.335" y1="129.915" x2="208.342" y2="169.27" gradientUnits="userSpaceOnUse">
<stop stop-color="#FC9D8A"/>
<stop offset="1" stop-color="#FF8F79"/>
</linearGradient>
<linearGradient id="paint12_linear_2_101" x1="223.962" y1="172.856" x2="272.331" y2="116.608" gradientUnits="userSpaceOnUse">
<stop stop-color="#E1473D"/>
<stop offset="1" stop-color="#E9605A"/>
</linearGradient>
<linearGradient id="paint13_linear_2_101" x1="254.326" y1="89.4468" x2="326.773" y2="183.111" gradientUnits="userSpaceOnUse">
<stop stop-color="#FC9D8A"/>
<stop offset="1" stop-color="#FF8F79"/>
</linearGradient>
<linearGradient id="paint14_linear_2_101" x1="274.778" y1="99.8633" x2="265.69" y2="159.553" gradientUnits="userSpaceOnUse">
<stop stop-color="#FC9D8A"/>
<stop offset="1" stop-color="#FF8F79"/>
</linearGradient>
<linearGradient id="paint15_linear_2_101" x1="247.453" y1="255.083" x2="297.223" y2="197.205" gradientUnits="userSpaceOnUse">
<stop stop-color="#E1473D"/>
<stop offset="1" stop-color="#E9605A"/>
</linearGradient>
<linearGradient id="paint16_linear_2_101" x1="278.698" y1="169.255" x2="353.241" y2="265.631" gradientUnits="userSpaceOnUse">
<stop stop-color="#FC9D8A"/>
<stop offset="1" stop-color="#FF8F79"/>
</linearGradient>
<linearGradient id="paint17_linear_2_101" x1="297.494" y1="179.345" x2="287.211" y2="243.693" gradientUnits="userSpaceOnUse">
<stop stop-color="#FC9D8A"/>
<stop offset="1" stop-color="#FF8F79"/>
</linearGradient>
<linearGradient id="paint18_linear_2_101" x1="308.735" y1="188.772" x2="345.203" y2="146.366" gradientUnits="userSpaceOnUse">
<stop stop-color="#E1473D"/>
<stop offset="1" stop-color="#E9605A"/>
</linearGradient>
<linearGradient id="paint19_linear_2_101" x1="323.973" y1="135.108" x2="405.739" y2="171.132" gradientUnits="userSpaceOnUse">
<stop stop-color="#FC9D8A"/>
<stop offset="1" stop-color="#FF8F79"/>
</linearGradient>
<linearGradient id="paint20_linear_2_101" x1="346.379" y1="133.639" x2="339.29" y2="182.423" gradientUnits="userSpaceOnUse">
<stop stop-color="#FC9D8A"/>
<stop offset="1" stop-color="#FF8F79"/>
</linearGradient>
<linearGradient id="paint21_linear_2_101" x1="100.013" y1="454.294" x2="-0.930697" y2="564.299" gradientUnits="userSpaceOnUse">
<stop stop-color="#09005D"/>
<stop offset="1" stop-color="#1A0F91"/>
</linearGradient>
<linearGradient id="paint22_linear_2_101" x1="67.1812" y1="462.451" x2="76.1654" y2="462.451" gradientUnits="userSpaceOnUse">
<stop stop-color="#FF928E"/>
<stop offset="1" stop-color="#FEB3B1"/>
</linearGradient>
<linearGradient id="paint23_linear_2_101" x1="77.3213" y1="433.473" x2="-23.6221" y2="543.477" gradientUnits="userSpaceOnUse">
<stop stop-color="#09005D"/>
<stop offset="1" stop-color="#1A0F91"/>
</linearGradient>
<linearGradient id="paint24_linear_2_101" x1="34.8015" y1="461.991" x2="42.5593" y2="461.991" gradientUnits="userSpaceOnUse">
<stop stop-color="#FF928E"/>
<stop offset="1" stop-color="#FEB3B1"/>
</linearGradient>
<linearGradient id="paint25_linear_2_101" x1="109.852" y1="179.657" x2="31.9311" y2="325.357" gradientUnits="userSpaceOnUse">
<stop stop-color="#FF928E"/>
<stop offset="1" stop-color="#FE7062"/>
</linearGradient>
<linearGradient id="paint26_linear_2_101" x1="142.976" y1="175.113" x2="127.176" y2="220.338" gradientUnits="userSpaceOnUse">
<stop stop-color="#FF928E"/>
<stop offset="1" stop-color="#FEB3B1"/>
</linearGradient>
<linearGradient id="paint27_linear_2_101" x1="208.512" y1="176.887" x2="138.891" y2="196.069" gradientUnits="userSpaceOnUse">
<stop stop-color="#FF928E"/>
<stop offset="1" stop-color="#FEB3B1"/>
</linearGradient>
<linearGradient id="paint28_linear_2_101" x1="144.346" y1="208.728" x2="156.252" y2="184.669" gradientUnits="userSpaceOnUse">
<stop stop-color="#FF928E"/>
<stop offset="1" stop-color="#FEB3B1"/>
</linearGradient>
<linearGradient id="paint29_linear_2_101" x1="79.5986" y1="163.476" x2="1.67582" y2="309.178" gradientUnits="userSpaceOnUse">
<stop stop-color="#FF928E"/>
<stop offset="1" stop-color="#FE7062"/>
</linearGradient>
<linearGradient id="paint30_linear_2_101" x1="3.7132" y1="293.388" x2="61.8003" y2="293.388" gradientUnits="userSpaceOnUse">
<stop stop-color="#FF928E"/>
<stop offset="1" stop-color="#FEB3B1"/>
</linearGradient>
<linearGradient id="paint31_linear_2_101" x1="57.4877" y1="287.309" x2="75.5849" y2="287.309" gradientUnits="userSpaceOnUse">
<stop stop-color="#FF928E"/>
<stop offset="1" stop-color="#FEB3B1"/>
</linearGradient>
<linearGradient id="paint32_linear_2_101" x1="65.0962" y1="204.991" x2="57.3867" y2="245.928" gradientUnits="userSpaceOnUse">
<stop stop-color="#FF928E"/>
<stop offset="1" stop-color="#FEB3B1"/>
</linearGradient>
<linearGradient id="paint33_linear_2_101" x1="68.5896" y1="203.047" x2="59.4027" y2="250.26" gradientUnits="userSpaceOnUse">
<stop stop-color="#FF928E"/>
<stop offset="1" stop-color="#FEB3B1"/>
</linearGradient>
<linearGradient id="paint34_linear_2_101" x1="43.7286" y1="248.999" x2="54.1294" y2="217.331" gradientUnits="userSpaceOnUse">
<stop stop-color="#FF928E"/>
<stop offset="1" stop-color="#FEB3B1"/>
</linearGradient>
</defs>
</svg>
