<svg width="480" height="480" viewBox="0 0 480 480" fill="none" xmlns="http://www.w3.org/2000/svg">
<g clip-path="url(#clip0_1_33)">
<path d="M414.493 415.223C402.377 427.719 391.535 435.065 383.232 440.611C302.268 494.693 209.718 479.113 181.104 473.779C134.939 465.186 95.9684 459.118 62.4866 428.854C-13.5943 360.088 -9.89449 216.634 48.2423 127.773C55.1349 117.235 113.182 31.1533 205.932 19.0245C208.2 18.727 209.897 18.5585 211.383 18.4015C225.731 16.8813 314.644 8.86036 387.144 69.6269C397.516 78.3253 414.216 94.0234 429.704 117.946C486.333 205.442 486.513 340.956 414.493 415.223Z" fill="#F4F7FA"/>
<mask id="mask0_1_33" style="mask-type:luminance" maskUnits="userSpaceOnUse" x="63" y="117" width="104" height="221">
<path d="M134.95 337.455L166.64 321.859C166.64 321.859 164.608 302.659 151.2 295.004C123.839 279.385 139.423 256.502 144.517 245.941C152.199 230.014 152.027 212.627 130.643 215.537C109.258 218.447 113.719 180.892 129.832 156.96C145.599 133.54 113.083 91.9843 74.3062 139.54C51.1476 167.94 71.4173 197.34 78.1266 214.621C84.8358 231.902 60.8712 245.399 79.258 261.494C94.9624 275.244 114.847 281.118 110.251 298.147C105.654 315.175 111.133 329.04 134.95 337.455Z" fill="white"/>
</mask>
<g mask="url(#mask0_1_33)">
<path d="M134.95 337.455L166.64 321.859C166.64 321.859 164.608 302.659 151.2 295.004C123.839 279.385 139.423 256.502 144.517 245.941C152.199 230.018 151.489 214.669 132.44 213.864C110.883 212.954 113.726 180.895 129.838 156.963C145.605 133.543 113.09 91.9876 74.3128 139.543C51.1542 167.943 71.4239 197.343 78.1332 214.624C84.8424 231.906 60.8778 245.403 79.2646 261.497C94.969 275.247 114.854 281.122 110.257 298.15C105.661 315.178 111.133 329.04 134.95 337.455Z" fill="url(#paint0_linear_1_33)"/>
<path d="M134.95 337.455L166.64 321.859C166.64 321.859 164.608 302.659 151.2 295.004C123.839 279.385 139.423 256.502 144.517 245.941C152.199 230.018 151.489 214.669 132.44 213.864C110.883 212.954 113.726 180.895 129.838 156.963C145.605 133.543 113.09 91.9876 74.3128 139.543C51.1542 167.943 71.4239 197.343 78.1332 214.624C84.8424 231.906 60.8778 245.403 79.2646 261.497C94.969 275.247 114.854 281.122 110.257 298.15C105.661 315.178 111.133 329.04 134.95 337.455Z" fill="url(#paint1_linear_1_33)"/>
<path d="M150.167 333.609C149.892 333.238 122.419 295.926 106.33 250.714C96.8718 224.141 93.1373 200.076 95.2267 179.185C97.843 153.04 109.635 131.829 130.278 116.14L130.651 116.635C110.152 132.216 98.4426 153.283 95.8412 179.249C93.76 200.048 97.4846 224.03 106.908 250.51C122.967 295.637 150.385 332.874 150.66 333.244L150.167 333.609Z" fill="#BEB8F2"/>
<path d="M94.5924 190.124C80.8981 169.26 73.8503 133.584 73.7809 133.227L74.3871 133.108C74.4564 133.465 81.4894 169.024 95.1077 189.787L94.5924 190.124Z" fill="#BEB8F2"/>
<path d="M96.7066 172.74L96.1797 172.41C111.975 147.007 136.635 143.355 136.883 143.327L136.967 143.938C136.722 143.971 112.343 147.594 96.7066 172.74Z" fill="#BEB8F2"/>
<path d="M118.4 279.548C110.295 244.011 149.783 214.664 150.207 214.458L150.48 215.013L150.344 214.735L150.494 215.004C150.088 215.251 111.035 244.474 119.003 279.41L118.4 279.548Z" fill="#BEB8F2"/>
<path d="M112.333 266.088C98.3402 248.131 69.802 245.028 69.5162 244.998L69.5773 244.383C69.8664 244.413 98.6639 247.539 112.821 265.699L112.333 266.088Z" fill="#BEB8F2"/>
<path d="M145.891 327.5C140.68 314.4 153.638 295.751 153.768 295.562L154.274 295.919C154.145 296.103 141.379 314.483 146.466 327.271L145.891 327.5Z" fill="#BEB8F2"/>
<path d="M139.965 318.478C133.766 309.905 114.198 306.386 107.773 305.229C106.5 304.999 105.976 304.898 105.791 304.827L106.024 304.256C106.158 304.308 106.957 304.452 107.882 304.619C114.372 305.787 134.121 309.342 140.465 318.116L139.965 318.478Z" fill="#BEB8F2"/>
</g>
<path d="M151.789 403.134C150.498 415.046 158.52 423.816 165.221 429.277C166.263 428.932 166.965 429.016 168.102 428.917C178.365 428.021 182.417 425.344 192.294 422.785C194.42 422.234 200.057 418.604 202.267 416.961L206.326 413.822C206.326 413.822 206.02 386.01 190.875 383.417C175.731 380.824 172.211 354.228 168.701 340.265C159.159 302.382 120.437 319.202 104.28 271.495C99.9853 258.807 96.0328 233.173 81.9255 226.679C65.8528 219.278 60.7705 233.581 49.6842 226.596C32.3578 215.69 10.6626 216.996 4.0459 236.488C-2.48494 255.73 21.995 281.366 65.5637 293.897C95.8032 306.429 98.2328 312.419 101.419 327.927C103.652 338.79 102.877 369.312 120.686 375.38C138.495 381.447 153.264 389.516 151.789 403.134Z" fill="url(#paint2_linear_1_33)"/>
<mask id="mask1_1_33" style="mask-type:luminance" maskUnits="userSpaceOnUse" x="3" y="219" width="203" height="217">
<path d="M174.225 435.631L205.86 414.997C205.86 414.997 206.025 386.013 190.875 383.419C175.726 380.824 172.211 354.23 168.701 340.267C159.159 302.382 120.437 319.202 104.28 271.495C99.9853 258.807 96.0328 233.175 81.9255 226.679C65.8528 219.278 60.7705 233.581 49.6842 226.596C32.3578 215.69 10.6626 216.996 4.0459 236.488C-2.48494 255.73 21.995 281.366 65.5637 293.897C95.8032 306.43 98.2328 312.419 101.419 327.927C103.652 338.79 102.877 369.312 120.686 375.38C138.495 381.447 153.264 389.516 151.789 403.14C149.543 423.849 174.225 435.631 174.225 435.631Z" fill="white"/>
</mask>
<g mask="url(#mask1_1_33)">
<path d="M187.463 424.84C185.519 420.812 183.517 416.788 181.517 412.878C166.615 383.84 149.541 357.244 130.77 333.829C114.869 314 97.5325 296.154 79.2365 280.827C64.5363 268.499 49.1325 257.708 33.4644 248.757C22.4575 242.468 11.4323 237.145 0.697861 232.938C-1.16031 232.21 -3.11097 231.565 -4.99722 230.942C-7.53755 230.103 -10.1654 229.235 -12.6298 228.143L-12.3787 227.575C-9.94243 228.655 -7.32943 229.518 -4.80232 230.352C-2.90781 230.979 -0.950542 231.625 0.924145 232.36C11.6867 236.579 22.7399 241.914 33.7733 248.223C49.4728 257.193 64.903 268.003 79.6346 280.357C97.9553 295.724 115.321 313.579 131.247 333.446C150.045 356.894 167.14 383.524 182.064 412.597C184.072 416.512 186.077 420.541 188.023 424.572L187.463 424.84Z" fill="#FCFDFE"/>
<path d="M100.762 300.447C78.3578 277.07 72.4959 222.055 72.4381 221.502L73.0559 221.439C73.112 221.989 78.9541 276.796 101.209 300.017L100.762 300.447Z" fill="#FCFDFE"/>
<path d="M157.293 370.827C144.21 353.534 102.379 350.795 101.961 350.768L101.999 350.149C102.423 350.175 144.538 352.935 157.792 370.452L157.293 370.827Z" fill="#FCFDFE"/>
<path d="M163.967 381.441C157.405 368.519 155.352 347.447 158.186 322.105C158.253 321.524 158.304 321.064 158.302 320.982H158.561L158.892 320.816C158.946 320.927 158.946 320.927 158.808 322.173C155.988 347.394 158.02 368.342 164.527 381.165L163.967 381.441Z" fill="#FCFDFE"/>
<path d="M183.809 417.54C173.139 406.316 150.096 408.208 149.865 408.23L149.811 407.612C150.047 407.59 173.385 405.674 184.259 417.113L183.809 417.54Z" fill="#FCFDFE"/>
<path d="M187.815 424.632C186.493 411.832 188.806 398.249 194.874 383.108L195.451 383.339C189.424 398.385 187.128 411.872 188.433 424.569L187.815 424.632Z" fill="#FCFDFE"/>
<path d="M42.6413 254.202C29.502 241.937 18.5544 226.026 14.957 220.798C14.3228 219.878 13.824 219.145 13.7249 219.05L14.1659 218.613C14.298 218.747 14.6399 219.241 15.4691 220.446C19.0566 225.661 29.9743 241.531 43.0641 253.749L42.6413 254.202Z" fill="#FCFDFE"/>
<path d="M19.2482 275.175L19.04 274.59C25.0219 272.563 31.129 270.927 37.3228 269.692C50.7462 267.048 60.7671 267.266 67.1031 270.343L66.8322 270.901C51.9883 263.695 19.5735 275.059 19.2482 275.175Z" fill="#FCFDFE"/>
</g>
<path d="M164.349 429.536L164.788 429.517C173.452 429.097 182.845 427.107 192.813 422.7L198.46 419.711C197.852 414.385 196.313 409.43 189.637 410.499C179.254 412.161 171.341 396.303 171.104 389.455C170.814 380.98 169.732 361.261 153.643 363.576C140.257 365.505 131.999 369.484 123.97 354.911C115.941 340.338 103.272 334.935 90.1312 342.371C76.3014 350.197 55.4255 336.828 46.792 348.833C31.7483 369.752 66.117 393.832 95.5174 391.428C124.918 389.024 115.008 404.824 120.238 417.398C127.387 434.563 148.266 420.086 157.402 423.778C160.496 425.027 162.72 427.144 164.349 429.536Z" fill="#6165D7"/>
<mask id="mask2_1_33" style="mask-type:luminance" maskUnits="userSpaceOnUse" x="43" y="339" width="157" height="101">
<path d="M168.133 439.071L199.132 423.816C198.779 418.538 197.102 409.304 189.637 410.499C179.254 412.161 171.341 396.303 171.104 389.455C170.814 380.98 169.732 361.261 153.643 363.576C140.257 365.505 131.999 369.484 123.97 354.911C115.941 340.338 103.272 334.935 90.1312 342.371C76.3014 350.197 55.4255 336.828 46.792 348.833C31.7483 369.752 66.117 393.832 95.5174 391.428C124.918 389.024 115.008 404.824 120.238 417.398C127.387 434.563 148.266 420.086 157.402 423.778C164.564 426.671 167.121 434.198 168.133 439.071Z" fill="white"/>
</mask>
<g mask="url(#mask2_1_33)">
<path d="M180.382 426.972C164.159 405.69 142.591 387.887 118.009 375.489C93.2893 363.019 66.1798 356.36 39.6138 356.23V355.61C66.2756 355.741 93.4792 362.421 118.286 374.934C142.951 387.375 164.593 405.239 180.873 426.595L180.382 426.972Z" fill="#FCFDFE"/>
<path d="M160.261 404.796C150.717 385.167 160.056 361.75 160.152 361.516L160.727 361.75C160.633 361.982 151.398 385.147 160.819 404.524L160.261 404.796Z" fill="#FCFDFE"/>
<path d="M119.812 421.507L119.576 420.932C119.946 420.78 156.73 405.895 174.413 418.619L174.051 419.124C156.644 406.601 120.177 421.357 119.812 421.507Z" fill="#FCFDFE"/>
<path d="M115.956 374.496C102.602 363.041 101.217 336.243 101.206 335.974L101.825 335.946C101.839 336.214 103.211 362.745 116.36 374.025L115.956 374.496Z" fill="#FCFDFE"/>
<path d="M43.1748 376.806L42.7883 376.32C42.9964 376.155 63.8674 359.657 83.46 361.59L83.3988 362.208C64.0706 360.301 43.3829 376.639 43.1748 376.806Z" fill="#FCFDFE"/>
</g>
<path d="M351.453 94.9455L318.729 46.2681C317.243 44.0654 314.803 45.2238 312.287 45.1114L144.717 35.7107C142.041 35.6017 139.699 36.8674 138.564 39.0305L113.22 87.4005C112.641 88.5238 112.405 89.7924 112.54 91.049L146.245 434.383C146.639 438.405 150.349 441.564 154.523 441.441L378.78 434.755C382.63 434.641 385.44 431.422 385.057 427.567L352.758 98.4998C352.622 97.2255 352.174 96.0044 351.453 94.9455ZM237.44 117.709C223.338 117.323 210.752 105.825 209.396 92.0173C208.04 78.2096 218.437 67.4275 232.553 67.9315C246.592 68.4272 259.023 79.9331 260.366 93.6169C261.709 107.301 251.473 118.089 237.44 117.709Z" fill="url(#paint3_linear_1_33)"/>
<path d="M354.302 94.9455L321.578 46.2681C320.092 44.0654 317.639 42.6477 315.12 42.5452L147.563 35.7107C144.887 35.6017 142.545 36.8674 141.41 39.0305L116.07 87.4005C115.491 88.5238 115.254 89.7924 115.389 91.049L149.094 434.383C149.489 438.405 153.198 441.564 157.372 441.441L381.631 434.755C385.48 434.641 388.289 431.422 387.908 427.567L355.607 98.4998C355.472 97.2255 355.023 96.0044 354.302 94.9455ZM240.29 117.709C226.186 117.329 213.601 105.825 212.247 92.0173C210.892 78.2096 221.287 67.4275 235.396 67.9315C249.435 68.4272 261.866 79.9331 263.21 93.6169C264.555 107.301 254.322 118.089 240.29 117.709Z" fill="url(#paint4_linear_1_33)"/>
<path d="M322.697 314.648L333.193 346.655C320.602 355.531 305.657 360.871 288.359 362.674C273.809 364.194 259.941 362.71 246.756 358.222C233.571 353.734 222.284 346.513 212.896 336.559C203.765 327.179 196.926 314.969 192.377 299.931L173.504 301.899L171.318 280.953L187.242 279.289L186.718 274.274C186.616 273.291 186.508 271.812 186.404 269.832C186.3 267.853 186.193 266.379 186.089 265.392L169.572 267.117L167.385 246.171L187.143 244.107C189.235 227.984 194.622 213.901 203.303 201.858C218.882 179.755 240.531 167.251 268.25 164.348C284.367 162.664 299.42 164.074 313.407 168.576L308.664 203.084C296.966 199.534 285.809 198.314 275.192 199.424C259.857 201.025 248.321 207.599 240.584 219.144C236.95 224.296 234.472 231.016 233.151 239.303L306.584 231.633L308.769 252.579L230.919 260.714C230.928 262.697 231.148 265.756 231.58 269.89L232.076 274.611L310.218 266.445L312.405 287.391L238.38 295.124C241.243 303.575 245.207 310.12 250.272 314.758C260.166 323.866 273.37 327.556 289.884 325.83C302.46 324.518 313.397 320.79 322.697 314.648Z" fill="white"/>
<path d="M235.404 67.9315C221.287 67.4275 210.891 78.2096 212.247 92.0173C213.603 105.825 226.186 117.323 240.29 117.709C254.329 118.089 264.56 107.299 263.217 93.6169C261.874 79.9347 249.448 68.4338 235.404 67.9315ZM239.66 111.301C229.193 111.007 219.866 102.466 218.86 92.2255C217.854 81.9854 225.56 73.9777 236.038 74.3412C246.462 74.7015 255.712 83.2396 256.703 93.412C257.694 103.584 250.096 111.594 239.66 111.301Z" fill="#6165D7"/>
<path d="M199.406 37.8275L205.219 97.0324C206.823 113.36 221.714 126.941 238.393 127.364L244.093 127.508C260.64 127.926 272.699 115.179 271.114 99.0401L265.369 40.5209L199.406 37.8275ZM240.29 117.709C226.186 117.329 213.601 105.825 212.247 92.0173C210.892 78.2096 221.287 67.4275 235.404 67.9315C249.443 68.4272 261.872 79.9331 263.217 93.6168C264.561 107.301 254.322 118.089 240.29 117.709Z" fill="url(#paint5_linear_1_33)"/>
<path style="mix-blend-mode:multiply" opacity="0.35" d="M354.302 94.9454L321.578 46.2681C320.092 44.0654 317.639 42.6476 315.12 42.5452L175.376 36.8492C155.205 84.4211 160.702 117.114 170.034 138.596C202.68 213.739 307.805 213.74 329.906 286.158C344.192 332.97 308.216 357.97 328.392 418.209C330.45 424.339 332.913 430.325 335.765 436.128L381.629 434.761C385.48 434.647 388.289 431.428 387.906 427.573L355.607 98.4998C355.472 97.2255 355.023 96.0044 354.302 94.9454ZM240.29 117.709C226.186 117.329 213.601 105.825 212.247 92.0173C210.892 78.2096 221.287 67.4275 235.396 67.9315C249.435 68.4272 261.866 79.9331 263.209 93.6169C264.551 107.301 254.322 118.089 240.29 117.709Z" fill="url(#paint6_linear_1_33)"/>
<path d="M270.402 56.3033C270.044 51.7138 269.245 47.1695 268.015 42.7335C266.766 38.305 265.095 33.9757 262.837 29.9272C260.6 25.8647 257.821 22.1247 254.578 18.8096C251.336 15.5223 247.703 12.6459 243.76 10.2451C239.838 7.87123 235.688 5.8982 231.372 4.35583C222.762 1.26578 213.619 -0.262721 204.466 0.036369C202.178 0.165259 199.884 0.330502 197.619 0.737C195.355 1.1435 193.09 1.64419 190.9 2.46544C188.71 3.2867 186.571 4.3046 184.653 5.77031C182.736 7.23601 181.074 9.19745 180.21 11.5323C179.347 13.8672 179.16 16.3244 179.363 18.6593C179.566 20.9942 180.126 23.2762 180.831 25.4623C182.108 29.3869 183.889 33.0635 185.844 36.6196L188.244 36.7187C186.14 32.8751 184.219 28.9176 182.934 24.7931C182.288 22.7143 181.801 20.5926 181.641 18.4775C181.481 16.3624 181.67 14.2555 182.412 12.3883C183.154 10.521 184.465 8.95124 186.13 7.71522C187.795 6.4792 189.732 5.56706 191.746 4.84329C195.802 3.4222 200.189 2.87029 204.55 2.71827C208.938 2.63399 213.324 2.97042 217.648 3.72294C221.973 4.48339 226.219 5.63716 230.335 7.16992C234.44 8.68917 238.381 10.6179 242.1 12.927C245.789 15.233 249.182 17.9834 252.202 21.1164C255.196 24.2469 257.752 27.7696 259.799 31.5879C261.869 35.3885 263.395 39.4964 264.527 43.6953C265.643 47.9137 266.351 52.23 266.639 56.5842C266.913 60.9377 266.792 65.307 266.276 69.6384C266.145 70.7175 265.974 71.7866 265.802 72.864C265.589 73.9265 265.42 75.0006 265.151 76.0482C264.676 78.1499 264.069 80.2196 263.334 82.2448C262.607 84.2365 261.714 86.1635 260.663 88.0052C259.67 89.7876 258.42 91.4135 256.952 92.8303C255.517 94.1738 253.911 95.1718 252.162 95.5403L251.501 95.6692C251.278 95.7056 251.045 95.7072 250.819 95.732C250.368 95.7964 249.891 95.7419 249.427 95.7518C248.457 95.6804 247.496 95.5143 246.558 95.2561C244.632 94.7604 242.722 93.8978 240.879 92.8766C239.013 91.8304 237.216 90.6635 235.501 89.3833L235.486 89.3718H235.475C235.318 89.2632 235.148 89.1739 234.969 89.1057C234.888 90.1512 234.899 91.2018 235.002 92.2454C235.092 93.1362 235.243 94.0197 235.457 94.8893C236.52 95.575 237.604 96.2294 238.74 96.8375C240.825 97.9562 243.035 98.9344 245.456 99.5425C246.684 99.86 247.94 100.056 249.205 100.127C249.866 100.127 250.504 100.167 251.166 100.08C251.496 100.045 251.827 100.027 252.157 99.9721L253.148 99.7722C253.477 99.7039 253.8 99.6128 254.116 99.4995C254.438 99.4064 254.754 99.2961 255.064 99.1691L255.969 98.7444C256.273 98.613 256.565 98.4566 256.843 98.2767C257.943 97.6124 258.965 96.8258 259.889 95.9319C261.634 94.2173 263.116 92.2539 264.287 90.1055C265.435 88.043 266.406 85.8871 267.191 83.661C267.962 81.4668 268.593 79.226 269.08 76.9521C269.353 75.8251 269.521 74.6817 269.741 73.5464C269.906 72.4063 270.071 71.2644 270.204 70.1193C270.69 65.5296 270.757 60.9051 270.402 56.3033Z" fill="#BFBFBF"/>
<path d="M339.134 131.193C335.17 128.799 331.221 131.962 328.316 129.106C324.682 125.539 325.866 115.707 331.16 110.804C334.992 107.253 338.64 108.456 351.983 105.927C356.585 105.057 362.856 103.867 366.604 102.381C382.956 95.8972 379.021 72.7268 391.858 61.6027C406.658 48.7765 442.838 52.7688 460.974 75.3443C481.734 101.188 469.705 140.004 449.455 156.902C436.697 167.545 419.832 167.69 386.099 167.983C352.459 168.274 346.901 160.877 345.338 158.234C339.935 149.076 346.164 135.435 339.134 131.193Z" fill="#010648"/>
<path d="M298.821 225.16C294.287 219.015 293.415 210.573 295.277 203.885C298.415 192.586 307.423 193.31 312.112 180.393C315.145 172.041 312.608 168.33 316.985 162.216C320.201 157.718 326.816 152.387 331.503 153.623C345.528 157.346 351.847 222.472 329.391 233.573C320.402 238.023 305.629 234.399 298.821 225.16Z" fill="url(#paint7_linear_1_33)"/>
<path d="M351.398 242.164C337.076 246.487 334.833 274.256 333.452 291.345C331.897 310.588 330.164 332.025 342.466 351.226C357.939 375.378 389.982 387.203 424.025 383.814C423.672 381.616 423.319 379.418 422.967 377.22C388.028 363.879 378.486 348.885 376.078 337.856C370.958 314.405 396.026 299.345 389.551 273.907C384.672 254.747 364.078 238.337 351.398 242.164Z" fill="url(#paint8_linear_1_33)"/>
<path d="M401.212 260.626C393.449 249.165 385.866 237.57 378.271 225.99C376.785 223.714 375.914 221.076 375.498 218.304C372.325 220.839 369.451 223.729 366.934 226.917C357.737 261.024 352.786 296.137 352.193 331.458C351.733 357.887 357.703 437.805 360.585 457.889C361.642 458.105 362.025 455.354 363.105 455.561C364.427 455.812 364.757 458.204 366.046 458.431C369.881 417.869 374.279 381.262 376.499 362.446C377.252 356.063 379.472 336.914 389.723 321.489C389.888 321.241 405.052 300.503 410.285 292.208C412.026 289.448 414.206 285.869 416.682 281.082C410.807 274.905 406.099 267.836 401.212 260.626Z" fill="url(#paint9_linear_1_33)"/>
<path d="M366.325 436.442C365.73 435.07 362.456 438.519 359.407 442.161C359.8 447.404 360.193 452.646 360.585 457.889C359.503 457.2 358.137 456.446 356.598 456.091C354.746 455.665 351.547 456.331 351.302 457.216C349.785 462.679 363.403 463.872 364.894 462.155C365.334 461.648 365.663 461.055 365.862 460.414C366.061 459.773 366.125 459.098 366.051 458.431C364.668 450.559 364.851 445.226 365.507 441.545C365.961 438.959 366.653 437.2 366.325 436.442Z" fill="#67878E"/>
<path d="M360.585 457.889C361.642 458.105 362.025 455.354 363.106 455.56C364.427 455.812 364.757 458.204 366.046 458.431C367.448 443.604 368.925 429.31 370.34 416.216C365.752 415.679 361.09 415.542 356.497 415.489C357.96 434.094 359.495 450.288 360.585 457.889Z" fill="#67878E"/>
<path style="mix-blend-mode:multiply" opacity="0.25" d="M401.212 260.626C393.449 249.165 385.866 237.57 378.271 225.99C376.785 223.714 375.914 221.076 375.498 218.303C372.325 220.839 369.451 223.729 366.934 226.919C360.54 250.63 356.198 274.848 353.957 299.305C361.893 298.846 369.461 303.515 371.691 309.094C376.303 320.628 361.758 329.658 361.906 353.845C361.987 367.094 366.723 370.419 364.567 382.581C364.011 385.721 362.433 392.616 363.129 402.091C363.436 406.252 363.771 405.346 364.025 409.106C364.751 419.818 362.197 429.665 363.304 436.354C363.567 437.989 364.084 439.572 364.836 441.046C365.513 442.342 366.373 443.534 367.39 444.585C370.859 409.669 374.535 379.091 376.499 362.446C377.252 356.063 379.472 336.914 389.723 321.489C389.888 321.241 405.052 300.503 410.285 292.208C412.026 289.448 414.206 285.869 416.682 281.082C410.807 274.905 406.099 267.834 401.212 260.626Z" fill="url(#paint10_linear_1_33)"/>
<path d="M312.621 206.686L313.67 204.525C313.67 204.525 316.195 201.132 317.219 198.847C318.244 196.562 318.019 194.704 315.911 193.267C313.804 191.829 311.782 194.225 310.021 196.281C308.946 197.532 308.83 200.159 308.925 202.286C308.992 203.773 307.934 206.762 307.934 206.762L312.621 206.686Z" fill="#F4F7FA"/>
<path d="M320.799 160.4C315.915 169.361 316.471 178.287 317 182.194C318.665 194.344 325.98 202.544 327.774 204.733C336.25 215.081 341.068 238.897 325.855 297.545C329.345 299.084 344.05 313.673 346.245 304.016C349.239 290.851 354.659 202.722 354.503 305.358C354.503 306.71 357.22 305.655 358.633 305.764C370.119 306.686 381.677 305.461 392.716 302.15C412.103 296.309 425.035 285.446 431.653 278.95C420.33 265.115 411.068 249.714 404.154 233.226C388.446 195.684 388.892 161.636 390.621 142.846C383.421 140.42 360.943 133.865 339.555 144.226C334.224 146.809 325.945 150.961 320.799 160.4Z" fill="url(#paint11_linear_1_33)"/>
<path d="M305.905 191.363L330.549 221.132C330.764 221.408 331.04 221.632 331.355 221.785C331.669 221.939 332.015 222.018 332.366 222.017H349.874C350.285 222.017 350.688 221.907 351.042 221.698C351.395 221.489 351.686 221.188 351.884 220.828C352.082 220.468 352.18 220.061 352.167 219.651C352.154 219.24 352.031 218.84 351.811 218.493L333.056 188.904C332.627 188.227 331.55 186.756 329.999 186.756L308.844 187.31C306.952 187.356 304.744 189.873 305.905 191.363Z" fill="url(#paint12_linear_1_33)"/>
<path d="M305.902 191.96L328.615 221.132C328.83 221.408 329.105 221.632 329.42 221.785C329.735 221.939 330.081 222.018 330.431 222.017H347.939C348.35 222.017 348.754 221.907 349.107 221.698C349.461 221.489 349.752 221.188 349.95 220.828C350.148 220.468 350.246 220.061 350.233 219.651C350.22 219.24 350.097 218.84 349.877 218.493L331.122 188.904C330.911 188.571 330.617 188.299 330.27 188.112C329.923 187.925 329.534 187.831 329.14 187.839L307.668 188.255C307.242 188.263 306.827 188.39 306.469 188.621C306.111 188.852 305.825 189.177 305.641 189.562C305.458 189.946 305.385 190.374 305.431 190.798C305.477 191.221 305.64 191.624 305.902 191.96Z" fill="#FC9D8A"/>
<path d="M353.844 210.037L351.674 209.006C351.674 209.006 348.263 206.508 345.971 205.501C343.678 204.495 341.823 204.735 340.403 206.855C338.982 208.975 341.394 210.971 343.465 212.723C344.724 213.788 347.35 213.879 349.474 213.77C350.96 213.691 353.957 214.725 353.957 214.725L353.844 210.037Z" fill="white"/>
<path d="M422.967 377.22C414.436 373.962 407.429 370.611 401.66 367.233C400.021 372.4 399.27 378.005 399.369 383.579C407.553 384.567 415.822 384.646 424.024 383.814C423.671 381.616 423.319 379.418 422.967 377.22Z" fill="#67878E"/>
<path d="M422.204 378.546L422.968 377.224C422.968 377.224 424.339 376.398 424.987 378.101C425.634 379.805 429.316 388.677 429.511 392.707C428.546 395.116 425.814 393.076 425.251 391.436C424.688 389.797 422.735 383.724 422.735 383.724L422.204 378.546Z" fill="#67878E"/>
<path style="mix-blend-mode:multiply" opacity="0.3" d="M404.15 233.224C392.019 204.229 389.534 177.352 389.824 157.946C383.161 161.211 374.684 166.719 373.032 175.219C370.852 186.437 382.333 193.748 379.01 201.669C374.904 211.453 354.758 206.551 350.539 216.488C348.207 221.981 352.252 228.447 359.072 239.345C365.106 248.987 370.186 257.634 380.338 262.837C394.962 270.338 403.321 266.041 411.798 273.477C416.411 277.526 418.816 283.081 420.018 288.705C424.144 285.762 428.034 282.502 431.653 278.955C420.328 265.119 411.065 249.715 404.15 233.224Z" fill="url(#paint13_linear_1_33)"/>
<path d="M349.742 124.892C349.742 126.786 349.808 136.925 354.31 138.589C355.301 138.955 356.086 138.722 360.451 138.836C362.94 138.9 364.967 139.034 366.27 139.135C365.982 141.401 365.451 143.631 364.688 145.784C359.085 161.558 340.948 172.517 334.803 168.57C331.604 166.514 331.356 160.347 331.254 157.789C331.141 154.843 331.634 151.904 332.704 149.157C334.952 147.523 337.253 145.885 339.608 144.244C341.15 143.173 342.679 142.123 344.195 141.095L343.888 135.275C345.838 131.814 347.789 128.354 349.742 124.892Z" fill="#F4F7FA"/>
<path d="M351.707 128.632C351.707 128.632 351.729 136.977 345.069 139.69C339.106 142.121 331.285 128.123 333.642 123.57C334.429 122.055 336.781 120.276 339.062 119.862C340.664 119.573 347.32 119.532 349.198 124.762C349.76 123.109 350.875 122.037 352.027 122.025C352.433 122.044 352.826 122.174 353.162 122.402C354.688 123.491 354.254 126.039 351.707 128.632Z" fill="white"/>
<path d="M376.35 143.596C382.442 142.079 382.472 140.097 390.618 142.841C414.008 150.718 438.77 186.032 425.973 210.971C418.856 224.841 401.8 237.347 382.997 234.462C367.691 232.114 358.699 220.712 356.414 217.619C355.528 214.073 354.642 210.527 353.755 206.982C363.73 212.638 370.756 212.637 375.465 211.414C383.479 209.332 385.26 203.586 398.503 198.56C403.663 196.601 406.762 196.195 406.927 194.571C407.257 191.213 394.281 190.092 386.104 183.047C380.136 177.916 374.188 167.448 376.35 143.596Z" fill="url(#paint14_linear_1_33)"/>
<path d="M307.014 204.771L314.103 205.88C314.98 206.476 325.509 213.876 324.508 224.496C324.38 225.878 323.889 231.106 320.3 233.14C314.76 236.28 303.523 230.889 301.028 222.059C299.36 216.138 301.826 209.429 307.014 204.771Z" fill="url(#paint15_linear_1_33)"/>
<path d="M451.817 152.024C451.611 152.023 451.412 151.951 451.253 151.82C451.095 151.689 450.987 151.507 450.948 151.305C450.909 151.103 450.941 150.893 451.039 150.712C451.138 150.531 451.296 150.39 451.487 150.313C470.752 142.62 474.761 109.317 474.8 108.981C474.814 108.866 474.849 108.754 474.906 108.652C474.962 108.55 475.038 108.46 475.129 108.388C475.22 108.315 475.324 108.261 475.436 108.229C475.548 108.197 475.665 108.187 475.781 108.2C475.896 108.214 476.008 108.249 476.11 108.306C476.212 108.362 476.302 108.438 476.374 108.529C476.447 108.62 476.5 108.725 476.532 108.836C476.565 108.948 476.574 109.065 476.561 109.181C475.706 115.401 474.201 121.514 472.074 127.421C467.449 140.116 460.555 148.603 452.144 151.961C452.04 152.002 451.929 152.023 451.817 152.024Z" fill="#010648"/>
<path d="M339.024 114.791C338.929 114.792 338.836 114.777 338.746 114.747C338.636 114.71 338.534 114.653 338.446 114.577C338.358 114.502 338.285 114.409 338.233 114.306C338.18 114.202 338.149 114.089 338.14 113.974C338.131 113.858 338.145 113.741 338.181 113.631C338.257 113.398 340.127 107.897 347.584 106.03C348.666 105.759 349.821 105.501 351.003 105.238C357.234 103.85 364.295 102.276 364.432 97.7033C364.448 97.4715 364.551 97.2543 364.72 97.0947C364.889 96.9352 365.111 96.8452 365.344 96.8424C365.578 96.8502 365.8 96.9504 365.962 97.1212C366.123 97.2921 366.21 97.5197 366.204 97.7546C366.024 103.703 358.249 105.44 351.388 106.969C350.222 107.228 349.076 107.482 348.016 107.75C341.547 109.373 339.922 113.993 339.864 114.195C339.803 114.369 339.69 114.52 339.539 114.627C339.388 114.734 339.208 114.791 339.024 114.791Z" fill="#010648"/>
</g>
<defs>
<linearGradient id="paint0_linear_1_33" x1="100.298" y1="125.319" x2="125.42" y2="335.749" gradientUnits="userSpaceOnUse">
<stop stop-color="#AA80F9"/>
<stop offset="1" stop-color="#6165D7"/>
</linearGradient>
<linearGradient id="paint1_linear_1_33" x1="91.1206" y1="254.508" x2="134.336" y2="189.75" gradientUnits="userSpaceOnUse">
<stop stop-color="#30ABBA"/>
<stop offset="1" stop-color="#6165D7"/>
</linearGradient>
<linearGradient id="paint2_linear_1_33" x1="159.407" y1="351.823" x2="-73.587" y2="196.1" gradientUnits="userSpaceOnUse">
<stop stop-color="#FF9085"/>
<stop offset="1" stop-color="#FB6FBB"/>
</linearGradient>
<linearGradient id="paint3_linear_1_33" x1="268.182" y1="54.3204" x2="142.197" y2="721.754" gradientUnits="userSpaceOnUse">
<stop stop-color="#AB316D"/>
<stop offset="1" stop-color="#792D3D"/>
</linearGradient>
<linearGradient id="paint4_linear_1_33" x1="271.176" y1="52.7589" x2="144.7" y2="722.786" gradientUnits="userSpaceOnUse">
<stop stop-color="#FC9D8A"/>
<stop offset="1" stop-color="#FF8F79"/>
</linearGradient>
<linearGradient id="paint5_linear_1_33" x1="238.327" y1="39.4072" x2="211.095" y2="183.674" gradientUnits="userSpaceOnUse">
<stop stop-color="#FF9085"/>
<stop offset="1" stop-color="#FB6FBB"/>
</linearGradient>
<linearGradient id="paint6_linear_1_33" x1="294.03" y1="56.7825" x2="169.53" y2="716.343" gradientUnits="userSpaceOnUse">
<stop stop-color="#FFC444"/>
<stop offset="1" stop-color="#F36F56"/>
</linearGradient>
<linearGradient id="paint7_linear_1_33" x1="307.696" y1="204.504" x2="321.929" y2="176.906" gradientUnits="userSpaceOnUse">
<stop stop-color="#30ABBA"/>
<stop offset="1" stop-color="#6165D7"/>
</linearGradient>
<linearGradient id="paint8_linear_1_33" x1="458.648" y1="413.836" x2="341.513" y2="281.968" gradientUnits="userSpaceOnUse">
<stop stop-color="#40447E"/>
<stop offset="1" stop-color="#1C2C5A"/>
</linearGradient>
<linearGradient id="paint9_linear_1_33" x1="348.238" y1="289.943" x2="386.761" y2="365.647" gradientUnits="userSpaceOnUse">
<stop stop-color="#40447E"/>
<stop offset="1" stop-color="#3C3B6B"/>
</linearGradient>
<linearGradient id="paint10_linear_1_33" x1="365.59" y1="276.206" x2="390.213" y2="359.611" gradientUnits="userSpaceOnUse">
<stop stop-color="#40447E"/>
<stop offset="1" stop-color="#3C3B6B"/>
</linearGradient>
<linearGradient id="paint11_linear_1_33" x1="347.448" y1="243.602" x2="374.72" y2="184.263" gradientUnits="userSpaceOnUse">
<stop stop-color="#30ABBA"/>
<stop offset="1" stop-color="#6165D7"/>
</linearGradient>
<linearGradient id="paint12_linear_1_33" x1="350.985" y1="178.95" x2="337.368" y2="195.016" gradientUnits="userSpaceOnUse">
<stop stop-color="#FFC444"/>
<stop offset="1" stop-color="#F36F56"/>
</linearGradient>
<linearGradient id="paint13_linear_1_33" x1="345.852" y1="188.337" x2="492.804" y2="275.314" gradientUnits="userSpaceOnUse">
<stop stop-color="#AA80F9"/>
<stop offset="1" stop-color="#6165D7"/>
</linearGradient>
<linearGradient id="paint14_linear_1_33" x1="374.025" y1="199.62" x2="387.401" y2="165.002" gradientUnits="userSpaceOnUse">
<stop stop-color="#30ABBA"/>
<stop offset="1" stop-color="#6165D7"/>
</linearGradient>
<linearGradient id="paint15_linear_1_33" x1="308.5" y1="241" x2="330.837" y2="187.958" gradientUnits="userSpaceOnUse">
<stop stop-color="#30ABBA"/>
<stop offset="1" stop-color="#6165D7"/>
</linearGradient>
<clipPath id="clip0_1_33">
<rect width="480" height="480" fill="white"/>
</clipPath>
</defs>
</svg>
