<svg width="412" height="392" viewBox="0 0 412 392" fill="none" xmlns="http://www.w3.org/2000/svg">
<g clip-path="url(#clip0_829_415)">
<path d="M111.306 23.5612C98.0721 42.4864 113.58 73.1693 93.9561 87.404C74.851 101.26 51.3823 78.5477 33.3788 90.4743C6.67119 108.168 11.5483 189.126 50.5969 239.427C62.3398 254.554 72.1527 260.44 76.4919 277.548C85.8242 314.283 53.029 336.137 59.2696 354.305C73.3216 395.215 289.441 429.543 376.162 306.596C416.663 249.174 422.721 166.258 386.536 103.282C321.15 -10.5138 140.976 -18.9053 111.306 23.5612Z" fill="#F4F7FA"/>
<g opacity="0.3">
<path d="M169.677 55.2537C169.493 55.3143 169.299 55.338 169.106 55.3236C168.913 55.3091 168.725 55.2568 168.552 55.1695C168.379 55.0822 168.225 54.9618 168.099 54.815C167.973 54.6682 167.877 54.4981 167.817 54.3142C167.325 52.8141 166.76 51.3111 166.136 49.851C165.985 49.4963 165.98 49.0968 166.12 48.738C166.261 48.3792 166.537 48.0898 166.888 47.9319L166.914 47.9205C167.274 47.7675 167.679 47.7635 168.042 47.9094C168.404 48.0553 168.694 48.3391 168.847 48.6984C169.501 50.2357 170.097 51.8174 170.615 53.3961C170.729 53.7418 170.711 54.1174 170.564 54.4503C170.417 54.7833 170.152 55.0501 169.82 55.1994C169.773 55.2203 169.726 55.2385 169.677 55.2537ZM162.621 42.9482C161.805 41.5868 160.924 40.2469 160 38.9656C159.785 38.6482 159.702 38.2595 159.769 37.8821C159.836 37.5047 160.048 37.1684 160.36 36.9448C160.671 36.7211 161.058 36.6279 161.437 36.6848C161.816 36.7417 162.158 36.9443 162.39 37.2495C163.362 38.598 164.29 40.0081 165.147 41.441C165.348 41.7759 165.407 42.1767 165.312 42.5552C165.217 42.9338 164.975 43.259 164.64 43.4595C164.305 43.6599 163.904 43.7191 163.525 43.624C163.147 43.529 162.821 43.2874 162.621 42.9525V42.9482ZM155.038 33.0137C153.944 31.8697 152.785 30.7614 151.596 29.7161C151.451 29.5885 151.332 29.4335 151.247 29.2601C151.162 29.0866 151.111 28.8981 151.099 28.7052C151.086 28.5123 151.112 28.3189 151.175 28.1359C151.237 27.953 151.335 27.7841 151.462 27.6389C151.59 27.4938 151.745 27.3751 151.919 27.2899C152.092 27.2046 152.281 27.1543 152.474 27.1419C152.667 27.1295 152.86 27.1552 153.043 27.2175C153.226 27.2798 153.395 27.3776 153.54 27.5052C154.794 28.6049 156.013 29.7733 157.166 30.9774C157.436 31.2596 157.583 31.6373 157.574 32.0276C157.566 32.4179 157.403 32.789 157.121 33.0595C157 33.1776 156.859 33.2743 156.705 33.3455C156.427 33.4688 156.117 33.5031 155.819 33.4437C155.521 33.3843 155.248 33.2341 155.038 33.0137ZM145.431 25.0255C144.107 24.1546 142.729 23.3324 141.337 22.5787C140.993 22.3931 140.738 22.0786 140.626 21.7045C140.514 21.3304 140.556 20.9273 140.742 20.5838C140.927 20.2404 141.242 19.9848 141.616 19.8732C141.991 19.7616 142.394 19.8033 142.737 19.9889C144.204 20.7826 145.655 21.6492 147.049 22.563C147.376 22.7775 147.604 23.1129 147.684 23.4955C147.763 23.878 147.687 24.2764 147.472 24.603C147.258 24.9295 146.922 25.1575 146.539 25.2367C146.157 25.316 145.758 25.24 145.431 25.0255ZM134.282 19.3683C132.801 18.8149 131.278 18.3172 129.746 17.8896C129.377 17.7774 129.068 17.5255 128.883 17.1878C128.698 16.8502 128.653 16.4537 128.757 16.0831C128.861 15.7125 129.105 15.3973 129.439 15.205C129.772 15.0126 130.168 14.9584 130.541 15.0539C132.149 15.5043 133.754 16.0277 135.314 16.6112C135.495 16.6789 135.661 16.7816 135.802 16.9134C135.944 17.0452 136.058 17.2036 136.138 17.3795C136.218 17.5554 136.263 17.7453 136.27 17.9385C136.276 18.1316 136.245 18.3242 136.177 18.5053C136.109 18.6863 136.007 18.8522 135.875 18.9936C135.743 19.1349 135.584 19.2489 135.408 19.3291C135.233 19.4092 135.042 19.4539 134.849 19.4606C134.656 19.4674 134.463 19.436 134.282 19.3683ZM122.16 16.3209C120.586 16.1092 118.993 15.9605 117.409 15.8818C117.019 15.8629 116.652 15.6898 116.39 15.4007C116.128 15.1116 115.991 14.7302 116.01 14.3403C116.029 13.9504 116.202 13.584 116.491 13.3217C116.78 13.0594 117.162 12.9227 117.552 12.9417C119.217 13.0246 120.9 13.1805 122.551 13.4036C122.868 13.4461 123.164 13.591 123.391 13.8164C123.619 14.0419 123.767 14.3354 123.813 14.6525C123.858 14.9697 123.799 15.293 123.644 15.5735C123.489 15.8539 123.247 16.0762 122.954 16.2065C122.705 16.3181 122.43 16.3577 122.16 16.3209ZM70.7092 34.8442C70.564 34.7164 70.4454 34.5613 70.3602 34.3878C70.2749 34.2142 70.2248 34.0255 70.2126 33.8325C70.2003 33.6396 70.2263 33.4461 70.2889 33.2631C70.3515 33.0802 70.4496 32.9114 70.5776 32.7663C71.6806 31.5165 72.8523 30.2995 74.0598 29.1469C74.3423 28.8774 74.7203 28.7312 75.1107 28.7403C75.5011 28.7494 75.8718 28.9132 76.1414 29.1955C76.411 29.4779 76.5573 29.8557 76.5482 30.246C76.5391 30.6362 76.3753 31.0068 76.0928 31.2762C74.9482 32.3702 73.8338 33.5271 72.7865 34.7083C72.6483 34.8665 72.4775 34.9928 72.2858 35.0787C72.0282 35.1949 71.7426 35.2345 71.463 35.1929C71.1835 35.1513 70.9218 35.0303 70.7092 34.8442ZM109.67 16.0363C108.097 16.1793 106.504 16.3895 104.949 16.6655C104.759 16.699 104.564 16.6947 104.375 16.6529C104.186 16.611 104.008 16.5324 103.849 16.4215C103.691 16.3106 103.556 16.1696 103.452 16.0066C103.348 15.8436 103.277 15.6618 103.244 15.4714C103.21 15.2811 103.215 15.086 103.257 14.8974C103.298 14.7087 103.377 14.5301 103.488 14.3718C103.599 14.2135 103.74 14.0786 103.903 13.9748C104.066 13.871 104.248 13.8003 104.439 13.7668C106.08 13.4808 107.753 13.2534 109.414 13.1047C109.803 13.0698 110.19 13.1908 110.49 13.441C110.79 13.6912 110.978 14.0502 111.012 14.4389C111.047 14.8277 110.926 15.2144 110.676 15.5139C110.426 15.8135 110.067 16.0014 109.678 16.0363H109.67ZM80.0042 25.9965C79.8913 25.8396 79.8105 25.662 79.7663 25.4738C79.7222 25.2856 79.7156 25.0905 79.7469 24.8998C79.7783 24.709 79.847 24.5263 79.9491 24.3622C80.0512 24.198 80.1846 24.0555 80.3419 23.943C81.6953 22.972 83.1088 22.0468 84.5423 21.193C84.8777 20.993 85.2789 20.9343 85.6576 21.0299C86.0363 21.1255 86.3615 21.3676 86.5617 21.7028C86.7618 22.0381 86.8205 22.4391 86.7249 22.8177C86.6292 23.1962 86.3871 23.5213 86.0516 23.7213C84.6882 24.5336 83.3448 25.4131 82.0587 26.3354C81.9777 26.3915 81.8915 26.4394 81.8011 26.4784C81.4919 26.6174 81.1442 26.6454 80.8168 26.5576C80.4893 26.4698 80.2023 26.2716 80.0042 25.9965ZM97.4283 18.5489C95.9247 19.0379 94.4239 19.6 92.9618 20.2177C92.6052 20.3667 92.2043 20.3695 91.8457 20.2256C91.4871 20.0816 91.1994 19.8026 91.0449 19.4485C90.8903 19.0945 90.8812 18.6939 91.0196 18.3332C91.1579 17.9725 91.4326 17.6807 91.7843 17.5207L91.8129 17.5078C93.3495 16.8571 94.9318 16.2651 96.5155 15.7489C96.8732 15.6353 97.2607 15.6624 97.599 15.8246C97.9374 15.9868 98.2011 16.2719 98.3363 16.6218C98.4715 16.9717 98.4681 17.36 98.3268 17.7075C98.1854 18.0549 97.9168 18.3354 97.5756 18.4917C97.5327 18.5117 97.4841 18.5317 97.4283 18.5489Z" fill="#91B3FA"/>
<path d="M66.1768 43.4232C66.4508 43.3 66.6804 43.0959 66.8349 42.8384C67.2255 42.1891 67.6376 41.5356 68.0567 40.8978C68.1631 40.7364 68.2366 40.5556 68.273 40.3658C68.3095 40.176 68.3082 39.9809 68.2692 39.7916C68.2302 39.6023 68.1543 39.4225 68.0458 39.2626C67.9373 39.1026 67.7983 38.9656 67.6368 38.8593C67.4754 38.753 67.2945 38.6795 67.1046 38.6431C66.9147 38.6067 66.7195 38.608 66.5302 38.6469C66.3408 38.6859 66.1609 38.7618 66.0009 38.8702C65.8409 38.9787 65.7038 39.1176 65.5974 39.279C65.1553 39.9497 64.7233 40.6361 64.3098 41.3211C64.1488 41.5893 64.0774 41.9018 64.106 42.2133C64.1347 42.5247 64.2619 42.819 64.4692 43.0533C64.6765 43.2876 64.9531 43.4498 65.2589 43.5163C65.5647 43.5828 65.8837 43.5502 66.1697 43.4232H66.1768Z" fill="#91B3FA"/>
</g>
<g opacity="0.3">
<path d="M59.8962 87.8588C60.2152 87.7152 60.4728 87.4629 60.6227 87.1469C60.7726 86.8309 60.8052 86.4719 60.7146 86.1341C60.5171 85.402 60.3311 84.6526 60.1638 83.9076C60.0692 83.5358 59.8333 83.2155 59.5062 83.0148C59.1791 82.8142 58.7865 82.7491 58.4121 82.8333C58.0377 82.9175 57.7109 83.1444 57.5012 83.4657C57.2916 83.7871 57.2156 84.1775 57.2895 84.5539C57.4669 85.339 57.6615 86.127 57.869 86.8992C57.9709 87.2762 58.2182 87.5973 58.5566 87.7922C58.8951 87.9871 59.2971 88.0399 59.6745 87.9389C59.7505 87.9184 59.8247 87.8916 59.8962 87.8588Z" fill="#91B3FA"/>
<path d="M136.04 126.466C135.859 126.543 135.664 126.583 135.467 126.583C135.269 126.584 135.074 126.545 134.892 126.468C134.71 126.392 134.546 126.28 134.408 126.138C134.27 125.997 134.162 125.83 134.091 125.646C134.019 125.462 133.985 125.266 133.99 125.069C133.996 124.872 134.041 124.678 134.123 124.499C134.205 124.319 134.322 124.158 134.467 124.025C134.612 123.892 134.783 123.789 134.969 123.723C136.411 123.161 137.85 122.526 139.261 121.834C139.609 121.681 140.003 121.669 140.36 121.8C140.717 121.931 141.01 122.195 141.176 122.537C141.343 122.879 141.37 123.272 141.253 123.634C141.136 123.996 140.884 124.298 140.549 124.478C139.936 124.778 139.321 125.067 138.702 125.344C137.832 125.739 136.933 126.117 136.04 126.466ZM145.47 120.067C145.253 119.743 145.173 119.346 145.249 118.963C145.325 118.58 145.549 118.243 145.873 118.025C147.17 117.156 148.449 116.222 149.659 115.25C149.81 115.129 149.983 115.039 150.169 114.985C150.355 114.932 150.55 114.915 150.742 114.936C150.934 114.958 151.12 115.017 151.29 115.11C151.459 115.203 151.608 115.329 151.729 115.48C151.85 115.631 151.94 115.804 151.994 115.99C152.047 116.176 152.064 116.37 152.043 116.562C152.021 116.754 151.962 116.94 151.869 117.11C151.776 117.279 151.65 117.428 151.499 117.549C150.22 118.572 148.879 119.551 147.514 120.471C147.444 120.517 147.371 120.558 147.294 120.592C146.977 120.734 146.62 120.759 146.286 120.663C145.953 120.567 145.663 120.356 145.47 120.067ZM128.384 128.867C126.79 129.25 125.159 129.569 123.535 129.816C123.153 129.865 122.767 129.763 122.46 129.532C122.152 129.3 121.948 128.957 121.89 128.577C121.832 128.197 121.925 127.809 122.15 127.496C122.374 127.183 122.712 126.971 123.092 126.905C124.634 126.67 126.183 126.367 127.697 126.004C128.054 125.916 128.431 125.966 128.754 126.142C129.076 126.319 129.321 126.61 129.44 126.958C129.558 127.306 129.543 127.685 129.395 128.022C129.248 128.359 128.98 128.629 128.644 128.778C128.56 128.816 128.473 128.846 128.384 128.867ZM155.327 112.174C155.187 112.041 155.074 111.882 154.995 111.705C154.916 111.529 154.873 111.338 154.867 111.145C154.862 110.952 154.895 110.76 154.964 110.579C155.033 110.398 155.137 110.233 155.27 110.093C156.343 108.962 157.379 107.771 158.352 106.554C158.473 106.403 158.622 106.277 158.792 106.184C158.962 106.09 159.148 106.031 159.341 106.01C159.533 105.989 159.728 106.006 159.914 106.06C160.1 106.114 160.274 106.204 160.425 106.325C160.576 106.446 160.702 106.595 160.795 106.765C160.888 106.935 160.947 107.121 160.969 107.313C160.99 107.506 160.973 107.701 160.919 107.887C160.865 108.072 160.775 108.246 160.654 108.397C159.629 109.684 158.538 110.931 157.409 112.115C157.276 112.256 157.117 112.369 156.94 112.448C156.764 112.527 156.573 112.57 156.38 112.575C156.187 112.581 155.994 112.548 155.813 112.479C155.633 112.409 155.468 112.305 155.327 112.172V112.174ZM115.542 130.478C113.905 130.501 112.244 130.454 110.605 130.335C110.215 130.308 109.853 130.127 109.597 129.832C109.341 129.537 109.212 129.153 109.24 128.764C109.267 128.374 109.448 128.012 109.743 127.756C110.038 127.5 110.423 127.372 110.812 127.399C112.37 127.508 113.947 127.554 115.502 127.532C115.841 127.527 116.172 127.639 116.438 127.849C116.705 128.059 116.89 128.355 116.963 128.686C117.036 129.017 116.993 129.364 116.84 129.667C116.687 129.969 116.434 130.21 116.124 130.348C115.941 130.43 115.743 130.472 115.542 130.472V130.478ZM102.666 129.231C101.059 128.894 99.4484 128.486 97.8775 128.017C97.6919 127.962 97.5189 127.871 97.3685 127.749C97.2181 127.627 97.0931 127.477 97.0008 127.307C96.9085 127.137 96.8506 126.95 96.8304 126.758C96.8102 126.565 96.8281 126.371 96.8832 126.185C96.9382 126 97.0293 125.827 97.1512 125.676C97.2731 125.526 97.4234 125.401 97.5936 125.309C97.7638 125.217 97.9505 125.159 98.143 125.139C98.3356 125.118 98.5303 125.136 98.7159 125.191C100.208 125.636 101.739 126.024 103.265 126.344C103.455 126.384 103.634 126.46 103.794 126.569C103.954 126.678 104.09 126.817 104.196 126.979C104.302 127.141 104.375 127.322 104.411 127.512C104.447 127.702 104.445 127.897 104.405 128.086C104.365 128.276 104.289 128.455 104.18 128.615C104.071 128.774 103.931 128.911 103.769 129.017C103.607 129.123 103.426 129.195 103.236 129.231C103.046 129.267 102.851 129.265 102.662 129.225L102.666 129.231ZM90.3622 125.206C88.8672 124.528 87.3836 123.776 85.9529 122.979C85.6114 122.789 85.3593 122.472 85.252 122.097C85.1446 121.721 85.1909 121.318 85.3806 120.977C85.5704 120.636 85.888 120.384 86.2636 120.276C86.6392 120.169 87.0421 120.215 87.3836 120.405C88.7427 121.164 90.1533 121.877 91.574 122.521C91.75 122.601 91.9086 122.715 92.0407 122.856C92.1727 122.997 92.2757 123.163 92.3436 123.344C92.4116 123.525 92.4432 123.718 92.4367 123.911C92.4302 124.104 92.3857 124.294 92.3058 124.47C92.2258 124.646 92.112 124.804 91.9708 124.936C91.8296 125.068 91.6637 125.171 91.4827 125.239C91.3017 125.307 91.1091 125.339 90.9158 125.332C90.7226 125.326 90.5325 125.281 90.3565 125.201L90.3622 125.206ZM79.2302 118.595C77.9183 117.605 76.635 116.55 75.4132 115.448C75.2562 115.324 75.1263 115.168 75.0315 114.992C74.9367 114.815 74.8791 114.621 74.8621 114.421C74.8452 114.221 74.8692 114.02 74.9328 113.83C74.9964 113.64 75.0982 113.465 75.232 113.315C75.3657 113.166 75.5286 113.045 75.7106 112.961C75.8927 112.877 76.09 112.831 76.2905 112.825C76.491 112.82 76.6905 112.856 76.8767 112.93C77.0629 113.005 77.2318 113.117 77.3732 113.259C78.5321 114.299 79.751 115.301 80.9971 116.241C81.1514 116.357 81.2811 116.503 81.379 116.669C81.4769 116.836 81.541 117.02 81.5675 117.212C81.5941 117.403 81.5827 117.598 81.5339 117.785C81.4851 117.972 81.3999 118.147 81.2832 118.301C81.1348 118.5 80.9377 118.657 80.711 118.758C80.4706 118.865 80.2057 118.906 79.9439 118.877C79.6822 118.847 79.4332 118.748 79.2231 118.589L79.2302 118.595ZM69.8164 109.684C68.7578 108.434 67.7391 107.121 66.7877 105.784C66.6757 105.627 66.5957 105.449 66.5525 105.26C66.5093 105.072 66.5036 104.877 66.5359 104.686C66.6009 104.301 66.8163 103.958 67.1347 103.731C67.453 103.505 67.8482 103.415 68.2334 103.48C68.6185 103.545 68.962 103.76 69.1884 104.078C70.0926 105.35 71.0597 106.597 72.0655 107.783C72.3176 108.082 72.4409 108.468 72.4083 108.857C72.3757 109.246 72.1899 109.606 71.8916 109.858C71.744 109.983 71.5731 110.077 71.3889 110.136C71.2047 110.195 71.0107 110.217 70.818 110.2C70.4289 110.168 70.0686 109.982 69.8164 109.684ZM62.5902 98.9587C62.0293 97.889 61.4957 96.7893 61.0021 95.691C60.8233 95.292 60.6502 94.8945 60.4814 94.4941C60.4038 94.3163 60.3625 94.1249 60.36 93.931C60.3575 93.7371 60.3937 93.5446 60.4666 93.3649C60.5395 93.1852 60.6476 93.0219 60.7845 92.8845C60.9214 92.7471 61.0844 92.6385 61.2639 92.5649C61.4421 92.4896 61.6334 92.4501 61.8269 92.4488C62.0203 92.4474 62.2122 92.4841 62.3914 92.5569C62.5707 92.6297 62.7338 92.7371 62.8715 92.8729C63.0092 93.0088 63.1187 93.1704 63.1939 93.3486C63.3541 93.7276 63.5201 94.108 63.6889 94.4855C64.1582 95.5309 64.6661 96.5762 65.1983 97.593C65.2882 97.7641 65.3434 97.9513 65.3609 98.1438C65.3783 98.3363 65.3576 98.5304 65.2999 98.7149C65.2423 98.8994 65.1488 99.0707 65.0248 99.219C64.9008 99.3673 64.7487 99.4898 64.5774 99.5793L64.4958 99.6193C64.1537 99.7724 63.7661 99.7892 63.412 99.6665C63.0579 99.5437 62.764 99.2906 62.5902 98.9587Z" fill="#91B3FA"/>
<path d="M164.578 102.35C164.854 102.226 165.085 102.021 165.239 101.76C165.647 101.075 166.047 100.369 166.431 99.6597C166.523 99.4897 166.58 99.3032 166.6 99.1109C166.62 98.9187 166.601 98.7244 166.546 98.5393C166.491 98.3541 166.399 98.1816 166.277 98.0317C166.155 97.8818 166.005 97.7574 165.835 97.6655C165.665 97.5737 165.478 97.5163 165.286 97.4965C165.093 97.4767 164.899 97.495 164.714 97.5503C164.529 97.6056 164.356 97.6969 164.206 97.8188C164.056 97.9408 163.932 98.0911 163.84 98.2611C163.475 98.9333 163.094 99.6054 162.708 100.255C162.548 100.524 162.477 100.837 162.507 101.148C162.537 101.46 162.665 101.754 162.874 101.988C163.083 102.222 163.36 102.383 163.667 102.448C163.973 102.513 164.292 102.478 164.578 102.35Z" fill="#91B3FA"/>
</g>
<path d="M158.385 77.8857C158.421 77.7466 158.413 77.5995 158.362 77.4652C158.311 77.3308 158.218 77.2158 158.098 77.1364L151.16 72.4444C151.296 68.4818 150.785 64.5235 149.648 60.7252L155.144 54.413C155.238 54.3048 155.296 54.1702 155.309 54.0278C155.323 53.8853 155.293 53.7421 155.221 53.6179L150.205 44.9147C150.134 44.7905 150.026 44.6918 149.895 44.6323C149.765 44.5728 149.619 44.5555 149.479 44.5829L141.258 46.1674C138.546 43.2737 135.38 40.8417 131.884 38.9671L131.312 30.6128C131.302 30.4702 131.247 30.3343 131.156 30.2239C131.065 30.1135 130.942 30.034 130.804 29.9965L121.1 27.3867C120.961 27.3503 120.814 27.3583 120.68 27.4096C120.546 27.4609 120.431 27.5529 120.352 27.6727L115.642 34.607C111.677 34.4751 107.718 34.9905 103.919 36.1328L97.6042 30.64C97.4963 30.5458 97.3616 30.4877 97.2189 30.4738C97.0763 30.46 96.9329 30.4911 96.8088 30.5628L88.1018 35.5679C87.9777 35.6396 87.879 35.7479 87.8193 35.8781C87.7596 36.0082 87.7418 36.1537 87.7684 36.2944L89.3536 44.5114C86.4594 47.2234 84.0264 50.3886 82.1502 53.8825L73.7937 54.4616C73.6507 54.4712 73.5143 54.5253 73.4037 54.6164C73.2931 54.7074 73.2138 54.8309 73.1771 54.9693L70.5661 64.6678C70.529 64.806 70.536 64.9523 70.586 65.0864C70.636 65.2204 70.7265 65.3356 70.8451 65.4158L77.7824 70.1092C77.651 74.0721 78.1671 78.03 79.3103 81.8269L73.8137 88.1405C73.7198 88.2483 73.6618 88.3827 73.648 88.525C73.6341 88.6673 73.6651 88.8104 73.7365 88.9342L78.7524 97.6389C78.8238 97.7631 78.9322 97.8618 79.0625 97.9213C79.1928 97.9808 79.3385 97.998 79.4791 97.9706L87.6997 96.3847C90.4118 99.2784 93.5779 101.71 97.0735 103.585L97.6529 111.938C97.6628 112.081 97.717 112.217 97.808 112.328C97.8991 112.439 98.0224 112.518 98.1608 112.556L107.872 115.167C108.011 115.203 108.158 115.196 108.292 115.144C108.427 115.093 108.541 115.001 108.62 114.881L113.309 107.954C117.276 108.087 121.239 107.571 125.04 106.428L131.355 111.921C131.463 112.015 131.598 112.073 131.74 112.087C131.883 112.1 132.026 112.069 132.151 111.998L140.858 106.984C140.982 106.913 141.081 106.804 141.14 106.674C141.2 106.544 141.217 106.398 141.189 106.258L139.604 98.0422C142.499 95.3306 144.933 92.1654 146.809 88.6711L155.166 88.0991C155.309 88.0893 155.445 88.0351 155.555 87.9441C155.666 87.8531 155.745 87.7297 155.782 87.5914L158.385 77.8857Z" fill="#91B3FA"/>
<path d="M117.222 80.9932C114.706 81.7032 112.012 81.4102 109.708 80.1761C107.404 78.9419 105.668 76.8627 104.866 74.3757C104.064 71.8887 104.258 69.1876 105.407 66.8406C106.556 64.4935 108.571 62.6834 111.028 61.7908C113.485 60.8982 116.193 60.9927 118.581 62.0545C120.97 63.1162 122.854 65.0625 123.836 67.4839C124.819 69.9054 124.824 72.6134 123.85 75.0384C122.876 77.4634 121 79.4165 118.615 80.487C118.164 80.6896 117.698 80.8588 117.222 80.9932ZM107.718 67.4979C106.843 69.0608 106.537 70.8786 106.853 72.6415C107.169 74.4044 108.086 76.0033 109.449 77.1659C110.812 78.3284 112.536 78.9826 114.327 79.017C116.119 79.0514 117.866 78.4638 119.273 77.3545C120.68 76.2451 121.658 74.6826 122.041 72.9331C122.424 71.1836 122.189 69.3555 121.374 67.7601C120.56 66.1648 119.218 64.901 117.576 64.1841C115.934 63.4672 114.094 63.3415 112.37 63.8285C112.001 63.9322 111.64 64.0632 111.29 64.2203C109.776 64.8982 108.523 66.0482 107.718 67.4979Z" fill="#BDD0FB"/>
<path d="M124.396 93.8766C125.173 93.5286 125.932 93.1415 126.67 92.7168C126.903 92.5824 127.135 92.4441 127.365 92.3021C128.494 91.6043 129.565 90.8177 130.568 89.9497L130.61 89.9153L130.724 89.8138C130.8 89.748 130.867 89.6808 130.947 89.615C131.04 89.5316 131.103 89.4211 131.129 89.2994C131.155 89.1776 131.141 89.0508 131.09 88.9372C131.065 88.8806 131.031 88.8284 130.989 88.7828C130.937 88.7254 130.874 88.6789 130.805 88.6457C130.735 88.6126 130.659 88.5936 130.582 88.5897C130.505 88.5859 130.427 88.5973 130.355 88.6233C130.282 88.6493 130.215 88.6894 130.158 88.7413C126.566 91.9839 122.067 94.0493 117.266 94.6593C112.465 95.2693 107.593 94.3948 103.304 92.1534C99.319 90.0784 96.0121 86.9058 93.7744 83.0111C93.3688 82.3081 92.9992 81.585 92.667 80.8446C90.2832 75.5009 89.9656 69.4637 91.7756 63.8996C93.5857 58.3355 97.3949 53.6396 102.467 50.7194C113.769 44.2098 128.263 48.1095 134.774 59.4069C135.175 60.1033 135.54 60.8183 135.867 61.5519C137.286 64.7113 137.99 68.1441 137.932 71.6065C137.936 71.7581 137.998 71.9022 138.106 72.0089C138.214 72.1155 138.359 72.1766 138.51 72.1794C138.662 72.1821 138.809 72.1264 138.92 72.0237C139.032 71.921 139.1 71.7793 139.109 71.628C139.183 67.1392 138.037 62.7145 135.794 58.8248C128.96 46.9526 113.738 42.8641 101.879 49.694C96.5547 52.76 92.5561 57.6898 90.656 63.5309C88.7559 69.3719 89.0891 75.7096 91.5912 81.3194C91.9397 82.0969 92.3274 82.8563 92.7529 83.5946C95.8208 88.9172 100.754 92.9142 106.598 94.8132C112.442 96.7123 118.784 96.3786 124.396 93.8766Z" fill="#BDD0FB"/>
<g opacity="0.3">
<path d="M231.55 70.0347C231.73 69.9544 231.878 69.8182 231.973 69.6465C232.069 69.4749 232.106 69.2769 232.08 69.0823C231.974 68.3173 231.845 67.545 231.695 66.7943C231.675 66.6737 231.632 66.5584 231.566 66.4551C231.501 66.3517 231.416 66.2626 231.316 66.1929C231.215 66.1232 231.102 66.0744 230.983 66.0495C230.863 66.0245 230.74 66.0239 230.62 66.0476C230.5 66.0713 230.386 66.1189 230.285 66.1876C230.184 66.2562 230.098 66.3445 230.032 66.4471C229.966 66.5498 229.921 66.6647 229.9 66.785C229.879 66.9053 229.883 67.0286 229.911 67.1475C230.054 67.8697 230.177 68.6061 230.277 69.3355C230.31 69.5744 230.436 69.7905 230.628 69.9364C230.82 70.0823 231.062 70.146 231.301 70.1134C231.388 70.0995 231.472 70.073 231.55 70.0347Z" fill="#91B3FA"/>
<path d="M229.882 63.2565C229.654 63.3313 229.406 63.3132 229.192 63.206C228.978 63.0989 228.814 62.9114 228.738 62.6844C228.337 61.4769 227.875 60.2903 227.354 59.1294C227.244 58.8863 227.132 58.6431 227.016 58.4C226.913 58.1825 226.9 57.9328 226.98 57.7057C227.061 57.4786 227.228 57.2927 227.446 57.1888C227.665 57.0937 227.912 57.0851 228.137 57.1647C228.362 57.2443 228.548 57.4062 228.659 57.6178C228.779 57.8724 228.896 58.1274 229.011 58.3829C229.557 59.6003 230.04 60.8446 230.46 62.111C230.531 62.3243 230.521 62.5564 230.43 62.7622C230.34 62.9681 230.176 63.133 229.971 63.225C229.942 63.237 229.912 63.2475 229.882 63.2565ZM224.783 54.3502C223.959 53.0486 223.055 51.7988 222.078 50.6077C221.935 50.4203 221.87 50.1849 221.898 49.9508C221.925 49.7168 222.042 49.5026 222.225 49.3532C222.407 49.2038 222.64 49.131 222.875 49.15C223.11 49.169 223.328 49.2784 223.484 49.4551C224.509 50.7024 225.456 52.012 226.32 53.3763C226.384 53.4775 226.427 53.5903 226.447 53.7082C226.467 53.8261 226.464 53.9468 226.437 54.0634C226.411 54.1801 226.361 54.2903 226.292 54.3878C226.223 54.4854 226.135 54.5683 226.034 54.6319C225.996 54.6546 225.958 54.6752 225.918 54.6934C225.719 54.7811 225.495 54.7947 225.287 54.7318C225.079 54.6688 224.9 54.5334 224.783 54.3502ZM218.929 47.23C217.81 46.1702 216.627 45.1806 215.387 44.2669C215.287 44.1974 215.203 44.1087 215.138 44.006C215.074 43.9033 215.03 43.7888 215.011 43.6692C214.991 43.5496 214.996 43.4272 215.024 43.3093C215.052 43.1915 215.104 43.0804 215.176 42.9828C215.248 42.8852 215.339 42.8029 215.443 42.7409C215.547 42.6788 215.663 42.6382 215.783 42.6214C215.903 42.6046 216.025 42.612 216.142 42.6431C216.26 42.6742 216.369 42.7284 216.465 42.8026C217.766 43.759 219.006 44.7949 220.179 45.9043C220.266 45.9864 220.336 46.0849 220.385 46.1941C220.434 46.3033 220.461 46.4211 220.464 46.5407C220.467 46.6603 220.447 46.7794 220.404 46.891C220.361 47.0027 220.296 47.1048 220.214 47.1914C220.132 47.2767 220.035 47.3456 219.928 47.3944C219.763 47.4686 219.581 47.4925 219.403 47.4632C219.226 47.434 219.061 47.3528 218.929 47.23ZM211.504 41.7644C210.16 41.0129 208.771 40.3443 207.345 39.7623C207.13 39.6654 206.962 39.4891 206.874 39.2705C206.787 39.0519 206.788 38.808 206.877 38.5901C206.966 38.3722 207.136 38.1972 207.351 38.1019C207.567 38.0066 207.81 37.9985 208.032 38.0792C209.528 38.6893 210.984 39.3914 212.394 40.1813C212.501 40.2378 212.597 40.3154 212.674 40.4093C212.751 40.5032 212.808 40.6116 212.843 40.7282C212.877 40.8447 212.888 40.967 212.875 41.0878C212.861 41.2085 212.824 41.3254 212.764 41.4314C212.705 41.5374 212.624 41.6304 212.528 41.7049C212.432 41.7795 212.322 41.834 212.205 41.8653C212.087 41.8966 211.965 41.9041 211.844 41.8872C211.724 41.8704 211.608 41.8296 211.504 41.7672V41.7644ZM202.97 38.2779C201.483 37.8739 199.973 37.5616 198.448 37.3427C198.328 37.3267 198.214 37.2873 198.11 37.2267C198.006 37.1661 197.915 37.0856 197.843 36.9897C197.77 36.8939 197.717 36.7846 197.687 36.6683C197.657 36.5519 197.651 36.4308 197.668 36.3118C197.685 36.1929 197.726 36.0785 197.787 35.9753C197.849 35.8722 197.93 35.7822 198.027 35.7106C198.123 35.6391 198.233 35.5873 198.35 35.5585C198.466 35.5296 198.588 35.5241 198.706 35.5423C200.303 35.7729 201.884 36.1005 203.441 36.5233C203.667 36.5922 203.857 36.7465 203.971 36.9533C204.086 37.1601 204.115 37.4033 204.053 37.6314C203.991 37.8595 203.843 38.0545 203.64 38.1752C203.436 38.2958 203.194 38.3327 202.964 38.2779H202.97ZM193.847 36.968C192.307 36.9369 190.768 37.0018 189.237 37.1625C188.998 37.186 188.759 37.1141 188.573 36.9623C188.387 36.8106 188.268 36.5913 188.243 36.3525C188.218 36.1136 188.288 35.8745 188.439 35.6874C188.589 35.5002 188.808 35.3802 189.047 35.3535C190.653 35.1859 192.268 35.1177 193.882 35.149C194.124 35.1537 194.353 35.2541 194.52 35.428C194.688 35.6019 194.779 35.8352 194.774 36.0764C194.77 36.3176 194.669 36.5471 194.495 36.7143C194.321 36.8815 194.088 36.9728 193.847 36.968ZM184.69 37.9261C183.19 38.275 181.712 38.7168 180.267 39.2489C180.042 39.3217 179.799 39.3049 179.587 39.2019C179.375 39.0989 179.211 38.9179 179.13 38.6967C179.048 38.4755 179.056 38.2315 179.151 38.0158C179.246 37.8001 179.421 37.6296 179.639 37.54C181.155 36.9846 182.705 36.5223 184.278 36.1558C184.498 36.1076 184.727 36.1423 184.923 36.2532C185.118 36.3641 185.266 36.5434 185.337 36.7565C185.408 36.9696 185.397 37.2014 185.308 37.4073C185.218 37.6133 185.055 37.7787 184.85 37.8718C184.797 37.8952 184.741 37.9134 184.683 37.9261H184.69ZM170.801 43.2173C170.666 43.0179 170.615 42.773 170.66 42.5362C170.705 42.2995 170.842 42.0903 171.042 41.9546C172.202 41.1659 173.404 40.4398 174.643 39.7795C174.833 39.6784 175.021 39.5793 175.206 39.482C175.421 39.3749 175.669 39.3567 175.897 39.4313C176.125 39.506 176.314 39.6675 176.423 39.8808C176.532 40.0941 176.553 40.3419 176.481 40.5703C176.408 40.7988 176.248 40.9894 176.036 41.1008C175.859 41.1909 175.681 41.2839 175.503 41.3868C174.322 42.0179 173.176 42.711 172.069 43.4633C172.024 43.4935 171.976 43.5198 171.926 43.5419C171.73 43.6309 171.509 43.6476 171.302 43.5893C171.095 43.5309 170.915 43.4012 170.794 43.223L170.801 43.2173Z" fill="#91B3FA"/>
</g>
<g opacity="0.3">
<path d="M208.725 110.465C207.268 111.096 205.773 111.638 204.25 112.089C204.135 112.127 204.012 112.142 203.891 112.132C203.769 112.123 203.651 112.088 203.543 112.032C203.434 111.976 203.339 111.898 203.261 111.804C203.184 111.71 203.126 111.601 203.091 111.484C203.057 111.367 203.046 111.244 203.06 111.123C203.073 111.002 203.111 110.885 203.171 110.779C203.231 110.673 203.312 110.58 203.409 110.505C203.505 110.431 203.616 110.377 203.734 110.346C205.187 109.916 206.613 109.398 208.003 108.796C208.224 108.698 208.474 108.693 208.699 108.78C208.924 108.867 209.105 109.04 209.203 109.261C209.3 109.482 209.305 109.732 209.218 109.957C209.131 110.182 208.958 110.363 208.737 110.46L208.725 110.465ZM211.73 107.986C211.67 107.883 211.63 107.769 211.614 107.651C211.598 107.533 211.605 107.413 211.635 107.297C211.666 107.182 211.718 107.074 211.791 106.979C211.863 106.884 211.953 106.804 212.056 106.744C213.365 105.979 214.627 105.136 215.836 104.221C216.028 104.075 216.271 104.012 216.51 104.045C216.749 104.078 216.965 104.205 217.111 104.397C217.256 104.589 217.32 104.831 217.287 105.07C217.254 105.309 217.127 105.525 216.935 105.671C215.668 106.63 214.345 107.513 212.973 108.314C212.945 108.33 212.916 108.345 212.886 108.358C212.682 108.447 212.453 108.459 212.241 108.39C212.03 108.322 211.851 108.178 211.738 107.986H211.73ZM199.606 113.159C198.039 113.418 196.457 113.584 194.869 113.653C194.75 113.659 194.631 113.64 194.518 113.599C194.406 113.558 194.303 113.496 194.215 113.415C194.037 113.252 193.931 113.025 193.921 112.784C193.91 112.543 193.996 112.308 194.159 112.13C194.322 111.952 194.55 111.846 194.791 111.836C196.305 111.769 197.813 111.612 199.309 111.365C199.527 111.33 199.75 111.375 199.937 111.491C200.124 111.608 200.263 111.789 200.326 112C200.39 112.211 200.375 112.438 200.284 112.639C200.193 112.84 200.032 113 199.831 113.091C199.759 113.122 199.684 113.145 199.606 113.159ZM219.265 102.546C219.182 102.461 219.116 102.36 219.071 102.248C219.027 102.137 219.005 102.019 219.007 101.899C219.009 101.779 219.034 101.661 219.081 101.552C219.129 101.442 219.198 101.342 219.284 101.259C220.37 100.203 221.391 99.0812 222.341 97.9002C222.493 97.7122 222.713 97.5923 222.953 97.5667C223.194 97.541 223.434 97.6119 223.622 97.7636C223.81 97.9153 223.93 98.1354 223.956 98.3756C223.981 98.6158 223.911 98.8563 223.759 99.0442C222.763 100.283 221.691 101.46 220.551 102.568C220.475 102.641 220.386 102.701 220.289 102.745C220.119 102.821 219.929 102.843 219.746 102.807C219.563 102.772 219.395 102.681 219.265 102.546ZM190.111 113.568C188.525 113.444 186.949 113.224 185.39 112.91C185.153 112.862 184.945 112.722 184.812 112.521C184.678 112.32 184.63 112.075 184.678 111.838C184.726 111.602 184.866 111.394 185.067 111.26C185.268 111.127 185.514 111.079 185.75 111.127C187.236 111.426 188.738 111.636 190.248 111.754C190.368 111.763 190.485 111.795 190.593 111.848C190.701 111.902 190.796 111.977 190.875 112.068C190.953 112.159 191.013 112.264 191.051 112.379C191.088 112.493 191.102 112.613 191.093 112.733C191.083 112.853 191.05 112.97 190.995 113.077C190.941 113.184 190.865 113.279 190.773 113.356C190.681 113.434 190.575 113.493 190.46 113.529C190.346 113.565 190.225 113.578 190.105 113.568H190.111ZM180.792 111.686C179.283 111.185 177.806 110.595 176.368 109.918C176.155 109.812 175.991 109.627 175.913 109.402C175.835 109.177 175.848 108.931 175.95 108.715C176.052 108.5 176.234 108.333 176.457 108.251C176.681 108.168 176.928 108.176 177.145 108.274C178.516 108.923 179.925 109.489 181.364 109.97C181.48 110.005 181.588 110.063 181.682 110.141C181.775 110.218 181.852 110.314 181.908 110.421C181.964 110.529 181.998 110.647 182.008 110.768C182.017 110.889 182.003 111.011 181.964 111.126C181.926 111.242 181.865 111.348 181.785 111.44C181.705 111.531 181.608 111.605 181.498 111.658C181.389 111.712 181.27 111.742 181.149 111.749C181.027 111.755 180.906 111.737 180.792 111.696V111.686ZM172.191 107.63C170.845 106.783 169.552 105.855 168.319 104.852C168.148 104.695 168.043 104.479 168.026 104.248C168.009 104.017 168.081 103.788 168.227 103.608C168.373 103.428 168.583 103.31 168.812 103.279C169.042 103.249 169.275 103.307 169.464 103.442C170.639 104.399 171.872 105.283 173.155 106.09C173.359 106.218 173.504 106.423 173.558 106.658C173.611 106.893 173.569 107.14 173.441 107.344C173.312 107.548 173.108 107.693 172.873 107.747C172.638 107.801 172.391 107.759 172.186 107.63H172.191Z" fill="#91B3FA"/>
<path d="M226.137 95.4692C226.302 95.395 226.441 95.273 226.536 95.1189C226.946 94.4568 227.338 93.7804 227.702 93.1068C227.759 93.0017 227.794 92.8865 227.806 92.7677C227.819 92.6489 227.807 92.5288 227.773 92.4143C227.739 92.2999 227.683 92.1932 227.607 92.1006C227.532 92.0079 227.439 91.9309 227.334 91.8741C227.229 91.8173 227.114 91.7817 226.995 91.7695C226.876 91.7572 226.756 91.7684 226.641 91.8026C226.527 91.8367 226.42 91.893 226.327 91.9684C226.235 92.0437 226.158 92.1366 226.101 92.2416C225.755 92.8837 225.386 93.5287 224.989 94.1607C224.887 94.3261 224.841 94.5199 224.857 94.7136C224.873 94.9073 224.951 95.0907 225.079 95.2371C225.207 95.3834 225.378 95.4849 225.568 95.5267C225.758 95.5684 225.956 95.5483 226.134 95.4692H226.137Z" fill="#91B3FA"/>
</g>
<path d="M222.384 78.5721C222.409 78.4797 222.405 78.3817 222.372 78.2919C222.338 78.2021 222.277 78.1251 222.198 78.0716L217.555 74.9255C217.643 72.2732 217.298 69.6243 216.533 67.0832L220.211 62.8602C220.274 62.7881 220.313 62.6979 220.322 62.6025C220.331 62.5071 220.31 62.4112 220.262 62.3283L216.906 56.5037C216.858 56.4209 216.786 56.355 216.699 56.3153C216.612 56.2756 216.515 56.264 216.421 56.2821L210.92 57.3446C209.104 55.4089 206.985 53.7817 204.647 52.5268L204.259 46.9367C204.252 46.8412 204.216 46.7501 204.155 46.6762C204.094 46.6023 204.011 46.5494 203.918 46.5249L197.432 44.7802C197.339 44.7555 197.241 44.7603 197.151 44.7939C197.062 44.8274 196.985 44.8882 196.931 44.9676L193.784 49.6081C191.13 49.5199 188.48 49.8647 185.938 50.6291L181.713 46.9539C181.641 46.8909 181.551 46.852 181.455 46.8428C181.36 46.8335 181.264 46.8544 181.181 46.9024L175.354 50.2559C175.271 50.3038 175.205 50.3764 175.165 50.4635C175.125 50.5507 175.114 50.648 175.132 50.7421L176.192 56.2406C174.255 58.0552 172.627 60.1732 171.372 62.5113L165.78 62.8989C165.684 62.9052 165.593 62.9413 165.519 63.0021C165.445 63.0629 165.392 63.1453 165.368 63.2378L163.621 69.7287C163.596 69.8211 163.6 69.9191 163.634 70.0088C163.667 70.0985 163.727 70.1756 163.807 70.2293L168.449 73.3753C168.361 76.0271 168.706 78.6755 169.471 81.2163L165.794 85.4406C165.731 85.5128 165.692 85.6029 165.683 85.6983C165.674 85.7937 165.694 85.8896 165.743 85.9726L169.105 91.7914C169.153 91.8743 169.225 91.9402 169.312 91.98C169.4 92.0197 169.497 92.0313 169.591 92.0131L175.085 90.9505C176.9 92.8874 179.019 94.5152 181.358 95.7698L181.746 101.36C181.752 101.455 181.789 101.546 181.849 101.62C181.91 101.694 181.993 101.747 182.085 101.772L188.579 103.518C188.671 103.543 188.769 103.538 188.859 103.505C188.949 103.471 189.026 103.411 189.08 103.332L192.227 98.6914C194.88 98.7792 197.53 98.4338 200.071 97.6689L204.299 101.347C204.371 101.41 204.461 101.449 204.557 101.458C204.652 101.467 204.748 101.446 204.831 101.398L210.658 98.0435C210.741 97.9958 210.807 97.9232 210.847 97.836C210.887 97.7488 210.898 97.6514 210.88 97.5573L209.82 92.0603C211.756 90.2454 213.384 88.1274 214.64 85.7895L220.232 85.402C220.328 85.3953 220.419 85.3589 220.493 85.2979C220.567 85.2369 220.62 85.1543 220.644 85.0616L222.384 78.5721Z" fill="#91B3FA"/>
<path d="M194.872 80.7684C193.159 81.2515 191.326 81.0521 189.757 80.212C188.188 79.3719 187.006 77.9565 186.46 76.2635C185.913 74.5705 186.045 72.7316 186.826 71.1334C187.608 69.5352 188.979 68.3021 190.651 67.6933C192.324 67.0846 194.167 67.1475 195.794 67.869C197.421 68.5905 198.704 69.9143 199.375 71.5621C200.046 73.21 200.051 75.0536 199.39 76.7053C198.729 78.3571 197.453 79.6884 195.831 80.4195C195.52 80.5589 195.2 80.6755 194.872 80.7684ZM188.132 75.5245C188.313 76.1637 188.618 76.7612 189.029 77.2827C189.441 77.8043 189.951 78.2396 190.531 78.5641C191.111 78.8885 191.749 79.0955 192.409 79.1734C193.069 79.2513 193.738 79.1985 194.377 79.018C195.34 78.7462 196.201 78.195 196.851 77.4342C197.501 76.6733 197.91 75.7369 198.028 74.7434C198.145 73.7499 197.965 72.744 197.51 71.8528C197.056 70.9615 196.347 70.2251 195.474 69.7365C194.6 69.2479 193.602 69.0292 192.604 69.1079C191.606 69.1867 190.654 69.5594 189.869 70.1789C189.083 70.7984 188.498 71.637 188.189 72.5885C187.88 73.54 187.861 74.5617 188.132 75.5245Z" fill="#BDD0FB"/>
<path d="M199.864 89.7352C200.389 89.4997 200.906 89.2356 201.415 88.9429C202.426 88.3612 203.375 87.6784 204.249 86.9051L204.366 86.7993C204.538 86.6357 204.639 86.4116 204.647 86.1747C204.656 85.9378 204.572 85.7068 204.413 85.531C204.254 85.3552 204.032 85.2484 203.796 85.2334C203.559 85.2185 203.326 85.2964 203.146 85.4508C202.337 86.1814 201.453 86.8238 200.508 87.367L200.352 87.4543C198.141 88.7037 195.652 89.3779 193.113 89.4148C191.732 89.4338 190.355 89.2674 189.018 88.92L188.985 88.9115L188.885 88.8843C186.939 88.3681 185.115 87.471 183.519 86.2451C181.923 85.0192 180.586 83.4888 179.586 81.7427C179.323 81.2875 179.085 80.8193 178.87 80.3398C177.278 76.7573 177.122 72.7009 178.433 69.0066C179.744 65.3122 182.424 62.2615 185.918 60.483C189.413 58.7045 193.458 58.3339 197.218 59.4475C200.978 60.5611 204.167 63.074 206.129 66.4684C207.514 68.8657 208.22 71.5943 208.173 74.3622C208.17 74.4957 208.197 74.6281 208.252 74.7498C208.337 74.9383 208.483 75.0923 208.667 75.1865C208.851 75.2807 209.062 75.3094 209.264 75.268C209.467 75.2265 209.649 75.1173 209.781 74.9584C209.914 74.7995 209.988 74.6003 209.992 74.3937C210.054 70.6865 208.912 67.0591 206.736 64.0565C204.56 61.0538 201.468 58.838 197.924 57.742C194.381 56.646 190.577 56.7289 187.085 57.9784C183.592 59.2278 180.6 61.5763 178.557 64.6709C176.514 67.7656 175.531 71.4393 175.755 75.1402C175.98 78.8411 177.399 82.3693 179.801 85.1947C182.203 88.0202 185.457 89.9902 189.075 90.809C192.693 91.6277 196.479 91.2509 199.864 89.7352Z" fill="#BDD0FB"/>
<path d="M144.277 174.12L125.279 207.021L92.8573 189.775L98.5542 211.052L130.972 228.286L149.972 195.399L144.277 174.12Z" fill="url(#paint0_linear_829_415)"/>
<path d="M361.769 123.402L336.813 113.361C329.51 103.847 320.632 95.6539 310.563 89.1357C259.538 55.9988 188.749 71.3846 152.761 123.427C137.81 145.032 130.72 170.002 132.211 195.02C132.494 199.923 133.107 204.801 134.045 209.621C134.856 213.778 132.063 217.952 127.806 218.951C123.548 219.949 119.455 217.388 118.649 213.23C117.97 209.703 117.438 206.176 117.053 202.648C113.778 172.162 121.744 141.442 139.962 115.112C180.932 55.8673 261.523 38.3535 319.606 76.0723C326.693 80.6731 333.279 86.0029 339.256 91.9744C348.427 101.152 356.032 111.768 361.769 123.402Z" fill="url(#paint1_linear_829_415)"/>
<path d="M360.58 215.067L379.578 182.166L412 199.413L406.303 178.134L373.886 160.902L354.885 193.789L360.58 215.067Z" fill="url(#paint2_linear_829_415)"/>
<path d="M364.914 274.086C323.935 333.329 243.345 350.836 185.263 313.114C178.173 308.521 171.587 303.194 165.612 297.222C156.66 288.263 149.197 277.932 143.506 266.619L169.919 278.203C176.855 286.717 185.082 294.093 194.301 300.062C245.318 333.199 316.108 317.814 352.104 265.771C367.054 244.165 374.145 219.195 372.654 194.169C372.371 189.272 371.758 184.398 370.82 179.583C370.01 175.424 372.801 171.251 377.059 170.253C381.317 169.255 385.411 171.816 386.215 175.973C386.895 179.501 387.427 183.028 387.812 186.556C391.089 217.034 383.123 247.75 364.914 274.086Z" fill="url(#paint3_linear_829_415)"/>
<path d="M161.631 292.217H12.2279V263.425H161.631C158.433 263.425 158.433 292.217 161.631 292.217Z" fill="#BDD0FB"/>
<path d="M12.2279 285.007V271.836C12.2279 267.19 15.1808 263.425 18.8233 263.425H161C163.861 263.425 166.186 261.19 166.186 258.431C166.178 258.021 166.008 257.632 165.713 257.347C165.418 257.063 165.022 256.907 164.612 256.914H9.22206C5.65828 256.914 0 262.309 0 268.963V287.367C0 293.642 5.49232 298.735 8.85295 298.735H163.794C165.116 298.735 166.187 297.703 166.187 296.43C166.187 294.108 164.232 292.224 161.82 292.224H17.8833C14.7573 292.217 12.2279 288.991 12.2279 285.007Z" fill="#7D97F4"/>
<path opacity="0.46" d="M156.456 269.835H16.3711C16.2448 269.825 16.1268 269.768 16.0407 269.675C15.9547 269.582 15.9068 269.461 15.9068 269.334C15.9068 269.207 15.9547 269.086 16.0407 268.993C16.1268 268.9 16.2448 268.843 16.3711 268.833H156.456C156.582 268.843 156.7 268.9 156.786 268.993C156.873 269.086 156.92 269.207 156.92 269.334C156.92 269.461 156.873 269.582 156.786 269.675C156.7 269.768 156.582 269.825 156.456 269.835Z" fill="white"/>
<path opacity="0.46" d="M156.456 274.108H16.3711C16.2448 274.099 16.1268 274.042 16.0407 273.949C15.9547 273.856 15.9068 273.735 15.9068 273.608C15.9068 273.481 15.9547 273.359 16.0407 273.267C16.1268 273.174 16.2448 273.117 16.3711 273.107H156.456C156.582 273.117 156.7 273.174 156.786 273.267C156.873 273.359 156.92 273.481 156.92 273.608C156.92 273.735 156.873 273.856 156.786 273.949C156.7 274.042 156.582 274.099 156.456 274.108Z" fill="white"/>
<path opacity="0.46" d="M156.456 278.382H16.3711C16.2448 278.372 16.1268 278.315 16.0407 278.223C15.9547 278.13 15.9068 278.008 15.9068 277.881C15.9068 277.755 15.9547 277.633 16.0407 277.54C16.1268 277.447 16.2448 277.39 16.3711 277.381H156.456C156.525 277.376 156.594 277.385 156.66 277.407C156.725 277.43 156.785 277.466 156.835 277.513C156.886 277.56 156.927 277.617 156.954 277.681C156.982 277.744 156.996 277.812 156.996 277.881C156.996 277.95 156.982 278.019 156.954 278.082C156.927 278.145 156.886 278.202 156.835 278.249C156.785 278.296 156.725 278.332 156.66 278.355C156.594 278.378 156.525 278.387 156.456 278.382Z" fill="white"/>
<path opacity="0.46" d="M156.456 282.656H16.3711C16.2448 282.647 16.1268 282.59 16.0407 282.497C15.9547 282.404 15.9068 282.282 15.9068 282.156C15.9068 282.029 15.9547 281.907 16.0407 281.814C16.1268 281.722 16.2448 281.665 16.3711 281.655H156.456C156.582 281.665 156.7 281.722 156.786 281.814C156.873 281.907 156.92 282.029 156.92 282.156C156.92 282.282 156.873 282.404 156.786 282.497C156.7 282.59 156.582 282.647 156.456 282.656Z" fill="white"/>
<path opacity="0.46" d="M156.456 286.929H16.3711C16.2448 286.92 16.1268 286.863 16.0407 286.77C15.9547 286.677 15.9068 286.555 15.9068 286.429C15.9068 286.302 15.9547 286.18 16.0407 286.087C16.1268 285.995 16.2448 285.938 16.3711 285.928H156.456C156.525 285.923 156.594 285.932 156.66 285.955C156.725 285.978 156.785 286.014 156.835 286.061C156.886 286.108 156.927 286.165 156.954 286.228C156.982 286.291 156.996 286.36 156.996 286.429C156.996 286.498 156.982 286.566 156.954 286.63C156.927 286.693 156.886 286.75 156.835 286.797C156.785 286.844 156.725 286.88 156.66 286.903C156.594 286.925 156.525 286.934 156.456 286.929Z" fill="white"/>
<path d="M4.51089 346.532H197.787C199.477 346.532 200.847 345.162 200.847 343.473V301.481C200.847 299.792 199.477 298.422 197.787 298.422H4.51089C2.8208 298.422 1.4507 299.792 1.4507 301.481V343.473C1.4507 345.162 2.8208 346.532 4.51089 346.532Z" fill="url(#paint4_linear_829_415)"/>
<path d="M155.924 341.002H177.277C177.849 341.002 178.312 340.538 178.312 339.967V304.986C178.312 304.415 177.849 303.951 177.277 303.951H155.924C155.352 303.951 154.888 304.415 154.888 304.986V339.967C154.888 340.538 155.352 341.002 155.924 341.002Z" fill="url(#paint5_linear_829_415)"/>
<path d="M143.497 341.002H150.6C151.066 341.002 151.443 340.625 151.443 340.16V304.793C151.443 304.328 151.066 303.951 150.6 303.951H143.497C143.032 303.951 142.654 304.328 142.654 304.793V340.16C142.654 340.625 143.032 341.002 143.497 341.002Z" fill="url(#paint6_linear_829_415)"/>
<path d="M71.0912 117.704C70.9595 117.95 67.0152 120.728 67.0152 120.728C67.0152 120.728 64.2712 135.824 69.3043 143.256C74.3373 150.688 91.4796 137.455 91.4796 137.455C91.4796 137.455 101.119 135.948 105.962 117.006C107.072 112.66 100.125 115.962 92.3852 116.763C82.3963 117.791 71.0912 117.704 71.0912 117.704Z" fill="url(#paint7_linear_829_415)"/>
<path d="M54.8503 160.461C57.8983 158.36 61.2792 156.788 64.8506 155.812C66.194 155.445 73.446 157.552 77.9297 157.449C84.0816 157.306 90.3479 154.509 95.421 155.773C100.46 157.027 104.577 158.667 106.965 160.359C114.093 165.427 118.277 174.875 120.828 184.241C116 189.196 109.922 191.391 109.922 191.391L108.799 236.885L81.887 250.648L51.1692 235.242L52.2693 190.783C52.2693 190.783 42.5151 186.243 41.7983 184.591C41.0815 182.939 46.2448 166.375 54.8503 160.461Z" fill="#BDD0FB"/>
<path d="M42.2533 184.385C42.2533 184.385 29.1813 220.608 58.992 235.496C65.1811 234.674 62.8005 224.401 62.8005 224.401C62.8005 224.401 49.8487 221.541 53.7386 191.318C50.1548 188.374 42.2533 184.385 42.2533 184.385Z" fill="url(#paint8_linear_829_415)"/>
<path d="M120.2 184.385C120.2 184.385 129.195 222.197 103.461 235.496C97.2723 234.674 99.653 224.401 99.653 224.401C99.653 224.401 110.097 219.263 108.715 191.318C112.297 188.374 120.2 184.385 120.2 184.385Z" fill="url(#paint9_linear_829_415)"/>
<path d="M108.38 198.202H52.265C51.4638 198.202 50.8143 198.851 50.8143 199.652V236.59C50.8143 237.391 51.4638 238.04 52.265 238.04H108.38C109.181 238.04 109.831 237.391 109.831 236.59V199.652C109.831 198.851 109.181 198.202 108.38 198.202Z" fill="url(#paint10_linear_829_415)"/>
<path d="M83.8041 208.991C84.1159 211.104 82.9843 213.023 80.8698 213.335C79.8542 213.485 78.8205 213.226 77.9961 212.615C77.1716 212.003 76.6239 211.09 76.4733 210.075C76.1614 207.961 77.1286 205.862 79.2431 205.55C81.3576 205.238 83.4907 206.877 83.8041 208.991Z" fill="#91B3FA"/>
<path d="M135.716 249.851C128.963 248.301 113.352 249.136 113.352 249.136L112.718 250.852L111.666 259.395C111.666 259.395 126.532 262.073 133.86 262.066C134.557 262.068 135.25 261.965 135.916 261.759C136.139 261.559 136.357 261.351 136.564 261.125C139.673 257.733 138.774 252.748 135.716 249.851Z" fill="url(#paint11_linear_829_415)"/>
<path d="M136.385 250.021C136.174 249.961 135.956 249.905 135.716 249.851C138.774 252.748 139.673 257.733 136.564 261.127C136.357 261.353 136.135 261.556 135.916 261.76C141.413 260.05 142.065 251.617 136.385 250.021Z" fill="#BDD0FB"/>
<path d="M108.874 248.654L111.517 248.767C112.238 248.805 112.943 248.996 113.584 249.326C114.225 249.657 114.789 250.121 115.237 250.686C116.207 251.898 116.692 253.427 116.599 254.976C116.544 256.202 116.034 257.364 115.169 258.235C114.766 258.64 114.282 258.954 113.749 259.156C113.215 259.359 112.645 259.445 112.075 259.409L108.031 259.123L108.874 248.654Z" fill="url(#paint12_linear_829_415)"/>
<path d="M19.9864 249.03C26.7763 247.687 42.3591 248.998 42.3591 248.998L42.9514 250.736L43.7884 259.308C43.7884 259.308 28.8622 261.53 21.5372 261.298C20.8401 261.278 20.1499 261.153 19.4899 260.928C19.2711 260.72 19.0607 260.506 18.8576 260.274C15.8346 256.786 16.8561 251.83 19.9864 249.03Z" fill="url(#paint13_linear_829_415)"/>
<path d="M19.314 249.179C19.5271 249.126 19.7532 249.076 19.9878 249.036C16.8575 251.837 15.8389 256.792 18.859 260.28C19.0593 260.512 19.2725 260.726 19.4914 260.934C14.0377 259.05 13.5913 250.6 19.314 249.179Z" fill="#BDD0FB"/>
<path d="M46.8557 248.655L44.2075 248.684C43.4885 248.7 42.7812 248.869 42.1328 249.181C41.4844 249.492 40.91 249.938 40.4478 250.489C39.448 251.67 38.9243 253.182 38.9785 254.729C39.0035 255.958 39.4837 257.135 40.3261 258.031C40.7175 258.447 41.193 258.776 41.7211 258.994C42.2492 259.213 42.8178 259.317 43.3892 259.299L47.4394 259.136L46.8557 248.655Z" fill="url(#paint14_linear_829_415)"/>
<path d="M137.606 223.071C134.543 216.025 127.052 214.881 120.675 218.176C120.564 218.319 80.1873 239.007 44.5724 248.074C45.5751 251.369 46.1328 254.784 46.2305 258.227C46.2524 258.99 46.2405 259.741 46.1947 260.481C73.5018 259.078 103.135 249.976 128.601 241.974C136.504 239.435 141.001 230.88 137.606 223.071Z" fill="url(#paint15_linear_829_415)"/>
<path d="M109.061 258.769C108.954 254.83 109.72 251.164 111.359 247.77C111.406 247.614 111.462 247.466 111.512 247.311C109.477 246.682 106.851 245.83 103.4 244.658C78.1143 236.008 58.8218 227.275 40.4106 217.223C33.2572 213.316 25.1253 215.936 22.8363 224.395C20.7918 231.945 25.4301 237.98 32.0927 240.659C54.9948 249.855 88.6383 258.248 109.104 259.628C109.088 259.339 109.071 259.053 109.061 258.769Z" fill="url(#paint16_linear_829_415)"/>
<path d="M64.8506 155.811C64.8506 155.811 67.5689 167.591 80.7739 167.346C94.2222 167.102 95.4211 155.773 95.4211 155.773L86.6353 153.894L85.9014 144.109L72.6878 145.088L72.4432 154.383L64.8506 155.811Z" fill="url(#paint17_linear_829_415)"/>
<path d="M74.5377 116.388C74.5377 116.388 59.3941 145.704 77.3575 152.823C90.0275 157.839 97.9719 133.351 95.6028 126.719C91.9388 116.463 89.5267 117.68 89.5267 117.68L74.5377 116.388Z" fill="url(#paint18_linear_829_415)"/>
<path d="M95.6085 126.719C95.5656 126.598 95.5284 126.493 95.4955 126.393C95.5527 126.935 95.5842 127.498 95.5899 128.079C95.6128 127.665 95.6328 127.252 95.6471 126.837C95.6342 126.797 95.6214 126.756 95.6085 126.719Z" fill="white"/>
<path d="M95.4954 126.393C95.474 126.192 95.4497 125.994 95.421 125.801C96.1993 127.098 94.7014 124.073 95.4954 126.393Z" fill="white"/>
<path d="M102.619 108.516C110.733 106.671 105.101 131.759 93.0218 127.647C80.9427 123.534 75.3131 121.007 73.4303 124.322C71.5476 127.637 68.4115 141.196 67.3686 134.168C66.3943 127.589 65.4515 115.55 71.8036 112.922C75.4075 111.429 78.5764 114.663 81.06 113.854C84.8856 112.607 88.5682 112.567 90.8401 113.875C95.1392 116.352 97.4626 109.684 102.619 108.516Z" fill="url(#paint19_linear_829_415)"/>
<path d="M72.0798 129.2C72.0798 129.2 69.4602 125.247 68.267 129.293C67.0739 133.338 67.8307 138.928 70.2313 136.33C72.632 133.732 72.0798 129.2 72.0798 129.2Z" fill="url(#paint20_linear_829_415)"/>
<path d="M320.52 125.832C321.299 153.588 323.82 249.329 322.616 283.257C322.489 286.85 319.233 289.736 315.177 289.853C295.089 290.435 221.447 291.91 188.59 290.69C181.746 290.435 176.304 285.529 176.162 279.47C175.478 250.336 173.973 168.394 177.553 130.857C177.982 126.36 181.971 122.777 187.047 122.328C208.923 120.392 282.881 115.657 311.268 117.287C316.382 117.582 320.393 121.293 320.52 125.832Z" fill="url(#paint21_linear_829_415)"/>
<path d="M306.58 129.902H194.147C189.635 129.902 185.976 133.558 185.976 138.069V161.592C185.976 166.102 189.635 169.759 194.147 169.759H306.58C311.092 169.759 314.751 166.102 314.751 161.592V138.069C314.751 133.558 311.092 129.902 306.58 129.902Z" fill="url(#paint22_linear_829_415)"/>
<g opacity="0.51">
<path d="M191.709 137.934C192.201 137.426 192.789 137.019 193.439 136.738C194.088 136.456 194.787 136.306 195.495 136.294L300.7 134.624C302.056 134.602 303.371 135.092 304.381 135.997C305.391 136.902 306.022 138.155 306.148 139.504L308.334 162.834C308.513 164.745 305.37 166.354 301.361 166.402L197.924 167.655C193.918 167.702 190.613 166.178 190.58 164.267L190.19 141.771C190.178 141.063 190.306 140.36 190.567 139.701C190.828 139.043 191.216 138.443 191.709 137.934Z" fill="#7D97F4"/>
</g>
<path d="M286.642 193.607C286.642 194.594 286.837 195.571 287.215 196.483C287.592 197.395 288.146 198.223 288.844 198.921C289.542 199.619 290.371 200.172 291.283 200.55C292.196 200.928 293.173 201.122 294.16 201.122H303.317C305.311 201.122 307.223 200.33 308.633 198.921C310.043 197.512 310.835 195.6 310.835 193.607C310.835 192.62 310.64 191.643 310.263 190.732C309.885 189.82 309.331 188.992 308.633 188.294C307.935 187.596 307.106 187.043 306.194 186.665C305.282 186.288 304.304 186.094 303.317 186.094H294.16C293.173 186.094 292.196 186.288 291.283 186.665C290.371 187.043 289.543 187.596 288.844 188.294C288.146 188.992 287.592 189.82 287.215 190.732C286.837 191.643 286.642 192.62 286.642 193.607Z" fill="url(#paint23_linear_829_415)"/>
<path d="M252.655 193.607C252.655 195.6 253.447 197.512 254.857 198.921C256.267 200.33 258.18 201.122 260.174 201.122H269.33C271.324 201.122 273.236 200.33 274.646 198.921C276.056 197.512 276.848 195.6 276.848 193.607C276.848 192.62 276.653 191.643 276.276 190.732C275.898 189.82 275.344 188.992 274.646 188.294C273.948 187.596 273.119 187.043 272.207 186.665C271.295 186.288 270.317 186.094 269.33 186.094H260.174C259.186 186.094 258.209 186.288 257.297 186.665C256.384 187.043 255.556 187.596 254.857 188.294C254.159 188.992 253.606 189.82 253.228 190.732C252.85 191.643 252.655 192.62 252.655 193.607Z" fill="url(#paint24_linear_829_415)"/>
<path d="M219.968 193.607C219.967 194.594 220.162 195.571 220.539 196.483C220.917 197.395 221.471 198.223 222.169 198.921C222.867 199.619 223.695 200.172 224.607 200.55C225.52 200.928 226.497 201.122 227.484 201.122H236.641C237.628 201.122 238.605 200.928 239.517 200.55C240.429 200.172 241.258 199.619 241.956 198.921C242.654 198.223 243.208 197.395 243.586 196.483C243.963 195.571 244.157 194.594 244.157 193.607C244.157 191.615 243.365 189.703 241.956 188.294C240.546 186.885 238.634 186.094 236.641 186.094H227.484C225.491 186.094 223.579 186.885 222.169 188.294C220.76 189.703 219.968 191.615 219.968 193.607Z" fill="url(#paint25_linear_829_415)"/>
<path d="M186.836 194.712C186.836 196.737 187.641 198.679 189.073 200.11C190.506 201.542 192.449 202.347 194.475 202.347H203.32C205.346 202.347 207.289 201.542 208.721 200.11C210.154 198.679 210.959 196.737 210.959 194.712C210.959 193.709 210.761 192.716 210.378 191.789C209.994 190.863 209.431 190.021 208.722 189.312C208.013 188.603 207.171 188.04 206.244 187.656C205.317 187.273 204.324 187.075 203.32 187.075H194.475C193.471 187.075 192.478 187.273 191.551 187.656C190.624 188.04 189.782 188.603 189.073 189.312C188.364 190.021 187.801 190.863 187.417 191.789C187.033 192.716 186.836 193.709 186.836 194.712Z" fill="url(#paint26_linear_829_415)"/>
<path d="M286.642 217.13C286.642 218.117 286.837 219.094 287.215 220.006C287.592 220.917 288.146 221.746 288.844 222.443C289.543 223.141 290.371 223.695 291.283 224.072C292.196 224.45 293.173 224.644 294.16 224.644H303.317C304.304 224.644 305.282 224.45 306.194 224.072C307.106 223.695 307.935 223.141 308.633 222.443C309.331 221.746 309.885 220.917 310.263 220.006C310.64 219.094 310.835 218.117 310.835 217.13C310.835 215.137 310.043 213.226 308.633 211.816C307.223 210.407 305.311 209.615 303.317 209.615H294.16C292.167 209.615 290.254 210.407 288.844 211.816C287.434 213.226 286.642 215.137 286.642 217.13Z" fill="url(#paint27_linear_829_415)"/>
<path d="M252.655 217.13C252.655 218.117 252.85 219.094 253.228 220.006C253.606 220.917 254.159 221.746 254.857 222.443C255.556 223.141 256.384 223.695 257.297 224.072C258.209 224.45 259.186 224.644 260.174 224.644H269.33C270.317 224.644 271.295 224.45 272.207 224.072C273.119 223.695 273.948 223.141 274.646 222.443C275.344 221.746 275.898 220.917 276.276 220.006C276.653 219.094 276.848 218.117 276.848 217.13C276.848 215.137 276.056 213.226 274.646 211.816C273.236 210.407 271.324 209.615 269.33 209.615H260.174C258.18 209.615 256.267 210.407 254.857 211.816C253.447 213.226 252.655 215.137 252.655 217.13Z" fill="url(#paint28_linear_829_415)"/>
<path d="M219.968 217.13C219.968 219.123 220.76 221.034 222.169 222.443C223.579 223.852 225.491 224.644 227.484 224.644H236.641C238.634 224.644 240.546 223.852 241.956 222.443C243.365 221.034 244.157 219.123 244.157 217.13C244.157 216.143 243.963 215.165 243.585 214.252C243.206 213.34 242.652 212.511 241.953 211.813C241.254 211.115 240.425 210.562 239.511 210.185C238.598 209.808 237.62 209.614 236.632 209.615H227.476C226.488 209.615 225.511 209.81 224.599 210.187C223.687 210.565 222.858 211.119 222.16 211.816C221.462 212.514 220.908 213.343 220.531 214.254C220.153 215.166 219.959 216.143 219.959 217.13H219.968Z" fill="url(#paint29_linear_829_415)"/>
<path d="M185.976 217.13C185.976 219.123 186.768 221.034 188.178 222.443C189.588 223.852 191.5 224.644 193.493 224.644H202.649C204.643 224.644 206.555 223.852 207.965 222.443C209.374 221.034 210.166 219.123 210.166 217.13C210.166 216.143 209.972 215.166 209.594 214.254C209.217 213.343 208.663 212.514 207.965 211.816C207.267 211.119 206.438 210.565 205.526 210.187C204.614 209.81 203.637 209.615 202.649 209.615H193.493C192.506 209.615 191.528 209.81 190.616 210.187C189.704 210.565 188.876 211.119 188.178 211.816C187.48 212.514 186.926 213.343 186.548 214.254C186.171 215.166 185.976 216.143 185.976 217.13Z" fill="url(#paint30_linear_829_415)"/>
<path opacity="0.63" d="M286.642 237.959C286.642 238.946 286.837 239.923 287.215 240.835C287.592 241.746 288.146 242.575 288.844 243.273C289.542 243.97 290.371 244.524 291.283 244.902C292.196 245.279 293.173 245.474 294.16 245.474H303.317C305.311 245.474 307.223 244.682 308.633 243.273C310.043 241.863 310.835 239.952 310.835 237.959C310.835 236.972 310.64 235.995 310.263 235.083C309.885 234.171 309.331 233.343 308.633 232.645C307.935 231.948 307.106 231.394 306.194 231.017C305.282 230.639 304.304 230.445 303.317 230.445H294.16C293.173 230.445 292.196 230.639 291.283 231.017C290.371 231.394 289.543 231.948 288.844 232.645C288.146 233.343 287.592 234.171 287.215 235.083C286.837 235.995 286.642 236.972 286.642 237.959Z" fill="url(#paint31_linear_829_415)"/>
<path opacity="0.63" d="M252.655 237.959C252.655 239.952 253.447 241.863 254.857 243.273C256.267 244.682 258.18 245.474 260.174 245.474H269.33C271.321 245.47 273.23 244.676 274.637 243.268C276.044 241.859 276.834 239.949 276.834 237.959C276.834 236.972 276.639 235.995 276.261 235.083C275.883 234.171 275.33 233.343 274.632 232.645C273.933 231.948 273.105 231.394 272.192 231.017C271.28 230.639 270.303 230.445 269.315 230.445H260.159C258.168 230.449 256.259 231.242 254.852 232.65C253.446 234.059 252.655 235.968 252.655 237.959Z" fill="url(#paint32_linear_829_415)"/>
<path opacity="0.63" d="M219.968 237.959C219.967 238.946 220.162 239.923 220.539 240.834C220.917 241.746 221.471 242.575 222.169 243.272C222.867 243.97 223.695 244.524 224.607 244.902C225.52 245.279 226.497 245.474 227.484 245.474H236.641C237.628 245.474 238.605 245.279 239.517 244.902C240.429 244.524 241.258 243.97 241.956 243.272C242.654 242.575 243.208 241.746 243.586 240.834C243.963 239.923 244.157 238.946 244.157 237.959C244.157 235.966 243.365 234.055 241.956 232.646C240.546 231.237 238.634 230.445 236.641 230.445H227.484C225.491 230.445 223.579 231.237 222.169 232.646C220.76 234.055 219.968 235.966 219.968 237.959Z" fill="url(#paint33_linear_829_415)"/>
<path opacity="0.63" d="M286.642 260.831C286.642 261.818 286.837 262.795 287.215 263.706C287.592 264.618 288.146 265.446 288.844 266.144C289.543 266.842 290.371 267.395 291.283 267.773C292.196 268.15 293.173 268.344 294.16 268.344H303.317C304.304 268.344 305.282 268.15 306.194 267.773C307.106 267.395 307.935 266.842 308.633 266.144C309.331 265.446 309.885 264.618 310.263 263.706C310.64 262.795 310.835 261.818 310.835 260.831C310.835 259.844 310.64 258.867 310.263 257.955C309.885 257.044 309.331 256.215 308.633 255.518C307.935 254.82 307.106 254.266 306.194 253.889C305.282 253.511 304.304 253.317 303.317 253.317H294.16C293.173 253.317 292.196 253.511 291.283 253.889C290.371 254.266 289.543 254.82 288.844 255.518C288.146 256.215 287.592 257.044 287.215 257.955C286.837 258.867 286.642 259.844 286.642 260.831Z" fill="url(#paint34_linear_829_415)"/>
<path opacity="0.63" d="M252.655 260.831C252.655 261.818 252.85 262.795 253.228 263.706C253.606 264.618 254.159 265.446 254.857 266.144C255.556 266.842 256.384 267.395 257.297 267.773C258.209 268.15 259.186 268.344 260.174 268.344H269.33C270.317 268.344 271.295 268.15 272.207 267.773C273.119 267.395 273.948 266.842 274.646 266.144C275.344 265.446 275.898 264.618 276.276 263.706C276.653 262.795 276.848 261.818 276.848 260.831C276.848 259.844 276.653 258.867 276.276 257.955C275.898 257.044 275.344 256.215 274.646 255.518C273.948 254.82 273.119 254.266 272.207 253.889C271.295 253.511 270.317 253.317 269.33 253.317H260.174C259.186 253.317 258.209 253.511 257.297 253.889C256.384 254.266 255.556 254.82 254.857 255.518C254.159 256.215 253.606 257.044 253.228 257.955C252.85 258.867 252.655 259.844 252.655 260.831Z" fill="url(#paint35_linear_829_415)"/>
<path opacity="0.63" d="M219.968 260.831C219.968 262.823 220.76 264.735 222.169 266.144C223.579 267.553 225.491 268.344 227.484 268.344H236.641C238.634 268.344 240.546 267.553 241.956 266.144C243.365 264.735 244.157 262.823 244.157 260.831C244.157 259.843 243.963 258.866 243.584 257.954C243.206 257.041 242.652 256.213 241.953 255.515C241.254 254.817 240.424 254.264 239.511 253.887C238.598 253.51 237.62 253.316 236.632 253.317H227.476C225.482 253.317 223.57 254.109 222.161 255.518C220.751 256.927 219.959 258.838 219.959 260.831H219.968Z" fill="url(#paint36_linear_829_415)"/>
<path d="M199.339 232.484H198.759C193.504 232.484 189.244 236.743 189.244 241.996V260.217C189.244 265.47 193.504 269.728 198.759 269.728H199.339C204.594 269.728 208.854 265.47 208.854 260.217V241.996C208.854 236.743 204.594 232.484 199.339 232.484Z" fill="url(#paint37_linear_829_415)"/>
</g>
<defs>
<linearGradient id="paint0_linear_829_415" x1="-232.916" y1="892.241" x2="7.66381" y2="406.405" gradientUnits="userSpaceOnUse">
<stop stop-color="#6165D7"/>
<stop offset="1" stop-color="#AA80F9"/>
</linearGradient>
<linearGradient id="paint1_linear_829_415" x1="414.102" y1="-33.1585" x2="15.1358" y2="334.052" gradientUnits="userSpaceOnUse">
<stop stop-color="#6165D7"/>
<stop offset="1" stop-color="#AA80F9"/>
</linearGradient>
<linearGradient id="paint2_linear_829_415" x1="384.755" y1="210.908" x2="371.28" y2="164.688" gradientUnits="userSpaceOnUse">
<stop stop-color="#FF9085"/>
<stop offset="1" stop-color="#FB6FBB"/>
</linearGradient>
<linearGradient id="paint3_linear_829_415" x1="143.506" y1="251.517" x2="388.534" y2="251.517" gradientUnits="userSpaceOnUse">
<stop stop-color="#FF9085"/>
<stop offset="1" stop-color="#FB6FBB"/>
</linearGradient>
<linearGradient id="paint4_linear_829_415" x1="92.0433" y1="354.095" x2="171.185" y2="79.06" gradientUnits="userSpaceOnUse">
<stop stop-color="#FE7062"/>
<stop offset="1" stop-color="#FF928E"/>
</linearGradient>
<linearGradient id="paint5_linear_829_415" x1="302.972" y1="104.244" x2="84.2602" y2="454.549" gradientUnits="userSpaceOnUse">
<stop stop-color="#FF928E"/>
<stop offset="1" stop-color="#FEB3B1"/>
</linearGradient>
<linearGradient id="paint6_linear_829_415" x1="289.087" y1="95.1764" x2="70.5017" y2="445.275" gradientUnits="userSpaceOnUse">
<stop stop-color="#FF928E"/>
<stop offset="1" stop-color="#FEB3B1"/>
</linearGradient>
<linearGradient id="paint7_linear_829_415" x1="92.742" y1="110.88" x2="67.6636" y2="151.468" gradientUnits="userSpaceOnUse">
<stop stop-color="#09005D"/>
<stop offset="1" stop-color="#1A0F91"/>
</linearGradient>
<linearGradient id="paint8_linear_829_415" x1="35.5749" y1="174.645" x2="86.6788" y2="298.145" gradientUnits="userSpaceOnUse">
<stop stop-color="#A22B25"/>
<stop offset="1" stop-color="#C0423C"/>
</linearGradient>
<linearGradient id="paint9_linear_829_415" x1="126.238" y1="174.381" x2="75.1336" y2="297.88" gradientUnits="userSpaceOnUse">
<stop stop-color="#A22B25"/>
<stop offset="1" stop-color="#C0423C"/>
</linearGradient>
<linearGradient id="paint10_linear_829_415" x1="81.0028" y1="190.597" x2="78.3455" y2="298.249" gradientUnits="userSpaceOnUse">
<stop stop-color="#09005D"/>
<stop offset="1" stop-color="#1A0F91"/>
</linearGradient>
<linearGradient id="paint11_linear_829_415" x1="111.7" y1="255.35" x2="139.646" y2="255.564" gradientUnits="userSpaceOnUse">
<stop stop-color="#4F52FF"/>
<stop offset="1" stop-color="#4042E2"/>
</linearGradient>
<linearGradient id="paint12_linear_829_415" x1="130.143" y1="204.993" x2="100.666" y2="284.871" gradientUnits="userSpaceOnUse">
<stop stop-color="#A22B25"/>
<stop offset="1" stop-color="#C0423C"/>
</linearGradient>
<linearGradient id="paint13_linear_829_415" x1="44.0424" y1="255.272" x2="16.0844" y2="254.712" gradientUnits="userSpaceOnUse">
<stop stop-color="#4F52FF"/>
<stop offset="1" stop-color="#4042E2"/>
</linearGradient>
<linearGradient id="paint14_linear_829_415" x1="71.0397" y1="180.923" x2="41.5463" y2="260.843" gradientUnits="userSpaceOnUse">
<stop stop-color="#A22B25"/>
<stop offset="1" stop-color="#C0423C"/>
</linearGradient>
<linearGradient id="paint15_linear_829_415" x1="157.88" y1="106.571" x2="85.6286" y2="252.139" gradientUnits="userSpaceOnUse">
<stop stop-color="#4F52FF"/>
<stop offset="1" stop-color="#4042E2"/>
</linearGradient>
<linearGradient id="paint16_linear_829_415" x1="67.7248" y1="230.671" x2="76.7546" y2="155.893" gradientUnits="userSpaceOnUse">
<stop stop-color="#4F52FF"/>
<stop offset="1" stop-color="#4042E2"/>
</linearGradient>
<linearGradient id="paint17_linear_829_415" x1="80.4692" y1="184.841" x2="79.7902" y2="125.662" gradientUnits="userSpaceOnUse">
<stop stop-color="#A22B25"/>
<stop offset="1" stop-color="#C0423C"/>
</linearGradient>
<linearGradient id="paint18_linear_829_415" x1="78.5001" y1="151.985" x2="88.8652" y2="101.498" gradientUnits="userSpaceOnUse">
<stop stop-color="#A22B25"/>
<stop offset="1" stop-color="#C0423C"/>
</linearGradient>
<linearGradient id="paint19_linear_829_415" x1="91.7183" y1="110.215" x2="66.8602" y2="150.446" gradientUnits="userSpaceOnUse">
<stop stop-color="#09005D"/>
<stop offset="1" stop-color="#1A0F91"/>
</linearGradient>
<linearGradient id="paint20_linear_829_415" x1="68.0756" y1="157.633" x2="73.8566" y2="77.0703" gradientUnits="userSpaceOnUse">
<stop stop-color="#A22B25"/>
<stop offset="1" stop-color="#C0423C"/>
</linearGradient>
<linearGradient id="paint21_linear_829_415" x1="172.906" y1="322.405" x2="307.031" y2="121.612" gradientUnits="userSpaceOnUse">
<stop stop-color="#09005D"/>
<stop offset="1" stop-color="#1A0F91"/>
</linearGradient>
<linearGradient id="paint22_linear_829_415" x1="169.647" y1="83.9403" x2="299.939" y2="190.393" gradientUnits="userSpaceOnUse">
<stop stop-color="#4F52FF"/>
<stop offset="1" stop-color="#4042E2"/>
</linearGradient>
<linearGradient id="paint23_linear_829_415" x1="336.004" y1="229.473" x2="237.018" y2="134.133" gradientUnits="userSpaceOnUse">
<stop stop-color="#4F52FF"/>
<stop offset="1" stop-color="#4042E2"/>
</linearGradient>
<linearGradient id="paint24_linear_829_415" x1="319.655" y1="246.449" x2="220.667" y2="151.109" gradientUnits="userSpaceOnUse">
<stop stop-color="#4F52FF"/>
<stop offset="1" stop-color="#4042E2"/>
</linearGradient>
<linearGradient id="paint25_linear_829_415" x1="303.933" y1="262.771" x2="204.946" y2="167.433" gradientUnits="userSpaceOnUse">
<stop stop-color="#4F52FF"/>
<stop offset="1" stop-color="#4042E2"/>
</linearGradient>
<linearGradient id="paint26_linear_829_415" x1="231.615" y1="102.96" x2="196.884" y2="200.444" gradientUnits="userSpaceOnUse">
<stop stop-color="#FF928E"/>
<stop offset="1" stop-color="#FE7062"/>
</linearGradient>
<linearGradient id="paint27_linear_829_415" x1="324.247" y1="241.68" x2="225.261" y2="146.341" gradientUnits="userSpaceOnUse">
<stop stop-color="#4F52FF"/>
<stop offset="1" stop-color="#4042E2"/>
</linearGradient>
<linearGradient id="paint28_linear_829_415" x1="281.874" y1="179.461" x2="256.454" y2="235.409" gradientUnits="userSpaceOnUse">
<stop stop-color="#4F52FF"/>
<stop offset="1" stop-color="#4042E2"/>
</linearGradient>
<linearGradient id="paint29_linear_829_415" x1="292.175" y1="274.98" x2="193.188" y2="179.64" gradientUnits="userSpaceOnUse">
<stop stop-color="#4F52FF"/>
<stop offset="1" stop-color="#4042E2"/>
</linearGradient>
<linearGradient id="paint30_linear_829_415" x1="275.825" y1="291.956" x2="176.837" y2="196.616" gradientUnits="userSpaceOnUse">
<stop stop-color="#4F52FF"/>
<stop offset="1" stop-color="#4042E2"/>
</linearGradient>
<linearGradient id="paint31_linear_829_415" x1="313.833" y1="252.492" x2="214.847" y2="157.153" gradientUnits="userSpaceOnUse">
<stop stop-color="#4F52FF"/>
<stop offset="1" stop-color="#4042E2"/>
</linearGradient>
<linearGradient id="paint32_linear_829_415" x1="284.842" y1="197.785" x2="256.88" y2="253.733" gradientUnits="userSpaceOnUse">
<stop stop-color="#4F52FF"/>
<stop offset="1" stop-color="#4042E2"/>
</linearGradient>
<linearGradient id="paint33_linear_829_415" x1="281.762" y1="285.791" x2="182.776" y2="190.453" gradientUnits="userSpaceOnUse">
<stop stop-color="#4F52FF"/>
<stop offset="1" stop-color="#4042E2"/>
</linearGradient>
<linearGradient id="paint34_linear_829_415" x1="302.402" y1="264.36" x2="203.416" y2="169.021" gradientUnits="userSpaceOnUse">
<stop stop-color="#4F52FF"/>
<stop offset="1" stop-color="#4042E2"/>
</linearGradient>
<linearGradient id="paint35_linear_829_415" x1="284.074" y1="223.837" x2="254.297" y2="280.876" gradientUnits="userSpaceOnUse">
<stop stop-color="#4F52FF"/>
<stop offset="1" stop-color="#4042E2"/>
</linearGradient>
<linearGradient id="paint36_linear_829_415" x1="270.331" y1="297.66" x2="171.344" y2="202.32" gradientUnits="userSpaceOnUse">
<stop stop-color="#4F52FF"/>
<stop offset="1" stop-color="#4042E2"/>
</linearGradient>
<linearGradient id="paint37_linear_829_415" x1="209.444" y1="266.2" x2="176.864" y2="218.847" gradientUnits="userSpaceOnUse">
<stop stop-color="#4F52FF"/>
<stop offset="1" stop-color="#4042E2"/>
</linearGradient>
<clipPath id="clip0_829_415">
<rect width="412" height="392" fill="white"/>
</clipPath>
</defs>
</svg>
