<svg width="96" height="40" fill="none" xmlns="http://www.w3.org/2000/svg"><rect width="96" height="40" rx="8" fill="#FAFAFA"/><g clip-path="url(#a)"><path d="M71.009 36.495v.093h.088c.019 0 .035-.004.048-.012.01-.007.017-.02.017-.035a.04.04 0 0 0-.017-.035.086.086 0 0 0-.048-.011h-.088zm.088-.066c.046 0 .08.01.106.03a.1.1 0 0 1 .037.082c0 .03-.01.053-.03.072a.145.145 0 0 1-.084.034l.116.132h-.09l-.108-.13h-.035v.13h-.076v-.35h.164zm-.023.471a.302.302 0 0 0 .273-.18.292.292 0 0 0-.063-.323.296.296 0 0 0-.21-.084.3.3 0 0 0-.213.084.283.283 0 0 0-.063.094.28.28 0 0 0-.023.114c0 .042.008.08.023.115a.269.269 0 0 0 .063.094.3.3 0 0 0 .096.063.298.298 0 0 0 .117.023zm0-.672a.389.389 0 0 1 .39.377.382.382 0 0 1-.39.377.393.393 0 0 1-.361-.23.354.354 0 0 1-.03-.147.375.375 0 0 1 .238-.347.393.393 0 0 1 .153-.03zM35.123 34.88c0-.668.443-1.216 1.169-1.216.693 0 1.16.525 1.16 1.216 0 .69-.467 1.215-1.16 1.215-.726 0-1.17-.548-1.17-1.215zm3.12 0V32.98h-.839v.461c-.265-.342-.669-.556-1.217-.556-1.08 0-1.927.834-1.927 1.994 0 1.16.847 1.994 1.927 1.994.549 0 .952-.215 1.218-.557v.461h.837V34.88zm28.313 0c0-.668.444-1.216 1.17-1.216.694 0 1.16.525 1.16 1.216 0 .69-.466 1.215-1.16 1.215-.726 0-1.17-.548-1.17-1.215zm3.121 0v-3.424h-.839v1.986c-.265-.342-.669-.556-1.217-.556-1.08 0-1.927.834-1.927 1.994 0 1.16.847 1.994 1.927 1.994.548 0 .952-.215 1.218-.557v.461h.838V34.88zm-21.034-1.255c.54 0 .887.334.975.921h-2c.09-.548.428-.921 1.025-.921zm.016-.74c-1.129 0-1.919.81-1.919 1.995 0 1.207.822 1.994 1.976 1.994.58 0 1.112-.143 1.58-.532l-.411-.612a1.86 1.86 0 0 1-1.121.397c-.54 0-1.032-.246-1.153-.93h2.862c.008-.103.016-.206.016-.317-.008-1.184-.75-1.994-1.83-1.994zm10.118 1.995c0-.668.444-1.216 1.169-1.216.693 0 1.16.525 1.16 1.216 0 .69-.467 1.215-1.16 1.215-.725 0-1.17-.548-1.17-1.215zm3.12 0V32.98h-.838v.461c-.267-.342-.67-.556-1.218-.556-1.08 0-1.927.834-1.927 1.994 0 1.16.847 1.994 1.927 1.994.548 0 .95-.215 1.218-.557v.461h.838V34.88zm-7.852 0c0 1.152.814 1.994 2.056 1.994.58 0 .967-.128 1.386-.453l-.403-.668c-.314.223-.645.342-1.008.342-.67-.008-1.161-.484-1.161-1.215 0-.731.492-1.208 1.16-1.216.364 0 .695.12 1.01.342l.402-.667c-.42-.326-.806-.453-1.386-.453-1.242 0-2.056.842-2.056 1.994zm10.803-1.994c-.484 0-.799.222-1.016.556v-.46h-.83v3.796h.838V34.65c0-.629.274-.978.822-.978.17 0 .347.024.524.096l.258-.779a1.804 1.804 0 0 0-.596-.103zm-22.462.397c-.403-.262-.958-.397-1.571-.397-.976 0-1.605.46-1.605 1.215 0 .62.468 1.001 1.33 1.12l.396.056c.46.064.676.183.676.398 0 .293-.306.46-.878.46-.58 0-1-.182-1.282-.397l-.395.643c.46.334 1.04.493 1.668.493 1.113 0 1.758-.517 1.758-1.24 0-.667-.507-1.016-1.346-1.135l-.395-.057c-.362-.047-.653-.118-.653-.372 0-.279.274-.445.733-.445.492 0 .968.183 1.202.325l.362-.667zm10.812-.397c-.484 0-.799.222-1.016.556v-.46h-.83v3.796h.838V34.65c0-.629.274-.978.822-.978.17 0 .347.024.524.096l.259-.779a1.806 1.806 0 0 0-.597-.103zm-7.15.095h-1.371V31.83h-.847v1.152h-.782v.755h.782v1.732c0 .881.347 1.406 1.338 1.406.363 0 .782-.111 1.048-.294l-.242-.707c-.25.143-.524.214-.742.214-.419 0-.555-.255-.555-.635v-1.716h1.37v-.755zm-12.53 3.797v-2.383c0-.897-.58-1.501-1.515-1.51-.492-.008-1 .143-1.355.676-.266-.42-.685-.675-1.273-.675-.412 0-.814.119-1.129.563v-.468h-.839v3.797h.846v-2.105c0-.659.371-1.009.944-1.009.557 0 .838.357.838 1.001v2.113h.847v-2.105c0-.659.387-1.009.943-1.009.573 0 .847.357.847 1.001v2.113h.847z" fill="#231F20"/><path d="M71.525 24.15v-.555h-.146l-.17.381-.169-.38h-.147v.554h.104v-.418l.159.36h.107l.16-.361v.419h.102zm-.93 0v-.46h.188v-.094h-.48v.094h.188v.46h.103z" fill="#F79410"/><path d="M54.842 26.536H42.143V4.048h12.699v22.488z" fill="#FF5F00"/><path d="M42.956 15.29c0-4.561 2.168-8.625 5.543-11.244A14.587 14.587 0 0 0 39.53.988c-8.014 0-14.511 6.403-14.511 14.302 0 7.9 6.497 14.303 14.512 14.303 3.386 0 6.5-1.143 8.97-3.058-3.376-2.62-5.544-6.683-5.544-11.245z" fill="#EB001B"/><path d="M71.968 15.29c0 7.9-6.497 14.303-14.512 14.303-3.386 0-6.5-1.143-8.97-3.058 3.376-2.62 5.544-6.683 5.544-11.245 0-4.561-2.168-8.625-5.544-11.244a14.591 14.591 0 0 1 8.97-3.058c8.015 0 14.512 6.403 14.512 14.302z" fill="#F79E1B"/></g><defs><clipPath id="a"><path fill="#fff" transform="translate(25 1)" d="M0 0h47v36H0z"/></clipPath></defs></svg>