<svg width="96" height="40" fill="none" xmlns="http://www.w3.org/2000/svg"><rect width="96" height="40" rx="8" fill="#FAFAFA"/><path d="M43.467 30.595h-5.509l3.445-21.211h5.509l-3.445 21.21zM63.436 9.903C62.349 9.473 60.626 9 58.495 9c-5.44 0-9.27 2.888-9.294 7.017-.045 3.047 2.743 4.739 4.828 5.755 2.13 1.038 2.855 1.715 2.855 2.64-.021 1.421-1.722 2.076-3.308 2.076-2.199 0-3.377-.337-5.168-1.128l-.726-.339-.77 4.762c1.292.586 3.672 1.106 6.143 1.128 5.78 0 9.543-2.843 9.587-7.243.022-2.415-1.45-4.265-4.623-5.777-1.927-.97-3.107-1.625-3.107-2.618.023-.902.998-1.827 3.173-1.827 1.79-.045 3.107.383 4.103.812l.498.225.75-4.58zM70.756 23.08c.454-1.218 2.2-5.934 2.2-5.934-.023.045.452-1.241.724-2.03l.385 1.827s1.043 5.077 1.27 6.138h-4.579zm6.8-13.696h-4.26c-1.315 0-2.313.383-2.88 1.76l-8.182 19.45h5.78l1.156-3.181h7.072c.158.744.657 3.182.657 3.182H82L77.557 9.384zM33.357 9.384l-5.394 14.464-.59-2.934c-.997-3.384-4.125-7.062-7.616-8.89L24.7 30.572h5.825l8.658-21.188h-5.825z" fill="#00579F"/><path d="M22.953 9.384h-8.862L14 9.813c6.913 1.76 11.492 6.003 13.373 11.102l-1.927-9.748c-.317-1.355-1.292-1.738-2.493-1.783z" fill="#FAA61A"/></svg>