<svg id="Слой_1" data-name="Слой 1" xmlns="http://www.w3.org/2000/svg" viewBox="0 0 96 40"><defs><style>.cls-2{fill:#2e4369}</style></defs><rect width="96" height="40" rx="8" style="fill:#fafafa"/><g id="Blue_Navy" data-name="Blue Navy"><g id="Wise"><path class="cls-2" d="M89.94 18.81a7.9 7.9 0 0 0-8.16-8.3c-6.06 0-10.12 4.4-10.12 10.68a7.93 7.93 0 0 0 8.27 8.3c4.4 0 7.68-2.12 9-5.52h-4.86a4.24 4.24 0 0 1-3.72 1.72A4.16 4.16 0 0 1 76 21.53h13.66a13.34 13.34 0 0 0 .28-2.72zm-13.58-.57a5.26 5.26 0 0 1 5.24-4 3.88 3.88 0 0 1 4 4zM58.52 29.05l.88-4.67c2.68.53 3.09-1 3.79-4.62l.34-1.8c1-5.08 2.94-7.62 8.56-6.93l-.88 4.67c-2.68-.53-3.15 1.5-3.75 4.65l-.34 1.8c-.98 5.15-3.01 7.59-8.6 6.9zM51.96 29.07l3.32-18.12h4.37l-3.3 18.12h-4.39zM26.93 10.95h4.24l1.38 13.1 5.56-13.1h4.2l1.48 13.23 5.36-13.23h4.23l-7.69 18.12h-4.8L39.33 16.6l-5.31 12.47h-4.65l-2.44-18.12z"/></g><path id="FF" style="fill:#00b9ff" d="m11.1 15.75-5.04 4.81h8.56l.9-2.1h-4.34l2.71-2.71-1.57-2.71h7.35l-6.79 16.03h2.56l7.68-18.12H8.27l2.83 4.8z"/></g><path style="fill:none" d="M8 9h84v19H8z"/></svg>