<?xml version="1.0" encoding="UTF-8" standalone="no"?>
<svg
   version="1.1"
   x="0px"
   y="0px"
   width="120"
   height="55"
   viewBox="0 0 120 55"
   id="svg62"
   sodipodi:docname="plagscan.svg"
   inkscape:version="1.1.2 (b8e25be833, 2022-02-05)"
   xmlns:inkscape="http://www.inkscape.org/namespaces/inkscape"
   xmlns:sodipodi="http://sodipodi.sourceforge.net/DTD/sodipodi-0.dtd"
   xmlns:xlink="http://www.w3.org/1999/xlink"
   xmlns="http://www.w3.org/2000/svg"
   xmlns:svg="http://www.w3.org/2000/svg">
  <defs
     id="defs66" />
  <sodipodi:namedview
     id="namedview64"
     pagecolor="#505050"
     bordercolor="#ffffff"
     borderopacity="1"
     inkscape:pageshadow="0"
     inkscape:pageopacity="0"
     inkscape:pagecheckerboard="1"
     showgrid="false"
     inkscape:zoom="5.43"
     inkscape:cx="67.771639"
     inkscape:cy="58.747698"
     inkscape:window-width="1920"
     inkscape:window-height="1027"
     inkscape:window-x="-8"
     inkscape:window-y="-8"
     inkscape:window-maximized="1"
     inkscape:current-layer="svg62"
     width="160px" />
  <style
     type="text/css"
     id="style2"><![CDATA[
/* white background, blue font */
	.st0{clip-path:url(#SVGID_6_);fill:#405C77;}
	.st1{fill:#405C77;}
	.st2{clip-path:url(#SVGID_12_);fill:#405C77;}
	.st3{display:inline;fill:#FFFFFF;}
    /* text */
	.st4{fill:#405C77;font-family:sans-serif;font-size:10px;font-weight:bold;} 
    /* end text */
  .st5{fill:#DDDDDD;}
  .st6{fill:#FFFFFF;stroke:#DDDDDD;stroke-width:1px;stroke-linejoin:round;}
	.st8{clip-path:url(#SVGID_8_);fill:#405C77;}
	.st9{display:inline;}
	.st11{clip-path:url(#SVGID_2_);fill:#405C77;}
	.st14{fill:#405C77;}
	.st15{fill:#405C77;}
]]></style>
  <g
     id="bg-rect"
     transform="matrix(1.0048566,0,0,1.0119409,-40.485664,-4.9372598)">
    <g
       id="Logo">
      <g
         id="g14">
        <defs
           id="defs7">
          <rect
             id="SVGID_7_"
             x="42.241001"
             y="4.8790002"
             width="115.514"
             height="30" />
        </defs>
        <clipPath
           id="SVGID_8_">
          <use
             xlink:href="#SVGID_7_"
             style="overflow:visible"
             id="use9"
             x="0"
             y="0"
             width="100%"
             height="100%" />
        </clipPath>
        <path
           class="st8"
           d="m 49.023,18.601 c -0.03,-0.207 0.059,-0.325 0.088,-0.383 0.294,0.059 0.796,0.088 1.09,0.088 0.854,0 1.444,-0.148 2.063,-0.442 1.326,-0.708 1.856,-2.004 1.856,-3.654 0,-2.741 -1.473,-4.509 -4.627,-4.509 -0.265,0 -1.149,0.029 -1.326,0.177 -0.088,0.059 -0.206,0.235 -0.236,0.413 -0.059,0.677 -0.088,1.562 -0.088,7.043 0,4.597 0.03,5.776 0.088,6.719 0.089,0.707 0.236,1.001 1.032,1.237 0.501,0.118 1.149,0.207 2.034,0.294 0.147,0.178 0.088,1.033 -0.059,1.18 -0.943,0 -3.242,-0.089 -4.421,-0.089 -1.385,0 -3.448,0.089 -4.097,0.089 -0.147,-0.147 -0.147,-1.001 -0.029,-1.149 0.678,-0.088 1.326,-0.147 1.709,-0.265 0.767,-0.207 0.796,-0.796 0.855,-1.651 0.029,-1.061 0.059,-3.978 0.059,-6.335 0,-4.48 0,-5.187 -0.03,-6.16 C 44.925,10.143 44.719,9.908 43.776,9.73 43.393,9.642 42.922,9.554 42.302,9.494 42.184,9.288 42.243,8.492 42.39,8.345 c 0.383,0 2.21,0.089 3.625,0.089 2.004,0 3.389,-0.03 5.216,-0.03 1.062,0 2.859,0.177 4.067,1.15 1.031,0.825 1.886,2.151 1.886,4.126 0,2.77 -1.739,4.479 -3.242,5.216 -1.12,0.59 -2.328,0.737 -3.242,0.737 -0.531,0 -0.884,-0.029 -1.268,-0.147 -0.174,-0.119 -0.38,-0.678 -0.409,-0.885 z"
           clip-path="url(#SVGID_8_)"
           id="path12" />
      </g>
      <path
         class="st1"
         d="m 58.751,25.584 c 0.589,-0.087 0.943,-0.146 1.296,-0.294 0.354,-0.147 0.472,-0.472 0.501,-0.795 0.118,-0.737 0.147,-2.711 0.147,-7.662 0,-2.151 0,-5.511 -0.059,-6.484 C 60.606,10.113 60.577,9.435 60.164,9.347 59.87,9.259 59.192,9.171 58.366,9.053 58.219,8.965 58.219,8.199 58.425,8.08 c 1.621,-0.176 3.772,-0.677 4.804,-1.12 0.088,0.03 0.266,0.295 0.266,0.383 -0.207,0.561 -0.266,0.884 -0.266,1.945 -0.029,1.474 -0.029,4.951 -0.059,7.545 0,4.509 0.03,6.425 0.059,7.22 0.03,0.707 0.088,1.12 0.708,1.267 0.413,0.119 0.501,0.178 1.267,0.265 0.088,0.207 0.059,0.973 -0.147,1.18 -0.678,0 -1.474,-0.089 -3.301,-0.089 -1.179,0 -2.652,0.089 -3.035,0.089 -0.089,-0.179 -0.147,-0.945 0.03,-1.181 z"
         id="path16" />
      <path
         class="st1"
         d="m 73.251,20.928 c -0.825,0.325 -2.711,0.884 -3.389,1.269 -0.147,0.059 -0.354,0.618 -0.354,0.971 0,1.091 0.766,1.916 2.063,1.916 0.354,0 1.031,-0.176 1.415,-0.471 0.265,-0.177 0.324,-0.383 0.383,-0.736 0.059,-0.384 0.059,-2.27 0.059,-2.8 0,-0.031 -0.088,-0.178 -0.177,-0.149 z m -0.147,-3.712 c -0.471,-0.737 -1.385,-1.091 -2.181,-1.091 -0.796,0 -1.238,0.207 -1.326,0.295 -0.354,0.295 -0.825,1.297 -1.238,2.122 -0.117,0.148 -1.178,-0.353 -1.119,-0.618 0.117,-0.501 0.589,-1.857 0.825,-2.034 1.268,-0.825 3.242,-1.591 4.008,-1.591 1.385,0 2.446,0.648 3.094,1.621 0.56,0.914 0.737,1.798 0.737,2.976 0,1.503 -0.118,3.802 -0.118,5.039 0,0.679 0.265,1.091 1.149,1.091 0.442,0 0.678,-0.058 1.061,-0.147 0.029,0.147 -0.03,1.031 -0.147,1.149 -0.708,0.708 -1.828,1.002 -2.564,1.002 -0.914,0 -1.444,-0.412 -1.621,-0.855 -0.118,-0.176 -0.177,-0.441 -0.235,-0.648 0,-0.029 -0.118,-0.059 -0.147,-0.029 -1.68,1.031 -2.771,1.532 -3.684,1.532 -0.56,0 -1.179,-0.354 -1.68,-0.826 -0.648,-0.677 -1.031,-1.621 -1.031,-2.652 0,-0.825 0.56,-1.769 0.678,-1.886 1.12,-0.56 4.45,-1.267 5.659,-1.886 0.059,-0.029 0.177,-0.206 0.207,-0.294 0.059,-0.176 0.059,-0.442 0.059,-0.501 -0.003,-0.561 -0.033,-1.21 -0.386,-1.769 z"
         id="path18" />
      <path
         class="st1"
         d="m 81.887,18.306 c 0,1.738 0.766,3.595 2.8,3.595 0.383,0 1.002,-0.177 1.297,-0.501 0.442,-0.412 0.795,-1.296 0.795,-2.357 0,-1.738 -0.707,-3.419 -2.741,-3.419 -1.237,0 -2.151,0.973 -2.151,2.682 z m 7.073,11.346 c 0,-0.884 -0.412,-1.563 -1.444,-1.946 -0.795,-0.294 -2.122,-0.441 -3.654,-0.441 -0.501,0 -0.854,0.147 -1.061,0.265 -1.09,0.708 -1.532,1.385 -1.532,2.122 0,0.707 0.265,1.296 0.884,1.827 0.825,0.708 1.886,0.944 3.065,0.944 2.623,0 3.742,-1.445 3.742,-2.771 z M 87.811,14.946 c 0.472,0.176 0.943,0.265 1.65,0.265 1.002,0 1.415,-0.324 1.798,-0.708 0.118,-0.029 0.472,0.207 0.501,0.265 0,0.413 -0.412,1.444 -0.708,1.798 -0.235,0.265 -0.5,0.471 -1.149,0.471 h -0.678 c -0.03,0 -0.089,0.06 -0.089,0.089 0.059,0.236 0.147,0.796 0.147,1.002 0,2.122 -0.795,3.124 -1.798,3.89 -1.12,0.854 -2.269,1.12 -3.094,1.208 -0.059,0 -0.648,0.059 -0.708,0.059 -0.206,0.059 -0.648,0.295 -0.648,0.678 0,0.53 0.501,0.795 1.268,0.854 1.562,0.118 3.919,0.236 4.951,0.59 1.12,0.412 2.004,1.445 2.004,2.917 0,1.886 -1.296,3.802 -3.713,4.981 -1.237,0.589 -2.387,0.795 -3.507,0.795 -1.503,0 -2.711,-0.294 -3.772,-1.12 -0.943,-0.737 -1.415,-1.856 -1.415,-2.682 0,-0.265 0.118,-1.061 0.236,-1.209 0.324,-0.412 1.385,-1.208 2.741,-2.151 0.029,0 0.029,-0.059 0,-0.059 -1.149,-0.442 -1.622,-1.179 -1.769,-1.739 -0.029,-0.176 0.147,-0.53 0.177,-0.648 0.442,-0.295 1.474,-0.854 1.916,-1.237 0.03,-0.03 0.03,-0.119 -0.029,-0.147 -1.562,-0.531 -2.771,-1.739 -2.771,-4.126 0,-1.238 0.531,-2.535 1.709,-3.389 0.737,-0.59 2.652,-1.327 3.861,-1.296 1.239,0.03 1.946,0.295 2.889,0.649 z"
         id="path20" />
      <path
         class="st1"
         d="m 102.775,24.877 c 0.752,0.57 1.818,0.811 2.878,0.784 1.268,-0.031 3.048,-0.781 2.993,-3.02 -0.045,-1.826 -1.182,-2.595 -3.96,-4.061 -2.865,-1.494 -4.666,-2.835 -4.732,-5.604 -0.079,-3.269 2.528,-5.162 5.857,-5.24 2.238,-0.056 3.516,0.328 4.815,0.443 -0.183,0.978 -0.313,2.897 -0.397,4.343 -0.083,0.208 -0.996,0.231 -1.146,0.058 -0.215,-1.558 -0.475,-2.494 -1.163,-2.979 -0.72,-0.483 -1.665,-0.608 -2.49,-0.589 -2.005,0.049 -2.938,1.633 -2.907,2.899 0.04,1.679 0.793,2.37 2.109,3.164 1.228,0.735 2.894,1.404 3.969,1.996 1.673,0.933 2.822,2.144 2.874,4.264 0.067,2.829 -2.282,5.626 -6.671,5.731 -1.886,0.047 -3.728,-0.56 -4.501,-0.835 -0.272,-0.345 -0.97,-3.6 -1.086,-4.689 0.052,-0.267 1.049,-0.526 1.228,-0.412 0.603,1.755 1.251,3.006 2.33,3.747 z"
         id="path22" />
      <path
         class="st1"
         d="m 124.447,27.029 c -1.944,0 -3.448,-0.737 -4.449,-2.122 -0.767,-1.06 -1.18,-2.505 -1.18,-4.037 0,-2.269 1.062,-4.126 3.095,-5.334 1.415,-0.884 3.035,-1.238 3.831,-1.238 1.268,0 2.063,0.265 2.622,0.53 0.531,0.236 0.767,0.501 0.914,0.795 0.03,0.118 0,0.414 -0.059,0.561 -0.207,0.53 -0.825,1.267 -1.12,1.385 -0.059,0.029 -0.236,0.059 -0.294,0.029 -0.736,-0.677 -1.887,-1.68 -3.418,-1.68 -2.241,0 -3.066,1.945 -3.066,3.86 0,1.267 0.354,2.623 1.149,3.536 0.796,0.973 1.886,1.444 3.301,1.444 1.062,0 2.21,-0.294 3.478,-1.444 0.06,0.03 0.206,0.148 0.206,0.295 0,0.323 -0.117,1.002 -0.206,1.12 -1.355,1.71 -3.507,2.3 -4.804,2.3 z"
         id="path24" />
      <g
         id="g36">
        <defs
           id="defs27">
          <rect
             id="SVGID_9_"
             x="42.241001"
             y="4.8790002"
             width="115.514"
             height="30" />
        </defs>
        <clipPath
           id="SVGID_10_">
          <use
             xlink:href="#SVGID_9_"
             style="overflow:visible"
             id="use29"
             x="0"
             y="0"
             width="100%"
             height="100%" />
        </clipPath>
        <path
           class="st15"
           d="m 137.681,20.928 c -0.824,0.325 -2.711,0.884 -3.389,1.269 -0.147,0.059 -0.354,0.618 -0.354,0.971 0,1.091 0.766,1.916 2.063,1.916 0.354,0 1.03,-0.176 1.414,-0.471 0.265,-0.177 0.324,-0.383 0.383,-0.736 0.06,-0.384 0.06,-2.27 0.06,-2.8 0,-0.031 -0.088,-0.178 -0.177,-0.149 z m -0.148,-3.712 c -0.471,-0.737 -1.385,-1.091 -2.18,-1.091 -0.796,0 -1.238,0.207 -1.327,0.295 -0.353,0.295 -0.825,1.297 -1.237,2.122 -0.117,0.148 -1.18,-0.353 -1.12,-0.618 0.118,-0.501 0.589,-1.857 0.825,-2.034 1.268,-0.825 3.242,-1.591 4.008,-1.591 1.386,0 2.446,0.648 3.095,1.621 0.561,0.914 0.737,1.798 0.737,2.976 0,1.503 -0.118,3.802 -0.118,5.039 0,0.679 0.266,1.091 1.149,1.091 0.441,0 0.678,-0.058 1.061,-0.147 0.029,0.147 -0.029,1.031 -0.146,1.149 -0.708,0.708 -1.827,1.002 -2.564,1.002 -0.915,0 -1.444,-0.412 -1.621,-0.855 -0.117,-0.176 -0.177,-0.441 -0.235,-0.648 0,-0.029 -0.118,-0.059 -0.147,-0.029 -1.681,1.031 -2.77,1.532 -3.685,1.532 -0.56,0 -1.178,-0.354 -1.68,-0.826 -0.648,-0.677 -1.031,-1.621 -1.031,-2.652 0,-0.825 0.56,-1.769 0.678,-1.886 1.119,-0.56 4.451,-1.267 5.658,-1.886 0.06,-0.029 0.178,-0.206 0.207,-0.294 0.059,-0.176 0.059,-0.442 0.059,-0.501 -0.002,-0.561 -0.031,-1.21 -0.386,-1.769 z"
           id="path32" />
        <path
           class="st15"
           d="m 144.578,25.379 c 0.413,-0.089 0.619,-0.412 0.649,-0.914 0.058,-0.825 0.058,-2.918 0.058,-4.804 v -2.122 c -0.117,-0.412 -0.648,-0.824 -1.679,-1.296 -0.06,-0.236 0.059,-0.795 0.206,-0.884 1.208,-0.118 3.123,-0.707 3.83,-1.091 0.061,0.031 0.179,0.148 0.179,0.236 0,0.148 -0.03,1.179 -0.03,1.65 0,0.06 0.147,0.06 0.177,0.031 1.268,-1.091 2.8,-1.886 3.949,-1.886 1.297,0 2.299,0.589 3.006,1.591 0.59,0.884 0.825,2.122 0.825,3.536 0,1.739 0,4.391 0.059,5.306 0,0.087 0.118,0.353 0.207,0.412 0.56,0.265 1.031,0.354 1.68,0.441 0.118,0.207 0.06,0.973 -0.118,1.18 -0.412,0 -1.443,-0.089 -3.064,-0.089 -1.297,0 -2.181,0.089 -2.947,0.089 -0.117,-0.178 -0.177,-1.001 0,-1.18 0.56,-0.058 1.032,-0.146 1.208,-0.235 0.384,-0.118 0.472,-0.382 0.472,-1.444 0,-1.944 0.029,-4.185 -0.088,-5.304 -0.059,-0.501 -0.267,-1.179 -0.825,-1.65 -0.413,-0.354 -0.973,-0.619 -1.798,-0.619 -0.854,0 -1.827,0.354 -2.417,0.884 -0.177,0.147 -0.324,0.412 -0.324,0.973 0,2.004 0,4.95 0.06,6.335 0.028,0.53 0.146,0.766 0.618,0.884 0.354,0.089 0.708,0.147 1.209,0.176 0.116,0.178 0.059,0.973 -0.118,1.18 -0.442,0 -1.326,-0.089 -3.035,-0.089 -1.239,0 -2.741,0.089 -3.036,0.089 -0.146,-0.178 -0.146,-1.031 0,-1.18 0.439,-0.059 0.734,-0.117 1.087,-0.206 z"
           id="path34" />
      </g>
      <path
         class="st1"
         d="m 116.244,27.915 c -0.047,0 -0.089,-0.014 -0.122,-0.042 l -0.001,-0.013 -0.166,-0.14 -1.391,-1.256 -0.009,-0.183 0.766,-0.849 0.179,-0.009 1.554,1.468 -0.002,0.052 h 0.011 c 0.183,0 -0.181,0.545 -0.196,0.563 l -0.191,0.175 c -0.112,0.124 -0.285,0.234 -0.432,0.234 z"
         id="path38" />
      <path
         class="st1"
         d="m 123.118,34.879 c -0.57,0 -1.23,-0.343 -1.96,-1.021 l -4.702,-4.781 c -0.455,-0.422 -0.572,-0.85 -0.591,-1.133 -0.022,-0.379 0.117,-0.678 0.257,-0.832 l 0.135,-0.147 c 0.146,-0.159 0.438,-0.331 0.829,-0.331 0.273,0 0.694,0.087 1.143,0.503 l 5.106,4.317 c 1.691,1.569 1.159,2.526 0.852,2.864 l -0.135,0.147 c -0.171,0.19 -0.472,0.414 -0.934,0.414 z"
         id="path40" />
      <path
         class="st1"
         d="m 115.553,27.712 c -0.205,0 -0.469,-0.235 -0.52,-0.282 l 0.023,-0.207 c 0.005,-0.003 0.549,-0.317 0.783,-0.597 0.238,-0.284 0.464,-0.781 0.466,-0.786 l 0.21,-0.034 c 0.093,0.101 0.305,0.353 0.305,0.514 0,0.194 -1.019,1.392 -1.267,1.392 z"
         id="path42" />
      <g
         id="g54">
        <defs
           id="defs45">
          <rect
             id="SVGID_11_"
             x="42.241001"
             y="4.8790002"
             width="115.514"
             height="30" />
        </defs>
        <clipPath
           id="SVGID_12_">
          <use
             xlink:href="#SVGID_11_"
             style="overflow:visible"
             id="use47"
             x="0"
             y="0"
             width="100%"
             height="100%" />
        </clipPath>
        <path
           class="st2"
           d="m 115.378,27.539 c -0.184,0 -0.347,-0.062 -0.476,-0.179 l -0.628,-0.573 c -0.312,-0.285 -0.303,-0.811 0.021,-1.173 l 0.335,-0.374 c 0.182,-0.203 0.429,-0.32 0.678,-0.32 0.183,0 0.347,0.063 0.475,0.179 l 0.628,0.573 c 0.313,0.285 0.302,0.811 -0.021,1.173 l -0.335,0.375 c -0.182,0.202 -0.428,0.319 -0.677,0.319 z"
           clip-path="url(#SVGID_12_)"
           id="path50" />
        <path
           class="st2"
           d="m 114.189,24.779 c -4.108,4.834 -11.354,5.425 -16.188,1.318 -4.835,-4.105 -5.426,-11.352 -1.319,-16.186 4.107,-4.834 11.354,-5.426 16.188,-1.32 4.834,4.106 5.424,11.354 1.319,16.188 z M 113.506,7.843 c -5.248,-4.456 -13.115,-3.815 -17.572,1.432 -4.456,5.249 -3.816,13.112 1.431,17.573 5.246,4.455 13.114,3.813 17.571,-1.433 4.46,-5.248 3.817,-13.116 -1.43,-17.572 z"
           clip-path="url(#SVGID_12_)"
           id="path52" />
      </g>
    </g>
  </g>
  <g
     id="text-container"
     transform="matrix(1.0048566,0,0,1.0119409,-0.29140013,9.6031138)">
    <text
       id="banner-text"
       fill="#ffffff"
       x="50%"
       y="66%"
       alignment-baseline="middle"
       text-anchor="middle"><tspan
         x="50%"
         class="st4"
         id="text-line-1">PROFESSIONAL</tspan><tspan
         x="50%"
         y="81%"
         class="st4"
         id="textd-line-2">PLAGIARISM DETECTION</tspan></text>
  </g>
</svg>
