<?xml version="1.0" encoding="UTF-8" standalone="no"?>
<svg
   xmlns:dc="http://purl.org/dc/elements/1.1/"
   xmlns:cc="http://creativecommons.org/ns#"
   xmlns:rdf="http://www.w3.org/1999/02/22-rdf-syntax-ns#"
   xmlns:svg="http://www.w3.org/2000/svg"
   xmlns="http://www.w3.org/2000/svg"
   height="44.930603"
   id="svg13"
   version="1.1"
   viewBox="0 0 240.53999 44.930604"
   width="240.53999">
  <metadata
     id="metadata17">
    <rdf:RDF>
      <cc:Work
         rdf:about="">
        <dc:format>image/svg+xml</dc:format>
        <dc:type
           rdf:resource="http://purl.org/dc/dcmitype/StillImage" />
        <dc:title></dc:title>
      </cc:Work>
    </rdf:RDF>
  </metadata>
  <defs
     id="defs7">
    <linearGradient
       gradientTransform="translate(-86,-64)"
       gradientUnits="userSpaceOnUse"
       y2="109.12"
       y1="66.18"
       x2="103"
       x1="103"
       id="a26322">
      <stop
         id="stop2"
         stop-color="#1fb1ff"
         offset="0" />
      <stop
         id="stop4"
         stop-color="#3082ed"
         offset="1" />
    </linearGradient>
  </defs>
  <path
     style="fill:url(#a26322)"
     id="path9"
     d="m 19,0 v 28.82 a 2.43,2.43 0 0 1 -4.86,0 V 0.22 L 9.28,5.06 v 23.76 a 7.28,7.28 0 0 0 14.56,0 V 4.86 Z M 33.56,14.56 V 28.72 A 16.79,16.79 0 0 1 0,28.72 V 14.36 L 4.86,9.5 v 19.22 a 11.92,11.92 0 0 0 23.84,0 V 9.7 Z"
     class="logo-icon" />
  <path
     style="fill:#000000"
     id="path11"
     d="m 54.58,33.56 c -0.66,-0.4 -1.2,-0.92 -1.62,-1.6 A 7.22,7.22 0 0 1 52.04,29.64 C 51.86,28.76 51.76,27.86 51.76,26.9 V 14.14 H 46 V 26.9 c 0,1.64 0.2,3.2 0.62,4.7 0.4,1.5 1.04,2.82 1.92,3.96 a 9.55,9.55 0 0 0 3.44,2.72 c 1.4,0.68 3.1,1.02 5.08,1.02 1.92,0 3.58,-0.32 4.98,-0.98 a 9.44,9.44 0 0 0 3.44,-2.64 c 0.9,-1.12 1.56,-2.44 2,-3.94 0.44,-1.5 0.66,-3.12 0.66,-4.84 V 14.14 H 62.38 V 26.9 c 0,0.9 -0.1,1.8 -0.28,2.68 a 6.7,6.7 0 0 1 -0.88,2.34 4.68,4.68 0 0 1 -4.16,2.24 c -0.98,0 -1.8,-0.2 -2.48,-0.6 z m 37.22,5.52 h 4.62 V 14.14 H 90.66 V 28.78 L 79.04,14.14 h -4.5 V 39.08 H 80.3 V 24.82 Z m 17.12,0 V 14.14 h -5.76 v 24.94 z m 6.18,-7.98 c 0.6,1.56 1.44,2.94 2.54,4.16 a 12.33,12.33 0 0 0 3.9,2.92 c 1.5,0.74 3.16,1.12 4.96,1.12 1.04,0 2.08,-0.14 3.16,-0.4 1.08,-0.26 2.1,-0.62 3.06,-1.12 a 9.78,9.78 0 0 0 2.54,-1.82 7.5,7.5 0 0 0 1.68,-2.46 l -4.7,-2.78 a 5,5 0 0 1 -2.42,2.66 c -0.5,0.26 -1.02,0.46 -1.58,0.6 a 7.4,7.4 0 0 1 -1.6,0.18 c -1,0 -1.9,-0.2 -2.72,-0.62 -0.8,-0.4 -1.5,-0.96 -2.08,-1.66 a 8.54,8.54 0 0 1 -1.76,-5.26 c 0,-0.92 0.12,-1.82 0.38,-2.72 0.26,-0.88 0.66,-1.68 1.2,-2.38 a 6,6 0 0 1 4.92,-2.4 6.78,6.78 0 0 1 3.16,0.72 5.44,5.44 0 0 1 2.5,2.7 l 4.42,-3.1 a 9.64,9.64 0 0 0 -3.84,-3.92 11.8,11.8 0 0 0 -6.1,-1.52 c -1.98,0 -3.72,0.36 -5.28,1.08 a 12.41,12.41 0 0 0 -6.38,6.84 12.63,12.63 0 0 0 -0.86,4.48 c 0,1.6 0.3,3.16 0.9,4.7 z m 42.38,-16.96 v 9.66 h -9.94 v -9.66 h -5.76 v 24.94 h 5.76 V 28.86 h 9.94 v 10.22 h 5.76 V 14.14 Z m 18.24,19.88 v -5.3 h 9.84 v -4.68 h -9.84 V 19.2 h 11.46 v -5.06 h -17.22 v 24.94 h 17.54 v -5.06 z m 16.16,-2.92 c 0.6,1.56 1.44,2.94 2.54,4.16 a 12.33,12.33 0 0 0 3.9,2.92 c 1.5,0.74 3.16,1.12 4.96,1.12 1.04,0 2.08,-0.14 3.16,-0.4 1.08,-0.26 2.1,-0.62 3.06,-1.12 a 9.78,9.78 0 0 0 2.54,-1.82 7.5,7.5 0 0 0 1.68,-2.46 l -4.7,-2.78 a 5,5 0 0 1 -2.42,2.66 c -0.5,0.26 -1.02,0.46 -1.58,0.6 a 7.4,7.4 0 0 1 -1.6,0.18 6.14,6.14 0 0 1 -4.78,-2.28 8.54,8.54 0 0 1 -1.78,-5.26 c 0,-0.92 0.12,-1.82 0.38,-2.72 0.26,-0.88 0.66,-1.68 1.2,-2.38 a 6,6 0 0 1 4.92,-2.4 6.78,6.78 0 0 1 3.16,0.72 c 0.52,0.28 0.98,0.62 1.42,1.06 0.44,0.44 0.8,0.98 1.08,1.64 l 4.42,-3.1 A 9.64,9.64 0 0 0 209.6,15.52 11.8,11.8 0 0 0 203.5,14 c -1.98,0 -3.72,0.36 -5.28,1.08 A 12.41,12.41 0 0 0 191,26.4 c 0,1.6 0.28,3.16 0.88,4.7 z m 26.68,7.98 V 14.14 h 5.76 V 24.9 l 9.12,-10.76 h 6.46 l -9.34,11.14 9.98,13.8 h -6.56 l -7.06,-10.04 -2.6,2.7 v 7.34 z"
     class="logo-name filled" />
</svg>
