<svg width="480" height="480" fill="none" xmlns="http://www.w3.org/2000/svg"><path d="M446.607 215.565c-8.716-57.046-15.712-96.469-47.185-118.072-53.085-36.439-112.37 22.723-187.567-16.98-37.025-19.542-38.413-42.2-69.77-45.209-55.476-5.32-100.907 60.885-104.845 66.567-23.922 34.492-31.914 76.558-22.215 116.66 6.298 26.047 10.561 53.005 9.387 79.771-2.034 46.583-.864 90.063 44.344 117.844 40.364 24.803 91.163 46.682 139.628 50.514 32.935 2.604 69.87-1.61 101.611-10.185 161.776-43.699 148.594-162.474 136.612-240.91z" fill="#DFEFFE"/><path d="M91.609 228.471c-33.034-.264-60.44-27.651-60.44-61.047 0-33.395 27.405-59.283 60.44-57.737 32.334 1.512 58.14 28.857 58.14 60.986 0 32.128-25.806 58.056-58.14 57.798z" fill="url(#a)"/><path d="M95.614 228.471c-33.033-.264-60.437-27.651-60.437-61.047 0-33.395 27.404-59.283 60.437-57.737 32.334 1.512 58.14 28.857 58.14 60.986 0 32.128-25.806 58.056-58.14 57.798z" fill="#D8DEE8"/><path d="M149.817 170.564c0 29.999-24.029 54.086-54.203 53.811-30.781-.286-56.194-25.734-56.194-56.833 0-31.1 25.413-55.157 56.194-53.758 30.174 1.371 54.203 26.782 54.203 56.78z" fill="#fff"/><path d="M60.437 411.979C27.405 411.718 0 384.329 0 350.934c0-33.396 27.405-59.289 60.437-57.738 32.336 1.514 58.136 28.853 58.136 60.984 0 32.132-25.8 58.06-58.136 57.799z" fill="url(#b)"/><path d="M64.444 411.979C31.41 411.718 4 384.329 4 350.934c0-33.396 27.41-59.289 60.444-57.738 32.335 1.514 58.141 28.853 58.141 60.984 0 32.132-25.806 58.06-58.141 57.799z" fill="#D8DEE8"/><path d="M118.647 354.074c0 29.998-24.029 54.086-54.203 53.812-30.783-.288-56.194-25.735-56.194-56.835 0-31.099 25.411-55.156 56.194-53.758 30.174 1.372 54.203 26.782 54.203 56.781z" fill="#fff"/><path d="M58.838 336.498v-26.186H41.852v26.186a6.051 6.051 0 0 1-4 5.694C22.228 347.81 10.97 363.229 10.97 377.44c0 17.782 17.63 26.936 39.376 26.936s39.375-9.154 39.375-26.936c0-14.211-11.262-29.63-26.883-35.248a6.056 6.056 0 0 1-3.999-5.694z" fill="url(#c)"/><path d="M17.71 365.13c-2.505 3.461-3.92 7.373-3.92 11.521 0 14.106 16.367 25.542 36.555 25.542s36.554-11.436 36.554-25.542c0-4.144-1.413-8.057-3.92-11.521H17.71z" fill="url(#d)"/><path d="M50.345 367.96c18.015 0 32.62-1.267 32.62-2.83 0-1.564-14.605-2.831-32.62-2.831-18.015 0-32.62 1.267-32.62 2.831 0 1.563 14.605 2.83 32.62 2.83z" fill="url(#e)"/><path d="M53.755 392.666c-4.398-.014-13.477-.045-20.46-6.82-4.226-4.099-9.494-12.425-6.948-19.301 3.861-10.432 22.634-9.233 23.934-17.887.59-3.935-3.225-4.632-4.118-11.452-.985-7.521 3.148-10.504 3.089-17.372-.023-2.466-.588-5.69-2.767-9.522h-4.633v26.186a6.051 6.051 0 0 1-4 5.694C22.228 347.81 10.97 363.229 10.97 377.44c0 17.782 17.63 26.936 39.376 26.936s39.375-9.154 39.375-26.936a28.194 28.194 0 0 0-.171-3.061c-6.103 6.82-18.853 18.345-35.794 18.287z" fill="#fff" style="mix-blend-mode:soft-light" opacity=".3"/><path d="M58.13 313.53H42.565a2.7 2.7 0 0 1-2.497-1.668 2.705 2.705 0 0 1 2.497-3.734h15.57a2.702 2.702 0 0 1 1.03 5.198c-.329.135-.68.205-1.035.204z" fill="url(#f)"/><path d="M96.628 295.1c13.221.406 24.323 8.481 26.488 18.695.002.013.004.027.008.04.116.56.206 1.125.269 1.696 0 .038.009.075.012.114.028.267.05.534.064.8v.145c.015.275.023.552.023.829 0 11.873-12.118 20.873-26.87 20.108a30.042 30.042 0 0 1-1.172-.082l-.113-.009a38.834 38.834 0 0 1-1.095-.117l-.17-.021a21.287 21.287 0 0 1-1.047-.16l-.196-.032c-.34-.058-.678-.118-1.014-.186l-.205-.041a35.174 35.174 0 0 1-.995-.219l-.19-.048c-.32-.08-.654-.16-.977-.253l-.171-.05c-.291-.081-.58-.167-.864-.257l-.218-.069a28.96 28.96 0 0 1-.862-.293c-.061-.021-.125-.04-.186-.062-9.807-3.538-16.701-11.499-16.701-20.403.01-11.553 11.643-20.572 26.182-20.125z" fill="url(#g)"/><path d="M67.657 315.236c0 11.567 11.632 21.544 26.173 22.296 14.752.765 26.87-8.235 26.87-20.108 0-11.873-12.118-21.871-26.87-22.324-14.541-.447-26.173 8.572-26.173 20.136z" fill="url(#h)"/><path d="M87.411 331.811c3.183-6.098-.035-12.085 4.273-15.944 4.394-3.938 10.132.125 16.345-2.994 2.412-1.21 5.1-3.608 7.104-8.687 3.488 3.734 5.567 8.332 5.567 13.236 0 11.873-12.118 20.873-26.87 20.108a32.987 32.987 0 0 1-9.475-1.891 13 13 0 0 0 3.056-3.828z" fill="url(#i)" style="mix-blend-mode:multiply" opacity=".3"/><path d="M95.17 316.495a2.098 2.098 0 0 1-2.128 2.128 2.198 2.198 0 0 1-2.125-2.201 2.097 2.097 0 0 1 2.117-2.127 2.194 2.194 0 0 1 2.136 2.2z" fill="#fff"/><path d="M87.69 329.545a5.287 5.287 0 0 1-3.085-1.055c-3.702-2.821-2.955-10.241 1.71-16.974 3.477-5.022 8.231-8.286 12.12-8.286a5.405 5.405 0 0 1 3.2.96c3.908 2.775 3.135 10.419-1.747 17.308-3.573 5.032-8.358 8.181-12.198 8.047zm10.75-24.952c-3.417 0-7.856 3.105-11.051 7.711-4.12 5.936-5.042 12.823-2.03 15.111.675.497 1.49.769 2.329.776 3.36.112 7.815-2.895 11.083-7.511 4.279-6.049 5.236-13.122 2.08-15.373a4.078 4.078 0 0 0-2.407-.714h-.004z" fill="#fff"/><path d="M98.508 329.924c-3.902-.138-8.682-3.589-12.178-8.751-4.676-6.907-5.428-14.328-1.74-17.004a5.112 5.112 0 0 1 3.074-.939c3.818 0 8.606 3.293 12.195 8.436 4.924 7.055 5.749 14.75 1.848 17.404a5.249 5.249 0 0 1-3.199.854zm-10.842-25.35a3.855 3.855 0 0 0-2.322.691c-3.002 2.17-2.07 9.072 2.058 15.154 3.213 4.735 7.68 8.018 11.103 8.132a3.945 3.945 0 0 0 2.41-.64c3.156-2.152 2.152-9.281-2.162-15.477-3.282-4.708-7.738-7.854-11.087-7.86z" fill="#fff"/><path d="m93.332 324.307-.399.16c-3.86-.16-7.452-1.03-10.13-2.592-2.791-1.627-4.3-3.701-4.268-5.92.064-4.385 6.24-7.753 14.213-7.7l.397.017c5.485.115 10.55 1.871 13.166 4.588 1.2 1.246 1.827 2.478 1.811 3.898-.053 4.562-6.618 7.935-14.79 7.549zm-.583-14.676c-7.133-.061-12.878 2.813-12.929 6.4-.026 1.709 1.248 3.399 3.599 4.766 2.5 1.453 5.879 2.338 9.53 2.488l.38.013c7.292.193 13.364-2.681 13.408-6.401.012-1.058-.465-2.095-1.413-3.083-2.365-2.463-7.056-4.059-12.197-4.175l-.378-.008z" fill="#fff"/><path d="m229.246 157.485 17.059 35.694 38.715 8.151 1.013.797.286-.363.079-.099-17.821-37.105-40.245-8.581-.097.125-.285.364 1.296 1.017z" fill="url(#j)"/><path d="m268.281 165.011 17.744 37.126-40.265-8.476-17.745-37.126 40.266 8.476z" fill="url(#k)"/><path d="m239.402 168.083-13.472 17.138.044.033c-.64.973 6.173 6.953 14.948 13.853 8.062 6.337 14.981 11.251 16.661 11.344a.407.407 0 0 0 .321-.092l-.16-.123 13.471-17.138c.106-.135.191-.285.253-.445.181-.448.242-.937.175-1.416-.362-3.52-5.321-9.777-12.554-15.462-7.233-5.686-14.485-9.027-17.989-8.547-.754.107-1.328.384-1.698.855z" fill="url(#l)"/><path d="m274.99 179.275 1.015 1.429c.349.141.457.53.494 1.024l1.536 23.491v.016l.388 5.544c.012.321.428.564.752.533.323-.03.696-.301.683-.64l-.394-6.021-1.541-23.011c-.088-1.313-1.091-2.488-2.4-2.4l-.533.035z" fill="url(#m)"/><path d="m280.639 205.922-.629-.864a1.124 1.124 0 0 0-1.56-.283c-.16.113-.287.266-.368.443l-.452.978a1.623 1.623 0 0 0-.16.747l.524 7.9c.011.17.885.25 1.789.191.904-.059 1.76-.255 1.747-.424l-.525-7.923c-.014-.28-.216-.536-.366-.765z" fill="url(#n)"/><path d="M210.946 240.709c-12.459 3.765-28.396 18.424-36.732 26.462-19.224 18.537-55.321 81.079-34.288 103.413 14.305 15.202 39.447 8.811 50.532-6.511 8.161-11.267 3.216-21.522 1.499-41.809-1.845-21.83 5.985-59.988 18.989-81.555z" fill="url(#o)"/><path d="M210.946 240.709c-12.459 3.765-28.396 18.424-36.732 26.462-19.224 18.537-55.321 81.079-34.288 103.413 14.305 15.202 39.447 8.811 50.532-6.511 8.161-11.267 3.216-21.522 1.499-41.809-1.845-21.83 5.985-59.988 18.989-81.555z" fill="url(#p)"/><path d="M200.449 246.721c-8.588 10.201-11.603 9.348-18.296 23.392-10.081 21.157-2.657 45.339-1.6 71.398 1.161 28.584.019 81.79-14.348 109.292-.251.48-.372.579-.363 1.296.442 29.15 138.174 8.729 137.956-1.92-1.085-52.869-35.524-168.644-26.99-206.937-3.872-.07-11.532-4.114-14.65-4.986-13.375-3.741-25.454-4.371-38.103-2.65-4.626.629-6.956 1.695-10.332 2.993-5.484 2.102-9.022 5.232-13.274 8.122z" fill="url(#q)"/><path d="M200.449 246.721c-8.588 10.201-11.603 9.348-18.296 23.392-10.081 21.157-2.657 45.339-1.6 71.398 1.161 28.584.019 81.79-14.348 109.292-.251.48-.372.579-.363 1.296.442 29.15 138.174 8.729 137.956-1.92-1.085-52.869-35.524-168.644-26.99-206.937-3.872-.07-11.532-4.114-14.65-4.986-13.375-3.741-25.454-4.371-38.103-2.65-4.626.629-6.956 1.695-10.332 2.993-5.484 2.102-9.022 5.232-13.274 8.122z" fill="url(#r)"/><path d="M249.467 206.432c-.18 8.874 2.732 21.663 3.879 29.622 1.148 7.959-15.118 8.294-20.434 4.604-4.882-3.389-1.207-12.579 3.503-17.402 4.709-4.823 8.252-11.886 13.052-16.824z" fill="url(#s)"/><path d="M249.467 206.432c-.18 8.874 2.732 21.663 3.879 29.622 1.148 7.959-15.118 8.294-20.434 4.604-4.882-3.389-1.207-12.579 3.503-17.402 4.709-4.823 8.252-11.886 13.052-16.824z" fill="url(#t)"/><path d="M225.001 203.656c-7.499-6.618-8.873-30.097-1.28-34.695 3.68-2.229 10.109 9.35 14.289 11.585 5.615 3.001 20.849 6.337 23.868 12.354 2.277 4.538-2.296 13.944-4.133 17.307-2.08 3.804-2.322 2.503-4.816 5.204-3.46 3.745-8.067 8.127-11.579 12.321-.762-3.192-.56-3.19-1.903-7.316-.515-1.585-4.655-8.29-6.668-10.881-1.274-1.632-6.86-5.067-7.778-5.879z" fill="#010648"/><path d="M249.042 221.913c-5.761 5.335-8.587 11.824-19.042 9.88-9.366-1.741-10.936-25.123-2.42-32.021 2.842-2.301 6.991-2.277 10.521-1.226 2.081.619 4.263 2.008 6.347 2.807 1.92.736 3.546-.16 5.309 1.79 2.208 2.439.709 8.659-.555 11.666.96-.849 2.056-2.045 3.323-2.439.895-.279 2.447-1.76 3.29-.48 1.376 2.099-1.608 6.1-3.36 7.745-.805.757-2.432 1.681-3.413 2.278z" fill="url(#u)"/><path d="M249.042 221.913c-5.761 5.335-8.587 11.824-19.042 9.88-9.366-1.741-10.936-25.123-2.42-32.021 2.842-2.301 6.991-2.277 10.521-1.226 2.081.619 4.263 2.008 6.347 2.807 1.92.736 3.546-.16 5.309 1.79 2.208 2.439.709 8.659-.555 11.666.96-.849 2.056-2.045 3.323-2.439.895-.279 2.447-1.76 3.29-.48 1.376 2.099-1.608 6.1-3.36 7.745-.805.757-2.432 1.681-3.413 2.278z" fill="url(#v)"/><path d="M250.428 201.647c-1.281.741 1 3.109.657 5.452-.665 4.551-2.117 12.765-8.758 13.56-3.925.47-8.037-3.04-12.161-3.455-2.549-.261-5.36-.123-7.894.56-1.64 4.898-1.707 12.608 2.542 15.643 4.574 3.268 7.573 1.569 12.431.16 3.252-.937 6.839-3.744 8.884-6.933 2.13-3.324 3.692-6.812 5.806-10.308 1.166-1.932 2.578-4.35 3.952-6.374.373-.55.943-1.431 1.213-2.16-1.093-1.051-4.815-7.217-6.672-6.145z" fill="#010648"/><path d="M227.451 221.116c1.933 1.079 4.198 1.071 6.301 1.1.101 0 .555-.178.381.204-.656 1.441-3.501 1.935-4.945 1.517-1.025-.294-2.758-1.545-2.573-2.667.079-.472.644-.054.836-.154z" fill="#fff"/><path style="mix-blend-mode:multiply" opacity=".3" d="M212.539 415.282c-3.697-4.174-9.576-10.814-9.922-20.082-.897-23.831 35.964-33.111 34.513-52.503-1.12-15.074-23.692-13.374-36.532-40.131-2.205-4.594-10.272-22.054-4.421-41.825 2.336-7.897 6.175-13.736 9.042-17.407-1.584 1.12-3.122 2.271-4.767 3.388-8.588 10.201-11.602 9.348-18.296 23.391-10.081 21.157-2.656 45.339-1.6 71.398 1.162 28.584.019 81.79-14.347 109.292-.252.48-.42.789-.364 1.296 3.214 28.976 138.174 8.729 137.956-1.92-.131-6.375-.75-13.67-1.717-21.626-4.786 1.314-63.075 16.619-89.545-13.271z" fill="url(#w)"/><path d="M173.848 323.746c-7.535-.378-2.33-4.934-4.612-4.271-1.429.414-36.389 34.788-25.372 52.921 10.507 17.295 54.153 5.567 69.532.083 8.548-3.048 33.932-12.481 49.35-37.042a75.286 75.286 0 0 0 3.112-5.441c-33.693-4.42-49.829-5.479-58.282-5.525-5.421-.021-10.89.419-33.728-.725z" fill="#30ABBA"/><path d="M186.581 320.255c.95 7.59 4.87 31.021 24.657 50.22 3.935 3.818 30.621 28.843 68.036 22.537 29.237-4.929 55.273-27.325 61.287-55.297 11.75-54.61-58.029-102.786-74.053-94.526-10.757 5.546-13.827 45.051 2.272 65.015 3.5 4.338 10.006 10.36 8.998 17.922-.96 7.26-8.321 11.841-12.482 14.362-19.634 11.879-62.651-18.783-74.032-21.3-.814-.019-1.432-.805-4.683 1.067z" fill="url(#x)"/><path d="M186.581 320.255c.95 7.59 4.87 31.021 24.657 50.22 3.935 3.818 30.621 28.843 68.036 22.537 29.237-4.929 55.273-27.325 61.287-55.297 11.75-54.61-58.029-102.786-74.053-94.526-10.757 5.546-13.827 45.051 2.272 65.015 3.5 4.338 10.006 10.36 8.998 17.922-.96 7.26-8.321 11.841-12.482 14.362-19.634 11.879-62.651-18.783-74.032-21.3-.814-.019-1.432-.805-4.683 1.067z" fill="url(#y)"/><path style="mix-blend-mode:multiply" opacity=".3" d="M290.971 307.948c-6.78-6.868-14.633-10.486-23.468-13.2-2.205-.598-4.412-1.15-6.594-1.722 1.805 5.614 4.391 10.854 7.877 15.178 3.487 4.324 10.006 10.36 8.998 17.922-.96 7.26-8.321 11.841-12.481 14.362-19.636 11.879-62.652-18.783-74.032-21.3-.821-.026-1.44-.8-4.689 1.069a85.55 85.55 0 0 0 1.479 8.38c16.145-5.17 33.661 11.028 47.623 18.946 17.944 10.15 40.271 16.712 57.766 3.306 13.113-9.821 8.359-31.671-2.479-42.941z" fill="url(#z)"/><path style="mix-blend-mode:multiply" opacity=".3" d="M299.553 254.683c-3.061 10.292-3.431 20.715 2.704 30.657 8.841 14.015 18.722 25.717 22.315 41.399 3.221 13.313 1.28 26.414-2.561 39.437-1.11 3.47-2.829 6.473-4.939 9.173 11.708-9.881 20.344-22.993 23.495-37.636 7.399-34.385-17.536-66.229-41.014-83.03z" fill="url(#A)"/><path d="M262.749 335.436c.934 2.233 5.546 4.523 7.785 4.263 3.752-.435 6.4-2.992 8.754-4.106 2.103-.997 6.796-2.347 7.076-4.016.535-3.162-4.594-4.052-7.601-4.357-4.216-.428-8.714.8-12.902 2.782-1.045 1.829-2.213 3.623-3.112 5.434z" fill="url(#B)"/><path d="M262.749 335.436c.934 2.233 5.546 4.523 7.785 4.263 3.752-.435 6.4-2.992 8.754-4.106 2.103-.997 6.796-2.347 7.076-4.016.535-3.162-4.594-4.052-7.601-4.357-4.216-.428-8.714.8-12.902 2.782-1.045 1.829-2.213 3.623-3.112 5.434z" fill="url(#C)"/><path d="M179.834 324.028c14.722 2.069 18.13 1.053 18.538-.245.522-1.658-3.447-5.007-7.681-5.585-4.304-.584-8.666 1.717-10.857 5.83z" fill="url(#D)"/><path d="M179.834 324.028c14.722 2.069 18.13 1.053 18.538-.245.522-1.658-3.447-5.007-7.681-5.585-4.304-.584-8.666 1.717-10.857 5.83z" fill="url(#E)"/><path d="M54.566 173.09a8.12 8.12 0 0 1-5.13-1.549c-3.297-2.455-3.65-6.913-.788-9.922l41.843-44.392a7.21 7.21 0 0 1 5.422-2.177 7.487 7.487 0 0 1 5.357 2.445l14.011 15.625 15.922-17.506c2.383-2.619 6.506-2.777 9.211-.382 2.704 2.395 2.973 6.401.64 9.02l-20.642 23.156a7.015 7.015 0 0 1-5.147 2.307 7.03 7.03 0 0 1-5.183-2.223l-14.17-15.495-35.5 38.491a8.395 8.395 0 0 1-5.846 2.602z" fill="url(#F)"/><path d="m145.512 127.613-17.535-15.386 22.502-7.556h1.571l-5.12 22.802-1.418.14z" fill="url(#G)"/><path d="M56.131 173.09a8.12 8.12 0 0 1-5.13-1.549c-3.297-2.455-3.65-6.913-.787-9.922l41.849-44.392a7.207 7.207 0 0 1 5.421-2.177 7.49 7.49 0 0 1 5.358 2.445l14.011 15.625 15.922-17.506c2.382-2.619 6.506-2.777 9.21-.382 2.704 2.395 2.973 6.401.64 9.02l-20.642 23.156a7.021 7.021 0 0 1-10.329.084l-14.17-15.495-35.5 38.491a8.396 8.396 0 0 1-5.853 2.602z" fill="url(#H)"/><path d="m146.93 127.473-17.381-15.246 22.501-7.556-5.12 22.802z" fill="url(#I)"/><path d="M107.084 137.015s6.08 1.699 6.72 10.482c-.995-.068-3.312 0-3.312 0s.429-6.387-3.896-7.628c.355-.744.488-2.854.488-2.854z" fill="#fff"/><path d="m84.776 136.488.456 4.8c3.003-.718 6.29-1.552 9.822-1.704 4.209-.184 8.425.154 12.551 1.005.345-.43.58-.937.684-1.479a4.375 4.375 0 0 0-.259-2.52 42.868 42.868 0 0 0-6.2-1.414c-6.364-.954-12.113 0-17.054 1.312z" fill="url(#J)"/><path d="M84.49 137.868c.009-.579.059-1.3.283-1.385.224-.085.494.443.617.733.05.121.16.414.232 1.347.091 1.203-.014 1.794-.11 2.157-.06.219-.149.552-.283.56-.11 0-.204-.203-.343-.608a8.13 8.13 0 0 1-.397-2.804z" fill="url(#K)"/><path d="M78.956 147.98c1.26.206 4.32.824 4.32.824s-1.987-5.617 1.77-8.214a5.14 5.14 0 0 0-.371-3.381c-1.599.795-5.079 3.458-5.72 10.771z" fill="#fff"/><path d="M52.902 149.458s.16-2.949 5.407-2.949c.827.537.869 2.949.869 2.949h-6.276z" fill="url(#L)"/><path d="m48.237 207.454 14.376 7.775 8.712-28.555-14.359-38.282-4.069 1.065-6.172 54.979a3.04 3.04 0 0 0 1.512 3.018z" fill="#010648"/><path style="mix-blend-mode:multiply" opacity=".3" d="m71.325 186.674-14.359-38.282-4.069 1.065c1.002 3.38 1.483 8.881 1.71 11.944.96 13.035 4.16 16.661 2.609 25.763-1.28 7.561-4.098 8.586-3.853 13.673.269 5.54 3.885 10.179 8.186 13.827l1.06.573 8.716-28.563z" fill="url(#M)"/><path d="M56.973 148.392h78.938l12.428 60.681-85.724 6.156-5.642-66.837z" fill="#311944"/><path d="M135.911 148.392h-26.592a40.227 40.227 0 0 1-2.331 4.911c-11.893 21.181-39.118 23.842-38.627 27.331.735 5.203 61.362-2.183 62.91 4.96.747 3.452-12.056 11.297-25.434 14.267-16.017 3.557-27.788-.925-35.616 7.067-2.652 2.706-3.822 5.875-4.391 8.018l82.506-5.869-12.425-60.685z" fill="#010648" style="mix-blend-mode:multiply" opacity=".2"/><path d="M58.309 146.511c-.888 0-2.132-.1-3.484.609a5.645 5.645 0 0 0-.768.488l.623-.198c1.001-.263 2.382.086 2.898.984.64 1.104.862 3.656 1 4.921.395 3.597 2.817 25.977 2.817 25.977a3.626 3.626 0 0 0 3.68 3.28l73.43-3.418a2.861 2.861 0 0 0 1.57-.48 2.8 2.8 0 0 0 1.171-2.88l-3.72-26.654a3.298 3.298 0 0 0-3.228-2.629h-75.99z" fill="url(#N)"/><path d="M59.096 146.51c-.89 0-1.944-.109-3.12.173-.32.077-.824.216-1.048.385 0 0 2.493-.532 3.435 1.325.576 1.135.863 3.657 1.002 4.921.393 3.597 2.816 25.977 2.816 25.977a3.628 3.628 0 0 0 3.68 3.28l74.258-1.427a2.882 2.882 0 0 0 1.569-.48 2.802 2.802 0 0 0 1.171-2.88l-4.548-28.643a3.294 3.294 0 0 0-3.227-2.631H59.096z" fill="#010648"/><path style="mix-blend-mode:multiply" opacity=".1" d="m142.859 177.779-4.548-28.643a3.295 3.295 0 0 0-3.227-2.626H59.096c-.89 0-1.944-.109-3.12.173-.32.077-.824.216-1.048.385 0 0 2.493-.532 3.435 1.325.1.207.184.421.251.64 7.217.256 14.432.072 21.65.48 14.265.801 28.692.801 42.156 5.931 4.306 1.641 7.258 7.535 6.09 10.258-.842 1.964-3.717 1.809-4.72 4.385-1.055 2.711 1.475 4.551.412 6.453-1.112 1.994-4.49 1.044-9.957 2.466a27.786 27.786 0 0 0-6.768 2.765l32.644-.627a2.88 2.88 0 0 0 1.568-.48 2.803 2.803 0 0 0 1.17-2.885z" fill="url(#O)"/><path d="m107.322 186.475-9.299 1.992-.982.07a1.766 1.766 0 0 1-1.3-.446 1.76 1.76 0 0 1-.583-1.245l-.408-9.478a1.753 1.753 0 0 1 .474-1.29c.161-.173.356-.311.572-.406.216-.096.449-.147.685-.15l.987-.013 9.347 1.058c.893-.013 1.645-.436 1.685.504l.384 8.89c.04.939-.672.45-1.562.514z" fill="url(#P)"/><path d="m108.03 187.795-10.304.75a1.747 1.747 0 0 1-1.298-.452 1.748 1.748 0 0 1-.577-1.247l-.408-9.478a1.755 1.755 0 0 1 1.046-1.696c.216-.096.449-.147.685-.15l10.329-.138c.893-.013 1.651.747 1.691 1.687l.383 8.89c.035.939-.658 1.762-1.547 1.834z" fill="url(#Q)"/><path d="M403.852 409.843c-33.032-.264-60.437-27.652-60.437-61.047 0-33.394 27.405-59.283 60.437-57.737 32.337 1.512 58.143 28.858 58.143 60.984 0 32.127-25.806 58.058-58.143 57.8z" fill="url(#R)"/><path d="M407.859 409.843c-33.034-.264-60.438-27.652-60.438-61.047 0-33.394 27.404-59.283 60.438-57.737C440.194 292.571 466 319.917 466 352.043c0 32.127-25.806 58.058-58.141 57.8z" fill="#D8DEE8"/><path d="M462.062 351.934c0 29.999-24.028 54.086-54.203 53.813-30.782-.287-56.193-25.736-56.193-56.835 0-31.1 25.411-55.157 56.193-53.758 30.175 1.371 54.203 26.782 54.203 56.78z" fill="#fff"/><path d="m454.648 315.451-.198 65.776c-.01 3.224-2.618 6.157-5.886 6.491l-48.086 4.924c-3.705.378-6.736-2.182-6.736-5.652v-70.798c0-3.287 2.69-5.997 6.102-6.325.218-.023.44-.029.662-.031l48.265-.23a5.791 5.791 0 0 1 2.252.426 5.811 5.811 0 0 1 3.625 5.419z" fill="url(#S)"/><path d="m458.058 315.404-.201 65.57c-.012 3.215-2.468 6.125-5.715 6.458l-47.757 4.889c-3.68.376-6.839-2.16-6.839-5.62l.01-70.568c0-3.275 2.747-5.978 6.136-6.304.216-.023.511-.029.733-.031l47.935-.229c3.258-.001 5.708 2.597 5.698 5.835z" fill="url(#T)"/><g style="mix-blend-mode:multiply" opacity=".3"><path d="m458.058 315.311-.051 16.482-60.453 1.987v-17.741c0-3.2 2.621-5.799 5.897-6.226.324-.019.649-.019.973 0l47.934-.229c3.26-.016 5.71 2.488 5.7 5.727z" fill="url(#U)"/><path d="m458.023 326.726-.021 6.849c-5.866 1.855-16.659 3.36-29.045 3.84-5.471.212-10.759.204-15.539 0-6.364-.262-11.737-.864-15.864-1.715v-7.37c1.554-.383 2.981-.737 4.674-1.071 3.68-.726 8.113-1.339 12.961-1.791 4.321-.403 9.024-.676 13.866-.787 6.233-.144 12.019 0 16.992.362a108.848 108.848 0 0 1 5.7.555c.851.107 1.584.224 2.359.346a42.26 42.26 0 0 1 3.917.782z" fill="url(#V)"/></g><path d="M455.098 328.311a1.85 1.85 0 0 1-1.784 1.827l-49.615 1.512c-1.12.034-2.017-.785-2.017-1.832v-11.841c0-1.047.906-1.906 2.018-1.92l49.651-.604a1.761 1.761 0 0 1 1.258.506c.165.164.296.36.385.575.088.216.133.447.131.68l-.027 11.097z" fill="#fff"/><path d="M453.97 328.096a1.169 1.169 0 0 1-1.13 1.153l-49.37 1.455a1.18 1.18 0 0 1-.887-.305 1.19 1.19 0 0 1-.393-.852v-11.795a1.255 1.255 0 0 1 1.28-1.213l49.404-.629a1.1 1.1 0 0 1 .793.321 1.099 1.099 0 0 1 .327.79l-.024 11.075z" fill="url(#W)"/><path d="M447.145 321.523a.528.528 0 0 1-.563.514h-.026c-.32 0-.563-.184-.563-.492v-2.285a.548.548 0 0 1 .169-.389.564.564 0 0 1 .396-.156h.026a.52.52 0 0 1 .394.143.539.539 0 0 1 .167.385v2.28z" fill="url(#X)"/><path d="M451.73 321.443a.543.543 0 0 1-.17.377.542.542 0 0 1-.389.143h-.025a.516.516 0 0 1-.388-.126.51.51 0 0 1-.168-.371v-2.281a.56.56 0 0 1 .559-.549h.025a.52.52 0 0 1 .514.323.543.543 0 0 1 .042.21v2.274z" fill="url(#Y)"/><path d="M447.132 326.638a.619.619 0 0 1-.563.621h-.026a.589.589 0 0 1-.561-.594v-2.351a.62.62 0 0 1 .565-.616h.025a.587.587 0 0 1 .562.591l-.002 2.349z" fill="url(#Z)"/><path d="M451.707 326.544c0 .305-.251.403-.558.64h-.026c-.307 0-.555-.311-.555-.618v-2.454c0-.306.251-.725.558-.73h.026c.307 0 .555.398.555.704v2.458z" fill="url(#aa)"/><path opacity=".3" d="M450.593 322.638a.574.574 0 0 1-.566.568l-2.2.051c-.311 0-.445-.236-.445-.544v-.024c0-.307.133-.56.443-.566l2.264-.05a.504.504 0 0 1 .479.336.477.477 0 0 1 .025.205v.024z" fill="url(#ab)"/><path d="M450.593 317.876a.569.569 0 0 1-.56.565l-2.203.037c-.31 0-.448-.24-.448-.547v-.026c0-.307.139-.56.45-.565l2.261-.033a.487.487 0 0 1 .371.161.498.498 0 0 1 .129.383v.025z" fill="url(#ac)"/><path d="M450.593 327.626a.588.588 0 0 1-.572.572l-2.322.063a.548.548 0 0 1-.565-.54v-.026a.576.576 0 0 1 .562-.57l2.328-.062a.556.556 0 0 1 .398.149.538.538 0 0 1 .171.389v.025z" fill="url(#ad)"/><path d="M432.657 385.173a13.426 13.426 0 0 1-1.005 3.256c-.173.373-.368.762-.582 1.16l-26.685 2.731c-3.68.377-6.839-2.16-6.839-5.619l.01-70.662c0-3.201 2.621-5.852 5.896-6.281.08.024.197.048.279.072 3.443 1.042 7.201 2.984 9.441 6.62 1.398 2.269 2.23 5.204 2.045 9.014a26.021 26.021 0 0 1-.349 3.136c-.112.64-.222 1.302-.336 1.973-.141.837-.279 1.691-.415 2.56a99.824 99.824 0 0 0-.572 4.271 53.473 53.473 0 0 0-.346 4.989c-.024.872-.021 1.741.011 2.602.021.591.058 1.175.107 1.76.285 3.266 1.053 6.372 2.593 9.065 1.163 2.036 2.914 3.585 4.751 5.014.48.376.974.745 1.461 1.12a39.101 39.101 0 0 1 4.784 4.146c.69.72 1.331 1.485 1.92 2.29a16.861 16.861 0 0 1 1.664 2.851c.178.383.343.773.493 1.169.263.676.488 1.374.685 2.08a36.93 36.93 0 0 1 .266 1.008c.35 1.329.617 2.678.8 4.04.26 1.871.234 3.771-.077 5.635z" fill="#fff" style="mix-blend-mode:soft-light" opacity=".3"/><g style="mix-blend-mode:multiply"><path d="M413.325 345.741a1.368 1.368 0 0 1-1.328 1.322l-8.961.442c-.75.036-1.358-.503-1.358-1.207v-3.213c0-.704.611-1.301 1.361-1.333l8.961-.381a1.237 1.237 0 0 1 .923.314 1.222 1.222 0 0 1 .404.886l-.002 3.17z" fill="url(#ae)"/><path d="M427.788 345.05a1.338 1.338 0 0 1-1.28 1.298l-8.641.427a1.202 1.202 0 0 1-1.203-.707 1.209 1.209 0 0 1-.108-.48v-3.157a1.357 1.357 0 0 1 1.314-1.309l8.641-.367a1.186 1.186 0 0 1 .896.313 1.198 1.198 0 0 1 .384.868l-.003 3.114z" fill="url(#af)"/><path d="M441.301 344.405a1.305 1.305 0 0 1-1.243 1.281l-8.359.411a1.187 1.187 0 0 1-.889-.308 1.177 1.177 0 0 1-.379-.86v-3.105a1.32 1.32 0 0 1 1.28-1.28l8.363-.355a1.164 1.164 0 0 1 1.237 1.162l-.01 3.054z" fill="url(#ag)"/><path d="M454.828 343.758a1.279 1.279 0 0 1-1.202 1.253l-8.083.399a1.141 1.141 0 0 1-1.222-1.149l.008-3.053c.004-.328.134-.642.363-.876.228-.235.538-.374.866-.387l8.084-.344a1.139 1.139 0 0 1 .845.314 1.125 1.125 0 0 1 .349.83l-.008 3.013z" fill="url(#ah)"/><path d="M413.309 355.919a1.394 1.394 0 0 1-1.328 1.336l-8.949.55c-.749.047-1.359-.48-1.357-1.189v-3.203c0-.703.609-1.306 1.36-1.348l8.951-.489a1.206 1.206 0 0 1 .922.302 1.22 1.22 0 0 1 .403.882l-.002 3.159z" fill="url(#ai)"/><path d="M427.772 355.051a1.36 1.36 0 0 1-1.28 1.312l-8.641.531a1.185 1.185 0 0 1-1.203-.691 1.179 1.179 0 0 1-.108-.478v-3.154a1.375 1.375 0 0 1 1.314-1.324l8.641-.472a1.18 1.18 0 0 1 1.28 1.164l-.003 3.112z" fill="url(#aj)"/><path d="M441.279 354.241a1.324 1.324 0 0 1-1.242 1.29l-8.358.513a1.156 1.156 0 0 1-1.265-1.152v-3.103a1.34 1.34 0 0 1 1.272-1.299l8.358-.456a1.155 1.155 0 0 1 .869.301 1.14 1.14 0 0 1 .367.845l-.001 3.061z" fill="url(#ak)"/><path d="M454.799 353.43a1.294 1.294 0 0 1-1.2 1.267l-8.08.496a1.134 1.134 0 0 1-.861-.296 1.13 1.13 0 0 1-.361-.837v-3.05a1.305 1.305 0 0 1 1.229-1.28l8.079-.441a1.112 1.112 0 0 1 1.106.68c.061.142.091.295.089.449l-.001 3.012z" fill="url(#al)"/><path d="M413.3 365.847a1.416 1.416 0 0 1-1.327 1.352l-8.945.656c-.75.055-1.358-.47-1.358-1.172v-3.201c0-.702.609-1.312 1.358-1.363l8.948-.595c.733-.048 1.325.48 1.325 1.166l-.001 3.157z" fill="url(#am)"/><path d="M427.757 364.808a1.376 1.376 0 0 1-1.28 1.326l-8.641.641a1.176 1.176 0 0 1-1.309-1.154v-3.151a1.394 1.394 0 0 1 1.312-1.338l8.641-.574a1.154 1.154 0 0 1 .895.291 1.157 1.157 0 0 1 .386.858l-.004 3.101z" fill="url(#an)"/><path d="M441.257 363.841a1.349 1.349 0 0 1-1.241 1.302l-8.353.613a1.15 1.15 0 0 1-.886-.285 1.157 1.157 0 0 1-.379-.851v-3.1c.011-.337.147-.659.381-.902.235-.242.552-.389.889-.411l8.355-.556a1.147 1.147 0 0 1 .869.292c.116.107.209.236.273.381.063.145.095.301.095.459l-.003 3.058z" fill="url(#ao)"/><path d="M454.77 362.869a1.31 1.31 0 0 1-1.2 1.28l-8.075.592a1.123 1.123 0 0 1-1.128-.666 1.11 1.11 0 0 1-.094-.454v-3.04a1.328 1.328 0 0 1 1.229-1.29l8.076-.538a1.092 1.092 0 0 1 .847.294 1.106 1.106 0 0 1 .346.826l-.001 2.996z" fill="url(#ap)"/><path d="M413.29 375.532c0 .692-.593 1.304-1.325 1.366l-8.942.759c-.748.064-1.356-.455-1.356-1.156v-3.2c0-.703.609-1.319 1.358-1.378l8.943-.699c.732-.056 1.325.459 1.324 1.15l-.002 3.158z" fill="url(#aq)"/><path d="M427.741 374.326a1.399 1.399 0 0 1-1.28 1.341l-8.631.733c-.723.06-1.311-.448-1.311-1.138v-3.148a1.416 1.416 0 0 1 1.312-1.352l8.641-.673a1.137 1.137 0 0 1 1.281 1.131l-.012 3.106z" fill="url(#ar)"/><path d="M441.236 373.202a1.364 1.364 0 0 1-1.24 1.317l-8.35.707a1.119 1.119 0 0 1-1.266-1.12v-3.096a1.378 1.378 0 0 1 1.269-1.328l8.351-.652a1.127 1.127 0 0 1 .868.285 1.124 1.124 0 0 1 .368.835v3.052z" fill="url(#as)"/><path d="M413.282 385.915c0 .691-.593 1.309-1.326 1.379l-8.936.871c-.749.072-1.357-.437-1.357-1.138v-3.2c0-.701.608-1.325 1.357-1.392l8.939-.81c.733-.066 1.325.44 1.323 1.133v3.157z" fill="url(#at)"/><path d="M427.727 384.531a1.42 1.42 0 0 1-1.28 1.355l-8.628.839c-.724.07-1.309-.431-1.309-1.12v-3.146a1.437 1.437 0 0 1 1.31-1.367l8.632-.781a1.12 1.12 0 0 1 1.28 1.12l-.005 3.1z" fill="url(#au)"/><path d="M441.213 383.238a1.385 1.385 0 0 1-1.24 1.331l-8.346.811a1.088 1.088 0 0 1-.471-.035 1.098 1.098 0 0 1-.695-.606 1.111 1.111 0 0 1-.099-.461v-3.093a1.394 1.394 0 0 1 1.269-1.341l8.347-.757a1.1 1.1 0 0 1 .867.269 1.092 1.092 0 0 1 .368.83v3.052z" fill="url(#av)"/><path d="m453.519 367.973-8.073.631c-.677.053-1.186.817-1.188 1.483v3.146l-.016 6.465v3.143c0 .665.504 1.264 1.18 1.196l8.068-.784c.661-.064 1.238-.758 1.24-1.416V378.734l.019-6.379v-3.105c.005-.657-.568-1.326-1.23-1.277z" fill="url(#aw)"/></g><path d="M413.817 345.718a1.37 1.37 0 0 1-1.327 1.322l-8.942.44c-.75.039-1.358-.502-1.358-1.205v-3.213c0-.702.609-1.299 1.358-1.331l8.945-.379a1.219 1.219 0 0 1 1.215.715c.07.152.107.317.11.485l-.001 3.166z" fill="url(#ax)"/><path d="M427.788 345.05a1.338 1.338 0 0 1-1.28 1.298l-8.641.427a1.202 1.202 0 0 1-1.203-.707 1.209 1.209 0 0 1-.108-.48v-3.157a1.357 1.357 0 0 1 1.314-1.309l8.641-.367a1.186 1.186 0 0 1 .896.313 1.198 1.198 0 0 1 .384.868l-.003 3.114z" fill="url(#ay)"/><path d="M441.767 344.383a1.308 1.308 0 0 1-1.24 1.28l-8.352.412a1.178 1.178 0 0 1-1.265-1.169v-3.102a1.32 1.32 0 0 1 1.27-1.28l8.353-.356a1.158 1.158 0 0 1 .87.313 1.164 1.164 0 0 1 .365.849l-.001 3.053z" fill="url(#az)"/><path d="M455.277 343.737a1.279 1.279 0 0 1-1.2 1.253l-8.071.398a1.139 1.139 0 0 1-.862-.308 1.139 1.139 0 0 1-.361-.841v-3.051a1.281 1.281 0 0 1 1.228-1.261l8.074-.344a1.136 1.136 0 0 1 1.105.692c.06.143.09.297.089.452l-.002 3.01z" fill="url(#aA)"/><path d="M413.805 355.888a1.39 1.39 0 0 1-1.325 1.336l-8.938.549c-.749.047-1.357-.48-1.357-1.189v-3.208c0-.703.608-1.306 1.357-1.346l8.942-.489a1.201 1.201 0 0 1 .92.302 1.2 1.2 0 0 1 .403.88l-.002 3.165z" fill="url(#aB)"/><path d="M427.772 355.052a1.36 1.36 0 0 1-1.28 1.312l-8.641.531a1.185 1.185 0 0 1-1.203-.691 1.179 1.179 0 0 1-.108-.478v-3.154a1.375 1.375 0 0 1 1.314-1.324l8.641-.472a1.18 1.18 0 0 1 1.28 1.164l-.003 3.112z" fill="url(#aC)"/><path d="M441.744 354.213a1.323 1.323 0 0 1-1.24 1.29l-8.346.512a1.16 1.16 0 0 1-1.266-1.151v-3.099a1.34 1.34 0 0 1 1.269-1.3l8.35-.456a1.144 1.144 0 0 1 1.233 1.146v3.058z" fill="url(#aD)"/><path d="M455.25 353.413a1.291 1.291 0 0 1-1.2 1.266l-8.07.496a1.121 1.121 0 0 1-1.221-1.133v-3.048a1.304 1.304 0 0 1 1.228-1.281l8.071-.441a1.125 1.125 0 0 1 .842.304 1.122 1.122 0 0 1 .35.824v3.013z" fill="url(#aE)"/><path d="M413.805 365.814a1.413 1.413 0 0 1-1.325 1.35l-8.933.655c-.749.054-1.357-.469-1.356-1.172v-3.2c0-.703.61-1.312 1.359-1.362l8.935-.593c.733-.05 1.325.48 1.324 1.164l-.004 3.158z" fill="url(#aF)"/><path d="M427.757 364.81a1.376 1.376 0 0 1-1.28 1.326l-8.641.64a1.16 1.16 0 0 1-.911-.285 1.168 1.168 0 0 1-.398-.868v-3.151a1.394 1.394 0 0 1 1.312-1.338l8.641-.574a1.154 1.154 0 0 1 .895.291 1.157 1.157 0 0 1 .386.858l-.004 3.101z" fill="url(#aG)"/><path d="M441.722 363.814a1.34 1.34 0 0 1-1.238 1.303l-8.345.611a1.146 1.146 0 0 1-1.165-.671 1.146 1.146 0 0 1-.099-.465v-3.096a1.358 1.358 0 0 1 1.269-1.313l8.345-.555a1.13 1.13 0 0 1 1.235 1.13l-.002 3.056z" fill="url(#aH)"/><path d="M455.221 362.838a1.31 1.31 0 0 1-1.198 1.28l-8.065.593a1.114 1.114 0 0 1-1.221-1.121v-3.04a1.32 1.32 0 0 1 1.227-1.29l8.068-.537a1.092 1.092 0 0 1 .846.294 1.102 1.102 0 0 1 .346.826l-.003 2.995z" fill="url(#aI)"/><path d="M413.789 375.496a1.436 1.436 0 0 1-1.324 1.365l-8.931.758c-.747.063-1.355-.452-1.355-1.155v-3.2c0-.701.608-1.317 1.357-1.376l8.932-.698c.731-.058 1.323.458 1.323 1.149l-.002 3.157z" fill="url(#aJ)"/><path d="M427.741 374.328a1.399 1.399 0 0 1-1.28 1.341l-8.631.733c-.723.06-1.311-.448-1.311-1.138v-3.148a1.416 1.416 0 0 1 1.312-1.352l8.641-.673a1.137 1.137 0 0 1 1.281 1.131l-.012 3.106z" fill="url(#aK)"/><path d="M441.701 373.163a1.363 1.363 0 0 1-1.24 1.315l-8.338.708a1.13 1.13 0 0 1-.887-.273 1.11 1.11 0 0 1-.377-.847v-3.095a1.375 1.375 0 0 1 1.268-1.327l8.342-.651a1.12 1.12 0 0 1 1.234 1.12l-.002 3.05z" fill="url(#aL)"/><path d="M413.78 385.868c0 .691-.594 1.309-1.325 1.379l-8.924.869c-.749.072-1.356-.437-1.356-1.136v-3.2c0-.7.608-1.324 1.356-1.391l8.927-.8c.731-.067 1.323.44 1.323 1.131l-.001 3.148z" fill="url(#aM)"/><path d="M427.727 384.532a1.42 1.42 0 0 1-1.28 1.355l-8.628.839c-.724.07-1.309-.431-1.309-1.12v-3.146a1.437 1.437 0 0 1 1.31-1.367l8.632-.781a1.12 1.12 0 0 1 1.28 1.12l-.005 3.1z" fill="url(#aN)"/><path d="M441.679 383.195a1.383 1.383 0 0 1-1.239 1.33l-8.336.809a1.103 1.103 0 0 1-1.263-1.102v-3.09a1.4 1.4 0 0 1 1.267-1.341l8.339-.755a1.094 1.094 0 0 1 1.234 1.098l-.002 3.051z" fill="url(#aO)"/><path d="m453.987 367.939-8.064.631c-.676.053-1.201.817-1.202 1.483v3.144l-.016 6.46v3.141c0 .666.52 1.263 1.195 1.196l8.059-.784c.66-.064 1.221-.757 1.222-1.413v-3.101l.019-6.375v-3.105c.005-.657-.552-1.328-1.213-1.277z" fill="url(#aP)"/><path d="m353.228 359.549 39.367-1.711 45.359 1.589-44.748 9.78-39.978-9.658z" fill="url(#aQ)"/><path d="m384.946 397.483-31.888-8.582c-3.21-.864-5.706-4.047-5.706-7.132v-.034c0-3.086 2.496-5.155 5.706-4.589l34.202 5.601-2.314 14.736z" fill="url(#aR)"/><path d="m438.008 391.04-51.526 5.76c-3.227.362-5.88-1.889-5.88-5.031v-2.131c0-3.141 2.653-5.9 5.88-6.156l51.526-4.101c-2.28 4.236-2.807 8.207 0 11.659z" fill="#D8DEE8"/><path d="m438.456 391.611-51.534 5.844c-4.208.48-7.696-2.471-7.696-6.582v-.045c0-4.111 3.488-7.725 7.696-8.053l51.542-4.022a.542.542 0 0 1 .562.578.657.657 0 0 1-.562.666l-51.542 4.197c-3.386.275-6.181 3.187-6.181 6.489v.044c0 3.302 2.795 5.681 6.181 5.308l51.542-5.668a.519.519 0 0 1 .409.15.515.515 0 0 1 .153.409.68.68 0 0 1-.57.685z" fill="url(#aS)"/><path d="m386.282 382.779-33.229-5.631c-3.21-.567-5.706-4.777-5.706-9.411v-.05c0-4.64 2.496-8.311 5.706-8.191l35.249 1.309-2.02 21.974z" fill="url(#aT)"/><path d="m438.008 377.854-48.637 3.669c-4.801.362-8.767-3.163-8.767-7.879v-3.2c0-4.718 3.971-8.641 8.767-8.781l48.637-1.326c-2.28 6.357-2.798 12.316 0 17.517z" fill="#D8DEE8"/><path d="m438.456 378.753-51.534 4.021c-4.208.329-7.696-4.421-7.696-10.591v-.069c0-6.17 3.488-11.278 7.696-11.384l51.542-1.28c.311-.008.562.404.562.917 0 .514-.251.939-.562.949l-51.542 1.546c-3.386.102-6.181 4.218-6.181 9.175v.068c0 4.96 2.795 8.784 6.181 8.538l51.542-3.756c.311-.022.562.376.562.892 0 .515-.258.95-.57.974z" fill="url(#aU)"/><path d="m375.982 378.134-7.101-1.241c-1.66-4.527-1.535-8.685 0-13.655l7.101.504a26.134 26.134 0 0 0 0 14.392z" fill="#fff" style="mix-blend-mode:soft-light" opacity=".5"/><path d="M367.528 223.043c-33.034-.264-60.438-27.651-60.438-61.046 0-33.396 27.404-59.284 60.438-57.731 32.335 1.512 58.141 28.857 58.141 60.984s-25.806 58.051-58.141 57.793z" fill="url(#aV)"/><path d="M371.534 223.043c-33.034-.264-60.439-27.651-60.439-61.046 0-33.396 27.405-59.284 60.439-57.731 32.334 1.512 58.14 28.857 58.14 60.984s-25.806 58.051-58.14 57.793z" fill="#D8DEE8"/><path d="M425.736 165.137c0 29.997-24.028 54.086-54.202 53.81-30.783-.286-56.194-25.734-56.194-56.835s25.411-55.156 56.194-53.756c30.174 1.371 54.202 26.782 54.202 56.781z" fill="#fff"/><path d="M435.408 170.994a6.257 6.257 0 0 1-2.944 4.402l-60.962-40.766 2.944-4.402 60.962 40.766z" fill="url(#aW)"/><path d="M374.441 130.227c-.123 2.018-1.094 3.491-2.944 4.402l-12.418-11.286a.176.176 0 0 1 .073-.293.168.168 0 0 1 .119.008l15.17 7.169z" fill="url(#aX)"/><path d="m359.079 123.343 4.83 4.388a4.66 4.66 0 0 0 1.264-1.885l-5.902-2.788a.173.173 0 0 0-.244.178c.004.04.023.078.052.107z" fill="url(#aY)"/><path d="M342.988 110.642s.879 6.644 7.375 12.516c6.497 5.873 13.725 5.998 14.746 3.786 1.021-2.211.51-7.841-3.543-9.998-4.053-2.157-14.506-2.464-18.578-6.304z" fill="url(#aZ)"/><path d="M342.988 110.642s.879 6.644 7.375 12.516c6.497 5.873 13.725 5.998 14.746 3.786 1.021-2.211.51-7.841-3.543-9.998-4.053-2.157-14.506-2.464-18.578-6.304z" fill="url(#ba)"/><path d="M342.988 110.642c.411.381.859.72 1.338 1.013 1.488 4.366 3.399 6.018 5.133 6.56 2.421.765 4.039-.765 6.847.467 3.681 1.62 3.541 5.415 6.355 6.425.718.258 1.651.341 2.88-.019a5.509 5.509 0 0 1-.427 1.85c-1.021 2.211-8.249 2.08-14.746-3.786s-7.38-12.51-7.38-12.51z" fill="url(#bb)" style="mix-blend-mode:multiply" opacity=".3"/><path d="M408.365 175.1c-3.76-15.067-20.039-14.134-31.778-9.876a10.967 10.967 0 0 1-7.729-.095c-2.214-.862-4.387-2.467-4.936-5.45-1.213-6.593 2.859-13.137-4.801-18.051-7.66-4.915-36.356-2.057-32.845 24.9 3.511 26.956 20.322 47.54 48.218 48.671 27.896 1.131 37.871-24.014 33.871-40.099zm-64.782-16.882c-1.169-4.434.661-8.761 4.089-9.665 3.427-.904 7.154 1.956 8.321 6.39 1.166 4.434-.66 8.762-4.087 9.666-3.428.904-7.159-1.957-8.331-6.391h.008z" fill="url(#bc)"/><path d="M409.952 172.051c-3.76-15.067-20.039-14.134-31.776-9.876-2.503.907-5.25.874-7.731-.094-2.214-.863-4.386-2.468-4.934-5.451-1.213-6.592 2.859-13.137-4.801-18.051-7.66-4.914-36.354-2.056-32.834 24.894 3.52 26.95 20.322 47.539 48.216 48.671 27.895 1.131 37.873-24.008 33.86-40.093zm-64.78-16.882c-1.171-4.434.66-8.761 4.087-9.665 3.428-.904 7.155 1.956 8.321 6.39 1.167 4.434-.659 8.762-4.087 9.667-3.427.904-7.151-1.957-8.321-6.392z" fill="url(#bd)"/><path d="M339.796 177.479c3.495 0 6.328-2.996 6.328-6.692s-2.833-6.692-6.328-6.692-6.329 2.996-6.329 6.692 2.834 6.692 6.329 6.692z" fill="url(#be)"/><path d="M353.912 194.03c3.496 0 6.329-2.996 6.329-6.692 0-3.695-2.833-6.692-6.329-6.692-3.495 0-6.328 2.997-6.328 6.692 0 3.696 2.833 6.692 6.328 6.692z" fill="url(#bf)"/><path d="M375.793 200.358c3.75 0 6.79-3.214 6.79-7.179 0-3.964-3.04-7.178-6.79-7.178-3.749 0-6.789 3.214-6.789 7.178 0 3.965 3.04 7.179 6.789 7.179z" fill="url(#bg)"/><path d="M394.291 191.595c3.749 0 6.788-3.214 6.788-7.178 0-3.965-3.039-7.179-6.788-7.179-3.748 0-6.788 3.214-6.788 7.179 0 3.964 3.04 7.178 6.788 7.178z" fill="url(#bh)"/><defs><linearGradient id="ae" x1="459.354" y1="315.565" x2="363.803" y2="368.718" gradientUnits="userSpaceOnUse"><stop stop-color="#444B8C"/><stop offset="1" stop-color="#3E4177"/></linearGradient><linearGradient id="a" x1="31.17" y1="169.047" x2="149.749" y2="169.047" gradientUnits="userSpaceOnUse"><stop stop-color="#444B8C"/><stop offset="1" stop-color="#26264F"/></linearGradient><linearGradient id="c" x1="79.06" y1="312.069" x2="8.388" y2="471.388" gradientUnits="userSpaceOnUse"><stop stop-color="#E38DDD"/><stop offset="1" stop-color="#9571F6"/></linearGradient><linearGradient id="d" x1="13.79" y1="383.66" x2="86.899" y2="383.66" gradientUnits="userSpaceOnUse"><stop stop-color="#AA80F9"/><stop offset="1" stop-color="#6165D7"/></linearGradient><linearGradient id="e" x1="49.156" y1="366.722" x2="66.27" y2="343.817" gradientUnits="userSpaceOnUse"><stop stop-color="#AA80F9"/><stop offset="1" stop-color="#6165D7"/></linearGradient><linearGradient id="f" x1="53.051" y1="304.726" x2="44.322" y2="324.407" gradientUnits="userSpaceOnUse"><stop stop-color="#E38DDD"/><stop offset="1" stop-color="#9571F6"/></linearGradient><linearGradient id="g" x1="70.035" y1="309.966" x2="110.178" y2="319.448" gradientUnits="userSpaceOnUse"><stop stop-color="#311944"/><stop offset="1" stop-color="#893976"/></linearGradient><linearGradient id="h" x1="103.493" y1="299.065" x2="69.078" y2="362.896" gradientUnits="userSpaceOnUse"><stop stop-color="#FFC444"/><stop offset="1" stop-color="#F36F56"/></linearGradient><linearGradient id="i" x1="113.58" y1="303.283" x2="79.855" y2="370.961" gradientUnits="userSpaceOnUse"><stop stop-color="#FFC444"/><stop offset="1" stop-color="#F36F56"/></linearGradient><linearGradient id="j" x1="238.324" y1="197.358" x2="264.709" y2="171.702" gradientUnits="userSpaceOnUse"><stop stop-color="#010648"/><stop offset="1" stop-color="#010648"/></linearGradient><linearGradient id="k" x1="280.311" y1="149.239" x2="234.951" y2="217.449" gradientUnits="userSpaceOnUse"><stop stop-color="#010648"/><stop offset="1" stop-color="#010648"/></linearGradient><linearGradient id="l" x1="235" y1="215.5" x2="261.963" y2="173.739" gradientUnits="userSpaceOnUse"><stop stop-color="#AA80F9"/><stop offset="1" stop-color="#010648"/></linearGradient><linearGradient id="m" x1="254.214" y1="157.695" x2="314.565" y2="253.58" gradientUnits="userSpaceOnUse"><stop stop-color="#FFC444"/><stop offset="1" stop-color="#F36F56"/></linearGradient><linearGradient id="n" x1="278.64" y1="232.269" x2="279.943" y2="200.038" gradientUnits="userSpaceOnUse"><stop stop-color="#FFC444"/><stop offset="1" stop-color="#F36F56"/></linearGradient><linearGradient id="o" x1="264.916" y1="400.588" x2="154.564" y2="283.53" gradientUnits="userSpaceOnUse"><stop stop-color="#FF9085"/><stop offset="1" stop-color="#FB6FBB"/></linearGradient><linearGradient id="p" x1="151.38" y1="314.944" x2="173.049" y2="276.298" gradientUnits="userSpaceOnUse"><stop stop-color="#30ABBA"/><stop offset="1" stop-color="#6165D7"/></linearGradient><linearGradient id="q" x1="259.532" y1="498.177" x2="196.699" y2="251.501" gradientUnits="userSpaceOnUse"><stop stop-color="#FF9085"/><stop offset="1" stop-color="#FB6FBB"/></linearGradient><linearGradient id="r" x1="197.628" y1="359.213" x2="232.794" y2="292.567" gradientUnits="userSpaceOnUse"><stop stop-color="#30ABBA"/><stop offset="1" stop-color="#6165D7"/></linearGradient><linearGradient id="s" x1="230.605" y1="224.678" x2="253.405" y2="224.678" gradientUnits="userSpaceOnUse"><stop stop-color="#FFC444"/><stop offset="1" stop-color="#F36F56"/></linearGradient><linearGradient id="t" x1="233.158" y1="218.854" x2="259.819" y2="226.87" gradientUnits="userSpaceOnUse"><stop stop-color="#FEBBBA"/><stop offset="1" stop-color="#FF928E"/></linearGradient><linearGradient id="u" x1="239.348" y1="195.051" x2="238.04" y2="288.886" gradientUnits="userSpaceOnUse"><stop stop-color="#FFC444"/><stop offset="1" stop-color="#F36F56"/></linearGradient><linearGradient id="v" x1="225.829" y1="209.531" x2="261.247" y2="226.515" gradientUnits="userSpaceOnUse"><stop stop-color="#FEBBBA"/><stop offset="1" stop-color="#FF928E"/></linearGradient><linearGradient id="w" x1="251.171" y1="501.246" x2="182.575" y2="258.847" gradientUnits="userSpaceOnUse"><stop stop-color="#FF9085"/><stop offset="1" stop-color="#FB6FBB"/></linearGradient><linearGradient id="x" x1="246.312" y1="503.78" x2="273.842" y2="228.058" gradientUnits="userSpaceOnUse"><stop stop-color="#FF9085"/><stop offset="1" stop-color="#FB6FBB"/></linearGradient><linearGradient id="y" x1="222.365" y1="323.569" x2="237.934" y2="272.7" gradientUnits="userSpaceOnUse"><stop stop-color="#30ABBA"/><stop offset="1" stop-color="#6165D7"/></linearGradient><linearGradient id="z" x1="238.419" y1="403.515" x2="247.044" y2="285.854" gradientUnits="userSpaceOnUse"><stop stop-color="#FF9085"/><stop offset="1" stop-color="#FB6FBB"/></linearGradient><linearGradient id="A" x1="307.576" y1="461.814" x2="323.46" y2="245.124" gradientUnits="userSpaceOnUse"><stop stop-color="#FF9085"/><stop offset="1" stop-color="#FB6FBB"/></linearGradient><linearGradient id="B" x1="262.746" y1="333.427" x2="286.401" y2="333.427" gradientUnits="userSpaceOnUse"><stop stop-color="#FFC444"/><stop offset="1" stop-color="#F36F56"/></linearGradient><linearGradient id="C" x1="265.399" y1="331.419" x2="281.988" y2="346.423" gradientUnits="userSpaceOnUse"><stop stop-color="#FEBBBA"/><stop offset="1" stop-color="#FF928E"/></linearGradient><linearGradient id="D" x1="179.834" y1="321.659" x2="198.419" y2="321.659" gradientUnits="userSpaceOnUse"><stop stop-color="#FFC444"/><stop offset="1" stop-color="#F36F56"/></linearGradient><linearGradient id="E" x1="181.916" y1="320.526" x2="191.08" y2="332.066" gradientUnits="userSpaceOnUse"><stop stop-color="#FEBBBA"/><stop offset="1" stop-color="#FF928E"/></linearGradient><linearGradient id="F" x1="81.039" y1="159.613" x2="35.482" y2="214.68" gradientUnits="userSpaceOnUse"><stop stop-color="#F36F56"/><stop offset="1" stop-color="#FFC444"/></linearGradient><linearGradient id="G" x1="95.001" y1="171.163" x2="49.444" y2="226.23" gradientUnits="userSpaceOnUse"><stop stop-color="#F36F56"/><stop offset="1" stop-color="#FFC444"/></linearGradient><linearGradient id="H" x1="66.729" y1="172.617" x2="148.115" y2="91.231" gradientUnits="userSpaceOnUse"><stop stop-color="#FFC444"/><stop offset="1" stop-color="#F36F56"/></linearGradient><linearGradient id="I" x1="76.1" y1="181.99" x2="157.488" y2="100.602" gradientUnits="userSpaceOnUse"><stop stop-color="#FFC444"/><stop offset="1" stop-color="#F36F56"/></linearGradient><linearGradient id="J" x1="95.338" y1="155.843" x2="96.897" y2="132.646" gradientUnits="userSpaceOnUse"><stop offset=".1" stop-color="#311944"/><stop offset=".27" stop-color="#371B47"/><stop offset=".48" stop-color="#462150"/><stop offset=".72" stop-color="#612A5F"/><stop offset=".97" stop-color="#853774"/><stop offset="1" stop-color="#893976"/></linearGradient><linearGradient id="K" x1="85.558" y1="139.163" x2="103.075" y2="148.555" gradientUnits="userSpaceOnUse"><stop offset=".1" stop-color="#311944"/><stop offset=".27" stop-color="#371B47"/><stop offset=".48" stop-color="#462150"/><stop offset=".72" stop-color="#612A5F"/><stop offset=".97" stop-color="#853774"/><stop offset="1" stop-color="#893976"/></linearGradient><linearGradient id="L" x1="58.067" y1="167.857" x2="48.388" y2="79.378" gradientUnits="userSpaceOnUse"><stop offset=".1" stop-color="#311944"/><stop offset=".69" stop-color="#6D2F66"/><stop offset="1" stop-color="#893976"/></linearGradient><linearGradient id="M" x1="42.326" y1="154.73" x2="61.804" y2="187.391" gradientUnits="userSpaceOnUse"><stop stop-color="#311944"/><stop offset="1" stop-color="#893976"/></linearGradient><linearGradient id="N" x1="67.198" y1="164.306" x2="92.54" y2="163.322" gradientUnits="userSpaceOnUse"><stop offset=".1" stop-color="#311944"/><stop offset=".69" stop-color="#6D2F66"/><stop offset="1" stop-color="#893976"/></linearGradient><linearGradient id="O" x1="109.662" y1="260.806" x2="96.345" y2="139.071" gradientUnits="userSpaceOnUse"><stop stop-color="#311944"/><stop offset="1" stop-color="#893976"/></linearGradient><linearGradient id="P" x1="130.312" y1="197.14" x2="86.874" y2="174.433" gradientUnits="userSpaceOnUse"><stop stop-color="#FFC444"/><stop offset="1" stop-color="#F36F56"/></linearGradient><linearGradient id="Q" x1="91.247" y1="177.922" x2="136.002" y2="193.938" gradientUnits="userSpaceOnUse"><stop stop-color="#FFC444"/><stop offset="1" stop-color="#F36F56"/></linearGradient><linearGradient id="R" x1="343.415" y1="350.419" x2="461.995" y2="350.419" gradientUnits="userSpaceOnUse"><stop stop-color="#444B8C"/><stop offset="1" stop-color="#26264F"/></linearGradient><linearGradient id="S" x1="422.227" y1="488.069" x2="423.727" y2="376.608" gradientUnits="userSpaceOnUse"><stop stop-color="#444B8C"/><stop offset="1" stop-color="#26264F"/></linearGradient><linearGradient id="T" x1="425.84" y1="487.41" x2="427.332" y2="376.341" gradientUnits="userSpaceOnUse"><stop stop-color="#AA80F9"/><stop offset="1" stop-color="#6165D7"/></linearGradient><linearGradient id="U" x1="397.554" y1="321.677" x2="458.058" y2="321.677" gradientUnits="userSpaceOnUse"><stop stop-color="#AA80F9"/><stop offset="1" stop-color="#6165D7"/></linearGradient><linearGradient id="V" x1="397.554" y1="331.093" x2="458.023" y2="331.093" gradientUnits="userSpaceOnUse"><stop stop-color="#AA80F9"/><stop offset="1" stop-color="#6165D7"/></linearGradient><linearGradient id="W" x1="428.793" y1="306.781" x2="424.699" y2="400.116" gradientUnits="userSpaceOnUse"><stop stop-color="#E38DDD"/><stop offset="1" stop-color="#9571F6"/></linearGradient><linearGradient id="X" x1="446.715" y1="317.135" x2="445.913" y2="335.44" gradientUnits="userSpaceOnUse"><stop stop-color="#311944"/><stop offset="1" stop-color="#A03976"/></linearGradient><linearGradient id="Y" x1="451.298" y1="317.055" x2="450.494" y2="335.379" gradientUnits="userSpaceOnUse"><stop stop-color="#311944"/><stop offset="1" stop-color="#A03976"/></linearGradient><linearGradient id="Z" x1="446.711" y1="322.008" x2="445.852" y2="341.615" gradientUnits="userSpaceOnUse"><stop stop-color="#311944"/><stop offset="1" stop-color="#A03976"/></linearGradient><linearGradient id="aa" x1="451.306" y1="321.583" x2="450.387" y2="342.515" gradientUnits="userSpaceOnUse"><stop stop-color="#311944"/><stop offset="1" stop-color="#A03976"/></linearGradient><linearGradient id="ab" x1="452.115" y1="322.803" x2="434.443" y2="322.029" gradientUnits="userSpaceOnUse"><stop stop-color="#311944"/><stop offset="1" stop-color="#A03976"/></linearGradient><linearGradient id="ac" x1="452.117" y1="318.03" x2="434.438" y2="317.255" gradientUnits="userSpaceOnUse"><stop stop-color="#311944"/><stop offset="1" stop-color="#A03976"/></linearGradient><linearGradient id="ad" x1="452.232" y1="327.81" x2="433.206" y2="326.975" gradientUnits="userSpaceOnUse"><stop stop-color="#311944"/><stop offset="1" stop-color="#A03976"/></linearGradient><linearGradient id="b" x1="0" y1="352.556" x2="118.579" y2="352.556" gradientUnits="userSpaceOnUse"><stop stop-color="#444B8C"/><stop offset="1" stop-color="#26264F"/></linearGradient><linearGradient id="af" x1="461.401" y1="321.916" x2="368.845" y2="373.403" gradientUnits="userSpaceOnUse"><stop stop-color="#444B8C"/><stop offset="1" stop-color="#3E4177"/></linearGradient><linearGradient id="ag" x1="463.257" y1="327.876" x2="373.457" y2="377.83" gradientUnits="userSpaceOnUse"><stop stop-color="#444B8C"/><stop offset="1" stop-color="#3E4177"/></linearGradient><linearGradient id="ah" x1="465.789" y1="333.465" x2="378.701" y2="381.91" gradientUnits="userSpaceOnUse"><stop stop-color="#444B8C"/><stop offset="1" stop-color="#3E4177"/></linearGradient><linearGradient id="ai" x1="464.193" y1="323.118" x2="368.177" y2="376.532" gradientUnits="userSpaceOnUse"><stop stop-color="#444B8C"/><stop offset="1" stop-color="#3E4177"/></linearGradient><linearGradient id="aj" x1="466.027" y1="329.405" x2="373.02" y2="381.143" gradientUnits="userSpaceOnUse"><stop stop-color="#444B8C"/><stop offset="1" stop-color="#3E4177"/></linearGradient><linearGradient id="ak" x1="467.688" y1="335.303" x2="377.449" y2="385.502" gradientUnits="userSpaceOnUse"><stop stop-color="#444B8C"/><stop offset="1" stop-color="#3E4177"/></linearGradient><linearGradient id="al" x1="470.026" y1="340.83" x2="382.516" y2="389.511" gradientUnits="userSpaceOnUse"><stop stop-color="#444B8C"/><stop offset="1" stop-color="#3E4177"/></linearGradient><linearGradient id="am" x1="469.071" y1="330.4" x2="372.598" y2="384.069" gradientUnits="userSpaceOnUse"><stop stop-color="#444B8C"/><stop offset="1" stop-color="#3E4177"/></linearGradient><linearGradient id="an" x1="470.692" y1="336.629" x2="377.245" y2="388.612" gradientUnits="userSpaceOnUse"><stop stop-color="#444B8C"/><stop offset="1" stop-color="#3E4177"/></linearGradient><linearGradient id="ao" x1="472.156" y1="342.472" x2="381.49" y2="392.908" gradientUnits="userSpaceOnUse"><stop stop-color="#444B8C"/><stop offset="1" stop-color="#3E4177"/></linearGradient><linearGradient id="ap" x1="474.303" y1="347.937" x2="386.38" y2="396.848" gradientUnits="userSpaceOnUse"><stop stop-color="#444B8C"/><stop offset="1" stop-color="#3E4177"/></linearGradient><linearGradient id="aq" x1="473.983" y1="337.417" x2="377.067" y2="391.332" gradientUnits="userSpaceOnUse"><stop stop-color="#444B8C"/><stop offset="1" stop-color="#3E4177"/></linearGradient><linearGradient id="ar" x1="475.391" y1="343.591" x2="381.515" y2="395.813" gradientUnits="userSpaceOnUse"><stop stop-color="#444B8C"/><stop offset="1" stop-color="#3E4177"/></linearGradient><linearGradient id="as" x1="476.659" y1="349.382" x2="385.578" y2="400.048" gradientUnits="userSpaceOnUse"><stop stop-color="#444B8C"/><stop offset="1" stop-color="#3E4177"/></linearGradient><linearGradient id="at" x1="478.961" y1="345.101" x2="381.57" y2="399.28" gradientUnits="userSpaceOnUse"><stop stop-color="#444B8C"/><stop offset="1" stop-color="#3E4177"/></linearGradient><linearGradient id="au" x1="480.15" y1="351.212" x2="385.815" y2="403.69" gradientUnits="userSpaceOnUse"><stop stop-color="#444B8C"/><stop offset="1" stop-color="#3E4177"/></linearGradient><linearGradient id="av" x1="481.216" y1="356.94" x2="389.691" y2="407.855" gradientUnits="userSpaceOnUse"><stop stop-color="#444B8C"/><stop offset="1" stop-color="#3E4177"/></linearGradient><linearGradient id="aw" x1="480.552" y1="358.636" x2="392.55" y2="407.591" gradientUnits="userSpaceOnUse"><stop stop-color="#444B8C"/><stop offset="1" stop-color="#3E4177"/></linearGradient><linearGradient id="ax" x1="408.282" y1="338.052" x2="406.706" y2="373.998" gradientUnits="userSpaceOnUse"><stop stop-color="#444B8C"/><stop offset="1" stop-color="#26264F"/></linearGradient><linearGradient id="ay" x1="422.443" y1="337.521" x2="420.897" y2="372.787" gradientUnits="userSpaceOnUse"><stop stop-color="#444B8C"/><stop offset="1" stop-color="#26264F"/></linearGradient><linearGradient id="az" x1="436.608" y1="336.99" x2="435.091" y2="371.581" gradientUnits="userSpaceOnUse"><stop stop-color="#444B8C"/><stop offset="1" stop-color="#26264F"/></linearGradient><linearGradient id="aA" x1="450.298" y1="336.477" x2="448.808" y2="370.418" gradientUnits="userSpaceOnUse"><stop stop-color="#444B8C"/><stop offset="1" stop-color="#26264F"/></linearGradient><linearGradient id="aB" x1="408.28" y1="348.19" x2="406.678" y2="384.719" gradientUnits="userSpaceOnUse"><stop stop-color="#444B8C"/><stop offset="1" stop-color="#26264F"/></linearGradient><linearGradient id="aC" x1="422.435" y1="347.493" x2="420.862" y2="383.322" gradientUnits="userSpaceOnUse"><stop stop-color="#444B8C"/><stop offset="1" stop-color="#26264F"/></linearGradient><linearGradient id="aD" x1="436.594" y1="346.791" x2="435.053" y2="381.928" gradientUnits="userSpaceOnUse"><stop stop-color="#444B8C"/><stop offset="1" stop-color="#26264F"/></linearGradient><linearGradient id="aE" x1="450.275" y1="346.116" x2="448.763" y2="380.582" gradientUnits="userSpaceOnUse"><stop stop-color="#444B8C"/><stop offset="1" stop-color="#26264F"/></linearGradient><linearGradient id="aF" x1="408.278" y1="358.085" x2="406.651" y2="395.183" gradientUnits="userSpaceOnUse"><stop stop-color="#444B8C"/><stop offset="1" stop-color="#26264F"/></linearGradient><linearGradient id="aG" x1="422.426" y1="357.222" x2="420.83" y2="393.603" gradientUnits="userSpaceOnUse"><stop stop-color="#444B8C"/><stop offset="1" stop-color="#26264F"/></linearGradient><linearGradient id="aH" x1="436.578" y1="356.357" x2="435.013" y2="392.025" gradientUnits="userSpaceOnUse"><stop stop-color="#444B8C"/><stop offset="1" stop-color="#26264F"/></linearGradient><linearGradient id="aI" x1="450.253" y1="355.522" x2="448.72" y2="390.502" gradientUnits="userSpaceOnUse"><stop stop-color="#444B8C"/><stop offset="1" stop-color="#26264F"/></linearGradient><linearGradient id="aJ" x1="408.275" y1="367.732" x2="406.624" y2="405.39" gradientUnits="userSpaceOnUse"><stop stop-color="#444B8C"/><stop offset="1" stop-color="#26264F"/></linearGradient><linearGradient id="aK" x1="422.418" y1="366.709" x2="420.798" y2="403.63" gradientUnits="userSpaceOnUse"><stop stop-color="#444B8C"/><stop offset="1" stop-color="#26264F"/></linearGradient><linearGradient id="aL" x1="436.563" y1="365.684" x2="434.976" y2="401.872" gradientUnits="userSpaceOnUse"><stop stop-color="#444B8C"/><stop offset="1" stop-color="#26264F"/></linearGradient><linearGradient id="aM" x1="408.274" y1="378.075" x2="406.597" y2="416.334" gradientUnits="userSpaceOnUse"><stop stop-color="#444B8C"/><stop offset="1" stop-color="#26264F"/></linearGradient><linearGradient id="aN" x1="422.408" y1="376.882" x2="420.763" y2="414.383" gradientUnits="userSpaceOnUse"><stop stop-color="#444B8C"/><stop offset="1" stop-color="#26264F"/></linearGradient><linearGradient id="aO" x1="436.547" y1="375.685" x2="434.934" y2="412.434" gradientUnits="userSpaceOnUse"><stop stop-color="#444B8C"/><stop offset="1" stop-color="#26264F"/></linearGradient><linearGradient id="aP" x1="450.643" y1="359.97" x2="446.679" y2="450.344" gradientUnits="userSpaceOnUse"><stop stop-color="#444B8C"/><stop offset="1" stop-color="#26264F"/></linearGradient><linearGradient id="aQ" x1="398.336" y1="353.839" x2="388.046" y2="375.008" gradientUnits="userSpaceOnUse"><stop stop-color="#FF9085"/><stop offset="1" stop-color="#FB6FBB"/></linearGradient><linearGradient id="aR" x1="362.609" y1="397.112" x2="369.516" y2="381.403" gradientUnits="userSpaceOnUse"><stop stop-color="#FFC444"/><stop offset="1" stop-color="#F36F56"/></linearGradient><linearGradient id="aS" x1="379.218" y1="388.129" x2="439.018" y2="388.129" gradientUnits="userSpaceOnUse"><stop stop-color="#FFC444"/><stop offset="1" stop-color="#F36F56"/></linearGradient><linearGradient id="aT" x1="372.636" y1="354.756" x2="360.528" y2="395.542" gradientUnits="userSpaceOnUse"><stop stop-color="#FF9085"/><stop offset="1" stop-color="#FB6FBB"/></linearGradient><linearGradient id="aU" x1="379.218" y1="371.12" x2="439.018" y2="371.12" gradientUnits="userSpaceOnUse"><stop stop-color="#FF9085"/><stop offset="1" stop-color="#FB6FBB"/></linearGradient><linearGradient id="aV" x1="307.09" y1="163.619" x2="425.669" y2="163.619" gradientUnits="userSpaceOnUse"><stop stop-color="#444B8C"/><stop offset="1" stop-color="#26264F"/></linearGradient><linearGradient id="aW" x1="400.617" y1="154.035" x2="414.409" y2="147.902" gradientUnits="userSpaceOnUse"><stop stop-color="#40447E"/><stop offset="1" stop-color="#3C3B6B"/></linearGradient><linearGradient id="aX" x1="359.968" y1="121.721" x2="393.489" y2="149.349" gradientUnits="userSpaceOnUse"><stop stop-color="#FFC444"/><stop offset="1" stop-color="#F36F56"/></linearGradient><linearGradient id="aY" x1="356.03" y1="120.815" x2="368.773" y2="129.771" gradientUnits="userSpaceOnUse"><stop stop-color="#AB316D"/><stop offset="1" stop-color="#792D3D"/></linearGradient><linearGradient id="aZ" x1="341.268" y1="113.877" x2="361.529" y2="124.552" gradientUnits="userSpaceOnUse"><stop stop-color="#FF9085"/><stop offset="1" stop-color="#FB6FBB"/></linearGradient><linearGradient id="ba" x1="341.268" y1="113.877" x2="361.529" y2="124.552" gradientUnits="userSpaceOnUse"><stop stop-color="#FF9085"/><stop offset="1" stop-color="#FB6FBB"/></linearGradient><linearGradient id="bb" x1="340.556" y1="115.228" x2="360.818" y2="125.905" gradientUnits="userSpaceOnUse"><stop stop-color="#FF9085"/><stop offset="1" stop-color="#FB6FBB"/></linearGradient><linearGradient id="bc" x1="431.438" y1="175.652" x2="376.294" y2="177.1" gradientUnits="userSpaceOnUse"><stop stop-color="#FFC444"/><stop offset="1" stop-color="#F36F56"/></linearGradient><linearGradient id="bd" x1="416.999" y1="178.13" x2="282.924" y2="168.58" gradientUnits="userSpaceOnUse"><stop stop-color="#FFC444"/><stop offset="1" stop-color="#F36F56"/></linearGradient><linearGradient id="be" x1="364.763" y1="107.255" x2="338.322" y2="174.539" gradientUnits="userSpaceOnUse"><stop offset=".1" stop-color="#311944"/><stop offset=".27" stop-color="#371B47"/><stop offset=".48" stop-color="#462150"/><stop offset=".72" stop-color="#612A5F"/><stop offset=".97" stop-color="#853774"/><stop offset="1" stop-color="#893976"/></linearGradient><linearGradient id="bf" x1="356.689" y1="180.274" x2="348.966" y2="199.925" gradientUnits="userSpaceOnUse"><stop stop-color="#AA80F9"/><stop offset="1" stop-color="#6165D7"/></linearGradient><linearGradient id="bg" x1="378.771" y1="185.601" x2="370.486" y2="206.682" gradientUnits="userSpaceOnUse"><stop stop-color="#FF9085"/><stop offset="1" stop-color="#FB6FBB"/></linearGradient><linearGradient id="bh" x1="389.099" y1="197.629" x2="380.813" y2="218.71" gradientUnits="userSpaceOnUse"><stop stop-color="#E38DDD"/><stop offset="1" stop-color="#9571F6"/></linearGradient></defs></svg>