<svg width="481" height="480" fill="none" xmlns="http://www.w3.org/2000/svg"><g clip-path="url(#a)"><path d="M422.847 412.483c-9.81 10.327-19.092 16.989-26.426 22.251-86.211 61.856-188.226 43.825-209.901 39.424-32.014-6.501-93.896-19.07-138.638-71.684-67.688-79.603-57.148-205.002-4.643-287.794 9.594-15.143 60.333-99.187 163.44-112.665 62.401-8.157 135.139 8.293 187.814 52.424 110.57 92.637 102.699 279.776 28.354 358.044z" fill="url(#b)"/><path d="M345.258 273.21s-1.396-59.008 25.774-74.8c27.17-15.793 78.849-25.666 80.789-110.394 1.136-49.603 2.362-71.29 3.185-80.747a5.577 5.577 0 0 0-4.044-5.867 5.583 5.583 0 0 0-2.551-.113C422.67 6.137 339.058 26.095 321.523 83.17c-20.783 67.658 23.735 190.041 23.735 190.041z" fill="#30ABBA"/><path d="M428.503 24.862c-28.26 25.198-60.925 69.795-78.338 114.392-2.236 7.351-8.774 22.981-11.613 50.751-2.536 23.161-1.275 47.636 1.799 63.836a1.887 1.887 0 0 0 2.207 1.504c1.762-.335 1.528-2.229 1.51-2.17-3.511-27.679-2.053-62.13 5.994-93.216 10.279-38.171 33.211-75.179 56.928-106.563l2.443-3.092c18.376-23.597 22.243-23.771 20.527-25.416a1.079 1.079 0 0 0-1.457-.026z" fill="#BDD0FB"/><path d="M311.295 381.441c-3.677 1.804 34.811-46.596 46.867-122.608 5.681-35.819 5.756-80.698 26.166-97.993 16.983-14.393 74.769-5.307 93.677-1.852a2.827 2.827 0 0 1 2.235 2.06 2.841 2.841 0 0 1-.916 2.899c-9.071 7.616-28.464 25.577-33.518 43.681-6.669 23.86-29.354 39.037-49.661 43.144-20.307 4.106-31.606 8.092-41.5 40.57-9.895 32.478-32.902 84.976-43.35 90.099z" fill="#6165D7"/><path d="M451.401 169.068c-24.124 1.01-50.019 12.014-63.16 32.656l-1.24 1.97c-2.864 4.619-19.1 37.451-28.117 64.668a.647.647 0 0 0 .412.818.66.66 0 0 0 .809-.387c6.28-15.375 15.306-34.87 22.491-49.446 7.707-15.908 13.099-26.68 30.678-36.998 19.566-11.112 38.256-12.257 38.203-12.246a.527.527 0 0 0 .415-.549.524.524 0 0 0-.488-.486h-.003z" fill="url(#c)"/><path d="M92.964 114.534a27.592 27.592 0 0 1 27.595-27.596h234.674a24.314 24.314 0 0 1 24.281 23.076l17.322 340.228a17.92 17.92 0 0 1-4.797 13.146 17.937 17.937 0 0 1-12.783 5.694l-268.966 4.884a17.014 17.014 0 0 1-17.326-17.015V114.534z" fill="url(#d)"/><path d="M149.601 468.186h-.009l-30.095-.389c-10.064-.13-18.25-8.424-18.25-18.491V403.87c0-.17.067-.333.188-.453a.641.641 0 0 1 1.096.453v45.44c0 9.364 7.618 17.081 16.982 17.204l30.098.389c.171 0 .334.067.454.188a.637.637 0 0 1 0 .907.638.638 0 0 1-.454.188h-.01z" fill="#91B3FA"/><path d="M101.889 390.439a.642.642 0 0 1-.642-.642v-7.358a.64.64 0 0 1 .642-.642.645.645 0 0 1 .642.642v7.358a.645.645 0 0 1-.642.642z" fill="url(#e)"/><path d="M112.19 92.175a8.004 8.004 0 0 1 5.698-7.726 8.013 8.013 0 0 1 3.394-.269c32.045 4.346 142.245 17.794 233.358 10.793a7.409 7.409 0 0 1 7.982 6.99l18.163 341.749a8.526 8.526 0 0 1-8.014 8.97c-38.318 2.268-196.133 11.034-252.421 5.138a6.76 6.76 0 0 1-6.048-6.687L112.19 92.175z" fill="url(#f)"/><path d="M115.965 100.739a7.699 7.699 0 0 1 2.619-5.843 7.71 7.71 0 0 1 6.129-1.85c30.84 4.186 136.892 17.116 224.573 10.384a7.133 7.133 0 0 1 7.676 6.729l17.479 328.88a8.198 8.198 0 0 1-7.712 8.631c-36.876 2.183-188.749 10.619-242.92 4.946a6.5 6.5 0 0 1-5.817-6.437l-2.027-345.44z" fill="url(#g)"/><path opacity=".78" d="m144.514 126.094 3.274 70.505a4.483 4.483 0 0 0 4.351 4.276c13.057.37 53.748 1.361 76.723.164a5.007 5.007 0 0 0 4.741-4.839c.438-13.223 1.396-51.709-1.615-67.798a5.648 5.648 0 0 0-5.365-4.597l-77.186-2.695a4.765 4.765 0 0 0-4.923 4.984z" fill="#fff"/><path d="M337.741 132.23c1.443 0 2.592-1.064 2.554-2.366-.038-1.301-1.249-2.386-2.692-2.412l-84.895-1.502c-1.442-.026-2.231 1.067-1.744 2.428l.488 1.396c.48 1.36 2.052 2.475 3.489 2.475l82.8-.019zM252.708 139.086c-1.442-.026-2.231 1.068-1.744 2.429l.488 1.386c.48 1.361 2.052 2.476 3.489 2.476h82.795c1.443 0 2.592-1.064 2.554-2.366-.039-1.301-1.249-2.386-2.692-2.412l-84.89-1.513zM252.708 152.421c-1.442-.024-2.231 1.068-1.744 2.429l.488 1.395c.48 1.361 2.052 2.474 3.489 2.474h82.795c1.443 0 2.592-1.064 2.554-2.366-.039-1.301-1.249-2.386-2.692-2.411l-84.89-1.521zM345.961 223.022c1.443 0 2.554-1.064 2.468-2.365-.085-1.301-1.338-2.374-2.78-2.385l-198.536-1.57c-1.442-.012-1.887.902-.989 2.031l1.778 2.233c.898 1.128 2.815 2.051 4.258 2.051l193.801.005zM147.113 229.852c-1.442-.013-1.887.902-.989 2.03l1.778 2.233c.898 1.129 2.815 2.052 4.258 2.052h193.808c1.443 0 2.554-1.065 2.468-2.364-.085-1.3-1.338-2.376-2.78-2.387l-198.543-1.564z" fill="#fff" opacity=".6"/><path d="M146.346 251.798c4.767-.364 13.694-.533 18.61-.603a4.457 4.457 0 0 1 4.396 3.407c.949 3.932 2.257 10.759 2.093 17.994a3.953 3.953 0 0 1-3.991 3.872l-18.143-.195a4.364 4.364 0 0 1-4.289-3.951l-1.595-17.061a3.179 3.179 0 0 1 2.919-3.463z" fill="url(#h)"/><path d="M179.757 258.799c-1.442-.059-2.442 1.059-2.231 2.486l.476 3.173a3.149 3.149 0 0 0 3.013 2.594h44.305a2.588 2.588 0 0 0 2.591-2.617l-.012-.996a2.806 2.806 0 0 0-2.655-2.731l-45.487-1.909z" fill="#fff" opacity=".6"/><path d="M245.146 251.798c4.768-.364 13.696-.533 18.61-.603a4.45 4.45 0 0 1 4.398 3.407c.947 3.932 2.255 10.76 2.093 17.994a3.953 3.953 0 0 1-3.991 3.872l-18.143-.195a4.364 4.364 0 0 1-4.289-3.951l-1.595-17.061a3.18 3.18 0 0 1 1.712-3.122 3.195 3.195 0 0 1 1.205-.341z" fill="url(#i)"/><path d="M278.557 258.799c-1.441-.059-2.442 1.059-2.231 2.486l.476 3.173a3.15 3.15 0 0 0 3.015 2.594h44.297a2.587 2.587 0 0 0 2.4-1.617c.129-.318.193-.657.19-1l-.012-.996a2.806 2.806 0 0 0-2.653-2.731l-45.482-1.909zM140.786 310.163c.623 1.837 2.763 3.112 5.2 3.094l198.654-1.315c2.247-.016 4.046-1.46 3.997-3.212-.049-1.702-1.828-3.065-4.012-3.073l-198.659-.707c-3.507-.012-6.073 2.573-5.18 5.213zM140.786 346.033c.623 1.837 2.763 3.111 5.2 3.095l198.654-1.32c2.247-.014 4.046-1.459 3.997-3.21-.049-1.703-1.828-3.067-4.012-3.074l-198.661-.698c-3.505-.021-6.071 2.565-5.178 5.207zM140.786 381.9c.623 1.837 2.763 3.112 5.2 3.096l198.654-1.32c2.247-.016 4.046-1.46 3.997-3.212-.049-1.702-1.828-3.065-4.012-3.072l-198.661-.698c-3.505-.02-6.071 2.563-5.178 5.206zM140.786 417.767c.623 1.837 2.763 3.112 5.2 3.095l198.654-1.323c2.247-.015 4.046-1.46 3.997-3.211-.049-1.703-1.828-3.065-4.012-3.074l-198.659-.692c-3.507-.023-6.073 2.562-5.18 5.205z" fill="#fff" opacity=".6"/><path d="M252.45 40.549c-8.476-5.897-15.846-5.78-21.036-4.25a10.35 10.35 0 0 0-7.35 10.882l2.237 24.422 26.627 2.362s16.147-21.85-.478-33.416zM240.741 60.26a6.638 6.638 0 0 1-6.511-7.935 6.634 6.634 0 0 1 5.216-5.216 6.64 6.64 0 0 1 7.935 6.511 6.642 6.642 0 0 1-6.64 6.631v.009z" fill="url(#j)"/><path d="M228.961 61.33a.64.64 0 0 1-.638-.585l-.349-3.89a.645.645 0 0 1 1.21-.358.636.636 0 0 1 .07.241l.349 3.89a.637.637 0 0 1-.34.628.646.646 0 0 1-.241.07l-.061.004zm-.698-7.624a.64.64 0 0 1-.64-.584l-.27-2.952a9.877 9.877 0 0 1 7.004-10.365 19.885 19.885 0 0 1 9.732-.4.64.64 0 0 1 .469.753.641.641 0 0 1-.727.507 18.634 18.634 0 0 0-9.11.373 8.592 8.592 0 0 0-6.088 9.016l.27 2.953a.636.636 0 0 1-.34.627.644.644 0 0 1-.24.07l-.06.002z" fill="#91B3FA"/><path d="M189.961 87.386V75.108a7.503 7.503 0 0 1 7.75-7.489l84.653 2.901a7.29 7.29 0 0 1 7.025 6.847l.708 11.8-100.136-1.78z" fill="url(#k)"/><path d="M221.528 72.246h-3.641a.643.643 0 0 1 0-1.285h3.641a.642.642 0 0 1 .625.897.655.655 0 0 1-.369.35.642.642 0 0 1-.256.038zM194.543 83.531a.644.644 0 0 1-.642-.642v-4.968a6.981 6.981 0 0 1 6.961-6.96h13.385a.645.645 0 0 1 .433 1.086.645.645 0 0 1-.433.2h-13.385a5.682 5.682 0 0 0-5.677 5.674v4.968a.644.644 0 0 1-.642.642z" fill="#91B3FA"/><path d="M155.466 90.488a7.975 7.975 0 0 1 7.968-7.595h148.045a10.942 10.942 0 0 1 10.782 9.07l.126.725a9.388 9.388 0 0 1-2.071 7.654 9.396 9.396 0 0 1-7.189 3.346H161.242a6.103 6.103 0 0 1-6.106-6.402l.33-6.798z" fill="url(#l)"/><path d="M219.726 425.87H6.896v49.602h212.83V425.87z" fill="url(#m)"/><path d="M2.466 453.249h221.011v18.142a.9.9 0 0 1-.902.902H3.815a1.348 1.348 0 0 1-1.348-1.348v-17.696h-.001z" fill="url(#n)"/><path d="M2.466 453.249h221.011v18.142a.9.9 0 0 1-.902.902H3.815a1.348 1.348 0 0 1-1.348-1.348v-17.696h-.001z" fill="url(#o)"/><path d="M2.466 431.623h221.011v17.71a1.337 1.337 0 0 1-1.338 1.338H4.135a1.67 1.67 0 0 1-1.67-1.67v-17.378z" fill="url(#p)"/><path d="M2.466 431.623h221.011v17.71a1.337 1.337 0 0 1-1.338 1.338H4.135a1.67 1.67 0 0 1-1.67-1.67v-17.378z" fill="url(#q)"/><path d="M3.844 424.481h218.23a1.396 1.396 0 0 1 1.396 1.396v5.746H2.466v-5.756a1.379 1.379 0 0 1 1.378-1.386z" fill="url(#r)"/><path d="M423.359 469.43c4.045-8.32 1.519-17.887-5.642-21.369-7.161-3.481-16.245.44-20.291 8.76-4.045 8.319-1.519 17.886 5.642 21.368 7.162 3.482 16.246-.44 20.291-8.759z" fill="url(#s)"/><path d="m394.987 446.311-7.333 15.083a1.09 1.09 0 0 0 .503 1.457l9.18 4.463a1.09 1.09 0 0 0 1.457-.504l7.334-15.083a1.09 1.09 0 0 0-.504-1.457l-9.179-4.463a1.091 1.091 0 0 0-1.458.504z" fill="url(#t)"/><path d="M396.735 444.485c-1.317 6.752-4.314 12.785-8.872 18.142-2.464 2.897-6.415 4.195-10.345 3.405-37.568-7.543-116.307-56.208-192.773-98.722-5.068-2.817-8.571-6.013-6.183-10.923l5.274-10.846c2.372-4.884 8.052-2.133 13.381.058 80.887 33.23 166.675 62.198 196.127 89 2.826 2.571 4.085 6.318 3.391 9.886z" fill="url(#u)"/><path d="M396.735 444.485c-1.317 6.752-4.314 12.785-8.872 18.142-2.464 2.897-6.415 4.195-10.345 3.405-37.568-7.543-116.307-56.208-192.773-98.722-5.068-2.817-8.571-6.013-6.183-10.923l5.274-10.846c2.372-4.884 8.052-2.133 13.381.058 80.887 33.23 166.675 62.198 196.127 89 2.826 2.571 4.085 6.318 3.391 9.886z" fill="url(#v)"/><path d="m196.099 334.458-17.903 36.818a1.047 1.047 0 0 1-1.396.483l-9.444-4.593a1.045 1.045 0 0 1-.483-1.395l17.903-36.808a1.046 1.046 0 0 1 1.396-.485l9.444 4.593a1.048 1.048 0 0 1 .483 1.387z" fill="url(#w)"/><path d="m116.519 297.704-17.903 36.819a1.046 1.046 0 0 1-1.395.483l-9.445-4.593a1.05 1.05 0 0 1-.483-1.396l17.903-36.808a1.05 1.05 0 0 1 1.396-.483l9.444 4.592a1.047 1.047 0 0 1 .483 1.386z" fill="url(#x)"/><path d="M125.137 260.16 68.571 376.498l78.818 38.323 56.566-116.338-78.818-38.323z" fill="url(#y)"/><path d="M125.137 260.16 68.571 376.498l78.818 38.323 56.566-116.338-78.818-38.323z" fill="url(#z)"/><path d="m71.555 370.357-7.114 14.631 78.818 38.323 7.114-14.631-78.818-38.323z" fill="url(#A)"/><path d="m146.471 416.726-3.536 7.271a5.064 5.064 0 0 1-5.983 2.634c-24.569-7.296-48.347-18.666-71.226-34.676a4.982 4.982 0 0 1-1.62-6.254l3.55-7.303 78.815 38.328z" fill="url(#B)"/><path d="m154.424 405.758-2.948 6.062a1.093 1.093 0 0 1-.623.555 1.1 1.1 0 0 1-.833-.051l-82.513-40.122a1.09 1.09 0 0 1-.502-1.456l2.946-6.062a1.09 1.09 0 0 1 1.459-.505l82.512 40.123a1.09 1.09 0 0 1 .502 1.456z" fill="url(#C)"/><path d="m153.953 406.73-2.006 4.122a.974.974 0 0 1-.565.503.993.993 0 0 1-.755-.046l-82.703-40.216a.993.993 0 0 1-.553-.948.992.992 0 0 1 .098-.373l2.004-4.122a.993.993 0 0 1 .948-.554c.13.007.256.041.373.097l82.702 40.217a.987.987 0 0 1 .457 1.32z" fill="url(#D)"/><path d="m204.417 297.573 7.114-14.631-78.818-38.323-7.114 14.631 78.818 38.323z" fill="url(#E)"/><path d="m208.316 289.536 3.536-7.272a5.056 5.056 0 0 0-1.623-6.333c-20.91-14.827-44.537-26.501-71.257-34.609a4.978 4.978 0 0 0-5.921 2.585l-3.551 7.302 78.816 38.327z" fill="url(#F)"/><path d="m204.605 302.566 2.948-6.062a1.076 1.076 0 0 0 .05-.833 1.08 1.08 0 0 0-.554-.624l-82.512-40.122a1.095 1.095 0 0 0-.833-.05 1.095 1.095 0 0 0-.624.554l-2.95 6.064a1.094 1.094 0 0 0 .503 1.458l82.512 40.122a1.096 1.096 0 0 0 .836.051 1.095 1.095 0 0 0 .624-.558z" fill="url(#G)"/><path d="m205.085 301.597 2.006-4.124a.991.991 0 0 0-.457-1.32l-82.711-40.217a.994.994 0 0 0-1.321.457l-2.004 4.122a.992.992 0 0 0 .149 1.088c.087.097.191.176.308.233l82.702 40.216a.98.98 0 0 0 1.094-.145.988.988 0 0 0 .234-.31z" fill="url(#H)"/></g><defs><linearGradient id="s" x1="508.305" y1="487.312" x2="552.914" y2="498.319" gradientUnits="userSpaceOnUse"><stop stop-color="#4F52FF"/><stop offset="1" stop-color="#4042E2"/></linearGradient><linearGradient id="b" x1="540.348" y1="621.67" x2="113.238" y2="91.228" gradientUnits="userSpaceOnUse"><stop stop-color="#DAE3FE"/><stop offset="1" stop-color="#E9EFFD"/></linearGradient><linearGradient id="d" x1="244.811" y1="451.118" x2="223.229" y2="-187.761" gradientUnits="userSpaceOnUse"><stop stop-color="#09005D"/><stop offset="1" stop-color="#1A0F91"/></linearGradient><linearGradient id="e" x1="61.824" y1="360.665" x2="306.441" y2="516.068" gradientUnits="userSpaceOnUse"><stop stop-color="#A737D5"/><stop offset="1" stop-color="#EF497A"/></linearGradient><linearGradient id="f" x1="616.16" y1="-34.412" x2="443.519" y2="106.945" gradientUnits="userSpaceOnUse"><stop stop-color="#E1473D"/><stop offset="1" stop-color="#E9605A"/></linearGradient><linearGradient id="g" x1="368.225" y1="179.261" x2="639.352" y2="-21.188" gradientUnits="userSpaceOnUse"><stop stop-color="#FEBBBA"/><stop offset="1" stop-color="#FC9D8A"/></linearGradient><linearGradient id="h" x1="118.267" y1="232.603" x2="344.176" y2="413.186" gradientUnits="userSpaceOnUse"><stop stop-color="#A737D5"/><stop offset="1" stop-color="#EF497A"/></linearGradient><linearGradient id="i" x1="266.957" y1="256.353" x2="532.291" y2="68.651" gradientUnits="userSpaceOnUse"><stop stop-color="#FF928E"/><stop offset="1" stop-color="#FE7062"/></linearGradient><linearGradient id="j" x1="278.632" y1="5.52" x2="170.691" y2="147.515" gradientUnits="userSpaceOnUse"><stop stop-color="#09005D"/><stop offset="1" stop-color="#1A0F91"/></linearGradient><linearGradient id="k" x1="290.474" y1="14.519" x2="182.531" y2="156.514" gradientUnits="userSpaceOnUse"><stop stop-color="#09005D"/><stop offset="1" stop-color="#1A0F91"/></linearGradient><linearGradient id="l" x1="276.871" y1="23.205" x2="202.339" y2="160.06" gradientUnits="userSpaceOnUse"><stop stop-color="#FF928E"/><stop offset="1" stop-color="#FE7062"/></linearGradient><linearGradient id="m" x1="159.359" y1="385.72" x2="131.841" y2="424.534" gradientUnits="userSpaceOnUse"><stop stop-color="#09005D"/><stop offset="1" stop-color="#1A0F91"/></linearGradient><linearGradient id="n" x1="235.925" y1="294.103" x2="46.361" y2="553.682" gradientUnits="userSpaceOnUse"><stop stop-color="#4F52FF"/><stop offset="1" stop-color="#4042E2"/></linearGradient><linearGradient id="o" x1="53.389" y1="463.452" x2="53.577" y2="456.476" gradientUnits="userSpaceOnUse"><stop stop-color="#30ABBA"/><stop offset="1" stop-color="#6165D7"/></linearGradient><linearGradient id="p" x1="114.126" y1="416.514" x2="119.371" y2="307.511" gradientUnits="userSpaceOnUse"><stop stop-color="#4F52FF"/><stop offset="1" stop-color="#4042E2"/></linearGradient><linearGradient id="q" x1="53.389" y1="441.828" x2="53.577" y2="434.85" gradientUnits="userSpaceOnUse"><stop stop-color="#30ABBA"/><stop offset="1" stop-color="#6165D7"/></linearGradient><linearGradient id="r" x1="282.158" y1="257.231" x2="233.668" y2="306.308" gradientUnits="userSpaceOnUse"><stop stop-color="#09005D"/><stop offset="1" stop-color="#1A0F91"/></linearGradient><linearGradient id="c" x1="358.856" y1="219.141" x2="451.947" y2="219.141" gradientUnits="userSpaceOnUse"><stop stop-color="#DAE3FE"/><stop offset="1" stop-color="#E9EFFD"/></linearGradient><linearGradient id="t" x1="301.649" y1="396.958" x2="365.964" y2="437.228" gradientUnits="userSpaceOnUse"><stop stop-color="#4F52FF"/><stop offset="1" stop-color="#4042E2"/></linearGradient><linearGradient id="u" x1="490.621" y1="490.952" x2="168.945" y2="353.713" gradientUnits="userSpaceOnUse"><stop stop-color="#4F52FF"/><stop offset="1" stop-color="#4042E2"/></linearGradient><linearGradient id="v" x1="228.285" y1="408.953" x2="236.027" y2="365.067" gradientUnits="userSpaceOnUse"><stop stop-color="#30ABBA"/><stop offset="1" stop-color="#6165D7"/></linearGradient><linearGradient id="w" x1="136.069" y1="317.592" x2="184.881" y2="352.544" gradientUnits="userSpaceOnUse"><stop stop-color="#09005D"/><stop offset="1" stop-color="#1A0F91"/></linearGradient><linearGradient id="x" x1="263.513" y1="379.761" x2="106.054" y2="315.065" gradientUnits="userSpaceOnUse"><stop stop-color="#4F52FF"/><stop offset="1" stop-color="#4042E2"/></linearGradient><linearGradient id="y" x1="97.016" y1="318.112" x2="170.881" y2="354.609" gradientUnits="userSpaceOnUse"><stop stop-color="#4F52FF"/><stop offset="1" stop-color="#4042E2"/></linearGradient><linearGradient id="z" x1="123.831" y1="370.224" x2="99.035" y2="350.914" gradientUnits="userSpaceOnUse"><stop stop-color="#30ABBA"/><stop offset="1" stop-color="#6165D7"/></linearGradient><linearGradient id="A" x1="47.282" y1="440.115" x2="90.733" y2="408.832" gradientUnits="userSpaceOnUse"><stop stop-color="#09005D"/><stop offset="1" stop-color="#1A0F91"/></linearGradient><linearGradient id="B" x1="72.322" y1="490.322" x2="97.814" y2="421.382" gradientUnits="userSpaceOnUse"><stop stop-color="#4F52FF"/><stop offset="1" stop-color="#4042E2"/></linearGradient><linearGradient id="C" x1="53.013" y1="241.384" x2="79.242" y2="308.148" gradientUnits="userSpaceOnUse"><stop stop-color="#09005D"/><stop offset="1" stop-color="#1A0F91"/></linearGradient><linearGradient id="D" x1="69.922" y1="504.245" x2="108.104" y2="395.662" gradientUnits="userSpaceOnUse"><stop stop-color="#4F52FF"/><stop offset="1" stop-color="#4042E2"/></linearGradient><linearGradient id="E" x1="2027.22" y1="-70.089" x2="1948.29" y2="-55.602" gradientUnits="userSpaceOnUse"><stop stop-color="#09005D"/><stop offset="1" stop-color="#1A0F91"/></linearGradient><linearGradient id="F" x1="239.075" y1="155.701" x2="203.736" y2="213.055" gradientUnits="userSpaceOnUse"><stop stop-color="#4F52FF"/><stop offset="1" stop-color="#4042E2"/></linearGradient><linearGradient id="G" x1="149.882" y1="173.112" x2="158.573" y2="239.043" gradientUnits="userSpaceOnUse"><stop stop-color="#09005D"/><stop offset="1" stop-color="#1A0F91"/></linearGradient><linearGradient id="H" x1="245.61" y1="163.231" x2="192.354" y2="238.626" gradientUnits="userSpaceOnUse"><stop stop-color="#4F52FF"/><stop offset="1" stop-color="#4042E2"/></linearGradient><clipPath id="a"><path fill="#fff" transform="translate(.461)" d="M0 0h479.869v480H0z"/></clipPath></defs></svg>