<svg width="477" height="480" fill="none" xmlns="http://www.w3.org/2000/svg"><g clip-path="url(#a)"><path d="M456.842 322.36c-45.862 107.988-168.03 168.483-273.973 152.165-17.239-2.656-64.499-10.561-106.343-47.88-80.553-71.836-97.778-214.08-32.8-314.322C91.019 39.363 175.792-1.995 256.35.074c17.352.445 83.851 3.191 142.291 51.381 8.585 7.078 27.517 23.893 44.579 50.58 40.067 62.656 43.511 149.949 13.621 220.325z" fill="url(#b)"/><path d="M16.024 70.902c.674-3.026 4.966-3.14 5.785-.15 7.915 28.913 31.046 104.071 67.114 144.105 58.729 65.184 97.419 170.673 59.198 224.946 0 0-205.349-39.12-132.097-368.901z" fill="#BDD0FB"/><path opacity=".43" d="M21.46 112.118c.068.944.2 1.716.303 2.554l.359 2.464.774 4.923a646.286 646.286 0 0 0 1.714 9.795 871.566 871.566 0 0 0 3.82 19.509c2.702 12.985 5.758 25.883 9.002 38.74a831.908 831.908 0 0 0 10.68 38.324c3.858 12.699 7.922 25.323 12.385 37.818 8.884 25.006 19.13 49.553 31.071 73.272 6.094 11.798 12.501 23.441 19.564 34.688 7.146 11.191 14.771 22.085 23.156 32.376a.517.517 0 0 0 .551.182.53.53 0 0 0 .38-.44.541.541 0 0 0-.015-.204.54.54 0 0 0-.092-.182 384.758 384.758 0 0 1-22.134-32.863c-6.846-11.297-13.03-22.982-18.9-34.808-5.869-11.827-11.253-23.905-16.364-36.087-5.111-12.182-9.708-24.585-14.237-36.994-8.956-24.876-16.58-50.219-23.501-75.746a1023.7 1023.7 0 0 1-9.557-38.513 974.061 974.061 0 0 1-4.254-19.391l-1.941-9.728-.921-4.874-.431-2.438c-.13-.801-.283-1.66-.366-2.367l-.014-.116a.52.52 0 0 0-1.038.099l.007.007z" fill="#fff"/><path d="M116.444 5.985c1.442-2.597 5.409-1.527 5.345 1.439-.629 28.673.08 103.909 22.236 150.454 36.072 75.799 42.778 183.094-7.08 222.436 0 .007-177.642-91.887-20.501-374.329z" fill="#30ABBA"/><path opacity=".43" d="M110.173 45.263c-.197.884-.287 1.629-.422 2.423l-.346 2.358-.617 4.72c-.4 3.146-.751 6.299-1.103 9.45a833.577 833.577 0 0 0-1.826 18.94c-1.063 12.638-1.784 25.308-2.313 37.985a796.905 796.905 0 0 0-.665 38.059c.076 12.69.346 25.383 1.039 38.062 1.321 25.354 4.023 50.661 8.504 75.675 2.372 12.48 5.071 24.906 8.484 37.148 3.502 12.213 7.524 24.282 12.412 36.012a.506.506 0 0 0 .66.289.511.511 0 0 0 .289-.661 369.106 369.106 0 0 1-11.324-36.173c-3.194-12.227-5.675-24.629-7.829-37.077-2.153-12.448-3.795-24.99-5.159-37.555-1.364-12.564-2.208-25.203-2.971-37.823-1.428-25.253-1.505-50.573-.892-75.871a985.314 985.314 0 0 1 1.732-37.917c.394-6.316.856-12.628 1.385-18.936l.865-9.451.485-4.72.267-2.354c.1-.769.195-1.6.311-2.268l.019-.113a.505.505 0 0 0-.99-.194l.005-.008z" fill="#fff"/><path d="M288.928 459.697S315.716 224.791 416.437 87.01c6.772-9.263 21.587-7.64 26.097 2.89 30.167 70.422 98.552 286.59-153.606 369.797z" fill="#91B3FA"/><path opacity=".5" d="M310.74 442.306c-.519.609.371 1.385.963.848 21.815-19.858 103.865-114.615 116.407-286.589.042-.552-.812-.664-.902-.117-6.624 40.278-35.726 189.321-116.468 285.858z" fill="#fff"/><path d="m300.428 52.286-16.205 16.448a5.46 5.46 0 0 0-1.472 4.858l4.354 22.67c.854 4.44-3.755 7.93-7.791 5.906l-20.641-10.33a5.452 5.452 0 0 0-5.074.1l-20.214 11.146c-3.958 2.183-8.702-1.12-8.027-5.59l3.448-22.825a5.452 5.452 0 0 0-1.664-4.794l-16.848-15.781c-3.29-3.089-1.622-8.622 2.836-9.36l22.772-3.774a5.458 5.458 0 0 0 4.048-3.066l9.801-20.898c1.921-4.093 7.698-4.209 9.779-.195l10.62 20.487a5.45 5.45 0 0 0 4.166 2.9l22.904 2.863c4.486.561 6.382 6.022 3.208 9.235z" fill="url(#c)"/><path opacity=".66" d="M254.431 86.133c-1.187.2-2.332.6-3.386 1.182l-13.202 7.272a4.13 4.13 0 0 1-6.08-4.235l2.25-14.907a10.729 10.729 0 0 0-3.274-9.432l-11.002-10.305a4.131 4.131 0 0 1 2.15-7.099l7.599-1.26.19 1.156-7.599 1.259a2.962 2.962 0 0 0-1.539 5.081l11.003 10.32a11.898 11.898 0 0 1 3.636 10.463l-2.251 14.906a2.956 2.956 0 0 0 1.234 2.87 2.963 2.963 0 0 0 3.12.163l13.202-7.272a11.918 11.918 0 0 1 3.755-1.312l.194 1.15zM280.213 91.666a4.15 4.15 0 0 1-4.053 2.628 4.142 4.142 0 0 1-1.652-.431l-10.314-5.161.52-1.05 10.313 5.162a2.958 2.958 0 0 0 4.23-3.205l-2.843-14.803a12.018 12.018 0 0 1 3.212-10.6l10.582-10.734a2.966 2.966 0 0 0 .693-3.052 2.96 2.96 0 0 0-2.433-1.969l-14.961-1.87a11.899 11.899 0 0 1-9.07-6.326l-6.941-13.384a2.963 2.963 0 0 0-2.686-1.597 2.959 2.959 0 0 0-2.621 1.703l-6.406 13.65a11.86 11.86 0 0 1-2.73 3.716l-.791-.866a10.698 10.698 0 0 0 2.46-3.35l6.406-13.649a4.13 4.13 0 0 1 7.407-.148l6.942 13.383a10.72 10.72 0 0 0 8.191 5.713l14.961 1.872a4.13 4.13 0 0 1 3.512 5.01 4.131 4.131 0 0 1-1.088 1.99l-10.584 10.734a10.83 10.83 0 0 0-2.895 9.557l2.843 14.803c.147.762.077 1.55-.204 2.274z" fill="#fff"/><path opacity=".66" d="m233.988 46.63-4.503.745.192 1.156 4.502-.745-.191-1.156z" fill="#fff"/><path d="m202.153 68.463-8.355 18.471a4.78 4.78 0 0 0 .263 4.452l10.471 17.356c2.053 3.401-.693 7.677-4.63 7.238l-20.144-2.23a4.799 4.799 0 0 0-4.155 1.625l-13.269 15.331c-2.597 3.003-7.511 1.732-8.311-2.167l-4.096-19.866a4.793 4.793 0 0 0-2.831-3.445l-18.679-7.881c-3.659-1.545-3.96-6.614-.509-8.577l17.618-10.042a4.784 4.784 0 0 0 2.403-3.757l1.731-20.202c.347-3.956 5.064-5.808 8.001-3.133l14.986 13.657a4.795 4.795 0 0 0 4.315 1.123l19.737-4.602c3.868-.893 7.09 3.03 5.454 6.649z" fill="url(#d)"/><path opacity=".66" d="M174.535 110.332a9.394 9.394 0 0 0-2.424 2.005l-8.666 10.011a3.644 3.644 0 0 1-1.668 1.085 3.644 3.644 0 0 1-3.704-.966 3.636 3.636 0 0 1-.926-1.761l-2.677-12.967a9.416 9.416 0 0 0-5.565-6.779l-12.207-5.149a3.638 3.638 0 0 1-1.771-5.073 3.637 3.637 0 0 1 1.39-1.424l5.878-3.347.519.893-5.887 3.349a2.6 2.6 0 0 0-1.313 2.413 2.6 2.6 0 0 0 1.589 2.242l12.199 5.148a10.45 10.45 0 0 1 6.174 7.519l2.673 12.971c.099.474.327.91.661 1.26.333.351.757.601 1.225.723.468.123.961.112 1.423-.031a2.609 2.609 0 0 0 1.193-.776l8.674-10.006c.768-.888 1.68-1.64 2.697-2.225l.513.885zM197.465 107.055a3.64 3.64 0 0 1-4.034 3.544l-10.068-1.119.114-1.023 10.068 1.119a2.598 2.598 0 0 0 2.512-3.927l-6.844-11.335a10.555 10.555 0 0 1-.575-9.713l5.457-12.057a2.598 2.598 0 0 0-2.959-3.603l-12.896 3.005a10.439 10.439 0 0 1-9.412-2.453l-9.791-8.918a2.596 2.596 0 0 0-4.34 1.7l-1.126 13.195a10.382 10.382 0 0 1-1.12 3.892l-.914-.471a9.374 9.374 0 0 0 1.008-3.51l1.125-13.193a3.639 3.639 0 0 1 2.295-3.062 3.636 3.636 0 0 1 3.765.689l9.791 8.92a9.409 9.409 0 0 0 8.483 2.21l12.899-3.005a3.634 3.634 0 0 1 4.417 3.062 3.64 3.64 0 0 1-.286 1.97l-5.459 12.063a9.51 9.51 0 0 0 .519 8.756l6.843 11.333c.353.582.536 1.251.528 1.931z" fill="#fff"/><path opacity=".66" d="m145.676 83.988-3.484 1.984.509.895 3.485-1.984-.51-.895z" fill="#fff"/><path d="m128.453 114.158-3.39 19.108a4.593 4.593 0 0 0 1.293 4.067l13.818 13.627c2.705 2.67 1.176 7.282-2.597 7.807l-19.218 2.676a4.59 4.59 0 0 0-3.463 2.488l-8.691 17.352c-1.702 3.397-6.562 3.369-8.224-.049l-8.489-17.448a4.587 4.587 0 0 0-3.436-2.53l-19.189-2.91c-3.757-.568-5.232-5.194-2.495-7.836l13.977-13.463a4.587 4.587 0 0 0 1.344-4.051l-3.168-19.146c-.62-3.75 3.329-6.579 6.682-4.794l17.124 9.131a4.577 4.577 0 0 0 4.267.026l17.231-8.928c3.374-1.749 7.289 1.13 6.624 4.873z" fill="url(#e)"/><path opacity=".66" d="M112.711 159.513a8.96 8.96 0 0 0-1.781 2.424l-5.677 11.332a3.47 3.47 0 0 1-3.128 1.919 3.473 3.473 0 0 1-3.105-1.956l-5.54-11.399a9.016 9.016 0 0 0-6.761-4.972l-12.532-1.905a3.48 3.48 0 0 1-2.849-4.287c.16-.629.491-1.2.959-1.65l4.664-4.493.684.71-4.665 4.493a2.491 2.491 0 0 0-.658 2.557 2.486 2.486 0 0 0 2.012 1.709l12.532 1.905a10 10 0 0 1 7.502 5.517l5.54 11.398a2.491 2.491 0 0 0 3.538 1.034c.396-.243.716-.591.924-1.006l5.677-11.332a9.996 9.996 0 0 1 1.975-2.699l.689.701zM133.209 151.062a3.483 3.483 0 0 1-1.557 3.751c-.41.255-.87.421-1.348.489l-9.604 1.339-.137-.977 9.604-1.338a2.49 2.49 0 0 0 1.404-4.235l-9.022-8.899a10.1 10.1 0 0 1-2.826-8.875l2.224-12.478a2.486 2.486 0 0 0-.977-2.444 2.49 2.49 0 0 0-2.625-.2l-11.253 5.83a9.99 9.99 0 0 1-9.31-.056l-11.186-5.963a2.485 2.485 0 0 0-2.62.174 2.488 2.488 0 0 0-1.006 2.423l2.07 12.506a9.934 9.934 0 0 1-.122 3.875l-.96-.222a8.952 8.952 0 0 0 .108-3.492L82 119.764a3.475 3.475 0 0 1 3.195-4.037 3.468 3.468 0 0 1 1.866.402l11.184 5.962a9.014 9.014 0 0 0 8.394.051l11.254-5.832a3.472 3.472 0 0 1 3.658.286 3.472 3.472 0 0 1 1.363 3.407l-2.218 12.478a9.094 9.094 0 0 0 2.548 7.999l9.022 8.901c.467.46.794 1.043.944 1.681z" fill="#fff"/><path opacity=".66" d="m79.724 141.881-2.763 2.661.683.71 2.764-2.662-.684-.709z" fill="#fff"/><path d="m376.895 99.6-18.699 5.178a4.594 4.594 0 0 0-3.116 2.922l-6.326 18.342c-1.242 3.593-6.06 4.204-8.16 1.039l-10.712-16.193a4.588 4.588 0 0 0-3.74-2.055l-19.403-.359c-3.8-.069-5.869-4.467-3.503-7.444l12.087-15.184a4.584 4.584 0 0 0 .798-4.192l-5.655-18.564c-1.108-3.635 2.435-6.963 5.993-5.632l18.179 6.805a4.586 4.586 0 0 0 4.235-.537L354.78 52.61c3.117-2.177 7.374.173 7.208 3.96l-.855 19.392a4.579 4.579 0 0 0 1.819 3.86l15.487 11.696c3.037 2.29 2.12 7.066-1.544 8.08z" fill="url(#f)"/><path opacity=".66" d="M329.189 104.96a8.981 8.981 0 0 0-2.964-.559l-12.672-.234a3.474 3.474 0 0 1-2.654-5.637l7.894-9.916a9.02 9.02 0 0 0 1.572-8.246l-3.693-12.12a3.472 3.472 0 0 1 4.539-4.266l6.06 2.27-.346.923-6.06-2.27a2.491 2.491 0 0 0-3.253 3.056l3.694 12.12a9.997 9.997 0 0 1-1.743 9.146l-7.893 9.917a2.485 2.485 0 0 0 1.904 4.036l12.67.235a9.991 9.991 0 0 1 3.29.619l-.345.926zM345.651 119.809a3.474 3.474 0 0 1-4.055.215 3.466 3.466 0 0 1-1.023-1.006l-5.35-8.089.822-.543 5.35 8.088a2.48 2.48 0 0 0 1.038.889 2.48 2.48 0 0 0 3.389-1.449l4.138-11.98a10.101 10.101 0 0 1 6.787-6.376l12.215-3.382a2.493 2.493 0 0 0 1.78-1.932 2.487 2.487 0 0 0-.946-2.451l-10.114-7.65a9.997 9.997 0 0 1-3.965-8.422l.556-12.664a2.487 2.487 0 0 0-1.288-2.29 2.49 2.49 0 0 0-2.623.14l-10.388 7.261a9.97 9.97 0 0 1-3.548 1.559l-.215-.961a8.969 8.969 0 0 0 3.198-1.41l10.388-7.26a3.474 3.474 0 0 1 5.459 3l-.556 12.663a9.024 9.024 0 0 0 3.576 7.595l10.119 7.647a3.469 3.469 0 0 1 1.32 3.423 3.465 3.465 0 0 1-2.486 2.698l-12.213 3.383a9.093 9.093 0 0 0-6.119 5.748l-4.138 11.979a3.465 3.465 0 0 1-1.108 1.577z" fill="#fff"/><path opacity=".66" d="m327.285 66.252-.345.923 3.593 1.345.345-.922-3.593-1.346z" fill="#fff"/><path d="m436.067 161.299-19.391-.692a4.583 4.583 0 0 0-3.845 1.851l-11.562 15.582c-2.265 3.052-7.045 2.183-8.091-1.472l-5.339-18.657a4.589 4.589 0 0 0-2.943-3.085l-18.398-6.179c-3.601-1.212-4.254-6.027-1.101-8.15l16.102-10.843a4.59 4.59 0 0 0 2.024-3.759l.192-19.405c.036-3.809 4.416-5.907 7.408-3.567l15.286 11.957a4.595 4.595 0 0 0 4.201.764l18.515-5.814c3.625-1.139 6.982 2.374 5.68 5.945l-6.646 18.231a4.58 4.58 0 0 0 .571 4.23l11.254 15.813c2.185 3.107-.118 7.386-3.917 7.25z" fill="url(#g)"/><path opacity=".66" d="M388.957 152.057a9.01 9.01 0 0 0-2.659-1.425l-12.014-4.035a3.478 3.478 0 0 1-2.335-2.828 3.474 3.474 0 0 1 1.501-3.346l10.511-7.082a9.022 9.022 0 0 0 3.982-7.391l.124-12.673a3.478 3.478 0 0 1 5.615-2.703l5.108 3.991-.608.776-5.106-3.991a2.483 2.483 0 0 0-2.613-.283 2.488 2.488 0 0 0-1.409 2.218l-.124 12.676a10.004 10.004 0 0 1-4.415 8.198l-10.511 7.083a2.483 2.483 0 0 0-.529 3.647c.296.357.686.625 1.126.773l12.014 4.037c1.062.358 2.057.892 2.943 1.579l-.601.779zM400.19 171.17a3.474 3.474 0 0 1-3.933-1.015 3.463 3.463 0 0 1-.672-1.268l-2.668-9.322.949-.27 2.673 9.321a2.486 2.486 0 0 0 3.307 1.629 2.492 2.492 0 0 0 1.084-.832l7.55-10.177a10.104 10.104 0 0 1 8.39-4.039l12.667.448a2.483 2.483 0 0 0 2.279-1.306 2.489 2.489 0 0 0-.163-2.622l-7.348-10.328a10 10 0 0 1-1.249-9.226l4.341-11.91a2.488 2.488 0 0 0-3.082-3.226l-12.093 3.799a9.98 9.98 0 0 1-3.854.421l.084-.98a8.984 8.984 0 0 0 3.475-.383l12.092-3.797a3.479 3.479 0 0 1 3.551.914c.448.468.755 1.052.888 1.686a3.463 3.463 0 0 1-.135 1.902l-4.34 11.908a9.001 9.001 0 0 0-.464 4.294 9.028 9.028 0 0 0 1.587 4.017l7.343 10.339a3.47 3.47 0 0 1 .231 3.656 3.481 3.481 0 0 1-3.174 1.829l-12.667-.448a9.102 9.102 0 0 0-7.564 3.635l-7.559 10.183c-.388.525-.917.93-1.526 1.168z" fill="#fff"/><path opacity=".66" d="m398.789 114.576-.607.776 3.022 2.364.607-.776-3.022-2.364z" fill="#fff"/><path d="M253.041 474.554c94.465 0 171.044-76.579 171.044-171.043 0-94.465-76.579-171.044-171.044-171.044-94.465 0-171.044 76.579-171.044 171.044 0 94.464 76.579 171.043 171.044 171.043z" fill="url(#h)"/><path d="M253.041 468.867c91.324 0 165.356-74.033 165.356-165.356 0-91.324-74.032-165.357-165.356-165.357S87.685 212.187 87.685 303.511c0 91.323 74.032 165.356 165.356 165.356z" fill="url(#i)"/><path opacity=".78" d="M100.611 296.975h-.083a1.565 1.565 0 0 1-1.084-.513 1.563 1.563 0 0 1-.398-1.132 155.218 155.218 0 0 1 2.24-19.37 1.564 1.564 0 0 1 1.82-1.262 1.567 1.567 0 0 1 1.262 1.82 152.12 152.12 0 0 0-2.195 18.975 1.558 1.558 0 0 1-1.562 1.482zM116.688 236.386a1.553 1.553 0 0 1-1.567-1.499c-.01-.268.049-.534.172-.772 26.406-52.315 79.197-84.812 137.748-84.812 9.329-.002 18.639.836 27.818 2.502a1.56 1.56 0 0 1 1.259 1.82 1.578 1.578 0 0 1-.649 1.007 1.578 1.578 0 0 1-1.171.253 152.387 152.387 0 0 0-27.257-2.452c-57.372 0-109.075 31.84-134.954 83.093a1.555 1.555 0 0 1-1.399.86z" fill="#fff"/><path opacity=".78" d="M256.644 447.068c77.294 0 139.954-62.66 139.954-139.954 0-77.294-62.66-139.954-139.954-139.954-77.294 0-139.954 62.66-139.954 139.954 0 77.294 62.66 139.954 139.954 139.954z" fill="#fff"/><path d="M299.493 254.229c0 23.697-19.218 49.282-42.908 49.282s-42.91-25.585-42.91-49.282c0-23.697 19.218-40.513 42.91-40.513 23.692 0 42.908 16.815 42.908 40.513z" fill="url(#j)"/><path d="M203.334 394.748h104.747a25.354 25.354 0 0 0 24.147-17.627l5.637-17.618c4.128-12.899-2.583-26.864-15.302-31.511-42.629-15.582-86.707-13.585-131.861 1.439-12.649 4.209-19.67 17.74-16.18 30.605l4.341 16a25.355 25.355 0 0 0 24.471 18.712z" fill="url(#k)"/><path d="M406.965 258.43s-23.188 29.689 3.269 59.886l9.947-.927s-19.147-30.743-10.619-55.251l14.088 1.029 7.791-5.078-24.476.341z" fill="url(#l)"/><path d="m338.577 191.685 110.114-5.686c2.159-.111 3.982 1.193 4.041 2.896l2.488 66.675c.064 1.715-1.673 3.166-3.847 3.211-19.935.419-108.442 2.291-112.339 2.597-3.851.3-4.14-53.337-4.155-66.574-.007-1.639 1.625-3.012 3.698-3.119z" fill="url(#m)"/><path d="m338.577 191.685 110.114-5.686c2.159-.111 3.982 1.193 4.041 2.896l2.488 66.675c.064 1.715-1.673 3.166-3.847 3.211-19.935.419-108.442 2.291-112.339 2.597-3.851.3-4.14-53.337-4.155-66.574-.007-1.639 1.625-3.012 3.698-3.119z" fill="url(#n)"/><path d="m340.789 258.96-.076-.281c-1.658-6.096-2.751-31.192-2.782-63.937a.774.774 0 0 1 .772-.723l110.114-5.684a.87.87 0 0 1 .559.159.666.666 0 0 1 .291.519l2.486 66.675a.763.763 0 0 1-.774.748h-.022c-15.859.332-95.713 2.018-110.272 2.505l-.296.019zm108.071-69.895h-.013l-110.106 5.684a.134.134 0 0 0-.088.03c.041 32.165 1.092 56.927 2.694 63.426 15.31-.499 94.222-2.164 109.986-2.497h.012l-2.424-66.657c.01.023-.012.013-.055.013l-.006.001z" fill="#91B3FA"/><path d="M410.549 199.397c.076 1.685.693 3.027 1.385 2.996l30.605-1.363c.693-.031 1.193-1.423 1.119-3.108-.075-1.684-.693-3.028-1.385-2.997l-30.606 1.363c-.692.031-1.192 1.432-1.118 3.109zM410.682 207.7c.038.843.631 1.503 1.321 1.472l30.606-1.365c.692-.029 1.224-.739 1.185-1.58-.038-.842-.628-1.503-1.321-1.472l-30.605 1.364c-.692.031-1.224.74-1.186 1.581zM410.682 214.057c.038.844.631 1.503 1.321 1.472l30.606-1.364c.692-.03 1.224-.74 1.185-1.581-.038-.841-.628-1.503-1.321-1.472l-30.605 1.365c-.692.029-1.224.739-1.186 1.58z" fill="#BDD0FB"/><path d="M368.752 251.046h-1.232a1.467 1.467 0 0 1-1.451-1.297l-2.665-22.975a1.473 1.473 0 0 1 .309-1.082 1.474 1.474 0 0 1 .986-.544c.023 0 2.208-.261 4.017-1.459.606-.4 1.304-2.251 1.92-3.88.951-2.518 2.135-5.651 4.308-8.137 3.523-4.024 2.943-10.077 2.86-10.754-.173-1.484.975-3.667 2.77-4.365 1.096-.426 3.29-.645 5.682 2.665 2.989 4.136 1.685 9.695.821 13.39-.268 1.145-.519 2.225-.554 2.895a.427.427 0 0 0 0 .113c.596.448 4.088-.092 6.174-.416a72.406 72.406 0 0 1 3.279-.466c3.794-.439 8.252-.275 9.088 4.942.346 2.155-.575 3.765-1.503 4.797 1.674 1.435 2.54 3.001 2.582 4.675.038 1.515-.632 2.77-1.318 3.636a5.442 5.442 0 0 1 1.686 5.209 6.447 6.447 0 0 1-2.011 3.508c.556.62.855 1.43.836 2.263-.071 2.545-3.143 5.088-7.303 6.046-5.033 1.16-24.163 1.236-29.281 1.236zm-2.28-23.264 2.365 20.334c5.129 0 23.893-.091 28.547-1.161 3.31-.762 5.009-2.509 5.031-3.271 0-.294-.544-.652-1.371-.891a1.47 1.47 0 0 1-1.052-1.549 1.47 1.47 0 0 1 1.327-1.32c1.008-.09 2.078-1.238 2.327-2.504.184-.917.029-2.207-1.752-3.146a1.478 1.478 0 0 1-.78-1.196 1.477 1.477 0 0 1 .607-1.293s1.537-1.169 1.494-2.575c-.042-1.364-1.543-2.609-2.794-3.414a1.465 1.465 0 0 1 .062-2.504c.073-.043 1.998-1.212 1.69-3.147-.234-1.46-.501-3.117-5.856-2.493a82.378 82.378 0 0 0-3.168.452c-3.915.604-7.007 1.085-8.634-.381-.454-.409-.982-1.15-.921-2.36.046-.933.315-2.078.628-3.418.786-3.357 1.861-7.952-.346-11.004-.866-1.185-1.7-1.825-2.206-1.662-.506.162-.95 1.038-.956 1.34.092.777.788 8.014-3.568 12.985-1.823 2.077-2.858 4.822-3.771 7.239-.912 2.416-1.648 4.364-3.045 5.289a12.752 12.752 0 0 1-3.858 1.653v-.003z" fill="url(#o)"/><path d="M419.666 403.787s18.787 40.949 28.645 57.909c0 0 1.957 10.672 0 14.024l-1.669.743 7.792-.232s.692-14.355.152-15.157c-.54-.801-1.621-.749-1.621-.749s-3.339-26.454-13.009-32.1l-9.375-32.265-10.915 7.827z" fill="url(#p)"/><path d="M443.317 478.476c-.012.187 6.08.102 9.389.041a2.63 2.63 0 0 0 2.524-2.077l2.5-13.129a2.357 2.357 0 0 0-1.793-2.742l-1.394-.319s-1.991 2.729-1.365 5.3c.627 2.571 1.185 9.226-.399 10.002-1.585.775-6.136.912-6.136.912s-3.222.32-3.326 2.012z" fill="url(#q)"/><path d="M401.859 478.718a.697.697 0 0 0-.284.334.7.7 0 0 0 .217.804.698.698 0 0 0 .414.147c5.54-.058 17.947-.232 19.044-.693 1.424-.592-.519-5.713-2.562-7.445l-11.288 3.683-5.541 3.17z" fill="url(#r)"/><path d="M398.355 401.177s12.14 58.732 15.582 70.191l-8.132 5.1s4.072-.692 7.099-.912c3.026-.22 5.796-3.683 5.796-3.683l-.975-1.558s-3.043-58.414-2.302-65.047l-17.068-4.091z" fill="url(#s)"/><path d="M368.216 264.178s-1.675 30.554 26.143 46.167l-6.698 15.272s-25.183-15.236-24.253-56.778a4.833 4.833 0 0 0-1.181-3.253l-5.353-6.209a9.601 9.601 0 0 1-2.043-8.606l.704-2.815a1.463 1.463 0 0 1 1.509-1.104c.226.014.446.081.642.195l.559.325a9.84 9.84 0 0 1 4.036 4.484l2.628 5.877a5.651 5.651 0 0 0 2.289 2.56 5.653 5.653 0 0 0 3.35.759l1.626-.141-3.958 3.267z" fill="url(#t)"/><path d="M393.39 308.054c4.654 1.292 20.419 5.438 30.262 5.269l-6.042 34.107.481 5.561-19.703-.088s-5.54-12.881-9.924-19.303c-1.264-1.854-.322-4.067.395-6.195l-.985-.654a2.681 2.681 0 0 1-1.062-3.063l4.798-14.68a1.464 1.464 0 0 1 1.78-.954z" fill="#30ABBA"/><path d="m396.809 349.987.388 3.371s-5.568 16.675 2.784 55.62c0 0 18.087 5.125 32.954-7.137 0 0-4.193-36.76-5.339-38.472-5.714-8.529-9.505-10.388-9.505-10.388l-.173-3.681s-15.901 2.881-21.109.687z" fill="url(#u)"/><path d="m396.809 349.987.388 3.371s-5.568 16.675 2.784 55.62c0 0 18.087 5.125 32.954-7.137 0 0-4.193-36.76-5.339-38.472-5.714-8.529-9.505-10.388-9.505-10.388l-.173-3.681s-15.901 2.881-21.109.687z" fill="url(#v)"/><path d="M404.521 310.803c-.07-.091 4.113-12.628 4.113-12.628l5.992.543 2.339 14.222s-9.389 1.896-12.444-2.137z" fill="url(#w)"/><path d="M413.191 278.401c-.4.249-12.802 5.367-10.137 18.252a2.412 2.412 0 0 0 1.375 1.721c1.819.812 5.737 2.202 10.424 1.731 6.498-.659 10.755-11.998 10.574-15.298-.182-3.3-8.276-8.868-12.236-6.406z" fill="url(#x)"/><path d="M416.969 273.399c-.326.043-7.166 2.424-3.775 7.383 3.392 4.958 4.675 7.875 3.061 10.052-1.461 1.984-4.7.853-4.418 4.979a2.309 2.309 0 0 1-.985 2.092c-3.052 2.067-10.497 8.424-3.116 17.486a2.31 2.31 0 0 1 .261 2.583c-2.161 3.877-6.699 15.236 9.73 21.526 16.237 6.223 22.099-4.39 23.737-8.632.174-.445.485-.823.888-1.08a2.257 2.257 0 0 1 1.352-.354c1.784.085 4.311-.211 4.195-2.597-.071-1.449-.974-2.746-2.041-3.786a2.263 2.263 0 0 1 .435-3.562 4.431 4.431 0 0 0 2.188-2.752c.984-3.647-.98-14.544-11.427-16.395-.865-.154-1.783-.971-1.904-1.847v-.04a2.254 2.254 0 0 1 .838-2.221c1.669-1.224 3.809-3.688 2.077-7.641-1.541-3.504-4.501-4.686-6.693-5.064a2.279 2.279 0 0 1-1.516-.96 2.275 2.275 0 0 1-.349-1.76c.708-3.478.064-9.062-12.538-7.41z" fill="#010648"/></g><defs><linearGradient id="n" x1="362.607" y1="226.381" x2="367.828" y2="199.77" gradientUnits="userSpaceOnUse"><stop stop-color="#30ABBA"/><stop offset="1" stop-color="#6165D7"/></linearGradient><linearGradient id="b" x1="517.15" y1="483.62" x2="162.289" y2="173.116" gradientUnits="userSpaceOnUse"><stop stop-color="#DAE3FE"/><stop offset="1" stop-color="#E9EFFD"/></linearGradient><linearGradient id="d" x1="128.716" y1="69.081" x2="278.601" y2="153.692" gradientUnits="userSpaceOnUse"><stop stop-color="#FF928E"/><stop offset="1" stop-color="#FE7062"/></linearGradient><linearGradient id="e" x1="59.737" y1="132.555" x2="218.288" y2="175.413" gradientUnits="userSpaceOnUse"><stop stop-color="#FF928E"/><stop offset="1" stop-color="#FE7062"/></linearGradient><linearGradient id="f" x1="331.442" y1="46.013" x2="361.109" y2="208.064" gradientUnits="userSpaceOnUse"><stop stop-color="#FF928E"/><stop offset="1" stop-color="#FE7062"/></linearGradient><linearGradient id="g" x1="408.861" y1="96.524" x2="388.397" y2="259.996" gradientUnits="userSpaceOnUse"><stop stop-color="#FF928E"/><stop offset="1" stop-color="#FE7062"/></linearGradient><linearGradient id="h" x1="18.983" y1="575.184" x2="248.406" y2="308.888" gradientUnits="userSpaceOnUse"><stop stop-color="#E1473D"/><stop offset="1" stop-color="#E9605A"/></linearGradient><linearGradient id="i" x1="377.272" y1="3.443" x2="152.209" y2="547.06" gradientUnits="userSpaceOnUse"><stop stop-color="#FF928E"/><stop offset="1" stop-color="#FE7062"/></linearGradient><linearGradient id="j" x1="305.478" y1="102.018" x2="185.155" y2="477.702" gradientUnits="userSpaceOnUse"><stop stop-color="#FF928E"/><stop offset="1" stop-color="#FE7062"/></linearGradient><linearGradient id="k" x1="333.701" y1="111.058" x2="213.377" y2="486.74" gradientUnits="userSpaceOnUse"><stop stop-color="#FF928E"/><stop offset="1" stop-color="#FE7062"/></linearGradient><linearGradient id="l" x1="423.195" y1="254.652" x2="406.527" y2="305.744" gradientUnits="userSpaceOnUse"><stop stop-color="#FEBBBA"/><stop offset="1" stop-color="#FF928E"/></linearGradient><linearGradient id="m" x1="422.823" y1="168.542" x2="304.867" y2="409.253" gradientUnits="userSpaceOnUse"><stop stop-color="#4F52FF"/><stop offset="1" stop-color="#4042E2"/></linearGradient><linearGradient id="c" x1="221.752" y1="24.037" x2="348.502" y2="173.47" gradientUnits="userSpaceOnUse"><stop stop-color="#FF928E"/><stop offset="1" stop-color="#FE7062"/></linearGradient><linearGradient id="o" x1="363.394" y1="223.685" x2="406.634" y2="223.685" gradientUnits="userSpaceOnUse"><stop stop-color="#DAE3FE"/><stop offset="1" stop-color="#E9EFFD"/></linearGradient><linearGradient id="p" x1="419.666" y1="436.209" x2="454.787" y2="436.209" gradientUnits="userSpaceOnUse"><stop stop-color="#FEBBBA"/><stop offset="1" stop-color="#FF928E"/></linearGradient><linearGradient id="q" x1="467.942" y1="357.667" x2="450.549" y2="470.721" gradientUnits="userSpaceOnUse"><stop stop-color="#09005D"/><stop offset="1" stop-color="#1A0F91"/></linearGradient><linearGradient id="r" x1="431.138" y1="352.005" x2="413.747" y2="465.059" gradientUnits="userSpaceOnUse"><stop stop-color="#09005D"/><stop offset="1" stop-color="#1A0F91"/></linearGradient><linearGradient id="s" x1="398.355" y1="438.822" x2="418.693" y2="438.822" gradientUnits="userSpaceOnUse"><stop stop-color="#FEBBBA"/><stop offset="1" stop-color="#FF928E"/></linearGradient><linearGradient id="t" x1="354.543" y1="286.234" x2="394.359" y2="286.234" gradientUnits="userSpaceOnUse"><stop stop-color="#FEBBBA"/><stop offset="1" stop-color="#FF928E"/></linearGradient><linearGradient id="u" x1="380.399" y1="346.943" x2="445.623" y2="420.5" gradientUnits="userSpaceOnUse"><stop stop-color="#09005D"/><stop offset="1" stop-color="#1A0F91"/></linearGradient><linearGradient id="v" x1="438.547" y1="302.124" x2="400.586" y2="409.897" gradientUnits="userSpaceOnUse"><stop stop-color="#010648"/><stop offset="1" stop-color="#242665"/></linearGradient><linearGradient id="w" x1="404.521" y1="305.781" x2="416.965" y2="305.781" gradientUnits="userSpaceOnUse"><stop stop-color="#FEBBBA"/><stop offset="1" stop-color="#FF928E"/></linearGradient><linearGradient id="x" x1="424.301" y1="289.696" x2="514.889" y2="295.857" gradientUnits="userSpaceOnUse"><stop stop-color="#FEBBBA"/><stop offset="1" stop-color="#FF928E"/></linearGradient><clipPath id="a"><path fill="#fff" transform="translate(.232)" d="M0 0h476.423v480H0z"/></clipPath></defs></svg>