<svg width="171" height="144" viewBox="0 0 171 144" fill="none" xmlns="http://www.w3.org/2000/svg">
<path d="M3.9996 83.8369L6.13614 84.8793C5.37821 86.4748 4.72726 88.119 4.18761 89.8009L1.93144 89.0831C2.49896 87.2888 3.18999 85.5359 3.9996 83.8369ZM0.581133 94.5515L2.93988 94.9616C2.63107 96.7068 2.4426 98.4711 2.37583 100.242H0C0.0841204 98.3348 0.283908 96.4345 0.598242 94.5515H0.581133ZM0.153825 105.762L2.51257 105.557C2.6818 107.32 2.95575 109.072 3.333 110.803L1.00844 111.315C0.615921 109.483 0.336237 107.628 0.170934 105.762H0.153825ZM2.58093 116.733L4.82005 115.912C5.42926 117.576 6.14873 119.197 6.97367 120.765L4.87132 121.876C3.99958 120.214 3.24012 118.496 2.59804 116.733H2.58093ZM7.82828 126.661L9.75972 125.26C10.1358 125.79 10.546 126.319 10.9562 126.815C11.657 127.669 12.409 128.524 13.1782 129.293L11.469 131.002C10.6314 130.147 9.84518 129.293 9.11021 128.37C8.71708 127.789 8.27269 127.225 7.82828 126.661ZM17.1607 132.796C18.5694 133.868 20.0484 134.844 21.5876 135.718L20.4082 137.786C18.7739 136.855 17.2036 135.816 15.7078 134.676L17.1607 132.796ZM66.1644 90.5699C67.3188 89.463 68.7366 88.669 70.2836 88.2629L70.8989 90.5699C69.4006 90.9238 68.0823 91.8106 67.1899 93.0648L65.173 91.8173C65.4587 91.3678 65.791 90.9497 66.1644 90.5699ZM145.763 14.457C147.114 13.1412 148.498 11.8766 149.883 10.7317L151.421 12.5431C150.088 13.6709 148.737 14.8842 147.421 16.1659L145.763 14.457ZM141.935 18.4728L143.644 20.0621C142.482 21.3608 141.319 22.7621 140.225 24.1975L138.362 22.7108C139.525 21.2412 140.738 19.8057 141.935 18.4728ZM154.309 7.33103C155.865 6.25445 157.454 5.2633 159.044 4.37469L160.206 6.44242C158.685 7.29685 157.164 8.25382 155.677 9.29623L154.309 7.33103ZM135.029 27.1368L136.961 28.521C135.918 29.9906 134.893 31.4773 133.918 32.9982L131.919 31.6994C132.927 30.1615 133.953 28.6235 135.029 27.1368ZM64.5919 98.0205L66.9335 97.542C67.241 98.9778 67.9735 100.288 69.0359 101.302L69.2923 101.541L67.6856 103.25L67.3608 102.925C65.9733 101.6 65.0098 99.893 64.5919 98.0205ZM26.4076 138.025C28.0501 138.702 29.7343 139.273 31.4499 139.734L30.8346 142.024C29.0227 141.567 27.2415 140.996 25.5017 140.315L26.4076 138.025ZM76.471 88.861C76.6328 88.9381 76.7872 89.0296 76.9325 89.1344C77.5528 89.5493 78.1259 90.0306 78.6417 90.5699C79.4278 91.3518 80.0957 92.2441 80.6245 93.2186L78.5392 94.3806C78.1414 93.6157 77.6411 92.9085 77.0522 92.2787C76.6348 91.8566 76.1703 91.4839 75.6677 91.168L75.36 90.98L76.471 88.861ZM128.996 36.3988L131.03 37.6121C130.107 39.1843 129.201 40.7393 128.312 42.3286L126.244 41.1666C127.133 39.5431 128.039 37.9539 128.996 36.3817V36.3988ZM164.069 1.89684C165.793 1.16609 167.556 0.532813 169.351 0L170.017 2.27279C168.34 2.78985 166.691 3.39448 165.078 4.08419L164.069 1.89684ZM123.629 45.9856L125.731 47.0963C124.876 48.7027 124.022 50.309 123.219 51.9324L121.099 50.8558C121.937 49.2153 122.774 47.5919 123.629 45.9856ZM118.604 55.7261L120.723 56.8198C119.903 58.5286 119.014 60.0666 118.228 61.69L116.125 60.5964C116.963 58.99 117.783 57.3666 118.604 55.7261ZM36.663 140.742C38.42 140.969 40.1902 141.077 41.9616 141.067V143.545C40.0815 143.544 38.2032 143.424 36.3383 143.186L36.663 140.742ZM73.5653 103.916C74.507 104.202 75.4871 104.34 76.471 104.326C77.1362 104.322 77.7997 104.259 78.4538 104.138L78.8469 106.496C78.0726 106.623 77.2898 106.692 76.5052 106.702C75.2848 106.721 74.0686 106.554 72.8988 106.206L73.5653 103.916ZM113.596 65.4324L115.698 66.5603C114.826 68.1666 113.989 69.7901 113.066 71.3793L110.98 70.2173C111.869 68.6451 112.741 67.0388 113.596 65.4324ZM80.1801 99.1142L82.5388 98.7382C82.8077 100.502 82.8936 102.289 82.7952 104.07V104.463L80.4194 104.309V103.967C80.507 102.346 80.4268 100.719 80.1801 99.1142ZM108.263 74.8996L110.314 76.1129C109.374 77.7021 108.399 79.2572 107.391 80.7951L105.408 79.4964C106.383 78.0268 107.34 76.4888 108.263 74.9337V74.8996ZM83.2738 102.532C84.8256 101.727 86.3015 100.783 87.6836 99.7123L89.1365 101.592C87.6353 102.76 86.0272 103.785 84.3335 104.651L83.2738 102.532ZM102.349 84.0078L104.28 85.392C103.203 86.8958 102.075 88.3654 100.862 89.8009L99.0158 88.2971C100.127 86.8958 101.289 85.4433 102.349 84.0078ZM47.2603 140.691C48.995 140.45 50.7091 140.079 52.388 139.58L53.0546 141.87C51.2447 142.394 49.3997 142.788 47.5337 143.049L47.2603 140.691ZM95.5461 92.3813L97.2553 93.9876C96.0076 95.3547 94.7085 96.6705 93.3411 97.9351L91.7174 96.2262C93.0676 94.9787 94.3325 93.6971 95.5461 92.3813ZM79.7015 109.59L82.026 110.085C81.6428 111.923 81.1346 113.733 80.5048 115.502L78.2657 114.699C78.8613 113.031 79.341 111.324 79.7015 109.59ZM57.396 137.717C58.9985 136.98 60.5464 136.129 62.028 135.171L63.327 137.171C61.7448 138.188 60.0943 139.096 58.3874 139.888L57.396 137.717ZM76.1976 119.621L78.317 120.714C77.4529 122.378 76.4883 123.987 75.4284 125.533L73.4628 124.166C74.4715 122.712 75.385 121.193 76.1976 119.621ZM66.3524 132.044C67.7057 130.896 68.9792 129.657 70.164 128.336L71.8732 129.942C70.62 131.332 69.2783 132.639 67.8565 133.855L66.3524 132.044Z" fill="url(#paint0_linear_826_430)"/>
<defs>
<linearGradient id="paint0_linear_826_430" x1="0.0170923" y1="71.7211" x2="170.017" y2="71.7211" gradientUnits="userSpaceOnUse">
<stop stop-color="#E1473D"/>
<stop offset="1" stop-color="#E9605A"/>
</linearGradient>
</defs>
</svg>
