<svg width="174" height="43" viewBox="0 0 174 43" fill="none" xmlns="http://www.w3.org/2000/svg">
<g clip-path="url(#clip0_826_419)">
<path d="M172.34 35.41C171.36 36.1858 170.301 36.8561 169.18 37.41L168.47 36.01C169.495 35.4977 170.461 34.8739 171.35 34.15L172.34 35.41ZM165.26 37.27L165.67 38.78C164.465 39.1014 163.233 39.3123 161.99 39.41L161.87 37.85C163.016 37.7633 164.151 37.5691 165.26 37.27ZM158.42 37.79L158.25 39.34C157.008 39.2093 155.782 38.9547 154.59 38.58L155.05 37.09C156.149 37.4294 157.277 37.6638 158.42 37.79ZM151.9 35.79L151.14 37.15C150.039 36.5366 149.012 35.7984 148.08 34.95L149.08 33.8C149.947 34.5466 150.893 35.197 151.9 35.74V35.79ZM138.18 11.66L136.77 12.33C136.277 11.269 135.722 10.2372 135.11 9.24L136.44 8.42C137.085 9.46393 137.666 10.5459 138.18 11.66ZM139.62 15C140.06 16.13 140.47 17.27 140.87 18.4L139.39 18.92C139 17.8 138.59 16.68 138.16 15.57L139.62 15ZM146.82 31.17L145.57 32.11C144.832 31.1212 144.163 30.082 143.57 29L144.94 28.24C145.492 29.2687 146.121 30.2548 146.82 31.19V31.17ZM142.07 21.77C142.49 22.89 142.92 23.99 143.39 25.08L141.96 25.7C141.47 24.59 141.03 23.46 140.61 22.32L142.07 21.77ZM134.25 5.41L133.07 6.41C132.532 5.79005 131.954 5.2055 131.34 4.66C131.1 4.45333 130.85 4.25333 130.59 4.06L131.52 2.8C131.82 3.02 132.1 3.25 132.37 3.49C133.042 4.08424 133.67 4.72588 134.25 5.41ZM128.25 0.97L127.66 2.42C126.612 1.99081 125.513 1.6984 124.39 1.55L124.59 0C125.837 0.178388 127.057 0.514407 128.22 1L128.25 0.97ZM120.77 0.07L121 1.61C120.275 1.73551 119.569 1.95398 118.9 2.26C118.553 2.40502 118.218 2.57897 117.9 2.78L117.06 1.46C117.425 1.22617 117.806 1.01897 118.2 0.84C119.009 0.472611 119.863 0.213704 120.74 0.07H120.77ZM115.67 5.07C115.043 6.00103 114.538 7.00942 114.17 8.07L112.7 7.54C113.109 6.34134 113.674 5.2016 114.38 4.15L115.67 5.07ZM113.11 11.5C112.76 12.68 112.41 13.84 111.95 14.98L110.5 14.4C110.93 13.32 111.27 12.2 111.61 11.05L113.11 11.5ZM110.11 18.3C109.325 19.3162 108.379 20.1978 107.31 20.91L106.44 19.62C107.368 18.9969 108.192 18.2307 108.88 17.35L110.11 18.3ZM103.41 21.09L103.89 22.58C102.68 22.9723 101.421 23.1977 100.15 23.25L100.09 21.69C101.206 21.6328 102.309 21.4277 103.37 21.08L103.41 21.09ZM96.75 21.34L96.36 22.86C95.2239 22.5678 94.1384 22.1059 93.14 21.49L93.97 20.16C94.8216 20.6812 95.7446 21.0754 96.71 21.33L96.75 21.34Z" fill="url(#paint0_linear_826_419)"/>
<path d="M163.8 32.3398L163.58 33.8998L171.22 34.9698L169.59 42.5098L171.12 42.8398L173.1 33.6598L163.8 32.3398Z" fill="url(#paint1_linear_826_419)"/>
<path d="M92.16 19.2798L91.65 20.5298C90.65 20.1498 89.73 19.7798 88.76 19.4198L89.22 18.1498C90.21 18.5098 91.19 18.8798 92.16 19.2798ZM86.25 17.1298L85.83 18.4198C84.85 18.0998 83.85 17.7998 82.83 17.5198L83.2 16.2098C84.24 16.4998 85.25 16.7998 86.25 17.1298ZM80.19 15.4098L79.87 16.7298C78.87 16.4798 77.87 16.2498 76.87 16.0398L77.15 14.7098C78.15 14.9298 79.18 15.1598 80.19 15.4098ZM74 14.1198L73.77 15.4598C72.77 15.2798 71.77 15.1198 70.7 14.9798L70.89 13.6398C72 13.7798 73 13.9398 74 14.1198ZM67.77 13.2598L67.63 14.6098L64.54 14.3398L64.64 12.9898C65.72 13.0598 66.77 13.1498 67.81 13.2598H67.77ZM61.5 12.8198V14.1798C60.5 14.1798 59.43 14.1198 58.4 14.1198V12.7598L61.5 12.8198ZM55.21 12.8198V14.1798C54.1767 14.1798 53.1467 14.2298 52.12 14.3298L52.11 12.9998C53.16 12.8798 54.21 12.8398 55.25 12.7998L55.21 12.8198ZM49 13.1998L49.13 14.5498C48.13 14.6498 47.07 14.7598 46.05 14.8998L45.87 13.5498C46.89 13.4198 47.94 13.2998 49 13.1998ZM42.76 13.9998L43 15.3398C42 15.5098 41 15.6898 39.95 15.8898L39.69 14.5598C40.68 14.3498 41.71 14.1698 42.74 13.9998H42.76ZM36.59 15.2098L36.9 16.5298C35.9 16.7598 34.9 17.0098 33.9 17.2798L33.52 15.9998C34.53 15.6998 35.55 15.4498 36.57 15.2098H36.59ZM30.51 16.8198L30.91 18.1198C29.91 18.4198 28.91 18.7298 27.91 19.0598L27.48 17.7798C28.49 17.4398 29.49 17.1198 30.49 16.8198H30.51ZM24.56 18.8198L25 20.0998C24 20.4598 23.07 20.8398 22.12 21.2398L21.61 19.9998C22.58 19.5798 23.56 19.1998 24.54 18.8298L24.56 18.8198ZM18.75 21.2298L19.31 22.4598C18.37 22.8898 17.43 23.3298 16.51 23.7898L15.91 22.5798C16.82 22.1198 17.77 21.6698 18.73 21.2398L18.75 21.2298ZM13.09 23.9998L13.74 25.1998C12.83 25.6898 11.93 26.1998 11.04 26.7198L10.35 25.5498C11.26 25.0498 12.17 24.5298 13.09 23.9998ZM7.67 27.2198L8.4 28.3598C7.53333 28.9198 6.67333 29.4898 5.82 30.0698L5.05 28.9998C5.91 28.3598 6.79 27.7798 7.67 27.2198ZM2.49 30.7798L3.3 31.8698C2.47 32.4898 1.65 33.1198 0.85 33.7598L0 32.7598C0.82 32.0498 1.65 31.4098 2.49 30.7798Z" fill="url(#paint2_linear_826_419)"/>
</g>
<defs>
<linearGradient id="paint0_linear_826_419" x1="93.1" y1="19.7" x2="172.34" y2="19.7" gradientUnits="userSpaceOnUse">
<stop stop-color="#E1473D"/>
<stop offset="1" stop-color="#E9605A"/>
</linearGradient>
<linearGradient id="paint1_linear_826_419" x1="163.58" y1="37.5898" x2="173.1" y2="37.5898" gradientUnits="userSpaceOnUse">
<stop stop-color="#E1473D"/>
<stop offset="1" stop-color="#E9605A"/>
</linearGradient>
<linearGradient id="paint2_linear_826_419" x1="0" y1="23.2598" x2="92.16" y2="23.2598" gradientUnits="userSpaceOnUse">
<stop stop-color="#E1473D"/>
<stop offset="1" stop-color="#E9605A"/>
</linearGradient>
<clipPath id="clip0_826_419">
<rect width="173.1" height="42.84" fill="white"/>
</clipPath>
</defs>
</svg>
