<svg width="213" height="24" viewBox="0 0 213 24" fill="none" xmlns="http://www.w3.org/2000/svg">
<g clip-path="url(#clip0_826_413)">
<path d="M0 1.89995C0.698519 1.47575 1.43503 1.11753 2.2 0.829952L2.7 2.19995C2.02549 2.45223 1.376 2.76693 0.76 3.13995L0 1.89995ZM5.78 1.51995L5.65 0.0599522C6.81251 -0.0409399 7.98247 -0.0174736 9.14 0.129952L9 1.56995C7.93164 1.43677 6.85198 1.42 5.78 1.51995ZM12.13 2.22995L12.54 0.839952C13.6435 1.1717 14.7227 1.57933 15.77 2.05995L15.16 3.37995C14.1771 2.92879 13.1648 2.54458 12.13 2.22995ZM18 4.93995L18.8 3.69995L18.97 3.80995C19.82 4.35995 20.68 4.95995 21.6 5.64995L20.72 6.80995C19.83 6.13995 19 5.55995 18.18 4.99995L18 4.93995ZM23.29 8.87995L24.22 7.75995C25.04 8.43995 25.85 9.13995 26.65 9.83995L26.78 9.94995L25.83 11.05L25.7 10.94C24.92 10.25 24.12 9.55995 23.31 8.87995H23.29ZM28.39 13.23L29.32 12.11C30.17 12.82 31.03 13.51 31.92 14.17L31.04 15.33C30.16 14.66 29.28 14 28.41 13.23H28.39ZM33.86 17.23L34.64 16C35.5667 16.5673 36.5287 17.075 37.52 17.52L36.92 18.85C35.8741 18.3886 34.8587 17.8608 33.88 17.27L33.86 17.23ZM40.14 20.04L40.54 18.63C41.5729 18.9319 42.6303 19.1427 43.7 19.26L43.55 20.71C42.4041 20.5973 41.2699 20.3865 40.16 20.08L40.14 20.04ZM47.05 20.72L46.89 19.28C47.31 19.2266 47.73 19.1566 48.15 19.07C48.7629 18.9405 49.3648 18.7633 49.95 18.54L50.48 19.89C49.8315 20.1487 49.1625 20.3527 48.48 20.5C48.0151 20.6122 47.5444 20.699 47.07 20.76L47.05 20.72ZM52.7 17C53.5356 16.3534 54.306 15.6266 55 14.83L56.1 15.78C55.3411 16.6675 54.4933 17.475 53.57 18.19L52.7 17ZM57 12.23C57.52 11.48 58 10.71 58.52 9.93995L58.84 9.44995L60.06 10.25L59.74 10.74C59.24 11.52 58.74 12.3 58.2 13.06L57 12.23ZM60.76 6.64995C61.4402 5.71249 62.1889 4.82673 63 3.99995L64 4.99995C63.2423 5.7732 62.5437 6.60219 61.91 7.47995L60.76 6.64995ZM65.76 1.82995C66.2676 1.52945 66.7995 1.27189 67.35 1.05995C67.9038 0.834788 68.4759 0.657474 69.06 0.529952L69.37 1.99995C68.8553 2.10884 68.3503 2.25934 67.86 2.44995C67.385 2.6409 66.9239 2.86478 66.48 3.11995L65.76 1.82995ZM72.5 1.82995L72.62 0.339952C73.7889 0.459414 74.94 0.714462 76.05 1.09995L75.58 2.47995C74.5762 2.13311 73.5362 1.90162 72.48 1.78995L72.5 1.82995ZM78.5 3.82995L79.21 2.55995C80.2176 3.1195 81.1835 3.75115 82.1 4.44995L81.21 5.59995C80.3549 4.93813 79.4525 4.33986 78.51 3.80995L78.5 3.82995ZM83.65 7.76995L84.65 6.76995C85.37 7.48995 86.11 8.26995 86.98 9.23995L85.9 10.24C85.08 9.20995 84.36 8.43995 83.66 7.74995L83.65 7.76995ZM88.12 12.69L89.22 11.69C89.95 12.53 90.68 13.36 91.43 14.18L90.36 15.18C89.61 14.36 88.87 13.52 88.13 12.67L88.12 12.69ZM92.75 17.63L93.75 16.56C94.5386 17.3094 95.3772 18.0043 96.26 18.64L95.4 19.82C94.4772 19.1359 93.5957 18.398 92.76 17.61L92.75 17.63ZM98.37 21.63L99 20.29C99.968 20.763 100.971 21.1608 102 21.48L101.58 22.87C100.48 22.5352 99.41 22.1104 98.38 21.6L98.37 21.63ZM104.97 23.63L105.17 22.18C106.24 22.3299 107.32 22.4001 108.4 22.39V23.85C107.263 23.856 106.126 23.7791 105 23.62L104.97 23.63ZM111.86 23.56L111.63 22.12L112.72 21.92C113.42 21.77 114.11 21.58 114.78 21.37L115.23 22.76C114.51 22.98 113.77 23.18 113.02 23.34L111.86 23.56ZM117.77 20.14C118.733 19.6552 119.653 19.0899 120.52 18.45L121.38 19.62C120.436 20.315 119.432 20.9241 118.38 21.44L117.77 20.14Z" fill="url(#paint0_linear_826_413)"/>
<path d="M121 17.19C121.743 16.3856 122.534 15.6275 123.37 14.92L124.37 16.08C123.583 16.7468 122.839 17.4615 122.14 18.22L121 17.19ZM126.24 12.78C127.239 12.1283 128.274 11.534 129.34 11L130.01 12.36C128.977 12.8588 127.975 13.4198 127.01 14.04L126.24 12.78ZM132.63 9.60998C133.72 9.19998 134.86 8.83998 136.02 8.51998L136.42 9.97998C135.3 10.29 134.2 10.64 133.16 10.98L132.63 9.60998ZM139.49 7.72998L140.61 7.53998C141.4 7.40998 142.2 7.29998 142.99 7.20998L143.16 8.71998C142.39 8.80998 141.62 8.90998 140.85 9.03998L139.76 9.22998L139.49 7.72998ZM146.59 8.44998L146.52 6.92998C147.68 6.92998 148.87 6.85998 150.06 6.92998V8.43998C148.86 8.37998 147.7 8.39998 146.57 8.44998H146.59ZM153.49 8.52998L153.56 6.99998C154.73 7.07998 155.9 7.16998 157.07 7.27998L156.92 8.78998C155.773 8.68331 154.623 8.59665 153.47 8.52998H153.49ZM160.39 9.18998L160.58 7.67998C161.74 7.81998 162.9 7.97998 164.05 8.13998L163.84 9.63998C162.67 9.47998 161.53 9.32998 160.37 9.18998H160.39ZM167.29 10.19L167.51 8.67998L170.97 9.17998L170.75 10.68L167.29 10.19ZM174.22 11.19L174.41 9.68998C175.56 9.82998 176.71 9.96998 177.87 10.09L177.71 11.6C176.53 11.39 175.36 11.25 174.2 11.1L174.22 11.19ZM181.22 11.9L181.33 10.39L182.52 10.47C183.27 10.47 184.02 10.54 184.78 10.55V12.07C184 12.07 183.23 12.02 182.46 11.98L181.22 11.9ZM188.28 12.05L188.23 10.54C189.39 10.54 190.54 10.42 191.67 10.32L191.81 11.83C190.63 11.85 189.44 11.92 188.25 12L188.28 12.05ZM195 9.78998C196.15 9.58998 197.28 9.35998 198.36 9.08998L198.73 10.57C197.61 10.84 196.44 11.09 195.25 11.28L195 9.78998ZM201.64 8.11998C202.718 7.74792 203.776 7.32069 204.81 6.83998L205.45 8.20998C204.37 8.71242 203.265 9.15967 202.14 9.54998L201.64 8.11998ZM207.8 5.22998C208.769 4.62372 209.697 3.95567 210.58 3.22998L211.53 4.41998C210.596 5.16536 209.617 5.85329 208.6 6.47998L207.8 5.22998Z" fill="url(#paint1_linear_826_413)"/>
<path d="M203.29 1.66992L203.1 3.17992L210.53 4.09992L209.06 11.4399L210.55 11.7399L212.34 2.79992L203.29 1.66992Z" fill="url(#paint2_linear_826_413)"/>
</g>
<defs>
<linearGradient id="paint0_linear_826_413" x1="0" y1="11.92" x2="121.39" y2="11.92" gradientUnits="userSpaceOnUse">
<stop stop-color="#E1473D"/>
<stop offset="1" stop-color="#E9605A"/>
</linearGradient>
<linearGradient id="paint1_linear_826_413" x1="120.98" y1="10.74" x2="211.57" y2="10.74" gradientUnits="userSpaceOnUse">
<stop stop-color="#E1473D"/>
<stop offset="1" stop-color="#E9605A"/>
</linearGradient>
<linearGradient id="paint2_linear_826_413" x1="203.1" y1="6.69992" x2="212.34" y2="6.69992" gradientUnits="userSpaceOnUse">
<stop stop-color="#E1473D"/>
<stop offset="1" stop-color="#E9605A"/>
</linearGradient>
<clipPath id="clip0_826_413">
<rect width="212.34" height="23.84" fill="white"/>
</clipPath>
</defs>
</svg>
