<?xml version="1.0" encoding="UTF-8" standalone="no"?>
<svg
   width="174.95053"
   height="64.035751"
   viewBox="0 0 174.95053 64.035751"
   fill="none"
   version="1.1"
   id="svg11"
   sodipodi:docname="Vector.svg"
   inkscape:version="1.2.2 (732a01da63, 2022-12-09)"
   xmlns:inkscape="http://www.inkscape.org/namespaces/inkscape"
   xmlns:sodipodi="http://sodipodi.sourceforge.net/DTD/sodipodi-0.dtd"
   xmlns="http://www.w3.org/2000/svg"
   xmlns:svg="http://www.w3.org/2000/svg">
  <sodipodi:namedview
     id="namedview13"
     pagecolor="#ffffff"
     bordercolor="#000000"
     borderopacity="0.25"
     inkscape:showpageshadow="2"
     inkscape:pageopacity="0.0"
     inkscape:pagecheckerboard="0"
     inkscape:deskcolor="#d1d1d1"
     showgrid="false"
     inkscape:zoom="3.9647059"
     inkscape:cx="94.710682"
     inkscape:cy="75.667656"
     inkscape:window-width="1920"
     inkscape:window-height="1027"
     inkscape:window-x="-8"
     inkscape:window-y="-8"
     inkscape:window-maximized="1"
     inkscape:current-layer="svg11" />
  <path
     d="m 74.646027,47.5485 -0.9771,0.1718 -0.383,-2.115 0.9772,-0.1719 3.869,-0.727 0.3962,2.115 z m -5.8498,1.031 -4.8726,0.8064 -0.3433,-2.115 4.8594,-0.8196 z m 14.5254,-2.6437 -0.4225,-2.1018 c 1.611,-0.3173 3.222,-0.6478 4.8198,-0.9915 l 0.4489,2.1018 c -1.5581,0.2776 -3.1691,0.6081 -4.7933,0.9254 z m -24.3234,4.2961 -4.8858,0.7271 -0.3169,-2.1151 4.8726,-0.7402 z m 34.0026,-6.3451 -0.4489,-2.1547 c 1.6022,-0.3613 3.2,-0.7314 4.7933,-1.1104 l 0.5018,2.0886 z m -43.7214,7.7199 -4.899,0.6742 -0.2905,-2.1283 4.8858,-0.6742 z m 53.400603,-10.0596 -0.5282,-2.0886 4.7667,-1.2162 0.542,2.0754 c -1.585,0.4495 -3.1827,0.8328 -4.7805,1.2294 z m -63.185503,11.3815 -4.899,0.6213 -0.2773,-2.1283 4.899,-0.6213 z m -9.798,1.2293 -4.899,0.5949 -0.2509,-2.0886 4.8858,-0.5949 z m 82.544003,-15.1356 -0.581,-2.0754 c 1.571,-0.4362 3.143,-0.8989 4.714,-1.3219 l 0.621,2.0621 z m -92.315603,16.2857 -4.9123,0.5684 -0.23765,-2.1282 4.89905,-0.5685 z m 101.796603,-19.1675 -0.673,-1.9828 c 1.558,-0.5155 3.103,-1.0443 4.634,-1.5995 l 0.727,2.0225 c -1.558,0.5023 -3.117,1.0443 -4.688,1.5598 z M 10.087237,56.4448 5.188215,57 4.950527,54.8717 9.849547,54.3166 Z m 120.970293,-23.609 -0.779,-1.9961 c 1.518,-0.5948 3.037,-1.2161 4.542,-1.8506 l 0.832,1.9696 c -1.518,0.5552 -3.05,1.2294 -4.595,1.8771 z m 9.138,-3.9657 -0.911,-1.9432 c 1.465,-0.7006 2.931,-1.4276 4.37,-2.1679 l 0.991,1.8903 c -1.466,0.7667 -2.945,1.507 -4.45,2.2208 z m 8.821,-4.6134 -1.07,-1.8506 c 1.413,-0.8196 2.799,-1.6656 4.16,-2.5513 l 1.162,1.811 c -1.387,0.8989 -2.813,1.7581 -4.252,2.5909 z m 8.371,-5.4065 -1.254,-1.7449 c 1.32,-0.965 2.641,-1.9564 3.869,-2.9611 l 1.321,1.6524 c -1.242,1.0443 -2.575,2.0622 -3.936,3.0536 z m 7.739,-6.3319 -1.466,-1.573 c 1.201,-1.11042 2.363,-2.26047 3.446,-3.42374 l 1.572,1.4673 c -1.136,1.20294 -2.324,2.37944 -3.5,3.52944 z m 6.84,-7.31005 -1.677,-1.32189 c 1.016,-1.3219 1.994,-2.64378 2.905,-3.88636 l 1.756,1.21614 c -0.924,1.33511 -1.941,2.68344 -2.984,3.99211 z"
     fill="url(#paint0_linear_826_428)"
     id="path2"
     style="fill:url(#paint0_linear_826_428)" />
  <defs
     id="defs9">
    <linearGradient
       id="paint0_linear_826_428"
       x1="0"
       y1="28.486799"
       x2="170"
       y2="28.486799"
       gradientUnits="userSpaceOnUse"
       gradientTransform="translate(4.950527)">
      <stop
         stop-color="#E1473D"
         id="stop4" />
      <stop
         offset="1"
         stop-color="#E9605A"
         id="stop6" />
    </linearGradient>
    <linearGradient
       id="paint0_linear_826_429"
       x1="0"
       y1="8.5"
       x2="12"
       y2="8.5"
       gradientUnits="userSpaceOnUse"
       gradientTransform="translate(0,47.035749)">
      <stop
         stop-color="#E1473D"
         id="stop244" />
      <stop
         offset="1"
         stop-color="#E9605A"
         id="stop246" />
    </linearGradient>
  </defs>
  <path
     d="M 10.7133,64.035749 12,62.333149 3.20993,56.296749 10.1716,48.377169 8.47856,47.035749 0,56.683699 Z"
     fill="url(#paint0_linear_826_429)"
     id="path242"
     style="fill:url(#paint0_linear_826_429)" />
</svg>
