<svg width="494" height="480" viewBox="0 0 494 480" fill="none" xmlns="http://www.w3.org/2000/svg">
<g clip-path="url(#clip0_14_232)">
<mask id="mask0_14_232" style="mask-type:luminance" maskUnits="userSpaceOnUse" x="0" y="0" width="494" height="480">
<path d="M0.722412 0H493.094V480H0.722412V0Z" fill="white"/>
</mask>
<g mask="url(#mask0_14_232)">
<path d="M434.583 412.81C421.927 425.772 410.598 433.39 401.926 439.143C317.354 495.239 220.679 479.072 190.79 473.542C142.567 464.625 101.861 458.338 66.8882 426.95C-12.5815 355.628 -8.71924 206.838 52.0057 114.663C59.2082 103.734 119.839 14.4468 216.722 1.8678C219.093 1.561 220.859 1.38286 222.408 1.22203C237.397 -0.356525 330.275 -8.6724 406.001 54.3561C416.84 63.3796 434.289 79.655 450.463 104.474C509.626 195.229 509.814 335.782 434.583 412.81Z" fill="#F4F7FA"/>
<path d="M409.613 434.288C438.903 434.543 469.346 434.808 470.294 441.137C471.145 446.805 447.974 454.911 434.435 458.264C421.158 461.547 398.41 464.899 371.686 457.578C361.88 454.894 337.744 446.993 338.586 441.137C339.667 433.675 380.67 434.036 409.613 434.288Z" fill="#C9CBDF"/>
<path d="M343.178 37.6994V437.245C343.178 443.218 338.039 444.507 332.212 444.695L132.5 454.955L129.476 455.057C123.268 455.257 118.179 450.368 118.179 444.183V30.7617C118.179 24.581 123.268 19.6845 129.476 19.8874L133.583 20.0235L334.028 35.5122C339.855 35.7027 343.178 31.7266 343.178 37.6994Z" fill="url(#paint0_linear_14_232)"/>
<path d="M349.403 37.6994V437.245C349.403 443.218 344.642 448.263 338.82 448.451L135.704 455.049C129.496 455.252 124.406 450.361 124.406 444.175V30.7617C124.406 24.581 129.496 19.6845 135.704 19.8874L338.813 26.4936C344.642 26.6841 349.403 31.7266 349.403 37.6994Z" fill="url(#paint1_linear_14_232)"/>
<path d="M342.826 59.6609V429.793C342.826 435.37 338.38 440.078 332.932 440.244L141.941 446.204C136.162 446.383 131.428 441.823 131.428 436.058V53.8712C131.428 48.1112 136.167 43.5339 141.941 43.6997L332.932 49.2345C338.38 49.3879 342.826 54.084 342.826 59.6609Z" fill="url(#paint2_linear_14_232)"/>
<path d="M242.593 35.6287C242.593 37.7342 240.903 39.3895 238.82 39.3252C236.736 39.2608 235.047 37.5041 235.047 35.3936C235.047 33.2831 236.736 31.6328 238.82 31.6971C239.835 31.7387 240.794 32.1711 241.497 32.9038C242.2 33.6366 242.593 34.613 242.593 35.6287Z" fill="url(#paint3_linear_14_232)"/>
<path d="M325.163 229.509L150.151 229.296C144.977 229.291 140.781 225.103 140.781 219.941V62.4048C140.781 57.2411 144.977 53.1809 150.151 53.3219L325.163 58.1467C330.064 58.2827 334.021 62.4518 334.021 67.4671V220.456C334.028 225.454 330.064 229.517 325.163 229.509Z" fill="#F4F7FA"/>
<path d="M271.141 211.356L206.185 211.096C205.775 211.091 205.383 210.925 205.095 210.634C204.806 210.343 204.644 209.95 204.643 209.54V190.575C204.642 190.372 204.681 190.171 204.758 189.983C204.835 189.795 204.948 189.625 205.092 189.481C205.235 189.337 205.405 189.224 205.593 189.146C205.781 189.069 205.982 189.03 206.185 189.031L271.141 189.503C271.974 189.508 272.655 190.201 272.655 191.052V209.822C272.655 210.668 271.974 211.356 271.141 211.356Z" fill="url(#paint4_linear_14_232)"/>
<path d="M318.562 138.381L162.223 136.003V74.4863L318.562 78.3065V138.381ZM318.562 171.196L162.223 169.606V147.892L318.562 149.992V171.196Z" fill="#D8DEE8"/>
<path d="M325.163 424.862L150.151 429.902C144.977 430.05 140.781 425.987 140.781 420.829V263.295C140.781 258.131 144.977 253.94 150.151 253.927L325.163 253.494C330.064 253.484 334.021 257.535 334.021 262.55V415.536C334.028 420.547 330.064 424.721 325.163 424.862Z" fill="#F4F7FA"/>
<path d="M300.854 367.442L175.598 369.939C173.913 369.974 172.545 368.63 172.545 366.945V276.51C172.545 275.699 172.866 274.92 173.438 274.345C174.011 273.77 174.787 273.446 175.598 273.442L300.854 272.766C302.472 272.761 303.788 274.092 303.788 275.748V364.392C303.788 366.042 302.477 367.408 300.854 367.442Z" fill="#D8DEE8"/>
<path d="M271.141 407.079L206.185 408.759C205.334 408.784 204.643 408.103 204.643 407.245V388.28C204.643 387.867 204.804 387.471 205.092 387.175C205.38 386.879 205.772 386.707 206.185 386.696L271.141 385.237C271.339 385.233 271.537 385.269 271.722 385.343C271.907 385.416 272.074 385.527 272.216 385.667C272.357 385.807 272.469 385.974 272.544 386.158C272.619 386.342 272.657 386.54 272.655 386.739V405.508C272.655 406.352 271.974 407.057 271.141 407.079Z" fill="url(#paint5_linear_14_232)"/>
<path d="M238.825 327.746C238.211 327.751 237.605 327.555 237.068 327.147L168.515 275.22C166.956 274.038 166.496 271.561 167.485 269.686C168.475 267.81 170.539 267.248 172.1 268.431L238.884 319.116L309.258 267.728C310.783 266.617 312.747 267.226 313.645 269.089C314.543 270.952 314.044 273.357 312.52 274.471L240.49 327.164C239.973 327.543 239.396 327.738 238.825 327.746Z" fill="#F4F7FA"/>
<path opacity="0.5" d="M349.403 62.2935C343.381 63.0333 334.844 64.4411 324.95 67.373C310.436 71.6732 274.048 82.4584 254.534 112.847C231.823 148.216 244.55 190.538 247.623 200.751C257.785 234.554 283.41 264.584 298.085 281.785C315.288 301.945 322.748 305.846 324.354 318.698C326.932 339.3 310.283 349.383 309.305 382.119C309.11 388.679 308.919 397.749 312.448 408.584C319.361 429.788 335.421 442.065 343.301 447.263L349.403 62.2935Z" fill="#D8DEE8"/>
<path d="M373.084 210.735C389.884 202.587 422.66 232.107 438.606 260.382C444.965 271.655 452.425 284.882 450.596 300.613C447.353 328.5 416.212 352.961 373.353 361.125L369.734 348.282C376.375 341.412 383.263 334.785 390.383 328.414C404.14 316.095 406.968 315.273 407.629 311.381C409.789 298.644 376.81 287.975 365.077 265.576C354.987 246.321 360.178 216.997 373.084 210.735Z" fill="#010648"/>
<path d="M395.159 434.863C395.159 434.863 392.402 441.622 393.771 444.27C395.211 447.051 399.372 446.222 411.093 446.66C423.095 447.11 425.814 448.068 426.292 446.868C427.25 444.472 417.922 436.872 407.015 434.863C402.213 433.974 398.044 434.353 395.159 434.863Z" fill="url(#paint6_linear_14_232)"/>
<path d="M397.628 424.755L404.153 434.863C404.153 434.863 401.146 437.812 396.032 436.713L388.854 427.138L397.628 424.755Z" fill="url(#paint7_linear_14_232)"/>
<path opacity="0.3" d="M365.072 265.581C354.987 246.322 360.178 216.997 373.084 210.735C376.471 209.092 380.506 209.003 384.918 210.101C382.597 216.767 383.055 221.584 384.205 224.996C389.317 240.223 411.427 238.491 418.332 255.818C422.702 266.769 415.754 272.209 421.952 280.99C428.375 290.091 438.876 288.567 442.12 297.429C444.537 304.035 439.769 307.791 441.602 313.356C442.112 314.905 443.119 316.458 444.809 317.943C433.452 338.239 407.02 354.715 373.341 361.131L369.721 348.287C376.364 341.417 383.251 334.79 390.371 328.416C404.128 316.1 406.956 315.276 407.616 311.386C409.784 298.642 376.805 287.983 365.072 265.581Z" fill="url(#paint8_linear_14_232)"/>
<path d="M384.549 216.779C383.824 245.968 384.227 277.527 386.358 311.124C389.074 354.027 394.164 393.429 400.389 428.84L392.098 431.458C363.672 403.942 355.165 379.739 352.832 362.331C351.184 350.024 353.678 348.965 351.456 333.56C347.225 304.231 336.188 294.183 328.439 266.719C325.526 256.414 322.288 240.844 322.498 220.548L384.549 216.779Z" fill="#010648"/>
<path d="M404.915 164.496C404.395 164.615 402.158 165.355 401.27 174.656C399.135 197.08 410.885 206.158 407.993 218.321C405.211 229.994 391.044 235.66 376.466 241.485C366.72 245.381 336.581 257.428 319.051 243.88C311.676 238.179 310.864 231.296 305.604 205.992C292.233 141.699 287.055 136.176 292.674 122.256C302.328 98.353 328.189 88.4536 332.491 86.8107C378.364 69.2536 432.542 101.525 453.949 138.601C456.769 143.485 473.599 172.639 461.775 186.47C454.619 194.838 438.178 196.186 427.326 190.478C412.825 182.855 409.742 163.398 404.915 164.496Z" fill="url(#paint9_linear_14_232)"/>
<path d="M455.05 181.504C455.191 181.504 455.342 181.474 455.478 181.41C455.995 181.172 456.228 180.564 455.99 180.049C455.597 179.19 446.125 159.003 424.243 151.036C423.986 150.942 423.703 150.954 423.454 151.068C423.205 151.182 423.011 151.389 422.915 151.645C422.719 152.177 422.994 152.768 423.528 152.964C444.579 160.629 454.008 180.697 454.102 180.9C454.28 181.279 454.656 181.504 455.05 181.504Z" fill="white"/>
<path d="M369.145 158.439C369.264 157.511 370.209 151.106 375.597 149.054C378.275 148.033 382.983 147.736 384.812 150.658C385.96 152.491 385.858 155.406 384.354 156.838C382.441 158.647 379.955 156.494 376.52 157.986C372.393 159.773 371.72 164.729 370.298 164.397C369.174 164.137 368.823 160.894 369.145 158.439Z" fill="url(#paint10_linear_14_232)"/>
<path d="M369.145 158.439C369.264 157.511 370.209 151.106 375.597 149.054C378.275 148.033 382.983 147.736 384.812 150.658C385.96 152.491 385.858 155.406 384.354 156.838C382.441 158.647 379.955 156.494 376.52 157.986C372.393 159.773 371.72 164.729 370.298 164.397C369.174 164.137 368.823 160.894 369.145 158.439Z" fill="url(#paint11_linear_14_232)"/>
<g opacity="0.3">
<path d="M322.669 114.037C325.564 121.865 316.877 128.65 320.603 137.154C325.945 149.337 347.154 143.084 354.732 155.131C363.721 169.413 343.141 192.836 351.63 200.85C355.499 204.505 359.97 199.828 371.28 202.394C387.39 206.049 392.229 218.697 399.724 216.777C402.082 216.173 404.937 214.05 407.337 207.503C408.383 211.133 408.886 214.582 407.993 218.313C405.211 229.987 391.044 235.653 376.466 241.477C366.72 245.374 336.581 257.421 319.051 243.872C311.676 238.171 310.864 231.288 305.604 205.984C292.233 141.704 287.055 136.181 292.674 122.261C295.739 114.675 300.443 108.5 305.567 103.551C316.617 105.976 321.152 109.945 322.669 114.042V114.037Z" fill="url(#paint12_linear_14_232)"/>
<path d="M322.669 114.037C325.564 121.865 316.877 128.65 320.603 137.154C325.945 149.337 347.154 143.084 354.732 155.131C363.721 169.413 343.141 192.836 351.63 200.85C355.499 204.505 359.97 199.828 371.28 202.394C387.39 206.049 392.229 218.697 399.724 216.777C402.082 216.173 404.937 214.05 407.337 207.503C408.383 211.133 408.886 214.582 407.993 218.313C405.211 229.987 391.044 235.653 376.466 241.477C366.72 245.374 336.581 257.421 319.051 243.872C311.676 238.171 310.864 231.288 305.604 205.984C292.233 141.704 287.055 136.181 292.674 122.261C295.739 114.675 300.443 108.5 305.567 103.551C316.617 105.976 321.152 109.945 322.669 114.042V114.037Z" fill="url(#paint13_linear_14_232)"/>
</g>
<path d="M368.803 152.41C367.566 153.528 353.691 168.334 338.593 164.585C325.445 161.322 317.371 148.619 315.961 137.938C312.599 112.528 345.926 91.1974 341.814 86.0535C339.397 83.0325 326.526 88.644 317.508 94.2729C310.11 98.8923 279.12 118.241 279.946 150.675C280.03 153.969 280.565 174.826 294.465 185.24C313.235 199.301 342.242 198.925 373.232 164.934L368.803 152.41Z" fill="#6165D7"/>
<path d="M436.565 121.274L421.623 168.688C421.382 169.449 420.911 170.116 420.274 170.599C419.638 171.081 418.868 171.354 418.07 171.38L398.534 174.2C396.015 174.289 394.085 171.993 394.617 169.546L407.79 121.014C407.976 120.176 408.436 119.424 409.098 118.877C409.76 118.329 410.586 118.019 411.444 117.993L432.75 116.291C435.409 116.207 437.357 118.755 436.565 121.274Z" fill="url(#paint14_linear_14_232)"/>
<path d="M435.845 122.835L421.343 168.853C420.868 170.36 419.488 171.407 417.897 171.466L400.728 174.205C400.159 174.227 399.593 174.119 399.072 173.889C398.551 173.658 398.09 173.312 397.723 172.876C397.357 172.44 397.095 171.926 396.957 171.373C396.82 170.821 396.811 170.244 396.93 169.687L409.801 122.556C409.98 121.741 410.427 121.01 411.07 120.478C411.713 119.947 412.515 119.646 413.349 119.624L432.153 117.998C434.727 117.914 436.619 120.388 435.845 122.835Z" fill="url(#paint15_linear_14_232)"/>
<path opacity="0.3" d="M396.925 169.69L409.217 124.659C410.128 125.109 411.451 125.799 412.689 126.853C417.533 130.98 420.302 138.45 418.706 144.423C416.672 152.038 408.844 152.276 407.76 158.615C406.914 163.576 410.962 168.829 414.307 172.038L400.723 174.203C398.276 174.292 396.408 172.067 396.925 169.69Z" fill="url(#paint16_linear_14_232)"/>
<path d="M379.781 82.2408C378.923 85.2222 380.734 88.32 383.762 89.0474C387.437 89.9282 391.913 91.1455 393.842 92.2466C397.39 94.2631 383.037 91.9324 369.835 91.6255C361.596 91.435 355.435 90.5146 351.969 89.8515C351.041 89.6734 350.969 88.3843 351.867 88.0948C355.165 87.0309 360.529 85.4573 365.06 84.8956C370.674 84.193 376.686 71.8911 376.686 71.8911L381.496 76.2309L379.781 82.2408Z" fill="url(#paint17_linear_14_232)"/>
<path d="M379.781 82.2408C378.923 85.2222 380.734 88.32 383.762 89.0474C387.437 89.9282 391.913 91.1455 393.842 92.2466C397.39 94.2631 383.037 91.9324 369.835 91.6255C361.596 91.435 355.435 90.5146 351.969 89.8515C351.041 89.6734 350.969 88.3843 351.867 88.0948C355.165 87.0309 360.529 85.4573 365.06 84.8956C370.674 84.193 376.686 71.8911 376.686 71.8911L381.496 76.2309L379.781 82.2408Z" fill="url(#paint18_linear_14_232)"/>
<path d="M427.546 155.057L426.636 153.573C425.827 150.492 422.85 148.488 419.671 148.872L414.878 149.458C413.379 149.641 412.362 151.061 412.671 152.529C413.117 154.656 414.267 157.2 417.211 156.999C422.219 156.663 425.416 163.905 425.416 163.905L427.338 161.22C427.976 160.328 428.336 159.268 428.373 158.171C428.41 157.075 428.122 155.99 427.546 155.057Z" fill="url(#paint19_linear_14_232)"/>
<path d="M427.546 155.057L426.636 153.573C425.827 150.492 422.85 148.488 419.671 148.872L414.878 149.458C413.379 149.641 412.362 151.061 412.671 152.529C413.117 154.656 414.267 157.2 417.211 156.999C422.219 156.663 425.416 163.905 425.416 163.905L427.338 161.22C427.976 160.328 428.336 159.268 428.373 158.171C428.41 157.075 428.122 155.99 427.546 155.057Z" fill="url(#paint20_linear_14_232)"/>
<path d="M390.497 75.9365C394.647 75.3278 399.288 71.8614 399.199 69.0012C399.075 65.0696 390.027 62.9171 385.455 61.8284C380.87 60.7398 378.923 61.1307 377.614 62.1253C376.275 63.1373 375.395 64.9509 375.103 66.5195C374.947 67.3707 374.937 68.5484 375.085 70.8841L375.234 73.4795C375.365 74.9517 375.768 77.5422 377.216 81.1323C377.952 80.3268 378.756 79.5867 379.621 78.9204C380.744 78.0524 381.975 77.3331 383.282 76.7802C386.269 75.5851 387.979 76.3125 390.497 75.9414V75.9365Z" fill="url(#paint21_linear_14_232)"/>
<path d="M375.006 77.1289C375.006 77.1289 375.276 82.8716 380.722 85.3904C385.596 87.6494 392.068 77.5372 390.287 73.6749C389.693 72.3859 387.852 70.9854 385.972 70.5524C384.859 70.2976 384.312 70.5178 382.501 70.0626C380.835 69.6419 380.506 69.2584 379.866 69.3871C379.061 69.5479 378.032 70.4584 377.263 74.0238C376.864 72.6333 375.979 71.7005 375.014 71.6411C374.858 71.6287 374.417 71.6757 374.054 71.9083C372.732 72.7545 372.99 74.8774 375.006 77.1289Z" fill="url(#paint22_linear_14_232)"/>
<path d="M375.006 77.1289C375.006 77.1289 375.276 82.8716 380.722 85.3904C385.596 87.6494 392.068 77.5372 390.287 73.6749C389.693 72.3859 387.852 70.9854 385.972 70.5524C384.859 70.2976 384.312 70.5178 382.501 70.0626C380.835 69.6419 380.506 69.2584 379.866 69.3871C379.061 69.5479 378.032 70.4584 377.263 74.0238C376.864 72.6333 375.979 71.7005 375.014 71.6411C374.858 71.6287 374.417 71.6757 374.054 71.9083C372.732 72.7545 372.99 74.8774 375.006 77.1289Z" fill="url(#paint23_linear_14_232)"/>
</g>
</g>
<defs>
<linearGradient id="paint0_linear_14_232" x1="35528.7" y1="66399.4" x2="10269.4" y2="55184.8" gradientUnits="userSpaceOnUse">
<stop stop-color="#444B8C"/>
<stop offset="0.996" stop-color="#26264F"/>
</linearGradient>
<linearGradient id="paint1_linear_14_232" x1="20919.2" y1="76424.7" x2="29743.3" y2="-47034" gradientUnits="userSpaceOnUse">
<stop stop-color="#444B8C"/>
<stop offset="0.996" stop-color="#26264F"/>
</linearGradient>
<linearGradient id="paint2_linear_14_232" x1="14336.9" y1="68188.5" x2="44004.6" y2="58057.4" gradientUnits="userSpaceOnUse">
<stop stop-color="#30ABBA"/>
<stop offset="1" stop-color="#6F6CFF"/>
</linearGradient>
<linearGradient id="paint3_linear_14_232" x1="953.598" y1="151.398" x2="970.722" y2="130.668" gradientUnits="userSpaceOnUse">
<stop stop-color="#30ABBA"/>
<stop offset="1" stop-color="#6F6CFF"/>
</linearGradient>
<linearGradient id="paint4_linear_14_232" x1="6124.44" y1="2082.41" x2="6150.21" y2="1786.24" gradientUnits="userSpaceOnUse">
<stop stop-color="#30ABBA"/>
<stop offset="1" stop-color="#6F6CFF"/>
</linearGradient>
<linearGradient id="paint5_linear_14_232" x1="6124.45" y1="4256.3" x2="6156.17" y2="3928.01" gradientUnits="userSpaceOnUse">
<stop stop-color="#30ABBA"/>
<stop offset="1" stop-color="#6F6CFF"/>
</linearGradient>
<linearGradient id="paint6_linear_14_232" x1="5672.99" y1="2388.95" x2="5702.44" y2="2829.18" gradientUnits="userSpaceOnUse">
<stop stop-color="#444B8C"/>
<stop offset="0.996" stop-color="#26264F"/>
</linearGradient>
<linearGradient id="paint7_linear_14_232" x1="2787.74" y1="2311.1" x2="2834.35" y2="2679.36" gradientUnits="userSpaceOnUse">
<stop stop-color="#311944"/>
<stop offset="1" stop-color="#A03976"/>
</linearGradient>
<linearGradient id="paint8_linear_14_232" x1="15832" y1="17705.5" x2="12700.5" y2="17705.5" gradientUnits="userSpaceOnUse">
<stop stop-color="#444B8C"/>
<stop offset="0.996" stop-color="#3E4177"/>
</linearGradient>
<linearGradient id="paint9_linear_14_232" x1="28557.4" y1="21194.4" x2="27164.7" y2="27675.8" gradientUnits="userSpaceOnUse">
<stop stop-color="#6165D7"/>
<stop offset="0.996" stop-color="#30ABBA"/>
</linearGradient>
<linearGradient id="paint10_linear_14_232" x1="2814.32" y1="1049.01" x2="2901.99" y2="1202.52" gradientUnits="userSpaceOnUse">
<stop stop-color="#311944"/>
<stop offset="1" stop-color="#A03976"/>
</linearGradient>
<linearGradient id="paint11_linear_14_232" x1="370.886" y1="153.808" x2="387.835" y2="162.207" gradientUnits="userSpaceOnUse">
<stop stop-color="#FEBBBA"/>
<stop offset="1" stop-color="#FF928E"/>
</linearGradient>
<linearGradient id="paint12_linear_14_232" x1="15417.5" y1="4419.32" x2="19372.2" y2="15833.2" gradientUnits="userSpaceOnUse">
<stop stop-color="#FFC444"/>
<stop offset="0.996" stop-color="#F36F56"/>
</linearGradient>
<linearGradient id="paint13_linear_14_232" x1="19299" y1="18497.1" x2="17772.8" y2="23979.6" gradientUnits="userSpaceOnUse">
<stop stop-color="#E38C7A"/>
<stop offset="0.996" stop-color="#F36F56"/>
</linearGradient>
<linearGradient id="paint14_linear_14_232" x1="7989.78" y1="4045.97" x2="6974.84" y2="3484.8" gradientUnits="userSpaceOnUse">
<stop stop-color="#444B8C"/>
<stop offset="0.996" stop-color="#26264F"/>
</linearGradient>
<linearGradient id="paint15_linear_14_232" x1="7090.18" y1="3104.42" x2="6480.3" y2="3875.78" gradientUnits="userSpaceOnUse">
<stop stop-color="#444B8C"/>
<stop offset="0.996" stop-color="#26264F"/>
</linearGradient>
<linearGradient id="paint16_linear_14_232" x1="3938.13" y1="2505.71" x2="4967.52" y2="3636.05" gradientUnits="userSpaceOnUse">
<stop stop-color="#444B8C"/>
<stop offset="0.996" stop-color="#26264F"/>
</linearGradient>
<linearGradient id="paint17_linear_14_232" x1="6748.52" y1="462.263" x2="6775.93" y2="941.912" gradientUnits="userSpaceOnUse">
<stop stop-color="#311944"/>
<stop offset="1" stop-color="#A03976"/>
</linearGradient>
<linearGradient id="paint18_linear_14_232" x1="356.067" y1="79.097" x2="384.107" y2="106.606" gradientUnits="userSpaceOnUse">
<stop stop-color="#FEBBBA"/>
<stop offset="1" stop-color="#FF928E"/>
</linearGradient>
<linearGradient id="paint19_linear_14_232" x1="3136.69" y1="1101.93" x2="3036.29" y2="1101.93" gradientUnits="userSpaceOnUse">
<stop stop-color="#311944"/>
<stop offset="1" stop-color="#A03976"/>
</linearGradient>
<linearGradient id="paint20_linear_14_232" x1="414.382" y1="153.958" x2="430.42" y2="162.024" gradientUnits="userSpaceOnUse">
<stop stop-color="#FEBBBA"/>
<stop offset="1" stop-color="#FF928E"/>
</linearGradient>
<linearGradient id="paint21_linear_14_232" x1="4238.22" y1="413.405" x2="4178.79" y2="629.298" gradientUnits="userSpaceOnUse">
<stop stop-color="#444B8C"/>
<stop offset="0.996" stop-color="#010648"/>
</linearGradient>
<linearGradient id="paint22_linear_14_232" x1="2986.85" y1="420.511" x2="3025.65" y2="524.137" gradientUnits="userSpaceOnUse">
<stop stop-color="#311944"/>
<stop offset="1" stop-color="#A03976"/>
</linearGradient>
<linearGradient id="paint23_linear_14_232" x1="375.181" y1="74.9287" x2="392.731" y2="83.8891" gradientUnits="userSpaceOnUse">
<stop stop-color="#FEBBBA"/>
<stop offset="1" stop-color="#FF928E"/>
</linearGradient>
<clipPath id="clip0_14_232">
<rect width="492.371" height="480" fill="white" transform="translate(0.722412)"/>
</clipPath>
</defs>
</svg>
