<svg width="476" height="480" viewBox="0 0 476 480" fill="none" xmlns="http://www.w3.org/2000/svg">
<g clip-path="url(#clip0_14_158)">
<path d="M113.899 28.6464C97.9915 51.6561 116.642 88.9703 93.0447 106.276C70.0699 123.12 41.8478 95.5109 20.2012 110.009C-11.9192 131.525 -6.05202 229.967 40.9064 291.132C55.0245 309.523 66.8264 316.684 72.0552 337.487C83.2746 382.155 43.84 408.727 51.3453 430.823C68.2431 480.564 328.14 522.308 432.426 372.811C481.127 302.985 488.42 202.162 444.901 125.59C366.263 -12.785 149.591 -22.9862 113.899 28.6464Z" fill="#F4F7FA"/>
<path d="M141.777 60.7851L161.711 59.4453L162.752 80.6282H129.893L137.042 64.4038C137.9 62.4605 139.687 61.0974 141.774 60.7874L141.777 60.7851Z" fill="url(#paint0_linear_14_158)"/>
<path d="M158.759 62.0226C159.518 60.2914 161.261 59.1986 163.153 59.2731L327.695 65.8766C329.886 65.9628 331.864 67.2118 332.894 69.1481L341.778 85.8968L151.402 78.8623L158.759 62.0226Z" fill="url(#paint1_linear_14_158)"/>
<path d="M99.3271 91.7965V409.757C99.3273 413.175 100.48 416.494 102.6 419.176C104.72 421.858 107.682 423.747 111.008 424.537L145.451 432.715L183.173 173.105L146.533 72.3682L112.578 76.7278C108.915 77.1996 105.55 78.9896 103.111 81.763C100.672 84.5364 99.3268 88.1033 99.3271 91.7965Z" fill="url(#paint2_linear_14_158)"/>
<path d="M135.83 85.6029V419.289C135.831 421.107 136.206 422.906 136.932 424.572C137.658 426.239 138.72 427.739 140.051 428.977C141.382 430.215 142.954 431.166 144.669 431.77C146.384 432.374 148.205 432.618 150.018 432.487L354.794 417.632C358.129 417.389 361.248 415.893 363.525 413.444C365.801 410.996 367.067 407.776 367.067 404.432V94.6017C367.067 87.5229 361.489 81.6953 354.414 81.3808L149.639 72.3796C147.854 72.3022 146.072 72.5869 144.401 73.2164C142.729 73.8459 141.202 74.8073 139.912 76.0426C138.622 77.2779 137.595 78.7615 136.894 80.4041C136.192 82.0468 135.831 83.8167 135.83 85.6029Z" fill="url(#paint3_linear_14_158)"/>
<path d="M120.3 416.083V88.4364C120.3 82.7603 124.578 76.998 129.9 74.5024L123.816 75.2854C118.399 77.2683 114.62 82.4574 114.62 88.4388V416.085C114.62 420.168 116.386 423.901 119.254 426.494L127.892 428.547C123.32 426.191 120.3 421.433 120.3 416.085V416.083Z" fill="url(#paint4_linear_14_158)"/>
<path opacity="0.3" d="M354.422 81.3811L183.197 73.8525L183.635 80.0809C188.237 118.383 223.969 124.497 237.719 167.159C250.32 206.244 224.975 215.532 239.881 249.908C253.852 282.119 279.94 282.799 295.589 323.467C302.456 341.31 298.986 345.227 304.783 364.029C309.742 380.113 319.018 399.099 337.055 418.919L354.797 417.63C358.131 417.387 361.25 415.891 363.527 413.442C365.804 410.994 367.069 407.774 367.069 404.43V94.602C367.076 87.5162 361.496 81.691 354.424 81.3788L354.422 81.3811Z" fill="url(#paint5_linear_14_158)"/>
<path d="M167.352 119.946V210.182C167.352 216.59 172.546 221.776 178.947 221.776H330.174C336.58 221.776 341.767 216.583 341.767 210.182V126.981C341.765 123.999 340.615 121.133 338.556 118.976C336.497 116.82 333.687 115.538 330.708 115.398L179.48 108.364C172.877 108.054 167.352 113.334 167.352 119.946Z" fill="url(#paint6_linear_14_158)"/>
<path d="M336.533 210.184V126.983C336.531 124.001 335.381 121.135 333.322 118.978C331.263 116.822 328.453 115.54 325.475 115.4L177.11 108.499C174.388 108.936 171.911 110.329 170.123 112.427C168.334 114.525 167.351 117.192 167.35 119.949V210.184C167.35 216.592 172.543 221.779 178.944 221.779H324.932C331.34 221.783 336.531 216.592 336.531 210.184H336.533Z" fill="url(#paint7_linear_14_158)"/>
<path opacity="0.7" d="M282.825 127.752V133.193C282.826 134.325 283.266 135.413 284.052 136.228C284.838 137.043 285.908 137.522 287.04 137.564L322.639 138.865C325.118 138.955 327.171 136.973 327.171 134.493V129.053C327.169 127.92 326.73 126.833 325.944 126.018C325.158 125.203 324.087 124.724 322.956 124.681L287.357 123.381C284.882 123.288 282.825 125.273 282.825 127.752Z" fill="#F4F7FA"/>
<path d="M353.674 97.9271C353.674 100.987 351.555 103.47 348.939 103.47C346.322 103.47 344.206 100.987 344.206 97.9271C344.206 94.8677 346.322 92.3838 348.939 92.3838C351.555 92.3838 353.674 94.8677 353.674 97.9271Z" fill="url(#paint8_linear_14_158)"/>
<path d="M283.323 305.504L283.146 292.052C283.083 287.364 279.229 283.61 274.541 283.673L237.861 284.162C233.175 284.225 229.419 288.077 229.482 292.765L229.666 306.776C229.729 311.513 233.662 315.288 238.397 315.148L275.065 314.102C279.712 313.969 283.388 310.141 283.323 305.504Z" fill="url(#paint9_linear_14_158)"/>
<path d="M228.946 251.886L229.176 269.289C229.239 273.975 233.093 277.731 237.782 277.668L274.462 277.179C279.15 277.116 282.904 273.262 282.841 268.576L282.617 251.655C282.554 247.009 278.77 243.276 274.129 243.276H237.441C236.316 243.277 235.203 243.501 234.165 243.936C233.127 244.37 232.186 245.006 231.396 245.807C230.606 246.608 229.983 247.557 229.562 248.601C229.141 249.644 228.932 250.761 228.946 251.886Z" fill="url(#paint10_linear_14_158)"/>
<path d="M289.813 305.061C289.875 309.801 293.809 313.573 298.541 313.436L335.965 312.371C337.498 312.326 338.955 311.688 340.027 310.59C341.099 309.492 341.702 308.021 341.711 306.487L341.774 291.386C341.774 286.651 337.903 282.832 333.171 282.897L298.012 283.361C295.761 283.394 293.615 284.319 292.044 285.932C290.473 287.545 289.606 289.715 289.633 291.966L289.813 305.061Z" fill="url(#paint11_linear_14_158)"/>
<path d="M229.987 330.247L230.171 344.232C230.188 345.369 230.432 346.491 230.889 347.532C231.347 348.572 232.008 349.511 232.835 350.292C233.661 351.072 234.635 351.679 235.7 352.077C236.765 352.475 237.899 352.655 239.035 352.607L275.699 351.001C280.282 350.801 283.882 346.994 283.82 342.403L283.64 328.97C283.577 324.231 279.644 320.458 274.909 320.596L238.241 321.642C233.594 321.78 229.924 325.61 229.987 330.247Z" fill="url(#paint12_linear_14_158)"/>
<path d="M167.352 308.438C167.352 313.221 171.304 317.064 176.087 316.926L214.942 315.822C219.576 315.689 223.253 311.858 223.188 307.219L222.999 292.851C222.936 288.163 219.082 284.41 214.397 284.472L173.804 285.013C172.095 285.033 170.462 285.726 169.26 286.941C168.058 288.156 167.382 289.795 167.38 291.505L167.352 308.438Z" fill="url(#paint13_linear_14_158)"/>
<path d="M284.353 382.8L284.129 365.89C284.067 361.1 280.052 357.311 275.268 357.518L238.604 359.121C234.018 359.324 230.418 363.132 230.481 367.72L230.717 385.323C230.78 390.179 234.892 393.991 239.739 393.686L276.391 391.386C280.912 391.104 284.411 387.325 284.353 382.8Z" fill="url(#paint14_linear_14_158)"/>
<path d="M224.001 368.521C223.985 367.385 223.741 366.263 223.283 365.222C222.826 364.182 222.165 363.243 221.339 362.463C220.513 361.682 219.539 361.075 218.474 360.677C217.409 360.279 216.275 360.099 215.14 360.147L173.685 361.959C170.218 362.109 167.473 364.954 167.457 368.428L167.354 389.191C167.356 390.351 167.595 391.498 168.056 392.562C168.517 393.626 169.191 394.584 170.036 395.378C170.881 396.172 171.88 396.785 172.971 397.179C174.062 397.572 175.221 397.739 176.379 397.668L216.286 395.161C220.807 394.879 224.304 391.1 224.246 386.572L224.001 368.521Z" fill="url(#paint15_linear_14_158)"/>
<path d="M222.685 269.375L222.449 251.655C222.387 247.009 218.602 243.276 213.961 243.276H175.847C173.595 243.278 171.436 244.174 169.843 245.767C168.25 247.36 167.354 249.519 167.352 251.771V269.997C167.352 274.73 171.222 278.549 175.955 278.486L214.303 277.973C215.418 277.96 216.52 277.727 217.545 277.287C218.57 276.848 219.498 276.211 220.276 275.412C221.054 274.613 221.667 273.669 222.08 272.633C222.493 271.597 222.7 270.49 222.685 269.375Z" fill="url(#paint16_linear_14_158)"/>
<path d="M290.605 365.094L290.824 381.553C290.887 386.407 294.999 390.221 299.848 389.916L333.814 387.782C338.288 387.5 341.774 383.79 341.774 379.305V363.483C341.774 358.646 337.743 354.788 332.912 355L298.725 356.495C294.142 356.696 290.549 360.503 290.605 365.094Z" fill="url(#paint17_linear_14_158)"/>
<path d="M341.774 327.435C341.774 322.649 337.822 318.806 333.038 318.946L298.369 319.934C293.734 320.067 290.06 323.898 290.122 328.539L290.295 341.616C290.311 342.752 290.555 343.874 291.013 344.915C291.47 345.956 292.132 346.894 292.958 347.675C293.784 348.456 294.759 349.063 295.824 349.46C296.889 349.858 298.023 350.038 299.159 349.99L336.023 348.38C339.169 348.242 341.653 345.665 341.676 342.52L341.774 327.435Z" fill="url(#paint18_linear_14_158)"/>
<path d="M289.328 268.497C289.391 273.183 293.245 276.939 297.933 276.876L335.918 276.371C339.152 276.329 341.746 273.7 341.75 270.475L341.781 251.776C341.778 249.524 340.882 247.366 339.289 245.773C337.696 244.181 335.537 243.286 333.285 243.283H297.6C292.865 243.283 289.046 247.153 289.111 251.886L289.328 268.497Z" fill="url(#paint19_linear_14_158)"/>
<path d="M223.5 330.69C223.437 325.95 219.504 322.178 214.769 322.315L173.746 323.483C170.232 323.58 167.431 326.451 167.42 329.965L167.357 346.867C167.357 351.705 171.388 355.563 176.218 355.351L215.573 353.632C220.157 353.429 223.757 349.622 223.694 345.034L223.5 330.69Z" fill="url(#paint20_linear_14_158)"/>
<path d="M286.182 305.711L286.005 292.259C285.942 287.571 282.088 283.815 277.4 283.88L240.72 284.367C236.032 284.432 232.278 288.284 232.341 292.972L232.525 306.981C232.588 311.72 236.521 315.493 241.253 315.355L277.924 314.309C282.571 314.176 286.24 310.345 286.182 305.711Z" fill="url(#paint21_linear_14_158)"/>
<path d="M231.8 252.093L232.031 269.497C232.094 274.182 235.948 277.939 240.636 277.876L277.316 277.386C282.004 277.323 285.758 273.469 285.695 268.784L285.472 251.862C285.409 247.216 281.625 243.483 276.983 243.483H240.293C235.554 243.488 231.737 247.358 231.8 252.093Z" fill="url(#paint22_linear_14_158)"/>
<path d="M292.665 305.268C292.727 310.008 296.661 313.78 301.395 313.643L338.817 312.58C340.35 312.535 341.807 311.897 342.879 310.799C343.951 309.702 344.554 308.231 344.563 306.696L344.626 291.593C344.626 286.86 340.755 283.041 336.023 283.104L300.866 283.57C296.178 283.633 292.422 287.487 292.485 292.173L292.665 305.268Z" fill="url(#paint23_linear_14_158)"/>
<path d="M232.842 330.454L233.026 344.447C233.091 349.237 237.103 353.026 241.889 352.819L278.554 351.216C283.137 351.013 286.737 347.206 286.674 342.618L286.494 329.182C286.432 324.443 282.498 320.67 277.766 320.808L241.095 321.856C238.865 321.917 236.749 322.853 235.205 324.462C233.661 326.072 232.81 328.224 232.842 330.454Z" fill="url(#paint24_linear_14_158)"/>
<path d="M170.204 308.645C170.204 313.428 174.156 317.271 178.94 317.133L217.794 316.029C222.428 315.896 226.105 312.065 226.04 307.424L225.851 293.059C225.788 288.37 221.934 284.617 217.246 284.679L176.654 285.22C174.945 285.24 173.312 285.933 172.11 287.148C170.907 288.363 170.232 290.002 170.23 291.712L170.204 308.645Z" fill="url(#paint25_linear_14_158)"/>
<path d="M287.208 383.007L286.981 366.1C286.965 364.964 286.721 363.842 286.264 362.801C285.806 361.761 285.145 360.823 284.319 360.042C283.493 359.261 282.519 358.654 281.454 358.256C280.389 357.858 279.256 357.678 278.12 357.726L241.456 359.331C236.873 359.532 233.273 363.339 233.336 367.929L233.571 385.533C233.634 390.387 237.751 394.199 242.595 393.896L279.248 391.594C283.768 391.312 287.263 387.535 287.208 383.007Z" fill="url(#paint26_linear_14_158)"/>
<path d="M226.853 368.729C226.837 367.592 226.593 366.47 226.135 365.43C225.678 364.389 225.017 363.451 224.191 362.67C223.365 361.89 222.391 361.282 221.326 360.885C220.261 360.487 219.128 360.306 217.992 360.354L176.537 362.165C173.07 362.316 170.325 365.161 170.309 368.635L170.206 389.397C170.208 390.556 170.446 391.704 170.907 392.768C171.368 393.832 172.042 394.791 172.887 395.585C173.733 396.379 174.731 396.992 175.822 397.386C176.913 397.78 178.073 397.947 179.231 397.876L219.138 395.366C223.659 395.084 227.156 391.307 227.098 386.78L226.853 368.729Z" fill="url(#paint27_linear_14_158)"/>
<path d="M225.544 269.583L225.308 251.862C225.246 247.216 221.461 243.483 216.82 243.483H178.707C174.018 243.483 170.213 247.284 170.213 251.977V270.203C170.213 274.937 174.084 278.756 178.816 278.691L217.165 278.181C221.853 278.123 225.602 274.276 225.544 269.583Z" fill="url(#paint28_linear_14_158)"/>
<path d="M293.464 365.301L293.683 381.761C293.746 386.614 297.858 390.426 302.705 390.121L336.673 387.989C341.147 387.707 344.633 383.997 344.633 379.51V363.688C344.633 358.853 340.599 354.992 335.769 355.207L301.584 356.703C296.994 356.903 293.401 360.71 293.464 365.301Z" fill="url(#paint29_linear_14_158)"/>
<path d="M344.626 327.642C344.626 322.856 340.676 319.014 335.89 319.154L301.223 320.142C296.586 320.274 292.912 324.105 292.974 328.747L293.147 341.823C293.163 342.96 293.407 344.082 293.865 345.122C294.322 346.163 294.984 347.102 295.81 347.882C296.636 348.663 297.611 349.27 298.676 349.668C299.741 350.065 300.875 350.246 302.011 350.197L338.875 348.587C342.021 348.45 344.505 345.873 344.528 342.727L344.626 327.642Z" fill="url(#paint30_linear_14_158)"/>
<path d="M292.182 268.697C292.245 273.383 296.097 277.139 300.785 277.076L338.773 276.571C342.004 276.529 344.598 273.9 344.602 270.676L344.633 251.977C344.63 249.725 343.734 247.566 342.141 245.974C340.548 244.381 338.389 243.486 336.137 243.483H300.452C295.719 243.483 291.9 247.354 291.963 252.086L292.182 268.697Z" fill="url(#paint31_linear_14_158)"/>
<path d="M226.352 330.897C226.289 326.158 222.356 322.385 217.621 322.523L176.598 323.69C173.084 323.788 170.283 326.659 170.272 330.172L170.209 347.075C170.209 351.91 174.24 355.771 179.072 355.556L218.428 353.837C223.011 353.636 226.611 349.829 226.548 345.239L226.352 330.897Z" fill="url(#paint32_linear_14_158)"/>
<path opacity="0.09" d="M336.137 243.49H300.452C295.717 243.49 291.9 247.361 291.963 252.093L292.182 268.702C292.245 273.39 296.097 277.146 300.785 277.081L338.773 276.575C342.004 276.536 344.598 273.907 344.602 270.68L344.633 251.984C344.63 249.732 343.734 247.573 342.141 245.981C340.548 244.388 338.389 243.493 336.137 243.49ZM336.023 283.097L300.867 283.563C296.178 283.626 292.422 287.48 292.485 292.166L292.658 305.264C292.723 310.001 296.656 313.775 301.388 313.636L338.812 312.573C340.346 312.528 341.802 311.89 342.874 310.792C343.946 309.695 344.55 308.224 344.558 306.69L344.621 291.586C344.626 286.858 340.755 283.039 336.023 283.097ZM344.626 379.512V363.688C344.626 358.853 340.595 354.993 335.764 355.207L302.775 356.649L304.781 364.029C307.193 371.851 310.632 380.356 315.595 389.317L336.666 387.994C338.822 387.855 340.844 386.902 342.323 385.326C343.801 383.751 344.624 381.672 344.626 379.512ZM301.514 350.186L302.011 350.193L338.875 348.58C342.021 348.443 344.505 345.866 344.528 342.72L344.626 327.647C344.626 322.863 340.674 319.02 335.89 319.158L301.221 320.148C298.893 320.216 296.805 321.218 295.316 322.781L295.587 323.471C300.366 335.872 300.147 341.553 301.514 350.186ZM277.395 283.88L267.646 284.006C273.984 289.775 280.38 296.015 286.166 304.842L285.998 292.252C285.984 291.137 285.75 290.036 285.31 289.012C284.869 287.988 284.232 287.06 283.433 286.283C282.634 285.505 281.689 284.893 280.653 284.48C279.617 284.068 278.51 283.864 277.395 283.88ZM285.688 268.784L285.465 251.862C285.402 247.216 281.615 243.483 276.976 243.483H240.289C239.352 243.483 238.448 243.644 237.602 243.926L239.881 249.907C245.366 262.565 252.729 270.352 260.595 277.61L277.309 277.386C278.425 277.373 279.527 277.14 280.552 276.7C281.577 276.26 282.505 275.622 283.283 274.823C284.062 274.024 284.675 273.079 285.087 272.043C285.5 271.007 285.704 269.899 285.688 268.784Z" fill="#F4F7FA"/>
<path opacity="0.7" d="M309.975 205.561H200.749C199.231 205.56 197.775 204.956 196.701 203.882C195.627 202.808 195.023 201.352 195.022 199.834V157.538C195.022 156.769 195.177 156.008 195.477 155.301C195.777 154.593 196.217 153.953 196.769 153.418C197.322 152.884 197.976 152.466 198.694 152.19C199.411 151.914 200.177 151.785 200.945 151.81L310.171 155.48C311.656 155.53 313.064 156.156 314.098 157.224C315.131 158.293 315.709 159.721 315.709 161.208V199.827C315.705 202.991 313.139 205.561 309.975 205.561Z" fill="#F4F7FA"/>
<path opacity="0.3" d="M330.179 221.786C336.587 221.786 341.774 216.592 341.774 210.191V126.983C341.772 124.002 340.622 121.135 338.563 118.978C336.504 116.822 333.694 115.541 330.715 115.4L195.802 109.125C208.783 125.993 228.342 138.1 237.712 167.161C246.098 193.174 237.677 205.992 235.503 221.786H330.179Z" fill="#F4F7FA"/>
<path d="M392.735 307.624C392.402 310.448 390.107 312.638 387.628 312.494L213.006 302.575C209.699 302.379 206.318 299.163 206.707 295.88L221.063 174.552C221.455 171.269 225.579 168.955 228.846 169.479L401.566 194.078C404.015 194.47 405.735 197.103 405.402 199.927L392.738 307.624H392.735Z" fill="#97A6B7"/>
<path d="M395.92 308.202C395.587 311.042 393.28 313.244 390.792 313.095L214.338 302.754C211.013 302.558 208.604 299.702 208.995 296.4L223.419 174.487C223.81 171.185 226.83 168.92 230.113 169.449L404.787 194.123C407.249 194.519 408.981 197.159 408.64 200.001L395.918 308.204L395.92 308.202Z" fill="white"/>
<path d="M269.844 266.794L239.047 264.033C237.872 263.93 237.05 262.975 237.229 261.917L238.373 255.02C238.55 253.962 239.655 253.193 240.829 253.307L271.587 256.292C272.707 256.402 273.483 257.334 273.318 258.368L272.197 265.102C272.029 266.132 270.971 266.892 269.844 266.794ZM308.22 270.233L279.073 267.621C277.964 267.523 277.193 266.598 277.361 265.568L278.477 258.857C278.649 257.828 279.695 257.073 280.804 257.182L309.917 260.006C310.981 260.111 311.711 261.013 311.545 262.019L310.457 268.569C310.292 269.583 309.285 270.324 308.22 270.233ZM344.586 273.488L316.958 271.016C315.905 270.923 315.18 270.026 315.341 269.024L316.429 262.497C316.595 261.497 317.59 260.761 318.643 260.864L346.236 263.543C346.469 263.56 346.697 263.625 346.904 263.735C347.111 263.844 347.292 263.996 347.437 264.18C347.581 264.365 347.686 264.577 347.744 264.804C347.801 265.031 347.811 265.267 347.771 265.498L346.714 271.883C346.553 272.854 345.597 273.579 344.586 273.488ZM379.1 276.58L352.879 274.229C351.879 274.136 351.194 273.269 351.355 272.295L352.413 265.936C352.574 264.965 353.524 264.245 354.524 264.342L380.714 266.885C381.674 266.975 382.324 267.833 382.171 268.788L381.134 275.005C381.047 275.471 380.792 275.889 380.417 276.18C380.041 276.47 379.573 276.613 379.1 276.58Z" fill="#D8DEE8"/>
<path d="M258.915 236.955L244.234 235.317C241.535 235.016 239.58 232.527 239.909 229.783L241.675 214.835C241.997 212.092 244.476 210.142 247.167 210.492L261.821 212.412C264.442 212.757 266.318 215.236 266.001 217.927L264.265 232.597C263.948 235.282 261.544 237.244 258.915 236.95V236.955Z" fill="url(#paint33_linear_14_158)"/>
<path d="M258.06 235.426L245.447 234.005C242.952 233.723 241.162 231.435 241.461 228.897L242.98 216.072C243.278 213.535 245.557 211.741 248.041 212.065L260.63 213.698C263.063 214.015 264.794 216.298 264.501 218.787L263.012 231.404C262.714 233.895 260.498 235.701 258.06 235.426ZM247.971 212.696C245.827 212.421 243.872 213.968 243.614 216.147L242.094 228.967C241.836 231.148 243.376 233.119 245.522 233.362L258.135 234.792C260.234 235.03 262.143 233.476 262.397 231.33L263.89 218.705C264.144 216.559 262.655 214.593 260.561 214.323L247.971 212.696Z" fill="white"/>
<path d="M263.972 220.627L243.073 218.015L243.148 217.377L264.046 219.998L263.972 220.627Z" fill="white"/>
<path d="M263.415 225.372L242.498 222.834L242.577 222.203L263.489 224.745L263.415 225.372Z" fill="white"/>
<path d="M262.851 230.116L241.927 227.66L242.001 227.021L262.926 229.489L262.851 230.116Z" fill="white"/>
<path d="M255.01 232.441L249.162 231.768C248.803 231.723 248.456 231.608 248.142 231.429C247.827 231.249 247.551 231.01 247.33 230.724C247.108 230.438 246.945 230.111 246.85 229.762C246.755 229.413 246.73 229.049 246.776 228.69L248.099 217.533C248.276 216.014 249.646 214.928 251.135 215.117L256.972 215.865C257.69 215.969 258.338 216.35 258.777 216.926C259.217 217.503 259.414 218.228 259.326 218.948L258.014 230.013C257.841 231.514 256.49 232.614 255.01 232.441Z" fill="#FEC045"/>
<path d="M254.978 232.758L249.127 232.085C247.461 231.896 246.263 230.353 246.466 228.657L247.787 217.494C247.99 215.797 249.513 214.583 251.175 214.802L257.012 215.55C258.657 215.762 259.836 217.305 259.635 218.983L258.324 230.048C258.123 231.728 256.623 232.949 254.978 232.758ZM251.096 215.436C250.778 215.399 250.456 215.424 250.149 215.511C249.841 215.599 249.554 215.746 249.304 215.945C249.053 216.144 248.845 216.39 248.69 216.67C248.535 216.95 248.437 217.257 248.402 217.575L247.086 228.732C246.925 230.079 247.873 231.302 249.204 231.451L255.052 232.124C256.362 232.273 257.552 231.306 257.708 229.974L259.02 218.908C259.1 218.271 258.926 217.629 258.537 217.119C258.147 216.609 257.573 216.272 256.937 216.182L251.096 215.436Z" fill="white"/>
<path opacity="0.3" d="M280.501 276.885C265.058 277.501 255.201 276.834 244.418 272.2C229.361 265.729 219.9 254.745 214.776 247.554L208.995 296.4C208.604 299.702 211.02 302.561 214.338 302.754L390.792 313.095C393.28 313.24 395.587 311.038 395.921 308.202L397.952 291.029C375.982 272.722 356.975 268.944 343.251 269.105C326.367 269.301 316.105 275.471 280.501 276.885Z" fill="#D8DEE8"/>
<path d="M276.475 290.756L234.44 287.779C233.618 287.72 233.023 286.996 233.121 286.169L233.927 279.365C233.977 278.965 234.177 278.599 234.487 278.341C234.797 278.084 235.194 277.954 235.596 277.978L277.591 281.273C278.355 281.331 278.908 282.04 278.814 282.832L278.039 289.405C277.948 290.204 277.239 290.815 276.475 290.756ZM351.665 296.279L300.296 292.639C299.543 292.586 298.995 291.891 299.093 291.097L299.865 284.57C299.958 283.776 300.652 283.177 301.407 283.235L352.73 287.261C353.427 287.313 353.913 287.979 353.827 288.739L353.086 294.99C353 295.75 352.362 296.33 351.665 296.279ZM383.417 232.986C389.872 228.955 391.836 220.453 387.805 213.998C383.774 207.544 375.271 205.58 368.817 209.613C362.362 213.647 360.398 222.147 364.429 228.601C368.46 235.056 376.963 237.02 383.417 232.986ZM274.145 227.616C273.087 228.422 271.535 228.254 270.678 227.224C269.82 226.194 269.993 224.694 271.069 223.89C271.592 223.505 272.241 223.335 272.885 223.414C273.529 223.494 274.118 223.816 274.532 224.316C274.732 224.555 274.881 224.831 274.971 225.13C275.06 225.428 275.087 225.741 275.051 226.05C275.015 226.36 274.916 226.658 274.76 226.928C274.604 227.197 274.395 227.43 274.145 227.616ZM280.679 237.663C280.448 237.647 280.231 237.537 280.075 237.353C279.765 236.978 279.828 236.421 280.22 236.111C282.983 233.928 284.766 230.736 285.177 227.238C285.588 223.741 284.592 220.223 282.41 217.459C282.1 217.063 282.167 216.503 282.554 216.217C282.747 216.079 282.985 216.021 283.219 216.056C283.454 216.092 283.665 216.217 283.808 216.405C286.257 219.532 287.371 223.499 286.908 227.443C286.445 231.387 284.442 234.989 281.336 237.463C281.152 237.616 280.909 237.679 280.679 237.663ZM278.425 234.948C278.195 234.925 277.971 234.823 277.815 234.631C277.498 234.252 277.568 233.69 277.964 233.378C282.265 229.997 282.985 223.883 279.581 219.593C279.264 219.197 279.334 218.638 279.73 218.339C279.926 218.199 280.168 218.141 280.406 218.175C280.644 218.209 280.859 218.334 281.007 218.523C284.98 223.58 284.141 230.756 279.103 234.748C278.901 234.902 278.654 234.972 278.425 234.948Z" fill="#D8DEE8"/>
<path d="M276.135 232.187C276.015 232.176 275.898 232.141 275.792 232.085C275.686 232.029 275.591 231.952 275.515 231.858C275.191 231.474 275.261 230.91 275.664 230.593C278.453 228.436 278.912 224.498 276.699 221.753C276.377 221.357 276.447 220.793 276.848 220.488C277.046 220.345 277.291 220.283 277.532 220.315C277.774 220.347 277.994 220.471 278.148 220.66C278.818 221.485 279.317 222.436 279.614 223.456C279.911 224.476 280.002 225.546 279.879 226.602C279.632 228.724 278.544 230.633 276.82 231.98C276.726 232.06 276.617 232.12 276.499 232.156C276.381 232.191 276.257 232.202 276.135 232.187Z" fill="#D8DEE8"/>
<path d="M398.435 453.386L405.497 456.837L406.7 453.644L401.944 449.653L398.435 453.386Z" fill="url(#paint34_linear_14_158)"/>
<path d="M405.607 454.068C405.661 453.819 405.804 453.598 406.009 453.446C406.215 453.295 406.469 453.223 406.723 453.246C407.24 453.297 407.804 453.465 408.205 453.891C408.976 454.702 408.752 455.949 408.326 458.192C407.923 460.327 407.706 461.408 406.774 462.046C405.842 462.685 404.726 462.557 403.927 462.466C403.19 462.384 402.023 462.251 401.671 461.448C401.534 461.126 401.487 460.63 401.736 460.252C402.23 459.497 403.414 459.963 404.122 459.18C404.237 459.055 404.318 458.917 404.554 457.911L405.607 454.068Z" fill="#26264F"/>
<path d="M385.838 374.75C383.51 376.383 368.477 387.304 366.682 406.956C365.308 422.025 372.566 432.946 374.7 436.057C383.389 448.721 395.657 453.041 399.469 454.22L403.305 450.55C391.896 443.483 385.54 430.451 387.029 417.171C388.49 404.139 397.267 392.999 409.626 388.467C410.276 387.006 412.623 381.318 410.12 376.907C406.895 371.213 396.3 368.862 385.838 374.75Z" fill="url(#paint35_linear_14_158)"/>
<path d="M457.4 473.951L458.074 475.028C458.074 476.868 458.104 478.42 456.389 477.754C454.716 477.104 450.333 476.2 449.361 475.804C447.297 474.965 445.312 473.525 445.139 472.565C444.967 471.605 450.85 472.565 452.686 472.607C454.522 472.649 457.4 473.951 457.4 473.951Z" fill="#26264F"/>
<path d="M454.83 465.6L457.188 474.508C457.188 474.508 455.676 475.4 453.047 473.054L449.17 465.595H454.83V465.6Z" fill="url(#paint36_linear_14_158)"/>
<path opacity="0.3" d="M409.626 388.46C410.276 386.999 412.623 381.311 410.12 376.9C407.068 371.511 397.381 369.129 387.479 373.911C389.739 380.368 389.026 383.916 387.495 385.981C385.148 389.15 380.768 389.024 379.899 392.423C378.915 396.27 383.907 398.806 382.872 402.499C381.94 405.812 377.592 404.938 374.78 408.774C371.403 413.38 372.284 421.978 376.432 426.613C379.64 430.197 383.182 429.598 385.183 433.717C386.761 436.949 384.948 438.098 386.339 440.985C388.807 446.093 395.571 444.769 399.39 450.068C400.052 450.988 400.511 451.953 400.839 452.913L403.312 450.55C391.901 443.483 385.547 430.451 387.036 417.169C388.49 404.132 397.267 392.992 409.626 388.46Z" fill="url(#paint37_linear_14_158)"/>
<path d="M385.838 376.665C390.785 388.851 402.874 411.942 413.226 427.337C425.781 446.013 439.165 460.033 450.251 470.046C451.011 470.253 452.162 470.479 453.553 470.374C455.371 470.248 456.745 469.633 457.517 469.219C456.706 465.579 455.28 460.143 452.726 453.856C445.852 436.954 438.279 432.268 431.256 420.822C416.372 396.564 425.028 376.262 414.985 372.398C410.95 370.856 398.947 363.476 385.838 376.665Z" fill="url(#paint38_linear_14_158)"/>
<path d="M398.721 274.001L399.176 270.303C400.688 271.055 418.597 280.373 421.291 300.755C423.297 315.926 416.062 331.163 402.794 339.73C376.993 321.034 372.883 315.122 373.945 313.195C375.567 310.257 388.767 317.382 398.388 310.441C403.381 306.839 404.917 301.249 405.486 299.161C409.027 286.257 399.774 275.215 398.721 274.001Z" fill="#FC9D8A"/>
<path d="M286.499 307.708L291.635 303.998C296.15 307.27 303.39 311.641 313.167 314.188C324.487 317.14 331.158 314.903 347.105 313.787C370.783 312.123 382.618 311.291 391.787 316.427C407.068 324.978 413.492 343.596 415.349 348.99C417.355 354.803 418.415 360.855 419.536 367.267C420.99 375.588 421.691 379.787 420.445 381.793C416.022 388.937 394.22 387.774 379.915 376.699C368.288 367.691 371.312 359.657 359.345 350.451C348.613 342.191 340.429 344.227 326.943 339.66C315.98 335.946 301.239 327.767 286.499 307.708Z" fill="#FC9D8A"/>
<path d="M400.275 261.024C400.275 261.024 403.104 265.247 402.484 269.208C401.865 273.169 398.721 274.001 398.721 274.001L400.275 261.024Z" fill="url(#paint39_linear_14_158)"/>
<path d="M290.311 304.952L287.401 301.307L283.272 297.458C283.272 297.458 282.007 298.546 284.728 301.3C285.246 301.825 285.355 302.44 285.28 303.02C285.136 304.171 284.055 304.975 282.892 304.935L276.056 304.987C276.056 304.987 279.977 308.703 286.492 307.696L290.311 304.952Z" fill="url(#paint40_linear_14_158)"/>
<path d="M363.588 312.515C362.856 312.545 362.742 313.58 363.451 313.764C367.827 314.915 374.619 316.495 376.926 315.949C378.51 315.52 380.082 315.048 381.642 314.535C382.658 314.097 380.041 313.396 379.093 312.815L378.051 312.608C377.38 312.193 377.051 311.394 377.235 310.63L377.89 307.971L373.687 306.857L372.657 309.929C372.437 310.588 372.022 311.165 371.466 311.583C370.91 312.001 370.241 312.24 369.546 312.268L363.588 312.515Z" fill="url(#paint41_linear_14_158)"/>
<path d="M374.199 309.581C373.871 309.404 371.208 309.076 370.839 307.643C370.338 305.699 372.088 303.33 372.307 302.95C373.221 301.358 373.444 301.139 373.871 300.869L374.458 300.524L374.526 300.501C374.901 300.375 376.171 300.368 376.429 300.426C377.247 300.622 378.046 303.987 377.69 308.714L377.776 309.26C377.851 309.742 374.176 309.754 374.199 309.581Z" fill="url(#paint42_linear_14_158)"/>
<path d="M371.692 300.224C371.997 301.116 373.216 302.036 373.761 302.451C373.843 302.507 374.074 302.714 374.279 303.043C374.313 303.097 374.34 303.155 374.36 303.215C374.658 304.147 373.165 305.198 373.44 305.62C373.64 305.923 374.647 305.543 374.756 305.809C374.861 306.056 374.02 306.538 374.141 306.839C374.234 307.062 374.745 306.874 375.061 307.219C375.218 307.391 375.171 307.524 375.327 308.041C375.418 308.335 375.544 308.656 375.642 308.833C376.131 309.707 377.557 310.054 377.839 309.714C377.921 309.621 377.858 309.535 377.944 309.22C377.944 309.22 378.023 308.919 378.237 308.582C378.547 308.092 379.272 307.759 380.001 307.253C381.364 306.321 381.744 305.504 381.858 305.229L381.893 305.142L381.947 305.003C382.25 304.008 381.469 302.933 381.043 302.432C380.432 301.726 379.414 300.673 377.914 299.737C377.506 299.483 373.542 297.034 372.088 298.241C371.576 298.676 371.485 299.62 371.692 300.224Z" fill="#26264F"/>
<path d="M373.976 305.292C374.344 304.809 374.964 305.287 374.959 305.925C374.954 306.564 374.313 307.214 373.717 307.074C373.12 306.934 373.475 305.949 373.976 305.292Z" fill="url(#paint43_linear_14_158)"/>
<path opacity="0.3" d="M402.356 377.613C398.579 373.03 404.15 363.982 398.831 358.674C394.972 354.82 390.608 358.15 385.179 354.268C377.967 349.109 382.066 339.407 375.488 336.652C368.535 333.742 362.327 340.511 353.466 337.095C347.622 334.842 348.664 331.258 342.894 327.847C332.889 321.931 323.986 329.28 310.303 327.404C308.055 327.099 305.466 326.514 302.602 325.41C311.585 333.185 320.022 337.319 326.947 339.661C340.427 344.228 348.617 342.198 359.35 350.449C371.312 359.657 368.293 367.699 379.922 376.697C394.22 387.775 416.022 388.93 420.449 381.793C420.967 380.959 421.146 379.748 421.076 378.028C409.684 381.311 404.519 380.235 402.356 377.613Z" fill="url(#paint44_linear_14_158)"/>
</g>
<defs>
<linearGradient id="paint0_linear_14_158" x1="1845.23" y1="501.554" x2="2075.97" y2="819.286" gradientUnits="userSpaceOnUse">
<stop stop-color="#AA80F9"/>
<stop offset="0.996" stop-color="#6165D7"/>
</linearGradient>
<linearGradient id="paint1_linear_14_158" x1="15132.8" y1="1020.19" x2="15140" y2="569.528" gradientUnits="userSpaceOnUse">
<stop stop-color="#30ABBA"/>
<stop offset="1" stop-color="#6F6CFF"/>
</linearGradient>
<linearGradient id="paint2_linear_14_158" x1="-2629.62" y1="18145.9" x2="5363.63" y2="19347.1" gradientUnits="userSpaceOnUse">
<stop stop-color="#010648"/>
<stop offset="0.996" stop-color="#3C3B6B"/>
</linearGradient>
<linearGradient id="paint3_linear_14_158" x1="13609.5" y1="39091.4" x2="36557.7" y2="39091.4" gradientUnits="userSpaceOnUse">
<stop stop-color="#40447E"/>
<stop offset="0.996" stop-color="#010648"/>
</linearGradient>
<linearGradient id="paint4_linear_14_158" x1="882.753" y1="61536.9" x2="1066.55" y2="61536.5" gradientUnits="userSpaceOnUse">
<stop stop-color="#30ABBA"/>
<stop offset="1" stop-color="#6F6CFF"/>
</linearGradient>
<linearGradient id="paint5_linear_14_158" x1="14634.8" y1="36561.2" x2="29144.8" y2="36561.2" gradientUnits="userSpaceOnUse">
<stop stop-color="#40447E"/>
<stop offset="0.996" stop-color="#3C3B6B"/>
</linearGradient>
<linearGradient id="paint6_linear_14_158" x1="24355.5" y1="7711.51" x2="17465.8" y2="9081.59" gradientUnits="userSpaceOnUse">
<stop stop-color="#FF9085"/>
<stop offset="1" stop-color="#FB6FBB"/>
</linearGradient>
<linearGradient id="paint7_linear_14_158" x1="14380.1" y1="10516.6" x2="16992.2" y2="3303.58" gradientUnits="userSpaceOnUse">
<stop stop-color="#30ABBA"/>
<stop offset="1" stop-color="#6F6CFF"/>
</linearGradient>
<linearGradient id="paint8_linear_14_158" x1="1748.94" y1="581.114" x2="1787.82" y2="546.028" gradientUnits="userSpaceOnUse">
<stop stop-color="#30ABBA"/>
<stop offset="1" stop-color="#6F6CFF"/>
</linearGradient>
<linearGradient id="paint9_linear_14_158" x1="6892.36" y1="5791.49" x2="6950.98" y2="6130.92" gradientUnits="userSpaceOnUse">
<stop stop-color="#AA80F9"/>
<stop offset="0.996" stop-color="#6165D7"/>
</linearGradient>
<linearGradient id="paint10_linear_14_158" x1="7132.18" y1="6216.79" x2="7201.7" y2="6585.6" gradientUnits="userSpaceOnUse">
<stop stop-color="#AA80F9"/>
<stop offset="0.996" stop-color="#6165D7"/>
</linearGradient>
<linearGradient id="paint11_linear_14_158" x1="7971.59" y1="5413.98" x2="8028.59" y2="5743.29" gradientUnits="userSpaceOnUse">
<stop stop-color="#AA80F9"/>
<stop offset="0.996" stop-color="#6165D7"/>
</linearGradient>
<linearGradient id="paint12_linear_14_158" x1="6668.67" y1="5962.54" x2="6729.31" y2="6307.48" gradientUnits="userSpaceOnUse">
<stop stop-color="#AA80F9"/>
<stop offset="0.996" stop-color="#6165D7"/>
</linearGradient>
<linearGradient id="paint13_linear_14_158" x1="5719" y1="6196.69" x2="5779.12" y2="6546.79" gradientUnits="userSpaceOnUse">
<stop stop-color="#AA80F9"/>
<stop offset="0.996" stop-color="#6165D7"/>
</linearGradient>
<linearGradient id="paint14_linear_14_158" x1="6439.79" y1="6780.76" x2="6516.56" y2="7167.44" gradientUnits="userSpaceOnUse">
<stop stop-color="#AA80F9"/>
<stop offset="0.996" stop-color="#6165D7"/>
</linearGradient>
<linearGradient id="paint15_linear_14_158" x1="5316.28" y1="7297.96" x2="5394.58" y2="7699.6" gradientUnits="userSpaceOnUse">
<stop stop-color="#AA80F9"/>
<stop offset="0.996" stop-color="#6165D7"/>
</linearGradient>
<linearGradient id="paint16_linear_14_158" x1="5919.81" y1="6609.79" x2="5990.8" y2="6987.43" gradientUnits="userSpaceOnUse">
<stop stop-color="#AA80F9"/>
<stop offset="0.996" stop-color="#6165D7"/>
</linearGradient>
<linearGradient id="paint17_linear_14_158" x1="7396.32" y1="6312.53" x2="7471.55" y2="6685.37" gradientUnits="userSpaceOnUse">
<stop stop-color="#AA80F9"/>
<stop offset="0.996" stop-color="#6165D7"/>
</linearGradient>
<linearGradient id="paint18_linear_14_158" x1="7686.33" y1="5574.1" x2="7745.71" y2="5908.4" gradientUnits="userSpaceOnUse">
<stop stop-color="#AA80F9"/>
<stop offset="0.996" stop-color="#6165D7"/>
</linearGradient>
<linearGradient id="paint19_linear_14_158" x1="8277.94" y1="5843.8" x2="8345.84" y2="6204.06" gradientUnits="userSpaceOnUse">
<stop stop-color="#AA80F9"/>
<stop offset="0.996" stop-color="#6165D7"/>
</linearGradient>
<linearGradient id="paint20_linear_14_158" x1="5523.85" y1="6384.53" x2="5585.59" y2="6740.8" gradientUnits="userSpaceOnUse">
<stop stop-color="#AA80F9"/>
<stop offset="0.996" stop-color="#6165D7"/>
</linearGradient>
<linearGradient id="paint21_linear_14_158" x1="5809.02" y1="4515.47" x2="5970.68" y2="3930.03" gradientUnits="userSpaceOnUse">
<stop stop-color="#30ABBA"/>
<stop offset="1" stop-color="#6F6CFF"/>
</linearGradient>
<linearGradient id="paint22_linear_14_158" x1="7036.15" y1="3495.1" x2="4833.17" y2="7400.48" gradientUnits="userSpaceOnUse">
<stop stop-color="#AA80F9"/>
<stop offset="0.996" stop-color="#6165D7"/>
</linearGradient>
<linearGradient id="paint23_linear_14_158" x1="8053" y1="3780.54" x2="6186.26" y2="7385.66" gradientUnits="userSpaceOnUse">
<stop stop-color="#AA80F9"/>
<stop offset="0.996" stop-color="#6165D7"/>
</linearGradient>
<linearGradient id="paint24_linear_14_158" x1="5820.01" y1="5139.86" x2="5992.29" y2="4537.12" gradientUnits="userSpaceOnUse">
<stop stop-color="#30ABBA"/>
<stop offset="1" stop-color="#6F6CFF"/>
</linearGradient>
<linearGradient id="paint25_linear_14_158" x1="4472.68" y1="4671.66" x2="4642.81" y2="4048.25" gradientUnits="userSpaceOnUse">
<stop stop-color="#30ABBA"/>
<stop offset="1" stop-color="#6F6CFF"/>
</linearGradient>
<linearGradient id="paint26_linear_14_158" x1="5836.27" y1="6438.35" x2="6104.31" y2="5703.17" gradientUnits="userSpaceOnUse">
<stop stop-color="#30ABBA"/>
<stop offset="1" stop-color="#6F6CFF"/>
</linearGradient>
<linearGradient id="paint27_linear_14_158" x1="4558.14" y1="6730.53" x2="4838.7" y2="5932.99" gradientUnits="userSpaceOnUse">
<stop stop-color="#30ABBA"/>
<stop offset="1" stop-color="#6F6CFF"/>
</linearGradient>
<linearGradient id="paint28_linear_14_158" x1="4431.71" y1="4418.52" x2="4664.56" y2="3706.51" gradientUnits="userSpaceOnUse">
<stop stop-color="#30ABBA"/>
<stop offset="1" stop-color="#6F6CFF"/>
</linearGradient>
<linearGradient id="paint29_linear_14_158" x1="6925.68" y1="6169.78" x2="7181.69" y2="5489.98" gradientUnits="userSpaceOnUse">
<stop stop-color="#30ABBA"/>
<stop offset="1" stop-color="#6F6CFF"/>
</linearGradient>
<linearGradient id="paint30_linear_14_158" x1="6978.66" y1="4958.55" x2="7143.66" y2="4393.49" gradientUnits="userSpaceOnUse">
<stop stop-color="#30ABBA"/>
<stop offset="1" stop-color="#6F6CFF"/>
</linearGradient>
<linearGradient id="paint31_linear_14_158" x1="7701.35" y1="3847.96" x2="5550.12" y2="7663.49" gradientUnits="userSpaceOnUse">
<stop stop-color="#AA80F9"/>
<stop offset="0.996" stop-color="#6165D7"/>
</linearGradient>
<linearGradient id="paint32_linear_14_158" x1="4513.42" y1="5333.41" x2="4692.54" y2="4688.86" gradientUnits="userSpaceOnUse">
<stop stop-color="#30ABBA"/>
<stop offset="1" stop-color="#6F6CFF"/>
</linearGradient>
<linearGradient id="paint33_linear_14_158" x1="2556.77" y1="2375.76" x2="3715.1" y2="3212.69" gradientUnits="userSpaceOnUse">
<stop stop-color="#F57E53"/>
<stop offset="0.005" stop-color="#F58152"/>
<stop offset="0.042" stop-color="#F99A4D"/>
<stop offset="0.084" stop-color="#FCAD49"/>
<stop offset="0.133" stop-color="#FEBA46"/>
<stop offset="0.196" stop-color="#FFC244"/>
<stop offset="0.318" stop-color="#FFC444"/>
<stop offset="0.455" stop-color="#FDB946"/>
<stop offset="0.694" stop-color="#F99C4C"/>
<stop offset="0.996" stop-color="#F36F56"/>
</linearGradient>
<linearGradient id="paint34_linear_14_158" x1="1811.47" y1="1847.01" x2="1840.8" y2="1847.01" gradientUnits="userSpaceOnUse">
<stop stop-color="#FFC444"/>
<stop offset="0.996" stop-color="#F36F56"/>
</linearGradient>
<linearGradient id="paint35_linear_14_158" x1="7962.16" y1="16972.7" x2="7763.48" y2="15869.6" gradientUnits="userSpaceOnUse">
<stop stop-color="#40447E"/>
<stop offset="0.996" stop-color="#3C3B6B"/>
</linearGradient>
<linearGradient id="paint36_linear_14_158" x1="1994.57" y1="2297.48" x2="2022.16" y2="2297.48" gradientUnits="userSpaceOnUse">
<stop stop-color="#FFC444"/>
<stop offset="0.996" stop-color="#F36F56"/>
</linearGradient>
<linearGradient id="paint37_linear_14_158" x1="6964.15" y1="16699.1" x2="6742.93" y2="15623.9" gradientUnits="userSpaceOnUse">
<stop stop-color="#40447E"/>
<stop offset="0.996" stop-color="#3C3B6B"/>
</linearGradient>
<linearGradient id="paint38_linear_14_158" x1="12253.2" y1="18641.6" x2="14458.2" y2="18641.6" gradientUnits="userSpaceOnUse">
<stop stop-color="#40447E"/>
<stop offset="0.996" stop-color="#3C3B6B"/>
</linearGradient>
<linearGradient id="paint39_linear_14_158" x1="1059.12" y1="1714.38" x2="1111.26" y2="1852.05" gradientUnits="userSpaceOnUse">
<stop stop-color="#FFC444"/>
<stop offset="0.996" stop-color="#F36F56"/>
</linearGradient>
<linearGradient id="paint40_linear_14_158" x1="1998.44" y1="1633.07" x2="2026.79" y2="1779.98" gradientUnits="userSpaceOnUse">
<stop stop-color="#FFC444"/>
<stop offset="0.996" stop-color="#F36F56"/>
</linearGradient>
<linearGradient id="paint41_linear_14_158" x1="3306.17" y1="1537.01" x2="3459.43" y2="1537.01" gradientUnits="userSpaceOnUse">
<stop stop-color="#FFC444"/>
<stop offset="0.996" stop-color="#F36F56"/>
</linearGradient>
<linearGradient id="paint42_linear_14_158" x1="1493.03" y1="1511.8" x2="1526.39" y2="1522.29" gradientUnits="userSpaceOnUse">
<stop stop-color="#FFC444"/>
<stop offset="0.996" stop-color="#F36F56"/>
</linearGradient>
<linearGradient id="paint43_linear_14_158" x1="621.281" y1="566.777" x2="628.621" y2="569.149" gradientUnits="userSpaceOnUse">
<stop stop-color="#FFC444"/>
<stop offset="0.996" stop-color="#F36F56"/>
</linearGradient>
<linearGradient id="paint44_linear_14_158" x1="19386.3" y1="7962.92" x2="19107.6" y2="10383.7" gradientUnits="userSpaceOnUse">
<stop stop-color="#E38C7A"/>
<stop offset="0.996" stop-color="#F36F56"/>
</linearGradient>
<clipPath id="clip0_14_158">
<rect width="475.34" height="480" fill="white" transform="translate(0.0603027)"/>
</clipPath>
</defs>
</svg>
