<svg width="493" height="480" viewBox="0 0 493 480" fill="none" xmlns="http://www.w3.org/2000/svg">
<g clip-path="url(#clip0_13_108)">
<path d="M334.106 10.2126C297.308 2.13939 259.043 -1.72955 221.635 0.735573C188.474 2.9209 150.891 8.88592 124.209 30.252C111.495 40.4333 96.328 58.7312 92.1696 74.8727C92.1696 74.8727 70.2778 159.83 26.4868 178.034C-17.3041 196.238 -47.7033 506.938 284.346 476.599C284.346 476.599 479.373 468.649 491.112 239.631C493.949 184.308 492.364 123.485 458.378 77.2317C432.342 41.7864 395.855 26.0236 353.926 14.9957C347.354 13.264 340.746 11.6676 334.106 10.2126Z" fill="#F4F7FA"/>
<path d="M389.292 83.6646L84.5427 75.3502L84.1592 75.232C79.2265 75.0969 74.7449 77.2798 72.0337 80.8376C70.2319 83.1291 69.0573 85.9174 69.0573 89.07V89.3401V100.356V327.063C69.0573 335.144 75.8448 341.449 84.0675 341.145L388.947 329.917C395.973 329.656 401.721 323.423 401.721 315.992V107.488V97.3554V97.107C401.714 89.6754 396.318 83.8599 389.292 83.6646Z" fill="url(#paint0_linear_13_108)"/>
<path d="M406.57 315.992C406.57 323.424 400.913 329.656 393.889 329.917L89.2197 341.145C80.9921 341.449 74.4458 335.144 74.4458 327.063V89.3404C74.4458 81.26 81.0018 74.8945 89.2293 75.1237L393.955 83.5466C400.978 83.742 406.57 89.9217 406.57 97.3532V315.992Z" fill="url(#paint1_linear_13_108)"/>
<path d="M397.404 308.469C397.404 315.488 392.083 321.371 385.428 321.598L98.1901 331.531C90.474 331.796 84.1495 325.855 84.1495 318.257V95.7252C84.1495 88.1272 90.4957 82.1308 98.2167 82.331L385.392 89.7843C392.044 89.958 397.404 95.7855 397.404 102.809V308.469Z" fill="url(#paint2_linear_13_108)"/>
<path d="M406.57 97.1169V107.498L74.4458 100.371V89.0848C74.4458 81.0044 81.3901 74.9212 89.6128 75.1503L394.256 83.5732C401.28 83.7638 406.57 89.6854 406.57 97.1169Z" fill="url(#paint3_linear_13_108)"/>
<path d="M97.3748 88.4577C97.3748 91.5765 94.8036 94.0465 91.6221 93.9717C88.4406 93.8969 85.8524 91.3015 85.8524 88.1755C85.8524 85.0495 88.4357 82.5819 91.6221 82.6615C94.8084 82.7411 97.3748 85.3365 97.3748 88.4577ZM114.833 88.8798C114.833 91.9842 112.284 94.442 109.129 94.3721C105.974 94.3021 103.407 91.7188 103.407 88.6049C103.407 85.4909 105.969 83.0306 109.129 83.1126C112.289 83.1946 114.833 85.7779 114.833 88.8798ZM132.152 89.3068C132.152 92.399 129.624 94.8473 126.496 94.7773C123.367 94.7074 120.822 92.1337 120.822 89.0318C120.822 85.9299 123.362 83.4865 126.496 83.5612C127.998 83.6017 129.427 84.2227 130.482 85.294C131.536 86.3653 132.135 87.8035 132.152 89.3068Z" fill="white"/>
<path opacity="0.81" d="M391.473 179.291L94.9338 178.527V116.464L391.473 121.686V179.291ZM391.473 187.958L94.9338 189.55V319.444L391.473 308.52V187.958Z" fill="white"/>
<path d="M360.485 412.86C360.485 412.86 347.185 418.975 346.97 419.945C346.755 420.914 355.53 419.597 359.117 419.728C362.704 419.858 365.651 418.785 365.323 417.262C364.995 415.74 363.731 411.908 363.731 411.908L360.485 412.86Z" fill="url(#paint4_linear_13_108)"/>
<path d="M359.986 407.925L360.811 413.948C360.811 413.948 362.919 414.696 364.337 413.801L364.926 407.194L359.986 407.925Z" fill="url(#paint5_linear_13_108)"/>
<path d="M422.709 407.92L424.26 410.417C424.475 410.761 424.619 411.146 424.681 411.547C424.743 411.949 424.723 412.358 424.622 412.752L422.547 419.937C421.91 421.38 413.29 422.25 413.29 422.25C413.29 422.25 412.518 421.167 414.303 419.85C416.088 418.533 417.241 418.324 417.865 416.384C418.49 414.445 418.903 408.97 418.903 408.97L422.709 407.92Z" fill="url(#paint6_linear_13_108)"/>
<path d="M416.24 401.584C416.806 402.033 419.592 410.465 419.592 410.465C419.592 410.465 420.495 411.613 422.193 409.913L422.962 409.151L422.622 400.853L416.24 401.584Z" fill="url(#paint7_linear_13_108)"/>
<path d="M352.368 286.931C351.655 306.375 351.801 325.841 352.805 345.272C353.928 366.983 356.123 388.626 359.383 410.12C360.527 410.154 361.673 410.154 362.817 410.12L365.167 409.999C367.092 404.806 368.726 399.51 370.063 394.135C371.74 387.394 372.748 381.349 373.464 375.565C375.982 355.205 372.97 353.439 375.018 338.352C376.829 324.989 379.449 324.463 382.48 305.492C385.768 284.905 383.276 281.823 382.066 280.713C376.904 275.973 364.827 279.239 352.368 286.931Z" fill="url(#paint8_linear_13_108)"/>
<path opacity="0.3" d="M382.07 280.713C377.152 276.195 365.934 278.964 354.098 285.906C367.772 300.675 369.282 310.273 367.658 316.508C365.825 323.554 360.212 325.597 360.256 333.291C360.304 342.754 368.811 345.24 368.657 355.248C368.553 361.867 364.817 361.806 363.956 369.991C362.935 379.67 367.82 382.989 366.257 390.155C365.584 393.238 363.652 397.266 358.138 401.427L359.392 410.13C360.482 410.163 361.631 410.168 362.827 410.13C363.637 410.108 364.419 410.065 365.179 410.011C366.693 405.928 368.478 400.559 370.075 394.147C371.752 387.403 372.76 381.359 373.476 375.574C375.994 355.217 372.979 353.451 375.03 338.361C376.841 325.001 379.46 324.47 382.49 305.502C385.775 284.905 383.279 281.823 382.07 280.713Z" fill="url(#paint9_linear_13_108)"/>
<path d="M360.815 286.606C372.601 303.835 385.315 325.288 396.702 350.972C404.452 368.45 410.952 386.456 416.155 404.855C416.775 405.142 418.232 405.711 420.084 405.455C422.62 405.115 424.134 403.485 424.535 403.031C426.361 391.369 426.134 381.501 425.487 374.378C425.073 369.819 424.339 362.226 421.428 352.855C418.16 342.358 415.928 341.774 411.674 330.672C407.26 319.144 408.316 316.264 404.078 301.84C401.528 293.2 398.372 284.75 394.632 276.555L360.815 286.606Z" fill="url(#paint10_linear_13_108)"/>
<path d="M440.558 223.622C440.43 227.305 438.327 229.384 435.302 233.35L434.547 234.358C431.059 239.064 427.564 244.67 424.412 250.762C419.682 259.907 415.709 270.163 413.644 280.185C413.618 280.298 413.591 280.421 413.569 280.542C413.21 282.309 412.912 284.087 412.675 285.875C411.611 293.984 411.929 302.011 405.902 308.671C404.741 309.95 401.092 313.997 397.486 313.237C393.192 312.34 393.581 305.605 387.876 302.795C386.007 301.869 385.36 302.298 377.164 302.421C372.041 302.491 366.86 302.552 361.307 301.917C356.044 301.322 348.466 300.456 347.672 297.125C347.358 295.798 348.261 294.623 348.987 293.502C352.202 288.535 351.753 285.047 353.473 277.594C356.693 263.669 363.917 251.349 363.826 249.901C363.813 249.843 363.809 249.831 363.804 249.822C363.782 249.783 363.773 249.778 363.76 249.771C363.389 249.578 361.836 252.058 360.439 254.11L360.099 254.593C354.735 262.029 347.662 261.716 339.034 259.986L330.226 258.102C324.697 256.964 318.31 248.353 318.201 244.161C318.083 239.768 326.332 242.108 334.037 237.072C356.459 222.416 345.807 215.061 366.527 205.539C371.665 203.177 376.706 202.294 383.947 201.021C386.721 200.525 389.514 200.145 392.319 199.882C398.854 199.26 405.815 199.147 409.703 199.521C412.257 199.769 414.911 200.36 417.533 201.221C429.475 205.148 440.872 214.762 440.558 223.622Z" fill="url(#paint11_linear_13_108)"/>
<path opacity="0.3" d="M367.195 244.588L363.821 249.906L363.799 249.824C363.777 249.788 363.768 249.781 363.756 249.776C363.384 249.581 361.831 252.063 360.434 254.116L360.094 254.591C354.73 262.027 347.657 261.714 339.03 259.986C343.116 259.125 345.759 258.308 348.789 255.852C356.493 249.615 357.653 240.118 362.132 240.239C364.257 240.287 365.972 242.458 367.195 244.588Z" fill="url(#paint12_linear_13_108)"/>
<path d="M335.178 255.408C335.178 255.408 330.288 253.334 327.678 251.107C325.069 248.881 322.558 250.133 322.432 251.503C322.307 252.873 326.709 256.199 328.665 256.882C330.621 257.564 335.178 255.408 335.178 255.408Z" fill="url(#paint13_linear_13_108)"/>
<path opacity="0.3" d="M434.914 282.105C430.186 284.543 424.626 286.589 419.288 287.906C428.585 280.882 433.766 270.568 431.684 261.74C430.623 257.207 427.752 253.585 424.4 250.762C419.672 259.904 415.697 270.163 413.632 280.182C413.604 280.301 413.58 280.42 413.557 280.539C413.196 282.16 412.899 283.844 412.663 285.614C411.601 293.716 411.917 301.744 405.889 308.406C404.732 309.684 401.08 313.729 397.474 312.972C393.183 312.072 393.571 305.34 387.867 302.53C385.995 301.604 385.348 302.031 377.152 302.156C372.031 302.226 366.85 302.286 361.295 301.652C356.616 301.121 350.113 300.374 348.174 297.872C356.616 297.638 362.255 295.289 366.013 292.899C372.434 288.827 373.385 284.695 380.577 281.9C389.919 278.277 394.41 282.879 399.044 279.16C404.558 274.729 399.674 267.022 403.798 253.633C404.155 252.48 405.692 247.492 408.716 242.557C411.649 237.747 415.994 232.993 422.021 231.903C426.04 231.181 430.96 232.054 434.535 234.346C436.023 235.299 437.275 236.495 438.122 237.916C440.387 241.708 435.939 246.927 438.694 251.115C441.448 255.302 443.276 255.203 446.786 258.691C454.799 266.658 441.409 278.759 434.914 282.105Z" fill="url(#paint14_linear_13_108)"/>
<path d="M430.519 307.685L431.619 305.828C433.365 302.866 432.304 299.086 429.245 297.39L309.289 231.059L302.598 243.531L421.855 309.967C424.896 311.655 428.777 310.637 430.519 307.685Z" fill="#26264F"/>
<path d="M217.1 268.05C251.882 288.099 296.341 275.308 316.262 238.386C336.666 200.57 323.12 153.019 286.189 133.331C249.918 113.996 205.884 129.566 187.639 166.999C169.804 203.58 182.921 248.346 217.1 268.05ZM222.421 257.678C193.544 241.126 182.497 203.349 197.637 172.549C213.074 141.147 250.082 128.261 280.438 144.548C311.257 161.089 322.601 200.826 305.654 232.499C289.042 263.544 251.73 274.468 222.421 257.678Z" fill="url(#paint15_linear_13_108)"/>
<path opacity="0.3" d="M309.289 231.059L324.584 239.518C324.605 244.993 326.159 248.452 327.97 250.743C334.784 259.367 347.38 254.2 361.069 265.515C367.938 271.19 365.931 273.453 372.574 277.809C383.559 285.007 390.382 279.698 400.079 286.181C409.879 292.74 408.989 302.246 415.13 303.198C417.757 303.606 421.498 302.415 426.734 296.006L429.241 297.393C432.299 299.083 433.365 302.863 431.614 305.83L430.514 307.69C428.773 310.647 424.889 311.658 421.85 309.964L302.598 243.524L309.289 231.059Z" fill="url(#paint16_linear_13_108)"/>
<path opacity="0.1" d="M218.209 262.432C248.522 279.819 287.136 268.549 304.351 236.426C321.928 203.631 310.179 162.469 278.25 145.353C246.817 128.503 208.52 141.875 192.567 174.383C176.932 206.246 188.355 245.307 218.209 262.432Z" fill="white"/>
<path d="M279.442 180.666L246.336 213.962C245.879 214.423 245.335 214.789 244.735 215.039C244.135 215.289 243.492 215.418 242.843 215.418C242.193 215.418 241.55 215.289 240.95 215.039C240.35 214.789 239.806 214.423 239.349 213.962L222.964 197.48C222.506 197.019 221.962 196.653 221.362 196.403C220.763 196.153 220.119 196.024 219.47 196.024C218.82 196.024 218.177 196.153 217.577 196.403C216.978 196.653 216.433 197.019 215.976 197.48L213.803 199.665C212.876 200.6 212.356 201.864 212.356 203.18C212.356 204.496 212.876 205.759 213.803 206.694L233.685 226.69L239.351 232.387C239.809 232.849 240.353 233.215 240.953 233.465C241.552 233.715 242.195 233.843 242.845 233.843C243.495 233.843 244.138 233.715 244.738 233.465C245.337 233.215 245.881 232.849 246.339 232.387L252.005 226.69L288.605 189.877C289.532 188.942 290.052 187.679 290.052 186.363C290.052 185.047 289.532 183.784 288.605 182.849L286.432 180.663C285.975 180.202 285.43 179.836 284.831 179.586C284.231 179.336 283.588 179.208 282.938 179.208C282.289 179.208 281.645 179.336 281.046 179.586C280.446 179.836 279.902 180.202 279.444 180.663L279.442 180.666Z" fill="url(#paint17_linear_13_108)"/>
<path d="M213.865 270.911C248.645 290.96 293.106 278.169 313.028 241.247C333.429 203.431 319.885 155.877 282.954 136.19C246.684 116.855 202.649 132.425 184.404 169.857C166.57 206.439 179.689 251.207 213.865 270.911ZM219.186 260.532C190.309 243.98 179.262 206.205 194.4 175.403C209.837 144 246.845 131.115 277.199 147.401C308.018 163.941 319.362 203.679 302.417 235.352C285.805 266.405 248.495 277.329 219.186 260.532Z" fill="url(#paint18_linear_13_108)"/>
<path d="M215.747 267.249C248.599 286.145 290.523 274.008 309.272 239.161C328.443 203.522 315.681 158.743 280.916 140.165C246.744 121.908 205.192 136.52 187.933 171.816C171.051 206.354 183.43 248.659 215.747 267.249ZM219.186 260.532C190.309 243.98 179.262 206.205 194.4 175.403C209.837 144 246.843 131.115 277.199 147.401C308.018 163.943 319.362 203.679 302.415 235.352C285.805 266.402 248.493 277.327 219.186 260.532Z" fill="url(#paint19_linear_13_108)"/>
<path d="M448.612 286.167C439.574 294.561 426.807 294.329 421.136 293.818L418.893 288.208C419.03 288.109 419.164 288.006 419.296 287.899C428.592 280.875 433.773 270.563 431.691 261.735C430.63 257.201 427.762 253.578 424.409 250.756C418.309 245.62 410.574 243.145 409.081 242.67L408.724 242.562C401.883 240.444 399.493 241.845 397.073 239.252C389.567 231.194 399.034 203.035 412.713 201.079C414.262 200.857 415.863 200.901 417.535 201.209C421.587 201.957 426.052 204.275 431.149 208.185C436.95 212.647 444.95 221.037 450.952 234.151C456.186 245.601 463.644 272.194 448.612 286.167Z" fill="url(#paint20_linear_13_108)"/>
<path d="M420.506 292.515L419.363 289.276C419.363 289.276 417.945 289.336 416.254 288.116C415.33 287.45 413.692 287.254 413.217 287.385C412.742 287.515 410.947 287.44 412.99 288.419C415.034 289.399 415.024 290.132 414.165 290.933C413.306 291.734 410.062 293.473 408.9 293.555C407.737 293.637 409.843 295.455 411.022 295.689C412.202 295.923 414.134 296.213 416.529 294.799L420.506 292.515Z" fill="url(#paint21_linear_13_108)"/>
<path d="M420.506 292.515L419.363 289.276C419.363 289.276 417.945 289.336 416.254 288.116C415.33 287.45 413.692 287.254 413.217 287.385C412.742 287.515 410.947 287.44 412.99 288.419C415.034 289.399 415.024 290.132 414.165 290.933C413.306 291.734 410.062 293.473 408.9 293.555C407.737 293.637 409.843 295.455 411.022 295.689C412.202 295.923 414.134 296.213 416.529 294.799L420.506 292.515Z" fill="url(#paint22_linear_13_108)"/>
<path d="M399.099 187.378C399.066 191.018 399.471 193.91 399.854 195.888C400.291 198.153 400.609 198.737 401.012 199.214C401.622 199.928 402.539 200.531 407.732 201.824C410.557 202.529 410.923 202.507 410.981 202.789C411.285 204.164 403.579 208.851 395.616 207.717C390.742 207.025 386.311 204.234 386.578 202.767C386.846 201.301 391.723 202.085 393.173 199.415C394.181 197.557 393.05 194.919 391.711 192.736C393.016 190.292 397.804 189.817 399.099 187.378Z" fill="url(#paint23_linear_13_108)"/>
<path d="M399.099 187.378C399.066 191.018 399.471 193.91 399.854 195.888C400.291 198.153 400.609 198.737 401.012 199.214C401.622 199.928 402.539 200.531 407.732 201.824C410.557 202.529 410.923 202.507 410.981 202.789C411.285 204.164 403.579 208.851 395.616 207.717C390.742 207.025 386.311 204.234 386.578 202.767C386.846 201.301 391.723 202.085 393.173 199.415C394.181 197.557 393.05 194.919 391.711 192.736C393.016 190.292 397.804 189.817 399.099 187.378Z" fill="url(#paint24_linear_13_108)"/>
<path d="M390.062 188.818C389.475 187.94 389.17 186.904 389.188 185.848C389.206 184.792 389.546 183.766 390.163 182.909C391.306 181.452 393.096 181.247 394.174 181.117C397.286 180.755 401.215 182.06 402.585 184.94C403.393 186.645 401.642 190.188 401.367 190.828C401.053 191.549 400.494 191.797 399.97 192.338L396.273 196.303C396.125 195.712 395.911 194.976 395.566 194.18C395.181 193.29 394.684 192.453 394.087 191.689C392.464 189.706 391.149 190.27 390.062 188.818Z" fill="#010648"/>
<path d="M398.899 194.617C398.899 194.617 396.851 197.991 392.78 197.726C389.13 197.487 388.597 189.267 390.925 187.523C391.702 186.944 393.26 186.701 394.529 187.058C395.276 187.27 395.53 187.583 396.76 187.902C397.891 188.201 398.214 188.071 398.554 188.362C398.981 188.724 399.295 189.614 398.581 192.012C399.278 191.303 400.113 191.033 400.706 191.312C400.798 191.356 401.051 191.529 401.191 191.79C401.697 192.721 400.846 193.917 398.899 194.617Z" fill="url(#paint25_linear_13_108)"/>
<path d="M398.899 194.617C398.899 194.617 396.851 197.991 392.78 197.726C389.13 197.487 388.597 189.267 390.925 187.523C391.702 186.944 393.26 186.701 394.529 187.058C395.276 187.27 395.53 187.583 396.76 187.902C397.891 188.201 398.214 188.071 398.554 188.362C398.981 188.724 399.295 189.614 398.581 192.012C399.278 191.303 400.113 191.033 400.706 191.312C400.798 191.356 401.051 191.529 401.191 191.79C401.697 192.721 400.846 193.917 398.899 194.617Z" fill="url(#paint26_linear_13_108)"/>
<path d="M398.716 187.866C398.538 187.996 399.078 188.657 399.121 189.588C399.196 191.402 397.372 193.575 395.508 193.758C394.408 193.867 394.107 193.201 392.283 193.006C391.397 192.916 390.502 192.968 389.632 193.158C389.061 195.145 389.598 197.128 390.92 198.042C392.343 199.033 394.16 198.433 394.919 198.182C395.426 198.013 397.061 197.478 397.913 195.977C398.803 194.412 397.93 193.469 398.948 192.412C399.459 191.877 400.134 191.648 400.793 190.615C400.933 190.391 401.057 190.157 401.164 189.916C400.221 188.92 398.974 187.675 398.716 187.866Z" fill="#010648"/>
<path d="M390.959 193.898C390.959 193.898 391.745 194.311 393.11 194.233C393.176 194.229 393.25 194.25 393.255 194.282C393.289 194.412 392.416 194.991 391.605 194.764C391.034 194.602 390.592 194.06 390.667 193.92C390.701 193.872 390.829 193.876 390.959 193.898Z" fill="url(#paint27_linear_13_108)"/>
<path d="M323.983 256.318C323.983 256.318 317.196 254.977 317.676 252.63C318.156 250.283 318.226 248.52 319.941 249.885C321.656 251.25 328.443 255.322 323.983 256.318Z" fill="url(#paint28_linear_13_108)"/>
<path d="M323.983 256.318C323.983 256.318 317.196 254.977 317.676 252.63C318.156 250.283 318.226 248.52 319.941 249.885C321.656 251.25 328.443 255.322 323.983 256.318Z" fill="url(#paint29_linear_13_108)"/>
<path d="M109.208 416.018C109.208 416.018 108.847 418.927 109.09 419.901C109.334 420.875 117.75 421.58 120.608 421.237C123.466 420.895 118.905 417.967 117.086 417.419C115.268 416.871 109.208 416.018 109.208 416.018Z" fill="url(#paint30_linear_13_108)"/>
<path d="M113.446 411.165L112.556 416.997C112.556 416.997 110.296 418.02 109.208 417.007L109.09 410.904L113.446 411.165Z" fill="url(#paint31_linear_13_108)"/>
<path d="M66.0133 410.904C66.0133 410.904 67.7982 412.235 67.323 413.827C66.8478 415.419 62.6798 421.806 59.7105 423.62C56.7413 425.434 57.6723 421.654 58.5359 419.303C59.3994 416.951 61.6088 411.77 62.4723 410.904C63.3359 410.038 66.0133 410.904 66.0133 410.904Z" fill="url(#paint32_linear_13_108)"/>
<path d="M69.2262 404.498L66.8865 410.369C65.4513 413.613 64.665 414.826 63.7749 415.882C62.9982 416.801 61.1651 418.763 60.6682 418.432C60.1713 418.102 61.51 415.718 64.0981 408.738L65.6611 404.498H69.2262Z" fill="url(#paint33_linear_13_108)"/>
<path d="M131.064 303.515C131.971 312.469 132.079 321.486 131.387 330.46C130.234 345.369 127.268 354.8 123.548 370.695C121.274 380.411 118.21 394.705 115.434 412.588C114.792 412.957 112.899 413.931 110.458 413.57C109.093 413.362 108.075 412.822 107.472 412.426C100.192 390.091 102.344 376.253 105.853 367.625C107.351 363.946 109.165 361.049 110.135 355.4C111.418 347.925 109.833 343.745 107.568 326.429C105.957 314.087 106.237 312.179 107.31 310.326C111.608 302.933 124.723 303.076 131.064 303.515Z" fill="#010648"/>
<path d="M106.024 306.115C101.565 329.242 97.1939 341.384 93.8822 348.251C93.0669 349.947 90.3389 355.41 87.7676 363.249C85.4858 370.186 84.5379 375.288 84.053 377.531C82.5117 384.62 78.7151 394.97 68.4928 408.543C68.3626 408.618 66.6211 409.609 64.9568 408.726C64.3401 408.387 63.8419 407.868 63.5288 407.238C64.8651 394.261 66.3968 383.354 67.7282 374.936C68.008 373.17 69.2382 365.447 71.1678 355.244L74.3541 339.392C76.004 331.904 78.5318 321.723 82.4297 309.525L106.024 306.115Z" fill="#010648"/>
<path d="M109.819 214.647C112.347 212.302 117.183 209.594 119.609 203.305C120.338 201.409 122.926 194.704 119.108 189.571C116.843 186.527 112.638 184.457 108.929 185.191C105.759 185.818 105.262 188.035 99.881 192.497C97.7825 194.236 94.4129 197.024 90.667 198.58C84.2461 201.241 80.3843 198.737 73.9369 199.024C66.0157 199.376 56.8137 203.817 52.3755 210.274C44.5025 221.738 55.9068 233.369 47.2861 246.795C44.4615 251.192 43.0698 250.205 36.3787 258.725C29.6877 267.244 26.3349 271.509 26.9283 276.733C27.7532 283.986 35.5345 290.914 42.8551 291.384C50.0093 291.845 54.556 286.191 58.1934 288.666C60.7864 290.427 59.3029 293.849 62.0527 297.959C65.6008 303.261 72.5765 304.318 73.7053 304.491C84.1592 306.078 98.2577 293.762 104.244 279.172C115.043 252.861 96.0772 227.407 109.819 214.647Z" fill="url(#paint34_linear_13_108)"/>
<path d="M152.72 221.953C152.79 214.608 136.183 208.737 128.587 206.849C116.768 203.908 107.3 205.754 105.004 206.241C90.2641 209.376 81.0814 218.265 77.6249 222.001C80.4543 223.854 88.2621 229.498 92.1286 240.215C93.3298 243.546 96.8828 254.945 91.8054 265.616C88.8772 271.769 83.6961 276.384 79.7596 279.893C73.8549 285.151 70.7988 285.959 68.8209 290.675C66.6645 295.81 68.8378 298.312 66.1628 301.821C63.29 305.596 59.9204 303.842 55.0504 307.656C50.0575 311.566 51.8376 314.776 47.2908 319.099C40.6914 325.377 31.9453 323.334 31.5377 326.161C31.1879 328.588 37.4038 331.887 42.6886 333.224C53.1473 335.872 62.277 331.427 64.9881 330.062C72.4993 326.27 71.204 323.817 76.9302 320.925C86.523 316.088 93.0742 321.472 114.92 322.025C126.749 322.321 132.728 322.391 136.006 318.373C139 314.702 137.425 310.671 135.628 293.314C134.771 285.055 134.463 276.741 133.833 268.46C132.053 245.029 131.995 242.972 133.58 239.732C139.241 228.121 152.657 228.545 152.72 221.953Z" fill="url(#paint35_linear_13_108)"/>
<path opacity="0.09" d="M47.2861 319.096C51.8256 314.779 50.0527 311.561 55.0457 307.651C59.9204 303.833 63.2853 305.589 66.158 301.819C68.833 298.304 66.6646 295.801 68.8161 290.672C70.794 285.959 73.8525 285.154 79.7548 279.888C83.6913 276.379 88.8724 271.764 91.8006 265.611C96.8853 254.935 93.3323 243.541 92.1239 240.21C88.2573 229.498 80.4447 223.849 77.6201 221.996L78.5584 221.01C97.2037 223.583 108.072 234.404 109.414 237.61C112.52 245.019 107.602 247.738 107.472 269.099C107.411 279.309 108.507 283.345 105.207 287.607C101.432 292.482 97.0879 290.969 91.6366 297.344C87.4469 302.241 88.115 305.345 84.2027 307.407C79.996 309.622 77.3114 307.038 72.5669 308.059C64.636 309.759 62.9428 318.939 57.7013 323.964C53.7383 327.768 46.4105 330.421 31.9574 327.572C31.6221 327.085 31.4605 326.607 31.5257 326.159C31.9405 323.337 40.6867 325.372 47.2861 319.096Z" fill="url(#paint36_linear_13_108)"/>
<path d="M103.767 243.379C105.752 247.61 96.644 257.456 86.5181 262.131C84.4582 263.084 69.6482 269.924 63.0488 263.344C57.5927 257.905 61.1143 246.667 62.3686 242.653C68.5362 222.949 87.4878 212.93 95.4307 209.312C101.357 224.201 97.8669 230.834 96.492 232.904C95.0568 235.065 91.0528 239.614 86.7979 243.618C83.8046 246.433 81.9401 247.806 82.1933 248.242C82.5069 248.79 86.0116 247.755 99.6349 241.093C101.215 241.353 103.089 241.932 103.767 243.379Z" fill="url(#paint37_linear_13_108)"/>
<path d="M103.767 243.379C105.752 247.61 96.644 257.456 86.5181 262.131C84.4582 263.084 69.6482 269.924 63.0488 263.344C57.5927 257.905 61.1143 246.667 62.3686 242.653C68.5362 222.949 87.4878 212.93 95.4307 209.312C101.357 224.201 97.8669 230.834 96.492 232.904C95.0568 235.065 91.0528 239.614 86.7979 243.618C83.8046 246.433 81.9401 247.806 82.1933 248.242C82.5069 248.79 86.0116 247.755 99.6349 241.093C101.215 241.353 103.089 241.932 103.767 243.379Z" fill="url(#paint38_linear_13_108)"/>
<path d="M160.769 219.088L154.082 252.533C153.978 253.056 153.723 253.537 153.349 253.918C152.976 254.299 152.5 254.563 151.979 254.678L102.134 265.423C100.349 265.807 98.6943 264.355 98.839 262.524L101.471 228.512C101.562 227.33 102.392 226.346 103.54 226.058C111.444 224.097 141.88 216.76 157.932 215.8C158.35 215.779 158.768 215.853 159.153 216.018C159.539 216.182 159.881 216.433 160.155 216.75C160.428 217.067 160.626 217.442 160.732 217.848C160.839 218.253 160.851 218.677 160.769 219.088Z" fill="#010648"/>
<path d="M111.051 194.668C111.051 194.668 110.113 202.218 107.337 203.945L99.5844 208.549C99.0875 209.162 116.768 211.072 125.533 206.632C122.644 206.024 121.862 205.802 121.862 205.802C121.081 205.58 119.619 205.168 118.152 204.328C117.154 203.759 115.547 202.645 114.071 200.536L114.103 196.354L111.051 194.668Z" fill="url(#paint39_linear_13_108)"/>
<path d="M111.051 194.668C111.051 194.668 110.113 202.218 107.337 203.945L99.5844 208.549C99.0875 209.162 116.768 211.072 125.533 206.632C122.644 206.024 121.862 205.802 121.862 205.802C121.081 205.58 119.619 205.168 118.152 204.328C117.154 203.759 115.547 202.645 114.071 200.536L114.103 196.354L111.051 194.668Z" fill="url(#paint40_linear_13_108)"/>
<path d="M110.627 197.336C110.627 197.336 112.433 199.827 115.275 198.793C117.815 197.861 116.3 191.274 114.283 190.522C113.61 190.273 112.375 190.382 111.555 190.9C110.972 191.262 109.426 193.197 110.316 195.363C109.674 195.179 109.107 195.346 108.967 195.667C108.789 196.072 109.329 196.624 109.452 196.75C109.879 197.176 110.39 197.299 110.627 197.336Z" fill="url(#paint41_linear_13_108)"/>
<path opacity="0.3" d="M115.878 248.003C121.233 246.488 125.668 250.251 129.933 247.272C134.301 244.219 131.448 239.008 135.994 233.885C140.852 228.405 147.01 231.09 151.506 226.092C153.173 224.239 154.676 221.217 154.697 216.06L157.922 215.804C159.712 215.696 161.114 217.322 160.764 219.087L154.078 252.533C153.973 253.056 153.718 253.537 153.345 253.918C152.971 254.298 152.495 254.562 151.974 254.677L104.076 265.001C107.455 253.078 111.968 249.108 115.878 248.003Z" fill="url(#paint42_linear_13_108)"/>
<path d="M157.597 236.879C157.597 236.879 160.778 233.926 161.123 230.499C161.468 227.071 159.068 224.324 156.745 223.627C154.422 222.93 153.18 223.957 154.738 227.337C156.297 230.716 158.776 232.904 157.597 236.879Z" fill="url(#paint43_linear_13_108)"/>
</g>
<defs>
<linearGradient id="paint0_linear_13_108" x1="9592.56" y1="23028.4" x2="55472.3" y2="23028.4" gradientUnits="userSpaceOnUse">
<stop stop-color="#0B5582"/>
<stop offset="1" stop-color="#2D4279"/>
</linearGradient>
<linearGradient id="paint1_linear_13_108" x1="18017.1" y1="35710.6" x2="35776.1" y2="1444.46" gradientUnits="userSpaceOnUse">
<stop stop-color="#30ABBA"/>
<stop offset="1" stop-color="#6F6CFF"/>
</linearGradient>
<linearGradient id="paint2_linear_13_108" x1="17855.4" y1="32588.7" x2="33316" y2="2346.77" gradientUnits="userSpaceOnUse">
<stop stop-color="#30ABBA"/>
<stop offset="1" stop-color="#6F6CFF"/>
</linearGradient>
<linearGradient id="paint3_linear_13_108" x1="18017.1" y1="1487.61" x2="18022" y2="844.69" gradientUnits="userSpaceOnUse">
<stop stop-color="#30ABBA"/>
<stop offset="1" stop-color="#6F6CFF"/>
</linearGradient>
<linearGradient id="paint4_linear_13_108" x1="3044.66" y1="1775.6" x2="3050.16" y2="1923.57" gradientUnits="userSpaceOnUse">
<stop stop-color="#444B8C"/>
<stop offset="0.996" stop-color="#3E4177"/>
</linearGradient>
<linearGradient id="paint5_linear_13_108" x1="1102.54" y1="1620.44" x2="1099.58" y2="1492.51" gradientUnits="userSpaceOnUse">
<stop stop-color="#FFC444"/>
<stop offset="0.996" stop-color="#F36F56"/>
</linearGradient>
<linearGradient id="paint6_linear_13_108" x1="2414.84" y1="2705.25" x2="2440.01" y2="2955.62" gradientUnits="userSpaceOnUse">
<stop stop-color="#444B8C"/>
<stop offset="0.996" stop-color="#3E4177"/>
</linearGradient>
<linearGradient id="paint7_linear_13_108" x1="1586.43" y1="2117.24" x2="1582.05" y2="1935.84" gradientUnits="userSpaceOnUse">
<stop stop-color="#FFC444"/>
<stop offset="0.996" stop-color="#F36F56"/>
</linearGradient>
<linearGradient id="paint8_linear_13_108" x1="5049.49" y1="19072.6" x2="5479.81" y2="19072.3" gradientUnits="userSpaceOnUse">
<stop stop-color="#444B8C"/>
<stop offset="0.996" stop-color="#3E4177"/>
</linearGradient>
<linearGradient id="paint9_linear_13_108" x1="4735.46" y1="19073.6" x2="5136.8" y2="19073.4" gradientUnits="userSpaceOnUse">
<stop stop-color="#444B8C"/>
<stop offset="0.996" stop-color="#3E4177"/>
</linearGradient>
<linearGradient id="paint10_linear_13_108" x1="10109.1" y1="18516.7" x2="11862.2" y2="18514.6" gradientUnits="userSpaceOnUse">
<stop stop-color="#444B8C"/>
<stop offset="0.996" stop-color="#3E4177"/>
</linearGradient>
<linearGradient id="paint11_linear_13_108" x1="21266.3" y1="9297" x2="17902.6" y2="15196.7" gradientUnits="userSpaceOnUse">
<stop stop-color="#AA80F9"/>
<stop offset="0.996" stop-color="#6165D7"/>
</linearGradient>
<linearGradient id="paint12_linear_13_108" x1="4297.91" y1="2398.41" x2="4626.77" y2="2398.41" gradientUnits="userSpaceOnUse">
<stop stop-color="#AA80F9"/>
<stop offset="0.996" stop-color="#6165D7"/>
</linearGradient>
<linearGradient id="paint13_linear_13_108" x1="2038.15" y1="985.529" x2="2056.75" y2="1022.86" gradientUnits="userSpaceOnUse">
<stop stop-color="#AB316D"/>
<stop offset="1" stop-color="#792D3D"/>
</linearGradient>
<linearGradient id="paint14_linear_13_108" x1="14941.2" y1="9424.53" x2="19178" y2="9424.53" gradientUnits="userSpaceOnUse">
<stop stop-color="#AA80F9"/>
<stop offset="0.996" stop-color="#6165D7"/>
</linearGradient>
<linearGradient id="paint15_linear_13_108" x1="19756" y1="11553.5" x2="11157.9" y2="13924.7" gradientUnits="userSpaceOnUse">
<stop offset="0.004" stop-color="#26264F"/>
<stop offset="1" stop-color="#444B8C"/>
</linearGradient>
<linearGradient id="paint16_linear_13_108" x1="22872.4" y1="8690.47" x2="17882.9" y2="11030.1" gradientUnits="userSpaceOnUse">
<stop offset="0.004" stop-color="#26264F"/>
<stop offset="1" stop-color="#444B8C"/>
</linearGradient>
<linearGradient id="paint17_linear_13_108" x1="7473.54" y1="5392" x2="8105.04" y2="3810.94" gradientUnits="userSpaceOnUse">
<stop stop-color="#30ABBA"/>
<stop offset="1" stop-color="#6F6CFF"/>
</linearGradient>
<linearGradient id="paint18_linear_13_108" x1="11703.5" y1="16400.2" x2="16825.4" y2="12021.6" gradientUnits="userSpaceOnUse">
<stop offset="0.004" stop-color="#26264F"/>
<stop offset="1" stop-color="#444B8C"/>
</linearGradient>
<linearGradient id="paint19_linear_13_108" x1="18221.9" y1="11158.5" x2="10571.4" y2="13268.2" gradientUnits="userSpaceOnUse">
<stop offset="0.004" stop-color="#26264F"/>
<stop offset="1" stop-color="#444B8C"/>
</linearGradient>
<linearGradient id="paint20_linear_13_108" x1="12076.4" y1="8411.42" x2="8848.9" y2="11985.6" gradientUnits="userSpaceOnUse">
<stop stop-color="#AA80F9"/>
<stop offset="0.996" stop-color="#6165D7"/>
</linearGradient>
<linearGradient id="paint21_linear_13_108" x1="2446.19" y1="1353.4" x2="2460.53" y2="1301.92" gradientUnits="userSpaceOnUse">
<stop stop-color="#FFC444"/>
<stop offset="0.996" stop-color="#F36F56"/>
</linearGradient>
<linearGradient id="paint22_linear_13_108" x1="409.899" y1="290.253" x2="420.379" y2="297.309" gradientUnits="userSpaceOnUse">
<stop stop-color="#FEBBBA"/>
<stop offset="1" stop-color="#FF928E"/>
</linearGradient>
<linearGradient id="paint23_linear_13_108" x1="4387.33" y1="1713.86" x2="4459.95" y2="2261.32" gradientUnits="userSpaceOnUse">
<stop stop-color="#FFC444"/>
<stop offset="0.996" stop-color="#F36F56"/>
</linearGradient>
<linearGradient id="paint24_linear_13_108" x1="389.303" y1="194.361" x2="412.748" y2="207.793" gradientUnits="userSpaceOnUse">
<stop stop-color="#FEBBBA"/>
<stop offset="1" stop-color="#FF928E"/>
</linearGradient>
<linearGradient id="paint25_linear_13_108" x1="2326.33" y1="1033.16" x2="2325.45" y2="1111.06" gradientUnits="userSpaceOnUse">
<stop stop-color="#FFC444"/>
<stop offset="0.996" stop-color="#F36F56"/>
</linearGradient>
<linearGradient id="paint26_linear_13_108" x1="390.845" y1="190.584" x2="402.663" y2="196.775" gradientUnits="userSpaceOnUse">
<stop stop-color="#FEBBBA"/>
<stop offset="1" stop-color="#FF928E"/>
</linearGradient>
<linearGradient id="paint27_linear_13_108" x1="814.125" y1="269.124" x2="811.327" y2="269.124" gradientUnits="userSpaceOnUse">
<stop stop-color="#FFC444"/>
<stop offset="0.996" stop-color="#F36F56"/>
</linearGradient>
<linearGradient id="paint28_linear_13_108" x1="1357.98" y1="991.475" x2="1362.22" y2="964.37" gradientUnits="userSpaceOnUse">
<stop stop-color="#FFC444"/>
<stop offset="0.996" stop-color="#F36F56"/>
</linearGradient>
<linearGradient id="paint29_linear_13_108" x1="318.528" y1="251.76" x2="326.221" y2="255.951" gradientUnits="userSpaceOnUse">
<stop stop-color="#FEBBBA"/>
<stop offset="1" stop-color="#FF928E"/>
</linearGradient>
<linearGradient id="paint30_linear_13_108" x1="713.713" y1="1290.27" x2="710.968" y2="1406.29" gradientUnits="userSpaceOnUse">
<stop stop-color="#444B8C"/>
<stop offset="0.996" stop-color="#26264F"/>
</linearGradient>
<linearGradient id="paint31_linear_13_108" x1="310.542" y1="1548.92" x2="303.419" y2="1442.3" gradientUnits="userSpaceOnUse">
<stop stop-color="#FFC444"/>
<stop offset="0.996" stop-color="#F36F56"/>
</linearGradient>
<linearGradient id="paint32_linear_13_108" x1="314.985" y1="2630.57" x2="291.967" y2="2925.73" gradientUnits="userSpaceOnUse">
<stop stop-color="#444B8C"/>
<stop offset="0.996" stop-color="#26264F"/>
</linearGradient>
<linearGradient id="paint33_linear_13_108" x1="295.106" y1="2843.77" x2="278.794" y2="2616.5" gradientUnits="userSpaceOnUse">
<stop stop-color="#FFC444"/>
<stop offset="0.996" stop-color="#F36F56"/>
</linearGradient>
<linearGradient id="paint34_linear_13_108" x1="2512.99" y1="13406.4" x2="3583.09" y2="12216.8" gradientUnits="userSpaceOnUse">
<stop stop-color="#444B8C"/>
<stop offset="0.996" stop-color="#26264F"/>
</linearGradient>
<linearGradient id="paint35_linear_13_108" x1="4165.16" y1="17909.3" x2="5706.53" y2="10984.1" gradientUnits="userSpaceOnUse">
<stop stop-color="#FFC444"/>
<stop offset="0.996" stop-color="#FC9D8A"/>
</linearGradient>
<linearGradient id="paint36_linear_13_108" x1="2145.4" y1="14864.2" x2="3752.04" y2="9243.93" gradientUnits="userSpaceOnUse">
<stop stop-color="#FFC444"/>
<stop offset="0.996" stop-color="#F36F56"/>
</linearGradient>
<linearGradient id="paint37_linear_13_108" x1="1254.98" y1="7940.72" x2="2064.61" y2="4952.1" gradientUnits="userSpaceOnUse">
<stop stop-color="#FFC444"/>
<stop offset="0.996" stop-color="#F36F56"/>
</linearGradient>
<linearGradient id="paint38_linear_13_108" x1="1559.12" y1="8023.1" x2="2368.68" y2="5034.53" gradientUnits="userSpaceOnUse">
<stop stop-color="#FFC444"/>
<stop offset="0.996" stop-color="#FC9D8A"/>
</linearGradient>
<linearGradient id="paint39_linear_13_108" x1="1365.19" y1="1505.61" x2="1185.47" y2="1149.83" gradientUnits="userSpaceOnUse">
<stop stop-color="#FFC444"/>
<stop offset="0.996" stop-color="#F36F56"/>
</linearGradient>
<linearGradient id="paint40_linear_13_108" x1="984.965" y1="2231.27" x2="1083.5" y2="1406.94" gradientUnits="userSpaceOnUse">
<stop stop-color="#FFC444"/>
<stop offset="0.996" stop-color="#FC9D8A"/>
</linearGradient>
<linearGradient id="paint41_linear_13_108" x1="-139.476" y1="2778.98" x2="-205.266" y2="2938.33" gradientUnits="userSpaceOnUse">
<stop stop-color="#FFC444"/>
<stop offset="0.996" stop-color="#F36F56"/>
</linearGradient>
<linearGradient id="paint42_linear_13_108" x1="3887.3" y1="5119.52" x2="2552.38" y2="5119.52" gradientUnits="userSpaceOnUse">
<stop stop-color="#AA80F9"/>
<stop offset="0.996" stop-color="#6165D7"/>
</linearGradient>
<linearGradient id="paint43_linear_13_108" x1="571.655" y1="1575.25" x2="415.154" y2="1643.47" gradientUnits="userSpaceOnUse">
<stop stop-color="#FFC444"/>
<stop offset="0.996" stop-color="#F36F56"/>
</linearGradient>
<clipPath id="clip0_13_108">
<rect width="492.06" height="480" fill="white"/>
</clipPath>
</defs>
</svg>
