<?xml version="1.0" encoding="UTF-8" standalone="no"?>
<!-- Created with Inkscape (http://www.inkscape.org/) -->

<svg
   width="64mm"
   height="12mm"
   viewBox="0 0 64 12"
   version="1.1"
   id="svg589"
   inkscape:version="1.2.2 (732a01da63, 2022-12-09)"
   sodipodi:docname="logo.svg"
   xmlns:inkscape="http://www.inkscape.org/namespaces/inkscape"
   xmlns:sodipodi="http://sodipodi.sourceforge.net/DTD/sodipodi-0.dtd"
   xmlns="http://www.w3.org/2000/svg"
   xmlns:svg="http://www.w3.org/2000/svg">
  <sodipodi:namedview
     id="namedview591"
     pagecolor="#ffffff"
     bordercolor="#000000"
     borderopacity="0.25"
     inkscape:showpageshadow="2"
     inkscape:pageopacity="0.0"
     inkscape:pagecheckerboard="0"
     inkscape:deskcolor="#d1d1d1"
     inkscape:document-units="mm"
     showgrid="false"
     inkscape:zoom="2.1341967"
     inkscape:cx="50.838801"
     inkscape:cy="23.428019"
     inkscape:window-width="1920"
     inkscape:window-height="1027"
     inkscape:window-x="-8"
     inkscape:window-y="-8"
     inkscape:window-maximized="1"
     inkscape:current-layer="layer1" />
  <defs
     id="defs586">
    <clipPath
       clipPathUnits="userSpaceOnUse"
       id="clipPath172">
      <path
         d="m 783.793,570.206 h 200 v 40 h -200 z"
         id="path170" />
    </clipPath>
    <clipPath
       clipPathUnits="userSpaceOnUse"
       id="clipPath188">
      <path
         d="m 786.874,591.511 c -0.987,0 -1.787,-0.813 -1.787,-1.816 v 0 -7.262 c 0,-1.002 0.8,-1.815 1.787,-1.815 v 0 h 3.572 c 0.986,0 1.786,0.813 1.786,1.815 v 0 7.262 c 0,1.003 -0.8,1.816 -1.786,1.816 v 0 z"
         id="path186" />
    </clipPath>
    <linearGradient
       x1="0"
       y1="0"
       x2="1"
       y2="0"
       gradientUnits="userSpaceOnUse"
       gradientTransform="matrix(8.1059093,4.8778992,-4.8778992,8.1059093,784.50427,583.56384)"
       spreadMethod="pad"
       id="linearGradient198">
      <stop
         style="stop-opacity:1;stop-color:#30abba"
         offset="0"
         id="stop194" />
      <stop
         style="stop-opacity:1;stop-color:#6165d7"
         offset="1"
         id="stop196" />
    </linearGradient>
    <clipPath
       clipPathUnits="userSpaceOnUse"
       id="clipPath208">
      <path
         d="m 784.754,601.495 h 22.1 c -1.507,4.214 -5.885,7.261 -11.051,7.261 v 0 c -5.165,0 -9.541,-3.047 -11.049,-7.261"
         id="path206" />
    </clipPath>
    <linearGradient
       x1="0"
       y1="0"
       x2="1"
       y2="0"
       gradientUnits="userSpaceOnUse"
       gradientTransform="matrix(3.8828402,10.84142,-10.84142,3.8828402,794.96588,599.15564)"
       spreadMethod="pad"
       id="linearGradient218">
      <stop
         style="stop-opacity:1;stop-color:#30abba"
         offset="0"
         id="stop214" />
      <stop
         style="stop-opacity:1;stop-color:#6165d7"
         offset="1"
         id="stop216" />
    </linearGradient>
    <clipPath
       clipPathUnits="userSpaceOnUse"
       id="clipPath228">
      <path
         d="m 795.803,608.485 c 4.915,0 9.078,-2.812 10.659,-6.717 v 0 h -21.317 c 1.582,3.905 5.745,6.717 10.658,6.717 v 0 0.544 c -5.264,0 -9.751,-3.107 -11.301,-7.44 v 0 l -0.13,-0.366 h 0.382 22.1 v 0.273 l 0.251,0.093 -0.251,-0.094 v -0.272 h 0.382 l -0.131,0.366 c -1.549,4.333 -6.037,7.44 -11.302,7.44 v 0 z m -11.301,-6.896 0.252,-0.093 v -10e-4 z"
         id="path226" />
    </clipPath>
    <linearGradient
       x1="0"
       y1="0"
       x2="1"
       y2="0"
       gradientUnits="userSpaceOnUse"
       gradientTransform="matrix(4.2981105,11.550001,-11.550001,4.2981105,794.87347,598.73145)"
       spreadMethod="pad"
       id="linearGradient238">
      <stop
         style="stop-opacity:1;stop-color:#30abba"
         offset="0"
         id="stop234" />
      <stop
         style="stop-opacity:1;stop-color:#6165d7"
         offset="1"
         id="stop236" />
    </linearGradient>
    <clipPath
       clipPathUnits="userSpaceOnUse"
       id="clipPath248">
      <path
         d="m 783.793,570.206 h 200 v 40 h -200 z"
         id="path246" />
    </clipPath>
    <clipPath
       clipPathUnits="userSpaceOnUse"
       id="clipPath260">
      <path
         d="m 937.592,610.205 c -1.518,0 -2.276,-0.695 -2.276,-2.087 v 0 c 0,-1.401 0.758,-2.102 2.276,-2.102 v 0 c 0.759,0 1.325,0.183 1.7,0.547 v 0 c 0.384,0.374 0.575,0.892 0.575,1.555 v 0 c 0,1.392 -0.758,2.087 -2.275,2.087 z m -21.223,-1.316 -2.549,-11.182 c -0.164,-0.672 -0.347,-1.555 -0.547,-2.648 v 0 c -0.202,-1.083 -0.348,-1.99 -0.439,-2.718 v 0 c -0.101,0.757 -0.248,1.663 -0.438,2.718 v 0 c -0.194,1.056 -0.352,1.841 -0.481,2.355 v 0 l -2.92,11.475 h -4.016 l -2.921,-11.475 c -0.173,-0.617 -0.361,-1.486 -0.562,-2.607 v 0 c -0.191,-1.111 -0.315,-1.933 -0.37,-2.466 v 0 c -0.2,1.514 -0.526,3.302 -0.972,5.366 v 0 l -2.564,11.182 h -4.183 l 5.115,-20.484 h 4.825 l 2.7,10.731 c 0.12,0.477 0.289,1.271 0.508,2.383 v 0 c 0.219,1.121 0.357,1.933 0.411,2.438 v 0 c 0.037,-0.411 0.174,-1.219 0.412,-2.424 v 0 c 0.247,-1.195 0.42,-1.985 0.52,-2.368 v 0 l 2.715,-10.76 h 4.838 l 5.101,20.484 z m 29.667,-1.485 -1.206,-3.307 -2.303,-1.429 v -1.807 h 2 v -7.552 c 0,-1.729 0.38,-3.027 1.139,-3.896 v 0 c 0.768,-0.859 1.989,-1.289 3.66,-1.289 v 0 c 1.518,0 2.798,0.238 3.839,0.715 v 0 3.18 c -1.024,-0.327 -1.901,-0.49 -2.633,-0.49 v 0 c -0.547,0 -0.99,0.144 -1.328,0.434 v 0 c -0.33,0.29 -0.495,0.738 -0.495,1.346 v 0 7.552 h 4.292 v 3.208 h -4.292 v 3.335 z m 32.737,-3.854 c -0.804,-0.532 -1.443,-1.238 -1.919,-2.115 v 0 h -0.206 l -0.617,2.634 h -3.166 v -15.664 h 4.181 v 7.972 c 0,1.261 0.37,2.242 1.111,2.942 v 0 c 0.75,0.7 1.791,1.051 3.126,1.051 v 0 c 0.484,0 0.895,-0.047 1.233,-0.14 v 0 l 0.315,4.007 c -0.375,0.084 -0.846,0.126 -1.412,0.126 v 0 c -0.95,0 -1.832,-0.27 -2.646,-0.813 m -21.509,-1.345 c -1.28,-1.429 -1.919,-3.456 -1.919,-6.08 v 0 c 0,-2.551 0.694,-4.522 2.084,-5.913 v 0 c 1.389,-1.392 3.316,-2.088 5.785,-2.088 v 0 c 1.197,0 2.211,0.093 3.043,0.281 v 0 c 0.832,0.177 1.613,0.452 2.344,0.826 v 0 3.306 c -0.895,-0.429 -1.755,-0.742 -2.578,-0.938 v 0 c -0.821,-0.196 -1.694,-0.294 -2.617,-0.294 v 0 c -1.188,0 -2.112,0.341 -2.769,1.023 v 0 c -0.658,0.681 -1.01,1.63 -1.056,2.844 v 0 h 9.884 v 2.073 c 0,2.223 -0.602,3.966 -1.808,5.227 v 0 c -1.208,1.261 -2.894,1.891 -5.06,1.891 v 0 c -2.266,0 -4.044,-0.72 -5.333,-2.158 m 3.276,-1.751 c 0.502,0.58 1.198,0.868 2.084,0.868 v 0 c 0.885,0 1.59,-0.288 2.111,-0.868 v 0 c 0.52,-0.57 0.79,-1.383 0.809,-2.438 v 0 h -5.868 c 0.074,1.055 0.361,1.868 0.864,2.438 m -31.888,3.096 c -0.803,-0.532 -1.442,-1.238 -1.918,-2.115 v 0 h -0.206 l -0.616,2.634 h -3.167 v -15.664 h 4.182 v 7.972 c 0,1.261 0.37,2.242 1.11,2.942 v 0 c 0.749,0.7 1.792,1.051 3.125,1.051 v 0 c 0.484,0 0.897,-0.047 1.234,-0.14 v 0 l 0.315,4.007 c -0.374,0.084 -0.846,0.126 -1.411,0.126 v 0 c -0.951,0 -1.832,-0.27 -2.648,-0.813 m 6.842,-15.145 h 4.181 v 15.665 h -4.181 z"
         id="path258" />
    </clipPath>
    <linearGradient
       x1="0"
       y1="0"
       x2="1"
       y2="0"
       gradientUnits="userSpaceOnUse"
       gradientTransform="matrix(9.335001,34.683601,-34.683601,9.335001,931.83325,581.78888)"
       spreadMethod="pad"
       id="linearGradient270">
      <stop
         style="stop-opacity:1;stop-color:#30abba"
         offset="0"
         id="stop266" />
      <stop
         style="stop-opacity:1;stop-color:#6165d7"
         offset="1"
         id="stop268" />
    </linearGradient>
    <clipPath
       clipPathUnits="userSpaceOnUse"
       id="clipPath280">
      <path
         d="M 0,1080 H 1920 V 0 H 0 Z"
         id="path278" />
    </clipPath>
  </defs>
  <g
     inkscape:label="Слой 1"
     inkscape:groupmode="layer"
     id="layer1">
    <g
       id="g150"
       transform="matrix(0.3125406,0,0,-0.3125406,0.50281974,8.595807)">
      <path
         d="M 0,0 9.823,-10.892 19.646,0 Z"
         style="fill:#fc9d8a;fill-opacity:1;fill-rule:nonzero;stroke:none"
         id="path152" />
    </g>
    <g
       id="g154"
       transform="matrix(0.3125406,0,0,-0.3125406,3.5727767,8.595807)">
      <path
         d="M 0,0 V -10.892 L 9.823,0 Z"
         style="fill:#ef9482;fill-opacity:1;fill-rule:nonzero;stroke:none"
         id="path156" />
    </g>
    <g
       id="g158"
       transform="matrix(0.3125406,0,0,-0.3125406,2.0377938,10.297871)">
      <path
         d="M 0,0 4.911,-5.446 9.823,0 Z"
         style="fill:#010648;fill-opacity:1;fill-rule:nonzero;stroke:none"
         id="path160" />
    </g>
    <path
       d="M 6.538972,7.7447622 H 0.67789958 V 8.595807 H 6.538972 Z"
       style="fill:#fab680;fill-opacity:1;fill-rule:nonzero;stroke:none;stroke-width:0.31254"
       id="path162" />
    <path
       d="M 6.538972,7.7447622 H 3.7479893 V 8.595807 H 6.538972 Z"
       style="fill:#d09668;fill-opacity:1;fill-rule:nonzero;stroke:none;stroke-width:0.31254"
       id="path164" />
    <g
       id="g166"
       transform="matrix(0.3125406,0,0,-0.3125406,-245.1481,190.34629)">
      <g
         id="g168"
         clip-path="url(#clipPath172)">
        <g
           id="g174"
           transform="translate(804.7339,600.5879)">
          <path
             d="m 0,0 h -3.572 c -0.986,0 -1.786,-0.813 -1.786,-1.815 v -16.339 c 0,-1.003 0.8,-1.816 1.786,-1.816 H 0 c 0.987,0 1.786,0.813 1.786,1.816 V -1.815 C 1.786,-0.813 0.987,0 0,0"
             style="fill:#6165d7;fill-opacity:1;fill-rule:nonzero;stroke:none"
             id="path176" />
        </g>
        <g
           id="g178"
           transform="translate(797.5898,596.0488)">
          <path
             d="m 0,0 h -3.572 c -0.987,0 -1.786,-0.812 -1.786,-1.815 v -11.8 c 0,-1.003 0.799,-1.816 1.786,-1.816 H 0 c 0.987,0 1.786,0.813 1.786,1.816 v 11.8 C 1.786,-0.812 0.987,0 0,0"
             style="fill:#010648;fill-opacity:1;fill-rule:nonzero;stroke:none"
             id="path180" />
        </g>
      </g>
    </g>
    <g
       id="g182"
       transform="matrix(0.3125406,0,0,-0.3125406,-245.1481,190.34629)">
      <g
         id="g184"
         clip-path="url(#clipPath188)">
        <g
           id="g190">
          <g
             id="g192">
            <path
               d="m 786.874,591.511 c -0.987,0 -1.787,-0.813 -1.787,-1.816 v 0 -7.262 c 0,-1.002 0.8,-1.815 1.787,-1.815 v 0 h 3.572 c 0.986,0 1.786,0.813 1.786,1.815 v 0 7.262 c 0,1.003 -0.8,1.816 -1.786,1.816 v 0 z"
               style="fill:url(#linearGradient198);stroke:none"
               id="path200" />
          </g>
        </g>
      </g>
    </g>
    <g
       id="g202"
       transform="matrix(0.3125406,0,0,-0.3125406,-245.1481,190.34629)">
      <g
         id="g204"
         clip-path="url(#clipPath208)">
        <g
           id="g210">
          <g
             id="g212">
            <path
               d="m 784.754,601.495 h 22.1 c -1.507,4.214 -5.885,7.261 -11.051,7.261 v 0 c -5.165,0 -9.541,-3.047 -11.049,-7.261"
               style="fill:url(#linearGradient218);stroke:none"
               id="path220" />
          </g>
        </g>
      </g>
    </g>
    <g
       id="g222"
       transform="matrix(0.3125406,0,0,-0.3125406,-245.1481,190.34629)">
      <g
         id="g224"
         clip-path="url(#clipPath228)">
        <g
           id="g230">
          <g
             id="g232">
            <path
               d="m 795.803,608.485 c 4.915,0 9.078,-2.812 10.659,-6.717 v 0 h -21.317 c 1.582,3.905 5.745,6.717 10.658,6.717 v 0 0.544 c -5.264,0 -9.751,-3.107 -11.301,-7.44 v 0 l -0.13,-0.366 h 0.382 22.1 v 0.273 l 0.251,0.093 -0.251,-0.094 v -0.272 h 0.382 l -0.131,0.366 c -1.549,4.333 -6.037,7.44 -11.302,7.44 v 0 z m -11.301,-6.896 0.252,-0.093 v -10e-4 z"
               style="fill:url(#linearGradient238);stroke:none"
               id="path240" />
          </g>
        </g>
      </g>
    </g>
    <g
       id="g242"
       transform="matrix(0.32413696,0,0,-0.3241351,-254.62713,197.78915)">
      <g
         id="g244"
         clip-path="url(#clipPath248)">
        <g
           id="g250"
           transform="translate(883.0205,590.0439)">
          <path
             d="M 0,0 C 0.505,0 1.165,0.121 1.979,0.364 V -1.443 C 1.668,-1.574 1.283,-1.687 0.825,-1.78 0.367,-1.873 0,-1.92 -0.274,-1.92 c -1.145,0 -2.025,0.276 -2.639,0.827 -0.605,0.56 -0.907,1.392 -0.907,2.494 0,0.617 0.082,1.317 0.247,2.101 l 1.746,8.435 h -2.364 l 0.192,1.023 2.543,1.093 1.718,3.195 H 1.608 L 0.853,13.717 H 4.618 L 4.261,11.937 H 0.509 L -1.264,3.475 C -1.429,2.662 -1.511,2.045 -1.511,1.625 -1.511,1.102 -1.378,0.7 -1.113,0.42 -0.847,0.14 -0.476,0 0,0 m -7.394,2.718 c 0,-1.457 -0.508,-2.597 -1.525,-3.419 -1.008,-0.813 -2.433,-1.219 -4.275,-1.219 -1.548,0 -2.946,0.322 -4.192,0.967 v 2.214 c 0.641,-0.392 1.333,-0.696 2.075,-0.911 0.743,-0.215 1.43,-0.322 2.062,-0.322 1.155,0 2.025,0.233 2.611,0.701 0.587,0.466 0.88,1.064 0.88,1.792 0,0.533 -0.16,0.981 -0.481,1.346 -0.321,0.364 -1.012,0.864 -2.075,1.499 -1.191,0.682 -2.034,1.35 -2.529,2.004 -0.495,0.653 -0.742,1.429 -0.742,2.325 0,1.289 0.462,2.326 1.388,3.111 0.926,0.794 2.144,1.191 3.655,1.191 1.568,0 3.08,-0.346 4.537,-1.037 l -0.743,-1.919 -0.77,0.35 c -0.925,0.401 -1.933,0.602 -3.024,0.602 -0.852,0 -1.521,-0.205 -2.006,-0.616 -0.486,-0.402 -0.728,-0.925 -0.728,-1.569 0,-0.524 0.16,-0.972 0.481,-1.346 0.329,-0.373 1.003,-0.854 2.02,-1.442 C -9.794,6.459 -9.094,5.978 -8.672,5.576 -8.241,5.174 -7.92,4.74 -7.71,4.273 -7.5,3.815 -7.394,3.297 -7.394,2.718 m -13.827,5.604 c 0,1.074 -0.288,1.943 -0.865,2.606 -0.569,0.673 -1.343,1.009 -2.323,1.009 -0.999,0 -1.897,-0.345 -2.694,-1.037 -0.788,-0.691 -1.402,-1.653 -1.842,-2.886 -0.43,-1.223 -0.646,-2.587 -0.646,-4.091 0,-1.224 0.289,-2.172 0.866,-2.844 0.586,-0.663 1.425,-0.995 2.516,-0.995 0.953,0 1.809,0.341 2.569,1.023 0.761,0.682 1.352,1.648 1.773,2.9 0.431,1.261 0.646,2.7 0.646,4.315 m -3.243,5.591 c 1.741,0 3.115,-0.528 4.123,-1.583 1.008,-1.047 1.512,-2.49 1.512,-4.33 0,-1.756 -0.33,-3.414 -0.989,-4.974 -0.661,-1.56 -1.554,-2.765 -2.681,-3.615 -1.127,-0.849 -2.4,-1.275 -3.821,-1.275 -1.759,0 -3.138,0.528 -4.137,1.584 -0.998,1.055 -1.498,2.498 -1.498,4.329 0,1.775 0.335,3.442 1.003,5.002 0.669,1.569 1.572,2.769 2.708,3.601 1.137,0.84 2.396,1.261 3.78,1.261 m -15.064,-15.553 2.034,9.696 c 0.165,0.878 0.248,1.508 0.248,1.892 0,1.382 -0.674,2.073 -2.021,2.073 -0.816,0 -1.612,-0.275 -2.391,-0.827 -0.77,-0.55 -1.452,-1.354 -2.048,-2.409 -0.586,-1.047 -1.031,-2.312 -1.333,-3.797 l -1.389,-6.628 h -2.309 l 4.536,21.802 h 2.309 c -0.165,-0.766 -0.325,-1.509 -0.481,-2.228 -0.147,-0.719 -0.302,-1.453 -0.467,-2.2 -0.156,-0.738 -0.33,-1.513 -0.523,-2.326 -0.182,-0.812 -0.398,-1.695 -0.646,-2.648 h 0.152 c 0.861,1.149 1.709,1.971 2.543,2.466 0.842,0.495 1.722,0.743 2.638,0.743 1.201,0 2.126,-0.337 2.777,-1.009 0.659,-0.672 0.989,-1.625 0.989,-2.858 0,-0.58 -0.105,-1.355 -0.316,-2.326 -0.357,-1.803 -1.022,-4.942 -1.993,-9.416 z M -57.313,9.093 h 6.309 l -2.117,-9.962 c -1.979,-0.7 -3.899,-1.051 -5.759,-1.051 -2.418,0 -4.302,0.673 -5.649,2.018 -1.338,1.354 -2.006,3.241 -2.006,5.66 0,2.513 0.462,4.797 1.388,6.852 0.935,2.064 2.227,3.666 3.876,4.806 1.649,1.148 3.477,1.723 5.484,1.723 1.072,0 2.075,-0.094 3.01,-0.28 0.944,-0.187 1.892,-0.486 2.845,-0.897 l -0.907,-2.13 c -0.706,0.318 -1.467,0.593 -2.282,0.827 -0.806,0.234 -1.695,0.35 -2.666,0.35 -1.549,0 -2.96,-0.476 -4.234,-1.429 -1.264,-0.943 -2.249,-2.265 -2.955,-3.965 -0.705,-1.7 -1.058,-3.601 -1.058,-5.702 0,-1.775 0.468,-3.172 1.402,-4.19 0.944,-1.018 2.259,-1.527 3.944,-1.527 1.412,0 2.603,0.182 3.574,0.546 l 1.32,6.221 h -3.973 z"
             style="fill:#010648;fill-opacity:1;fill-rule:nonzero;stroke:none"
             id="path252" />
        </g>
      </g>
    </g>
    <g
       id="g254"
       transform="matrix(0.32413696,0,0,-0.3241351,-254.62713,197.78915)">
      <g
         id="g256"
         clip-path="url(#clipPath260)">
        <g
           id="g262">
          <g
             id="g264">
            <path
               d="m 937.592,610.205 c -1.518,0 -2.276,-0.695 -2.276,-2.087 v 0 c 0,-1.401 0.758,-2.102 2.276,-2.102 v 0 c 0.759,0 1.325,0.183 1.7,0.547 v 0 c 0.384,0.374 0.575,0.892 0.575,1.555 v 0 c 0,1.392 -0.758,2.087 -2.275,2.087 z m -21.223,-1.316 -2.549,-11.182 c -0.164,-0.672 -0.347,-1.555 -0.547,-2.648 v 0 c -0.202,-1.083 -0.348,-1.99 -0.439,-2.718 v 0 c -0.101,0.757 -0.248,1.663 -0.438,2.718 v 0 c -0.194,1.056 -0.352,1.841 -0.481,2.355 v 0 l -2.92,11.475 h -4.016 l -2.921,-11.475 c -0.173,-0.617 -0.361,-1.486 -0.562,-2.607 v 0 c -0.191,-1.111 -0.315,-1.933 -0.37,-2.466 v 0 c -0.2,1.514 -0.526,3.302 -0.972,5.366 v 0 l -2.564,11.182 h -4.183 l 5.115,-20.484 h 4.825 l 2.7,10.731 c 0.12,0.477 0.289,1.271 0.508,2.383 v 0 c 0.219,1.121 0.357,1.933 0.411,2.438 v 0 c 0.037,-0.411 0.174,-1.219 0.412,-2.424 v 0 c 0.247,-1.195 0.42,-1.985 0.52,-2.368 v 0 l 2.715,-10.76 h 4.838 l 5.101,20.484 z m 29.667,-1.485 -1.206,-3.307 -2.303,-1.429 v -1.807 h 2 v -7.552 c 0,-1.729 0.38,-3.027 1.139,-3.896 v 0 c 0.768,-0.859 1.989,-1.289 3.66,-1.289 v 0 c 1.518,0 2.798,0.238 3.839,0.715 v 0 3.18 c -1.024,-0.327 -1.901,-0.49 -2.633,-0.49 v 0 c -0.547,0 -0.99,0.144 -1.328,0.434 v 0 c -0.33,0.29 -0.495,0.738 -0.495,1.346 v 0 7.552 h 4.292 v 3.208 h -4.292 v 3.335 z m 32.737,-3.854 c -0.804,-0.532 -1.443,-1.238 -1.919,-2.115 v 0 h -0.206 l -0.617,2.634 h -3.166 v -15.664 h 4.181 v 7.972 c 0,1.261 0.37,2.242 1.111,2.942 v 0 c 0.75,0.7 1.791,1.051 3.126,1.051 v 0 c 0.484,0 0.895,-0.047 1.233,-0.14 v 0 l 0.315,4.007 c -0.375,0.084 -0.846,0.126 -1.412,0.126 v 0 c -0.95,0 -1.832,-0.27 -2.646,-0.813 m -21.509,-1.345 c -1.28,-1.429 -1.919,-3.456 -1.919,-6.08 v 0 c 0,-2.551 0.694,-4.522 2.084,-5.913 v 0 c 1.389,-1.392 3.316,-2.088 5.785,-2.088 v 0 c 1.197,0 2.211,0.093 3.043,0.281 v 0 c 0.832,0.177 1.613,0.452 2.344,0.826 v 0 3.306 c -0.895,-0.429 -1.755,-0.742 -2.578,-0.938 v 0 c -0.821,-0.196 -1.694,-0.294 -2.617,-0.294 v 0 c -1.188,0 -2.112,0.341 -2.769,1.023 v 0 c -0.658,0.681 -1.01,1.63 -1.056,2.844 v 0 h 9.884 v 2.073 c 0,2.223 -0.602,3.966 -1.808,5.227 v 0 c -1.208,1.261 -2.894,1.891 -5.06,1.891 v 0 c -2.266,0 -4.044,-0.72 -5.333,-2.158 m 3.276,-1.751 c 0.502,0.58 1.198,0.868 2.084,0.868 v 0 c 0.885,0 1.59,-0.288 2.111,-0.868 v 0 c 0.52,-0.57 0.79,-1.383 0.809,-2.438 v 0 h -5.868 c 0.074,1.055 0.361,1.868 0.864,2.438 m -31.888,3.096 c -0.803,-0.532 -1.442,-1.238 -1.918,-2.115 v 0 h -0.206 l -0.616,2.634 h -3.167 v -15.664 h 4.182 v 7.972 c 0,1.261 0.37,2.242 1.11,2.942 v 0 c 0.749,0.7 1.792,1.051 3.125,1.051 v 0 c 0.484,0 0.897,-0.047 1.234,-0.14 v 0 l 0.315,4.007 c -0.374,0.084 -0.846,0.126 -1.411,0.126 v 0 c -0.951,0 -1.832,-0.27 -2.648,-0.813 m 6.842,-15.145 h 4.181 v 15.665 h -4.181 z"
               style="fill:url(#linearGradient270);stroke:none"
               id="path272" />
          </g>
        </g>
      </g>
    </g>
    <g
       id="g274"
       transform="matrix(0.32413696,0,0,-0.3241351,-254.62713,197.78915)">
      <g
         id="g276"
         clip-path="url(#clipPath280)">
        <g
           id="g282"
           transform="translate(821.478,582.2173)">
          <path
             d="m 0,0 c -0.431,0 -0.812,-0.083 -1.143,-0.25 -0.331,-0.167 -0.609,-0.408 -0.835,-0.722 -0.224,-0.315 -0.395,-0.695 -0.511,-1.139 -0.116,-0.446 -0.174,-0.946 -0.174,-1.502 0,-0.75 0.093,-1.39 0.279,-1.92 0.187,-0.529 0.476,-0.933 0.867,-1.211 0.392,-0.278 0.898,-0.418 1.517,-0.418 0.43,0 0.862,0.049 1.295,0.146 0.433,0.097 0.903,0.234 1.411,0.413 V -8.489 C 2.237,-8.683 1.775,-8.822 1.32,-8.906 0.866,-8.991 0.355,-9.033 -0.21,-9.033 c -1.094,0 -1.992,0.226 -2.696,0.678 -0.704,0.452 -1.225,1.086 -1.564,1.901 -0.338,0.815 -0.508,1.767 -0.508,2.855 0,0.803 0.109,1.538 0.327,2.206 0.218,0.667 0.537,1.245 0.958,1.734 0.421,0.489 0.941,0.866 1.56,1.132 0.619,0.266 1.33,0.399 2.133,0.399 0.527,0 1.056,-0.067 1.585,-0.2 0.53,-0.133 1.037,-0.315 1.52,-0.547 L 2.38,-0.704 C 1.983,-0.515 1.584,-0.351 1.183,-0.21 0.781,-0.07 0.387,0 0,0"
             style="fill:#30abba;fill-opacity:1;fill-rule:nonzero;stroke:none"
             id="path284" />
        </g>
        <g
           id="g286"
           transform="translate(843.5142,578.6475)">
          <path
             d="m 0,0 c 0,-0.74 0.093,-1.377 0.279,-1.912 0.186,-0.534 0.478,-0.945 0.874,-1.234 0.397,-0.287 0.91,-0.431 1.539,-0.431 0.638,0 1.156,0.144 1.553,0.431 0.396,0.289 0.685,0.7 0.866,1.234 C 5.293,-1.377 5.384,-0.74 5.384,0 5.384,1.112 5.175,1.988 4.76,2.626 4.343,3.265 3.659,3.584 2.706,3.584 2.072,3.584 1.556,3.44 1.157,3.152 0.758,2.865 0.465,2.454 0.279,1.919 0.093,1.385 0,0.745 0,0 M 7.742,0 C 7.742,-0.817 7.64,-1.561 7.437,-2.231 7.234,-2.901 6.925,-3.478 6.512,-3.962 6.098,-4.445 5.575,-4.817 4.941,-5.076 4.307,-5.334 3.558,-5.463 2.692,-5.463 c -0.866,0 -1.616,0.129 -2.25,0.387 -0.633,0.259 -1.157,0.631 -1.57,1.114 -0.414,0.484 -0.723,1.062 -0.926,1.734 -0.203,0.673 -0.304,1.42 -0.304,2.243 0,1.097 0.18,2.054 0.54,2.869 0.36,0.815 0.916,1.448 1.666,1.897 0.749,0.45 1.702,0.675 2.858,0.675 1.151,0 2.098,-0.225 2.841,-0.675 C 6.29,4.332 6.841,3.698 7.201,2.88 7.562,2.063 7.742,1.103 7.742,0"
             style="fill:#30abba;fill-opacity:1;fill-rule:nonzero;stroke:none"
             id="path288" />
        </g>
        <g
           id="g290"
           transform="translate(873.1323,573.3291)">
          <path
             d="M 0,0 -2.554,8.322 H -2.62 c 0.01,-0.198 0.026,-0.497 0.048,-0.896 0.022,-0.399 0.042,-0.823 0.061,-1.273 0.02,-0.45 0.03,-0.857 0.03,-1.219 V 0 h -2.01 V 10.608 H -1.43 L 1.081,2.496 h 0.044 l 2.663,8.112 H 6.849 V 0 H 4.752 v 5.021 c 0,0.333 0.006,0.718 0.019,1.153 0.012,0.436 0.027,0.85 0.047,1.245 0.019,0.394 0.034,0.69 0.043,0.889 H 4.796 L 2.061,0 Z"
             style="fill:#30abba;fill-opacity:1;fill-rule:nonzero;stroke:none"
             id="path292" />
        </g>
        <g
           id="g294"
           transform="translate(901.1108,582.0937)">
          <path
             d="m 0,0 h -1.023 v -3.149 h 0.74 c 0.421,0 0.786,0.056 1.095,0.167 0.31,0.111 0.549,0.285 0.719,0.523 0.169,0.236 0.254,0.541 0.254,0.914 0,0.522 -0.145,0.91 -0.435,1.164 C 1.059,-0.127 0.609,0 0,0 m 0.116,1.843 c 1.369,0 2.368,-0.294 2.997,-0.882 0.628,-0.587 0.943,-1.396 0.943,-2.426 0,-0.465 -0.07,-0.909 -0.211,-1.332 C 3.705,-3.22 3.477,-3.596 3.16,-3.925 2.843,-4.254 2.421,-4.514 1.894,-4.705 1.366,-4.896 0.716,-4.992 -0.058,-4.992 H -1.023 V -8.765 H -3.272 V 1.843 Z"
             style="fill:#30abba;fill-opacity:1;fill-rule:nonzero;stroke:none"
             id="path296" />
        </g>
        <g
           id="g298"
           transform="translate(927.5439,577.7402)">
          <path
             d="m 0,0 -0.769,2.467 c -0.049,0.164 -0.113,0.376 -0.192,0.635 -0.081,0.259 -0.16,0.523 -0.24,0.791 -0.08,0.268 -0.144,0.502 -0.192,0.7 C -1.442,4.395 -1.508,4.149 -1.593,3.856 -1.677,3.564 -1.759,3.287 -1.836,3.026 -1.914,2.765 -1.969,2.578 -2.003,2.467 L -2.765,0 Z M 1.306,-4.411 0.537,-1.886 H -3.331 L -4.1,-4.411 H -6.523 L -2.779,6.24 h 2.75 L 3.729,-4.411 Z"
             style="fill:#30abba;fill-opacity:1;fill-rule:nonzero;stroke:none"
             id="path300" />
        </g>
        <g
           id="g302"
           transform="translate(957.2056,573.3291)">
          <path
             d="M 0,0 H -2.859 L -7.474,8.025 H -7.539 C -7.52,7.691 -7.502,7.354 -7.488,7.016 -7.474,6.678 -7.459,6.34 -7.444,6.004 -7.43,5.667 -7.416,5.33 -7.401,4.992 V 0 h -2.01 v 10.608 h 2.837 l 4.608,-7.945 h 0.05 c -0.009,0.329 -0.021,0.655 -0.036,0.979 -0.014,0.324 -0.027,0.649 -0.04,0.972 -0.012,0.324 -0.023,0.649 -0.032,0.973 v 5.021 H 0 Z"
             style="fill:#30abba;fill-opacity:1;fill-rule:nonzero;stroke:none"
             id="path304" />
        </g>
        <g
           id="g306"
           transform="translate(978.3633,579.5688)">
          <path
             d="M 0,0 2.213,4.368 H 4.637 L 1.118,-2.111 V -6.24 h -2.235 v 4.056 l -3.519,6.552 h 2.438 z"
             style="fill:#30abba;fill-opacity:1;fill-rule:nonzero;stroke:none"
             id="path308" />
        </g>
      </g>
    </g>
  </g>
</svg>
