<svg width="211" height="204" viewBox="0 0 211 204" fill="none" xmlns="http://www.w3.org/2000/svg">
<g clip-path="url(#clip0_8_1930)">
<path d="M105.336 157.369L145.455 112.726H65.2177L105.336 157.369Z" fill="#FC9D8A"/>
<path d="M105.336 157.369L145.455 112.726H105.336L105.336 157.369Z" fill="#EF9482"/>
<path d="M105.336 157.369L125.395 135.047H85.2771L105.336 157.369Z" fill="#010648"/>
<path d="M144.094 101.564H67.5046V112.725H144.094V101.564Z" fill="#FAB680"/>
<path d="M144.094 101.564H107.623V112.725H144.094V101.564Z" fill="#D09668"/>
<path d="M141.808 34.5988H127.219C123.19 34.5988 119.925 37.93 119.925 42.0394V109.005C119.925 113.114 123.19 116.445 127.219 116.445H141.808C145.836 116.445 149.102 113.114 149.102 109.005V42.0394C149.102 37.93 145.836 34.5988 141.808 34.5988Z" fill="#6165D7"/>
<path d="M112.631 53.2005H98.0421C94.0135 53.2005 90.7478 56.5318 90.7478 60.6411V109.005C90.7478 113.114 94.0135 116.446 98.0421 116.446H112.631C116.659 116.446 119.925 113.114 119.925 109.005V60.6411C119.925 56.5318 116.659 53.2005 112.631 53.2005Z" fill="#30ABBA"/>
<path d="M61.5706 79.2427C61.5706 75.1332 64.8364 71.802 68.8649 71.802H83.4535C87.4819 71.802 90.7478 75.1332 90.7478 79.2427V109.005C90.7478 113.115 87.4819 116.446 83.4535 116.446H68.8649C64.8364 116.446 61.5706 113.115 61.5706 109.005V79.2427Z" fill="url(#paint0_linear_8_1930)"/>
<path fill-rule="evenodd" clip-rule="evenodd" d="M60.2101 30.8788H150.462C144.309 13.6084 126.432 1.11633 105.336 1.11633C84.2409 1.11633 66.3633 13.6084 60.2101 30.8788Z" fill="url(#paint1_linear_8_1930)"/>
<path d="M60.2101 30.8785L59.1818 30.4971L58.6483 31.9946H60.2101V30.8785ZM150.462 30.8785V31.9946H152.024L151.491 30.4971L150.462 30.8785ZM60.2101 31.9946H150.462V29.7624H60.2101V31.9946ZM105.336 2.23218C126.025 2.23218 143.455 14.4799 149.434 31.2598L151.491 30.4971C145.163 12.7361 126.838 0 105.336 0V2.23218ZM61.2385 31.2598C67.2169 14.4799 84.6473 2.23218 105.336 2.23218V0C83.8342 0 65.5097 12.7361 59.1818 30.4971L61.2385 31.2598Z" fill="url(#paint2_linear_8_1930)"/>
<path d="M11.698 189.981H19.7002L17.0153 202.662C14.5051 203.554 12.0701 204 9.71038 204C6.64244 204 4.25397 203.144 2.54538 201.432C0.848208 199.708 0 197.306 0 194.226C0 191.027 0.58695 188.12 1.76064 185.504C2.94621 182.876 4.58503 180.837 6.67712 179.387C8.7692 177.924 11.0879 177.193 13.6332 177.193C14.993 177.193 16.2657 177.312 17.4512 177.549C18.6482 177.787 19.8511 178.168 21.06 178.691L19.9095 181.402C19.0144 180.998 18.0495 180.647 17.0153 180.35C15.9925 180.052 14.8653 179.904 13.6332 179.904C11.6688 179.904 9.87908 180.51 8.26351 181.723C6.65978 182.924 5.41036 184.607 4.51527 186.771C3.62059 188.935 3.17284 191.354 3.17284 194.03C3.17284 196.289 3.76562 198.067 4.95119 199.363C6.14818 200.659 7.81617 201.307 9.95477 201.307C11.7445 201.307 13.2557 201.075 14.4873 200.611L16.1612 192.692H11.1226L11.698 189.981ZM34.2572 203.643L36.8377 191.301C37.0465 190.183 37.1514 189.381 37.1514 188.893C37.1514 187.133 36.2969 186.253 34.5887 186.253C33.5541 186.253 32.5431 186.604 31.555 187.306C30.5788 188.007 29.7128 189.03 28.9577 190.373C28.2135 191.705 27.6499 193.316 27.2664 195.207L25.5054 203.643H22.5766L28.3298 175.891H31.2586C31.0494 176.866 30.846 177.811 30.6485 178.727C30.4625 179.642 30.265 180.576 30.0557 181.527C29.8583 182.466 29.6376 183.453 29.3932 184.488C29.1611 185.522 28.8879 186.646 28.5738 187.859H28.7657C29.8583 186.396 30.9331 185.35 31.991 184.719C33.0603 184.089 34.1761 183.774 35.3384 183.774C36.8609 183.774 38.0347 184.202 38.86 185.058C39.6967 185.915 40.1149 187.127 40.1149 188.697C40.1149 189.434 39.9813 190.421 39.7141 191.658C39.2608 193.953 38.4181 197.948 37.1861 203.643H34.2572ZM53.3646 183.846C55.573 183.846 57.3162 184.517 58.5948 185.861C59.8734 187.193 60.5127 189.03 60.5127 191.372C60.5127 193.608 60.0941 195.718 59.2574 197.704C58.4206 199.69 57.2875 201.224 55.8579 202.306C54.428 203.388 52.8124 203.929 51.0112 203.929C48.7796 203.929 47.0304 203.257 45.7637 201.913C44.4969 200.57 43.8631 198.733 43.8631 196.402C43.8631 194.143 44.2876 192.02 45.1358 190.035C45.9844 188.037 47.1294 186.509 48.5703 185.451C50.0117 184.381 51.6095 183.846 53.3646 183.846ZM57.479 190.962C57.479 189.595 57.1128 188.489 56.3805 187.645C55.6601 186.789 54.6779 186.36 53.4344 186.36C52.1676 186.36 51.0286 186.8 50.0176 187.68C49.0177 188.56 48.2393 189.785 47.6811 191.354C47.1349 192.912 46.8617 194.648 46.8617 196.563C46.8617 198.12 47.2279 199.327 47.9602 200.183C48.7039 201.027 49.7673 201.45 51.1507 201.45C52.3596 201.45 53.4462 201.016 54.4106 200.147C55.3755 199.279 56.1251 198.049 56.6596 196.455C57.2059 194.85 57.479 193.019 57.479 190.962ZM75.0173 198.096C75.0173 199.951 74.3725 201.402 73.0821 202.448C71.8039 203.483 69.9964 204 67.6603 204C65.6964 204 63.9239 203.59 62.343 202.769V199.951C63.1565 200.451 64.0343 200.837 64.9755 201.111C65.9171 201.384 66.7885 201.521 67.5906 201.521C69.0552 201.521 70.1592 201.224 70.9029 200.629C71.647 200.035 72.0187 199.274 72.0187 198.346C72.0187 197.668 71.8153 197.098 71.4086 196.634C71.0018 196.17 70.1245 195.534 68.7761 194.725C67.265 193.857 66.1961 193.007 65.5683 192.175C64.9408 191.343 64.6267 190.356 64.6267 189.214C64.6267 187.573 65.2139 186.253 66.3877 185.255C67.5618 184.244 69.1072 183.739 71.0251 183.739C73.0127 183.739 74.9302 184.178 76.7783 185.058L75.8367 187.502L74.8604 187.056C73.6867 186.545 72.4081 186.289 71.0251 186.289C69.944 186.289 69.0958 186.551 68.4798 187.074C67.8637 187.585 67.5559 188.251 67.5559 189.071C67.5559 189.737 67.7593 190.308 68.166 190.784C68.5842 191.259 69.4387 191.872 70.7287 192.621C71.9722 193.334 72.8614 193.947 73.3962 194.458C73.9425 194.969 74.3493 195.522 74.6165 196.117C74.8837 196.699 75.0173 197.359 75.0173 198.096ZM84.3962 201.557C85.0363 201.557 85.873 201.402 86.9072 201.093V203.394C86.5119 203.56 86.0236 203.703 85.4435 203.822C84.8617 203.941 84.3961 204 84.0482 204C82.5954 204 81.4796 203.649 80.7008 202.948C79.9338 202.234 79.5503 201.176 79.5503 199.773C79.5503 198.988 79.6547 198.096 79.864 197.098L82.0783 186.36H79.0793L79.3237 185.058L82.5489 183.667L84.7281 179.601H86.4366L85.4777 184.095H90.2542L89.8018 186.36H85.0418L82.7928 197.133C82.5835 198.168 82.4791 198.953 82.4791 199.488C82.4791 200.154 82.6478 200.665 82.9848 201.021C83.3214 201.378 83.792 201.557 84.3962 201.557Z" fill="#010648"/>
<path d="M125.533 203.643H119.395L115.952 189.945C115.825 189.458 115.605 188.453 115.292 186.931C114.99 185.397 114.816 184.369 114.769 183.846C114.7 184.488 114.526 185.522 114.248 186.949C113.971 188.364 113.755 189.375 113.604 189.981L110.179 203.643H104.059L97.5723 177.567H102.876L106.128 191.8C106.695 194.428 107.108 196.705 107.362 198.631C107.432 197.954 107.588 196.907 107.831 195.492C108.087 194.065 108.325 192.96 108.545 192.175L112.249 177.567H117.343L121.047 192.175C121.21 192.829 121.412 193.828 121.657 195.171C121.899 196.515 122.085 197.668 122.212 198.631C122.328 197.704 122.514 196.551 122.769 195.171C123.024 193.78 123.255 192.656 123.464 191.8L126.698 177.567H132.002L125.533 203.643ZM145.635 183.328C146.354 183.328 146.951 183.382 147.426 183.489L147.026 188.59C146.598 188.471 146.075 188.412 145.461 188.412C143.769 188.412 142.448 188.857 141.496 189.749C140.558 190.641 140.088 191.889 140.088 193.495V203.643H134.784V183.703H138.801L139.583 187.056H139.844C140.447 185.938 141.259 185.04 142.278 184.363C143.311 183.673 144.429 183.328 145.635 183.328ZM150.73 178.548C150.73 176.777 151.692 175.891 153.616 175.891C155.54 175.891 156.503 176.777 156.503 178.548C156.503 179.393 156.26 180.052 155.773 180.528C155.297 180.992 154.579 181.224 153.616 181.224C151.692 181.224 150.73 180.332 150.73 178.548ZM156.26 203.643H150.957V183.703H156.26V203.643ZM170.032 199.666C170.959 199.666 172.072 199.458 173.37 199.042V203.09C172.049 203.697 170.426 204 168.502 204C166.381 204 164.833 203.453 163.858 202.359C162.897 201.253 162.415 199.601 162.415 197.401V187.787H159.876V185.486L162.798 183.667L164.328 179.458H167.718V183.703H173.162V187.787H167.718V197.401C167.718 198.174 167.927 198.744 168.345 199.113C168.774 199.482 169.336 199.666 170.032 199.666ZM185.368 187.199C184.244 187.199 183.362 187.567 182.725 188.305C182.088 189.03 181.723 190.064 181.63 191.408H189.072C189.049 190.064 188.707 189.03 188.047 188.305C187.385 187.567 186.492 187.199 185.368 187.199ZM186.116 204C182.986 204 180.54 203.114 178.779 201.343C177.016 199.571 176.136 197.062 176.136 193.816C176.136 190.475 176.947 187.894 178.57 186.075C180.204 184.244 182.459 183.328 185.334 183.328C188.081 183.328 190.22 184.131 191.751 185.736C193.28 187.341 194.046 189.559 194.046 192.389V195.029H181.508C181.567 196.574 182.013 197.781 182.847 198.649C183.682 199.517 184.853 199.951 186.36 199.951C187.53 199.951 188.638 199.826 189.681 199.577C190.724 199.327 191.814 198.929 192.95 198.382V202.591C192.022 203.067 191.032 203.417 189.976 203.643C188.922 203.881 187.634 204 186.116 204ZM209.208 183.328C209.928 183.328 210.524 183.382 211 183.489L210.6 188.59C210.171 188.471 209.65 188.412 209.035 188.412C207.342 188.412 206.021 188.857 205.071 189.749C204.131 190.641 203.662 191.889 203.662 193.495V203.643H198.358V183.703H202.374L203.158 187.056H203.419C204.021 185.938 204.833 185.04 205.853 184.363C206.884 183.673 208.004 183.328 209.208 183.328Z" fill="url(#paint3_linear_8_1930)"/>
</g>
<defs>
<linearGradient id="paint0_linear_8_1930" x1="66.3812" y1="116.368" x2="99.5488" y2="96.4801" gradientUnits="userSpaceOnUse">
<stop stop-color="#30ABBA"/>
<stop offset="1" stop-color="#6165D7"/>
</linearGradient>
<linearGradient id="paint1_linear_8_1930" x1="81.8349" y1="30.798" x2="95.4935" y2="-13.0184" gradientUnits="userSpaceOnUse">
<stop stop-color="#30ABBA"/>
<stop offset="1" stop-color="#6165D7"/>
</linearGradient>
<linearGradient id="paint2_linear_8_1930" x1="83.647" y1="19.9171" x2="85.0929" y2="6.44409" gradientUnits="userSpaceOnUse">
<stop stop-color="#30ABBA"/>
<stop offset="1" stop-color="#6165D7"/>
</linearGradient>
<linearGradient id="paint3_linear_8_1930" x1="116.274" y1="203.951" x2="128.194" y2="159.821" gradientUnits="userSpaceOnUse">
<stop stop-color="#30ABBA"/>
<stop offset="1" stop-color="#6165D7"/>
</linearGradient>
<clipPath id="clip0_8_1930">
<rect width="211" height="204" fill="white"/>
</clipPath>
</defs>
</svg>
