<svg width="40" height="40" viewBox="0 0 40 40" fill="none" xmlns="http://www.w3.org/2000/svg">
<path d="M20.4318 39.3955L30.2551 28.5032H10.6085L20.4318 39.3955Z" fill="#FC9D8A"/>
<path d="M20.4319 39.3955L30.2552 28.5032H20.432L20.4319 39.3955Z" fill="#EF9482"/>
<path d="M20.4319 39.3955L25.3436 33.9493H15.5203L20.4319 39.3955Z" fill="#010648"/>
<path d="M29.9222 25.78H11.1686V28.503H29.9222V25.78Z" fill="#FAB680"/>
<path d="M29.9221 25.78H20.9918V28.503H29.9221V25.78Z" fill="#D09668"/>
<path d="M29.3622 9.44147H25.7901C24.8037 9.44147 24.004 10.2542 24.004 11.2568V27.5954C24.004 28.598 24.8037 29.4107 25.7901 29.4107H29.3622C30.3486 29.4107 31.1483 28.598 31.1483 27.5954V11.2568C31.1483 10.2542 30.3486 9.44147 29.3622 9.44147Z" fill="#6165D7"/>
<path d="M22.218 13.98H18.6459C17.6595 13.98 16.8599 14.7928 16.8599 15.7954V27.5955C16.8599 28.5981 17.6595 29.4109 18.6459 29.4109H22.218C23.2045 29.4109 24.0041 28.5981 24.0041 27.5955V15.7954C24.0041 14.7928 23.2045 13.98 22.218 13.98Z" fill="#010648"/>
<path d="M9.71558 20.3339C9.71558 19.3312 10.5152 18.5185 11.5016 18.5185H15.0738C16.0602 18.5185 16.8598 19.3312 16.8598 20.3339V27.5954C16.8598 28.5981 16.0602 29.4109 15.0738 29.4109H11.5016C10.5152 29.4109 9.71558 28.5981 9.71558 27.5954V20.3339Z" fill="url(#paint0_linear_10_62)"/>
<path fill-rule="evenodd" clip-rule="evenodd" d="M9.38245 8.53384H31.4814C29.9747 4.32013 25.5973 1.27228 20.4319 1.27228C15.2666 1.27228 10.8891 4.32013 9.38245 8.53384Z" fill="url(#paint1_linear_10_62)"/>
<path d="M9.38242 8.53379L9.13062 8.44075L9 8.80612H9.38242V8.53379ZM31.4814 8.53379V8.80612H31.8637L31.7332 8.44075L31.4814 8.53379ZM9.38242 8.80612H31.4814V8.2615H9.38242V8.80612ZM20.4319 1.54456C25.4977 1.54456 29.7657 4.53279 31.2295 8.62683L31.7332 8.44075C30.1837 4.10734 25.6968 0.999939 20.4319 0.999939V1.54456ZM9.63422 8.62683C11.0981 4.53279 15.3661 1.54456 20.4319 1.54456V0.999939C15.167 0.999939 10.6801 4.10734 9.13062 8.44075L9.63422 8.62683Z" fill="url(#paint2_linear_10_62)"/>
<defs>
<linearGradient id="paint0_linear_10_62" x1="10.8935" y1="29.3919" x2="18.9994" y2="24.514" gradientUnits="userSpaceOnUse">
<stop stop-color="#30ABBA"/>
<stop offset="1" stop-color="#6165D7"/>
</linearGradient>
<linearGradient id="paint1_linear_10_62" x1="13.026" y1="8.52122" x2="16.9089" y2="-2.3202" gradientUnits="userSpaceOnUse">
<stop stop-color="#30ABBA"/>
<stop offset="1" stop-color="#6165D7"/>
</linearGradient>
<linearGradient id="paint2_linear_10_62" x1="12.7697" y1="8.79255" x2="17.0678" y2="-2.75745" gradientUnits="userSpaceOnUse">
<stop stop-color="#30ABBA"/>
<stop offset="1" stop-color="#6165D7"/>
</linearGradient>
</defs>
</svg>
