<svg width="600" height="121" viewBox="0 0 600 121" fill="none" xmlns="http://www.w3.org/2000/svg">
<g clip-path="url(#clip0_405_1339)">
<path d="M36.033 115.867L65.503 83.1812H6.56311L36.033 115.867Z" fill="#FAB680"/>
<path d="M36.033 115.867L65.503 83.1812H36.0332L36.033 115.867Z" fill="#D09668"/>
<path d="M36.033 115.867L50.768 99.5239H21.2981L36.033 115.867Z" fill="#2D3741"/>
<path d="M64.5037 75.0093H8.2428V83.1807H64.5037V75.0093Z" fill="#FAB680"/>
<path d="M64.5037 75.0093H37.7128V83.1807H64.5037V75.0093Z" fill="#D09668"/>
<path d="M62.8239 25.981H52.1076C49.1483 25.981 46.7494 28.4199 46.7494 31.4286V80.4572C46.7494 83.4658 49.1483 85.9048 52.1076 85.9048H62.8239C65.7832 85.9048 68.1821 83.4658 68.1821 80.4572V31.4286C68.1821 28.4199 65.7832 25.981 62.8239 25.981Z" fill="#FDBD13"/>
<path d="M41.3913 39.6001H30.675C27.7157 39.6001 25.3168 42.0391 25.3168 45.0477V80.4573C25.3168 83.4659 27.7157 85.9049 30.675 85.9049H41.3913C44.3506 85.9049 46.7495 83.4659 46.7495 80.4573V45.0477C46.7495 42.0391 44.3506 39.6001 41.3913 39.6001Z" fill="#EC5334"/>
<path d="M3.88403 58.6669C3.88403 55.6581 6.28298 53.2192 9.24222 53.2192H19.9586C22.9178 53.2192 25.3168 55.6581 25.3168 58.6669V80.4573C25.3168 83.4661 22.9178 85.905 19.9586 85.905H9.24222C6.28298 85.905 3.88403 83.4661 3.88403 80.4573V58.6669Z" fill="#2D3645"/>
<path fill-rule="evenodd" clip-rule="evenodd" d="M2.88464 23.2573H69.1814C64.6615 10.6128 51.5292 1.4668 36.033 1.4668C20.537 1.4668 7.40457 10.6128 2.88464 23.2573Z" fill="#2D3743"/>
<path d="M2.88456 23.257L2.12917 22.9778L1.7373 24.0742H2.88456V23.257ZM69.1814 23.257V24.0742H70.3285L69.9369 22.9778L69.1814 23.257ZM2.88456 24.0742H69.1814V22.4399H2.88456V24.0742ZM36.033 2.2837C51.2304 2.2837 64.0343 11.2508 68.4258 23.5362L69.9369 22.9778C65.2884 9.9741 51.8278 0.649414 36.033 0.649414V2.2837ZM3.63995 23.5362C8.03152 11.2508 20.8355 2.2837 36.033 2.2837V0.649414C20.2382 0.649414 6.77747 9.9741 2.12917 22.9778L3.63995 23.5362Z" fill="white"/>
<path d="M125.744 30.3341H144.67L138.32 60.2277C132.383 62.3299 126.624 63.381 121.043 63.381C113.787 63.381 108.138 61.3631 104.097 57.3268C100.083 53.2626 98.0769 47.6004 98.0769 40.3407C98.0769 32.8008 99.4651 25.9476 102.241 19.7811C105.045 13.5866 108.921 8.77938 113.869 5.3597C118.817 1.91235 124.301 0.188395 130.321 0.188395C133.537 0.188395 136.547 0.468702 139.351 1.02929C142.182 1.58975 145.027 2.4868 147.886 3.71998L145.165 10.111C143.048 9.15794 140.766 8.33101 138.32 7.63016C135.901 6.92962 133.235 6.57904 130.321 6.57904C125.675 6.57904 121.442 8.00872 117.621 10.8678C113.828 13.6985 110.873 17.665 108.756 22.7662C106.64 27.8678 105.581 33.5717 105.581 39.8784C105.581 45.2039 106.983 49.3945 109.787 52.4498C112.618 55.5047 116.563 57.0325 121.621 57.0325C125.854 57.0325 129.428 56.4857 132.341 55.3928L136.3 36.7251H124.383L125.744 30.3341ZM179.099 62.5403L185.202 33.4456C185.696 30.8108 185.944 28.9189 185.944 27.7697C185.944 23.6211 183.923 21.5469 179.883 21.5469C177.436 21.5469 175.045 22.3738 172.708 24.0277C170.399 25.6813 168.351 28.0919 166.565 31.2591C164.805 34.3987 163.472 38.1966 162.565 42.6532L158.4 62.5403H151.473L165.08 -2.88086H172.007C171.512 -0.582418 171.031 1.64603 170.564 3.80424C170.124 5.96245 169.657 8.16279 169.162 10.4053C168.695 12.6194 168.173 14.9459 167.595 17.3845C167.046 19.8232 166.4 22.4719 165.657 25.331H166.111C168.695 21.8833 171.237 19.4167 173.739 17.931C176.268 16.4457 178.907 15.7027 181.656 15.7027C185.257 15.7027 188.033 16.712 189.985 18.73C191.964 20.7482 192.953 23.607 192.953 27.3071C192.953 29.045 192.637 31.3714 192.005 34.2864C190.933 39.6961 188.94 49.114 186.026 62.5403H179.099ZM224.29 15.8709C229.513 15.8709 233.636 17.4547 236.66 20.6219C239.684 23.7614 241.196 28.0919 241.196 33.6139C241.196 38.8833 240.206 43.8584 238.227 48.5396C236.248 53.2204 233.568 56.8363 230.187 59.3869C226.805 61.9375 222.984 63.2131 218.724 63.2131C213.446 63.2131 209.309 61.6294 206.313 58.4619C203.317 55.2947 201.818 50.9641 201.818 45.4702C201.818 40.1445 202.822 35.1413 204.828 30.4605C206.835 25.7514 209.543 22.1496 212.951 19.655C216.36 17.1324 220.139 15.8709 224.29 15.8709ZM234.021 32.6467C234.021 29.4232 233.155 26.8166 231.423 24.8263C229.719 22.8084 227.396 21.7994 224.455 21.7994C221.459 21.7994 218.765 22.8363 216.374 24.9106C214.009 26.9849 212.168 29.8719 210.848 33.5717C209.556 37.2436 208.91 41.3358 208.91 45.8487C208.91 49.5206 209.776 52.3655 211.508 54.3838C213.267 56.3738 215.782 57.3689 219.054 57.3689C221.913 57.3689 224.483 56.3458 226.764 54.2995C229.046 52.2533 230.819 49.3524 232.083 45.5963C233.375 41.8125 234.021 37.4958 234.021 32.6467ZM275.501 49.4643C275.501 53.837 273.976 57.2567 270.924 59.7233C267.901 62.162 263.626 63.381 258.101 63.381C253.456 63.381 249.264 62.4142 245.525 60.4802V53.837C247.449 55.0142 249.525 55.9254 251.751 56.57C253.978 57.2146 256.039 57.5368 257.936 57.5368C261.4 57.5368 264.011 56.8363 265.77 55.4349C267.53 54.0332 268.409 52.2394 268.409 50.0532C268.409 48.4553 267.928 47.1099 266.966 46.017C266.004 44.9237 263.929 43.4242 260.74 41.5182C257.166 39.4719 254.638 37.4678 253.153 35.5058C251.669 33.5437 250.926 31.2173 250.926 28.5265C250.926 24.6581 252.315 21.5469 255.091 19.1925C257.868 16.8101 261.523 15.6187 266.059 15.6187C270.76 15.6187 275.295 16.6557 279.666 18.73L277.439 24.4902L275.13 23.4391C272.354 22.2336 269.33 21.6312 266.059 21.6312C263.502 21.6312 261.496 22.2477 260.039 23.4809C258.582 24.6864 257.854 26.256 257.854 28.19C257.854 29.7597 258.335 31.1051 259.297 32.2263C260.286 33.3475 262.307 34.7911 265.358 36.5569C268.299 38.2387 270.402 39.6823 271.667 40.8874C272.959 42.0926 273.921 43.3959 274.553 44.7976C275.185 46.171 275.501 47.7265 275.501 49.4643ZM297.683 57.6211C299.197 57.6211 301.176 57.2567 303.622 56.5279V61.9517C302.687 62.3441 301.532 62.6805 300.16 62.9607C298.784 63.2411 297.683 63.381 296.86 63.381C293.424 63.381 290.785 62.5544 288.943 60.9006C287.129 59.2187 286.222 56.7241 286.222 53.4166C286.222 51.5666 286.469 49.4643 286.964 47.1099L292.201 21.7994H285.108L285.686 18.73L293.314 15.4505L298.468 5.86435H302.509L300.241 16.4595H311.538L310.468 21.7994H299.21L293.891 47.1942C293.396 49.6325 293.149 51.4826 293.149 52.7441C293.149 54.3137 293.548 55.5189 294.345 56.3596C295.141 57.2007 296.254 57.6211 297.683 57.6211Z" fill="#000333"/>
<path d="M394.976 62.5403H380.459L372.316 30.2502C372.016 29.1009 371.495 26.7324 370.755 23.1448C370.042 19.5289 369.63 17.1044 369.519 15.8709C369.356 17.3845 368.944 19.8232 368.286 23.1866C367.63 26.5223 367.121 28.9047 366.763 30.3341L358.663 62.5403H344.188L328.846 1.07127H341.39L349.082 34.6229C350.423 40.8173 351.398 46.1849 352 50.7258C352.165 49.1282 352.535 46.6615 353.11 43.3261C353.714 39.9624 354.277 37.3555 354.797 35.5058L363.557 1.07127H375.607L384.367 35.5058C384.752 37.0474 385.23 39.4018 385.808 42.5693C386.382 45.7365 386.821 48.4553 387.122 50.7258C387.396 48.5396 387.835 45.8208 388.44 42.5693C389.041 39.2898 389.589 36.6408 390.082 34.6229L397.732 1.07127H410.276L394.976 62.5403ZM442.52 14.6516C444.219 14.6516 445.633 14.778 446.755 15.0301L445.81 27.0547C444.797 26.7745 443.56 26.6343 442.108 26.6343C438.107 26.6343 434.981 27.6854 432.731 29.7876C430.511 31.8899 429.401 34.8329 429.401 38.617V62.5403H416.857V15.5345H426.357L428.207 23.4391H428.824C430.25 20.8042 432.169 18.6878 434.581 17.0902C437.024 15.4647 439.668 14.6516 442.52 14.6516ZM454.57 3.38385C454.57 -0.792643 456.844 -2.88086 461.396 -2.88086C465.947 -2.88086 468.224 -0.792643 468.224 3.38385C468.224 5.37385 467.649 6.92962 466.497 8.05055C465.372 9.1438 463.673 9.69058 461.396 9.69058C456.844 9.69058 454.57 7.58833 454.57 3.38385ZM467.649 62.5403H455.106V15.5345H467.649V62.5403ZM500.221 53.1645C502.414 53.1645 505.046 52.6739 508.117 51.6929V61.237C504.992 62.6664 501.154 63.381 496.602 63.381C491.585 63.381 487.924 62.0919 485.62 59.513C483.346 56.9064 482.206 53.0101 482.206 47.8246V25.1628H476.201V19.739L483.111 15.4505L486.73 5.52792H494.749V15.5345H507.624V25.1628H494.749V47.8246C494.749 49.6467 495.243 50.9921 496.232 51.8609C497.246 52.7299 498.576 53.1645 500.221 53.1645ZM536.493 23.7752C533.834 23.7752 531.749 24.6443 530.242 26.3821C528.735 28.0919 527.872 30.5303 527.652 33.6978H545.253C545.198 30.5303 544.389 28.0919 542.828 26.3821C541.264 24.6443 539.152 23.7752 536.493 23.7752ZM538.262 63.381C530.859 63.381 525.074 61.2929 520.908 57.1165C516.739 52.9403 514.657 47.0259 514.657 39.3738C514.657 31.4975 516.576 25.4149 520.415 21.1265C524.28 16.8101 529.613 14.6516 536.412 14.6516C542.909 14.6516 547.969 16.5438 551.588 20.3276C555.206 24.1116 557.017 29.3393 557.017 36.0101V42.2329H527.363C527.502 45.8767 528.558 48.7216 530.531 50.7679C532.504 52.8139 535.275 53.837 538.839 53.837C541.607 53.837 544.227 53.5427 546.693 52.9541C549.16 52.3655 551.738 51.4266 554.424 50.1372V60.0598C552.231 61.1807 549.888 62.0076 547.391 62.5403C544.898 63.1009 541.853 63.381 538.262 63.381ZM592.877 14.6516C594.58 14.6516 595.99 14.778 597.115 15.0301L596.168 27.0547C595.154 26.7745 593.921 26.6343 592.468 26.6343C588.464 26.6343 585.339 27.6854 583.092 29.7876C580.869 31.8899 579.759 34.8329 579.759 38.617V62.5403H567.215V15.5345H576.714L578.567 23.4391H579.184C580.61 20.8042 582.529 18.6878 584.942 17.0902C587.381 15.4647 590.028 14.6516 592.877 14.6516Z" fill="#E95334"/>
<path d="M121.477 94.6681C121.477 98.2635 120.45 101.214 118.396 103.518C116.342 105.823 113.723 106.976 110.538 106.976C107.331 106.976 104.7 105.835 102.646 103.553C100.615 101.271 99.6 98.3327 99.6 94.7372V94.3224C99.6 90.7039 100.627 87.7538 102.681 85.4721C104.735 83.1673 107.365 82.015 110.573 82.015C113.758 82.015 116.365 83.1558 118.396 85.4375C120.45 87.7192 121.477 90.6578 121.477 94.2532V94.6681ZM116.319 94.7372V94.3224C116.319 91.9715 115.777 90.1047 114.692 88.7218C113.631 87.3159 112.246 86.613 110.538 86.613C108.808 86.613 107.412 87.3044 106.35 88.6872C105.312 90.0471 104.792 91.9024 104.792 94.2532V94.6681C104.792 97.019 105.323 98.8973 106.385 100.303C107.469 101.686 108.865 102.378 110.573 102.378C112.304 102.378 113.688 101.698 114.727 100.338C115.788 98.955 116.319 97.0881 116.319 94.7372Z" fill="#FFBD00"/>
<path d="M134.24 92.2135H130.674V106.595H125.794V92.2135H123.924V88.1687H125.794V86.9587C125.794 83.2711 127.594 81.4272 131.194 81.4272C132.347 81.4272 133.374 81.5655 134.274 81.8421V85.887C133.697 85.6795 133.097 85.5758 132.474 85.5758C131.251 85.5758 130.64 86.2096 130.64 87.4772V88.1687H134.24V92.2135ZM145.87 92.2135H142.305V106.595H137.424V92.2135H135.555V88.1687H137.424V86.9587C137.424 83.2711 139.224 81.4272 142.824 81.4272C143.978 81.4272 145.005 81.5655 145.905 81.8421V85.887C145.305 85.6795 144.705 85.5758 144.105 85.5758C142.882 85.5758 142.27 86.2096 142.27 87.4772V88.1687H145.87V92.2135ZM153.486 86.0944H148.363V81.6347H153.486V86.0944ZM153.347 106.595H148.432V88.065H153.347V106.595Z" fill="#FFBD00"/>
<path d="M170.948 106.595H156.894V103.138L165.063 92.0752H157.136V88.065H170.948V91.5221L162.744 102.585H170.948V106.595Z" fill="#FFBD00"/>
<path d="M179.409 86.0944H174.286V81.6347H179.409V86.0944ZM179.271 106.595H174.355V88.065H179.271V106.595Z" fill="#FFBD00"/>
<path d="M198.676 97.5721C198.676 98.1944 198.653 98.736 198.607 99.197H187.53C187.969 101.663 189.307 102.896 191.545 102.896C192.999 102.896 194.372 102.32 195.665 101.168L197.88 104.141C196.172 106.031 194.003 106.976 191.372 106.976C188.857 106.976 186.769 106.111 185.107 104.383C183.469 102.654 182.649 100.384 182.649 97.5721V97.2264C182.649 94.4837 183.411 92.2251 184.934 90.4504C186.48 88.6527 188.43 87.7538 190.784 87.7538C193.322 87.7538 195.272 88.6757 196.634 90.5195C197.995 92.3403 198.676 94.6912 198.676 97.5721ZM193.934 95.9127C193.819 94.622 193.484 93.6079 192.93 92.8704C192.399 92.1329 191.684 91.7641 190.784 91.7641C189.884 91.7641 189.145 92.1213 188.569 92.8358C188.015 93.5503 187.657 94.5759 187.495 95.9127H193.934Z" fill="#FFBD00"/>
<path d="M206.99 106.595H202.075V81.6347H206.99V106.595Z" fill="#FFBD00"/>
<path d="M216.219 106.595H211.303V81.6347H216.219V106.595Z" fill="#FFBD00"/>
<path d="M243.441 106.595H238.63V104.625C237.43 106.146 235.826 106.906 233.818 106.906C232.226 106.906 230.899 106.411 229.838 105.42C228.799 104.429 228.28 103.069 228.28 101.34V101.098C228.28 99.1393 228.857 97.6643 230.011 96.6732C231.188 95.6822 232.768 95.1867 234.753 95.1867C236.138 95.1867 237.442 95.4287 238.665 95.9127V95.3941C238.665 93.2276 237.476 92.1444 235.099 92.1444C233.738 92.1444 232.238 92.4671 230.599 93.1124L229.665 89.1367C231.603 88.2839 233.68 87.8575 235.895 87.8575C238.411 87.8575 240.292 88.5029 241.538 89.7935C242.807 91.0842 243.441 92.9395 243.441 95.3595V106.595ZM238.699 100.545V98.955C237.915 98.5632 237.003 98.3672 235.965 98.3672C235.042 98.3672 234.315 98.5862 233.784 99.0241C233.276 99.439 233.022 100.05 233.022 100.856V101.098C233.022 101.836 233.242 102.401 233.68 102.792C234.118 103.184 234.695 103.38 235.411 103.38C236.38 103.38 237.165 103.127 237.765 102.62C238.388 102.089 238.699 101.398 238.699 100.545Z" fill="#FFBD00"/>
<path d="M262.257 106.595H257.341V104.106C255.98 105.996 254.388 106.941 252.565 106.941C250.834 106.941 249.484 106.388 248.515 105.282C247.568 104.152 247.095 102.62 247.095 100.684V88.065H252.011V99.2315C252.011 100.292 252.23 101.11 252.668 101.686C253.13 102.239 253.776 102.516 254.607 102.516C255.461 102.516 256.13 102.239 256.615 101.686C257.099 101.11 257.341 100.292 257.341 99.2315V88.065H262.257V106.595Z" fill="#FFBD00"/>
<path d="M275.473 92.2135H271.908V106.595H267.027V92.2135H265.158V88.1687H267.027V86.9587C267.027 83.2711 268.827 81.4272 272.427 81.4272C273.581 81.4272 274.608 81.5655 275.508 81.8421V85.887C274.931 85.6795 274.331 85.5758 273.708 85.5758C272.485 85.5758 271.873 86.2096 271.873 87.4772V88.1687H275.473V92.2135Z" fill="#FFBD00"/>
<path d="M303.123 106.595H298.208V104.037C296.869 105.973 295.196 106.941 293.188 106.941C291.204 106.941 289.519 106.134 288.135 104.521C286.773 102.908 286.092 100.603 286.092 97.6067V97.0535C286.092 94.0573 286.773 91.7526 288.135 90.1392C289.496 88.5259 291.181 87.7192 293.188 87.7192C295.15 87.7192 296.823 88.6181 298.208 90.4158V81.6347H303.123V106.595ZM298.277 97.5375V97.1227C298.277 95.5785 297.931 94.3454 297.238 93.4235C296.546 92.4786 295.681 92.0061 294.642 92.0061C293.604 92.0061 292.738 92.4786 292.046 93.4235C291.354 94.3454 291.008 95.5785 291.008 97.1227V97.5375C291.008 99.0817 291.354 100.326 292.046 101.271C292.738 102.193 293.604 102.654 294.642 102.654C295.681 102.654 296.546 102.193 297.238 101.271C297.931 100.326 298.277 99.0817 298.277 97.5375Z" fill="#FFBD00"/>
<path d="M322.332 97.5721C322.332 98.1944 322.309 98.736 322.262 99.197H311.185C311.624 101.663 312.962 102.896 315.201 102.896C316.655 102.896 318.028 102.32 319.32 101.168L321.535 104.141C319.828 106.031 317.659 106.976 315.028 106.976C312.512 106.976 310.424 106.111 308.762 104.383C307.124 102.654 306.305 100.384 306.305 97.5721V97.2264C306.305 94.4837 307.066 92.2251 308.589 90.4504C310.135 88.6527 312.085 87.7538 314.439 87.7538C316.978 87.7538 318.928 88.6757 320.289 90.5195C321.651 92.3403 322.332 94.6912 322.332 97.5721ZM317.589 95.9127C317.474 94.622 317.139 93.6079 316.585 92.8704C316.055 92.1329 315.339 91.7641 314.439 91.7641C313.539 91.7641 312.801 92.1213 312.224 92.8358C311.67 93.5503 311.312 94.5759 311.151 95.9127H317.589Z" fill="#FFBD00"/>
<path d="M350.688 106.595H345.772V95.4287C345.772 94.3685 345.553 93.5618 345.115 93.0087C344.676 92.4325 344.053 92.1444 343.246 92.1444C342.415 92.1444 341.757 92.4325 341.272 93.0087C340.811 93.5618 340.58 94.3685 340.58 95.4287V106.595H335.665V95.4287C335.665 93.2392 334.811 92.1444 333.103 92.1444C332.296 92.1444 331.649 92.4325 331.165 93.0087C330.703 93.5618 330.472 94.3685 330.472 95.4287V106.595H325.557V88.065H330.472V90.5541C331.811 88.6642 333.415 87.7192 335.284 87.7192C337.407 87.7192 338.942 88.6181 339.888 90.4158C341.388 88.6181 343.142 87.7192 345.149 87.7192C346.857 87.7192 348.207 88.2609 349.199 89.3441C350.192 90.4043 350.688 91.937 350.688 93.9421V106.595Z" fill="#FFBD00"/>
<path d="M385.155 106.595H380.24V91.1418L374.528 101.133H374.424L368.748 91.2455V106.595H363.901V82.3952H369.163L374.494 92.2135L379.859 82.3952H385.155V106.595Z" fill="#FFBD00"/>
<path d="M403.707 106.595H398.895V104.625C397.695 106.146 396.091 106.906 394.084 106.906C392.491 106.906 391.164 106.411 390.103 105.42C389.064 104.429 388.545 103.069 388.545 101.34V101.098C388.545 99.1393 389.122 97.6643 390.276 96.6732C391.453 95.6822 393.034 95.1867 395.018 95.1867C396.403 95.1867 397.707 95.4287 398.93 95.9127V95.3941C398.93 93.2276 397.741 92.1444 395.364 92.1444C394.003 92.1444 392.503 92.4671 390.864 93.1124L389.93 89.1367C391.868 88.2839 393.945 87.8575 396.161 87.8575C398.676 87.8575 400.557 88.5029 401.803 89.7935C403.072 91.0842 403.707 92.9395 403.707 95.3595V106.595ZM398.964 100.545V98.955C398.18 98.5632 397.268 98.3672 396.23 98.3672C395.307 98.3672 394.58 98.5862 394.049 99.0241C393.541 99.439 393.287 100.05 393.287 100.856V101.098C393.287 101.836 393.507 102.401 393.945 102.792C394.384 103.184 394.961 103.38 395.676 103.38C396.645 103.38 397.43 103.127 398.03 102.62C398.653 102.089 398.964 101.398 398.964 100.545Z" fill="#FFBD00"/>
<path d="M417.434 93.0778H417.226C415.68 93.0778 414.48 93.5618 413.626 94.5298C412.795 95.4978 412.38 96.9383 412.38 98.8512V106.595H407.464V88.065H412.38V91.3492C413.418 88.8601 415.103 87.6616 417.434 87.7538V93.0778Z" fill="#FFBD00"/>
<path d="M436.097 106.595H430.524L426.647 99.197L425.124 101.133V106.595H420.208V81.6347H425.124V94.9101L430.212 88.065H435.958L430.074 95.4287L436.097 106.595Z" fill="#FFBD00"/>
<path d="M447.571 105.973C446.556 106.572 445.344 106.872 443.937 106.872C442.391 106.872 441.179 106.503 440.302 105.766C439.448 105.028 439.021 103.76 439.021 101.963V92.2135H437.152V88.065H439.021V83.3287H443.937V88.065H447.641V92.2135H443.937V100.96C443.937 102.02 444.444 102.55 445.46 102.55C446.244 102.55 446.948 102.378 447.571 102.032V105.973Z" fill="#FFBD00"/>
<path d="M475.337 99.7501C475.337 101.963 474.599 103.703 473.122 104.97C471.645 106.238 469.718 106.872 467.341 106.872C464.087 106.872 461.249 105.869 458.825 103.864L461.041 99.923C463.164 101.559 465.229 102.378 467.237 102.378C468.206 102.378 468.968 102.182 469.522 101.79C470.075 101.398 470.352 100.833 470.352 100.096C470.352 99.4274 470.087 98.8628 469.556 98.4018C469.025 97.9409 467.929 97.3532 466.268 96.6387C465.275 96.2238 464.479 95.8666 463.879 95.567C463.279 95.2673 462.656 94.8986 462.01 94.4607C461.387 93.9997 460.902 93.5388 460.556 93.0778C460.233 92.6169 459.956 92.0522 459.725 91.3838C459.518 90.7154 459.414 89.9549 459.414 89.1021C459.414 87.0048 460.129 85.3223 461.56 84.0547C463.014 82.764 464.872 82.1187 467.133 82.1187C469.972 82.1187 472.441 82.9023 474.541 84.4695L472.602 88.5835C470.595 87.2698 468.795 86.613 467.202 86.613C466.325 86.613 465.633 86.8089 465.125 87.2007C464.641 87.5925 464.399 88.1111 464.399 88.7564C464.399 89.4709 464.652 90.024 465.16 90.4158C465.691 90.8076 466.879 91.4184 468.725 92.2481C471.102 93.3083 472.799 94.3685 473.814 95.4287C474.829 96.4889 475.337 97.9293 475.337 99.7501Z" fill="#FFBD00"/>
<path d="M493.854 97.5721C493.854 98.1944 493.83 98.736 493.784 99.197H482.707C483.146 101.663 484.484 102.896 486.723 102.896C488.177 102.896 489.55 102.32 490.842 101.168L493.057 104.141C491.35 106.031 489.18 106.976 486.55 106.976C484.034 106.976 481.946 106.111 480.284 104.383C478.646 102.654 477.827 100.384 477.827 97.5721V97.2264C477.827 94.4837 478.588 92.2251 480.111 90.4504C481.657 88.6527 483.607 87.7538 485.961 87.7538C488.5 87.7538 490.45 88.6757 491.811 90.5195C493.173 92.3403 493.854 94.6912 493.854 97.5721ZM489.111 95.9127C488.996 94.622 488.661 93.6079 488.107 92.8704C487.577 92.1329 486.861 91.7641 485.961 91.7641C485.061 91.7641 484.323 92.1213 483.746 92.8358C483.192 93.5503 482.834 94.5759 482.673 95.9127H489.111Z" fill="#FFBD00"/>
<path d="M502.306 86.0944H497.183V81.6347H502.306V86.0944ZM502.167 106.595H497.252V88.065H502.167V106.595Z" fill="#FFBD00"/>
<path d="M515.619 105.973C514.604 106.572 513.392 106.872 511.984 106.872C510.438 106.872 509.227 106.503 508.35 105.766C507.496 105.028 507.069 103.76 507.069 101.963V92.2135H505.2V88.065H507.069V83.3287H511.984V88.065H515.688V92.2135H511.984V100.96C511.984 102.02 512.492 102.55 513.507 102.55C514.292 102.55 514.996 102.378 515.619 102.032V105.973Z" fill="#FFBD00"/>
<path d="M542.692 106.595H527.219V102.585L534.073 95.1521C535.365 93.8153 536.254 92.7436 536.738 91.937C537.246 91.1303 537.5 90.3121 537.5 89.4824C537.5 88.6066 537.235 87.9152 536.704 87.4081C536.173 86.9011 535.469 86.6475 534.592 86.6475C533.785 86.6475 533.046 86.855 532.377 87.2698C531.731 87.6847 530.992 88.3415 530.162 89.2404L527.565 85.887C528.627 84.5963 529.735 83.6513 530.888 83.0521C532.042 82.4298 533.45 82.1187 535.112 82.1187C537.373 82.1187 539.173 82.7294 540.512 83.951C541.873 85.1725 542.554 86.8319 542.554 88.9292V89.033C542.554 90.6002 542.185 91.96 541.446 93.1124C540.708 94.2648 539.392 95.7513 537.5 97.5721L533.692 102.136H542.692V106.595Z" fill="#FFBD00"/>
<path d="M564.439 94.7027C564.439 98.4133 563.585 101.386 561.877 103.622C560.192 105.858 557.931 106.976 555.092 106.976C552.254 106.976 549.992 105.869 548.308 103.657C546.623 101.421 545.781 98.4479 545.781 94.7372V94.2878C545.781 90.5772 546.623 87.604 548.308 85.3684C550.016 83.1328 552.289 82.015 555.127 82.015C557.966 82.015 560.227 83.1328 561.912 85.3684C563.596 87.581 564.439 90.5426 564.439 94.2532V94.7027ZM559.35 94.7372V94.3224C559.35 91.8102 558.958 89.8857 558.173 88.549C557.412 87.1892 556.385 86.5092 555.092 86.5092C553.777 86.5092 552.739 87.1776 551.977 88.5144C551.239 89.8281 550.869 91.7411 550.869 94.2532V94.6681C550.869 97.1803 551.25 99.1163 552.012 100.476C552.773 101.813 553.812 102.481 555.127 102.481C556.442 102.481 557.469 101.824 558.208 100.511C558.969 99.1739 559.35 97.2494 559.35 94.7372Z" fill="#FFBD00"/>
<path d="M576.135 106.595H571.185V87.3735L567.482 88.3415L566.72 84.0201L572.708 82.2224H576.135V106.595Z" fill="#FFBD00"/>
<path d="M596.666 99.8538C596.666 102.043 595.892 103.772 594.346 105.04C592.823 106.307 590.839 106.941 588.392 106.941C585.992 106.941 584.008 106.307 582.439 105.04C580.892 103.749 580.119 102.043 580.119 99.923V99.8192C580.119 97.0766 581.319 95.106 583.719 93.9075C581.781 92.7321 580.812 90.992 580.812 88.6872V88.549C580.812 86.6821 581.516 85.1379 582.923 83.9164C584.354 82.6718 586.177 82.0495 588.392 82.0495C590.608 82.0495 592.419 82.6718 593.827 83.9164C595.258 85.1379 595.973 86.6821 595.973 88.549V88.6872C595.973 91.0151 595.004 92.7552 593.066 93.9075C595.466 95.2212 596.666 97.1572 596.666 99.7155V99.8538ZM591.266 89.2058V89.1021C591.266 88.2032 591.012 87.4772 590.504 86.9241C589.996 86.371 589.292 86.0944 588.392 86.0944C587.516 86.0944 586.812 86.371 586.281 86.9241C585.773 87.4542 585.519 88.1687 585.519 89.0675V89.1712C585.519 90.1162 585.773 90.8768 586.281 91.453C586.812 92.0292 587.516 92.3172 588.392 92.3172C589.269 92.3172 589.962 92.0407 590.469 91.4875C591 90.9113 591.266 90.1508 591.266 89.2058ZM591.819 99.5772V99.439C591.819 98.4249 591.496 97.6412 590.85 97.0881C590.227 96.5119 589.408 96.2238 588.392 96.2238C587.377 96.2238 586.546 96.5119 585.9 97.0881C585.277 97.6412 584.966 98.4249 584.966 99.439V99.5772C584.966 100.614 585.266 101.421 585.866 101.997C586.466 102.573 587.308 102.862 588.392 102.862C589.477 102.862 590.319 102.573 590.919 101.997C591.519 101.421 591.819 100.614 591.819 99.5772Z" fill="#FFBD00"/>
</g>
<defs>
<clipPath id="clip0_405_1339">
<rect width="600" height="121" fill="white"/>
</clipPath>
</defs>
</svg>
