<svg width="24" height="18" viewBox="0 0 24 18" fill="none" xmlns="http://www.w3.org/2000/svg">
<path fill-rule="evenodd" clip-rule="evenodd" d="M24 4C24 1.79086 22.2091 0 20 0H4C1.79086 0 0 1.79086 0 4V14C0 16.2091 1.79086 18 4 18H20C22.2091 18 24 16.2091 24 14V4ZM8.4225 12.729C8.76 12.651 9 12.3465 9 12V6C9 5.586 8.664 5.25 8.25 5.25C7.836 5.25 7.5 5.586 7.5 6V8.823L5.9205 5.664C5.7645 5.3535 5.4135 5.1885 5.0775 5.2695C4.74 5.349 4.5 5.652 4.5 6V12C4.5 12.414 4.836 12.75 5.25 12.75C5.664 12.75 6 12.414 6 12V9.177L7.5795 12.336C7.7085 12.594 7.971 12.75 8.25 12.75C8.307 12.75 8.3655 12.744 8.4225 12.729ZM13.5 9C13.5 8.586 13.164 8.25 12.75 8.25H12V6.75H12.75C13.164 6.75 13.5 6.414 13.5 6C13.5 5.586 13.164 5.25 12.75 5.25H11.25C10.836 5.25 10.5 5.586 10.5 6V12C10.5 12.414 10.836 12.75 11.25 12.75H12.75C13.164 12.75 13.5 12.414 13.5 12C13.5 11.586 13.164 11.25 12.75 11.25H12V9.75H12.75C13.164 9.75 13.5 9.414 13.5 9ZM18.9225 12.729C19.2615 12.651 19.5 12.3465 19.5 12V6C19.5 5.586 19.164 5.25 18.75 5.25C18.336 5.25 18 5.586 18 6V8.823L17.922 8.6655C17.667 8.157 16.8345 8.157 16.5795 8.6655L16.5 8.823V6C16.5 5.586 16.164 5.25 15.75 5.25C15.336 5.25 15 5.586 15 6V12C15 12.3465 15.2385 12.651 15.576 12.729C15.921 12.813 16.2645 12.645 16.4205 12.3345L17.25 10.677L18.0795 12.336C18.2085 12.594 18.4695 12.75 18.75 12.75C18.807 12.75 18.864 12.744 18.9225 12.729Z" fill="#F95E69"/>
</svg>
