<svg width="382" height="373" viewBox="0 0 382 373" fill="none" xmlns="http://www.w3.org/2000/svg">
<g clip-path="url(#clip0_1248_344)">
<path d="M209.013 0.19628C119.405 -2.5219 41.7844 64.286 30.0579 151.946C17.2361 247.792 87.8057 334.028 174.633 347.84C282.638 365.021 387.397 265.632 377.991 157.81C370.91 76.5758 300.102 2.95978 209.013 0.19628Z" fill="#F4F7FA"/>
<path d="M104.475 252.276C101.722 256.842 96.9238 263.041 91.7296 270.231L178.502 282.732C168.78 256.337 155.08 228.62 175.485 182.766C185.061 161.247 210.526 123.409 200.019 98.1931C188.048 69.465 164.41 81.8881 158.391 59.6441C148.992 24.877 119.353 0.706735 87.5442 18.0076C56.154 35.0805 57.2427 97.3973 98.6729 165.545C122.853 217.798 118.849 228.435 104.475 252.276Z" fill="url(#paint0_linear_1248_344)"/>
<g style="mix-blend-mode:soft-light">
<mask id="mask0_1248_344" style="mask-type:luminance" maskUnits="userSpaceOnUse" x="65" y="12" width="138" height="248">
<path d="M175.489 182.763C185.065 161.244 210.53 123.406 200.023 98.1905C188.052 69.4624 164.414 81.8855 158.395 59.6415C148.996 24.8758 119.357 0.704134 87.5482 18.005C56.154 35.0806 57.2427 97.3973 98.6729 165.545C122.853 217.802 118.849 228.435 104.475 252.276C94.4061 268.976 139.484 263.669 175.489 182.763Z" fill="white"/>
</mask>
<g mask="url(#mask0_1248_344)">
<path d="M137.317 271.667C137.936 260.281 137.943 249.511 137.95 238.108V234.306C137.615 228.815 137.433 223.392 137.257 218.147C136.857 206.304 136.487 195.118 134.473 183.243C134.434 182.55 134.43 181.877 134.426 181.162C134.411 178.615 134.395 175.98 132.914 173.462L132.88 173.357C126.876 110.551 107.807 47.9289 76.1993 -12.7668L76.6502 -13.0015C108.278 47.7342 127.365 110.4 133.381 173.253C134.904 175.875 134.92 178.681 134.934 181.159C134.934 181.867 134.942 182.535 134.978 183.187C136.994 195.066 137.369 206.27 137.766 218.13C137.94 223.372 138.122 228.795 138.458 234.291V238.108C138.458 249.518 138.445 260.296 137.824 271.702L137.317 271.667Z" fill="#FCFDFE"/>
<path d="M136.697 215.972C136.12 186.268 151.774 150.973 165.017 126.595C179.352 100.2 194.014 80.5551 194.16 80.3591L194.567 80.6644C194.421 80.859 179.777 100.474 165.46 126.844C152.251 151.166 136.631 186.371 137.205 215.963L136.697 215.972Z" fill="#FCFDFE"/>
<path d="M116.647 86.8885C114.279 55.4022 119.09 21.8096 120.671 10.7689C120.973 8.65733 121.173 7.26158 121.164 6.99096L121.672 6.97363C121.683 7.27624 121.527 8.37871 121.175 10.8396C119.596 21.8643 114.79 55.4156 117.154 86.8459L116.647 86.8885Z" fill="#FCFDFE"/>
<path d="M128.015 137.233C117.364 110.111 61.7577 86.1007 61.1906 85.854L61.3894 85.3875C61.9525 85.6274 117.76 109.73 128.489 137.046L128.015 137.233Z" fill="#FCFDFE"/>
</g>
</g>
<path d="M80.1953 154.888C74.9157 194.789 96.0378 184.434 113.201 190.918C129.397 223.445 127.365 251.174 93.392 270.475L60.0832 260.477C47.5415 258.078 33.2654 252.079 36.5316 235.394C40.2193 216.524 46.4595 205.099 26.3354 192.673C6.21139 180.248 -0.550438 161.886 10.9332 143.765C23.0252 124.702 5.52827 94.1232 23.1827 82.7213C53.9471 62.8569 85.6922 113.334 80.1953 154.888Z" fill="url(#paint1_linear_1248_344)"/>
<g style="mix-blend-mode:soft-light">
<mask id="mask1_1248_344" style="mask-type:luminance" maskUnits="userSpaceOnUse" x="5" y="78" width="117" height="185">
<path d="M72.0312 262.008C60.0232 260.995 32.1033 258.062 36.5329 235.394C40.2207 216.524 46.4608 205.099 26.3368 192.673C6.21275 180.248 -0.550411 161.886 10.9332 143.765C23.0253 124.702 5.5283 94.1233 23.1827 82.7213C53.9472 62.8583 85.6923 113.334 80.1953 154.883C74.6983 196.431 97.8283 183.483 115.307 191.81C139.168 203.164 81.735 262.826 72.0312 262.008Z" fill="white"/>
</mask>
<g mask="url(#mask1_1248_344)">
<path d="M78.3634 227.384C66.3763 209.772 56.5715 190.771 49.164 170.799C41.6924 150.661 36.7944 129.85 34.5916 108.943C33.3305 97.0183 32.963 85.016 33.4922 73.0364L34.0126 73.059C33.4835 85.0146 33.8501 96.993 35.1093 108.894C37.3068 129.758 42.2007 150.528 49.6523 170.624C57.0443 190.557 66.8294 209.521 78.793 227.099L78.3634 227.384Z" fill="#FCFDFE"/>
<path d="M33.3721 245.148L33.2053 244.655C39.9925 242.349 47.8124 240.913 56.4501 240.389C60.4583 240.139 64.479 240.166 68.4834 240.47L68.4434 240.989C64.463 240.686 60.4663 240.658 56.4821 240.908C47.8911 241.429 40.1153 242.855 33.3721 245.148Z" fill="#FCFDFE"/>
<path d="M54.1526 183.118C39.0239 163.595 1.37752 159.758 0.999939 159.725L1.05064 159.206C1.43089 159.245 39.2974 163.099 54.5636 182.802L54.1526 183.118Z" fill="#FCFDFE"/>
<path d="M38.8718 135.652C37.5202 107.79 62.3727 79.3953 62.6209 79.1086L63.0105 79.4526C62.761 79.7352 38.0486 107.981 39.3948 135.626L38.8718 135.652Z" fill="#FCFDFE"/>
</g>
</g>
<path d="M382 342.071L15.8165 338.855V348.371C15.8165 350.953 17.4175 353.149 19.5763 353.541L123.122 372.276C124.347 372.498 125.596 372.557 126.837 372.452L378.02 351.089C380.263 350.898 382 348.689 382 346.042V342.071Z" fill="url(#paint2_linear_1248_344)"/>
<path d="M255.252 159.811V318.992C255.256 320.909 254.607 322.771 253.41 324.27C252.306 325.625 250.783 326.525 249.116 326.655L133.352 335.426L80.6503 339.352L21.3308 343.788L19.6097 343.986C19.4015 343.999 19.1987 344.043 18.9946 344.039C18.7093 344.04 18.4242 344.024 18.1407 343.992C17.293 343.882 16.4716 343.623 15.7151 343.225C14.5587 342.565 13.5995 341.609 12.9367 340.455C12.2738 339.301 11.9314 337.991 11.9446 336.661V160.573C11.9446 156.181 15.5043 152.805 19.6097 152.805H249.112C252.495 152.805 255.252 155.835 255.252 159.811Z" fill="url(#paint3_linear_1248_344)"/>
<path d="M258.946 159.811V318.992C258.945 321.001 258.219 322.941 256.901 324.458C256.175 325.279 255.27 325.791 254.296 326.256C254.15 326.256 254.001 326.389 253.849 326.428C253.502 326.533 253.144 326.603 252.782 326.635L83.9311 339.447L23.2641 344.054C22.814 344.065 22.364 344.032 21.9205 343.954C21.7217 343.932 21.5203 343.79 21.3295 343.79C21.1695 343.797 21.0095 343.78 20.8545 343.74C19.6967 343.401 18.645 342.772 17.7995 341.912C16.954 341.053 16.343 339.991 16.0246 338.828C15.8312 338.137 15.6377 337.434 15.6377 336.663V160.573C15.6377 156.181 19.16 152.805 23.2694 152.805H252.773C256.154 152.805 258.946 155.835 258.946 159.811Z" fill="url(#paint4_linear_1248_344)"/>
<path d="M245.623 315.423L31.8578 330.543C28.5156 330.779 25.8005 328.064 25.8005 324.475V170.313C25.8005 166.725 28.5156 163.804 31.8578 163.789L245.623 162.84C248.414 162.828 250.671 165.466 250.671 168.735V309.148C250.671 312.417 248.415 315.226 245.623 315.423Z" fill="#D8DEE8"/>
<path d="M146.123 157.433C146.123 159.069 144.942 160.399 143.483 160.405C142.023 160.41 140.837 159.084 140.837 157.444C140.837 155.804 142.023 154.474 143.483 154.472C144.942 154.471 146.123 155.796 146.123 157.433Z" fill="white"/>
<g style="mix-blend-mode:soft-light" opacity="0.48">
<path d="M197.476 278.351C179.783 268.134 165.871 281.08 152.445 268.308C144.306 260.564 148.301 254.789 138.285 243.216C127.192 230.4 119.97 234.709 108.821 223.172C94.7236 208.587 101.775 197.238 89.6322 186.767C74.9011 174.062 59.0145 185.82 44.9932 173.637C38.9452 168.382 35.6256 160.742 33.8938 152.617H20.1727C17.7711 152.617 15.8165 154.708 15.8165 157.283V339.815C15.8165 342.394 17.7684 344.337 20.1727 344.154L254.082 326.335C255.229 326.247 256.247 325.535 256.901 324.486C239.777 323.819 229.258 317.655 222.534 311.288C209.38 298.829 211.661 286.543 197.476 278.351Z" fill="white"/>
</g>
<path d="M261.92 325.856L15.8165 344.178L123.122 363.596C124.348 363.818 125.596 363.877 126.837 363.772L382 342.071L265.835 325.98C264.538 325.8 263.226 325.759 261.92 325.856Z" fill="url(#paint5_linear_1248_344)"/>
<path style="mix-blend-mode:multiply" opacity="0.3" d="M51.7271 344.638L256.615 329.158L320.027 337.87L116.904 354.418L51.7271 344.638Z" fill="url(#paint6_linear_1248_344)"/>
<g style="mix-blend-mode:multiply" opacity="0.3">
<path d="M258.946 159.811V310.239L255.261 310.46L250.506 310.742L246.159 311L223.693 312.333L52.9345 322.514C51.8596 322.582 50.7806 322.537 49.715 322.381C44.5809 321.629 40.3421 318.353 38.3381 313.782C38.0379 313.094 37.671 312.375 37.4815 311.632C37.1547 310.396 36.8691 309.09 36.8691 307.734V152.805H252.773C256.154 152.805 258.946 155.835 258.946 159.811Z" fill="#C7CCD3"/>
</g>
<path d="M322.234 117.498C322.234 110.715 317.831 104.949 312.008 103.5C311.8 103.448 311.569 103.403 311.357 103.367C310.711 103.243 310.056 103.173 309.398 103.158L184.729 100.082L57.2947 96.9281C57.0279 96.9214 56.7504 96.9214 56.4808 96.9281C53.1517 97.0059 49.9365 98.1551 47.3134 100.205L47.18 100.314C46.8171 100.605 46.4662 100.913 46.1313 101.234L46.1073 101.257C45.9098 101.449 45.7172 101.645 45.5296 101.847C42.8987 104.678 41.4423 108.402 41.4549 112.265V123.547V300.605C41.4525 301.921 41.6207 303.232 41.9552 304.505C42.1493 305.239 42.4 305.957 42.705 306.653C44.7064 311.227 48.9465 314.502 54.0793 315.253C55.1445 315.407 56.2229 315.452 57.2974 315.386L250.517 303.869L309.434 300.359C316.506 299.938 322.243 293.314 322.243 285.562V127.56L322.234 117.498Z" fill="#D8DEE8"/>
<path d="M313.221 103.13L61.2974 96.9109C52.5783 96.6963 45.4669 103.564 45.4669 112.243V300.517C45.4669 309.201 52.5783 315.815 61.2974 315.295L313.221 300.277C320.282 299.856 325.973 293.234 325.973 285.48V117.474C325.973 109.726 320.282 103.304 313.221 103.13Z" fill="white"/>
<path d="M61.2974 310.306C55.3774 310.647 50.5422 306.134 50.5422 300.245V112.337C50.5425 110.941 50.8233 109.558 51.3678 108.272C51.9123 106.985 52.7095 105.821 53.7123 104.848C54.7151 103.875 55.9031 103.113 57.206 102.606C58.5088 102.1 59.9001 101.86 61.2974 101.901L313.221 107.633C318.024 107.742 321.917 112.123 321.917 117.398V285.703C321.917 290.979 318.024 295.495 313.221 295.772L61.2974 310.306Z" fill="url(#paint7_linear_1248_344)"/>
<path d="M313.221 103.13L61.2974 96.9109C52.5783 96.6963 45.4669 103.564 45.4669 112.243V123.521L325.973 127.539V117.474C325.973 109.726 320.282 103.304 313.221 103.13Z" fill="#D8DEE8"/>
<path d="M73.5735 111.26C73.5749 111.926 73.4429 112.586 73.1852 113.2C72.9275 113.815 72.5494 114.372 72.073 114.838C71.5967 115.304 71.0318 115.67 70.4117 115.915C69.7915 116.159 69.1287 116.277 68.4621 116.262C67.097 116.236 65.7963 115.677 64.8376 114.706C63.8789 113.734 63.3381 112.427 63.3307 111.063C63.329 110.395 63.4615 109.734 63.7204 109.118C63.9793 108.502 64.3592 107.944 64.8377 107.478C65.3163 107.011 65.8836 106.646 66.5062 106.402C67.1287 106.159 67.7939 106.043 68.4621 106.061C69.8235 106.093 71.1188 106.654 72.0731 107.625C73.0273 108.596 73.5656 109.9 73.5735 111.26Z" fill="white"/>
<path d="M91.3654 111.603C91.3692 112.262 91.241 112.915 90.9882 113.524C90.7353 114.133 90.3631 114.685 89.8933 115.148C89.4235 115.611 88.8657 115.975 88.2529 116.22C87.64 116.464 86.9844 116.583 86.3247 116.57C84.9739 116.539 83.6886 115.982 82.7431 115.018C81.7976 114.054 81.2668 112.758 81.264 111.408C81.2591 110.747 81.3874 110.091 81.6411 109.481C81.8948 108.87 82.2689 108.317 82.741 107.853C83.2131 107.39 83.7736 107.026 84.3893 106.783C85.0049 106.541 85.6631 106.424 86.3247 106.441C87.672 106.477 88.9522 107.036 89.8935 108C90.8347 108.964 91.3627 110.256 91.3654 111.603Z" fill="white"/>
<path d="M108.914 111.94C108.92 112.593 108.796 113.239 108.547 113.843C108.299 114.446 107.933 114.994 107.469 115.454C107.006 115.913 106.455 116.276 105.85 116.519C105.244 116.763 104.596 116.883 103.943 116.873C101.188 116.826 98.9517 114.53 98.9517 111.747C98.9457 111.093 99.0711 110.444 99.3205 109.84C99.5699 109.235 99.9382 108.686 100.404 108.226C100.869 107.766 101.422 107.404 102.03 107.162C102.638 106.919 103.289 106.801 103.943 106.814C106.692 106.873 108.914 109.163 108.914 111.94Z" fill="white"/>
<path d="M311.083 286.351L63.9138 299.603V151.959L311.083 152.809V286.351Z" fill="white"/>
<path d="M198.814 137.93L63.9138 136.67V144.645L198.814 145.49V137.93Z" fill="#D8DEE8"/>
<path d="M297.4 138.851V146.107L311.083 146.193V138.979L297.4 138.851Z" fill="#D8DEE8"/>
<g style="mix-blend-mode:soft-light" opacity="0.5">
<path d="M217.122 198.433C187.8 156.032 136.547 170.571 103.795 123.13C97.8604 114.533 93.8284 105.756 91.0612 97.6454L61.2974 96.9109C52.5783 96.6963 45.4669 103.564 45.4669 112.243V300.517C45.4669 309.201 52.5783 315.815 61.2974 315.295L254.384 303.784C248.391 295.27 243.274 286.173 239.112 276.63C222.131 237.692 234.713 223.868 217.122 198.433Z" fill="white"/>
</g>
<mask id="mask2_1248_344" style="mask-type:luminance" maskUnits="userSpaceOnUse" x="0" y="49" width="364" height="250">
<path d="M90.7063 298.853L253.228 289.453L363.033 163.515L291.073 49.8767L0.650391 98.9119L41.0092 288.41L90.7063 298.853Z" fill="white"/>
</mask>
<g mask="url(#mask2_1248_344)">
<path d="M282.578 167.005C282.578 167.005 285.88 163.058 292.077 162.872C298.275 162.687 306.719 159.006 310.344 158.689C311.219 158.61 311.653 158.36 311.728 158.041C311.881 157.384 307.859 156.426 304.284 156.308C297.952 156.098 294.259 158.525 293.405 157.277C292.451 155.883 296.538 152.078 295.789 151.222C295.209 150.556 292.43 152.689 289.456 153.978C287.345 154.896 279.087 164.761 279.087 164.761L282.578 167.005Z" fill="url(#paint8_linear_1248_344)"/>
<path d="M282.578 167.005C282.578 167.005 285.88 163.058 292.077 162.872C298.275 162.687 306.719 159.006 310.344 158.689C311.219 158.61 311.653 158.36 311.728 158.041C311.881 157.384 307.859 156.426 304.284 156.308C297.952 156.098 294.259 158.525 293.405 157.277C292.451 155.883 296.538 152.078 295.789 151.222C295.209 150.556 292.43 152.689 289.456 153.978C287.345 154.896 279.087 164.761 279.087 164.761L282.578 167.005Z" fill="url(#paint9_linear_1248_344)"/>
<path d="M188.159 160.417C187.841 155.933 186.877 142.267 194.094 138.178C201.529 133.964 213.386 142.337 218.214 145.745C238.674 160.191 239.161 177.72 250.458 179.633C255.528 180.493 263.593 178.343 275.731 162.458L282.576 167.005C282.2 184.818 272.979 200.805 258.368 207.864C233.611 219.827 208.929 198.628 205.964 196C204.336 194.556 189.619 181.106 188.159 160.417Z" fill="url(#paint10_linear_1248_344)"/>
<path d="M220.271 393.9H245.529C244.072 385.19 242.726 376.251 241.489 367.081C237.003 333.644 234.537 299.967 234.104 266.234L186.268 276.265C190.242 307.544 197.653 330.943 203.923 346.887C210.435 363.448 216.749 374.595 220.271 393.9Z" fill="url(#paint11_linear_1248_344)"/>
<path style="mix-blend-mode:multiply" opacity="0.3" d="M220.271 393.9H236.885C233.54 384.886 230.667 383.983 228.223 370.947C223.932 348.068 231.314 343.048 225.254 324.986C220.318 310.255 213.659 308.398 213.38 298.3C213.01 284.69 224.698 273.396 234.1 266.234L186.264 276.265C190.238 307.544 197.648 330.943 203.919 346.887C210.435 363.448 216.749 374.595 220.271 393.9Z" fill="url(#paint12_linear_1248_344)"/>
<path d="M161.157 393.9H190.697C190.803 390.434 190.914 386.963 191.029 383.488C192.34 343.75 194.056 304.711 196.176 266.371C164.198 264.859 153.244 276.201 149.745 280.722C138.982 294.647 143.808 317.034 153.461 361.804C157.005 378.225 159.397 384.535 161.157 393.9Z" fill="url(#paint13_linear_1248_344)"/>
<path d="M210.846 161.225C214.793 158.668 211.197 151.226 210.98 135.251C210.713 115.671 215.924 112.023 211.744 104.341C206.633 94.9485 193.765 91.0612 185.24 90.8772C183.36 90.8372 182.92 89.8108 167.168 93.8874C138.789 101.231 131.684 93.3541 118.976 101.219C106.701 108.818 112.074 117.138 100.15 126.048C80.8237 140.491 60.4995 124.876 46.6876 136.957C33.6216 148.384 33.3214 177.498 47.0639 193.385C62.6423 211.397 90.7343 205.984 109.563 202.413C113.524 201.663 133.533 197.463 154.367 182.099C163.658 175.239 171.901 167.066 178.84 157.837C180.02 156.504 181.864 154.904 184.299 154.638C187.221 154.327 189.568 156.112 190.703 156.895C196.647 161.007 206.969 163.736 210.846 161.225Z" fill="url(#paint14_linear_1248_344)"/>
<path d="M196.514 140.066C196.514 140.066 163.548 130.46 149.029 146.881C146.769 149.437 144.478 153.202 142.722 161.513C136.561 190.671 152.96 201.056 150.728 227.514C150.471 230.544 147.608 259.642 126.463 277.517C116.407 286.021 104.949 289.677 105.232 297.216C105.435 302.643 111.628 307.589 117.364 309.338C128.337 312.684 134.74 303.443 149.211 300.246C164.335 296.904 167.839 304.677 191.673 307.822C199.607 308.869 235.819 313.648 244.753 298.73C248.555 292.382 243.867 288.394 237.17 262.365C236.493 259.732 224.896 213.988 228.407 194.056C228.711 192.323 229.741 185.323 229.435 176.031C229.334 173.362 228.99 170.707 228.407 168.099C228.407 168.099 225.605 155.115 215.497 143.97C214.035 142.364 212.304 140.696 196.514 140.066Z" fill="url(#paint15_linear_1248_344)"/>
<g style="mix-blend-mode:multiply" opacity="0.3">
<path d="M149.024 146.88C145.701 146.843 143.108 159.661 142.717 161.512C136.555 190.671 152.954 201.056 150.722 227.514C150.466 230.544 147.603 259.641 126.458 277.517C116.402 286.021 104.944 289.677 105.227 297.216C105.429 302.643 111.623 307.589 117.359 309.338C128.331 312.684 134.734 303.443 149.205 300.246C164.33 296.904 167.834 304.677 191.668 307.822C199.601 308.869 235.813 313.648 244.747 298.73C245.671 297.191 246.019 296.516 245.928 295.858C244.93 288.608 211.405 295.202 203.004 281.993C194.795 269.086 216.063 245.92 208.94 238.997C203.376 233.591 189.193 246.54 177.777 240.48C170.622 236.679 169.443 227.994 165.903 209.345C159.689 176.598 154.067 146.936 149.024 146.88Z" fill="url(#paint16_linear_1248_344)"/>
</g>
<path d="M185.924 118.7C186.37 120.785 188.643 131.967 184.056 134.845C183.065 135.469 181.157 135.826 177.341 136.541C174.845 137.009 172.749 137.296 171.271 137.474C171.484 139.35 172.116 142.407 174.283 145.178C180.354 152.962 192.529 150.948 194.264 150.632C200.389 149.517 206.414 147.627 207.874 146.471C210.09 144.712 211.832 143.392 212.862 142.051C210.493 140.907 205.708 137.89 202.497 136.902C200.297 136.226 198.059 135.678 195.796 135.26C195.46 133.1 195.123 130.94 194.786 128.78C191.833 125.419 188.879 122.059 185.924 118.7Z" fill="url(#paint17_linear_1248_344)"/>
<path d="M185.924 118.7C186.37 120.785 188.643 131.967 184.056 134.845C183.065 135.469 181.157 135.826 177.341 136.541C174.845 137.009 172.749 137.296 171.271 137.474C171.484 139.35 172.116 142.407 174.283 145.178C180.354 152.962 192.529 150.948 194.264 150.632C200.389 149.517 206.414 147.627 207.874 146.471C210.09 144.712 211.832 143.392 212.862 142.051C210.493 140.907 205.708 137.89 202.497 136.902C200.297 136.226 198.059 135.678 195.796 135.26C195.46 133.1 195.123 130.94 194.786 128.78C191.833 125.419 188.879 122.059 185.924 118.7Z" fill="url(#paint18_linear_1248_344)"/>
<path d="M185.707 124.274C185.707 124.274 186.534 132.47 194.513 133.913C201.652 135.206 207.026 117.97 203.372 113.517C202.154 112.029 199.145 110.615 196.537 110.69C194.702 110.743 188.507 113.1 187.641 119.295C186.409 117.995 184.87 117.622 184.112 118.166C183.15 118.856 183.665 120.862 183.783 121.317C184.1 122.479 184.773 123.513 185.707 124.274Z" fill="url(#paint19_linear_1248_344)"/>
<path d="M198.405 257.298L220.635 202.29C220.991 201.41 221.161 200.466 221.135 199.517C221.109 198.568 220.887 197.635 220.483 196.776C220.08 195.916 219.503 195.149 218.789 194.523C218.075 193.897 217.239 193.425 216.334 193.136L172.339 179.095C171.107 178.815 169.816 178.985 168.699 179.576C167.582 180.166 166.715 181.137 166.254 182.313L143.52 240.302C143.253 240.985 143.13 241.715 143.161 242.447C143.192 243.179 143.375 243.897 143.699 244.555C144.023 245.212 144.48 245.795 145.042 246.266C145.604 246.737 146.258 247.086 146.962 247.29L192.05 260.355C193.3 260.718 194.64 260.606 195.813 260.042C196.986 259.478 197.909 258.5 198.405 257.298Z" fill="url(#paint20_linear_1248_344)"/>
<path d="M195.58 225.652C195.58 225.652 200.032 222.687 200.032 219.721C200.032 216.755 203 212.307 204.483 212.307C205.967 212.307 205.967 213.791 204.483 216.756C203 219.721 210.419 218.238 213.386 215.274C216.354 212.309 219.322 212.307 217.839 213.791C215.492 216.135 214.87 218.238 214.87 218.238C214.87 218.238 211.903 230.103 198.92 229.358L195.58 225.652Z" fill="url(#paint21_linear_1248_344)"/>
<path d="M195.58 225.652C195.58 225.652 200.032 222.687 200.032 219.721C200.032 216.755 203 212.307 204.483 212.307C205.967 212.307 205.967 213.791 204.483 216.756C203 219.721 210.419 218.238 213.386 215.274C216.354 212.309 219.322 212.307 217.839 213.791C215.492 216.135 214.87 218.238 214.87 218.238C214.87 218.238 211.903 230.103 198.92 229.358L195.58 225.652Z" fill="url(#paint22_linear_1248_344)"/>
<path d="M164.417 141.143C154.924 136.912 139.042 154.355 136.223 157.452C121.264 173.881 100.042 211.125 116.933 233.065C131.025 251.368 168.858 255.399 200.03 231.581L195.58 222.687C192.343 223.858 171.061 231.218 155.516 219.721C152.218 217.281 150.753 213.09 150.218 207.419C149.22 196.853 161.692 194.04 168.87 178.208C175.228 164.195 172.602 144.791 164.417 141.143Z" fill="url(#paint23_linear_1248_344)"/>
</g>
<path d="M163.966 272.699C163.966 278.116 159.532 282.719 154.04 282.981C148.525 283.248 144.034 279.031 144.034 273.571C144.034 268.111 148.525 263.504 154.04 263.285C159.532 263.068 163.966 267.283 163.966 272.699Z" fill="white"/>
<path d="M203.567 270.969C203.567 276.301 199.277 280.82 193.96 281.074C188.623 281.328 184.282 277.182 184.282 271.811C184.282 266.44 188.625 261.914 193.96 261.704C199.277 261.493 203.567 265.642 203.567 270.969Z" fill="white"/>
<path d="M241.885 269.294C241.885 274.536 237.735 278.983 232.594 279.229C227.431 279.475 223.228 275.393 223.228 270.11C223.228 264.827 227.431 260.379 232.594 260.173C237.741 259.969 241.885 264.054 241.885 269.294Z" fill="white"/>
<path d="M364.632 45.6082H248.983C244.367 45.6082 240.623 47.7731 240.623 50.4446V124.947C240.623 127.613 244.367 129.784 248.983 129.784H364.632C369.25 129.784 372.993 127.617 372.993 124.947V50.4446C372.993 47.7731 369.25 45.6082 364.632 45.6082Z" fill="#6165D7"/>
<path d="M244.791 107.334L224.218 129.784H252.937L244.791 107.334Z" fill="#6165D7"/>
<path d="M294.011 87.0179C294.012 87.6841 293.881 88.3438 293.623 88.9583C293.365 89.5728 292.987 90.1295 292.511 90.5957C292.035 91.062 291.47 91.4283 290.85 91.6731C290.23 91.9178 289.567 92.0362 288.901 92.021C287.535 91.9946 286.235 91.4362 285.276 90.4649C284.317 89.4936 283.776 88.1863 283.768 86.822C283.766 86.154 283.899 85.4925 284.158 84.8766C284.417 84.2608 284.797 83.7032 285.276 83.2368C285.755 82.7703 286.322 82.4046 286.945 82.1613C287.567 81.918 288.232 81.802 288.901 81.8202C290.262 81.8524 291.557 82.4132 292.511 83.3837C293.465 84.3541 294.003 85.6577 294.011 87.0179Z" fill="white"/>
<path d="M311.804 87.3605C311.808 88.0197 311.679 88.6731 311.426 89.282C311.174 89.8909 310.801 90.4431 310.332 90.9061C309.862 91.3691 309.304 91.7335 308.691 91.9778C308.079 92.2222 307.423 92.3416 306.763 92.3289C305.413 92.298 304.127 91.741 303.182 90.7766C302.237 89.8123 301.706 88.5171 301.703 87.1672C301.699 86.5063 301.828 85.8514 302.082 85.2412C302.336 84.631 302.71 84.0779 303.182 83.6148C303.654 83.1516 304.214 82.7878 304.829 82.5448C305.444 82.3018 306.102 82.1846 306.763 82.2001C308.11 82.2362 309.39 82.7953 310.331 83.7587C311.272 84.7222 311.801 86.0142 311.804 87.3605Z" fill="white"/>
<path d="M329.353 87.7004C329.359 88.3528 329.233 88.9996 328.985 89.6029C328.737 90.2063 328.37 90.7538 327.907 91.2134C327.443 91.6731 326.893 92.0354 326.287 92.2792C325.681 92.5229 325.033 92.6432 324.38 92.6329C321.626 92.5849 319.389 90.2906 319.389 87.5071C319.383 86.8532 319.509 86.2048 319.758 85.6002C320.008 84.9956 320.376 84.4472 320.842 83.9873C321.307 83.5274 321.86 83.1655 322.468 82.9228C323.076 82.6802 323.726 82.5618 324.38 82.5747C327.134 82.6347 329.353 84.9263 329.353 87.7004Z" fill="white"/>
</g>
<defs>
<linearGradient id="paint0_linear_1248_344" x1="135.902" y1="118.504" x2="144.123" y2="273.2" gradientUnits="userSpaceOnUse">
<stop stop-color="#FFC444"/>
<stop offset="1" stop-color="#F36F56"/>
</linearGradient>
<linearGradient id="paint1_linear_1248_344" x1="43.5249" y1="219.067" x2="129.641" y2="39.7337" gradientUnits="userSpaceOnUse">
<stop stop-color="#67878E"/>
<stop offset="1" stop-color="#6165D7"/>
</linearGradient>
<linearGradient id="paint2_linear_1248_344" x1="170.483" y1="356.163" x2="144.763" y2="366.974" gradientUnits="userSpaceOnUse">
<stop stop-color="#40447E"/>
<stop offset="1" stop-color="#3C3B6B"/>
</linearGradient>
<linearGradient id="paint3_linear_1248_344" x1="128.574" y1="241.989" x2="101.892" y2="253.204" gradientUnits="userSpaceOnUse">
<stop stop-color="#40447E"/>
<stop offset="1" stop-color="#3C3B6B"/>
</linearGradient>
<linearGradient id="paint4_linear_1248_344" x1="15.6324" y1="248.43" x2="258.946" y2="248.43" gradientUnits="userSpaceOnUse">
<stop stop-color="#40447E"/>
<stop offset="1" stop-color="#3C3B6B"/>
</linearGradient>
<linearGradient id="paint5_linear_1248_344" x1="15.8165" y1="344.814" x2="382" y2="344.814" gradientUnits="userSpaceOnUse">
<stop stop-color="#40447E"/>
<stop offset="1" stop-color="#3C3B6B"/>
</linearGradient>
<linearGradient id="paint6_linear_1248_344" x1="51.7271" y1="341.788" x2="320.027" y2="341.788" gradientUnits="userSpaceOnUse">
<stop stop-color="#40447E"/>
<stop offset="1" stop-color="#3C3B6B"/>
</linearGradient>
<linearGradient id="paint7_linear_1248_344" x1="224.671" y1="355.187" x2="207.616" y2="290.136" gradientUnits="userSpaceOnUse">
<stop stop-color="white"/>
<stop offset="1" stop-color="#EBEFF2"/>
</linearGradient>
<linearGradient id="paint8_linear_1248_344" x1="301.436" y1="155.015" x2="266.005" y2="182.349" gradientUnits="userSpaceOnUse">
<stop stop-color="#FFC444"/>
<stop offset="1" stop-color="#F36F56"/>
</linearGradient>
<linearGradient id="paint9_linear_1248_344" x1="296.942" y1="153.599" x2="292.589" y2="204.639" gradientUnits="userSpaceOnUse">
<stop stop-color="#FFD7D6"/>
<stop offset="1" stop-color="#FEB3B1"/>
</linearGradient>
<linearGradient id="paint10_linear_1248_344" x1="269.943" y1="130.378" x2="216.493" y2="184.25" gradientUnits="userSpaceOnUse">
<stop stop-color="#FB6FBB"/>
<stop offset="1" stop-color="#F36F56"/>
</linearGradient>
<linearGradient id="paint11_linear_1248_344" x1="272.778" y1="432.75" x2="213.289" y2="298.533" gradientUnits="userSpaceOnUse">
<stop stop-color="#444B8C"/>
<stop offset="1" stop-color="#26264F"/>
</linearGradient>
<linearGradient id="paint12_linear_1248_344" x1="272.778" y1="432.75" x2="213.289" y2="298.535" gradientUnits="userSpaceOnUse">
<stop stop-color="#444B8C"/>
<stop offset="1" stop-color="#26264F"/>
</linearGradient>
<linearGradient id="paint13_linear_1248_344" x1="241.533" y1="436.807" x2="166.537" y2="311.062" gradientUnits="userSpaceOnUse">
<stop stop-color="#444B8C"/>
<stop offset="1" stop-color="#26264F"/>
</linearGradient>
<linearGradient id="paint14_linear_1248_344" x1="222.374" y1="85.4769" x2="12.6584" y2="228.045" gradientUnits="userSpaceOnUse">
<stop stop-color="#34386D"/>
<stop offset="1" stop-color="#010648"/>
</linearGradient>
<linearGradient id="paint15_linear_1248_344" x1="230.351" y1="188.396" x2="137.003" y2="285.213" gradientUnits="userSpaceOnUse">
<stop stop-color="#FF9085"/>
<stop offset="1" stop-color="#FB6FBB"/>
</linearGradient>
<linearGradient id="paint16_linear_1248_344" x1="149.996" y1="343.896" x2="220.326" y2="159.016" gradientUnits="userSpaceOnUse">
<stop stop-color="#FF9085"/>
<stop offset="1" stop-color="#FB6FBB"/>
</linearGradient>
<linearGradient id="paint17_linear_1248_344" x1="186.691" y1="164.048" x2="198.975" y2="108.267" gradientUnits="userSpaceOnUse">
<stop stop-color="#FFC444"/>
<stop offset="1" stop-color="#F36F56"/>
</linearGradient>
<linearGradient id="paint18_linear_1248_344" x1="194.019" y1="123.797" x2="180.006" y2="226.584" gradientUnits="userSpaceOnUse">
<stop stop-color="#FFD7D6"/>
<stop offset="1" stop-color="#FEB3B1"/>
</linearGradient>
<linearGradient id="paint19_linear_1248_344" x1="195.031" y1="114.351" x2="180.952" y2="186.903" gradientUnits="userSpaceOnUse">
<stop stop-color="#FFD7D6"/>
<stop offset="1" stop-color="#FEB3B1"/>
</linearGradient>
<linearGradient id="paint20_linear_1248_344" x1="180.007" y1="212.686" x2="211.353" y2="332.639" gradientUnits="userSpaceOnUse">
<stop stop-color="#444B8C"/>
<stop offset="1" stop-color="#26264F"/>
</linearGradient>
<linearGradient id="paint21_linear_1248_344" x1="207.116" y1="218.136" x2="200.493" y2="257.91" gradientUnits="userSpaceOnUse">
<stop stop-color="#FFC444"/>
<stop offset="0.23" stop-color="#FCB048"/>
<stop offset="1" stop-color="#F36F56"/>
</linearGradient>
<linearGradient id="paint22_linear_1248_344" x1="207.97" y1="214.995" x2="200.808" y2="269.259" gradientUnits="userSpaceOnUse">
<stop stop-color="#FFD7D6"/>
<stop offset="1" stop-color="#FEB3B1"/>
</linearGradient>
<linearGradient id="paint23_linear_1248_344" x1="201.17" y1="160.261" x2="107.822" y2="257.078" gradientUnits="userSpaceOnUse">
<stop stop-color="#FF9085"/>
<stop offset="1" stop-color="#FB6FBB"/>
</linearGradient>
<clipPath id="clip0_1248_344">
<rect width="381.35" height="373" fill="white" transform="translate(0.650391)"/>
</clipPath>
</defs>
</svg>
