<svg width="400" height="400" fill="none" xmlns="http://www.w3.org/2000/svg"><path d="M206.22 10.087C103.825 7.132 15.127 79.735 1.726 175c-14.651 104.16 65.99 197.877 165.217 212.888 123.422 18.67 243.133-89.34 232.384-206.514-8.098-88.282-89.013-168.28-193.107-171.286z" fill="#f4f7fa" style="stroke-width:.843196"/><path d="m86.292 254.155.411.14c8.039 2.812 17.31 4.43 27.974 4.01l6.221-.704c1.374-5.186 1.763-10.372-4.709-11.845-10.058-2.276-11.538-19.987-9.282-26.453 2.795-8.004 8.925-26.776-6.558-30.566-12.89-3.156-21.84-2.494-23.89-19.044-2.05-16.55-11.633-26.258-26.28-24.187-15.415 2.179-29.598-17.993-41.791-10-21.246 13.936 1.36 49.069 28.988 57.698 27.629 8.63 12.906 19.68 13.134 33.334.313 18.636 24.546 12.868 31.533 19.68 2.366 2.312 3.63 5.11 4.249 7.937z" fill="url(#a)" style="fill:url(#a);stroke-width:.843196"/><mask id="b" maskUnits="userSpaceOnUse" x="0" y="144" width="146" height="155"><path d="m103.554 298.224 40.474-3.228c1.9-5.918 4.068-16.728-4.613-18.657-12.058-2.679-13.834-23.438-11.126-31.017 3.353-9.381 10.709-31.384-7.87-35.826-15.469-3.699-26.208-2.923-28.668-22.321-2.46-19.399-13.96-30.777-31.537-28.35-18.498 2.554-35.517-21.089-50.149-11.721-25.494 16.334 1.633 57.513 34.787 67.628 33.154 10.114 15.487 23.066 15.76 39.07.376 21.843 29.455 15.08 37.84 23.066 6.572 6.267 6.106 15.594 5.102 21.356z" fill="#fff"/></mask><g mask="url(#b)" transform="matrix(.83333 0 0 .85318 0 10)"><g style="mix-blend-mode:soft-light" opacity=".5" fill="#fcfdfe"><path d="m122.103 290.337.848-.238C105.546 228.174 58.174 174.999-.68 151.325l-.33.816c58.61 23.575 105.782 76.529 123.113 138.196z"/><path d="m109.728 257.389.878-.066c-1.9-25.208 18.199-46.483 18.403-46.696l-.636-.607c-.211.209-20.579 21.764-18.645 47.369zM118.592 279.033l.74-.475c-13.828-21.583-60.504-21.254-60.973-21.254l.01.88c.464-.011 46.657-.318 60.223 20.849zM74.449 205.132l.779-.409c-9.469-17.991.514-47.526.616-47.822l-.824-.287c-.112.3-10.214 30.195-.571 48.518zM44.234 177.638l.404-.782c-20.595-10.614-50.572-1.635-50.872-1.542l.257.841c.296-.092 29.94-8.966 50.211 1.483z"/></g></g><mask id="c" maskUnits="userSpaceOnUse" x="21" y="54" width="132" height="262"><path d="m128.904 315.712-43.63-.148s-8.137-22.407 2.609-38.167c21.924-32.153-7.767-49.109-19.14-58.072-17.151-13.51-26.36-32.908-1.056-41.252 25.305-8.343.038-47.614-30.81-65.452C6.695 95.165 20.306 31.437 89.106 63.219c41.087 18.98 34.494 62.587 36.4 85.399 1.906 22.812 35.818 24.816 24.115 52.637-9.997 23.764-28.896 41.052-14.574 57.462 14.322 16.409 15.747 34.76-6.142 56.995z" fill="#fff"/></mask><g mask="url(#c)" transform="matrix(.83333 0 0 .85318 0 10)"><path d="m128.904 315.712-43.63-.148s-8.137-22.407 2.609-38.167c21.924-32.153-7.767-49.109-19.14-58.072-17.151-13.51-24.669-30.931-3.954-42.141 23.442-12.687 2.933-46.725-27.913-64.563C6.693 95.165 20.303 31.437 89.104 63.219c41.087 18.98 34.493 62.587 36.399 85.399 1.906 22.812 35.818 24.816 24.116 52.637-9.998 23.764-28.897 41.052-14.575 57.462 14.323 16.409 15.749 34.76-6.14 56.995z" fill="url(#d)" style="fill:url(#d)"/><g style="mix-blend-mode:soft-light" opacity=".5" fill="#beb8f2"><path d="m110.006 319.698-.904-.165c.104-.56 10.391-56.742 3.789-115.512-6.073-54.149-28.14-121.631-98.755-135.647l.178-.903c31.436 6.24 56.037 23.407 73.098 51.028 13.633 22.065 22.517 50.808 26.402 85.433 6.606 58.904-3.702 115.201-3.808 115.766z"/><path d="m94.045 130.349-.915-.117c3.892-30.408-7.55-73.66-7.667-74.093l.89-.239c.116.435 11.605 43.863 7.692 74.449zM82.167 112.257c-30.94-19.423-59.94-10.253-60.228-10.158l-.288-.874c.295-.098 29.687-9.41 61.007 10.252zM115.115 242.673c-10.15-43.461-69.176-54.31-69.76-54.37l.03-.921c.579 0 60.385 11.233 70.627 55.08zM115.461 224.273l-.901-.191c5.893-27.857 36.204-46.944 36.51-47.134l.484.783c-.308.188-30.282 19.069-36.093 46.542zM110.525 310.653c-1.27-16.908-25.356-30.373-25.6-30.507l.445-.805c1.01.555 24.765 13.839 26.073 31.243zM113.14 297.385l-.908-.165c2.307-13.205 22.325-27.858 28.905-32.673.931-.68 1.733-1.268 1.855-1.4l.686.615c-.165.189-.702.581-1.997 1.528-6.505 4.764-26.304 19.244-28.541 32.095z"/></g></g><path d="M279.052 224.76c4.002 8.848.188 17.7-3.473 23.656-.872 0-1.372.253-2.26.474-7.964 1.982-11.694.972-19.787 1.572-1.74.13-6.915-1.2-8.994-1.893l-3.856-1.361s-6.84-21.52 3.91-27.466c10.749-5.946 6.634-27.363 5.733-39.044-2.445-31.695 31.008-28.816 31.046-69.8.009-10.9-3.532-31.692 5.445-40.374 10.227-9.892 17.693-.189 24.27-8.461 10.278-12.932 26.956-17.57 36.897-4.26 9.813 13.131-2.11 39.27-31.749 60.28-19.595 17.54-19.9 22.784-18.36 35.576 1.082 8.956 9.427 32.287-2.448 41.608-11.875 9.319-20.95 19.379-16.374 29.494z" fill="url(#e)" style="fill:url(#e);stroke-width:.843196"/><mask id="f" maskUnits="userSpaceOnUse" x="286" y="46" width="136" height="242"><path d="m324.496 287.934-34.897-8.987s-8.988-26.142 3.911-33.116 7.961-32.071 6.88-45.763c-2.934-37.149 37.21-33.775 37.255-81.811.011-12.777-4.238-37.146 6.534-47.323 12.273-11.594 21.232-.22 29.124-9.917 12.334-15.157 32.347-20.594 44.277-4.993 11.775 15.391-2.533 46.029-38.099 70.655-23.514 20.562-23.881 26.709-22.031 41.702 1.297 10.498 11.311 37.844-2.939 48.768-14.25 10.923-25.139 22.718-19.649 34.574 8.353 18.036-10.366 36.211-10.366 36.211z" fill="#fff"/></mask><g mask="url(#f)" transform="matrix(.83333 0 0 .85318 0 10)"><g style="mix-blend-mode:soft-light" opacity=".5" fill="#fcfdfe"><path d="m309.295 282.227-.708-.087c.527-4.225 1.11-8.479 1.733-12.644 4.613-30.835 11.95-60.124 21.789-87.053 8.338-22.818 18.588-44.262 30.467-63.741 9.556-15.665 20.205-30.15 31.663-43.048 8.055-9.061 16.419-17.265 24.865-24.364 1.471-1.237 3.044-2.42 4.567-3.565 2.029-1.524 4.127-3.101 5.997-4.818l.483.526c-1.897 1.741-4.007 3.328-6.05 4.863-1.514 1.139-3.081 2.315-4.538 3.541-8.419 7.076-16.759 15.25-24.791 24.292-11.429 12.867-22.056 27.316-31.587 42.945-11.862 19.441-22.077 40.841-30.404 63.614-9.823 26.883-17.134 56.126-21.748 86.914a487.696 487.696 0 0 0-1.738 12.625z"/><path d="m349.715 143.373-.647-.304c13.025-27.759 1.588-79.048 1.471-79.562l.697-.165c.117.524 11.608 52.048-1.521 80.031zM320.087 224.233l-.677-.226c6.643-19.902 43.901-35.258 44.276-35.423l.27.659c-.372.152-37.328 15.384-43.869 34.99zM317.293 235.842l-.707-.102c1.977-13.555-2.582-33.092-12.822-55.011-.514-1.104-.514-1.104-.494-1.237l.709.094-.355-.048.345-.087c.024.077.219.494.445.975 10.295 22.046 14.87 41.726 12.879 55.416zM310.366 274.54l-.647-.302c6.351-13.674 28.064-19.082 28.283-19.134l.165.693c-.212.053-21.594 5.373-27.801 18.743zM308.216 282.29c-2.692-11.863-8.879-23.341-18.914-35.093l.544-.465c10.111 11.839 16.349 23.418 19.067 35.396zM388.149 83.844l-.629-.339c8.103-15.03 13.129-32.7 14.782-38.507.4-1.405.542-1.9.621-2.062l.642.313c-.057.125-.286.927-.576 1.945-1.658 5.824-6.701 23.55-14.84 38.65zM371.361 106.333l-.495-.509c11.413-11.233 43.433-10.874 44.791-10.852l-.012.715c-.334-.005-33.081-.376-44.284 10.646z"/></g></g><mask id="g" maskUnits="userSpaceOnUse" x="270" y="111" width="182" height="244"><path d="m278.199 341.561 41.633 13.05s14.531-18.9 9.061-37.17c-11.179-37.276 22.242-44.465 35.8-49.569 20.43-7.699 35.085-23.395 13.479-39.001-21.606-15.606 14.36-45.398 49.153-53.076 34.049-7.513 40.342-72.374-34.846-62.879-44.901 5.669-51.801 49.229-60.515 70.398-8.714 21.17-41.644 12.825-38.899 42.883 2.345 25.674 15.131 47.867-3.481 59.179-18.613 11.312-25.527 28.371-11.385 56.185z" fill="#fff"/></mask><g mask="url(#g)" transform="matrix(.83333 0 0 .85318 0 10)"><path d="m278.199 341.561 41.632 13.05s14.532-18.9 9.062-37.17c-11.179-37.276 22.242-44.465 35.8-49.569 20.43-7.699 32.867-22.026 16.507-38.975-18.51-19.177 11.332-45.424 46.132-53.102 34.048-7.513 40.342-72.374-34.846-62.879-44.901 5.669-51.801 49.229-60.515 70.398-8.714 21.17-41.644 12.825-38.899 42.883 2.344 25.674 15.131 47.867-3.482 59.179-18.612 11.312-25.533 28.371-11.391 56.185z" fill="url(#h)" style="fill:url(#h)"/><path d="m278.199 341.561 41.632 13.05s14.532-18.9 9.062-37.17c-11.179-37.276 22.242-44.465 35.8-49.569 20.43-7.699 32.867-22.026 16.507-38.975-18.51-19.177 11.332-45.424 46.132-53.102 34.048-7.513 40.342-72.374-34.846-62.879-44.901 5.669-51.801 49.229-60.515 70.398-8.714 21.17-41.644 12.825-38.899 42.883 2.344 25.674 15.131 47.867-3.482 59.179-18.612 11.312-25.533 28.371-11.391 56.185z" fill="url(#i)" style="fill:url(#i)"/><g style="mix-blend-mode:soft-light" opacity=".5" fill="#beb8f2"><path d="m295.006 351.073.914.113c.071-.566 7.25-57.229 31.304-111.255 22.161-49.772 63.596-107.421 135.146-99.435l.102-.916c-31.849-3.557-60.482 5.373-85.101 26.541-19.666 16.91-36.82 41.622-50.989 73.453-24.112 54.15-31.304 110.932-31.376 111.499z"/><path d="m367.467 175.411.907.165c5.484-30.162 29.468-67.931 29.71-68.308l-.776-.495c-.245.378-24.323 38.3-29.841 68.638zM384.258 161.756c35.365-9.16 60.235 8.35 60.482 8.528l.538-.748c-.25-.181-25.453-17.944-61.251-8.671zM313.424 276.108c22.816-38.358 82.36-30.855 82.933-30.733l.249-.887c-.552-.165-60.96-7.549-83.973 31.149zM318.657 258.465l.917.09c2.801-28.338-20.317-55.687-20.551-55.966l-.699.598c.231.271 23.101 27.333 20.333 55.278zM297.247 342.294c6.323-15.731 33.353-21.285 33.625-21.339l-.18-.903c-1.132.226-27.791 5.704-34.299 21.9zM298.767 328.854l.913.123c1.799-13.284-12.851-33.305-17.673-39.884-.681-.929-1.269-1.732-1.345-1.895l-.84.378c.104.232.494.767 1.442 2.061 4.761 6.506 19.251 26.3 17.503 39.217z"/></g></g><path d="m264.672 310.41-.39.185c-7.717 3.637-16.777 6.217-27.43 6.911l-6.256-.043c-1.88-5.017-2.789-10.132 3.502-12.276 9.771-3.328 9.474-21.084 6.59-27.288-3.57-7.669-11.549-25.703 3.477-31.091 12.51-4.487 21.476-4.764 21.862-21.442.388-16.679 8.955-27.344 23.734-26.815 15.551.563 27.647-20.994 40.576-14.317 22.523 11.637 3.545 48.955-23.083 60.428-26.63 11.474-10.876 20.931-9.748 34.533 1.548 18.572-23.134 15.366-29.404 22.876-2.12 2.545-3.103 5.46-3.43 8.339z" fill="url(#j)" style="fill:url(#j);stroke-width:.843196"/><mask id="k" maskUnits="userSpaceOnUse" x="275" y="202" width="134" height="164"><path d="m318.831 364.096-40.591.922c-2.496-5.693-5.754-16.226 2.678-19.031 11.725-3.902 11.368-24.714 7.908-31.985-4.284-8.989-13.859-30.127 4.172-36.442 15.011-5.259 25.771-5.584 26.235-25.132.465-19.548 10.746-32.048 28.48-31.429 18.662.659 33.177-24.606 48.691-16.779 27.028 13.637 4.255 57.378-27.699 70.826-31.955 13.447-13.051 24.532-11.698 40.475 1.859 21.768-27.76 18.01-35.284 26.813-5.895 6.902-4.478 16.133-2.892 21.762z" fill="#fff"/></mask><g mask="url(#k)" transform="matrix(.83333 0 0 .85318 0 10)"><g style="mix-blend-mode:soft-light" opacity=".5" fill="#fcfdfe"><path d="m299.575 358.144-.868-.15c10.99-63.378 52.685-121.112 108.814-150.673l.411.78c-55.894 29.435-97.414 86.928-108.357 150.043z"/><path d="m308.526 324.104-.88.024c-.685-25.27-22.851-44.382-23.076-44.571l.571-.672c.225.193 22.69 19.55 23.385 45.219zM301.914 346.54l-.786-.395c11.553-22.878 58.016-27.33 58.489-27.373l.079.876c-.466.042-46.448 4.451-57.782 26.892zM338.279 268.518l-.823-.329c7.578-18.865-5.365-47.224-5.495-47.509l.797-.371c.14.29 13.243 28.997 5.521 48.209zM365.53 238.083l-.481-.737c19.4-12.66 50.139-6.789 50.448-6.728l-.164.863c-.312-.061-30.704-5.862-49.803 6.602z"/></g></g><path d="M291.558 99.073 80.66 86.582c-4.857-.243-9.23 5.184-9.23 9.74v278.041c0 6.325 6.304 7.59 11.162 7.083l208.966-21.85c3.816-.397 6.899-3.975 6.899-7.988V106.685c.002-4.014-3.081-7.426-6.898-7.612z" fill="url(#l)" style="fill:url(#l);stroke-width:.843196"/><path d="M295.027 96.87 83.712 86.222c-4.858-.245-8.815 3.278-8.815 7.871v280.211c0 4.592 3.957 7.898 8.815 7.387l211.315-22.269c3.817-.402 6.899-4.006 6.899-8.051V104.536c0-4.045-3.082-7.48-6.899-7.666z" fill="#d8dee8" style="stroke-width:.843196"/><path style="mix-blend-mode:multiply;fill:url(#m);stroke-width:.843196" opacity=".3" d="M83.712 377.89c-2.622.271-4.758-1.521-4.758-3.995V94.279c0-2.474 2.136-4.384 4.758-4.258l211.315 10.222c2.06.1 3.74 1.968 3.74 4.15v247.3c0 2.188-1.677 4.142-3.74 4.357z" fill="url(#m)"/><path d="m281.407 349.414-180.738 17.83v-257.97l180.738 6.97z" fill="#fff" style="stroke-width:.843196"/><path d="m250.94 126.007-86.678 1.084 1.944-19.548c.147-2.54 1.977-4.625 4.401-4.997l14.68-2.255a5.275 5.275 0 0 0 3.972-3.048l1.592-3.46 38.396 2.37z" fill="#97a6b7" transform="matrix(.83333 0 0 .85318 0 10)" style="mix-blend-mode:multiply" opacity=".3"/><path d="M247.69 106.685a3.985 3.985 0 0 0-1.266-2.318 3.817 3.817 0 0 0-2.413-.978l-11.543-.53c-5.239-.24-9.079-4.598-8.887-10.12l.445-12.792c.084-2.365-1.567-4.26-3.834-4.399l-3.793-.231c-2.892-.178-4.817-2.788-4.412-5.806.71-5.274-2.82-9.824-7.935-10.181-5.155-.36-9.966 3.673-10.734 9.013a6.014 6.014 0 0 1-.803 2.279c-1.19 1.956-3.278 3.033-5.322 2.908l-3.912-.239c-2.37-.14-4.622 1.559-5.218 3.954l-3.252 12.983c-1.406 5.614-6.713 9.672-12.348 9.418l-12.672-.581c-2.074-.094-4.108 1.143-5.064 3.083l-7.624 15.5c-.624 1.265.146 2.64 1.51 2.687l109.801 3.734c1.202.04 2.222-1.186 2-2.405zm-45.193-36.281c-1.51-.096-2.564-1.441-2.343-3.006.221-1.564 1.626-2.75 3.138-2.65 1.511.1 2.552 1.446 2.334 3.006-.219 1.56-1.62 2.747-3.13 2.65z" fill="url(#n)" style="fill:url(#n);stroke-width:.843196"/><path d="M248.342 107.033a3.989 3.989 0 0 0-1.266-2.32 3.818 3.818 0 0 0-2.413-.976l-11.541-.53c-5.24-.24-9.08-4.599-8.887-10.121l.444-12.792c.083-2.365-1.566-4.26-3.834-4.4l-3.793-.231c-2.891-.176-4.815-2.786-4.41-5.804.708-5.274-2.82-9.826-7.936-10.183-5.156-.36-9.969 3.673-10.736 9.015a6.012 6.012 0 0 1-.802 2.278c-1.19 1.957-3.278 3.034-5.322 2.909l-3.912-.24c-2.37-.14-4.623 1.558-5.217 3.955l-3.253 12.982c-1.407 5.615-6.712 9.672-12.347 9.418l-12.661-.58c-2.074-.096-4.109 1.142-5.064 3.083l-7.63 15.498c-.625 1.266.138 2.642 1.51 2.688l109.785 3.74c1.201.04 2.221-1.186 1.999-2.406zM203.146 70.75c-1.51-.095-2.562-1.442-2.343-3.006.22-1.565 1.626-2.751 3.138-2.65 1.511.101 2.553 1.446 2.334 3.005-.22 1.56-1.62 2.747-3.13 2.651z" fill="#67878e" style="stroke-width:.843196"/><path d="M275.459 122.084c-11.752-7.249-20.77-2.11-28.096-10.294-7.842-8.76-2.552-20.293-10.666-25.735-5.195-3.484-9.828-.412-15.869-1.354-2.211-.346-4.572-1.226-7.025-2.94l-3.256 12.687c-1.689 6.58-8.055 11.335-14.816 11.039l-15.194-.681c-2.488-.112-4.93 1.34-6.077 3.613l-9.155 18.168c-.75 1.483.165 3.094 1.812 3.148l119.743 3.978c-3.021-4.796-6.774-8.774-11.401-11.629z" fill="#fff" transform="matrix(.83333 0 0 .85318 0 10)" style="mix-blend-mode:soft-light" opacity=".5"/><path d="m263.782 149.558-139.979-.873v-8.51l139.979 1.185zM263.782 163.908l-139.979-.324v-8.51l139.979.638zM263.782 178.26l-139.979.222v-8.51l139.979.092zM263.782 192.612l-139.979.77v-8.51l139.979-.456zM240.112 216.25l-118.404 2.92v-8.862l118.404-2.367zM240.112 230.795l-118.404 3.89v-8.863l118.404-3.335zM240.112 245.34l-118.404 4.86v-8.862l118.404-4.305zM240.112 259.885l-118.404 5.83v-8.861l118.404-5.276zM263.782 215.667l-15.575.384v-8.272l15.575-.31zM263.782 230.016l-15.575.514v-8.271l15.575-.439zM263.782 244.369l-15.575.64v-8.27l15.575-.567zM263.782 258.72l-15.575.769v-8.272l15.575-.693zM240.112 283.49l-118.404 7.403v-8.863l118.404-6.848zM240.112 298.035l-118.404 8.372v-8.86l118.404-7.82zM240.112 312.581l-118.404 9.342v-8.86l118.404-8.79zM240.112 327.127l-118.404 10.312v-8.863l118.404-9.758zM263.782 282.01l-15.575.973v-8.27l15.575-.9zM263.782 296.361l-15.575 1.103v-8.271l15.575-1.028zM263.782 310.713l-15.575 1.229v-8.27l15.575-1.155zM263.782 325.065l-15.575 1.356v-8.269l15.575-1.285z" fill="#d8dee8" style="stroke-width:.843196"/><path d="m341.17 216.21-296.58-7.626c-16.445-.423-30.068 12.267-30.068 28.353v60.974c0 16.087 13.627 28.308 30.068 27.318l296.58-17.86c9.83-.593 17.667-10.869 17.667-22.962V238.56c0-12.088-7.838-22.094-17.668-22.35z" fill="url(#o)" style="fill:url(#o);stroke-width:.843196"/><path d="m344.41 216.21-296.578-7.626c-16.445-.423-30.068 12.267-30.068 28.353v60.974c0 16.087 13.626 28.308 30.068 27.318l296.579-17.86c9.83-.593 17.667-10.869 17.667-22.962V238.56c0-12.088-7.837-22.094-17.667-22.35z" fill="#97a6b7" style="stroke-width:.843196"/><path d="M47.832 321.43c-14.207.815-25.985-9.8-25.985-23.678v-60.795c0-13.879 11.778-24.9 25.985-24.574l296.579 6.8c8.512.196 15.346 8.884 15.346 19.372v45.943c0 10.487-6.829 19.412-15.346 19.901z" fill="url(#p)" style="fill:url(#p);stroke-width:.843196"/><path d="m87.304 236.06 8.453 17.132c.155.312.383.581.663.783.28.203.603.331.942.377l18.465 2.544c.384.051.745.212 1.042.465a2.1 2.1 0 0 1 .638.961c.12.376.135.778.04 1.162a2.098 2.098 0 0 1-.57 1.005l-13.286 13.393a2.163 2.163 0 0 0-.533.874c-.105.332-.13.684-.074 1.028l3.158 18.554c.295 1.727-1.51 3.126-3.056 2.368l-16.82-8.242a2.189 2.189 0 0 0-2.02.07l-17.31 9.649c-1.64.914-3.56-.376-3.245-2.183l3.357-19.319c.061-.35.035-.71-.077-1.048a2.104 2.104 0 0 0-.564-.877l-14.35-13.424c-1.354-1.265-.606-3.514 1.264-3.795l19.718-2.99c.351-.053.685-.189.974-.398.289-.21.525-.488.688-.81l8.612-17.308c.798-1.596 3.098-1.58 3.891.028z" fill="#d8dee8" style="stroke-width:.843196"/><path d="m154.898 236.443 7.61 16.254c.133.292.335.545.587.737.252.192.547.318.858.366l16.646 2.423c1.53.221 2.14 2.233 1.033 3.407l-11.979 12.704a2.165 2.165 0 0 0-.55 1.805l2.853 17.613c.265 1.64-1.36 2.965-2.755 2.243l-15.146-7.853a1.88 1.88 0 0 0-1.818.064l-15.568 9.118a1.903 1.903 0 0 1-2.114-.072 1.981 1.981 0 0 1-.69-.88 2.03 2.03 0 0 1-.11-1.124l3.02-18.307a2.087 2.087 0 0 0-.577-1.828l-12.889-12.717c-1.217-1.2-.55-3.324 1.133-3.592l17.711-2.828c.321-.052.624-.183.884-.382.261-.199.47-.46.61-.76l7.746-16.414c.157-.342.406-.63.718-.83a1.897 1.897 0 0 1 2.08.013c.309.205.555.496.707.84z" fill="url(#q)" style="fill:url(#q);stroke-width:.843196"/><path d="m154.898 236.443 7.61 16.254c.133.292.335.545.587.737.252.192.547.318.858.366l16.646 2.423c1.53.221 2.14 2.233 1.033 3.407l-11.979 12.704a2.165 2.165 0 0 0-.55 1.805l2.853 17.613c.265 1.64-1.36 2.965-2.755 2.243l-15.146-7.853a1.88 1.88 0 0 0-1.818.064l-15.568 9.118a1.903 1.903 0 0 1-2.114-.072 1.981 1.981 0 0 1-.69-.88 2.03 2.03 0 0 1-.11-1.124l3.02-18.307a2.087 2.087 0 0 0-.577-1.828l-12.889-12.717c-1.217-1.2-.55-3.324 1.133-3.592l17.711-2.828c.321-.052.624-.183.884-.382.261-.199.47-.46.61-.76l7.746-16.414c.157-.342.406-.63.718-.83a1.897 1.897 0 0 1 2.08.013c.309.205.555.496.707.84z" fill="url(#r)" style="fill:url(#r);stroke-width:.843196"/><path d="m215.895 236.786 6.887 15.463c.115.273.295.512.525.695.228.183.498.305.785.354l15.079 2.316c1.387.213 1.94 2.128.938 3.244l-10.857 12.089a2.112 2.112 0 0 0-.495 1.717l2.588 16.765c.24 1.56-1.235 2.82-2.496 2.128l-13.71-7.497a1.637 1.637 0 0 0-.832-.196c-.289.01-.57.097-.816.252l-14.073 8.644c-1.33.816-2.883-.352-2.633-1.98l2.725-17.394c.052-.311.03-.63-.06-.932a2.037 2.037 0 0 0-.462-.804l-11.64-12.096c-1.098-1.14-.491-3.158 1.024-3.412l16-2.672c.295-.053.572-.18.808-.37.235-.189.422-.434.543-.715l7.002-15.603c.65-1.454 2.523-1.448 3.17.005z" fill="url(#s)" style="fill:url(#s);stroke-width:.843196"/><path d="m215.895 236.786 6.887 15.463c.115.273.295.512.525.695.228.183.498.305.785.354l15.079 2.316c1.387.213 1.94 2.128.938 3.244l-10.857 12.089a2.112 2.112 0 0 0-.495 1.717l2.588 16.765c.24 1.56-1.235 2.82-2.496 2.128l-13.71-7.497a1.637 1.637 0 0 0-.832-.196c-.289.01-.57.097-.816.252l-14.073 8.644c-1.33.816-2.883-.352-2.633-1.98l2.725-17.394c.052-.311.03-.63-.06-.932a2.037 2.037 0 0 0-.462-.804l-11.64-12.096c-1.098-1.14-.491-3.158 1.024-3.412l16-2.672c.295-.053.572-.18.808-.37.235-.189.422-.434.543-.715l7.002-15.603c.65-1.454 2.523-1.448 3.17.005z" fill="url(#t)" style="fill:url(#t);stroke-width:.843196"/><path d="m271.217 237.099 6.26 14.748c.1.256.262.482.47.657.209.175.457.292.722.343l13.73 2.215c1.263.203 1.767 2.03.853 3.092l-9.885 11.527a2.096 2.096 0 0 0-.452 1.637l2.353 16c.218 1.49-1.122 2.688-2.273 2.026l-12.47-7.169a1.424 1.424 0 0 0-1.493.05l-12.788 8.216c-1.206.776-2.62-.34-2.39-1.89l2.471-16.571c.048-.294.03-.596-.052-.882a1.998 1.998 0 0 0-.42-.772l-10.564-11.527c-.995-1.087-.446-3.009.929-3.25l14.524-2.545c.272-.055.526-.179.74-.359.215-.18.381-.413.486-.676l6.365-14.879c.593-1.387 2.295-1.376 2.884.01z" fill="url(#u)" style="fill:url(#u);stroke-width:.843196"/><path d="m271.217 237.099 6.26 14.748c.1.256.262.482.47.657.209.175.457.292.722.343l13.73 2.215c1.263.203 1.767 2.03.853 3.092l-9.885 11.527a2.096 2.096 0 0 0-.452 1.637l2.353 16c.218 1.49-1.122 2.688-2.273 2.026l-12.47-7.169a1.424 1.424 0 0 0-1.493.05l-12.788 8.216c-1.206.776-2.62-.34-2.39-1.89l2.471-16.571c.048-.294.03-.596-.052-.882a1.998 1.998 0 0 0-.42-.772l-10.564-11.527c-.995-1.087-.446-3.009.929-3.25l14.524-2.545c.272-.055.526-.179.74-.359.215-.18.381-.413.486-.676l6.365-14.879c.593-1.387 2.295-1.376 2.884.01z" fill="url(#v)" style="fill:url(#v);stroke-width:.843196"/><path d="m321.617 237.383 5.72 14.094c.087.242.233.456.423.623.19.167.42.283.665.335l12.547 2.12c1.156.198 1.618 1.946.783 2.964l-9.037 11.01a2.062 2.062 0 0 0-.412 1.564l2.149 15.3c.2 1.425-1.024 2.569-2.076 1.934l-11.396-6.875a1.241 1.241 0 0 0-1.364.047l-11.662 7.822c-1.099.738-2.392-.33-2.18-1.809l2.255-15.82a2.006 2.006 0 0 0-.431-1.58l-9.63-11.012c-.906-1.04-.412-2.874.846-3.102l13.244-2.426c.251-.055.486-.174.681-.346.196-.172.346-.391.438-.638l5.808-14.214c.539-1.324 2.093-1.313 2.63.01z" fill="#d8dee8" style="stroke-width:.843196"/><path d="m321.617 237.383 5.72 14.094c.087.242.233.456.423.623.19.167.42.283.665.335l12.547 2.12c1.156.198 1.618 1.946.783 2.964l-9.037 11.01a2.062 2.062 0 0 0-.412 1.564l2.149 15.3c.2 1.425-1.024 2.569-2.076 1.934l-11.396-6.875a1.241 1.241 0 0 0-1.364.047l-11.662 7.822c-1.099.738-2.392-.33-2.18-1.809l2.255-15.82a2.006 2.006 0 0 0-.431-1.58l-9.63-11.012c-.906-1.04-.412-2.874.846-3.102l13.244-2.426c.251-.055.486-.174.681-.346.196-.172.346-.391.438-.638l5.808-14.214c.539-1.324 2.093-1.313 2.63.01z" fill="url(#w)" style="fill:url(#w);stroke-width:.843196"/><path d="M363.793 301.009c-44.166-11.28-74.278 48.8-127.203 36.716-46.751-10.672-48.069-60.864-104.74-96.515a166.328 166.328 0 0 0-12.01-6.884l-62.442-1.568c-19.733-.495-36.082 14.378-36.082 33.233v71.467c0 18.855 16.352 33.179 36.082 32.019l353.633-20.802c-15.957-32.519-32.95-44.015-47.238-47.666z" fill="#97a6b7" transform="matrix(.83333 0 0 .85318 0 10)" style="mix-blend-mode:multiply" opacity=".1"/><path d="m87.304 236.06 8.453 17.132c.155.312.383.581.663.783.28.203.603.331.942.377l18.465 2.544c.384.051.745.212 1.042.465a2.1 2.1 0 0 1 .638.961c.12.376.135.778.04 1.162a2.098 2.098 0 0 1-.57 1.005l-13.286 13.393a2.163 2.163 0 0 0-.533.874c-.105.332-.13.684-.074 1.028l3.158 18.554c.295 1.727-1.51 3.126-3.056 2.368l-16.82-8.242a2.189 2.189 0 0 0-2.02.07l-17.31 9.649c-1.64.914-3.56-.376-3.245-2.183l3.357-19.319c.061-.35.035-.71-.077-1.048a2.104 2.104 0 0 0-.564-.877l-14.35-13.424c-1.354-1.265-.606-3.514 1.264-3.795l19.718-2.99c.351-.053.685-.189.974-.398.289-.21.525-.488.688-.81l8.612-17.308c.798-1.596 3.098-1.58 3.891.028z" fill="url(#x)" style="fill:url(#x);stroke-width:.843196"/><defs><linearGradient id="o" x1="17.422" y1="301.145" x2="430.604" y2="301.145" gradientUnits="userSpaceOnUse" gradientTransform="matrix(.83333 0 0 .85318 0 10)"><stop stop-color="#444B8C"/><stop offset="1" stop-color="#26264F"/></linearGradient><linearGradient id="a" x1="34.556" y1="153.802" x2="138.205" y2="297.323" gradientUnits="userSpaceOnUse" gradientTransform="matrix(.83333 0 0 .85318 0 10)"><stop stop-color="#30ABBA"/><stop offset="1" stop-color="#6165D7"/></linearGradient><linearGradient id="e" x1="398.593" y1="42.921" x2="270.468" y2="319.705" gradientUnits="userSpaceOnUse" gradientTransform="matrix(.83333 0 0 .85318 0 10)"><stop stop-color="#6165D7"/><stop offset="1" stop-color="#30ABBA"/></linearGradient><linearGradient id="h" x1="424.001" y1="123.133" x2="267.426" y2="331.592" gradientUnits="userSpaceOnUse"><stop stop-color="#E38DDD"/><stop offset="1" stop-color="#9571F6"/></linearGradient><linearGradient id="i" x1="313.793" y1="120.025" x2="371.28" y2="364.152" gradientUnits="userSpaceOnUse"><stop stop-color="#FC9D8A"/><stop offset="1" stop-color="#F36F56"/></linearGradient><linearGradient id="j" x1="372.161" y1="212.814" x2="283.276" y2="365.961" gradientUnits="userSpaceOnUse" gradientTransform="matrix(.83333 0 0 .85318 0 10)"><stop stop-color="#FFC444"/><stop offset="1" stop-color="#F36F56"/></linearGradient><linearGradient id="l" x1="85.715" y1="262.618" x2="358.149" y2="262.618" gradientUnits="userSpaceOnUse" gradientTransform="matrix(.83333 0 0 .85318 0 10)"><stop stop-color="#444B8C"/><stop offset="1" stop-color="#26264F"/></linearGradient><linearGradient id="m" x1="94.745" y1="262.509" x2="358.52" y2="262.509" gradientUnits="userSpaceOnUse" gradientTransform="matrix(.83333 0 0 .85318 0 10)"><stop stop-color="#30ABBA"/><stop offset="1" stop-color="#6165D7"/></linearGradient><linearGradient id="n" x1="164.261" y1="95.749" x2="300.529" y2="95.749" gradientUnits="userSpaceOnUse" gradientTransform="matrix(.83333 0 0 .85318 0 10)"><stop stop-color="#444B8C"/><stop offset="1" stop-color="#26264F"/></linearGradient><linearGradient id="d" x1="52.78" y1="63.144" x2="139.636" y2="309.999" gradientUnits="userSpaceOnUse"><stop stop-color="#FC9D8A"/><stop offset="1" stop-color="#F36F56"/></linearGradient><linearGradient id="p" x1="118.002" y1="462.141" x2="296.94" y2="190.61" gradientUnits="userSpaceOnUse" gradientTransform="matrix(.83333 0 0 .85318 0 10)"><stop stop-color="#EBEFF2"/><stop offset="1" stop-color="#fff"/></linearGradient><linearGradient id="q" x1="239.198" y1="247.533" x2="137.025" y2="351.774" gradientUnits="userSpaceOnUse" gradientTransform="matrix(.83333 0 0 .85318 0 10)"><stop stop-color="#FFC444"/><stop offset="1" stop-color="#F36F56"/></linearGradient><linearGradient id="r" x1="193.36" y1="259.512" x2="158.038" y2="333.248" gradientUnits="userSpaceOnUse" gradientTransform="matrix(.83333 0 0 .85318 0 10)"><stop stop-color="#FCCE8A"/><stop offset="1" stop-color="#FC9D8A"/></linearGradient><linearGradient id="s" x1="276.132" y1="283.616" x2="176.161" y2="385.61" gradientUnits="userSpaceOnUse" gradientTransform="matrix(.83333 0 0 .85318 0 10)"><stop stop-color="#FFC444"/><stop offset="1" stop-color="#F36F56"/></linearGradient><linearGradient id="t" x1="265.879" y1="260.217" x2="231.279" y2="328.964" gradientUnits="userSpaceOnUse" gradientTransform="matrix(.83333 0 0 .85318 0 10)"><stop stop-color="#FCCE8A"/><stop offset="1" stop-color="#FC9D8A"/></linearGradient><linearGradient id="u" x1="327.853" y1="291.33" x2="224.312" y2="464.294" gradientUnits="userSpaceOnUse" gradientTransform="matrix(.83333 0 0 .85318 0 10)"><stop stop-color="#FFC444"/><stop offset="1" stop-color="#F36F56"/></linearGradient><linearGradient id="v" x1="331.675" y1="260.842" x2="297.786" y2="325.074" gradientUnits="userSpaceOnUse" gradientTransform="matrix(.83333 0 0 .85318 0 10)"><stop stop-color="#FCCE8A"/><stop offset="1" stop-color="#FC9D8A"/></linearGradient><linearGradient id="w" x1="391.642" y1="261.417" x2="358.472" y2="321.518" gradientUnits="userSpaceOnUse" gradientTransform="matrix(.83333 0 0 .85318 0 10)"><stop stop-color="#FCCE8A"/><stop offset="1" stop-color="#FC9D8A"/></linearGradient><linearGradient id="x" x1="113.036" y1="258.745" x2="77" y2="338" gradientUnits="userSpaceOnUse" gradientTransform="matrix(.83333 0 0 .85318 0 10)"><stop stop-color="#FCCE8A"/><stop offset="1" stop-color="#FC9D8A"/></linearGradient></defs></svg>