<svg width="419" height="480" fill="none" xmlns="http://www.w3.org/2000/svg"><g clip-path="url(#a)"><path d="M317.934 29.185c14.057 20.122-2.425 52.745 18.431 67.878 20.293 14.73 45.241-9.416 64.374 3.265 28.383 18.811 23.201 104.884-18.298 158.364-12.479 16.082-22.907 22.347-27.527 40.529-9.916 39.058 24.937 62.295 18.305 81.608-14.936 43.494-244.611 79.991-336.762-50.724-43.04-61.049-49.482-149.205-11.02-216.161C94.914-7.038 286.39-15.964 317.933 29.185z" fill="#F4F7FA"/><path d="M233.292 381.779c3.139-1.369 8.759-7.11 9.609-9.212 5.644-13.98 17.908-39.471 12.58-54.489-.919-2.565-13.278-1.602-15.612-3.52-8.035-1.3-10.901-1.252-17.931-6.241-20.755-14.727 3.483-60.721-40.517-61.647-32.228-.678-54.229 16.741-64.36-30.046S46.306 96.814 7.164 142.861c-22.466 26.428 17.068 57.245 11.115 90.16-5.663 31.283 12.464 50.424 46.266 58.403 33.801 7.979 21.947 25.087 21.044 53.516-1.082 34.149 48.52 25.748 71.101 19.915 18.179-4.702 67.632-4.396 76.602 16.924z" fill="url(#b)"/><mask id="c" style="mask-type:luminance" maskUnits="userSpaceOnUse" x="0" y="128" width="257" height="254"><path d="M233.292 381.779c3.139-1.369 8.759-7.11 9.609-9.212 5.644-13.98 17.908-39.471 12.58-54.489-.919-2.565-13.278-1.602-15.612-3.52-8.035-1.3-10.901-1.252-17.931-6.241-20.755-14.727 3.483-60.721-40.517-61.647-32.228-.678-54.229 16.741-64.36-30.046S46.306 96.814 7.164 142.861c-22.466 26.428 17.068 57.245 11.115 90.16-5.663 31.283 12.464 50.424 46.266 58.403 33.801 7.979 21.947 25.087 21.044 53.516-1.082 34.149 48.52 25.748 71.101 19.915 18.179-4.702 67.632-4.396 76.602 16.924z" fill="#fff"/></mask><g style="mix-blend-mode:soft-light" fill="#FCFDFE" mask="url(#c)"><path d="m249.162 346.757.124-.716C138.8 326.957 51.61 244.39 16.048 125.175l-.698.208c16.853 56.499 46.49 106.646 85.713 145.017 41.224 40.34 92.433 66.743 148.099 76.357z"/><path d="M83.513 359.081c25.32-17.295 72.055-31.135 104.177-30.835v-.729c-32.251-.306-79.171 13.591-104.596 30.964l.42.6zM227.517 342.764l.318-.657c-15.023-7.29-25.783-21.897-31.98-43.411-4.545-15.776-6.582-34.829-6.039-56.632l-.728-.018c-.539 21.878 1.501 41.006 6.067 56.852 6.257 21.721 17.144 36.479 32.362 43.866zM95.703 264.737l.35-.637c-27.607-15.2-60.582-11.841-83.382-6.344l.172.707c22.674-5.466 55.45-8.819 82.86 6.274zM51.489 207.724l.682-.253c-12.335-33.295-1.463-68.944 6.115-87.23l-.672-.279c-7.62 18.386-18.548 54.234-6.125 87.762z"/></g><path d="M222.118 340.408c3.583.115 11.48-2.794 13.225-4.401 11.617-10.692 34.668-29.301 36.364-45.907.289-2.836-11.843-7.477-13.185-10.341-7.016-4.836-9.75-6.079-14.163-13.954-13.025-23.25 30.556-55.885-10.659-76.513-30.188-15.11-58.821-8.504-47.404-57.319 11.417-48.816-13.157-145.112-70.86-119.113-33.12 14.917-9.548 61.818-29.957 90.291-19.394 27.057-10.845 53.302 17.554 76.025 28.399 22.723 9.502 33.594-4.113 60.085-16.353 31.823 34.355 46.145 58.33 50.76 19.301 3.711 65.953 26.203 64.868 50.387z" fill="url(#d)"/><mask id="e" style="mask-type:luminance" maskUnits="userSpaceOnUse" x="75" y="8" width="197" height="333"><path d="M222.118 340.408c3.583.115 11.48-2.794 13.225-4.401 11.617-10.692 34.668-29.301 36.364-45.907.289-2.836-11.843-7.477-13.185-10.341-7.016-4.836-9.75-6.079-14.163-13.954-13.025-23.25 30.556-55.885-10.659-76.513-30.188-15.11-58.821-8.504-47.404-57.319 11.417-48.816-13.157-145.112-70.86-119.113-33.12 14.917-9.548 61.818-29.957 90.291-19.394 27.057-10.845 53.302 17.554 76.025 28.399 22.723 9.502 33.594-4.113 60.085-16.353 31.823 34.355 46.145 58.33 50.76 19.301 3.711 65.953 26.203 64.868 50.387z" fill="#fff"/></mask><g style="mix-blend-mode:soft-light" fill="#FCFDFE" mask="url(#e)"><path d="m252.859 314.404.437-.622C157.331 246.123 111.901 128.879 131.775.116l-.755-.113c-9.418 61.02-3.888 121.768 15.99 175.677 20.899 56.668 57.506 104.643 105.849 138.724z"/><path d="M90.602 251.704c31.723-5.004 82.148 2.888 112.407 17.591l.333-.686c-30.377-14.761-81.006-22.682-112.858-17.658l.118.753zM234.172 300.909l.594-.477c-10.94-13.643-14.564-32.296-10.77-55.429 2.783-16.966 9.413-35.905 19.711-56.291l-.681-.345c-10.331 20.457-16.989 39.47-19.781 56.512-3.831 23.36-.155 42.212 10.927 56.03zM144.486 167.909l.613-.445c-19.294-26.77-51.998-38.392-76.04-43.429l-.154.747c23.908 5.016 56.426 16.556 75.581 43.127zM128.248 94.135l.765.066c3.276-37.04 29.565-65.885 44.945-79.784l-.511-.567c-15.461 13.967-41.9 42.98-45.199 80.285z"/></g><path d="M255.811 397.666c-2.195-.957-6.122-4.973-6.721-6.442-3.949-9.781-12.532-27.612-8.801-38.12.639-1.794 9.29-1.12 10.918-2.464 5.621-.911 7.626-.877 12.551-4.367 14.519-10.301-2.437-42.475 28.342-43.124 22.546-.475 37.936 11.712 45.023-21.019 7.086-32.73 49.496-83.81 76.88-51.599 15.715 18.487-11.939 40.043-7.775 63.071 3.956 21.888-8.725 35.273-32.365 40.855-23.64 5.582-15.353 17.553-14.724 37.44.765 23.888-33.946 18.01-49.737 13.928-12.722-3.283-47.317-3.07-53.591 11.841z" fill="url(#f)"/><mask id="g" style="mask-type:luminance" maskUnits="userSpaceOnUse" x="239" y="220" width="180" height="178"><path d="M255.811 397.666c-2.195-.957-6.122-4.973-6.721-6.442-3.949-9.781-12.532-27.612-8.801-38.12.639-1.794 9.29-1.12 10.918-2.464 5.621-.911 7.626-.877 12.551-4.367 14.519-10.301-2.437-42.475 28.342-43.124 22.546-.475 37.936 11.712 45.023-21.019 7.086-32.73 49.496-83.81 76.88-51.599 15.715 18.487-11.939 40.043-7.775 63.071 3.956 21.888-8.725 35.273-32.365 40.855-23.64 5.582-15.353 17.553-14.724 37.44.765 23.888-33.946 18.01-49.737 13.928-12.722-3.283-47.317-3.07-53.591 11.841z" fill="#fff"/></mask><g style="mix-blend-mode:soft-light" fill="#FCFDFE" mask="url(#g)"><path d="m244.708 373.163-.087-.501c77.295-13.35 138.283-71.107 163.162-154.503l.488.153c-11.786 39.523-32.522 74.603-59.955 101.445-28.844 28.215-64.668 46.686-103.608 53.406z"/><path d="M360.585 381.789c-17.712-12.104-50.404-21.78-72.876-21.57v-.51c22.561-.21 55.383 9.506 73.162 21.659l-.286.421zM259.85 370.374l-.223-.459c10.509-5.1 18.037-15.317 22.373-30.367 3.179-11.036 4.592-24.364 4.223-39.617l.509-.012c.377 15.306-1.05 28.685-4.244 39.77-4.376 15.195-11.994 25.515-22.638 30.685zM352.066 315.793l-.245-.447c19.313-10.633 42.379-8.282 58.328-4.439l-.119.496c-15.873-3.823-38.801-6.165-57.964 4.39zM382.984 275.91l-.478-.177c8.63-23.292 1.024-48.23-4.276-61.021l.47-.196c5.332 12.862 12.978 37.939 4.284 61.394z"/></g><path d="M271.061 359.531c-2.5-.187-7.776-2.796-8.878-4.044-7.286-8.302-21.935-22.959-21.887-34.636.009-1.989 8.793-4.321 9.939-6.212 5.239-2.843 7.234-3.504 10.889-8.653 10.788-15.203-17.098-41.144 13.102-52.427 22.122-8.266 41.546-1.543 37.235-36.346-4.312-34.803 19.956-99.966 58.162-77.591 21.928 12.839 2.045 43.71 14.125 65.032 11.479 20.261 3.58 37.881-17.862 51.582-21.442 13.7-9.107 22.652-1.607 42.1 9.009 23.351-27.326 29.541-44.346 30.97-13.705 1.144-47.827 13.317-48.872 30.225z" fill="url(#h)"/><mask id="i" style="mask-type:luminance" maskUnits="userSpaceOnUse" x="240" y="135" width="150" height="225"><path d="M271.061 359.531c-2.5-.187-7.776-2.796-8.878-4.044-7.286-8.302-21.935-22.959-21.887-34.636.009-1.989 8.793-4.321 9.939-6.212 5.239-2.843 7.234-3.504 10.889-8.653 10.788-15.203-17.098-41.144 13.102-52.427 22.122-8.266 41.546-1.543 37.235-36.346-4.312-34.803 19.956-99.966 58.162-77.591 21.928 12.839 2.045 43.71 14.125 65.032 11.479 20.261 3.58 37.881-17.862 51.582-21.442 13.7-9.107 22.652-1.607 42.1 9.009 23.351-27.326 29.541-44.346 30.97-13.705 1.144-47.827 13.317-48.872 30.225z" fill="#fff"/></mask><g style="mix-blend-mode:soft-light" fill="#FCFDFE" mask="url(#i)"><path d="m251.614 339.156-.258-.467c71.785-39.923 112.097-118.106 107.847-209.141l.533-.026c2.014 43.144-6.349 84.988-24.184 121.007-18.75 37.867-47.771 68.513-83.938 88.627z"/><path d="M369.137 307.606c-21.694-5.84-57.355-4.099-79.495 3.878l-.181-.5c22.228-8.01 58.031-9.756 79.815-3.894l-.139.516zM265.615 331.157l-.377-.377c8.623-8.675 12.53-21.378 11.611-37.754-.673-12.007-3.878-25.672-9.525-40.62l.499-.187c5.663 15 8.878 28.716 9.559 40.778.927 16.534-3.031 29.373-11.767 38.16zM337.885 245.318l-.397-.355c15.415-17.19 39.031-22.843 56.121-24.559l.052.531c-16.998 1.705-40.475 7.321-55.776 24.383zM354.668 195.2l-.534-.009c.476-26.007-15.666-48.027-25.33-58.838l.398-.357c9.715 10.871 25.942 33.015 25.466 59.204z"/></g><path d="m265.281 156.421-27.903-4.642-16.683 9.991-28.117-9.234s-24.817 3.289-25.356 3.118l26.554 247.372c7.142 3.909 16.29 6.866 27.857 7.324 9.514.381 19.043-.105 28.469-1.452 7.941-18.355 31.292-74.903 44.251-133.568 15.782-71.442-29.072-118.909-29.072-118.909z" fill="url(#j)"/><path d="M103.451 176.381s-11.336 5.595-17.161 54.918c-5.826 49.324 10.714 72.373 17.79 88.469 7.076 16.096 40.357-20.418 54.658-34.384 14.3-13.965-32.301-109.929-55.287-109.003z" fill="url(#k)"/><path d="M103.451 176.381s-11.336 5.595-17.161 54.918c-5.826 49.324 10.714 72.373 17.79 88.469 7.076 16.096 40.357-20.418 54.658-34.384 14.3-13.965-32.301-109.929-55.287-109.003z" fill="url(#l)"/><path d="M289.538 172.53c.02-.748 7.289-12.808 7.289-12.808s19.708 8.919 37.21 51.996c17.502 43.077 19.549 84.912 12.9 98.135-6.649 13.222-50.608-12.988-59.317-31.338-8.709-18.35 1.918-105.985 1.918-105.985z" fill="url(#m)"/><path d="M317.609 244.466c-6.055-26.697-20.782-84.744-20.782-84.744l-51.66-6.753s43.125 66.513 38.244 122.361c-4.159 47.588-30.413 115.213-38.089 134.178a150.362 150.362 0 0 0 16.76-2.831c9.129-22.848 61.123-137.54 55.527-162.211z" fill="url(#n)"/><path d="M195.847 108.239s-3.729 38.64-4.889 45.113l31.246 12.064 15.854-10.53-9.067-41.541-33.144-5.106z" fill="url(#o)"/><path d="M228.349 77.956c.518.383 3.911 25.214 3.622 29.357-.29 4.143 4.076 13.479 4.076 13.479s-13.9 8.055-21.276 6.649c-7.376-1.407-18.765-17.143-20.816-23.145-2.051-6.001 10.759-19.946 10.759-19.946l23.635-6.394z" fill="url(#p)"/><path d="M195.974 118.695s5.945 20.159 7.575 20.848c13.129 5.542 30.542 9.159 35.848-.847 3.285-6.192.536-15.328-5.429-22.919-.969.986-8.265 8.187-18.015 6.932-9.972-1.285-18.448-10.904-19.022-23.277 0 0-1.272-3.174 2.034-4.397 3.306-1.223 19.645-9.796 23.43-9.534 3.785.261 8.572 1.873 10.785 1.836 2.213-.037 7.841-3.623 7.262-10.911-.578-7.29-6.644-7.927-6.644-7.927.994-.339 6.499-2.318 9.006-8.056 2.644-6.047.983-14.04-3.069-15.984-3.214-1.546-6.48 1.444-22.15 12.147-13.389 9.144-20.082 13.716-23.327 15.684-12.245 7.422-17.296 8.975-19.734 15.26-2.274 5.845-.595 11.401-.087 13.085 4.166 13.78 20.437 17.804 21.537 18.06z" fill="url(#q)"/><path d="M195.53 113.293s-2.017-5.161-4.927-3.754c-2.909 1.406 3.026 9.206 7.218 10.484l-2.291-6.73z" fill="url(#r)"/><path d="M287.115 217.793s4.327-21.05 4.396-21.817c.055-.597-24.428-30.113-35.343-42.575l-14.368-2.995s44.977 69.075 40.102 124.924c-3 34.322-15.978 79.067-26.705 108.463 45.236-92.202 50.841-148.355 50.841-148.355l-18.923-17.645z" fill="url(#s)"/><path d="m218.204 173.44-6.945-14.768s7.628-3.817 19.037-.656l-3.555 14.144a4.508 4.508 0 0 1-6.652 3.297 4.509 4.509 0 0 1-1.885-2.017z" fill="url(#t)"/><path d="m225.022 154.626 14.017 19.822 6.128-21.479-7.109-7.972-13.036 9.629zM190.439 146.293l-4.457 7.108 20.787 22.198 8.739-19.945-25.069-9.361z" fill="#fff"/><path d="M185.982 153.401c-41.508 2.157-82.531 22.981-82.531 22.981 34.838 32.932 64.299 160.821 75.428 214.673 4.852 5.573 12.373 11.893 23.418 15.752 12.794-103.456-16.315-253.406-16.315-253.406z" fill="url(#u)"/><path d="M204.328 383.793s17.614-179.115-18.346-230.392l-14.568 41.377 18.416 23.015-13.29 22.248s30.947 56.145 27.788 143.752z" fill="url(#v)"/><path d="M103.497 316.766c-.351-.817-18.404-41.081-3.502-59.07 14.902-17.989 82.04-45.852 107.883-72.89 0 0 6.815 1.189 8.404 5.369 0 0-45.59 114.535-102.812 133.009.006 0-6.33 2.08-9.973-6.418z" fill="url(#w)"/><path d="M220.128 171.627c8.451 23.233 5.511 37.249 1.034 45.848-8.146 15.652-22.436 15.387-58.469 40.561-31.555 22.04-33.565 31.305-32.908 36.538.918 7.41 7.374 8.233 13.019 23.247 3.929 10.455 3.545 17.357 7.558 18.46 3.322.919 6.383-3.044 12.634-8.265 5.02-4.195 12.264-9.349 22.294-13.928a56.086 56.086 0 0 1 3.619-15.741c10.363-26.491 34.157-25.255 49.499-49.516 9.262-14.648 14.135-36.525 5.941-55.151-5.188-11.785-14.117-18.884-19.636-22.518l-4.585.465z" fill="url(#x)"/><path style="mix-blend-mode:multiply" opacity=".3" d="M244.333 193.688a50.158 50.158 0 0 0-1.446-2.968c2.277 18.384 1.123 38.984-11.412 53.354-16.71 19.155-40.521 12.197-60.352 27.618-11.677 9.081-22.429 26.282-23.863 61.104.722 1.88 1.604 3.083 3.087 3.49 3.321.918 6.384-3.044 12.633-8.265 5.021-4.197 12.265-9.349 22.295-13.929a56.037 56.037 0 0 1 3.619-15.74c10.363-26.492 34.156-25.255 49.499-49.517 9.262-14.651 14.135-36.521 5.94-55.147z" fill="url(#y)"/><path d="M209.37 185.573s3.046-14.772 9.444-18.464c6.398-3.692 20.47-4.378 20.47-4.378s-5.178 10.18-9.657 11.221c-4.478 1.041-13.605 6.075-14.041 10.854-.437 4.778-6.216 3.069-6.216.767z" fill="url(#z)"/><path d="M259.235 234.671s-6.214-14.387-14.068-18.656c-7.853-4.269-16.108-2.521-16.235-1.291-.127 1.231-1.321 8.266 4.211 9.974 5.532 1.708 12.291 6.489 14.528 8.977 2.238 2.487 8.497 6.365 8.497 6.365l3.067-5.369z" fill="url(#A)"/><path d="m260.499 231.299-7.689 11.337c8.902 10.99 16.59 20.06 22.346 26.735 23.419 27.138 35.322 38.279 50.806 42.963 4.333 1.311 13.587 3.979 19.083-.743.807-.691 3.132-2.918 4.096-8.643 2.091-12.427-5.236-23.499-7.685-27.199-10.24-15.479-39.832-32.597-80.957-44.45z" fill="url(#B)"/><path d="m387.922 361.236-330.63-8.309c-18.333-.46-33.52 13.357-33.52 30.873v66.395c0 17.516 15.192 30.823 33.52 29.745l330.63-19.449c10.959-.644 19.695-11.833 19.695-25.002v-49.915c0-13.167-8.736-24.062-19.695-24.338z" fill="url(#C)"/><path d="m391.535 361.236-330.629-8.309c-18.331-.46-33.52 13.357-33.52 30.873v66.395c0 17.516 15.192 30.823 33.52 29.745l330.629-19.449c10.96-.644 19.696-11.833 19.696-25.002v-49.915c0-13.167-8.736-24.062-19.696-24.338z" fill="#97A6B7"/><path d="M60.906 475.803c-15.837.888-28.968-10.671-28.968-25.783v-66.198c0-15.112 13.131-27.113 28.968-26.758l330.629 7.405c9.49.213 17.108 9.673 17.108 21.095v50.024c0 11.42-7.612 21.138-17.108 21.67L60.906 475.803z" fill="url(#D)"/><path d="m104.911 382.845 9.422 18.655a2.359 2.359 0 0 0 1.791 1.263l20.587 2.77a2.283 2.283 0 0 1 1.279 3.905l-14.811 14.583a2.34 2.34 0 0 0-.677 2.071l3.521 20.204c.329 1.88-1.684 3.403-3.407 2.578l-18.746-8.977a2.478 2.478 0 0 0-2.251.075l-19.3 10.507c-1.827.995-3.967-.41-3.616-2.377l3.742-21.036a2.283 2.283 0 0 0-.715-2.096l-16-14.597c-1.511-1.378-.677-3.827 1.407-4.133l21.983-3.257a2.489 2.489 0 0 0 1.852-1.313l9.601-18.846c.89-1.748 3.453-1.731 4.338.021z" fill="#D8DEE8"/><path d="m180.266 383.265 8.485 17.696a2.13 2.13 0 0 0 1.612 1.2l18.557 2.639c1.705.242 2.386 2.432 1.152 3.71l-13.362 13.834a2.305 2.305 0 0 0-.612 1.965l3.179 19.179c.295 1.784-1.517 3.228-3.072 2.441l-16.884-8.55a2.128 2.128 0 0 0-2.026.069l-17.356 9.929a2.164 2.164 0 0 1-2.357-.078 2.174 2.174 0 0 1-.892-2.183l3.367-19.934a2.227 2.227 0 0 0-.643-1.99l-14.369-13.847c-1.356-1.308-.612-3.62 1.263-3.913l19.744-3.078a2.232 2.232 0 0 0 1.666-1.244l8.635-17.873a2.157 2.157 0 0 1 3.124-.891c.345.225.619.544.789.919z" fill="url(#E)"/><path d="m248.265 383.637 7.678 16.836a1.93 1.93 0 0 0 1.46 1.142l16.812 2.519c1.546.231 2.163 2.318 1.046 3.533l-12.103 13.163a2.24 2.24 0 0 0-.488.872 2.241 2.241 0 0 0-.064.997l2.879 18.258c.267 1.699-1.378 3.071-2.783 2.318l-15.285-8.163a1.84 1.84 0 0 0-1.836.061l-15.689 9.412c-1.483.889-3.214-.383-2.936-2.155l3.039-18.941a2.203 2.203 0 0 0-.582-1.891l-12.976-13.163c-1.225-1.241-.548-3.439 1.14-3.716l17.837-2.908a2.046 2.046 0 0 0 1.507-1.182l7.806-16.989c.73-1.6 2.817-1.585 3.538-.003z" fill="url(#F)"/><path d="m309.938 383.976 6.981 16.059a1.772 1.772 0 0 0 1.328 1.089l15.306 2.412c1.408.222 1.97 2.212.952 3.367l-11.02 12.551a2.23 2.23 0 0 0-.504 1.783l2.622 17.423c.244 1.621-1.25 2.926-2.533 2.206l-13.902-7.806a1.603 1.603 0 0 0-1.665.055l-14.255 8.944c-1.345.845-2.922-.37-2.665-2.058l2.755-18.043a2.155 2.155 0 0 0-.526-1.801l-11.777-12.551c-1.109-1.183-.497-3.277 1.035-3.539l16.192-2.772a1.868 1.868 0 0 0 1.367-1.126l7.096-16.202c.66-1.511 2.556-1.498 3.213.009z" fill="url(#G)"/><path d="m366.126 384.287 6.376 15.346a1.64 1.64 0 0 0 1.213 1.042l13.988 2.31c1.289.214 1.803 2.118.872 3.226l-10.074 11.99a2.187 2.187 0 0 0-.459 1.703l2.395 16.659c.224 1.552-1.142 2.797-2.314 2.106l-12.704-7.486a1.42 1.42 0 0 0-1.522.051l-13.01 8.522c-1.224.804-2.666-.36-2.43-1.97l2.515-17.227a2.144 2.144 0 0 0-.481-1.72l-10.726-12.003c-1.011-1.131-.46-3.129.942-3.378l14.765-2.64a1.717 1.717 0 0 0 1.247-1.072l6.476-15.477c.6-1.434 2.34-1.422 2.931.018z" fill="url(#H)"/><path d="M345.55 416.335c-41.038-10.482-69.005 45.333-118.162 34.108-43.432-9.916-44.657-56.544-97.305-89.664a154.438 154.438 0 0 0-11.156-6.395l-58.01-1.457c-18.332-.46-33.52 13.357-33.52 30.873v66.395c0 17.516 15.191 30.823 33.52 29.745l328.528-19.325c-14.835-30.208-30.621-40.89-43.895-44.28z" fill="#97A6B7" style="mix-blend-mode:multiply" opacity=".1"/><path d="m104.911 382.845 9.422 18.655a2.359 2.359 0 0 0 1.791 1.263l20.587 2.77a2.283 2.283 0 0 1 1.279 3.905l-14.811 14.583a2.34 2.34 0 0 0-.677 2.071l3.521 20.204c.329 1.88-1.684 3.403-3.407 2.578l-18.746-8.977a2.478 2.478 0 0 0-2.251.075l-19.3 10.507c-1.827.995-3.967-.41-3.616-2.377l3.742-21.036a2.283 2.283 0 0 0-.715-2.096l-16-14.597c-1.511-1.378-.677-3.827 1.407-4.133l21.983-3.257a2.489 2.489 0 0 0 1.852-1.313l9.601-18.846c.89-1.748 3.453-1.731 4.338.021z" fill="url(#I)"/></g><defs><linearGradient id="u" x1="143.718" y1="278.111" x2="127.131" y2="129.766" gradientUnits="userSpaceOnUse"><stop stop-color="#010648"/><stop offset="1" stop-color="#6165D7"/></linearGradient><linearGradient id="b" x1="109.783" y1="124.497" x2="192.683" y2="654.467" gradientUnits="userSpaceOnUse"><stop stop-color="#6165D7"/><stop offset="1" stop-color="#30ABBA"/></linearGradient><linearGradient id="f" x1="316.038" y1="217.685" x2="374.029" y2="588.426" gradientUnits="userSpaceOnUse"><stop stop-color="#6165D7"/><stop offset="1" stop-color="#30ABBA"/></linearGradient><linearGradient id="h" x1="383.629" y1="173.053" x2="269.88" y2="330.447" gradientUnits="userSpaceOnUse"><stop stop-color="#FC9D8A"/><stop offset="1" stop-color="#FF8871"/></linearGradient><linearGradient id="j" x1="167.214" y1="281.126" x2="297.719" y2="281.126" gradientUnits="userSpaceOnUse"><stop offset=".49" stop-color="#EBEFF2"/><stop offset="1" stop-color="#fff"/></linearGradient><linearGradient id="k" x1="115.18" y1="248.921" x2="107.636" y2="162.203" gradientUnits="userSpaceOnUse"><stop stop-color="#010648"/><stop offset="1" stop-color="#6165D7"/></linearGradient><linearGradient id="l" x1="115.18" y1="248.921" x2="107.636" y2="162.203" gradientUnits="userSpaceOnUse"><stop stop-color="#010648"/><stop offset="1" stop-color="#6165D7"/></linearGradient><linearGradient id="m" x1="310.319" y1="235.374" x2="300.897" y2="145.245" gradientUnits="userSpaceOnUse"><stop stop-color="#010648"/><stop offset="1" stop-color="#6165D7"/></linearGradient><linearGradient id="n" x1="273.904" y1="279.221" x2="250.378" y2="130.897" gradientUnits="userSpaceOnUse"><stop stop-color="#010648"/><stop offset="1" stop-color="#6165D7"/></linearGradient><linearGradient id="o" x1="214.04" y1="166.57" x2="217.109" y2="84.991" gradientUnits="userSpaceOnUse"><stop stop-color="#FFC444"/><stop offset="1" stop-color="#F36F56"/></linearGradient><linearGradient id="p" x1="222.877" y1="109.819" x2="187.074" y2="54.58" gradientUnits="userSpaceOnUse"><stop stop-color="#FFC444"/><stop offset="1" stop-color="#F36F56"/></linearGradient><linearGradient id="q" x1="255.311" y1="70.766" x2="172.453" y2="142.37" gradientUnits="userSpaceOnUse"><stop stop-color="#010648"/><stop offset="1" stop-color="#0F138F"/></linearGradient><linearGradient id="r" x1="199.574" y1="108.452" x2="171.443" y2="141.185" gradientUnits="userSpaceOnUse"><stop stop-color="#FFC444"/><stop offset="1" stop-color="#F36F56"/></linearGradient><linearGradient id="s" x1="267.136" y1="265.263" x2="245.085" y2="130.539" gradientUnits="userSpaceOnUse"><stop stop-color="#010648"/><stop offset="1" stop-color="#6165D7"/></linearGradient><linearGradient id="t" x1="211.344" y1="176.606" x2="111.257" y2="317.271" gradientUnits="userSpaceOnUse"><stop stop-color="#444B8C"/><stop offset="1" stop-color="#26264F"/></linearGradient><linearGradient id="d" x1="264.594" y1="64.68" x2="91.407" y2="279.034" gradientUnits="userSpaceOnUse"><stop stop-color="#FC9D8A"/><stop offset="1" stop-color="#FF8871"/></linearGradient><linearGradient id="v" x1="186.097" y1="266.785" x2="150.77" y2="140.076" gradientUnits="userSpaceOnUse"><stop stop-color="#010648"/><stop offset="1" stop-color="#6165D7"/></linearGradient><linearGradient id="w" x1="142.295" y1="253.017" x2="138.107" y2="171.078" gradientUnits="userSpaceOnUse"><stop stop-color="#010648"/><stop offset="1" stop-color="#6165D7"/></linearGradient><linearGradient id="x" x1="158.044" y1="269.281" x2="250.108" y2="219.498" gradientUnits="userSpaceOnUse"><stop stop-color="#444B8C"/><stop offset="1" stop-color="#26264F"/></linearGradient><linearGradient id="y" x1="164.614" y1="281.429" x2="256.678" y2="231.647" gradientUnits="userSpaceOnUse"><stop stop-color="#444B8C"/><stop offset="1" stop-color="#26264F"/></linearGradient><linearGradient id="z" x1="231.443" y1="160.826" x2="199.987" y2="207.114" gradientUnits="userSpaceOnUse"><stop stop-color="#FFC444"/><stop offset="1" stop-color="#F36F56"/></linearGradient><linearGradient id="A" x1="235.206" y1="207.465" x2="258.735" y2="260.402" gradientUnits="userSpaceOnUse"><stop stop-color="#FFC444"/><stop offset="1" stop-color="#F36F56"/></linearGradient><linearGradient id="B" x1="290.949" y1="272.136" x2="289.051" y2="223.026" gradientUnits="userSpaceOnUse"><stop stop-color="#010648"/><stop offset="1" stop-color="#6165D7"/></linearGradient><linearGradient id="C" x1="23.768" y1="416.459" x2="407.617" y2="416.459" gradientUnits="userSpaceOnUse"><stop stop-color="#444B8C"/><stop offset="1" stop-color="#26264F"/></linearGradient><linearGradient id="D" x1="117.208" y1="566.026" x2="283.443" y2="313.771" gradientUnits="userSpaceOnUse"><stop stop-color="#EBEFF2"/><stop offset="1" stop-color="#fff"/></linearGradient><linearGradient id="E" x1="229.8" y1="366.653" x2="134.88" y2="463.494" gradientUnits="userSpaceOnUse"><stop stop-color="#FFC444"/><stop offset="1" stop-color="#F36F56"/></linearGradient><linearGradient id="F" x1="264.112" y1="400.175" x2="171.238" y2="494.928" gradientUnits="userSpaceOnUse"><stop stop-color="#FFC444"/><stop offset="1" stop-color="#F36F56"/></linearGradient><linearGradient id="G" x1="312.162" y1="407.341" x2="215.971" y2="568.026" gradientUnits="userSpaceOnUse"><stop stop-color="#FFC444"/><stop offset="1" stop-color="#F36F56"/></linearGradient><linearGradient id="H" x1="339.249" y1="411.608" x2="389.05" y2="411.608" gradientUnits="userSpaceOnUse"><stop stop-color="#FFC444"/><stop offset="1" stop-color="#F36F56"/></linearGradient><linearGradient id="I" x1="112.595" y1="377.069" x2="52.208" y2="555.939" gradientUnits="userSpaceOnUse"><stop stop-color="#FFC444"/><stop offset="1" stop-color="#F36F56"/></linearGradient><clipPath id="a"><path fill="#fff" transform="translate(.028)" d="M0 0h418.843v480H0z"/></clipPath></defs></svg>