<svg width="480" height="480" fill="none" xmlns="http://www.w3.org/2000/svg"><g clip-path="url(#a)" transform="matrix(.98356 0 0 1 -.858 0)"><path d="M373.029 28.85c16.187 23.174-2.794 60.746 21.226 78.175 23.383 16.966 52.107-10.844 74.143 3.76 32.689 21.663 26.72 120.797-21.073 182.391-14.374 18.522-26.383 25.729-31.702 46.679-11.422 44.982 28.712 71.739 21.08 93.987-17.2 50.094-281.72 92.127-387.863-58.418-49.57-70.32-56.988-171.843-12.698-248.955C116.179-12.874 336.703-23.149 373.029 28.85z" fill="#f4f7fa"/><path d="M117.203 259.787c5.253 2.666 11.85.218 14.736-5.468 2.887-5.685.97-12.458-4.281-15.13a9.93 9.93 0 0 0-.828-.366 66.63 66.63 0 0 0 2.206-9.489c.3 0 .601 0 .909-.034 5.99-.533 10.746-6.038 10.62-12.296-.125-6.259-5.084-10.897-11.076-10.363-.312.028-.62.078-.925.131a61.003 61.003 0 0 0-2.565-9.061c.275-.161.549-.328.817-.516 5.127-3.591 6.765-10.68 3.66-15.831-3.105-5.151-9.776-6.418-14.901-2.826a10.8 10.8 0 0 0-.755.584 54.115 54.115 0 0 0-6.646-6.205c.171-.277.333-.557.483-.859 2.886-5.686 6.66-11.898 1.375-14.48-12.243-5.978-17.496-.86-20.384 4.824-.15.296-.277.595-.402.894a54.341 54.341 0 0 0-8.94-1.706c.018-.316.032-.632.027-.952-.126-6.258 1.731-9.644-4.283-9.761-13.115-.256-17.537 5.437-17.413 11.692 0 .328.033.648.065.964a61.328 61.328 0 0 0-8.83 3.293 10.25 10.25 0 0 0-.44-.826c-3.104-5.157-9.776-6.418-14.901-2.826-5.126 3.592-6.766 10.679-3.66 15.831.157.265.333.516.515.755a66.501 66.501 0 0 0-6.361 7.379 11.49 11.49 0 0 0-.784-.454c-5.251-2.665-11.848-.216-14.735 5.469-2.886 5.686-.971 12.457 4.281 15.13.272.138.549.255.827.365a66.707 66.707 0 0 0-2.204 9.49c-.3 0-.603 0-.91.033C5.505 217.7.749 223.205.873 229.463c.124 6.259 5.087 10.896 11.077 10.363.313-.028.621-.078.927-.133a61.077 61.077 0 0 0 2.565 9.063c-.275.161-.55.328-.818.515-5.125 3.592-6.764 10.679-3.66 15.832 3.103 5.153 13.382 7.546 18.508 3.954.263-.184-3.095-1.511-2.853-1.719a54.38 54.38 0 0 0 6.649 6.205 10.32 10.32 0 0 0-.485.859c-2.887 5.688-.97 12.459 4.281 15.13 5.25 2.672 11.85.217 14.736-5.469.15-.294.279-.593.403-.892a54.24 54.24 0 0 0 8.931 1.704c-.017.316-.032.632-.025.954.125 6.256 5.084 10.897 11.075 10.362 5.992-.535 10.746-6.038 10.62-12.296 0-.327-.034-.647-.065-.965a60.873 60.873 0 0 0 8.829-3.277c.137.28.278.557.44.827 3.105 5.158 9.776 6.417 14.903 2.825 5.127-3.592 6.764-10.679 3.66-15.831a8.255 8.255 0 0 0-.516-.753 66.702 66.702 0 0 0 6.362-7.38c.258.152.509.308.787.446zm-65.462.83c-19.067-9.68-26.025-34.264-15.544-54.908 10.48-20.643 34.436-29.534 53.503-19.852 19.067 9.681 26.025 34.264 15.542 54.909-10.483 20.645-34.434 29.532-53.501 19.851z" fill="#abc"/><path d="M129.945 229.309c5.99-.535 10.746-6.04 10.62-12.299-.125-6.258-5.084-10.896-11.076-10.362-.312.028-.62.078-.925.131a61.003 61.003 0 0 0-2.565-9.061c.275-.161.549-.328.817-.516 5.127-3.591 11.468-12.269 7.852-17.076-6.865-9.121-13.968-5.173-19.093-1.581-.263.184-.516.381-.755.584a54.115 54.115 0 0 0-6.646-6.205c.171-.277.333-.557.483-.859a11.929 11.929 0 0 0 .672-9.407 1762.57 1762.57 0 0 0-14.631 26.263c15.21 11.146 20.052 33.11 10.544 51.837-8.057 15.869-24.07 24.78-39.716 23.662-.698 1.809-1.375 3.628-2.13 5.42-2.027 4.862-4.33 9.628-6.637 14.38 1.452.273 2.908.486 4.37.641-.02.316-.035.633-.028.954.125 6.257 3.925 11.575 14.786 11.004 6.007-.32 7.039-6.675 6.913-12.933 0-.326-.034-.646-.065-.964a60.987 60.987 0 0 0 8.828-3.277c.138.28.279.557.44.827 3.106 5.158 13.875 7.339 19.001 3.749 5.125-3.589 2.666-11.603-.437-16.756a8.462 8.462 0 0 0-.516-.753 66.486 66.486 0 0 0 6.361-7.379c.255.16.516.314.784.452 5.253 2.667 11.85.218 14.737-5.467 2.886-5.686.969-12.458-4.281-15.13a9.768 9.768 0 0 0-.829-.366 66.662 66.662 0 0 0 2.206-9.489c.306.007.608.001.916-.024z" fill="#abc"/><path d="M122.851 260.43c5.253 2.666 11.85.218 14.736-5.469 2.887-5.688.97-12.457-4.281-15.13a9.6 9.6 0 0 0-.828-.365 66.505 66.505 0 0 0 2.205-9.49c.301 0 .602 0 .91-.033 5.992-.535 10.746-6.04 10.62-12.296-.125-6.257-5.084-10.899-11.074-10.364-.315.027-.621.077-.927.132a61.015 61.015 0 0 0-2.565-9.062c.275-.162.55-.329.817-.516 5.127-3.592 6.765-10.679 3.66-15.832-3.105-5.152-9.776-6.416-14.901-2.826-.263.186-.516.383-.755.584a54.216 54.216 0 0 0-6.638-6.198c.172-.276.334-.557.483-.859 2.887-5.686.972-12.458-4.281-15.13-5.252-2.672-11.848-.219-14.734 5.467-.15.294-.279.593-.404.894a53.918 53.918 0 0 0-8.932-1.705c.019-.317.034-.633.027-.955-.125-6.256-5.084-10.896-11.075-10.362-5.992.535-10.755 6.057-10.63 12.312 0 .327.034.647.066.965a60.873 60.873 0 0 0-8.828 3.277 10.86 10.86 0 0 0-.442-.827c-3.104-5.158-9.776-6.417-14.901-2.825-5.126 3.591-6.766 10.678-3.66 15.831.157.263.333.516.515.753a66.853 66.853 0 0 0-6.361 7.379 10.896 10.896 0 0 0-.784-.452c-5.251-2.666-11.848-.218-14.735 5.468-2.887 5.685-.971 12.458 4.281 15.13.272.137.55.252.829.364a66.495 66.495 0 0 0-2.206 9.489c-.3 0-.602 0-.91.034-5.991.533-10.745 6.038-10.621 12.297.123 6.258 5.085 10.897 11.075 10.362.313-.028.621-.076.927-.131a61.1 61.1 0 0 0 2.565 9.063c-.275.161-.55.326-.816.516-5.127 3.589-6.766 10.678-3.66 15.829 3.104 5.151 9.775 6.418 14.9 2.827.264-.184.516-.382.755-.585a54.086 54.086 0 0 0 6.647 6.205c-.172.279-.334.559-.483.86-2.888 5.685-.971 12.456 4.281 15.13 5.253 2.673 11.848.218 14.734-5.468.15-.294.279-.595.403-.894a54.13 54.13 0 0 0 8.94 1.706 11.7 11.7 0 0 0-.027.954c.125 6.256 5.084 10.897 11.075 10.362 5.992-.535 10.746-6.04 10.62-12.296 0-.329-.034-.647-.065-.965a61.008 61.008 0 0 0 8.829-3.277c.137.279.278.557.442.825 3.103 5.158 9.776 6.419 14.901 2.827 5.125-3.592 6.764-10.679 3.66-15.831a8.161 8.161 0 0 0-.516-.755 66.495 66.495 0 0 0 6.362-7.379c.246.135.504.295.775.435zm-65.462.83c-19.067-9.681-26.025-34.264-15.544-54.909 10.48-20.646 34.435-29.534 53.502-19.853 19.068 9.681 26.026 34.26 15.545 54.909S76.456 270.94 57.389 261.26z" fill="#d8dee8"/><path d="M448.026 136.53c6.264 3.181 14.133.259 17.578-6.523 3.446-6.783 1.158-14.858-5.108-18.039-.323-.172-.655-.303-.986-.435a79.382 79.382 0 0 0 2.628-11.32c.36 0 .721 0 1.087-.039 7.145-.637 12.817-7.204 12.668-14.668-.15-7.463-6.064-13-13.211-12.362-.373.033-.74.093-1.106.157a73.027 73.027 0 0 0-3.058-10.81c.328-.19.655-.39.974-.613 6.114-4.285 8.069-12.739 4.367-18.885-3.701-6.147-11.662-7.654-17.775-3.37-.313.218-.609.456-.9.688a64.796 64.796 0 0 0-7.929-7.393c.201-.33.399-.666.578-1.016 3.438-6.783 7.943-14.191 1.629-17.274-14.603-7.128-20.87-1.032-24.314 5.758a16.44 16.44 0 0 0-.48 1.064 64.714 64.714 0 0 0-10.659-2.034c.022-.376.039-.755.032-1.136-.149-7.464 2.064-11.504-5.108-11.643-15.645-.305-20.922 6.485-20.772 13.948.008.39.041.772.079 1.152a72.727 72.727 0 0 0-10.531 3.908c-.172-.333-.333-.664-.526-.985-3.703-6.145-11.66-7.654-17.776-3.372-6.115 4.283-8.069 12.739-4.365 18.884a12 12 0 0 0 .608.9 79.496 79.496 0 0 0-7.587 8.803c-.302-.19-.61-.376-.933-.541-6.266-3.181-14.135-.26-17.579 6.523-3.443 6.782-1.157 14.858 5.107 18.039.325.172.657.302.988.435a79.682 79.682 0 0 0-2.63 11.32c-.358 0-.719 0-1.085.04-7.145.637-12.817 7.203-12.668 14.666.15 7.464 6.064 13 13.211 12.362.373-.032.74-.091 1.104-.156a72.799 72.799 0 0 0 3.06 10.809c-.328.193-.656.39-.974.616-6.116 4.282-8.071 12.736-4.367 18.883 3.703 6.146 15.962 9 22.075 4.716.313-.219-3.693-1.802-3.4-2.043a64.42 64.42 0 0 0 7.929 7.402c-.201.33-.399.665-.578 1.016-3.438 6.783-1.157 14.858 5.107 18.039 6.263 3.18 14.134.261 17.576-6.522.172-.352.334-.708.482-1.065a64.671 64.671 0 0 0 10.659 2.033 13.86 13.86 0 0 0-.032 1.137c.149 7.465 6.063 13 13.211 12.362 7.147-.638 12.817-7.204 12.667-14.668 0-.39-.039-.772-.079-1.15a73.016 73.016 0 0 0 10.533-3.91c.172.334.332.664.526.986 3.702 6.144 11.66 7.656 17.774 3.371 6.114-4.284 8.07-12.738 4.367-18.885a13.227 13.227 0 0 0-.609-.899 79.273 79.273 0 0 0 7.586-8.794c.304.182.61.368.935.533zm-78.085.99c-22.741-11.547-31.044-40.87-18.539-65.495 12.504-24.626 41.074-35.232 63.822-23.682 22.748 11.55 31.043 40.87 18.541 65.506-12.503 24.636-41.081 35.215-63.824 23.671z" fill="#abc"/><path d="M463.225 100.174c7.145-.636 12.817-7.204 12.668-14.668-.15-7.463-6.064-13-13.211-12.361-.373.032-.74.092-1.106.156a72.912 72.912 0 0 0-3.059-10.81c.329-.19.656-.39.975-.613 6.107-4.281 13.672-14.635 9.374-20.367-8.187-10.881-16.66-6.172-22.774-1.891-.313.218-.609.455-.899.688a64.654 64.654 0 0 0-7.93-7.393 15.1 15.1 0 0 0 .578-1.017c1.874-3.691 2.039-7.76.801-11.22a2146.429 2146.429 0 0 0-17.452 31.326c18.142 13.295 23.919 39.496 12.578 61.833-9.611 18.928-28.712 29.556-47.367 28.224-.832 2.158-1.648 4.327-2.541 6.465-2.417 5.799-5.158 11.479-7.909 17.153a66.8 66.8 0 0 0 5.21.765c-.022.377-.041.755-.033 1.137.15 7.465 4.682 13.806 17.633 13.118 7.165-.38 8.396-7.961 8.253-15.426 0-.388-.039-.77-.079-1.148a73.004 73.004 0 0 0 10.532-3.91c.172.334.332.664.527.985 3.701 6.147 16.548 8.757 22.662 4.47 6.113-4.286 3.18-13.84-.516-19.986a12.768 12.768 0 0 0-.609-.9 79.165 79.165 0 0 0 7.56-8.787c.304.189.61.375.935.54 6.264 3.181 14.133.259 17.578-6.523 3.446-6.783 1.158-14.858-5.108-18.039-.323-.172-.655-.303-.986-.435a79.413 79.413 0 0 0 2.628-11.32c.367-.007.721-.014 1.087-.046z" fill="#abc"/><path d="M454.768 137.297c6.263 3.179 14.132.259 17.576-6.523 3.444-6.783 1.157-14.858-5.106-18.039a9.894 9.894 0 0 0-.989-.437 79.229 79.229 0 0 0 2.631-11.318c.359 0 .718 0 1.085-.04 7.147-.637 12.819-7.204 12.669-14.669-.149-7.465-6.066-12.998-13.211-12.36a12.14 12.14 0 0 0-1.105.157 72.782 72.782 0 0 0-3.061-10.81c.33-.192.657-.39.977-.615 6.114-4.283 8.068-12.737 4.365-18.883-3.703-6.147-11.66-7.655-17.776-3.372-.313.22-.607.458-.899.698a64.477 64.477 0 0 0-7.928-7.401 15.5 15.5 0 0 0 .576-1.016c3.439-6.783 1.157-14.86-5.106-18.041-6.264-3.18-14.133-.26-17.577 6.523-.171.344-.331.708-.479 1.066a64.58 64.58 0 0 0-10.66-2.034c.022-.377.04-.755.031-1.138-.15-7.464-6.064-12.998-13.211-12.36-7.147.638-12.817 7.204-12.668 14.667 0 .39.04.772.079 1.15a72.96 72.96 0 0 0-10.532 3.908 17.627 17.627 0 0 0-.516-.983c-3.703-6.147-11.662-7.656-17.776-3.372-6.114 4.285-8.069 12.739-4.367 18.883.191.315.397.61.609.9a79.551 79.551 0 0 0-7.586 8.802 12.78 12.78 0 0 0-.935-.54c-6.264-3.18-14.133-.259-17.577 6.522-3.443 6.78-1.157 14.86 5.107 18.04.325.164.655.303.988.436a79.398 79.398 0 0 0-2.63 11.32c-.36 0-.719 0-1.085.037-7.147.638-12.819 7.206-12.67 14.669.15 7.464 6.064 12.998 13.212 12.362a13 13 0 0 0 1.105-.158 72.993 72.993 0 0 0 3.057 10.806c-.328.192-.655.392-.975.615-6.114 4.283-8.069 12.739-4.365 18.883 3.703 6.145 11.655 7.667 17.769 3.369.313-.221.608-.456.899-.688a64.947 64.947 0 0 0 7.929 7.393c-.201.33-.398.663-.576 1.016-3.438 6.783-1.158 14.858 5.107 18.039 6.265 3.181 14.132.259 17.576-6.523.172-.344.332-.709.48-1.066a64.374 64.374 0 0 0 10.66 2.034c-.023.378-.04.755-.033 1.138.151 7.463 6.066 12.998 13.211 12.362 7.145-.636 12.819-7.206 12.67-14.669a14.95 14.95 0 0 0-.08-1.151 72.728 72.728 0 0 0 10.533-3.908c.162.332.332.664.524.986 3.704 6.144 11.662 7.654 17.776 3.369 6.114-4.284 8.069-12.736 4.365-18.883a12.627 12.627 0 0 0-.608-.899 79.27 79.27 0 0 0 7.587-8.803c.298.198.605.384.934.549zm-78.086.99c-22.743-11.547-31.044-40.871-18.541-65.505 12.503-24.634 41.076-35.229 63.819-23.68C444.703 60.65 453 89.98 440.497 114.605c-12.502 24.626-41.075 35.229-63.818 23.682z" fill="#d8dee8"/><path d="m390.168 289.648-43.777.615c-4.985.071-7.977 6.46-5.133 11.05 14.476 23.362-2.213 45.976-15.782 47.4-15.862 1.666-31.965-7.366-30.421-27.886.669-8.878 2.923-16.019 5.263-21.249 2.14-4.785-1.016-10.316-5.825-10.243l-56.05.744v51.878c0 3.955 3.876 6.467 7.127 4.526 4.683-2.794 11.701-5.394 21.147-4.778 18.842 1.225 29.471 17.772 22.705 31.853-13.106 27.275-30.497 21.18-40.403 14.374-3.253-2.236-7.694.588-7.694 4.87v59.744l148.842-12.963z" fill="url(#b)" style="fill:url(#b)"/><path d="M250.759 441.556V400.67c5.295 2.407 10.553 3.45 15.704 3.11 8.768-.574 21.17-5.548 30.897-25.886 4.197-8.768 4.17-18.728-.074-27.357a4.911 4.911 0 0 0-.171-.329c6.772 5.915 16.072 8.965 26.119 8.5a43.895 43.895 0 0 0 2.729-.211c10.487-1.149 20.934-10.096 26.075-22.222 4.932-11.633 4.399-24.617-1.36-36.367l31.214-.583v131.417zm38.887-101.024c-5.791-5.124-13.461-8.308-22.062-8.908a50.774 50.774 0 0 0-5.146-.098 44.987 44.987 0 0 0-14.54 2.844v-34.235l42.675-.763a75.39 75.39 0 0 0-4.541 20.876c-.569 7.537.674 14.423 3.614 20.284z" fill="#fff" style="mix-blend-mode:soft-light" opacity=".3"/><path d="M249.021 387.931c9.908 6.807 27.299 12.895 40.403-14.373 6.766-14.081-3.863-30.628-22.705-31.854-9.456-.615-16.471 1.985-21.147 4.778-3.252 1.942-7.127-.565-7.127-4.525v-51.878l-54.438.724c-5.55.074-9.023-6.212-6.234-11.293 19.101-34.797-11.877-49.918-19.772-49.412-8.769.562-36.365 5.273-36.365 26.467 0 9.6 2.769 17.708 5.794 23.688 2.62 5.182-.942 11.43-6.68 11.507l-51.637.688v175.096l172.215-14.998v-59.744c-.001-4.283 4.44-7.107 7.693-4.871z" fill="url(#c)" style="fill:url(#c)"/><path d="M77.159 458.504V300.672l43.59-.734c5.465-.093 10.4-3.013 13.214-7.801a16.315 16.315 0 0 0 .516-15.682c-3.231-6.416-4.873-13.111-4.873-19.883 0-15.957 27.523-18.332 28.916-18.442 2.328.054 11.263 3.504 15.542 11.284 3.812 6.931 2.835 15.704-2.923 26.134a16.036 16.036 0 0 0 0 15.619c2.696 4.845 7.507 7.679 12.855 7.588l47.199-.793v44.253c0 3.587 1.315 6.888 3.7 9.284 2.302 2.322 5.316 3.522 8.481 3.387a11.624 11.624 0 0 0 5.471-1.678c3.97-2.382 8.545-3.694 13.582-3.899a35.638 35.638 0 0 1 3.625.041c7.762.478 14.321 4.335 17.158 10.053 1.24 2.498 2.268 6.399.134 10.82-4.864 10.089-10.546 15.408-16.895 15.773-5.06.29-10.072-2.378-13.394-4.675a10.816 10.816 0 0 0-6.786-1.929c-6.705.362-12.176 6.566-12.176 13.826v52.154z" fill="#fff" style="mix-blend-mode:soft-light" opacity=".3"/><path d="m69.111 292.454 51.638-.688c5.737-.078 9.299-6.326 6.679-11.508-3.024-5.979-5.794-14.087-5.794-23.688 0-21.194 27.6-25.905 36.365-26.467 7.892-.505 38.87 14.614 19.772 49.413-2.789 5.08.688 11.366 6.234 11.292l54.438-.724v-52.82c0-4.405 4.622-6.796 7.909-4.169 15.433 12.325 36.965 1.93 40.576-7.038 4.267-10.608 5.427-32.353-16.449-39.502-11.6-3.783-20.142-.954-25.667 2.648-3.289 2.144-7.588-.556-7.588-4.772v-50.853l-168.113-9.693z" fill="url(#d)" style="fill:url(#d)"/><path d="M80.072 281.342V135.481l147.6 7.826v40.796a16.542 16.542 0 0 0 4.47 11.428c2.729 2.887 6.293 4.529 10.032 4.632a13.237 13.237 0 0 0 7.668-2.201c3.281-2.156 6.984-3.186 11.004-3.063 2.457.1 4.887.544 7.221 1.32 5.502 1.774 9.045 4.642 10.832 8.768 2.317 5.36 1.499 12.34-.344 16.893-.992 1.965-7.909 6.866-16.162 6.744-4.02-.06-7.565-1.296-10.525-3.679-2.49-2.003-5.423-3.095-8.485-3.146-7.969-.141-14.496 6.75-14.496 15.363v42.775l-40.266.344c8.482-18.257 5.184-31.68.659-39.983-7.596-13.926-22.836-20.667-30.801-20.812-.441 0-.86 0-1.255.026-22.757 1.353-46.183 13.347-46.183 37.03a62.357 62.357 0 0 0 5.043 24.483z" fill="#fff" style="mix-blend-mode:soft-light" opacity=".3"/><g style="mix-blend-mode:multiply" opacity=".3"><path d="M192.103 216.117c-6.324-34.959 3.702-59.488 13.203-84.377l-136.195-7.855v168.569l51.638-.688c5.737-.078 9.299-6.326 6.679-11.508-3.024-5.979-5.794-14.087-5.794-23.688 0-21.194 27.6-25.903 36.365-26.467 7.892-.505 38.87 14.614 19.772 49.413-2.789 5.08.688 11.366 6.234 11.292l53.414-.71c-21.301-19.06-39.059-39.394-45.316-73.981z" fill="url(#e)" style="fill:url(#e)"/></g><g style="mix-blend-mode:multiply" opacity=".3"><path d="M238.44 291.009v50.948c0 3.955 3.875 6.467 7.126 4.527 4.684-2.795 11.702-5.397 21.148-4.781 18.843 1.227 29.472 17.774 22.707 31.855-13.107 27.275-30.497 21.18-40.404 14.374-3.255-2.236-7.696.587-7.696 4.872v59.742l96.416-8.397c-4.316-27.11-12.091-48.372-20.589-65.196-22.03-43.62-52.76-64.896-78.708-87.944z" fill="url(#f)" style="fill:url(#f)"/></g><path d="M442.217 59.325c0-4.945-4.099-9.285-9.169-9.694L260.187 33.59c-5.639-.456-9.64 5.572-9.64 10.807v60.847c0 5.237 4.586 9.745 10.225 10.068l172.274 9.896c5.07.291 9.169-3.481 9.169-8.424z" fill="url(#g)" style="fill:url(#g)"/><path d="m349.12 133.886-15.653-17.854 31.161 1.823z" fill="url(#h)" style="fill:url(#h)"/><path d="M444.24 57.069c0-4.946-4.098-9.284-9.169-9.693l-172.274-13.89c-5.639-.454-10.224 3.42-10.224 8.656v60.844c0 5.236 4.585 9.744 10.224 10.069l172.274 9.896c5.071.291 9.169-3.482 9.169-8.425z" fill="url(#i)" style="fill:url(#i)"/><path d="m351.151 131.63-15.653-17.853 31.161 1.822z" fill="url(#j)" style="fill:url(#j)"/><path d="m269.979 62.942 160.675 12.09a3.795 3.795 0 0 0 3.168-6.253 3.793 3.793 0 0 0-2.59-1.312L270.556 54.944a3.79 3.79 0 0 0-4.085 3.782v.434a3.785 3.785 0 0 0 3.508 3.782zm161.234 17.521L270.538 68.68a3.79 3.79 0 0 0-4.068 3.783v.437a3.792 3.792 0 0 0 3.524 3.782L430.67 88.028a3.794 3.794 0 0 0 3.046-6.366 3.782 3.782 0 0 0-2.503-1.199zm-.015 12.979L270.522 82.398a3.781 3.781 0 0 0-4.051 3.782v.439a3.794 3.794 0 0 0 3.542 3.782l160.684 10.61a3.776 3.776 0 0 0 2.843-1.013 3.782 3.782 0 0 0 1.198-2.77 3.781 3.781 0 0 0-3.54-3.786z" opacity=".5" fill="#fff"/><path d="M277.905 193.502c5.526-3.61 14.067-6.44 25.667-2.649 21.877 7.151 20.716 28.895 16.449 39.504-3.611 8.968-25.142 19.363-40.576 7.036-3.289-2.626-7.909-.234-7.909 4.171v52.817l56.05-.745c4.814-.063 7.965 5.459 5.826 10.244-2.339 5.23-4.595 12.369-5.264 21.249-1.547 20.52 14.559 29.549 30.432 27.885 13.567-1.423 30.259-24.037 15.781-47.401-2.845-4.589.15-10.978 5.132-11.048l43.777-.616V146.7l-152.952-8.812v50.852c0 4.207 4.298 6.906 7.587 4.762z" fill="url(#k)" style="fill:url(#k)"/><path d="M356.339 343.345c-6.664.246-12.671-1.965-16.046-5.927-2.517-2.955-3.564-6.789-3.194-11.717.469-6.266 1.922-12.171 4.312-17.536 2.377-5.344 2.125-11.509-.678-16.506-2.823-5.039-7.737-8.025-13.144-7.979l-46.593.404v-34.111a34.958 34.958 0 0 0 14.513 3.191c14.244.077 28.585-8.131 32.795-18.651 3.37-8.414 5.158-21.579.088-33.411-2.828-6.604-9.009-15.427-22.435-19.88a43.66 43.66 0 0 0-11.999-2.26 35.849 35.849 0 0 0-14.172 2.236v-32.585l135.213 7.171v128.721l-35.509.334c-5.535.053-10.595 3.56-13.189 9.164-2.594 5.603-2.235 12.234.934 17.313 5.653 9.078 4.451 16.552 2.446 21.237-2.751 6.449-8.031 10.316-11.6 10.672-.579.058-1.164.099-1.742.12z" fill="#fff" style="mix-blend-mode:soft-light" opacity=".3"/><path d="M426.299 216.687c.126-.553-.417-2.689-.118-3.158.493-.769.222-.899.901-1.511.344-.313.655-.733.615-1.218-.089-1.067-2.814-5.307-2.814-5.307s-1.458 1.46-.688 2.293c.77.834 1.389 1.789.669 2.579-.721.791-1.063 1.873-1.143 2.992-.081 1.119.675 4.281.675 4.281s1.603.37 1.903-.951z" fill="url(#l)" style="fill:url(#l)"/><path d="M426.614 216.001a117.431 117.431 0 0 0 10.72 18.264c10.178 14.222 16.184 15.851 22.198 28.438 1.448 3.032 5.299 11.725 4.656 22.853-.275 4.748-.557 8.682-3.367 11.144-6.064 5.314-21.132 1.345-25.39-7.049-3.638-7.159 3.71-11.414 2.034-22.939-1.696-11.655-10.125-13.57-14.071-26.305-1.845-5.961-2.552-13.777.189-23.849z" fill="url(#m)" style="fill:url(#m)"/><path d="m441.013 456.71.234 2.83a1.274 1.274 0 0 1-.927 1.34c-2.089.581-6.994 1.755-10.831 1.181-5.005-.75 8.117-5.351 8.117-5.351z" fill="#26264f"/><path d="m440.401 451.358.612 5.352s-2.116 1.436-3.402 0l-2.614-4.864z" fill="url(#n)" style="fill:url(#n)"/><path d="m375.183 459.569-.868 3.202a2.196 2.196 0 0 1-1.914 1.535c-3.124.26-10.369.688-13.582-.535-4.158-1.583 12.196-4.676 12.196-4.676z" fill="#26264f"/><path d="m376.725 455.321-1.547 3.822s-2.62 1.534-4.952.308l1.272-4.685z" fill="url(#o)" style="fill:url(#o)"/><path d="M437.265 345.544a40.176 40.176 0 0 1 4.5 14.098c1.134 9.506-2.103 13.161-4.348 26.572-1.431 8.534-2.923 17.475-.81 28.267 1.788 9.112 4.525 11.232 5.598 20.422.933 8.012-.172 14.805-1.295 19.399l-5.76.235a113.388 113.388 0 0 1-17.959-35.484c-1.431-4.78-.776-3.762-3.095-52.46-.249-5.252-.549-11.406 3.526-15.989 5.638-6.334 15.919-5.523 19.643-5.06z" fill="#010648"/><path d="M429.585 342.879c4.893 3.569 5.13 11.736 4.075 16.93-1.687 8.304-7.135 11.251-28.597 33.559-3.076 3.196-4.89 5.14-6.819 8.264-5.626 9.113-5.65 17.618-6.415 23.507-1.018 7.831-4.348 18.74-14.786 31.573a9.788 9.788 0 0 1-7.027-.808 165.104 165.104 0 0 1 35.428-106.755c8.715-8.067 18.82-10.151 24.141-6.27z" fill="#010648"/><path d="M354.347 348.632s-1.972-.358-2.786-1.519c-.813-1.16-1.638-2.321-2.56-2.67-.921-.349.124 1.857.704 2.902.579 1.046-.116 2.318-3.018 2.435-2.902.117-5.082 0-5.082 0s.758 4.601 10.637 2.882c0 0 2.923-1.453 4.194-1.135 1.27.318.581 0 .581 0l.191-2.801z" fill="url(#p)" style="fill:url(#p)"/><path d="M439.488 265.02c-.627-2.828.882-5.33 1.214-5.871 1.389-2.256 1.73-2.557 2.354-2.923l.859-.469.102-.033c.548-.16 2.379-.115 2.751-.015 1.171.318 2.164 5.211 1.427 12.009a58.312 58.312 0 0 1 .196 1.68 6.963 6.963 0 0 0 3.911 5.57c4.163 2.015 4.642 2.923 4.539 3.356-.29 1.133-5.141.968-8.632.366-7.619-1.31-12.233 1.23-11.757-.115.208-.586 4.298-2.611 6.1-6.573-.449.986.378-2.133.567-3.201-.466-.278-3.168-1.699-3.631-3.781z" fill="url(#q)" style="fill:url(#q)"/><path d="M441.574 253.681c-.11 2.113.761 4.424 1.248 4.814.287.251.529.548.719.879.047.08.082.166.106.256.391 1.357-1.814 2.806-1.437 3.425.272.449 1.742-.05 1.891.332.15.382-1.093 1.031-.933 1.453.12.326.871.075 1.308.588.218.256.139.443.344 1.203.104.399.245.787.419 1.161.662 1.279 2.705 1.846 3.129 1.375.119-.132.031-.254.172-.712.11-.321.264-.626.456-.906.468-.687 1.528-1.138 2.612-1.831 2.006-1.282 2.596-2.438 2.775-2.828.063-.141.104-.246.134-.321.588-1.531.717-3.817.094-5.262-1.043-2.422-3.75-1.449-5.785-3.902-2.351-2.832-.659-6.432-1.993-6.914-1.47-.538-5.056 3.282-5.259 7.19z" fill="#26264f"/><path d="M442.996 262.6c.557-.688 1.43.036 1.375.957-.055.922-.99 1.828-1.845 1.599-.854-.229-.28-1.637.47-2.556z" fill="url(#r)" style="fill:url(#r)"/><path d="m443.501 261.083-1.288 1.496s-1.401 1.843-2.099.753c-.569-.891-.731-.88-.77-.848 0 0-.01.017-.012.017s.113-.421.225-.789a7.074 7.074 0 0 0-1.148 2.149c-.313.958-.649 1.984-.155 3.016.029.06.574 1.159 1.69 1.479 0 0 .438.125 2.333-.1 0 0-1.969-1.602-1.981-1.958-.032-.965 1.329-1.412 2.43-3.327a7.953 7.953 0 0 0 .775-1.888z" fill="#26264f"/><path d="M418.523 283.652a48.665 48.665 0 0 1 16.237-9.145c7.684-2.532 6.855-.093 21.744-2.025 1.19-.155 3.267-.366 5.026.841 2.672 1.838 2.967 5.905 2.936 8.722-.117 10.377-4.857 19.12-7.541 28.109-4.097 13.716.427 15.181-4.435 34.188-2.903 11.347-5.583 14.997-8.447 17.444-6.616 5.65-15.165 5.674-18.153 5.687-10.034.035-13.278-4.7-23.939-5.651-.777-.069-2.184-.172-3.454-1.145-3.406-2.61-2.579-9.025-2.079-12.398 3.399-22.609 10.627-39.731 10.627-39.731a424.517 424.517 0 0 1 11.478-24.896z" fill="#6165d7"/><path style="mix-blend-mode:multiply;fill:url(#s)" opacity=".3" d="M396.418 348.279c3.399-22.609 10.627-39.729 10.627-39.729a420.715 420.715 0 0 1 9.2-20.269c12.793 11.777 14.858 17.881 13.364 21.249-2.149 4.86-11.799 4.361-12.948 9.875-1.231 5.918 9.081 10.354 7.682 16.461-1.169 5.103-9.063 5.02-9.657 9.656-.563 4.387 5.9 9.191 11.192 10.974 8.451 2.845 16.081-1.285 17.996-2.407a23.463 23.463 0 0 0 8.227-8.277c-2.751 10.192-5.33 13.646-8.058 15.99-6.616 5.649-15.165 5.673-18.153 5.687-10.034.034-13.278-4.701-23.939-5.651-.777-.069-2.184-.172-3.454-1.145-3.406-2.626-2.586-9.04-2.079-12.414z" fill="url(#s)"/><path d="M444.46 276.17c-4.927-.43-12.344-.44-20.483 2.342-19.685 6.729-31.142 25.54-35.992 33.504-8.559 14.053-10.488 24.709-22.999 32.065a39.736 39.736 0 0 1-8.667 3.782l-.085 5.859c12.295-1.765 20.833-5.691 26.337-8.925 10.173-5.979 14.076-12.007 30.139-21.508 6.992-4.126 7.252-3.583 10.388-5.705 7.997-5.417 17.298-16.436 21.362-41.414z" fill="url(#t)" style="fill:url(#t)"/><path style="mix-blend-mode:multiply" opacity=".3" d="M421.747 419.064c-2.593-9.048 6.953-13.754 5.33-27.589-.747-6.351-3.016-7.565-2.196-11.287 1.296-5.86 8.445-9.628 16.707-12.108-.819 4.78-2.707 9.377-4.172 18.129-1.43 8.534-2.922 17.475-.809 28.267 1.788 9.112 4.525 11.232 5.598 20.422.361 3.15.437 6.327.227 9.492a40.417 40.417 0 0 0-4.696-8.708c-7.198-10.113-13.916-9.402-15.989-16.618z" fill="#010648"/><path d="M109.391 469.672c-.182 1.58-.949 2.851-1.96 3.25-2.524.993-5.791 1.375-9.611 1.375-3.877 0-7.188-.39-9.733-1.398-.98-.388-1.731-1.597-1.941-3.118l-6.77-49.344h35.706z" fill="url(#u)" style="fill:url(#u)"/><path d="M115.082 420.428c0 1.516-7.993 2.751-17.854 2.751-9.86 0-17.853-1.23-17.853-2.751 0-1.522 7.993-2.751 17.853-2.751 9.861 0 17.854 1.236 17.854 2.751z" fill="url(#v)" style="fill:url(#v)"/><path d="M98.7 420.239h3.896c26.764-19.054 31.651-32.679 30.53-41.922-.989-8.172-6.449-11.084-14.576-31.374-4.845-12.093-7.268-18.14-7.079-24.708.413-14.354 9.504-16.227 14.442-34.983 1.965-7.475 5.224-19.861-.555-31.927-6.19-12.943-19.872-21.912-23.302-19.428-2.274 1.645-.027 8.345 2.201 14.99 5.906 17.601 13.522 21.638 14.298 31.928.479 6.361-2.117 8.963-7.909 21.099-11.738 24.586-18.08 37.863-15.548 50.807 3.463 17.709 20.555 19.569 21.663 34.981.884 12.534-9.554 23.486-18.06 30.537z" fill="url(#w)" style="fill:url(#w)"/><path d="M79.547 230.617c-3.715-.493-11.81 15.269-11.66 32.204.144 16.452 7.936 18.856 10.271 35.815 2.968 21.539-8.779 23.639-6.94 44.702 1.68 19.256 11.94 22.445 17.768 48.864a120.428 120.428 0 0 1 2.777 28.319h3.887c7.935-16.473 9.938-30.158 10.271-39.702.86-24.385-8.885-30.289-5.551-54.139 2.214-15.851 7.434-19.807 5.274-33.039-1.332-8.156-4.698-15.119-10.272-26.649-5.33-11.003-7.863-13.384-11.105-23.038-3.018-9.001-2.884-13.095-4.72-13.337z" fill="url(#x)" style="fill:url(#x)"/><path d="M87.599 419.962c.481-5.944.211-14.385-4.164-22.489-7.37-13.642-18.609-11.949-27.764-24.154-9.628-12.836-11.175-33.354-4.998-48.03 5.942-14.109 16.61-17.24 16.659-29.985.037-10.307-7.068-17.731-6.11-18.323.99-.61 9.034 6.929 12.253 18.043 1.258 4.346 1.776 9.227 0 22.492-2.682 20.023-5.702 22.631-5.588 29.982.235 15.474 15.474 17.365 23.32 34.705 3.561 7.862 6.427 20.043 2.222 38.314z" fill="url(#y)" style="fill:url(#y)"/><path d="M153.775 186.766a5.04 5.04 0 0 1-5.564.666 5.037 5.037 0 0 1-1.681-7.613 5.05 5.05 0 0 1 5.327-1.738c.96.27 1.819.818 2.468 1.576a5.048 5.048 0 0 1-.55 7.109zm25.456-3.722a6.048 6.048 0 0 1-6.677.801 6.052 6.052 0 1 1 6.677-.801zm-10.132 22.12a5.044 5.044 0 1 1-4.843-8.625 5.042 5.042 0 0 1 4.843 8.625zm-29.651 2.012a6.051 6.051 0 0 1-6.679.801 6.064 6.064 0 0 1-2.537-2.432 6.06 6.06 0 0 1 .517-6.707 6.059 6.059 0 0 1 6.394-2.088 6.052 6.052 0 0 1 2.305 10.426z" fill="#fff"/><path d="m136.078 203.022-1.138-.872 15.53-20.363 15.14 18.177 9.021-21.791 1.324.549-9.929 23.979-15.508-18.62zm189.886 188.324h-8.379v28.128h8.379zm-12.191 20.186h-8.382v7.942h8.382zm36.573-20.186h-8.38v28.128h8.38zm0-10.668h-8.38v6.602h8.38zm-12.193-2.117h-8.379v40.913h8.379zm35.424-150.088a7.983 7.983 0 0 1-4.432-1.343 7.974 7.974 0 0 1 2.874-14.455 7.978 7.978 0 0 1 8.188 3.391 7.978 7.978 0 0 1 1.344 4.431 7.986 7.986 0 0 1-7.974 7.976zm0-13.192a5.21 5.21 0 0 0-4.822 3.217 5.222 5.222 0 0 0 1.129 5.686 5.218 5.218 0 0 0 8.027-.788 5.218 5.218 0 0 0-4.334-8.115z" fill="#fff"/><path d="M392.823 216.696h4.707a24.13 24.13 0 0 0-4.654-10.882l-3.225 3.224a2.61 2.61 0 0 1-3.69 0l-1.05-1.052a2.618 2.618 0 0 1 0-3.692l3.208-3.206a24.105 24.105 0 0 0-10.871-4.567v4.6a2.622 2.622 0 0 1-2.61 2.611h-1.487a2.617 2.617 0 0 1-2.61-2.611v-4.682a24.118 24.118 0 0 0-11.134 4.381l3.474 3.474a2.618 2.618 0 0 1 0 3.692l-1.05 1.052a2.61 2.61 0 0 1-3.69 0l-3.581-3.581a24.098 24.098 0 0 0-4.938 11.24h5.344a2.623 2.623 0 0 1 2.61 2.612v1.486a2.618 2.618 0 0 1-2.61 2.609h-5.463a24.113 24.113 0 0 0 4.663 11.635l3.977-3.973a2.616 2.616 0 0 1 3.691 0l1.049 1.05a2.62 2.62 0 0 1 0 3.693l-3.99 3.987a24.069 24.069 0 0 0 11.648 4.761v-5.574a2.618 2.618 0 0 1 2.61-2.61h1.487a2.617 2.617 0 0 1 2.61 2.61v5.502a24.116 24.116 0 0 0 11.371-4.959l-3.71-3.708a2.624 2.624 0 0 1 0-3.693l1.05-1.051a2.617 2.617 0 0 1 3.692 0l3.61 3.611a24.102 24.102 0 0 0 4.397-11.263h-4.828a2.619 2.619 0 0 1-2.61-2.61v-1.486a2.62 2.62 0 0 1 2.603-2.63zm-19.246 15.754a11.964 11.964 0 0 1-11.05-7.382 11.95 11.95 0 0 1-.681-6.91 11.952 11.952 0 0 1 9.397-9.397 11.957 11.957 0 0 1 10.789 20.186 11.955 11.955 0 0 1-8.455 3.503zM199.281 415.549h-47.793l13.875-19.028v-15.24l-3.451-1.657 1.828-3.796 5.837 2.806v19.259l-9.8 13.442h31.217l-9.798-13.442v-19.259l5.833-2.806 1.828 3.796-3.447 1.657v15.24zm-11.782-53.861a6.146 6.146 0 0 1-10.487 4.344 6.141 6.141 0 0 1 .929-9.451 6.144 6.144 0 0 1 9.558 5.107zm-15.979 5.086a3.743 3.743 0 0 1-2.314 3.461 3.74 3.74 0 0 1-4.083-.813 3.746 3.746 0 1 1 6.397-2.648z" fill="#fff"/><path d="M178.663 376.907a3.657 3.657 0 0 1-2.255 3.373 3.655 3.655 0 0 1-3.979-.793 3.642 3.642 0 0 1-.999-1.87 3.643 3.643 0 0 1 .208-2.109 3.65 3.65 0 0 1 7.025 1.399z" fill="#fff"/></g><defs><linearGradient id="c" x1="185.578" y1="331.844" x2="-31.771" y2="622.902" gradientUnits="userSpaceOnUse"><stop stop-color="#777996"/><stop offset="1" stop-color="#30ABBA"/></linearGradient><linearGradient id="n" x1="438.101" y1="473.553" x2="437.846" y2="422.335" gradientUnits="userSpaceOnUse"><stop stop-color="#FFC444"/><stop offset="1" stop-color="#F36F56"/></linearGradient><linearGradient id="d" x1="390.851" y1="-194.754" x2="-153.375" y2="750.885" gradientUnits="userSpaceOnUse"><stop stop-color="#AA80F9"/><stop offset="1" stop-color="#6165D7"/></linearGradient><linearGradient id="e" x1="253.5" y1="3.5" x2="-35" y2="529.5" gradientUnits="userSpaceOnUse"><stop stop-color="#30ABBA"/><stop offset="1" stop-color="#6165D7"/></linearGradient><linearGradient id="f" x1="554.257" y1="-94.905" x2="16.492" y2="839.506" gradientUnits="userSpaceOnUse"><stop stop-color="#FFC444"/><stop offset="1" stop-color="#F36F56"/></linearGradient><linearGradient id="g" x1="319.084" y1="115.824" x2="415.454" y2="-10.584" gradientUnits="userSpaceOnUse"><stop stop-color="#444B8C"/><stop offset="1" stop-color="#26264F"/></linearGradient><linearGradient id="h" x1="339.177" y1="129.892" x2="436.947" y2="1.646" gradientUnits="userSpaceOnUse"><stop stop-color="#444B8C"/><stop offset="1" stop-color="#26264F"/></linearGradient><linearGradient id="i" x1="321.386" y1="113.777" x2="417.758" y2="-12.633" gradientUnits="userSpaceOnUse"><stop stop-color="#FF9085"/><stop offset="1" stop-color="#FB6FBB"/></linearGradient><linearGradient id="j" x1="341.208" y1="127.634" x2="438.978" y2="-.61" gradientUnits="userSpaceOnUse"><stop stop-color="#FF9085"/><stop offset="1" stop-color="#FB6FBB"/></linearGradient><linearGradient id="k" x1="473.938" y1="38.44" x2="319.242" y2="254.369" gradientUnits="userSpaceOnUse"><stop stop-color="#FC9D8A"/><stop offset="1" stop-color="#FC9D8A"/></linearGradient><linearGradient id="l" x1="423.269" y1="211.4" x2="434.259" y2="228.729" gradientUnits="userSpaceOnUse"><stop stop-color="#FFC444"/><stop offset="1" stop-color="#F36F56"/></linearGradient><linearGradient id="m" x1="456.965" y1="253.44" x2="426.671" y2="261.248" gradientUnits="userSpaceOnUse"><stop stop-color="#AA80F9"/><stop offset="1" stop-color="#6165D7"/></linearGradient><linearGradient id="b" x1="557.957" y1="-58.537" x2="45.502" y2="831.9" gradientUnits="userSpaceOnUse"><stop stop-color="#67878E"/><stop offset="1" stop-color="#30ABBA"/></linearGradient><linearGradient id="o" x1="373.553" y1="472.623" x2="373.319" y2="425.359" gradientUnits="userSpaceOnUse"><stop stop-color="#FFC444"/><stop offset="1" stop-color="#F36F56"/></linearGradient><linearGradient id="p" x1="346.784" y1="344.22" x2="358.929" y2="367.922" gradientUnits="userSpaceOnUse"><stop stop-color="#FFC444"/><stop offset="1" stop-color="#F36F56"/></linearGradient><linearGradient id="q" x1="437.885" y1="252.771" x2="455.673" y2="300.585" gradientUnits="userSpaceOnUse"><stop stop-color="#FFC444"/><stop offset="1" stop-color="#F36F56"/></linearGradient><linearGradient id="r" x1="439.631" y1="252.121" x2="457.42" y2="299.935" gradientUnits="userSpaceOnUse"><stop stop-color="#FFC444"/><stop offset="1" stop-color="#F36F56"/></linearGradient><linearGradient id="s" x1="447.707" y1="292.002" x2="394.169" y2="380.313" gradientUnits="userSpaceOnUse"><stop stop-color="#AA80F9"/><stop offset="1" stop-color="#6165D7"/></linearGradient><linearGradient id="t" x1="424.742" y1="279.347" x2="370.314" y2="367.133" gradientUnits="userSpaceOnUse"><stop stop-color="#6165D7"/><stop offset="1" stop-color="#010648"/></linearGradient><linearGradient id="u" x1="84.012" y1="440.767" x2="129.596" y2="456.088" gradientUnits="userSpaceOnUse"><stop stop-color="#6165D7"/><stop offset="1" stop-color="#010648"/></linearGradient><linearGradient id="v" x1="104.563" y1="405.093" x2="86.239" y2="443.406" gradientUnits="userSpaceOnUse"><stop stop-color="#FFC444"/><stop offset="1" stop-color="#F36F56"/></linearGradient><linearGradient id="w" x1="136.592" y1="295.854" x2="87.109" y2="344.201" gradientUnits="userSpaceOnUse"><stop stop-color="#FFC444"/><stop offset="1" stop-color="#F36F56"/></linearGradient><linearGradient id="x" x1="84.482" y1="343.02" x2="75.381" y2="424.924" gradientUnits="userSpaceOnUse"><stop stop-color="#FFC444"/><stop offset="1" stop-color="#F36F56"/></linearGradient><linearGradient id="y" x1="76.784" y1="339.762" x2="58.582" y2="454.087" gradientUnits="userSpaceOnUse"><stop stop-color="#FFC444"/><stop offset="1" stop-color="#F36F56"/></linearGradient><clipPath id="a"><path fill="#fff" transform="translate(.872)" d="M0 0h488.024v480H0z"/></clipPath></defs></svg>