<svg width="489" height="480" fill="none" xmlns="http://www.w3.org/2000/svg"><g clip-path="url(#a)"><path d="M427.114 88.688C368.133 7.958 267.151 2.913 260.906 2.624c-79.642-3.695-136.495 36.923-156.994 52.038-14.881 10.976-35.535 26.486-54.815 53.728C40.3 120.826 9.682 166.958 9.194 229.031c-.759 96.498 71.873 159.299 85.06 170.243 71.328 59.186 196.079 88.658 289.653 21.143 109.897-79.291 108.781-241.973 43.207-331.729z" fill="#F4F7FA"/><path d="M303.131 414.309c-2.762-.967-7.92-5.508-8.777-7.246-5.699-11.565-17.784-32.52-14.18-45.673.615-2.245 11.221-2.202 13.086-3.994 6.775-1.618 9.218-1.76 14.905-6.459 16.768-13.873-6.819-51.563 30.647-55.14 27.439-2.62 47.307 10.84 52.982-29.701 5.676-40.542 52.751-106.658 89.051-69.868 20.833 21.113-10.928 49.896-3.765 77.593 6.794 26.329-7.452 43.799-35.769 52.752-28.316 8.953-17.127 22.789-14.566 46.976 3.088 29.055-39.752 25.032-59.373 21.489-15.791-2.861-57.947.532-64.241 19.271z" fill="url(#b)"/><mask id="c" style="mask-type:luminance" maskUnits="userSpaceOnUse" x="274" y="185" width="215" height="236"><path d="M274.465 356.598c2.124 20.01 3.46 40.459 5.491 60.621 11.009 3.274 24.031 6.858 29.417-6.385 7.49-18.413 42.278-18.767 58.048-15.832 19.521 3.633 62.442 7.566 59.336-21.465-2.586-24.166-13.762-38.031 14.566-46.973 28.328-8.941 42.554-26.422 35.754-52.738-7.158-27.698 24.595-56.467 3.765-77.593-36.294-36.81-83.394 29.367-89.041 69.856-5.647 40.489-25.642 27.247-52.969 29.674-37.305 3.313-14.305 41.968-30.487 54.839-12.702 10.09-20.193 6.174-33.88 5.996z" fill="#fff"/></mask><g mask="url(#c)" fill="#FCFDFE"><path d="m287.379 385.444-.145-.581c46.747-11.695 88.634-37.391 121.157-74.311 30.937-35.131 52.986-79.676 63.757-128.829l.586.129c-10.793 49.249-32.89 93.89-63.902 129.094-32.603 37.014-74.603 62.774-121.453 74.498z"/><path d="M429.428 385.461c-22.697-13.152-63.431-21.99-90.804-19.698l-.051-.598c27.485-2.302 68.375 6.574 91.155 19.778l-.3.518zM305.575 380.668l-.301-.518c12.352-7.172 20.604-20.312 24.527-39.055 2.88-13.743 3.403-30.122 1.562-48.683l.598-.06c1.844 18.632 1.316 35.061-1.572 48.865-3.96 18.918-12.309 32.19-24.814 39.451zM413.042 305.777l-.326-.508c22.579-14.709 50.907-13.933 70.697-10.693l-.097.593c-19.683-3.22-47.853-3.996-70.274 10.608zM447.133 254.361l-.576-.169c3.609-12.524 7.014-38.796-10.744-74.017l.536-.269c5.999 11.898 10.243 24.484 12.273 36.402 2.335 13.721 1.834 26.522-1.489 38.053z"/></g><mask id="d" style="mask-type:luminance" maskUnits="userSpaceOnUse" x="334" y="67" width="144" height="327"><path d="M379.067 393.583a994.231 994.231 0 0 1-44.115-7.51c-.239.215-5.064-31.79 10.137-48.574 30.062-32.52 9.814-61.698 4.038-78.991-9.245-24.39-4.507-54.021 22.357-48.469 26.164 4.78 30.132-49.085 25.617-90.582-3.853-20.196 15.203-44.703 34.214-50.304 19.414-6.205 38.787 6.495 44.723 46.747 8.989 46.614-25.028 74.724-37.625 98.092-12.395 22.942 16.438 41.497-6.775 61.831-19.519 18.062-44.122 31.045-35.122 53.733 9.257 22.437 7.036 40.777-17.449 64.027z" fill="#fff"/></mask><g mask="url(#d)"><path d="M379.067 393.583a994.231 994.231 0 0 1-44.115-7.51c-.239.215-5.064-31.79 10.137-48.574 30.062-32.52 9.814-61.698 4.038-78.991-9.146-24.365-4.338-50.75 20.46-51.14 27.505-.972 32.493-46.497 27.507-87.906-3.853-20.196 15.203-44.703 34.214-50.304 19.414-6.205 38.787 6.495 44.724 46.747 8.988 46.614-25.029 74.724-37.626 98.092-12.394 22.942 16.438 41.497-6.775 61.831-19.518 18.062-44.122 31.045-35.121 53.733 9.263 22.432 7.042 40.772-17.443 64.022z" fill="url(#e)"/><path d="m359.378 395.483-.6-.01c0-.284 14.068-67.621 38.33-133.146 3.35-10.611 6.99-21.314 10.511-31.673 9.426-27.712 19.172-56.368 23.801-84.9 5.174-31.893 3.33-60.616-5.637-87.814l.569-.188c8.997 27.291 10.848 56.109 5.659 88.097-4.636 28.582-14.397 57.263-23.825 84.998-3.519 10.347-7.159 21.047-10.513 31.665-24.449 66.046-38.26 132.578-38.295 132.971z" fill="#FCFDFE"/><path d="m425.224 177.108-.447-.402c16.414-18.237 36.212-44.153 46.857-58.077 8.567-11.211 8.612-11.192 8.967-11.14l-.046.297.122.267c-.433.298-4.022 4.995-8.565 10.94-10.645 13.931-30.46 39.859-46.888 58.115zM430.183 152.092c-3.387-20.9-12.002-34.649-18.631-42.503-7.314-8.672-14.058-12.454-14.736-12.533a.241.241 0 0 0 .143-.043l-.339-.498c.15-.101.327-.076.725.097 1.819.79 8.611 5.039 15.735 13.889 8.977 11.153 15.089 25.501 17.688 41.497l-.585.094zM383.266 305.194l-.594-.071c2.315-19.446-2.217-40.364-13.469-62.172-5.869-11.374-13.354-22.516-22.246-33.117-.643-.769-.87-1.041-.943-1.165l.52-.302c.051.09.418.527.882 1.081 8.921 10.635 16.43 21.816 22.319 33.228 11.309 21.916 15.862 42.95 13.531 62.518zM389.901 284.72l-.508-.315c17.655-28.526 54.877-30.499 55.192-30.406l.224.279-.205.295-.095-.279-.025.293c-.593.001-37.21 2.066-54.583 30.133zM361.835 384.499l-.599-.022c.311-8.468-2.71-22.899-18.901-43.573-.879-1.121-.879-1.121-.855-1.289l.594.085-.296-.043.274-.113c.046.086.374.508.754.991 16.297 20.816 19.344 35.397 19.029 43.964zM365.575 368.551l-.576-.169c1.863-6.437 9.212-19.06 37.432-31.211.39-.17.64-.275.73-.32l.275.531c-.095.05-.358.17-.768.339-27.994 12.056-35.257 24.492-37.093 30.83z" fill="#FCFDFE"/></g><path d="M446.254 251.878c0 99.027-80.247 182.971-182.628 187.651-106.327 4.86-195.588-77.033-195.588-183.088 0-106.054 89.261-190.103 195.593-187.808 102.381 2.208 182.623 84.216 182.623 183.245z" fill="url(#f)"/><path d="M458.147 251.878c0 99.027-80.247 182.972-182.627 187.651-106.331 4.861-195.588-77.032-195.588-183.086 0-106.055 89.257-190.105 195.591-187.81C377.9 70.84 458.147 152.849 458.147 251.878z" fill="url(#g)"/><path d="M446.846 252.012c0 93.307-75.695 172.255-172.077 176.467-99.875 4.365-183.537-72.662-183.537-172.175S174.894 77.745 274.77 79.7c96.382 1.886 172.077 79.006 172.077 172.312z" fill="url(#h)"/><path d="m341.208 292.827 13.327 32.287c-12.363 10.124-27.428 16.775-45.197 19.954a100.53 100.53 0 0 1-43.405-1.453 85.267 85.267 0 0 1-36.685-19.826c-10.195-9.004-18.213-21.097-24.055-36.281l-19.386 3.41-3.862-21.441 16.352-2.919-.915-5.15c-.181-.982-.404-2.529-.663-4.561-.258-2.032-.479-3.559-.663-4.571l-16.962 3.034-3.854-21.482 20.297-3.626c.941-16.827 5.452-31.789 13.53-44.885 14.456-24.023 35.923-38.586 64.402-43.69 16.549-2.95 32.238-2.631 47.066.956l-2.348 36.013c-12.377-2.784-24.036-3.199-34.977-1.243-15.742 2.811-27.185 10.478-34.329 23.001-3.378 5.603-5.438 12.723-6.182 21.359l75.434-13.484 3.844 21.482-79.968 14.304c.151 2.06.61 5.206 1.378 9.437l.863 4.845 80.352-14.372 3.845 21.482-76.028 13.667c3.607 8.518 8.203 14.981 13.789 19.391 10.926 8.658 24.874 11.471 41.842 8.437 12.949-2.302 24.001-6.993 33.158-14.075z" fill="#fff"/><path style="mix-blend-mode:multiply" opacity=".3" d="M193.11 174.474c-6.287-20.495-6.001-51.628 24.656-97.615-79.098 22.786-137.841 94.512-137.841 180.314 0 106.054 89.261 187.947 195.588 183.095 39.207-1.792 75.103-15.176 104.435-36.416-.909-28.286-7.063-59.242-24.366-87.801-47.574-78.522-142.743-77.286-162.472-141.577z" fill="url(#i)"/><mask id="j" style="mask-type:luminance" maskUnits="userSpaceOnUse" x="-6" y="-5" width="412" height="305"><path d="M243.57-4.218c-178.132 0-198.29 152.164-198.29 152.164H-5.81v13.824L94.63 299.895l122.713-160.34h-48.337l68.408-80.179s78.609 14.047 105.741 23.159c35.06 12.925 62.637 42.261 62.637 42.261S378.402-4.218 243.57-4.218z" fill="#fff"/></mask><g mask="url(#j)"><path d="M402.021 151.661v.579c-5.315-6.911-14.837-16.513-20.538-22.072-.107-.245-.285-.491-.392-.736a128.45 128.45 0 0 0-13.075-22.983c-5.566-7.873-12.639-15.621-20.884-22.757-.988-.925-2.128-1.741-3.185-2.617-.538-.427-1.082-.867-1.629-1.294l-.799-.65c-.282-.217-.571-.412-.847-.622a787.306 787.306 0 0 1-3.401-2.473l-.847-.622-.896-.577c-.591-.391-1.186-.781-1.777-1.164-2.337-1.612-4.859-3.008-7.319-4.483-1.251-.715-2.566-1.374-3.841-2.053-.63-.339-1.276-.677-1.921-1.016-.645-.339-1.329-.629-1.982-.938a128.376 128.376 0 0 0-33.824-10.75l-4.434-.695c-1.48-.195-2.984-.319-4.456-.485l-2.233-.239-2.241-.115-2.239-.13c-.743-.036-1.48-.108-2.232-.093-1.487-.009-2.976-.022-4.472-.029-.364 0-.758-.022-1.101 0l-1.007.046-1.99.101-1.974.095c-.169 0-.296 0-.525.02l-2.032.146-2.71.181-2.033.144-.339.022h-.121s-.707 0 .479.022l-4.37.624c-.722.108-1.45.17-2.171.325l-2.15.412-2.147.404-1.071.204c-.357.064-.706.169-1.055.245l-4.207 1.016c-.707.146-1.389.376-2.074.573l-2.049.613-2.049.586-1.997.703c-1.335.478-2.671.896-3.971 1.402-1.299.507-2.588 1.042-3.872 1.569-10.211 4.324-19.391 9.912-27.203 16.295l-1.473 1.17-1.398 1.252c-.925.824-1.882 1.611-2.762 2.458-.039.029-.07.071-.107.1-1.716 1.694-3.455 3.283-4.997 5.032-.41.427-.811.86-1.206 1.294l-.608.637-.562.678c-.752.882-1.496 1.771-2.239 2.645-.183.217-.379.427-.562.65l-.509.678c-.348.456-.691.911-1.033 1.355-.667.91-1.397 1.748-1.997 2.688-5.071 7.229-8.936 14.46-11.563 21.355a93.836 93.836 0 0 0-5.132 19.043l-.296 2.11c-.099.695-.229 1.355-.26 2.033a412.883 412.883 0 0 1-.338 3.846c-.077 1.244-.077 2.436-.131 3.557-.022.564-.061 1.113-.067 1.641.022.542.037 1.069.045 1.576.015 1.016.031 1.981.046 2.879.002.187.019.373.052.557.024.17.046.339.07.491.029.319.074.275.105.565.024.245.054.36.076.36h49.981l-30.369 32.061-70.604 73.518L0 159.042h53.094c.076 0 .16-.867.242-1.547.207-1.468.427-2.899.67-4.64.137-.869.257-1.679.402-2.61.075-.456.145-.89.22-1.367.077-.478.136-.976.234-1.388.373-1.749.76-3.594 1.17-5.56.221-.976.433-1.973.661-3 .229-1.026.532-2.066.82-3.137.578-2.132 1.138-4.373 1.838-6.68.744-2.292 1.516-4.673 2.315-7.142.388-1.244.896-2.465 1.367-3.727.471-1.261.97-2.523 1.472-3.824a179.5 179.5 0 0 1 17.276-32.8c7.495-11.283 17.038-22.527 28.366-32.95 1.375-1.336 2.893-2.56 4.358-3.838.745-.63 1.48-1.265 2.225-1.902l1.132-.954 1.153-.91c1.557-1.209 3.128-2.43 4.692-3.651l1.185-.911 1.23-.867c.828-.586 1.648-1.166 2.475-1.743 3.242-2.371 6.727-4.497 10.189-6.694 1.747-1.07 3.557-2.068 5.353-3.101.887-.508 1.792-1.017 2.694-1.525l2.78-1.43a185.544 185.544 0 0 1 48.041-17.062c2.119-.398 4.252-.803 6.377-1.2 2.126-.396 4.291-.636 6.437-.946l3.218-.435 3.233-.309 3.234-.296c1.078-.093 2.149-.21 3.235-.246 2.156-.093 4.32-.338 6.483-.433.532-.022 1.079-.217 1.618-.217h1.624l3.218.17 3.229.101c1.077 0 2.156.137 3.218.188l6.416.37c1.456.021.508.035.872.042l.169.022.339.037.678.086 1.355.16 2.686.316 1.355.16.677.079.827.108 3.403.478 3.401.491 1.694.254c.553.087 1.048.202 1.578.303 2.073.419 4.146.847 6.22 1.259 1.031.195 2.049.476 3.067.73l3.059.772 3.037.774 2.989.908c1.989.613 3.986 1.186 5.928 1.863 1.952.695 3.896 1.39 5.824 2.084 15.36 5.81 29.376 13.568 41.425 22.598.759.557 1.511 1.121 2.262 1.677.75.555 1.458 1.163 2.179 1.756 1.443 1.172 2.893 2.3 4.282 3.5 2.749 2.443 5.483 4.801 7.985 7.342.636.621 1.26 1.25 1.897 1.863l.935.925.896.962a797.39 797.39 0 0 1 3.529 3.831l.874.953.835.985c.539.657 1.093 1.307 1.633 1.958 1.077 1.309 2.202 2.552 3.181 3.904a158.341 158.341 0 0 1 14.023 21.319 131.128 131.128 0 0 1 5.042 10.229 145.543 145.543 0 0 1 9.368 28.859c.205 1.1.425 2.175.63 3.239.205 1.064.434 2.088.562 3.123.288 2.06.578 4.033.847 5.928.229 1.909.351 3.745.517 5.486.069.869.159 1.714.213 2.553.055.838.212 1.634.251 2.429.037 1.582.303 3.093.303 4.487z" fill="#FC9D8A"/><path style="mix-blend-mode:multiply" opacity=".4" d="M402.021 151.66v.58c-5.315-6.911-14.837-16.513-20.538-22.072-.107-.245-.285-.491-.391-.736a128.455 128.455 0 0 0-13.076-22.983c-5.566-7.873-12.639-15.621-20.884-22.757-.988-.925-2.128-1.741-3.185-2.617-.538-.427-1.082-.867-1.629-1.294l-.799-.65c-.282-.217-.571-.412-.847-.622a787.25 787.25 0 0 1-3.401-2.473l-.847-.622-.896-.577c-.591-.392-1.186-.781-1.777-1.164-2.337-1.612-4.859-3.008-7.319-4.483-1.251-.715-2.566-1.374-3.841-2.053-.63-.339-1.275-.677-1.921-1.016-.645-.339-1.329-.629-1.981-.939a128.395 128.395 0 0 0-33.825-10.75l-4.434-.694c-1.48-.195-2.984-.319-4.456-.485l-2.233-.239-2.241-.115-2.239-.13c-.743-.036-1.48-.109-2.232-.093-1.487-.009-2.976-.022-4.472-.03-.364 0-.758-.021-1.1 0l-1.008.047-1.99.101-1.974.095c-.169 0-.296 0-.525.02l-2.032.146-2.71.181-2.033.144-.338.022h-.122s-.707 0 .479.022l-4.37.624c-.722.108-1.45.169-2.171.325l-2.15.411-2.147.405-1.071.203c-.357.065-.706.17-1.055.246l-4.207 1.016c-.707.146-1.389.376-2.074.573l-2.049.613-2.049.586-1.997.703c-1.335.477-2.671.896-3.971 1.402-1.299.507-2.588 1.042-3.871 1.569-10.212 4.324-19.392 9.912-27.204 16.295l-1.473 1.17-1.398 1.252c-.925.824-1.882 1.611-2.762 2.458-.039.029-.07.071-.107.1 22.435-26.451 58.773-43.635 99.794-43.635 42.026 0 79.144 18.037 101.421 45.588a130.773 130.773 0 0 1 5.042 10.228c4.12 9.268 7.26 18.94 9.368 28.86.205 1.1.425 2.175.63 3.239.205 1.064.434 2.088.563 3.123.288 2.06.577 4.033.846 5.928.229 1.909.351 3.745.517 5.486.07.869.159 1.714.214 2.553.054.838.211 1.634.25 2.429.032 1.582.298 3.092.298 4.486z" fill="url(#k)"/></g><path d="M30.676 455.532v15.435c0 4.988 31.165 9.033 69.593 9.033 38.428 0 69.593-4.045 69.593-9.033v-15.435H30.676z" fill="url(#l)"/><path d="M169.862 455.532c0 4.988-31.165 9.031-69.593 9.031-38.428 0-69.593-4.043-69.593-9.031s31.165-9.031 69.593-9.031c38.428 0 69.593 4.043 69.593 9.031z" fill="url(#m)"/><path d="M100.269 465.186c-34.045 0-69.634-3.252-69.634-9.522 0-.339.124-.95.467-.95.344 0 .197.474.197.818 0 3.977 28.325 8.408 68.97 8.408 40.645 0 68.969-4.431 68.969-8.408 0-.339.06-.667.403-.667.344 0 .261.459.261.804 0 6.27-35.594 9.517-69.633 9.517z" fill="url(#n)"/><path d="M93.692 456.035c.677-.473 1.409-.938 2.188-1.399a13.78 13.78 0 0 1 2.99-1.247 28.522 28.522 0 0 1 4.586-.906 58.005 58.005 0 0 1 6.872-.371c2.69-.013 5.214.072 7.574.256 2.092.148 4.172.423 6.23.825 1.787.366 3.245.817 4.373 1.355 1.128.537 1.794 1.155 1.999 1.853l7.835.078a7.822 7.822 0 0 1 1.503.14c.438.088.65.202.65.339v.645l-10.075-.098c-.352.791-1.252 1.514-2.699 2.17-1.448.656-3.29 1.224-5.525 1.704l-3.669-.508a4.322 4.322 0 0 1-.81-.193c-.211-.077-.315-.17-.315-.253 0-.123.283-.264.847-.423a49.846 49.846 0 0 0 1.921-.591 19.788 19.788 0 0 0 2.102-.832c.677-.32 1.141-.701 1.379-1.147l-23.767-.235c-.674.49-1.376.943-2.1 1.355-.976.523-2.012.925-3.085 1.199-1.57.408-3.17.696-4.785.864a67.362 67.362 0 0 1-7.213.352 70.91 70.91 0 0 1-6.38-.247 43.572 43.572 0 0 1-5.536-.789c-1.612-.35-2.936-.783-3.972-1.3-1.03-.508-1.609-1.111-1.73-1.781l-6.449-.066a8.378 8.378 0 0 1-1.524-.134c-.446-.087-.678-.2-.678-.339v-.645l8.82.084c.39-.677 1.185-1.272 2.412-1.776a27.53 27.53 0 0 1 4.476-1.355l2.954.404c.896.128 1.341.275 1.343.444 0 .092-.181.205-.552.339-.371.134-.815.296-1.325.484-.503.189-.994.411-1.468.664a3.104 3.104 0 0 0-1.076.861l21.679.22zm-21.758.879c.17.423.572.788 1.17 1.094a9.4 9.4 0 0 0 2.243.757c.997.211 2.007.354 3.023.429 1.123.092 2.296.136 3.521.13a36.456 36.456 0 0 0 3.738-.184 21.696 21.696 0 0 0 2.797-.475c.72-.171 1.423-.402 2.104-.692a11.878 11.878 0 0 0 1.605-.859l-20.201-.2zm51.763-.576c-.17-.43-.608-.804-1.281-1.128a11.534 11.534 0 0 0-2.578-.813 28.266 28.266 0 0 0-3.653-.491 56.126 56.126 0 0 0-4.594-.147 34.799 34.799 0 0 0-3.846.198c-.943.102-1.878.272-2.796.508-.695.176-1.368.425-2.009.743-.532.27-1.047.573-1.542.907l22.299.223z" fill="#FC9D8A"/><path d="M100.279 447.478c-31.031 0-63.347 2.73-68.51 8.017.203.185.392.383.567.594 4.356-3.67 31.034-7.364 67.943-7.364 37.855 0 64.96 3.887 68.245 7.647.161-.207.334-.404.52-.589-4.269-5.473-37.185-8.305-68.765-8.305z" fill="url(#o)"/><path d="M11.33 439.318v15.437c0 4.988 31.165 9.031 69.593 9.031 38.428 0 69.601-4.043 69.601-9.031v-15.437H11.33z" fill="url(#p)"/><path d="M150.524 439.318c0 4.988-31.165 9.031-69.593 9.031-38.428 0-69.593-4.043-69.593-9.031s31.165-9.031 69.593-9.031c38.428 0 69.593 4.043 69.593 9.031z" fill="url(#q)"/><path d="M80.923 448.972c-34.045 0-69.634-3.25-69.634-9.522 0-.339.122-.95.467-.95.346 0 .197.474.197.818 0 3.977 28.325 8.407 68.97 8.407 40.645 0 68.969-4.43 68.969-8.407 0-.339.058-.668.403-.668.346 0 .261.461.261.805 0 6.27-35.601 9.517-69.633 9.517z" fill="url(#r)"/><path d="M74.346 439.822c.677-.474 1.409-.94 2.186-1.399a13.777 13.777 0 0 1 2.99-1.248 28.551 28.551 0 0 1 4.588-.908 58.214 58.214 0 0 1 6.872-.371 91.98 91.98 0 0 1 7.574.256 51.82 51.82 0 0 1 6.23.825c1.786.366 3.243.817 4.371 1.355 1.128.537 1.795 1.155 2.001 1.853l7.835.079a7.725 7.725 0 0 1 1.502.139c.437.09.649.202.651.339v.645l-10.075-.096c-.352.79-1.255 1.513-2.71 2.168-1.454.655-3.295 1.223-5.523 1.704l-3.669-.508a4.325 4.325 0 0 1-.81-.192c-.211-.078-.314-.161-.314-.252 0-.126.283-.266.847-.425.564-.16 1.209-.356 1.922-.591a19.37 19.37 0 0 0 2.102-.832c.677-.319 1.142-.701 1.379-1.145l-23.777-.235c-.675.489-1.376.942-2.1 1.355-.976.522-2.012.924-3.085 1.197-1.57.407-3.17.696-4.785.864a67.888 67.888 0 0 1-7.213.354c-2.18.01-4.303-.073-6.38-.247a43.577 43.577 0 0 1-5.536-.79c-1.612-.351-2.936-.785-3.972-1.301-1.03-.508-1.609-1.109-1.73-1.78l-6.45-.066a8.561 8.561 0 0 1-1.525-.135c-.445-.085-.677-.2-.677-.339v-.645l8.819.083c.391-.678 1.185-1.272 2.412-1.777a27.533 27.533 0 0 1 4.476-1.355l2.954.406c.896.126 1.342.273 1.343.442 0 .092-.18.205-.552.339-.37.134-.815.298-1.324.486-.505.188-.996.409-1.47.663a3.1 3.1 0 0 0-1.074.86l21.697.225zm-21.762.879c.178.422.573.786 1.172 1.093a9.348 9.348 0 0 0 2.243.757c.995.212 2.004.357 3.018.435 1.13.092 2.303.135 3.521.131a36.745 36.745 0 0 0 3.739-.187 21.365 21.365 0 0 0 2.798-.472c.719-.172 1.422-.404 2.102-.695a11.651 11.651 0 0 0 1.604-.862l-20.197-.2zm51.765-.577c-.17-.429-.61-.805-1.281-1.128a11.586 11.586 0 0 0-2.578-.813 28.421 28.421 0 0 0-3.653-.49 51.92 51.92 0 0 0-4.593-.149 35.083 35.083 0 0 0-3.849.2c-.943.102-1.877.272-2.796.508-.693.176-1.366.425-2.007.742-.533.269-1.047.573-1.541.908l22.298.222z" fill="#FC9D8A"/><path d="M80.931 431.264c-31.03 0-63.346 2.73-68.507 8.016.2.187.39.385.565.595 4.355-3.669 31.035-7.365 67.942-7.365 37.855 0 64.962 3.888 68.246 7.648a6.79 6.79 0 0 1 .52-.59c-4.268-5.472-37.184-8.304-68.766-8.304z" fill="url(#s)"/><path d="M28.023 423.152v15.436c0 4.988 31.165 9.031 69.593 9.031 38.428 0 69.593-4.043 69.593-9.031v-15.436H28.023z" fill="url(#t)"/><path d="M167.209 423.152c0 4.989-31.165 9.032-69.593 9.032-38.428 0-69.593-4.043-69.593-9.032 0-4.988 31.165-9.031 69.593-9.031 38.428 0 69.593 4.043 69.593 9.031z" fill="url(#u)"/><path d="M97.615 432.805c-34.045 0-69.632-3.25-69.632-9.521 0-.338.122-.95.467-.95.346 0 .195.473.195.818 0 3.977 28.326 8.408 68.97 8.408 40.643 0 68.969-4.431 68.969-8.408 0-.338.059-.667.403-.667.344 0 .263.459.263.805 0 6.263-35.596 9.515-69.635 9.515z" fill="url(#v)"/><path d="M91.04 423.656c.677-.473 1.408-.939 2.186-1.399a13.676 13.676 0 0 1 2.99-1.247 28.776 28.776 0 0 1 4.588-.908 58.366 58.366 0 0 1 6.868-.373c2.69-.012 5.214.074 7.574.258 2.091.148 4.171.423 6.228.825 1.789.366 3.247.817 4.374 1.355 1.127.537 1.793 1.154 1.998 1.851l7.837.08a7.735 7.735 0 0 1 1.503.139c.437.089.648.203.65.338v.646l-10.074-.097c-.355.79-1.255 1.513-2.702 2.168-1.446.655-3.288 1.224-5.523 1.706l-3.669-.508a4.17 4.17 0 0 1-.81-.192c-.211-.076-.315-.169-.315-.252 0-.124.283-.266.847-.424a43.77 43.77 0 0 0 1.921-.592 19.596 19.596 0 0 0 2.104-.83c.677-.321 1.14-.702 1.378-1.147l-23.766-.242c-.675.49-1.376.942-2.1 1.355-.976.522-2.012.925-3.085 1.197-1.57.409-3.17.698-4.785.866a67.919 67.919 0 0 1-7.215.352c-2.178.01-4.3-.071-6.379-.247a43.574 43.574 0 0 1-5.535-.79c-1.614-.35-2.938-.783-3.972-1.3-1.034-.518-1.61-1.108-1.73-1.772l-6.45-.066a8.38 8.38 0 0 1-1.525-.134c-.444-.086-.678-.2-.678-.339v-.647l8.82.085c.39-.677 1.185-1.274 2.412-1.777a27.6 27.6 0 0 1 4.475-1.346l2.953.405c.898.127 1.344.274 1.345.443 0 .092-.181.204-.554.339-.372.136-.814.298-1.322.486-.505.188-.996.409-1.47.662a3.14 3.14 0 0 0-1.074.861l21.681.212zm-21.762.879c.178.423.572.787 1.172 1.094.712.345 1.465.6 2.24.757.997.211 2.006.356 3.02.434 1.123.092 2.297.136 3.522.13 1.249.002 2.496-.06 3.738-.185a21.717 21.717 0 0 0 2.798-.474 12.94 12.94 0 0 0 2.102-.694 11.637 11.637 0 0 0 1.608-.859l-20.2-.203zm51.764-.571c-.177-.429-.609-.805-1.282-1.126a11.453 11.453 0 0 0-2.576-.814 28.626 28.626 0 0 0-3.655-.491 56.471 56.471 0 0 0-4.592-.149 35.586 35.586 0 0 0-3.848.2 20.09 20.09 0 0 0-2.796.508 10.16 10.16 0 0 0-2.007.742 14.15 14.15 0 0 0-1.542.908l22.298.222z" fill="#FC9D8A"/><path d="M97.625 415.099c-31.03 0-63.347 2.73-68.508 8.016.201.186.39.384.564.595 4.357-3.671 31.035-7.366 67.944-7.366 37.855 0 64.962 3.895 68.246 7.649.161-.208.334-.405.52-.59-4.268-5.474-37.185-8.304-68.766-8.304z" fill="url(#w)"/><path d="M38.152 406.938v15.437c0 4.988 31.165 9.031 69.593 9.031 38.428 0 69.593-4.043 69.593-9.031v-15.437H38.152z" fill="url(#x)"/><path d="M107.745 415.969c38.435 0 69.593-4.043 69.593-9.031s-31.158-9.031-69.593-9.031-69.593 4.043-69.593 9.031 31.158 9.031 69.593 9.031z" fill="url(#y)"/><path d="M107.745 416.593c-34.045 0-69.634-3.252-69.634-9.523 0-.338.124-.95.468-.95.343 0 .196.474.196.818 0 3.977 28.325 8.408 68.97 8.408 40.645 0 68.97-4.431 68.97-8.408 0-.339.059-.667.403-.667.344 0 .262.461.262.804 0 6.271-35.596 9.518-69.635 9.518z" fill="url(#z)"/><path d="M101.17 407.441a35.537 35.537 0 0 1 2.186-1.399c.945-.53 1.948-.949 2.99-1.246a28.645 28.645 0 0 1 4.588-.907 58.432 58.432 0 0 1 6.872-.371 91.982 91.982 0 0 1 7.574.256c2.091.148 4.171.423 6.228.825 1.789.366 3.246.818 4.373 1.355 1.127.538 1.794 1.155 1.999 1.853l7.837.08a7.648 7.648 0 0 1 1.502.139c.437.088.649.201.649.338v.646l-10.073-.097c-.353.79-1.256 1.513-2.71 2.168-1.453.655-3.29 1.223-5.511 1.704l-3.669-.508a4.51 4.51 0 0 1-.811-.191c-.212-.078-.313-.161-.313-.253 0-.125.282-.266.846-.425a48.136 48.136 0 0 0 1.921-.591 19.609 19.609 0 0 0 2.104-.832c.677-.32 1.14-.701 1.378-1.145l-23.778-.237c-.674.491-1.374.943-2.099 1.355-.976.523-2.012.925-3.086 1.199-1.57.408-3.17.696-4.783.864a67.133 67.133 0 0 1-7.215.352c-2.18.012-4.3-.071-6.379-.245a43.969 43.969 0 0 1-5.537-.789c-1.612-.353-2.936-.786-3.972-1.301-1.035-.515-1.611-1.109-1.727-1.782l-6.452-.066a8.378 8.378 0 0 1-1.524-.134c-.446-.086-.678-.2-.678-.339v-.645l8.821.085c.39-.678 1.186-1.272 2.41-1.777a27.723 27.723 0 0 1 4.477-1.347l2.954.407c.898.125 1.343.273 1.343.442 0 .091-.181.205-.552.339-.37.134-.815.298-1.325.484-.503.189-.994.411-1.468.664a3.11 3.11 0 0 0-1.074.86l21.684.212zm-21.762.879c.178.424.573.788 1.172 1.094a9.335 9.335 0 0 0 2.241.758c.996.212 2.005.357 3.02.435 1.124.091 2.297.134 3.522.129a36.457 36.457 0 0 0 3.738-.185 21.522 21.522 0 0 0 2.796-.473c.72-.172 1.423-.404 2.104-.694a11.915 11.915 0 0 0 1.607-.859l-20.2-.205zm51.765-.576c-.17-.428-.61-.804-1.282-1.128a11.526 11.526 0 0 0-2.577-.813 28.626 28.626 0 0 0-3.655-.491 56.065 56.065 0 0 0-4.591-.147 34.6 34.6 0 0 0-3.849.2c-.943.102-1.877.271-2.796.508-.694.177-1.367.426-2.009.743-.532.27-1.046.573-1.539.908l22.298.22z" fill="#FC9D8A"/><path d="M107.755 398.884c-31.031 0-63.346 2.731-68.507 8.017.2.186.389.384.564.594 4.356-3.67 31.034-7.364 67.943-7.364 37.855 0 64.962 3.887 68.245 7.647.161-.207.336-.404.521-.589-4.27-5.473-37.176-8.305-68.766-8.305z" fill="url(#A)"/><path d="M30.676 389.445v15.437c0 4.988 31.165 9.031 69.593 9.031 38.428 0 69.593-4.043 69.593-9.031v-15.437H30.676z" fill="url(#B)"/><path d="M169.862 389.445c0 4.988-31.165 9.031-69.593 9.031-38.428 0-69.593-4.043-69.593-9.031s31.165-9.031 69.593-9.031c38.428 0 69.593 4.043 69.593 9.031z" fill="url(#C)"/><path d="M100.269 399.099c-34.045 0-69.634-3.25-69.634-9.522 0-.339.124-.95.467-.95.344 0 .197.474.197.818 0 3.977 28.325 8.408 68.97 8.408 40.645 0 68.969-4.431 68.969-8.408 0-.339.06-.666.403-.666.344 0 .261.459.261.803 0 6.265-35.594 9.517-69.633 9.517z" fill="url(#D)"/><path d="M93.692 389.948c.677-.473 1.409-.938 2.188-1.397a13.669 13.669 0 0 1 2.99-1.247 28.637 28.637 0 0 1 4.586-.908 58.23 58.23 0 0 1 6.872-.371c2.69-.013 5.214.072 7.574.256 2.092.149 4.172.424 6.23.825 1.787.366 3.245.817 4.373 1.355 1.128.537 1.794 1.155 1.999 1.853l7.835.08a7.657 7.657 0 0 1 1.503.138c.438.09.65.202.65.339v.645l-10.075-.096c-.352.79-1.252 1.513-2.699 2.168-1.448.655-3.29 1.223-5.525 1.704l-3.669-.508a4.338 4.338 0 0 1-.81-.192c-.211-.078-.315-.169-.315-.252 0-.124.283-.266.847-.425a46.54 46.54 0 0 0 1.921-.591 19.37 19.37 0 0 0 2.102-.832c.677-.318 1.141-.701 1.379-1.145l-23.767-.242c-.675.49-1.376.942-2.1 1.355-.976.523-2.012.925-3.085 1.197-1.57.408-3.17.697-4.785.864a67.364 67.364 0 0 1-7.213.354c-2.18.01-4.3-.073-6.38-.247a43.572 43.572 0 0 1-5.536-.789c-1.612-.35-2.936-.784-3.972-1.301-1.03-.517-1.609-1.11-1.73-1.78l-6.449-.066a8.562 8.562 0 0 1-1.524-.136c-.446-.085-.678-.2-.678-.339v-.645l8.82.083c.39-.677 1.185-1.272 2.412-1.777a27.514 27.514 0 0 1 4.476-1.346l2.954.406c.896.126 1.341.273 1.343.442 0 .092-.181.205-.552.339-.371.134-.815.298-1.325.486-.503.188-.994.409-1.468.662a3.104 3.104 0 0 0-1.076.861l21.679.22zm-21.758.881c.17.422.572.786 1.17 1.092a9.212 9.212 0 0 0 2.243.757 22.95 22.95 0 0 0 3.02.436c1.122.091 2.296.135 3.521.13 1.248.001 2.496-.06 3.738-.185a21.523 21.523 0 0 0 2.796-.474c.72-.171 1.424-.404 2.104-.694a11.878 11.878 0 0 0 1.606-.859l-20.198-.203zm51.761-.571c-.169-.429-.608-.805-1.28-1.128-.825-.37-1.69-.643-2.578-.813a28.455 28.455 0 0 0-3.654-.49 56.938 56.938 0 0 0-4.593-.149 35.314 35.314 0 0 0-3.847.2 20.09 20.09 0 0 0-2.796.508c-.694.177-1.367.426-2.009.744-.532.27-1.047.573-1.541.908l22.298.22z" fill="#FC9D8A"/><path d="M100.279 381.391c-31.031 0-63.347 2.732-68.51 8.017.202.185.391.384.567.594 4.356-3.668 31.034-7.364 67.943-7.364 37.855 0 64.96 3.887 68.245 7.647.161-.207.335-.403.52-.589-4.269-5.473-37.185-8.305-68.765-8.305z" fill="url(#E)"/><path d="M11.33 373.232v15.436c0 4.988 31.165 9.031 69.593 9.031 38.428 0 69.601-4.043 69.601-9.031v-15.436H11.33z" fill="url(#F)"/><path d="M80.923 382.263c38.435 0 69.593-4.043 69.593-9.031 0-4.987-31.158-9.031-69.593-9.031-38.436 0-69.593 4.044-69.593 9.031 0 4.988 31.157 9.031 69.593 9.031z" fill="url(#G)"/><path d="M80.923 382.885c-34.045 0-69.634-3.25-69.634-9.52 0-.339.122-.951.467-.951.346 0 .197.473.197.818 0 3.977 28.325 8.408 68.97 8.408 40.645 0 68.969-4.431 68.969-8.408 0-.338.058-.667.403-.667.346 0 .261.459.261.805 0 6.27-35.601 9.515-69.633 9.515z" fill="url(#H)"/><path d="M74.346 373.735c.677-.472 1.409-.938 2.186-1.399.944-.532 1.948-.95 2.99-1.246a28.667 28.667 0 0 1 4.588-.908 58.214 58.214 0 0 1 6.872-.371c2.69-.012 5.214.073 7.574.257a51.62 51.62 0 0 1 6.23.825c1.786.366 3.243.818 4.371 1.355 1.128.538 1.795 1.155 2.001 1.852l7.835.079a7.804 7.804 0 0 1 1.502.139c.437.09.649.203.651.339v.645l-10.075-.096c-.352.79-1.255 1.513-2.71 2.168-1.454.655-3.291 1.223-5.511 1.705l-3.669-.508a4.24 4.24 0 0 1-.81-.191c-.211-.077-.314-.17-.314-.253 0-.123.282-.266.846-.423.564-.158 1.21-.358 1.923-.593a19.168 19.168 0 0 0 2.102-.832c.677-.318 1.141-.699 1.379-1.145l-23.777-.235c-.675.491-1.376.943-2.1 1.355-.976.523-2.012.925-3.085 1.197-1.57.409-3.17.699-4.785.866a67.62 67.62 0 0 1-7.214.352 71.256 71.256 0 0 1-6.38-.247 43.57 43.57 0 0 1-5.535-.789c-1.613-.35-2.936-.784-3.972-1.301-1.03-.517-1.61-1.109-1.73-1.78l-6.45-.066a8.378 8.378 0 0 1-1.525-.134c-.446-.086-.678-.202-.678-.339v-.645l8.82.085c.39-.678 1.185-1.274 2.412-1.777a27.436 27.436 0 0 1 4.486-1.353l2.954.404c.896.127 1.342.275 1.343.444 0 .092-.18.203-.552.339-.37.135-.815.298-1.324.486-.504.188-.996.409-1.47.662a3.14 3.14 0 0 0-1.074.861l21.675.216zm-21.762.879c.178.424.573.788 1.172 1.095.713.345 1.466.6 2.243.757a22.92 22.92 0 0 0 3.018.433c1.13.093 2.303.136 3.521.131 1.249.002 2.496-.06 3.739-.185a21.716 21.716 0 0 0 2.798-.474 12.96 12.96 0 0 0 2.102-.695 11.523 11.523 0 0 0 1.607-.857l-20.2-.205zm51.765-.577c-.17-.429-.61-.805-1.281-1.126a11.518 11.518 0 0 0-2.578-.813 28.425 28.425 0 0 0-3.653-.492 56.505 56.505 0 0 0-4.593-.149 35.587 35.587 0 0 0-3.849.2c-.943.103-1.877.273-2.796.508-.693.176-1.366.425-2.007.742-.532.27-1.047.573-1.541.908l22.298.222z" fill="#FC9D8A"/><path d="M80.931 365.178c-31.03 0-63.346 2.731-68.507 8.017.2.186.39.385.565.595 4.355-3.671 31.035-7.365 67.942-7.365 37.855 0 64.962 3.887 68.246 7.647.161-.207.335-.404.52-.589-4.268-5.473-37.184-8.305-68.766-8.305z" fill="url(#I)"/><path d="M28.023 357.061v15.436c0 4.987 31.165 9.032 69.593 9.032 38.428 0 69.593-4.045 69.593-9.032v-15.436H28.023z" fill="url(#J)"/><path d="M97.615 366.097c38.435 0 69.592-4.044 69.592-9.032 0-4.987-31.157-9.031-69.592-9.031-38.436 0-69.593 4.044-69.593 9.031 0 4.988 31.157 9.032 69.593 9.032z" fill="url(#K)"/><path d="M97.615 366.715c-34.045 0-69.632-3.252-69.632-9.523 0-.338.122-.95.467-.95.346 0 .195.474.195.818 0 3.977 28.326 8.408 68.97 8.408 40.643 0 68.969-4.431 68.969-8.408 0-.338.059-.667.403-.667.344 0 .263.461.263.804 0 6.276-35.596 9.518-69.635 9.518z" fill="url(#L)"/><path d="M91.04 357.569c.677-.473 1.409-.939 2.186-1.399a13.9 13.9 0 0 1 2.99-1.247 28.545 28.545 0 0 1 4.588-.906 58.212 58.212 0 0 1 6.871-.371c2.69-.014 5.215.072 7.575.256 2.091.147 4.171.423 6.228.825 1.788.365 3.246.817 4.373 1.355 1.127.537 1.793 1.155 1.999 1.852l7.837.08a7.648 7.648 0 0 1 1.502.139c.437.088.649.202.651.339v.645l-10.075-.098c-.354.79-1.255 1.513-2.701 2.17-1.447.656-3.288 1.224-5.524 1.703l-3.668-.508a4.397 4.397 0 0 1-.81-.191c-.212-.078-.315-.169-.315-.252 0-.126.283-.266.847-.426a45.04 45.04 0 0 0 1.92-.591 19.52 19.52 0 0 0 2.104-.831c.678-.32 1.14-.702 1.379-1.145l-23.777-.236a22.52 22.52 0 0 1-2.1 1.355c-.976.523-2.012.926-3.085 1.199a32.36 32.36 0 0 1-4.785.864 67.392 67.392 0 0 1-7.215.354c-2.178.01-4.3-.073-6.379-.247a43.94 43.94 0 0 1-5.535-.789c-1.613-.351-2.937-.785-3.972-1.301-1.034-.516-1.61-1.11-1.729-1.782l-6.452-.066a8.378 8.378 0 0 1-1.524-.134c-.444-.086-.677-.2-.677-.339v-.645l8.819.085c.39-.678 1.186-1.272 2.412-1.777a27.613 27.613 0 0 1 4.475-1.355l2.954.407c.897.125 1.343.272 1.344.442 0 .091-.18.205-.553.338-.373.134-.815.298-1.323.486-.505.188-.996.409-1.47.663a3.111 3.111 0 0 0-1.074.86l21.688.219zm-21.762.879c.178.423.572.787 1.172 1.094a9.336 9.336 0 0 0 2.24.757c.997.212 2.006.357 3.02.435 1.123.092 2.297.135 3.522.129a36.175 36.175 0 0 0 3.738-.185 21.717 21.717 0 0 0 2.798-.472 13.064 13.064 0 0 0 2.102-.695 11.779 11.779 0 0 0 1.608-.858l-20.2-.205zm51.765-.576c-.178-.429-.61-.805-1.283-1.128a11.45 11.45 0 0 0-2.576-.813 28.626 28.626 0 0 0-3.655-.491 56.498 56.498 0 0 0-4.592-.148 35.083 35.083 0 0 0-3.848.2 20.09 20.09 0 0 0-2.796.508c-.693.177-1.366.427-2.007.744-.533.269-1.047.572-1.542.906l22.299.222z" fill="#FC9D8A"/><path d="M97.625 349.012c-31.03 0-63.347 2.73-68.508 8.016.2.186.39.385.564.595 4.357-3.671 31.035-7.365 67.944-7.365 37.855 0 64.962 3.887 68.246 7.648a6.47 6.47 0 0 1 .52-.59c-4.268-5.472-37.185-8.304-68.766-8.304z" fill="url(#M)"/><path d="M19.34 340.853v15.435c0 4.988 31.164 9.031 69.592 9.031s69.593-4.043 69.593-9.031v-15.435H19.339z" fill="url(#N)"/><path d="M88.932 349.884c38.436 0 69.593-4.043 69.593-9.031s-31.157-9.031-69.593-9.031c-38.435 0-69.593 4.043-69.593 9.031s31.158 9.031 69.593 9.031z" fill="url(#O)"/><path d="M88.932 350.505c-34.044 0-69.633-3.25-69.633-9.522 0-.339.123-.948.467-.948.344 0 .197.472.197.818 0 3.977 28.324 8.408 68.97 8.408 40.644 0 68.969-4.431 68.969-8.408 0-.339.059-.668.403-.668.344 0 .261.459.261.803 0 6.272-35.594 9.517-69.634 9.517z" fill="url(#P)"/><path d="M88.942 332.799c-31.03 0-63.346 2.73-68.508 8.015.2.186.39.385.565.596 4.357-3.67 31.035-7.366 67.944-7.366 37.855 0 64.962 3.896 68.244 7.649.161-.207.334-.404.52-.589-4.268-5.475-37.183-8.305-68.764-8.305z" fill="url(#Q)"/><path d="m178.322 351.734-12.58 8.948c-4.065 2.891 10.702 30.625 32.98 61.944 22.278 31.319 43.632 54.369 47.697 51.475l12.578-8.947-80.675-113.42z" fill="url(#R)"/><path d="M258.997 465.154c-4.065 2.891-25.42-20.155-47.698-51.475-22.278-31.319-37.042-59.054-32.977-61.945 4.065-2.892 25.418 20.155 47.696 51.475 22.278 31.319 37.044 59.054 32.979 61.945z" fill="url(#S)"/><path d="M210.793 414.04c-19.731-27.739-37.713-58.628-32.603-62.262.281-.2.847-.451 1.045-.17.198.281-.273.434-.552.634-3.242 2.305 9.566 27.947 33.124 61.075 23.559 33.128 43.588 53.634 46.829 51.329.28-.2.578-.339.778-.057.2.281-.224.479-.508.677-5.107 3.635-28.384-23.489-48.113-51.226z" fill="url(#T)"/><path d="M225.227 403.784c-17.986-25.286-38.938-50.032-46.239-51.18-.035.271-.087.54-.158.805 5.517 1.422 23.99 21.021 45.393 51.097 21.941 30.848 34.485 55.189 33.324 60.045.263.011.524.038.783.081 1.975-6.649-14.797-35.113-33.103-60.848z" fill="url(#U)"/><path d="M351.573 364.813v76.027H318.18a5.37 5.37 0 0 1-5.367-5.372v-65.289a5.376 5.376 0 0 1 3.313-4.958 5.368 5.368 0 0 1 2.054-.408h33.393z" fill="#1D253D"/><path d="M481.606 400.81c-3.434 32.325-21.792 40.03-21.792 40.03H351.573v-76.027c30.372-5.84 44.835-43.244 41.705-62.002.556-4.219.562-8.13.022-11.465 2.146-6.419 8.469-5.13 8.469-5.13 20.882 3.272 22.073 46.597 21.91 60.721a4.62 4.62 0 0 0 4.301 4.669c7.979.541 25.382 2.118 40.631 6.108 10.007 2.62 14.16 5.241 15.39 10.971 1.314 6.04-.632 15.536-2.395 32.125z" fill="#FEA30A"/><path d="M351.573 364.813v64.451H318.18a5.37 5.37 0 0 1-5.367-5.366v-53.719a5.376 5.376 0 0 1 3.313-4.958 5.368 5.368 0 0 1 2.054-.408h33.393z" fill="#010648"/><path d="M484.013 368.685c-.534 5.284-1.496 11.968-2.407 20.548-3.434 32.326-21.792 40.03-21.792 40.03H351.573v-64.45c15.139-2.912 26.93-14.108 34.066-27.332 5.151-9.543 6.762-20.307 7.453-30.996.398-6.245-2.033-22.454 8.69-20.271 20.883 3.272 22.073 46.597 21.911 60.721a4.622 4.622 0 0 0 4.3 4.67c7.98.54 25.383 2.117 40.632 6.107 10.005 2.622 14.158 5.243 15.388 10.973z" fill="#FEB12F"/></g><defs><linearGradient id="A" x1="109.122" y1="417.411" x2="106.539" y2="395.785" gradientUnits="userSpaceOnUse"><stop stop-color="#FC9D8A"/><stop offset=".31" stop-color="#F36F56"/><stop offset=".55" stop-color="#FDB946"/><stop offset=".68" stop-color="#FFC444"/><stop offset=".8" stop-color="#FFC244"/><stop offset=".87" stop-color="#FEBA46"/><stop offset=".92" stop-color="#FCAD49"/><stop offset=".96" stop-color="#F99A4D"/><stop offset="1" stop-color="#F57E53"/></linearGradient><linearGradient id="b" x1="501.014" y1="248.754" x2="64.747" y2="526.231" gradientUnits="userSpaceOnUse"><stop stop-color="#30ABBA"/><stop offset="1" stop-color="#6165D7"/></linearGradient><linearGradient id="f" x1="123.979" y1="508.465" x2="409.211" y2="-36.799" gradientUnits="userSpaceOnUse"><stop stop-color="#444B8C"/><stop offset="1" stop-color="#26264F"/></linearGradient><linearGradient id="g" x1="-50.648" y1="865.016" x2="234.585" y2="319.75" gradientUnits="userSpaceOnUse"><stop stop-color="#AA80F9"/><stop offset="1" stop-color="#6165D7"/></linearGradient><linearGradient id="h" x1="369.298" y1="143.071" x2="145.5" y2="429" gradientUnits="userSpaceOnUse"><stop stop-color="#30ABBA"/><stop offset="1" stop-color="#6165D7"/></linearGradient><linearGradient id="i" x1="79.932" y1="258.662" x2="379.955" y2="258.662" gradientUnits="userSpaceOnUse"><stop stop-color="#AA80F9"/><stop offset="1" stop-color="#6165D7"/></linearGradient><linearGradient id="k" x1="270.904" y1="147.465" x2="342.111" y2="49.876" gradientUnits="userSpaceOnUse"><stop stop-color="#FCB148"/><stop offset=".05" stop-color="#FDBA46"/><stop offset=".14" stop-color="#FFC244"/><stop offset=".32" stop-color="#FFC444"/><stop offset=".48" stop-color="#FDB946"/><stop offset=".78" stop-color="#F99C4D"/><stop offset=".87" stop-color="#F8924F"/><stop offset="1" stop-color="#F8924F"/></linearGradient><linearGradient id="l" x1="18.777" y1="467.766" x2="178.901" y2="467.766" gradientUnits="userSpaceOnUse"><stop stop-color="#FCB148"/><stop offset=".05" stop-color="#FDBA46"/><stop offset=".14" stop-color="#FFC244"/><stop offset=".32" stop-color="#FFC444"/><stop offset=".48" stop-color="#FDB946"/><stop offset=".78" stop-color="#F99C4D"/><stop offset=".87" stop-color="#F8924F"/><stop offset="1" stop-color="#F8924F"/></linearGradient><linearGradient id="m" x1="99.576" y1="449.728" x2="108.018" y2="520.396" gradientUnits="userSpaceOnUse"><stop stop-color="#FFDB44"/><stop offset="1" stop-color="#FEEF06"/></linearGradient><linearGradient id="n" x1="99.208" y1="446.577" x2="101.802" y2="468.279" gradientUnits="userSpaceOnUse"><stop stop-color="#FFDB44"/><stop offset="1" stop-color="#FEEF06"/></linearGradient><linearGradient id="o" x1="101.646" y1="466.004" x2="99.061" y2="444.378" gradientUnits="userSpaceOnUse"><stop stop-color="#F36F56"/><stop offset=".31" stop-color="#F99C4C"/><stop offset=".55" stop-color="#FDB946"/><stop offset=".68" stop-color="#FFC444"/><stop offset=".8" stop-color="#FFC244"/><stop offset=".87" stop-color="#FEBA46"/><stop offset=".92" stop-color="#FCAD49"/><stop offset=".96" stop-color="#F99A4D"/><stop offset="1" stop-color="#F57E53"/></linearGradient><linearGradient id="p" x1="-.569" y1="451.552" x2="159.555" y2="451.552" gradientUnits="userSpaceOnUse"><stop stop-color="#FCB148"/><stop offset=".05" stop-color="#FDBA46"/><stop offset=".14" stop-color="#FFC244"/><stop offset=".32" stop-color="#FFC444"/><stop offset=".48" stop-color="#FDB946"/><stop offset=".78" stop-color="#F99C4D"/><stop offset=".87" stop-color="#F8924F"/><stop offset="1" stop-color="#F8924F"/></linearGradient><linearGradient id="q" x1="80.228" y1="433.515" x2="88.67" y2="504.183" gradientUnits="userSpaceOnUse"><stop stop-color="#FFDB44"/><stop offset="1" stop-color="#FEEF06"/></linearGradient><linearGradient id="r" x1="79.862" y1="430.363" x2="82.454" y2="452.066" gradientUnits="userSpaceOnUse"><stop stop-color="#FFDB44"/><stop offset="1" stop-color="#FEEF06"/></linearGradient><linearGradient id="s" x1="82.298" y1="449.79" x2="79.715" y2="428.164" gradientUnits="userSpaceOnUse"><stop stop-color="#FC9D8A"/><stop offset=".31" stop-color="#F36F56"/><stop offset=".55" stop-color="#FDB946"/><stop offset=".68" stop-color="#FFC444"/><stop offset=".8" stop-color="#FFC244"/><stop offset=".87" stop-color="#FEBA46"/><stop offset=".92" stop-color="#FCAD49"/><stop offset=".96" stop-color="#F99A4D"/><stop offset="1" stop-color="#F57E53"/></linearGradient><linearGradient id="t" x1="16.125" y1="435.385" x2="176.249" y2="435.385" gradientUnits="userSpaceOnUse"><stop stop-color="#FCB148"/><stop offset=".05" stop-color="#FDBA46"/><stop offset=".14" stop-color="#FFC244"/><stop offset=".32" stop-color="#FFC444"/><stop offset=".48" stop-color="#FDB946"/><stop offset=".78" stop-color="#F99C4D"/><stop offset=".87" stop-color="#F8924F"/><stop offset="1" stop-color="#F8924F"/></linearGradient><linearGradient id="u" x1="96.922" y1="417.348" x2="105.363" y2="488.017" gradientUnits="userSpaceOnUse"><stop stop-color="#FFDB44"/><stop offset="1" stop-color="#FEEF06"/></linearGradient><linearGradient id="v" x1="96.556" y1="414.196" x2="99.147" y2="435.9" gradientUnits="userSpaceOnUse"><stop stop-color="#FFDB44"/><stop offset="1" stop-color="#FEEF06"/></linearGradient><linearGradient id="w" x1="98.992" y1="433.625" x2="96.409" y2="411.997" gradientUnits="userSpaceOnUse"><stop stop-color="#F36F56"/><stop offset=".31" stop-color="#F99C4C"/><stop offset=".55" stop-color="#FDB946"/><stop offset=".68" stop-color="#FFC444"/><stop offset=".8" stop-color="#FFC244"/><stop offset=".87" stop-color="#FEBA46"/><stop offset=".92" stop-color="#FCAD49"/><stop offset=".96" stop-color="#F99A4D"/><stop offset="1" stop-color="#F57E53"/></linearGradient><linearGradient id="x" x1="26.253" y1="419.172" x2="186.379" y2="419.172" gradientUnits="userSpaceOnUse"><stop stop-color="#FCB148"/><stop offset=".05" stop-color="#FDBA46"/><stop offset=".14" stop-color="#FFC244"/><stop offset=".32" stop-color="#FFC444"/><stop offset=".48" stop-color="#FDB946"/><stop offset=".78" stop-color="#F99C4D"/><stop offset=".87" stop-color="#F8924F"/><stop offset="1" stop-color="#F8924F"/></linearGradient><linearGradient id="y" x1="107.052" y1="401.135" x2="115.494" y2="471.804" gradientUnits="userSpaceOnUse"><stop stop-color="#FFDB44"/><stop offset="1" stop-color="#FEEF06"/></linearGradient><linearGradient id="z" x1="106.685" y1="397.983" x2="109.278" y2="419.687" gradientUnits="userSpaceOnUse"><stop stop-color="#FFDB44"/><stop offset="1" stop-color="#FEEF06"/></linearGradient><linearGradient id="e" x1="432.268" y1="75.05" x2="374.01" y2="389.32" gradientUnits="userSpaceOnUse"><stop stop-color="#FC9D8A"/><stop offset="1" stop-color="#FB6FBB"/></linearGradient><linearGradient id="B" x1="18.777" y1="401.679" x2="178.901" y2="401.679" gradientUnits="userSpaceOnUse"><stop stop-color="#FCB148"/><stop offset=".05" stop-color="#FDBA46"/><stop offset=".14" stop-color="#FFC244"/><stop offset=".32" stop-color="#FFC444"/><stop offset=".48" stop-color="#FDB946"/><stop offset=".78" stop-color="#F99C4D"/><stop offset=".87" stop-color="#F8924F"/><stop offset="1" stop-color="#F8924F"/></linearGradient><linearGradient id="C" x1="99.576" y1="383.642" x2="108.018" y2="454.311" gradientUnits="userSpaceOnUse"><stop stop-color="#FFDB44"/><stop offset="1" stop-color="#FEEF06"/></linearGradient><linearGradient id="D" x1="99.208" y1="380.49" x2="101.802" y2="402.194" gradientUnits="userSpaceOnUse"><stop stop-color="#FFDB44"/><stop offset="1" stop-color="#FEEF06"/></linearGradient><linearGradient id="E" x1="101.646" y1="399.917" x2="99.061" y2="378.292" gradientUnits="userSpaceOnUse"><stop stop-color="#F36F56"/><stop offset=".31" stop-color="#F99C4C"/><stop offset=".55" stop-color="#FDB946"/><stop offset=".68" stop-color="#FFC444"/><stop offset=".8" stop-color="#FFC244"/><stop offset=".87" stop-color="#FEBA46"/><stop offset=".92" stop-color="#FCAD49"/><stop offset=".96" stop-color="#F99A4D"/><stop offset="1" stop-color="#F57E53"/></linearGradient><linearGradient id="F" x1="-.569" y1="385.465" x2="159.555" y2="385.465" gradientUnits="userSpaceOnUse"><stop stop-color="#FCB148"/><stop offset=".05" stop-color="#FDBA46"/><stop offset=".14" stop-color="#FFC244"/><stop offset=".32" stop-color="#FFC444"/><stop offset=".48" stop-color="#FDB946"/><stop offset=".78" stop-color="#F99C4D"/><stop offset=".87" stop-color="#F8924F"/><stop offset="1" stop-color="#F8924F"/></linearGradient><linearGradient id="G" x1="80.228" y1="367.428" x2="88.67" y2="438.096" gradientUnits="userSpaceOnUse"><stop stop-color="#FFDB44"/><stop offset="1" stop-color="#FEEF06"/></linearGradient><linearGradient id="H" x1="79.862" y1="364.276" x2="82.454" y2="385.98" gradientUnits="userSpaceOnUse"><stop stop-color="#FFDB44"/><stop offset="1" stop-color="#FEEF06"/></linearGradient><linearGradient id="I" x1="82.298" y1="383.705" x2="79.715" y2="362.077" gradientUnits="userSpaceOnUse"><stop stop-color="#F36F56"/><stop offset=".31" stop-color="#F99C4C"/><stop offset=".55" stop-color="#FDB946"/><stop offset=".68" stop-color="#FFC444"/><stop offset=".8" stop-color="#FFC244"/><stop offset=".87" stop-color="#FEBA46"/><stop offset=".92" stop-color="#FCAD49"/><stop offset=".96" stop-color="#F99A4D"/><stop offset="1" stop-color="#F57E53"/></linearGradient><linearGradient id="J" x1="16.125" y1="369.3" x2="176.249" y2="369.3" gradientUnits="userSpaceOnUse"><stop stop-color="#FCB148"/><stop offset=".05" stop-color="#FDBA46"/><stop offset=".14" stop-color="#FFC244"/><stop offset=".32" stop-color="#FFC444"/><stop offset=".48" stop-color="#FDB946"/><stop offset=".78" stop-color="#F99C4D"/><stop offset=".87" stop-color="#F8924F"/><stop offset="1" stop-color="#F8924F"/></linearGradient><linearGradient id="K" x1="96.922" y1="351.263" x2="105.363" y2="421.931" gradientUnits="userSpaceOnUse"><stop stop-color="#FFDB44"/><stop offset="1" stop-color="#FEEF06"/></linearGradient><linearGradient id="L" x1="96.556" y1="348.11" x2="99.147" y2="369.814" gradientUnits="userSpaceOnUse"><stop stop-color="#FFDB44"/><stop offset="1" stop-color="#FEEF06"/></linearGradient><linearGradient id="M" x1="98.992" y1="367.538" x2="96.409" y2="345.912" gradientUnits="userSpaceOnUse"><stop stop-color="#FC9D8A"/><stop offset=".31" stop-color="#F36F56"/><stop offset=".55" stop-color="#FDB946"/><stop offset=".68" stop-color="#FFC444"/><stop offset=".8" stop-color="#FFC244"/><stop offset=".87" stop-color="#FEBA46"/><stop offset=".92" stop-color="#FCAD49"/><stop offset=".96" stop-color="#F99A4D"/><stop offset="1" stop-color="#F57E53"/></linearGradient><linearGradient id="N" x1="7.441" y1="353.085" x2="167.567" y2="353.085" gradientUnits="userSpaceOnUse"><stop stop-color="#FCB148"/><stop offset=".05" stop-color="#FDBA46"/><stop offset=".14" stop-color="#FFC244"/><stop offset=".32" stop-color="#FFC444"/><stop offset=".48" stop-color="#FDB946"/><stop offset=".78" stop-color="#F99C4D"/><stop offset=".87" stop-color="#F8924F"/><stop offset="1" stop-color="#F8924F"/></linearGradient><linearGradient id="O" x1="88.24" y1="335.048" x2="96.681" y2="405.717" gradientUnits="userSpaceOnUse"><stop stop-color="#FFDB44"/><stop offset="1" stop-color="#FEEF06"/></linearGradient><linearGradient id="P" x1="87.872" y1="331.896" x2="90.465" y2="353.6" gradientUnits="userSpaceOnUse"><stop stop-color="#FFDB44"/><stop offset="1" stop-color="#FEEF06"/></linearGradient><linearGradient id="Q" x1="90.309" y1="351.324" x2="87.726" y2="329.698" gradientUnits="userSpaceOnUse"><stop stop-color="#F36F56"/><stop offset=".31" stop-color="#F99C4C"/><stop offset=".55" stop-color="#FDB946"/><stop offset=".68" stop-color="#FFC444"/><stop offset=".8" stop-color="#FFC244"/><stop offset=".87" stop-color="#FEBA46"/><stop offset=".92" stop-color="#FCAD49"/><stop offset=".96" stop-color="#F99A4D"/><stop offset="1" stop-color="#F57E53"/></linearGradient><linearGradient id="R" x1="163.092" y1="348.119" x2="255.964" y2="477.819" gradientUnits="userSpaceOnUse"><stop stop-color="#FCB148"/><stop offset=".05" stop-color="#FDBA46"/><stop offset=".14" stop-color="#FFC244"/><stop offset=".32" stop-color="#FFC444"/><stop offset=".48" stop-color="#FDB946"/><stop offset=".78" stop-color="#F99C4D"/><stop offset=".87" stop-color="#F8924F"/><stop offset="1" stop-color="#F8924F"/></linearGradient><linearGradient id="S" x1="224.563" y1="403.104" x2="172.224" y2="450.925" gradientUnits="userSpaceOnUse"><stop stop-color="#FFDB44"/><stop offset="1" stop-color="#FEEF06"/></linearGradient><linearGradient id="T" x1="226.903" y1="400.981" x2="210.828" y2="415.666" gradientUnits="userSpaceOnUse"><stop stop-color="#FFDB44"/><stop offset="1" stop-color="#FEEF06"/></linearGradient><linearGradient id="U" x1="209.802" y1="414.756" x2="225.819" y2="400.123" gradientUnits="userSpaceOnUse"><stop stop-color="#F36F56"/><stop offset=".31" stop-color="#F99C4C"/><stop offset=".55" stop-color="#FDB946"/><stop offset=".68" stop-color="#FFC444"/><stop offset=".8" stop-color="#FFC244"/><stop offset=".87" stop-color="#FEBA46"/><stop offset=".92" stop-color="#FCAD49"/><stop offset=".96" stop-color="#F99A4D"/><stop offset="1" stop-color="#F57E53"/></linearGradient><clipPath id="a"><path fill="#fff" d="M0 0h488.028v480H0z"/></clipPath></defs></svg>