<svg width="493" height="480" fill="none" xmlns="http://www.w3.org/2000/svg"><g clip-path="url(#a)"><path d="M423.045 408.154c-12.412 12.795-23.519 20.317-32.022 25.993-82.932 55.375-177.73 39.415-207.04 33.961-47.288-8.803-87.204-15.012-121.501-45.996-77.93-70.413-74.131-217.289-14.59-308.272 7.06-10.787 66.517-98.923 161.522-111.343 2.323-.304 4.057-.476 5.577-.638C229.688.304 320.762-7.905 395.024 54.306c10.631 8.906 27.737 24.97 43.601 49.47 58.006 89.588 58.19 228.335-15.58 304.378z" fill="url(#b)"/><path d="M1.052 20.738c-1-2.922 3.013-5.328 5.799-3.497 28.287 18.625 97.501 75.94 92.873 188.587-5.81 141.334 32.869 188.85 77.806 215.711 0 0-58.927-8.875-100.22-56.884C-24.075 246.783 18.842 72.708 1.051 20.738z" fill="#91B3FA"/><path d="M131.98 354.445c-1.813 4.623-7.759 5.891-11.343 2.457-19.794-18.947-70.912-77.577-63.242-171.854 6.474-79.614 2.418-123.392-.801-143.146-.687-4.178 4.365-6.796 7.39-3.84 33.398 32.61 133.715 148.874 67.996 316.383z" fill="#7D97F4"/><path d="M125.259 354.306a1.94 1.94 0 0 1-2.848-.944c-.435-1.132-43.46-114.589-39.461-225.691a1.939 1.939 0 1 1 3.875.139c-3.954 110.291 38.781 223.033 39.212 224.158a1.942 1.942 0 0 1-.778 2.338z" fill="#91B3FA"/><path d="M109.231 1.89c-12.517 1.09-22.114 11.573-22.15 24.137-.218 76.84-.577 341.874 4.43 435.682a18.851 18.851 0 0 0 18.631 17.853c49.221.529 190.805 1.503 271.187-3.638 16.742-1.071 29.77-14.936 29.749-31.713-.098-80.644-1.387-307.447-12.433-411.112a25.909 25.909 0 0 0-23.768-23.085C321.195 5.83 178.638-4.146 109.231 1.89z" fill="url(#c)"/><path d="M106.839 46.165c-.966 65.728-3.719 284.378 1.086 365.079.701 11.795 9.865 21.108 21.178 21.503 46.581 1.622 166.03 4.764 234.095-2.726 12.255-1.349 21.623-11.971 21.949-24.834 1.703-67.077 6.302-270.725 1.633-350.522-.746-12.73-10.471-22.887-22.663-23.716-50.435-3.399-179.95-11.236-237.829-6.417-10.865.913-19.282 10.253-19.449 21.633z" fill="#E8F8FA"/><path d="M219.385 13.319a3.41 3.41 0 0 0 3.303 3.339c8.962.271 34.213 1.045 45.497 1.45a3.411 3.411 0 0 0 3.456-4.124c-.038-.069-.327-2.86-3.178-3.058-7.634-.53-30.666-1.962-45.885-1.084-3.124.174-3.294 3.734-3.193 3.477z" fill="url(#d)"/><path d="M166.182 244.659s64.203-16.106 132.04-6.393c19.086 2.732 35.991 13.838 46.29 30.136 18.561 29.369 44.796 81.703 39.247 136.281l-29.128 7.202s-20.131-64.773-42.792-91.136c0 0-26.831 61.163-25.475 94.749.037.95.099 1.876.183 2.78 3.08 32.861-128.805 6.132-128.805 6.132l8.44-179.751z" fill="url(#e)"/><path d="m235.593 189.829-13.67 43.539c-1.271 4.051 0 8.388 3.169 10.827 7.316 5.635 21.778 14.608 39.446 14.348 3.233-.046 5.951-2.806 6.177-6.187l4.856-72.768-39.978 10.241z" fill="url(#f)"/><path d="M288.517 142.112s5.31 34.288 1.968 50.674c-3.343 16.387-2.618 27.779-22.146 26.122-19.527-1.656-32.813-15.09-37.11-33.415 0 0-6.84-28.298-1.177-37.662s58.465-5.719 58.465-5.719z" fill="url(#g)"/><path d="m240.65 175.606 2.36.62s-4.484-22.512 4.984-23.765c9.467-1.253 45.134.732 55.595-9.361 10.084-9.731 7.733-26.339-.561-32.996a1.298 1.298 0 0 0-1.754.172l-1.165 1.268a1.318 1.318 0 0 1-1.43.34 1.31 1.31 0 0 1-.848-1.199c-.027-1.119-1.374-1.719-2.182-.946-3.179 3.004-10.769 7.256-27.794 5.986-24.158-1.801-41.838 3.521-46.401 19.346a1.31 1.31 0 0 1-2.234.515c-1.428-1.483-4.023-2.684-8.464-.582-7.733 3.659-8.764 18.137 2.124 33.132.516.713.243 1.74-.594 2.017-2.944.976-7.715 3.886.634 11.63 8.538 7.92 14.57 8.884 16.938 8.9a1.308 1.308 0 0 0 1.304-1.059l2.836-14.339a1.32 1.32 0 0 1 .591-.858 1.312 1.312 0 0 1 1.029-.156l5.032 1.335z" fill="#010648"/><path d="M240.461 178.711s.053-20.998-10.206-17.802c-10.26 3.197-1.214 23.223 5.671 25.821l4.535-8.019z" fill="url(#h)"/><path d="M166.581 375.598c-2.844-20.083 17.954-49.602 26.555-60.803a18.615 18.615 0 0 0 3.872-11.171c.252-28.442-11.686-46.708-30.824-58.974 0 0-69.448 80.91-51.764 143.141 1.907 6.717 4.863 12.487 8.613 17.445 2.786-23.441 29.889-28.555 43.548-29.638z" fill="url(#i)"/><path d="m167.877 367.831-2.647-.303c2.234-19.693 19.525-44.007 26.851-53.545l2.112 1.623c-7.191 9.371-24.147 33.193-26.316 52.225z" fill="url(#j)"/><path d="M167.126 378.379a23.275 23.275 0 0 1-.545-2.781c-13.659 1.083-40.762 6.197-43.548 29.647 30.992 40.989 116.416 26.201 116.416 26.201v-15.95s-65.607-12.188-72.323-37.117z" fill="url(#k)"/><path d="M231.236 427.043s12.613-29.764 34.837-19.207c22.224 10.557 20.478 17.466 20.478 17.466l-55.315 1.741z" fill="url(#l)"/><path d="M228.402 433.218a4.219 4.219 0 0 0 4.353 3.885l115.167-4.017a4.216 4.216 0 0 0 3.879-2.958l3.344-10.696a4.24 4.24 0 0 0 .143-1.899 4.231 4.231 0 0 0-2.117-3.045 4.216 4.216 0 0 0-1.829-.528l-41.998-2.234a4.252 4.252 0 0 0-1.136.094l-76.511 16.957a4.219 4.219 0 0 0-3.295 4.441z" fill="url(#m)"/><path d="m305.601 429.014 3.169-14.765 43.139 2.058-2.839 12.252-43.469.455z" fill="url(#n)"/><path d="M283.485 270.076c-2.442 19.951-13.425 101.004-16.569 124.163a5.332 5.332 0 0 0 5.431 6.029l186.318-5.327a5.33 5.33 0 0 0 5.046-4.168l28.983-130.527a5.322 5.322 0 0 0-1.146-4.606 5.318 5.318 0 0 0-4.364-1.864l-198.726 11.639a5.331 5.331 0 0 0-4.973 4.661z" fill="url(#o)"/><path d="m358.377 351.931-27.536 78.157 64.03 1.358 5.327-79.053a6.143 6.143 0 0 0-6.53-6.543l-29.903 1.985a6.152 6.152 0 0 0-5.388 4.096z" fill="url(#p)"/><path d="M304.883 431.202a3.324 3.324 0 0 0 3.16 4.361h100.274a3.323 3.323 0 0 0 3.325-3.325v-4.296a3.33 3.33 0 0 0-1.024-2.402 3.315 3.315 0 0 0-2.444-.922L307.9 428.914a3.33 3.33 0 0 0-3.017 2.288z" fill="url(#q)"/><path d="m280.675 352.534-1.321-.172 9.154-72.194a9.402 9.402 0 0 1 8.755-8.198l171.73-10.371.081 1.33-171.729 10.376a8.076 8.076 0 0 0-7.513 7.034l-9.157 72.195zM277.333 375.443l-2.048 15.597 1.318.173 2.048-15.597-1.318-.173z" fill="#91B3FA"/><path d="M270.23 200.846c-20.69 1.562-32.716-19.832-32.836-20.048l1.386-.763c.114.208 11.664 20.718 31.331 19.234l.119 1.577z" fill="url(#r)"/><path d="M270.23 200.846c-20.69 1.562-32.716-19.832-32.836-20.048l1.386-.763c.114.208 11.664 20.718 31.331 19.234l.119 1.577z" fill="url(#s)"/><path d="M278.664 200.047a2.211 2.211 0 0 1-.65 1.57c-.206.206-.451.37-.72.482-.27.111-.558.169-.85.169h-5.92a2.226 2.226 0 0 1-2.221-2.221 2.22 2.22 0 0 1 2.221-2.22h5.92a2.229 2.229 0 0 1 1.571.65 2.23 2.23 0 0 1 .649 1.57z" fill="url(#t)"/><path d="M278.664 200.047a2.211 2.211 0 0 1-.65 1.57c-.206.206-.451.37-.72.482-.27.111-.558.169-.85.169h-5.92a2.226 2.226 0 0 1-2.221-2.221 2.22 2.22 0 0 1 2.221-2.22h5.92a2.229 2.229 0 0 1 1.571.65 2.23 2.23 0 0 1 .649 1.57z" fill="url(#u)"/><path d="M238.82 157.065s7.426-38.09 29.31-41.684c0 0-6.187-3.119-12.656.263-6.468 3.382-22.784 21.924-22.119 42.361 4.436 1.598 5.465-.94 5.465-.94z" fill="url(#v)"/><path d="M238.82 157.065s7.426-38.09 29.31-41.684c0 0-6.187-3.119-12.656.263-6.468 3.382-22.784 21.924-22.119 42.361 4.436 1.598 5.465-.94 5.465-.94z" fill="url(#w)"/><path d="M235.019 155.262c-11.374 2.308-9.968 16.692-9.968 16.692-.818 10.439 2.234 15.613 6.132 18.079a8.992 8.992 0 0 0 8.836.415 8.99 8.99 0 0 0 4.912-7.356c.21-2.841.45-5.541.66-6.5.51-2.323.803-23.642-10.572-21.33z" fill="url(#x)"/><path d="M236.063 158.9a5.167 5.167 0 0 0-5.638 3.044c-6.799 15.748 1.547 25.991 5.645 26.206 4.319.225 4.231-20.552 3.315-25.88-.385-2.231-1.802-3.107-3.322-3.37z" fill="url(#y)"/><path d="M236.063 158.9a5.167 5.167 0 0 0-5.638 3.044c-6.799 15.748 1.547 25.991 5.645 26.206 4.319.225 4.231-20.552 3.315-25.88-.385-2.231-1.802-3.107-3.322-3.37z" fill="url(#z)"/></g><defs><linearGradient id="o" x1="471.5" y1="384.5" x2="283.5" y2="278" gradientUnits="userSpaceOnUse"><stop stop-color="#6165D7"/><stop offset="1" stop-color="#30ABBA"/></linearGradient><linearGradient id="b" x1="523.999" y1="551.748" x2="187.764" y2="193.819" gradientUnits="userSpaceOnUse"><stop stop-color="#DAE3FE"/><stop offset="1" stop-color="#E9EFFD"/></linearGradient><linearGradient id="d" x1="259.669" y1="-160.21" x2="245.66" y2="12.578" gradientUnits="userSpaceOnUse"><stop stop-color="#53D8FF"/><stop offset="1" stop-color="#3840F7"/></linearGradient><linearGradient id="e" x1="288.773" y1="306.812" x2="137.77" y2="502.228" gradientUnits="userSpaceOnUse"><stop stop-color="#FE7062"/><stop offset="1" stop-color="#FF928E"/></linearGradient><linearGradient id="f" x1="223.934" y1="298.231" x2="255.306" y2="213.508" gradientUnits="userSpaceOnUse"><stop stop-color="#FEBBBA"/><stop offset="1" stop-color="#FF928E"/></linearGradient><linearGradient id="g" x1="284.166" y1="169.922" x2="192.202" y2="208.392" gradientUnits="userSpaceOnUse"><stop stop-color="#FEBBBA"/><stop offset="1" stop-color="#FF928E"/></linearGradient><linearGradient id="h" x1="277.93" y1="155.012" x2="185.966" y2="193.484" gradientUnits="userSpaceOnUse"><stop stop-color="#FEBBBA"/><stop offset="1" stop-color="#FF928E"/></linearGradient><linearGradient id="i" x1="213.679" y1="248.785" x2="62.678" y2="444.199" gradientUnits="userSpaceOnUse"><stop stop-color="#FE7062"/><stop offset="1" stop-color="#FF928E"/></linearGradient><linearGradient id="j" x1="424.758" y1="169.655" x2="-42.459" y2="496.527" gradientUnits="userSpaceOnUse"><stop stop-color="#FEBBBA"/><stop offset="1" stop-color="#FF928E"/></linearGradient><linearGradient id="k" x1="159.279" y1="352.575" x2="209.9" y2="485.793" gradientUnits="userSpaceOnUse"><stop stop-color="#FEBBBA"/><stop offset="1" stop-color="#FF928E"/></linearGradient><linearGradient id="l" x1="222.087" y1="328.708" x2="272.71" y2="461.924" gradientUnits="userSpaceOnUse"><stop stop-color="#FEBBBA"/><stop offset="1" stop-color="#FF928E"/></linearGradient><linearGradient id="m" x1="216.51" y1="407.416" x2="337.927" y2="436.603" gradientUnits="userSpaceOnUse"><stop stop-color="#4042E2"/><stop offset="1" stop-color="#4F52FF"/></linearGradient><linearGradient id="n" x1="219.177" y1="396.321" x2="340.594" y2="425.507" gradientUnits="userSpaceOnUse"><stop stop-color="#4042E2"/><stop offset="1" stop-color="#4F52FF"/></linearGradient><linearGradient id="c" x1="453.104" y1="520.004" x2="44.461" y2="-16.261" gradientUnits="userSpaceOnUse"><stop stop-color="#010648"/><stop offset="1" stop-color="#242771"/></linearGradient><linearGradient id="p" x1="364.3" y1="441.463" x2="366.668" y2="344.359" gradientUnits="userSpaceOnUse"><stop stop-color="#4042E2"/><stop offset="1" stop-color="#4F52FF"/></linearGradient><linearGradient id="q" x1="355.628" y1="279.564" x2="356.812" y2="349.433" gradientUnits="userSpaceOnUse"><stop stop-color="#4042E2"/><stop offset="1" stop-color="#4F52FF"/></linearGradient><linearGradient id="r" x1="236.621" y1="207.341" x2="263.718" y2="181.288" gradientUnits="userSpaceOnUse"><stop stop-color="#4042E2"/><stop offset="1" stop-color="#4F52FF"/></linearGradient><linearGradient id="s" x1="315.972" y1="182.791" x2="208.205" y2="285.038" gradientUnits="userSpaceOnUse"><stop stop-color="#30ABBA"/><stop offset="1" stop-color="#4F52FF"/></linearGradient><linearGradient id="t" x1="268.303" y1="200.047" x2="278.664" y2="200.047" gradientUnits="userSpaceOnUse"><stop stop-color="#4042E2"/><stop offset="1" stop-color="#4F52FF"/></linearGradient><linearGradient id="u" x1="293.098" y1="198.413" x2="271.444" y2="228.913" gradientUnits="userSpaceOnUse"><stop stop-color="#30ABBA"/><stop offset="1" stop-color="#4F52FF"/></linearGradient><linearGradient id="v" x1="327.128" y1="108.893" x2="100.82" y2="187.354" gradientUnits="userSpaceOnUse"><stop stop-color="#4042E2"/><stop offset="1" stop-color="#4F52FF"/></linearGradient><linearGradient id="w" x1="316.6" y1="119.935" x2="139.202" y2="203.74" gradientUnits="userSpaceOnUse"><stop stop-color="#30ABBA"/><stop offset="1" stop-color="#4F52FF"/></linearGradient><linearGradient id="x" x1="274.842" y1="159.879" x2="158.699" y2="200.146" gradientUnits="userSpaceOnUse"><stop stop-color="#30ABBA"/><stop offset="1" stop-color="#4F52FF"/></linearGradient><linearGradient id="y" x1="214.79" y1="101.856" x2="224.264" y2="135.803" gradientUnits="userSpaceOnUse"><stop stop-color="#4042E2"/><stop offset="1" stop-color="#4F52FF"/></linearGradient><linearGradient id="z" x1="256.672" y1="162.691" x2="185.906" y2="180.236" gradientUnits="userSpaceOnUse"><stop stop-color="#30ABBA"/><stop offset="1" stop-color="#4F52FF"/></linearGradient><clipPath id="a"><path fill="#fff" transform="translate(.896)" d="M0 0h491.927v480H0z"/></clipPath></defs></svg>