<svg width="24" height="24" viewBox="0 0 24 24" fill="none" xmlns="http://www.w3.org/2000/svg">
<path d="M5.73511 5.16548C5.73511 4.66735 6.13813 4.25982 6.64077 4.25982H17.3593C17.8619 4.25982 18.2649 4.66735 18.2649 5.16548V6.92699H19.32V3.56244C19.32 3.29075 19.0981 3.06887 18.8264 3.06887H10.9336C10.3947 3.06887 9.91019 2.76999 9.66567 2.29452L9.23548 1.45227C9.1449 1.28019 8.96832 1.17151 8.77361 1.17151H5.19171C4.91549 1.17151 4.6936 1.39339 4.6936 1.66508V6.92699H5.73511V5.16548Z" fill="#6165D7"/>
<path d="M6.64075 5.16543H17.3592V6.92694H6.64075V5.16543Z" fill="#6165D7"/>
<path d="M20.0763 7.83265H3.92381C3.6199 7.83265 3.36303 8.10183 3.41211 8.42586L4.58496 16.3594C4.62116 16.6175 4.83854 16.8077 5.09663 16.8077H6.61816V13.3074C6.61816 12.5783 7.19323 11.9806 7.93135 11.9534C9.32607 11.8855 10.3902 11.5685 11.1646 10.9798C11.4181 10.7942 11.7034 10.699 12.0023 10.699C12.2966 10.699 12.5819 10.7942 12.8264 10.9708C13.6099 11.5685 14.674 11.8855 16.0823 11.9579C16.8023 11.9806 17.3774 12.5783 17.3774 13.3074V16.8077H18.9034C19.157 16.8077 19.3789 16.6175 19.4151 16.364L20.588 8.42586C20.6365 8.1057 20.3846 7.83265 20.0763 7.83265Z" fill="#6165D7"/>
<path d="M16.037 12.8606C14.5744 12.7881 13.2883 12.4575 12.2876 11.7013C12.1155 11.5745 11.8846 11.5745 11.7125 11.7013C10.7117 12.4575 9.42567 12.7881 7.96304 12.8606C7.71852 12.8696 7.5238 13.0689 7.5238 13.3088V16.9134C7.5238 18.5255 8.16228 20.0968 9.35323 21.1881C10.3721 22.1255 11.4227 22.6236 11.8257 22.7911C11.9389 22.8409 12.0611 22.8409 12.1744 22.7911C12.5638 22.6281 13.5464 22.1662 14.5336 21.2922C14.5427 21.2877 14.5472 21.2741 14.5562 21.2696C15.797 20.1783 16.4717 18.5662 16.4717 16.9089V13.3088C16.4717 13.0689 16.2815 12.8696 16.037 12.8606ZM12.7116 17.1468C12.6186 17.2244 12.572 17.3407 12.5875 17.461C12.638 17.7945 12.7349 18.4538 12.797 18.8765C12.828 19.0859 12.6651 19.2721 12.4518 19.2721H11.5482C11.3349 19.2721 11.172 19.0859 11.203 18.8726L11.4086 17.461C11.4279 17.3446 11.3853 17.2244 11.2922 17.1507C11.0401 16.9451 10.8811 16.631 10.8811 16.282C10.8811 15.5451 11.5986 14.9673 12.3626 15.2194C12.6923 15.3279 12.956 15.5955 13.0607 15.9213C13.2158 16.4061 13.0452 16.8715 12.7116 17.1468Z" fill="#6165D7"/>
</svg>
