<svg width="24" height="24" viewBox="0 0 24 24" fill="none" xmlns="http://www.w3.org/2000/svg">
<g clip-path="url(#clip0_1248_450)">
<mask id="mask0_1248_450" style="mask-type:luminance" maskUnits="userSpaceOnUse" x="0" y="0" width="24" height="24">
<path d="M0 0H24V24H0V0Z" fill="white"/>
</mask>
<g mask="url(#mask0_1248_450)">
<path fill-rule="evenodd" clip-rule="evenodd" d="M17.25 9.75C17.25 12.6495 14.8995 15 12 15C9.1005 15 6.75 12.6495 6.75 9.75C6.75 6.85051 9.1005 4.5 12 4.5C14.8995 4.5 17.25 6.85051 17.25 9.75ZM14.7568 8.8029L11.4841 11.8029C11.1974 12.0657 10.7572 12.0657 10.4704 11.8029L9.24322 10.6779C8.9379 10.398 8.91728 9.92355 9.19718 9.61823C9.477 9.3129 9.95145 9.29227 10.2568 9.5721L10.9773 10.2326L13.7432 7.6971C14.0486 7.41724 14.523 7.43787 14.8029 7.74322C15.0828 8.04855 15.0621 8.523 14.7568 8.8029Z" fill="#6165D7"/>
<path fill-rule="evenodd" clip-rule="evenodd" d="M12 0C6.61522 0 2.25 4.36522 2.25 9.75C2.25 13.2018 4.04377 16.2346 6.75 17.9673V23.25C6.75 23.51 6.88459 23.7513 7.1057 23.888C7.32681 24.0247 7.6029 24.0371 7.8354 23.9208L12 21.8385L16.1646 23.9208C16.3971 24.0371 16.6732 24.0247 16.8943 23.888C17.1154 23.7513 17.25 23.51 17.25 23.25V17.9673C19.9562 16.2346 21.75 13.2018 21.75 9.75C21.75 4.36522 17.3848 0 12 0ZM12 16.5C15.728 16.5 18.75 13.478 18.75 9.75C18.75 6.02208 15.728 3 12 3C8.27205 3 5.25 6.02208 5.25 9.75C5.25 13.478 8.27205 16.5 12 16.5Z" fill="#6165D7"/>
</g>
</g>
<defs>
<clipPath id="clip0_1248_450">
<rect width="24" height="24" fill="white"/>
</clipPath>
</defs>
</svg>
