<svg width="24" height="24" viewBox="0 0 24 24" fill="none" xmlns="http://www.w3.org/2000/svg">
<path d="M20.8941 1.41176H18.7765V3.52941C18.7765 3.95294 18.4235 4.23529 18.0706 4.23529C17.7177 4.23529 17.3647 3.95294 17.3647 3.52941V1.41176H6.07059V3.52941C6.07059 3.95294 5.71765 4.23529 5.36471 4.23529C5.01177 4.23529 4.65883 3.95294 4.65883 3.52941V1.41176H2.54118C1.48236 1.41176 0.705887 2.32941 0.705887 3.52941V6.07059H23.2941V3.52941C23.2941 2.32941 22.0235 1.41176 20.8941 1.41176ZM0.705887 7.55294V20.4706C0.705887 21.7412 1.48236 22.5882 2.61177 22.5882H20.9647C22.0941 22.5882 23.3647 21.6706 23.3647 20.4706V7.55294H0.705887ZM6.98824 19.4118H5.29412C5.01177 19.4118 4.72942 19.2 4.72942 18.8471V17.0824C4.72942 16.8 4.94118 16.5176 5.29412 16.5176H7.05883C7.34118 16.5176 7.62353 16.7294 7.62353 17.0824V18.8471C7.55295 19.2 7.34118 19.4118 6.98824 19.4118ZM6.98824 13.0588H5.29412C5.01177 13.0588 4.72942 12.8471 4.72942 12.4941V10.7294C4.72942 10.4471 4.94118 10.1647 5.29412 10.1647H7.05883C7.34118 10.1647 7.62353 10.3765 7.62353 10.7294V12.4941C7.55295 12.8471 7.34118 13.0588 6.98824 13.0588ZM12.6353 19.4118H10.8706C10.5882 19.4118 10.3059 19.2 10.3059 18.8471V17.0824C10.3059 16.8 10.5177 16.5176 10.8706 16.5176H12.6353C12.9177 16.5176 13.2 16.7294 13.2 17.0824V18.8471C13.2 19.2 12.9882 19.4118 12.6353 19.4118ZM12.6353 13.0588H10.8706C10.5882 13.0588 10.3059 12.8471 10.3059 12.4941V10.7294C10.3059 10.4471 10.5177 10.1647 10.8706 10.1647H12.6353C12.9177 10.1647 13.2 10.3765 13.2 10.7294V12.4941C13.2 12.8471 12.9882 13.0588 12.6353 13.0588ZM18.2824 19.4118H16.5177C16.2353 19.4118 15.9529 19.2 15.9529 18.8471V17.0824C15.9529 16.8 16.1647 16.5176 16.5177 16.5176H18.2824C18.5647 16.5176 18.8471 16.7294 18.8471 17.0824V18.8471C18.8471 19.2 18.6353 19.4118 18.2824 19.4118ZM18.2824 13.0588H16.5177C16.2353 13.0588 15.9529 12.8471 15.9529 12.4941V10.7294C15.9529 10.4471 16.1647 10.1647 16.5177 10.1647H18.2824C18.5647 10.1647 18.8471 10.3765 18.8471 10.7294V12.4941C18.8471 12.8471 18.6353 13.0588 18.2824 13.0588Z" fill="#6165D7"/>
</svg>
