<svg width="24" height="24" viewBox="0 0 24 24" fill="none" xmlns="http://www.w3.org/2000/svg">
<g clip-path="url(#clip0_1248_447)">
<path d="M17.36 6.64006C17.5064 6.78649 17.7438 6.78645 17.8902 6.64006L23.8901 0.640164C24.0366 0.493682 24.0366 0.256311 23.8901 0.109829C23.7437 -0.0365589 23.5063 -0.0365589 23.3598 0.109829L21.2831 2.18654C20.9868 1.98991 20.6317 1.87497 20.25 1.87497H12.6213C12.1206 1.87497 11.6496 2.06997 11.2957 2.42434L0.508034 13.212C-0.169673 13.8897 -0.169017 14.9855 0.508034 15.6625L8.33743 23.4919C9.01518 24.1696 10.111 24.169 10.788 23.4919C16.4159 17.8646 13.9307 20.3498 21.5756 12.7043C21.93 12.3499 22.125 11.8793 22.125 11.3787C22.125 4.55481 22.1461 3.68928 22.095 3.39351C22.0822 3.31898 21.99 3.29062 21.9365 3.3441L19.7847 5.49591C19.7466 5.53397 19.7351 5.59036 19.7527 5.64126C20.2687 7.13233 19.113 8.70515 17.5026 8.62171C16.3151 8.56017 15.3743 7.56221 15.3751 6.37316C15.3764 4.54145 17.4533 3.4918 18.9276 4.54202L17.3599 6.10972C17.2135 6.25621 17.2135 6.49358 17.36 6.64006Z" fill="#6165D7"/>
</g>
<defs>
<clipPath id="clip0_1248_447">
<rect width="24" height="24" fill="white"/>
</clipPath>
</defs>
</svg>
