<svg width="24" height="24" viewBox="0 0 24 24" fill="none" xmlns="http://www.w3.org/2000/svg">
<g clip-path="url(#clip0_1248_457)">
<path d="M23.2969 8.90382H21.7969C21.4086 8.90382 21.0938 9.21863 21.0938 9.60694V19.9194C21.0938 20.3078 21.4086 20.6226 21.7969 20.6226H23.2969C23.6852 20.6226 24 20.3078 24 19.9194V9.60694C24 9.21863 23.6852 8.90382 23.2969 8.90382Z" fill="#6165D7"/>
<path d="M13.5956 4.4663L14.7675 2.43656C15.0264 1.98816 14.8727 1.41478 14.4243 1.15589L13.6124 0.687143C13.164 0.428252 12.5907 0.581908 12.3318 1.03031L11.1599 3.06005L13.5956 4.4663Z" fill="#6165D7"/>
<path d="M0.835168 16.4672C1.23693 16.6963 1.74961 16.5467 1.98084 16.1462L7.72682 6.19388C7.19081 6.06652 6.61875 6.17982 6.16861 6.51741L4.17796 8.01038C3.59868 8.44486 3.11737 8.99649 2.76543 9.6293L0.20873 14.2266C-0.23016 15.0158 0.0451367 16.0111 0.827152 16.4626C0.829824 16.4642 0.832496 16.4657 0.835168 16.4672Z" fill="#6165D7"/>
<path d="M5.00437 14.0668H8.05275L12.8925 5.68411L10.4568 4.27786L4.8008 14.0744C4.86816 14.0699 4.93589 14.0668 5.00437 14.0668Z" fill="#6165D7"/>
<path d="M2.27049 18.457L1.54303 19.717C1.50882 19.7763 1.48346 19.8402 1.46771 19.9068L0.796879 22.7443C0.668488 23.2873 1.32394 23.6657 1.73007 23.283L3.852 21.2834C3.90178 21.2365 3.94449 21.1825 3.97871 21.1232L4.55386 20.127C3.54975 19.9776 2.70432 19.3364 2.27049 18.457Z" fill="#6165D7"/>
<path d="M10.5998 20.1606H6.15829L5.23026 21.7679C5.52866 22.0772 5.94711 22.2699 6.4108 22.2699C7.3169 22.2699 8.05143 21.5354 8.05143 20.6293C8.05143 21.5354 8.78596 22.2699 9.69205 22.2699C10.5981 22.2699 11.3327 21.5354 11.3327 20.6293V20.5222C11.1625 20.4443 10.7727 20.2463 10.5998 20.1606Z" fill="#6165D7"/>
<path d="M13.3976 7.62173L9.67649 14.0668H10.7812C11.1696 14.0668 11.4844 14.3816 11.4844 14.7699C11.4844 15.1582 11.1696 15.473 10.7813 15.4731H5.00436C4.09827 15.4731 3.36374 16.2076 3.36374 17.1137C3.36374 18.0198 4.09827 18.7543 5.00436 18.7543H10.9316L11.7093 19.1428C13.0401 19.8083 14.5307 20.1605 16.0201 20.1605C17.254 20.1605 18.5295 19.918 19.6875 19.4567V10.3167H18.5794L13.3976 7.62173Z" fill="#6165D7"/>
</g>
<defs>
<clipPath id="clip0_1248_457">
<rect width="24" height="24" fill="white"/>
</clipPath>
</defs>
</svg>
