<svg width="24" height="24" viewBox="0 0 24 24" fill="none" xmlns="http://www.w3.org/2000/svg">
<g clip-path="url(#clip0_1248_469)">
<path d="M4.28572 15.7371V7.91572C4.2852 7.77253 4.31683 7.63105 4.37829 7.50172C4.39958 7.45672 4.42482 7.41369 4.45372 7.37315C4.49375 7.30902 4.54316 7.25124 4.60029 7.20172L8.08415 3.71615C8.26821 3.53269 8.51727 3.42933 8.77714 3.42858H14.0229C14.5623 3.42905 14.9995 3.86625 15 4.40572V6.42858H15.4483L17.8286 4.04829C13.9043 1.17355 8.46993 1.59047 5.03013 5.03016C1.59033 8.46985 1.17324 13.9043 4.04786 17.8286L5.17157 16.7049C4.67097 16.6589 4.28737 16.2399 4.28572 15.7371Z" fill="#6165D7"/>
<path d="M8.02029 7.28571C8.08798 7.28571 8.14286 7.23084 8.14286 7.16314V4.87071L5.72743 7.28571H8.02029Z" fill="#6165D7"/>
<path d="M11.1429 10.1631V7.86771L8.72485 10.2857H11.0203C11.088 10.2857 11.1429 10.2308 11.1429 10.1631Z" fill="#6165D7"/>
<path d="M7.28572 10.9179C7.28617 10.7758 7.31716 10.6355 7.37657 10.5064L7.39843 10.4636C7.41724 10.4267 7.43888 10.3913 7.46315 10.3577C7.49497 10.3098 7.53174 10.2655 7.57286 10.2253L11.0829 6.71529C11.2664 6.53091 11.5161 6.42767 11.7763 6.42857H14.1429V4.40571C14.1404 4.34047 14.0881 4.28814 14.0229 4.28571H9V7.16314C8.99953 7.70403 8.56117 8.14238 8.02029 8.14286H5.14286V15.7371C5.14251 15.7691 5.15504 15.7998 5.17762 15.8224C5.2002 15.845 5.23093 15.8575 5.26286 15.8571H7.28572V10.9179Z" fill="#6165D7"/>
<path d="M20.4857 3.51429C15.7992 -1.17224 8.20082 -1.17224 3.51429 3.51429C-1.17224 8.20082 -1.17224 15.7992 3.51429 20.4857C8.20082 25.1722 15.7992 25.1722 20.4857 20.4857C25.1722 15.7992 25.1722 8.20082 20.4857 3.51429ZM19.5771 19.5771C15.705 23.4706 9.51194 23.7949 5.25429 20.3271C5.16089 20.2489 5.10359 20.1359 5.09572 20.0143C5.09039 19.8932 5.13538 19.7753 5.22 19.6886L7.28572 17.6271V16.7143H6.37286L4.31143 18.78C4.22926 18.8582 4.1206 18.9026 4.00714 18.9043H3.98572C3.86414 18.8964 3.75109 18.8391 3.67286 18.7457C0.221162 14.483 0.545171 8.3021 4.42364 4.42364C8.3021 0.545171 14.483 0.221162 18.7457 3.67286C18.8391 3.75109 18.8964 3.86414 18.9043 3.98572C18.9096 4.10679 18.8646 4.22468 18.78 4.31143L16.6586 6.42857H17.0229C17.4056 6.42935 17.7526 6.65394 17.91 7.00286L19.6886 5.22C19.7752 5.1344 19.8939 5.08931 20.0154 5.09584C20.137 5.10237 20.2502 5.15991 20.3271 5.25429C23.7933 9.51247 23.469 15.7043 19.5771 19.5771Z" fill="#6165D7"/>
<path d="M17.0229 7.28572H12V10.1614C11.9977 10.7025 11.5596 11.1405 11.0186 11.1429H8.14286V18.7372C8.14203 18.7692 8.1544 18.8002 8.17709 18.8229C8.19978 18.8456 8.23079 18.858 8.26286 18.8572H17.0229C17.0886 18.8558 17.1415 18.8029 17.1429 18.7372V7.40572C17.1415 7.34002 17.0886 7.28709 17.0229 7.28572ZM15.4286 17.5714H9.85715C9.62045 17.5714 9.42858 17.3796 9.42858 17.1429C9.42858 16.9062 9.62045 16.7143 9.85715 16.7143H15.4286C15.6653 16.7143 15.8571 16.9062 15.8571 17.1429C15.8571 17.3796 15.6653 17.5714 15.4286 17.5714ZM15.4286 15.4286H9.85715C9.62045 15.4286 9.42858 15.2367 9.42858 15C9.42858 14.7633 9.62045 14.5714 9.85715 14.5714H15.4286C15.6653 14.5714 15.8571 14.7633 15.8571 15C15.8571 15.2367 15.6653 15.4286 15.4286 15.4286ZM15.4286 13.2857H9.85715C9.62045 13.2857 9.42858 13.0938 9.42858 12.8572C9.42858 12.6205 9.62045 12.4286 9.85715 12.4286H15.4286C15.6653 12.4286 15.8571 12.6205 15.8571 12.8572C15.8571 13.0938 15.6653 13.2857 15.4286 13.2857Z" fill="#6165D7"/>
<path d="M19.9521 6.17143L18 8.12315V18.738C17.9995 19.2768 17.563 19.7136 17.0241 19.7143H8.26158C7.75904 19.7126 7.34026 19.3289 7.29472 18.8284L6.17143 19.9517C10.0957 22.8265 15.5301 22.4095 18.9699 18.9698C22.4097 15.5302 22.8268 10.0958 19.9521 6.17143Z" fill="#6165D7"/>
</g>
<defs>
<clipPath id="clip0_1248_469">
<rect width="24" height="24" fill="white"/>
</clipPath>
</defs>
</svg>
