<svg width="480" height="480" viewBox="0 0 480 480" fill="none" xmlns="http://www.w3.org/2000/svg">
<g clip-path="url(#clip0_18_411)">
<path opacity="0.3" d="M448.584 317.642C401.877 426.816 278.584 473.708 181.982 465.713C155.604 463.531 102.535 459.138 61.0929 419.952C-18.4858 344.698 -6.22011 187.396 69.95 94.7842C79.7654 82.8585 147.676 2.95354 253.486 4.02334C330.96 4.80808 385.332 48.5701 391.95 54.0221C400.304 60.9097 418.726 77.276 435.331 103.241C474.343 164.251 477.772 249.419 448.584 317.642Z" fill="url(#paint0_linear_18_411)"/>
<path d="M372.625 429.412C372.625 429.412 336.908 319.513 346.752 263.839C355.543 214.154 372.606 145.059 376.176 130.77C376.228 130.552 376.345 130.354 376.512 130.203C376.679 130.052 376.887 129.955 377.109 129.924C377.332 129.894 377.559 129.931 377.76 130.032C377.961 130.132 378.127 130.291 378.237 130.487C386.362 144.837 426.372 222.903 396.354 321.764C363.069 431.366 372.625 429.412 372.625 429.412Z" fill="url(#paint1_linear_18_411)"/>
<path opacity="0.43" d="M382.069 166.351C382.397 182.736 381.939 199.106 381.039 215.462C380.139 231.818 378.635 248.129 376.542 264.374C375.474 272.493 374.236 280.59 372.829 288.663C371.394 296.73 369.756 304.759 367.917 312.75C366.028 320.722 363.914 328.651 361.522 336.496C359.07 344.325 356.339 352.069 353.247 359.678C353.158 359.898 352.985 360.073 352.766 360.165C352.548 360.257 352.302 360.258 352.083 360.169C351.863 360.08 351.688 359.907 351.596 359.689C351.504 359.47 351.502 359.224 351.591 359.005V358.996C354.694 351.46 357.442 343.777 359.913 336.002C362.327 328.208 364.458 320.326 366.383 312.391C368.242 304.44 369.908 296.446 371.382 288.409C372.814 280.368 374.083 272.297 375.19 264.197C377.353 247.999 378.92 231.732 379.892 215.396C380.864 199.083 381.393 182.719 381.139 166.385V166.375C381.143 166.256 381.193 166.144 381.278 166.061C381.363 165.978 381.476 165.93 381.595 165.928C381.714 165.926 381.829 165.969 381.917 166.049C382.005 166.129 382.059 166.239 382.068 166.358L382.069 166.351Z" fill="white"/>
<path d="M364.413 453.225C364.413 453.225 371.263 337.867 400.749 289.628C427.063 246.579 468.166 188.475 476.704 176.475C476.833 176.293 477.014 176.154 477.223 176.075C477.432 175.997 477.66 175.983 477.877 176.035C478.094 176.087 478.29 176.204 478.441 176.369C478.591 176.534 478.688 176.74 478.72 176.961C481.054 193.29 489.829 280.577 425.795 361.663C354.808 451.559 364.413 453.225 364.413 453.225Z" fill="url(#paint2_linear_18_411)"/>
<path opacity="0.43" d="M469.207 211.753C463.54 227.127 457.132 242.2 450.318 257.086C443.505 271.972 436.16 286.621 428.28 300.984C424.321 308.155 420.215 315.241 415.959 322.244C411.678 329.227 407.224 336.104 402.596 342.876C397.921 349.607 393.066 356.218 387.975 362.651C382.837 369.045 377.467 375.258 371.811 381.213C371.647 381.38 371.424 381.475 371.19 381.479C370.956 381.482 370.731 381.394 370.561 381.233C370.392 381.072 370.292 380.851 370.284 380.618C370.275 380.384 370.359 380.157 370.516 379.984C376.154 374.099 381.516 367.95 386.658 361.61C391.749 355.234 396.617 348.675 401.298 341.99C405.931 335.268 410.4 328.433 414.704 321.485C418.973 314.521 423.1 307.471 427.085 300.335C435.009 286.042 442.404 271.469 449.271 256.616C456.139 241.781 462.596 226.737 468.318 211.44V211.43C468.361 211.314 468.448 211.221 468.56 211.169C468.672 211.118 468.8 211.113 468.916 211.156C469.032 211.199 469.126 211.286 469.177 211.399C469.228 211.511 469.233 211.639 469.19 211.755L469.207 211.753Z" fill="white"/>
<path d="M0.203853 160.01C10.8486 190.584 78.2011 365.713 211.383 324.201C211.383 324.201 189.044 196.078 2.31425 156.275C0.686377 155.929 -0.4916 158.011 0.203853 160.01Z" fill="url(#paint3_linear_18_411)"/>
<path d="M0.203853 160.01C10.8486 190.584 78.2011 365.713 211.383 324.201C211.383 324.201 189.044 196.078 2.31425 156.275C0.686377 155.929 -0.4916 158.011 0.203853 160.01Z" fill="url(#paint4_linear_18_411)"/>
<path opacity="0.43" d="M22.9615 177.081C28.6642 184.855 34.6709 192.424 40.796 199.88C46.9212 207.336 53.2318 214.648 59.6849 221.819C72.6014 236.157 86.1482 249.942 100.492 262.842C114.835 275.741 129.989 287.766 146.302 298.026C150.386 300.576 154.526 303.035 158.76 305.321C162.995 307.607 167.303 309.741 171.692 311.699C180.474 315.591 189.608 318.715 198.995 320.628C199.227 320.675 199.431 320.813 199.561 321.011C199.692 321.209 199.738 321.45 199.691 321.682C199.643 321.914 199.505 322.118 199.308 322.248C199.11 322.379 198.868 322.425 198.636 322.378C189.098 320.386 179.864 317.176 171.012 313.206C166.589 311.209 162.255 309.032 157.993 306.714C153.731 304.395 149.579 301.906 145.483 299.314C129.122 288.919 113.973 276.758 99.6348 263.781C85.2964 250.804 71.7995 236.909 58.9242 222.49C52.4905 215.278 46.2166 207.926 40.1023 200.435C34.0012 192.939 28.0272 185.344 22.3382 177.517C22.309 177.477 22.288 177.432 22.2764 177.383C22.2648 177.335 22.2628 177.285 22.2705 177.236C22.2782 177.187 22.2955 177.14 22.3214 177.098C22.3474 177.055 22.3813 177.019 22.4215 176.989C22.4616 176.96 22.5071 176.939 22.5554 176.927C22.6036 176.916 22.6537 176.914 22.7027 176.922C22.7518 176.929 22.7988 176.947 22.8411 176.973C22.8835 176.998 22.9203 177.032 22.9495 177.073L22.9615 177.081Z" fill="white"/>
<path d="M100.888 1.90074C101.3 -0.819251 103.84 -0.286929 105.999 1.41822C224.16 94.7961 270.675 270.104 240.109 320.454C240.115 320.454 55.9792 298.241 100.888 1.90074Z" fill="url(#paint5_linear_18_411)"/>
<path d="M100.888 1.90074C101.3 -0.819251 103.84 -0.286929 105.999 1.41822C224.16 94.7961 270.675 270.104 240.109 320.454C240.115 320.454 55.9792 298.241 100.888 1.90074Z" fill="url(#paint6_linear_18_411)"/>
<path opacity="0.43" d="M108.944 38.0183C109.06 38.6759 109.241 39.4143 109.397 40.1218L109.912 42.2614L110.99 46.5354C111.724 49.3773 112.489 52.2124 113.262 55.044C114.823 60.7049 116.449 66.3441 118.141 71.9615C121.494 83.2147 125.061 94.3998 128.842 105.517C136.444 127.73 144.748 149.71 154.157 171.216C158.901 181.946 163.752 192.634 169.022 203.119C169.657 204.441 170.327 205.746 171.005 207.046L173.025 210.954L175.042 214.864C175.729 216.161 176.44 217.44 177.137 218.731C178.549 221.307 179.921 223.895 181.363 226.448L185.74 234.079C186.106 234.715 186.462 235.357 186.836 235.987L187.976 237.876L190.253 241.64L192.532 245.402C193.306 246.647 194.113 247.872 194.903 249.106L197.285 252.805C198.089 254.031 198.848 255.286 199.689 256.483L204.669 263.73C211.425 273.324 218.682 282.555 226.41 291.386C226.458 291.444 226.482 291.518 226.476 291.593C226.471 291.668 226.437 291.738 226.381 291.788C226.325 291.838 226.252 291.865 226.177 291.862C226.102 291.86 226.031 291.828 225.979 291.775C218.003 283.122 210.638 273.916 203.688 264.425L198.612 257.203C197.754 256.011 196.974 254.759 196.155 253.538L193.741 249.848C192.937 248.617 192.113 247.396 191.323 246.156L189 242.404L186.676 238.65L185.514 236.774C185.131 236.147 184.769 235.506 184.396 234.873C172.429 214.6 161.922 193.489 152.546 171.916L149.072 163.806L145.72 155.644C144.585 152.931 143.546 150.18 142.458 147.448L140.84 143.346L139.277 139.225C135.091 128.235 131.152 117.155 127.46 105.986C123.778 94.8239 120.272 83.5902 117.059 72.2809C115.456 66.6223 113.916 60.9488 112.438 55.2604C111.708 52.4133 110.987 49.5628 110.295 46.7071L109.282 42.4142L108.799 40.2609C108.652 39.5328 108.483 38.8425 108.367 38.0509C108.359 37.9778 108.38 37.9046 108.425 37.8463C108.469 37.788 108.535 37.749 108.607 37.7372C108.68 37.7253 108.754 37.7416 108.815 37.7827C108.876 37.8238 108.919 37.8865 108.935 37.9582L108.944 38.0183Z" fill="white"/>
<path d="M76.4977 464.725H413.997V397.181H76.4977C83.7218 397.181 83.7218 464.725 76.4977 464.725Z" fill="url(#paint7_linear_18_411)"/>
<path d="M413.997 447.822V416.913C413.997 406.014 407.327 397.181 399.1 397.181H77.9211C74.8138 397.181 71.8337 395.947 69.6365 393.75C67.4392 391.552 66.2049 388.572 66.2049 385.465C66.204 384.997 66.2954 384.533 66.4739 384.101C66.6523 383.668 66.9144 383.275 67.245 382.943C67.5757 382.612 67.9684 382.349 68.4007 382.17C68.8331 381.991 69.2965 381.898 69.7645 381.898H420.79C428.84 381.898 441.621 394.556 441.621 410.168V453.343C441.621 468.064 429.212 479.997 421.623 479.997H71.6054C70.1717 479.997 68.7967 479.427 67.783 478.414C66.7692 477.4 66.1997 476.025 66.1997 474.591C66.2006 471.974 67.241 469.465 69.092 467.615C70.943 465.765 73.453 464.726 76.07 464.726H401.235C408.284 464.726 413.997 457.158 413.997 447.822Z" fill="url(#paint8_linear_18_411)"/>
<path d="M404.636 411.617H88.1846C88.0307 411.617 87.8831 411.556 87.7742 411.447C87.6654 411.338 87.6042 411.19 87.6042 411.036C87.6042 410.883 87.6654 410.735 87.7742 410.626C87.8831 410.517 88.0307 410.456 88.1846 410.456H404.636C404.79 410.456 404.938 410.517 405.047 410.626C405.156 410.735 405.217 410.883 405.217 411.036C405.217 411.19 405.156 411.338 405.047 411.447C404.938 411.556 404.79 411.617 404.636 411.617Z" fill="white"/>
<path d="M404.636 421.643H88.1846C88.0307 421.643 87.8831 421.582 87.7742 421.473C87.6654 421.364 87.6042 421.217 87.6042 421.063C87.6042 420.909 87.6654 420.761 87.7742 420.652C87.8831 420.544 88.0307 420.482 88.1846 420.482H404.636C404.79 420.482 404.938 420.544 405.047 420.652C405.156 420.761 405.217 420.909 405.217 421.063C405.217 421.217 405.156 421.364 405.047 421.473C404.938 421.582 404.79 421.643 404.636 421.643Z" fill="white"/>
<path d="M404.636 431.671H88.1846C88.0307 431.671 87.8831 431.609 87.7742 431.501C87.6654 431.392 87.6042 431.244 87.6042 431.09C87.6042 430.936 87.6654 430.789 87.7742 430.68C87.8831 430.571 88.0307 430.51 88.1846 430.51H404.636C404.79 430.51 404.938 430.571 405.047 430.68C405.156 430.789 405.217 430.936 405.217 431.09C405.217 431.244 405.156 431.392 405.047 431.501C404.938 431.609 404.79 431.671 404.636 431.671Z" fill="white"/>
<path d="M404.636 441.697H88.1846C88.0307 441.697 87.8831 441.636 87.7742 441.527C87.6654 441.418 87.6042 441.27 87.6042 441.117C87.6042 440.963 87.6654 440.815 87.7742 440.706C87.8831 440.597 88.0307 440.536 88.1846 440.536H404.636C404.79 440.536 404.938 440.597 405.047 440.706C405.156 440.815 405.217 440.963 405.217 441.117C405.217 441.27 405.156 441.418 405.047 441.527C404.938 441.636 404.79 441.697 404.636 441.697Z" fill="white"/>
<path d="M404.636 451.723H88.1846C88.0307 451.723 87.8831 451.662 87.7742 451.553C87.6654 451.444 87.6042 451.297 87.6042 451.143C87.6042 450.989 87.6654 450.841 87.7742 450.732C87.8831 450.624 88.0307 450.562 88.1846 450.562H404.636C404.79 450.562 404.938 450.624 405.047 450.732C405.156 450.841 405.217 450.989 405.217 451.143C405.217 451.297 405.156 451.444 405.047 451.553C404.938 451.662 404.79 451.723 404.636 451.723Z" fill="white"/>
<path d="M113.284 381.596L410.069 381.596C411.975 381.596 413.519 380.051 413.519 378.146V311.741C413.519 309.836 411.975 308.292 410.069 308.292L113.284 308.292C111.379 308.292 109.835 309.836 109.835 311.741V378.146C109.835 380.051 111.379 381.596 113.284 381.596Z" fill="url(#paint9_linear_18_411)"/>
<path d="M344.766 373.171H377.955C378.642 373.171 379.198 372.614 379.198 371.928V317.959C379.198 317.272 378.642 316.716 377.955 316.716H344.766C344.079 316.716 343.522 317.272 343.522 317.959V371.928C343.522 372.614 344.079 373.171 344.766 373.171Z" fill="#53D8FF"/>
<path d="M325.52 373.171H337.645C337.993 373.171 338.275 372.889 338.275 372.541V317.346C338.275 316.998 337.993 316.716 337.645 316.716H325.52C325.172 316.716 324.889 316.998 324.889 317.346V372.541C324.889 372.889 325.172 373.171 325.52 373.171Z" fill="#53D8FF"/>
<path d="M91.6361 308.678L436.246 308.678C438.151 308.678 439.696 307.133 439.696 305.228V248.288C439.696 246.383 438.151 244.839 436.246 244.839L91.6361 244.839C89.7309 244.839 88.1863 246.383 88.1863 248.288V305.228C88.1863 307.133 89.7309 308.678 91.6361 308.678Z" fill="url(#paint10_linear_18_411)"/>
<path d="M359.918 299.601H398.726C399.413 299.601 399.969 299.044 399.969 298.357V257.851C399.969 257.164 399.413 256.608 398.726 256.608H359.918C359.231 256.608 358.675 257.164 358.675 257.851V298.357C358.675 299.044 359.231 299.601 359.918 299.601Z" fill="url(#paint11_linear_18_411)"/>
<path d="M339.525 299.601H353.758C354.107 299.601 354.389 299.318 354.389 298.97V257.238C354.389 256.89 354.107 256.608 353.758 256.608H339.525C339.177 256.608 338.895 256.89 338.895 257.238V298.97C338.895 299.318 339.177 299.601 339.525 299.601Z" fill="url(#paint12_linear_18_411)"/>
<path d="M404.753 297.843H415.111C415.459 297.843 415.741 297.561 415.741 297.213V255.48C415.741 255.132 415.459 254.85 415.111 254.85H404.753C404.405 254.85 404.123 255.132 404.123 255.48V297.213C404.123 297.561 404.405 297.843 404.753 297.843Z" fill="url(#paint13_linear_18_411)"/>
<path d="M96.0579 328.848C96.1832 328.798 164.025 209.991 173.193 198.811C173.951 197.886 174.929 197.167 176.038 196.721C177.147 196.275 178.351 196.116 179.538 196.259L198.473 198.517L220.719 246.642L183.659 225.057C187.325 250.42 139.717 288.112 123.387 301.866C122.994 302.196 122.674 302.603 122.445 303.062C122.216 303.521 122.084 304.021 122.056 304.533C122.028 305.045 122.106 305.557 122.283 306.038C122.461 306.519 122.735 306.958 123.09 307.329L129.615 314.151C118.913 325 106.563 331.965 92.627 335.186L96.0579 328.848Z" fill="url(#paint14_linear_18_411)"/>
<path d="M96.0579 328.848C96.1832 328.798 164.025 209.991 173.193 198.811C173.951 197.886 174.929 197.167 176.038 196.721C177.147 196.275 178.351 196.116 179.538 196.259L198.473 198.517L220.719 246.642L183.659 225.057C187.325 250.42 139.717 288.112 123.387 301.866C122.994 302.196 122.674 302.603 122.445 303.062C122.216 303.521 122.084 304.021 122.056 304.533C122.028 305.045 122.106 305.557 122.283 306.038C122.461 306.519 122.735 306.958 123.09 307.329L129.615 314.151C118.913 325 106.563 331.965 92.627 335.186L96.0579 328.848Z" fill="url(#paint15_linear_18_411)"/>
<path d="M125.84 310.464C125.84 310.464 129.999 311.807 131.409 315.512C132.082 317.286 131.356 319.29 129.814 320.398C122.964 325.305 100.366 341.151 89.9396 344.254C89.7431 344.311 89.5353 344.315 89.3366 344.267C89.138 344.219 88.9552 344.12 88.8063 343.98C88.6574 343.839 88.5475 343.663 88.4873 343.468C88.4271 343.272 88.4186 343.065 88.4629 342.865C88.9986 340.442 90.7295 335.605 96.3052 328.523L95.8055 329.535C95.1718 330.816 96.5679 332.15 97.8111 331.448C104.786 327.515 118.999 318.899 125.84 310.464Z" fill="url(#paint16_linear_18_411)"/>
<path d="M122.482 358.007C122.597 357.933 132.774 333.41 132.888 333.336C142.221 276.517 164.999 227.854 171.706 215.049C172.261 213.991 173.075 213.09 174.071 212.43C175.066 211.769 176.213 211.371 177.404 211.271L196.404 209.648L227.928 252.275L187.267 238.639C195.99 262.735 156.995 309.282 143.787 326.055C143.469 326.458 143.238 326.921 143.107 327.417C142.976 327.912 142.948 328.429 143.024 328.936C143.101 329.443 143.28 329.929 143.551 330.364C143.823 330.799 144.18 331.173 144.602 331.464L152.367 336.827C144.082 349.617 133.398 358.937 120.401 364.913L122.482 358.007Z" fill="url(#paint17_linear_18_411)"/>
<path d="M122.482 358.007C122.597 357.933 132.774 333.41 132.888 333.336C142.221 276.517 164.999 227.854 171.706 215.049C172.261 213.991 173.075 213.09 174.071 212.43C175.066 211.769 176.213 211.371 177.404 211.271L196.404 209.648L227.928 252.275L187.267 238.639C195.99 262.735 156.995 309.282 143.787 326.055C143.469 326.458 143.238 326.921 143.107 327.417C142.976 327.912 142.948 328.429 143.024 328.936C143.101 329.443 143.28 329.929 143.551 330.364C143.823 330.799 144.18 331.173 144.602 331.464L152.367 336.827C144.082 349.617 133.398 358.937 120.401 364.913L122.482 358.007Z" fill="url(#paint18_linear_18_411)"/>
<path d="M147.928 333.989C147.928 333.989 152.275 334.463 154.406 337.808C155.424 339.407 155.118 341.521 153.832 342.915C148.117 349.1 129.194 369.191 119.611 374.343C119.429 374.438 119.227 374.484 119.022 374.477C118.818 374.47 118.619 374.41 118.444 374.303C118.27 374.196 118.127 374.045 118.028 373.865C117.93 373.686 117.88 373.484 117.883 373.28C117.917 370.8 118.633 365.712 122.662 357.654L122.377 358.746C122.016 360.128 123.651 361.15 124.728 360.212C130.76 354.939 142.93 343.623 147.928 333.989Z" fill="url(#paint19_linear_18_411)"/>
<path d="M285.345 200.668C285.345 200.668 302.534 226.234 303.943 237.897C305.353 249.56 299.19 253.592 281.2 255.079C227.662 259.504 201.27 243.459 201.27 243.459C197.608 220.105 195.001 214.167 164.415 201.47C164.415 201.47 203.103 204.542 210.888 201.52C218.674 198.498 285.345 200.668 285.345 200.668Z" fill="url(#paint20_linear_18_411)"/>
<path d="M216.801 57.4304C216.801 57.4304 228.773 43.2655 241.5 60.645C243.806 63.7925 252.662 61.1962 255.906 67.7832C257.582 71.1849 261.201 73.1185 264.929 72.4299C274.217 70.7127 289.399 70.5736 296.893 85.1266C302.614 96.2367 298.198 102.738 292.478 106.444C288.278 109.167 286.779 114.686 289.318 119.006C291.755 123.143 292.213 128.746 285.923 135.491C271.825 150.602 243.92 125.903 243.92 125.903L221.768 73.5461L216.801 57.4304Z" fill="#010648"/>
<path d="M238.858 197.283C238.858 197.283 218.841 178.223 208.979 165.6C206.36 162.233 204.583 158.288 203.796 154.095C203.009 149.903 203.234 145.582 204.454 141.494C208.953 126.34 216.947 110.644 217.676 108.2C218.794 104.455 241.238 104.611 241.238 104.611C241.238 104.611 285.401 133.274 302.753 181.827L283.265 187.896C283.265 187.896 271.734 168.548 260.341 156.248C260.341 156.248 280.056 182.293 280.75 192.956L238.858 197.283Z" fill="url(#paint21_linear_18_411)"/>
<path d="M200.721 204.804L215.762 188.44L233.131 193.117C233.131 193.117 253.381 196.255 264.972 193.117L276.563 189.98L302.753 181.825L306.875 193.45C307.381 194.887 307.405 196.449 306.944 197.901C306.483 199.352 305.561 200.613 304.318 201.494C302.051 203.103 299.395 204.873 297.701 205.615C294.253 207.124 218.246 206.092 218.246 206.092L200.721 204.804Z" fill="url(#paint22_linear_18_411)"/>
<path d="M200.721 204.804L215.762 188.44L233.131 193.117C233.131 193.117 253.381 196.255 264.972 193.117L276.563 189.98L302.753 181.825L306.875 193.45C307.381 194.887 307.405 196.449 306.944 197.901C306.483 199.352 305.561 200.613 304.318 201.494C302.051 203.103 299.395 204.873 297.701 205.615C294.253 207.124 218.246 206.092 218.246 206.092L200.721 204.804Z" fill="url(#paint23_linear_18_411)"/>
<path d="M225.807 77.6244L240.891 105.674C239.895 111.798 224.473 111.971 222.091 108.314C221.859 107.934 221.698 107.515 221.619 107.077L212.595 88.3344C212.207 86.5073 217.218 80.3496 218.866 79.4721L224.863 76.2799C227.181 75.0521 217.542 74.9542 225.807 77.6244Z" fill="url(#paint24_linear_18_411)"/>
<path d="M225.807 77.6244L240.891 105.674C239.895 111.798 224.473 111.971 222.091 108.314C221.859 107.934 221.698 107.515 221.619 107.077L212.595 88.3344C212.207 86.5073 217.218 80.3496 218.866 79.4721L224.863 76.2799C227.181 75.0521 217.542 74.9542 225.807 77.6244Z" fill="url(#paint25_linear_18_411)"/>
<path d="M195.284 71.0429C195.284 71.0429 193.581 80.5182 201.03 92.5676C208.479 104.617 215.896 104.073 219.665 99.7797C223.434 95.4868 227.947 88.3262 225.893 76.3077C223.839 64.2893 197.857 58.9574 195.284 71.0429Z" fill="url(#paint26_linear_18_411)"/>
<path d="M195.284 71.0429C195.284 71.0429 193.581 80.5182 201.03 92.5676C208.479 104.617 215.896 104.073 219.665 99.7797C223.434 95.4868 227.947 88.3262 225.893 76.3077C223.839 64.2893 197.857 58.9574 195.284 71.0429Z" fill="url(#paint27_linear_18_411)"/>
<path d="M216.878 77.6162C216.878 77.6162 204.818 61.7736 195.558 75.5831L195.714 80.3551C195.714 80.3551 183.673 79.7919 184.978 68.6938C186.283 57.5957 196.116 50.0127 209.743 53.8042C223.37 57.5957 231.335 61.9144 232.875 71.3777C234.415 80.841 226.693 79.2939 226.693 79.2939C226.693 79.2939 223.741 72.7686 220.177 72.3187C216.612 71.8688 217.901 77.0375 217.901 77.0375L216.878 77.6162Z" fill="#010648"/>
<path d="M219.642 77.1879C219.642 77.1879 213.395 69.0794 219.083 67.4C224.77 65.7206 224.557 75.3436 224.186 78.9239L219.642 77.1879Z" fill="url(#paint28_linear_18_411)"/>
<path d="M219.642 77.1879C219.642 77.1879 213.395 69.0794 219.083 67.4C224.77 65.7206 224.557 75.3436 224.186 78.9239L219.642 77.1879Z" fill="url(#paint29_linear_18_411)"/>
<path d="M250.507 211.28H250.347L181.169 211.205C180.348 211.205 179.56 210.878 178.979 210.297C178.399 209.717 178.072 208.929 178.072 208.108C178.072 207.286 178.399 206.499 178.979 205.918C179.56 205.337 180.348 205.011 181.169 205.011L250.347 205.086C250.753 205.076 251.157 205.146 251.536 205.292C251.915 205.438 252.261 205.658 252.555 205.938C252.849 206.217 253.085 206.553 253.25 206.924C253.415 207.295 253.504 207.695 253.514 208.101C253.524 208.507 253.454 208.911 253.308 209.289C253.162 209.668 252.943 210.015 252.663 210.309C252.383 210.603 252.048 210.839 251.677 211.004C251.306 211.168 250.906 211.258 250.5 211.268L250.507 211.28Z" fill="url(#paint30_linear_18_411)"/>
<path d="M118.98 148.472H176.593C178.675 148.471 180.714 149.063 182.473 150.178C184.231 151.293 185.636 152.885 186.524 154.769L213.158 211.244H141.561C140.223 211.244 138.915 210.842 137.809 210.089C136.702 209.337 135.847 208.268 135.355 207.024L114.706 154.763C114.431 154.066 114.33 153.312 114.412 152.567C114.494 151.821 114.758 151.107 115.179 150.487C115.601 149.867 116.167 149.359 116.83 149.008C117.492 148.656 118.231 148.472 118.98 148.472Z" fill="url(#paint31_linear_18_411)"/>
<path d="M159.569 177.428C160.817 181.307 159.895 185.075 157.508 185.842C155.122 186.61 152.185 184.089 150.928 180.21C149.671 176.331 150.602 172.563 152.989 171.796C155.376 171.028 158.322 173.549 159.569 177.428Z" fill="url(#paint32_linear_18_411)"/>
</g>
<defs>
<linearGradient id="paint0_linear_18_411" x1="495.955" y1="526.724" x2="156.033" y2="159.824" gradientUnits="userSpaceOnUse">
<stop stop-color="#B37CFF"/>
<stop offset="1" stop-color="#DFEFFE"/>
</linearGradient>
<linearGradient id="paint1_linear_18_411" x1="431.028" y1="423.055" x2="337.756" y2="179.54" gradientUnits="userSpaceOnUse">
<stop stop-color="#CB236D"/>
<stop offset="1" stop-color="#6165D7"/>
</linearGradient>
<linearGradient id="paint2_linear_18_411" x1="421.117" y1="468.71" x2="423.174" y2="207.955" gradientUnits="userSpaceOnUse">
<stop stop-color="#6165D7"/>
<stop offset="1" stop-color="#FC9D8A"/>
</linearGradient>
<linearGradient id="paint3_linear_18_411" x1="123.395" y1="383.192" x2="97.853" y2="188.681" gradientUnits="userSpaceOnUse">
<stop stop-color="#A737D5"/>
<stop offset="1" stop-color="#EF497A"/>
</linearGradient>
<linearGradient id="paint4_linear_18_411" x1="291.646" y1="326.829" x2="281.012" y2="165.026" gradientUnits="userSpaceOnUse">
<stop stop-color="#CB236D"/>
<stop offset="1" stop-color="#6165D7"/>
</linearGradient>
<linearGradient id="paint5_linear_18_411" x1="203.808" y1="158.738" x2="57.2576" y2="166.065" gradientUnits="userSpaceOnUse">
<stop stop-color="#A737D5"/>
<stop offset="1" stop-color="#EF497A"/>
</linearGradient>
<linearGradient id="paint6_linear_18_411" x1="170.068" y1="338.355" x2="172.128" y2="36.9297" gradientUnits="userSpaceOnUse">
<stop stop-color="#6165D7"/>
<stop offset="1" stop-color="#FC9D8A"/>
</linearGradient>
<linearGradient id="paint7_linear_18_411" x1="197.998" y1="400.321" x2="510.093" y2="602.636" gradientUnits="userSpaceOnUse">
<stop stop-color="#53D8FF"/>
<stop offset="1" stop-color="#3840F7"/>
</linearGradient>
<linearGradient id="paint8_linear_18_411" x1="232.2" y1="449.112" x2="485.915" y2="156.091" gradientUnits="userSpaceOnUse">
<stop stop-color="#010648"/>
<stop offset="1" stop-color="#6165D7"/>
</linearGradient>
<linearGradient id="paint9_linear_18_411" x1="445" y1="285.5" x2="419.326" y2="436.94" gradientUnits="userSpaceOnUse">
<stop stop-color="#30ABBA"/>
<stop offset="1" stop-color="#6165D7"/>
</linearGradient>
<linearGradient id="paint10_linear_18_411" x1="273.838" y1="142.588" x2="241.236" y2="584.536" gradientUnits="userSpaceOnUse">
<stop stop-color="#53D8FF"/>
<stop offset="1" stop-color="#3840F7"/>
</linearGradient>
<linearGradient id="paint11_linear_18_411" x1="503.217" y1="55.6803" x2="267.108" y2="479.558" gradientUnits="userSpaceOnUse">
<stop stop-color="#53D8FF"/>
<stop offset="1" stop-color="#3840F7"/>
</linearGradient>
<linearGradient id="paint12_linear_18_411" x1="476.713" y1="44.5908" x2="243.959" y2="462.446" gradientUnits="userSpaceOnUse">
<stop stop-color="#53D8FF"/>
<stop offset="1" stop-color="#3840F7"/>
</linearGradient>
<linearGradient id="paint13_linear_18_411" x1="523.995" y1="71.575" x2="290.978" y2="489.905" gradientUnits="userSpaceOnUse">
<stop stop-color="#53D8FF"/>
<stop offset="1" stop-color="#3840F7"/>
</linearGradient>
<linearGradient id="paint14_linear_18_411" x1="79.7946" y1="229.321" x2="186.754" y2="290.372" gradientUnits="userSpaceOnUse">
<stop stop-color="#F9B776"/>
<stop offset="1" stop-color="#F47960"/>
</linearGradient>
<linearGradient id="paint15_linear_18_411" x1="106.978" y1="243.517" x2="243.455" y2="304.045" gradientUnits="userSpaceOnUse">
<stop stop-color="#FEBBBA"/>
<stop offset="1" stop-color="#FF928E"/>
</linearGradient>
<linearGradient id="paint16_linear_18_411" x1="93.7665" y1="290.342" x2="141.942" y2="406.947" gradientUnits="userSpaceOnUse">
<stop stop-color="#2B3582"/>
<stop offset="1" stop-color="#150E42"/>
</linearGradient>
<linearGradient id="paint17_linear_18_411" x1="90.1423" y1="244.546" x2="-275.815" y2="15.4505" gradientUnits="userSpaceOnUse">
<stop stop-color="#F9B776"/>
<stop offset="1" stop-color="#F47960"/>
</linearGradient>
<linearGradient id="paint18_linear_18_411" x1="132.448" y1="262.501" x2="255.844" y2="303.623" gradientUnits="userSpaceOnUse">
<stop stop-color="#FEBBBA"/>
<stop offset="1" stop-color="#FF928E"/>
</linearGradient>
<linearGradient id="paint19_linear_18_411" x1="116.274" y1="315.435" x2="186.581" y2="419.896" gradientUnits="userSpaceOnUse">
<stop stop-color="#2B3582"/>
<stop offset="1" stop-color="#150E42"/>
</linearGradient>
<linearGradient id="paint20_linear_18_411" x1="179.981" y1="152.667" x2="267.952" y2="249.07" gradientUnits="userSpaceOnUse">
<stop stop-color="#30ABBA"/>
<stop offset="1" stop-color="#4C246D"/>
</linearGradient>
<linearGradient id="paint21_linear_18_411" x1="202.007" y1="112.733" x2="454.148" y2="355.951" gradientUnits="userSpaceOnUse">
<stop stop-color="#6165D7"/>
<stop offset="1" stop-color="#D93C65"/>
</linearGradient>
<linearGradient id="paint22_linear_18_411" x1="267.129" y1="194.13" x2="373.676" y2="194.13" gradientUnits="userSpaceOnUse">
<stop stop-color="#F9B776"/>
<stop offset="1" stop-color="#F47960"/>
</linearGradient>
<linearGradient id="paint23_linear_18_411" x1="212.659" y1="190.203" x2="238.1" y2="243.204" gradientUnits="userSpaceOnUse">
<stop stop-color="#FEBBBA"/>
<stop offset="1" stop-color="#FF928E"/>
</linearGradient>
<linearGradient id="paint24_linear_18_411" x1="223.705" y1="143.148" x2="226.169" y2="104.77" gradientUnits="userSpaceOnUse">
<stop stop-color="#F9B776"/>
<stop offset="1" stop-color="#F47960"/>
</linearGradient>
<linearGradient id="paint25_linear_18_411" x1="215.746" y1="87.4638" x2="247.166" y2="99.5966" gradientUnits="userSpaceOnUse">
<stop stop-color="#FEBBBA"/>
<stop offset="1" stop-color="#FF928E"/>
</linearGradient>
<linearGradient id="paint26_linear_18_411" x1="227.367" y1="110.744" x2="181.006" y2="22.0165" gradientUnits="userSpaceOnUse">
<stop stop-color="#F9B776"/>
<stop offset="1" stop-color="#F47960"/>
</linearGradient>
<linearGradient id="paint27_linear_18_411" x1="198.622" y1="77.2689" x2="233.191" y2="90.8396" gradientUnits="userSpaceOnUse">
<stop stop-color="#FEBBBA"/>
<stop offset="1" stop-color="#FF928E"/>
</linearGradient>
<linearGradient id="paint28_linear_18_411" x1="237.979" y1="105.197" x2="191.617" y2="16.4698" gradientUnits="userSpaceOnUse">
<stop stop-color="#F9B776"/>
<stop offset="1" stop-color="#F47960"/>
</linearGradient>
<linearGradient id="paint29_linear_18_411" x1="217.55" y1="71.1942" x2="226.432" y2="73.9861" gradientUnits="userSpaceOnUse">
<stop stop-color="#FEBBBA"/>
<stop offset="1" stop-color="#FF928E"/>
</linearGradient>
<linearGradient id="paint30_linear_18_411" x1="262.274" y1="192.852" x2="207.358" y2="210.861" gradientUnits="userSpaceOnUse">
<stop stop-color="#2B3582"/>
<stop offset="1" stop-color="#150E42"/>
</linearGradient>
<linearGradient id="paint31_linear_18_411" x1="117.581" y1="183.929" x2="618.884" y2="141.752" gradientUnits="userSpaceOnUse">
<stop stop-color="#2B3582"/>
<stop offset="1" stop-color="#150E42"/>
</linearGradient>
<linearGradient id="paint32_linear_18_411" x1="162.897" y1="167.302" x2="144.953" y2="194.323" gradientUnits="userSpaceOnUse">
<stop stop-color="#53D8FF"/>
<stop offset="1" stop-color="#3840F7"/>
</linearGradient>
<clipPath id="clip0_18_411">
<rect width="480" height="480" fill="white"/>
</clipPath>
</defs>
</svg>
