<svg width="352" height="292" fill="none" xmlns="http://www.w3.org/2000/svg"><g clip-path="url(#prefix__clip0_2_542)"><path d="M95.06 23.975L1.32 145.38l252.075-62.48L113.001 19.47a14.909 14.909 0 00-9.759-.868 14.872 14.872 0 00-8.182 5.374z" fill="#91B3FA"/><path d="M0 146.285L94.647 23.661a15.334 15.334 0 018.474-5.586 15.372 15.372 0 0110.116.922L255.03 83.04 0 146.285zM106.837 18.654c-2.195.007-4.359.52-6.323 1.497a14.258 14.258 0 00-5.001 4.138L2.639 144.518l249.19-61.764L112.784 19.92a14.353 14.353 0 00-5.947-1.266z" fill="#E0E0E0"/><path d="M1.298 145.388L254.29 82.683l34.08 136.695a10.485 10.485 0 01-1.233 7.949 10.55 10.55 0 01-6.507 4.754L48.164 289.699a10.573 10.573 0 01-7.971-1.173 10.515 10.515 0 01-4.814-6.443L1.298 145.388z" fill="#6165D7"/><path d="M238.704 90.166l-87.636 89.273-132.487-29.718-15.164-70.06a14.092 14.092 0 011.717-10.563 14.167 14.167 0 018.651-6.333l191.617-47.498a14.212 14.212 0 0110.729 1.606 14.155 14.155 0 014.09 3.712 14.103 14.103 0 012.354 4.99l16.129 64.591z" fill="#fff"/><path d="M139.036 172.419L34.976 280.857a11.565 11.565 0 005.274 7.117 11.626 11.626 0 008.777 1.316l230.718-57.218a11.593 11.593 0 007.136-5.259 11.541 11.541 0 001.312-8.751l-.216-.864-136.072-47.842a12.218 12.218 0 00-12.869 3.063z" fill="#91B3FA"/><path d="M105.79 73.114L30.828 91.708l1.904 7.631 74.962-18.593-1.904-7.632zM201.973 69.792L35.651 111.047l2.151 8.622 166.323-41.255-2.152-8.622zM207.234 90.857L40.912 132.112l2.151 8.622 166.323-41.255-2.152-8.622zM210.739 118.765l-5.209 5.194-139.626 36.404-18.246-4.261-.69-1.973 165.79-41.107.709 2.857-2.728 2.886zM175.025 155.042l-62.91 15.601-19.221-4.389 94.006-23.307-11.875 12.095z" fill="#E0E0E0"/><path d="M135.245 176.376c-.07.105-.153.201-.247.285-.177.206-.423.481-.738.815l-2.895 3.102-10.733 11.31a7973.029 7973.029 0 01-35.586 37.151c-13.923 14.442-26.744 27.411-36.078 36.699a1390.053 1390.053 0 01-11.098 10.946l-3.052 2.946-.798.756-.285.245c.07-.105.152-.201.246-.285.187-.206.443-.461.758-.795l2.954-3.024 10.98-11.074a4503.307 4503.307 0 0035.95-36.797l35.704-37.043 10.831-11.192 2.954-3.024.778-.775c.108-.096.227-.179.355-.246zM287.977 217.198c0 .138-29.068-9.906-64.801-22.423-35.734-12.518-64.644-22.797-64.644-22.964 0-.167 29.058 9.906 64.811 22.433 35.753 12.528 64.683 22.817 64.634 22.954zM242.879 85.866s-.059.089-.187.246l-.601.687-2.334 2.543-8.694 9.415a2041.43 2041.43 0 01-29.137 30.622c-11.501 11.84-22.056 22.433-29.766 30.022l-9.167 8.954-2.492 2.474-.669.609-.237.206s.06-.088.197-.245l.631-.648 2.442-2.484 9.049-9.072c7.631-7.668 18.147-18.281 29.648-30.131a3591.955 3591.955 0 0029.245-30.513l8.862-9.298 2.412-2.513.63-.648.168-.226zM135.244 176.376l-.354-.059-.985-.235-3.938-.982c-3.378-.844-8.272-2.023-14.318-3.446-12.111-2.857-28.89-6.539-47.44-10.544-18.552-4.006-35.33-7.747-47.423-10.702-6.016-1.433-10.94-2.67-14.258-3.583l-3.87-1.041-.984-.295a1.32 1.32 0 01-.335-.108c.12.007.239.027.355.059l.984.236 3.939.982c3.377.844 8.261 2.022 14.317 3.436 12.102 2.857 28.89 6.539 47.451 10.554 18.561 4.016 35.32 7.746 47.412 10.692 6.046 1.472 10.92 2.709 14.278 3.613l3.87 1.05.984.285c.108.019.214.048.315.088z" fill="#FAFAFA"/><path d="M238.704 90.166s-.099-.314-.256-.981c-.158-.668-.414-1.571-.729-2.789-.62-2.454-1.536-6.067-2.718-10.701-2.343-9.327-5.73-22.787-9.915-39.418a2033.03 2033.03 0 00-1.605-6.392c-.276-1.09-.552-2.19-.827-3.308-.138-.55-.276-1.11-.453-1.65a10.637 10.637 0 00-.601-1.62 13.958 13.958 0 00-6.05-6.517 14.016 14.016 0 00-8.769-1.553c-1.241.216-2.501.56-3.762.874l-7.729 1.914-16.129 4.016-71.832 17.82-71.88 17.789-16.12 3.986-3.939.982a21.712 21.712 0 00-3.732 1.139A13.025 13.025 0 008.4 65.72a13.49 13.49 0 00-2.491 2.71 14.762 14.762 0 00-1.772 3.24 14.338 14.338 0 00-.798 3.534c-.286 2.405.374 4.713.847 7.01.985 4.575 1.97 8.973 2.836 13.165 3.594 16.769 6.499 30.347 8.507 39.743.985 4.683 1.763 8.325 2.285 10.799.256 1.228.453 2.17.58 2.808.129.638.188.982.188.982s-.089-.324-.237-.982l-.63-2.808c-.551-2.474-1.359-6.106-2.392-10.799-2.049-9.386-5.012-22.944-8.675-39.703L3.78 82.263c-.473-2.219-1.162-4.605-.827-7.088a15.11 15.11 0 01.817-3.643 14.476 14.476 0 011.783-3.358 13.762 13.762 0 012.638-2.817 13.349 13.349 0 013.368-2.042 21.617 21.617 0 013.81-1.169l3.94-.981 16.128-4.016L107.32 39.32 179.2 21.54l15.962-3.966 7.729-1.866c1.271-.304 2.521-.648 3.811-.873a14.677 14.677 0 013.88 0 14.332 14.332 0 016.824 2.707c2 1.479 3.578 3.453 4.578 5.726.246.537.45 1.091.611 1.66.187.569.325 1.128.453 1.678.275 1.12.551 2.219.827 3.309.531 2.18 1.063 4.31 1.575 6.391 4.116 16.69 7.444 30.13 9.758 39.458 1.133 4.653 1.97 8.266 2.619 10.74.296 1.218.512 2.15.67 2.798.158.648.207.864.207.864z" fill="#E0E0E0"/><path d="M84.357 0l-8.035 21.953 15.41 22.286-21.702-2.19-3.584 11.85-54.059-17.858L84.357 0z" fill="#F95E69"/><path d="M73.535 30.582c.473.678 18.197 13.657 18.197 13.657l-21.663-2.19 3.466-11.467z" fill="#F95E69"/><path d="M73.535 30.582c.473.678 18.197 13.657 18.197 13.657l-21.663-2.19 3.466-11.467z" fill="#010648" opacity=".3"/><path d="M12.387 36.041l61.148-5.459L91.732 44.24l-15.41-22.286L12.387 36.04z" fill="#F95E69"/><path opacity=".1" d="M12.387 36.041l61.148-5.459L91.732 44.24l-15.41-22.286L12.387 36.04z" fill="#010648"/><path d="M336.964 262.134c.089.275-1.969 1.218-4.539 2.101-2.57.884-4.786 1.395-4.923 1.12-.138-.275 1.969-1.208 4.539-2.101 2.57-.894 4.835-1.414 4.923-1.12zM352 256.97c.089.275-1.093.923-2.639 1.453-1.546.53-2.885.736-2.954.471-.069-.265 1.093-.922 2.639-1.453 1.546-.53 2.855-.736 2.954-.471zM123.753 19.567c.079.285-1.969 1.1-4.559 2.012-2.589.913-4.697 1.581-4.815 1.316-.118-.265 1.861-1.365 4.471-2.287 2.609-.923 4.834-1.306 4.903-1.041zM143.348 16.327c0 .285-2.186.599-4.923.884-2.737.284-4.923.441-4.982.157-.059-.285 2.117-.894 4.923-1.178 2.806-.285 4.982-.148 4.982.137zM163.16 17.888c-.069.275-2.275 0-4.983-.354-2.707-.353-4.923-.765-4.874-1.06.05-.294 2.275-.353 5.022 0 2.747.354 4.894 1.14 4.835 1.414zM181.819 24.613c-.137.255-2.185-.608-4.677-1.708-2.491-1.1-4.509-2.042-4.411-2.317.098-.275 2.294.245 4.825 1.374 2.53 1.13 4.401 2.406 4.263 2.651zM197.633 36.552c-.207.196-1.9-1.247-3.938-3.044-2.039-1.797-3.683-3.299-3.506-3.534.177-.236 2.117.922 4.195 2.759 2.077 1.835 3.456 3.593 3.249 3.819zM209.174 52.633c-.256.128-1.438-1.748-2.856-4.065-1.418-2.316-2.491-4.24-2.304-4.388.187-.147 1.743 1.502 3.19 3.868 1.448 2.366 2.226 4.467 1.97 4.585zM215.16 71.483c-.285 0-.787-2.13-1.398-4.771-.61-2.641-1.083-4.811-.807-4.91.275-.097 1.201 1.964 1.821 4.674.621 2.71.67 4.968.384 5.007zM214.156 91.187c-.286-.078.069-2.258.463-4.909.394-2.65.709-4.908.985-4.908.275 0 .443 2.267 0 5.016-.444 2.75-1.172 4.92-1.448 4.801zM205.924 109.154c-.236-.177.867-2.101 2.216-4.457 1.349-2.357 2.451-4.271 2.717-4.153.266.118-.443 2.258-1.821 4.663-1.379 2.406-2.876 4.104-3.112 3.947zM191.873 123.056c-.158-.246 1.565-1.64 3.653-3.368 2.087-1.727 3.811-3.141 4.017-2.945.207.196-1.201 1.964-3.357 3.731-2.157 1.767-4.175 2.818-4.313 2.582zM173.538 130.429c0-.285 2.108-.835 4.717-1.581 2.609-.746 4.736-1.384 4.854-1.119.118.265-1.88 1.365-4.569 2.121-2.688.756-4.962.854-5.002.579zM154.593 126.374c.187-.226 1.97.982 4.49 1.964 2.521.982 4.628 1.58 4.569 1.885-.059.304-2.343.147-4.923-.982s-4.352-2.67-4.136-2.867zM153.284 108.899c.226.206-1.221 1.904-2.186 4.349-.965 2.445-.936 4.654-1.241 4.673-.305.02-.827-2.336.276-5.056 1.102-2.719 2.983-4.163 3.151-3.966zM171.461 105.659c-.138.265-2.157-.648-4.776-1.11-2.619-.461-4.805-.137-4.864-.441-.059-.305 2.176-1.09 5.051-.57 2.875.52 4.746 1.895 4.589 2.121zM182.4 121.485c-.295.049-.837-2.091-1.851-4.575s-2.087-4.408-1.841-4.585c.246-.177 1.752 1.581 2.806 4.202s1.152 4.929.886 4.958zM179.515 140.865c-.276-.108.404-2.219 1.182-4.81.778-2.592 1.339-4.723 1.634-4.683.296.039.168 2.317-.64 4.977-.807 2.661-1.92 4.634-2.176 4.516zM169.6 158.066c-.237-.157.768-2.15 2.255-4.447 1.486-2.298 2.875-4.045 3.121-3.928.246.118-.758 2.131-2.245 4.448-1.487 2.317-2.895 4.074-3.131 3.927zM159.517 175.159c-.256-.108.531-2.209 1.762-4.683 1.231-2.475 2.678-4.222 2.895-4.094.217.127-.729 2.159-1.969 4.575-1.241 2.415-2.403 4.319-2.688 4.202zM153.884 194.137c-.275 0-.167-2.288.453-4.978.621-2.69 1.487-4.772 1.763-4.693.275.079-.148 2.268-.758 4.909-.611 2.641-1.172 4.811-1.458 4.762zM153.077 213.929c-.286 0-.719-2.189-.768-4.909-.049-2.719.295-4.987.571-4.968.276.02.414 2.229.473 4.909.059 2.681.01 4.939-.276 4.968zM156.947 233.359c-.276.088-1.212-1.964-1.911-4.634-.699-2.671-.886-4.909-.61-4.968.276-.059.925 2.071 1.615 4.703.689 2.631 1.171 4.8.906 4.899zM165.425 251.276c-.237.157-1.655-1.6-2.954-4.025-1.3-2.425-2.048-4.546-1.792-4.664.256-.118 1.388 1.787 2.707 4.173 1.32 2.385 2.236 4.359 2.039 4.516zM178.225 266.395c-.187.216-1.969-1.197-3.938-3.151-1.97-1.954-3.25-3.8-3.033-3.976.216-.177 1.802 1.374 3.781 3.259 1.979 1.885 3.338 3.652 3.19 3.868zM194.541 277.637c-.128.245-2.245-.55-4.618-1.964s-4.086-2.896-3.939-3.122c.148-.226 2.108.844 4.451 2.238 2.344 1.395 4.234 2.582 4.106 2.848zM213.152 284.558c-.069.275-2.305 0-4.924-.815s-4.667-1.826-4.559-2.091c.108-.265 2.255.304 4.864 1.1 2.61.795 4.687 1.531 4.619 1.806zM232.875 286.934c0 .285-2.246.54-5.012.363-2.767-.176-4.924-.687-4.924-.981 0-.295 2.265-.226 4.992-.069 2.728.157 4.934.432 4.944.687zM252.578 284.489c.079.275-2.038 1.08-4.766 1.591-2.727.51-4.982.54-5.012.255-.029-.285 2.147-.766 4.825-1.266 2.678-.501 4.874-.855 4.953-.58zM262.356 281.24c.108.265.118.51 0 .55-.119.039-.256-.148-.365-.413-.108-.265-.118-.51 0-.55.118-.039.256.148.365.413z" fill="#010648"/><path d="M223.522 247.596l-21.024 5.409 3.376 13.043 21.023-5.41-3.375-13.042z" fill="#F95E69"/><path d="M223.522 247.596l-21.024 5.409 3.376 13.043 21.023-5.41-3.375-13.042z" fill="#010648" fill-opacity=".64" opacity=".3"/><path d="M223.52 247.584c.227.167-3.062 4.85-7.414 10.564l-.227.305-.364-.138-.532-.196c-6.991-2.562-12.584-4.909-12.486-5.125.099-.216 5.849 1.591 12.801 4.163l.532.186-.591.177c4.411-5.694 8.064-10.112 8.281-9.936z" fill="#F95E69"/><path d="M223.52 247.584c.227.167-3.062 4.85-7.414 10.564l-.227.305-.364-.138-.532-.196c-6.991-2.562-12.584-4.909-12.486-5.125.099-.216 5.849 1.591 12.801 4.163l.532.186-.591.177c4.411-5.694 8.064-10.112 8.281-9.936z" fill="#010648" fill-opacity=".64" opacity=".1"/><path d="M211.763 256.391c.246.147-.876 2.425-2.501 5.086-1.625 2.66-3.141 4.702-3.387 4.555-.246-.147.876-2.425 2.501-5.086 1.625-2.66 3.141-4.702 3.387-4.555z" fill="#F95E69"/><path d="M211.763 256.391c.246.147-.876 2.425-2.501 5.086-1.625 2.66-3.141 4.702-3.387 4.555-.246-.147.876-2.425 2.501-5.086 1.625-2.66 3.141-4.702 3.387-4.555z" fill="#010648" fill-opacity=".64" opacity=".1"/><path d="M227.282 260.524c-.158.236-2.295-.982-4.806-2.592-2.51-1.61-4.568-3.259-4.224-3.446.345-.186 2.304.923 4.805 2.592s4.402 3.211 4.225 3.446z" fill="#F95E69"/><path d="M227.282 260.524c-.158.236-2.295-.982-4.806-2.592-2.51-1.61-4.568-3.259-4.224-3.446.345-.186 2.304.923 4.805 2.592s4.402 3.211 4.225 3.446z" fill="#010648" fill-opacity=".64" opacity=".1"/><path d="M321.48 244.554l-54.079 13.915 8.681 33.538 54.078-13.914-8.68-33.539z" fill="#F95E69"/><path d="M321.485 244.541a13.379 13.379 0 01-1.418 2.17c-1.093 1.512-2.491 3.426-4.165 5.723-3.555 4.811-8.547 11.438-14.15 18.782l-.226.304-.365-.137-1.368-.501c-8.99-3.299-17.114-6.342-22.973-8.59l-6.892-2.71a13.93 13.93 0 01-2.491-1.129c.898.164 1.778.414 2.629.746l7.03 2.405a1955.315 1955.315 0 0123.081 8.306l1.378.511-.59.167a1574.847 1574.847 0 0114.395-18.585l4.422-5.528a12.78 12.78 0 011.703-1.934z" fill="#F95E69"/><path d="M321.485 244.541a13.379 13.379 0 01-1.418 2.17c-1.093 1.512-2.491 3.426-4.165 5.723-3.555 4.811-8.547 11.438-14.15 18.782l-.226.304-.365-.137-1.368-.501c-8.99-3.299-17.114-6.342-22.973-8.59l-6.892-2.71a13.93 13.93 0 01-2.491-1.129c.898.164 1.778.414 2.629.746l7.03 2.405a1955.315 1955.315 0 0123.081 8.306l1.378.511-.59.167a1574.847 1574.847 0 0114.395-18.585l4.422-5.528a12.78 12.78 0 011.703-1.934z" fill="#010648" opacity=".2"/><path d="M291.226 267.19c.246.148-2.954 5.822-7.129 12.675-4.175 6.853-7.769 12.282-8.005 12.135-.237-.147 2.954-5.822 7.119-12.675 4.165-6.853 7.769-12.282 8.015-12.135z" fill="#F95E69"/><path d="M291.226 267.19c.246.148-2.954 5.822-7.129 12.675-4.175 6.853-7.769 12.282-8.005 12.135-.237-.147 2.954-5.822 7.119-12.675 4.165-6.853 7.769-12.282 8.015-12.135z" fill="#010648" opacity=".2"/><path d="M331.154 277.843c-.167.245-5.494-3.044-11.914-7.334-6.42-4.291-11.481-7.953-11.324-8.188.158-.236 5.485 3.043 11.905 7.334 6.42 4.29 11.491 7.932 11.333 8.188z" fill="#F95E69"/><path d="M331.154 277.843c-.167.245-5.494-3.044-11.914-7.334-6.42-4.291-11.481-7.953-11.324-8.188.158-.236 5.485 3.043 11.905 7.334 6.42 4.29 11.491 7.932 11.333 8.188z" fill="#010648" opacity=".2"/><path d="M274.24 263.686a8.27 8.27 0 01-2.955 3.79 8.314 8.314 0 01-9.213.239 8.278 8.278 0 01-3.149-3.632 8.243 8.243 0 011.569-9.055 8.303 8.303 0 018.992-2.014 8.279 8.279 0 014.592 4.355 8.244 8.244 0 01.164 6.317z" fill="#010648"/><path d="M270.095 256.636a39.344 39.344 0 01-2.826 5.891l-.729 1.335-.128.236-.236-.128a26.545 26.545 0 01-4.332-2.533 26.445 26.445 0 014.588 2.052l-.374.118c.236-.432.473-.884.709-1.345a38.534 38.534 0 013.328-5.626z" fill="#fff"/><path d="M268.769 225.519l-28.326 7.289 4.549 17.577 28.327-7.289-4.55-17.577z" fill="#F95E69"/><path d="M268.769 225.519l-28.326 7.288 4.549 17.578 28.327-7.289-4.55-17.577z" fill="#010648" fill-opacity=".64" opacity=".2"/><path d="M268.815 225.514a7.044 7.044 0 01-.738 1.139l-2.186 2.945a648.945 648.945 0 01-7.405 9.818l-.128.167-.187-.069-.719-.265a954.384 954.384 0 01-12.033-4.496l-3.633-1.424a8.884 8.884 0 01-1.3-.589c.473.078.936.21 1.379.393l3.682 1.256a955.335 955.335 0 0112.092 4.35l.719.265-.305.088c2.954-3.839 5.602-7.275 7.542-9.739l2.314-2.945a7.65 7.65 0 01.906-.894z" fill="#F95E69"/><path d="M268.815 225.514a7.044 7.044 0 01-.738 1.139l-2.186 2.945a648.945 648.945 0 01-7.405 9.818l-.128.167-.187-.069-.719-.265a954.384 954.384 0 01-12.033-4.496l-3.633-1.424a8.884 8.884 0 01-1.3-.589c.473.078.936.21 1.379.393l3.682 1.256a955.335 955.335 0 0112.092 4.35l.719.265-.305.088c2.954-3.839 5.602-7.275 7.542-9.739l2.314-2.945a7.65 7.65 0 01.906-.894z" fill="#F95E69" opacity=".2"/><path d="M252.922 237.384a53.164 53.164 0 01-3.731 6.637 52.588 52.588 0 01-4.195 6.352 55.335 55.335 0 013.732-6.637 54.765 54.765 0 014.194-6.352z" fill="#F95E69"/><path d="M252.922 237.384a53.164 53.164 0 01-3.731 6.637 52.588 52.588 0 01-4.195 6.352 55.335 55.335 0 013.732-6.637 54.765 54.765 0 014.194-6.352z" fill="#F95E69" opacity=".2"/><path d="M273.847 242.95a47.751 47.751 0 01-6.243-3.838 51.904 51.904 0 01-5.908-4.291 48.578 48.578 0 016.243 3.839 52.108 52.108 0 015.908 4.29z" fill="#F95E69"/><path d="M273.847 242.95a47.751 47.751 0 01-6.243-3.838 51.904 51.904 0 01-5.908-4.291 48.578 48.578 0 016.243 3.839 52.108 52.108 0 015.908 4.29z" fill="#F95E69" opacity=".2"/></g><defs><clipPath id="prefix__clip0_2_542"><path fill="#fff" d="M0 0h352v292H0z"/></clipPath></defs></svg>