<svg width="419" height="480" viewBox="0 0 419 480" fill="none" xmlns="http://www.w3.org/2000/svg">
<g clip-path="url(#clip0_14_431)">
<path d="M317.934 29.1854C331.991 49.3066 315.509 81.9297 336.365 97.0628C356.658 111.793 381.606 87.6465 400.739 100.328C429.122 119.139 423.94 205.212 382.441 258.692C369.962 274.774 359.534 281.039 354.914 299.221C344.998 338.279 379.851 361.516 373.219 380.829C358.283 424.323 128.608 460.82 36.4567 330.105C-6.58372 269.056 -13.0245 180.9 25.4364 113.944C94.9148 -7.03776 286.391 -15.9642 317.934 29.1854Z" fill="#F4F7FA"/>
<path d="M233.292 381.779C236.431 380.41 242.051 374.669 242.901 372.567C248.545 358.587 260.809 333.096 255.481 318.078C254.562 315.513 242.203 316.476 239.869 314.558C231.834 313.258 228.968 313.306 221.938 308.317C201.183 293.59 225.421 247.596 181.421 246.67C149.193 245.992 127.192 263.411 117.061 216.624C106.93 169.837 46.3061 96.8134 7.16413 142.861C-15.302 169.289 24.2318 200.106 18.2793 233.021C12.6161 264.304 30.743 283.445 64.5447 291.424C98.3464 299.403 86.4919 316.511 85.5889 344.94C84.5068 379.089 134.109 370.688 156.69 364.855C174.869 360.153 224.322 360.459 233.292 381.779Z" fill="url(#paint0_linear_14_431)"/>
<mask id="mask0_14_431" style="mask-type:luminance" maskUnits="userSpaceOnUse" x="0" y="128" width="257" height="254">
<path d="M233.292 381.779C236.431 380.41 242.051 374.669 242.901 372.567C248.545 358.587 260.809 333.096 255.481 318.078C254.562 315.513 242.203 316.476 239.869 314.558C231.834 313.258 228.968 313.306 221.938 308.317C201.183 293.59 225.421 247.596 181.421 246.67C149.193 245.992 127.192 263.411 117.061 216.624C106.93 169.837 46.3061 96.8134 7.16413 142.861C-15.302 169.289 24.2318 200.106 18.2793 233.021C12.6161 264.304 30.743 283.445 64.5447 291.424C98.3464 299.403 86.4919 316.511 85.5889 344.94C84.5068 379.089 134.109 370.688 156.69 364.855C174.869 360.153 224.322 360.459 233.292 381.779Z" fill="white"/>
</mask>
<g mask="url(#mask0_14_431)">
<g style="mix-blend-mode:soft-light">
<path d="M249.162 346.757L249.286 346.041C138.8 326.957 51.6096 244.39 16.0477 125.175L15.3497 125.383C32.2031 181.882 61.8401 232.029 101.063 270.4C142.287 310.74 193.496 337.143 249.162 346.757Z" fill="#FCFDFE"/>
<path d="M83.5134 359.081C108.833 341.786 155.568 327.946 187.69 328.246V327.517C155.439 327.211 108.519 341.108 83.094 358.481L83.5134 359.081Z" fill="#FCFDFE"/>
<path d="M227.517 342.764L227.835 342.107C212.812 334.817 202.052 320.21 195.855 298.696C191.31 282.92 189.273 263.867 189.816 242.064L189.088 242.046C188.549 263.924 190.589 283.052 195.155 298.898C201.412 320.619 212.299 335.377 227.517 342.764Z" fill="#FCFDFE"/>
<path d="M95.7031 264.737L96.0536 264.1C68.4462 248.9 35.471 252.259 12.6712 257.756L12.8426 258.463C35.5169 252.997 68.2931 249.644 95.7031 264.737Z" fill="#FCFDFE"/>
<path d="M51.4887 207.724L52.1713 207.471C39.8363 174.176 50.7081 138.527 58.2861 120.241L57.6142 119.962C49.9948 138.348 39.0664 174.196 51.4887 207.724Z" fill="#FCFDFE"/>
</g>
</g>
<path d="M222.118 340.408C225.701 340.523 233.598 337.614 235.343 336.007C246.96 325.315 270.011 306.706 271.707 290.1C271.996 287.264 259.864 282.623 258.522 279.759C251.506 274.923 248.772 273.68 244.359 265.805C231.334 242.555 274.915 209.92 233.7 189.292C203.512 174.182 174.879 180.788 186.296 131.973C197.713 83.1572 173.139 -13.1388 115.436 12.86C82.3165 27.7772 105.888 74.6777 85.4787 103.151C66.0845 130.208 74.6344 156.453 103.033 179.176C131.432 201.899 112.535 212.77 98.9204 239.261C82.5675 271.084 133.275 285.406 157.25 290.021C176.551 293.732 223.203 316.224 222.118 340.408Z" fill="url(#paint1_linear_14_431)"/>
<mask id="mask1_14_431" style="mask-type:luminance" maskUnits="userSpaceOnUse" x="75" y="8" width="197" height="333">
<path d="M222.118 340.408C225.701 340.523 233.598 337.614 235.343 336.007C246.96 325.315 270.011 306.706 271.707 290.1C271.996 287.264 259.864 282.623 258.522 279.759C251.506 274.923 248.772 273.68 244.359 265.805C231.334 242.555 274.915 209.92 233.7 189.292C203.512 174.182 174.879 180.788 186.296 131.973C197.713 83.1572 173.139 -13.1388 115.436 12.86C82.3165 27.7772 105.888 74.6777 85.4787 103.151C66.0845 130.208 74.6344 156.453 103.033 179.176C131.432 201.899 112.535 212.77 98.9204 239.261C82.5675 271.084 133.275 285.406 157.25 290.021C176.551 293.732 223.203 316.224 222.118 340.408Z" fill="white"/>
</mask>
<g mask="url(#mask1_14_431)">
<g style="mix-blend-mode:soft-light">
<path d="M252.859 314.404L253.296 313.782C157.331 246.123 111.901 128.879 131.775 0.116194L131.02 0.00292969C121.602 61.0233 127.132 121.771 147.01 175.68C167.909 232.348 204.516 280.323 252.859 314.404Z" fill="#FCFDFE"/>
<path d="M90.6016 251.704C122.325 246.7 172.75 254.592 203.009 269.295L203.342 268.609C172.965 253.848 122.336 245.927 90.4838 250.951L90.6016 251.704Z" fill="#FCFDFE"/>
<path d="M234.172 300.909L234.766 300.432C223.826 286.789 220.202 268.136 223.996 245.003C226.779 228.037 233.409 209.098 243.707 188.712L243.026 188.367C232.695 208.824 226.037 227.837 223.245 244.879C219.414 268.239 223.09 287.091 234.172 300.909Z" fill="#FCFDFE"/>
<path d="M144.486 167.909L145.099 167.464C125.805 140.694 93.1011 129.072 69.0585 124.035L68.9054 124.782C92.8133 129.798 125.331 141.338 144.486 167.909Z" fill="#FCFDFE"/>
<path d="M128.248 94.1348L129.013 94.2006C132.289 57.1601 158.578 28.316 173.958 14.4167L173.447 13.8503C157.986 27.817 131.547 56.8295 128.248 94.1348Z" fill="#FCFDFE"/>
</g>
</g>
<path d="M255.811 397.666C253.616 396.709 249.689 392.693 249.09 391.224C245.141 381.443 236.558 363.612 240.289 353.104C240.928 351.31 249.579 351.984 251.207 350.64C256.828 349.729 258.833 349.763 263.758 346.273C278.277 335.972 261.321 303.798 292.1 303.149C314.646 302.674 330.036 314.861 337.123 282.13C344.209 249.4 386.619 198.32 414.003 230.531C429.718 249.018 402.064 270.574 406.228 293.602C410.184 315.49 397.503 328.875 373.863 334.457C350.223 340.039 358.51 352.01 359.139 371.897C359.904 395.785 325.193 389.907 309.402 385.825C296.68 382.542 262.085 382.755 255.811 397.666Z" fill="url(#paint2_linear_14_431)"/>
<mask id="mask2_14_431" style="mask-type:luminance" maskUnits="userSpaceOnUse" x="239" y="220" width="180" height="178">
<path d="M255.811 397.666C253.616 396.709 249.689 392.693 249.09 391.224C245.141 381.443 236.558 363.612 240.289 353.104C240.928 351.31 249.579 351.984 251.207 350.64C256.828 349.729 258.833 349.763 263.758 346.273C278.277 335.972 261.321 303.798 292.1 303.149C314.646 302.674 330.036 314.861 337.123 282.13C344.209 249.4 386.619 198.32 414.003 230.531C429.718 249.018 402.064 270.574 406.228 293.602C410.184 315.49 397.503 328.875 373.863 334.457C350.223 340.039 358.51 352.01 359.139 371.897C359.904 395.785 325.193 389.907 309.402 385.825C296.68 382.542 262.085 382.755 255.811 397.666Z" fill="white"/>
</mask>
<g mask="url(#mask2_14_431)">
<g style="mix-blend-mode:soft-light">
<path d="M244.708 373.163L244.621 372.662C321.916 359.312 382.904 301.555 407.783 218.159L408.271 218.312C396.485 257.835 375.749 292.915 348.316 319.757C319.472 347.972 283.648 366.443 244.708 373.163Z" fill="#FCFDFE"/>
<path d="M360.585 381.789C342.873 369.685 310.181 360.009 287.709 360.219V359.709C310.27 359.499 343.092 369.215 360.871 381.368L360.585 381.789Z" fill="#FCFDFE"/>
<path d="M259.85 370.374L259.627 369.915C270.136 364.815 277.664 354.598 282 339.548C285.179 328.512 286.592 315.184 286.223 299.931L286.732 299.919C287.109 315.225 285.682 328.604 282.488 339.689C278.112 354.884 270.494 365.204 259.85 370.374Z" fill="#FCFDFE"/>
<path d="M352.066 315.793L351.821 315.346C371.134 304.713 394.2 307.064 410.149 310.907L410.03 311.403C394.157 307.58 371.229 305.238 352.066 315.793Z" fill="#FCFDFE"/>
<path d="M382.984 275.91L382.506 275.733C391.136 252.441 383.53 227.503 378.23 214.712L378.7 214.516C384.032 227.378 391.678 252.455 382.984 275.91Z" fill="#FCFDFE"/>
</g>
</g>
<path d="M271.061 359.531C268.561 359.344 263.285 356.735 262.183 355.487C254.897 347.185 240.248 332.528 240.296 320.851C240.305 318.862 249.089 316.53 250.235 314.639C255.474 311.796 257.469 311.135 261.124 305.986C271.912 290.783 244.026 264.842 274.226 253.559C296.348 245.293 315.772 252.016 311.461 217.213C307.149 182.41 331.417 117.247 369.623 139.622C391.551 152.461 371.668 183.332 383.748 204.654C395.227 224.915 387.328 242.535 365.886 256.236C344.444 269.936 356.779 278.888 364.279 298.336C373.288 321.687 336.953 327.877 319.933 329.306C306.228 330.45 272.106 342.623 271.061 359.531Z" fill="url(#paint3_linear_14_431)"/>
<mask id="mask3_14_431" style="mask-type:luminance" maskUnits="userSpaceOnUse" x="240" y="135" width="150" height="225">
<path d="M271.061 359.531C268.561 359.344 263.285 356.735 262.183 355.487C254.897 347.185 240.248 332.528 240.296 320.851C240.305 318.862 249.089 316.53 250.235 314.639C255.474 311.796 257.469 311.135 261.124 305.986C271.912 290.783 244.026 264.842 274.226 253.559C296.348 245.293 315.772 252.016 311.461 217.213C307.149 182.41 331.417 117.247 369.623 139.622C391.551 152.461 371.668 183.332 383.748 204.654C395.227 224.915 387.328 242.535 365.886 256.236C344.444 269.936 356.779 278.888 364.279 298.336C373.288 321.687 336.953 327.877 319.933 329.306C306.228 330.45 272.106 342.623 271.061 359.531Z" fill="white"/>
</mask>
<g mask="url(#mask3_14_431)">
<g style="mix-blend-mode:soft-light">
<path d="M251.614 339.156L251.356 338.689C323.141 298.766 363.453 220.583 359.203 129.548L359.736 129.522C361.75 172.666 353.387 214.51 335.552 250.529C316.802 288.396 287.781 319.042 251.614 339.156Z" fill="#FCFDFE"/>
<path d="M369.137 307.606C347.443 301.766 311.782 303.507 289.642 311.484L289.461 310.984C311.689 302.974 347.492 301.228 369.276 307.09L369.137 307.606Z" fill="#FCFDFE"/>
<path d="M265.615 331.157L265.238 330.78C273.861 322.105 277.768 309.402 276.849 293.026C276.176 281.019 272.971 267.354 267.324 252.406L267.823 252.219C273.486 267.219 276.701 280.935 277.382 292.997C278.309 309.531 274.351 322.37 265.615 331.157Z" fill="#FCFDFE"/>
<path d="M337.885 245.318L337.488 244.963C352.903 227.773 376.519 222.12 393.609 220.404L393.661 220.935C376.663 222.64 353.186 228.256 337.885 245.318Z" fill="#FCFDFE"/>
<path d="M354.668 195.2L354.134 195.191C354.61 169.184 338.468 147.164 328.804 136.353L329.202 135.996C338.917 146.867 355.144 169.011 354.668 195.2Z" fill="#FCFDFE"/>
</g>
</g>
<path d="M265.281 156.421L237.378 151.779L220.695 161.77L192.578 152.536C192.578 152.536 167.761 155.825 167.222 155.654L193.776 403.026C200.918 406.935 210.066 409.892 221.633 410.35C231.147 410.731 240.676 410.245 250.102 408.898C258.043 390.543 281.394 333.995 294.353 275.33C310.135 203.888 265.281 156.421 265.281 156.421Z" fill="url(#paint4_linear_14_431)"/>
<path d="M103.451 176.381C103.451 176.381 92.1153 181.976 86.2899 231.299C80.4644 280.623 97.0041 303.672 104.08 319.768C111.156 335.864 144.437 299.35 158.738 285.384C173.038 271.419 126.437 175.455 103.451 176.381Z" fill="url(#paint5_linear_14_431)"/>
<path d="M103.451 176.381C103.451 176.381 92.1153 181.976 86.2899 231.299C80.4644 280.623 97.0041 303.672 104.08 319.768C111.156 335.864 144.437 299.35 158.738 285.384C173.038 271.419 126.437 175.455 103.451 176.381Z" fill="url(#paint6_linear_14_431)"/>
<path d="M289.538 172.53C289.558 171.782 296.827 159.722 296.827 159.722C296.827 159.722 316.535 168.641 334.037 211.718C351.539 254.795 353.586 296.63 346.937 309.853C340.288 323.075 296.329 296.865 287.62 278.515C278.911 260.165 289.538 172.53 289.538 172.53Z" fill="url(#paint7_linear_14_431)"/>
<path d="M317.609 244.466C311.554 217.769 296.827 159.722 296.827 159.722L245.167 152.969C245.167 152.969 288.292 219.482 283.411 275.33C279.252 322.918 252.998 390.543 245.322 409.508C250.958 408.881 256.553 407.936 262.082 406.677C271.211 383.829 323.205 269.137 317.609 244.466Z" fill="url(#paint8_linear_14_431)"/>
<path d="M195.847 108.239C195.847 108.239 192.118 146.879 190.958 153.352L222.204 165.416L238.058 154.886L228.991 113.345L195.847 108.239Z" fill="url(#paint9_linear_14_431)"/>
<path d="M228.349 77.9563C228.867 78.3389 232.26 103.17 231.971 107.313C231.681 111.456 236.047 120.792 236.047 120.792C236.047 120.792 222.147 128.847 214.771 127.441C207.395 126.034 196.006 110.298 193.955 104.296C191.904 98.2949 204.714 84.3496 204.714 84.3496L228.349 77.9563Z" fill="url(#paint10_linear_14_431)"/>
<path d="M195.974 118.695C195.974 118.695 201.919 138.854 203.549 139.543C216.678 145.085 234.091 148.702 239.397 138.696C242.682 132.504 239.933 123.368 233.968 115.777C232.999 116.763 225.703 123.964 215.953 122.709C205.981 121.424 197.505 111.805 196.931 99.432C196.931 99.432 195.659 96.2576 198.965 95.0346C202.271 93.8117 218.61 85.2388 222.395 85.5006C226.18 85.7623 230.967 87.374 233.18 87.3373C235.393 87.3005 241.021 83.7143 240.442 76.4256C239.864 69.1369 233.798 68.4987 233.798 68.4987C234.792 68.1604 240.297 66.1813 242.804 60.4431C245.448 54.3957 243.787 46.403 239.735 44.4591C236.521 42.9132 233.255 45.9025 217.585 56.6059C204.196 65.7497 197.503 70.3216 194.258 72.29C182.013 79.7118 176.962 81.2654 174.524 87.55C172.25 93.3954 173.929 98.9514 174.437 100.635C178.603 114.415 194.874 118.439 195.974 118.695Z" fill="url(#paint11_linear_14_431)"/>
<path d="M195.53 113.293C195.53 113.293 193.513 108.132 190.603 109.539C187.694 110.945 193.629 118.745 197.821 120.023L195.53 113.293Z" fill="url(#paint12_linear_14_431)"/>
<path d="M287.115 217.793C287.115 217.793 291.442 196.743 291.511 195.976C291.566 195.379 267.083 165.863 256.168 153.401L241.8 150.406C241.8 150.406 286.777 219.481 281.902 275.33C278.902 309.652 265.924 354.397 255.197 383.793C300.433 291.591 306.038 235.438 306.038 235.438L287.115 217.793Z" fill="url(#paint13_linear_14_431)"/>
<path d="M218.204 173.44L211.259 158.672C211.259 158.672 218.887 154.855 230.296 158.016L226.741 172.16C226.599 173.146 226.136 174.057 225.422 174.751C224.709 175.445 223.785 175.883 222.796 175.997C221.86 176.105 220.913 175.916 220.089 175.457C219.265 174.998 218.606 174.293 218.204 173.44Z" fill="url(#paint14_linear_14_431)"/>
<path d="M225.022 154.626L239.039 174.448L245.167 152.969L238.058 144.997L225.022 154.626Z" fill="white"/>
<path d="M190.439 146.293L185.982 153.401L206.769 175.599L215.508 155.654L190.439 146.293Z" fill="white"/>
<path d="M185.982 153.401C144.474 155.558 103.451 176.382 103.451 176.382C138.289 209.314 167.75 337.203 178.879 391.055C183.731 396.628 191.252 402.948 202.297 406.807C215.091 303.351 185.982 153.401 185.982 153.401Z" fill="url(#paint15_linear_14_431)"/>
<path d="M204.328 383.793C204.328 383.793 221.942 204.678 185.982 153.401L171.414 194.778L189.83 217.793L176.54 240.041C176.54 240.041 207.487 296.186 204.328 383.793Z" fill="url(#paint16_linear_14_431)"/>
<path d="M103.497 316.766C103.146 315.949 85.093 275.685 99.9949 257.696C114.897 239.707 182.035 211.844 207.878 184.806C207.878 184.806 214.693 185.995 216.282 190.175C216.282 190.175 170.692 304.71 113.47 323.184C113.476 323.184 107.14 325.264 103.497 316.766Z" fill="url(#paint17_linear_14_431)"/>
<path d="M220.128 171.627C228.579 194.86 225.639 208.876 221.162 217.475C213.016 233.127 198.726 232.862 162.693 258.036C131.138 280.076 129.128 289.341 129.785 294.574C130.703 301.984 137.159 302.807 142.804 317.821C146.733 328.276 146.349 335.178 150.362 336.281C153.684 337.2 156.745 333.237 162.996 328.016C168.016 323.821 175.26 318.667 185.29 314.088C185.731 308.694 186.949 303.392 188.909 298.347C199.272 271.856 223.066 273.092 238.408 248.831C247.67 234.183 252.543 212.306 244.349 193.68C239.161 181.895 230.232 174.796 224.713 171.162L220.128 171.627Z" fill="url(#paint18_linear_14_431)"/>
<path style="mix-blend-mode:multiply" opacity="0.3" d="M244.333 193.688C243.874 192.659 243.392 191.678 242.887 190.72C245.164 209.104 244.01 229.704 231.475 244.074C214.765 263.229 190.954 256.271 171.123 271.692C159.446 280.773 148.694 297.974 147.26 332.796C147.982 334.676 148.864 335.879 150.347 336.286C153.668 337.204 156.731 333.242 162.98 328.021C168.001 323.824 175.245 318.672 185.275 314.092C185.715 308.698 186.934 303.396 188.894 298.352C199.257 271.86 223.05 273.097 238.393 248.835C247.655 234.184 252.528 212.314 244.333 193.688Z" fill="url(#paint19_linear_14_431)"/>
<path d="M209.37 185.573C209.37 185.573 212.416 170.801 218.814 167.109C225.212 163.417 239.284 162.731 239.284 162.731C239.284 162.731 234.106 172.911 229.627 173.952C225.149 174.993 216.022 180.027 215.586 184.806C215.149 189.584 209.37 187.875 209.37 185.573Z" fill="url(#paint20_linear_14_431)"/>
<path d="M259.235 234.671C259.235 234.671 253.021 220.284 245.167 216.015C237.314 211.746 229.059 213.494 228.932 214.724C228.805 215.955 227.611 222.99 233.143 224.698C238.675 226.406 245.434 231.187 247.671 233.675C249.909 236.162 256.168 240.04 256.168 240.04L259.235 234.671Z" fill="url(#paint21_linear_14_431)"/>
<path d="M260.499 231.299L252.81 242.636C261.712 253.626 269.4 262.696 275.156 269.371C298.575 296.509 310.478 307.65 325.962 312.334C330.295 313.645 339.549 316.313 345.045 311.591C345.852 310.9 348.177 308.673 349.141 302.948C351.232 290.521 343.905 279.449 341.456 275.749C331.216 260.27 301.624 243.152 260.499 231.299Z" fill="url(#paint22_linear_14_431)"/>
<path d="M387.922 361.236L57.2927 352.927C38.9592 352.467 23.7726 366.284 23.7726 383.8V450.195C23.7726 467.711 38.9638 481.018 57.2927 479.94L387.922 460.491C398.881 459.847 407.617 448.658 407.617 435.489V385.574C407.617 372.407 398.881 361.512 387.922 361.236Z" fill="url(#paint23_linear_14_431)"/>
<path d="M391.535 361.236L60.9064 352.927C42.5745 352.467 27.3864 366.284 27.3864 383.8V450.195C27.3864 467.711 42.5775 481.018 60.9064 479.94L391.535 460.491C402.495 459.847 411.231 448.658 411.231 435.489V385.574C411.231 372.407 402.495 361.512 391.535 361.236Z" fill="#97A6B7"/>
<path d="M60.9064 475.803C45.0694 476.691 31.9384 465.132 31.9384 450.02V383.822C31.9384 368.71 45.0694 356.709 60.9064 357.064L391.535 364.469C401.025 364.682 408.643 374.142 408.643 385.564V435.588C408.643 447.008 401.031 456.726 391.535 457.258L60.9064 475.803Z" fill="url(#paint24_linear_14_431)"/>
<path d="M104.911 382.845L114.333 401.5C114.507 401.84 114.761 402.133 115.073 402.353C115.385 402.573 115.746 402.714 116.124 402.763L136.711 405.533C137.136 405.59 137.536 405.766 137.866 406.041C138.196 406.315 138.441 406.677 138.575 407.084C138.709 407.492 138.725 407.929 138.621 408.345C138.518 408.761 138.299 409.14 137.99 409.438L123.179 424.021C122.907 424.286 122.703 424.613 122.586 424.973C122.468 425.334 122.439 425.718 122.502 426.092L126.023 446.296C126.352 448.176 124.339 449.699 122.616 448.874L103.87 439.897C103.516 439.731 103.127 439.651 102.736 439.664C102.344 439.677 101.962 439.782 101.619 439.972L82.3195 450.479C80.492 451.474 78.3522 450.069 78.7027 448.102L82.445 427.066C82.5136 426.684 82.484 426.292 82.3589 425.925C82.2339 425.559 82.0175 425.23 81.7302 424.97L65.7294 410.373C64.2187 408.995 65.0528 406.546 67.1375 406.24L89.12 402.983C89.5108 402.927 89.8828 402.779 90.2049 402.551C90.527 402.322 90.79 402.02 90.972 401.67L100.573 382.824C101.463 381.076 104.026 381.093 104.911 382.845Z" fill="#D8DEE8"/>
<path d="M180.266 383.265L188.751 400.961C188.9 401.279 189.125 401.554 189.406 401.764C189.688 401.973 190.016 402.11 190.363 402.161L208.92 404.8C210.625 405.042 211.306 407.232 210.072 408.51L196.71 422.344C196.463 422.602 196.279 422.913 196.173 423.254C196.066 423.595 196.041 423.957 196.098 424.309L199.277 443.488C199.572 445.272 197.76 446.716 196.205 445.929L179.321 437.379C179.004 437.221 178.653 437.145 178.299 437.157C177.945 437.169 177.6 437.269 177.295 437.448L159.939 447.377C159.581 447.593 159.167 447.7 158.749 447.686C158.331 447.672 157.926 447.538 157.582 447.299C157.239 447.06 156.972 446.727 156.813 446.339C156.655 445.952 156.612 445.527 156.69 445.116L160.057 425.182C160.121 424.823 160.095 424.454 159.983 424.107C159.871 423.76 159.676 423.446 159.414 423.192L145.045 409.345C143.689 408.037 144.433 405.725 146.308 405.432L166.052 402.354C166.41 402.297 166.749 402.155 167.039 401.938C167.329 401.721 167.562 401.437 167.718 401.11L176.353 383.237C176.528 382.864 176.806 382.55 177.154 382.33C177.503 382.11 177.907 381.995 178.318 381.998C178.73 382.001 179.132 382.122 179.477 382.346C179.822 382.571 180.096 382.89 180.266 383.265Z" fill="url(#paint25_linear_14_431)"/>
<path d="M248.265 383.637L255.943 400.473C256.071 400.77 256.272 401.031 256.527 401.23C256.783 401.43 257.084 401.562 257.403 401.615L274.215 404.134C275.761 404.365 276.378 406.452 275.261 407.667L263.158 420.83C262.932 421.08 262.765 421.378 262.67 421.702C262.574 422.025 262.552 422.366 262.606 422.699L265.485 440.957C265.752 442.656 264.107 444.028 262.702 443.275L247.417 435.112C247.133 434.961 246.813 434.887 246.491 434.898C246.169 434.909 245.855 435.004 245.581 435.173L229.892 444.585C228.409 445.474 226.678 444.202 226.956 442.43L229.995 423.489C230.052 423.15 230.029 422.803 229.928 422.475C229.827 422.146 229.651 421.846 229.413 421.598L216.437 408.435C215.212 407.194 215.889 404.996 217.577 404.719L235.414 401.811C235.743 401.752 236.052 401.614 236.315 401.408C236.577 401.202 236.785 400.934 236.921 400.629L244.727 383.64C245.457 382.04 247.544 382.055 248.265 383.637Z" fill="url(#paint26_linear_14_431)"/>
<path d="M309.938 383.976L316.919 400.035C317.03 400.314 317.211 400.56 317.443 400.75C317.675 400.941 317.952 401.069 318.247 401.124L333.553 403.536C334.961 403.758 335.523 405.748 334.505 406.903L323.485 419.454C323.278 419.698 323.126 419.983 323.039 420.291C322.952 420.599 322.933 420.921 322.981 421.237L325.603 438.66C325.847 440.281 324.353 441.586 323.07 440.866L309.168 433.06C308.912 432.916 308.621 432.845 308.328 432.855C308.034 432.865 307.749 432.954 307.503 433.115L293.248 442.059C291.903 442.904 290.326 441.689 290.583 440.001L293.338 421.958C293.392 421.638 293.372 421.309 293.281 420.997C293.189 420.685 293.029 420.398 292.812 420.157L281.035 407.606C279.926 406.423 280.538 404.329 282.07 404.067L298.262 401.295C298.566 401.235 298.85 401.101 299.088 400.905C299.327 400.708 299.513 400.455 299.629 400.169L306.725 383.967C307.385 382.456 309.281 382.469 309.938 383.976Z" fill="url(#paint27_linear_14_431)"/>
<path d="M366.126 384.287L372.502 399.633C372.599 399.895 372.761 400.129 372.974 400.311C373.186 400.494 373.441 400.619 373.715 400.675L387.703 402.985C388.992 403.199 389.506 405.103 388.575 406.211L378.501 418.201C378.311 418.437 378.172 418.711 378.092 419.004C378.013 419.297 377.996 419.604 378.042 419.904L380.437 436.563C380.661 438.115 379.295 439.36 378.123 438.669L365.419 431.183C365.187 431.046 364.92 430.977 364.651 430.986C364.381 430.995 364.12 431.081 363.897 431.234L350.887 439.756C349.663 440.56 348.221 439.396 348.457 437.786L350.972 420.559C351.02 420.255 351.002 419.943 350.919 419.647C350.836 419.35 350.69 419.074 350.491 418.839L339.765 406.836C338.754 405.705 339.305 403.707 340.707 403.458L355.472 400.818C355.752 400.757 356.014 400.628 356.232 400.441C356.45 400.254 356.617 400.015 356.719 399.746L363.195 384.269C363.795 382.835 365.535 382.847 366.126 384.287Z" fill="url(#paint28_linear_14_431)"/>
<g style="mix-blend-mode:multiply" opacity="0.1">
<path d="M345.55 416.335C304.512 405.853 276.545 461.668 227.388 450.443C183.956 440.527 182.731 393.899 130.083 360.779C126.436 358.483 122.718 356.351 118.927 354.384L60.9172 352.927C42.5852 352.467 27.3971 366.284 27.3971 383.8V450.195C27.3971 467.711 42.5883 481.018 60.9172 479.94L389.445 460.615C374.61 430.407 358.824 419.725 345.55 416.335Z" fill="#97A6B7"/>
</g>
<path d="M104.911 382.845L114.333 401.5C114.507 401.84 114.761 402.133 115.073 402.353C115.385 402.573 115.746 402.714 116.124 402.763L136.711 405.533C137.136 405.59 137.536 405.766 137.866 406.041C138.196 406.315 138.441 406.677 138.575 407.084C138.709 407.492 138.725 407.929 138.621 408.345C138.518 408.761 138.299 409.14 137.99 409.438L123.179 424.021C122.907 424.286 122.703 424.613 122.586 424.973C122.468 425.334 122.439 425.718 122.502 426.092L126.023 446.296C126.352 448.176 124.339 449.699 122.616 448.874L103.87 439.897C103.516 439.731 103.127 439.651 102.736 439.664C102.344 439.677 101.962 439.782 101.619 439.972L82.3195 450.479C80.492 451.474 78.3522 450.069 78.7027 448.102L82.445 427.066C82.5136 426.684 82.484 426.292 82.3589 425.925C82.2339 425.559 82.0175 425.23 81.7302 424.97L65.7294 410.373C64.2187 408.995 65.0528 406.546 67.1375 406.24L89.12 402.983C89.5108 402.927 89.8828 402.779 90.2049 402.551C90.527 402.322 90.79 402.02 90.972 401.67L100.573 382.824C101.463 381.076 104.026 381.093 104.911 382.845Z" fill="url(#paint29_linear_14_431)"/>
</g>
<defs>
<linearGradient id="paint0_linear_14_431" x1="109.783" y1="124.497" x2="192.683" y2="654.467" gradientUnits="userSpaceOnUse">
<stop stop-color="#6165D7"/>
<stop offset="1" stop-color="#30ABBA"/>
</linearGradient>
<linearGradient id="paint1_linear_14_431" x1="264.594" y1="64.6799" x2="91.4067" y2="279.034" gradientUnits="userSpaceOnUse">
<stop stop-color="#FC9D8A"/>
<stop offset="1" stop-color="#FF8871"/>
</linearGradient>
<linearGradient id="paint2_linear_14_431" x1="316.038" y1="217.685" x2="374.029" y2="588.426" gradientUnits="userSpaceOnUse">
<stop stop-color="#6165D7"/>
<stop offset="1" stop-color="#30ABBA"/>
</linearGradient>
<linearGradient id="paint3_linear_14_431" x1="383.629" y1="173.053" x2="269.88" y2="330.447" gradientUnits="userSpaceOnUse">
<stop stop-color="#FC9D8A"/>
<stop offset="1" stop-color="#FF8871"/>
</linearGradient>
<linearGradient id="paint4_linear_14_431" x1="167.214" y1="281.126" x2="297.719" y2="281.126" gradientUnits="userSpaceOnUse">
<stop offset="0.49" stop-color="#EBEFF2"/>
<stop offset="1" stop-color="white"/>
</linearGradient>
<linearGradient id="paint5_linear_14_431" x1="115.18" y1="248.921" x2="107.636" y2="162.203" gradientUnits="userSpaceOnUse">
<stop stop-color="#010648"/>
<stop offset="1" stop-color="#6165D7"/>
</linearGradient>
<linearGradient id="paint6_linear_14_431" x1="115.18" y1="248.921" x2="107.636" y2="162.203" gradientUnits="userSpaceOnUse">
<stop stop-color="#010648"/>
<stop offset="1" stop-color="#6165D7"/>
</linearGradient>
<linearGradient id="paint7_linear_14_431" x1="310.319" y1="235.374" x2="300.897" y2="145.245" gradientUnits="userSpaceOnUse">
<stop stop-color="#010648"/>
<stop offset="1" stop-color="#6165D7"/>
</linearGradient>
<linearGradient id="paint8_linear_14_431" x1="273.904" y1="279.221" x2="250.378" y2="130.897" gradientUnits="userSpaceOnUse">
<stop stop-color="#010648"/>
<stop offset="1" stop-color="#6165D7"/>
</linearGradient>
<linearGradient id="paint9_linear_14_431" x1="214.04" y1="166.57" x2="217.109" y2="84.991" gradientUnits="userSpaceOnUse">
<stop stop-color="#FFC444"/>
<stop offset="1" stop-color="#F36F56"/>
</linearGradient>
<linearGradient id="paint10_linear_14_431" x1="222.877" y1="109.819" x2="187.074" y2="54.5795" gradientUnits="userSpaceOnUse">
<stop stop-color="#FFC444"/>
<stop offset="1" stop-color="#F36F56"/>
</linearGradient>
<linearGradient id="paint11_linear_14_431" x1="255.311" y1="70.7655" x2="172.453" y2="142.37" gradientUnits="userSpaceOnUse">
<stop stop-color="#010648"/>
<stop offset="1" stop-color="#0F138F"/>
</linearGradient>
<linearGradient id="paint12_linear_14_431" x1="199.574" y1="108.452" x2="171.443" y2="141.185" gradientUnits="userSpaceOnUse">
<stop stop-color="#FFC444"/>
<stop offset="1" stop-color="#F36F56"/>
</linearGradient>
<linearGradient id="paint13_linear_14_431" x1="267.136" y1="265.263" x2="245.085" y2="130.539" gradientUnits="userSpaceOnUse">
<stop stop-color="#010648"/>
<stop offset="1" stop-color="#6165D7"/>
</linearGradient>
<linearGradient id="paint14_linear_14_431" x1="211.344" y1="176.606" x2="111.257" y2="317.271" gradientUnits="userSpaceOnUse">
<stop stop-color="#444B8C"/>
<stop offset="1" stop-color="#26264F"/>
</linearGradient>
<linearGradient id="paint15_linear_14_431" x1="143.718" y1="278.111" x2="127.131" y2="129.766" gradientUnits="userSpaceOnUse">
<stop stop-color="#010648"/>
<stop offset="1" stop-color="#6165D7"/>
</linearGradient>
<linearGradient id="paint16_linear_14_431" x1="186.097" y1="266.785" x2="150.77" y2="140.076" gradientUnits="userSpaceOnUse">
<stop stop-color="#010648"/>
<stop offset="1" stop-color="#6165D7"/>
</linearGradient>
<linearGradient id="paint17_linear_14_431" x1="142.295" y1="253.017" x2="138.107" y2="171.078" gradientUnits="userSpaceOnUse">
<stop stop-color="#010648"/>
<stop offset="1" stop-color="#6165D7"/>
</linearGradient>
<linearGradient id="paint18_linear_14_431" x1="158.044" y1="269.281" x2="250.108" y2="219.498" gradientUnits="userSpaceOnUse">
<stop stop-color="#444B8C"/>
<stop offset="1" stop-color="#26264F"/>
</linearGradient>
<linearGradient id="paint19_linear_14_431" x1="164.614" y1="281.429" x2="256.678" y2="231.647" gradientUnits="userSpaceOnUse">
<stop stop-color="#444B8C"/>
<stop offset="1" stop-color="#26264F"/>
</linearGradient>
<linearGradient id="paint20_linear_14_431" x1="231.443" y1="160.826" x2="199.987" y2="207.114" gradientUnits="userSpaceOnUse">
<stop stop-color="#FFC444"/>
<stop offset="1" stop-color="#F36F56"/>
</linearGradient>
<linearGradient id="paint21_linear_14_431" x1="235.206" y1="207.465" x2="258.735" y2="260.402" gradientUnits="userSpaceOnUse">
<stop stop-color="#FFC444"/>
<stop offset="1" stop-color="#F36F56"/>
</linearGradient>
<linearGradient id="paint22_linear_14_431" x1="290.949" y1="272.136" x2="289.051" y2="223.026" gradientUnits="userSpaceOnUse">
<stop stop-color="#010648"/>
<stop offset="1" stop-color="#6165D7"/>
</linearGradient>
<linearGradient id="paint23_linear_14_431" x1="23.7681" y1="416.459" x2="407.617" y2="416.459" gradientUnits="userSpaceOnUse">
<stop stop-color="#444B8C"/>
<stop offset="1" stop-color="#26264F"/>
</linearGradient>
<linearGradient id="paint24_linear_14_431" x1="117.208" y1="566.026" x2="283.443" y2="313.771" gradientUnits="userSpaceOnUse">
<stop stop-color="#EBEFF2"/>
<stop offset="1" stop-color="white"/>
</linearGradient>
<linearGradient id="paint25_linear_14_431" x1="229.8" y1="366.653" x2="134.88" y2="463.494" gradientUnits="userSpaceOnUse">
<stop stop-color="#FFC444"/>
<stop offset="1" stop-color="#F36F56"/>
</linearGradient>
<linearGradient id="paint26_linear_14_431" x1="264.112" y1="400.175" x2="171.238" y2="494.928" gradientUnits="userSpaceOnUse">
<stop stop-color="#FFC444"/>
<stop offset="1" stop-color="#F36F56"/>
</linearGradient>
<linearGradient id="paint27_linear_14_431" x1="312.162" y1="407.341" x2="215.971" y2="568.026" gradientUnits="userSpaceOnUse">
<stop stop-color="#FFC444"/>
<stop offset="1" stop-color="#F36F56"/>
</linearGradient>
<linearGradient id="paint28_linear_14_431" x1="339.249" y1="411.608" x2="389.05" y2="411.608" gradientUnits="userSpaceOnUse">
<stop stop-color="#FFC444"/>
<stop offset="1" stop-color="#F36F56"/>
</linearGradient>
<linearGradient id="paint29_linear_14_431" x1="112.595" y1="377.069" x2="52.2081" y2="555.939" gradientUnits="userSpaceOnUse">
<stop stop-color="#FFC444"/>
<stop offset="1" stop-color="#F36F56"/>
</linearGradient>
<clipPath id="clip0_14_431">
<rect width="418.843" height="480" fill="white" transform="translate(0.0284424)"/>
</clipPath>
</defs>
</svg>
