<?xml version="1.0" encoding="UTF-8" standalone="no"?>
<svg
   width="480"
   height="480"
   viewBox="0 0 480 480"
   fill="none"
   version="1.1"
   id="svg267"
   sodipodi:docname="competent1.svg"
   inkscape:version="1.1.2 (b8e25be833, 2022-02-05)"
   xmlns:inkscape="http://www.inkscape.org/namespaces/inkscape"
   xmlns:sodipodi="http://sodipodi.sourceforge.net/DTD/sodipodi-0.dtd"
   xmlns="http://www.w3.org/2000/svg"
   xmlns:svg="http://www.w3.org/2000/svg">
  <sodipodi:namedview
     id="namedview269"
     pagecolor="#505050"
     bordercolor="#ffffff"
     borderopacity="1"
     inkscape:pageshadow="0"
     inkscape:pageopacity="0"
     inkscape:pagecheckerboard="1"
     showgrid="false"
     inkscape:object-paths="false"
     inkscape:snap-page="false"
     inkscape:snap-to-guides="false"
     inkscape:snap-grids="true"
     inkscape:zoom="1.23891"
     inkscape:cx="255.06292"
     inkscape:cy="330.93606"
     inkscape:window-width="1920"
     inkscape:window-height="1027"
     inkscape:window-x="-8"
     inkscape:window-y="-8"
     inkscape:window-maximized="1"
     inkscape:current-layer="svg267" />
  <g
     clip-path="url(#clip0_14_648)"
     id="g140"
     transform="matrix(0.98355821,0,0,1,-0.85755162,-2.7226265e-4)">
    <path
       d="m 373.029,28.85 c 16.187,23.1745 -2.794,60.7464 21.226,78.175 23.383,16.966 52.107,-10.8437 74.143,3.76 32.689,21.663 26.72,120.797 -21.073,182.391 -14.374,18.522 -26.383,25.729 -31.702,46.679 -11.422,44.982 28.712,71.739 21.08,93.987 -17.2,50.094 -281.72,92.127 -387.8626,-58.418 C -0.730506,305.104 -8.14758,203.581 36.1417,126.469 116.179,-12.874 336.703,-23.1486 373.029,28.85 Z"
       fill="#f4f7fa"
       id="path2" />
    <path
       d="m 117.203,259.787 c 5.253,2.666 11.85,0.218 14.736,-5.468 2.887,-5.685 0.97,-12.458 -4.281,-15.13 -0.271,-0.139 -0.55,-0.254 -0.828,-0.366 0.966,-3.105 1.703,-6.276 2.206,-9.489 0.3,0 0.601,0 0.909,-0.034 5.99,-0.533 10.746,-6.038 10.62,-12.296 -0.125,-6.259 -5.084,-10.897 -11.076,-10.363 -0.312,0.028 -0.62,0.078 -0.925,0.131 -0.62,-3.082 -1.478,-6.111 -2.565,-9.061 0.275,-0.161 0.549,-0.328 0.817,-0.516 5.127,-3.591 6.765,-10.68 3.66,-15.831 -3.105,-5.151 -9.776,-6.418 -14.901,-2.826 -0.263,0.184 -0.516,0.383 -0.755,0.584 -2.037,-2.251 -4.261,-4.327 -6.646,-6.205 0.171,-0.277 0.333,-0.557 0.483,-0.859 2.886,-5.686 6.66,-11.898 1.375,-14.48 -12.2431,-5.978 -17.4955,-0.86 -20.384,4.824 -0.1495,0.296 -0.2768,0.595 -0.4023,0.894 -2.9271,-0.818 -5.9177,-1.388 -8.9403,-1.706 0.0189,-0.316 0.0326,-0.632 0.0275,-0.952 -0.1255,-6.258 1.7313,-9.644 -4.2828,-9.761 -13.1148,-0.256 -17.5369,5.437 -17.4131,11.692 0,0.328 0.0327,0.648 0.0653,0.964 -3.0235,0.87 -5.9757,1.97 -8.8303,3.293 -0.1358,-0.279 -0.2768,-0.556 -0.4401,-0.826 -3.1034,-5.157 -9.776,-6.418 -14.9012,-2.826 -5.1253,3.592 -6.7655,10.679 -3.6604,15.831 0.1581,0.265 0.3335,0.516 0.5158,0.755 -2.2981,2.301 -4.4243,4.767 -6.3615,7.379 -0.2544,-0.16 -0.5157,-0.314 -0.784,-0.454 -5.2507,-2.665 -11.8477,-0.216 -14.73438,5.469 -2.88671,5.686 -0.9714,12.457 4.28108,15.13 0.2716,0.138 0.5484,0.255 0.827,0.365 -0.965,3.105 -1.7017,6.277 -2.2042,9.49 -0.3009,0 -0.6035,0 -0.9095,0.033 -5.99692,0.528 -10.752505,6.033 -10.628715,12.291 0.12379,6.259 5.087415,10.896 11.077415,10.363 0.313,-0.028 0.6207,-0.078 0.9268,-0.133 0.6205,3.083 1.4781,6.112 2.5652,9.063 -0.2751,0.161 -0.5502,0.328 -0.8184,0.515 -5.12528,3.592 -6.76377,10.679 -3.6604,15.832 3.1033,5.153 13.383,7.546 18.5083,3.954 0.263,-0.184 -3.0948,-1.511 -2.8524,-1.719 2.0389,2.25 4.2629,4.326 6.6486,6.205 -0.172,0.277 -0.3353,0.557 -0.4849,0.859 -2.8867,5.688 -0.9697,12.459 4.2811,15.13 5.2507,2.672 11.8494,0.217 14.7361,-5.469 0.1496,-0.294 0.2786,-0.593 0.4023,-0.892 2.9243,0.817 5.9121,1.387 8.9318,1.704 -0.0172,0.316 -0.0326,0.632 -0.0258,0.954 0.1255,6.256 5.084,10.897 11.0758,10.362 5.9917,-0.535 10.7456,-6.038 10.6201,-12.296 0,-0.327 -0.0344,-0.647 -0.0653,-0.965 3.023,-0.863 5.9747,-1.958 8.8286,-3.277 0.1375,0.28 0.2785,0.557 0.4401,0.827 3.1051,5.158 9.7761,6.417 14.9031,2.825 5.127,-3.592 6.764,-10.679 3.66,-15.831 -0.16,-0.263 -0.333,-0.516 -0.516,-0.753 2.298,-2.302 4.424,-4.768 6.362,-7.38 0.258,0.152 0.509,0.308 0.787,0.446 z m -65.4621,0.83 c -19.0671,-9.68 -26.0251,-34.264 -15.5442,-54.908 10.4808,-20.643 34.4359,-29.534 53.5029,-19.852 19.0674,9.681 26.0254,34.264 15.5424,54.909 -10.4825,20.645 -34.4341,29.532 -53.5011,19.851 z"
       fill="#aabbcc"
       id="path4" />
    <path
       d="m 129.945,229.309 c 5.99,-0.535 10.746,-6.04 10.62,-12.299 -0.125,-6.258 -5.084,-10.896 -11.076,-10.362 -0.312,0.028 -0.62,0.078 -0.925,0.131 -0.62,-3.082 -1.478,-6.111 -2.565,-9.061 0.275,-0.161 0.549,-0.328 0.817,-0.516 5.127,-3.591 11.468,-12.269 7.852,-17.076 -6.865,-9.121 -13.968,-5.173 -19.093,-1.581 -0.263,0.184 -0.516,0.381 -0.755,0.584 -2.037,-2.251 -4.261,-4.327 -6.646,-6.205 0.171,-0.277 0.333,-0.557 0.483,-0.859 0.745,-1.44 1.19,-3.017 1.305,-4.634 0.116,-1.618 -0.1,-3.242 -0.633,-4.773 -4.951,8.711 -9.8276,17.465 -14.6314,26.263 15.2104,11.146 20.0524,33.11 10.5444,51.837 -8.0565,15.869 -24.0701,24.78 -39.7158,23.662 -0.698,1.809 -1.3754,3.628 -2.1302,5.42 -2.027,4.862 -4.3292,9.628 -6.6365,14.38 1.4511,0.273 2.9074,0.486 4.3688,0.641 -0.0189,0.316 -0.0344,0.633 -0.0275,0.954 0.1255,6.257 3.9251,11.575 14.786,11.004 6.0072,-0.32 7.0388,-6.675 6.9133,-12.933 0,-0.326 -0.0344,-0.646 -0.0654,-0.964 3.0231,-0.863 5.9748,-1.959 8.8287,-3.277 0.1375,0.28 0.2785,0.557 0.4401,0.827 3.1051,5.158 13.8745,7.339 19.0005,3.749 5.125,-3.589 2.666,-11.603 -0.437,-16.756 -0.16,-0.263 -0.334,-0.516 -0.516,-0.753 2.298,-2.301 4.424,-4.767 6.361,-7.379 0.255,0.16 0.516,0.314 0.784,0.452 5.253,2.667 11.85,0.218 14.737,-5.467 2.886,-5.686 0.969,-12.458 -4.281,-15.13 -0.272,-0.139 -0.551,-0.255 -0.829,-0.366 0.966,-3.105 1.703,-6.277 2.206,-9.489 0.306,0.007 0.608,0.001 0.916,-0.024 z"
       fill="#aabbcc"
       id="path6" />
    <path
       d="m 122.851,260.43 c 5.253,2.666 11.85,0.218 14.736,-5.469 2.887,-5.688 0.97,-12.457 -4.281,-15.13 -0.271,-0.138 -0.55,-0.255 -0.828,-0.365 0.966,-3.105 1.703,-6.277 2.205,-9.49 0.301,0 0.602,0 0.91,-0.033 5.992,-0.535 10.746,-6.04 10.62,-12.296 -0.125,-6.257 -5.084,-10.899 -11.074,-10.364 -0.315,0.027 -0.621,0.077 -0.927,0.132 -0.62,-3.082 -1.478,-6.112 -2.565,-9.062 0.275,-0.162 0.55,-0.329 0.817,-0.516 5.127,-3.592 6.765,-10.679 3.66,-15.832 -3.105,-5.152 -9.776,-6.416 -14.901,-2.826 -0.263,0.186 -0.516,0.383 -0.755,0.584 -2.035,-2.248 -4.256,-4.321 -6.638,-6.198 0.172,-0.276 0.334,-0.557 0.483,-0.859 2.887,-5.686 0.972,-12.458 -4.281,-15.13 -5.252,-2.672 -11.8476,-0.219 -14.7343,5.467 -0.1496,0.294 -0.2785,0.593 -0.404,0.894 -2.924,-0.819 -5.9118,-1.389 -8.9318,-1.705 0.0189,-0.317 0.0344,-0.633 0.0275,-0.955 -0.1255,-6.256 -5.084,-10.896 -11.0758,-10.362 -5.9917,0.535 -10.7542,6.057 -10.6287,12.312 0,0.327 0.0327,0.647 0.0653,0.965 -3.023,0.863 -5.9747,1.958 -8.8286,3.277 -0.1375,-0.279 -0.2785,-0.557 -0.4418,-0.827 -3.1034,-5.158 -9.776,-6.417 -14.9012,-2.825 -5.1253,3.591 -6.7655,10.678 -3.6604,15.831 0.1582,0.263 0.3335,0.516 0.5158,0.753 -2.2973,2.302 -4.4234,4.768 -6.3614,7.379 -0.2528,-0.158 -0.5158,-0.314 -0.7841,-0.452 -5.2507,-2.666 -11.8477,-0.218 -14.7344,5.468 -2.8867,5.685 -0.9714,12.458 4.2811,15.13 0.2716,0.137 0.5502,0.252 0.8287,0.364 -0.9663,3.105 -1.7036,6.276 -2.2059,9.489 -0.3008,0 -0.6017,0 -0.9095,0.034 -5.9917,0.533 -10.74562,6.038 -10.62183,12.297 0.12379,6.258 5.08573,10.897 11.07573,10.362 0.3129,-0.028 0.6207,-0.076 0.9267,-0.131 0.6206,3.083 1.4782,6.112 2.5652,9.063 -0.2751,0.161 -0.5502,0.326 -0.8166,0.516 -5.127,3.589 -6.7655,10.678 -3.6604,15.829 3.105,5.151 9.7759,6.418 14.9011,2.827 0.2631,-0.184 0.5158,-0.382 0.7548,-0.585 2.0374,2.251 4.2609,4.327 6.6468,6.205 -0.1719,0.279 -0.3335,0.559 -0.4831,0.86 -2.8884,5.685 -0.9714,12.456 4.2811,15.13 5.2525,2.673 11.8477,0.218 14.7344,-5.468 0.1496,-0.294 0.2785,-0.595 0.4023,-0.894 2.927,0.819 5.9177,1.389 8.9404,1.706 -0.0189,0.316 -0.0344,0.632 -0.0275,0.954 0.1255,6.256 5.084,10.897 11.0757,10.362 5.9918,-0.535 10.7457,-6.04 10.6202,-12.296 0,-0.329 -0.0344,-0.647 -0.0654,-0.965 3.0228,-0.863 5.9745,-1.959 8.8286,-3.277 0.1376,0.279 0.2786,0.557 0.4419,0.825 3.1034,5.158 9.7764,6.419 14.9014,2.827 5.125,-3.592 6.764,-10.679 3.66,-15.831 -0.158,-0.263 -0.333,-0.516 -0.516,-0.755 2.298,-2.301 4.425,-4.767 6.362,-7.379 0.246,0.135 0.504,0.295 0.775,0.435 z m -65.4622,0.83 c -19.0671,-9.681 -26.0251,-34.264 -15.5442,-54.909 10.4808,-20.646 34.4359,-29.534 53.5029,-19.853 19.0675,9.681 26.0255,34.26 15.5445,54.909 -10.481,20.649 -34.4362,29.533 -53.5032,19.853 z"
       fill="#d8dee8"
       id="path8" />
    <path
       d="m 448.026,136.53 c 6.264,3.181 14.133,0.259 17.578,-6.523 3.446,-6.783 1.158,-14.858 -5.108,-18.039 -0.323,-0.172 -0.655,-0.303 -0.986,-0.435 1.151,-3.704 2.03,-7.487 2.628,-11.32 0.36,0 0.721,0 1.087,-0.039 7.145,-0.6366 12.817,-7.2044 12.668,-14.6679 -0.15,-7.4635 -6.064,-12.9996 -13.211,-12.3618 -0.373,0.0327 -0.74,0.0929 -1.106,0.1565 -0.74,-3.6764 -1.763,-7.2902 -3.058,-10.8093 0.328,-0.1908 0.655,-0.3902 0.974,-0.6137 6.114,-4.2845 8.069,-12.7384 4.367,-18.8849 -3.701,-6.1465 -11.662,-7.6543 -17.775,-3.3698 -0.313,0.2184 -0.609,0.4556 -0.9,0.6877 -2.432,-2.6815 -5.084,-5.1545 -7.929,-7.393 0.201,-0.3301 0.399,-0.6653 0.578,-1.0161 3.438,-6.7826 7.943,-14.1911 1.629,-17.2738 -14.603,-7.12824 -20.87,-1.0316 -24.314,5.7579 -0.172,0.3439 -0.332,0.7067 -0.48,1.0643 -3.49,-0.9752 -7.055,-1.6556 -10.659,-2.034 0.022,-0.3765 0.039,-0.7547 0.032,-1.1364 -0.149,-7.4635 2.064,-11.50387 -5.108,-11.64314 -15.645,-0.30431 -20.922,6.48524 -20.772,13.94874 0.008,0.3902 0.041,0.7719 0.079,1.1519 -3.606,1.0293 -7.127,2.3359 -10.531,3.908 -0.172,-0.3336 -0.333,-0.6637 -0.526,-0.9852 -3.703,-6.1448 -11.66,-7.6543 -17.776,-3.3715 -6.115,4.2827 -8.069,12.7383 -4.365,18.8831 0.189,0.3163 0.397,0.6103 0.608,0.9009 -2.74,2.7449 -5.276,5.6871 -7.587,8.8028 -0.302,-0.1908 -0.61,-0.3765 -0.933,-0.5416 -6.266,-3.1807 -14.135,-0.2596 -17.579,6.5231 -3.443,6.7826 -1.157,14.8582 5.107,18.0389 0.325,0.1719 0.657,0.3026 0.988,0.435 -1.151,3.7041 -2.03,7.4875 -2.63,11.3199 -0.358,0 -0.719,-1e-4 -1.085,0.0395 -7.145,0.6378 -12.817,7.2039 -12.668,14.6669 0.15,7.464 6.064,13 13.211,12.362 0.373,-0.032 0.74,-0.091 1.104,-0.156 0.74,3.676 1.763,7.29 3.06,10.809 -0.328,0.193 -0.656,0.39 -0.974,0.616 -6.116,4.282 -8.071,12.736 -4.367,18.883 3.703,6.146 15.962,9 22.075,4.716 0.313,-0.219 -3.693,-1.802 -3.4,-2.043 2.43,2.686 5.083,5.162 7.929,7.402 -0.201,0.33 -0.399,0.665 -0.578,1.016 -3.438,6.783 -1.157,14.858 5.107,18.039 6.263,3.18 14.134,0.261 17.576,-6.522 0.172,-0.352 0.334,-0.708 0.482,-1.065 3.489,0.975 7.055,1.655 10.659,2.033 -0.022,0.377 -0.041,0.755 -0.032,1.137 0.149,7.465 6.063,13 13.211,12.362 7.147,-0.638 12.817,-7.204 12.667,-14.668 0,-0.39 -0.039,-0.772 -0.079,-1.15 3.606,-1.031 7.128,-2.338 10.533,-3.91 0.172,0.334 0.332,0.664 0.526,0.986 3.702,6.144 11.66,7.656 17.774,3.371 6.114,-4.284 8.07,-12.738 4.367,-18.885 -0.191,-0.313 -0.397,-0.608 -0.609,-0.899 2.74,-2.742 5.276,-5.681 7.586,-8.794 0.304,0.182 0.61,0.368 0.935,0.533 z m -78.085,0.99 C 347.2,125.973 338.897,96.6506 351.402,72.0251 c 12.504,-24.6256 41.074,-35.232 63.822,-23.6817 22.748,11.5503 31.043,40.8695 18.541,65.5056 -12.503,24.636 -41.081,35.215 -63.824,23.671 z"
       fill="#aabbcc"
       id="path10" />
    <path
       d="m 463.225,100.174 c 7.145,-0.6365 12.817,-7.2043 12.668,-14.6678 -0.15,-7.4635 -6.064,-12.9996 -13.211,-12.3617 -0.373,0.0326 -0.74,0.0928 -1.106,0.1564 -0.74,-3.6763 -1.763,-7.2901 -3.059,-10.8092 0.329,-0.1909 0.656,-0.3903 0.975,-0.6138 6.107,-4.2811 13.672,-14.6347 9.374,-20.3669 -8.187,-10.8815 -16.66,-6.1723 -22.774,-1.8912 -0.313,0.2183 -0.609,0.4556 -0.899,0.6877 -2.432,-2.682 -5.084,-5.155 -7.93,-7.393 0.202,-0.3301 0.399,-0.6654 0.578,-1.0161 1.874,-3.6914 2.039,-7.7609 0.801,-11.2202 -5.905,10.3938 -11.722,20.8357 -17.452,31.3257 18.142,13.2954 23.919,39.4958 12.578,61.8331 -9.611,18.928 -28.712,29.556 -47.367,28.224 -0.832,2.158 -1.648,4.327 -2.541,6.465 -2.417,5.799 -5.158,11.479 -7.909,17.153 1.73,0.324 3.467,0.579 5.21,0.765 -0.022,0.377 -0.041,0.755 -0.033,1.137 0.15,7.465 4.682,13.806 17.633,13.118 7.165,-0.38 8.396,-7.961 8.253,-15.426 0,-0.388 -0.039,-0.77 -0.079,-1.148 3.606,-1.031 7.127,-2.338 10.532,-3.91 0.172,0.334 0.332,0.664 0.527,0.985 3.701,6.147 16.548,8.757 22.662,4.47 6.113,-4.286 3.18,-13.84 -0.516,-19.986 -0.191,-0.315 -0.397,-0.609 -0.609,-0.9 2.731,-2.74 5.258,-5.677 7.56,-8.787 0.304,0.189 0.61,0.375 0.935,0.54 6.264,3.181 14.133,0.259 17.578,-6.523 3.446,-6.783 1.158,-14.858 -5.108,-18.039 -0.323,-0.172 -0.655,-0.303 -0.986,-0.435 1.151,-3.704 2.03,-7.488 2.628,-11.32 0.367,-0.007 0.721,-0.014 1.087,-0.046 z"
       fill="#aabbcc"
       id="path12" />
    <path
       d="m 454.768,137.297 c 6.263,3.179 14.132,0.259 17.576,-6.523 3.444,-6.783 1.157,-14.858 -5.106,-18.039 -0.325,-0.172 -0.657,-0.305 -0.989,-0.437 1.153,-3.703 2.032,-7.486 2.631,-11.318 0.359,0 0.718,0 1.085,-0.04 7.147,-0.637 12.819,-7.2035 12.669,-14.6687 -0.149,-7.4652 -6.066,-12.9979 -13.211,-12.3601 -0.375,0.0327 -0.741,0.0912 -1.105,0.1565 -0.74,-3.6766 -1.764,-7.2904 -3.061,-10.8093 0.33,-0.1925 0.657,-0.3902 0.977,-0.6155 6.114,-4.2827 8.068,-12.7366 4.365,-18.8831 -3.703,-6.1465 -11.66,-7.6543 -17.776,-3.3715 -0.313,0.2201 -0.607,0.4573 -0.899,0.698 -2.43,-2.6854 -5.082,-5.1613 -7.928,-7.4016 0.201,-0.3301 0.397,-0.6653 0.576,-1.0161 3.439,-6.7826 1.157,-14.8599 -5.106,-18.0406 -6.264,-3.1807 -14.133,-0.2596 -17.577,6.523 -0.171,0.3439 -0.331,0.7084 -0.479,1.066 -3.49,-0.9759 -7.056,-1.6563 -10.66,-2.034 0.022,-0.3765 0.04,-0.7547 0.031,-1.1381 -0.15,-7.4635 -6.064,-12.99796 -13.211,-12.36009 -7.147,0.63786 -12.817,7.20389 -12.668,14.66739 0,0.3903 0.04,0.7719 0.079,1.1502 -3.606,1.0301 -7.127,2.3366 -10.532,3.908 -0.164,-0.3319 -0.332,-0.6637 -0.516,-0.9835 -3.703,-6.1465 -11.662,-7.656 -17.776,-3.3715 -6.114,4.2845 -8.069,12.7383 -4.367,18.8831 0.191,0.3146 0.397,0.6086 0.609,0.8992 -2.74,2.7453 -5.275,5.6874 -7.586,8.8028 -0.304,-0.1891 -0.61,-0.3748 -0.935,-0.5399 -6.264,-3.1807 -14.133,-0.2596 -17.577,6.5213 -3.443,6.781 -1.157,14.86 5.107,18.0407 0.325,0.1633 0.655,0.3026 0.988,0.435 -1.152,3.7039 -2.031,7.4873 -2.63,11.3198 -0.36,0 -0.719,0 -1.085,0.0379 -7.147,0.6378 -12.819,7.2056 -12.67,14.6687 0.15,7.464 6.064,12.998 13.212,12.362 0.373,-0.034 0.741,-0.093 1.105,-0.158 0.74,3.675 1.762,7.288 3.057,10.806 -0.328,0.192 -0.655,0.392 -0.975,0.615 -6.114,4.283 -8.069,12.739 -4.365,18.883 3.703,6.145 11.655,7.667 17.769,3.369 0.313,-0.221 0.608,-0.456 0.899,-0.688 2.432,2.681 5.085,5.154 7.929,7.393 -0.201,0.33 -0.398,0.663 -0.576,1.016 -3.438,6.783 -1.158,14.858 5.107,18.039 6.265,3.181 14.132,0.259 17.576,-6.523 0.172,-0.344 0.332,-0.709 0.48,-1.066 3.49,0.977 7.055,1.657 10.66,2.034 -0.023,0.378 -0.04,0.755 -0.033,1.138 0.151,7.463 6.066,12.998 13.211,12.362 7.145,-0.636 12.819,-7.206 12.67,-14.669 -0.009,-0.391 -0.042,-0.771 -0.08,-1.151 3.607,-1.029 7.128,-2.336 10.533,-3.908 0.162,0.332 0.332,0.664 0.524,0.986 3.704,6.144 11.662,7.654 17.776,3.369 6.114,-4.284 8.069,-12.736 4.365,-18.883 -0.189,-0.314 -0.397,-0.608 -0.608,-0.899 2.741,-2.745 5.277,-5.687 7.587,-8.803 0.298,0.198 0.605,0.384 0.934,0.549 z m -78.086,0.99 C 353.939,126.74 345.638,97.4158 358.141,72.7817 c 12.503,-24.6342 41.076,-35.2285 63.819,-23.68 22.743,11.5486 31.04,40.8782 18.537,65.5033 -12.502,24.626 -41.075,35.229 -63.818,23.682 z"
       fill="#d8dee8"
       id="path14" />
    <path
       d="m 390.168,289.648 -43.777,0.615 c -4.985,0.071 -7.977,6.46 -5.133,11.05 14.476,23.362 -2.213,45.976 -15.782,47.4 -15.862,1.666 -31.965,-7.366 -30.421,-27.886 0.669,-8.878 2.923,-16.019 5.263,-21.249 2.14,-4.785 -1.016,-10.316 -5.825,-10.243 l -56.05,0.744 v 51.878 c 0,3.955 3.876,6.467 7.127,4.526 4.683,-2.794 11.701,-5.394 21.147,-4.778 18.842,1.225 29.471,17.772 22.705,31.853 -13.106,27.275 -30.497,21.18 -40.403,14.374 -3.253,-2.236 -7.694,0.588 -7.694,4.87 v 59.744 l 148.842,-12.963 z"
       fill="url(#paint0_linear_14_648)"
       id="path16"
       style="fill:url(#paint0_linear_14_648)" />
    <g
       style="mix-blend-mode:soft-light"
       opacity="0.3"
       id="g20">
      <path
         d="M 250.759,441.556 V 400.67 c 5.295,2.407 10.553,3.45 15.704,3.11 8.768,-0.574 21.17,-5.548 30.897,-25.886 4.197,-8.768 4.17,-18.728 -0.074,-27.357 -0.053,-0.11 -0.108,-0.22 -0.171,-0.329 6.772,5.915 16.072,8.965 26.119,8.5 0.906,-0.041 1.824,-0.113 2.729,-0.211 10.487,-1.149 20.934,-10.096 26.075,-22.222 4.932,-11.633 4.399,-24.617 -1.36,-36.367 l 31.214,-0.583 v 131.417 z m 38.887,-101.024 c -5.791,-5.124 -13.461,-8.308 -22.062,-8.908 -1.713,-0.12 -3.43,-0.152 -5.146,-0.098 -4.971,0.138 -9.884,1.099 -14.54,2.844 v -34.235 l 42.675,-0.763 c -2.497,6.708 -4.026,13.737 -4.541,20.876 -0.569,7.537 0.674,14.423 3.614,20.284 z"
         fill="#ffffff"
         id="path18" />
    </g>
    <path
       d="m 249.021,387.931 c 9.908,6.807 27.299,12.895 40.403,-14.373 6.766,-14.081 -3.863,-30.628 -22.705,-31.854 -9.456,-0.615 -16.471,1.985 -21.147,4.778 -3.252,1.942 -7.127,-0.565 -7.127,-4.525 v -51.878 l -54.438,0.724 c -5.55,0.074 -9.023,-6.212 -6.234,-11.293 19.101,-34.797 -11.877,-49.918 -19.772,-49.412 -8.769,0.562 -36.365,5.273 -36.365,26.467 0,9.6 2.769,17.708 5.794,23.688 2.62,5.182 -0.942,11.43 -6.68,11.507 l -51.6373,0.688 V 467.544 L 241.328,452.546 v -59.744 c -0.001,-4.283 4.44,-7.107 7.693,-4.871 z"
       fill="url(#paint1_linear_14_648)"
       id="path22"
       style="fill:url(#paint1_linear_14_648)" />
    <g
       style="mix-blend-mode:soft-light"
       opacity="0.3"
       id="g26">
      <path
         d="M 77.159,458.504 V 300.672 l 43.59,-0.734 c 5.465,-0.093 10.4,-3.013 13.214,-7.801 1.397,-2.36 2.177,-5.034 2.267,-7.775 0.09,-2.741 -0.512,-5.46 -1.751,-7.907 -3.231,-6.416 -4.873,-13.111 -4.873,-19.883 0,-15.957 27.523,-18.332 28.916,-18.442 2.328,0.054 11.263,3.504 15.542,11.284 3.812,6.931 2.835,15.704 -2.923,26.134 -1.331,2.387 -2.029,5.076 -2.029,7.809 0,2.734 0.698,5.423 2.029,7.81 2.696,4.845 7.507,7.679 12.855,7.588 l 47.199,-0.793 v 44.253 c 0,3.587 1.315,6.888 3.7,9.284 2.302,2.322 5.316,3.522 8.481,3.387 1.935,-0.095 3.815,-0.671 5.471,-1.678 3.97,-2.382 8.545,-3.694 13.582,-3.899 1.208,-0.048 2.418,-0.034 3.625,0.041 7.762,0.478 14.321,4.335 17.158,10.053 1.24,2.498 2.268,6.399 0.134,10.82 -4.864,10.089 -10.546,15.408 -16.895,15.773 -5.06,0.29 -10.072,-2.378 -13.394,-4.675 -1.983,-1.383 -4.372,-2.063 -6.786,-1.929 -6.705,0.362 -12.176,6.566 -12.176,13.826 v 52.154 z"
         fill="#ffffff"
         id="path24" />
    </g>
    <path
       d="m 69.111,292.454 51.638,-0.688 c 5.737,-0.078 9.299,-6.326 6.679,-11.508 -3.024,-5.979 -5.794,-14.087 -5.794,-23.688 0,-21.194 27.6,-25.905 36.365,-26.467 7.892,-0.505 38.87,14.614 19.772,49.413 -2.789,5.08 0.688,11.366 6.234,11.292 l 54.438,-0.724 v -52.82 c 0,-4.405 4.622,-6.796 7.909,-4.169 15.433,12.325 36.965,1.93 40.576,-7.038 4.267,-10.608 5.427,-32.353 -16.449,-39.502 -11.6,-3.783 -20.142,-0.954 -25.667,2.648 -3.289,2.144 -7.588,-0.556 -7.588,-4.772 V 133.578 L 69.111,123.885 Z"
       fill="url(#paint2_linear_14_648)"
       id="path28"
       style="fill:url(#paint2_linear_14_648)" />
    <g
       style="mix-blend-mode:soft-light"
       opacity="0.3"
       id="g32">
      <path
         d="M 80.0715,281.342 V 135.481 l 147.6005,7.826 v 40.796 c -0.03,4.242 1.57,8.333 4.47,11.428 2.729,2.887 6.293,4.529 10.032,4.632 2.722,0.072 5.399,-0.696 7.668,-2.201 3.281,-2.156 6.984,-3.186 11.004,-3.063 2.457,0.1 4.887,0.544 7.221,1.32 5.502,1.774 9.045,4.642 10.832,8.768 2.317,5.36 1.499,12.34 -0.344,16.893 -0.992,1.965 -7.909,6.866 -16.162,6.744 -4.02,-0.06 -7.565,-1.296 -10.525,-3.679 -2.49,-2.003 -5.423,-3.095 -8.485,-3.146 -7.969,-0.141 -14.496,6.75 -14.496,15.363 v 42.775 l -40.266,0.344 c 8.482,-18.257 5.184,-31.68 0.659,-39.983 -7.596,-13.926 -22.836,-20.667 -30.801,-20.812 -0.441,0 -0.86,0 -1.255,0.026 -22.757,1.353 -46.183,13.347 -46.183,37.03 0.011,8.418 1.727,16.746 5.043,24.483 z"
         fill="#ffffff"
         id="path30" />
    </g>
    <g
       style="mix-blend-mode:multiply"
       opacity="0.3"
       id="g36">
      <path
         d="m 192.103,216.117 c -6.324,-34.959 3.702,-59.488 13.203,-84.377 L 69.111,123.885 v 168.569 l 51.638,-0.688 c 5.737,-0.078 9.299,-6.326 6.679,-11.508 -3.024,-5.979 -5.794,-14.087 -5.794,-23.688 0,-21.194 27.6,-25.903 36.365,-26.467 7.892,-0.505 38.87,14.614 19.772,49.413 -2.789,5.08 0.688,11.366 6.234,11.292 l 53.414,-0.71 c -21.301,-19.06 -39.059,-39.394 -45.316,-73.981 z"
         fill="url(#paint3_linear_14_648)"
         id="path34"
         style="fill:url(#paint3_linear_14_648)" />
    </g>
    <g
       style="mix-blend-mode:multiply"
       opacity="0.3"
       id="g40">
      <path
         d="m 238.44,291.009 v 50.948 c 0,3.955 3.875,6.467 7.126,4.527 4.684,-2.795 11.702,-5.397 21.148,-4.781 18.843,1.227 29.472,17.774 22.707,31.855 -13.107,27.275 -30.497,21.18 -40.404,14.374 -3.255,-2.236 -7.696,0.587 -7.696,4.872 v 59.742 l 96.416,-8.397 c -4.316,-27.11 -12.091,-48.372 -20.589,-65.196 -22.03,-43.62 -52.76,-64.896 -78.708,-87.944 z"
         fill="url(#paint4_linear_14_648)"
         id="path38"
         style="fill:url(#paint4_linear_14_648)" />
    </g>
    <path
       d="m 442.217,59.3245 c 0,-4.9447 -4.099,-9.2842 -9.169,-9.6934 L 260.187,33.59 c -5.639,-0.4556 -9.64,5.5723 -9.64,10.8075 v 60.8465 c 0,5.237 4.586,9.745 10.225,10.068 l 172.274,9.896 c 5.07,0.291 9.169,-3.481 9.169,-8.424 z"
       fill="url(#paint5_linear_14_648)"
       id="path42"
       style="fill:url(#paint5_linear_14_648)" />
    <path
       d="m 349.12,133.886 -15.653,-17.854 31.161,1.823 z"
       fill="url(#paint6_linear_14_648)"
       id="path44"
       style="fill:url(#paint6_linear_14_648)" />
    <path
       d="m 444.24,57.069 c 0,-4.9464 -4.098,-9.2842 -9.169,-9.6934 L 262.797,33.4854 c -5.639,-0.4539 -10.224,3.4214 -10.224,8.6566 v 60.844 c 0,5.236 4.585,9.744 10.224,10.069 l 172.274,9.896 c 5.071,0.291 9.169,-3.482 9.169,-8.425 z"
       fill="url(#paint7_linear_14_648)"
       id="path46"
       style="fill:url(#paint7_linear_14_648)" />
    <path
       d="m 351.151,131.63 -15.653,-17.853 31.161,1.822 z"
       fill="url(#paint8_linear_14_648)"
       id="path48"
       style="fill:url(#paint8_linear_14_648)" />
    <g
       opacity="0.5"
       id="g56">
      <path
         d="m 269.979,62.942 160.675,12.0901 c 1.004,0.0766 1.996,-0.2484 2.76,-0.9036 0.763,-0.6552 1.235,-1.5868 1.312,-2.59 0.076,-1.0032 -0.249,-1.9957 -0.904,-2.7592 -0.655,-0.7635 -1.587,-1.2355 -2.59,-1.3121 L 270.556,54.9438 c -0.521,-0.0406 -1.045,0.0272 -1.539,0.1989 -0.494,0.1717 -0.947,0.4438 -1.33,0.799 -0.384,0.3552 -0.69,0.786 -0.899,1.2652 -0.209,0.4792 -0.317,0.9965 -0.317,1.5194 v 0.4332 c -0.002,0.9573 0.358,1.8799 1.009,2.5819 0.651,0.7019 1.544,1.131 2.499,1.2006 z"
         fill="#ffffff"
         id="path50" />
      <path
         d="M 431.213,80.4634 270.538,68.6793 c -0.52,-0.0381 -1.042,0.0315 -1.534,0.2044 -0.492,0.1728 -0.943,0.4453 -1.325,0.8002 -0.382,0.355 -0.686,0.7849 -0.894,1.2629 -0.208,0.4779 -0.315,0.9937 -0.315,1.515 v 0.4367 c 0,0.9594 0.363,1.8833 1.017,2.5852 0.654,0.702 1.55,1.1298 2.507,1.1972 L 430.67,88.0283 c 0.519,0.0366 1.04,-0.0341 1.531,-0.2076 0.49,-0.1735 0.94,-0.4462 1.32,-0.801 0.381,-0.3548 0.685,-0.7842 0.892,-1.2614 0.208,-0.4772 0.315,-0.9921 0.315,-1.5124 0.002,-0.9584 -0.36,-1.882 -1.012,-2.5841 -0.652,-0.7021 -1.547,-1.1304 -2.503,-1.1984 z"
         fill="#ffffff"
         id="path52" />
      <path
         d="M 431.198,93.4425 270.522,82.3977 c -0.519,-0.0369 -1.04,0.0336 -1.53,0.2071 -0.49,0.1735 -0.939,0.4463 -1.32,0.8013 -0.38,0.355 -0.683,0.7845 -0.889,1.2618 -0.207,0.4774 -0.313,0.9922 -0.312,1.5123 v 0.4384 c 10e-4,0.9621 0.367,1.8881 1.025,2.5904 0.657,0.7023 1.557,1.1284 2.517,1.1921 l 160.684,10.6099 c 0.518,0.035 1.038,-0.036 1.527,-0.211 0.489,-0.174 0.937,-0.447 1.316,-0.8015 0.379,-0.3548 0.681,-0.7839 0.887,-1.2605 0.206,-0.4765 0.312,-0.9904 0.311,-1.5096 0.003,-0.9631 -0.362,-1.8911 -1.02,-2.5946 -0.658,-0.7035 -1.559,-1.1296 -2.52,-1.1913 z"
         fill="#ffffff"
         id="path54" />
    </g>
    <path
       d="m 277.905,193.502 c 5.526,-3.61 14.067,-6.44 25.667,-2.649 21.877,7.151 20.716,28.895 16.449,39.504 -3.611,8.968 -25.142,19.363 -40.576,7.036 -3.289,-2.626 -7.909,-0.234 -7.909,4.171 v 52.817 l 56.05,-0.745 c 4.814,-0.063 7.965,5.459 5.826,10.244 -2.339,5.23 -4.595,12.369 -5.264,21.249 -1.547,20.52 14.559,29.549 30.432,27.885 13.567,-1.423 30.259,-24.037 15.781,-47.401 -2.845,-4.589 0.15,-10.978 5.132,-11.048 l 43.777,-0.616 V 146.7 l -152.952,-8.812 v 50.852 c 0,4.207 4.298,6.906 7.587,4.762 z"
       fill="url(#paint9_linear_14_648)"
       id="path58"
       style="fill:url(#paint9_linear_14_648)" />
    <g
       style="mix-blend-mode:soft-light"
       opacity="0.3"
       id="g62">
      <path
         d="m 356.339,343.345 c -6.664,0.246 -12.671,-1.965 -16.046,-5.927 -2.517,-2.955 -3.564,-6.789 -3.194,-11.717 0.469,-6.266 1.922,-12.171 4.312,-17.536 2.377,-5.344 2.125,-11.509 -0.678,-16.506 -2.823,-5.039 -7.737,-8.025 -13.144,-7.979 l -46.593,0.404 v -34.111 c 4.553,2.091 9.502,3.18 14.513,3.191 14.244,0.077 28.585,-8.131 32.795,-18.651 3.37,-8.414 5.158,-21.579 0.088,-33.411 -2.828,-6.604 -9.009,-15.427 -22.435,-19.88 -3.874,-1.312 -7.913,-2.072 -11.999,-2.26 -4.826,-0.217 -9.647,0.543 -14.172,2.236 v -32.585 l 135.213,7.171 v 128.721 l -35.509,0.334 c -5.535,0.053 -10.595,3.56 -13.189,9.164 -2.594,5.603 -2.235,12.234 0.934,17.313 5.653,9.078 4.451,16.552 2.446,21.237 -2.751,6.449 -8.031,10.316 -11.6,10.672 -0.579,0.058 -1.164,0.099 -1.742,0.12 z"
         fill="#ffffff"
         id="path60" />
    </g>
    <path
       d="m 426.299,216.687 c 0.126,-0.553 -0.417,-2.689 -0.118,-3.158 0.493,-0.769 0.222,-0.899 0.901,-1.511 0.344,-0.313 0.655,-0.733 0.615,-1.218 -0.089,-1.067 -2.814,-5.307 -2.814,-5.307 0,0 -1.458,1.46 -0.688,2.293 0.77,0.834 1.389,1.789 0.669,2.579 -0.721,0.791 -1.063,1.873 -1.143,2.992 -0.081,1.119 0.675,4.281 0.675,4.281 0,0 1.603,0.37 1.903,-0.951 z"
       fill="url(#paint10_linear_14_648)"
       id="path64"
       style="fill:url(#paint10_linear_14_648)" />
    <path
       d="m 426.614,216.001 c 3.016,6.399 6.604,12.511 10.72,18.264 10.178,14.222 16.184,15.851 22.198,28.438 1.448,3.032 5.299,11.725 4.656,22.853 -0.275,4.748 -0.557,8.682 -3.367,11.144 -6.064,5.314 -21.132,1.345 -25.39,-7.049 -3.638,-7.159 3.71,-11.414 2.034,-22.939 -1.696,-11.655 -10.125,-13.57 -14.071,-26.305 -1.845,-5.961 -2.552,-13.777 0.189,-23.849 z"
       fill="url(#paint11_linear_14_648)"
       id="path66"
       style="fill:url(#paint11_linear_14_648)" />
    <path
       d="m 441.013,456.71 0.234,2.83 c 0.026,0.297 -0.052,0.593 -0.221,0.837 -0.17,0.245 -0.419,0.423 -0.706,0.503 -2.089,0.581 -6.994,1.755 -10.831,1.181 -5.005,-0.75 8.117,-5.351 8.117,-5.351 z"
       fill="#26264f"
       id="path68" />
    <path
       d="m 440.401,451.358 0.612,5.352 c 0,0 -2.116,1.436 -3.402,0 l -2.614,-4.864 z"
       fill="url(#paint12_linear_14_648)"
       id="path70"
       style="fill:url(#paint12_linear_14_648)" />
    <path
       d="m 375.183,459.569 -0.868,3.202 c -0.13,0.418 -0.381,0.787 -0.722,1.061 -0.341,0.273 -0.756,0.438 -1.192,0.474 -3.124,0.26 -10.369,0.688 -13.582,-0.535 -4.158,-1.583 12.196,-4.676 12.196,-4.676 z"
       fill="#26264f"
       id="path72" />
    <path
       d="m 376.725,455.321 -1.547,3.822 c 0,0 -2.62,1.534 -4.952,0.308 l 1.272,-4.685 z"
       fill="url(#paint13_linear_14_648)"
       id="path74"
       style="fill:url(#paint13_linear_14_648)" />
    <path
       d="m 437.265,345.544 c 2.36,4.38 3.886,9.161 4.5,14.098 1.134,9.506 -2.103,13.161 -4.348,26.572 -1.431,8.534 -2.923,17.475 -0.81,28.267 1.788,9.112 4.525,11.232 5.598,20.422 0.933,8.012 -0.172,14.805 -1.295,19.399 l -5.76,0.235 c -8.03,-10.678 -14.11,-22.69 -17.959,-35.484 -1.431,-4.78 -0.776,-3.762 -3.095,-52.46 -0.249,-5.252 -0.549,-11.406 3.526,-15.989 5.638,-6.334 15.919,-5.523 19.643,-5.06 z"
       fill="#010648"
       id="path76" />
    <path
       d="m 429.585,342.879 c 4.893,3.569 5.13,11.736 4.075,16.93 -1.687,8.304 -7.135,11.251 -28.597,33.559 -3.076,3.196 -4.89,5.14 -6.819,8.264 -5.626,9.113 -5.65,17.618 -6.415,23.507 -1.018,7.831 -4.348,18.74 -14.786,31.573 -2.361,0.616 -4.867,0.328 -7.027,-0.808 -1.05,-38.635 11.488,-76.414 35.428,-106.755 8.715,-8.067 18.82,-10.151 24.141,-6.27 z"
       fill="#010648"
       id="path78" />
    <path
       d="m 354.347,348.632 c 0,0 -1.972,-0.358 -2.786,-1.519 -0.813,-1.16 -1.638,-2.321 -2.56,-2.67 -0.921,-0.349 0.124,1.857 0.704,2.902 0.579,1.046 -0.116,2.318 -3.018,2.435 -2.902,0.117 -5.082,0 -5.082,0 0,0 0.758,4.601 10.637,2.882 0,0 2.923,-1.453 4.194,-1.135 1.27,0.318 0.581,0 0.581,0 l 0.191,-2.801 z"
       fill="url(#paint14_linear_14_648)"
       id="path80"
       style="fill:url(#paint14_linear_14_648)" />
    <path
       d="m 439.488,265.02 c -0.627,-2.828 0.882,-5.33 1.214,-5.871 1.389,-2.256 1.73,-2.557 2.354,-2.923 l 0.859,-0.469 0.102,-0.033 c 0.548,-0.16 2.379,-0.115 2.751,-0.015 1.171,0.318 2.164,5.211 1.427,12.009 0.036,0.263 0.069,0.528 0.1,0.794 0.034,0.298 0.067,0.592 0.096,0.886 0.121,1.185 0.544,2.32 1.229,3.295 0.685,0.975 1.608,1.759 2.682,2.275 4.163,2.015 4.642,2.923 4.539,3.356 -0.29,1.133 -5.141,0.968 -8.632,0.366 -7.619,-1.31 -12.233,1.23 -11.757,-0.115 0.208,-0.586 4.298,-2.611 6.1,-6.573 -0.449,0.986 0.378,-2.133 0.567,-3.201 -0.466,-0.278 -3.168,-1.699 -3.631,-3.781 z"
       fill="url(#paint15_linear_14_648)"
       id="path82"
       style="fill:url(#paint15_linear_14_648)" />
    <path
       d="m 441.574,253.681 c -0.11,2.113 0.761,4.424 1.248,4.814 0.287,0.251 0.529,0.548 0.719,0.879 0.047,0.08 0.082,0.166 0.106,0.256 0.391,1.357 -1.814,2.806 -1.437,3.425 0.272,0.449 1.742,-0.05 1.891,0.332 0.15,0.382 -1.093,1.031 -0.933,1.453 0.12,0.326 0.871,0.075 1.308,0.588 0.218,0.256 0.139,0.443 0.344,1.203 0.104,0.399 0.245,0.787 0.419,1.161 0.662,1.279 2.705,1.846 3.129,1.375 0.119,-0.132 0.031,-0.254 0.172,-0.712 0.11,-0.321 0.264,-0.626 0.456,-0.906 0.468,-0.687 1.528,-1.138 2.612,-1.831 2.006,-1.282 2.596,-2.438 2.775,-2.828 0.063,-0.141 0.104,-0.246 0.134,-0.321 0.588,-1.531 0.717,-3.817 0.094,-5.262 -1.043,-2.422 -3.75,-1.449 -5.785,-3.902 -2.351,-2.832 -0.659,-6.432 -1.993,-6.914 -1.47,-0.538 -5.056,3.282 -5.259,7.19 z"
       fill="#26264f"
       id="path84" />
    <path
       d="m 442.996,262.6 c 0.557,-0.688 1.43,0.036 1.375,0.957 -0.055,0.922 -0.99,1.828 -1.845,1.599 -0.854,-0.229 -0.28,-1.637 0.47,-2.556 z"
       fill="url(#paint16_linear_14_648)"
       id="path86"
       style="fill:url(#paint16_linear_14_648)" />
    <path
       d="m 443.501,261.083 -1.288,1.496 c 0,0 -1.401,1.843 -2.099,0.753 -0.569,-0.891 -0.731,-0.88 -0.77,-0.848 0,0 -0.01,0.017 -0.012,0.017 -0.002,0 0.113,-0.421 0.225,-0.789 -0.504,0.645 -0.893,1.372 -1.148,2.149 -0.313,0.958 -0.649,1.984 -0.155,3.016 0.029,0.06 0.574,1.159 1.69,1.479 0,0 0.438,0.125 2.333,-0.1 0,0 -1.969,-1.602 -1.981,-1.958 -0.032,-0.965 1.329,-1.412 2.43,-3.327 0.338,-0.593 0.599,-1.228 0.775,-1.888 z"
       fill="#26264f"
       id="path88" />
    <path
       d="m 418.523,283.652 c 4.773,-4.066 10.286,-7.171 16.237,-9.145 7.684,-2.532 6.855,-0.093 21.744,-2.025 1.19,-0.155 3.267,-0.366 5.026,0.841 2.672,1.838 2.967,5.905 2.936,8.722 -0.117,10.377 -4.857,19.12 -7.541,28.109 -4.097,13.716 0.427,15.181 -4.435,34.188 -2.903,11.347 -5.583,14.997 -8.447,17.444 -6.616,5.65 -15.165,5.674 -18.153,5.687 -10.034,0.035 -13.278,-4.7 -23.939,-5.651 -0.777,-0.069 -2.184,-0.172 -3.454,-1.145 -3.406,-2.61 -2.579,-9.025 -2.079,-12.398 3.399,-22.609 10.627,-39.731 10.627,-39.731 2.78,-6.583 6.571,-15.094 11.478,-24.896 z"
       fill="#6165d7"
       id="path90" />
    <path
       style="mix-blend-mode:multiply;fill:url(#paint17_linear_14_648)"
       opacity="0.3"
       d="m 396.418,348.279 c 3.399,-22.609 10.627,-39.729 10.627,-39.729 2.331,-5.523 5.383,-12.414 9.2,-20.269 12.793,11.777 14.858,17.881 13.364,21.249 -2.149,4.86 -11.799,4.361 -12.948,9.875 -1.231,5.918 9.081,10.354 7.682,16.461 -1.169,5.103 -9.063,5.02 -9.657,9.656 -0.563,4.387 5.9,9.191 11.192,10.974 8.451,2.845 16.081,-1.285 17.996,-2.407 3.396,-2.022 6.225,-4.869 8.227,-8.277 -2.751,10.192 -5.33,13.646 -8.058,15.99 -6.616,5.649 -15.165,5.673 -18.153,5.687 -10.034,0.034 -13.278,-4.701 -23.939,-5.651 -0.777,-0.069 -2.184,-0.172 -3.454,-1.145 -3.406,-2.626 -2.586,-9.04 -2.079,-12.414 z"
       fill="url(#paint17_linear_14_648)"
       id="path92" />
    <path
       d="m 444.46,276.17 c -4.927,-0.43 -12.344,-0.44 -20.483,2.342 -19.685,6.729 -31.142,25.54 -35.992,33.504 -8.559,14.053 -10.488,24.709 -22.999,32.065 -2.728,1.601 -5.638,2.871 -8.667,3.782 -0.028,1.949 -0.056,3.902 -0.085,5.859 12.295,-1.765 20.833,-5.691 26.337,-8.925 10.173,-5.979 14.076,-12.007 30.139,-21.508 6.992,-4.126 7.252,-3.583 10.388,-5.705 7.997,-5.417 17.298,-16.436 21.362,-41.414 z"
       fill="url(#paint18_linear_14_648)"
       id="path94"
       style="fill:url(#paint18_linear_14_648)" />
    <path
       style="mix-blend-mode:multiply"
       opacity="0.3"
       d="m 421.747,419.064 c -2.593,-9.048 6.953,-13.754 5.33,-27.589 -0.747,-6.351 -3.016,-7.565 -2.196,-11.287 1.296,-5.86 8.445,-9.628 16.707,-12.108 -0.819,4.78 -2.707,9.377 -4.172,18.129 -1.43,8.534 -2.922,17.475 -0.809,28.267 1.788,9.112 4.525,11.232 5.598,20.422 0.361,3.15 0.437,6.327 0.227,9.492 -1.203,-3.084 -2.78,-6.009 -4.696,-8.708 -7.198,-10.113 -13.916,-9.402 -15.989,-16.618 z"
       fill="#010648"
       id="path96" />
    <path
       d="m 109.391,469.672 c -0.182,1.58 -0.949,2.851 -1.96,3.25 -2.524,0.993 -5.791,1.375 -9.6111,1.375 -3.877,0 -7.1884,-0.39 -9.733,-1.398 -0.98,-0.388 -1.7313,-1.597 -1.9411,-3.118 l -6.7706,-49.344 h 35.7068 z"
       fill="url(#paint19_linear_14_648)"
       id="path98"
       style="fill:url(#paint19_linear_14_648)" />
    <path
       d="m 115.082,420.428 c 0,1.516 -7.993,2.751 -17.8535,2.751 -9.8602,0 -17.8533,-1.23 -17.8533,-2.751 0,-1.522 7.9931,-2.751 17.8533,-2.751 9.8605,0 17.8535,1.236 17.8535,2.751 z"
       fill="url(#paint20_linear_14_648)"
       id="path100"
       style="fill:url(#paint20_linear_14_648)" />
    <path
       d="m 98.7002,420.239 h 3.8958 c 26.764,-19.054 31.651,-32.679 30.53,-41.922 -0.989,-8.172 -6.449,-11.084 -14.576,-31.374 -4.845,-12.093 -7.268,-18.14 -7.079,-24.708 0.413,-14.354 9.504,-16.227 14.442,-34.983 1.965,-7.475 5.224,-19.861 -0.555,-31.927 -6.19,-12.943 -19.872,-21.912 -23.302,-19.428 -2.2744,1.645 -0.027,8.345 2.201,14.99 5.906,17.601 13.522,21.638 14.298,31.928 0.479,6.361 -2.117,8.963 -7.909,21.099 -11.7378,24.586 -18.0803,37.863 -15.5478,50.807 3.4627,17.709 20.5548,19.569 21.6628,34.981 0.884,12.534 -9.554,23.486 -18.0608,30.537 z"
       fill="url(#paint21_linear_14_648)"
       id="path102"
       style="fill:url(#paint21_linear_14_648)" />
    <path
       d="m 79.5472,230.617 c -3.7155,-0.493 -11.8099,15.269 -11.6604,32.204 0.1445,16.452 7.9363,18.856 10.2712,35.815 2.9675,21.539 -8.7788,23.639 -6.9409,44.702 1.6815,19.256 11.9406,22.445 17.769,48.864 2.0415,9.297 2.9735,18.803 2.7767,28.319 h 3.8873 c 7.9349,-16.473 9.9379,-30.158 10.2709,-39.702 0.86,-24.385 -8.8851,-30.289 -5.551,-54.139 2.214,-15.851 7.434,-19.807 5.274,-33.039 -1.332,-8.156 -4.698,-15.119 -10.2724,-26.649 -5.3298,-11.003 -7.8624,-13.384 -11.105,-23.038 -3.0173,-9.001 -2.8832,-13.095 -4.7194,-13.337 z"
       fill="url(#paint22_linear_14_648)"
       id="path104"
       style="fill:url(#paint22_linear_14_648)" />
    <path
       d="m 87.5986,419.962 c 0.4815,-5.944 0.2115,-14.385 -4.1641,-22.489 -7.3689,-13.642 -18.608,-11.949 -27.7633,-24.154 -9.6281,-12.836 -11.1755,-33.354 -4.998,-48.03 5.9419,-14.109 16.6102,-17.24 16.6583,-29.985 0.0378,-10.307 -7.068,-17.731 -6.1087,-18.323 0.9886,-0.61 9.0332,6.929 12.2518,18.043 1.2585,4.346 1.776,9.227 0,22.492 -2.6821,20.023 -5.7012,22.631 -5.5878,29.982 0.2356,15.474 15.4738,17.365 23.3207,34.705 3.5606,7.862 6.4267,20.043 2.2213,38.314 z"
       fill="url(#paint23_linear_14_648)"
       id="path106"
       style="fill:url(#paint23_linear_14_648)" />
    <path
       d="m 153.775,186.766 c -0.758,0.649 -1.691,1.059 -2.681,1.177 -0.99,0.119 -1.994,-0.059 -2.883,-0.511 -0.889,-0.451 -1.625,-1.156 -2.113,-2.026 -0.489,-0.869 -0.709,-1.864 -0.632,-2.859 0.077,-0.994 0.448,-1.944 1.064,-2.728 0.617,-0.784 1.452,-1.367 2.4,-1.677 0.948,-0.309 1.967,-0.33 2.927,-0.061 0.96,0.27 1.819,0.818 2.468,1.576 0.868,1.016 1.298,2.335 1.195,3.668 -0.103,1.333 -0.731,2.57 -1.745,3.441 z"
       fill="#ffffff"
       id="path108" />
    <path
       d="m 179.231,183.044 c -0.909,0.779 -2.029,1.271 -3.217,1.413 -1.189,0.143 -2.393,-0.07 -3.46,-0.612 -1.068,-0.542 -1.95,-1.388 -2.537,-2.432 -0.586,-1.043 -0.85,-2.237 -0.758,-3.43 0.092,-1.194 0.536,-2.333 1.276,-3.274 0.739,-0.942 1.741,-1.642 2.879,-2.014 1.138,-0.371 2.361,-0.397 3.513,-0.074 1.153,0.323 2.183,0.981 2.962,1.89 0.518,0.603 0.911,1.303 1.158,2.058 0.247,0.756 0.342,1.552 0.281,2.345 -0.061,0.792 -0.278,1.565 -0.638,2.274 -0.359,0.708 -0.856,1.339 -1.459,1.856 z"
       fill="#ffffff"
       id="path110" />
    <path
       d="m 169.099,205.164 c -0.758,0.649 -1.691,1.058 -2.681,1.177 -0.991,0.118 -1.994,-0.06 -2.883,-0.512 -0.889,-0.451 -1.624,-1.157 -2.113,-2.026 -0.488,-0.87 -0.708,-1.865 -0.63,-2.86 0.077,-0.994 0.447,-1.943 1.064,-2.727 0.617,-0.784 1.452,-1.367 2.4,-1.677 0.948,-0.309 1.967,-0.33 2.927,-0.06 0.96,0.27 1.819,0.818 2.468,1.576 0.869,1.016 1.299,2.336 1.196,3.669 -0.104,1.333 -0.732,2.571 -1.748,3.44 z"
       fill="#ffffff"
       id="path112" />
    <path
       d="m 139.448,207.176 c -0.91,0.779 -2.029,1.271 -3.218,1.413 -1.189,0.143 -2.393,-0.07 -3.461,-0.612 -1.067,-0.542 -1.95,-1.389 -2.537,-2.432 -0.587,-1.044 -0.851,-2.238 -0.758,-3.432 0.092,-1.194 0.536,-2.333 1.275,-3.275 0.74,-0.941 1.742,-1.642 2.88,-2.014 1.139,-0.372 2.361,-0.398 3.514,-0.074 1.153,0.323 2.184,0.98 2.963,1.89 1.044,1.219 1.562,2.803 1.438,4.404 -0.123,1.601 -0.877,3.087 -2.096,4.132 z"
       fill="#ffffff"
       id="path114" />
    <path
       d="m 136.078,203.022 -1.138,-0.872 15.53,-20.363 15.14,18.177 9.021,-21.791 1.324,0.549 -9.929,23.979 -15.508,-18.62 z"
       fill="#ffffff"
       id="path116" />
    <path
       d="m 325.964,391.346 h -8.379 v 28.128 h 8.379 z"
       fill="#ffffff"
       id="path118" />
    <path
       d="m 313.773,411.532 h -8.382 v 7.942 h 8.382 z"
       fill="#ffffff"
       id="path120" />
    <path
       d="m 350.346,391.346 h -8.38 v 28.128 h 8.38 z"
       fill="#ffffff"
       id="path122" />
    <path
       d="m 350.346,380.678 h -8.38 v 6.602 h 8.38 z"
       fill="#ffffff"
       id="path124" />
    <path
       d="m 338.153,378.561 h -8.379 v 40.913 h 8.379 z"
       fill="#ffffff"
       id="path126" />
    <path
       d="m 373.577,228.473 c -1.577,0 -3.12,-0.467 -4.432,-1.343 -1.311,-0.877 -2.334,-2.122 -2.938,-3.579 -0.604,-1.458 -0.762,-3.062 -0.454,-4.609 0.307,-1.547 1.067,-2.968 2.182,-4.084 1.115,-1.116 2.537,-1.875 4.084,-2.183 1.547,-0.308 3.151,-0.15 4.608,0.453 1.458,0.604 2.703,1.626 3.58,2.938 0.876,1.311 1.344,2.854 1.344,4.431 -0.003,2.114 -0.843,4.141 -2.338,5.636 -1.495,1.495 -3.522,2.337 -5.636,2.34 z m 0,-13.192 c -1.032,-0.001 -2.041,0.304 -2.899,0.877 -0.858,0.573 -1.527,1.387 -1.923,2.34 -0.395,0.954 -0.499,2.003 -0.298,3.015 0.201,1.012 0.698,1.942 1.427,2.671 0.729,0.73 1.659,1.227 2.671,1.429 1.012,0.202 2.061,0.098 3.014,-0.296 0.953,-0.395 1.768,-1.064 2.342,-1.921 0.573,-0.858 0.879,-1.867 0.879,-2.899 -0.001,-1.382 -0.55,-2.708 -1.528,-3.686 -0.977,-0.978 -2.302,-1.528 -3.685,-1.53 z"
       fill="#ffffff"
       id="path128" />
    <path
       d="m 392.823,216.696 h 4.707 c -0.624,-3.957 -2.223,-7.697 -4.654,-10.882 l -3.225,3.224 c -0.49,0.489 -1.153,0.763 -1.845,0.763 -0.692,0 -1.355,-0.274 -1.845,-0.763 l -1.05,-1.052 c -0.488,-0.491 -0.762,-1.154 -0.762,-1.846 0,-0.692 0.274,-1.355 0.762,-1.846 l 3.208,-3.206 c -3.19,-2.399 -6.925,-3.968 -10.871,-4.567 v 4.6 c -0.002,0.691 -0.278,1.354 -0.767,1.844 -0.489,0.489 -1.151,0.765 -1.843,0.767 h -1.487 c -0.692,-0.002 -1.354,-0.279 -1.843,-0.768 -0.489,-0.489 -0.765,-1.152 -0.767,-1.843 v -4.682 c -4.021,0.502 -7.85,2.009 -11.134,4.381 l 3.474,3.474 c 0.488,0.491 0.762,1.154 0.762,1.846 0,0.692 -0.274,1.355 -0.762,1.846 l -1.05,1.052 c -0.49,0.489 -1.153,0.763 -1.845,0.763 -0.692,0 -1.355,-0.274 -1.845,-0.763 l -3.581,-3.581 c -2.589,3.258 -4.29,7.13 -4.938,11.24 h 5.344 c 0.691,0.003 1.354,0.279 1.843,0.768 0.489,0.489 0.765,1.152 0.767,1.844 v 1.486 c -0.002,0.691 -0.278,1.354 -0.767,1.843 -0.489,0.489 -1.152,0.765 -1.843,0.766 h -5.463 c 0.502,4.222 2.11,8.236 4.663,11.635 l 3.977,-3.973 c 0.49,-0.488 1.154,-0.762 1.846,-0.762 0.691,0 1.355,0.274 1.845,0.762 l 1.049,1.05 c 0.488,0.491 0.762,1.155 0.762,1.847 0,0.692 -0.274,1.356 -0.762,1.846 l -3.99,3.987 c 3.392,2.592 7.412,4.235 11.648,4.761 v -5.574 c 0.002,-0.691 0.278,-1.354 0.767,-1.843 0.489,-0.489 1.151,-0.765 1.843,-0.767 h 1.487 c 0.692,0.002 1.354,0.278 1.843,0.767 0.489,0.489 0.765,1.151 0.767,1.843 v 5.502 c 4.158,-0.633 8.078,-2.343 11.371,-4.959 l -3.71,-3.708 c -0.487,-0.491 -0.761,-1.155 -0.761,-1.847 0,-0.691 0.274,-1.355 0.761,-1.846 l 1.05,-1.051 c 0.491,-0.488 1.154,-0.761 1.846,-0.761 0.692,0 1.355,0.273 1.846,0.761 l 3.61,3.611 c 2.399,-3.32 3.912,-7.196 4.397,-11.263 h -4.828 c -0.692,-0.002 -1.355,-0.278 -1.844,-0.767 -0.489,-0.489 -0.764,-1.152 -0.766,-1.843 v -1.486 c -0.003,-0.694 0.269,-1.36 0.757,-1.854 0.488,-0.493 1.152,-0.772 1.846,-0.776 z m -19.246,15.754 c -2.365,0 -4.678,-0.701 -6.645,-2.015 -1.967,-1.314 -3.5,-3.182 -4.405,-5.367 -0.906,-2.186 -1.143,-4.59 -0.681,-6.91 0.461,-2.321 1.6,-4.452 3.273,-6.124 1.672,-1.673 3.804,-2.812 6.124,-3.273 2.32,-0.462 4.724,-0.225 6.91,0.681 2.185,0.905 4.053,2.438 5.367,4.405 1.314,1.967 2.015,4.279 2.015,6.645 0,3.171 -1.26,6.213 -3.503,8.455 -2.242,2.243 -5.284,3.503 -8.455,3.503 z"
       fill="#ffffff"
       id="path130" />
    <path
       d="m 199.281,415.549 h -47.793 l 13.875,-19.028 v -15.24 l -3.451,-1.657 1.828,-3.796 5.837,2.806 v 19.259 l -9.8,13.442 h 31.217 l -9.798,-13.442 v -19.259 l 5.833,-2.806 1.828,3.796 -3.447,1.657 v 15.24 z"
       fill="#ffffff"
       id="path132" />
    <path
       d="m 187.499,361.688 c 0,1.215 -0.361,2.403 -1.035,3.413 -0.675,1.01 -1.635,1.797 -2.757,2.262 -1.123,0.465 -2.358,0.587 -3.549,0.35 -1.192,-0.237 -2.286,-0.822 -3.146,-1.681 -0.859,-0.859 -1.444,-1.953 -1.681,-3.144 -0.237,-1.192 -0.116,-2.427 0.349,-3.55 0.464,-1.122 1.252,-2.082 2.261,-2.757 1.01,-0.675 2.198,-1.036 3.413,-1.036 0.807,-0.001 1.606,0.158 2.352,0.467 0.745,0.308 1.423,0.761 1.993,1.331 0.571,0.571 1.024,1.248 1.332,1.993 0.309,0.746 0.468,1.545 0.468,2.352 z"
       fill="#ffffff"
       id="path134" />
    <path
       d="m 171.52,366.774 c 0,0.741 -0.22,1.465 -0.632,2.081 -0.412,0.617 -0.997,1.097 -1.682,1.38 -0.685,0.284 -1.438,0.358 -2.165,0.213 -0.727,-0.145 -1.394,-0.502 -1.918,-1.026 -0.524,-0.525 -0.88,-1.193 -1.025,-1.92 -0.144,-0.726 -0.069,-1.48 0.215,-2.164 0.284,-0.685 0.765,-1.27 1.381,-1.681 0.617,-0.411 1.341,-0.63 2.083,-0.63 0.491,0.001 0.978,0.098 1.432,0.286 0.455,0.188 0.867,0.464 1.215,0.812 0.348,0.348 0.623,0.761 0.811,1.216 0.188,0.454 0.285,0.941 0.285,1.433 z"
       fill="#ffffff"
       id="path136" />
    <path
       d="m 178.663,376.907 c 0,0.722 -0.215,1.428 -0.616,2.029 -0.402,0.6 -0.972,1.068 -1.639,1.344 -0.668,0.276 -1.402,0.348 -2.11,0.207 -0.708,-0.141 -1.359,-0.489 -1.869,-1 -0.511,-0.511 -0.859,-1.161 -0.999,-1.87 -0.141,-0.708 -0.069,-1.442 0.208,-2.109 0.276,-0.668 0.744,-1.238 1.345,-1.639 0.6,-0.401 1.306,-0.615 2.028,-0.615 0.969,10e-4 1.898,0.386 2.582,1.071 0.685,0.685 1.07,1.614 1.07,2.582 z"
       fill="#ffffff"
       id="path138" />
  </g>
  <defs
     id="defs265">
    <linearGradient
       id="paint0_linear_14_648"
       x1="557.95697"
       y1="-58.5369"
       x2="45.501598"
       y2="831.90002"
       gradientUnits="userSpaceOnUse">
      <stop
         stop-color="#67878E"
         id="stop142" />
      <stop
         offset="1"
         stop-color="#30ABBA"
         id="stop144" />
    </linearGradient>
    <linearGradient
       id="paint1_linear_14_648"
       x1="185.578"
       y1="331.84399"
       x2="-31.7708"
       y2="622.90198"
       gradientUnits="userSpaceOnUse">
      <stop
         stop-color="#777996"
         id="stop147" />
      <stop
         offset="1"
         stop-color="#30ABBA"
         id="stop149" />
    </linearGradient>
    <linearGradient
       id="paint2_linear_14_648"
       x1="390.85101"
       y1="-194.754"
       x2="-153.375"
       y2="750.88501"
       gradientUnits="userSpaceOnUse">
      <stop
         stop-color="#AA80F9"
         id="stop152" />
      <stop
         offset="1"
         stop-color="#6165D7"
         id="stop154" />
    </linearGradient>
    <linearGradient
       id="paint3_linear_14_648"
       x1="253.5"
       y1="3.5"
       x2="-35.000099"
       y2="529.5"
       gradientUnits="userSpaceOnUse">
      <stop
         stop-color="#30ABBA"
         id="stop157" />
      <stop
         offset="1"
         stop-color="#6165D7"
         id="stop159" />
    </linearGradient>
    <linearGradient
       id="paint4_linear_14_648"
       x1="554.25702"
       y1="-94.905296"
       x2="16.4918"
       y2="839.50598"
       gradientUnits="userSpaceOnUse">
      <stop
         stop-color="#FFC444"
         id="stop162" />
      <stop
         offset="1"
         stop-color="#F36F56"
         id="stop164" />
    </linearGradient>
    <linearGradient
       id="paint5_linear_14_648"
       x1="319.08401"
       y1="115.824"
       x2="415.45401"
       y2="-10.584"
       gradientUnits="userSpaceOnUse">
      <stop
         stop-color="#444B8C"
         id="stop167" />
      <stop
         offset="1"
         stop-color="#26264F"
         id="stop169" />
    </linearGradient>
    <linearGradient
       id="paint6_linear_14_648"
       x1="339.177"
       y1="129.892"
       x2="436.94699"
       y2="1.6455801"
       gradientUnits="userSpaceOnUse">
      <stop
         stop-color="#444B8C"
         id="stop172" />
      <stop
         offset="1"
         stop-color="#26264F"
         id="stop174" />
    </linearGradient>
    <linearGradient
       id="paint7_linear_14_648"
       x1="321.38599"
       y1="113.777"
       x2="417.758"
       y2="-12.6332"
       gradientUnits="userSpaceOnUse">
      <stop
         stop-color="#FF9085"
         id="stop177" />
      <stop
         offset="1"
         stop-color="#FB6FBB"
         id="stop179" />
    </linearGradient>
    <linearGradient
       id="paint8_linear_14_648"
       x1="341.20801"
       y1="127.634"
       x2="438.978"
       y2="-0.61027801"
       gradientUnits="userSpaceOnUse">
      <stop
         stop-color="#FF9085"
         id="stop182" />
      <stop
         offset="1"
         stop-color="#FB6FBB"
         id="stop184" />
    </linearGradient>
    <linearGradient
       id="paint9_linear_14_648"
       x1="473.93799"
       y1="38.4403"
       x2="319.242"
       y2="254.369"
       gradientUnits="userSpaceOnUse">
      <stop
         stop-color="#FC9D8A"
         id="stop187" />
      <stop
         offset="1"
         stop-color="#FC9D8A"
         id="stop189" />
    </linearGradient>
    <linearGradient
       id="paint10_linear_14_648"
       x1="423.26901"
       y1="211.39999"
       x2="434.259"
       y2="228.729"
       gradientUnits="userSpaceOnUse">
      <stop
         stop-color="#FFC444"
         id="stop192" />
      <stop
         offset="1"
         stop-color="#F36F56"
         id="stop194" />
    </linearGradient>
    <linearGradient
       id="paint11_linear_14_648"
       x1="456.965"
       y1="253.44"
       x2="426.67099"
       y2="261.24799"
       gradientUnits="userSpaceOnUse">
      <stop
         stop-color="#AA80F9"
         id="stop197" />
      <stop
         offset="1"
         stop-color="#6165D7"
         id="stop199" />
    </linearGradient>
    <linearGradient
       id="paint12_linear_14_648"
       x1="438.10101"
       y1="473.55301"
       x2="437.84601"
       y2="422.33499"
       gradientUnits="userSpaceOnUse">
      <stop
         stop-color="#FFC444"
         id="stop202" />
      <stop
         offset="1"
         stop-color="#F36F56"
         id="stop204" />
    </linearGradient>
    <linearGradient
       id="paint13_linear_14_648"
       x1="373.55301"
       y1="472.62299"
       x2="373.319"
       y2="425.35901"
       gradientUnits="userSpaceOnUse">
      <stop
         stop-color="#FFC444"
         id="stop207" />
      <stop
         offset="1"
         stop-color="#F36F56"
         id="stop209" />
    </linearGradient>
    <linearGradient
       id="paint14_linear_14_648"
       x1="346.784"
       y1="344.22"
       x2="358.92899"
       y2="367.922"
       gradientUnits="userSpaceOnUse">
      <stop
         stop-color="#FFC444"
         id="stop212" />
      <stop
         offset="1"
         stop-color="#F36F56"
         id="stop214" />
    </linearGradient>
    <linearGradient
       id="paint15_linear_14_648"
       x1="437.88501"
       y1="252.771"
       x2="455.673"
       y2="300.58499"
       gradientUnits="userSpaceOnUse">
      <stop
         stop-color="#FFC444"
         id="stop217" />
      <stop
         offset="1"
         stop-color="#F36F56"
         id="stop219" />
    </linearGradient>
    <linearGradient
       id="paint16_linear_14_648"
       x1="439.63101"
       y1="252.121"
       x2="457.42001"
       y2="299.935"
       gradientUnits="userSpaceOnUse">
      <stop
         stop-color="#FFC444"
         id="stop222" />
      <stop
         offset="1"
         stop-color="#F36F56"
         id="stop224" />
    </linearGradient>
    <linearGradient
       id="paint17_linear_14_648"
       x1="447.707"
       y1="292.00201"
       x2="394.16901"
       y2="380.31299"
       gradientUnits="userSpaceOnUse">
      <stop
         stop-color="#AA80F9"
         id="stop227" />
      <stop
         offset="1"
         stop-color="#6165D7"
         id="stop229" />
    </linearGradient>
    <linearGradient
       id="paint18_linear_14_648"
       x1="424.742"
       y1="279.34698"
       x2="370.314"
       y2="367.133"
       gradientUnits="userSpaceOnUse">
      <stop
         stop-color="#6165D7"
         id="stop232" />
      <stop
         offset="1"
         stop-color="#010648"
         id="stop234" />
    </linearGradient>
    <linearGradient
       id="paint19_linear_14_648"
       x1="84.012199"
       y1="440.767"
       x2="129.59599"
       y2="456.08801"
       gradientUnits="userSpaceOnUse">
      <stop
         stop-color="#6165D7"
         id="stop237" />
      <stop
         offset="1"
         stop-color="#010648"
         id="stop239" />
    </linearGradient>
    <linearGradient
       id="paint20_linear_14_648"
       x1="104.563"
       y1="405.09299"
       x2="86.238701"
       y2="443.40601"
       gradientUnits="userSpaceOnUse">
      <stop
         stop-color="#FFC444"
         id="stop242" />
      <stop
         offset="1"
         stop-color="#F36F56"
         id="stop244" />
    </linearGradient>
    <linearGradient
       id="paint21_linear_14_648"
       x1="136.592"
       y1="295.854"
       x2="87.108597"
       y2="344.20099"
       gradientUnits="userSpaceOnUse">
      <stop
         stop-color="#FFC444"
         id="stop247" />
      <stop
         offset="1"
         stop-color="#F36F56"
         id="stop249" />
    </linearGradient>
    <linearGradient
       id="paint22_linear_14_648"
       x1="84.481598"
       y1="343.01999"
       x2="75.381302"
       y2="424.92401"
       gradientUnits="userSpaceOnUse">
      <stop
         stop-color="#FFC444"
         id="stop252" />
      <stop
         offset="1"
         stop-color="#F36F56"
         id="stop254" />
    </linearGradient>
    <linearGradient
       id="paint23_linear_14_648"
       x1="76.784203"
       y1="339.76199"
       x2="58.582001"
       y2="454.08701"
       gradientUnits="userSpaceOnUse">
      <stop
         stop-color="#FFC444"
         id="stop257" />
      <stop
         offset="1"
         stop-color="#F36F56"
         id="stop259" />
    </linearGradient>
    <clipPath
       id="clip0_14_648">
      <rect
         width="488.02399"
         height="480"
         fill="#ffffff"
         transform="translate(0.871887)"
         id="rect262"
         x="0"
         y="0" />
    </clipPath>
  </defs>
</svg>
