<svg width="489" height="480" viewBox="0 0 489 480" fill="none" xmlns="http://www.w3.org/2000/svg">
<g clip-path="url(#clip0_14_648)">
<path d="M373.029 28.85C389.216 52.0245 370.235 89.5964 394.255 107.025C417.638 123.991 446.362 96.1813 468.398 110.785C501.087 132.448 495.118 231.582 447.325 293.176C432.951 311.698 420.942 318.905 415.623 339.855C404.201 384.837 444.335 411.594 436.703 433.842C419.503 483.936 154.983 525.969 48.8404 375.424C-0.730506 305.104 -8.14758 203.581 36.1417 126.469C116.179 -12.874 336.703 -23.1486 373.029 28.85Z" fill="#F4F7FA"/>
<path d="M117.203 259.787C122.456 262.453 129.053 260.005 131.939 254.319C134.826 248.634 132.909 241.861 127.658 239.189C127.387 239.05 127.108 238.935 126.83 238.823C127.796 235.718 128.533 232.547 129.036 229.334C129.336 229.334 129.637 229.334 129.945 229.3C135.935 228.767 140.691 223.262 140.565 217.004C140.44 210.745 135.481 206.107 129.489 206.641C129.177 206.669 128.869 206.719 128.564 206.772C127.944 203.69 127.086 200.661 125.999 197.711C126.274 197.55 126.548 197.383 126.816 197.195C131.943 193.604 133.581 186.515 130.476 181.364C127.371 176.213 120.7 174.946 115.575 178.538C115.312 178.722 115.059 178.921 114.82 179.122C112.783 176.871 110.559 174.795 108.174 172.917C108.345 172.64 108.507 172.36 108.657 172.058C111.543 166.372 115.317 160.16 110.032 157.578C97.7889 151.6 92.5365 156.718 89.648 162.402C89.4985 162.698 89.3712 162.997 89.2457 163.296C86.3186 162.478 83.328 161.908 80.3054 161.59C80.3243 161.274 80.338 160.958 80.3329 160.638C80.2074 154.38 82.0642 150.994 76.0501 150.877C62.9353 150.621 58.5132 156.314 58.637 162.569C58.637 162.897 58.6697 163.217 58.7023 163.533C55.6788 164.403 52.7266 165.503 49.872 166.826C49.7362 166.547 49.5952 166.27 49.4319 166C46.3285 160.843 39.6559 159.582 34.5307 163.174C29.4054 166.766 27.7652 173.853 30.8703 179.005C31.0284 179.27 31.2038 179.521 31.3861 179.76C29.088 182.061 26.9618 184.527 25.0246 187.139C24.7702 186.979 24.5089 186.825 24.2406 186.685C18.9899 184.02 12.3929 186.469 9.50622 192.154C6.61951 197.84 8.53482 204.611 13.7873 207.284C14.0589 207.422 14.3357 207.539 14.6143 207.649C13.6493 210.754 12.9126 213.926 12.4101 217.139C12.1092 217.139 11.8066 217.139 11.5006 217.172C5.50368 217.7 0.748095 223.205 0.871885 229.463C0.995675 235.722 5.9593 240.359 11.9493 239.826C12.2623 239.798 12.57 239.748 12.8761 239.693C13.4966 242.776 14.3542 245.805 15.4413 248.756C15.1662 248.917 14.8911 249.084 14.6229 249.271C9.49762 252.863 7.85913 259.95 10.9625 265.103C14.0658 270.256 24.3455 272.649 29.4708 269.057C29.7338 268.873 26.376 267.546 26.6184 267.338C28.6573 269.588 30.8813 271.664 33.267 273.543C33.095 273.82 32.9317 274.1 32.7821 274.402C29.8954 280.09 31.8124 286.861 37.0632 289.532C42.3139 292.204 48.9126 289.749 51.7993 284.063C51.9489 283.769 52.0779 283.47 52.2016 283.171C55.1259 283.988 58.1137 284.558 61.1334 284.875C61.1162 285.191 61.1008 285.507 61.1076 285.829C61.2331 292.085 66.1916 296.726 72.1834 296.191C78.1751 295.656 82.929 290.153 82.8035 283.895C82.8035 283.568 82.7691 283.248 82.7382 282.93C85.7612 282.067 88.7129 280.972 91.5668 279.653C91.7043 279.933 91.8453 280.21 92.0069 280.48C95.112 285.638 101.783 286.897 106.91 283.305C112.037 279.713 113.674 272.626 110.57 267.474C110.41 267.211 110.237 266.958 110.054 266.721C112.352 264.419 114.478 261.953 116.416 259.341C116.674 259.493 116.925 259.649 117.203 259.787ZM51.7409 260.617C32.6738 250.937 25.7158 226.353 36.1967 205.709C46.6775 185.066 70.6326 176.175 89.6996 185.857C108.767 195.538 115.725 220.121 105.242 240.766C94.7595 261.411 70.8079 270.298 51.7409 260.617Z" fill="#AABBCC"/>
<path d="M129.945 229.309C135.935 228.774 140.691 223.269 140.565 217.01C140.44 210.752 135.481 206.114 129.489 206.648C129.177 206.676 128.869 206.726 128.564 206.779C127.944 203.697 127.086 200.668 125.999 197.718C126.274 197.557 126.548 197.39 126.816 197.202C131.943 193.611 138.284 184.933 134.668 180.126C127.803 171.005 120.7 174.953 115.575 178.545C115.312 178.729 115.059 178.926 114.82 179.129C112.783 176.878 110.559 174.802 108.174 172.924C108.345 172.647 108.507 172.367 108.657 172.065C109.402 170.625 109.847 169.048 109.962 167.431C110.078 165.813 109.862 164.189 109.329 162.658C104.378 171.369 99.5014 180.123 94.6976 188.921C109.908 200.067 114.75 222.031 105.242 240.758C97.1855 256.627 81.1719 265.538 65.5262 264.42C64.8282 266.229 64.1508 268.048 63.396 269.84C61.369 274.702 59.0668 279.468 56.7595 284.22C58.2106 284.493 59.6669 284.706 61.1283 284.861C61.1094 285.177 61.0939 285.494 61.1008 285.815C61.2263 292.072 65.0259 297.39 75.8868 296.819C81.894 296.499 82.9256 290.144 82.8001 283.886C82.8001 283.56 82.7657 283.24 82.7347 282.922C85.7578 282.059 88.7095 280.963 91.5634 279.645C91.7009 279.925 91.8419 280.202 92.0035 280.472C95.1086 285.63 105.878 287.811 111.004 284.221C116.129 280.632 113.67 272.618 110.567 267.465C110.407 267.202 110.233 266.949 110.051 266.712C112.349 264.411 114.475 261.945 116.412 259.333C116.667 259.493 116.928 259.647 117.196 259.785C122.449 262.452 129.046 260.003 131.933 254.318C134.819 248.632 132.902 241.86 127.652 239.188C127.38 239.049 127.101 238.933 126.823 238.822C127.789 235.717 128.526 232.545 129.029 229.333C129.335 229.34 129.637 229.334 129.945 229.309Z" fill="#AABBCC"/>
<path d="M122.851 260.43C128.104 263.096 134.701 260.648 137.587 254.961C140.474 249.273 138.557 242.504 133.306 239.831C133.035 239.693 132.756 239.576 132.478 239.466C133.444 236.361 134.181 233.189 134.683 229.976C134.984 229.976 135.285 229.976 135.593 229.943C141.585 229.408 146.339 223.903 146.213 217.647C146.088 211.39 141.129 206.748 135.139 207.283C134.824 207.31 134.518 207.36 134.212 207.415C133.592 204.333 132.734 201.303 131.647 198.353C131.922 198.191 132.197 198.024 132.464 197.837C137.591 194.245 139.229 187.158 136.124 182.005C133.019 176.853 126.348 175.589 121.223 179.179C120.96 179.365 120.707 179.562 120.468 179.763C118.433 177.515 116.212 175.442 113.83 173.565C114.002 173.289 114.164 173.008 114.313 172.706C117.2 167.02 115.285 160.248 110.032 157.576C104.78 154.904 98.1844 157.357 95.2977 163.043C95.1481 163.337 95.0192 163.636 94.8937 163.937C91.9697 163.118 88.9819 162.548 85.9619 162.232C85.9808 161.915 85.9963 161.599 85.9894 161.277C85.8639 155.021 80.9054 150.381 74.9136 150.915C68.9219 151.45 64.1594 156.972 64.2849 163.227C64.2849 163.554 64.3176 163.874 64.3502 164.192C61.3272 165.055 58.3755 166.15 55.5216 167.469C55.3841 167.19 55.2431 166.912 55.0798 166.642C51.9764 161.484 45.3038 160.225 40.1786 163.817C35.0533 167.408 33.4131 174.495 36.5182 179.648C36.6764 179.911 36.8517 180.164 37.034 180.401C34.7367 182.703 32.6106 185.169 30.6726 187.78C30.4198 187.622 30.1568 187.466 29.8885 187.328C24.6378 184.662 18.0408 187.11 15.1541 192.796C12.2674 198.481 14.1827 205.254 19.4352 207.926C19.7068 208.063 19.9854 208.178 20.2639 208.29C19.2976 211.395 18.5603 214.566 18.058 217.779C17.7572 217.779 17.4563 217.779 17.1485 217.813C11.1568 218.346 6.40288 223.851 6.52667 230.11C6.65046 236.368 11.6124 241.007 17.6024 240.472C17.9153 240.444 18.2231 240.396 18.5291 240.341C19.1497 243.424 20.0073 246.453 21.0943 249.404C20.8192 249.565 20.5441 249.73 20.2777 249.92C15.1507 253.509 13.5122 260.598 16.6173 265.749C19.7223 270.9 26.3932 272.167 31.5184 268.576C31.7815 268.392 32.0342 268.194 32.2732 267.991C34.3106 270.242 36.5341 272.318 38.92 274.196C38.7481 274.475 38.5865 274.755 38.4369 275.056C35.5485 280.741 37.4655 287.512 42.718 290.186C47.9705 292.859 54.5657 290.404 57.4524 284.718C57.602 284.424 57.7309 284.123 57.8547 283.824C60.7817 284.643 63.7724 285.213 66.7951 285.53C66.7762 285.846 66.7607 286.162 66.7676 286.484C66.8931 292.74 71.8516 297.381 77.8433 296.846C83.8351 296.311 88.589 290.806 88.4635 284.55C88.4635 284.221 88.4291 283.903 88.3981 283.585C91.4209 282.722 94.3726 281.626 97.2267 280.308C97.3643 280.587 97.5053 280.865 97.6686 281.133C100.772 286.291 107.445 287.552 112.57 283.96C117.695 280.368 119.334 273.281 116.23 268.129C116.072 267.866 115.897 267.613 115.714 267.374C118.012 265.073 120.139 262.607 122.076 259.995C122.322 260.13 122.58 260.29 122.851 260.43ZM57.3888 261.26C38.3217 251.579 31.3637 226.996 41.8446 206.351C52.3254 185.705 76.2805 176.817 95.3475 186.498C114.415 196.179 121.373 220.758 110.892 241.407C100.411 262.056 76.4558 270.94 57.3888 261.26Z" fill="#D8DEE8"/>
<path d="M448.026 136.53C454.29 139.711 462.159 136.789 465.604 130.007C469.05 123.224 466.762 115.149 460.496 111.968C460.173 111.796 459.841 111.665 459.51 111.533C460.661 107.829 461.54 104.046 462.138 100.213C462.498 100.213 462.859 100.213 463.225 100.174C470.37 99.5374 476.042 92.9696 475.893 85.5061C475.743 78.0426 469.829 72.5065 462.682 73.1443C462.309 73.177 461.942 73.2372 461.576 73.3008C460.836 69.6244 459.813 66.0106 458.518 62.4915C458.846 62.3007 459.173 62.1013 459.492 61.8778C465.606 57.5933 467.561 49.1394 463.859 42.9929C460.158 36.8464 452.197 35.3386 446.084 39.6231C445.771 39.8415 445.475 40.0787 445.184 40.3108C442.752 37.6293 440.1 35.1563 437.255 32.9178C437.456 32.5877 437.654 32.2525 437.833 31.9017C441.271 25.1191 445.776 17.7106 439.462 14.6279C424.859 7.49966 418.592 13.5963 415.148 20.3858C414.976 20.7297 414.816 21.0925 414.668 21.4501C411.178 20.4749 407.613 19.7945 404.009 19.4161C404.031 19.0396 404.048 18.6614 404.041 18.2797C403.892 10.8162 406.105 6.77583 398.933 6.63656C383.288 6.33225 378.011 13.1218 378.161 20.5853C378.169 20.9755 378.202 21.3572 378.24 21.7372C374.634 22.7665 371.113 24.0731 367.709 25.6452C367.537 25.3116 367.376 24.9815 367.183 24.66C363.48 18.5152 355.523 17.0057 349.407 21.2885C343.292 25.5712 341.338 34.0268 345.042 40.1716C345.231 40.4879 345.439 40.7819 345.65 41.0725C342.91 43.8174 340.374 46.7596 338.063 49.8753C337.761 49.6845 337.453 49.4988 337.13 49.3337C330.864 46.153 322.995 49.0741 319.551 55.8568C316.108 62.6394 318.394 70.715 324.658 73.8957C324.983 74.0676 325.315 74.1983 325.646 74.3307C324.495 78.0348 323.616 81.8182 323.016 85.6506C322.658 85.6506 322.297 85.6505 321.931 85.6901C314.786 86.3279 309.114 92.894 309.263 100.357C309.413 107.821 315.327 113.357 322.474 112.719C322.847 112.687 323.214 112.628 323.578 112.563C324.318 116.239 325.341 119.853 326.638 123.372C326.31 123.565 325.982 123.762 325.664 123.988C319.548 128.27 317.593 136.724 321.297 142.871C325 149.017 337.259 151.871 343.372 147.587C343.685 147.368 339.679 145.785 339.972 145.544C342.402 148.23 345.055 150.706 347.901 152.946C347.7 153.276 347.502 153.611 347.323 153.962C343.885 160.745 346.166 168.82 352.43 172.001C358.693 175.181 366.564 172.262 370.006 165.479C370.178 165.127 370.34 164.771 370.488 164.414C373.977 165.389 377.543 166.069 381.147 166.447C381.125 166.824 381.106 167.202 381.115 167.584C381.264 175.049 387.178 180.584 394.326 179.946C401.473 179.308 407.143 172.742 406.993 165.278C406.993 164.888 406.954 164.506 406.914 164.128C410.52 163.097 414.042 161.79 417.447 160.218C417.619 160.552 417.779 160.882 417.973 161.204C421.675 167.348 429.633 168.86 435.747 164.575C441.861 160.291 443.817 151.837 440.114 145.69C439.923 145.377 439.717 145.082 439.505 144.791C442.245 142.049 444.781 139.11 447.091 135.997C447.395 136.179 447.701 136.365 448.026 136.53ZM369.941 137.52C347.2 125.973 338.897 96.6506 351.402 72.0251C363.906 47.3995 392.476 36.7931 415.224 48.3434C437.972 59.8937 446.267 89.2129 433.765 113.849C421.262 138.485 392.684 149.064 369.941 137.52Z" fill="#AABBCC"/>
<path d="M463.225 100.174C470.37 99.5375 476.042 92.9697 475.893 85.5062C475.743 78.0427 469.829 72.5066 462.682 73.1445C462.309 73.1771 461.942 73.2373 461.576 73.3009C460.836 69.6246 459.813 66.0108 458.517 62.4917C458.846 62.3008 459.173 62.1014 459.492 61.8779C465.599 57.5968 473.164 47.2432 468.866 41.511C460.679 30.6295 452.206 35.3387 446.092 39.6198C445.779 39.8381 445.483 40.0754 445.193 40.3075C442.761 37.6255 440.109 35.1525 437.263 32.9145C437.465 32.5844 437.662 32.2491 437.841 31.8984C439.715 28.207 439.88 24.1375 438.642 20.6782C432.737 31.072 426.92 41.5139 421.19 52.0039C439.332 65.2993 445.109 91.4997 433.768 113.837C424.157 132.765 405.056 143.393 386.401 142.061C385.569 144.219 384.753 146.388 383.86 148.526C381.443 154.325 378.702 160.005 375.951 165.679C377.681 166.003 379.418 166.258 381.161 166.444C381.139 166.821 381.12 167.199 381.128 167.581C381.278 175.046 385.81 181.387 398.761 180.699C405.926 180.319 407.157 172.738 407.014 165.273C407.014 164.885 406.975 164.503 406.935 164.125C410.541 163.094 414.062 161.787 417.467 160.215C417.639 160.549 417.799 160.879 417.994 161.2C421.695 167.347 434.542 169.957 440.656 165.67C446.769 161.384 443.836 151.83 440.14 145.684C439.949 145.369 439.743 145.075 439.531 144.784C442.262 142.044 444.789 139.107 447.091 135.997C447.395 136.186 447.701 136.372 448.026 136.537C454.29 139.718 462.159 136.796 465.604 130.014C469.05 123.231 466.762 115.156 460.496 111.975C460.173 111.803 459.841 111.672 459.51 111.54C460.661 107.836 461.54 104.052 462.138 100.22C462.505 100.213 462.859 100.206 463.225 100.174Z" fill="#AABBCC"/>
<path d="M454.768 137.297C461.031 140.476 468.9 137.556 472.344 130.774C475.788 123.991 473.501 115.916 467.238 112.735C466.913 112.563 466.581 112.43 466.249 112.298C467.402 108.595 468.281 104.812 468.88 100.98C469.239 100.98 469.598 100.98 469.965 100.94C477.112 100.303 482.784 93.7365 482.634 86.2713C482.485 78.8061 476.568 73.2734 469.423 73.9112C469.048 73.9439 468.682 74.0024 468.318 74.0677C467.578 70.3911 466.554 66.7773 465.257 63.2584C465.587 63.0659 465.914 62.8682 466.234 62.6429C472.348 58.3602 474.302 49.9063 470.599 43.7598C466.896 37.6133 458.939 36.1055 452.823 40.3883C452.51 40.6084 452.216 40.8456 451.924 41.0863C449.494 38.4009 446.842 35.925 443.996 33.6847C444.197 33.3546 444.393 33.0194 444.572 32.6686C448.011 25.886 445.729 17.8087 439.466 14.628C433.202 11.4473 425.333 14.3684 421.889 21.151C421.718 21.4949 421.558 21.8594 421.41 22.217C417.92 21.2411 414.354 20.5607 410.75 20.183C410.772 19.8065 410.79 19.4283 410.781 19.0449C410.631 11.5814 404.717 6.04694 397.57 6.68481C390.423 7.32267 384.753 13.8887 384.902 21.3522C384.902 21.7425 384.942 22.1241 384.981 22.5024C381.375 23.5325 377.854 24.839 374.449 26.4104C374.285 26.0785 374.117 25.7467 373.933 25.4269C370.23 19.2804 362.271 17.7709 356.157 22.0554C350.043 26.3399 348.088 34.7937 351.79 40.9385C351.981 41.2531 352.187 41.5471 352.399 41.8377C349.659 44.583 347.124 47.5251 344.813 50.6405C344.509 50.4514 344.203 50.2657 343.878 50.1006C337.614 46.9199 329.745 49.841 326.301 56.6219C322.858 63.4029 325.144 71.4819 331.408 74.6626C331.733 74.8259 332.063 74.9652 332.396 75.0976C331.244 78.8015 330.365 82.5849 329.766 86.4174C329.406 86.4174 329.047 86.4174 328.681 86.4553C321.534 87.0931 315.862 93.6609 316.011 101.124C316.161 108.588 322.075 114.122 329.223 113.486C329.596 113.452 329.964 113.393 330.328 113.328C331.068 117.003 332.09 120.616 333.385 124.134C333.057 124.326 332.73 124.526 332.41 124.749C326.296 129.032 324.341 137.488 328.045 143.632C331.748 149.777 339.7 151.299 345.814 147.001C346.127 146.78 346.422 146.545 346.713 146.313C349.145 148.994 351.798 151.467 354.642 153.706C354.441 154.036 354.244 154.369 354.066 154.722C350.628 161.505 352.908 169.58 359.173 172.761C365.438 175.942 373.305 173.02 376.749 166.238C376.921 165.894 377.081 165.529 377.229 165.172C380.719 166.149 384.284 166.829 387.889 167.206C387.866 167.584 387.849 167.961 387.856 168.344C388.007 175.807 393.922 181.342 401.067 180.706C408.212 180.07 413.886 173.5 413.737 166.037C413.728 165.646 413.695 165.266 413.657 164.886C417.264 163.857 420.785 162.55 424.19 160.978C424.352 161.31 424.522 161.642 424.714 161.964C428.418 168.108 436.376 169.618 442.49 165.333C448.604 161.049 450.559 152.597 446.855 146.45C446.666 146.136 446.458 145.842 446.247 145.551C448.988 142.806 451.524 139.864 453.834 136.748C454.132 136.946 454.439 137.132 454.768 137.297ZM376.682 138.287C353.939 126.74 345.638 97.4158 358.141 72.7817C370.644 48.1475 399.217 37.5532 421.96 49.1017C444.703 60.6503 453 89.9799 440.497 114.605C427.995 139.231 399.422 149.834 376.679 138.287H376.682Z" fill="#D8DEE8"/>
<path d="M390.168 289.648L346.391 290.263C341.406 290.334 338.414 296.723 341.258 301.313C355.734 324.675 339.045 347.289 325.476 348.713C309.614 350.379 293.511 341.347 295.055 320.827C295.724 311.949 297.978 304.808 300.318 299.578C302.458 294.793 299.302 289.262 294.493 289.335L238.443 290.079V341.957C238.443 345.912 242.319 348.424 245.57 346.483C250.253 343.689 257.271 341.089 266.717 341.705C285.559 342.93 296.188 359.477 289.422 373.558C276.316 400.833 258.925 394.738 249.019 387.932C245.766 385.696 241.325 388.52 241.325 392.802V452.546L390.167 439.583L390.168 289.648Z" fill="url(#paint0_linear_14_648)"/>
<g style="mix-blend-mode:soft-light" opacity="0.3">
<path d="M250.759 441.556V400.67C256.054 403.077 261.312 404.12 266.463 403.78C275.231 403.206 287.633 398.232 297.36 377.894C301.557 369.126 301.53 359.166 297.286 350.537C297.233 350.427 297.178 350.317 297.115 350.208C303.887 356.123 313.187 359.173 323.234 358.708C324.14 358.667 325.058 358.595 325.963 358.497C336.45 357.348 346.897 348.401 352.038 336.275C356.97 324.642 356.437 311.658 350.678 299.908L381.892 299.325V430.742L250.759 441.556ZM289.646 340.532C283.855 335.408 276.185 332.224 267.584 331.624C265.871 331.504 264.154 331.472 262.438 331.526C257.467 331.664 252.554 332.625 247.898 334.37V300.135L290.573 299.372C288.076 306.08 286.547 313.109 286.032 320.248C285.463 327.785 286.706 334.671 289.646 340.532Z" fill="white"/>
</g>
<path d="M249.021 387.931C258.929 394.738 276.32 400.826 289.424 373.558C296.19 359.477 285.561 342.93 266.719 341.704C257.263 341.089 250.248 343.689 245.572 346.482C242.32 348.424 238.445 345.917 238.445 341.957V290.079L184.007 290.803C178.457 290.877 174.984 284.591 177.773 279.51C196.874 244.713 165.896 229.592 158.001 230.098C149.232 230.66 121.636 235.371 121.636 256.565C121.636 266.165 124.405 274.273 127.43 280.253C130.05 285.435 126.488 291.683 120.75 291.76L69.1127 292.448V467.544L241.328 452.546V392.802C241.327 388.519 245.768 385.695 249.021 387.931Z" fill="url(#paint1_linear_14_648)"/>
<g style="mix-blend-mode:soft-light" opacity="0.3">
<path d="M77.159 458.504V300.672L120.749 299.938C126.214 299.845 131.149 296.925 133.963 292.137C135.36 289.777 136.14 287.103 136.23 284.362C136.32 281.621 135.718 278.902 134.479 276.455C131.248 270.039 129.606 263.344 129.606 256.572C129.606 240.615 157.129 238.24 158.522 238.13C160.85 238.184 169.785 241.634 174.064 249.414C177.876 256.345 176.899 265.118 171.141 275.548C169.81 277.935 169.112 280.624 169.112 283.357C169.112 286.091 169.81 288.78 171.141 291.167C173.837 296.012 178.648 298.846 183.996 298.755L231.195 297.962V342.215C231.195 345.802 232.51 349.103 234.895 351.499C237.197 353.821 240.211 355.021 243.376 354.886C245.311 354.791 247.191 354.215 248.847 353.208C252.817 350.826 257.392 349.514 262.429 349.309C263.637 349.261 264.847 349.275 266.054 349.35C273.816 349.828 280.375 353.685 283.212 359.403C284.452 361.901 285.48 365.802 283.346 370.223C278.482 380.312 272.8 385.631 266.451 385.996C261.391 386.286 256.379 383.618 253.057 381.321C251.074 379.938 248.685 379.258 246.271 379.392C239.566 379.754 234.095 385.958 234.095 393.218V445.372L77.159 458.504Z" fill="white"/>
</g>
<path d="M69.111 292.454L120.749 291.766C126.486 291.688 130.048 285.44 127.428 280.258C124.404 274.279 121.634 266.171 121.634 256.57C121.634 235.376 149.234 230.665 157.999 230.103C165.891 229.598 196.869 244.717 177.771 279.516C174.982 284.596 178.459 290.882 184.005 290.808L238.443 290.084V237.264C238.443 232.859 243.065 230.468 246.352 233.095C261.785 245.42 283.317 235.025 286.928 226.057C291.195 215.449 292.355 193.704 270.479 186.555C258.879 182.772 250.337 185.601 244.812 189.203C241.523 191.347 237.224 188.647 237.224 184.431V133.578L69.111 123.885V292.454Z" fill="url(#paint2_linear_14_648)"/>
<g style="mix-blend-mode:soft-light" opacity="0.3">
<path d="M80.0715 281.342V135.481L227.672 143.307V184.103C227.642 188.345 229.242 192.436 232.142 195.531C234.871 198.418 238.435 200.06 242.174 200.163C244.896 200.235 247.573 199.467 249.842 197.962C253.123 195.806 256.826 194.776 260.846 194.899C263.303 194.999 265.733 195.443 268.067 196.219C273.569 197.993 277.112 200.861 278.899 204.987C281.216 210.347 280.398 217.327 278.555 221.88C277.563 223.845 270.646 228.746 262.393 228.624C258.373 228.564 254.828 227.328 251.868 224.945C249.378 222.942 246.445 221.85 243.383 221.799C235.414 221.658 228.887 228.549 228.887 237.162V279.937L188.621 280.281C197.103 262.024 193.805 248.601 189.28 240.298C181.684 226.372 166.444 219.631 158.479 219.486C158.038 219.486 157.619 219.486 157.224 219.512C134.467 220.865 111.041 232.859 111.041 256.542C111.052 264.96 112.768 273.288 116.084 281.025L80.0715 281.342Z" fill="white"/>
</g>
<g style="mix-blend-mode:multiply" opacity="0.3">
<path d="M192.103 216.117C185.779 181.158 195.805 156.629 205.306 131.74L69.111 123.885V292.454L120.749 291.766C126.486 291.688 130.048 285.44 127.428 280.258C124.404 274.279 121.634 266.171 121.634 256.57C121.634 235.376 149.234 230.667 157.999 230.103C165.891 229.598 196.869 244.717 177.771 279.516C174.982 284.596 178.459 290.882 184.005 290.808L237.419 290.098C216.118 271.038 198.36 250.704 192.103 216.117Z" fill="url(#paint3_linear_14_648)"/>
</g>
<g style="mix-blend-mode:multiply" opacity="0.3">
<path d="M238.44 291.009V341.957C238.44 345.912 242.315 348.424 245.566 346.484C250.25 343.689 257.268 341.087 266.714 341.703C285.557 342.93 296.186 359.477 289.421 373.558C276.314 400.833 258.924 394.738 249.017 387.932C245.762 385.696 241.321 388.519 241.321 392.804V452.546L337.737 444.149C333.421 417.039 325.646 395.777 317.148 378.953C295.118 335.333 264.388 314.057 238.44 291.009Z" fill="url(#paint4_linear_14_648)"/>
</g>
<path d="M442.217 59.3245C442.217 54.3798 438.118 50.0403 433.048 49.6311L260.187 33.59C254.548 33.1344 250.547 39.1623 250.547 44.3975V105.244C250.547 110.481 255.133 114.989 260.772 115.312L433.046 125.208C438.116 125.499 442.215 121.727 442.215 116.784L442.217 59.3245Z" fill="url(#paint5_linear_14_648)"/>
<path d="M349.12 133.886L333.467 116.032L364.628 117.855L349.12 133.886Z" fill="url(#paint6_linear_14_648)"/>
<path d="M444.24 57.069C444.24 52.1226 440.142 47.7848 435.071 47.3756L262.797 33.4854C257.158 33.0315 252.573 36.9068 252.573 42.142V102.986C252.573 108.222 257.158 112.73 262.797 113.055L435.071 122.951C440.142 123.242 444.24 119.469 444.24 114.526V57.069Z" fill="url(#paint7_linear_14_648)"/>
<path d="M351.151 131.63L335.498 113.777L366.659 115.599L351.151 131.63Z" fill="url(#paint8_linear_14_648)"/>
<g opacity="0.5">
<path d="M269.979 62.942L430.654 75.0321C431.658 75.1087 432.65 74.7837 433.414 74.1285C434.177 73.4733 434.649 72.5417 434.726 71.5385C434.802 70.5353 434.477 69.5428 433.822 68.7793C433.167 68.0158 432.235 67.5438 431.232 67.4672L270.556 54.9438C270.035 54.9032 269.511 54.971 269.017 55.1427C268.523 55.3144 268.07 55.5865 267.687 55.9417C267.303 56.2969 266.997 56.7277 266.788 57.2069C266.579 57.6861 266.471 58.2034 266.471 58.7263V59.1595C266.469 60.1168 266.829 61.0394 267.48 61.7414C268.131 62.4433 269.024 62.8724 269.979 62.942Z" fill="white"/>
<path d="M431.213 80.4634L270.538 68.6793C270.018 68.6412 269.496 68.7108 269.004 68.8837C268.512 69.0565 268.061 69.329 267.679 69.6839C267.297 70.0389 266.993 70.4688 266.785 70.9468C266.577 71.4247 266.47 71.9405 266.47 72.4618V72.8985C266.47 73.8579 266.833 74.7818 267.487 75.4837C268.141 76.1857 269.037 76.6135 269.994 76.6809L430.67 88.0283C431.189 88.0649 431.71 87.9942 432.201 87.8207C432.691 87.6472 433.141 87.3745 433.521 87.0197C433.902 86.6649 434.206 86.2355 434.413 85.7583C434.621 85.2811 434.728 84.7662 434.728 84.2459C434.73 83.2875 434.368 82.3639 433.716 81.6618C433.064 80.9597 432.169 80.5314 431.213 80.4634Z" fill="white"/>
<path d="M431.198 93.4425L270.522 82.3977C270.003 82.3608 269.482 82.4313 268.992 82.6048C268.502 82.7783 268.053 83.0511 267.672 83.4061C267.292 83.7611 266.989 84.1906 266.783 84.6679C266.576 85.1453 266.47 85.6601 266.471 86.1802V86.6186C266.472 87.5807 266.838 88.5067 267.496 89.209C268.153 89.9113 269.053 90.3374 270.013 90.4011L430.697 101.011C431.215 101.046 431.735 100.975 432.224 100.8C432.713 100.626 433.161 100.353 433.54 99.9985C433.919 99.6437 434.221 99.2146 434.427 98.738C434.633 98.2615 434.739 97.7476 434.738 97.2284C434.741 96.2653 434.376 95.3373 433.718 94.6338C433.06 93.9303 432.159 93.5042 431.198 93.4425Z" fill="white"/>
</g>
<path d="M277.905 193.502C283.431 189.892 291.972 187.062 303.572 190.853C325.449 198.004 324.288 219.748 320.021 230.357C316.41 239.325 294.879 249.72 279.445 237.393C276.156 234.767 271.536 237.159 271.536 241.564V294.381L327.586 293.636C332.4 293.573 335.551 299.095 333.412 303.88C331.073 309.11 328.817 316.249 328.148 325.129C326.601 345.649 342.707 354.678 358.58 353.014C372.147 351.591 388.839 328.977 374.361 305.613C371.516 301.024 374.511 294.635 379.493 294.565L423.27 293.949V146.7L270.318 137.888V188.74C270.318 192.947 274.616 195.646 277.905 193.502Z" fill="url(#paint9_linear_14_648)"/>
<g style="mix-blend-mode:soft-light" opacity="0.3">
<path d="M356.339 343.345C349.675 343.591 343.668 341.38 340.293 337.418C337.776 334.463 336.729 330.629 337.099 325.701C337.568 319.435 339.021 313.53 341.411 308.165C343.788 302.821 343.536 296.656 340.733 291.659C337.91 286.62 332.996 283.634 327.589 283.68L280.996 284.084V249.973C285.549 252.064 290.498 253.153 295.509 253.164C309.753 253.241 324.094 245.033 328.304 234.513C331.674 226.099 333.462 212.934 328.392 201.102C325.564 194.498 319.383 185.675 305.957 181.222C302.083 179.91 298.044 179.15 293.958 178.962C289.132 178.745 284.311 179.505 279.786 181.198V148.613L414.999 155.784V284.505L379.49 284.839C373.955 284.892 368.895 288.399 366.301 294.003C363.707 299.606 364.066 306.237 367.235 311.316C372.888 320.394 371.686 327.868 369.681 332.553C366.93 339.002 361.65 342.869 358.081 343.225C357.502 343.283 356.917 343.324 356.339 343.345Z" fill="white"/>
</g>
<path d="M426.299 216.687C426.425 216.134 425.882 213.998 426.181 213.529C426.674 212.76 426.403 212.63 427.082 212.018C427.426 211.705 427.737 211.285 427.697 210.8C427.608 209.733 424.883 205.493 424.883 205.493C424.883 205.493 423.425 206.953 424.195 207.786C424.965 208.62 425.584 209.575 424.864 210.365C424.143 211.156 423.801 212.238 423.721 213.357C423.64 214.476 424.396 217.638 424.396 217.638C424.396 217.638 425.999 218.008 426.299 216.687Z" fill="url(#paint10_linear_14_648)"/>
<path d="M426.614 216.001C429.63 222.4 433.218 228.512 437.334 234.265C447.512 248.487 453.518 250.116 459.532 262.703C460.98 265.735 464.831 274.428 464.188 285.556C463.913 290.304 463.631 294.238 460.821 296.7C454.757 302.014 439.689 298.045 435.431 289.651C431.793 282.492 439.141 278.237 437.465 266.712C435.769 255.057 427.34 253.142 423.394 240.407C421.549 234.446 420.842 226.63 423.583 216.558L426.614 216.001Z" fill="url(#paint11_linear_14_648)"/>
<path d="M441.013 456.71L441.247 459.54C441.273 459.837 441.195 460.133 441.026 460.377C440.856 460.622 440.607 460.8 440.32 460.88C438.231 461.461 433.326 462.635 429.489 462.061C424.484 461.311 437.606 456.71 437.606 456.71H441.013Z" fill="#26264F"/>
<path d="M440.401 451.358L441.013 456.71C441.013 456.71 438.897 458.146 437.611 456.71L434.997 451.846L440.401 451.358Z" fill="url(#paint12_linear_14_648)"/>
<path d="M375.183 459.569L374.315 462.771C374.185 463.189 373.934 463.558 373.593 463.832C373.252 464.105 372.837 464.27 372.401 464.306C369.277 464.566 362.032 464.994 358.819 463.771C354.661 462.188 371.015 459.095 371.015 459.095L375.183 459.569Z" fill="#26264F"/>
<path d="M376.725 455.321L375.178 459.143C375.178 459.143 372.558 460.677 370.226 459.451L371.498 454.766L376.725 455.321Z" fill="url(#paint13_linear_14_648)"/>
<path d="M437.265 345.544C439.625 349.924 441.151 354.705 441.765 359.642C442.899 369.148 439.662 372.803 437.417 386.214C435.986 394.748 434.494 403.689 436.607 414.481C438.395 423.593 441.132 425.713 442.205 434.903C443.138 442.915 442.033 449.708 440.91 454.302L435.15 454.537C427.12 443.859 421.04 431.847 417.191 419.053C415.76 414.273 416.415 415.291 414.096 366.593C413.847 361.341 413.547 355.187 417.622 350.604C423.26 344.27 433.541 345.081 437.265 345.544Z" fill="#010648"/>
<path d="M429.585 342.879C434.478 346.448 434.715 354.615 433.66 359.809C431.973 368.113 426.525 371.06 405.063 393.368C401.987 396.564 400.173 398.508 398.244 401.632C392.618 410.745 392.594 419.25 391.829 425.139C390.811 432.97 387.481 443.879 377.043 456.712C374.682 457.328 372.176 457.04 370.016 455.904C368.966 417.269 381.504 379.49 405.444 349.149C414.159 341.082 424.264 338.998 429.585 342.879Z" fill="#010648"/>
<path d="M354.347 348.632C354.347 348.632 352.375 348.274 351.561 347.113C350.748 345.953 349.923 344.792 349.001 344.443C348.08 344.094 349.125 346.3 349.705 347.345C350.284 348.391 349.589 349.663 346.687 349.78C343.785 349.897 341.605 349.78 341.605 349.78C341.605 349.78 342.363 354.381 352.242 352.662C352.242 352.662 355.165 351.209 356.436 351.527C357.706 351.845 357.017 351.527 357.017 351.527L357.208 348.726L354.347 348.632Z" fill="url(#paint14_linear_14_648)"/>
<path d="M439.488 265.02C438.861 262.192 440.37 259.69 440.702 259.149C442.091 256.893 442.432 256.592 443.056 256.226L443.915 255.757L444.017 255.724C444.565 255.564 446.396 255.609 446.768 255.709C447.939 256.027 448.932 260.92 448.195 267.718C448.231 267.981 448.264 268.246 448.295 268.512C448.329 268.81 448.362 269.104 448.391 269.398C448.512 270.583 448.935 271.718 449.62 272.693C450.305 273.668 451.228 274.452 452.302 274.968C456.465 276.983 456.944 277.891 456.841 278.324C456.551 279.457 451.7 279.292 448.209 278.69C440.59 277.38 435.976 279.92 436.452 278.575C436.66 277.989 440.75 275.964 442.552 272.002C442.103 272.988 442.93 269.869 443.119 268.801C442.653 268.523 439.951 267.102 439.488 265.02Z" fill="url(#paint15_linear_14_648)"/>
<path d="M441.574 253.681C441.464 255.794 442.335 258.105 442.822 258.495C443.109 258.746 443.351 259.043 443.541 259.374C443.588 259.454 443.623 259.54 443.647 259.63C444.038 260.987 441.833 262.436 442.21 263.055C442.482 263.504 443.952 263.005 444.101 263.387C444.251 263.769 443.008 264.418 443.168 264.84C443.288 265.166 444.039 264.915 444.476 265.428C444.694 265.684 444.615 265.871 444.82 266.631C444.924 267.03 445.065 267.418 445.239 267.792C445.901 269.071 447.944 269.638 448.368 269.167C448.487 269.035 448.399 268.913 448.54 268.455C448.65 268.134 448.804 267.829 448.996 267.549C449.464 266.862 450.524 266.411 451.608 265.718C453.614 264.436 454.204 263.28 454.383 262.89C454.446 262.749 454.487 262.644 454.517 262.569C455.105 261.038 455.234 258.752 454.611 257.307C453.568 254.885 450.861 255.858 448.826 253.405C446.475 250.573 448.167 246.973 446.833 246.491C445.363 245.953 441.777 249.773 441.574 253.681Z" fill="#26264F"/>
<path d="M442.996 262.6C443.553 261.912 444.426 262.636 444.371 263.557C444.316 264.479 443.381 265.385 442.526 265.156C441.672 264.927 442.246 263.519 442.996 262.6Z" fill="url(#paint16_linear_14_648)"/>
<path d="M443.501 261.083L442.213 262.579C442.213 262.579 440.812 264.422 440.114 263.332C439.545 262.441 439.383 262.452 439.344 262.484C439.344 262.484 439.334 262.501 439.332 262.501C439.33 262.501 439.445 262.08 439.557 261.712C439.053 262.357 438.664 263.084 438.409 263.861C438.096 264.819 437.76 265.845 438.254 266.877C438.283 266.937 438.828 268.036 439.944 268.356C439.944 268.356 440.382 268.481 442.277 268.256C442.277 268.256 440.308 266.654 440.296 266.298C440.264 265.333 441.625 264.886 442.726 262.971C443.064 262.378 443.325 261.743 443.501 261.083Z" fill="#26264F"/>
<path d="M418.523 283.652C423.296 279.586 428.809 276.481 434.76 274.507C442.444 271.975 441.615 274.414 456.504 272.482C457.694 272.327 459.771 272.116 461.53 273.323C464.202 275.161 464.497 279.228 464.466 282.045C464.349 292.422 459.609 301.165 456.925 310.154C452.828 323.87 457.352 325.335 452.49 344.342C449.587 355.689 446.907 359.339 444.043 361.786C437.427 367.436 428.878 367.46 425.89 367.473C415.856 367.508 412.612 362.773 401.951 361.822C401.174 361.753 399.767 361.65 398.497 360.677C395.091 358.067 395.918 351.652 396.418 348.279C399.817 325.67 407.045 308.548 407.045 308.548C409.825 301.965 413.616 293.454 418.523 283.652Z" fill="#6165D7"/>
<path style="mix-blend-mode:multiply" opacity="0.3" d="M396.418 348.279C399.817 325.67 407.045 308.55 407.045 308.55C409.376 303.027 412.428 296.136 416.245 288.281C429.038 300.058 431.103 306.162 429.609 309.53C427.46 314.39 417.81 313.891 416.661 319.405C415.43 325.323 425.742 329.759 424.343 335.866C423.174 340.969 415.28 340.886 414.686 345.522C414.123 349.909 420.586 354.713 425.878 356.496C434.329 359.341 441.959 355.211 443.874 354.089C447.27 352.067 450.099 349.22 452.101 345.812C449.35 356.004 446.771 359.458 444.043 361.802C437.427 367.451 428.878 367.475 425.89 367.489C415.856 367.523 412.612 362.788 401.951 361.838C401.174 361.769 399.767 361.666 398.497 360.693C395.091 358.067 395.911 351.653 396.418 348.279Z" fill="url(#paint17_linear_14_648)"/>
<path d="M444.46 276.17C439.533 275.74 432.116 275.73 423.977 278.512C404.292 285.241 392.835 304.052 387.985 312.016C379.426 326.069 377.497 336.725 364.986 344.081C362.258 345.682 359.348 346.952 356.319 347.863C356.291 349.812 356.263 351.765 356.234 353.722C368.529 351.957 377.067 348.031 382.571 344.797C392.744 338.818 396.647 332.79 412.71 323.289C419.702 319.163 419.962 319.706 423.098 317.584C431.095 312.167 440.396 301.148 444.46 276.17Z" fill="url(#paint18_linear_14_648)"/>
<path style="mix-blend-mode:multiply" opacity="0.3" d="M421.747 419.064C419.154 410.016 428.7 405.31 427.077 391.475C426.33 385.124 424.061 383.91 424.881 380.188C426.177 374.328 433.326 370.56 441.588 368.08C440.769 372.86 438.881 377.457 437.416 386.209C435.986 394.743 434.494 403.684 436.607 414.476C438.395 423.588 441.132 425.708 442.205 434.898C442.566 438.048 442.642 441.225 442.432 444.39C441.229 441.306 439.652 438.381 437.736 435.682C430.538 425.569 423.82 426.28 421.747 419.064Z" fill="#010648"/>
<path d="M109.391 469.672C109.209 471.252 108.442 472.523 107.431 472.922C104.907 473.915 101.64 474.297 97.8199 474.297C93.9429 474.297 90.6315 473.907 88.0869 472.899C87.1069 472.511 86.3556 471.302 86.1458 469.781L79.3752 420.437H115.082L109.391 469.672Z" fill="url(#paint19_linear_14_648)"/>
<path d="M115.082 420.428C115.082 421.944 107.089 423.179 97.2285 423.179C87.3683 423.179 79.3752 421.949 79.3752 420.428C79.3752 418.906 87.3683 417.677 97.2285 417.677C107.089 417.677 115.082 418.913 115.082 420.428Z" fill="url(#paint20_linear_14_648)"/>
<path d="M98.7002 420.239H102.596C129.36 401.185 134.247 387.56 133.126 378.317C132.137 370.145 126.677 367.233 118.55 346.943C113.705 334.85 111.282 328.803 111.471 322.235C111.884 307.881 120.975 306.008 125.913 287.252C127.878 279.777 131.137 267.391 125.358 255.325C119.168 242.382 105.486 233.413 102.056 235.897C99.7816 237.542 102.029 244.242 104.257 250.887C110.163 268.488 117.779 272.525 118.555 282.815C119.034 289.176 116.438 291.778 110.646 303.914C98.9082 328.5 92.5657 341.777 95.0982 354.721C98.5609 372.43 115.653 374.29 116.761 389.702C117.645 402.236 107.207 413.188 98.7002 420.239Z" fill="url(#paint21_linear_14_648)"/>
<path d="M79.5472 230.617C75.8317 230.124 67.7373 245.886 67.8868 262.821C68.0313 279.273 75.8231 281.677 78.158 298.636C81.1255 320.175 69.3792 322.275 71.2171 343.338C72.8986 362.594 83.1577 365.783 88.9861 392.202C91.0276 401.499 91.9596 411.005 91.7628 420.521H95.6501C103.585 404.048 105.588 390.363 105.921 380.819C106.781 356.434 97.0359 350.53 100.37 326.68C102.584 310.829 107.804 306.873 105.644 293.641C104.312 285.485 100.946 278.522 95.3716 266.992C90.0418 255.989 87.5092 253.608 84.2666 243.954C81.2493 234.953 81.3834 230.859 79.5472 230.617Z" fill="url(#paint22_linear_14_648)"/>
<path d="M87.5986 419.962C88.0801 414.018 87.8101 405.577 83.4345 397.473C76.0656 383.831 64.8265 385.524 55.6712 373.319C46.0431 360.483 44.4957 339.965 50.6732 325.289C56.6151 311.18 67.2834 308.049 67.3315 295.304C67.3693 284.997 60.2635 277.573 61.2228 276.981C62.2114 276.371 70.256 283.91 73.4746 295.024C74.7331 299.37 75.2506 304.251 73.4746 317.516C70.7925 337.539 67.7734 340.147 67.8868 347.498C68.1224 362.972 83.3606 364.863 91.2075 382.203C94.7681 390.065 97.6342 402.246 93.4288 420.517L87.5986 419.962Z" fill="url(#paint23_linear_14_648)"/>
<path d="M153.775 186.766C153.017 187.415 152.084 187.825 151.094 187.943C150.104 188.062 149.1 187.884 148.211 187.432C147.322 186.981 146.586 186.276 146.098 185.406C145.609 184.537 145.389 183.542 145.466 182.547C145.543 181.553 145.914 180.603 146.53 179.819C147.147 179.035 147.982 178.452 148.93 178.142C149.878 177.833 150.897 177.812 151.857 178.081C152.817 178.351 153.676 178.899 154.325 179.657C155.193 180.673 155.623 181.992 155.52 183.325C155.417 184.658 154.789 185.895 153.775 186.766Z" fill="white"/>
<path d="M179.231 183.044C178.322 183.823 177.202 184.315 176.014 184.457C174.825 184.6 173.621 184.387 172.554 183.845C171.486 183.303 170.604 182.457 170.017 181.413C169.431 180.37 169.167 179.176 169.259 177.983C169.351 176.789 169.795 175.65 170.535 174.709C171.274 173.767 172.276 173.067 173.414 172.695C174.552 172.324 175.775 172.298 176.927 172.621C178.08 172.944 179.11 173.602 179.889 174.511C180.407 175.114 180.8 175.814 181.047 176.569C181.294 177.325 181.389 178.121 181.328 178.914C181.267 179.706 181.05 180.479 180.69 181.188C180.331 181.896 179.834 182.527 179.231 183.044Z" fill="white"/>
<path d="M169.099 205.164C168.341 205.813 167.408 206.222 166.418 206.341C165.427 206.459 164.424 206.281 163.535 205.829C162.646 205.378 161.911 204.672 161.422 203.803C160.934 202.933 160.714 201.938 160.792 200.943C160.869 199.949 161.239 199 161.856 198.216C162.473 197.432 163.308 196.849 164.256 196.539C165.204 196.23 166.223 196.209 167.183 196.479C168.143 196.749 169.002 197.297 169.651 198.055C170.52 199.071 170.95 200.391 170.847 201.724C170.743 203.057 170.115 204.295 169.099 205.164Z" fill="white"/>
<path d="M139.448 207.176C138.538 207.955 137.419 208.447 136.23 208.589C135.041 208.732 133.837 208.519 132.769 207.977C131.702 207.435 130.819 206.588 130.232 205.545C129.645 204.501 129.381 203.307 129.474 202.113C129.566 200.919 130.01 199.78 130.749 198.838C131.489 197.897 132.491 197.196 133.629 196.824C134.768 196.452 135.99 196.426 137.143 196.75C138.296 197.073 139.327 197.73 140.106 198.64C141.15 199.859 141.668 201.443 141.544 203.044C141.421 204.645 140.667 206.131 139.448 207.176Z" fill="white"/>
<path d="M136.078 203.022L134.94 202.15L150.47 181.787L165.61 199.964L174.631 178.173L175.955 178.722L166.026 202.701L150.518 184.081L136.078 203.022Z" fill="white"/>
<path d="M325.964 391.346H317.585V419.474H325.964V391.346Z" fill="white"/>
<path d="M313.773 411.532H305.391V419.474H313.773V411.532Z" fill="white"/>
<path d="M350.346 391.346H341.966V419.474H350.346V391.346Z" fill="white"/>
<path d="M350.346 380.678H341.966V387.28H350.346V380.678Z" fill="white"/>
<path d="M338.153 378.561H329.774V419.474H338.153V378.561Z" fill="white"/>
<path d="M373.577 228.473C372 228.473 370.457 228.006 369.145 227.13C367.834 226.253 366.811 225.008 366.207 223.551C365.603 222.093 365.445 220.489 365.753 218.942C366.06 217.395 366.82 215.974 367.935 214.858C369.05 213.742 370.472 212.983 372.019 212.675C373.566 212.367 375.17 212.525 376.627 213.128C378.085 213.732 379.33 214.754 380.207 216.066C381.083 217.377 381.551 218.92 381.551 220.497C381.548 222.611 380.708 224.638 379.213 226.133C377.718 227.628 375.691 228.47 373.577 228.473ZM373.577 215.281C372.545 215.28 371.536 215.585 370.678 216.158C369.82 216.731 369.151 217.545 368.755 218.498C368.36 219.452 368.256 220.501 368.457 221.513C368.658 222.525 369.155 223.455 369.884 224.184C370.613 224.914 371.543 225.411 372.555 225.613C373.567 225.815 374.616 225.711 375.569 225.317C376.522 224.922 377.337 224.253 377.911 223.396C378.484 222.538 378.79 221.529 378.79 220.497C378.789 219.115 378.24 217.789 377.262 216.811C376.285 215.833 374.96 215.283 373.577 215.281Z" fill="white"/>
<path d="M392.823 216.696H397.53C396.906 212.739 395.307 208.999 392.876 205.814L389.651 209.038C389.161 209.527 388.498 209.801 387.806 209.801C387.114 209.801 386.451 209.527 385.961 209.038L384.911 207.986C384.423 207.495 384.149 206.832 384.149 206.14C384.149 205.448 384.423 204.785 384.911 204.294L388.119 201.088C384.929 198.689 381.194 197.12 377.248 196.521V201.121C377.246 201.812 376.97 202.475 376.481 202.965C375.992 203.454 375.33 203.73 374.638 203.732H373.151C372.459 203.73 371.797 203.453 371.308 202.964C370.819 202.475 370.543 201.812 370.541 201.121V196.439C366.52 196.941 362.691 198.448 359.407 200.82L362.881 204.294C363.369 204.785 363.643 205.448 363.643 206.14C363.643 206.832 363.369 207.495 362.881 207.986L361.831 209.038C361.341 209.527 360.678 209.801 359.986 209.801C359.294 209.801 358.631 209.527 358.141 209.038L354.56 205.457C351.971 208.715 350.27 212.587 349.622 216.697H354.966C355.657 216.7 356.32 216.976 356.809 217.465C357.298 217.954 357.574 218.617 357.576 219.309V220.795C357.574 221.486 357.298 222.149 356.809 222.638C356.32 223.127 355.657 223.403 354.966 223.404H349.503C350.005 227.626 351.613 231.64 354.166 235.039L358.143 231.066C358.633 230.578 359.297 230.304 359.989 230.304C360.68 230.304 361.344 230.578 361.834 231.066L362.883 232.116C363.371 232.607 363.645 233.271 363.645 233.963C363.645 234.655 363.371 235.319 362.883 235.809L358.893 239.796C362.285 242.388 366.305 244.031 370.541 244.557V238.983C370.543 238.292 370.819 237.629 371.308 237.14C371.797 236.651 372.459 236.375 373.151 236.373H374.638C375.33 236.375 375.992 236.651 376.481 237.14C376.97 237.629 377.246 238.291 377.248 238.983V244.485C381.406 243.852 385.326 242.142 388.619 239.526L384.909 235.818C384.422 235.327 384.148 234.663 384.148 233.971C384.148 233.28 384.422 232.616 384.909 232.125L385.959 231.074C386.45 230.586 387.113 230.313 387.805 230.313C388.497 230.313 389.16 230.586 389.651 231.074L393.261 234.685C395.66 231.365 397.173 227.489 397.658 223.422H392.83C392.138 223.42 391.475 223.144 390.986 222.655C390.497 222.166 390.222 221.503 390.22 220.812V219.326C390.217 218.632 390.489 217.966 390.977 217.472C391.465 216.979 392.129 216.7 392.823 216.696ZM373.577 232.45C371.212 232.45 368.899 231.749 366.932 230.435C364.965 229.121 363.432 227.253 362.527 225.068C361.621 222.882 361.384 220.478 361.846 218.158C362.307 215.837 363.446 213.706 365.119 212.034C366.791 210.361 368.923 209.222 371.243 208.761C373.563 208.299 375.967 208.536 378.153 209.442C380.338 210.347 382.206 211.88 383.52 213.847C384.834 215.814 385.535 218.126 385.535 220.492C385.535 223.663 384.275 226.705 382.032 228.947C379.79 231.19 376.748 232.45 373.577 232.45Z" fill="white"/>
<path d="M199.281 415.549H151.488L165.363 396.521V381.281L161.912 379.624L163.74 375.828L169.577 378.634V397.893L159.777 411.335H190.994L181.196 397.893V378.634L187.029 375.828L188.857 379.624L185.41 381.281V396.521L199.281 415.549Z" fill="white"/>
<path d="M187.499 361.688C187.499 362.903 187.138 364.091 186.464 365.101C185.789 366.111 184.829 366.898 183.707 367.363C182.584 367.828 181.349 367.95 180.158 367.713C178.966 367.476 177.872 366.891 177.012 366.032C176.153 365.173 175.568 364.079 175.331 362.888C175.094 361.696 175.215 360.461 175.68 359.338C176.144 358.216 176.932 357.256 177.941 356.581C178.951 355.906 180.139 355.545 181.354 355.545C182.161 355.544 182.96 355.703 183.706 356.012C184.451 356.32 185.129 356.773 185.699 357.343C186.27 357.914 186.723 358.591 187.031 359.336C187.34 360.082 187.499 360.881 187.499 361.688Z" fill="white"/>
<path d="M171.52 366.774C171.52 367.515 171.3 368.239 170.888 368.855C170.476 369.472 169.891 369.952 169.206 370.235C168.521 370.519 167.768 370.593 167.041 370.448C166.314 370.303 165.647 369.946 165.123 369.422C164.599 368.897 164.243 368.229 164.098 367.502C163.954 366.776 164.029 366.022 164.313 365.338C164.597 364.653 165.078 364.068 165.694 363.657C166.311 363.246 167.035 363.027 167.777 363.027C168.268 363.028 168.755 363.125 169.209 363.313C169.664 363.501 170.076 363.777 170.424 364.125C170.772 364.473 171.047 364.886 171.235 365.341C171.423 365.795 171.52 366.282 171.52 366.774Z" fill="white"/>
<path d="M178.663 376.907C178.663 377.629 178.448 378.335 178.047 378.936C177.645 379.536 177.075 380.004 176.408 380.28C175.74 380.556 175.006 380.628 174.298 380.487C173.59 380.346 172.939 379.998 172.429 379.487C171.918 378.976 171.57 378.326 171.43 377.617C171.289 376.909 171.361 376.175 171.638 375.508C171.914 374.84 172.382 374.27 172.983 373.869C173.583 373.468 174.289 373.254 175.011 373.254C175.98 373.255 176.909 373.64 177.593 374.325C178.278 375.01 178.663 375.939 178.663 376.907Z" fill="white"/>
</g>
<defs>
<linearGradient id="paint0_linear_14_648" x1="557.957" y1="-58.5369" x2="45.5016" y2="831.9" gradientUnits="userSpaceOnUse">
<stop stop-color="#67878E"/>
<stop offset="1" stop-color="#30ABBA"/>
</linearGradient>
<linearGradient id="paint1_linear_14_648" x1="185.578" y1="331.844" x2="-31.7708" y2="622.902" gradientUnits="userSpaceOnUse">
<stop stop-color="#777996"/>
<stop offset="1" stop-color="#30ABBA"/>
</linearGradient>
<linearGradient id="paint2_linear_14_648" x1="390.851" y1="-194.754" x2="-153.375" y2="750.885" gradientUnits="userSpaceOnUse">
<stop stop-color="#AA80F9"/>
<stop offset="1" stop-color="#6165D7"/>
</linearGradient>
<linearGradient id="paint3_linear_14_648" x1="253.5" y1="3.5" x2="-35.0001" y2="529.5" gradientUnits="userSpaceOnUse">
<stop stop-color="#30ABBA"/>
<stop offset="1" stop-color="#6165D7"/>
</linearGradient>
<linearGradient id="paint4_linear_14_648" x1="554.257" y1="-94.9053" x2="16.4918" y2="839.506" gradientUnits="userSpaceOnUse">
<stop stop-color="#FFC444"/>
<stop offset="1" stop-color="#F36F56"/>
</linearGradient>
<linearGradient id="paint5_linear_14_648" x1="319.084" y1="115.824" x2="415.454" y2="-10.584" gradientUnits="userSpaceOnUse">
<stop stop-color="#444B8C"/>
<stop offset="1" stop-color="#26264F"/>
</linearGradient>
<linearGradient id="paint6_linear_14_648" x1="339.177" y1="129.892" x2="436.947" y2="1.64558" gradientUnits="userSpaceOnUse">
<stop stop-color="#444B8C"/>
<stop offset="1" stop-color="#26264F"/>
</linearGradient>
<linearGradient id="paint7_linear_14_648" x1="321.386" y1="113.777" x2="417.758" y2="-12.6332" gradientUnits="userSpaceOnUse">
<stop stop-color="#FF9085"/>
<stop offset="1" stop-color="#FB6FBB"/>
</linearGradient>
<linearGradient id="paint8_linear_14_648" x1="341.208" y1="127.634" x2="438.978" y2="-0.610278" gradientUnits="userSpaceOnUse">
<stop stop-color="#FF9085"/>
<stop offset="1" stop-color="#FB6FBB"/>
</linearGradient>
<linearGradient id="paint9_linear_14_648" x1="473.938" y1="38.4403" x2="319.242" y2="254.369" gradientUnits="userSpaceOnUse">
<stop stop-color="#FC9D8A"/>
<stop offset="1" stop-color="#FC9D8A"/>
</linearGradient>
<linearGradient id="paint10_linear_14_648" x1="423.269" y1="211.4" x2="434.259" y2="228.729" gradientUnits="userSpaceOnUse">
<stop stop-color="#FFC444"/>
<stop offset="1" stop-color="#F36F56"/>
</linearGradient>
<linearGradient id="paint11_linear_14_648" x1="456.965" y1="253.44" x2="426.671" y2="261.248" gradientUnits="userSpaceOnUse">
<stop stop-color="#AA80F9"/>
<stop offset="1" stop-color="#6165D7"/>
</linearGradient>
<linearGradient id="paint12_linear_14_648" x1="438.101" y1="473.553" x2="437.846" y2="422.335" gradientUnits="userSpaceOnUse">
<stop stop-color="#FFC444"/>
<stop offset="1" stop-color="#F36F56"/>
</linearGradient>
<linearGradient id="paint13_linear_14_648" x1="373.553" y1="472.623" x2="373.319" y2="425.359" gradientUnits="userSpaceOnUse">
<stop stop-color="#FFC444"/>
<stop offset="1" stop-color="#F36F56"/>
</linearGradient>
<linearGradient id="paint14_linear_14_648" x1="346.784" y1="344.22" x2="358.929" y2="367.922" gradientUnits="userSpaceOnUse">
<stop stop-color="#FFC444"/>
<stop offset="1" stop-color="#F36F56"/>
</linearGradient>
<linearGradient id="paint15_linear_14_648" x1="437.885" y1="252.771" x2="455.673" y2="300.585" gradientUnits="userSpaceOnUse">
<stop stop-color="#FFC444"/>
<stop offset="1" stop-color="#F36F56"/>
</linearGradient>
<linearGradient id="paint16_linear_14_648" x1="439.631" y1="252.121" x2="457.42" y2="299.935" gradientUnits="userSpaceOnUse">
<stop stop-color="#FFC444"/>
<stop offset="1" stop-color="#F36F56"/>
</linearGradient>
<linearGradient id="paint17_linear_14_648" x1="447.707" y1="292.002" x2="394.169" y2="380.313" gradientUnits="userSpaceOnUse">
<stop stop-color="#AA80F9"/>
<stop offset="1" stop-color="#6165D7"/>
</linearGradient>
<linearGradient id="paint18_linear_14_648" x1="424.742" y1="279.347" x2="370.314" y2="367.133" gradientUnits="userSpaceOnUse">
<stop stop-color="#6165D7"/>
<stop offset="1" stop-color="#010648"/>
</linearGradient>
<linearGradient id="paint19_linear_14_648" x1="84.0122" y1="440.767" x2="129.596" y2="456.088" gradientUnits="userSpaceOnUse">
<stop stop-color="#6165D7"/>
<stop offset="1" stop-color="#010648"/>
</linearGradient>
<linearGradient id="paint20_linear_14_648" x1="104.563" y1="405.093" x2="86.2387" y2="443.406" gradientUnits="userSpaceOnUse">
<stop stop-color="#FFC444"/>
<stop offset="1" stop-color="#F36F56"/>
</linearGradient>
<linearGradient id="paint21_linear_14_648" x1="136.592" y1="295.854" x2="87.1086" y2="344.201" gradientUnits="userSpaceOnUse">
<stop stop-color="#FFC444"/>
<stop offset="1" stop-color="#F36F56"/>
</linearGradient>
<linearGradient id="paint22_linear_14_648" x1="84.4816" y1="343.02" x2="75.3813" y2="424.924" gradientUnits="userSpaceOnUse">
<stop stop-color="#FFC444"/>
<stop offset="1" stop-color="#F36F56"/>
</linearGradient>
<linearGradient id="paint23_linear_14_648" x1="76.7842" y1="339.762" x2="58.582" y2="454.087" gradientUnits="userSpaceOnUse">
<stop stop-color="#FFC444"/>
<stop offset="1" stop-color="#F36F56"/>
</linearGradient>
<clipPath id="clip0_14_648">
<rect width="488.024" height="480" fill="white" transform="translate(0.871887)"/>
</clipPath>
</defs>
</svg>
