<svg width="489" height="480" viewBox="0 0 489 480" fill="none" xmlns="http://www.w3.org/2000/svg">
<g clip-path="url(#clip0_14_346)">
<path d="M427.114 88.6883C368.133 7.95713 267.151 2.91313 260.906 2.6235C181.264 -1.07058 124.411 39.5474 103.912 54.6624C89.0306 65.638 68.377 81.1477 49.0969 108.39C40.2996 120.826 9.68157 166.958 9.19377 229.031C8.43497 325.529 81.0666 388.33 94.2541 399.274C165.582 458.46 290.333 487.932 383.907 420.417C493.804 341.126 492.688 178.444 427.114 88.6883Z" fill="#F4F7FA"/>
<path d="M303.131 414.309C300.369 413.342 295.211 408.801 294.354 407.063C288.655 395.498 276.57 374.543 280.174 361.39C280.789 359.145 291.395 359.188 293.26 357.396C300.035 355.778 302.478 355.636 308.165 350.937C324.933 337.064 301.346 299.374 338.812 295.797C366.251 293.177 386.119 306.637 391.794 266.096C397.47 225.554 444.545 159.438 480.845 196.228C501.678 217.341 469.917 246.124 477.08 273.821C483.874 300.15 469.628 317.62 441.311 326.573C412.995 335.526 424.184 349.362 426.745 373.549C429.833 402.604 386.993 398.581 367.372 395.038C351.581 392.177 309.425 395.57 303.131 414.309Z" fill="url(#paint0_linear_14_346)"/>
<mask id="mask0_14_346" style="mask-type:luminance" maskUnits="userSpaceOnUse" x="274" y="185" width="215" height="236">
<path d="M274.465 356.598C276.589 376.608 277.925 397.057 279.956 417.219C290.965 420.493 303.987 424.077 309.373 410.834C316.863 392.421 351.651 392.067 367.421 395.002C386.942 398.635 429.863 402.568 426.757 373.537C424.171 349.371 412.995 335.506 441.323 326.564C469.651 317.623 483.877 300.142 477.077 273.826C469.919 246.128 501.672 217.359 480.842 196.233C444.548 159.423 397.448 225.6 391.801 266.089C386.154 306.578 366.159 293.336 338.832 295.763C301.527 299.076 324.527 337.731 308.345 350.602C295.643 360.692 288.152 356.776 274.465 356.598Z" fill="white"/>
</mask>
<g mask="url(#mask0_14_346)">
<path d="M287.379 385.444L287.234 384.863C333.981 373.168 375.868 347.472 408.391 310.552C439.328 275.421 461.377 230.876 472.148 181.723L472.734 181.852C461.941 231.101 439.844 275.742 408.832 310.946C376.229 347.96 334.229 373.72 287.379 385.444Z" fill="#FCFDFE"/>
<path d="M429.428 385.461C406.731 372.309 365.997 363.471 338.624 365.763L338.573 365.165C366.058 362.863 406.948 371.739 429.728 384.943L429.428 385.461Z" fill="#FCFDFE"/>
<path d="M305.575 380.668L305.274 380.15C317.626 372.978 325.878 359.838 329.801 341.095C332.681 327.352 333.204 310.973 331.363 292.412L331.961 292.352C333.805 310.984 333.277 327.413 330.389 341.217C326.429 360.135 318.08 373.407 305.575 380.668Z" fill="#FCFDFE"/>
<path d="M413.042 305.777L412.716 305.269C435.295 290.56 463.623 291.336 483.413 294.576L483.316 295.169C463.633 291.949 435.463 291.173 413.042 305.777Z" fill="#FCFDFE"/>
<path d="M447.133 254.361L446.557 254.192C450.166 241.668 453.571 215.396 435.813 180.175L436.349 179.906C442.348 191.804 446.592 204.39 448.622 216.308C450.957 230.029 450.456 242.83 447.133 254.361Z" fill="#FCFDFE"/>
</g>
<mask id="mask1_14_346" style="mask-type:luminance" maskUnits="userSpaceOnUse" x="334" y="67" width="144" height="327">
<path d="M379.067 393.583C364.344 391.417 349.639 388.914 334.952 386.073C334.713 386.288 329.888 354.283 345.089 337.499C375.151 304.979 354.903 275.801 349.127 258.508C339.882 234.118 344.62 204.487 371.484 210.039C397.648 214.819 401.616 160.954 397.101 119.457C393.248 99.2608 412.304 74.7538 431.315 69.1526C450.729 62.9483 470.102 75.6481 476.038 115.9C485.027 162.514 451.01 190.624 438.413 213.992C426.018 236.934 454.851 255.489 431.638 275.823C412.119 293.885 387.516 306.868 396.516 329.556C405.773 351.993 403.552 370.333 379.067 393.583Z" fill="white"/>
</mask>
<g mask="url(#mask1_14_346)">
<path d="M379.067 393.583C364.344 391.417 349.639 388.914 334.952 386.073C334.713 386.288 329.888 354.283 345.089 337.499C375.151 304.979 354.903 275.801 349.127 258.508C339.981 234.143 344.789 207.758 369.587 207.368C397.092 206.396 402.08 160.871 397.094 119.462C393.241 99.2659 412.297 74.7589 431.308 69.1577C450.722 62.9535 470.095 75.6532 476.032 115.905C485.02 162.519 451.003 190.629 438.406 213.997C426.012 236.939 454.844 255.494 431.631 275.828C412.113 293.89 387.509 306.873 396.51 329.561C405.773 351.993 403.552 370.333 379.067 393.583Z" fill="url(#paint1_linear_14_346)"/>
<path d="M359.378 395.483L358.778 395.473C358.778 395.189 372.846 327.852 397.108 262.327C400.458 251.716 404.098 241.013 407.619 230.654C417.045 202.942 426.791 174.286 431.42 145.754C436.594 113.861 434.75 85.1383 425.783 57.94L426.352 57.752C435.349 85.0434 437.2 113.861 432.011 145.849C427.375 174.431 417.614 203.112 408.186 230.847C404.667 241.194 401.027 251.894 397.673 262.512C373.224 328.558 359.413 395.09 359.378 395.483Z" fill="#FCFDFE"/>
<path d="M425.224 177.108L424.777 176.706C441.191 158.469 460.989 132.553 471.634 118.629C480.201 107.418 480.246 107.437 480.601 107.489L480.555 107.786L480.677 108.053C480.244 108.351 476.655 113.048 472.112 118.993C461.467 132.924 441.652 158.852 425.224 177.108Z" fill="#FCFDFE"/>
<path d="M430.183 152.092C426.796 131.192 418.181 117.443 411.552 109.589C404.238 100.917 397.494 97.1352 396.816 97.0556C396.867 97.057 396.917 97.0421 396.959 97.0133L396.62 96.5153C396.77 96.4137 396.947 96.4391 397.345 96.6118C399.164 97.4028 405.956 101.651 413.08 110.501C422.057 121.654 428.169 136.002 430.768 151.998L430.183 152.092Z" fill="#FCFDFE"/>
<path d="M383.266 305.194L382.672 305.123C384.987 285.677 380.455 264.759 369.203 242.951C363.334 231.577 355.849 220.435 346.957 209.834C346.314 209.065 346.087 208.793 346.014 208.669L346.534 208.367C346.585 208.457 346.952 208.894 347.416 209.448C356.337 220.083 363.846 231.264 369.735 242.676C381.044 264.592 385.597 285.626 383.266 305.194Z" fill="#FCFDFE"/>
<path d="M389.901 284.72L389.393 284.405C407.048 255.879 444.27 253.906 444.585 253.999L444.809 254.278L444.604 254.573L444.509 254.294L444.484 254.587C443.891 254.588 407.274 256.653 389.901 284.72Z" fill="#FCFDFE"/>
<path d="M361.835 384.499L361.236 384.477C361.547 376.009 358.526 361.578 342.335 340.904C341.456 339.783 341.456 339.783 341.48 339.615L342.074 339.7L341.778 339.657L342.052 339.544C342.098 339.63 342.426 340.052 342.806 340.535C359.103 361.351 362.15 375.932 361.835 384.499Z" fill="#FCFDFE"/>
<path d="M365.575 368.551L364.999 368.382C366.862 361.945 374.211 349.322 402.431 337.171C402.821 337.001 403.071 336.896 403.161 336.851L403.436 337.382C403.341 337.432 403.078 337.552 402.668 337.721C374.674 349.777 367.411 362.213 365.575 368.551Z" fill="#FCFDFE"/>
</g>
<path d="M446.254 251.878C446.254 350.905 366.007 434.849 263.626 439.529C157.299 444.389 68.0381 362.496 68.0381 256.441C68.0381 150.387 157.299 66.3375 263.631 68.6326C366.012 70.8412 446.254 152.849 446.254 251.878Z" fill="url(#paint2_linear_14_346)"/>
<path d="M458.147 251.878C458.147 350.905 377.9 434.85 275.52 439.529C169.189 444.39 79.9316 362.497 79.9316 256.443C79.9316 150.388 169.189 66.3375 275.523 68.6326C377.9 70.8412 458.147 152.849 458.147 251.878Z" fill="url(#paint3_linear_14_346)"/>
<path d="M446.846 252.012C446.846 345.319 371.151 424.267 274.769 428.479C174.894 432.844 91.2324 355.817 91.2324 256.304C91.2324 156.791 174.894 77.745 274.769 79.6995C371.151 81.5864 446.846 158.706 446.846 252.012Z" fill="url(#paint4_linear_14_346)"/>
<path d="M341.208 292.827L354.535 325.114C342.172 335.238 327.107 341.889 309.338 345.068C294.936 347.752 280.122 347.256 265.933 343.615C252.249 340.143 239.644 333.33 229.248 323.789C219.053 314.785 211.035 302.692 205.193 287.508L185.807 290.918L181.945 269.477L198.297 266.558L197.382 261.408C197.201 260.426 196.978 258.879 196.719 256.847C196.461 254.815 196.24 253.288 196.056 252.276L179.094 255.31L175.24 233.828L195.537 230.202C196.478 213.375 200.989 198.413 209.067 185.317C223.523 161.294 244.99 146.731 273.469 141.627C290.018 138.677 305.707 138.996 320.535 142.583L318.187 178.596C305.81 175.812 294.151 175.397 283.21 177.353C267.468 180.164 256.025 187.831 248.881 200.354C245.503 205.957 243.443 213.077 242.699 221.713L318.133 208.229L321.977 229.711L242.009 244.015C242.16 246.075 242.619 249.221 243.387 253.452L244.25 258.297L324.602 243.925L328.447 265.407L252.419 279.074C256.026 287.592 260.622 294.055 266.208 298.465C277.134 307.123 291.082 309.936 308.05 306.902C320.999 304.6 332.051 299.909 341.208 292.827Z" fill="white"/>
<g style="mix-blend-mode:multiply" opacity="0.3">
<path style="mix-blend-mode:multiply" opacity="0.3" d="M193.11 174.474C186.823 153.979 187.109 122.846 217.766 76.8591C138.668 99.6452 79.9249 171.371 79.9249 257.173C79.9249 363.227 169.186 445.12 275.513 440.268C314.72 438.476 350.616 425.092 379.948 403.852C379.039 375.566 372.885 344.61 355.582 316.051C308.008 237.529 212.839 238.765 193.11 174.474Z" fill="url(#paint5_linear_14_346)"/>
</g>
<mask id="mask2_14_346" style="mask-type:luminance" maskUnits="userSpaceOnUse" x="-6" y="-5" width="412" height="305">
<path d="M243.57 -4.21753C65.4382 -4.21753 45.2809 147.946 45.2809 147.946H-5.80957V161.77L94.6301 299.895L217.343 139.555H169.006L237.414 59.3762C237.414 59.3762 316.023 73.4225 343.155 82.5349C378.215 95.46 405.792 124.796 405.792 124.796C405.792 124.796 378.402 -4.21753 243.57 -4.21753Z" fill="white"/>
</mask>
<g mask="url(#mask2_14_346)">
<path d="M402.021 151.661V152.24C396.706 145.329 387.184 135.727 381.483 130.168C381.376 129.923 381.198 129.677 381.091 129.432C377.535 121.341 373.153 113.64 368.016 106.449C362.45 98.5765 355.377 90.8276 347.132 83.6918C346.144 82.767 345.004 81.9506 343.947 81.075C343.409 80.6481 342.865 80.2078 342.318 79.7809L341.519 79.1305C341.237 78.9137 340.948 78.719 340.672 78.5089C339.543 77.6925 338.409 76.8682 337.271 76.036L336.424 75.4144L335.528 74.8369C334.937 74.4456 334.342 74.056 333.751 73.6733C331.414 72.0608 328.892 70.6652 326.432 69.1899C325.181 68.4751 323.866 67.8163 322.591 67.1371C321.961 66.7983 321.315 66.4596 320.67 66.1208C320.025 65.7821 319.341 65.4924 318.688 65.1825C307.966 60.0504 296.582 56.4324 284.864 54.4322L280.43 53.7378C278.95 53.543 277.446 53.4193 275.974 53.2533L273.741 53.0145L271.5 52.8994L269.261 52.7689C268.518 52.7334 267.781 52.6605 267.029 52.6758C265.542 52.6673 264.053 52.6538 262.557 52.647C262.193 52.647 261.799 52.625 261.456 52.647L260.449 52.6927L258.459 52.7943L256.485 52.8892C256.316 52.8892 256.189 52.8892 255.96 52.9095L253.928 53.0552L251.218 53.2364L249.185 53.3804L248.846 53.4024H248.725C248.725 53.4024 248.018 53.4024 249.204 53.4244L244.834 54.0477C244.112 54.1561 243.384 54.2171 242.663 54.3729L240.513 54.7845L238.366 55.1893L237.295 55.3926C236.938 55.4569 236.589 55.5619 236.24 55.6382C234.834 55.9769 233.43 56.3157 232.033 56.6544C231.326 56.8001 230.644 57.0304 229.959 57.2269L227.91 57.84L225.861 58.4261L223.864 59.129C222.529 59.6066 221.193 60.025 219.893 60.5314C218.594 61.0378 217.305 61.5731 216.021 62.0998C205.81 66.424 196.63 72.0117 188.818 78.3954L187.345 79.5658L185.947 80.8175C185.022 81.6407 184.065 82.4283 183.185 83.2752C183.146 83.3039 183.115 83.3463 183.078 83.3751C181.362 85.0688 179.623 86.6576 178.081 88.4072C177.671 88.8341 177.27 89.2677 176.875 89.7013L176.267 90.3381L175.705 91.0156C174.953 91.8981 174.209 92.7873 173.466 93.6613C173.283 93.8781 173.087 94.0881 172.904 94.3117L172.395 94.9892C172.047 95.4448 171.704 95.9004 171.362 96.3442C170.695 97.2537 169.965 98.0921 169.365 99.0322C164.294 106.261 160.429 113.492 157.802 120.387C155.427 126.537 153.707 132.92 152.67 139.43C152.57 140.145 152.472 140.846 152.374 141.54C152.275 142.235 152.145 142.895 152.114 143.573C152.002 144.918 151.889 146.2 151.776 147.419C151.699 148.663 151.699 149.855 151.645 150.976C151.623 151.54 151.584 152.089 151.578 152.617C151.6 153.159 151.615 153.686 151.623 154.193C151.638 155.209 151.654 156.174 151.669 157.072C151.671 157.259 151.688 157.445 151.721 157.629C151.745 157.799 151.767 157.968 151.791 158.12C151.82 158.439 151.865 158.395 151.896 158.685C151.92 158.93 151.95 159.045 151.972 159.045H201.953L171.584 191.106L100.98 264.624L0 159.042H53.0941C53.1704 159.042 53.2534 158.175 53.3363 157.495C53.543 156.027 53.7632 154.596 54.0054 152.855C54.1426 151.986 54.2628 151.176 54.4085 150.245C54.483 149.789 54.5525 149.355 54.6287 148.878C54.7049 148.4 54.7642 147.902 54.8624 147.49C55.235 145.741 55.6229 143.896 56.0328 141.93C56.253 140.954 56.4647 139.957 56.6934 138.93C56.922 137.904 57.2252 136.864 57.5131 135.793C58.0907 133.661 58.6513 131.42 59.3509 129.113C60.095 126.821 60.8668 124.44 61.6662 121.971C62.0541 120.727 62.5622 119.506 63.0331 118.244C63.504 116.983 64.0036 115.721 64.505 114.42C69.1163 102.92 74.9059 91.928 81.7813 81.6204C89.2761 70.3366 98.8187 59.0934 110.147 48.67C111.522 47.3337 113.04 46.1108 114.505 44.832C115.25 44.2019 115.985 43.5668 116.73 42.9299L117.862 41.9763L119.015 41.0651C120.572 39.8574 122.143 38.6362 123.707 37.415L124.892 36.5038L126.122 35.6366C126.95 35.0506 127.77 34.4713 128.597 33.8937C131.839 31.5225 135.324 29.3968 138.786 27.2C140.533 26.1296 142.343 25.1319 144.139 24.0987C145.026 23.5906 145.931 23.0825 146.833 22.5744L149.613 21.1431C164.765 13.2727 180.932 7.53143 197.654 4.08195C199.773 3.68392 201.906 3.27911 204.031 2.88277C206.157 2.48643 208.322 2.24592 210.468 1.93596L213.686 1.50067L216.919 1.1924L220.153 0.895997C221.231 0.80284 222.302 0.685971 223.388 0.650402C225.544 0.557245 227.708 0.311651 229.871 0.216801C230.403 0.194782 230.95 0 231.489 0H233.113L236.331 0.169375L239.56 0.271001C240.637 0.271001 241.716 0.408195 242.778 0.459008L249.194 0.828246C250.65 0.850265 249.702 0.863815 250.066 0.87059L250.235 0.892609L250.574 0.929871L251.252 1.01625L252.607 1.17547L255.293 1.4922L256.648 1.65141L257.325 1.73102L258.152 1.83942L261.555 2.31706L264.956 2.80825L266.65 3.06231C267.203 3.14869 267.698 3.26387 268.228 3.36549C270.301 3.78385 272.374 4.21237 274.448 4.62395C275.479 4.81873 276.497 5.0999 277.515 5.35396L280.574 6.12631L283.611 6.90036L286.6 7.80821C288.589 8.42135 290.586 8.99384 292.528 9.67134C294.48 10.3658 296.424 11.0602 298.352 11.7547C313.712 17.5659 327.728 25.3233 339.777 34.3527C340.536 34.91 341.288 35.474 342.039 36.0296C342.789 36.5851 343.497 37.1932 344.218 37.786C345.661 38.9581 347.111 40.0861 348.5 41.2853C351.249 43.7294 353.983 46.0871 356.485 48.6277C357.121 49.2493 357.745 49.8777 358.382 50.4908L359.317 51.4156L360.213 52.3777C361.405 53.6638 362.582 54.9409 363.742 56.209L364.616 57.1625L365.451 58.1466C365.99 58.8038 366.544 59.4542 367.084 60.1046C368.161 61.4139 369.286 62.6571 370.265 64.0087C375.505 70.7262 380.195 77.8558 384.288 85.328C386.171 88.7612 387.844 92.1809 389.33 95.5566C393.45 104.824 396.589 114.496 398.698 124.416C398.903 125.516 399.123 126.591 399.328 127.655C399.533 128.719 399.762 129.743 399.89 130.778C400.178 132.838 400.468 134.811 400.737 136.706C400.966 138.615 401.088 140.451 401.254 142.192C401.323 143.061 401.413 143.906 401.467 144.745C401.522 145.583 401.679 146.379 401.718 147.174C401.755 148.756 402.021 150.267 402.021 151.661Z" fill="#FC9D8A"/>
<path style="mix-blend-mode:multiply" opacity="0.4" d="M402.021 151.66V152.24C396.706 145.329 387.184 135.727 381.483 130.168C381.376 129.923 381.198 129.677 381.092 129.432C377.535 121.341 373.154 113.64 368.016 106.449C362.45 98.5764 355.377 90.8275 347.132 83.6917C346.144 82.7669 345.004 81.9505 343.947 81.0749C343.409 80.648 342.865 80.2077 342.318 79.7808L341.519 79.1304C341.237 78.9136 340.948 78.7189 340.672 78.5088C339.543 77.6924 338.409 76.8682 337.271 76.036L336.424 75.4143L335.528 74.8368C334.937 74.4455 334.342 74.056 333.751 73.6732C331.414 72.0607 328.892 70.6651 326.432 69.1898C325.181 68.475 323.866 67.8162 322.591 67.137C321.961 66.7982 321.316 66.4595 320.67 66.1207C320.025 65.782 319.341 65.4923 318.689 65.1824C307.966 60.0503 296.582 56.4323 284.864 54.4321L280.43 53.7377C278.95 53.5429 277.446 53.4192 275.974 53.2533L273.741 53.0144L271.5 52.8993L269.261 52.7688C268.518 52.7333 267.781 52.6604 267.029 52.6757C265.542 52.6672 264.053 52.6537 262.557 52.6469C262.193 52.6469 261.799 52.6249 261.457 52.6469L260.449 52.6926L258.459 52.7942L256.485 52.8891C256.316 52.8891 256.189 52.8891 255.96 52.9094L253.928 53.0551L251.218 53.2363L249.185 53.3803L248.847 53.4023H248.725C248.725 53.4023 248.018 53.4023 249.204 53.4243L244.834 54.0476C244.112 54.156 243.384 54.217 242.663 54.3728L240.513 54.7844L238.366 55.1892L237.295 55.3925C236.938 55.4568 236.589 55.5618 236.24 55.6381C234.834 55.9768 233.43 56.3156 232.033 56.6543C231.326 56.8 230.644 57.0303 229.959 57.2268L227.91 57.8399L225.861 58.426L223.864 59.1289C222.529 59.6065 221.193 60.0249 219.893 60.5313C218.594 61.0378 217.305 61.573 216.022 62.0997C205.81 66.4239 196.63 72.0116 188.818 78.3954L187.345 79.5657L185.947 80.8174C185.022 81.6406 184.065 82.4282 183.185 83.2751C183.146 83.3039 183.115 83.3462 183.078 83.375C205.513 56.9236 241.851 39.7405 282.872 39.7405C324.898 39.7405 362.016 57.7773 384.293 85.3279C386.176 88.7611 387.85 92.1808 389.335 95.5565C393.455 104.824 396.595 114.496 398.703 124.416C398.908 125.516 399.128 126.591 399.333 127.655C399.538 128.719 399.767 129.743 399.896 130.778C400.184 132.838 400.473 134.811 400.742 136.706C400.971 138.615 401.093 140.451 401.259 142.192C401.329 143.061 401.418 143.906 401.473 144.745C401.527 145.583 401.684 146.379 401.723 147.174C401.755 148.756 402.021 150.266 402.021 151.66Z" fill="url(#paint6_linear_14_346)"/>
</g>
<path d="M30.6757 455.532V470.967C30.6757 475.955 61.8407 480 100.269 480C138.697 480 169.862 475.955 169.862 470.967V455.532H30.6757Z" fill="url(#paint7_linear_14_346)"/>
<path d="M169.862 455.532C169.862 460.52 138.697 464.563 100.269 464.563C61.8407 464.563 30.6757 460.52 30.6757 455.532C30.6757 450.544 61.8407 446.501 100.269 446.501C138.697 446.501 169.862 450.544 169.862 455.532Z" fill="url(#paint8_linear_14_346)"/>
<path d="M100.269 465.186C66.2242 465.186 30.635 461.934 30.635 455.664C30.635 455.325 30.7587 454.714 31.1025 454.714C31.4463 454.714 31.299 455.188 31.299 455.532C31.299 459.509 59.6236 463.94 100.269 463.94C140.914 463.94 169.238 459.509 169.238 455.532C169.238 455.193 169.298 454.865 169.641 454.865C169.985 454.865 169.902 455.324 169.902 455.669C169.902 461.939 134.308 465.186 100.269 465.186Z" fill="url(#paint9_linear_14_346)"/>
<path d="M93.6918 456.035C94.3693 455.562 95.101 455.097 95.8801 454.636C96.824 454.104 97.8275 453.686 98.8696 453.389C100.371 452.962 101.905 452.659 103.456 452.483C105.737 452.223 108.032 452.1 110.328 452.112C113.018 452.099 115.542 452.184 117.902 452.368C119.994 452.516 122.074 452.791 124.132 453.193C125.919 453.559 127.377 454.01 128.505 454.548C129.633 455.085 130.299 455.703 130.504 456.401L138.339 456.479C138.843 456.477 139.346 456.524 139.842 456.619C140.28 456.707 140.492 456.821 140.492 456.958V457.603L130.417 457.505C130.065 458.296 129.165 459.019 127.718 459.675C126.27 460.331 124.428 460.899 122.193 461.379L118.524 460.871C118.248 460.833 117.977 460.768 117.714 460.678C117.503 460.601 117.399 460.508 117.399 460.425C117.399 460.302 117.682 460.161 118.246 460.002C118.81 459.843 119.454 459.644 120.167 459.411C120.883 459.174 121.585 458.896 122.269 458.579C122.946 458.259 123.41 457.878 123.648 457.432L99.8808 457.197C99.2065 457.687 98.5054 458.14 97.7805 458.552C96.8046 459.075 95.7689 459.477 94.6962 459.751C93.1252 460.159 91.5257 460.447 89.9114 460.615C87.5148 460.861 85.1068 460.979 82.6976 460.967C80.5178 460.979 78.3972 460.896 76.3173 460.72C74.4572 460.576 72.6084 460.312 70.7821 459.931C69.1696 459.581 67.8457 459.148 66.8102 458.631C65.7804 458.123 65.2012 457.52 65.0809 456.85L58.6311 456.784C58.1199 456.786 57.6097 456.741 57.1067 456.65C56.6612 456.563 56.4292 456.45 56.4292 456.311V455.666L65.2486 455.75C65.6398 455.073 66.4342 454.478 67.6605 453.974C69.1116 453.396 70.6092 452.943 72.1371 452.619L75.091 453.023C75.987 453.151 76.4324 453.298 76.4341 453.467C76.4341 453.559 76.2529 453.672 75.882 453.806C75.511 453.94 75.0673 454.102 74.5575 454.29C74.054 454.479 73.5634 454.701 73.089 454.954C72.6704 455.157 72.3028 455.451 72.0134 455.815L93.6918 456.035ZM71.9338 456.914C72.1032 457.337 72.5063 457.702 73.1042 458.008C73.8169 458.354 74.5703 458.608 75.3467 458.765C76.3438 458.976 77.3538 459.119 78.3701 459.194C79.4925 459.286 80.6663 459.33 81.8914 459.324C83.1398 459.327 84.3875 459.265 85.6295 459.14C86.571 459.043 87.5051 458.884 88.4259 458.665C89.1455 458.494 89.8492 458.263 90.5296 457.973C91.0862 457.728 91.623 457.441 92.1353 457.114L71.9338 456.914ZM123.697 456.338C123.527 455.908 123.089 455.534 122.416 455.21C121.592 454.839 120.726 454.566 119.838 454.397C118.632 454.154 117.412 453.99 116.185 453.906C114.799 453.799 113.268 453.75 111.591 453.759C110.307 453.754 109.022 453.82 107.745 453.957C106.802 454.059 105.867 454.229 104.949 454.465C104.254 454.641 103.581 454.89 102.94 455.208C102.408 455.478 101.893 455.781 101.398 456.115L123.697 456.338Z" fill="#FC9D8A"/>
<path d="M100.279 447.478C69.2475 447.478 36.9323 450.208 31.7698 455.495C31.9716 455.68 32.1606 455.878 32.3355 456.089C36.6918 452.419 63.3702 448.725 100.279 448.725C138.134 448.725 165.239 452.612 168.524 456.372C168.685 456.165 168.858 455.968 169.044 455.783C164.775 450.31 131.859 447.478 100.279 447.478Z" fill="url(#paint10_linear_14_346)"/>
<path d="M11.3296 439.318V454.755C11.3296 459.743 42.4947 463.786 80.9226 463.786C119.351 463.786 150.524 459.743 150.524 454.755V439.318H11.3296Z" fill="url(#paint11_linear_14_346)"/>
<path d="M150.524 439.318C150.524 444.306 119.359 448.349 80.931 448.349C42.5031 448.349 11.338 444.306 11.338 439.318C11.338 434.33 42.5031 430.287 80.931 430.287C119.359 430.287 150.524 434.33 150.524 439.318Z" fill="url(#paint12_linear_14_346)"/>
<path d="M80.9226 448.972C46.8781 448.972 11.2889 445.722 11.2889 439.45C11.2889 439.111 11.4109 438.5 11.7564 438.5C12.1019 438.5 11.9529 438.974 11.9529 439.318C11.9529 443.295 40.2776 447.725 80.9226 447.725C121.568 447.725 149.892 443.295 149.892 439.318C149.892 438.979 149.95 438.65 150.295 438.65C150.641 438.65 150.556 439.111 150.556 439.455C150.556 445.725 114.955 448.972 80.9226 448.972Z" fill="url(#paint13_linear_14_346)"/>
<path d="M74.3457 439.822C75.0232 439.348 75.7549 438.882 76.5323 438.423C77.4761 437.891 78.4795 437.472 79.5218 437.175C81.0239 436.747 82.5585 436.444 84.1102 436.267C86.3914 436.008 88.6859 435.884 90.9818 435.896C93.6714 435.883 96.1963 435.968 98.5562 436.152C100.648 436.301 102.728 436.576 104.786 436.977C106.572 437.343 108.029 437.794 109.157 438.332C110.285 438.869 110.952 439.487 111.158 440.185L118.993 440.264C119.497 440.261 120 440.308 120.495 440.403C120.932 440.493 121.144 440.605 121.146 440.742V441.387L111.071 441.291C110.719 442.081 109.816 442.804 108.361 443.459C106.907 444.114 105.066 444.682 102.838 445.163L99.1694 444.655C98.8939 444.617 98.6228 444.553 98.3598 444.463C98.148 444.385 98.0447 444.302 98.0447 444.211C98.0447 444.085 98.3276 443.945 98.8916 443.786C99.4556 443.626 100.101 443.43 100.814 443.195C101.53 442.959 102.232 442.681 102.916 442.363C103.593 442.044 104.058 441.662 104.295 441.218L80.5177 440.983C79.8431 441.472 79.1419 441.925 78.4175 442.338C77.4417 442.86 76.406 443.262 75.3332 443.535C73.7621 443.942 72.1626 444.231 70.5483 444.399C68.1517 444.645 65.7437 444.763 63.3346 444.753C61.1547 444.763 59.0325 444.68 56.9542 444.506C55.0942 444.361 53.2453 444.098 51.419 443.716C49.8066 443.365 48.4826 442.931 47.4472 442.415C46.4174 441.907 45.8381 441.306 45.7178 440.635L39.2663 440.569C38.7552 440.57 38.245 440.524 37.742 440.434C37.2965 440.349 37.0645 440.234 37.0645 440.095V439.45L45.8838 439.533C46.2751 438.855 47.0695 438.261 48.2957 437.756C49.7469 437.178 51.2444 436.725 52.7723 436.401L55.7262 436.807C56.6222 436.933 57.0677 437.08 57.0694 437.249C57.0694 437.341 56.8882 437.454 56.5172 437.588C56.1463 437.722 55.7025 437.886 55.1927 438.074C54.6883 438.262 54.1971 438.483 53.7225 438.737C53.3047 438.939 52.9378 439.234 52.6487 439.597L74.3457 439.822ZM52.5843 440.701C52.7622 441.123 53.1568 441.487 53.7564 441.794C54.4688 442.14 55.2223 442.395 55.9989 442.551C56.9942 442.763 58.0026 442.908 59.0172 442.986C60.1464 443.078 61.3202 443.121 62.5385 443.117C63.7869 443.118 65.0346 443.056 66.2766 442.93C67.2188 442.835 68.1535 442.677 69.0747 442.458C69.7938 442.286 70.497 442.054 71.1767 441.763C71.7328 441.518 72.269 441.23 72.7807 440.901L52.5843 440.701ZM104.349 440.124C104.179 439.695 103.739 439.319 103.068 438.996C102.244 438.625 101.378 438.353 100.49 438.183C99.2846 437.941 98.0642 437.777 96.8371 437.693C95.4516 437.58 93.9204 437.531 92.2436 437.544C90.9582 437.54 89.6735 437.607 88.3954 437.744C87.4523 437.846 86.5177 438.016 85.599 438.252C84.9057 438.428 84.2329 438.677 83.5919 438.994C83.0593 439.263 82.5445 439.567 82.0506 439.902L104.349 440.124Z" fill="#FC9D8A"/>
<path d="M80.931 431.264C49.9014 431.264 17.5846 433.994 12.4237 439.28C12.6243 439.467 12.8132 439.665 12.9894 439.875C17.3441 436.206 44.0241 432.51 80.931 432.51C118.786 432.51 145.893 436.398 149.177 440.158C149.339 439.951 149.513 439.754 149.697 439.568C145.429 434.096 112.513 431.264 80.931 431.264Z" fill="url(#paint14_linear_14_346)"/>
<path d="M28.0232 423.152V438.588C28.0232 443.576 59.1883 447.619 97.6162 447.619C136.044 447.619 167.209 443.576 167.209 438.588V423.152H28.0232Z" fill="url(#paint15_linear_14_346)"/>
<path d="M167.209 423.152C167.209 428.141 136.044 432.184 97.6162 432.184C59.1883 432.184 28.0232 428.141 28.0232 423.152C28.0232 418.164 59.1883 414.121 97.6162 414.121C136.044 414.121 167.209 418.164 167.209 423.152Z" fill="url(#paint16_linear_14_346)"/>
<path d="M97.6145 432.805C63.57 432.805 27.9825 429.555 27.9825 423.284C27.9825 422.946 28.1045 422.334 28.45 422.334C28.7955 422.334 28.6448 422.807 28.6448 423.152C28.6448 427.129 56.9712 431.56 97.6145 431.56C138.258 431.56 166.584 427.129 166.584 423.152C166.584 422.814 166.643 422.485 166.987 422.485C167.331 422.485 167.25 422.944 167.25 423.29C167.25 429.553 131.654 432.805 97.6145 432.805Z" fill="url(#paint17_linear_14_346)"/>
<path d="M91.0393 423.656C91.7168 423.183 92.4485 422.717 93.226 422.257C94.1698 421.724 95.1732 421.306 96.2154 421.01C97.7177 420.583 99.2522 420.28 100.804 420.102C103.084 419.843 105.377 419.718 107.672 419.729C110.362 419.717 112.886 419.803 115.246 419.987C117.337 420.135 119.417 420.41 121.474 420.812C123.263 421.178 124.721 421.629 125.848 422.167C126.975 422.704 127.641 423.321 127.846 424.018L135.683 424.098C136.187 424.095 136.691 424.142 137.186 424.237C137.623 424.326 137.834 424.44 137.836 424.575V425.221L127.762 425.124C127.407 425.914 126.507 426.637 125.06 427.292C123.614 427.947 121.772 428.516 119.537 428.998L115.868 428.49C115.592 428.453 115.321 428.389 115.058 428.298C114.847 428.222 114.743 428.129 114.743 428.046C114.743 427.922 115.026 427.78 115.59 427.622C116.154 427.465 116.798 427.265 117.511 427.03C118.228 426.794 118.93 426.517 119.615 426.2C120.292 425.879 120.755 425.498 120.993 425.053L97.2266 424.811C96.552 425.301 95.8508 425.753 95.1263 426.166C94.1506 426.688 93.1149 427.091 92.042 427.363C90.4712 427.772 88.8717 428.061 87.2572 428.229C84.86 428.474 82.4514 428.592 80.0418 428.581C77.8636 428.591 75.7413 428.51 73.6631 428.334C71.803 428.189 69.9542 427.926 68.1279 427.544C66.5143 427.194 65.1904 426.761 64.156 426.244C63.1217 425.726 62.5453 425.136 62.4267 424.472L55.9752 424.406C55.4641 424.408 54.9538 424.363 54.4508 424.272C54.0071 424.186 53.7733 424.072 53.7733 423.933V423.286L62.5927 423.371C62.9823 422.694 63.7783 422.097 65.0046 421.594C66.4555 421.02 67.9525 420.569 69.4795 420.248L72.4334 420.653C73.3311 420.78 73.7766 420.927 73.7783 421.096C73.7783 421.188 73.597 421.3 73.2244 421.435C72.8518 421.571 72.4097 421.733 71.9016 421.921C71.3974 422.109 70.9063 422.33 70.4314 422.583C70.0143 422.787 69.6476 423.081 69.3576 423.444L91.0393 423.656ZM69.2779 424.535C69.4558 424.958 69.8504 425.322 70.45 425.629C71.1622 425.974 71.9151 426.229 72.6909 426.386C73.6868 426.597 74.6957 426.742 75.7108 426.82C76.8332 426.912 78.007 426.956 79.2321 426.95C80.4805 426.952 81.7282 426.89 82.9703 426.765C83.9123 426.668 84.847 426.51 85.7683 426.291C86.4876 426.12 87.1909 425.888 87.8703 425.597C88.4278 425.353 88.9652 425.066 89.4777 424.738L69.2779 424.535ZM121.042 423.964C120.865 423.535 120.433 423.159 119.76 422.838C118.937 422.466 118.072 422.193 117.184 422.024C115.978 421.782 114.757 421.618 113.529 421.533C112.144 421.426 110.613 421.376 108.937 421.384C107.652 421.381 106.367 421.448 105.089 421.584C104.146 421.687 103.212 421.857 102.293 422.092C101.599 422.268 100.927 422.517 100.286 422.834C99.7533 423.104 99.2385 423.407 98.7442 423.742L121.042 423.964Z" fill="#FC9D8A"/>
<path d="M97.6246 415.099C66.595 415.099 34.2782 417.829 29.1173 423.115C29.3182 423.301 29.5066 423.499 29.6813 423.71C34.0377 420.039 60.716 416.344 97.6246 416.344C135.48 416.344 162.587 420.239 165.871 423.993C166.032 423.785 166.205 423.588 166.391 423.403C162.123 417.929 129.206 415.099 97.6246 415.099Z" fill="url(#paint18_linear_14_346)"/>
<path d="M38.1519 406.938V422.375C38.1519 427.363 69.3169 431.406 107.745 431.406C146.173 431.406 177.338 427.363 177.338 422.375V406.938H38.1519Z" fill="url(#paint19_linear_14_346)"/>
<path d="M107.745 415.969C146.18 415.969 177.338 411.926 177.338 406.938C177.338 401.95 146.18 397.907 107.745 397.907C69.3097 397.907 38.1519 401.95 38.1519 406.938C38.1519 411.926 69.3097 415.969 107.745 415.969Z" fill="url(#paint20_linear_14_346)"/>
<path d="M107.745 416.593C73.7004 416.593 38.1112 413.341 38.1112 407.07C38.1112 406.732 38.2349 406.12 38.5787 406.12C38.9225 406.12 38.7752 406.594 38.7752 406.938C38.7752 410.915 67.0998 415.346 107.745 415.346C148.39 415.346 176.715 410.915 176.715 406.938C176.715 406.599 176.774 406.271 177.118 406.271C177.462 406.271 177.38 406.732 177.38 407.075C177.38 413.346 141.784 416.593 107.745 416.593Z" fill="url(#paint21_linear_14_346)"/>
<path d="M101.17 407.441C101.847 406.969 102.579 406.503 103.356 406.042C104.301 405.512 105.304 405.093 106.346 404.796C107.848 404.369 109.382 404.066 110.934 403.889C113.215 403.63 115.51 403.507 117.806 403.518C120.495 403.505 123.02 403.59 125.38 403.774C127.471 403.922 129.551 404.197 131.608 404.599C133.397 404.965 134.854 405.417 135.981 405.954C137.108 406.492 137.775 407.109 137.98 407.807L145.817 407.887C146.321 407.884 146.824 407.93 147.319 408.026C147.756 408.114 147.968 408.227 147.968 408.364V409.01L137.895 408.913C137.542 409.703 136.639 410.426 135.185 411.081C133.732 411.736 131.895 412.304 129.674 412.785L126.005 412.277C125.729 412.239 125.458 412.174 125.194 412.086C124.982 412.008 124.881 411.925 124.881 411.833C124.881 411.708 125.163 411.567 125.727 411.408C126.291 411.249 126.935 411.051 127.648 410.817C128.365 410.58 129.067 410.303 129.752 409.985C130.429 409.665 130.892 409.284 131.13 408.84L107.352 408.603C106.678 409.094 105.978 409.546 105.253 409.958C104.277 410.481 103.241 410.883 102.167 411.157C100.597 411.565 98.9979 411.853 97.3841 412.021C94.987 412.268 92.5784 412.385 90.1687 412.373C87.9888 412.385 85.8683 412.302 83.79 412.128C81.9295 411.983 80.0801 411.719 78.2531 411.339C76.6407 410.986 75.3167 410.553 74.2813 410.038C73.2458 409.523 72.67 408.929 72.5537 408.256L66.1021 408.19C65.591 408.192 65.0808 408.147 64.5778 408.056C64.1323 407.97 63.9003 407.856 63.9003 407.717V407.072L72.7213 407.157C73.1109 406.479 73.907 405.885 75.1316 405.38C76.5831 404.806 78.0806 404.355 79.6082 404.033L82.5621 404.44C83.4597 404.565 83.9052 404.713 83.9052 404.882C83.9052 404.973 83.724 405.087 83.353 405.221C82.9821 405.355 82.5383 405.519 82.0285 405.705C81.525 405.894 81.0345 406.116 80.56 406.369C80.1422 406.572 79.7753 406.866 79.4862 407.229L101.17 407.441ZM79.4083 408.32C79.5861 408.744 79.9808 409.108 80.5804 409.414C81.2921 409.761 82.0451 410.015 82.8212 410.172C83.8171 410.384 84.826 410.529 85.8412 410.607C86.9647 410.698 88.1385 410.741 89.3625 410.736C90.6109 410.738 91.8586 410.677 93.1006 410.551C94.042 410.455 94.9762 410.297 95.897 410.078C96.6164 409.906 97.3201 409.674 98.0006 409.384C98.5576 409.139 99.095 408.852 99.608 408.525L79.4083 408.32ZM131.173 407.744C131.003 407.316 130.563 406.94 129.891 406.616C129.067 406.245 128.202 405.972 127.314 405.803C126.108 405.561 124.887 405.397 123.659 405.312C122.274 405.205 120.743 405.156 119.068 405.165C117.782 405.16 116.497 405.227 115.219 405.365C114.276 405.467 113.342 405.636 112.423 405.873C111.729 406.05 111.056 406.299 110.414 406.616C109.882 406.886 109.368 407.189 108.875 407.524L131.173 407.744Z" fill="#FC9D8A"/>
<path d="M107.755 398.884C76.7237 398.884 44.4086 401.615 39.2477 406.901C39.4481 407.087 39.6365 407.285 39.8117 407.495C44.168 403.825 70.8464 400.131 107.755 400.131C145.61 400.131 172.717 404.018 176 407.778C176.161 407.571 176.336 407.374 176.521 407.189C172.251 401.716 139.345 398.884 107.755 398.884Z" fill="url(#paint22_linear_14_346)"/>
<path d="M30.6757 389.445V404.882C30.6757 409.87 61.8407 413.913 100.269 413.913C138.697 413.913 169.862 409.87 169.862 404.882V389.445H30.6757Z" fill="url(#paint23_linear_14_346)"/>
<path d="M169.862 389.445C169.862 394.433 138.697 398.476 100.269 398.476C61.8407 398.476 30.6757 394.433 30.6757 389.445C30.6757 384.457 61.8407 380.414 100.269 380.414C138.697 380.414 169.862 384.457 169.862 389.445Z" fill="url(#paint24_linear_14_346)"/>
<path d="M100.269 399.099C66.2242 399.099 30.635 395.849 30.635 389.577C30.635 389.238 30.7587 388.627 31.1025 388.627C31.4463 388.627 31.299 389.101 31.299 389.445C31.299 393.422 59.6236 397.853 100.269 397.853C140.914 397.853 169.238 393.422 169.238 389.445C169.238 389.106 169.298 388.779 169.641 388.779C169.985 388.779 169.902 389.238 169.902 389.582C169.902 395.847 134.308 399.099 100.269 399.099Z" fill="url(#paint25_linear_14_346)"/>
<path d="M93.6918 389.948C94.3693 389.475 95.101 389.01 95.8801 388.551C96.8237 388.018 97.8272 387.6 98.8696 387.304C100.371 386.877 101.905 386.573 103.456 386.396C105.738 386.137 108.032 386.013 110.328 386.025C113.018 386.012 115.542 386.097 117.902 386.281C119.994 386.43 122.074 386.705 124.132 387.106C125.919 387.472 127.377 387.923 128.505 388.461C129.633 388.998 130.299 389.616 130.504 390.314L138.339 390.394C138.843 390.39 139.347 390.437 139.842 390.532C140.28 390.622 140.492 390.734 140.492 390.871V391.516L130.417 391.42C130.065 392.21 129.165 392.933 127.718 393.588C126.27 394.243 124.428 394.811 122.193 395.292L118.524 394.784C118.249 394.746 117.977 394.682 117.714 394.592C117.503 394.514 117.399 394.423 117.399 394.34C117.399 394.216 117.682 394.074 118.246 393.915C118.81 393.756 119.454 393.559 120.167 393.324C120.883 393.088 121.585 392.81 122.269 392.492C122.946 392.174 123.41 391.791 123.648 391.347L99.8808 391.105C99.2061 391.595 98.505 392.047 97.7805 392.46C96.8048 392.983 95.7691 393.385 94.6962 393.657C93.1252 394.065 91.5257 394.354 89.9114 394.521C87.5148 394.768 85.1068 394.886 82.6976 394.875C80.5178 394.885 78.3972 394.802 76.3173 394.628C74.4572 394.484 72.6084 394.22 70.7821 393.839C69.1696 393.489 67.8457 393.055 66.8102 392.538C65.7804 392.021 65.2012 391.428 65.0809 390.758L58.6311 390.692C58.1199 390.692 57.6097 390.647 57.1067 390.556C56.6612 390.471 56.4292 390.356 56.4292 390.217V389.572L65.2486 389.655C65.6398 388.978 66.4342 388.383 67.6605 387.878C69.1119 387.303 70.6094 386.853 72.1371 386.532L75.091 386.938C75.987 387.064 76.4324 387.211 76.4341 387.38C76.4341 387.472 76.2529 387.585 75.882 387.719C75.511 387.853 75.0673 388.017 74.5575 388.205C74.0537 388.393 73.5631 388.614 73.089 388.867C72.6704 389.07 72.3028 389.364 72.0134 389.728L93.6918 389.948ZM71.9338 390.829C72.1032 391.251 72.5063 391.615 73.1042 391.921C73.8163 392.269 74.5699 392.523 75.3467 392.678C76.3426 392.89 77.3515 393.036 78.3667 393.114C79.4891 393.205 80.6629 393.249 81.888 393.244C83.1364 393.245 84.384 393.184 85.6262 393.059C86.5676 392.963 87.5017 392.804 88.4225 392.585C89.1421 392.414 89.8459 392.181 90.5262 391.891C91.0828 391.646 91.6196 391.359 92.1319 391.032L71.9338 390.829ZM123.695 390.258C123.526 389.829 123.087 389.453 122.415 389.13C121.59 388.76 120.725 388.487 119.837 388.317C118.631 388.075 117.41 387.911 116.183 387.827C114.798 387.72 113.267 387.671 111.59 387.678C110.305 387.675 109.021 387.741 107.743 387.878C106.8 387.981 105.866 388.151 104.947 388.386C104.253 388.563 103.58 388.812 102.938 389.13C102.406 389.4 101.891 389.703 101.397 390.038L123.695 390.258Z" fill="#FC9D8A"/>
<path d="M100.279 381.391C69.2475 381.391 36.9323 384.123 31.7698 389.408C31.9712 389.593 32.1602 389.792 32.3355 390.002C36.6918 386.334 63.3702 382.638 100.279 382.638C138.134 382.638 165.239 386.525 168.524 390.285C168.685 390.078 168.859 389.882 169.044 389.696C164.775 384.223 131.859 381.391 100.279 381.391Z" fill="url(#paint26_linear_14_346)"/>
<path d="M11.3296 373.232V388.668C11.3296 393.656 42.4947 397.699 80.9226 397.699C119.351 397.699 150.524 393.656 150.524 388.668V373.232H11.3296Z" fill="url(#paint27_linear_14_346)"/>
<path d="M80.9226 382.263C119.358 382.263 150.516 378.22 150.516 373.232C150.516 368.245 119.358 364.201 80.9226 364.201C42.4874 364.201 11.3296 368.245 11.3296 373.232C11.3296 378.22 42.4874 382.263 80.9226 382.263Z" fill="url(#paint28_linear_14_346)"/>
<path d="M80.9226 382.885C46.8781 382.885 11.2889 379.635 11.2889 373.365C11.2889 373.026 11.4109 372.414 11.7564 372.414C12.1019 372.414 11.9529 372.887 11.9529 373.232C11.9529 377.209 40.2776 381.64 80.9226 381.64C121.568 381.64 149.892 377.209 149.892 373.232C149.892 372.894 149.95 372.565 150.295 372.565C150.641 372.565 150.556 373.024 150.556 373.37C150.556 379.64 114.955 382.885 80.9226 382.885Z" fill="url(#paint29_linear_14_346)"/>
<path d="M74.3457 373.735C75.0232 373.263 75.7549 372.797 76.5323 372.336C77.4761 371.804 78.4796 371.386 79.5218 371.09C81.0241 370.663 82.5586 370.359 84.1102 370.182C86.3914 369.923 88.6859 369.799 90.9817 369.811C93.6714 369.799 96.1962 369.884 98.5562 370.068C100.648 370.216 102.728 370.492 104.786 370.893C106.572 371.259 108.029 371.711 109.157 372.248C110.285 372.786 110.952 373.403 111.158 374.1L118.993 374.179C119.497 374.177 120 374.223 120.495 374.318C120.932 374.408 121.144 374.521 121.146 374.657V375.302L111.071 375.206C110.719 375.996 109.816 376.719 108.361 377.374C106.907 378.029 105.07 378.597 102.85 379.079L99.1812 378.571C98.9056 378.534 98.6344 378.47 98.3716 378.38C98.1599 378.303 98.0566 378.21 98.0566 378.127C98.0566 378.004 98.3394 377.861 98.9034 377.704C99.4674 377.546 100.113 377.346 100.826 377.111C101.542 376.875 102.244 376.598 102.928 376.279C103.605 375.961 104.069 375.58 104.307 375.134L80.5296 374.899C79.8553 375.39 79.1542 375.842 78.4293 376.254C77.4536 376.777 76.4179 377.179 75.345 377.451C73.7742 377.86 72.1746 378.15 70.5601 378.317C68.1636 378.563 65.7556 378.68 63.3464 378.669C61.1666 378.68 59.0443 378.598 56.9661 378.422C55.106 378.278 53.2571 378.014 51.4309 377.633C49.8184 377.283 48.4945 376.849 47.459 376.332C46.4292 375.815 45.8499 375.223 45.7297 374.552L39.2782 374.486C38.767 374.488 38.2568 374.443 37.7538 374.352C37.3083 374.266 37.0763 374.15 37.0763 374.013V373.368L45.8957 373.453C46.2869 372.775 47.0813 372.179 48.3076 371.676C49.762 371.098 51.263 370.645 52.7943 370.323L55.7483 370.727C56.6442 370.854 57.0897 371.002 57.0914 371.171C57.0914 371.263 56.9102 371.374 56.5392 371.51C56.1683 371.645 55.7245 371.808 55.2147 371.996C54.7106 372.184 54.2194 372.405 53.7445 372.658C53.3274 372.862 52.9607 373.156 52.6707 373.519L74.3457 373.735ZM52.5843 374.614C52.7622 375.038 53.1568 375.402 53.7564 375.709C54.469 376.054 55.2225 376.309 55.9989 376.466C56.9943 376.677 58.0026 376.822 59.0172 376.899C60.1464 376.992 61.3201 377.035 62.5385 377.03C63.7869 377.032 65.0345 376.97 66.2766 376.845C67.2187 376.748 68.1534 376.59 69.0747 376.371C69.7938 376.2 70.497 375.967 71.1767 375.676C71.7341 375.433 72.2715 375.147 72.784 374.819L52.5843 374.614ZM104.349 374.037C104.179 373.608 103.739 373.232 103.068 372.911C102.244 372.54 101.379 372.267 100.49 372.098C99.2846 371.855 98.0642 371.691 96.8371 371.606C95.4516 371.499 93.9204 371.449 92.2436 371.457C90.9582 371.454 89.6736 371.521 88.3954 371.657C87.4524 371.76 86.5179 371.93 85.599 372.165C84.9057 372.341 84.2329 372.59 83.5919 372.907C83.0596 373.177 82.5448 373.48 82.0506 373.815L104.349 374.037Z" fill="#FC9D8A"/>
<path d="M80.931 365.178C49.9014 365.178 17.5846 367.909 12.4237 373.195C12.6247 373.381 12.8136 373.58 12.9894 373.79C17.3441 370.119 44.0241 366.425 80.931 366.425C118.786 366.425 145.893 370.312 149.177 374.072C149.338 373.865 149.512 373.668 149.697 373.483C145.429 368.01 112.513 365.178 80.931 365.178Z" fill="url(#paint30_linear_14_346)"/>
<path d="M28.0232 357.061V372.497C28.0232 377.484 59.1883 381.529 97.6162 381.529C136.044 381.529 167.209 377.484 167.209 372.497V357.061H28.0232Z" fill="url(#paint31_linear_14_346)"/>
<path d="M97.6145 366.097C136.05 366.097 167.207 362.053 167.207 357.065C167.207 352.078 136.05 348.034 97.6145 348.034C59.1793 348.034 28.0215 352.078 28.0215 357.065C28.0215 362.053 59.1793 366.097 97.6145 366.097Z" fill="url(#paint32_linear_14_346)"/>
<path d="M97.6145 366.715C63.57 366.715 27.9825 363.463 27.9825 357.192C27.9825 356.854 28.1045 356.242 28.45 356.242C28.7955 356.242 28.6448 356.716 28.6448 357.06C28.6448 361.037 56.9712 365.468 97.6145 365.468C138.258 365.468 166.584 361.037 166.584 357.06C166.584 356.722 166.643 356.393 166.987 356.393C167.331 356.393 167.25 356.854 167.25 357.197C167.25 363.473 131.654 366.715 97.6145 366.715Z" fill="url(#paint33_linear_14_346)"/>
<path d="M91.0394 357.569C91.7169 357.096 92.4486 356.63 93.226 356.17C94.1705 355.639 95.1738 355.221 96.2155 354.923C97.7176 354.496 99.2522 354.193 100.804 354.017C103.085 353.758 105.38 353.634 107.675 353.646C110.365 353.632 112.89 353.718 115.25 353.902C117.341 354.049 119.421 354.325 121.478 354.727C123.266 355.092 124.724 355.544 125.851 356.082C126.978 356.619 127.644 357.237 127.85 357.934L135.687 358.014C136.191 358.011 136.694 358.057 137.189 358.153C137.626 358.241 137.838 358.355 137.84 358.492V359.137L127.765 359.039C127.411 359.829 126.51 360.552 125.064 361.209C123.617 361.865 121.776 362.433 119.54 362.912L115.872 362.404C115.596 362.366 115.325 362.302 115.062 362.213C114.85 362.135 114.747 362.044 114.747 361.961C114.747 361.835 115.03 361.695 115.594 361.535C116.158 361.376 116.801 361.18 117.514 360.944C118.231 360.708 118.934 360.43 119.618 360.113C120.296 359.793 120.758 359.411 120.997 358.968L97.2199 358.732C96.5452 359.222 95.8441 359.675 95.1196 360.087C94.1437 360.61 93.108 361.013 92.0353 361.286C90.4642 361.694 88.8648 361.982 87.2504 362.15C84.8533 362.397 82.4448 362.515 80.035 362.504C77.8569 362.514 75.7346 362.431 73.6564 362.257C71.7964 362.112 69.9476 361.848 68.1212 361.468C66.5076 361.117 65.1836 360.683 64.1493 360.167C63.115 359.651 62.5386 359.057 62.42 358.385L55.9685 358.319C55.4573 358.321 54.9471 358.276 54.4441 358.185C54.0003 358.099 53.7666 357.985 53.7666 357.846V357.201L62.586 357.286C62.9755 356.608 63.7716 356.014 64.9979 355.509C66.4485 354.932 67.9455 354.478 69.4728 354.154L72.4267 354.561C73.3244 354.686 73.7698 354.833 73.7715 355.003C73.7715 355.094 73.5903 355.208 73.2177 355.341C72.8451 355.475 72.403 355.639 71.8949 355.827C71.3904 356.015 70.8992 356.236 70.4247 356.49C70.0069 356.693 69.6399 356.987 69.3508 357.35L91.0394 357.569ZM69.278 358.448C69.4559 358.871 69.8505 359.235 70.4501 359.542C71.1619 359.888 71.9149 360.143 72.6909 360.299C73.6868 360.511 74.6957 360.656 75.7109 360.734C76.8333 360.826 78.0071 360.869 79.2322 360.863C80.4806 360.866 81.7283 360.804 82.9703 360.678C83.9123 360.582 84.847 360.424 85.7684 360.206C86.4874 360.034 87.1906 359.802 87.8704 359.511C88.4275 359.267 88.9649 358.98 89.4777 358.653L69.278 358.448ZM121.043 357.872C120.865 357.443 120.433 357.067 119.76 356.744C118.937 356.372 118.072 356.1 117.184 355.931C115.978 355.689 114.757 355.525 113.529 355.44C112.144 355.333 110.613 355.284 108.937 355.292C107.652 355.288 106.367 355.355 105.089 355.492C104.146 355.595 103.212 355.765 102.293 356C101.6 356.177 100.927 356.427 100.286 356.744C99.7534 357.013 99.2386 357.316 98.7443 357.65L121.043 357.872Z" fill="#FC9D8A"/>
<path d="M97.6246 349.012C66.595 349.012 34.2782 351.742 29.1173 357.028C29.3178 357.214 29.5061 357.413 29.6813 357.623C34.0377 353.952 60.716 350.258 97.6246 350.258C135.48 350.258 162.587 354.145 165.871 357.906C166.032 357.699 166.206 357.502 166.391 357.316C162.123 351.844 129.206 349.012 97.6246 349.012Z" fill="url(#paint34_linear_14_346)"/>
<path d="M19.3394 340.853V356.288C19.3394 361.276 50.5044 365.319 88.9324 365.319C127.36 365.319 158.525 361.276 158.525 356.288V340.853H19.3394Z" fill="url(#paint35_linear_14_346)"/>
<path d="M88.9324 349.884C127.368 349.884 158.525 345.841 158.525 340.853C158.525 335.865 127.368 331.822 88.9324 331.822C50.4972 331.822 19.3394 335.865 19.3394 340.853C19.3394 345.841 50.4972 349.884 88.9324 349.884Z" fill="url(#paint36_linear_14_346)"/>
<path d="M88.9324 350.505C54.8879 350.505 19.2987 347.255 19.2987 340.983C19.2987 340.644 19.4223 340.035 19.7662 340.035C20.11 340.035 19.9627 340.507 19.9627 340.853C19.9627 344.83 48.2873 349.261 88.9324 349.261C129.577 349.261 157.902 344.83 157.902 340.853C157.902 340.514 157.961 340.185 158.305 340.185C158.649 340.185 158.566 340.644 158.566 340.988C158.566 347.26 122.972 350.505 88.9324 350.505Z" fill="url(#paint37_linear_14_346)"/>
<path d="M88.9425 332.799C57.9112 332.799 25.596 335.529 20.4335 340.814C20.6349 341 20.8239 341.199 20.9992 341.41C25.3555 337.74 52.0339 334.044 88.9425 334.044C126.798 334.044 153.905 337.94 157.187 341.693C157.348 341.486 157.521 341.289 157.707 341.104C153.439 335.629 120.524 332.799 88.9425 332.799Z" fill="url(#paint38_linear_14_346)"/>
<path d="M178.322 351.734L165.742 360.682C161.677 363.573 176.444 391.307 198.722 422.626C221 453.945 242.354 476.995 246.419 474.101L258.997 465.154L178.322 351.734Z" fill="url(#paint39_linear_14_346)"/>
<path d="M258.997 465.154C254.932 468.045 233.577 444.999 211.299 413.679C189.021 382.36 174.257 354.625 178.322 351.734C182.387 348.842 203.74 371.889 226.018 403.209C248.296 434.528 263.062 462.263 258.997 465.154Z" fill="url(#paint40_linear_14_346)"/>
<path d="M210.793 414.04C191.062 386.301 173.08 355.412 178.19 351.778C178.471 351.578 179.037 351.327 179.235 351.608C179.433 351.889 178.962 352.042 178.683 352.242C175.441 354.547 188.249 380.189 211.807 413.317C235.366 446.445 255.395 466.951 258.636 464.646C258.916 464.446 259.214 464.307 259.414 464.589C259.614 464.87 259.19 465.068 258.906 465.266C253.799 468.901 230.522 441.777 210.793 414.04Z" fill="url(#paint41_linear_14_346)"/>
<path d="M225.227 403.784C207.241 378.498 186.289 353.752 178.988 352.604C178.953 352.875 178.901 353.144 178.83 353.409C184.347 354.831 202.82 374.43 224.223 404.506C246.164 435.354 258.708 459.695 257.547 464.551C257.81 464.562 258.071 464.589 258.33 464.632C260.305 457.983 243.533 429.519 225.227 403.784Z" fill="url(#paint42_linear_14_346)"/>
<path d="M351.573 364.813V440.84H318.18C316.756 440.839 315.391 440.273 314.384 439.265C313.378 438.258 312.812 436.892 312.813 435.468V370.179C312.813 369.474 312.952 368.776 313.221 368.125C313.491 367.474 313.887 366.882 314.385 366.384C314.884 365.885 315.475 365.49 316.126 365.221C316.778 364.951 317.476 364.813 318.18 364.813H351.573Z" fill="#1D253D"/>
<path d="M481.606 400.81C478.172 433.135 459.814 440.84 459.814 440.84H351.573V364.813C381.945 358.973 396.408 321.569 393.278 302.811C393.834 298.592 393.84 294.681 393.3 291.346C395.446 284.927 401.769 286.216 401.769 286.216C422.651 289.488 423.842 332.813 423.679 346.937C423.664 348.117 424.101 349.259 424.901 350.127C425.7 350.995 426.802 351.525 427.98 351.606C435.959 352.147 453.362 353.724 468.611 357.714C478.618 360.334 482.771 362.955 484.001 368.685C485.315 374.725 483.369 384.221 481.606 400.81Z" fill="#FEA30A"/>
<path d="M351.573 364.813V429.264H318.18C316.757 429.263 315.393 428.698 314.386 427.691C313.38 426.685 312.814 425.321 312.813 423.898V370.179C312.813 369.474 312.952 368.776 313.221 368.125C313.491 367.474 313.887 366.882 314.385 366.384C314.884 365.885 315.475 365.49 316.126 365.221C316.778 364.951 317.476 364.813 318.18 364.813H351.573Z" fill="#010648"/>
<path d="M484.013 368.685C483.479 373.969 482.517 380.653 481.606 389.233C478.172 421.559 459.814 429.263 459.814 429.263H351.573V364.813C366.712 361.901 378.503 350.705 385.639 337.481C390.79 327.938 392.401 317.174 393.092 306.485C393.49 300.24 391.059 284.031 401.782 286.214C422.665 289.486 423.855 332.811 423.693 346.935C423.677 348.115 424.114 349.257 424.914 350.125C425.714 350.994 426.816 351.523 427.993 351.605C435.973 352.145 453.376 353.722 468.625 357.712C478.63 360.334 482.783 362.955 484.013 368.685Z" fill="#FEB12F"/>
</g>
<defs>
<linearGradient id="paint0_linear_14_346" x1="501.014" y1="248.754" x2="64.7473" y2="526.231" gradientUnits="userSpaceOnUse">
<stop stop-color="#30ABBA"/>
<stop offset="1" stop-color="#6165D7"/>
</linearGradient>
<linearGradient id="paint1_linear_14_346" x1="432.268" y1="75.05" x2="374.01" y2="389.32" gradientUnits="userSpaceOnUse">
<stop stop-color="#FC9D8A"/>
<stop offset="1" stop-color="#FB6FBB"/>
</linearGradient>
<linearGradient id="paint2_linear_14_346" x1="123.979" y1="508.465" x2="409.211" y2="-36.7986" gradientUnits="userSpaceOnUse">
<stop stop-color="#444B8C"/>
<stop offset="1" stop-color="#26264F"/>
</linearGradient>
<linearGradient id="paint3_linear_14_346" x1="-50.6484" y1="865.016" x2="234.585" y2="319.75" gradientUnits="userSpaceOnUse">
<stop stop-color="#AA80F9"/>
<stop offset="1" stop-color="#6165D7"/>
</linearGradient>
<linearGradient id="paint4_linear_14_346" x1="369.298" y1="143.071" x2="145.5" y2="429" gradientUnits="userSpaceOnUse">
<stop stop-color="#30ABBA"/>
<stop offset="1" stop-color="#6165D7"/>
</linearGradient>
<linearGradient id="paint5_linear_14_346" x1="79.9317" y1="258.662" x2="379.955" y2="258.662" gradientUnits="userSpaceOnUse">
<stop stop-color="#AA80F9"/>
<stop offset="1" stop-color="#6165D7"/>
</linearGradient>
<linearGradient id="paint6_linear_14_346" x1="270.904" y1="147.465" x2="342.111" y2="49.8759" gradientUnits="userSpaceOnUse">
<stop stop-color="#FCB148"/>
<stop offset="0.05" stop-color="#FDBA46"/>
<stop offset="0.14" stop-color="#FFC244"/>
<stop offset="0.32" stop-color="#FFC444"/>
<stop offset="0.48" stop-color="#FDB946"/>
<stop offset="0.78" stop-color="#F99C4D"/>
<stop offset="0.87" stop-color="#F8924F"/>
<stop offset="1" stop-color="#F8924F"/>
</linearGradient>
<linearGradient id="paint7_linear_14_346" x1="18.777" y1="467.766" x2="178.901" y2="467.766" gradientUnits="userSpaceOnUse">
<stop stop-color="#FCB148"/>
<stop offset="0.05" stop-color="#FDBA46"/>
<stop offset="0.14" stop-color="#FFC244"/>
<stop offset="0.32" stop-color="#FFC444"/>
<stop offset="0.48" stop-color="#FDB946"/>
<stop offset="0.78" stop-color="#F99C4D"/>
<stop offset="0.87" stop-color="#F8924F"/>
<stop offset="1" stop-color="#F8924F"/>
</linearGradient>
<linearGradient id="paint8_linear_14_346" x1="99.5759" y1="449.728" x2="108.018" y2="520.396" gradientUnits="userSpaceOnUse">
<stop stop-color="#FFDB44"/>
<stop offset="1" stop-color="#FEEF06"/>
</linearGradient>
<linearGradient id="paint9_linear_14_346" x1="99.2084" y1="446.577" x2="101.802" y2="468.279" gradientUnits="userSpaceOnUse">
<stop stop-color="#FFDB44"/>
<stop offset="1" stop-color="#FEEF06"/>
</linearGradient>
<linearGradient id="paint10_linear_14_346" x1="101.646" y1="466.004" x2="99.061" y2="444.378" gradientUnits="userSpaceOnUse">
<stop stop-color="#F36F56"/>
<stop offset="0.31" stop-color="#F99C4C"/>
<stop offset="0.55" stop-color="#FDB946"/>
<stop offset="0.68" stop-color="#FFC444"/>
<stop offset="0.8" stop-color="#FFC244"/>
<stop offset="0.87" stop-color="#FEBA46"/>
<stop offset="0.92" stop-color="#FCAD49"/>
<stop offset="0.96" stop-color="#F99A4D"/>
<stop offset="1" stop-color="#F57E53"/>
</linearGradient>
<linearGradient id="paint11_linear_14_346" x1="-0.569039" y1="451.552" x2="159.555" y2="451.552" gradientUnits="userSpaceOnUse">
<stop stop-color="#FCB148"/>
<stop offset="0.05" stop-color="#FDBA46"/>
<stop offset="0.14" stop-color="#FFC244"/>
<stop offset="0.32" stop-color="#FFC444"/>
<stop offset="0.48" stop-color="#FDB946"/>
<stop offset="0.78" stop-color="#F99C4D"/>
<stop offset="0.87" stop-color="#F8924F"/>
<stop offset="1" stop-color="#F8924F"/>
</linearGradient>
<linearGradient id="paint12_linear_14_346" x1="80.2281" y1="433.515" x2="88.6698" y2="504.183" gradientUnits="userSpaceOnUse">
<stop stop-color="#FFDB44"/>
<stop offset="1" stop-color="#FEEF06"/>
</linearGradient>
<linearGradient id="paint13_linear_14_346" x1="79.8623" y1="430.363" x2="82.4537" y2="452.066" gradientUnits="userSpaceOnUse">
<stop stop-color="#FFDB44"/>
<stop offset="1" stop-color="#FEEF06"/>
</linearGradient>
<linearGradient id="paint14_linear_14_346" x1="82.2979" y1="449.79" x2="79.7149" y2="428.164" gradientUnits="userSpaceOnUse">
<stop stop-color="#FC9D8A"/>
<stop offset="0.31" stop-color="#F36F56"/>
<stop offset="0.55" stop-color="#FDB946"/>
<stop offset="0.68" stop-color="#FFC444"/>
<stop offset="0.8" stop-color="#FFC244"/>
<stop offset="0.87" stop-color="#FEBA46"/>
<stop offset="0.92" stop-color="#FCAD49"/>
<stop offset="0.96" stop-color="#F99A4D"/>
<stop offset="1" stop-color="#F57E53"/>
</linearGradient>
<linearGradient id="paint15_linear_14_346" x1="16.1246" y1="435.385" x2="176.249" y2="435.385" gradientUnits="userSpaceOnUse">
<stop stop-color="#FCB148"/>
<stop offset="0.05" stop-color="#FDBA46"/>
<stop offset="0.14" stop-color="#FFC244"/>
<stop offset="0.32" stop-color="#FFC444"/>
<stop offset="0.48" stop-color="#FDB946"/>
<stop offset="0.78" stop-color="#F99C4D"/>
<stop offset="0.87" stop-color="#F8924F"/>
<stop offset="1" stop-color="#F8924F"/>
</linearGradient>
<linearGradient id="paint16_linear_14_346" x1="96.9218" y1="417.348" x2="105.363" y2="488.017" gradientUnits="userSpaceOnUse">
<stop stop-color="#FFDB44"/>
<stop offset="1" stop-color="#FEEF06"/>
</linearGradient>
<linearGradient id="paint17_linear_14_346" x1="96.5559" y1="414.196" x2="99.1474" y2="435.9" gradientUnits="userSpaceOnUse">
<stop stop-color="#FFDB44"/>
<stop offset="1" stop-color="#FEEF06"/>
</linearGradient>
<linearGradient id="paint18_linear_14_346" x1="98.9915" y1="433.625" x2="96.4085" y2="411.997" gradientUnits="userSpaceOnUse">
<stop stop-color="#F36F56"/>
<stop offset="0.31" stop-color="#F99C4C"/>
<stop offset="0.55" stop-color="#FDB946"/>
<stop offset="0.68" stop-color="#FFC444"/>
<stop offset="0.8" stop-color="#FFC244"/>
<stop offset="0.87" stop-color="#FEBA46"/>
<stop offset="0.92" stop-color="#FCAD49"/>
<stop offset="0.96" stop-color="#F99A4D"/>
<stop offset="1" stop-color="#F57E53"/>
</linearGradient>
<linearGradient id="paint19_linear_14_346" x1="26.2532" y1="419.172" x2="186.379" y2="419.172" gradientUnits="userSpaceOnUse">
<stop stop-color="#FCB148"/>
<stop offset="0.05" stop-color="#FDBA46"/>
<stop offset="0.14" stop-color="#FFC244"/>
<stop offset="0.32" stop-color="#FFC444"/>
<stop offset="0.48" stop-color="#FDB946"/>
<stop offset="0.78" stop-color="#F99C4D"/>
<stop offset="0.87" stop-color="#F8924F"/>
<stop offset="1" stop-color="#F8924F"/>
</linearGradient>
<linearGradient id="paint20_linear_14_346" x1="107.052" y1="401.135" x2="115.494" y2="471.804" gradientUnits="userSpaceOnUse">
<stop stop-color="#FFDB44"/>
<stop offset="1" stop-color="#FEEF06"/>
</linearGradient>
<linearGradient id="paint21_linear_14_346" x1="106.685" y1="397.983" x2="109.278" y2="419.687" gradientUnits="userSpaceOnUse">
<stop stop-color="#FFDB44"/>
<stop offset="1" stop-color="#FEEF06"/>
</linearGradient>
<linearGradient id="paint22_linear_14_346" x1="109.122" y1="417.411" x2="106.539" y2="395.785" gradientUnits="userSpaceOnUse">
<stop stop-color="#FC9D8A"/>
<stop offset="0.31" stop-color="#F36F56"/>
<stop offset="0.55" stop-color="#FDB946"/>
<stop offset="0.68" stop-color="#FFC444"/>
<stop offset="0.8" stop-color="#FFC244"/>
<stop offset="0.87" stop-color="#FEBA46"/>
<stop offset="0.92" stop-color="#FCAD49"/>
<stop offset="0.96" stop-color="#F99A4D"/>
<stop offset="1" stop-color="#F57E53"/>
</linearGradient>
<linearGradient id="paint23_linear_14_346" x1="18.777" y1="401.679" x2="178.901" y2="401.679" gradientUnits="userSpaceOnUse">
<stop stop-color="#FCB148"/>
<stop offset="0.05" stop-color="#FDBA46"/>
<stop offset="0.14" stop-color="#FFC244"/>
<stop offset="0.32" stop-color="#FFC444"/>
<stop offset="0.48" stop-color="#FDB946"/>
<stop offset="0.78" stop-color="#F99C4D"/>
<stop offset="0.87" stop-color="#F8924F"/>
<stop offset="1" stop-color="#F8924F"/>
</linearGradient>
<linearGradient id="paint24_linear_14_346" x1="99.5759" y1="383.642" x2="108.018" y2="454.311" gradientUnits="userSpaceOnUse">
<stop stop-color="#FFDB44"/>
<stop offset="1" stop-color="#FEEF06"/>
</linearGradient>
<linearGradient id="paint25_linear_14_346" x1="99.2084" y1="380.49" x2="101.802" y2="402.194" gradientUnits="userSpaceOnUse">
<stop stop-color="#FFDB44"/>
<stop offset="1" stop-color="#FEEF06"/>
</linearGradient>
<linearGradient id="paint26_linear_14_346" x1="101.646" y1="399.917" x2="99.061" y2="378.292" gradientUnits="userSpaceOnUse">
<stop stop-color="#F36F56"/>
<stop offset="0.31" stop-color="#F99C4C"/>
<stop offset="0.55" stop-color="#FDB946"/>
<stop offset="0.68" stop-color="#FFC444"/>
<stop offset="0.8" stop-color="#FFC244"/>
<stop offset="0.87" stop-color="#FEBA46"/>
<stop offset="0.92" stop-color="#FCAD49"/>
<stop offset="0.96" stop-color="#F99A4D"/>
<stop offset="1" stop-color="#F57E53"/>
</linearGradient>
<linearGradient id="paint27_linear_14_346" x1="-0.569039" y1="385.465" x2="159.555" y2="385.465" gradientUnits="userSpaceOnUse">
<stop stop-color="#FCB148"/>
<stop offset="0.05" stop-color="#FDBA46"/>
<stop offset="0.14" stop-color="#FFC244"/>
<stop offset="0.32" stop-color="#FFC444"/>
<stop offset="0.48" stop-color="#FDB946"/>
<stop offset="0.78" stop-color="#F99C4D"/>
<stop offset="0.87" stop-color="#F8924F"/>
<stop offset="1" stop-color="#F8924F"/>
</linearGradient>
<linearGradient id="paint28_linear_14_346" x1="80.2282" y1="367.428" x2="88.6698" y2="438.096" gradientUnits="userSpaceOnUse">
<stop stop-color="#FFDB44"/>
<stop offset="1" stop-color="#FEEF06"/>
</linearGradient>
<linearGradient id="paint29_linear_14_346" x1="79.8623" y1="364.276" x2="82.4538" y2="385.98" gradientUnits="userSpaceOnUse">
<stop stop-color="#FFDB44"/>
<stop offset="1" stop-color="#FEEF06"/>
</linearGradient>
<linearGradient id="paint30_linear_14_346" x1="82.2979" y1="383.705" x2="79.7149" y2="362.077" gradientUnits="userSpaceOnUse">
<stop stop-color="#F36F56"/>
<stop offset="0.31" stop-color="#F99C4C"/>
<stop offset="0.55" stop-color="#FDB946"/>
<stop offset="0.68" stop-color="#FFC444"/>
<stop offset="0.8" stop-color="#FFC244"/>
<stop offset="0.87" stop-color="#FEBA46"/>
<stop offset="0.92" stop-color="#FCAD49"/>
<stop offset="0.96" stop-color="#F99A4D"/>
<stop offset="1" stop-color="#F57E53"/>
</linearGradient>
<linearGradient id="paint31_linear_14_346" x1="16.1246" y1="369.3" x2="176.249" y2="369.3" gradientUnits="userSpaceOnUse">
<stop stop-color="#FCB148"/>
<stop offset="0.05" stop-color="#FDBA46"/>
<stop offset="0.14" stop-color="#FFC244"/>
<stop offset="0.32" stop-color="#FFC444"/>
<stop offset="0.48" stop-color="#FDB946"/>
<stop offset="0.78" stop-color="#F99C4D"/>
<stop offset="0.87" stop-color="#F8924F"/>
<stop offset="1" stop-color="#F8924F"/>
</linearGradient>
<linearGradient id="paint32_linear_14_346" x1="96.9217" y1="351.263" x2="105.363" y2="421.931" gradientUnits="userSpaceOnUse">
<stop stop-color="#FFDB44"/>
<stop offset="1" stop-color="#FEEF06"/>
</linearGradient>
<linearGradient id="paint33_linear_14_346" x1="96.5559" y1="348.11" x2="99.1474" y2="369.814" gradientUnits="userSpaceOnUse">
<stop stop-color="#FFDB44"/>
<stop offset="1" stop-color="#FEEF06"/>
</linearGradient>
<linearGradient id="paint34_linear_14_346" x1="98.9915" y1="367.538" x2="96.4085" y2="345.912" gradientUnits="userSpaceOnUse">
<stop stop-color="#FC9D8A"/>
<stop offset="0.31" stop-color="#F36F56"/>
<stop offset="0.55" stop-color="#FDB946"/>
<stop offset="0.68" stop-color="#FFC444"/>
<stop offset="0.8" stop-color="#FFC244"/>
<stop offset="0.87" stop-color="#FEBA46"/>
<stop offset="0.92" stop-color="#FCAD49"/>
<stop offset="0.96" stop-color="#F99A4D"/>
<stop offset="1" stop-color="#F57E53"/>
</linearGradient>
<linearGradient id="paint35_linear_14_346" x1="7.44073" y1="353.085" x2="167.567" y2="353.085" gradientUnits="userSpaceOnUse">
<stop stop-color="#FCB148"/>
<stop offset="0.05" stop-color="#FDBA46"/>
<stop offset="0.14" stop-color="#FFC244"/>
<stop offset="0.32" stop-color="#FFC444"/>
<stop offset="0.48" stop-color="#FDB946"/>
<stop offset="0.78" stop-color="#F99C4D"/>
<stop offset="0.87" stop-color="#F8924F"/>
<stop offset="1" stop-color="#F8924F"/>
</linearGradient>
<linearGradient id="paint36_linear_14_346" x1="88.2396" y1="335.048" x2="96.6813" y2="405.717" gradientUnits="userSpaceOnUse">
<stop stop-color="#FFDB44"/>
<stop offset="1" stop-color="#FEEF06"/>
</linearGradient>
<linearGradient id="paint37_linear_14_346" x1="87.8721" y1="331.896" x2="90.4652" y2="353.6" gradientUnits="userSpaceOnUse">
<stop stop-color="#FFDB44"/>
<stop offset="1" stop-color="#FEEF06"/>
</linearGradient>
<linearGradient id="paint38_linear_14_346" x1="90.3093" y1="351.324" x2="87.7264" y2="329.698" gradientUnits="userSpaceOnUse">
<stop stop-color="#F36F56"/>
<stop offset="0.31" stop-color="#F99C4C"/>
<stop offset="0.55" stop-color="#FDB946"/>
<stop offset="0.68" stop-color="#FFC444"/>
<stop offset="0.8" stop-color="#FFC244"/>
<stop offset="0.87" stop-color="#FEBA46"/>
<stop offset="0.92" stop-color="#FCAD49"/>
<stop offset="0.96" stop-color="#F99A4D"/>
<stop offset="1" stop-color="#F57E53"/>
</linearGradient>
<linearGradient id="paint39_linear_14_346" x1="163.092" y1="348.119" x2="255.964" y2="477.819" gradientUnits="userSpaceOnUse">
<stop stop-color="#FCB148"/>
<stop offset="0.05" stop-color="#FDBA46"/>
<stop offset="0.14" stop-color="#FFC244"/>
<stop offset="0.32" stop-color="#FFC444"/>
<stop offset="0.48" stop-color="#FDB946"/>
<stop offset="0.78" stop-color="#F99C4D"/>
<stop offset="0.87" stop-color="#F8924F"/>
<stop offset="1" stop-color="#F8924F"/>
</linearGradient>
<linearGradient id="paint40_linear_14_346" x1="224.563" y1="403.104" x2="172.224" y2="450.925" gradientUnits="userSpaceOnUse">
<stop stop-color="#FFDB44"/>
<stop offset="1" stop-color="#FEEF06"/>
</linearGradient>
<linearGradient id="paint41_linear_14_346" x1="226.903" y1="400.981" x2="210.828" y2="415.666" gradientUnits="userSpaceOnUse">
<stop stop-color="#FFDB44"/>
<stop offset="1" stop-color="#FEEF06"/>
</linearGradient>
<linearGradient id="paint42_linear_14_346" x1="209.802" y1="414.756" x2="225.819" y2="400.123" gradientUnits="userSpaceOnUse">
<stop stop-color="#F36F56"/>
<stop offset="0.31" stop-color="#F99C4C"/>
<stop offset="0.55" stop-color="#FDB946"/>
<stop offset="0.68" stop-color="#FFC444"/>
<stop offset="0.8" stop-color="#FFC244"/>
<stop offset="0.87" stop-color="#FEBA46"/>
<stop offset="0.92" stop-color="#FCAD49"/>
<stop offset="0.96" stop-color="#F99A4D"/>
<stop offset="1" stop-color="#F57E53"/>
</linearGradient>
<clipPath id="clip0_14_346">
<rect width="488.028" height="480" fill="white"/>
</clipPath>
</defs>
</svg>
