<svg width="493" height="480" viewBox="0 0 493 480" fill="none" xmlns="http://www.w3.org/2000/svg">
<g clip-path="url(#clip0_14_511)">
<path d="M423.045 408.154C410.633 420.949 399.526 428.471 391.023 434.147C308.091 489.522 213.293 473.562 183.983 468.108C136.695 459.305 96.7788 453.096 62.4818 422.112C-15.4474 351.699 -11.6494 204.823 47.8913 113.84C54.9511 103.053 114.409 14.917 209.414 2.49707C211.737 2.19289 213.471 2.02104 214.991 1.85949C229.688 0.304211 320.762 -7.90528 395.024 54.3061C405.655 63.2116 422.761 79.2765 438.625 103.776C496.631 193.364 496.815 332.111 423.045 408.154Z" fill="url(#paint0_linear_14_511)"/>
<path d="M1.0524 20.7377C0.0522059 17.8162 4.06501 15.4102 6.85077 17.2405C35.138 35.8661 104.352 93.1813 99.7244 205.828C93.914 347.162 132.593 394.678 177.53 421.539C177.53 421.539 118.603 412.664 77.3094 364.655C-24.0744 246.783 18.8428 72.7083 1.0524 20.7377Z" fill="#91B3FA"/>
<path d="M131.98 354.445C130.167 359.068 124.221 360.336 120.637 356.902C100.843 337.955 49.725 279.325 57.3949 185.048C63.8686 105.434 59.8129 61.6563 56.594 41.9016C55.9066 37.7238 60.9591 35.1064 63.9838 38.0623C97.382 70.6717 197.699 186.936 131.98 354.445Z" fill="#7D97F4"/>
<path d="M125.259 354.306C125.15 354.374 125.035 354.431 124.915 354.478C124.435 354.662 123.901 354.647 123.432 354.438C122.962 354.229 122.595 353.842 122.411 353.362C121.976 352.23 78.9506 238.773 82.9497 127.671C82.9681 127.157 83.19 126.671 83.5664 126.321C83.9428 125.971 84.443 125.784 84.9569 125.803C85.4708 125.821 85.9563 126.043 86.3067 126.42C86.657 126.796 86.8434 127.296 86.825 127.81C82.8706 238.101 125.606 350.843 126.037 351.968C126.198 352.388 126.209 352.85 126.067 353.277C125.925 353.703 125.639 354.067 125.259 354.306Z" fill="#91B3FA"/>
<path d="M109.231 1.89038C96.7135 2.97994 87.1171 13.4631 87.081 26.0273C86.8628 102.867 86.5036 367.901 91.5114 461.709C91.7655 466.496 93.8332 471.006 97.2941 474.322C100.755 477.639 105.349 479.512 110.142 479.562C159.363 480.091 300.947 481.065 381.329 475.924C398.071 474.853 411.099 460.988 411.078 444.211C410.98 363.567 409.691 136.764 398.645 33.0992C398.004 27.0807 395.276 21.4766 390.935 17.2596C386.593 13.0426 380.912 10.4791 374.877 10.0139C321.195 5.83101 178.638 -4.14515 109.231 1.89038Z" fill="url(#paint1_linear_14_511)"/>
<path d="M106.839 46.1652C105.873 111.893 103.12 330.543 107.925 411.244C108.626 423.039 117.79 432.352 129.103 432.747C175.684 434.369 295.133 437.511 363.198 430.021C375.453 428.672 384.821 418.05 385.147 405.187C386.85 338.11 391.449 134.462 386.78 54.6652C386.034 41.9342 376.309 31.7776 364.117 30.9492C313.682 27.55 184.167 19.7134 126.288 24.5322C115.423 25.4447 107.006 34.785 106.839 46.1652Z" fill="#E8F8FA"/>
<path d="M219.385 13.3186C219.403 14.1925 219.755 15.0262 220.37 15.6476C220.985 16.269 221.814 16.6306 222.688 16.6578C231.65 16.9293 256.901 17.7027 268.185 18.1082C268.703 18.1269 269.22 18.0269 269.694 17.8159C270.168 17.6049 270.588 17.2885 270.921 16.8907C271.254 16.4929 271.492 16.0242 271.617 15.5205C271.742 15.0167 271.75 14.4911 271.641 13.9837C271.603 13.915 271.314 11.1241 268.463 10.9264C260.829 10.3954 237.797 8.96385 222.578 9.84202C219.454 10.0156 219.284 13.5764 219.385 13.3186Z" fill="url(#paint2_linear_14_511)"/>
<path d="M166.182 244.659C166.182 244.659 230.385 228.553 298.222 238.266C317.308 240.998 334.213 252.104 344.512 268.402C363.073 297.771 389.308 350.105 383.759 404.683L354.631 411.885C354.631 411.885 334.5 347.112 311.839 320.749C311.839 320.749 285.008 381.912 286.364 415.498C286.401 416.448 286.463 417.374 286.547 418.278C289.627 451.139 157.742 424.41 157.742 424.41L166.182 244.659Z" fill="url(#paint3_linear_14_511)"/>
<path d="M235.593 189.829L221.923 233.368C220.652 237.419 221.923 241.756 225.092 244.195C232.408 249.83 246.87 258.803 264.538 258.543C267.771 258.497 270.489 255.737 270.715 252.356L275.571 179.588L235.593 189.829Z" fill="url(#paint4_linear_14_511)"/>
<path d="M288.517 142.112C288.517 142.112 293.827 176.4 290.485 192.786C287.142 209.173 287.867 220.565 268.339 218.908C248.812 217.252 235.526 203.818 231.229 185.493C231.229 185.493 224.389 157.195 230.052 147.831C235.715 138.467 288.517 142.112 288.517 142.112Z" fill="url(#paint5_linear_14_511)"/>
<path d="M240.65 175.606L243.01 176.226C243.01 176.226 238.526 153.714 247.994 152.461C257.461 151.208 293.128 153.193 303.589 143.1C313.673 133.369 311.322 116.761 303.028 110.104C302.768 109.907 302.443 109.815 302.117 109.847C301.792 109.878 301.491 110.032 301.274 110.276L300.109 111.544C299.931 111.737 299.701 111.872 299.446 111.933C299.191 111.994 298.924 111.977 298.679 111.884C298.435 111.792 298.223 111.628 298.072 111.414C297.921 111.201 297.837 110.946 297.831 110.685C297.804 109.566 296.457 108.966 295.649 109.739C292.47 112.743 284.88 116.995 267.855 115.725C243.697 113.924 226.017 119.246 221.454 135.071C221.389 135.296 221.266 135.499 221.096 135.66C220.926 135.821 220.717 135.933 220.489 135.986C220.261 136.039 220.023 136.029 219.8 135.959C219.577 135.889 219.377 135.76 219.22 135.586C217.792 134.103 215.197 132.902 210.756 135.004C203.023 138.663 201.992 153.141 212.88 168.136C213.396 168.849 213.123 169.876 212.286 170.153C209.342 171.129 204.571 174.039 212.92 181.783C221.458 189.703 227.49 190.667 229.858 190.683C230.165 190.687 230.464 190.584 230.702 190.39C230.941 190.197 231.103 189.926 231.162 189.624L233.998 175.285C234.033 175.109 234.103 174.942 234.204 174.795C234.306 174.647 234.437 174.522 234.589 174.427C234.741 174.332 234.91 174.269 235.087 174.242C235.264 174.215 235.445 174.225 235.618 174.271L240.65 175.606Z" fill="#010648"/>
<path d="M240.461 178.711C240.461 178.711 240.514 157.713 230.255 160.909C219.995 164.106 229.041 184.132 235.926 186.73L240.461 178.711Z" fill="url(#paint6_linear_14_511)"/>
<path d="M166.581 375.598C163.737 355.515 184.535 325.996 193.136 314.795C195.606 311.591 196.966 307.669 197.008 303.624C197.26 275.182 185.322 256.916 166.184 244.65C166.184 244.65 96.7358 325.56 114.42 387.791C116.327 394.508 119.283 400.278 123.033 405.236C125.819 381.795 152.922 376.681 166.581 375.598Z" fill="url(#paint7_linear_14_511)"/>
<path d="M167.877 367.831L165.23 367.528C167.464 347.835 184.755 323.521 192.081 313.983L194.193 315.606C187.002 324.977 170.046 348.799 167.877 367.831Z" fill="url(#paint8_linear_14_511)"/>
<path d="M167.126 378.379C166.888 377.464 166.706 376.535 166.581 375.598C152.922 376.681 125.819 381.795 123.033 405.245C154.025 446.234 239.449 431.446 239.449 431.446V415.496C239.449 415.496 173.842 403.308 167.126 378.379Z" fill="url(#paint9_linear_14_511)"/>
<path d="M231.236 427.043C231.236 427.043 243.849 397.279 266.073 407.836C288.297 418.393 286.551 425.302 286.551 425.302L231.236 427.043Z" fill="url(#paint10_linear_14_511)"/>
<path d="M228.402 433.218C228.487 434.302 228.988 435.311 229.799 436.035C230.61 436.758 231.669 437.141 232.755 437.103L347.922 433.086C348.795 433.056 349.638 432.755 350.333 432.225C351.028 431.695 351.541 430.962 351.801 430.128L355.145 419.432C355.336 418.818 355.385 418.169 355.288 417.533C355.19 416.898 354.948 416.293 354.582 415.766C354.215 415.238 353.732 414.801 353.171 414.488C352.609 414.175 351.984 413.994 351.342 413.96L309.344 411.726C308.963 411.706 308.581 411.738 308.208 411.82L231.697 428.777C230.705 428.997 229.826 429.567 229.221 430.383C228.616 431.199 228.325 432.205 228.402 433.218Z" fill="url(#paint11_linear_14_511)"/>
<path d="M305.601 429.014L308.77 414.249L351.909 416.307L349.07 428.559L305.601 429.014Z" fill="url(#paint12_linear_14_511)"/>
<path d="M283.485 270.076C281.043 290.027 270.06 371.08 266.916 394.239C266.815 395.004 266.88 395.782 267.109 396.519C267.337 397.256 267.723 397.935 268.239 398.508C268.756 399.082 269.39 399.536 270.1 399.84C270.809 400.144 271.576 400.29 272.347 400.268L458.665 394.941C459.85 394.906 460.989 394.478 461.903 393.723C462.817 392.968 463.453 391.93 463.711 390.773L492.694 260.246C492.872 259.442 492.861 258.608 492.662 257.809C492.464 257.01 492.082 256.267 491.548 255.64C491.015 255.013 490.343 254.519 489.585 254.195C488.828 253.872 488.006 253.728 487.184 253.776L288.458 265.415C287.215 265.489 286.037 265.995 285.129 266.846C284.22 267.698 283.639 268.841 283.485 270.076Z" fill="url(#paint13_linear_14_511)"/>
<path d="M358.377 351.931L330.841 430.088L394.871 431.446L400.198 352.393C400.257 351.519 400.129 350.644 399.822 349.824C399.514 349.004 399.036 348.26 398.417 347.64C397.799 347.021 397.055 346.54 396.236 346.232C395.417 345.923 394.541 345.793 393.668 345.85L363.765 347.835C362.565 347.916 361.415 348.347 360.457 349.075C359.499 349.803 358.776 350.796 358.377 351.931Z" fill="url(#paint14_linear_14_511)"/>
<path d="M304.883 431.202C304.719 431.701 304.676 432.232 304.757 432.752C304.838 433.271 305.041 433.764 305.35 434.189C305.658 434.615 306.063 434.961 306.531 435.2C306.999 435.439 307.517 435.564 308.043 435.563H408.317C409.199 435.563 410.044 435.213 410.668 434.589C411.292 433.966 411.642 433.12 411.642 432.238V427.942C411.642 427.493 411.552 427.049 411.376 426.636C411.199 426.223 410.942 425.85 410.618 425.54C410.294 425.229 409.91 424.987 409.49 424.829C409.07 424.671 408.622 424.599 408.174 424.618L307.9 428.914C307.224 428.943 306.573 429.178 306.034 429.586C305.495 429.995 305.093 430.559 304.883 431.202Z" fill="url(#paint15_linear_14_511)"/>
<path d="M280.675 352.534L279.354 352.362L288.508 280.168C288.784 277.995 289.81 275.988 291.408 274.491C293.006 272.994 295.077 272.103 297.263 271.97L468.993 261.599L469.074 262.929L297.345 273.305C295.47 273.421 293.694 274.187 292.323 275.471C290.952 276.755 290.071 278.476 289.832 280.339L280.675 352.534Z" fill="#91B3FA"/>
<path d="M277.333 375.443L275.285 391.04L276.603 391.213L278.651 375.616L277.333 375.443Z" fill="#91B3FA"/>
<path d="M270.23 200.846C249.54 202.408 237.514 181.014 237.394 180.798L238.78 180.035C238.894 180.243 250.444 200.753 270.111 199.269L270.23 200.846Z" fill="url(#paint16_linear_14_511)"/>
<path d="M270.23 200.846C249.54 202.408 237.514 181.014 237.394 180.798L238.78 180.035C238.894 180.243 250.444 200.753 270.111 199.269L270.23 200.846Z" fill="url(#paint17_linear_14_511)"/>
<path d="M278.664 200.047C278.664 200.339 278.607 200.628 278.495 200.897C278.384 201.166 278.22 201.411 278.014 201.617C277.808 201.823 277.563 201.987 277.294 202.099C277.024 202.21 276.736 202.268 276.444 202.268H270.524C269.935 202.267 269.37 202.033 268.954 201.617C268.538 201.2 268.304 200.636 268.303 200.047C268.303 199.458 268.537 198.894 268.954 198.477C269.37 198.061 269.935 197.827 270.524 197.827H276.444C276.736 197.827 277.025 197.884 277.294 197.995C277.564 198.107 277.808 198.271 278.015 198.477C278.221 198.683 278.384 198.928 278.496 199.197C278.607 199.467 278.665 199.756 278.664 200.047Z" fill="url(#paint18_linear_14_511)"/>
<path d="M278.664 200.047C278.664 200.339 278.607 200.628 278.495 200.897C278.384 201.166 278.22 201.411 278.014 201.617C277.808 201.823 277.563 201.987 277.294 202.099C277.024 202.21 276.736 202.268 276.444 202.268H270.524C269.935 202.267 269.37 202.033 268.954 201.617C268.538 201.2 268.304 200.636 268.303 200.047C268.303 199.458 268.537 198.894 268.954 198.477C269.37 198.061 269.935 197.827 270.524 197.827H276.444C276.736 197.827 277.025 197.884 277.294 197.995C277.564 198.107 277.808 198.271 278.015 198.477C278.221 198.683 278.384 198.928 278.496 199.197C278.607 199.467 278.665 199.756 278.664 200.047Z" fill="url(#paint19_linear_14_511)"/>
<path d="M238.82 157.065C238.82 157.065 246.246 118.975 268.13 115.381C268.13 115.381 261.943 112.262 255.474 115.644C249.006 119.026 232.69 137.568 233.355 158.005C237.791 159.603 238.82 157.065 238.82 157.065Z" fill="url(#paint20_linear_14_511)"/>
<path d="M238.82 157.065C238.82 157.065 246.246 118.975 268.13 115.381C268.13 115.381 261.943 112.262 255.474 115.644C249.006 119.026 232.69 137.568 233.355 158.005C237.791 159.603 238.82 157.065 238.82 157.065Z" fill="url(#paint21_linear_14_511)"/>
<path d="M235.019 155.262C223.645 157.57 225.051 171.954 225.051 171.954C224.233 182.393 227.285 187.567 231.183 190.033C232.495 190.858 233.998 191.33 235.546 191.403C237.094 191.476 238.635 191.147 240.019 190.448C241.402 189.75 242.582 188.705 243.443 187.416C244.303 186.127 244.816 184.638 244.931 183.092C245.141 180.251 245.381 177.551 245.591 176.592C246.101 174.269 246.394 152.95 235.019 155.262Z" fill="url(#paint22_linear_14_511)"/>
<path d="M236.063 158.9C234.918 158.699 233.739 158.89 232.716 159.442C231.692 159.995 230.885 160.876 230.425 161.944C223.626 177.692 231.972 187.935 236.07 188.15C240.389 188.375 240.301 167.598 239.385 162.27C239 160.039 237.583 159.163 236.063 158.9Z" fill="url(#paint23_linear_14_511)"/>
<path d="M236.063 158.9C234.918 158.699 233.739 158.89 232.716 159.442C231.692 159.995 230.885 160.876 230.425 161.944C223.626 177.692 231.972 187.935 236.07 188.15C240.389 188.375 240.301 167.598 239.385 162.27C239 160.039 237.583 159.163 236.063 158.9Z" fill="url(#paint24_linear_14_511)"/>
</g>
<defs>
<linearGradient id="paint0_linear_14_511" x1="523.999" y1="551.748" x2="187.764" y2="193.819" gradientUnits="userSpaceOnUse">
<stop stop-color="#DAE3FE"/>
<stop offset="1" stop-color="#E9EFFD"/>
</linearGradient>
<linearGradient id="paint1_linear_14_511" x1="453.104" y1="520.004" x2="44.4611" y2="-16.2609" gradientUnits="userSpaceOnUse">
<stop stop-color="#010648"/>
<stop offset="1" stop-color="#242771"/>
</linearGradient>
<linearGradient id="paint2_linear_14_511" x1="259.669" y1="-160.21" x2="245.66" y2="12.5779" gradientUnits="userSpaceOnUse">
<stop stop-color="#53D8FF"/>
<stop offset="1" stop-color="#3840F7"/>
</linearGradient>
<linearGradient id="paint3_linear_14_511" x1="288.773" y1="306.812" x2="137.77" y2="502.228" gradientUnits="userSpaceOnUse">
<stop stop-color="#FE7062"/>
<stop offset="1" stop-color="#FF928E"/>
</linearGradient>
<linearGradient id="paint4_linear_14_511" x1="223.934" y1="298.231" x2="255.306" y2="213.508" gradientUnits="userSpaceOnUse">
<stop stop-color="#FEBBBA"/>
<stop offset="1" stop-color="#FF928E"/>
</linearGradient>
<linearGradient id="paint5_linear_14_511" x1="284.166" y1="169.922" x2="192.202" y2="208.392" gradientUnits="userSpaceOnUse">
<stop stop-color="#FEBBBA"/>
<stop offset="1" stop-color="#FF928E"/>
</linearGradient>
<linearGradient id="paint6_linear_14_511" x1="277.93" y1="155.012" x2="185.966" y2="193.484" gradientUnits="userSpaceOnUse">
<stop stop-color="#FEBBBA"/>
<stop offset="1" stop-color="#FF928E"/>
</linearGradient>
<linearGradient id="paint7_linear_14_511" x1="213.679" y1="248.785" x2="62.6777" y2="444.199" gradientUnits="userSpaceOnUse">
<stop stop-color="#FE7062"/>
<stop offset="1" stop-color="#FF928E"/>
</linearGradient>
<linearGradient id="paint8_linear_14_511" x1="424.758" y1="169.655" x2="-42.4595" y2="496.527" gradientUnits="userSpaceOnUse">
<stop stop-color="#FEBBBA"/>
<stop offset="1" stop-color="#FF928E"/>
</linearGradient>
<linearGradient id="paint9_linear_14_511" x1="159.279" y1="352.575" x2="209.9" y2="485.793" gradientUnits="userSpaceOnUse">
<stop stop-color="#FEBBBA"/>
<stop offset="1" stop-color="#FF928E"/>
</linearGradient>
<linearGradient id="paint10_linear_14_511" x1="222.087" y1="328.708" x2="272.71" y2="461.924" gradientUnits="userSpaceOnUse">
<stop stop-color="#FEBBBA"/>
<stop offset="1" stop-color="#FF928E"/>
</linearGradient>
<linearGradient id="paint11_linear_14_511" x1="216.51" y1="407.416" x2="337.927" y2="436.603" gradientUnits="userSpaceOnUse">
<stop stop-color="#4042E2"/>
<stop offset="1" stop-color="#4F52FF"/>
</linearGradient>
<linearGradient id="paint12_linear_14_511" x1="219.177" y1="396.321" x2="340.594" y2="425.507" gradientUnits="userSpaceOnUse">
<stop stop-color="#4042E2"/>
<stop offset="1" stop-color="#4F52FF"/>
</linearGradient>
<linearGradient id="paint13_linear_14_511" x1="471.5" y1="384.5" x2="283.5" y2="278" gradientUnits="userSpaceOnUse">
<stop stop-color="#6165D7"/>
<stop offset="1" stop-color="#30ABBA"/>
</linearGradient>
<linearGradient id="paint14_linear_14_511" x1="364.3" y1="441.463" x2="366.668" y2="344.359" gradientUnits="userSpaceOnUse">
<stop stop-color="#4042E2"/>
<stop offset="1" stop-color="#4F52FF"/>
</linearGradient>
<linearGradient id="paint15_linear_14_511" x1="355.628" y1="279.564" x2="356.812" y2="349.433" gradientUnits="userSpaceOnUse">
<stop stop-color="#4042E2"/>
<stop offset="1" stop-color="#4F52FF"/>
</linearGradient>
<linearGradient id="paint16_linear_14_511" x1="236.621" y1="207.341" x2="263.718" y2="181.288" gradientUnits="userSpaceOnUse">
<stop stop-color="#4042E2"/>
<stop offset="1" stop-color="#4F52FF"/>
</linearGradient>
<linearGradient id="paint17_linear_14_511" x1="315.972" y1="182.791" x2="208.205" y2="285.038" gradientUnits="userSpaceOnUse">
<stop stop-color="#30ABBA"/>
<stop offset="1" stop-color="#4F52FF"/>
</linearGradient>
<linearGradient id="paint18_linear_14_511" x1="268.303" y1="200.047" x2="278.664" y2="200.047" gradientUnits="userSpaceOnUse">
<stop stop-color="#4042E2"/>
<stop offset="1" stop-color="#4F52FF"/>
</linearGradient>
<linearGradient id="paint19_linear_14_511" x1="293.098" y1="198.413" x2="271.444" y2="228.913" gradientUnits="userSpaceOnUse">
<stop stop-color="#30ABBA"/>
<stop offset="1" stop-color="#4F52FF"/>
</linearGradient>
<linearGradient id="paint20_linear_14_511" x1="327.128" y1="108.893" x2="100.82" y2="187.354" gradientUnits="userSpaceOnUse">
<stop stop-color="#4042E2"/>
<stop offset="1" stop-color="#4F52FF"/>
</linearGradient>
<linearGradient id="paint21_linear_14_511" x1="316.6" y1="119.935" x2="139.202" y2="203.74" gradientUnits="userSpaceOnUse">
<stop stop-color="#30ABBA"/>
<stop offset="1" stop-color="#4F52FF"/>
</linearGradient>
<linearGradient id="paint22_linear_14_511" x1="274.842" y1="159.879" x2="158.699" y2="200.146" gradientUnits="userSpaceOnUse">
<stop stop-color="#30ABBA"/>
<stop offset="1" stop-color="#4F52FF"/>
</linearGradient>
<linearGradient id="paint23_linear_14_511" x1="214.79" y1="101.856" x2="224.264" y2="135.803" gradientUnits="userSpaceOnUse">
<stop stop-color="#4042E2"/>
<stop offset="1" stop-color="#4F52FF"/>
</linearGradient>
<linearGradient id="paint24_linear_14_511" x1="256.672" y1="162.691" x2="185.906" y2="180.236" gradientUnits="userSpaceOnUse">
<stop stop-color="#30ABBA"/>
<stop offset="1" stop-color="#4F52FF"/>
</linearGradient>
<clipPath id="clip0_14_511">
<rect width="491.927" height="480" fill="white" transform="translate(0.895996)"/>
</clipPath>
</defs>
</svg>
