<svg width="202" height="56" fill="none" xmlns="http://www.w3.org/2000/svg"><path d="m12.373 51.991 11-12h-22l11 12z" fill="#FAB680"/><path d="m12.373 51.991 11-12h-11v12z" fill="#D09668"/><path d="m12.373 51.991 5.5-6h-11l5.5 6z" fill="#6E6870"/><path d="M23 36.991H2v3h21v-3z" fill="#FAB680"/><path d="M23 36.991H13v3h10v-3z" fill="#D09668"/><path d="M22.373 18.991h-4a2 2 0 0 0-2 2v18a2 2 0 0 0 2 2h4a2 2 0 0 0 2-2v-18a2 2 0 0 0-2-2z" fill="#FDBD13"/><path d="M14.373 23.991h-4a2 2 0 0 0-2 2v13a2 2 0 0 0 2 2h4a2 2 0 0 0 2-2v-13a2 2 0 0 0-2-2z" fill="#EC5334"/><path d="M.373 30.991a2 2 0 0 1 2-2h4a2 2 0 0 1 2 2v8a2 2 0 0 1-2 2h-4a2 2 0 0 1-2-2v-8z" fill="#6E6870"/><path fill-rule="evenodd" clip-rule="evenodd" d="M0 17.991h24.746c-1.687-4.642-6.589-8-12.373-8-5.784 0-10.686 3.358-12.373 8z" fill="#6E6870"/><path d="M44.225 20.518H50.5l-2.105 9.721c-1.97.684-3.879 1.026-5.729 1.026-2.406 0-4.28-.657-5.62-1.97-1.33-1.32-1.995-3.162-1.995-5.523 0-2.451.46-4.68 1.38-6.685.93-2.014 2.216-3.578 3.856-4.69a9.457 9.457 0 0 1 5.455-1.681c1.067 0 2.065.091 2.994.273.94.182 1.883.474 2.83.875l-.902 2.078a16.996 16.996 0 0 0-2.27-.806c-.802-.228-1.686-.342-2.652-.342-1.54 0-2.944.465-4.21 1.394-1.259.921-2.238 2.21-2.94 3.87-.702 1.659-1.053 3.513-1.053 5.564 0 1.732.465 3.095 1.395 4.088.938.993 2.246 1.49 3.923 1.49 1.404 0 2.589-.178 3.555-.533l1.313-6.07h-3.952l.452-2.079zm17.691 10.473 2.024-9.46c.163-.857.246-1.473.246-1.846 0-1.35-.67-2.024-2.01-2.024-.811 0-1.604.269-2.38.807-.765.538-1.444 1.321-2.036 2.351-.584 1.021-1.026 2.256-1.326 3.705l-1.381 6.467h-2.297l4.512-21.273h2.297l-.48 2.174c-.145.701-.3 1.417-.464 2.146a94.08 94.08 0 0 1-.52 2.27 81.572 81.572 0 0 1-.642 2.584h.15c.857-1.122 1.7-1.924 2.53-2.407.838-.483 1.713-.724 2.625-.724 1.194 0 2.114.328 2.761.984.657.656.985 1.586.985 2.79 0 .564-.105 1.32-.315 2.269-.355 1.759-1.016 4.821-1.982 9.187h-2.297zM76.9 15.815c1.732 0 3.1.515 4.102 1.545 1.003 1.021 1.504 2.43 1.504 4.225a12.13 12.13 0 0 1-.984 4.854c-.657 1.522-1.545 2.697-2.666 3.527a6.23 6.23 0 0 1-3.801 1.244c-1.75 0-3.122-.515-4.116-1.545-.993-1.03-1.49-2.438-1.49-4.225 0-1.731.333-3.358.998-4.88.666-1.532 1.563-2.703 2.694-3.514a6.254 6.254 0 0 1 3.76-1.23zm3.227 5.455c0-1.048-.287-1.895-.861-2.543-.566-.656-1.336-.984-2.31-.984-.994 0-1.888.337-2.68 1.012-.784.674-1.395 1.613-1.833 2.816-.428 1.194-.642 2.525-.642 3.992 0 1.195.287 2.12.861 2.776.583.647 1.417.97 2.502.97.948 0 1.8-.332 2.557-.998.756-.665 1.344-1.608 1.763-2.83.429-1.23.643-2.634.643-4.21zm13.754 5.47c0 1.421-.506 2.533-1.518 3.335-1.002.793-2.42 1.19-4.252 1.19-1.54 0-2.93-.315-4.17-.944v-2.16a8.51 8.51 0 0 0 2.065.889c.738.21 1.422.314 2.05.314 1.15 0 2.015-.228 2.598-.683.584-.456.875-1.04.875-1.75 0-.52-.16-.957-.478-1.313-.32-.355-1.007-.843-2.065-1.463-1.185-.665-2.023-1.317-2.515-1.955-.493-.638-.739-1.394-.739-2.27 0-1.257.46-2.269 1.381-3.035.92-.774 2.133-1.162 3.637-1.162 1.559 0 3.063.338 4.512 1.012l-.739 1.873-.765-.342c-.92-.392-1.923-.587-3.008-.587-.848 0-1.513.2-1.996.601-.483.392-.725.902-.725 1.531 0 .51.16.948.479 1.313.328.364.998.834 2.01 1.408.975.547 1.672 1.016 2.091 1.408.429.392.748.816.957 1.272.21.446.315.952.315 1.517zm7.355 2.652c.502 0 1.158-.119 1.969-.356V30.8c-.31.127-.693.237-1.148.328-.456.091-.821.137-1.094.137-1.14 0-2.014-.27-2.625-.807-.602-.547-.902-1.358-.902-2.434 0-.601.082-1.285.246-2.05l1.736-8.23h-2.352l.192-.999 2.53-1.066 1.708-3.117h1.34l-.752 3.445h3.746l-.355 1.736h-3.733l-1.764 8.258c-.163.793-.246 1.394-.246 1.805 0 .51.133.902.397 1.175.264.274.633.41 1.107.41z" fill="#fff"/><path d="M133.984 30.991h-4.826l-2.707-10.5c-.1-.373-.273-1.144-.519-2.31-.237-1.176-.374-1.965-.411-2.366-.054.493-.191 1.286-.41 2.38a51.589 51.589 0 0 1-.506 2.323l-2.693 10.473H117.1L112 11.003h4.17l2.557 10.91c.446 2.014.77 3.76.97 5.236.055-.52.178-1.321.369-2.406.201-1.094.388-1.941.561-2.543l2.912-11.197h4.006l2.912 11.197c.128.502.287 1.267.479 2.297a56.43 56.43 0 0 1 .437 2.652c.091-.71.237-1.595.438-2.652.2-1.066.382-1.928.546-2.584l2.543-10.91h4.17l-5.086 19.988zm15.805-15.572c.565 0 1.035.041 1.408.123l-.314 3.91c-.337-.091-.748-.137-1.231-.137-1.33 0-2.369.342-3.117 1.026-.738.683-1.107 1.64-1.107 2.87v7.78h-4.17V15.706h3.158l.615 2.57h.205a5.71 5.71 0 0 1 1.914-2.064 4.743 4.743 0 0 1 2.639-.793zm4.006-3.664c0-1.358.756-2.037 2.269-2.037 1.513 0 2.27.679 2.27 2.037 0 .647-.191 1.153-.574 1.517-.374.356-.939.534-1.696.534-1.513 0-2.269-.684-2.269-2.051zm4.348 19.236h-4.17V15.706h4.17v15.285zm10.828-3.049c.729 0 1.604-.16 2.625-.478v3.103c-1.039.465-2.315.698-3.828.698-1.668 0-2.885-.42-3.651-1.258-.756-.848-1.135-2.115-1.135-3.801v-7.37h-1.996v-1.763l2.297-1.394 1.203-3.227h2.666v3.254h4.28v3.13h-4.28v7.37c0 .593.164 1.03.493 1.313.337.282.779.423 1.326.423zm12.058-9.556c-.884 0-1.577.282-2.078.847-.501.556-.788 1.35-.861 2.38h5.851c-.018-1.03-.287-1.824-.806-2.38-.52-.565-1.222-.847-2.106-.847zm.588 12.879c-2.461 0-4.384-.68-5.769-2.038-1.386-1.358-2.078-3.28-2.078-5.769 0-2.561.638-4.54 1.914-5.934 1.285-1.403 3.058-2.105 5.318-2.105 2.16 0 3.842.615 5.045 1.846 1.203 1.23 1.805 2.93 1.805 5.1v2.023h-9.858c.046 1.185.397 2.11 1.053 2.775.656.665 1.577.998 2.762.998.92 0 1.791-.096 2.611-.287.82-.191 1.677-.497 2.57-.916v3.227a9.577 9.577 0 0 1-2.338.806c-.829.183-1.841.274-3.035.274zm18.156-15.846c.566 0 1.035.041 1.409.123l-.315 3.91c-.337-.091-.747-.137-1.23-.137-1.331 0-2.37.342-3.117 1.026-.739.683-1.108 1.64-1.108 2.87v7.78h-4.17V15.706h3.158l.616 2.57h.205a5.71 5.71 0 0 1 1.914-2.064 4.74 4.74 0 0 1 2.638-.793z" fill="#E95334"/><path d="M40.52 39.551c-.98.02-1.85.26-2.61.72a4.716 4.716 0 0 0-1.77 1.905c-.41.81-.615 1.73-.615 2.76 0 .99.195 1.885.585 2.685.4.79.975 1.42 1.725 1.89.76.46 1.655.69 2.685.69.99-.02 1.86-.255 2.61-.705a4.74 4.74 0 0 0 1.77-1.89c.42-.81.63-1.735.63-2.775 0-.99-.2-1.885-.6-2.685-.39-.8-.965-1.43-1.725-1.89-.76-.47-1.655-.705-2.685-.705zm-2.97 5.37c0-.74.135-1.39.405-1.95.28-.57.645-1.005 1.095-1.305.46-.31.96-.465 1.5-.465.59 0 1.11.155 1.56.465.45.31.795.74 1.035 1.29.24.55.36 1.175.36 1.875 0 .81-.135 1.5-.405 2.07-.26.56-.62.98-1.08 1.26-.45.27-.955.405-1.515.405-.6 0-1.125-.15-1.575-.45-.44-.31-.78-.74-1.02-1.29-.24-.56-.36-1.195-.36-1.905zm10.49-.69v5.76h1.95v-5.76h1.995l-.615-1.5h-1.38v-.285c0-.4.08-.715.24-.945.16-.24.405-.36.735-.36.21 0 .48.065.81.195l.555-1.41c-.16-.13-.385-.24-.675-.33-.29-.09-.55-.135-.78-.135-.89 0-1.585.24-2.085.72s-.75 1.145-.75 1.995v.555h-1.125v1.5h1.125zm6.27 0v5.76h1.95v-5.76h1.995l-.615-1.5h-1.38v-.285c0-.4.08-.715.24-.945.16-.24.405-.36.735-.36.21 0 .48.065.81.195l.555-1.41c-.16-.13-.385-.24-.675-.33-.29-.09-.55-.135-.78-.135-.89 0-1.585.24-2.085.72s-.75 1.145-.75 1.995v.555h-1.125v1.5h1.125zm6.751-2.55c.31 0 .57-.105.78-.315.22-.21.33-.47.33-.78 0-.31-.11-.57-.33-.78a1.06 1.06 0 0 0-.78-.315c-.3 0-.555.105-.765.315-.21.21-.315.47-.315.78 0 .31.105.57.315.78.21.21.465.315.765.315zm.99 8.31v-7.275h-1.95v7.275h1.95zm7.698-7.275h-5.82l.376 1.605h3.06l-3.615 4.635.254 1.035h6l-.15-1.575h-3.66l3.66-4.59-.105-1.11zm2.916-1.035c.31 0 .57-.105.78-.315.22-.21.33-.47.33-.78 0-.31-.11-.57-.33-.78a1.06 1.06 0 0 0-.78-.315c-.3 0-.555.105-.765.315-.21.21-.315.47-.315.78 0 .31.105.57.315.78.21.21.465.315.765.315zm.99 8.31v-7.275h-1.95v7.275h1.95zm8.853-3.66c0-.71-.12-1.35-.36-1.92-.24-.58-.61-1.04-1.11-1.38-.5-.34-1.115-.51-1.845-.51-.75 0-1.4.16-1.95.48-.55.31-.975.755-1.275 1.335-.29.58-.435 1.255-.435 2.025 0 1.19.355 2.125 1.065 2.805.72.67 1.77 1.005 3.15 1.005.59 0 1.1-.075 1.53-.225.43-.16.83-.385 1.2-.675l-.57-1.41c-.37.21-.715.37-1.035.48-.32.11-.68.165-1.08.165-.69 0-1.205-.135-1.545-.405-.33-.27-.545-.66-.645-1.17h4.905v-.6zm-4.89-.705c.08-.47.255-.825.525-1.065.27-.25.605-.375 1.005-.375.4 0 .725.12.975.36.26.24.44.6.54 1.08h-3.045zm8.845 4.365v-10.59l-1.935.165v10.425h1.935zm4.557 0v-10.59l-1.935.165v10.425h1.935zm7.22-5.19c.28-.13.62-.24 1.02-.33.4-.1.766-.15 1.096-.15.36 0 .64.105.84.315.21.2.32.485.33.855h-1.425c-.84 0-1.51.205-2.01.615-.5.4-.75.97-.75 1.71 0 .72.22 1.295.66 1.725.44.42 1.095.63 1.965.63.67 0 1.31-.32 1.92-.96l.33.78h1.275v-4.785c0-.51-.145-.97-.435-1.38-.28-.41-.66-.73-1.14-.96a3.632 3.632 0 0 0-1.59-.345c-.34 0-.795.07-1.365.21-.57.13-.985.28-1.245.45l.525 1.62zm.766 3.015c0-.28.095-.52.285-.72.2-.2.46-.3.78-.3h1.47v1.11c-.49.48-1.025.72-1.605.72a.979.979 0 0 1-.675-.24.757.757 0 0 1-.255-.57zm11.639-.06c-.36.26-.69.47-.99.63-.3.15-.62.225-.96.225a.927.927 0 0 1-.78-.375c-.18-.25-.27-.6-.27-1.05v-4.47h-1.95v4.56c0 .93.185 1.655.555 2.175.37.52 1.015.78 1.935.78.4 0 .855-.09 1.365-.27.51-.18.99-.43 1.44-.75l.33.78h1.275v-7.275h-1.95v5.04zm4.761-3.525v5.76h1.95v-5.76h1.995l-.615-1.5h-1.38v-.285c0-.4.08-.715.24-.945.16-.24.405-.36.735-.36.21 0 .48.065.81.195l.555-1.41c-.16-.13-.385-.24-.675-.33-.29-.09-.55-.135-.78-.135-.89 0-1.585.24-2.085.72s-.75 1.145-.75 1.995v.555h-1.125v1.5h1.125zm16.615-4.83v10.59h-1.02l-.45-.66c-.64.56-1.34.84-2.1.84-1.13 0-2.025-.34-2.685-1.02-.65-.69-.975-1.62-.975-2.79 0-.76.145-1.43.435-2.01.3-.58.73-1.03 1.29-1.35.56-.32 1.225-.48 1.995-.48.24 0 .495.045.765.135.27.08.53.195.78.345v-3.435l1.965-.165zm-5.22 6.96c0 .64.15 1.16.45 1.56.31.39.735.585 1.275.585.26 0 .51-.05.75-.15.25-.1.51-.25.78-.45v-3.105c-.26-.22-.51-.375-.75-.465-.24-.1-.5-.15-.78-.15-.53 0-.95.205-1.26.615-.31.4-.465.92-.465 1.56zm14.224-.03c0-.71-.12-1.35-.36-1.92-.24-.58-.61-1.04-1.11-1.38-.5-.34-1.115-.51-1.845-.51-.75 0-1.4.16-1.95.48-.55.31-.975.755-1.275 1.335-.29.58-.435 1.255-.435 2.025 0 1.19.355 2.125 1.065 2.805.72.67 1.77 1.005 3.15 1.005.59 0 1.1-.075 1.53-.225.43-.16.83-.385 1.2-.675l-.57-1.41c-.37.21-.715.37-1.035.48-.32.11-.68.165-1.08.165-.69 0-1.205-.135-1.545-.405-.33-.27-.545-.66-.645-1.17h4.905v-.6zm-4.89-.705c.08-.47.255-.825.525-1.065.27-.25.605-.375 1.005-.375.4 0 .725.12.975.36.26.24.44.6.54 1.08h-3.045zm15.655-3.15c.83 0 1.425.225 1.785.675.37.44.555 1.1.555 1.98v4.86h-1.95v-4.47c0-.47-.075-.825-.225-1.065-.14-.24-.365-.36-.675-.36-.3 0-.575.07-.825.21-.25.14-.57.35-.96.63V49.991h-1.95v-4.47c0-.47-.075-.825-.225-1.065-.14-.24-.365-.36-.675-.36-.3 0-.575.07-.825.21-.25.14-.575.355-.975.645v5.04h-1.95v-7.275h1.275l.33.78c.45-.32.915-.57 1.395-.75.48-.18.9-.27 1.26-.27.99 0 1.66.33 2.01.99.45-.31.91-.55 1.38-.72.47-.18.885-.27 1.245-.27zm14.236 4.32 1.905-2.685v5.88h1.965v-10.2h-1.185l-3.135 4.71-3.45-4.71h-1.23v10.2h1.935v-6.225l2.445 3.135.75-.105zm7.343-1.995c.28-.13.62-.24 1.02-.33.4-.1.765-.15 1.095-.15.36 0 .64.105.84.315.21.2.32.485.33.855h-1.425c-.84 0-1.51.205-2.01.615-.5.4-.75.97-.75 1.71 0 .72.22 1.295.66 1.725.44.42 1.095.63 1.965.63.67 0 1.31-.32 1.92-.96l.33.78h1.275v-4.785c0-.51-.145-.97-.435-1.38-.28-.41-.66-.73-1.14-.96a3.632 3.632 0 0 0-1.59-.345c-.34 0-.795.07-1.365.21-.57.13-.985.28-1.245.45l.525 1.62zm.765 3.015c0-.28.095-.52.285-.72.2-.2.46-.3.78-.3h1.47v1.11c-.49.48-1.025.72-1.605.72a.979.979 0 0 1-.675-.24.757.757 0 0 1-.255-.57zm8.699-2.265c.42-.37.87-.675 1.35-.915.49-.24.9-.36 1.23-.36l-.39-1.56c-.36 0-.775.125-1.245.375-.47.25-.88.53-1.23.84l-.645-1.215h-1.02v7.275h1.95v-4.44zm6.317 4.44v-2.385l.78-.69 1.83 3.075h2.235l-2.67-4.32 2.04-1.785-1.095-1.38-3.12 2.865v-5.97l-1.935.165v10.425h1.935zm8.574-7.26v-2.07l-1.935.345v1.725h-.975v1.5h.975v3.435c0 .83.255 1.475.765 1.935.51.46 1.22.69 2.13.69.24 0 .505-.045.795-.135.3-.09.525-.195.675-.315l-.57-1.41c-.27.13-.535.195-.795.195-.34 0-.605-.12-.795-.36-.18-.24-.27-.555-.27-.945v-3.09h1.92l-.6-1.5h-1.32z" fill="#F29F0F"/></svg>