<svg width="40" height="40" fill="none" xmlns="http://www.w3.org/2000/svg"><path d="m20.432 39.395 9.823-10.892H10.61l9.823 10.892z" fill="#FC9D8A"/><path d="m20.432 39.395 9.823-10.892h-9.823v10.892z" fill="#EF9482"/><path d="m20.432 39.395 4.912-5.446H15.52l4.912 5.447z" fill="#010648"/><path d="M29.922 25.78H11.17v2.723h18.753V25.78z" fill="#FAB680"/><path d="M29.922 25.78h-8.93v2.723h8.93V25.78z" fill="#D09668"/><path d="M29.362 9.441H25.79c-.986 0-1.786.813-1.786 1.816v16.338c0 1.003.8 1.816 1.786 1.816h3.572c.987 0 1.786-.813 1.786-1.816V11.257c0-1.003-.8-1.816-1.786-1.816z" fill="#6165D7"/><path d="M22.218 13.98h-3.572c-.986 0-1.786.813-1.786 1.815v11.8c0 1.003.8 1.816 1.786 1.816h3.572c.986 0 1.786-.813 1.786-1.816v-11.8c0-1.002-.8-1.815-1.786-1.815z" fill="#010648"/><path d="M9.716 20.334c0-1.003.8-1.816 1.786-1.816h3.572c.986 0 1.786.813 1.786 1.816v7.261c0 1.003-.8 1.816-1.786 1.816h-3.572c-.987 0-1.786-.813-1.786-1.816v-7.261z" fill="url(#a)"/><path fill-rule="evenodd" clip-rule="evenodd" d="M9.382 8.534h22.1c-1.507-4.214-5.885-7.262-11.05-7.262-5.165 0-9.543 3.048-11.05 7.262z" fill="url(#b)"/><path d="m9.382 8.534-.251-.093L9 8.806h.382v-.272zm22.1 0v.272h.382l-.13-.365-.253.093zm-22.1.272h22.1v-.544h-22.1v.544zm11.05-7.261c5.066 0 9.334 2.988 10.798 7.082l.503-.186C30.183 4.107 25.697 1 20.432 1v.545zM9.634 8.627c1.464-4.094 5.732-7.082 10.798-7.082V1C15.167 1 10.68 4.107 9.13 8.44l.503.187z" fill="url(#c)"/><defs><linearGradient id="a" x1="10.893" y1="29.392" x2="18.999" y2="24.514" gradientUnits="userSpaceOnUse"><stop stop-color="#30ABBA"/><stop offset="1" stop-color="#6165D7"/></linearGradient><linearGradient id="b" x1="13.026" y1="8.521" x2="16.909" y2="-2.32" gradientUnits="userSpaceOnUse"><stop stop-color="#30ABBA"/><stop offset="1" stop-color="#6165D7"/></linearGradient><linearGradient id="c" x1="12.77" y1="8.793" x2="17.068" y2="-2.757" gradientUnits="userSpaceOnUse"><stop stop-color="#30ABBA"/><stop offset="1" stop-color="#6165D7"/></linearGradient></defs></svg>