<svg xmlns="http://www.w3.org/2000/svg" viewBox="0 0 64 12"><defs><clipPath id="a" clipPathUnits="userSpaceOnUse"><path d="M783.8 570.2h200v40h-200z"/></clipPath><clipPath id="b" clipPathUnits="userSpaceOnUse"><path d="M786.87 591.51a1.8 1.8 0 0 1-1.78-1.82v-7.26c0-1 .8-1.81 1.78-1.81h3.58c.98 0 1.78.81 1.78 1.81v7.27c0 1-.8 1.81-1.78 1.81z"/></clipPath><clipPath id="d" clipPathUnits="userSpaceOnUse"><path d="M784.75 601.5h22.1c-1.5 4.2-5.88 7.26-11.05 7.26-5.16 0-9.54-3.05-11.05-7.27"/></clipPath><clipPath id="f" clipPathUnits="userSpaceOnUse"><path d="M795.8 608.49c4.92 0 9.08-2.82 10.66-6.72h-21.32c1.59 3.9 5.75 6.72 10.66 6.72v.54c-5.26 0-9.75-3.1-11.3-7.44l-.13-.37h22.48v.28l.25.09-.25-.1v-.27h.39l-.14.37c-1.54 4.33-6.03 7.44-11.3 7.44zm-11.3-6.9.25-.1z"/></clipPath><clipPath id="h" clipPathUnits="userSpaceOnUse"><path d="M783.8 570.2h200v40h-200z"/></clipPath><clipPath id="i" clipPathUnits="userSpaceOnUse"><path d="M937.6 610.2c-1.53 0-2.28-.69-2.28-2.08 0-1.4.75-2.1 2.27-2.1.76 0 1.33.18 1.7.54.39.38.58.9.58 1.56 0 1.39-.76 2.09-2.28 2.09zm-21.23-1.31-2.55-11.18a54.6 54.6 0 0 1-.99-5.37 59.69 59.69 0 0 1-.91 5.07L909 608.9h-4.02l-2.92-11.48a41.2 41.2 0 0 1-.93-5.07 68.4 68.4 0 0 1-.98 5.37l-2.56 11.18h-4.18l5.11-20.48h4.83l2.7 10.73c.12.47.29 1.27.5 2.38.22 1.12.36 1.93.42 2.44.03-.41.17-1.22.4-2.43.26-1.2.43-1.98.53-2.36l2.71-10.76h4.84l5.1 20.48zm29.67-1.49-1.21-3.3-2.3-1.43v-1.8h2v-7.56c0-1.73.38-3.03 1.14-3.9.76-.86 1.99-1.29 3.66-1.29 1.51 0 2.8.24 3.83.72v3.18a8.89 8.89 0 0 0-2.63-.5 2 2 0 0 0-1.33.44c-.33.3-.5.74-.5 1.35v7.55h4.3v3.2h-4.3v3.34zm32.73-3.85a5.82 5.82 0 0 1-1.92-2.12h-.2l-.62 2.64h-3.16V588.4h4.18v7.98c0 1.26.37 2.24 1.1 2.94a4.4 4.4 0 0 0 3.13 1.05c.49 0 .9-.05 1.24-.14l.31 4c-.37.1-.85.13-1.41.13-.95 0-1.83-.27-2.65-.81m-21.5-1.34c-1.29-1.43-1.92-3.46-1.92-6.09 0-2.55.69-4.52 2.08-5.9 1.39-1.4 3.32-2.1 5.78-2.1 1.2 0 2.21.1 3.05.28a9.7 9.7 0 0 1 2.34.83v3.3a11.25 11.25 0 0 0-5.2-1.23c-1.18 0-2.1.35-2.76 1.03a4.16 4.16 0 0 0-1.06 2.84h9.88v2.08c0 2.22-.6 3.96-1.8 5.22-1.21 1.26-2.9 1.9-5.06 1.9-2.27 0-4.05-.73-5.34-2.17m3.28-1.75c.5.58 1.2.87 2.08.87a2.7 2.7 0 0 0 2.12-.87 3.6 3.6 0 0 0 .8-2.43h-5.86a4 4 0 0 0 .86 2.43m-31.89 3.1a5.82 5.82 0 0 1-1.92-2.12h-.2l-.62 2.64h-3.17V588.4h4.19v7.98c0 1.26.37 2.24 1.1 2.94a4.4 4.4 0 0 0 3.13 1.05c.49 0 .9-.05 1.24-.14l.31 4a6.6 6.6 0 0 1-1.41.13c-.95 0-1.83-.27-2.65-.81m6.84-15.14h4.19v15.66h-4.19z"/></clipPath><clipPath id="k" clipPathUnits="userSpaceOnUse"><path d="M0 1080h1920V0H0Z"/></clipPath><linearGradient id="c" x1="0" x2="1" y1="0" y2="0" gradientTransform="rotate(31.04 -658.44 1704.39) scale(9.4604)" gradientUnits="userSpaceOnUse" spreadMethod="pad"><stop offset="0" style="stop-opacity:1;stop-color:#30abba"/><stop offset="1" style="stop-opacity:1;stop-color:#6165d7"/></linearGradient><linearGradient id="e" x1="0" x2="1" y1="0" y2="0" gradientTransform="rotate(70.3 -27.98 864.15) scale(11.5158)" gradientUnits="userSpaceOnUse" spreadMethod="pad"><stop offset="0" style="stop-opacity:1;stop-color:#30abba"/><stop offset="1" style="stop-opacity:1;stop-color:#6165d7"/></linearGradient><linearGradient id="g" x1="0" x2="1" y1="0" y2="0" gradientTransform="rotate(69.59 -33.39 871.33) scale(12.3238)" gradientUnits="userSpaceOnUse" spreadMethod="pad"><stop offset="0" style="stop-opacity:1;stop-color:#30abba"/><stop offset="1" style="stop-opacity:1;stop-color:#6165d7"/></linearGradient><linearGradient id="j" x1="0" x2="1" y1="0" y2="0" gradientTransform="rotate(74.94 86.38 898.8) scale(35.9179)" gradientUnits="userSpaceOnUse" spreadMethod="pad"><stop offset="0" style="stop-opacity:1;stop-color:#30abba"/><stop offset="1" style="stop-opacity:1;stop-color:#6165d7"/></linearGradient></defs><path d="m0 0 9.82-10.9L19.65 0Z" style="fill:#fc9d8a;fill-opacity:1;fill-rule:nonzero;stroke:none" transform="matrix(.3125 0 0 -.3125 .5 8.6)"/><path d="M0 0v-10.9L9.82 0Z" style="fill:#ef9482;fill-opacity:1;fill-rule:nonzero;stroke:none" transform="matrix(.3125 0 0 -.3125 3.57 8.6)"/><path d="m0 0 4.91-5.45L9.82 0Z" style="fill:#010648;fill-opacity:1;fill-rule:nonzero;stroke:none" transform="matrix(.3125 0 0 -.3125 2.04 10.3)"/><path d="M6.54 7.74H.68v.86h5.86Z" style="fill:#fab680;fill-opacity:1;fill-rule:nonzero;stroke:none;stroke-width:.31254"/><path d="M6.54 7.74h-2.8v.86h2.8Z" style="fill:#d09668;fill-opacity:1;fill-rule:nonzero;stroke:none;stroke-width:.31254"/><g clip-path="url(#a)" transform="matrix(.3125 0 0 -.3125 -245.15 190.35)"><path d="M0 0h-3.57a1.8 1.8 0 0 1-1.79-1.81v-16.34c0-1 .8-1.82 1.79-1.82H0c.99 0 1.79.81 1.79 1.82v16.33C1.79-.82.99 0 0 0" style="fill:#6165d7;fill-opacity:1;fill-rule:nonzero;stroke:none" transform="translate(804.73 600.59)"/><path d="M0 0h-3.57a1.8 1.8 0 0 1-1.79-1.81v-11.8c0-1 .8-1.82 1.79-1.82H0c.99 0 1.79.81 1.79 1.81v11.8A1.8 1.8 0 0 1 0 0" style="fill:#010648;fill-opacity:1;fill-rule:nonzero;stroke:none" transform="translate(797.59 596.05)"/></g><g clip-path="url(#b)" transform="matrix(.3125 0 0 -.3125 -245.15 190.35)"><path d="M786.87 591.51a1.8 1.8 0 0 1-1.78-1.82v-7.26c0-1 .8-1.81 1.78-1.81h3.58c.98 0 1.78.81 1.78 1.81v7.27c0 1-.8 1.81-1.78 1.81z" style="fill:url(#c);stroke:none"/></g><g clip-path="url(#d)" transform="matrix(.3125 0 0 -.3125 -245.15 190.35)"><path d="M784.75 601.5h22.1c-1.5 4.2-5.88 7.26-11.05 7.26-5.16 0-9.54-3.05-11.05-7.27" style="fill:url(#e);stroke:none"/></g><g clip-path="url(#f)" transform="matrix(.3125 0 0 -.3125 -245.15 190.35)"><path d="M795.8 608.49c4.92 0 9.08-2.82 10.66-6.72h-21.32c1.59 3.9 5.75 6.72 10.66 6.72v.54c-5.26 0-9.75-3.1-11.3-7.44l-.13-.37h22.48v.28l.25.09-.25-.1v-.27h.39l-.14.37c-1.54 4.33-6.03 7.44-11.3 7.44zm-11.3-6.9.25-.1z" style="fill:url(#g);stroke:none"/></g><g clip-path="url(#h)" transform="matrix(.3241 0 0 -.3241 -254.63 197.79)"><path d="M0 0c.5 0 1.17.12 1.98.36v-1.8c-.31-.13-.7-.25-1.16-.34a5.2 5.2 0 0 0-1.1-.14 3.8 3.8 0 0 0-2.63.83c-.6.56-.91 1.39-.91 2.5 0 .6.08 1.3.25 2.1l1.74 8.43h-2.36l.2 1.02 2.53 1.1 1.72 3.19h1.35l-.76-3.53h3.77l-.36-1.78H.51l-1.77-8.46a9.95 9.95 0 0 1-.25-1.85c0-.53.13-.93.4-1.21C-.85.14-.48 0 0 0m-7.4 2.72c0-1.46-.5-2.6-1.52-3.42-1-.81-2.43-1.22-4.27-1.22-1.55 0-2.95.32-4.2.97v2.21A8.48 8.48 0 0 1-13.25.03c1.16 0 2.03.23 2.61.7.59.46.88 1.06.88 1.8 0 .52-.16.97-.48 1.34a9.7 9.7 0 0 1-2.07 1.5 8.4 8.4 0 0 0-2.53 2 3.7 3.7 0 0 0-.75 2.32c0 1.3.47 2.33 1.4 3.12A5.42 5.42 0 0 0-10.54 14c1.57 0 3.08-.35 4.53-1.04l-.74-1.92-.77.35c-.92.4-1.93.6-3.02.6a3 3 0 0 1-2-.61c-.5-.4-.74-.93-.74-1.57a2 2 0 0 1 .48-1.35c.33-.37 1-.85 2.02-1.44.99-.56 1.69-1.04 2.1-1.44A3.69 3.69 0 0 0-7.4 2.72m-13.82 5.6c0 1.08-.29 1.94-.87 2.6a2.85 2.85 0 0 1-2.32 1.02 4 4 0 0 1-2.7-1.04 6.77 6.77 0 0 1-1.83-2.89 12.27 12.27 0 0 1-.65-4.09c0-1.22.29-2.17.87-2.84.58-.66 1.42-1 2.51-1 .95 0 1.81.34 2.57 1.03A6.64 6.64 0 0 1-21.87 4c.43 1.26.65 2.7.65 4.31m-3.24 5.6c1.74 0 3.11-.53 4.12-1.59a6.02 6.02 0 0 0 1.51-4.33c0-1.76-.33-3.41-.99-4.97A8.6 8.6 0 0 0-22.5-.6a6.19 6.19 0 0 0-3.82-1.27c-1.76 0-3.14.52-4.14 1.58-1 1.05-1.5 2.5-1.5 4.33 0 1.77.34 3.44 1 5a8.42 8.42 0 0 0 2.72 3.6 6.21 6.21 0 0 0 3.78 1.26M-39.53-1.64l2.04 9.7c.16.87.24 1.5.24 1.89 0 1.38-.67 2.07-2.02 2.07-.81 0-1.6-.27-2.39-.83a7.3 7.3 0 0 1-2.05-2.4 13.1 13.1 0 0 1-1.33-3.8l-1.39-6.63h-2.3l4.53 21.8h2.3l-.47-2.23a142.95 142.95 0 0 0-1.64-7.17h.15a9.27 9.27 0 0 0 2.55 2.47c.84.5 1.72.74 2.63.74 1.2 0 2.13-.34 2.78-1.01.66-.67.99-1.63.99-2.86 0-.58-.1-1.35-.32-2.32-.35-1.8-1.02-4.95-1.99-9.42zM-57.3 9.09h6.3l-2.11-9.96c-1.98-.7-3.9-1.05-5.76-1.05-2.42 0-4.3.67-5.65 2.02-1.34 1.35-2 3.24-2 5.66 0 2.51.46 4.8 1.38 6.85a11.39 11.39 0 0 0 3.88 4.8 9.38 9.38 0 0 0 5.48 1.73 14.1 14.1 0 0 0 5.85-1.18l-.9-2.13c-.7.32-1.47.6-2.28.83-.8.23-1.7.35-2.67.35a6.9 6.9 0 0 1-4.23-1.43 9.21 9.21 0 0 1-2.96-3.96c-.7-1.7-1.05-3.6-1.05-5.7 0-1.78.46-3.18 1.4-4.2A5.11 5.11 0 0 1-58.7.2c1.41 0 2.6.18 3.58.54l1.32 6.22h-3.98z" style="fill:#010648;fill-opacity:1;fill-rule:nonzero;stroke:none" transform="translate(883.02 590.04)"/></g><g clip-path="url(#i)" transform="matrix(.3241 0 0 -.3241 -254.63 197.79)"><path d="M937.6 610.2c-1.53 0-2.28-.69-2.28-2.08 0-1.4.75-2.1 2.27-2.1.76 0 1.33.18 1.7.54.39.38.58.9.58 1.56 0 1.39-.76 2.09-2.28 2.09zm-21.23-1.31-2.55-11.18a54.6 54.6 0 0 1-.99-5.37 59.69 59.69 0 0 1-.91 5.07L909 608.9h-4.02l-2.92-11.48a41.2 41.2 0 0 1-.93-5.07 68.4 68.4 0 0 1-.98 5.37l-2.56 11.18h-4.18l5.11-20.48h4.83l2.7 10.73c.12.47.29 1.27.5 2.38.22 1.12.36 1.93.42 2.44.03-.41.17-1.22.4-2.43.26-1.2.43-1.98.53-2.36l2.71-10.76h4.84l5.1 20.48zm29.67-1.49-1.21-3.3-2.3-1.43v-1.8h2v-7.56c0-1.73.38-3.03 1.14-3.9.76-.86 1.99-1.29 3.66-1.29 1.51 0 2.8.24 3.83.72v3.18a8.89 8.89 0 0 0-2.63-.5 2 2 0 0 0-1.33.44c-.33.3-.5.74-.5 1.35v7.55h4.3v3.2h-4.3v3.34zm32.73-3.85a5.82 5.82 0 0 1-1.92-2.12h-.2l-.62 2.64h-3.16V588.4h4.18v7.98c0 1.26.37 2.24 1.1 2.94a4.4 4.4 0 0 0 3.13 1.05c.49 0 .9-.05 1.24-.14l.31 4c-.37.1-.85.13-1.41.13-.95 0-1.83-.27-2.65-.81m-21.5-1.34c-1.29-1.43-1.92-3.46-1.92-6.09 0-2.55.69-4.52 2.08-5.9 1.39-1.4 3.32-2.1 5.78-2.1 1.2 0 2.21.1 3.05.28a9.7 9.7 0 0 1 2.34.83v3.3a11.25 11.25 0 0 0-5.2-1.23c-1.18 0-2.1.35-2.76 1.03a4.16 4.16 0 0 0-1.06 2.84h9.88v2.08c0 2.22-.6 3.96-1.8 5.22-1.21 1.26-2.9 1.9-5.06 1.9-2.27 0-4.05-.73-5.34-2.17m3.28-1.75c.5.58 1.2.87 2.08.87a2.7 2.7 0 0 0 2.12-.87 3.6 3.6 0 0 0 .8-2.43h-5.86a4 4 0 0 0 .86 2.43m-31.89 3.1a5.82 5.82 0 0 1-1.92-2.12h-.2l-.62 2.64h-3.17V588.4h4.19v7.98c0 1.26.37 2.24 1.1 2.94a4.4 4.4 0 0 0 3.13 1.05c.49 0 .9-.05 1.24-.14l.31 4a6.6 6.6 0 0 1-1.41.13c-.95 0-1.83-.27-2.65-.81m6.84-15.14h4.19v15.66h-4.19z" style="fill:url(#j);stroke:none"/></g><g clip-path="url(#k)" transform="matrix(.3241 0 0 -.3241 -254.63 197.79)"><path d="M0 0a2.3 2.3 0 0 1-1.98-.97 3.3 3.3 0 0 1-.5-1.14 5.97 5.97 0 0 1-.18-1.5c0-.75.09-1.4.28-1.92.18-.53.47-.94.86-1.21.4-.28.9-.42 1.52-.42.43 0 .86.05 1.3.14.43.1.9.24 1.4.42v-1.9a6.9 6.9 0 0 0-2.9-.53c-1.1 0-2 .22-2.7.67a4.04 4.04 0 0 0-1.56 1.9c-.34.82-.5 1.77-.5 2.86 0 .8.1 1.54.32 2.2A5 5 0 0 0-3.7.35c.42.49.94.87 1.56 1.13a6.06 6.06 0 0 0 3.71.2 8 8 0 0 0 1.52-.54L2.38-.7c-.4.18-.8.35-1.2.49C.78-.07.38 0 0 0" style="fill:#30abba;fill-opacity:1;fill-rule:nonzero;stroke:none" transform="translate(821.48 582.22)"/><path d="M0 0c0-.74.1-1.38.28-1.91.18-.54.48-.95.87-1.24.4-.28.91-.43 1.54-.43.64 0 1.16.15 1.56.43.4.3.68.7.86 1.24.18.53.27 1.17.27 1.91 0 1.11-.2 1.99-.62 2.63-.42.64-1.1.95-2.05.95-.64 0-1.15-.14-1.55-.43-.4-.28-.7-.7-.88-1.23A5.86 5.86 0 0 1 0 0m7.74 0c0-.82-.1-1.56-.3-2.23a4.75 4.75 0 0 0-.93-1.73 4.05 4.05 0 0 0-1.57-1.12 5.95 5.95 0 0 0-2.25-.38c-.86 0-1.61.13-2.25.38-.63.26-1.15.63-1.57 1.12a4.74 4.74 0 0 0-.92 1.73c-.2.67-.3 1.42-.3 2.24 0 1.1.17 2.06.53 2.87.36.82.92 1.45 1.67 1.9.75.45 1.7.68 2.86.68a5.4 5.4 0 0 0 2.84-.68 4.08 4.08 0 0 0 1.65-1.9c.36-.82.54-1.78.54-2.88" style="fill:#30abba;fill-opacity:1;fill-rule:nonzero;stroke:none" transform="translate(843.51 578.65)"/><path d="m0 0-2.55 8.32h-.07a211.94 211.94 0 0 1 .1-2.17c.03-.45.04-.85.04-1.22V0H-4.5v10.6h3.06l2.51-8.1h.04l2.67 8.1h3.06V0h-2.1v5.02a39 39 0 0 0 .07 2.4l.04.89H4.8L2.06 0Z" style="fill:#30abba;fill-opacity:1;fill-rule:nonzero;stroke:none" transform="translate(873.13 573.33)"/><path d="M0 0h-1.02v-3.15h.74c.42 0 .78.06 1.1.17a1.4 1.4 0 0 1 .97 1.43c0 .53-.15.92-.44 1.17C1.05-.13.61 0 0 0m.12 1.84c1.36 0 2.36-.3 3-.88.62-.59.94-1.4.94-2.43 0-.46-.07-.9-.21-1.33a2.94 2.94 0 0 0-1.96-1.9A5.78 5.78 0 0 0-.06-5h-.96v-3.77h-2.25V1.84Z" style="fill:#30abba;fill-opacity:1;fill-rule:nonzero;stroke:none" transform="translate(901.11 582.1)"/><path d="m0 0-.77 2.47a118.62 118.62 0 0 1-.43 1.42l-.2.7c-.04-.2-.1-.44-.2-.73l-.24-.83-.16-.56L-2.77 0Zm1.3-4.41L.55-1.9h-3.87l-.78-2.5h-2.42l3.74 10.65h2.75L3.73-4.41Z" style="fill:#30abba;fill-opacity:1;fill-rule:nonzero;stroke:none" transform="translate(927.54 577.74)"/><path d="M0 0h-2.86l-4.61 8.03h-.07A65.48 65.48 0 0 0-7.44 6l.04-1V0h-2.01v10.6h2.84l4.6-7.94h.05c0 .33-.02.66-.03.98l-.04.97c-.01.33-.03.65-.03.98v5.02H0Z" style="fill:#30abba;fill-opacity:1;fill-rule:nonzero;stroke:none" transform="translate(957.2 573.33)"/><path d="m0 0 2.21 4.37h2.43L1.12-2.11v-4.13h-2.24v4.06l-3.52 6.55h2.44z" style="fill:#30abba;fill-opacity:1;fill-rule:nonzero;stroke:none" transform="translate(978.36 579.57)"/></g></svg>