<svg width="211" height="204" fill="none" xmlns="http://www.w3.org/2000/svg"><g clip-path="url(#a)"><path d="m105.336 157.369 40.119-44.643H65.218l40.118 44.643z" fill="#FC9D8A"/><path d="m105.336 157.369 40.119-44.643h-40.119v44.643z" fill="#EF9482"/><path d="m105.336 157.369 20.059-22.322H85.277l20.059 22.322z" fill="#010648"/><path d="M144.094 101.564h-76.59v11.161h76.59v-11.161z" fill="#FAB680"/><path d="M144.094 101.564h-36.471v11.161h36.471v-11.161z" fill="#D09668"/><path d="M141.808 34.599h-14.589c-4.029 0-7.294 3.331-7.294 7.44v66.966c0 4.109 3.265 7.44 7.294 7.44h14.589c4.028 0 7.294-3.331 7.294-7.44V42.039c0-4.109-3.266-7.44-7.294-7.44z" fill="#6165D7"/><path d="M112.631 53.2H98.042c-4.029 0-7.294 3.332-7.294 7.441v48.364c0 4.109 3.265 7.441 7.294 7.441h14.589c4.028 0 7.294-3.332 7.294-7.441V60.641c0-4.11-3.266-7.44-7.294-7.44z" fill="#30ABBA"/><path d="M61.57 79.243c0-4.11 3.266-7.441 7.295-7.441h14.589c4.028 0 7.294 3.331 7.294 7.44v29.763c0 4.11-3.266 7.441-7.294 7.441h-14.59c-4.028 0-7.293-3.331-7.293-7.441V79.243z" fill="url(#b)"/><path fill-rule="evenodd" clip-rule="evenodd" d="M60.21 30.879h90.252c-6.153-17.27-24.03-29.763-45.126-29.763-21.095 0-38.973 12.492-45.126 29.763z" fill="url(#c)"/><path d="m60.21 30.878-1.028-.38-.534 1.497h1.562v-1.117zm90.252 0v1.117h1.562l-.533-1.498-1.029.381zM60.21 31.995h90.252v-2.233H60.21v2.233zm45.126-29.763c20.689 0 38.119 12.248 44.098 29.028l2.057-.763C145.163 12.737 126.838 0 105.336 0v2.232zM61.239 31.26c5.978-16.78 23.408-29.028 44.097-29.028V0C83.834 0 65.51 12.736 59.182 30.497l2.056.763z" fill="url(#d)"/><path d="M11.698 189.981H19.7l-2.685 12.681c-2.51.892-4.945 1.338-7.305 1.338-3.068 0-5.456-.856-7.165-2.568C.848 199.708 0 197.306 0 194.226c0-3.199.587-6.106 1.76-8.722 1.186-2.628 2.825-4.667 4.917-6.117 2.092-1.463 4.41-2.194 6.956-2.194 1.36 0 2.633.119 3.818.356 1.197.238 2.4.619 3.609 1.142l-1.15 2.711a21.363 21.363 0 0 0-2.895-1.052c-1.023-.298-2.15-.446-3.382-.446-1.964 0-3.754.606-5.37 1.819-1.603 1.201-2.853 2.884-3.748 5.048-.894 2.164-1.342 4.583-1.342 7.259 0 2.259.593 4.037 1.778 5.333 1.197 1.296 2.865 1.944 5.004 1.944 1.79 0 3.3-.232 4.532-.696l1.674-7.919h-5.038l.575-2.711zm22.56 13.662 2.58-12.342c.209-1.118.313-1.92.313-2.408 0-1.76-.854-2.64-2.562-2.64-1.035 0-2.046.351-3.034 1.053-.976.701-1.842 1.724-2.597 3.067-.744 1.332-1.308 2.943-1.692 4.834l-1.76 8.436h-2.93l5.754-27.752h2.929l-.61 2.836a178 178 0 0 1-.593 2.8c-.198.939-.418 1.926-.663 2.961a107.082 107.082 0 0 1-.82 3.371h.193c1.092-1.463 2.167-2.509 3.225-3.14 1.07-.63 2.185-.945 3.347-.945 1.523 0 2.697.428 3.522 1.284.837.857 1.255 2.069 1.255 3.639 0 .737-.134 1.724-.4 2.961-.454 2.295-1.297 6.29-2.529 11.985h-2.929zm19.107-19.797c2.208 0 3.951.671 5.23 2.015 1.278 1.332 1.918 3.169 1.918 5.511 0 2.236-.419 4.346-1.256 6.332-.836 1.986-1.97 3.52-3.4 4.602-1.429 1.082-3.045 1.623-4.846 1.623-2.231 0-3.98-.672-5.247-2.016-1.267-1.343-1.9-3.18-1.9-5.511 0-2.259.424-4.382 1.272-6.367.848-1.998 1.993-3.526 3.434-4.584 1.442-1.07 3.04-1.605 4.795-1.605zm4.114 7.116c0-1.367-.366-2.473-1.099-3.317-.72-.856-1.702-1.285-2.946-1.285-1.266 0-2.405.44-3.416 1.32-1 .88-1.779 2.105-2.337 3.674-.546 1.558-.82 3.294-.82 5.209 0 1.557.367 2.764 1.1 3.62.743.844 1.806 1.267 3.19 1.267 1.209 0 2.295-.434 3.26-1.303.965-.868 1.714-2.098 2.249-3.692.546-1.605.819-3.436.819-5.493zm17.538 7.134c0 1.855-.644 3.306-1.935 4.352-1.278 1.035-3.086 1.552-5.422 1.552-1.964 0-3.736-.41-5.317-1.231v-2.818c.813.5 1.691.886 2.632 1.16.942.273 1.814.41 2.616.41 1.464 0 2.568-.297 3.312-.892.744-.594 1.116-1.355 1.116-2.283 0-.678-.204-1.248-.61-1.712-.407-.464-1.285-1.1-2.633-1.909-1.511-.868-2.58-1.718-3.208-2.55-.627-.832-.941-1.819-.941-2.961 0-1.641.587-2.961 1.76-3.959 1.175-1.011 2.72-1.516 4.638-1.516 1.988 0 3.905.439 5.753 1.319l-.941 2.444-.977-.446c-1.173-.511-2.452-.767-3.835-.767-1.081 0-1.93.262-2.545.785-.616.511-.924 1.177-.924 1.997 0 .666.203 1.237.61 1.713.418.475 1.273 1.088 2.563 1.837 1.243.713 2.132 1.326 2.667 1.837.546.511.953 1.064 1.22 1.659.268.582.401 1.242.401 1.979zm9.38 3.461c.64 0 1.476-.155 2.51-.464v2.301a7.96 7.96 0 0 1-1.463.428c-.582.119-1.048.178-1.396.178-1.453 0-2.568-.351-3.347-1.052-.767-.714-1.15-1.772-1.15-3.175 0-.785.104-1.677.313-2.675l2.214-10.738H79.08l.245-1.302 3.225-1.391 2.18-4.066h1.708l-.96 4.494h4.777l-.452 2.265h-4.76l-2.25 10.773c-.209 1.035-.313 1.82-.313 2.355 0 .666.169 1.177.506 1.533.336.357.807.536 1.411.536z" fill="#010648"/><path d="M125.533 203.643h-6.138l-3.443-13.698c-.127-.487-.347-1.492-.66-3.014-.302-1.534-.476-2.562-.523-3.085-.069.642-.243 1.676-.521 3.103-.277 1.415-.493 2.426-.644 3.032l-3.425 13.662h-6.12l-6.487-26.076h5.304l3.252 14.233c.567 2.628.98 4.905 1.234 6.831.07-.677.226-1.724.469-3.139.256-1.427.494-2.532.714-3.317l3.704-14.608h5.094l3.704 14.608c.163.654.365 1.653.61 2.996.242 1.344.428 2.497.555 3.46.116-.927.302-2.08.557-3.46a61.87 61.87 0 0 1 .695-3.371l3.234-14.233h5.304l-6.469 26.076zm20.102-20.315c.719 0 1.316.054 1.791.161l-.4 5.101c-.428-.119-.951-.178-1.565-.178-1.692 0-3.013.445-3.965 1.337-.938.892-1.408 2.14-1.408 3.746v10.148h-5.304v-19.94h4.017l.782 3.353h.261a7.38 7.38 0 0 1 2.434-2.693c1.033-.69 2.151-1.035 3.357-1.035zm5.095-4.78c0-1.771.962-2.657 2.886-2.657 1.924 0 2.887.886 2.887 2.657 0 .845-.243 1.504-.73 1.98-.476.464-1.194.696-2.157.696-1.924 0-2.886-.892-2.886-2.676zm5.53 25.095h-5.303v-19.94h5.303v19.94zm13.772-3.977c.927 0 2.04-.208 3.338-.624v4.048c-1.321.607-2.944.91-4.868.91-2.121 0-3.669-.547-4.644-1.641-.961-1.106-1.443-2.758-1.443-4.958v-9.614h-2.539v-2.301l2.922-1.819 1.53-4.209h3.39v4.245h5.444v4.084h-5.444v9.614c0 .773.209 1.343.627 1.712.429.369.991.553 1.687.553zm15.336-12.467c-1.124 0-2.006.368-2.643 1.106-.637.725-1.002 1.759-1.095 3.103h7.442c-.023-1.344-.365-2.378-1.025-3.103-.662-.738-1.555-1.106-2.679-1.106zm.748 16.801c-3.13 0-5.576-.886-7.337-2.657-1.763-1.772-2.643-4.281-2.643-7.527 0-3.341.811-5.922 2.434-7.741 1.634-1.831 3.889-2.747 6.764-2.747 2.747 0 4.886.803 6.417 2.408 1.529 1.605 2.295 3.823 2.295 6.653v2.64h-12.538c.059 1.545.505 2.752 1.339 3.62.835.868 2.006 1.302 3.513 1.302 1.17 0 2.278-.125 3.321-.374 1.043-.25 2.133-.648 3.269-1.195v4.209c-.928.476-1.918.826-2.974 1.052-1.054.238-2.342.357-3.86.357zm23.092-20.672c.72 0 1.316.054 1.792.161l-.4 5.101c-.429-.119-.95-.178-1.565-.178-1.693 0-3.014.445-3.964 1.337-.94.892-1.409 2.14-1.409 3.746v10.148h-5.304v-19.94h4.016l.784 3.353h.261a7.363 7.363 0 0 1 2.434-2.693c1.031-.69 2.151-1.035 3.355-1.035z" fill="url(#e)"/></g><defs><linearGradient id="b" x1="66.381" y1="116.368" x2="99.549" y2="96.48" gradientUnits="userSpaceOnUse"><stop stop-color="#30ABBA"/><stop offset="1" stop-color="#6165D7"/></linearGradient><linearGradient id="c" x1="81.835" y1="30.798" x2="95.493" y2="-13.018" gradientUnits="userSpaceOnUse"><stop stop-color="#30ABBA"/><stop offset="1" stop-color="#6165D7"/></linearGradient><linearGradient id="d" x1="83.647" y1="19.917" x2="85.093" y2="6.444" gradientUnits="userSpaceOnUse"><stop stop-color="#30ABBA"/><stop offset="1" stop-color="#6165D7"/></linearGradient><linearGradient id="e" x1="116.274" y1="203.951" x2="128.194" y2="159.821" gradientUnits="userSpaceOnUse"><stop stop-color="#30ABBA"/><stop offset="1" stop-color="#6165D7"/></linearGradient><clipPath id="a"><path fill="#fff" d="M0 0h211v204H0z"/></clipPath></defs></svg>