<svg width="307.521" height="60" fill="none" xmlns="http://www.w3.org/2000/svg"><g clip-path="url(#a)" transform="matrix(1 0 0 .9946 -.254 0)"><path d="m17.917 60.326 15.179-16.83H2.739z" fill="#fc9d8a"/><path d="m17.917 60.326 15.179-16.83H17.918z" fill="#ef9482"/><path d="m17.917 60.326 7.59-8.415H10.328z" fill="#010648"/><path d="M32.581 39.288H3.604v4.208h28.977z" fill="#fab680"/><path d="M32.581 39.288H18.782v4.208h13.799z" fill="#d09668"/><path d="M31.716 14.043h-5.52c-1.524 0-2.76 1.256-2.76 2.805v25.245c0 1.55 1.236 2.805 2.76 2.805h5.52c1.524 0 2.76-1.256 2.76-2.805V16.848c0-1.549-1.236-2.805-2.76-2.805z" fill="#6165d7"/><path d="M20.677 21.056h-5.52c-1.524 0-2.759 1.256-2.759 2.805v18.233c0 1.549 1.235 2.805 2.76 2.805h5.52c1.523 0 2.759-1.256 2.759-2.805V23.86c0-1.55-1.236-2.805-2.76-2.805z" fill="#010648"/><path d="M1.36 30.873c0-1.549 1.235-2.805 2.759-2.805h5.52c1.524 0 2.759 1.256 2.759 2.805v11.22c0 1.55-1.236 2.805-2.76 2.805h-5.52c-1.523 0-2.759-1.255-2.759-2.805z" fill="url(#b)" style="fill:url(#b)"/><path fill-rule="evenodd" clip-rule="evenodd" d="M.844 12.64H34.99C32.662 6.13 25.898 1.42 17.917 1.42 9.937 1.42 3.172 6.13.844 12.64z" fill="url(#c)" style="fill:url(#c)"/><path d="m.844 12.64-.389-.143-.201.565h.59zm34.146 0v.421h.591l-.202-.564zm-34.146.421H34.99v-.841H.844zm17.073-11.22c7.828 0 14.422 4.618 16.684 10.944l.778-.288C32.985 5.801 26.052 1 17.917 1zM1.234 12.786C3.495 6.458 10.09 1.84 17.917 1.84V1C9.782 1 2.85 5.801.455 12.497z" fill="url(#d)" style="fill:url(#d)"/><path d="M62.075 25.733h15.101l-5.067 23.76C67.373 51.165 62.777 52 58.325 52c-5.79 0-10.296-1.604-13.52-4.812C41.6 43.958 40 39.457 40 33.686c0-5.993 1.108-11.44 3.322-16.341C45.56 12.42 48.652 8.6 52.6 5.882c3.948-2.74 8.324-4.11 13.127-4.11 2.566 0 4.968.222 7.205.668 2.259.445 4.529 1.158 6.81 2.138l-2.17 5.08a40.503 40.503 0 0 0-5.463-1.972c-1.93-.556-4.057-.835-6.382-.835-3.707 0-7.084 1.136-10.133 3.409-3.026 2.25-5.384 5.403-7.073 9.457-1.689 4.055-2.534 8.59-2.534 13.602 0 4.233 1.12 7.564 3.356 9.992 2.26 2.429 5.407 3.643 9.443 3.643 3.377 0 6.229-.435 8.553-1.303l3.159-14.838h-9.509zM104.481 52l4.869-23.126c.395-2.094.593-3.598.593-4.511 0-3.298-1.613-4.947-4.836-4.947-1.953 0-3.861.658-5.725 1.972-1.843 1.315-3.477 3.23-4.902 5.748-1.404 2.496-2.468 5.514-3.191 9.057L87.966 52h-5.527L93.294 0h5.527c-.395 1.827-.778 3.598-1.151 5.314a332.328 332.328 0 0 1-1.119 5.247c-.372 1.76-.789 3.609-1.25 5.547a198.775 198.775 0 0 1-1.546 6.316h.362c2.062-2.74 4.09-4.7 6.086-5.882 2.018-1.18 4.124-1.77 6.317-1.77 2.873 0 5.088.801 6.646 2.405 1.579 1.604 2.338 3.75 2.338 6.69 0 1.382-.252 3.231-.756 5.548-.856 4.3-2.416 11.913-4.741 22.585zm35.955-37.63c4.168 0 7.457 1.259 9.87 3.776 2.413 2.496 3.619 5.938 3.619 10.327 0 4.188-.79 8.143-2.369 11.864-1.579 3.72-3.717 6.594-6.415 8.622-2.698 2.027-5.747 3.04-9.146 3.04-4.211 0-7.512-1.258-9.902-3.776-2.391-2.517-3.587-5.96-3.587-10.326 0-4.233.801-8.21 2.402-11.93 1.601-3.743 3.762-6.606 6.481-8.59 2.72-2.004 5.735-3.007 9.047-3.007zm7.764 12.35c0-2.562-.69-3.65-2.072-5.232-1.36-1.604-3.214-2.406-5.56-2.406-2.391 0-4.54.824-6.448 2.473-1.887 1.649-3.356 3.944-4.409 6.884-1.031 2.92-1.546 6.172-1.546 9.759 0 2.919.691 5.18 2.073 6.784 1.403 1.582 3.41 2.373 6.02 2.373 2.282 0 4.332-.813 6.152-2.44 1.821-1.627 3.236-3.932 4.244-6.918 1.031-3.007 1.546-7.422 1.546-11.276zm33.123 14.218c0 3.476-1.217 6.194-3.652 8.155C175.259 51.03 171.848 52 167.44 52c-3.707 0-7.051-.769-10.035-2.306v-5.28a20.317 20.317 0 0 0 4.968 2.172c1.777.513 3.421.769 4.935.769 2.764 0 4.847-.557 6.251-1.671 1.404-1.114 2.105-2.54 2.105-4.278 0-1.27-.384-2.34-1.151-3.208-.768-.869-2.423-2.06-4.968-3.576-2.851-1.626-4.869-3.22-6.053-4.779-1.184-1.56-1.777-3.408-1.777-5.547 0-3.075 1.108-5.548 3.323-7.42 2.216-1.893 5.132-2.84 8.751-2.84 3.751 0 7.369.824 10.857 2.473l-1.777 4.579-1.842-.836c-2.215-.958-4.628-1.437-7.238-1.437-2.04 0-3.641.49-4.803 1.47-1.163.959-1.744 2.206-1.744 3.743 0 1.248.384 2.317 1.152 3.209.789.89 2.401 2.038 4.836 3.442 2.346 1.337 4.024 2.484 5.034 3.442 1.031.958 1.798 1.994 2.302 3.108.505 1.092.757 2.328.757 3.71zm17.622 6.484c1.208 0 2.787-.29 4.739-.87v4.312c-.746.312-1.668.58-2.762.802-1.098.223-1.977.334-2.633.334-2.742 0-4.848-.657-6.317-1.972-1.448-1.337-2.171-3.32-2.171-5.948 0-1.47.197-3.142.592-5.013l4.178-20.118h-5.659l.461-2.44 6.086-2.607 4.113-7.62h3.224l-1.81 8.422H210l-.854 4.245h-8.982l-4.244 20.185c-.395 1.938-.592 3.408-.592 4.411 0 1.248.318 2.206.954 2.874.635.668 1.523 1.003 2.663 1.003z" fill="#010648"/><path d="M240.13 29.645h-4.858L232.547 18.9c-.1-.382-.275-1.17-.522-2.364-.239-1.204-.377-2.01-.414-2.421-.055.504-.192 1.315-.413 2.434a52.755 52.755 0 0 1-.509 2.379l-2.711 10.717h-4.844L218 9.19h4.198l2.574 11.165c.449 2.061.775 3.848.976 5.359.056-.532.179-1.353.372-2.463.202-1.119.39-1.987.564-2.602l2.932-11.459h4.032l2.932 11.459c.129.513.289 1.296.482 2.35.192 1.054.339 1.96.44 2.715.091-.728.238-1.632.441-2.714a47.9 47.9 0 0 1 .549-2.645l2.56-11.165h4.198zm15.91-15.936c.569 0 1.042.042 1.418.126l-.317 4.002c-.339-.094-.752-.14-1.238-.14-1.339 0-2.385.35-3.138 1.05-.743.699-1.115 1.678-1.115 2.937v7.961h-4.198V14.003h3.18l.619 2.63h.206a5.81 5.81 0 0 1 1.927-2.112 4.717 4.717 0 0 1 2.656-.812zm4.033-3.75c0-1.39.761-2.084 2.284-2.084 1.523 0 2.285.695 2.285 2.085 0 .662-.192 1.18-.578 1.553-.376.363-.945.545-1.707.545-1.523 0-2.284-.7-2.284-2.098zm4.377 19.686h-4.198V14.003h4.198zm10.9-3.12c.734 0 1.615-.163 2.642-.49v3.177c-1.046.475-2.33.713-3.853.713-1.679 0-2.904-.429-3.675-1.287-.761-.868-1.143-2.164-1.143-3.89v-7.54h-2.009v-1.806l2.312-1.427 1.211-3.302h2.684v3.33h4.308v3.204h-4.308v7.541c0 .607.165 1.054.496 1.343.339.29.784.434 1.335.434zm12.138-9.78c-.89 0-1.587.29-2.092.868-.504.569-.793 1.38-.866 2.434h5.89c-.019-1.054-.29-1.865-.812-2.434-.523-.578-1.23-.868-2.12-.868zm.592 13.18c-2.477 0-4.413-.695-5.807-2.085-1.395-1.39-2.092-3.357-2.092-5.904 0-2.62.642-4.645 1.927-6.072 1.293-1.436 3.078-2.155 5.353-2.155 2.174 0 3.868.63 5.079 1.89 1.21 1.258 1.816 2.998 1.816 5.218v2.07h-9.923c.046 1.213.4 2.16 1.06 2.84.66.682 1.588 1.022 2.78 1.022.926 0 1.803-.098 2.629-.294a13.02 13.02 0 0 0 2.587-.937v3.302a9.532 9.532 0 0 1-2.354.825c-.834.187-1.853.28-3.055.28zm18.277-16.216c.57 0 1.042.042 1.418.126l-.317 4.002c-.339-.094-.752-.14-1.238-.14-1.34 0-2.386.35-3.138 1.05-.744.699-1.115 1.678-1.115 2.937v7.961h-4.198V14.003h3.179l.62 2.63h.206a5.818 5.818 0 0 1 1.927-2.112 4.717 4.717 0 0 1 2.656-.812z" fill="url(#e)" style="fill:url(#e)"/><path d="M225.214 40.4c-.812 0-1.544.251-2.196.753-.645.503-1.165 1.244-1.559 2.224a8.321 8.321 0 0 0-.59 3.144c0 1.036.209 1.805.627 2.307.425.502 1.098.753 2.02.753.898 0 1.938-.238 3.118-.716v2.419a10.077 10.077 0 0 1-3.69.716c-1.562 0-2.776-.462-3.643-1.386-.867-.93-1.301-2.245-1.301-3.944 0-1.625.32-3.12.959-4.484.64-1.37 1.495-2.41 2.565-3.116 1.07-.713 2.3-1.07 3.69-1.07.768 0 1.451.071 2.048.214.596.136 1.236.39 1.918.763l-1.088 2.325c-.652-.366-1.19-.607-1.614-.725a4.714 4.714 0 0 0-1.264-.177z" fill="#000"/><path d="M225.214 40.4c-.812 0-1.544.251-2.196.753-.645.503-1.165 1.244-1.559 2.224a8.321 8.321 0 0 0-.59 3.144c0 1.036.209 1.805.627 2.307.425.502 1.098.753 2.02.753.898 0 1.938-.238 3.118-.716v2.419a10.077 10.077 0 0 1-3.69.716c-1.562 0-2.776-.462-3.643-1.386-.867-.93-1.301-2.245-1.301-3.944 0-1.625.32-3.12.959-4.484.64-1.37 1.495-2.41 2.565-3.116 1.07-.713 2.3-1.07 3.69-1.07.768 0 1.451.071 2.048.214.596.136 1.236.39 1.918.763l-1.088 2.325c-.652-.366-1.19-.607-1.614-.725a4.714 4.714 0 0 0-1.264-.177z" fill="url(#f)" style="fill:url(#f)"/><path d="M241.255 43.088c0 1.755-.304 3.327-.913 4.717-.609 1.383-1.442 2.428-2.5 3.134-1.057.707-2.275 1.061-3.653 1.061-1.574 0-2.804-.456-3.69-1.367-.879-.918-1.319-2.19-1.319-3.814 0-1.644.305-3.154.914-4.53.608-1.384 1.448-2.444 2.518-3.182 1.07-.738 2.306-1.107 3.708-1.107 1.568 0 2.783.447 3.644 1.34.861.893 1.291 2.142 1.291 3.748zM236.09 40.4c-.744 0-1.427.285-2.048.856-.621.564-1.11 1.342-1.467 2.335-.35.992-.526 2.068-.526 3.228 0 .911.203 1.6.609 2.065.412.465.99.697 1.734.697s1.421-.27 2.03-.809c.615-.54 1.094-1.302 1.439-2.288.344-.986.516-2.093.516-3.321 0-.88-.199-1.56-.599-2.037-.4-.484-.963-.726-1.688-.726z" fill="#000"/><path d="M241.255 43.088c0 1.755-.304 3.327-.913 4.717-.609 1.383-1.442 2.428-2.5 3.134-1.057.707-2.275 1.061-3.653 1.061-1.574 0-2.804-.456-3.69-1.367-.879-.918-1.319-2.19-1.319-3.814 0-1.644.305-3.154.914-4.53.608-1.384 1.448-2.444 2.518-3.182 1.07-.738 2.306-1.107 3.708-1.107 1.568 0 2.783.447 3.644 1.34.861.893 1.291 2.142 1.291 3.748zM236.09 40.4c-.744 0-1.427.285-2.048.856-.621.564-1.11 1.342-1.467 2.335-.35.992-.526 2.068-.526 3.228 0 .911.203 1.6.609 2.065.412.465.99.697 1.734.697s1.421-.27 2.03-.809c.615-.54 1.094-1.302 1.439-2.288.344-.986.516-2.093.516-3.321 0-.88-.199-1.56-.599-2.037-.4-.484-.963-.726-1.688-.726z" fill="url(#g)" style="fill:url(#g)"/><path d="M249.537 48.567 254.62 38.4h3.902l-2.85 13.6h-2.583l1.337-6.437c.326-1.532.649-2.9.969-4.102h-.046L250.1 52h-2.592l-.563-10.54h-.037a37.17 37.17 0 0 1-.35 2.15c-.166.886-.741 3.683-1.725 8.39h-2.537l2.85-13.6h3.727l.627 10.167z" fill="#000"/><path d="M249.537 48.567 254.62 38.4h3.902l-2.85 13.6h-2.583l1.337-6.437c.326-1.532.649-2.9.969-4.102h-.046L250.1 52h-2.592l-.563-10.54h-.037a37.17 37.17 0 0 1-.35 2.15c-.166.886-.741 3.683-1.725 8.39h-2.537l2.85-13.6h3.727l.627 10.167z" fill="url(#h)" style="fill:url(#h)"/><path d="M263.284 44.856h.517c.873 0 1.559-.214 2.057-.642.504-.428.756-1.002.756-1.721 0-1.116-.599-1.674-1.799-1.674h-.682zm6.162-2.437c0 1.494-.523 2.67-1.568 3.525-1.039.85-2.475 1.275-4.308 1.275h-.793l-1.006 4.837h-2.813l2.85-13.6h3.118c1.488 0 2.614.332 3.376.995.763.657 1.144 1.647 1.144 2.968z" fill="#000"/><path d="M263.284 44.856h.517c.873 0 1.559-.214 2.057-.642.504-.428.756-1.002.756-1.721 0-1.116-.599-1.674-1.799-1.674h-.682zm6.162-2.437c0 1.494-.523 2.67-1.568 3.525-1.039.85-2.475 1.275-4.308 1.275h-.793l-1.006 4.837h-2.813l2.85-13.6h3.118c1.488 0 2.614.332 3.376.995.763.657 1.144 1.647 1.144 2.968z" fill="url(#i)" style="fill:url(#i)"/><path d="M276.254 48.819h-4.363l-1.587 3.237h-2.952l7.066-13.656h3.441l1.356 13.656h-2.74zm-.138-2.419-.24-3.256a30.937 30.937 0 0 1-.092-2.353v-.335a25.936 25.936 0 0 1-1.006 2.363l-1.734 3.581z" fill="#000"/><path d="M276.254 48.819h-4.363l-1.587 3.237h-2.952l7.066-13.656h3.441l1.356 13.656h-2.74zm-.138-2.419-.24-3.256a30.937 30.937 0 0 1-.092-2.353v-.335a25.936 25.936 0 0 1-1.006 2.363l-1.734 3.581z" fill="url(#j)" style="fill:url(#j)"/><path d="M291.814 52h-3.155l-3.284-10.288h-.055l-.037.297c-.197 1.34-.4 2.537-.609 3.591l-1.337 6.4H280.8l2.85-13.6h3.293l3.137 10.019h.037c.073-.472.193-1.145.359-2.019.166-.874.72-3.541 1.661-8h2.527z" fill="#000"/><path d="M291.814 52h-3.155l-3.284-10.288h-.055l-.037.297c-.197 1.34-.4 2.537-.609 3.591l-1.337 6.4H280.8l2.85-13.6h3.293l3.137 10.019h.037c.073-.472.193-1.145.359-2.019.166-.874.72-3.541 1.661-8h2.527z" fill="url(#k)" style="fill:url(#k)"/><path d="m300.395 43.907 3.45-5.507H307l-5.701 8.4-1.098 5.2h-2.795l1.098-5.2-2.177-8.4h2.878z" fill="#000"/><path d="m300.395 43.907 3.45-5.507H307l-5.701 8.4-1.098 5.2h-2.795l1.098-5.2-2.177-8.4h2.878z" fill="url(#l)" style="fill:url(#l)"/></g><defs><linearGradient id="h" x1="231.661" y1="56.533" x2="243.715" y2="17.463" gradientUnits="userSpaceOnUse"><stop stop-color="#30ABBA"/><stop offset="1" stop-color="#6165D7"/></linearGradient><linearGradient id="b" x1="3.179" y1="44.869" x2="15.704" y2="37.332" gradientUnits="userSpaceOnUse"><stop stop-color="#30ABBA"/><stop offset="1" stop-color="#6165D7"/></linearGradient><linearGradient id="d" x1="6.078" y1="13.041" x2="12.719" y2="-4.806" gradientUnits="userSpaceOnUse"><stop stop-color="#30ABBA"/><stop offset="1" stop-color="#6165D7"/></linearGradient><linearGradient id="e" x1="232.802" y1="29.887" x2="242.08" y2="-4.773" gradientUnits="userSpaceOnUse"><stop stop-color="#30ABBA"/><stop offset="1" stop-color="#6165D7"/></linearGradient><linearGradient id="f" x1="231.661" y1="56.533" x2="243.715" y2="17.463" gradientUnits="userSpaceOnUse"><stop stop-color="#30ABBA"/><stop offset="1" stop-color="#6165D7"/></linearGradient><linearGradient id="g" x1="231.661" y1="56.533" x2="243.715" y2="17.463" gradientUnits="userSpaceOnUse"><stop stop-color="#30ABBA"/><stop offset="1" stop-color="#6165D7"/></linearGradient><linearGradient id="c" x1="6.474" y1="12.621" x2="12.474" y2="-4.13" gradientUnits="userSpaceOnUse"><stop stop-color="#30ABBA"/><stop offset="1" stop-color="#6165D7"/></linearGradient><linearGradient id="i" x1="231.661" y1="56.533" x2="243.715" y2="17.463" gradientUnits="userSpaceOnUse"><stop stop-color="#30ABBA"/><stop offset="1" stop-color="#6165D7"/></linearGradient><linearGradient id="j" x1="231.661" y1="56.533" x2="243.715" y2="17.463" gradientUnits="userSpaceOnUse"><stop stop-color="#30ABBA"/><stop offset="1" stop-color="#6165D7"/></linearGradient><linearGradient id="k" x1="231.661" y1="56.533" x2="243.715" y2="17.463" gradientUnits="userSpaceOnUse"><stop stop-color="#30ABBA"/><stop offset="1" stop-color="#6165D7"/></linearGradient><linearGradient id="l" x1="231.661" y1="56.533" x2="243.715" y2="17.463" gradientUnits="userSpaceOnUse"><stop stop-color="#30ABBA"/><stop offset="1" stop-color="#6165D7"/></linearGradient><clipPath id="a"><path fill="#fff" d="M0 0h308v61H0z"/></clipPath></defs></svg>