<svg width="200" height="40" fill="none" xmlns="http://www.w3.org/2000/svg"><g clip-path="url(#a)"><path d="m12.01 39.572 9.824-10.892H2.188l9.823 10.892z" fill="#FC9D8A"/><path d="m12.011 39.572 9.823-10.892h-9.823v10.892z" fill="#EF9482"/><path d="m12.011 39.572 4.912-5.446H7.099l4.912 5.446z" fill="#010648"/><path d="M21.501 25.956H2.748v2.724H21.5v-2.724z" fill="#FAB680"/><path d="M21.501 25.956h-8.93v2.724h8.93v-2.724z" fill="#D09668"/><path d="M20.941 9.618H17.37c-.986 0-1.786.813-1.786 1.815v16.339c0 1.003.8 1.815 1.786 1.815h3.572c.987 0 1.786-.813 1.786-1.815V11.433c0-1.002-.8-1.815-1.786-1.815z" fill="#6165D7"/><path d="M13.797 14.157h-3.572c-.986 0-1.786.812-1.786 1.815v11.8c0 1.003.8 1.815 1.786 1.815h3.572c.987 0 1.786-.812 1.786-1.815v-11.8c0-1.003-.8-1.815-1.786-1.815z" fill="#010648"/><path d="M1.295 20.51c0-1.002.8-1.815 1.786-1.815h3.572c.986 0 1.786.813 1.786 1.815v7.262c0 1.003-.8 1.815-1.786 1.815H3.08c-.987 0-1.786-.812-1.786-1.815V20.51z" fill="url(#b)"/><path fill-rule="evenodd" clip-rule="evenodd" d="M.962 8.71H23.06C21.553 4.497 17.175 1.45 12.01 1.45c-5.165 0-9.543 3.048-11.05 7.261z" fill="url(#c)"/><path d="M.962 8.71.71 8.617l-.13.366h.382V8.71zm22.099 0v.273h.382l-.13-.366-.252.093zm-22.1.273h22.1v-.545H.96v.545zm11.05-7.262c5.066 0 9.334 2.988 10.798 7.082l.503-.186c-1.55-4.333-6.036-7.44-11.301-7.44v.544zM1.213 8.803C2.677 4.71 6.945 1.721 12.011 1.721v-.545C6.746 1.176 2.259 4.284.71 8.617l.503.186z" fill="url(#d)"/><path d="M41.915 11.069h6.308l-2.116 9.962c-1.98.7-3.899 1.05-5.76 1.05-2.418 0-4.3-.672-5.648-2.017-1.338-1.355-2.007-3.241-2.007-5.66 0-2.513.463-4.797 1.388-6.852.935-2.064 2.227-3.666 3.876-4.806a9.381 9.381 0 0 1 5.484-1.723c1.072 0 2.076.093 3.01.28a14.09 14.09 0 0 1 2.845.897l-.907 2.13a16.882 16.882 0 0 0-2.281-.827c-.807-.234-1.695-.35-2.667-.35-1.548 0-2.96.476-4.233 1.429-1.264.943-2.25 2.265-2.955 3.965-.705 1.7-1.058 3.6-1.058 5.702 0 1.775.467 3.171 1.402 4.19.943 1.018 2.258 1.527 3.944 1.527 1.411 0 2.603-.182 3.574-.547l1.32-6.22H41.46l.454-2.13zM59.7 21.8l2.034-9.695c.165-.878.247-1.509.247-1.892 0-1.382-.673-2.074-2.02-2.074-.816 0-1.613.276-2.392.827-.77.551-1.452 1.354-2.047 2.41-.587 1.046-1.031 2.312-1.334 3.797L52.8 21.801h-2.309L55.027 0h2.309l-.481 2.228c-.147.719-.303 1.452-.468 2.2a96.04 96.04 0 0 1-.522 2.325 83.653 83.653 0 0 1-.646 2.648h.151c.862-1.148 1.71-1.97 2.543-2.466.843-.495 1.723-.742 2.64-.742 1.2 0 2.125.336 2.775 1.009.66.672.99 1.625.99 2.858 0 .58-.106 1.354-.316 2.326-.358 1.803-1.022 4.941-1.993 9.415h-2.31zM74.763 6.25c1.741 0 3.116.528 4.124 1.583 1.008 1.046 1.512 2.49 1.512 4.33 0 1.756-.33 3.414-.99 4.974-.66 1.56-1.553 2.764-2.68 3.614a6.185 6.185 0 0 1-3.82 1.275c-1.76 0-3.14-.527-4.138-1.583-.999-1.055-1.498-2.498-1.498-4.33 0-1.774.334-3.441 1.003-5.001.67-1.57 1.572-2.77 2.708-3.601 1.136-.84 2.396-1.261 3.78-1.261zm3.244 5.59c0-1.074-.289-1.942-.866-2.606-.568-.672-1.342-1.008-2.323-1.008-.998 0-1.896.345-2.693 1.036-.789.692-1.402 1.654-1.842 2.887-.43 1.223-.646 2.587-.646 4.09 0 1.224.288 2.172.866 2.845.586.663 1.424.995 2.515.995.953 0 1.81-.341 2.57-1.023.76-.682 1.352-1.649 1.773-2.9.43-1.261.646-2.7.646-4.316zm13.827 5.605c0 1.457-.509 2.597-1.526 3.419-1.008.812-2.433 1.218-4.274 1.218-1.549 0-2.946-.322-4.192-.966V18.9a8.474 8.474 0 0 0 2.075.91c.742.215 1.43.323 2.062.323 1.154 0 2.025-.234 2.611-.7.587-.468.88-1.066.88-1.794 0-.532-.16-.98-.481-1.345-.32-.364-1.013-.864-2.076-1.5-1.19-.681-2.034-1.349-2.529-2.003-.494-.654-.742-1.429-.742-2.326 0-1.289.463-2.326 1.388-3.11.926-.794 2.144-1.191 3.656-1.191 1.567 0 3.08.345 4.536 1.037l-.742 1.92-.77-.351c-.925-.402-1.933-.602-3.024-.602-.852 0-1.52.205-2.006.616-.486.402-.729.925-.729 1.57 0 .522.16.97.481 1.344.33.374 1.004.855 2.02 1.443.981.56 1.682 1.042 2.104 1.444.43.401.751.835.962 1.303.21.457.316.976.316 1.555zm7.394 2.718c.504 0 1.164-.121 1.979-.364v1.807c-.311.13-.696.243-1.154.336-.458.094-.825.14-1.1.14-1.145 0-2.025-.275-2.639-.826-.604-.56-.907-1.392-.907-2.494 0-.617.083-1.317.248-2.102L97.4 8.225h-2.364l.193-1.023 2.542-1.093 1.718-3.195h1.347l-.756 3.531h3.766l-.357 1.78h-3.752l-1.773 8.462c-.165.813-.248 1.43-.248 1.85 0 .523.133.924.4 1.205.264.28.635.42 1.112.42z" fill="#010648"/><path d="M131.659 21.801h-4.839l-2.715-10.76c-.1-.383-.273-1.173-.52-2.368-.238-1.205-.375-2.013-.412-2.424-.054.504-.192 1.317-.411 2.438a53.234 53.234 0 0 1-.508 2.382l-2.7 10.732h-4.825l-5.114-20.484h4.182l2.564 11.18c.447 2.065.772 3.854.972 5.367.055-.532.179-1.354.37-2.466.202-1.12.389-1.99.563-2.606l2.92-11.475h4.016l2.92 11.475c.129.514.288 1.299.481 2.354.191 1.055.337 1.962.438 2.718.091-.728.237-1.634.439-2.718a48.3 48.3 0 0 1 .547-2.648l2.55-11.181h4.182l-5.1 20.484zm15.848-15.958c.566 0 1.037.042 1.411.126l-.315 4.007c-.337-.094-.75-.14-1.234-.14-1.333 0-2.375.35-3.125 1.05-.74.701-1.11 1.682-1.11 2.943V21.8h-4.182V6.137h3.167l.617 2.634h.205a5.812 5.812 0 0 1 1.919-2.116 4.686 4.686 0 0 1 2.647-.812zm4.016-3.755c0-1.392.758-2.088 2.276-2.088 1.517 0 2.276.696 2.276 2.088 0 .663-.192 1.181-.576 1.555-.375.364-.941.546-1.7.546-1.518 0-2.276-.7-2.276-2.101zm4.36 19.713h-4.181V6.137h4.181V21.8zm10.857-3.124c.731 0 1.609-.164 2.632-.49v3.18c-1.041.476-2.321.714-3.838.714-1.672 0-2.893-.43-3.661-1.289-.758-.868-1.138-2.167-1.138-3.895V9.345h-2.001V7.538l2.303-1.43 1.206-3.306h2.673v3.335h4.292v3.208h-4.292v7.552c0 .608.165 1.056.495 1.345.338.29.781.435 1.329.435zm12.091-9.794c-.886 0-1.581.29-2.084.869-.502.57-.79 1.382-.863 2.438h5.867c-.018-1.056-.288-1.868-.808-2.438-.522-.58-1.226-.869-2.112-.869zm.59 13.198c-2.468 0-4.396-.695-5.785-2.087-1.39-1.392-2.084-3.363-2.084-5.913 0-2.625.64-4.652 1.92-6.08 1.288-1.44 3.066-2.158 5.332-2.158 2.166 0 3.852.63 5.059 1.891 1.206 1.261 1.809 3.003 1.809 5.226v2.074h-9.884c.046 1.214.398 2.162 1.056 2.844.657.682 1.581 1.023 2.769 1.023.923 0 1.796-.098 2.618-.294a12.912 12.912 0 0 0 2.577-.939v3.307a9.463 9.463 0 0 1-2.344.826c-.831.187-1.846.28-3.043.28zm18.205-16.238c.567 0 1.037.042 1.412.126l-.315 4.007c-.338-.094-.749-.14-1.234-.14-1.334 0-2.376.35-3.125 1.05-.741.701-1.111 1.682-1.111 2.943V21.8h-4.181V6.137h3.166l.618 2.634h.205a5.806 5.806 0 0 1 1.92-2.116 4.678 4.678 0 0 1 2.645-.812z" fill="url(#e)"/><path d="M40.492 32.508c0 1.198-.342 2.181-1.027 2.949-.684.768-1.557 1.152-2.619 1.152-1.069 0-1.946-.38-2.63-1.14-.678-.761-1.016-1.74-1.016-2.938v-.139c0-1.205.342-2.189 1.027-2.949.685-.768 1.561-1.152 2.63-1.152 1.062 0 1.931.38 2.608 1.14.685.761 1.027 1.74 1.027 2.938v.139zm-1.719.023v-.139c0-.783-.18-1.405-.542-1.866-.354-.468-.816-.703-1.385-.703-.577 0-1.042.23-1.396.692-.346.453-.52 1.071-.52 1.854v.139c0 .783.178 1.409.532 1.877.361.461.826.692 1.396.692.577 0 1.038-.227 1.384-.68.354-.46.531-1.083.531-1.866zM44.747 31.69h-1.189v4.792h-1.627V31.69h-.623v-1.348h.623v-.403c0-1.23.6-1.844 1.8-1.844.385 0 .727.046 1.027.139v1.347a1.762 1.762 0 0 0-.6-.103c-.408 0-.611.21-.611.633v.23h1.2v1.349zm3.876 0h-1.188v4.792h-1.627V31.69h-.623v-1.348h.623v-.403c0-1.23.6-1.844 1.8-1.844.385 0 .727.046 1.027.139v1.347c-.2-.069-.4-.103-.6-.103-.408 0-.612.21-.612.633v.23h1.2v1.349zm2.539-2.04h-1.708v-1.486h1.708v1.486zm-.046 6.832h-1.639v-6.175h1.639v6.175zM56.983 36.482h-4.685V35.33l2.723-3.686H52.38v-1.337h4.604v1.152l-2.735 3.687h2.735v1.336zM59.803 29.65h-1.708v-1.486h1.708v1.486zm-.046 6.832h-1.639v-6.175h1.639v6.175zM66.225 33.475c0 .208-.007.388-.023.542H62.51c.146.822.592 1.232 1.338 1.232.485 0 .943-.191 1.374-.575l.738.99c-.57.63-1.292.945-2.17.945-.838 0-1.534-.288-2.088-.864-.546-.576-.819-1.333-.819-2.27v-.115c0-.914.254-1.666.762-2.258.515-.599 1.165-.899 1.95-.899.846 0 1.496.308 1.95.922.453.607.68 1.39.68 2.35zm-1.58-.553c-.039-.43-.15-.768-.335-1.013a.837.837 0 0 0-.715-.37c-.3 0-.547.12-.739.358-.184.238-.304.58-.358 1.025h2.147zM68.997 36.482h-1.639v-8.318h1.639v8.318zM72.073 36.482h-1.639v-8.318h1.639v8.318zM81.147 36.482h-1.604v-.656c-.4.507-.934.76-1.604.76-.53 0-.973-.165-1.326-.495-.347-.33-.52-.784-.52-1.36v-.08c0-.653.193-1.145.577-1.475.393-.33.92-.495 1.581-.495.462 0 .896.08 1.304.241v-.172c0-.722-.396-1.083-1.189-1.083-.453 0-.953.107-1.5.322l-.311-1.325a5.1 5.1 0 0 1 2.077-.426c.838 0 1.465.215 1.88.645.424.43.635 1.049.635 1.855v3.744zm-1.58-2.016v-.53a2.015 2.015 0 0 0-.912-.196c-.308 0-.55.073-.727.22-.17.138-.254.341-.254.61v.08c0 .246.073.435.22.565.145.13.338.196.576.196.323 0 .585-.084.785-.253a.865.865 0 0 0 .311-.692zM87.42 36.482h-1.64v-.83c-.453.63-.984.946-1.592.946-.577 0-1.027-.185-1.35-.553-.315-.377-.473-.887-.473-1.532v-4.206h1.639v3.721c0 .354.073.626.219.818.154.185.37.277.646.277.285 0 .508-.092.67-.277.16-.192.241-.464.241-.818v-3.72h1.64v6.174zM91.824 31.69h-1.188v4.792h-1.627V31.69h-.623v-1.348h.623v-.403c0-1.23.6-1.844 1.8-1.844.385 0 .727.046 1.027.139v1.347a1.76 1.76 0 0 0-.6-.103c-.408 0-.612.21-.612.633v.23h1.2v1.349zM101.041 36.482h-1.638v-.852c-.447.645-1.004.967-1.674.967-.661 0-1.223-.268-1.684-.806-.454-.537-.681-1.306-.681-2.304v-.184c0-.999.227-1.767.681-2.305.454-.537 1.015-.806 1.684-.806.654 0 1.212.3 1.674.899v-2.927h1.638v8.318zm-1.615-3.018v-.138c0-.515-.116-.926-.347-1.233-.23-.315-.519-.473-.865-.473s-.635.158-.865.473c-.231.307-.346.718-.346 1.233v.138c0 .514.115.93.346 1.244.23.307.519.46.865.46s.635-.153.865-.46c.231-.315.347-.73.347-1.244zM107.444 33.475c0 .208-.008.388-.023.542h-3.693c.147.822.593 1.232 1.339 1.232.485 0 .942-.191 1.373-.575l.738.99c-.569.63-1.292.945-2.169.945-.838 0-1.534-.288-2.088-.864-.546-.576-.819-1.333-.819-2.27v-.115c0-.914.253-1.666.761-2.258.515-.599 1.165-.899 1.95-.899.846 0 1.496.308 1.95.922.454.607.681 1.39.681 2.35zm-1.581-.553c-.038-.43-.15-.768-.335-1.013a.835.835 0 0 0-.715-.37c-.3 0-.546.12-.738.358-.185.238-.304.58-.358 1.025h2.146zM116.896 36.482h-1.639v-3.72c0-.354-.073-.623-.219-.807-.146-.192-.354-.288-.623-.288-.277 0-.496.096-.658.288-.153.184-.23.453-.23.806v3.721h-1.639v-3.72c0-.73-.284-1.095-.854-1.095a.802.802 0 0 0-.646.288c-.154.184-.231.453-.231.806v3.721h-1.638v-6.175h1.638v.83c.447-.63.981-.945 1.604-.945.708 0 1.22.3 1.535.899.5-.6 1.085-.899 1.754-.899.569 0 1.019.18 1.35.541.331.354.496.865.496 1.533v4.216zM128.385 36.482h-1.638v-5.15l-1.904 3.33h-.035l-1.892-3.295v5.115H121.3v-8.064h1.754l1.777 3.272 1.789-3.272h1.765v8.064zM134.569 36.482h-1.604v-.656c-.4.507-.935.76-1.604.76-.531 0-.973-.165-1.327-.495-.346-.33-.519-.784-.519-1.36v-.08c0-.653.192-1.145.577-1.475.392-.33.919-.495 1.581-.495.461 0 .896.08 1.304.241v-.172c0-.722-.397-1.083-1.189-1.083-.454 0-.954.107-1.5.322l-.311-1.325a5.099 5.099 0 0 1 2.077-.426c.838 0 1.465.215 1.88.645.423.43.635 1.049.635 1.855v3.744zm-1.581-2.016v-.53a2.012 2.012 0 0 0-.911-.196c-.308 0-.55.073-.727.22-.17.138-.254.341-.254.61v.08c0 .246.073.435.219.565.146.13.339.196.577.196.323 0 .585-.084.785-.253a.867.867 0 0 0 .311-.692zM139.145 31.978h-.07c-.515 0-.915.161-1.2.484-.277.322-.415.802-.415 1.44v2.58h-1.639v-6.175h1.639v1.095c.346-.83.908-1.23 1.685-1.199v1.775zM145.366 36.482h-1.858l-1.292-2.465-.508.645v1.82h-1.639v-8.318h1.639v4.424l1.696-2.28h1.915l-1.961 2.453 2.008 3.721zM149.19 36.275c-.338.2-.742.3-1.211.3-.515 0-.919-.123-1.212-.369-.284-.246-.427-.669-.427-1.267v-3.25h-.623v-1.382h.623V28.73h1.639v1.578h1.235v1.383h-1.235v2.914c0 .354.169.53.508.53.261 0 .496-.057.703-.172v1.313zM158.446 34.201c0 .738-.246 1.318-.739 1.74-.492.422-1.134.633-1.927.633-1.084 0-2.03-.334-2.838-1.002l.738-1.313c.708.545 1.396.818 2.066.818.323 0 .577-.065.761-.196a.648.648 0 0 0 .277-.565.72.72 0 0 0-.265-.564c-.177-.154-.543-.35-1.096-.588a13.546 13.546 0 0 1-.797-.357 5.54 5.54 0 0 1-.623-.369 2.346 2.346 0 0 1-.484-.46 2.265 2.265 0 0 1-.277-.565 2.568 2.568 0 0 1-.104-.76c0-.7.238-1.26.715-1.682.485-.43 1.104-.645 1.858-.645.946 0 1.769.26 2.469.783l-.646 1.371c-.669-.438-1.269-.657-1.8-.657-.292 0-.523.066-.692.196a.632.632 0 0 0-.242.519c0 .238.084.422.253.553.177.13.573.334 1.189.61.792.353 1.358.707 1.696 1.06.338.353.508.833.508 1.44zM164.618 33.475c0 .208-.008.388-.023.542h-3.693c.147.822.593 1.232 1.339 1.232.485 0 .942-.191 1.373-.575l.738.99c-.569.63-1.292.945-2.169.945-.838 0-1.534-.288-2.088-.864-.546-.576-.819-1.333-.819-2.27v-.115c0-.914.253-1.666.761-2.258.515-.599 1.165-.899 1.95-.899.846 0 1.496.308 1.95.922.454.607.681 1.39.681 2.35zm-1.581-.553c-.038-.43-.15-.768-.335-1.013a.835.835 0 0 0-.715-.37c-.3 0-.546.12-.738.358-.185.238-.304.58-.358 1.025h2.146zM167.435 29.65h-1.707v-1.486h1.707v1.486zm-.046 6.832h-1.638v-6.175h1.638v6.175zM171.873 36.275c-.338.2-.742.3-1.212.3-.515 0-.919-.123-1.211-.369-.285-.246-.427-.669-.427-1.267v-3.25h-.623v-1.382h.623V28.73h1.638v1.578h1.235v1.383h-1.235v2.914c0 .354.17.53.508.53.262 0 .496-.057.704-.172v1.313zM180.897 36.482h-5.157v-1.336l2.284-2.477c.431-.445.727-.803.889-1.071.169-.27.254-.542.254-.819 0-.291-.089-.522-.266-.69-.177-.17-.411-.254-.704-.254-.269 0-.515.069-.738.207-.215.138-.462.357-.738.657l-.866-1.118c.354-.43.723-.745 1.108-.944.384-.208.854-.311 1.408-.311.753 0 1.353.203 1.8.61.453.407.68.96.68 1.66v.034c0 .522-.123.975-.369 1.36-.246.383-.685.879-1.315 1.485l-1.27 1.521h3v1.486zM188.146 32.52c0 1.236-.284 2.226-.854 2.971-.561.746-1.315 1.118-2.261 1.118-.946 0-1.7-.369-2.262-1.106-.561-.745-.842-1.736-.842-2.972v-.15c0-1.237.281-2.227.842-2.972.57-.745 1.327-1.118 2.273-1.118.947 0 1.7.373 2.262 1.118.561.737.842 1.724.842 2.96v.15zm-1.696.01v-.138c0-.837-.131-1.478-.392-1.924-.254-.453-.596-.68-1.027-.68-.439 0-.785.224-1.039.669-.246.438-.369 1.075-.369 1.912v.139c0 .837.127 1.482.381 1.935.254.446.6.668 1.038.668.439 0 .781-.219 1.027-.656.254-.446.381-1.087.381-1.924zM192.045 36.482h-1.65v-6.405l-1.234.322-.254-1.44 1.996-.599h1.142v8.122zM198.889 34.236c0 .73-.258 1.306-.774 1.728-.507.422-1.169.634-1.984.634-.8 0-1.462-.212-1.985-.634-.515-.43-.773-.999-.773-1.705v-.035c0-.914.4-1.57 1.2-1.97-.646-.391-.969-.971-.969-1.74v-.046c0-.622.235-1.136.704-1.543.477-.415 1.084-.622 1.823-.622.738 0 1.342.207 1.811.622.477.407.716.921.716 1.543v.047c0 .775-.323 1.355-.969 1.74.8.437 1.2 1.082 1.2 1.935v.046zm-1.8-3.549v-.034c0-.3-.085-.542-.254-.726-.17-.184-.404-.276-.704-.276-.292 0-.527.092-.704.276-.169.177-.254.415-.254.714v.035c0 .315.085.568.254.76.177.192.412.288.704.288s.523-.092.692-.276c.177-.192.266-.446.266-.76zm.184 3.457v-.046c0-.338-.108-.6-.323-.784-.208-.192-.481-.288-.819-.288-.339 0-.616.096-.831.288-.208.184-.311.446-.311.784v.046c0 .345.1.614.3.806.2.192.48.288.842.288.361 0 .642-.096.842-.288.2-.192.3-.46.3-.806z" fill="#30ABBA"/></g><defs><linearGradient id="b" x1="2.473" y1="29.568" x2="10.579" y2="24.691" gradientUnits="userSpaceOnUse"><stop stop-color="#30ABBA"/><stop offset="1" stop-color="#6165D7"/></linearGradient><linearGradient id="c" x1="4.605" y1="8.698" x2="8.488" y2="-2.144" gradientUnits="userSpaceOnUse"><stop stop-color="#30ABBA"/><stop offset="1" stop-color="#6165D7"/></linearGradient><linearGradient id="d" x1="4.349" y1="8.969" x2="8.647" y2="-2.581" gradientUnits="userSpaceOnUse"><stop stop-color="#30ABBA"/><stop offset="1" stop-color="#6165D7"/></linearGradient><linearGradient id="e" x1="124.359" y1="22.043" x2="133.694" y2="-12.641" gradientUnits="userSpaceOnUse"><stop stop-color="#30ABBA"/><stop offset="1" stop-color="#6165D7"/></linearGradient><clipPath id="a"><path fill="#fff" d="M0 0h200v40H0z"/></clipPath></defs></svg>