<svg width="40" height="40" fill="none" version="1.1" xmlns="http://www.w3.org/2000/svg">
 <path d="m40 17.7c-1.71-1.32-2.85-3-3.39-3.87l-3.2-5.14a7.57 7.57 0 0 0-2.36-4.18c0.413-0.154 0.751-0.32 0.961-0.475-2.09 0-4.16-1.07-5.3-1.07-0.733 0-1.21 0.437-1.21 1.02 0.0493 0.649 0.714 1.3 1.94 1.3a6.88 6.88 0 0 0 1.02-0.0996c0.665 0.927 1.2 1.77 1.2 2.96 0 2.25-2.68 4-5.39 4l-0.45-0.0195c-0.246-0.555-1.06-1.49-1.06-2.56 0-1.79 1.16-3.25 1.16-5.02 0-1.1-0.535-1.79-0.739-2.06 0.334-0.308 0.696-0.692 0.782-0.952-0.191 0.0811-0.418 0.0996-0.757 0.0996-1.3-4.1e-6 -2.35-0.34-3.39-0.34-0.585 0-0.744 0.185-0.72 0.518a3.36 3.36 0 0 0-0.671-0.185 5.4 5.4 0 0 0-0.979-0.0873c-1.26 0-1.7 0.526-1.7 0.982 0 0.383 0.296 1.08 0.641 1.61 0.487-0.246 1.08-0.414 1.34-0.414 0.665 0 1.26 0.636 1.57 1.39-0.45 0.0554-0.536 0.0739-0.985 0.0739-1.23 0-2.05-0.438-2.27-0.4 0 0.172 0.345 0.623 1.03 0.877 0.898 0.327 2.21 0.5 2.44 0.537 0 0.037-0.216 0.408-0.61 0.488-0.216-0.0554-2.31-0.717-2.45-0.636 0 0.47 1.22 1.51 2.31 1.92-0.912 1.17-2.05 2.37-2.59 4.19l-0.45 0.0185c-2.71 0-5.39-1.76-5.39-4 0-1.2 0.536-2.04 1.2-2.96a6.88 6.88 0 0 0 1.02 0.0996c1.22 0 1.89-0.661 1.94-1.3 0-0.58-0.475-1.03-1.21-1.03-1.14 0-3.21 1.07-5.3 1.07 0.209 0.154 0.548 0.321 0.961 0.476a7.59 7.59 0 0 0-2.35 4.18l-3.2 5.14c-0.541 0.864-1.67 2.55-3.39 3.87 2.08 0 3.45 0.0493 5.2-2.73l1.64-2.64c0.123 0.341 0.271 0.674 0.45 1l-3.26 5.24c-0.542 0.871-1.67 2.54-3.39 3.87 2.08 0 3.45 0.0493 5.2-2.73l2.81-4.51c0.209 0.222 0.431 0.445 0.665 0.654l-3.96 6.35c-0.493 0.784-1.45 2.22-2.89 3.46l-0.493 0.401c1.11 0 2.02 0.0123 2.89-0.4 0.758-0.359 1.49-1.04 2.31-2.33l3.87-6.21c0.253 0.161 0.517 0.315 0.782 0.463l-4.72 7.57-0.314 0.488c-0.616 0.921-1.63 2.27-3.07 3.38 2.07 0 3.44 0.0493 5.2-2.73l0.394-0.636 4.46-7.17c0.289 0.113 0.579 0.217 0.875 0.31l-4.27 6.86-1.22 1.96c-0.536 0.858-1.68 2.55-3.39 3.87 2.08 0 3.45 0.0503 5.2-2.73l1.93-3.09 4.1-6.28c0.159 0.507 0.27 0.982 0.27 1.45 0 1.74-0.67 3.36-1.7 4.81-0.714 1.01-1.6 1.93-2.55 2.76 0.148 0.0678 0.407 0.0924 0.647 0.0924 0.479 0 0.787-0.0308 1-0.0678-0.542 1.22-1.69 2.8-2.27 3.63a17.1 17.1 0 0 0-2.59-0.241c-0.757 0-0.837 0.445-0.837 0.84 0 0.692 0.32 1.24 0.696 1.55 0.142-0.357 0.425-0.827 1.96-0.821-0.407 0.458-1.69 1.5-1.69 2.33 0 0.555 0.603 1.38 1.4 1.38-0.0493-0.18-0.0431-0.346-0.0431-0.464 0-0.672 0.597-1.46 1.1-2.02-0.0123 0.16-0.0062 0.148-0.0062 0.339 0 1.6 0.148 2.34 1.16 2.34 0.493 0 0.837-0.271 0.96-0.352-0.659-0.611-0.69-1.09-0.69-1.98l0.0062-0.778c0-0.204 0-0.476-0.0308-0.673 0.363-0.0493 0.505-0.0493 0.788-0.0493 0 0 1.44-0.118 1.79 0.636 0.388-0.359 0.96-0.865 0.96-1.43 0-0.371-0.172-0.785-0.917-0.785-0.283 0-1.16 0.173-1.9 0.173 0.197-0.445 1.08-1.73 1.85-2.68 0.117 0.364 0.296 0.76 0.695 1.08 0.0565-0.606 0.407-2.52 1.35-3.63 0.111 0.753 0.259 1.53 0.259 3.16 0 3.97-0.955 6.91-2.98 7.47 0.265 0.464 0.819 0.873 1.4 0.873 0.739 0 1.15-0.842 1.55-1.63 0.209 0.587 0.807 2.01 1.4 2.01 0.59 0 1.18-1.43 1.4-2.01 0.413 0.79 0.813 1.63 1.55 1.63 0.579 0 1.13-0.408 1.4-0.871-2.02-0.563-2.97-3.5-2.97-7.47 0-1.64 0.148-2.41 0.259-3.16 0.942 1.12 1.3 3.03 1.36 3.63 0.4-0.321 0.579-0.717 0.696-1.08 0.763 0.938 1.65 2.24 1.85 2.68-0.739 0-1.62-0.172-1.9-0.172-0.739 0-0.918 0.421-0.918 0.785 0 0.562 0.567 1.07 0.955 1.43 0.344-0.755 1.79-0.636 1.79-0.636 0.277 0 0.425 0 0.788 0.0493a4.08 4.08 0 0 0-0.0308 0.673l0.0062 0.778c0 0.895-0.0308 1.37-0.69 1.98 0.117 0.0801 0.462 0.352 0.955 0.352 1.01 0 1.16-0.735 1.16-2.33 0-0.192 0.0062-0.173-0.0062-0.34 0.505 0.549 1.1 1.35 1.1 2.02 0 0.123 0.0062 0.291-0.0431 0.464 0.801 0 1.4-0.828 1.4-1.38 0-0.834-1.28-1.87-1.55-2.34 1.4 0 1.68 0.47 1.82 0.828 0.376-0.309 0.695-0.859 0.695-1.55 0-0.396-0.0862-0.841-0.843-0.841-0.727 0-1.83 0.105-2.59 0.241-0.585-0.821-1.74-2.4-2.27-3.63 0.216 0.037 0.53 0.0678 1 0.0678 0.24 0 0.499-0.0246 0.647-0.0924-0.949-0.827-1.84-1.75-2.55-2.76-1.03-1.45-1.7-3.08-1.7-4.82 0-0.475 0.111-0.944 0.45-1.49l5.86 9.4c1.76 2.78 3.13 2.73 5.2 2.73-1.71-1.32-2.85-3.01-3.39-3.87l-1.22-1.96-4.27-6.86c0.296-0.0996 0.591-0.198 0.875-0.309l4.46 7.17 0.394 0.636c1.76 2.78 3.13 2.73 5.2 2.73-1.44-1.11-2.46-2.46-3.08-3.37l-0.313-0.5-4.72-7.57c0.271-0.148 0.53-0.303 0.782-0.463l3.87 6.21c0.813 1.29 1.54 1.98 2.31 2.33 0.874 0.414 1.79 0.402 2.89 0.402l-0.493-0.402c-1.45-1.25-2.41-2.68-2.89-3.46l-3.97-6.37c0.234-0.209 0.456-0.431 0.665-0.654l2.81 4.51c1.75 2.78 3.13 2.73 5.2 2.73-1.72-1.33-2.84-3-3.39-3.87l-3.26-5.24c0.173-0.328 0.327-0.661 0.451-1l1.64 2.64c1.72 2.79 3.09 2.74 5.17 2.74zm-16.2 11.3c0.112-0.414 0.222-0.723 0.659-0.723 0.222 0 0.326 0.038 0.462 0.0873 0.468 1.3 2.27 3.75 2.56 4.13 0.775-0.129 1.87-0.266 2.75-0.266 0.203 0 0.487-0.0185 0.487 0.476 0 0.289-0.123 0.79-0.283 0.957-0.388-0.457-1.05-0.6-1.88-0.6-0.32 0-0.708 0.112-0.856 0.149 1.05 1.07 2.04 1.96 2.04 2.55 0 0.334-0.345 0.772-0.634 0.914 0-0.877-0.899-2.08-1.79-2.75 0 0.117-0.0421 0.575-0.0421 1.07 0 1.65-0.16 1.98-0.795 1.98a1.03 1.03 0 0 1-0.388-0.0862c0.339-0.39 0.487-0.909 0.487-1.89 0-0.284-0.0062-0.55-0.0062-0.778 0-0.433 0.0493-0.741 0.0801-0.982a9.2 9.2 0 0 0-1.19-0.111c-0.862 0-1.4 0.0862-1.79 0.475-0.277-0.21-0.59-0.612-0.59-0.89 0-0.4 0.271-0.426 0.548-0.426 0.436 0 0.794 0.173 2.44 0.173-0.313-0.933-1.27-2.24-2.26-3.45zm-7.59 0c-0.992 1.21-1.95 2.53-2.27 3.46 1.65 0 2.01-0.173 2.45-0.173 0.283 0 0.548 0.0246 0.548 0.427 0 0.277-0.314 0.679-0.591 0.889-0.388-0.39-0.924-0.475-1.79-0.475-0.407 0-0.955 0.0801-1.19 0.111 0.0308 0.241 0.0811 0.544 0.0811 0.982 0 0.228-0.0062 0.494-0.0062 0.778 0 0.981 0.142 1.5 0.486 1.89a1.03 1.03 0 0 1-0.387 0.0862c-0.634 0-0.795-0.327-0.795-1.98 0-0.501-0.0431-0.958-0.0431-1.07-0.881 0.673-1.79 1.88-1.79 2.75-0.289-0.148-0.628-0.586-0.628-0.914 0-0.593 0.992-1.48 2.04-2.55-0.148-0.037-0.536-0.149-0.856-0.149-0.825 0-1.5 0.137-1.88 0.6-0.154-0.166-0.283-0.667-0.283-0.958 0-0.5 0.283-0.475 0.487-0.475 0.88 0 1.97 0.137 2.75 0.266 0.283-0.377 2.09-2.82 2.56-4.13 0.136-0.0482 0.24-0.0862 0.462-0.0862 0.431-0.0062 0.542 0.298 0.659 0.717zm-0.333-14.6c0 0.421 0.0246 0.816 0.0678 1.19-3.91-0.0246-7.35-3.21-7.35-6.63 0-1.96 1.42-3.51 1.92-3.94l0.357 0.0811c-0.53 0.649-1.46 1.74-1.46 3.18 0 2.87 3.05 5.35 6.51 5.35a6.11 6.11 0 0 0-0.0431 0.766zm4.45-10.2c0 0.537-0.239 1.02-0.418 1.43-0.197-1.04-1.04-2.31-2.17-2.31-0.32 0-0.862 0.161-1.17 0.297-0.11-0.185-0.387-0.79-0.387-1.06 0-0.277 0.425-0.549 1.27-0.549 1.64 0 2.88 0.709 2.88 2.19zm0.388-0.464a2.35 2.35 0 0 0-0.424-1.02c0.0123-0.345 0.154-0.679 0.708-0.408-0.303 0.309-0.0688 0.859-0.0688 0.859s0.616-0.291 0.487-0.692c0.912 0.216 0.259 1.45-0.702 1.26zm10.7 5.22c0 3.4-3.39 6.56-7.27 6.63 0.0431-0.383 0.0739-0.778 0.0739-1.19 0-0.222 0-0.475-0.0246-0.772 3.41-0.0493 6.4-2.51 6.4-5.35 0-1.45-0.936-2.53-1.47-3.18l0.357-0.0801c0.499 0.431 1.92 1.98 1.92 3.94z" fill="#11002b" stroke-width="1.03"/>
</svg>
