<svg width="600" height="121" fill="none" xmlns="http://www.w3.org/2000/svg"><g clip-path="url(#a)"><path d="m36.033 115.867 29.47-32.686H6.563l29.47 32.686z" fill="#FAB680"/><path d="m36.033 115.867 29.47-32.686h-29.47v32.686z" fill="#D09668"/><path d="m36.033 115.867 14.735-16.343h-29.47l14.735 16.343z" fill="#2D3741"/><path d="M64.504 75.01H8.243v8.17h56.26v-8.17z" fill="#FAB680"/><path d="M64.504 75.01H37.713v8.17h26.79v-8.17z" fill="#D09668"/><path d="M62.824 25.981H52.108c-2.96 0-5.359 2.439-5.359 5.448v49.028c0 3.009 2.4 5.448 5.359 5.448h10.716c2.96 0 5.358-2.44 5.358-5.448V31.43c0-3.01-2.399-5.448-5.358-5.448z" fill="#FDBD13"/><path d="M41.391 39.6H30.675c-2.96 0-5.358 2.44-5.358 5.448v35.41c0 3.008 2.399 5.447 5.358 5.447h10.716c2.96 0 5.358-2.44 5.358-5.448v-35.41c0-3.008-2.398-5.447-5.358-5.447z" fill="#EC5334"/><path d="M3.884 58.667c0-3.009 2.399-5.448 5.358-5.448H19.96c2.959 0 5.358 2.44 5.358 5.448v21.79c0 3.01-2.4 5.448-5.358 5.448H9.242c-2.959 0-5.358-2.439-5.358-5.448v-21.79z" fill="#2D3645"/><path fill-rule="evenodd" clip-rule="evenodd" d="M2.885 23.257H69.18c-4.52-12.644-17.652-21.79-33.148-21.79-15.496 0-28.628 9.146-33.148 21.79z" fill="#2D3743"/><path d="m2.885 23.257-.756-.28-.392 1.097h1.148v-.817zm66.296 0v.817h1.148l-.392-1.096-.756.279zm-66.296.817H69.18V22.44H2.885v1.634zm33.148-21.79c15.197 0 28.001 8.967 32.393 21.252l1.51-.558C65.289 9.974 51.829.649 36.034.649v1.635zM3.64 23.536C8.032 11.251 20.835 2.284 36.033 2.284V.649C20.238.65 6.777 9.974 2.129 22.978l1.51.558z" fill="#fff"/><path d="M125.744 30.334h18.926l-6.35 29.894c-5.937 2.102-11.696 3.153-17.277 3.153-7.256 0-12.905-2.018-16.946-6.054-4.014-4.064-6.02-9.727-6.02-16.986 0-7.54 1.388-14.393 4.164-20.56 2.804-6.194 6.68-11.002 11.628-14.421 4.948-3.448 10.432-5.172 16.452-5.172 3.216 0 6.226.28 9.03.841 2.831.56 5.676 1.458 8.535 2.691l-2.721 6.391a50.636 50.636 0 0 0-6.845-2.48c-2.419-.701-5.085-1.052-7.999-1.052-4.646 0-8.879 1.43-12.7 4.289-3.793 2.83-6.748 6.797-8.865 11.898-2.116 5.102-3.175 10.806-3.175 17.112 0 5.326 1.402 9.517 4.206 12.572 2.831 3.055 6.776 4.582 11.834 4.582 4.233 0 7.807-.546 10.72-1.64l3.959-18.667h-11.917l1.361-6.39zm53.355 32.206 6.103-29.094c.494-2.635.742-4.527.742-5.676 0-4.149-2.021-6.223-6.061-6.223-2.447 0-4.838.827-7.175 2.48-2.309 1.654-4.357 4.065-6.143 7.232-1.76 3.14-3.093 6.938-4 11.394L158.4 62.54h-6.927L165.08-2.88h6.927c-.495 2.298-.976 4.526-1.443 6.684a418.3 418.3 0 0 1-1.402 6.601c-.467 2.214-.989 4.54-1.567 6.98a250.526 250.526 0 0 1-1.938 7.946h.454c2.584-3.448 5.126-5.914 7.628-7.4 2.529-1.485 5.168-2.228 7.917-2.228 3.601 0 6.377 1.009 8.329 3.027 1.979 2.018 2.968 4.877 2.968 8.577 0 1.738-.316 4.064-.948 6.98-1.072 5.41-3.065 14.827-5.979 28.253h-6.927zm45.191-46.67c5.223 0 9.346 1.585 12.37 4.752 3.024 3.14 4.536 7.47 4.536 12.992 0 5.27-.99 10.244-2.969 14.926-1.979 4.68-4.659 8.296-8.04 10.847-3.382 2.55-7.203 3.826-11.463 3.826-5.278 0-9.415-1.584-12.411-4.751-2.996-3.167-4.495-7.498-4.495-12.992 0-5.325 1.004-10.329 3.01-15.01 2.007-4.709 4.715-8.31 8.123-10.805 3.409-2.523 7.188-3.784 11.339-3.784zm9.731 16.777c0-3.224-.866-5.83-2.598-7.82-1.704-2.019-4.027-3.028-6.968-3.028-2.996 0-5.69 1.037-8.081 3.112-2.365 2.074-4.206 4.96-5.526 8.66-1.292 3.673-1.938 7.765-1.938 12.278 0 3.672.866 6.517 2.598 8.535 1.759 1.99 4.274 2.985 7.546 2.985 2.859 0 5.429-1.023 7.71-3.07 2.282-2.046 4.055-4.947 5.319-8.703 1.292-3.783 1.938-8.1 1.938-12.95zm41.48 16.817c0 4.373-1.525 7.793-4.577 10.26-3.023 2.438-7.298 3.657-12.823 3.657-4.645 0-8.837-.967-12.576-2.9v-6.644c1.924 1.177 4 2.088 6.226 2.733 2.227.645 4.288.967 6.185.967 3.464 0 6.075-.7 7.834-2.102 1.76-1.402 2.639-3.196 2.639-5.382 0-1.598-.481-2.943-1.443-4.036-.962-1.093-3.037-2.593-6.226-4.499-3.574-2.046-6.102-4.05-7.587-6.012-1.484-1.962-2.227-4.289-2.227-6.98 0-3.868 1.389-6.98 4.165-9.334 2.777-2.382 6.432-3.573 10.968-3.573 4.701 0 9.236 1.037 13.607 3.111l-2.227 5.76-2.309-1.05c-2.776-1.206-5.8-1.809-9.071-1.809-2.557 0-4.563.617-6.02 1.85-1.457 1.205-2.185 2.775-2.185 4.709 0 1.57.481 2.915 1.443 4.036.989 1.121 3.01 2.565 6.061 4.33 2.941 1.683 5.044 3.126 6.309 4.331 1.292 1.206 2.254 2.509 2.886 3.91.632 1.374.948 2.93.948 4.667zm22.182 8.157c1.514 0 3.493-.364 5.939-1.093v5.424c-.935.392-2.09.729-3.462 1.009-1.376.28-2.477.42-3.3.42-3.436 0-6.075-.827-7.917-2.48-1.814-1.682-2.721-4.177-2.721-7.484 0-1.85.247-3.953.742-6.307l5.237-25.31h-7.093l.578-3.07 7.628-3.28 5.154-9.586h4.041l-2.268 10.595h11.297l-1.07 5.34H299.21l-5.319 25.395c-.495 2.438-.742 4.289-.742 5.55 0 1.57.399 2.775 1.196 3.616.796.84 1.909 1.261 3.338 1.261z" fill="#000333"/><path d="M394.976 62.54h-14.517l-8.143-32.29c-.3-1.15-.821-3.518-1.561-7.105-.713-3.616-1.125-6.04-1.236-7.274-.163 1.513-.575 3.952-1.233 7.316-.656 3.335-1.165 5.718-1.523 7.147l-8.1 32.206h-14.475L328.846 1.071h12.544l7.692 33.552c1.341 6.194 2.316 11.562 2.918 16.103.165-1.598.535-4.065 1.11-7.4.604-3.364 1.167-5.97 1.687-7.82l8.76-34.435h12.05l8.76 34.435c.385 1.541.863 3.896 1.441 7.063.574 3.167 1.013 5.886 1.314 8.157.274-2.186.713-4.905 1.318-8.157.601-3.28 1.149-5.928 1.642-7.946l7.65-33.552h12.544l-15.3 61.47zm47.544-47.888c1.699 0 3.113.126 4.235.378l-.945 12.025c-1.013-.28-2.25-.42-3.702-.42-4.001 0-7.127 1.05-9.377 3.153-2.22 2.102-3.33 5.045-3.33 8.829V62.54h-12.544V15.535h9.5l1.85 7.904h.617c1.426-2.635 3.345-4.751 5.757-6.349 2.443-1.625 5.087-2.438 7.939-2.438zm12.05-11.268c0-4.177 2.274-6.265 6.826-6.265 4.551 0 6.828 2.088 6.828 6.265 0 1.99-.575 3.546-1.727 4.667-1.125 1.093-2.824 1.64-5.101 1.64-4.552 0-6.826-2.103-6.826-6.307zm13.079 59.156h-12.543V15.535h12.543V62.54zm32.572-9.376c2.193 0 4.825-.49 7.896-1.471v9.544c-3.125 1.43-6.963 2.144-11.515 2.144-5.017 0-8.678-1.29-10.982-3.868-2.274-2.607-3.414-6.503-3.414-11.688V25.163h-6.005v-5.424l6.91-4.289 3.619-9.922h8.019v10.006h12.875v9.629h-12.875v22.662c0 1.822.494 3.167 1.483 4.036 1.014.869 2.344 1.303 3.989 1.303zm36.272-29.389c-2.659 0-4.744.87-6.251 2.607-1.507 1.71-2.37 4.148-2.59 7.316h17.601c-.055-3.168-.864-5.606-2.425-7.316-1.564-1.738-3.676-2.607-6.335-2.607zm1.769 39.606c-7.403 0-13.188-2.088-17.354-6.264-4.169-4.177-6.251-10.091-6.251-17.743 0-7.877 1.919-13.96 5.758-18.248 3.865-4.316 9.198-6.474 15.997-6.474 6.497 0 11.557 1.892 15.176 5.676 3.618 3.784 5.429 9.011 5.429 15.682v6.223h-29.654c.139 3.644 1.195 6.489 3.168 8.535 1.973 2.046 4.744 3.069 8.308 3.069 2.768 0 5.388-.294 7.854-.883 2.467-.589 5.045-1.527 7.731-2.817v9.923a28.388 28.388 0 0 1-7.033 2.48c-2.493.56-5.538.841-9.129.841zm54.615-48.73c1.703 0 3.113.127 4.238.38l-.947 12.024c-1.014-.28-2.247-.42-3.7-.42-4.004 0-7.129 1.05-9.376 3.153-2.223 2.102-3.333 5.045-3.333 8.829V62.54h-12.544V15.535h9.499l1.853 7.904h.617c1.426-2.635 3.345-4.751 5.758-6.349 2.439-1.625 5.086-2.438 7.935-2.438z" fill="#E95334"/><path d="M121.477 94.668c0 3.595-1.027 6.546-3.081 8.85-2.054 2.305-4.673 3.458-7.858 3.458-3.207 0-5.838-1.141-7.892-3.423-2.031-2.282-3.046-5.22-3.046-8.816v-.415c0-3.618 1.027-6.568 3.081-8.85 2.054-2.305 4.684-3.457 7.892-3.457 3.185 0 5.792 1.14 7.823 3.422 2.054 2.282 3.081 5.22 3.081 8.816v.415zm-5.158.07v-.416c0-2.35-.542-4.217-1.627-5.6-1.061-1.406-2.446-2.109-4.154-2.109-1.73 0-3.126.691-4.188 2.074-1.038 1.36-1.558 3.215-1.558 5.566v.415c0 2.351.531 4.23 1.593 5.635 1.084 1.383 2.48 2.075 4.188 2.075 1.731 0 3.115-.68 4.154-2.04 1.061-1.383 1.592-3.25 1.592-5.6zM134.24 92.213h-3.566v14.382h-4.88V92.213h-1.87V88.17h1.87v-1.21c0-3.688 1.8-5.532 5.4-5.532 1.153 0 2.18.138 3.08.415v4.045a5.279 5.279 0 0 0-1.8-.311c-1.223 0-1.834.634-1.834 1.901v.692h3.6v4.044zm11.63 0h-3.565v14.382h-4.881V92.213h-1.869V88.17h1.869v-1.21c0-3.688 1.8-5.532 5.4-5.532 1.154 0 2.181.138 3.081.415v4.045c-.6-.207-1.2-.311-1.8-.311-1.223 0-1.835.634-1.835 1.901v.692h3.6v4.044zm7.616-6.119h-5.123v-4.46h5.123v4.46zm-.139 20.501h-4.915v-18.53h4.915v18.53zM170.948 106.595h-14.054v-3.457l8.169-11.063h-7.927v-4.01h13.812v3.457l-8.204 11.063h8.204v4.01zM179.409 86.094h-5.123v-4.46h5.123v4.46zm-.138 20.501h-4.916v-18.53h4.916v18.53zM198.676 97.572c0 .622-.023 1.164-.069 1.625H187.53c.439 2.466 1.777 3.699 4.015 3.699 1.454 0 2.827-.576 4.12-1.728l2.215 2.973c-1.708 1.89-3.877 2.835-6.508 2.835-2.515 0-4.603-.865-6.265-2.593-1.638-1.729-2.458-3.999-2.458-6.81v-.347c0-2.742.762-5 2.285-6.776 1.546-1.797 3.496-2.696 5.85-2.696 2.538 0 4.488.922 5.85 2.765 1.361 1.821 2.042 4.172 2.042 7.053zm-4.742-1.66c-.115-1.29-.45-2.304-1.004-3.042-.531-.737-1.246-1.106-2.146-1.106-.9 0-1.639.357-2.215 1.072-.554.714-.912 1.74-1.074 3.077h6.439zM206.99 106.595h-4.915v-24.96h4.915v24.96zM216.219 106.595h-4.916v-24.96h4.916v24.96zM243.441 106.595h-4.811v-1.97c-1.2 1.521-2.804 2.281-4.812 2.281-1.592 0-2.919-.495-3.98-1.486-1.039-.991-1.558-2.351-1.558-4.08v-.242c0-1.959.577-3.434 1.731-4.425 1.177-.99 2.757-1.486 4.742-1.486 1.385 0 2.689.242 3.912.726v-.519c0-2.166-1.189-3.25-3.566-3.25-1.361 0-2.861.323-4.5.968l-.934-3.975c1.938-.853 4.015-1.28 6.23-1.28 2.516 0 4.397.646 5.643 1.936 1.269 1.291 1.903 3.146 1.903 5.566v11.236zm-4.742-6.05v-1.59c-.784-.392-1.696-.588-2.734-.588-.923 0-1.65.22-2.181.657-.508.415-.762 1.026-.762 1.832v.242c0 .738.22 1.303.658 1.694.438.392 1.015.588 1.731.588.969 0 1.754-.253 2.354-.76.623-.531.934-1.222.934-2.075zM262.257 106.595h-4.916v-2.489c-1.361 1.89-2.953 2.835-4.776 2.835-1.731 0-3.081-.553-4.05-1.659-.947-1.13-1.42-2.662-1.42-4.598V88.065h4.916v11.166c0 1.061.219 1.879.657 2.455.462.553 1.108.83 1.939.83.854 0 1.523-.277 2.008-.83.484-.576.726-1.394.726-2.455V88.066h4.916v18.53zM275.473 92.213h-3.565v14.382h-4.881V92.213h-1.869V88.17h1.869v-1.21c0-3.688 1.8-5.532 5.4-5.532 1.154 0 2.181.138 3.081.415v4.045a5.279 5.279 0 0 0-1.8-.311c-1.223 0-1.835.634-1.835 1.901v.692h3.6v4.044zM303.123 106.595h-4.915v-2.558c-1.339 1.936-3.012 2.904-5.02 2.904-1.984 0-3.669-.807-5.053-2.42-1.362-1.613-2.043-3.918-2.043-6.914v-.553c0-2.997.681-5.301 2.043-6.915 1.361-1.613 3.046-2.42 5.053-2.42 1.962 0 3.635.9 5.02 2.697v-8.781h4.915v24.96zm-4.846-9.058v-.414c0-1.544-.346-2.778-1.039-3.7-.692-.944-1.557-1.417-2.596-1.417-1.038 0-1.904.473-2.596 1.418-.692.921-1.038 2.154-1.038 3.699v.414c0 1.545.346 2.789 1.038 3.734.692.922 1.558 1.383 2.596 1.383 1.039 0 1.904-.461 2.596-1.383.693-.945 1.039-2.19 1.039-3.734zM322.332 97.572c0 .622-.023 1.164-.07 1.625h-11.077c.439 2.466 1.777 3.699 4.016 3.699 1.454 0 2.827-.576 4.119-1.728l2.215 2.973c-1.707 1.89-3.876 2.835-6.507 2.835-2.516 0-4.604-.865-6.266-2.593-1.638-1.729-2.457-3.999-2.457-6.81v-.347c0-2.742.761-5 2.284-6.776 1.546-1.797 3.496-2.696 5.85-2.696 2.539 0 4.489.922 5.85 2.765 1.362 1.821 2.043 4.172 2.043 7.053zm-4.743-1.66c-.115-1.29-.45-2.304-1.004-3.042-.53-.737-1.246-1.106-2.146-1.106-.9 0-1.638.357-2.215 1.072-.554.714-.912 1.74-1.073 3.077h6.438zM350.688 106.595h-4.916V95.429c0-1.06-.219-1.867-.657-2.42-.439-.576-1.062-.865-1.869-.865-.831 0-1.489.288-1.974.865-.461.553-.692 1.36-.692 2.42v11.166h-4.915V95.429c0-2.19-.854-3.285-2.562-3.285-.807 0-1.454.288-1.938.865-.462.553-.693 1.36-.693 2.42v11.166h-4.915v-18.53h4.915v2.49c1.339-1.89 2.943-2.836 4.812-2.836 2.123 0 3.658.9 4.604 2.697 1.5-1.798 3.254-2.697 5.261-2.697 1.708 0 3.058.542 4.05 1.625.993 1.06 1.489 2.593 1.489 4.598v12.653zM385.155 106.595h-4.915V91.142l-5.712 9.991h-.104l-5.676-9.887v15.349h-4.847v-24.2h5.262l5.331 9.819 5.365-9.819h5.296v24.2zM403.707 106.595h-4.812v-1.97c-1.2 1.521-2.804 2.281-4.811 2.281-1.593 0-2.92-.495-3.981-1.486-1.039-.991-1.558-2.351-1.558-4.08v-.242c0-1.959.577-3.434 1.731-4.425 1.177-.99 2.758-1.486 4.742-1.486 1.385 0 2.689.242 3.912.726v-.519c0-2.166-1.189-3.25-3.566-3.25-1.361 0-2.861.323-4.5.968l-.934-3.975c1.938-.853 4.015-1.28 6.231-1.28 2.515 0 4.396.646 5.642 1.936 1.269 1.291 1.904 3.146 1.904 5.566v11.236zm-4.743-6.05v-1.59c-.784-.392-1.696-.588-2.734-.588-.923 0-1.65.22-2.181.657-.508.415-.762 1.026-.762 1.832v.242c0 .738.22 1.303.658 1.694.439.392 1.016.588 1.731.588.969 0 1.754-.253 2.354-.76.623-.531.934-1.222.934-2.075zM417.434 93.078h-.208c-1.546 0-2.746.484-3.6 1.452-.831.968-1.246 2.408-1.246 4.321v7.744h-4.916v-18.53h4.916v3.284c1.038-2.489 2.723-3.687 5.054-3.595v5.324zM436.097 106.595h-5.573l-3.877-7.398-1.523 1.936v5.462h-4.916v-24.96h4.916V94.91l5.088-6.845h5.746l-5.884 7.364 6.023 11.166zM447.571 105.973c-1.015.599-2.227.899-3.634.899-1.546 0-2.758-.369-3.635-1.106-.854-.738-1.281-2.006-1.281-3.803v-9.75h-1.869v-4.148h1.869v-4.736h4.916v4.736h3.704v4.148h-3.704v8.747c0 1.06.507 1.59 1.523 1.59.784 0 1.488-.172 2.111-.518v3.941zM475.337 99.75c0 2.213-.738 3.953-2.215 5.22-1.477 1.268-3.404 1.902-5.781 1.902-3.254 0-6.092-1.003-8.516-3.008l2.216-3.941c2.123 1.636 4.188 2.455 6.196 2.455.969 0 1.731-.196 2.285-.588.553-.392.83-.957.83-1.694 0-.669-.265-1.233-.796-1.694-.531-.461-1.627-1.049-3.288-1.763a40.517 40.517 0 0 1-2.389-1.072c-.6-.3-1.223-.668-1.869-1.106-.623-.461-1.108-.922-1.454-1.383-.323-.461-.6-1.026-.831-1.694-.207-.669-.311-1.43-.311-2.282 0-2.097.715-3.78 2.146-5.047 1.454-1.291 3.312-1.936 5.573-1.936 2.839 0 5.308.783 7.408 2.35l-1.939 4.115c-2.007-1.314-3.807-1.971-5.4-1.971-.877 0-1.569.196-2.077.588-.484.392-.726.91-.726 1.555 0 .715.253 1.268.761 1.66.531.392 1.719 1.002 3.565 1.832 2.377 1.06 4.074 2.12 5.089 3.18 1.015 1.06 1.523 2.501 1.523 4.322zM493.854 97.572c0 .622-.024 1.164-.07 1.625h-11.077c.439 2.466 1.777 3.699 4.016 3.699 1.454 0 2.827-.576 4.119-1.728l2.215 2.973c-1.707 1.89-3.877 2.835-6.507 2.835-2.516 0-4.604-.865-6.266-2.593-1.638-1.729-2.457-3.999-2.457-6.81v-.347c0-2.742.761-5 2.284-6.776 1.546-1.797 3.496-2.696 5.85-2.696 2.539 0 4.489.922 5.85 2.765 1.362 1.821 2.043 4.172 2.043 7.053zm-4.743-1.66c-.115-1.29-.45-2.304-1.004-3.042-.53-.737-1.246-1.106-2.146-1.106-.9 0-1.638.357-2.215 1.072-.554.714-.912 1.74-1.073 3.077h6.438zM502.306 86.094h-5.123v-4.46h5.123v4.46zm-.139 20.501h-4.915v-18.53h4.915v18.53zM515.619 105.973c-1.015.599-2.227.899-3.635.899-1.546 0-2.757-.369-3.634-1.106-.854-.738-1.281-2.006-1.281-3.803v-9.75H505.2v-4.148h1.869v-4.736h4.915v4.736h3.704v4.148h-3.704v8.747c0 1.06.508 1.59 1.523 1.59.785 0 1.489-.172 2.112-.518v3.941zM542.692 106.595h-15.473v-4.01l6.854-7.433c1.292-1.337 2.181-2.408 2.665-3.215.508-.807.762-1.625.762-2.455 0-.875-.265-1.567-.796-2.074-.531-.507-1.235-.76-2.112-.76-.807 0-1.546.207-2.215.622-.646.415-1.385 1.072-2.215 1.97l-2.597-3.353c1.062-1.29 2.17-2.236 3.323-2.835 1.154-.622 2.562-.933 4.224-.933 2.261 0 4.061.61 5.4 1.832 1.361 1.222 2.042 2.88 2.042 4.978v.104c0 1.567-.369 2.927-1.108 4.08-.738 1.152-2.054 2.638-3.946 4.46l-3.808 4.563h9v4.459zM564.439 94.703c0 3.71-.854 6.683-2.562 8.919-1.685 2.236-3.946 3.354-6.785 3.354-2.838 0-5.1-1.107-6.784-3.319-1.685-2.236-2.527-5.21-2.527-8.92v-.45c0-3.71.842-6.683 2.527-8.919 1.708-2.235 3.981-3.353 6.819-3.353 2.839 0 5.1 1.118 6.785 3.353 1.684 2.213 2.527 5.175 2.527 8.885v.45zm-5.089.034v-.415c0-2.512-.392-4.436-1.177-5.773-.761-1.36-1.788-2.04-3.081-2.04-1.315 0-2.353.669-3.115 2.005-.738 1.314-1.108 3.227-1.108 5.74v.414c0 2.512.381 4.448 1.143 5.808.761 1.337 1.8 2.005 3.115 2.005 1.315 0 2.342-.657 3.081-1.97.761-1.337 1.142-3.262 1.142-5.774zM576.135 106.595h-4.95V87.374l-3.703.968-.762-4.322 5.988-1.798h3.427v24.373zM596.666 99.854c0 2.189-.774 3.918-2.32 5.186-1.523 1.267-3.507 1.901-5.954 1.901-2.4 0-4.384-.634-5.953-1.901-1.547-1.291-2.32-2.997-2.32-5.117v-.104c0-2.742 1.2-4.713 3.6-5.912-1.938-1.175-2.907-2.915-2.907-5.22v-.138c0-1.867.704-3.411 2.111-4.633 1.431-1.244 3.254-1.867 5.469-1.867 2.216 0 4.027.623 5.435 1.867 1.431 1.222 2.146 2.766 2.146 4.633v.138c0 2.328-.969 4.068-2.907 5.22 2.4 1.314 3.6 3.25 3.6 5.809v.138zm-5.4-10.648v-.104c0-.899-.254-1.625-.762-2.178-.508-.553-1.212-.83-2.112-.83-.876 0-1.58.277-2.111.83-.508.53-.762 1.245-.762 2.143v.104c0 .945.254 1.706.762 2.282.531.576 1.235.864 2.111.864.877 0 1.57-.276 2.077-.83.531-.576.797-1.336.797-2.281zm.553 10.371v-.138c0-1.014-.323-1.798-.969-2.35-.623-.577-1.442-.865-2.458-.865-1.015 0-1.846.288-2.492.864-.623.553-.934 1.337-.934 2.351v.138c0 1.037.3 1.844.9 2.42.6.576 1.442.865 2.526.865 1.085 0 1.927-.289 2.527-.865.6-.576.9-1.383.9-2.42z" fill="#FFBD00"/></g><defs><clipPath id="a"><path fill="#fff" d="M0 0h600v121H0z"/></clipPath></defs></svg>