<svg width="96" height="40" viewBox="0 0 96 40" fill="none" xmlns="http://www.w3.org/2000/svg">
<rect width="96" height="40" rx="8" fill="#FAFAFA"/>
<g clip-path="url(#clip0_41_1005)">
<path d="M71.0088 36.4945V36.5882H71.0965C71.1159 36.5882 71.1325 36.5838 71.1446 36.5763C71.1556 36.5692 71.1619 36.5566 71.1619 36.541C71.1619 36.5257 71.1556 36.5138 71.1446 36.5064C71.1325 36.4982 71.1159 36.4945 71.0965 36.4945H71.0088ZM71.0972 36.4293C71.1425 36.4293 71.1778 36.4391 71.2026 36.4591C71.2275 36.4792 71.2396 36.5064 71.2396 36.541C71.2396 36.5702 71.2303 36.5936 71.2099 36.613C71.1905 36.631 71.1629 36.6429 71.1259 36.6473L71.2424 36.7791H71.1518L71.044 36.6483H71.0088V36.7791H70.9331V36.4293H71.0972ZM71.0744 36.9003C71.1159 36.9003 71.1546 36.8918 71.1895 36.8765C71.2258 36.8609 71.2569 36.8402 71.2838 36.8137C71.3105 36.7876 71.3319 36.7567 71.3474 36.72C71.3623 36.6847 71.3706 36.6466 71.3706 36.6055C71.3706 36.5648 71.3623 36.5264 71.3474 36.4911C71.3319 36.4554 71.3105 36.4238 71.2838 36.3973C71.2569 36.3708 71.2258 36.3501 71.1895 36.3345C71.1546 36.3199 71.1159 36.3128 71.0744 36.3128C71.0329 36.3128 70.9932 36.3199 70.9573 36.3345C70.9203 36.3501 70.8878 36.3708 70.8612 36.3973C70.8342 36.4238 70.8132 36.4554 70.7983 36.4911C70.7827 36.5264 70.7755 36.5648 70.7755 36.6055C70.7755 36.6466 70.7827 36.6847 70.7983 36.72C70.8132 36.7567 70.8342 36.7876 70.8612 36.8137C70.8878 36.8402 70.9203 36.8609 70.9573 36.8765C70.9932 36.8918 71.0329 36.9003 71.0744 36.9003ZM71.0744 36.2282C71.1287 36.2282 71.1784 36.2381 71.2265 36.2581C71.2735 36.2775 71.3143 36.3046 71.3502 36.3393C71.3855 36.3729 71.4131 36.413 71.4331 36.4591C71.4535 36.5047 71.4636 36.5539 71.4636 36.6055C71.4636 36.6575 71.4535 36.7064 71.4331 36.7519C71.4131 36.7974 71.3855 36.8375 71.3502 36.8721C71.3143 36.9058 71.2735 36.9329 71.2265 36.953C71.1784 36.973 71.1287 36.9828 71.0744 36.9828C71.0188 36.9828 70.9683 36.973 70.9203 36.953C70.8722 36.9329 70.8308 36.9058 70.7955 36.8721C70.7606 36.8375 70.733 36.7974 70.7126 36.7519C70.6922 36.7064 70.6822 36.6575 70.6822 36.6055C70.6822 36.5539 70.6922 36.5047 70.7126 36.4591C70.733 36.413 70.7606 36.3729 70.7955 36.3393C70.8308 36.3046 70.8722 36.2775 70.9203 36.2581C70.9683 36.2381 71.0188 36.2282 71.0744 36.2282ZM35.1225 34.8797C35.1225 34.2123 35.5663 33.664 36.2916 33.664C36.9846 33.664 37.4525 34.1887 37.4525 34.8797C37.4525 35.5707 36.9846 36.0954 36.2916 36.0954C35.5663 36.0954 35.1225 35.5473 35.1225 34.8797ZM38.2423 34.8797V32.9812H37.4045V33.4422C37.1387 33.1003 36.7355 32.8857 36.1873 32.8857C35.1068 32.8857 34.2597 33.7204 34.2597 34.8797C34.2597 36.0401 35.1068 36.8738 36.1873 36.8738C36.7355 36.8738 37.1387 36.6592 37.4045 36.3172V36.7784H38.2423V34.8797ZM66.5565 34.8797C66.5565 34.2123 67.0003 33.664 67.7257 33.664C68.4196 33.664 68.8865 34.1887 68.8865 34.8797C68.8865 35.5707 68.4196 36.0954 67.7257 36.0954C67.0003 36.0954 66.5565 35.5473 66.5565 34.8797ZM69.6772 34.8797V31.4563H68.8385V33.4422C68.5727 33.1003 68.1694 32.8857 67.6213 32.8857C66.5407 32.8857 65.6936 33.7204 65.6936 34.8797C65.6936 36.0401 66.5407 36.8738 67.6213 36.8738C68.1694 36.8738 68.5727 36.6592 68.8385 36.3172V36.7784H69.6772V34.8797ZM48.6428 33.6249C49.1826 33.6249 49.5296 33.9586 49.6182 34.5461H47.6186C47.7081 33.9977 48.0458 33.6249 48.6428 33.6249ZM48.6594 32.8857C47.53 32.8857 46.7401 33.6958 46.7401 34.8797C46.7401 36.0873 47.5623 36.8738 48.7157 36.8738C49.2961 36.8738 49.8277 36.7312 50.2955 36.342L49.8849 35.73C49.5619 35.9837 49.1503 36.1273 48.7637 36.1273C48.2239 36.1273 47.732 35.8808 47.6112 35.1971H50.4727C50.481 35.0942 50.4893 34.9906 50.4893 34.8797C50.481 33.6958 49.7391 32.8857 48.6594 32.8857ZM58.7766 34.8797C58.7766 34.2123 59.2205 33.664 59.9458 33.664C60.6387 33.664 61.1066 34.1887 61.1066 34.8797C61.1066 35.5707 60.6387 36.0954 59.9458 36.0954C59.2205 36.0954 58.7766 35.5473 58.7766 34.8797ZM61.8966 34.8797V32.9812H61.0586V33.4422C60.7918 33.1003 60.3895 32.8857 59.8414 32.8857C58.7609 32.8857 57.9138 33.7204 57.9138 34.8797C57.9138 36.0401 58.7609 36.8738 59.8414 36.8738C60.3895 36.8738 60.7918 36.6592 61.0586 36.3172V36.7784H61.8966V34.8797ZM54.0447 34.8797C54.0447 36.0319 54.8586 36.8738 56.1006 36.8738C56.681 36.8738 57.0677 36.7465 57.4866 36.4211L57.0843 35.7534C56.7696 35.9762 56.4392 36.0954 56.0757 36.0954C55.4067 36.0873 54.9149 35.6108 54.9149 34.8797C54.9149 34.1487 55.4067 33.6722 56.0757 33.664C56.4392 33.664 56.7696 33.7832 57.0843 34.0059L57.4866 33.3385C57.0677 33.013 56.681 32.8857 56.1006 32.8857C54.8586 32.8857 54.0447 33.7277 54.0447 34.8797ZM64.8476 32.8857C64.3641 32.8857 64.0493 33.1085 63.8316 33.4422V32.9812H63.0011V36.7784H63.8399V34.6497C63.8399 34.0214 64.1139 33.6722 64.662 33.6722C64.8317 33.6722 65.009 33.6958 65.1863 33.7677L65.4444 32.9894C65.2592 32.9175 65.0173 32.8857 64.8476 32.8857ZM42.3865 33.283C41.9832 33.0212 41.4277 32.8857 40.815 32.8857C39.8387 32.8857 39.2103 33.3467 39.2103 34.1014C39.2103 34.7206 39.6782 35.1024 40.54 35.2216L40.9359 35.2773C41.3954 35.3408 41.6123 35.46 41.6123 35.6746C41.6123 35.9681 41.3059 36.1355 40.7338 36.1355C40.1534 36.1355 39.7344 35.9528 39.4521 35.7381L39.0571 36.381C39.5167 36.7145 40.0971 36.8738 40.7255 36.8738C41.8384 36.8738 42.4834 36.3573 42.4834 35.6345C42.4834 34.9672 41.9758 34.6179 41.1371 34.4987L40.7421 34.4424C40.3795 34.3951 40.0888 34.3242 40.0888 34.0696C40.0888 33.7913 40.3629 33.6249 40.8224 33.6249C41.3142 33.6249 41.7904 33.8077 42.0238 33.9505L42.3865 33.283ZM53.1976 32.8857C52.714 32.8857 52.3994 33.1085 52.1825 33.4422V32.9812H51.352V36.7784H52.1899V34.6497C52.1899 34.0214 52.464 33.6722 53.0121 33.6722C53.1819 33.6722 53.3591 33.6958 53.5362 33.7677L53.7946 32.9894C53.6092 32.9175 53.3674 32.8857 53.1976 32.8857ZM46.0471 32.9812H44.6768V31.8291H43.8297V32.9812H43.0481V33.7358H43.8297V35.4681C43.8297 36.3491 44.1766 36.8738 45.1677 36.8738C45.5313 36.8738 45.9502 36.7628 46.216 36.5801L45.9742 35.8726C45.7241 36.0156 45.4501 36.0873 45.2323 36.0873C44.8133 36.0873 44.6768 35.8325 44.6768 35.4518V33.7358H46.0471V32.9812ZM33.5187 36.7784V34.3951C33.5187 33.4976 32.9383 32.8939 32.0026 32.8857C31.5108 32.8775 31.0032 33.0284 30.648 33.5613C30.3822 33.1403 29.9633 32.8857 29.3746 32.8857C28.963 32.8857 28.5607 33.0048 28.246 33.4494V32.9812H27.4072V36.7784H28.2534V34.6733C28.2534 34.0141 28.6243 33.664 29.1974 33.664C29.7538 33.664 30.0353 34.0214 30.0353 34.6652V36.7784H30.8823V34.6733C30.8823 34.0141 31.269 33.664 31.8254 33.664C32.3975 33.664 32.6716 34.0214 32.6716 34.6652V36.7784H33.5187Z" fill="#231F20"/>
<path d="M71.5254 24.1499V23.5952H71.3789L71.2089 23.9762L71.0402 23.5952H70.8927V24.1499H70.9967V23.7316L71.1556 24.0926H71.2635L71.4221 23.7307V24.1499H71.5254ZM70.5944 24.1499V23.6898H70.7828V23.5961H70.3027V23.6898H70.4911V24.1499H70.5944Z" fill="#F79410"/>
<path d="M54.8418 26.5363H42.1431V4.04785H54.8418V26.5363Z" fill="#FF5F00"/>
<path d="M42.9561 15.2904C42.9561 10.7285 45.1237 6.66495 48.4992 4.0462C46.0308 2.13125 42.9155 0.988281 39.5299 0.988281C31.5148 0.988281 25.0176 7.39147 25.0176 15.2904C25.0176 23.1894 31.5148 29.5926 39.5299 29.5926C42.9155 29.5926 46.0308 28.4496 48.4992 26.5346C45.1237 23.9159 42.9561 19.8523 42.9561 15.2904Z" fill="#EB001B"/>
<path d="M71.9683 15.2904C71.9683 23.1894 65.4713 29.5926 57.456 29.5926C54.0704 29.5926 50.9552 28.4496 48.4858 26.5346C51.8622 23.9159 54.0298 19.8523 54.0298 15.2904C54.0298 10.7285 51.8622 6.66495 48.4858 4.0462C50.9552 2.13125 54.0704 0.988281 57.456 0.988281C65.4713 0.988281 71.9683 7.39147 71.9683 15.2904Z" fill="#F79E1B"/>
</g>
<defs>
<clipPath id="clip0_41_1005">
<rect width="47" height="36" fill="white" transform="translate(25 1)"/>
</clipPath>
</defs>
</svg>
