<svg id="Слой_1" data-name="Слой 1" xmlns="http://www.w3.org/2000/svg" viewBox="0 0 96 40"><defs><style>.cls-1{fill:#fafafa;}.cls-2{fill:none;}.cls-3{fill:#003087;}.cls-4{fill:#0070e0;}.cls-5{fill:#001c64;}</style></defs><rect class="cls-1" width="96" height="40" rx="8"/><rect class="cls-2" x="8" y="9" width="84" height="19"/><path class="cls-3" d="M32.37,13.57a.34.34,0,0,0-.34.28L30.1,26.09a.32.32,0,0,0,.26.36H32.7a.33.33,0,0,0,.33-.29l.57-3.59a.35.35,0,0,1,.34-.29H36a4.93,4.93,0,0,0,4.87-4.17,4,4,0,0,0-4.2-4.54Zm2.22,2.73h1.67c1.37,0,1.81.81,1.67,1.7s-.83,1.56-2.16,1.56H34.08Zm10.95.83a5.15,5.15,0,0,0-4.87,3.69s-1.11,3.28,1.4,5.09a4.29,4.29,0,0,0,5-.11l-.05.29a.32.32,0,0,0,.27.36h2.22a.34.34,0,0,0,.33-.29l1.32-8.38a.3.3,0,0,0-.26-.35H48.63a.33.33,0,0,0-.33.29l-.08.45a3.73,3.73,0,0,0-2.68-1Zm.07,2.65a2.17,2.17,0,0,1,.69.1,1.92,1.92,0,0,1,1.31,2.17,2.43,2.43,0,0,1-2.44,2.09,2.07,2.07,0,0,1-.68-.1,1.93,1.93,0,0,1-1.32-2.18,2.43,2.43,0,0,1,2.44-2.08Z"/><path class="cls-4" d="M63.65,13.57a.33.33,0,0,0-.33.28L61.39,26.09a.32.32,0,0,0,.26.36H64a.34.34,0,0,0,.34-.29l.56-3.59a.35.35,0,0,1,.34-.29H67.3a4.93,4.93,0,0,0,4.87-4.17A4,4,0,0,0,68,13.57Zm2.22,2.73h1.67c1.37,0,1.82.81,1.67,1.7s-.83,1.56-2.16,1.56H65.36Zm11,.83A5.17,5.17,0,0,0,72,20.82s-1.11,3.28,1.4,5.09a4.29,4.29,0,0,0,5-.11l0,.29a.32.32,0,0,0,.26.36h2.22a.33.33,0,0,0,.33-.29l1.33-8.38a.31.31,0,0,0-.27-.35H79.91a.33.33,0,0,0-.33.29l-.07.45a3.76,3.76,0,0,0-2.68-1Zm.07,2.65a2.11,2.11,0,0,1,.68.1,1.9,1.9,0,0,1,1.31,2.17,2.43,2.43,0,0,1-2.44,2.09,2.11,2.11,0,0,1-.68-.1,1.93,1.93,0,0,1-1.32-2.18,2.44,2.44,0,0,1,2.45-2.08Z"/><path class="cls-3" d="M52.14,17.42a.26.26,0,0,0-.24.33l2.38,7.39-2.15,3.49a.25.25,0,0,0,.21.38h2.55a.41.41,0,0,0,.36-.2l6.65-11a.26.26,0,0,0-.22-.39H59.14a.41.41,0,0,0-.36.21l-2.62,4.42-1.33-4.39a.35.35,0,0,0-.33-.24Z"/><path class="cls-4" d="M84.86,13.57a.33.33,0,0,0-.33.28L82.6,26.09a.32.32,0,0,0,.26.36H85.2a.34.34,0,0,0,.33-.29l1.93-12.23a.32.32,0,0,0-.26-.36H84.86Z"/><path class="cls-5" d="M13.29,13.57a.61.61,0,0,0-.61.52l-1,6.44a.62.62,0,0,1,.61-.52h3a6.07,6.07,0,0,0,6-5.15,3.71,3.71,0,0,0,.06-.67,5.65,5.65,0,0,0-2.64-.62Z"/><path class="cls-4" d="M21.31,14.19a3.71,3.71,0,0,1-.06.67,6.07,6.07,0,0,1-6,5.15h-3a.62.62,0,0,0-.61.52l-.93,5.92-.59,3.71a.51.51,0,0,0,.42.58h3.31a.64.64,0,0,0,.61-.53l.85-5.39a.62.62,0,0,1,.61-.53h1.91a6.08,6.08,0,0,0,6-5.14,4.72,4.72,0,0,0-2.54-5Z"/><path class="cls-3" d="M9.62,9.27A.61.61,0,0,0,9,9.79L6.47,25.87a.51.51,0,0,0,.5.58h3.76l.93-5.92,1-6.44a.61.61,0,0,1,.61-.52h5.39a5.61,5.61,0,0,1,2.63.62,5,5,0,0,0-5.23-4.92Z"/></svg>