<svg width="96" height="40" viewBox="0 0 96 40" fill="none" xmlns="http://www.w3.org/2000/svg">
<rect width="96" height="40" rx="8" fill="#FAFAFA"/>
<path d="M43.4665 30.5949H37.958L41.4034 9.38403H46.9116L43.4665 30.5949Z" fill="#00579F"/>
<path d="M63.4356 9.90303C62.3489 9.47386 60.6258 9 58.495 9C53.055 9 49.2246 11.8881 49.2008 16.0173C49.1559 19.0638 51.9436 20.7559 54.0288 21.7717C56.1599 22.8097 56.8841 23.4872 56.8841 24.4124C56.8627 25.8334 55.162 26.4884 53.5762 26.4884C51.3771 26.4884 50.1987 26.1507 48.4079 25.3601L47.6825 25.0212L46.9116 29.7826C48.2036 30.3686 50.5839 30.8887 53.055 30.9115C58.835 30.9115 62.5978 28.068 62.6423 23.6678C62.6644 21.2532 61.1922 19.403 58.0187 17.8911C56.0919 16.9206 54.9121 16.2662 54.9121 15.2732C54.9349 14.3705 55.91 13.4459 58.085 13.4459C59.8758 13.4006 61.1916 13.8292 62.1881 14.258L62.6865 14.4833L63.4356 9.90303Z" fill="#00579F"/>
<path d="M70.7563 23.0807C71.2099 21.8621 72.9554 17.146 72.9554 17.146C72.9327 17.1913 73.4083 15.905 73.6803 15.1153L74.0652 16.943C74.0652 16.943 75.1083 22.0202 75.3351 23.0807C74.4742 23.0807 71.8443 23.0807 70.7563 23.0807ZM77.556 9.38403H73.2951C71.981 9.38403 70.9828 9.76732 70.416 11.1439L62.2339 30.5946H68.0135C68.0135 30.5946 68.9652 27.9767 69.1699 27.4129C69.804 27.4129 75.4266 27.4129 76.2422 27.4129C76.4003 28.1575 76.8994 30.5946 76.8994 30.5946H81.9998L77.556 9.38403Z" fill="#00579F"/>
<path d="M33.3573 9.38403L27.9627 23.8478L27.3732 20.9144C26.3758 17.5296 23.2479 13.8521 19.7573 12.0235L24.6986 30.5724H30.5237L39.182 9.38403H33.3573Z" fill="#00579F"/>
<path d="M22.9533 9.38403H14.0907L14 9.8126C20.9134 11.5728 25.492 15.8156 27.3731 20.9153L25.4465 11.167C25.1293 9.8123 24.1545 9.42872 22.9533 9.38403Z" fill="#FAA61A"/>
</svg>
