<svg id="Слой_1" data-name="Слой 1" xmlns="http://www.w3.org/2000/svg" viewBox="0 0 96 40"><defs><style>.cls-1{fill:#fafafa;}.cls-2{fill:#2e4369;}.cls-3{fill:#00b9ff;}.cls-4{fill:none;}</style></defs><rect class="cls-1" width="96" height="40" rx="8"/><g id="Blue_Navy" data-name="Blue Navy"><g id="Wise"><path class="cls-2" d="M89.94,18.81a7.9,7.9,0,0,0-8.16-8.3c-6.06,0-10.12,4.4-10.12,10.68a7.93,7.93,0,0,0,8.27,8.3c4.4,0,7.68-2.12,9-5.52H84.07a4.24,4.24,0,0,1-3.72,1.72A4.16,4.16,0,0,1,76,21.53H89.66A13.34,13.34,0,0,0,89.94,18.81Zm-13.58-.57a5.26,5.26,0,0,1,5.24-4,3.88,3.88,0,0,1,4,4Z"/><path class="cls-2" d="M58.52,29.05l.88-4.67c2.68.53,3.09-1,3.79-4.62l.34-1.8c1-5.08,2.94-7.62,8.56-6.93l-.88,4.67c-2.68-.53-3.15,1.5-3.75,4.65l-.34,1.8C66.14,27.3,64.11,29.74,58.52,29.05Z"/><polygon class="cls-2" points="51.96 29.07 55.28 10.95 59.65 10.95 56.35 29.07 51.96 29.07"/><polygon class="cls-2" points="26.93 10.95 31.17 10.95 32.55 24.05 38.11 10.95 42.31 10.95 43.79 24.18 49.15 10.95 53.38 10.95 45.69 29.07 40.89 29.07 39.33 16.6 34.02 29.07 29.37 29.07 26.93 10.95"/></g><polygon id="FF" class="cls-3" points="11.1 15.75 6.06 20.56 14.62 20.56 15.52 18.46 11.18 18.46 13.89 15.75 12.32 13.04 19.67 13.04 12.88 29.07 15.44 29.07 23.12 10.95 8.27 10.95 11.1 15.75"/></g><rect class="cls-4" x="8" y="9" width="84" height="19"/></svg>