<svg width="400" height="400" fill="none" xmlns="http://www.w3.org/2000/svg"><g clip-path="url(#a)"><path d="M31.55 457.32c-13.39-34.91 5.5-94.79 17.41-122.06 34.46-79.16 97.22-85 148.15-89.74 49.57-4.62 97-9 131.47 47.07 22.4 36.47 42.91 104.33 29.24 142.07-14.41 39.8-54.65 12.56-151.52 18.83-108.59 7.02-158.07 47.3-174.75 3.83z" fill="url(#b)"/><path d="M243.87 251.11c0 9.57-22.36 22.27-50.07 23.77-27.86 1.5-50.54-8.87-50.54-18.53 0-9.66 22.68-6.51 50.54-7.95 27.71-1.43 50.07-6.81 50.07 2.71z" fill="url(#c)"/><path d="M175.27 187.5c-7.68.35 10 55.6-17.89 64.75-2.71.88-3.15 4.69-.69 6 7.51 3.83 21.55 8.44 44.5 7.22a57.497 57.497 0 0 0 31.32-11.45 3.24 3.24 0 0 0 1.336-2.816 3.23 3.23 0 0 0-1.666-2.634c-8.52-4.15-20.37-18.17-16.83-61.44l-40.08.37z" fill="url(#d)"/><path d="M151.9 121.15c.12.7 2.45 51.93 13.73 77 3.23 7.19 19.25 5.55 29.58 4.17 9-1.19 23 1.55 26.93-5.08 15.83-26.6 13.15-90.56 13.15-90.56s-8.11-21-41.47-19.19c-33.56 1.86-41.92 33.66-41.92 33.66z" fill="url(#e)"/><path d="M159.79 148.38s-7.05-8.21-13.7-9.07c-6.65-.86-11 17.22-1.91 28.47s19.54 1.13 19.54 1.13l-3.93-20.53z" fill="url(#f)"/><path d="M227.96 145.48s7-8.74 13.5-10.14c6.5-1.4 10.79 16.14 1.87 28.06-8.92 11.92-19.26 2.83-19.26 2.83l3.89-20.75z" fill="url(#g)"/><path d="M154.27 147.98c.89 1.65 1.91 3.18 2.59 3 2.85-.9-8.14-29.28 2-39.78 5.23-5.42 11.11-.9 32.45-2.74 21.34-1.84 26.86-7.39 33.31-3.55 5.87 3.49 11.11 13.89 6.77 45.51l3.63-1c-1.63-10.23.15-16.8 2.18-21 1.48-3 4.16-7 3.95-12.55-.12-3.45-1.22-3.56-1.39-6.37-.53-8.26 8.48-10.83 8.92-19 .33-6.3-4.85-7.54-3.9-14.15.8-5.62 4.85-6.81 4.21-10.82-.69-4.34-6.11-7.39-9.92-8.39-3.81-1-5.29.31-7.57-1.26-3.69-2.53-1.92-7.32-4.58-9-4.75-3-14.2 9.84-20.32 6.94-3.71-1.76-2.28-7.43-5.57-8.68-6.37-2.47-17.61 16.45-22.13 14.17-2.17-1.11-.08-5.7-3.12-8.93-3.58-3.8-12.17-3.51-16.09.77-3.66 4-.55 8.51-4.42 13.55-3.48 4.52-7.5 2.85-11.43 6.52-6.69 6.24-4.36 19.74-3.53 24.55 2.86 16.57 11.75 19.6 9.75 31-.51 2.93-1.69 6.21-.85 10.92a21.668 21.668 0 0 0 5.06 10.29z" fill="url(#h)"/><path d="M235.7 108.8c-.74-8.1 5.26-12.12 4.26-17.88-.82-4.63-5.85-8.63-10.59-9.35-10.11-1.54-16.67 14.28-26.76 13-7.82-1-6.95-10.9-15.78-14.53-14-5.78-28.77 13.94-38.14 9-2.82-1.49-5.67-5.5-5.87-16.65-5.39 6.61-3.28 18.89-2.49 23.43 2.86 16.57 11.75 19.6 9.75 31-.51 2.93-1.69 6.21-.85 10.92a21.658 21.658 0 0 0 5.06 10.25c.89 1.65 1.91 3.18 2.59 3 2.85-.9-8.14-29.28 2-39.78 5.23-5.42 11.11-.9 32.45-2.74 21.34-1.84 26.86-7.39 33.31-3.55 5.87 3.49 11.11 13.89 6.77 45.51l3.63-1c-1.63-10.23.15-16.8 2.18-21 .61-1.25 1.42-2.66 2.16-4.28a38.476 38.476 0 0 0-1.52-8.74c-1.12-3.67-1.9-4.01-2.16-6.61z" fill="url(#i)" style="mix-blend-mode:multiply" opacity=".3"/></g><defs><linearGradient id="b" x1="166.7" y1="-27.62" x2="208.93" y2="645.6" gradientUnits="userSpaceOnUse"><stop stop-color="#F36F56"/><stop offset="1" stop-color="#FFC444"/></linearGradient><linearGradient id="c" x1="193.99" y1="279.19" x2="192.62" y2="195.75" gradientUnits="userSpaceOnUse"><stop stop-color="#311944"/><stop offset="1" stop-color="#893976"/></linearGradient><linearGradient id="d" x1="194.67" y1="286.95" x2="194.23" y2="216.61" gradientUnits="userSpaceOnUse"><stop stop-color="#AB316D"/><stop offset="1" stop-color="#792D3D"/></linearGradient><linearGradient id="e" x1="188.76" y1="186.15" x2="200.42" y2="45.79" gradientUnits="userSpaceOnUse"><stop stop-color="#AB316D"/><stop offset="1" stop-color="#792D3D"/></linearGradient><linearGradient id="f" x1="149.38" y1="183.94" x2="160.89" y2="45.45" gradientUnits="userSpaceOnUse"><stop stop-color="#AB316D"/><stop offset="1" stop-color="#792D3D"/></linearGradient><linearGradient id="g" x1="233.76" y1="187.89" x2="245.41" y2="47.66" gradientUnits="userSpaceOnUse"><stop stop-color="#AB316D"/><stop offset="1" stop-color="#792D3D"/></linearGradient><linearGradient id="h" x1="185.79" y1="119.03" x2="216.89" y2="22.56" gradientUnits="userSpaceOnUse"><stop stop-color="#311944"/><stop offset="1" stop-color="#6B3976"/></linearGradient><linearGradient id="i" x1="185.88" y1="118.75" x2="217.21" y2="21.58" gradientUnits="userSpaceOnUse"><stop stop-color="#311944"/><stop offset="1" stop-color="#6B3976"/></linearGradient><clipPath id="a"><path fill="#fff" d="M0 0h400v400H0z"/></clipPath></defs></svg>