<svg width="400" height="400" fill="none" xmlns:xlink="http://www.w3.org/1999/xlink" xmlns="http://www.w3.org/2000/svg"><g clip-path="url(#a)"><path d="M1.913 408.188c-3.49-6.77-1.77-16.8 1.68-36.86 1.7-9.91 9.5-55.34 29.31-83.75 37.56-53.91 123.01-53.14 170.76-52.7 56.76.52 115 1 155.85 45.17 34.45 37.17 54.57 103 29.28 134-24.34 29.73-68.27-.29-194.27.88-105.88.95-177.26 23.07-192.61-6.74z" fill="url(#b)" style="fill-opacity:1;fill:url(#c)"/><path d="M196.193 211.358c-46.71-.1-97 21.2-96 37.29 1.07 16.86 58.44 27.74 99.34 28 38.06.29 94.62-8.34 96.19-24.9 1.56-16.28-50.21-40.27-99.53-40.39z" fill="url(#d)"/><path d="M171.853 164.458s12.14 79.42-32.32 86.25l65 14.52 54.31-15.16s-41-11.07-35.07-76.4l-51.92-9.21z" fill="url(#e)"/><path d="M243.383 144.598c0 27.3-20.86 49.42-46.59 49.42-25.73 0-46.6-22.12-46.6-49.42s20.86-79.9 46.6-79.9c25.74 0 46.59 52.61 46.59 79.9z" fill="url(#f)"/><path d="M240.233 135.358s11-8.27 16.73.38c8 12.15-17.83 24.56-17.83 24.56l1.1-24.94z" fill="url(#g)"/><path d="M153.153 135.358s-11-8.27-16.73.38c-8 12.15 17.83 24.56 17.83 24.56l-1.1-24.94z" fill="url(#h)"/><path d="M152.743 153.078c-2.19.51-17.36-29-12.11-58 9.64-53.28 78.62-76.31 83.19-68.64 2.35 3.94-10.71 18.62-7.52 23 3 4.14 16.76-6.11 19.36-2.05 2.38 3.7-7.31 14.94-4.89 18.72 2.42 3.78 13.86-5.47 17.6-1.22 5.32 6-11.58 31.68-4.62 41.19 2.36 3.22 5.14 1.4 7.8 4.8 7.45 9.51-3.16 37.82-7.8 37.07-3.53-.57-.25-17.48-10.11-34.32a49.181 49.181 0 0 0-14.73-15.82 70.117 70.117 0 0 0-20.89 11.6c-5.89 4.78-5.23 7-9.44 9.34-11.08 6.13-21.33-3-28.31 3.1-2.22 1.94-3.07 5.51-4.78 12.64-2.78 11.63-1.75 18.39-2.75 18.59z" fill="url(#i)"/><path d="M215.063 86.738c-10-4.12-10.81-16.85-21.28-19.66-20.14-5.39-40.62 35.54-46.33 31.46-2.13-1.53-1.95-9.16 5.57-32.48a72.527 72.527 0 0 0-12.39 29c-5.25 29 9.92 58.53 12.11 58 1-.24 0-7 2.75-18.59 1.71-7.13 2.56-10.7 4.78-12.64 7-6.08 17.23 3 28.31-3.1 4.21-2.34 3.55-4.56 9.44-9.34a70.12 70.12 0 0 1 20.89-11.58 49.18 49.18 0 0 1 14.73 15.79c9.86 16.84 6.58 33.75 10.11 34.32 4.64.75 15.25-27.56 7.8-37.07-2.66-3.4-5.44-1.58-7.8-4.8-5.31-7.26 3.27-23.9 5.27-34.07-16.73 16.16-27.18 17.55-33.96 14.76z" fill="url(#j)" style="mix-blend-mode:multiply" opacity=".3"/></g><defs><linearGradient id="b" x1="716.428" y1="207.886" x2="692.889" y2="332.966" gradientUnits="userSpaceOnUse"><stop stop-color="#09005D" offset="0" style="stop-color:#16005d;stop-opacity:1"/><stop offset="1" stop-color="#1A0F91" style="stop-color:#4f3371;stop-opacity:1"/></linearGradient><linearGradient id="d" x1="100.193" y1="244.028" x2="295.773" y2="244.028" gradientUnits="userSpaceOnUse"><stop stop-color="#444B8C"/><stop offset="1" stop-color="#3E4177"/></linearGradient><linearGradient id="e" x1="198.923" y1="255.318" x2="206.743" y2="100.088" gradientUnits="userSpaceOnUse"><stop stop-color="#FFC444"/><stop offset="1" stop-color="#F36F56"/></linearGradient><linearGradient id="f" x1="187.073" y1="189.648" x2="248.923" y2="-103.582" gradientUnits="userSpaceOnUse"><stop stop-color="#FFC444"/><stop offset="1" stop-color="#F36F56"/></linearGradient><linearGradient id="g" x1="236.373" y1="200.048" x2="298.223" y2="-93.192" gradientUnits="userSpaceOnUse"><stop stop-color="#FFC444"/><stop offset="1" stop-color="#F36F56"/></linearGradient><linearGradient id="h" x1="138.373" y1="179.378" x2="200.233" y2="-113.862" gradientUnits="userSpaceOnUse"><stop stop-color="#FFC444"/><stop offset="1" stop-color="#F36F56"/></linearGradient><linearGradient id="i" x1="139.533" y1="89.038" x2="254.133" y2="89.038" gradientUnits="userSpaceOnUse"><stop stop-color="#444B8C"/><stop offset="1" stop-color="#3E4177"/></linearGradient><linearGradient id="j" x1="139.533" y1="109.568" x2="254.133" y2="109.568" gradientUnits="userSpaceOnUse"><stop stop-color="#444B8C"/><stop offset="1" stop-color="#3E4177"/></linearGradient><linearGradient xlink:href="#b" id="c" x1="0" y1="331.01" x2="400.147" y2="331.01" gradientUnits="userSpaceOnUse"/><clipPath id="a"><path fill="#fff" d="M0 0h400v400H0z"/></clipPath></defs></svg>