<svg width="400" height="400" fill="none" xmlns="http://www.w3.org/2000/svg"><g clip-path="url(#a)"><path d="M215.25 432.864c-127.39 6.67-173 25.64-193.83-1.3-19.26-24.91-3.29-117.79 19.59-144.29 35.93-41.6 92.95-44.79 169.71-48.53 70.92-3.45 113.92-5.55 147.63 24.12 31.23 27.48 51.05 124.11 31.72 152-18.01 26-56.81 11.82-174.82 18z" fill="url(#b)"/><path d="M215.25 432.864c-127.39 6.67-173 25.64-193.83-1.3-19.26-24.91-3.29-117.79 19.59-144.29 35.93-41.6 92.95-44.79 169.71-48.53 70.92-3.45 113.92-5.55 147.63 24.12 31.23 27.48 51.05 124.11 31.72 152-18.01 26-56.81 11.82-174.82 18z" fill="url(#c)"/><path d="m168.54 239.494-14.9 4.11a5.577 5.577 0 0 0-3.28 8.37c10.14 15.51 36.89 54.25 53.56 58.39 17.15 4.26 49-46.2 59.55-63.85a5.364 5.364 0 0 0 .451-4.708 5.35 5.35 0 0 0-3.451-3.232l-10.66-3.2a70.07 70.07 0 0 0-27.16-2.57l-40.23 4.06a83.305 83.305 0 0 0-13.88 2.63z" fill="url(#d)"/><path d="M179.55 181.864s8.14 58.3-3.12 64.12l32 34 32.11-41.82s-12.11-8.92-8.92-57.07l-52.07.77z" fill="url(#e)"/><path d="M160.64 98.214c-1.2 1.58-16.34 75.65 35.82 82.65 51.51 6.94 53.77-47.08 53.12-70-.65-22.92-24.13-31.19-37.63-32.78-13.5-1.59-47.22 14.56-51.31 20.13z" fill="url(#f)"/><path d="M157.57 141.364s-2.62-12.06-11.6-4.45 5.3 27.48 17.06 26.52l-5.46-22.07z" fill="url(#g)"/><path d="M248 132.254c-1.47 1-5.7 29.1-5.7 29.1s7.39.79 12.74-9.33c5.35-10.12 7.89-30.06-7.04-19.77z" fill="url(#h)"/><path d="M268.07 78.674c-5.37-9-19-4.72-22.94-13.4-3.34-7.31 4.51-14.16.3-20.47-3.53-5.29-12.16-5.19-13.7-5.17-11.7.13-14.38 9.43-22.75 9.2-10.24-.29-10.64-14.32-24.22-20.29-13.23-5.82-32.63-1.24-40.5 9.54-6.13 8.39-.91 14.59-9 25.39-5.54 7.44-10.44 7.77-13.2 15.06-2.59 6.85-.84 13.37.53 18.21 3.29 11.6 9.4 16.69 18.62 29a197.353 197.353 0 0 1 15.59 24.33 273.545 273.545 0 0 1 9.14 29c2.93 11.47 2.75 13.8 5.49 17.48 9.41 12.69 30.81 11.08 39.78 10.41 10.26-.77 23-1.72 29.4-10.74 3.45-4.87 3-9.22 3.81-20.86a292.16 292.16 0 0 1 4.43-34.14 104.12 104.12 0 0 1 4.16-14.48c3.71-10 7.55-11.58 11.72-21.88 3.39-8.23 7.7-18.88 3.34-26.19zm-42.4 78c-6.34 1.79-10.61.29-19.22-.11-17.27-.81-22.75 7.35-30.94 3.88-3.42-1.45-11.34-5.53-13-13.5a64 64 0 0 1-.53-20.45c1.36-10 2.93-21.58 11-26.71 11.63-7.44 26.44 5.22 37.05-3 4-3.16 5.67-8 6.41-11.59 2.35.81 21 7.57 27.8 27.47a45.11 45.11 0 0 1-.25 29.2c-3.9 5.85-9.78 12.43-18.35 14.83l.03-.02z" fill="url(#i)"/><path d="M189.93 169.244a42.49 42.49 0 0 0 27.88-1.131c1.16-.46 2.15.8 1.18 1.5-4 2.91-9.84 6-16.2 5.62a33.285 33.285 0 0 1-13.85-4.37c-1.07-.59-.23-1.999.99-1.619z" fill="url(#j)"/></g><defs><linearGradient id="b" x1="359.19" y1="66.884" x2="139.74" y2="498.864" gradientUnits="userSpaceOnUse"><stop stop-color="#FF9085"/><stop offset="1" stop-color="#FB6FBB"/></linearGradient><linearGradient id="c" x1="205.857" y1="264.807" x2="243.706" y2="434.713" gradientUnits="userSpaceOnUse"><stop stop-color="#6165D7"/><stop offset="1" stop-color="#30ABBA"/></linearGradient><linearGradient id="d" x1="207.059" y1="242.921" x2="224.385" y2="304.856" gradientUnits="userSpaceOnUse"><stop stop-color="#45489E"/><stop offset="1" stop-color="#147581"/></linearGradient><linearGradient id="e" x1="210.25" y1="253.694" x2="224.01" y2="343.164" gradientUnits="userSpaceOnUse"><stop stop-color="#FFC444"/><stop offset="1" stop-color="#F36F56"/></linearGradient><linearGradient id="f" x1="203.73" y1="116.324" x2="200.27" y2="344.404" gradientUnits="userSpaceOnUse"><stop stop-color="#FFC444"/><stop offset="1" stop-color="#F36F56"/></linearGradient><linearGradient id="g" x1="148.219" y1="104.068" x2="170.694" y2="331.537" gradientUnits="userSpaceOnUse"><stop stop-color="#FFC444"/><stop offset="1" stop-color="#F36F56"/></linearGradient><linearGradient id="h" x1="251.24" y1="116.714" x2="247.8" y2="344.334" gradientUnits="userSpaceOnUse"><stop stop-color="#FFC444"/><stop offset="1" stop-color="#F36F56"/></linearGradient><linearGradient id="i" x1="120.78" y1="116.714" x2="269.91" y2="116.714" gradientUnits="userSpaceOnUse"><stop stop-color="#AB316D"/><stop offset="1" stop-color="#792D3D"/></linearGradient><linearGradient id="j" x1="215.16" y1="72.484" x2="205.29" y2="157.674" gradientUnits="userSpaceOnUse"><stop stop-color="#FFC444"/><stop offset="1" stop-color="#F36F56"/></linearGradient><clipPath id="a"><path fill="#fff" d="M0 0h400v400H0z"/></clipPath></defs></svg>