<svg width="400" height="400" fill="none" xmlns="http://www.w3.org/2000/svg"><g clip-path="url(#a)"><path d="M199 254.4c-38.44 4-50.59 17.62-65.82 8.06-13.85-8.69-8.17-22.72-22.95-32.69-20.69-14-45.67 4.14-55.42-7.7-7.61-9.25 7.16-20.88 4.56-45.27-3.1-29-26.4-35.2-23-58.38 2.38-16.35 16-27.33 17-28.1 10.55-8.28 15.72-3.91 25.48-11.42 14.17-11 8.13-23.9 22.61-36.61 1.13-1 15.48-13.26 30.61-10 11.72 2.61 11.54 11.79 21.39 14.25 17.66 4.4 27.59-22.77 49.65-22.53 17.43.18 18.13 17.24 39.36 21.38 26.17 5.11 45.33-16.83 55.56-8 6.57 5.63-.82 15.09 6.72 25.83 8.26 11.77 20.82 5.68 34.54 18 8.08 7.27 15.3 19.79 14.79 32.61-.51 12.82-8.26 15.88-6.55 27.19 1.67 11 9.58 11.48 11.57 22 2.24 11.9-5.06 25.86-14.77 33.42-13.32 10.37-25.32 4.12-32.74 14.49-5.54 7.75-.64 13.76-5.35 22.9-4.53 8.82-14.61 14-33.86 18-33.59 6.95-41.59-.72-73.38 2.57z" fill="url(#b)"/><path d="M323.79 190.6c-22.22-4.43-24.28-25-47.72-31.56-40.2-11.17-73.81 38.46-93.9 26.17-19.18-11.74 7.05-59.74-19.24-88.51-19.35-21.19-48.93-12-55.41-27.71-2.96-7.09-.73-18.34 15.47-36.95-11.37 1.55-20.63 9.46-21.53 10.25C86.98 55 93.02 67.9 78.85 78.9c-9.76 7.55-14.93 3.18-25.5 11.46-1 .77-14.63 11.75-17 28.1-3.37 23.18 19.93 29.39 23 58.38 2.6 24.39-12.17 36-4.56 45.27 9.75 11.84 34.73-6.26 55.42 7.7 14.78 10 9.1 24 22.95 32.69 15.23 9.56 27.38-4.09 65.82-8.06 31.83-3.29 39.82 4.38 73.38-2.57 19.25-4 29.33-9.14 33.86-18 4.71-9.14-.19-15.15 5.35-22.9 7.42-10.37 19.42-4.12 32.74-14.49a41.248 41.248 0 0 0 9.4-10.55c-9.74 4.55-19.92 6.67-29.92 4.67z" fill="url(#c)" style="mix-blend-mode:multiply" opacity=".3"/><path d="M50.41 438.62c13.07 20.47 80.51 63.62 168.91 62.6 89.06-1 122.62-35.16 136.47-55.15 6.42-9.27-5.4-71.88-10-92.35-3.16-14-9.32-41.3-32.1-60.07-27.94-23-67-21.73-106.31-20.44-41.12 1.35-97.85 3.21-129.39 38.76-22.06 24.87-24.3 57.77-24.57 62.63-.63 11.46-6.12 59.15-3.01 64.02z" fill="url(#d)"/><path d="M50.41 438.62c13.07 20.47 80.51 63.62 168.91 62.6 89.06-1 122.62-35.16 136.47-55.15 6.42-9.27-5.4-71.88-10-92.35-3.16-14-9.32-41.3-32.1-60.07-27.94-23-67-21.73-106.31-20.44-41.12 1.35-97.85 3.21-129.39 38.76-22.06 24.87-24.3 57.77-24.57 62.63-.63 11.46-6.12 59.15-3.01 64.02z" fill="url(#e)"/><path d="M186.79 208.12s5.26 60.83-37.39 73a6.003 6.003 0 0 0-4.244 4.649 6.004 6.004 0 0 0 2.244 5.881c13.49 10.57 37.85 27.46 58.17 29.65 21.16 2.27 46.31-19.57 59.17-32.5a5.994 5.994 0 0 0-.297-8.811 5.997 5.997 0 0 0-2.953-1.379c-18.24-3.25-50.94-16.29-47.56-68.13l-27.14-2.36z" fill="url(#f)"/><path d="M158.23 164.37s-3 60.67 40.68 60c43.68-.67 40.62-52.47 38.2-65.85 0 0 .3-35.22-28.81-32.2-29.11 3.02-48.76 12.14-50.07 38.05z" fill="url(#g)"/><path d="M233.68 180.05s4.19-15.85 12.84-8c12.57 11.4-14.23 24.34-14.23 24.34l1.39-16.34z" fill="url(#h)"/><path d="M162.39 180.05s-4.19-15.85-12.84-8c-12.57 11.4 14.24 24.34 14.24 24.34l-1.4-16.34z" fill="url(#i)"/><path d="M156.89 163.54a1.327 1.327 0 0 0 1.231.946 1.33 1.33 0 0 0 1.289-.866c3-7.78 12.31-25.4 36.82-27.95 21.93-2.29 33.6 13.83 38.68 23.91a2.475 2.475 0 0 0 2.652 1.313 2.47 2.47 0 0 0 2.008-2.173c1.48-14.61-.53-42.76-37.89-42.76-47.14 0-48.46 35.75-44.79 47.58z" fill="url(#j)"/></g><defs><linearGradient id="b" x1="211.48" y1="247.96" x2="183.77" y2="27.84" gradientUnits="userSpaceOnUse"><stop stop-color="#311944"/><stop offset="1" stop-color="#6B3976"/></linearGradient><linearGradient id="c" x1="206.61" y1="248.58" x2="178.91" y2="28.46" gradientUnits="userSpaceOnUse"><stop stop-color="#311944"/><stop offset="1" stop-color="#6B3976"/></linearGradient><linearGradient id="d" x1="199.37" y1="297.78" x2="207.93" y2="572.64" gradientUnits="userSpaceOnUse"><stop stop-color="#FFC444"/><stop offset="1" stop-color="#F36F56"/></linearGradient><linearGradient id="e" x1="2503.89" y1="-740.435" x2="2382.58" y2="-305.346" gradientUnits="userSpaceOnUse"><stop stop-color="#FF928E"/><stop offset="1" stop-color="#FE7062"/></linearGradient><linearGradient id="f" x1="204.31" y1="328.14" x2="208.98" y2="186.54" gradientUnits="userSpaceOnUse"><stop stop-color="#AB316D"/><stop offset="1" stop-color="#792D3D"/></linearGradient><linearGradient id="g" x1="195.76" y1="208.99" x2="201.83" y2="115.99" gradientUnits="userSpaceOnUse"><stop stop-color="#AB316D"/><stop offset="1" stop-color="#792D3D"/></linearGradient><linearGradient id="h" x1="239.5" y1="211.84" x2="245.58" y2="118.85" gradientUnits="userSpaceOnUse"><stop stop-color="#AB316D"/><stop offset="1" stop-color="#792D3D"/></linearGradient><linearGradient id="i" x1="153.75" y1="206.24" x2="159.82" y2="113.25" gradientUnits="userSpaceOnUse"><stop stop-color="#AB316D"/><stop offset="1" stop-color="#792D3D"/></linearGradient><linearGradient id="j" x1="197.23" y1="174.62" x2="201.44" y2="3.57" gradientUnits="userSpaceOnUse"><stop stop-color="#FFC444"/><stop offset="1" stop-color="#F36F56"/></linearGradient><clipPath id="a"><path fill="#fff" d="M0 0h400v400H0z"/></clipPath></defs></svg>