<svg width="400" height="400" fill="none" xmlns="http://www.w3.org/2000/svg"><g clip-path="url(#a)"><path d="M187.761 73.999c-9.67-5.45-10.4-18-10.69-23-.68-11.73 3.56-30.81 16-33.65 10-2.28 19.16 7.32 20.29 8.54 11.5 12.41 6 30.2 5.34 32.05-1.36 4.15-4.19 12.73-12.81 16.56-.58.34-9.77 4.25-18.13-.5z" fill="url(#b)"/><path d="M205.921 49.459c-5.63-8.26-15.7-7.36-18.7-14.42-1.49-3.52-1.14-8.84 4.49-17.22-11.39 3.9-15.29 22-14.64 33.25.29 5 1 17.51 10.69 23 8.36 4.72 17.55.81 18.16.54.37-.17.74-.35 1.1-.54 2.64-8.68 3.49-17.86-1.1-24.61z" fill="url(#c)" style="mix-blend-mode:multiply" opacity=".3"/><path d="M139.661 310.109s-19.31-138.33-11-186.94c8.31-48.61 53.41-58.39 72.79-58.84 19.38-.45 58.09 13.1 61 70.59 2.91 57.49-26.51 178.5-26.51 178.5l-96.28-3.31z" fill="url(#d)"/><path d="M195.711 187.359c30.25 2.82 41.58-24.05 69.4-21.36 2.69.26-.73 2.76 2.5 3.8.49-5.46-2.16-15.51-2-20.53-3.63-1.27 2.44.9-.54.61-27.82-2.69-39.15 24.19-69.4 21.36-24.66-2.3-32.58-21.6-54.24-18.69a38.146 38.146 0 0 0-14.77 5.45c0 5.1.15 10.43.35 15.91a37.743 37.743 0 0 1 14.5-5.19c21.62-2.96 29.54 16.34 54.2 18.64z" fill="#fff" style="mix-blend-mode:soft-light" opacity=".3"/><path style="mix-blend-mode:multiply" opacity=".8" d="M189.891 237.519c-22.58-2.3-29.83-21.59-49.67-18.69a31.795 31.795 0 0 0-10.27 3.42c3.87 45.85 9.74 87.86 9.74 87.86l96.33 3.31s11.55-47.41 19.46-97c-.69-.11-1.37-.2-2-.27-25.51-2.68-35.88 24.2-63.59 21.37z" fill="url(#e)"/><path style="mix-blend-mode:multiply" opacity=".3" d="M253.451 165.999c-25.48-2.69-35.85 24.18-63.56 21.36-22.58-2.3-29.83-21.6-49.67-18.69a32.76 32.76 0 0 0-13.28 5.19c.52 15.48 1.64 32.17 3 48.39a31.795 31.795 0 0 1 10.27-3.42c19.84-2.9 27.09 16.39 49.67 18.69 27.71 2.83 38.08-24.05 63.56-21.36.67.07 2.48-49.9.01-50.16z" fill="url(#f)"/><path d="M34.401 449.069c-20.9-24.82 6.84-116.73 29.08-146.46 37.18-49.61 99.61-54.61 131.75-57.13 34.51-2.72 81.4-6.42 119.87 24.91 45.26 36.85 74.85 155.19 49.56 183.61-20.57 23.11-65.06-45.91-162.43-45.64-98.57.3-147.24 65.14-167.83 40.71z" fill="url(#g)"/><path d="M133.231 262.269c17.85-5.57 47.05-5.57 46.74-69.66 0 0 37-.54 38.43 0 1.43.54-9.81 63.54 42 65.69 3.53.15 4.45 5.16 1.62 7.26-9.37 7-30.49 17.45-61.75 16.24-19.78-.76-42.32 2.56-67.12-11.79-3.42-2.01-3.66-6.57.08-7.74z" fill="url(#h)"/><path d="M230.431 392.469c-10.28-2.14 8-89-1-224.43-1.88-28.08-4.46-51.19-6.41-66.77l33.41 2.89c12.76 41 29.47 115.69 9.16 203.35-9.57 41.21-27.6 86.49-35.16 84.96z" fill="url(#i)"/><path d="M230.431 392.469c-10.28-2.14 8-89-1-224.43-1.88-28.08-4.46-51.19-6.41-66.77l33.41 2.89c12.76 41 29.47 115.69 9.16 203.35-9.57 41.21-27.6 86.49-35.16 84.96z" fill="url(#j)"/><path d="M154.951 139.749c0 8.53-3.87 71 43.85 71 43.64 0 39.82-45.66 38.55-68.57 0 0-2-20.59-16.69-26.44 0 0 13.6 11.76 13.39 37.2 0 0-3.39-13.57-35.38-14-31.99-.43-38.69 14-38.69 14s-5.64-24.49 10.63-37.2c.05.02-11.54 3.61-15.66 24.01z" fill="url(#k)"/></g><defs><linearGradient id="g" x1="194.881" y1="482.859" x2="222.861" y2="162.329" gradientUnits="userSpaceOnUse"><stop stop-color="#AA80F9"/><stop offset="1" stop-color="#6165D7"/></linearGradient><linearGradient id="b" x1="226.951" y1="10.799" x2="205.941" y2="37.149" gradientUnits="userSpaceOnUse"><stop stop-color="#444B8C"/><stop offset="1" stop-color="#3E4177"/></linearGradient><linearGradient id="d" x1="242.361" y1="57.109" x2="183.961" y2="212.009" gradientUnits="userSpaceOnUse"><stop stop-color="#444B8C"/><stop offset="1" stop-color="#3E4177"/></linearGradient><linearGradient id="e" x1="259.931" y1="63.739" x2="201.541" y2="218.629" gradientUnits="userSpaceOnUse"><stop stop-color="#444B8C"/><stop offset="1" stop-color="#3E4177"/></linearGradient><linearGradient id="f" x1="241.411" y1="59.179" x2="183.701" y2="212.259" gradientUnits="userSpaceOnUse"><stop stop-color="#444B8C"/><stop offset="1" stop-color="#3E4177"/></linearGradient><linearGradient id="c" x1="226.291" y1="10.279" x2="205.281" y2="36.629" gradientUnits="userSpaceOnUse"><stop stop-color="#444B8C"/><stop offset="1" stop-color="#3E4177"/></linearGradient><linearGradient id="h" x1="203.201" y1="396.239" x2="192.521" y2="165.499" gradientUnits="userSpaceOnUse"><stop stop-color="#FFC444"/><stop offset="1" stop-color="#F36F56"/></linearGradient><linearGradient id="i" x1="294.351" y1="76.719" x2="235.961" y2="231.609" gradientUnits="userSpaceOnUse"><stop stop-color="#444B8C"/><stop offset="1" stop-color="#3E4177"/></linearGradient><linearGradient id="j" x1="294.351" y1="76.719" x2="235.961" y2="231.609" gradientUnits="userSpaceOnUse"><stop stop-color="#444B8C"/><stop offset="1" stop-color="#3E4177"/></linearGradient><linearGradient id="k" x1="193.601" y1="221.719" x2="207.741" y2="-123.561" gradientUnits="userSpaceOnUse"><stop stop-color="#FFC444"/><stop offset="1" stop-color="#F36F56"/></linearGradient><clipPath id="a"><path fill="#fff" d="M0 0h400v400H0z"/></clipPath></defs></svg>