<svg width="400" height="400" fill="none" xmlns="http://www.w3.org/2000/svg"><g clip-path="url(#a)"><path d="M146.56 318.74c-71-10.94-86.85-19-94.18-34.09C41.7 262.72 49.47 227 67.7 205.07c15.93-19.2 35.74-22.93 35.16-36.21-.48-10.92-14-12.39-24-33-2.91-6-8.58-17.73-6.11-31.76 3.61-20.52 22-31 23.49-31.88 19.15-10.58 30.05 2.07 44.41-7.44 17.92-11.86 9.8-37.51 26.57-44.57 12.17-5.12 27.68 3.7 31.73 6 13.45 7.65 12 15.11 23.38 19.9 13.28 5.6 19.61-2.8 35 .87 12.66 3 21.81 12.36 29.26 21.72 16.72 21 8.41 33.22 20.74 58.94 17.31 36.11 43.33 32.09 47.93 60.87 2.41 15-3.77 21.87 1 44.9 3.2 15.54 7.22 18.3 7.94 27.45 2.05 26.28-27.64 49.67-33.2 53.8-35.61 26.34-85.13 19.34-184.44 4.08z" fill="url(#b)"/><path style="mix-blend-mode:multiply" opacity=".7" d="M259.52 247.61c-46.49-3.26-78.16 41.12-90.76 30.24-12-10.34 21.77-45.72 10.27-86.8-11.32-40.41-55.92-49.11-52.38-72 4-25.83 63.62-31.77 62.23-50.74-.83-11.19-21.84-13.9-26-31.77a28.496 28.496 0 0 1 .43-14.09c-11.6 9.22-6.33 31.46-22.65 42.26-14.36 9.51-25.26-3.14-44.41 7.44-1.49.83-19.88 11.36-23.49 31.88-2.47 14 3.2 25.74 6.11 31.76 10 20.63 23.56 22.1 24 33 .58 13.28-19.23 17-35.16 36.21-18.23 22-26 57.65-15.32 79.58 7.33 15.08 23.15 23.15 94.18 34.09 99.31 15.3 148.83 22.27 184.35-4.1 13.7-10.18 29.82-27.43 33.27-42.68-6.89 6.55-13.66 9.76-20 11-29.49 5.88-43.19-32.38-84.67-35.28z" fill="url(#c)"/><path d="M67.34 414.57c-10.77-27-4.21-69.64-2.82-78.62 5.39-35 18.09-56.75 22.71-64.47 31.6-52.76 79.41-52.37 115.27-52.08 17.67.14 35.94-.25 58.22 8 0 0 17.58 6.49 32.42 17.32 44.19 32.25 78.95 137.84 43.43 178.37-22.7 25.9-46-6.33-148 10.94-41.25 7-84.9 18.4-110.92-4.14-4.3-3.75-7.65-8.75-10.31-15.32z" fill="url(#d)"/><path d="M183.7 156.15s7.56 56.55-30.85 67.85a6.267 6.267 0 0 0-2.681 1.723 6.272 6.272 0 0 0-1.406 6.003 6.269 6.269 0 0 0 1.637 2.734l47.34 46a6.79 6.79 0 0 0 7.815 1.235 6.783 6.783 0 0 0 2.185-1.745l42.42-49.39a6.235 6.235 0 0 0 1.346-5.506 6.247 6.247 0 0 0-3.666-4.324c-13.57-5.22-38-20.48-32.85-61.72l-31.29-2.86z" fill="url(#e)"/><path d="M166.67 131.22s-13.74-12.19-14.94-4.81c-2.5 15.41 9.26 24 15.63 19.43 6.37-4.57-.69-14.62-.69-14.62z" fill="url(#f)"/><path d="M226.7 131.71s13.49-11.86 14.67-4.52c2.45 15.28-9.09 23.63-15.36 19-6.27-4.63.69-14.48.69-14.48z" fill="url(#g)"/><path d="M160.16 124.56c0 .62 10.37 56 36.87 56 25 .05 34.4-40.33 37.47-59.18.32-3.2.65-6.41 1-9.61a18.37 18.37 0 0 1-10.9.22c-1.14-.34-8.37-2.47-11.05-8.74-3-7 2.51-12.45-.63-18.57-1.82-3.55-5.48-5.25-8.28-6.14 1.86 2.89 5.48 9.31 3.43 15.08-1.37 3.87-5.22 7.56-13.81 9.73-24.69 6.29-34.35 8.65-34.1 21.21z" fill="url(#h)"/></g><defs><linearGradient id="b" x1="313.79" y1="-.17" x2="227.56" y2="168.7" gradientUnits="userSpaceOnUse"><stop stop-color="#AB316D"/><stop offset="1" stop-color="#792D3D"/></linearGradient><linearGradient id="c" x1="315.85" y1="-3.42" x2="228.74" y2="167.16" gradientUnits="userSpaceOnUse"><stop stop-color="#AB316D"/><stop offset="1" stop-color="#792D3D"/></linearGradient><linearGradient id="d" x1="229.2" y1="542.15" x2="187.86" y2="242.43" gradientUnits="userSpaceOnUse"><stop stop-color="#FF9085"/><stop offset="1" stop-color="#FB6FBB"/></linearGradient><linearGradient id="e" x1="202.84" y1="288.27" x2="196.79" y2="156.96" gradientUnits="userSpaceOnUse"><stop stop-color="#FFC444"/><stop offset="1" stop-color="#F2AC57"/></linearGradient><linearGradient id="f" x1="159.97" y1="163.49" x2="162.1" y2="81.75" gradientUnits="userSpaceOnUse"><stop stop-color="#FFC444"/><stop offset="1" stop-color="#F36F56"/></linearGradient><linearGradient id="g" x1="231.78" y1="165.58" x2="233.88" y2="85.12" gradientUnits="userSpaceOnUse"><stop stop-color="#FFC444"/><stop offset="1" stop-color="#F36F56"/></linearGradient><linearGradient id="h" x1="196.38" y1="172.81" x2="198.7" y2="84.06" gradientUnits="userSpaceOnUse"><stop stop-color="#FFC444"/><stop offset="1" stop-color="#F2AC57"/></linearGradient><clipPath id="a"><path fill="#fff" d="M0 0h400v400H0z"/></clipPath></defs></svg>