<svg width="642" height="754" fill="none" xmlns="http://www.w3.org/2000/svg"><g clip-path="url(#a)"><path d="M611.664 211.18 465.769 44.996c-6.058-6.497-18.427-5.012-27.212-5.448a31.764 31.764 0 0 0-23.585 8.616l-170.466 161.96c-12.03 11.469-19.191 26.993-19.191 43.181v454.644c0 28.856 25.086 49.541 55.185 45.779l300.228-37.464c25.659-3.205 46.059-27.267 46.059-53.446V249.962c-.011-14.454-5.385-28.349-15.123-38.782zm-174.399 20.627c-22.227.057-40.425-17.806-40.425-39.901 0-22.095 18.198-39.7 40.425-39.327 21.993.369 39.646 18.23 39.646 39.897 0 21.668-17.633 39.276-39.634 39.331h-.012z" fill="#F36F56"/><path d="m625.817 211.211-59.58-63.94-89.486-96.248a33.963 33.963 0 0 0-23.05-10.807 31.505 31.505 0 0 0-23.428 8.58l-83.783 79.996-84.892 81.401c-11.939 11.392-18.524 26.881-18.524 43.009v452.941c0 28.753 24.726 49.279 54.584 45.535l79.699-9.981 138.922-17.413 78.771-9.792c25.493-3.191 46.054-27.239 46.054-53.331V249.853a56.944 56.944 0 0 0-15.287-38.642zm-173.413-58.363c21.826.361 39.353 18.156 39.353 39.746 0 21.59-17.524 39.124-39.353 39.175-22.056.063-40.128-17.739-40.128-39.754 0-22.015 18.072-39.548 40.128-39.167z" fill="#F70431"/><path d="M553.339 285.751H439.777L345.926 485.98l46.746-2.858-62.63 205.602 218.745-276.782-67.281 2.793 71.833-128.984z" fill="#fff"/><path style="mix-blend-mode:multiply" opacity=".1" d="M641.092 249.853v411.311c0 26.092-20.566 50.137-46.053 53.331l-78.591 9.797-139.017 17.413c43.181-49.385 57.732-95.393 60.725-133.198 6.62-82.95-42.966-117.142-24.101-192.236 23.362-93.019 113.682-97.891 144.617-189.838 6.795-20.185 11.2-46.234 7.365-79.168l59.777 63.94a56.935 56.935 0 0 1 15.278 38.648z" fill="url(#b)"/><path d="M320.45 331.861c75.378-75.454 75.378-197.787 0-273.24-75.377-75.454-197.589-75.454-272.967 0-75.377 75.453-75.377 197.786 0 273.24 75.378 75.453 197.59 75.453 272.967 0z" fill="#D8DEE8"/><path d="M336.105 331.862c75.378-75.453 75.378-197.787 0-273.24s-197.589-75.453-272.967 0c-75.377 75.453-75.377 197.787 0 273.24 75.378 75.454 197.589 75.454 272.967 0z" fill="#fff"/><path d="M320.86 316.602c66.958-67.025 66.958-175.694 0-242.72-66.958-67.024-175.518-67.024-242.476 0-66.958 67.026-66.958 175.695 0 242.72 66.957 67.025 175.518 67.025 242.476 0z" fill="url(#c)"/><path d="M245.701 167.609c-.41 27.164-17.382 41.288-36.278 41.208-20.589-.08-37.094-15.882-36.701-41.828.372-24.658 15.897-42.243 38.955-40.517 22.394 1.675 34.359 18.964 34.024 41.137zm-48.875-.522c-.215 14.17 4.416 24.469 13.462 24.638 8.708.161 13.05-8.722 13.277-23.589.203-13.439-3.243-24.042-12.753-24.612-9.249-.557-13.783 10.018-13.986 23.563zm19.105 87.331 65.572-118.842a6.636 6.636 0 0 1 9.408-2.368 6.633 6.633 0 0 1 3.035 5.586 6.656 6.656 0 0 1-.814 3.178l-64.844 118.811a6.635 6.635 0 0 1-5.531 3.441l-.725.034a6.626 6.626 0 0 1-5.926-3.134 6.651 6.651 0 0 1-.175-6.706zm112.198-33.49c-.381 25.157-14.949 38.923-31.116 39.634-17.387.766-31.414-13.112-31.239-37.022.344-22.74 13.58-39.643 33.261-39.112 19.157.513 29.403 15.965 29.094 36.5zm-41.648 1.652c-.375 13.083 3.566 22.39 11.294 22.164 7.448-.218 11.171-8.602 11.38-22.365.189-12.432-2.578-22.078-10.707-22.173-8.077-.091-11.778 9.87-11.967 22.374z" fill="url(#d)" style="mix-blend-mode:multiply" opacity=".15"/><path d="M248.869 166.341c-.41 27.165-17.384 41.272-36.28 41.211-20.59-.08-37.091-15.881-36.699-41.827.373-24.659 15.898-42.243 38.956-40.517 22.391 1.671 34.358 18.964 34.023 41.133zm-48.878-.519c-.212 14.17 4.42 24.47 13.463 24.639 8.71.16 13.053-8.723 13.276-23.589.204-13.442-3.239-24.042-12.752-24.616-9.246-.553-13.781 10.019-13.987 23.566zm19.106 87.331 65.574-118.842a6.638 6.638 0 0 1 6.302-3.412 6.63 6.63 0 0 1 5.329 3.454 6.642 6.642 0 0 1-.007 6.355L231.456 259.51a6.642 6.642 0 0 1-5.531 3.441l-.724.031a6.632 6.632 0 0 1-5.92-3.13 6.644 6.644 0 0 1-.184-6.699zm112.2-33.498c-.38 25.157-14.949 38.923-31.115 39.634-17.39.766-31.417-13.112-31.239-37.022.343-22.74 13.577-39.643 33.261-39.112 19.154.522 29.403 15.973 29.093 36.5zm-41.648 1.649c-.375 13.086 3.566 22.393 11.295 22.167 7.447-.218 11.171-8.602 11.38-22.365.186-12.432-2.578-22.078-10.707-22.173-8.078-.083-11.779 9.878-11.968 22.379v-.008z" fill="#fff"/><path d="m147.633 124.545 1.326 2.214-7.078 21.923H86.796c-1.99 9.522-4.87 24.136-7.078 33.214 11.063-3.985 23.448-6.864 29.423-6.864 28.535 0 43.579 18.158 43.579 37.203 0 13.728-6.416 27.239-22.122 38.309-12.388 8.857-28.758 14.623-42.032 14.623-8.848 0-18.36-3.099-23.448-7.309-4.645-3.541-5.53-5.757-5.53-8.856 0-3.544 2.864-8.857 6.857-11.736 2.655-1.772 5.53-1.551 8.627 1.327 5.31 4.651 14.823 13.732 28.979 13.732 13.718 0 20.131-12.18 20.131-28.125 0-19.928-12.829-32.994-33.18-32.994-9.957 0-17.256 2.214-23.008 3.765l-1.105-1.328c4.422-20.151 9.739-48.496 12.83-69.101l67.914.003z" fill="url(#e)" opacity=".15"/><path d="m150.497 121.965 1.326 2.213-7.077 21.923H89.66c-1.99 9.523-4.869 24.137-7.077 33.215 11.062-3.986 23.447-6.865 29.423-6.865 28.535 0 43.578 18.159 43.578 37.203 0 13.729-6.416 27.239-22.121 38.31-12.389 8.857-28.759 14.623-42.032 14.623-8.848 0-18.361-3.1-23.448-7.309-4.646-3.541-5.531-5.758-5.531-8.857 0-3.544 2.864-8.857 6.857-11.736 2.655-1.772 5.531-1.551 8.627 1.328 5.311 4.651 14.824 13.731 28.98 13.731 13.717 0 20.13-12.18 20.13-28.125 0-19.927-12.829-32.993-33.18-32.993-9.957 0-17.256 2.213-23.007 3.764l-1.106-1.327c4.423-20.151 9.739-48.497 12.83-69.101l67.914.003z" fill="#fff"/></g><defs><linearGradient id="b" x1="377.431" y1="444.48" x2="641.092" y2="444.48" gradientUnits="userSpaceOnUse"><stop stop-color="#F36F56"/><stop offset="1" stop-color="#FFC444"/></linearGradient><linearGradient id="c" x1="237.336" y1="-12.397" x2="-.789" y2="1295.98" gradientUnits="userSpaceOnUse"><stop stop-color="#6E6CFF"/><stop offset="1" stop-color="#9571F6"/></linearGradient><linearGradient id="d" x1="171.372" y1="195.587" x2="327.573" y2="198.708" gradientUnits="userSpaceOnUse"><stop stop-color="#FF9085"/><stop offset="1" stop-color="#FB6FBB"/></linearGradient><linearGradient id="e" x1="59.587" y1="194.851" x2="152.72" y2="194.851" gradientUnits="userSpaceOnUse"><stop stop-color="#FF9085"/><stop offset="1" stop-color="#FB6FBB"/></linearGradient><clipPath id="a"><path fill="#fff" d="M0 0h642v754H0z"/></clipPath></defs></svg>