<svg width="299" height="395" fill="none" xmlns="http://www.w3.org/2000/svg"><g clip-path="url(#a)"><path d="m289.26 199.438-1.998 17.973-19.656 176.892H53.483l-2.431-20.377-24.036-201.532 24.035 2.476 4.434.456 4.528.469 28.794 2.972 28.401 2.932 4.429.455 4.533.465 28.784 2.968 28.406 2.931 4.429.456 4.532.469 28.785 2.968 28.401 2.927 4.433.455 4.533.47 28.789 2.972 1.998.203z" fill="#91B3FA"/><path d="M88.807 178.767v215.536H60.013V175.795l28.794 2.972zM55.485 175.326v218.977h-2.003l-2.43-20.377V174.87l4.433.456zM154.954 185.587v208.716H126.17V182.619l28.784 2.968zM117.208 181.699v212.604h4.429V182.155l-4.429-.456zM221.106 192.411v201.892h-28.785v-204.86l28.785 2.968zM187.789 188.974v205.329h-4.429V188.518l4.429.456zM287.262 199.235v18.176l-19.656 176.892h-9.133v-198.04l28.789 2.972zM253.94 195.793v198.51h-4.433V195.338l4.433.455z" fill="#6E6CFF"/><path d="M39.465 276.73c2.588-1.673 240.094 9.967 240.094 9.967l-1.408 12.679-234.88 9.304-3.806-31.95z" fill="#F70431"/><path d="m14.099 158.679 2.706 18.262a5.112 5.112 0 0 0 4.51 4.33l271.517 28.414a5.095 5.095 0 0 0 2.113-.223 5.106 5.106 0 0 0 3.53-4.86v-33.231a5.116 5.116 0 0 0-4.858-5.106L19.394 152.824a5.116 5.116 0 0 0-5.131 3.624 5.111 5.111 0 0 0-.164 2.231z" fill="#FFC444"/><path d="M149.082 159.179v235.128h18.077l15.037-233.504-33.114-1.624zM165.639 159.991s1.89-35.256-11.912-64.01c-19.245-40.095-51.795-55.105-66.562-47.718C59.085 62.3 63.91 64.708 33.033 71.513c-30.877 6.807-16.796 41.946 4.01 48.125 51.326 15.24 112.039 39.541 112.039 39.541l16.557.812z" fill="#F70431"/><path d="M76.737 70.778c-5.322 0-10.55-.482-15.497-.942-2.607-.24-5.07-.451-7.473-.618-7.618-.487-15.547 1.43-15.624 1.448a.302.302 0 0 1-.332-.449.291.291 0 0 1 .188-.133c.081-.023 8.091-1.962 15.786-1.47 2.413.157 4.88.383 7.491.626 11.78 1.087 25.127 2.319 37.58-3.206a.3.3 0 0 1 .35.04.302.302 0 0 1-.107.51c-7.316 3.256-14.938 4.194-22.362 4.194zM149.082 159.463a.31.31 0 0 1-.217-.09c-.176-.185-17.883-18.465-40.141-37.02-20.508-17.089-49.189-37.94-69.295-40.105-8.877-.956-14.965.902-18.1 5.57-2.837 4.208-3.586 12.39 1.128 21.198a.301.301 0 0 1-.122.406.298.298 0 0 1-.406-.121 29.689 29.689 0 0 1-3.36-10.929c-.415-4.307.37-8.069 2.255-10.879 3.27-4.853 9.548-6.814 18.668-5.831 20.26 2.183 49.044 23.101 69.624 40.263 22.277 18.577 40.002 36.88 40.178 37.06a.3.3 0 0 1 0 .424.277.277 0 0 1-.212.054z" fill="#002E5D"/><path d="M155.833 159.991s9.923-59.923 44.007-61.565c0 0 12.43-2.444 15.736 10.184 3.306 12.629 15.335 5.115 20.454 18.348 5.119 13.233-.902 25.257-26.466 25.56-25.564.302-33.128 8.298-33.128 8.298l-20.603-.825z" fill="#F70431"/><path d="M169.865 160.293h-.095a.303.303 0 0 1-.185-.379c.045-.126 4.51-12.723 24.716-22.483 8.146-3.933 16.977-6.765 24.238-7.717 7.975-1.069 13.423.185 15.335 3.527a7.43 7.43 0 0 1 .32 6.928c-1.93 4.424-7.631 8.118-15.249 9.855a.304.304 0 0 1-.135-.587c7.433-1.705 12.981-5.259 14.834-9.507a6.856 6.856 0 0 0-.293-6.387c-1.804-3.121-7.031-4.267-14.748-3.234-7.217.961-15.962 3.757-24.054 7.668-19.957 9.638-24.355 22.01-24.405 22.136a.304.304 0 0 1-.279.18zM222.527 117.32c-13.982 0-22.795-7.6-22.885-7.668a.298.298 0 0 1 .179-.524.302.302 0 0 1 .217.073c.091.081 9.129 7.884 23.454 7.514a.322.322 0 0 1 .306.293.29.29 0 0 1-.082.217.295.295 0 0 1-.096.068.285.285 0 0 1-.115.027c-.32-.005-.654 0-.978 0zM155.888 159.86h-.037a.302.302 0 0 1-.266-.333c.023-.185 2.143-18.492 8.223-27.549a.3.3 0 0 1 .415-.075.3.3 0 0 1 .085.413c-5.998 8.931-8.118 27.093-8.118 27.278a.302.302 0 0 1-.302.266z" fill="#002E5D"/><path d="m182.214 161.105-34.079-1.412a.304.304 0 0 1-.192-.527.304.304 0 0 1 .219-.077l34.052 1.416c.039.001.078.01.114.027a.305.305 0 0 1 .157.168.305.305 0 0 1-.271.405z" fill="#002E5D"/><path d="M167.849 13.422s4.641-6.382.239-13.161c0 0-4.655 2.255-5.173 4 0 0 3.468 6.558-3.094 13.59 0-.01 6.183-2.264 8.028-4.43z" fill="#D6654E"/><path d="M147.273 25.568s11.668 1.438 20.576-12.146c0 0-10.455 7.108-17.103 3.739 0 0-3.874 3.838-3.473 8.407z" fill="#F70431"/><path d="M8.317 129.89s3.906 2.119 7.365-.848c0 0-1.597-2.431-2.62-2.589 0 0-3.401 2.426-7.817-.717 0 0 1.728 3.288 3.072 4.154z" fill="#D6654E"/><path d="M0 119.322s.068 6.626 8.317 10.586c0 0-4.75-5.309-3.365-9.273.01-.018-2.426-1.895-4.952-1.313zM226.676 33.492s2.657-1.565 3.874-6.995c0 0-1.668-2.314-2.963-2.995-1.294-.681-3.518-1.755-3.883-.992-.366.762-1.353 3.495-3.018 5.412-1.664 1.917 1.385 1.804 2.603 3.653 1.218 1.85 2.309 2.891 3.387 1.917z" fill="#F70431"/><path d="M184.591 69.299s.843-2.968-2.021-7.735c0 0-2.805-.528-4.212-.126-1.408.401-3.757 1.159-3.5 1.962.257.802 1.425 3.468 1.556 6.003.131 2.534 2.255.343 4.406.848 2.152.505 3.649.496 3.771-.952z" fill="#6E6CFF"/><path d="M44.742 33.506s2.467 1.596 7.608.32c0 0 1.263-2.404 1.286-3.802.022-1.398 0-3.74-.808-3.726-.807.014-3.558.325-5.899-.261-2.34-.587-.934 1.944-2.003 3.775-1.068 1.831-1.47 3.193-.184 3.694z" fill="#FFBA41"/></g><defs><clipPath id="a"><path fill="#fff" d="M0 0h299v395H0z"/></clipPath></defs></svg>