<svg fill="none" version="1.1" viewBox="0 0 71.028 60" xml:space="preserve" xmlns="http://www.w3.org/2000/svg"><path d="m47.47 26.388-0.34454 3.1001-3.3903 30.511h-36.933l-0.41931-3.5148-4.1457-34.761 4.1457 0.42706 0.76472 0.07859 0.78106 0.08089 4.9664 0.51268 4.8987 0.50577 0.76388 0.07844 0.7819 0.08021 4.9648 0.51187 4.8995 0.50564 0.76401 0.07858 0.78176 0.08089 9.8636 1.0168 0.76469 0.07858 0.7819 0.08089 4.9656 0.51268z" fill="#91b3fa" stroke-width="1.3549"/><g fill="#6e6cff" stroke-width="1.3549"><path d="m12.895 22.823v37.176h-4.9664v-37.689z"/><path d="m7.1481 22.229v37.77h-0.34541l-0.41931-3.5148v-34.334z"/><path d="m24.305 23.999v36h-4.9648v-36.512z"/><path d="m17.794 23.329v36.671h0.76388v-36.592z"/><path d="m35.715 25.176v34.823h-4.9648v-35.335z"/><path d="m29.968 24.583v35.416h-0.76388v-35.494z"/><path d="m47.126 26.353v3.135l-3.3903 30.511h-1.5753v-34.159z"/><path d="m41.378 25.76v34.24h-0.76469v-34.318z"/></g><g stroke-width="1.3549"><path d="m4.3848 39.72c0.44654-0.28872 41.412 1.7192 41.412 1.7192l-0.24279 2.1868-40.513 1.605z" fill="#f70431"/><path d="m0.0095391 19.358 0.46676 3.1499c0.028696 0.19293 0.12064 0.3711 0.26143 0.50618 0.14079 0.13521 0.32246 0.21976 0.51651 0.24063l46.832 4.901c0.12289 0.01284 0.24699-1.37e-4 0.36446-0.03834 0.11747-0.03821 0.22559-0.10067 0.31731-0.18331 0.09172-0.08279 0.16516-0.18372 0.21529-0.29658 0.05027-0.11287 0.07615-0.23493 0.07615-0.3585v-5.7319c0-0.22613-0.08712-0.44372-0.24306-0.60752-0.15581-0.16394-0.3688-0.26162-0.59479-0.27301l-47.299-2.3183c-0.13003-0.0061-0.2598 0.01667-0.37999 0.06666-0.12019 0.04999-0.22781 0.12601-0.31513 0.22261-0.087321 0.09646-0.15217 0.21122-0.1899 0.33574-0.03772 0.12465-0.04738 0.25607-0.028276 0.38478z" fill="#010648"/><path d="m23.291 19.444v40.556h3.118l2.5938-40.276z" fill="#f70431"/><path d="m26.148 19.584s0.32584-6.0812-2.0547-11.041c-3.3194-6.9159-8.9339-9.5049-11.481-8.2306-4.8435 2.421-4.0111 2.8364-9.3369 4.0103-5.3258 1.1739-2.8971 7.2349 0.69159 8.3007 8.853 2.6287 19.325 6.8203 19.325 6.8203z" fill="#f70431"/><path d="m10.813 4.1967c-0.91796 0-1.8196-0.083243-2.673-0.16258-0.44965-0.041228-0.87441-0.077797-1.2891-0.10659-1.314-0.084016-2.6816 0.24661-2.6948 0.24973-0.013414 0.00328-0.027571 0.00111-0.039386-0.00602-0.011784-0.00715-0.02031-0.018684-0.023629-0.032096-0.00176-0.00659-0.00217-0.013468-0.00111-0.020214 9.891e-4 -0.00673 0.00338-0.013208 0.00691-0.019021 0.00353-0.00582 0.00827-0.01086 0.013807-0.014809 0.00556-0.00395 0.011784-0.00673 0.018521-0.00818 0.013996-0.00389 1.3956-0.33841 2.7228-0.25362 0.41619 0.027233 0.84173 0.066131 1.2922 0.10815 2.032 0.18747 4.3339 0.39986 6.4818-0.55313 0.0064-0.00354 0.01339-0.00572 0.0206-0.0064 0.0072-6.91e-4 0.0145 1.49e-4 0.02141 0.00245 7e-3 0.0023 0.01312 6e-3 0.01856 0.010884 0.0055 0.00487 0.0096 0.010836 0.01256 0.017452 0.0029 0.00664 0.0046 0.01382 0.0046 0.021068 0 0.00725-0.0016 0.01443-0.0046 0.021068-3e-3 0.00664-0.0072 0.01258-0.01256 0.017478-0.0053 0.0049-0.01164 0.0086-0.01856 0.010896-1.2618 0.56167-2.5765 0.72348-3.857 0.72348z" fill="#002e5d"/><path d="m23.291 19.493c-0.01396-1.34e-4 -0.02737-0.0058-0.03739-0.01559-0.03022-0.03184-3.0845-3.1849-6.9237-6.3853-3.5373-2.9476-8.4842-6.5441-11.952-6.9175-1.531-0.16493-2.5812 0.15558-3.1219 0.96075-0.48933 0.72582-0.61846 2.137 0.19449 3.6563 0.0065 0.01207 0.00786 0.02623 0.00394 0.03936-0.00394 0.01313-0.013003 0.02416-0.025012 0.03066-0.012061 0.0065-0.026216 0.0079-0.039359 4e-3 -0.01314-0.0039-0.024157-0.01294-0.030647-0.02501-0.31353-0.58482-0.51037-1.225-0.57958-1.885-0.071564-0.74294 0.063787-1.3917 0.38897-1.8764 0.564-0.83707 1.6469-1.1755 3.2199-1.0059 3.4945 0.37653 8.4594 3.9846 12.009 6.9447 3.8423 3.2044 6.8995 6.3612 6.9299 6.3924 0.0049 0.0048 0.0086 0.01032 0.01116 0.01667 0.0028 0.0064 0.0041 0.01297 0.0041 0.01978 0 7e-3 -0.0013 0.01352-0.0041 0.01992-0.0026 0.0062-0.0064 0.01188-0.01116 0.01667-0.0052 4e-3 -0.01104 0.0068-0.01735 0.0083-0.0062 0.0017-0.01284 0.0019-0.01925 9.48e-4z" fill="#002e5d"/><path d="m24.456 19.584s1.7115-10.336 7.5904-10.619c0 0 2.1439-0.42165 2.7142 1.7566 0.57026 2.1782 2.645 0.88218 3.5279 3.1647 0.88297 2.2824-0.15554 4.3564-4.565 4.4086-4.4093 0.05203-5.714 1.4314-5.714 1.4314z" fill="#f70431"/></g><g fill="#002e5d" stroke-width="1.3549"><path d="m26.876 19.637h-0.01626c-0.01271-0.0047-0.0233-0.0141-0.02927-0.02628-6e-3 -0.01216-7e-3 -0.02615-0.0028-0.03917 0.0079-0.02167 0.77797-2.1945 4.2632-3.878 1.4049-0.67825 2.9281-1.1668 4.1806-1.331 1.3755-0.1844 2.3152 0.03198 2.645 0.60834 0.10568 0.17966 0.16597 0.38248 0.17559 0.59072 0.0096 0.20811-0.0317 0.41554-0.12031 0.60427-0.33289 0.76306-1.3163 1.4003-2.6302 1.6998-0.01284 0.0017-0.02588-0.0016-0.03658-0.0088-0.01068-0.0076-0.01829-0.01856-0.02113-0.03115-3e-3 -0.01271-0.0011-0.026 0.0053-0.03726 0.0064-0.01128 0.0168-0.01992 0.02914-0.02399 1.282-0.29401 2.2389-0.90708 2.5587-1.6399 0.0817-0.17383 0.11978-0.365 0.11096-0.55699-0.0088-0.19198-0.06436-0.37882-0.16164-0.54452-0.31108-0.53829-1.2127-0.73597-2.5438-0.5578-1.2447 0.1657-2.7532 0.64804-4.1489 1.3225-3.4423 1.6624-4.2008 3.7963-4.2094 3.8182-0.0042 0.0092-0.01092 0.01721-0.0195 0.02262-0.0085 0.0056-0.01842 0.0085-0.02873 0.0085z"/><path d="m35.96 12.224c-2.4117 0-3.9317-1.3108-3.9473-1.3225-0.0052-0.0045-0.0095-0.0099-0.01243-0.01601-3e-3 -0.0061-0.0049-0.01276-0.0053-0.01956-4.07e-4 -0.0068 5.42e-4 -0.01365 0.0028-0.02008 0.0023-0.0064 0.0059-0.01239 0.0102-0.01747 0.0091-0.01025 0.02195-0.01648 0.03564-0.01736 0.01368-8.67e-4 0.02724 0.0037 0.03754 0.01268 0.01559 0.01401 1.5745 1.3598 4.0452 1.2961 0.01352 5.28e-4 0.02628 6e-3 0.03605 0.01526 0.0097 0.0094 0.01584 0.02186 0.01694 0.03529 1.37e-4 0.0068-9.48e-4 0.01367-0.0034 0.02006-0.0024 0.0064-0.0061 0.01228-0.0108 0.01726-0.0047 5e-3 -0.0102 9e-3 -0.01652 0.01176-0.0062 0.0028-0.01297 0.0043-0.01978 0.0046-0.05528-7.72e-4 -0.11287 0-0.16882 0z"/><path d="m24.466 19.562h-0.0062c-0.01382-0.0017-0.02628-0.0085-0.03496-0.01937-0.0085-0.01068-0.01243-0.02452-0.01092-0.03821 4e-3 -0.03198 0.36947-3.1896 1.4181-4.7517 0.0079-0.01104 0.01978-0.0187 0.03319-0.02113 0.01339-0.0024 0.02724 4.07e-4 0.03847 0.0082 0.01116 0.0077 0.0191 0.01937 0.02195 0.03266 0.0028 0.01325 1.37e-4 0.02724-0.0073 0.03862-1.0346 1.5404-1.4003 4.6731-1.4003 4.7051-0.0016 0.01271-0.0078 0.0244-0.01721 0.03292-0.0096 0.0083-0.02209 0.01297-0.03482 0.01297z"/><path d="m29.006 19.776-5.8781-0.24347c-0.01382-8.14e-4 -0.02669-7e-3 -0.03604-0.01708-0.0091-0.01008-0.01423-0.02358-0.01382-0.0374 2.71e-4 -7e-3 0.0018-0.01369 0.0047-0.01992 0.0029-0.0062 0.0071-0.01176 0.01202-0.01652 0.0052-0.0047 0.01104-0.0082 0.0176-0.01044 0.0066-0.0023 0.01325-0.0032 0.02018-0.0029l5.8735 0.24428c0.0068 1.35e-4 0.01352 0.0018 0.01964 0.0046 0.0062 0.0029 0.01176 7e-3 0.01652 0.01188 0.0047 5e-3 0.0082 0.0108 0.01056 0.01721 0.0023 0.0064 0.0034 0.01325 3e-3 0.02005-5.43e-4 0.01297-6e-3 0.02533-0.01518 0.03455-0.0091 0.0091-0.02154 0.01463-0.03455 0.01518z"/></g><g transform="matrix(1.3549 0 0 1.3549 23.608 15.587)"><path d="m8.2695 6.7181c-0.02082-6e-5 -0.04103-0.00702-0.05747-0.01978-1.3864-1.0748-2.1667-2.23-2.3812-3.5303-0.12561-0.75882-0.3068-1.3989-0.5376-1.9024-0.01041-0.02275-0.01136-0.04869-0.00265-0.07213 0.00872-0.02345 0.02638-0.04247 0.04912-0.05288s0.04868-0.01136 0.07212-0.00265c0.02343 0.00872 0.04245 0.02639 0.05286 0.04913 0.23772 0.51887 0.42362 1.1747 0.55236 1.9498 0.20789 1.2516 0.96373 2.3679 2.3106 3.4122 0.01566 0.01202 0.02715 0.02867 0.03285 0.04758 0.00569 0.01891 0.00531 0.03913-0.00112 0.05781-0.00642 0.01868-0.01855 0.03487-0.03467 0.04628s-0.03541 0.01746-0.05516 0.0173z" fill="#010648"/><path d="m24.948 28.532-19.098-13.411c-0.45086-0.3165-0.83112-0.7231-1.1167-1.1942-0.28559-0.4711-0.47031-0.9963-0.54245-1.5425s-0.03014-1.1014 0.12336-1.6305c0.15349-0.5291 0.41512-1.0206 0.76834-1.4433l4.044-4.8425c0.62959-0.75369 1.5155-1.248 2.4875-1.3878s1.9613 0.08478 2.7777 0.6305l18.84 12.583c0.4346 0.2902 0.8078 0.6633 1.0982 1.0978 0.2905 0.4345 0.4925 0.922 0.5946 1.4346 0.102 0.5127 0.1021 1.0404 2e-4 1.553-0.1018 0.5127-0.3037 1.0002-0.5939 1.4349l-3.7849 5.6729c-0.2947 0.4412-0.6746 0.8191-1.1174 1.1113-0.4428 0.2923-0.9395 0.493-1.461 0.5904s-1.0572 0.0896-1.5756-0.0231-1.0091-0.3279-1.4431-0.633z" fill="#fff"/><path d="m9.5413 8.2793-1e-5 -1e-5 -0.00101 0.0015c-0.26772 0.40117-0.36519 0.89225-0.27098 1.3653 0.09421 0.47303 0.3724 0.88923 0.77337 1.1571 0.3925 0.2624 0.8181 0.4541 1.2585 0.4115 0.4486-0.0434 0.8708-0.3249 1.2643-0.9143l1e-3 -0.0015c0.2608-0.40127 0.353-0.88919 0.2566-1.358s-0.3737-0.88073-0.7717-1.1465c-0.398-0.26574-0.8847-0.36386-1.3546-0.27309-0.4698 0.09076-0.88501 0.3631-1.1555 0.75796z" fill="#91b3fa" stroke="#010648" stroke-width=".3"/><path d="m10.482 7.6874c-0.0107-0.00619-0.0226-0.0102-0.0348-0.01181-0.0123-0.00161-0.0248-7.9e-4 -0.0367 0.00242-0.012 0.0032-0.0232 0.00873-0.033 0.01627s-0.0181 0.01695-0.0243 0.02767c-0.0061 0.01072-0.0101 0.02256-0.0118 0.03484-0.0016 0.01227-7e-4 0.02474 0.0025 0.0367s0.0087 0.02317 0.0162 0.03299c0.0076 0.00982 0.017 0.01806 0.0277 0.02424 0.2126 0.12312 0.2333 0.3568 0.1623 0.52201-0.0668 0.15704-0.2455 0.31062-0.5291 0.2277-0.0042-0.00127-0.0085-0.00221-0.0129-0.00282-6.249-0.92968-9.418-3.8189-9.7842-6.27-0.12184-0.81662 0.084471-1.5525 0.56524-2.1116-0.033793-0.067525-0.054464-0.14085-0.060918-0.21609-0.57591 0.60838-0.82901 1.4354-0.69084 2.3556 0.19846 1.3273 1.154 2.6697 2.6908 3.7793 1.7899 1.2931 4.2964 2.2089 7.2463 2.6483 0.06535 0.01899 0.13295 0.02882 0.20095 0.02921 0.1176 5.2e-4 0.2326-0.03397 0.3305-0.09908 0.0978-0.06511 0.1741-0.15789 0.2191-0.26651 0.1042-0.24687 0.0552-0.58702-0.2431-0.75945z" fill="#010648"/><path d="m15.067 10.087c0.3741-0.49604 0.8374-0.76982 1.3899-0.82134 0.5582-0.04785 1.1213 0.11505 1.6894 0.48871 0.3899 0.25643 0.6811 0.54773 0.8736 0.87373 0.1925 0.3261 0.2824 0.6565 0.2697 0.9913-0.0128 0.3347-0.118 0.6525-0.3158 0.9533-0.2272 0.3453-0.5132 0.5801-0.8582 0.7043s-0.6731 0.1438-0.9843 0.0588l-0.0219 0.0334c0.2626 0.3164 0.398 0.6688 0.4059 1.057 0.0117 0.3827-0.1181 0.7801-0.3891 1.1923-0.2162 0.3286-0.4837 0.5716-0.8026 0.7289s-0.6754 0.2141-1.0695 0.1703c-0.3905-0.0493-0.7918-0.2096-1.204-0.4806-0.6015-0.3957-0.9965-0.8749-1.1849-1.4377-0.1792-0.5647-0.0922-1.1458 0.2609-1.7434l0.919 0.6045c-0.1718 0.3098-0.217 0.6272-0.1355 0.9521 0.0852 0.3194 0.3033 0.5944 0.6542 0.8252 0.3398 0.2235 0.662 0.3038 0.9667 0.2409 0.3084-0.0685 0.5596-0.2504 0.7538-0.5456 0.2564-0.3899 0.3124-0.748 0.168-1.0744-0.1352-0.3283-0.459-0.6609-0.9714-0.998l-0.2172-0.1428 0.5165-0.7854 0.2256 0.1484c0.4548 0.2911 0.8468 0.4412 1.176 0.4503 0.3347 0.0127 0.6047-0.1369 0.8098-0.4489 0.1759-0.2673 0.2288-0.5357 0.1587-0.8053-0.0665-0.2751-0.2584-0.517-0.5759-0.7258-0.3119-0.2052-0.6073-0.2838-0.8863-0.2358-0.2752 0.0424-0.5065 0.1696-0.6937 0.3815zm4.0158 4.7358c0.6337-0.9637 1.2898-1.6094 1.9682-1.9372 0.6877-0.3297 1.4297-0.2326 2.2262 0.2912 0.7965 0.5239 1.1768 1.165 1.1409 1.9233-0.0268 0.7564-0.357 1.6165-0.9907 2.5801-0.6411 0.9747-1.3073 1.6297-1.9986 1.965-0.6821 0.3334-1.4214 0.2381-2.2179-0.2857-0.7965-0.5239-1.1795-1.1668-1.1492-1.9288 0.0397-0.7639 0.38-1.6332 1.0211-2.6079zm3.4088 2.2419c0.2967-0.4511 0.517-0.8528 0.6609-1.2051 0.1495-0.3485 0.1992-0.6789 0.1492-0.991-0.0464-0.3178-0.245-0.5921-0.5959-0.8228-0.351-0.2308-0.6815-0.3046-0.9916-0.2213-0.3064 0.0777-0.5929 0.2524-0.8593 0.524-0.2608 0.2753-0.5396 0.6385-0.8364 1.0897-0.3077 0.4679-0.5381 0.8789-0.6912 1.233s-0.2047 0.6873-0.1546 0.9994c0.0556 0.3159 0.2588 0.5892 0.6097 0.82s0.6796 0.3073 0.9861 0.2296c0.312-0.0741 0.6002-0.2515 0.8648-0.5324 0.2645-0.2808 0.5506-0.6552 0.8583-1.1231zm3.7049 5.7522c0.3509 0.2307 0.7049 0.3598 1.0619 0.3872 0.3663 0.0254 0.7199-0.0572 1.0608-0.2479l1.1446 0.7528c-0.5836 0.4141-1.2138 0.614-1.8906 0.5998-0.6768-0.0143-1.3244-0.2248-1.9427-0.6314-0.6516-0.4286-1.1155-0.985-1.3916-1.6693-0.2724-0.6899-0.3147-1.3959-0.1269-2.1182l-0.7687-0.5056 0.4286-0.6516 0.6183 0.4066c0.0914-0.1633 0.1665-0.2895 0.2251-0.3786s0.1448-0.208 0.2585-0.3566l-0.6183-0.4067 0.4286-0.6517 0.7687 0.5056c0.5888-0.4586 1.252-0.6966 1.9897-0.7141 0.7413-0.0232 1.4378 0.1796 2.0895 0.6082 0.6127 0.403 1.0578 0.9152 1.3353 1.5366 0.2868 0.6194 0.3556 1.2791 0.2065 1.979l-1.1446-0.7528c0.0401-0.3886-0.0259-0.7432-0.198-1.0638-0.1629-0.3226-0.4198-0.5993-0.7707-0.8301-0.4066-0.2674-0.8281-0.409-1.2646-0.4248-0.4309-0.0121-0.8388 0.0986-1.2238 0.3322l1.7796 1.1704-0.4286 0.6517-1.9635-1.2913c-0.0936 0.1059-0.1825 0.223-0.2668 0.3511s-0.1565 0.2561-0.2167 0.3841l1.9634 1.2913-0.4286 0.6517-1.7796-1.1704c-0.0656 0.4515-0.0075 0.8728 0.1743 1.2636 0.1873 0.3946 0.4843 0.7255 0.8909 0.993z" fill="#002941"/></g></svg>
