<svg width="34" height="39" viewBox="0 0 34 39" fill="none" xmlns="http://www.w3.org/2000/svg">
<path d="M25.0622 13.2661C25.0622 13.2661 27.9254 16.037 31.6927 14.4472C31.6927 14.4472 30.9155 12.0037 30.0741 11.6105C30.0741 11.6105 26.491 12.7646 23.4492 9.0079C23.4538 9.00863 24.112 12.1948 25.0622 13.2661Z" fill="#E7EEFD"/>
<path d="M20.4672 2.46821C20.4672 2.46821 18.8724 7.94767 24.791 13.2739C24.791 13.2739 22.1389 7.71049 24.2866 4.7869C24.2866 4.7869 22.7185 2.6315 20.4672 2.46821Z" fill="#F70431"/>
<path d="M17.486 35.1193C17.486 35.1193 18.0811 36.5144 20.7574 37.5388C20.7574 37.5388 22.0649 36.9318 22.5111 36.3699C22.9573 35.8081 23.6746 34.835 23.3138 34.5985C22.953 34.362 21.6346 33.6675 20.7842 32.7171C19.9338 31.7666 19.7584 33.2302 18.7223 33.6601C17.6862 34.0899 17.0715 34.5255 17.486 35.1193Z" fill="#F70431"/>
<path d="M2.72284 24.9933C2.72284 24.9933 4.21976 25.6659 6.96246 24.6356C6.96246 24.6356 7.46544 23.2766 7.36659 22.5387C7.26773 21.8008 7.05658 20.5613 6.61275 20.6221C6.16893 20.6829 4.67011 21.0423 3.32338 20.8937C1.97665 20.7451 2.96198 21.993 2.52329 23.0266C2.08459 24.0603 1.96936 24.8102 2.72284 24.9933Z" fill="#6E6CFF"/>
<path d="M13.1096 11.4706C13.1096 11.4706 12.1551 12.6053 12.3384 15.3179C12.3384 15.3179 13.3699 16.1422 14.0278 16.2593C14.6857 16.3765 15.7921 16.5419 15.8515 16.1301C15.911 15.7183 15.9883 14.2949 16.4558 13.1481C16.9232 12.0014 15.6146 12.5262 14.8376 11.8439C14.0606 11.1616 13.4506 10.8544 13.1096 11.4706Z" fill="white"/>
</svg>
