<svg width="64" height="80" viewBox="0 0 64 80" fill="none" xmlns="http://www.w3.org/2000/svg">
<path d="M30.8458 19.5361L5.01057 14.6208L7.76213 18.0945L2.97076 22.2159L31.4527 24.3824L30.8458 19.5361Z" fill="url(#paint0_linear_786_463)"/>
<path d="M34.3927 19.4777L60.0477 13.7065L57.4139 17.2702L62.342 21.2291L33.9485 24.3403L34.3927 19.4777Z" fill="url(#paint1_linear_786_463)"/>
<path d="M12.6207 5.84599C12.8973 5.65911 13.2088 5.52919 13.537 5.46392C13.8651 5.39865 14.203 5.39936 14.5309 5.466L19.083 6.39083C19.6827 6.51382 20.2105 6.86354 20.5548 7.36594L30.3214 21.5682L31.9712 19.9757L21.7827 2.93235C21.3932 2.28057 20.8441 1.73694 20.1863 1.35186C19.5286 0.966792 18.7835 0.752747 18.0201 0.729578L13.9051 0.604474C12.4844 0.561913 11.0841 0.948666 9.88982 1.71349C8.69557 2.47832 7.76371 3.58512 7.21771 4.88724L5.73058 8.43576C5.383 9.26581 5.37501 10.1976 5.70831 11.0334C6.04161 11.8692 6.68997 12.5432 7.51585 12.9126L28.2627 22.1867L29.0393 21.4852L12.953 10.7157C12.4302 10.3659 12.0208 9.87331 11.7742 9.2975C11.5276 8.7217 11.4545 8.08735 11.5636 7.47117C11.6212 7.14386 11.7444 6.83134 11.926 6.55217C12.1075 6.27299 12.3438 6.03285 12.6207 5.84599Z" fill="url(#paint2_linear_786_463)"/>
<path d="M50.9068 5.21112C50.6239 5.03383 50.3081 4.91455 49.978 4.86033C49.6479 4.80611 49.3102 4.81805 48.9848 4.89544L44.4657 5.9711C43.8712 6.11212 43.3555 6.47741 43.028 6.98947L33.7458 21.5132L32.0442 19.9769L41.6517 2.60264C42.0187 1.93807 42.5491 1.37631 43.1935 0.969536C43.8379 0.562764 44.5755 0.32418 45.3377 0.275942L49.4432 0.0140416C50.8629 -0.077369 52.277 0.261881 53.4978 0.986739C54.7186 1.7116 55.6882 2.78776 56.278 4.07233L57.8841 7.5694C58.26 8.38714 58.2998 9.31806 57.995 10.1644C57.6903 11.0108 57.065 11.706 56.252 12.1024L35.8233 22.0604L35.0232 21.3893L50.7383 10.0878C51.2487 9.72085 51.6411 9.21512 51.8682 8.63172C52.0953 8.04832 52.1473 7.41217 52.018 6.80006C51.9493 6.47496 51.8155 6.16683 51.6247 5.89391C51.4338 5.62099 51.1897 5.38882 50.9068 5.21112Z" fill="url(#paint3_linear_786_463)"/>
<path d="M3.4068 26.6846L6.71692 77.6581C6.79823 78.9138 7.88589 80.021 9.14442 79.9965L56.7989 79.2085C58.0574 79.1874 59.1073 78.0393 59.1474 76.787L60.7382 25.7317L3.4068 26.6846Z" fill="url(#paint4_linear_786_463)"/>
<path d="M37.7274 24.7777L26.2915 24.9678L27.2158 79.6996L38.6518 79.5095L37.7274 24.7777Z" fill="url(#paint5_linear_786_463)"/>
<path d="M63.9069 21.0982C63.9046 20.9546 63.8738 20.8129 63.8163 20.6811C63.7588 20.5494 63.6757 20.4301 63.5717 20.3303C63.4678 20.2304 63.345 20.1518 63.2104 20.099C63.0759 20.0462 62.9321 20.0202 62.7874 20.0225L1.08413 21.0456C0.939176 21.048 0.796128 21.0788 0.663168 21.1361C0.530209 21.1934 0.409944 21.2762 0.309254 21.3797C0.208564 21.4832 0.129424 21.6053 0.0763596 21.7392C0.0232952 21.8731 -0.00265211 22.016 1.72567e-06 22.1598L0.0930952 27.648C0.0953969 27.7917 0.126221 27.9335 0.183803 28.0653C0.241386 28.1972 0.324598 28.3164 0.42868 28.4164C0.532763 28.5163 0.655673 28.5948 0.790383 28.6476C0.925093 28.7003 1.06896 28.7262 1.21375 28.7237L62.9159 27.6983C63.0606 27.6962 63.2035 27.6657 63.3364 27.6087C63.4693 27.5517 63.5895 27.4693 63.6902 27.3661C63.7909 27.2629 63.8701 27.141 63.9233 27.0074C63.9764 26.8738 64.0025 26.7312 64 26.5876L63.9069 21.0982Z" fill="url(#paint6_linear_786_463)"/>
<path d="M37.643 19.7716L26.2071 19.9617L26.348 28.3051L37.7839 28.115L37.643 19.7716Z" fill="url(#paint7_linear_786_463)"/>
<defs>
<linearGradient id="paint0_linear_786_463" x1="-2.57949" y1="17.0083" x2="58.514" y2="29.3241" gradientUnits="userSpaceOnUse">
<stop stop-color="#09005D"/>
<stop offset="1" stop-color="#1A0F91"/>
</linearGradient>
<linearGradient id="paint1_linear_786_463" x1="62.045" y1="15.2849" x2="16.008" y2="32.614" gradientUnits="userSpaceOnUse">
<stop stop-color="#09005D"/>
<stop offset="1" stop-color="#1A0F91"/>
</linearGradient>
<linearGradient id="paint2_linear_786_463" x1="12.6077" y1="3.9285" x2="41.3976" y2="58.3643" gradientUnits="userSpaceOnUse">
<stop stop-color="#09005D"/>
<stop offset="1" stop-color="#1A0F91"/>
</linearGradient>
<linearGradient id="paint3_linear_786_463" x1="28.9415" y1="32.72" x2="89.645" y2="-44.7754" gradientUnits="userSpaceOnUse">
<stop stop-color="#09005D"/>
<stop offset="1" stop-color="#1A0F91"/>
</linearGradient>
<linearGradient id="paint4_linear_786_463" x1="32.0749" y1="26.1982" x2="32.0749" y2="203.143" gradientUnits="userSpaceOnUse">
<stop stop-color="#FFC444"/>
<stop offset="1" stop-color="#FCC68A"/>
</linearGradient>
<linearGradient id="paint5_linear_786_463" x1="31.7994" y1="81.1604" x2="34.8087" y2="-50.6233" gradientUnits="userSpaceOnUse">
<stop stop-color="#09005D"/>
<stop offset="1" stop-color="#1A0F91"/>
</linearGradient>
<linearGradient id="paint6_linear_786_463" x1="76.8964" y1="-54.2928" x2="49.0901" y2="-4.80087" gradientUnits="userSpaceOnUse">
<stop stop-color="#FCC68A"/>
<stop offset="1" stop-color="#D99910"/>
</linearGradient>
<linearGradient id="paint7_linear_786_463" x1="28.9254" y1="29.291" x2="98.1577" y2="-91.073" gradientUnits="userSpaceOnUse">
<stop stop-color="#09005D"/>
<stop offset="1" stop-color="#1A0F91"/>
</linearGradient>
</defs>
</svg>
