<svg width="35" height="38" viewBox="0 0 35 38" fill="none" xmlns="http://www.w3.org/2000/svg">
<path d="M12.5463 18.7028C12.5463 18.7028 15.1552 15.8753 13.9478 12.2446C13.9478 12.2446 11.7458 13.0304 11.3496 13.8646C11.3496 13.8646 12.1806 17.3227 8.68994 20.3413C8.68994 20.3413 11.548 19.6388 12.5463 18.7028Z" fill="#D6654E"/>
<path d="M2.02932 23.0909C2.02932 23.0909 7.54116 24.8034 13.0948 18.8232C13.0948 18.8232 7.38797 21.4551 4.47981 19.216C4.47157 19.2134 2.24764 20.7835 2.02932 23.0909Z" fill="#F70431"/>
<path d="M32.1131 12.7184C32.1131 12.7184 33.5641 11.692 33.6588 8.60985C33.6588 8.60985 32.3543 7.42455 31.4711 7.1239C30.5879 6.82325 29.0935 6.35798 28.9588 6.80512C28.8242 7.25225 28.5421 8.82473 27.7508 9.98889C26.9594 11.153 28.8212 10.8989 29.7961 11.8589C30.7709 12.8189 31.5681 13.3139 32.1131 12.7184Z" fill="white"/>
<path d="M22.23 33.7041C22.23 33.7041 22.415 32.0776 20.3776 29.7712C20.3776 29.7712 18.7797 29.6902 18.0416 30.0042C17.3034 30.3181 16.0844 30.8775 16.2991 31.2802C16.5138 31.683 17.415 33.0101 17.7257 34.3368C18.0365 35.6636 18.9955 34.3584 20.2386 34.4714C21.4817 34.5845 22.3076 34.4732 22.23 33.7041Z" fill="#6E6CFF"/>
</svg>
