<svg width="24" height="24" fill="none" xmlns="http://www.w3.org/2000/svg"><path d="M20.894 1.412h-2.117V3.53a.707.707 0 0 1-.706.705.707.707 0 0 1-.706-.705V1.412H6.07V3.53a.707.707 0 0 1-.706.705.707.707 0 0 1-.706-.705V1.412H2.54C1.482 1.412.706 2.33.706 3.53v2.54h22.588V3.53c0-1.2-1.27-2.118-2.4-2.118zM.706 7.553v12.918c0 1.27.776 2.117 1.906 2.117h18.353c1.13 0 2.4-.917 2.4-2.117V7.553H.705zm6.282 11.859H5.294a.557.557 0 0 1-.565-.565v-1.765c0-.282.212-.564.565-.564H7.06c.282 0 .565.212.565.564v1.765c-.071.353-.283.565-.636.565zm0-6.353H5.294a.557.557 0 0 1-.565-.565V10.73c0-.283.212-.565.565-.565H7.06c.282 0 .565.212.565.565v1.764c-.071.353-.283.565-.636.565zm5.647 6.353h-1.764a.557.557 0 0 1-.565-.565v-1.765c0-.282.212-.564.565-.564h1.764c.283 0 .565.212.565.564v1.765c0 .353-.212.565-.565.565zm0-6.353h-1.764a.557.557 0 0 1-.565-.565V10.73c0-.283.212-.565.565-.565h1.764c.283 0 .565.212.565.565v1.764c0 .353-.212.565-.565.565zm5.647 6.353h-1.764a.557.557 0 0 1-.565-.565v-1.765c0-.282.212-.564.565-.564h1.764c.283 0 .565.212.565.564v1.765c0 .353-.212.565-.565.565zm0-6.353h-1.764a.557.557 0 0 1-.565-.565V10.73c0-.283.212-.565.565-.565h1.764c.283 0 .565.212.565.565v1.764c0 .353-.212.565-.565.565z" fill="#6165D7"/></svg>