<svg width="383" height="383" viewBox="-20 0 90.963 90.963" fill="none" xmlns:xlink="http://www.w3.org/1999/xlink" xmlns="http://www.w3.org/2000/svg"><defs><linearGradient id="a"><stop style="stop-color:#2eaab9;stop-opacity:1" offset="0"/><stop style="stop-color:#6065ad;stop-opacity:1" offset="1"/></linearGradient><linearGradient xlink:href="#a" id="b" x1="-2.827" y1="84.191" x2="53.935" y2="11.226" gradientUnits="userSpaceOnUse"/></defs><path fill-rule="evenodd" clip-rule="evenodd" d="m34.428 88.652-13.55-3.465.747-6.006 8.83 2.272 2.75-14.292 17.415 2.76 6.416-52.441L2.956 6.44l-8.249 65.813L4.74 74.835l.965-3.318L18.54 74.52l-3.354 16.456-6.848-5.394-7.205 1.661 1.924-6.614-14.766-3.775L-1.628 0l65.08 12.88-7.91 63.142zm15.275-62.891-.916 6.44L9.373 24.84l.916-6.439zM7.54 37.721l.915-6.44 27.5 4.6-.918 6.44zm14.895 29.74-1.565 4.076L4.16 67.93l.774-5.622-2.91-4.922 3.907-3.089.87-6.12 5.036.776 3.048-4.09 4.355 4.058 5.163-1.115.543 5.73 4.42 3.113-2.589 4.118.574 5.258z" fill="#000" style="fill-opacity:1;fill:url(#b)"/></svg>