<svg width="24" height="24" fill="none" xmlns="http://www.w3.org/2000/svg"><path d="M22.315 7.549h-.657v7.225c0 1.125-.655 2.142-1.968 2.142H6.825v.343c0 .995 1.132 1.999 2.293 1.999h9.836l3.763 2.212-.546-2.212h.144c1.161 0 1.685-1.002 1.685-1.999V9.264c0-.995-.524-1.715-1.685-1.715z" fill="#6165D7"/><path d="M17.77 2.53H2.828C1.513 2.53 0 3.696 0 4.822v9.055c0 1.037 1.282 1.786 2.511 1.901l-.8 3.038L6.84 15.8h10.93c1.315 0 2.528-.797 2.528-1.922V4.822c0-1.125-1.214-2.293-2.527-2.293zM5.107 10.172a1.35 1.35 0 1 1 0-2.699 1.35 1.35 0 0 1 0 2.7zm5.042 0a1.35 1.35 0 1 1 0-2.699 1.35 1.35 0 0 1 0 2.7zm5.042 0a1.35 1.35 0 1 1 0-2.7 1.35 1.35 0 0 1 0 2.7z" fill="#6165D7"/></svg>