<svg width="19" height="19" fill="none" xmlns="http://www.w3.org/2000/svg"><g clip-path="url(#a)" fill="#6165D7"><path d="M3.762 9.066c.879 2.41 2.126 4.666 3.292 6.949.254.488 1.922.395 2.026-.188C10.112 9.999 11.685 2.44 18.476.842 19.918.505 18.01-.172 17.26.039c-7.25 2.05-9.12 9.28-10.25 15.866l2.023-.188c-1.276-2.319-2.52-4.67-4.041-6.835-.196-.272-1.388-.24-1.231.187v-.003z"/><path d="M7.279 6.298a397.37 397.37 0 0 0-5.993-.292c-.228 0-1.061 0-1.078.386-.143 4.04-.26 8.081-.185 12.126 0 .35.742.352.938.352 4.26.059 8.52.075 12.783.13.224 0 .908-.08.908-.418-.023-3.646.349-7.269.433-10.915 0-.544-1.924-.52-1.924.068 0 3.643-.378 7.273-.355 10.912l.908-.418c-4.27-.055-8.503-.07-12.78-.13l.935.357c-.075-4.034 0-8.095.062-12.123l-1.078.382c2.009.065 4.017.145 6.025.24.687.032 1.495-.596.4-.648v-.01z"/></g><defs><clipPath id="a"><path fill="#fff" d="M0 0h19v19H0z"/></clipPath></defs></svg>