<svg width="16" height="16" viewBox="0 0 16 16" fill="none" xmlns="http://www.w3.org/2000/svg">
<path d="M3.16763 7.63469C3.90811 9.66332 4.95851 11.5638 5.94034 13.4861C6.15426 13.8978 7.55844 13.8187 7.6462 13.3279C8.51559 8.41997 9.84023 2.05596 15.5584 0.708991C16.7734 0.425419 15.1663 -0.144452 14.5355 0.0327807C8.43057 1.75875 6.85635 7.84737 5.90468 13.3934L7.6078 13.2352C6.53273 11.283 5.48508 9.3034 4.20431 7.47927C4.03975 7.25023 3.03598 7.2775 3.16763 7.63742V7.63469Z" fill="#F95E69"/>
<path d="M6.12954 5.30326C4.44744 5.20874 2.76535 5.12694 1.08326 5.05786C0.891277 5.05786 0.189186 5.05786 0.175473 5.38233C0.0548015 8.7852 -0.0439301 12.1881 0.0191484 15.5936C0.0191484 15.8881 0.644448 15.8909 0.809001 15.8909C4.39625 15.9399 7.9835 15.9536 11.5735 15.9999C11.7627 15.9999 12.3387 15.9318 12.3387 15.6482C12.3195 12.578 12.6321 9.52685 12.7034 6.45663C12.7034 5.99856 11.0826 6.01764 11.0826 6.51389C11.0826 9.58138 10.7644 12.638 10.7836 15.7027L11.5488 15.351C7.95333 15.3046 4.38802 15.291 0.787061 15.2419L1.57417 15.5418C1.51109 12.1444 1.57417 8.72521 1.62628 5.33325L0.718497 5.655C2.40973 5.70953 4.10097 5.77679 5.7922 5.85677C6.37088 5.88404 7.05103 5.35507 6.12954 5.31144V5.30326Z" fill="#F95E69"/>
</svg>
