<svg width="16" height="16" viewBox="0 0 16 16" fill="none" xmlns="http://www.w3.org/2000/svg">
<g clip-path="url(#clip0_1511_444)">
<path d="M15.2086 8.07527C15.1676 7.99307 15.1022 7.92556 15.0213 7.88197C14.9405 7.83838 14.8481 7.82085 14.7569 7.83177C14.6657 7.84268 14.5802 7.88153 14.5119 7.94297C14.4436 8.00441 14.396 8.08546 14.3756 8.175L14.168 9.10848C14.155 9.12769 14.1155 9.13249 14.1089 9.13951C14.0914 9.13871 14.0749 9.13147 14.0625 9.11919C14.05 9.10691 14.0426 9.09046 14.0416 9.07302C13.9463 7.57288 13.5917 6.47133 12.9567 5.70483C12.901 5.63824 12.827 5.58947 12.7438 5.56457C12.6607 5.53966 12.572 5.53973 12.4889 5.56475C12.4058 5.58977 12.3318 5.63864 12.2762 5.70531C12.2206 5.77198 12.1858 5.8535 12.1762 5.93976C12.0952 6.7261 11.8878 7.49422 11.5622 8.21453C11.485 8.36968 11.4569 8.37559 11.4145 8.37559C11.4022 8.37674 11.3899 8.37371 11.3796 8.36701C11.3693 8.3603 11.3615 8.35031 11.3576 8.33865C11.2943 8.11739 11.2464 7.89201 11.2142 7.66412L11.2057 7.60872C11.1912 7.52417 11.1474 7.44742 11.082 7.39188V6.84738C11.2973 6.77125 11.4839 6.63046 11.6161 6.44425C11.7484 6.25805 11.8199 6.03554 11.8208 5.80715V5.06835C11.8208 4.77444 11.704 4.49256 11.4962 4.28473C11.2884 4.07691 11.0065 3.96015 10.7126 3.96015H9.37094C9.57404 3.6297 9.64537 3.23493 9.57074 2.8543C9.49612 2.47367 9.28101 2.13506 8.96817 1.90576C8.65534 1.67646 8.26767 1.57326 7.88224 1.61668C7.4968 1.6601 7.14181 1.84696 6.88783 2.14012C6.51726 2.57058 6.18987 3.03642 5.9104 3.53091C5.63093 3.03642 5.30354 2.57058 4.93297 2.14012C4.67984 1.84433 4.3243 1.6551 3.93757 1.61034C3.55084 1.56558 3.16148 1.66859 2.84748 1.89874C2.53348 2.12889 2.31804 2.46918 2.2443 2.85145C2.17057 3.23371 2.24399 3.62972 2.44986 3.96015H1.1082C0.814287 3.96015 0.532412 4.07691 0.324584 4.28473C0.116756 4.49256 0 4.77444 0 5.06835V5.80715C0.00094676 6.03554 0.0724334 6.25805 0.20468 6.44425C0.336927 6.63046 0.523474 6.77125 0.7388 6.84738V12.4564C0.7388 12.7503 0.855556 13.0321 1.06338 13.24C1.27121 13.4478 1.55309 13.5646 1.847 13.5646H9.9738C10.0745 13.5641 10.1747 13.5499 10.2715 13.5224C10.9123 14.0568 11.7255 14.3401 12.5596 14.3196C13.8832 14.3196 14.9323 13.8024 15.5148 12.8675C16.2536 11.6747 16.1465 9.97324 15.2086 8.07527ZM7.388 6.91535H10.3432V7.73283C9.78079 8.55797 9.40073 9.49352 9.22835 10.4771C9.10527 11.2892 9.26656 12.1189 9.68493 12.8258H7.388V6.91535ZM7.44637 2.62403C7.55435 2.49964 7.69775 2.4112 7.85737 2.37054C8.017 2.32988 8.18523 2.33893 8.33957 2.3965C8.4939 2.45406 8.62698 2.55739 8.72098 2.69265C8.81499 2.82791 8.86545 2.98866 8.8656 3.15338C8.86531 3.36732 8.78016 3.57241 8.62885 3.72366C8.47753 3.87491 8.2724 3.95996 8.05846 3.96015H6.51289C6.77742 3.48395 7.09023 3.03623 7.44637 2.62403ZM2.9552 3.15338C2.95307 2.98808 3.00266 2.82626 3.09705 2.69054C3.19144 2.55482 3.32589 2.45201 3.4816 2.39648C3.57523 2.36177 3.6743 2.344 3.77416 2.34403C3.88868 2.34349 4.0019 2.36833 4.10568 2.41674C4.20947 2.46515 4.30125 2.53594 4.37443 2.62403C4.73057 3.03623 5.04338 3.48395 5.30791 3.96015H3.76234C3.5484 3.95996 3.34327 3.87491 3.19195 3.72366C3.04064 3.57241 2.95549 3.36732 2.9552 3.15338ZM1.4776 12.4564V6.91535H4.4328V12.8258H1.847C1.74903 12.8258 1.65507 12.7868 1.58579 12.7176C1.51652 12.6483 1.4776 12.5543 1.4776 12.4564ZM5.1716 12.8258V4.69895H6.6492V12.8258H5.1716ZM11.7761 10.1953C11.8492 10.1953 11.9206 10.2169 11.9813 10.2575C12.0421 10.2981 12.0894 10.3558 12.1174 10.4233C12.1453 10.4908 12.1527 10.5651 12.1384 10.6367C12.1242 10.7084 12.089 10.7742 12.0373 10.8259C11.9856 10.8775 11.9198 10.9127 11.8482 10.927C11.7765 10.9412 11.7022 10.9339 11.6347 10.9059C11.5672 10.878 11.5095 10.8306 11.469 10.7699C11.4284 10.7091 11.4067 10.6377 11.4067 10.5647C11.4067 10.4667 11.4456 10.3727 11.5149 10.3034C11.5842 10.2342 11.6781 10.1953 11.7761 10.1953ZM12.0642 12.3658C11.9946 12.4331 11.9013 12.4704 11.8044 12.4695C11.7075 12.4687 11.6149 12.4298 11.5464 12.3613C11.4779 12.2929 11.4391 12.2002 11.4382 12.1034C11.4374 12.0065 11.4746 11.9132 11.5419 11.8435L13.0195 10.3659C13.0892 10.2986 13.1825 10.2614 13.2793 10.2622C13.3762 10.2631 13.4688 10.3019 13.5373 10.3704C13.6058 10.4389 13.6447 10.5316 13.6455 10.6284C13.6464 10.7253 13.6091 10.8186 13.5418 10.8882L12.0642 12.3658ZM13.3431 12.501C13.27 12.501 13.1986 12.4794 13.1379 12.4388C13.0771 12.3982 13.0298 12.3405 13.0018 12.273C12.9739 12.2055 12.9665 12.1312 12.9808 12.0596C12.995 11.9879 13.0302 11.9221 13.0819 11.8704C13.1336 11.8188 13.1994 11.7836 13.271 11.7693C13.3427 11.7551 13.417 11.7624 13.4845 11.7904C13.552 11.8183 13.6097 11.8657 13.6502 11.9264C13.6908 11.9872 13.7125 12.0586 13.7125 12.1316C13.7125 12.1802 13.7029 12.2282 13.6844 12.273C13.6658 12.3178 13.6386 12.3586 13.6043 12.3929C13.57 12.4272 13.5293 12.4544 13.4845 12.4729C13.4396 12.4915 13.3916 12.501 13.3431 12.501Z" fill="#FE7062"/>
</g>
<defs>
<clipPath id="clip0_1511_444">
<rect width="16" height="16" fill="white"/>
</clipPath>
</defs>
</svg>
