<svg width="16" height="10" fill="none" xmlns="http://www.w3.org/2000/svg"><path d="m7.857 4.107 6.37-3.972a1.348 1.348 0 0 0-.21-.018H1.698c-.072 0-.143.008-.212.018l6.37 3.972z" fill="#fff"/><path d="M8.258 5.643c-.008.006-.018.01-.027.014l-.028.015a.753.753 0 0 1-.154.06l-.016.004a.768.768 0 0 1-.175.022h-.001a.757.757 0 0 1-.175-.022l-.016-.004a.774.774 0 0 1-.183-.075c-.009-.005-.018-.008-.027-.014L.378 1.23c-.013.075-.02.151-.02.23v7.083c0 .74.6 1.341 1.34 1.341h12.318c.74 0 1.341-.6 1.341-1.341V1.459c0-.079-.008-.155-.021-.23L8.258 5.643z" fill="#fff"/></svg>