<svg width="16" height="16" fill="none" xmlns="http://www.w3.org/2000/svg"><g clip-path="url(#a)" fill="#6165D7"><path d="M15.687 4.011 8.156 1.354a.468.468 0 0 0-.312 0L.313 4.01a.469.469 0 0 0-.001.884l7.531 2.677a.469.469 0 0 0 .314 0l7.531-2.677a.469.469 0 0 0 0-.884zM14.874 10.268v-4.09l-.937.334v3.756a.94.94 0 0 0 0 1.632v2.304a.469.469 0 1 0 .937 0V11.9a.94.94 0 0 0 0-1.633z"/><path d="M8 8.537c-.16 0-.32-.028-.471-.082L3.295 6.95v2.063c0 .505.527.931 1.565 1.268.905.294 2.02.456 3.14.456s2.235-.162 3.14-.456c1.038-.337 1.565-.763 1.565-1.268V6.95L8.47 8.455c-.152.054-.31.082-.471.082z"/></g><defs><clipPath id="a"><path fill="#fff" d="M0 0h16v16H0z"/></clipPath></defs></svg>