<?xml version="1.0" encoding="UTF-8" standalone="no"?>
<!-- Uploaded to: SVG Repo, www.svgrepo.com, Generator: SVG Repo Mixer Tools -->

<svg
   width="800px"
   height="800px"
   viewBox="0 0 48 48"
   version="1.1"
   id="svg255"
   sodipodi:docname="newstar.svg"
   inkscape:version="1.2.2 (732a01da63, 2022-12-09)"
   xmlns:inkscape="http://www.inkscape.org/namespaces/inkscape"
   xmlns:sodipodi="http://sodipodi.sourceforge.net/DTD/sodipodi-0.dtd"
   xmlns="http://www.w3.org/2000/svg"
   xmlns:svg="http://www.w3.org/2000/svg"
   xmlns:rdf="http://www.w3.org/1999/02/22-rdf-syntax-ns#"
   xmlns:cc="http://creativecommons.org/ns#"
   xmlns:dc="http://purl.org/dc/elements/1.1/">
  <defs
     id="defs259" />
  <sodipodi:namedview
     id="namedview257"
     pagecolor="#ffffff"
     bordercolor="#000000"
     borderopacity="0.25"
     inkscape:showpageshadow="2"
     inkscape:pageopacity="0.0"
     inkscape:pagecheckerboard="0"
     inkscape:deskcolor="#d1d1d1"
     showgrid="false"
     inkscape:zoom="1.05875"
     inkscape:cx="323.49469"
     inkscape:cy="400.47226"
     inkscape:window-width="1920"
     inkscape:window-height="1027"
     inkscape:window-x="-8"
     inkscape:window-y="-8"
     inkscape:window-maximized="1"
     inkscape:current-layer="svg255" />
  <title
     id="title246">new-star</title>
  <g
     id="Layer_2"
     data-name="Layer 2">
    <g
       id="invisible_box"
       data-name="invisible box">
      <rect
         width="48"
         height="48"
         fill="none"
         id="rect248" />
    </g>
    <g
       id="icons_Q2"
       data-name="icons Q2"
       style="fill:#ffcc00">
      <path
         d="M42.3,24l3.4-5.1a2,2,0,0,0,.2-1.7A1.8,1.8,0,0,0,44.7,16l-5.9-2.4-.5-5.9a2.1,2.1,0,0,0-.7-1.5,2,2,0,0,0-1.7-.3L29.6,7.2,25.5,2.6a2.2,2.2,0,0,0-3,0L18.4,7.2,12.1,5.9a2,2,0,0,0-1.7.3,2.1,2.1,0,0,0-.7,1.5l-.5,5.9L3.3,16a1.8,1.8,0,0,0-1.2,1.2,2,2,0,0,0,.2,1.7L5.7,24,2.3,29.1a2,2,0,0,0,1,2.9l5.9,2.4.5,5.9a2.1,2.1,0,0,0,.7,1.5,2,2,0,0,0,1.7.3l6.3-1.3,4.1,4.5a2,2,0,0,0,3,0l4.1-4.5,6.3,1.3a2,2,0,0,0,1.7-.3,2.1,2.1,0,0,0,.7-1.5l.5-5.9L44.7,32a2,2,0,0,0,1-2.9ZM18,31.1l-4.2-3.2L12.7,27h-.1l.6,1.4,1.7,4-2.1.8L9.3,24.6l2.1-.8L15.7,27l1.1.9h0a11.8,11.8,0,0,0-.6-1.3l-1.6-4.1,2.1-.9,3.5,8.6Zm3.3-1.3-3.5-8.7,6.6-2.6.7,1.8L20.7,22l.6,1.6L25.1,22l.7,1.7L22,25.2l.7,1.9,4.5-1.8.7,1.8Zm13.9-5.7-2.6-3.7-.9-1.5h-.1a14.7,14.7,0,0,1,.4,1.7l.8,4.5-2.1.9-5.9-7.7,2.2-.9,2.3,3.3,1.3,2h0a22.4,22.4,0,0,1-.4-2.3l-.7-4,2-.8L33.8,19,35,20.9h0s-.2-1.4-.4-2.4L34,14.6l2.1-.9,1.2,9.6Z"
         id="path251"
         style="fill:#ffcc00" />
    </g>
  </g>
  <metadata
     id="metadata261">
    <rdf:RDF>
      <cc:Work
         rdf:about="">
        <dc:title>new-star</dc:title>
      </cc:Work>
    </rdf:RDF>
  </metadata>
</svg>
