<svg width="24" height="18" fill="none" xmlns="http://www.w3.org/2000/svg"><path d="M22.5 0h-21C.673 0 0 .673 0 1.5v15c0 .828.673 1.5 1.5 1.5h21a1.5 1.5 0 0 0 1.5-1.5v-15c0-.827-.672-1.5-1.5-1.5zM9 12a.75.75 0 0 1-1.42.336L6 9.177V12a.75.75 0 0 1-1.5 0V6a.751.751 0 0 1 1.42-.336L7.5 8.823V6A.75.75 0 0 1 9 6v6zm3.75-3.75a.75.75 0 0 1 0 1.5H12v1.5h.75a.75.75 0 0 1 0 1.5h-1.5a.75.75 0 0 1-.75-.75V6a.75.75 0 0 1 .75-.75h1.5a.75.75 0 0 1 0 1.5H12v1.5h.75zM19.5 12a.748.748 0 0 1-.75.75.748.748 0 0 1-.67-.414l-.83-1.659-.83 1.658a.744.744 0 0 1-.844.394A.748.748 0 0 1 15 12V6a.75.75 0 0 1 1.5 0v2.823l.08-.158c.255-.508 1.087-.508 1.342 0l.078.158V6a.75.75 0 0 1 1.5 0v6z" fill="#F95E69"/></svg>