<svg width="37.27mm" height="140.455" viewBox="0 0 37.27 37.162" xmlns="http://www.w3.org/2000/svg"><defs><clipPath id="h"><path d="M-.19-.277h263.61v240.56H-.19z" fill="#fff" stroke-width="1.002"/></clipPath><clipPath id="q"><path d="M-.19-.277h263.61v240.56H-.19z" fill="#fff" stroke-width="1.002"/></clipPath><clipPath id="p"><path d="M-.19-.277h263.61v240.56H-.19z" fill="#fff" stroke-width="1.002"/></clipPath><clipPath id="c"><path d="M-.19-.277h263.61v240.56H-.19z" fill="#fff" stroke-width="1.002"/></clipPath><clipPath id="o"><path d="M-.19-.277h263.61v240.56H-.19z" fill="#fff" stroke-width="1.002"/></clipPath><clipPath id="e"><path d="M-.19-.277h263.61v240.56H-.19z" fill="#fff" stroke-width="1.002"/></clipPath><clipPath id="g"><path d="M-.19-.277h263.61v240.56H-.19z" fill="#fff" stroke-width="1.002"/></clipPath><clipPath id="n"><path d="M-.19-.277h263.61v240.56H-.19z" fill="#fff" stroke-width="1.002"/></clipPath><clipPath id="a"><path d="M-.19-.277h263.61v240.56H-.19z" fill="#fff" stroke-width="1.002"/></clipPath><clipPath id="l"><path d="M-.19-.277h263.61v240.56H-.19z" fill="#fff" stroke-width="1.002"/></clipPath><clipPath id="j"><path d="M-.19-.277h263.61v240.56H-.19z" fill="#fff" stroke-width="1.002"/></clipPath><linearGradient id="m" x1="214.76" x2="241.22" y1="69.235" y2="69.235" gradientTransform="translate(-.19 -1.274) scale(1.0023)" gradientUnits="userSpaceOnUse"><stop stop-color="#444B8C" offset="0"/><stop stop-color="#26264F" offset="1"/></linearGradient><linearGradient id="k" x1="203.97" x2="205.92" y1="-190.62" y2="266.85" gradientTransform="translate(-.19 -1.274) scale(1.0023)" gradientUnits="userSpaceOnUse"><stop stop-color="#AA80F9" offset="0"/><stop stop-color="#6165D7" offset="1"/></linearGradient><linearGradient id="i" x1="205.09" x2="147.4" y1="70.206" y2="70.206" gradientTransform="translate(-.19 -1.274) scale(1.0023)" gradientUnits="userSpaceOnUse"><stop stop-color="#444B8C" offset="0"/><stop stop-color="#26264F" offset="1"/></linearGradient><linearGradient id="f" x1="141.27" x2="234.34" y1="66.418" y2="66.418" gradientTransform="translate(-.19 -1.274) scale(1.0023)" gradientUnits="userSpaceOnUse"><stop stop-color="#97A6B7" offset="0"/><stop stop-color="#67878E" offset="1"/></linearGradient><linearGradient id="d" x1="137.56" x2="164.02" y1="62.615" y2="62.615" gradientTransform="translate(-.19 -1.274) scale(1.0023)" gradientUnits="userSpaceOnUse"><stop stop-color="#444B8C" offset="0"/><stop stop-color="#26264F" offset="1"/></linearGradient><linearGradient id="b" x1="189.29" x2="189.46" y1="84.657" y2="125.28" gradientTransform="translate(-.19 -1.274) scale(1.0023)" gradientUnits="userSpaceOnUse"><stop stop-color="#444B8C" offset="0"/><stop stop-color="#26264F" offset="1"/></linearGradient></defs><g stroke-width="1.002"><path transform="translate(-32.295 -1.052) scale(.26458)" d="M189.64 109.83c14.045 0 25.43-1.438 25.43-3.212 0-1.774-11.385-3.212-25.43-3.212-14.044 0-25.429 1.438-25.429 3.211 0 1.775 11.385 3.213 25.429 3.213z" clip-path="url(#a)" fill="url(#b)"/><path transform="translate(-32.295 -1.052) scale(.26458)" d="M150.95 78.406c7.324 0 13.261-7.576 13.261-16.919s-5.937-16.919-13.261-16.919c-7.324 0-13.261 7.576-13.261 16.919s5.937 16.919 13.261 16.919z" clip-path="url(#c)" fill="url(#d)"/><path transform="translate(-32.295 -1.052) scale(.26458)" d="M234.7 65.299c0 21.049-20.885 38.11-46.645 38.11a56.565 56.565 0 0 1-11.467-1.162c-20.216-4.173-35.178-19.132-35.178-36.944 0-21.046 20.885-38.109 46.644-38.109 7.238 0 14.09 1.347 20.202 3.751 15.646 6.146 26.443 19.223 26.443 34.354z" clip-path="url(#e)" fill="url(#f)"/><path transform="translate(-32.295 -1.052) scale(.26458)" d="m156.9 82.695 35.966 3.13c7.95.69 14.808-5.51 15.086-13.939l.297-8.995c.128-3.869-2.843-7.096-6.586-7.191l-51.269-1.32c-2.977-.076-5.362 2.623-5.362 6.017v7.895c0 7.407 5.237 13.825 11.869 14.403z" clip-path="url(#g)" fill="#f4f7fa"/><path transform="translate(-32.295 -1.052) scale(.26458)" d="m156.04 77.551 38.482 2.829c5.684.418 10.54-4.063 10.728-10.047l.125-3.973c.122-3.839-2.817-7.054-6.514-7.166l-45.877-1.4c-3.009-.09-5.42 2.605-5.426 6.01l-.005 3.525c-.007 5.312 3.754 9.876 8.486 10.223z" clip-path="url(#h)" fill="url(#i)"/><path transform="translate(-32.295 -1.052) scale(.26458)" d="M234.7 65.299c0 21.049-20.885 38.11-46.644 38.11a56.557 56.557 0 0 1-11.467-1.162c-3.628-11.418 16.874-23.94 28.665-31.919 14.443-9.771 3.009-39.388 3.009-39.388 15.64 6.152 26.437 19.228 26.437 34.36z" clip-path="url(#j)" fill="url(#k)" opacity=".3" style="mix-blend-mode:multiply"/><path transform="translate(-32.295 -1.052) scale(.26458)" d="M228.33 85.041c7.324 0 13.261-7.575 13.261-16.918 0-9.344-5.937-16.919-13.261-16.919-7.324 0-13.261 7.576-13.261 16.919 0 9.344 5.937 16.919 13.261 16.919z" clip-path="url(#l)" fill="url(#m)"/><path transform="translate(-32.295 -1.052) scale(.26458)" d="M179.45 69.442c-.859.686-1.396 1.646-1.415 2.73-.012.692.207 1.348.569 1.942l8.844.555a3.372 3.372 0 0 0 .67-1.904c.023-1.037-.43-2.01-1.187-2.777zm-24.248-.827a3.346 3.346 0 0 0-.814 2.165 3.6 3.6 0 0 0 .536 1.846l7.987.502a3.294 3.294 0 0 0 .581-1.813 3.597 3.597 0 0 0-.522-1.877z" clip-path="url(#n)" fill="#d8dee8"/><path transform="translate(-32.295 -1.052) scale(.26458)" d="M192.49 3.988c-38.897 0-70.431 31.441-70.431 70.227 0 38.787 31.533 70.228 70.431 70.228s70.432-31.442 70.432-70.227c0-38.786-31.533-70.228-70.432-70.228zm54.996 107.2a66.482 66.482 0 0 1-29.182 23.963 66.389 66.389 0 0 1-32.222 4.913 66.341 66.341 0 0 1-30.669-11.01 66.373 66.373 0 0 1-24.032-29.097 65.859 65.859 0 0 1-4.926-32.13 65.918 65.918 0 0 1 11.04-30.58 66.483 66.483 0 0 1 29.183-23.96 66.398 66.398 0 0 1 62.89 6.096 66.371 66.371 0 0 1 24.032 29.1 65.869 65.869 0 0 1-6.114 62.709z" clip-path="url(#o)" fill="#fff"/><path transform="translate(-32.295 -1.052) scale(.26458)" d="m245.28 36.877-11.949-11.236-3.21 3.394a58.771 58.771 0 0 0-37.64-13.555c-32.532 0-58.905 26.297-58.905 58.737 0 15.503 6.024 29.603 15.866 40.1l-1.8 1.902 11.95 11.236 2.665-2.818a58.756 58.756 0 0 0 30.229 8.314c32.533 0 58.906-26.296 58.906-58.737a58.342 58.342 0 0 0-10.19-33.027zm-98.791 68.26a55.18 55.18 0 0 1 6.743-70.062 55.529 55.529 0 0 1 33.92-15.945 55.585 55.585 0 0 1 40.609 12.403l-75.952 80.285a55.669 55.669 0 0 1-5.32-6.68zm97.106-52.448a55.075 55.075 0 0 1 4.122 26.871 55.12 55.12 0 0 1-9.236 25.576 55.596 55.596 0 0 1-24.407 20.043 55.496 55.496 0 0 1-49.399-3.1l74.107-78.334a55.314 55.314 0 0 1 4.812 8.944z" clip-path="url(#p)" fill="#fff"/><path transform="translate(-32.295 -1.052) scale(.26458)" d="M254.88 47.932a67.814 67.814 0 0 0-33.873-35.088 68.1 68.1 0 0 0-48.726-3.35 67.89 67.89 0 0 0-38.383 30.116 67.56 67.56 0 0 0-8.191 48.012 67.705 67.705 0 0 0 26.236 41.08 68.064 68.064 0 0 0 47.096 12.902 67.991 67.991 0 0 0 43.603-21.944 67.617 67.617 0 0 0 17.561-45.446 67.116 67.116 0 0 0-5.323-26.283zM134.4 74.216c0-31.938 26.058-57.922 58.088-57.922 14.958 0 28.608 5.664 38.914 14.955l-79.299 84.561c-10.91-10.536-17.703-25.289-17.703-41.594zm58.088 57.921a57.878 57.878 0 0 1-31.696-9.403l78.117-83.3a57.516 57.516 0 0 1 11.668 34.781c0 31.938-26.055 57.922-58.089 57.922z" clip-path="url(#q)" fill="#f95e69"/></g></svg>