<svg width="37.27mm" height="37.162mm" version="1.1" viewBox="0 0 37.27 37.162" xmlns="http://www.w3.org/2000/svg">
 <defs>
  <linearGradient id="m" x1="189.29" x2="189.46" y1="84.657" y2="125.28" gradientTransform="matrix(1.0023 0 0 1.0023 -.19 -1.274)" gradientUnits="userSpaceOnUse">
   <stop stop-color="#444B8C" offset="0"/>
   <stop stop-color="#26264F" offset="1"/>
  </linearGradient>
  <clipPath id="clipPath877">
   <path d="m-0.19-0.27668h263.61v240.56h-263.61z" fill="#fff" stroke-width="1.0023"/>
  </clipPath>
  <linearGradient id="o" x1="137.56" x2="164.02" y1="62.615" y2="62.615" gradientTransform="matrix(1.0023 0 0 1.0023 -.19 -1.274)" gradientUnits="userSpaceOnUse">
   <stop stop-color="#444B8C" offset="0"/>
   <stop stop-color="#26264F" offset="1"/>
  </linearGradient>
  <clipPath id="clipPath865">
   <path d="m-0.19-0.27668h263.61v240.56h-263.61z" fill="#fff" stroke-width="1.0023"/>
  </clipPath>
  <linearGradient id="p" x1="141.27" x2="234.34" y1="66.418" y2="66.418" gradientTransform="matrix(1.0023 0 0 1.0023 -.19 -1.274)" gradientUnits="userSpaceOnUse">
   <stop stop-color="#97A6B7" offset="0"/>
   <stop stop-color="#67878E" offset="1"/>
  </linearGradient>
  <clipPath id="clipPath859">
   <path d="m-0.19-0.27668h263.61v240.56h-263.61z" fill="#fff" stroke-width="1.0023"/>
  </clipPath>
  <clipPath id="clipPath853">
   <path d="m-0.19-0.27668h263.61v240.56h-263.61z" fill="#fff" stroke-width="1.0023"/>
  </clipPath>
  <linearGradient id="q" x1="205.09" x2="147.4" y1="70.206" y2="70.206" gradientTransform="matrix(1.0023 0 0 1.0023 -.19 -1.274)" gradientUnits="userSpaceOnUse">
   <stop stop-color="#444B8C" offset="0"/>
   <stop stop-color="#26264F" offset="1"/>
  </linearGradient>
  <clipPath id="clipPath847">
   <path d="m-0.19-0.27668h263.61v240.56h-263.61z" fill="#fff" stroke-width="1.0023"/>
  </clipPath>
  <linearGradient id="r" x1="203.97" x2="205.92" y1="-190.62" y2="266.85" gradientTransform="matrix(1.0023 0 0 1.0023 -.19 -1.274)" gradientUnits="userSpaceOnUse">
   <stop stop-color="#AA80F9" offset="0"/>
   <stop stop-color="#6165D7" offset="1"/>
  </linearGradient>
  <clipPath id="clipPath841">
   <path d="m-0.19-0.27668h263.61v240.56h-263.61z" fill="#fff" stroke-width="1.0023"/>
  </clipPath>
  <linearGradient id="s" x1="214.76" x2="241.22" y1="69.235" y2="69.235" gradientTransform="matrix(1.0023 0 0 1.0023 -.19 -1.274)" gradientUnits="userSpaceOnUse">
   <stop stop-color="#444B8C" offset="0"/>
   <stop stop-color="#26264F" offset="1"/>
  </linearGradient>
  <clipPath id="clipPath835">
   <path d="m-0.19-0.27668h263.61v240.56h-263.61z" fill="#fff" stroke-width="1.0023"/>
  </clipPath>
  <clipPath id="clipPath829">
   <path d="m-0.19-0.27668h263.61v240.56h-263.61z" fill="#fff" stroke-width="1.0023"/>
  </clipPath>
  <clipPath id="clipPath697">
   <path d="m-0.19-0.27668h263.61v240.56h-263.61z" fill="#fff" stroke-width="1.0023"/>
  </clipPath>
  <clipPath id="clipPath691">
   <path d="m-0.19-0.27668h263.61v240.56h-263.61z" fill="#fff" stroke-width="1.0023"/>
  </clipPath>
  <clipPath id="clipPath685">
   <path d="m-0.19-0.27668h263.61v240.56h-263.61z" fill="#fff" stroke-width="1.0023"/>
  </clipPath>
 </defs>
 <g transform="translate(-32.345 -105.02)">
  <g transform="translate(0 33.487)" stroke-width="1.0023">
   <path transform="matrix(.26458 0 0 .26458 .050271 70.481)" d="m189.64 109.83c14.045 0 25.43-1.4384 25.43-3.2125 0-1.7731-11.385-3.2115-25.43-3.2115-14.044 0-25.429 1.4384-25.429 3.2115 0 1.7741 11.385 3.2125 25.429 3.2125z" clip-path="url(#clipPath877)" fill="url(#m)"/>
   <path transform="matrix(.26458 0 0 .26458 .050271 70.481)" d="m150.95 78.406c7.324 0 13.261-7.5756 13.261-16.919s-5.9368-16.919-13.261-16.919c-7.324 0-13.261 7.5756-13.261 16.919s5.9368 16.919 13.261 16.919z" clip-path="url(#clipPath865)" fill="url(#o)"/>
   <path transform="matrix(.26458 0 0 .26458 .050271 70.481)" d="m234.7 65.299c0 21.049-20.885 38.11-46.645 38.11a56.565 56.565 0 0 1-11.467-1.1617c-20.216-4.1737-35.178-19.132-35.178-36.944 0-21.046 20.885-38.109 46.644-38.109 7.2378 0 14.09 1.3471 20.202 3.7507 15.646 6.1463 26.443 19.223 26.443 34.354z" clip-path="url(#clipPath859)" fill="url(#p)"/>
   <path transform="matrix(.26458 0 0 .26458 .050271 70.481)" d="m156.9 82.695 35.966 3.1293c7.9495 0.69161 14.808-5.5088 15.086-13.938l0.29669-8.9949c0.1283-3.869-2.8426-7.0965-6.5853-7.1917l-51.269-1.3191c-2.9769-0.07618-5.3625 2.6221-5.3625 6.016v7.8954c0 7.4072 5.2372 13.825 11.869 14.403z" clip-path="url(#clipPath853)" fill="#f4f7fa"/>
   <path transform="matrix(.26458 0 0 .26458 .050271 70.481)" d="m156.04 77.551 38.482 2.8286c5.6842 0.41797 10.54-4.0624 10.728-10.047l0.12529-3.9722c0.12128-3.8389-2.8176-7.0544-6.5142-7.1667l-45.877-1.3993c-3.009-0.09121-5.4206 2.6041-5.4256 6.009l-5e-3 3.5252c-7e-3 5.3123 3.7537 9.876 8.4857 10.223z" clip-path="url(#clipPath847)" fill="url(#q)"/>
   <path transform="matrix(.26458 0 0 .26458 .050271 70.481)" d="m234.7 65.299c0 21.049-20.885 38.11-46.644 38.11a56.557 56.557 0 0 1-11.467-1.1617c-3.6284-11.418 16.874-23.941 28.665-31.919 14.443-9.7717 3.009-39.388 3.009-39.388 15.64 6.1513 26.437 19.228 26.437 34.36z" clip-path="url(#clipPath841)" fill="url(#r)" opacity=".3" style="mix-blend-mode:multiply"/>
   <path transform="matrix(.26458 0 0 .26458 .050271 70.481)" d="m228.33 85.041c7.324 0 13.261-7.5746 13.261-16.918 0-9.3437-5.9368-16.919-13.261-16.919-7.324 0-13.261 7.5756-13.261 16.919 0 9.3437 5.9368 16.919 13.261 16.919z" clip-path="url(#clipPath835)" fill="url(#s)"/>
   <path transform="matrix(.26458 0 0 .26458 .050271 70.481)" d="m179.45 69.442c-0.85899 0.68559-1.3962 1.6458-1.4153 2.7303-0.012 0.69161 0.20749 1.3481 0.56933 1.9415l8.8436 0.55529c0.41296-0.55128 0.6465-1.2158 0.67055-1.9044 0.0231-1.0364-0.42999-2.0097-1.1868-2.7765zm-24.248-0.82692a3.3458 3.3458 0 0 0-0.81389 2.165c8e-3 0.65252 0.19345 1.291 0.53624 1.8463l7.9866 0.50116a3.2937 3.2937 0 0 0 0.58135-1.8122 3.5974 3.5974 0 0 0-0.52221-1.8774z" clip-path="url(#clipPath829)" fill="#d8dee8"/>
   <path transform="matrix(.26458 0 0 .26458 .050271 70.481)" d="m192.49 3.9882c-38.897 0-70.431 31.441-70.431 70.227 0 38.787 31.533 70.228 70.431 70.228s70.432-31.442 70.432-70.227c0-38.786-31.533-70.228-70.432-70.228zm54.996 107.2a66.482 66.482 0 0 1-29.182 23.963 66.389 66.389 0 0 1-32.222 4.9124 66.341 66.341 0 0 1-30.669-11.009 66.373 66.373 0 0 1-24.032-29.098 65.859 65.859 0 0 1-4.9264-32.129 65.918 65.918 0 0 1 11.04-30.581 66.483 66.483 0 0 1 29.183-23.96 66.398 66.398 0 0 1 62.89 6.0962 66.371 66.371 0 0 1 24.032 29.1 65.869 65.869 0 0 1-6.1132 62.709z" clip-path="url(#clipPath697)" fill="#fff"/>
   <path transform="matrix(.26458 0 0 .26458 .050271 70.481)" d="m245.28 36.877-11.949-11.236-3.2095 3.3939a58.771 58.771 0 0 0-37.64-13.555c-32.532 0-58.905 26.297-58.905 58.737 0 15.503 6.024 29.603 15.866 40.1l-1.8002 1.9024 11.949 11.236 2.6652-2.8186a58.756 58.756 0 0 0 30.229 8.3143c32.533 0 58.906-26.296 58.906-58.737a58.342 58.342 0 0 0-10.19-33.027zm-98.791 68.26a55.18 55.18 0 0 1 6.7427-70.062 55.529 55.529 0 0 1 33.921-15.945 55.585 55.585 0 0 1 40.608 12.403l-75.952 80.285a55.669 55.669 0 0 1-5.3204-6.6805zm97.106-52.448a55.075 55.075 0 0 1 4.1216 26.871 55.12 55.12 0 0 1-9.2355 25.576 55.596 55.596 0 0 1-24.407 20.043 55.496 55.496 0 0 1-49.399-3.1002l74.107-78.334a55.314 55.314 0 0 1 4.8122 8.9438z" clip-path="url(#clipPath691)" fill="#fff"/>
   <path transform="matrix(.26458 0 0 .26458 .050271 70.481)" d="m254.88 47.932a67.814 67.814 0 0 0-33.873-35.088 68.1 68.1 0 0 0-48.726-3.3508 67.89 67.89 0 0 0-38.383 30.117 67.56 67.56 0 0 0-8.191 48.012 67.705 67.705 0 0 0 26.236 41.079 68.064 68.064 0 0 0 47.096 12.903 67.991 67.991 0 0 0 43.603-21.944 67.617 67.617 0 0 0 17.561-45.446 67.116 67.116 0 0 0-5.3234-26.283zm-120.48 26.284c0-31.938 26.058-57.922 58.088-57.922 14.958 0 28.608 5.6642 38.914 14.955l-79.299 84.561c-10.91-10.536-17.703-25.289-17.703-41.594zm58.088 57.921a57.878 57.878 0 0 1-31.696-9.4029l78.117-83.3a57.516 57.516 0 0 1 11.668 34.781c0 31.938-26.055 57.922-58.089 57.922z" clip-path="url(#clipPath685)" fill="#f95e69"/>
  </g>
 </g>
</svg>
