<svg width="16" height="16" fill="none" xmlns="http://www.w3.org/2000/svg"><g clip-path="url(#a)" fill="#6165D7"><path d="M11.635 4.435a2.052 2.052 0 0 1-2.051-2.051V0H3.24a1.234 1.234 0 0 0-1.23 1.23v13.54A1.234 1.234 0 0 0 3.24 16h9.547a1.234 1.234 0 0 0 1.23-1.23V4.434h-2.383zM4.23 6.277h4.435a.41.41 0 1 1 0 .82H4.23a.41.41 0 1 1 0-.82zm7.983 7.028H4.23a.41.41 0 1 1 0-.82h7.983a.41.41 0 0 1 0 .82zm0-3.106H4.23a.41.41 0 0 1 0-.82h7.983a.41.41 0 1 1 0 .82z"/><path d="M11.635 3.614h1.813L10.404.578v1.805c0 .68.551 1.23 1.23 1.231z"/></g><defs><clipPath id="a"><path fill="#fff" d="M0 0h16v16H0z"/></clipPath></defs></svg>