<svg width="16" height="16" fill="none" xmlns="http://www.w3.org/2000/svg"><path d="M12.214 6.594h-.937A1.408 1.408 0 0 0 9.87 5.187V4.25a2.347 2.347 0 0 1 2.344 2.344z" fill="#fff"/><path d="M14.089 6.594h-.938A3.285 3.285 0 0 0 9.87 3.312v-.937a4.223 4.223 0 0 1 4.219 4.219zm-3.594 3.976 1.05-1.05a1.015 1.015 0 0 1 1.095-.225l1.279.512a1.016 1.016 0 0 1 .638.943v2.325a1.016 1.016 0 0 1-1.07 1.017c-8.964-.558-10.774-8.15-11.11-11.057a1.014 1.014 0 0 1 1.01-1.129H5.67a1.016 1.016 0 0 1 .943.639l.511 1.278A1.016 1.016 0 0 1 6.9 4.92L5.85 5.97s.583 4.093 4.645 4.6z" fill="#fff"/></svg>