<svg width="135mm" height="100mm" viewBox="0 0 135 100" xml:space="preserve" xmlns:xlink="http://www.w3.org/1999/xlink" xmlns="http://www.w3.org/2000/svg"><defs><linearGradient id="a" x1="124.359" y1="22.043" x2="133.694" y2="-12.641" gradientUnits="userSpaceOnUse"><stop stop-color="#30ABBA"/><stop offset="1" stop-color="#6165D7"/></linearGradient><linearGradient xlink:href="#a" id="b" x1="32.084" y1="71.74" x2="98.708" y2="30.013" gradientUnits="userSpaceOnUse"/></defs><path d="M55.97 8.952c-21.423 5.942-35.366 18.36-38.834 39.972-.944 5.88.375 1.44 4.364-1.544 13.026-9.741 38.636-6.292 42.19 15.955 7.151 39.39-42.132 46.21-56.718 24.455-3.394-5.056-5.64-10.959-6.45-17.44-3.514-28.192 10.943-53.3 36.34-65.095 4.698-2.182 9.65-3.89 14.979-5.143 2.668-.538 4.606.911 5.5 3.367.757 2.095 1.015 4.406-1.37 5.473zm70.607 0c-21.424 5.942-35.37 18.36-38.834 39.972-.944 5.88.374 1.44 4.364-1.544 13.025-9.741 38.636-6.292 42.187 15.955 7.156 39.39-42.13 46.21-56.716 24.455-3.393-5.056-5.64-10.959-6.45-17.44-3.514-28.192 10.943-53.3 36.34-65.095 4.699-2.182 9.648-3.89 14.98-5.143 2.668-.538 4.606.911 5.5 3.367.756 2.095 1.015 4.406-1.371 5.473z" style="stroke-width:.263585;fill-opacity:1;fill:url(#b)"/></svg>