<svg width="24" height="24" fill="none" xmlns="http://www.w3.org/2000/svg"><g clip-path="url(#a)"><path d="M22.678 10.31h-1.127V6.74a.866.866 0 0 0-.805-.804h-7.7V1h-1.61v4.937h-7.7a.866.866 0 0 0-.804.804v3.569H1.805a.79.79 0 0 0-.805.805v5.312a.79.79 0 0 0 .805.805h1.127v4.963c.027.43.375.778.805.805h17.01a.866.866 0 0 0 .804-.805v-4.963h1.127a.79.79 0 0 0 .805-.805v-5.312a.79.79 0 0 0-.805-.805zm-16.42 1.905A2.336 2.336 0 0 1 8.594 9.88a2.336 2.336 0 0 1 2.334 2.335 2.336 2.336 0 0 1-2.334 2.334 2.336 2.336 0 0 1-2.334-2.334zm9.525 7.002H8.7v-1.61h7.083v1.61zm2.441-7.002a2.336 2.336 0 0 1-2.334 2.334 2.382 2.382 0 0 1-2.388-2.334 2.382 2.382 0 0 1 2.335-2.388c1.287-.027 2.36 1.046 2.387 2.334v.054z" fill="#6165D7"/><path fill-rule="evenodd" clip-rule="evenodd" d="M22.611 23.977 0 4.516l.783-.91 22.611 19.461-.782.91z" fill="#fff"/><path fill-rule="evenodd" clip-rule="evenodd" d="M23.134 23.37.522 3.91 1.305 3l22.611 19.46-.782.91z" fill="#6165D7"/></g><defs><clipPath id="a"><path fill="#fff" d="M0 0h24v24H0z"/></clipPath></defs></svg>