<svg width="24" height="24" fill="none" xmlns="http://www.w3.org/2000/svg"><path d="M10.034 11.25H8.482c.016.473.062.946.139 1.413l1.413-1.413zM8.196 7.568a23.684 23.684 0 0 1-2.613-.577A7.457 7.457 0 0 0 4.51 10.5h3.221c.031-.993.187-1.978.465-2.932zm3.429 2.091V7.87a23.738 23.738 0 0 1-2.678-.194 11.034 11.034 0 0 0-.465 2.823h2.302l.841-.841zM10.252 3.58a7.458 7.458 0 0 0-4.223 2.757c.792.212 1.594.382 2.403.509a11.643 11.643 0 0 1 1.82-3.266zm1.373 3.542V3.385l-.234.015a10.932 10.932 0 0 0-2.198 3.553c.807.1 1.62.156 2.432.169zm3.046-.509A10.973 10.973 0 0 0 12.61 3.4a7.425 7.425 0 0 0-.234-.015v3.737c.634-.01 1.27-.047 1.897-.11l.4-.4zm1.777-1.778a7.444 7.444 0 0 0-2.7-1.256 11.65 11.65 0 0 1 1.494 2.462l1.206-1.206zm-4.073 3.037v1.037l1.08-1.079c-.36.022-.72.036-1.08.042zM7.731 11.25H4.51a7.515 7.515 0 0 0 1.451 4.073l2.017-2.017a11.843 11.843 0 0 1-.247-2.056zM18.04 6.427 7.551 16.914a7.446 7.446 0 0 0 3.698 1.424 7.615 7.615 0 0 0 1.822-.04.375.375 0 0 1 .428.372v1.37l2.74-2.967a.383.383 0 0 1 .06-.053 7.502 7.502 0 0 0 1.74-10.593zM12 15.375a.75.75 0 1 1 0-1.5.75.75 0 0 1 0 1.5zm2.25 0a.75.75 0 1 1 0-1.5.75.75 0 0 1 0 1.5zm2.25 0a.75.75 0 1 1 0-1.5.75.75 0 0 1 0 1.5zM3.861 3.415A10.5 10.5 0 0 0 2.67 16.926l-.317-.046a.375.375 0 1 0-.11.741l1.266.188a.376.376 0 0 0 .427-.325l.14-1.125a.375.375 0 0 0-.744-.093l-.032.254A9.751 9.751 0 0 1 4.39 3.948a.375.375 0 1 0-.528-.533z" fill="#6165D7"/><path d="M21.024 4.5h.282a.375.375 0 0 0 0-.75h-1.125a.375.375 0 0 0-.375.375V5.25a.375.375 0 1 0 .75 0v-.124a9.75 9.75 0 0 1-.947 12.61.375.375 0 1 0 .532.528A10.5 10.5 0 0 0 21.024 4.5z" fill="#6165D7"/></svg>