<svg width="24" height="24" fill="none" xmlns="http://www.w3.org/2000/svg"><path d="M19.991 15.409a.372.372 0 0 0-.446.285l-.315 1.414a3.276 3.276 0 0 0-6.079.888 2.455 2.455 0 0 0-2.306 0 3.289 3.289 0 0 0-6.083-.892l-.307-1.384a.375.375 0 0 0-.731.165l.633 2.85c.213 4.2 6.183 4.314 6.552.131a1.66 1.66 0 0 1 2.175 0c.004.09.011.18.022.27a3.28 3.28 0 0 0 6.529-.397l.641-2.88a.377.377 0 0 0-.285-.45z" fill="#6165D7"/><path d="M20.242 8.993a13.423 13.423 0 0 0-1.706-.53 365.278 365.278 0 0 1-2.081-5.332 1.68 1.68 0 0 0-1.042-.993 1.7 1.7 0 0 0-1.437.168l-1.455.915a.968.968 0 0 1-1.005 0l-1.481-.93a1.705 1.705 0 0 0-2.467.81l-2.15 5.374C3.654 8.858 1.399 9.9 1.5 11.126c.16 4.45 20.84 4.452 21 0 0-.573-.394-1.406-2.258-2.133z" fill="#6165D7"/></svg>