<svg width="24" height="24" fill="none" xmlns="http://www.w3.org/2000/svg"><g clip-path="url(#a)" fill="#6165D7"><path d="M20.953 20.25h-.937v-1.875h-3.75v1.875h-.938a3.047 3.047 0 0 0-3.047 3.047c0 .388.315.703.703.703h10.313a.703.703 0 0 0 .703-.703 3.047 3.047 0 0 0-3.047-3.047zM5.86 15.516c-1.164 0-2.11.946-2.11 2.109s.946 2.11 2.11 2.11c1.162 0 2.109-.947 2.109-2.11 0-1.163-.947-2.11-2.11-2.11zm0 2.812a.703.703 0 1 1 0-1.406.703.703 0 0 1 0 1.406zM14.625.07v2.743h2.742A3.526 3.526 0 0 0 14.625.07z"/><path d="M14.86 18.868V17.19c0-.67-.186-1.405-.567-2.247a4.153 4.153 0 0 1-.371-1.724 4.225 4.225 0 0 1 3.515-4.16v-4.84h-3.515a.703.703 0 0 1-.703-.703V0H.703A.703.703 0 0 0 0 .703v22.594c0 .388.315.703.703.703h10.293a2.1 2.1 0 0 1-.121-.703 4.46 4.46 0 0 1 3.984-4.429zM3.046 5.672H14.39a.703.703 0 0 1 0 1.406H3.047a.703.703 0 0 1 0-1.406zm0 2.812H14.39a.703.703 0 0 1 0 1.407H3.047a.703.703 0 0 1 0-1.407zm2.812 12.657a3.52 3.52 0 0 1-3.515-3.516 3.52 3.52 0 0 1 3.515-3.516 3.52 3.52 0 0 1 3.516 3.516 3.52 3.52 0 0 1-3.516 3.516zm-2.812-8.438a.703.703 0 1 1 0-1.406h9.469a.703.703 0 1 1 0 1.406h-9.47z"/><path d="M15.328 13.219c0 .398.083.783.246 1.144.426.942.652 1.797.686 2.606h3.761c.035-.81.26-1.664.686-2.606.163-.36.246-.746.246-1.144a2.816 2.816 0 0 0-2.812-2.813 2.816 2.816 0 0 0-2.813 2.813z"/></g><defs><clipPath id="a"><path fill="#fff" d="M0 0h24v24H0z"/></clipPath></defs></svg>