<svg width="24" height="24" fill="none" xmlns="http://www.w3.org/2000/svg"><path d="M10.034 11.25H8.482c.016.473.062.946.139 1.413l1.413-1.413zM8.196 7.568a23.682 23.682 0 0 1-2.613-.577A7.457 7.457 0 0 0 4.51 10.5h3.221c.031-.993.187-1.978.465-2.932zM11.625 9.659V7.872c-.896-.015-1.79-.08-2.678-.195a11.034 11.034 0 0 0-.465 2.823h2.302l.841-.841zM10.252 3.58a7.458 7.458 0 0 0-4.223 2.756c.792.213 1.594.383 2.403.51a11.643 11.643 0 0 1 1.82-3.266zM11.625 7.122V3.384a7.53 7.53 0 0 0-.234.016 10.93 10.93 0 0 0-2.197 3.553c.806.099 1.618.155 2.431.169zM14.671 6.612A10.973 10.973 0 0 0 12.61 3.4a7.455 7.455 0 0 0-.234-.016v3.738c.634-.01 1.27-.048 1.897-.11l.4-.4zM16.448 4.836a7.444 7.444 0 0 0-2.7-1.256c.598.756 1.1 1.583 1.494 2.462l1.206-1.206zM12.375 7.872v1.037l1.08-1.08c-.36.023-.72.037-1.08.043zM7.731 11.25H4.51a7.515 7.515 0 0 0 1.451 4.073l2.017-2.017a11.843 11.843 0 0 1-.247-2.056zM18.04 6.427 7.551 16.914a7.445 7.445 0 0 0 3.698 1.424 7.615 7.615 0 0 0 1.822-.04.377.377 0 0 1 .428.372v1.37l2.74-2.967a.378.378 0 0 1 .06-.053 7.502 7.502 0 0 0 1.74-10.593zM12 15.375a.75.75 0 1 1 0-1.5.75.75 0 0 1 0 1.5zm2.25 0a.75.75 0 1 1 0-1.5.75.75 0 0 1 0 1.5zm2.25 0a.75.75 0 1 1 0-1.5.75.75 0 0 1 0 1.5zM3.861 3.415A10.5 10.5 0 0 0 2.67 16.926l-.317-.047a.375.375 0 1 0-.11.742l1.266.188a.376.376 0 0 0 .427-.325l.14-1.125a.375.375 0 0 0-.744-.093l-.032.253A9.751 9.751 0 0 1 4.39 3.948a.375.375 0 1 0-.528-.533z" fill="#6165D7"/><path d="M21.024 4.5h.282a.375.375 0 0 0 0-.75h-1.125a.375.375 0 0 0-.375.375V5.25a.375.375 0 1 0 .75 0v-.124a9.75 9.75 0 0 1-.947 12.61.375.375 0 1 0 .532.528A10.5 10.5 0 0 0 21.024 4.5z" fill="#6165D7"/></svg>