<svg width="48" height="48" fill="none" xmlns="http://www.w3.org/2000/svg"><path d="M11.36 29.674a6.32 6.32 0 0 0 3.239-.889 1.657 1.657 0 0 0 3.124-.768v-4.705a6.362 6.362 0 1 0-6.361 6.362h-.001zm0-9.41a3.048 3.048 0 1 1 .001 6.096 3.048 3.048 0 0 1 0-6.096zm29.543-6.967a4.43 4.43 0 0 0-6.265 0l-2.2 2.2-11.954 11.954c-.211.21-.361.474-.434.763l-1.339 5.26a1.657 1.657 0 0 0 2.015 2.014l5.26-1.338c.288-.073.552-.224.762-.434l14.155-14.154a4.43 4.43 0 0 0 0-6.265zm-3.133 2.017a1.116 1.116 0 0 1 .79 1.905l-1.029 1.028-1.578-1.578 1.028-1.029c.209-.21.493-.327.79-.327zM24.727 31.05l-2.117.539.539-2.118 10.46-10.46 1.58 1.578-10.462 10.46zm-7.457.905H5.93c-.514 0-.93.805-.93 1.8 0 .994.416 1.8.93 1.8h11.34c.514 0 .93-.806.93-1.8 0-.995-.416-1.8-.93-1.8z" fill="#6165D7"/></svg>