<svg width="48" height="48" fill="none" xmlns="http://www.w3.org/2000/svg"><g clip-path="url(#a)" fill="#6165D7"><path d="M24.785 25.221H6.998a1.657 1.657 0 1 0 0 3.314h17.786a1.657 1.657 0 0 0 0-3.314zm0-8.126H6.998a1.657 1.657 0 0 0 0 3.314h17.786a1.657 1.657 0 1 0 0-3.314zm0 16.252H6.998a1.657 1.657 0 1 0 0 3.314h17.786a1.657 1.657 0 0 0 0-3.314z"/><path d="M43.232 0H20.985a4.774 4.774 0 0 0-4.768 4.769v.987H4.767A4.774 4.774 0 0 0 0 10.525V43.23A4.774 4.774 0 0 0 4.768 48h22.247a4.774 4.774 0 0 0 4.768-4.769v-.987h11.45A4.774 4.774 0 0 0 48 37.475V4.769A4.774 4.774 0 0 0 43.232 0zM28.47 43.231a1.457 1.457 0 0 1-1.454 1.455H4.767a1.456 1.456 0 0 1-1.454-1.455V10.525c0-.803.65-1.454 1.454-1.455h22.247a1.456 1.456 0 0 1 1.454 1.455V43.23zm16.216-5.756c0 .803-.65 1.454-1.454 1.455H31.783v-8.025h9.219a1.657 1.657 0 0 0 0-3.314h-9.219v-4.812h9.219a1.657 1.657 0 1 0 0-3.314h-9.219v-4.812h9.219a1.657 1.657 0 0 0 0-3.314h-9.219v-.814a4.774 4.774 0 0 0-4.768-4.769H19.53V4.77a1.457 1.457 0 0 1 1.454-1.455h22.248a1.456 1.456 0 0 1 1.454 1.455v32.706z"/></g><defs><clipPath id="a"><path fill="#fff" d="M0 0h48v48H0z"/></clipPath></defs></svg>