<svg width="24" height="24" fill="none" xmlns="http://www.w3.org/2000/svg"><path d="M17 7a2.503 2.503 0 0 1-2.5-2.5V1H6a2.5 2.5 0 0 0-2.5 2.5v17A2.5 2.5 0 0 0 6 23h12a2.5 2.5 0 0 0 2.5-2.5V7H17zM7 5.5h5.5a.5.5 0 0 1 0 1H7a.5.5 0 1 1 0-1zm7.5 14H7a.5.5 0 0 1 0-1h7.5a.5.5 0 0 1 0 1zM17 17H7a.5.5 0 0 1 0-1h10a.5.5 0 0 1 0 1zm0-2.5H7a.5.5 0 0 1 0-1h10a.5.5 0 0 1 0 1zm0-2.5H7a.5.5 0 0 1 0-1h10a.5.5 0 0 1 0 1zm0-2.5H8.5a.5.5 0 1 1 0-1H17a.5.5 0 0 1 0 1z" fill="#6165D7"/><path d="m20.207 5.707-4.414-4.414a.994.994 0 0 0-.293-.2V4.5A1.5 1.5 0 0 0 17 6h3.407a.995.995 0 0 0-.2-.293z" fill="#6165D7"/></svg>