<svg width="14" height="14" fill="none" xmlns="http://www.w3.org/2000/svg"><g clip-path="url(#a)"><path d="M7.13.875c-3.332 0-6.032 2.68-6.032 5.985 0 1.131.316 2.188.865 3.09L.875 13.163l3.34-1.061a6.045 6.045 0 0 0 2.914.745c3.332 0 6.032-2.68 6.032-5.986 0-3.306-2.7-5.985-6.032-5.985zm2.998 8.258c-.141.353-.783.674-1.067.687-.283.015-.29.22-1.832-.45-1.543-.67-2.47-2.299-2.543-2.404-.073-.104-.597-.852-.57-1.604.03-.752.44-1.107.587-1.254a.587.587 0 0 1 .418-.175c.122-.003.2-.004.29 0 .09.004.224-.019.34.292.117.31.397 1.073.432 1.152.035.078.058.168.002.268-.055.1-.084.163-.163.25-.08.086-.169.193-.24.26-.08.072-.165.152-.08.31.085.156.376.667.817 1.089.568.541 1.058.722 1.21.803.151.083.242.073.334-.025.093-.099.402-.431.51-.58.11-.15.211-.12.35-.064.14.056.882.454 1.034.536.151.082.252.125.288.19.036.061.025.367-.117.72z" fill="#fff"/></g><defs><clipPath id="a"><path fill="#fff" transform="translate(.75 .75)" d="M0 0h12.537v12.537H0z"/></clipPath></defs></svg>