<svg width="16" height="16" fill="none" xmlns="http://www.w3.org/2000/svg"><g clip-path="url(#a)" fill="#6165D7"><path d="M15.531 5.936h-1a.469.469 0 0 0-.469.468v6.875c0 .26.21.469.47.469h1c.258 0 .468-.21.468-.469V6.404a.469.469 0 0 0-.469-.468zM9.064 2.977l.781-1.353A.625.625 0 0 0 9.616.77L9.075.458a.625.625 0 0 0-.854.229L7.44 2.04l1.624.937zm-8.507 8c.268.153.61.053.764-.213l3.83-6.635a1.25 1.25 0 0 0-1.039.215l-1.327.996c-.386.29-.707.657-.941 1.079L.139 9.484a1.102 1.102 0 0 0 .412 1.49l.006.003zm2.779-1.599H5.37l3.226-5.589-1.624-.937-3.77 6.53c.044-.002.09-.004.135-.004zm-1.822 2.927-.485.84a.469.469 0 0 0-.05.126L.53 15.163a.375.375 0 0 0 .622.359l1.415-1.333a.467.467 0 0 0 .084-.107l.384-.664a2.036 2.036 0 0 1-1.522-1.113zm5.553 1.135H4.106l-.62 1.072a1.094 1.094 0 0 0 1.88-.76 1.094 1.094 0 1 0 2.19 0v-.07c-.114-.052-.374-.184-.49-.242z"/><path d="M8.932 5.081 6.45 9.378h.736a.469.469 0 0 1 0 .937h-3.85a1.094 1.094 0 1 0 0 2.188h3.95l.52.259a6.46 6.46 0 0 0 2.873.678c.823 0 1.673-.161 2.445-.469V6.878h-.739L8.932 5.08z"/></g><defs><clipPath id="a"><path fill="#fff" d="M0 0h16v16H0z"/></clipPath></defs></svg>