<svg width="24" height="24" fill="none" xmlns="http://www.w3.org/2000/svg"><g clip-path="url(#a)" fill="#6165D7"><path d="M6.715 8.85V4.06H4.343L.738 6.04v.839l3.587 1.97h2.39zM21.986 4.06h1.252v4.799h-1.252v-4.8z"/><path d="M8.858 18.355h10.02v-.416l1.79-3.667V4.06h-.247a2.095 2.095 0 0 0-2.766-.866 2.097 2.097 0 0 0-2.843-1.092A2.097 2.097 0 0 0 12.85.738c-.898 0-1.665.569-1.962 1.364a2.097 2.097 0 0 0-2.872 1.162h.017v6.903H5.482v2.98l3.376 4.108v1.1zM7.672 19.673v3.565h12.453v-3.565H7.672zm3.525 2.599h-1.61V20.66h1.61v1.61z"/></g><defs><clipPath id="a"><path fill="#fff" d="M0 0h24v24H0z"/></clipPath></defs></svg>